M48
; DRILL file {KiCad 9.0.3} date 2025-08-10T23:57:38-0400
; FORMAT={-:-/ absolute / metric / decimal}
; #@! TF.CreationDate,2025-08-10T23:57:38-04:00
; #@! TF.GenerationSoftware,Kicad,Pcbnew,9.0.3
; #@! TF.FileFunction,Plated,1,2,PTH
FMAT,2
METRIC
; #@! TA.AperFunction,Plated,PTH,ViaDrill
T1C0.300
; #@! TA.AperFunction,Plated,PTH,ViaDrill
T2C0.400
; #@! TA.AperFunction,Plated,PTH,ComponentDrill
T3C0.600
; #@! TA.AperFunction,Plated,PTH,ComponentDrill
T4C1.000
; #@! TA.AperFunction,Plated,PTH,ComponentDrill
T5C1.100
; #@! TA.AperFunction,Plated,PTH,ComponentDrill
T6C1.300
%
G90
G05
T1
X4.25Y-25.0
X4.25Y-27.0
X5.0Y-28.8
X5.114Y-23.1
X6.6Y-30.4
X8.8Y-14.4
X8.8Y-21.4
X10.2Y-20.4
X11.0Y-26.0
X11.002Y-17.626
X14.75Y-27.75
X15.0Y-12.0
X15.25Y-20.25
X16.0Y-39.5
X19.755Y-23.5
X19.836Y-16.75
X22.481Y-11.0
X24.25Y-31.5
X26.75Y-13.5
X28.0Y-13.5
X28.5Y-28.5
X29.0Y-31.6
X30.837Y-13.498
X35.25Y-28.5
X36.25Y-28.5
X36.334Y-18.995
X36.698Y-15.826
X36.749Y-20.949
X36.75Y-21.75
X37.8Y-12.6
X38.6Y-35.8
X40.802Y-32.403
X41.201Y-8.091
X41.204Y-20.65
X41.243Y-19.291
X41.5Y-1.0
X41.8Y-30.8
X41.985Y-8.521
X42.35Y-17.6
X42.5Y-16.75
X42.5Y-30.25
X43.5Y-11.5
X43.5Y-25.25
X43.6Y-41.4
X43.784Y-37.8
X43.968Y-24.5
X44.37Y-1.07
X44.568Y-28.591
X44.624Y-15.026
X45.408Y-15.188
X45.5Y-12.25
X45.5Y-25.5
X46.852Y-15.19
X47.4Y-5.8
X47.4Y-7.8
X48.25Y-16.9
X48.5Y-30.15
X49.25Y-37.4
X50.2Y-13.6
X51.0Y-15.0
X51.6Y-1.2
X51.6Y-16.2
X51.793Y-30.207
X51.988Y-35.612
X52.15Y-21.671
X52.2Y-22.6
X52.2Y-36.4
X52.25Y-40.21
X53.118Y-39.282
X53.185Y-22.765
X53.5Y-23.5
X54.0Y-26.42
T2
X46.0Y-39.699
X46.25Y-28.0
X47.5Y-12.25
X48.0Y-23.15
X48.0Y-36.65
X48.356Y-25.905
X48.932Y-31.354
X49.0Y-17.9
X49.315Y-20.015
X49.39Y-33.568
T4
X4.71Y-11.0
X7.25Y-11.0
X9.79Y-11.0
X14.5Y-7.25
X14.5Y-35.0
X15.96Y-3.5
X17.04Y-7.25
X17.04Y-35.0
X18.5Y-3.5
X19.58Y-7.25
X19.58Y-35.0
X22.12Y-7.25
X22.12Y-35.0
X22.17Y-3.5
X22.17Y-38.75
X24.66Y-7.25
X24.66Y-35.0
X24.71Y-3.5
X24.71Y-38.75
X27.2Y-7.25
X27.2Y-35.0
X27.25Y-3.5
X27.25Y-38.75
X55.0Y-2.0
X55.0Y-4.54
X55.0Y-7.08
X55.0Y-9.62
X55.0Y-13.75
X55.0Y-16.29
X55.0Y-18.83
X55.0Y-21.37
X55.0Y-25.42
X55.0Y-27.96
X55.0Y-30.5
X55.0Y-34.67
X55.0Y-37.21
X55.0Y-39.75
T5
X30.7Y-33.3
X30.7Y-39.8
X30.75Y-3.0
X30.75Y-7.5
X35.2Y-33.3
X35.2Y-39.8
X37.25Y-3.0
X37.25Y-7.5
T6
X3.75Y-4.75
X3.75Y-37.5
X8.75Y-4.75
X8.75Y-37.5
T3
G00X3.4Y-13.57
M15
G01X2.6Y-13.57
M16
G05
G00X3.4Y-22.21
M15
G01X2.6Y-22.21
M16
G05
G00X7.73Y-13.57
M15
G01X6.63Y-13.57
M16
G05
G00X7.73Y-22.21
M15
G01X6.63Y-22.21
M16
G05
M30
