%TF.GenerationSoftware,KiCad,Pcbnew,9.0.3*%
%TF.CreationDate,2025-08-10T23:57:32-04:00*%
%TF.ProjectId,Hydra_Driver,48796472-615f-4447-9269-7665722e6b69,rev?*%
%TF.SameCoordinates,Original*%
%TF.FileFunction,Soldermask,Bot*%
%TF.FilePolarity,Negative*%
%FSLAX46Y46*%
G04 Gerber Fmt 4.6, Leading zero omitted, Abs format (unit mm)*
G04 Created by KiCad (PCBNEW 9.0.3) date 2025-08-10 23:57:32*
%MOMM*%
%LPD*%
G01*
G04 APERTURE LIST*
G04 Aperture macros list*
%AMRoundRect*
0 Rectangle with rounded corners*
0 $1 Rounding radius*
0 $2 $3 $4 $5 $6 $7 $8 $9 X,Y pos of 4 corners*
0 Add a 4 corners polygon primitive as box body*
4,1,4,$2,$3,$4,$5,$6,$7,$8,$9,$2,$3,0*
0 Add four circle primitives for the rounded corners*
1,1,$1+$1,$2,$3*
1,1,$1+$1,$4,$5*
1,1,$1+$1,$6,$7*
1,1,$1+$1,$8,$9*
0 Add four rect primitives between the rounded corners*
20,1,$1+$1,$2,$3,$4,$5,0*
20,1,$1+$1,$4,$5,$6,$7,0*
20,1,$1+$1,$6,$7,$8,$9,0*
20,1,$1+$1,$8,$9,$2,$3,0*%
G04 Aperture macros list end*
%ADD10R,1.700000X1.700000*%
%ADD11C,1.700000*%
%ADD12RoundRect,0.250001X-1.149999X-1.149999X1.149999X-1.149999X1.149999X1.149999X-1.149999X1.149999X0*%
%ADD13C,2.800000*%
%ADD14C,0.650000*%
%ADD15O,2.304000X1.204000*%
%ADD16O,2.004000X1.204000*%
%ADD17C,2.000000*%
%ADD18C,2.200000*%
G04 APERTURE END LIST*
D10*
%TO.C,J10*%
X22170000Y-3500000D03*
D11*
X24710000Y-3500000D03*
X27250000Y-3500000D03*
%TD*%
D12*
%TO.C,J2*%
X3750000Y-37500000D03*
D13*
X8750000Y-37500000D03*
%TD*%
D10*
%TO.C,J4*%
X22170000Y-38750000D03*
D11*
X24710000Y-38750000D03*
X27250000Y-38750000D03*
%TD*%
D14*
%TO.C,J1*%
X6680000Y-15000000D03*
X6680000Y-20780000D03*
D15*
X7180000Y-13570000D03*
X7180000Y-22210000D03*
D16*
X3000000Y-13570000D03*
X3000000Y-22210000D03*
%TD*%
D17*
%TO.C,SW2*%
X30700000Y-39800000D03*
X30700000Y-33300000D03*
X35200000Y-39800000D03*
X35200000Y-33300000D03*
%TD*%
D18*
%TO.C,REF\u002A\u002A*%
X39400000Y-39400000D03*
%TD*%
D17*
%TO.C,SW1*%
X30750000Y-3000000D03*
X37250000Y-3000000D03*
X30750000Y-7500000D03*
X37250000Y-7500000D03*
%TD*%
D12*
%TO.C,J13*%
X3750000Y-4750000D03*
D13*
X8750000Y-4750000D03*
%TD*%
D10*
%TO.C,J8*%
X4710000Y-11000000D03*
D11*
X7250000Y-11000000D03*
X9790000Y-11000000D03*
%TD*%
D18*
%TO.C,REF\u002A\u002A*%
X50200000Y-10000000D03*
%TD*%
%TO.C,REF\u002A\u002A*%
X2600000Y-30000000D03*
%TD*%
D10*
%TO.C,J7*%
X15960000Y-3500000D03*
D11*
X18500000Y-3500000D03*
%TD*%
D10*
%TO.C,J11*%
X55000000Y-21370000D03*
D11*
X55000000Y-18830000D03*
X55000000Y-16290000D03*
X55000000Y-13750000D03*
%TD*%
D10*
%TO.C,J6*%
X55000000Y-39750000D03*
D11*
X55000000Y-37210000D03*
X55000000Y-34670000D03*
%TD*%
D10*
%TO.C,J12*%
X55000000Y-30500000D03*
D11*
X55000000Y-27960000D03*
X55000000Y-25420000D03*
%TD*%
D10*
%TO.C,J5*%
X55000000Y-9620000D03*
D11*
X55000000Y-7080000D03*
X55000000Y-4540000D03*
X55000000Y-2000000D03*
%TD*%
D10*
%TO.C,J3*%
X27200000Y-35000000D03*
D11*
X24660000Y-35000000D03*
X22120000Y-35000000D03*
X19580000Y-35000000D03*
X17040000Y-35000000D03*
X14500000Y-35000000D03*
%TD*%
D10*
%TO.C,J9*%
X27200000Y-7250000D03*
D11*
X24660000Y-7250000D03*
X22120000Y-7250000D03*
X19580000Y-7250000D03*
X17040000Y-7250000D03*
X14500000Y-7250000D03*
%TD*%
M02*
