%TF.GenerationSoftware,KiCad,Pcbnew,9.0.3*%
%TF.CreationDate,2025-08-10T23:57:32-04:00*%
%TF.ProjectId,Hydra_Driver,48796472-615f-4447-9269-7665722e6b69,rev?*%
%TF.SameCoordinates,Original*%
%TF.FileFunction,Soldermask,Top*%
%TF.FilePolarity,Negative*%
%FSLAX46Y46*%
G04 Gerber Fmt 4.6, Leading zero omitted, Abs format (unit mm)*
G04 Created by KiCad (PCBNEW 9.0.3) date 2025-08-10 23:57:32*
%MOMM*%
%LPD*%
G01*
G04 APERTURE LIST*
G04 Aperture macros list*
%AMRoundRect*
0 Rectangle with rounded corners*
0 $1 Rounding radius*
0 $2 $3 $4 $5 $6 $7 $8 $9 X,Y pos of 4 corners*
0 Add a 4 corners polygon primitive as box body*
4,1,4,$2,$3,$4,$5,$6,$7,$8,$9,$2,$3,0*
0 Add four circle primitives for the rounded corners*
1,1,$1+$1,$2,$3*
1,1,$1+$1,$4,$5*
1,1,$1+$1,$6,$7*
1,1,$1+$1,$8,$9*
0 Add four rect primitives between the rounded corners*
20,1,$1+$1,$2,$3,$4,$5,0*
20,1,$1+$1,$4,$5,$6,$7,0*
20,1,$1+$1,$6,$7,$8,$9,0*
20,1,$1+$1,$8,$9,$2,$3,0*%
G04 Aperture macros list end*
%ADD10C,0.010000*%
%ADD11RoundRect,0.140000X0.170000X-0.140000X0.170000X0.140000X-0.170000X0.140000X-0.170000X-0.140000X0*%
%ADD12RoundRect,0.135000X-0.135000X-0.185000X0.135000X-0.185000X0.135000X0.185000X-0.135000X0.185000X0*%
%ADD13R,0.900000X1.500000*%
%ADD14R,1.500000X0.900000*%
%ADD15R,0.900000X0.900000*%
%ADD16R,1.700000X1.700000*%
%ADD17C,1.700000*%
%ADD18RoundRect,0.218750X0.218750X0.256250X-0.218750X0.256250X-0.218750X-0.256250X0.218750X-0.256250X0*%
%ADD19RoundRect,0.140000X0.140000X0.170000X-0.140000X0.170000X-0.140000X-0.170000X0.140000X-0.170000X0*%
%ADD20RoundRect,0.250001X-1.149999X-1.149999X1.149999X-1.149999X1.149999X1.149999X-1.149999X1.149999X0*%
%ADD21C,2.800000*%
%ADD22R,1.320800X0.508000*%
%ADD23RoundRect,0.140000X-0.170000X0.140000X-0.170000X-0.140000X0.170000X-0.140000X0.170000X0.140000X0*%
%ADD24RoundRect,0.140000X-0.140000X-0.170000X0.140000X-0.170000X0.140000X0.170000X-0.140000X0.170000X0*%
%ADD25RoundRect,0.112500X-0.112500X0.187500X-0.112500X-0.187500X0.112500X-0.187500X0.112500X0.187500X0*%
%ADD26RoundRect,0.135000X0.135000X0.185000X-0.135000X0.185000X-0.135000X-0.185000X0.135000X-0.185000X0*%
%ADD27C,0.650000*%
%ADD28O,2.304000X1.204000*%
%ADD29O,2.004000X1.204000*%
%ADD30RoundRect,0.100000X0.225000X0.100000X-0.225000X0.100000X-0.225000X-0.100000X0.225000X-0.100000X0*%
%ADD31RoundRect,0.250000X0.475000X-0.250000X0.475000X0.250000X-0.475000X0.250000X-0.475000X-0.250000X0*%
%ADD32C,2.000000*%
%ADD33R,0.300000X0.900000*%
%ADD34R,0.900000X0.300000*%
%ADD35R,4.500000X4.500000*%
%ADD36C,2.200000*%
%ADD37RoundRect,0.100000X-0.100000X0.225000X-0.100000X-0.225000X0.100000X-0.225000X0.100000X0.225000X0*%
%ADD38RoundRect,0.250000X0.250000X0.475000X-0.250000X0.475000X-0.250000X-0.475000X0.250000X-0.475000X0*%
%ADD39RoundRect,0.135000X0.185000X-0.135000X0.185000X0.135000X-0.185000X0.135000X-0.185000X-0.135000X0*%
%ADD40RoundRect,0.250000X-0.250000X-0.475000X0.250000X-0.475000X0.250000X0.475000X-0.250000X0.475000X0*%
%ADD41RoundRect,0.200000X-0.200000X-0.275000X0.200000X-0.275000X0.200000X0.275000X-0.200000X0.275000X0*%
%ADD42RoundRect,0.150000X0.512500X0.150000X-0.512500X0.150000X-0.512500X-0.150000X0.512500X-0.150000X0*%
G04 APERTURE END LIST*
D10*
%TO.C,J1*%
X8380000Y-15040000D02*
X7130000Y-15040000D01*
X7130000Y-14340000D01*
X8380000Y-14340000D01*
X8380000Y-15040000D01*
G36*
X8380000Y-15040000D02*
G01*
X7130000Y-15040000D01*
X7130000Y-14340000D01*
X8380000Y-14340000D01*
X8380000Y-15040000D01*
G37*
X8380000Y-15840000D02*
X7130000Y-15840000D01*
X7130000Y-15140000D01*
X8380000Y-15140000D01*
X8380000Y-15840000D01*
G36*
X8380000Y-15840000D02*
G01*
X7130000Y-15840000D01*
X7130000Y-15140000D01*
X8380000Y-15140000D01*
X8380000Y-15840000D01*
G37*
X8380000Y-16340000D02*
X7130000Y-16340000D01*
X7130000Y-15940000D01*
X8380000Y-15940000D01*
X8380000Y-16340000D01*
G36*
X8380000Y-16340000D02*
G01*
X7130000Y-16340000D01*
X7130000Y-15940000D01*
X8380000Y-15940000D01*
X8380000Y-16340000D01*
G37*
X8380000Y-16840000D02*
X7130000Y-16840000D01*
X7130000Y-16440000D01*
X8380000Y-16440000D01*
X8380000Y-16840000D01*
G36*
X8380000Y-16840000D02*
G01*
X7130000Y-16840000D01*
X7130000Y-16440000D01*
X8380000Y-16440000D01*
X8380000Y-16840000D01*
G37*
X8380000Y-17340000D02*
X7130000Y-17340000D01*
X7130000Y-16940000D01*
X8380000Y-16940000D01*
X8380000Y-17340000D01*
G36*
X8380000Y-17340000D02*
G01*
X7130000Y-17340000D01*
X7130000Y-16940000D01*
X8380000Y-16940000D01*
X8380000Y-17340000D01*
G37*
X8380000Y-17840000D02*
X7130000Y-17840000D01*
X7130000Y-17440000D01*
X8380000Y-17440000D01*
X8380000Y-17840000D01*
G36*
X8380000Y-17840000D02*
G01*
X7130000Y-17840000D01*
X7130000Y-17440000D01*
X8380000Y-17440000D01*
X8380000Y-17840000D01*
G37*
X8380000Y-18340000D02*
X7130000Y-18340000D01*
X7130000Y-17940000D01*
X8380000Y-17940000D01*
X8380000Y-18340000D01*
G36*
X8380000Y-18340000D02*
G01*
X7130000Y-18340000D01*
X7130000Y-17940000D01*
X8380000Y-17940000D01*
X8380000Y-18340000D01*
G37*
X8380000Y-18840000D02*
X7130000Y-18840000D01*
X7130000Y-18440000D01*
X8380000Y-18440000D01*
X8380000Y-18840000D01*
G36*
X8380000Y-18840000D02*
G01*
X7130000Y-18840000D01*
X7130000Y-18440000D01*
X8380000Y-18440000D01*
X8380000Y-18840000D01*
G37*
X8380000Y-19340000D02*
X7130000Y-19340000D01*
X7130000Y-18940000D01*
X8380000Y-18940000D01*
X8380000Y-19340000D01*
G36*
X8380000Y-19340000D02*
G01*
X7130000Y-19340000D01*
X7130000Y-18940000D01*
X8380000Y-18940000D01*
X8380000Y-19340000D01*
G37*
X8380000Y-19840000D02*
X7130000Y-19840000D01*
X7130000Y-19440000D01*
X8380000Y-19440000D01*
X8380000Y-19840000D01*
G36*
X8380000Y-19840000D02*
G01*
X7130000Y-19840000D01*
X7130000Y-19440000D01*
X8380000Y-19440000D01*
X8380000Y-19840000D01*
G37*
X8380000Y-20640000D02*
X7130000Y-20640000D01*
X7130000Y-19940000D01*
X8380000Y-19940000D01*
X8380000Y-20640000D01*
G36*
X8380000Y-20640000D02*
G01*
X7130000Y-20640000D01*
X7130000Y-19940000D01*
X8380000Y-19940000D01*
X8380000Y-20640000D01*
G37*
X8380000Y-21440000D02*
X7130000Y-21440000D01*
X7130000Y-20740000D01*
X8380000Y-20740000D01*
X8380000Y-21440000D01*
G36*
X8380000Y-21440000D02*
G01*
X7130000Y-21440000D01*
X7130000Y-20740000D01*
X8380000Y-20740000D01*
X8380000Y-21440000D01*
G37*
%TD*%
D11*
%TO.C,C11*%
X41750000Y-2900000D03*
X41750000Y-1940000D03*
%TD*%
D12*
%TO.C,R2*%
X9600000Y-16750000D03*
X10620000Y-16750000D03*
%TD*%
D13*
%TO.C,IC1*%
X20180000Y-29750000D03*
X21450000Y-29750000D03*
X22720000Y-29750000D03*
X23990000Y-29750000D03*
X25260000Y-29750000D03*
X26530000Y-29750000D03*
X27800000Y-29750000D03*
X29070000Y-29750000D03*
X30340000Y-29750000D03*
X31610000Y-29750000D03*
X32880000Y-29750000D03*
X34150000Y-29750000D03*
X35420000Y-29750000D03*
X36690000Y-29750000D03*
D14*
X37940000Y-27985000D03*
X37940000Y-26715000D03*
X37940000Y-25445000D03*
X37940000Y-24175000D03*
X37940000Y-22905000D03*
X37940000Y-21635000D03*
X37940000Y-20365000D03*
X37940000Y-19095000D03*
X37940000Y-17825000D03*
X37940000Y-16555000D03*
X37940000Y-15285000D03*
X37940000Y-14015000D03*
D13*
X36690000Y-12250000D03*
X35420000Y-12250000D03*
X34150000Y-12250000D03*
X32880000Y-12250000D03*
X31610000Y-12250000D03*
X30340000Y-12250000D03*
X29070000Y-12250000D03*
X27800000Y-12250000D03*
X26530000Y-12250000D03*
X25260000Y-12250000D03*
X23990000Y-12250000D03*
X22720000Y-12250000D03*
X21450000Y-12250000D03*
X20180000Y-12250000D03*
D15*
X27900000Y-22500000D03*
X27900000Y-21100000D03*
X26500000Y-21100000D03*
X26500000Y-22500000D03*
X26500000Y-23900000D03*
X27900000Y-23900000D03*
X29300000Y-23900000D03*
X29300000Y-22500000D03*
X29300000Y-21100000D03*
%TD*%
D16*
%TO.C,J10*%
X22170000Y-3500000D03*
D17*
X24710000Y-3500000D03*
X27250000Y-3500000D03*
%TD*%
D12*
%TO.C,R12*%
X41750000Y-24900000D03*
X42770000Y-24900000D03*
%TD*%
D18*
%TO.C,D4*%
X43575000Y-26400000D03*
X42000000Y-26400000D03*
%TD*%
D19*
%TO.C,C26*%
X47960000Y-24500000D03*
X47000000Y-24500000D03*
%TD*%
D12*
%TO.C,R24*%
X44980000Y-13150000D03*
X46000000Y-13150000D03*
%TD*%
D20*
%TO.C,J2*%
X3750000Y-37500000D03*
D21*
X8750000Y-37500000D03*
%TD*%
D19*
%TO.C,C5*%
X6035000Y-28000000D03*
X5075000Y-28000000D03*
%TD*%
D22*
%TO.C,U2*%
X47890800Y-3650001D03*
X47890800Y-2700000D03*
X47890800Y-1749999D03*
X45300000Y-1749999D03*
X45300000Y-3650001D03*
%TD*%
D23*
%TO.C,C10*%
X37600000Y-34200000D03*
X37600000Y-35160000D03*
%TD*%
D12*
%TO.C,R13*%
X41750000Y-27900000D03*
X42770000Y-27900000D03*
%TD*%
D24*
%TO.C,C2*%
X19290000Y-32500000D03*
X20250000Y-32500000D03*
%TD*%
D25*
%TO.C,D1*%
X10250000Y-13500000D03*
X10250000Y-15600000D03*
%TD*%
D19*
%TO.C,C17*%
X51210000Y-37400000D03*
X50250000Y-37400000D03*
%TD*%
D11*
%TO.C,C9*%
X51500000Y-2860000D03*
X51500000Y-1900000D03*
%TD*%
D12*
%TO.C,R5*%
X5015000Y-24900000D03*
X6035000Y-24900000D03*
%TD*%
D16*
%TO.C,J4*%
X22170000Y-38750000D03*
D17*
X24710000Y-38750000D03*
X27250000Y-38750000D03*
%TD*%
D26*
%TO.C,R8*%
X27220000Y-41200000D03*
X26200000Y-41200000D03*
%TD*%
D12*
%TO.C,R17*%
X44730000Y-26500000D03*
X45750000Y-26500000D03*
%TD*%
D27*
%TO.C,J1*%
X6680000Y-15000000D03*
X6680000Y-20780000D03*
D28*
X7180000Y-13570000D03*
X7180000Y-22210000D03*
D29*
X3000000Y-13570000D03*
X3000000Y-22210000D03*
%TD*%
D19*
%TO.C,C29*%
X47960000Y-16000000D03*
X47000000Y-16000000D03*
%TD*%
%TO.C,C21*%
X50460000Y-28900000D03*
X49500000Y-28900000D03*
%TD*%
%TO.C,C13*%
X45740000Y-37900000D03*
X44780000Y-37900000D03*
%TD*%
%TO.C,C30*%
X51250000Y-20000000D03*
X50290000Y-20000000D03*
%TD*%
%TO.C,C24*%
X47500000Y-25500000D03*
X46540000Y-25500000D03*
%TD*%
D30*
%TO.C,U3*%
X51000000Y-40050000D03*
X51000000Y-39400000D03*
X51000000Y-38750000D03*
X49100000Y-38750000D03*
X49100000Y-39400000D03*
X49100000Y-40050000D03*
%TD*%
D31*
%TO.C,C12*%
X43250000Y-3400000D03*
X43250000Y-1500000D03*
%TD*%
D32*
%TO.C,SW2*%
X30700000Y-39800000D03*
X30700000Y-33300000D03*
X35200000Y-39800000D03*
X35200000Y-33300000D03*
%TD*%
D33*
%TO.C,IC2*%
X43000000Y-36550000D03*
X43500000Y-36550000D03*
X44000000Y-36550000D03*
X44500000Y-36550000D03*
X45000000Y-36550000D03*
X45500000Y-36550000D03*
X46000000Y-36550000D03*
X46500000Y-36550000D03*
X47000000Y-36550000D03*
D34*
X47900000Y-35650000D03*
X47900000Y-35150000D03*
X47900000Y-34650000D03*
X47900000Y-34150000D03*
X47900000Y-33650000D03*
X47900000Y-33150000D03*
X47900000Y-32650000D03*
X47900000Y-32150000D03*
X47900000Y-31650000D03*
D33*
X47000000Y-30750000D03*
X46500000Y-30750000D03*
X46000000Y-30750000D03*
X45500000Y-30750000D03*
X45000000Y-30750000D03*
X44500000Y-30750000D03*
X44000000Y-30750000D03*
X43500000Y-30750000D03*
X43000000Y-30750000D03*
D34*
X42100000Y-31650000D03*
X42100000Y-32150000D03*
X42100000Y-32650000D03*
X42100000Y-33150000D03*
X42100000Y-33650000D03*
X42100000Y-34150000D03*
X42100000Y-34650000D03*
X42100000Y-35150000D03*
X42100000Y-35650000D03*
D35*
X45000000Y-33650000D03*
%TD*%
D18*
%TO.C,D5*%
X43575000Y-13150000D03*
X42000000Y-13150000D03*
%TD*%
D36*
%TO.C,REF\u002A\u002A*%
X39400000Y-39400000D03*
%TD*%
D12*
%TO.C,R4*%
X5015000Y-26900000D03*
X6035000Y-26900000D03*
%TD*%
D37*
%TO.C,U6*%
X50900000Y-16750000D03*
X50250000Y-16750000D03*
X49600000Y-16750000D03*
X49600000Y-18650000D03*
X50250000Y-18650000D03*
X50900000Y-18650000D03*
%TD*%
D19*
%TO.C,C22*%
X45710000Y-29400000D03*
X44750000Y-29400000D03*
%TD*%
D38*
%TO.C,C15*%
X49250000Y-27400000D03*
X47350000Y-27400000D03*
%TD*%
D39*
%TO.C,R7*%
X42400000Y-41220000D03*
X42400000Y-40200000D03*
%TD*%
D32*
%TO.C,SW1*%
X30750000Y-3000000D03*
X37250000Y-3000000D03*
X30750000Y-7500000D03*
X37250000Y-7500000D03*
%TD*%
D19*
%TO.C,C19*%
X47960000Y-29400000D03*
X47000000Y-29400000D03*
%TD*%
D18*
%TO.C,D3*%
X44325000Y-7791950D03*
X42750000Y-7791950D03*
%TD*%
D33*
%TO.C,IC3*%
X43000000Y-23150000D03*
X43500000Y-23150000D03*
X44000000Y-23150000D03*
X44500000Y-23150000D03*
X45000000Y-23150000D03*
X45500000Y-23150000D03*
X46000000Y-23150000D03*
X46500000Y-23150000D03*
X47000000Y-23150000D03*
D34*
X47900000Y-22250000D03*
X47900000Y-21750000D03*
X47900000Y-21250000D03*
X47900000Y-20750000D03*
X47900000Y-20250000D03*
X47900000Y-19750000D03*
X47900000Y-19250000D03*
X47900000Y-18750000D03*
X47900000Y-18250000D03*
D33*
X47000000Y-17350000D03*
X46500000Y-17350000D03*
X46000000Y-17350000D03*
X45500000Y-17350000D03*
X45000000Y-17350000D03*
X44500000Y-17350000D03*
X44000000Y-17350000D03*
X43500000Y-17350000D03*
X43000000Y-17350000D03*
D34*
X42100000Y-18250000D03*
X42100000Y-18750000D03*
X42100000Y-19250000D03*
X42100000Y-19750000D03*
X42100000Y-20250000D03*
X42100000Y-20750000D03*
X42100000Y-21250000D03*
X42100000Y-21750000D03*
X42100000Y-22250000D03*
D35*
X45000000Y-20250000D03*
%TD*%
D23*
%TO.C,C28*%
X52500000Y-23440000D03*
X52500000Y-24400000D03*
%TD*%
D12*
%TO.C,R9*%
X45555000Y-5791950D03*
X46575000Y-5791950D03*
%TD*%
D20*
%TO.C,J13*%
X3750000Y-4750000D03*
D21*
X8750000Y-4750000D03*
%TD*%
D19*
%TO.C,C14*%
X47500000Y-38900000D03*
X46540000Y-38900000D03*
%TD*%
%TO.C,C23*%
X45750000Y-24500000D03*
X44790000Y-24500000D03*
%TD*%
D16*
%TO.C,J8*%
X4710000Y-11000000D03*
D17*
X7250000Y-11000000D03*
X9790000Y-11000000D03*
%TD*%
D26*
%TO.C,R6*%
X40500000Y-7291950D03*
X39480000Y-7291950D03*
%TD*%
D19*
%TO.C,C16*%
X47960000Y-37900000D03*
X47000000Y-37900000D03*
%TD*%
D11*
%TO.C,C18*%
X52250000Y-39460000D03*
X52250000Y-38500000D03*
%TD*%
D36*
%TO.C,REF\u002A\u002A*%
X50200000Y-10000000D03*
%TD*%
D12*
%TO.C,R3*%
X9200000Y-19600000D03*
X10220000Y-19600000D03*
%TD*%
%TO.C,R10*%
X45575000Y-7791950D03*
X46595000Y-7791950D03*
%TD*%
D26*
%TO.C,R21*%
X42770000Y-16000000D03*
X41750000Y-16000000D03*
%TD*%
D39*
%TO.C,R23*%
X43750000Y-16020000D03*
X43750000Y-15000000D03*
%TD*%
D31*
%TO.C,C8*%
X50000000Y-3400000D03*
X50000000Y-1500000D03*
%TD*%
D12*
%TO.C,R1*%
X21230000Y-32500000D03*
X22250000Y-32500000D03*
%TD*%
D36*
%TO.C,REF\u002A\u002A*%
X2600000Y-30000000D03*
%TD*%
D37*
%TO.C,U5*%
X52150000Y-25650000D03*
X51500000Y-25650000D03*
X50850000Y-25650000D03*
X50850000Y-27550000D03*
X51500000Y-27550000D03*
X52150000Y-27550000D03*
%TD*%
D26*
%TO.C,R14*%
X42770000Y-29400000D03*
X41750000Y-29400000D03*
%TD*%
D19*
%TO.C,C27*%
X51210000Y-24000000D03*
X50250000Y-24000000D03*
%TD*%
D40*
%TO.C,C3*%
X14850000Y-32500000D03*
X16750000Y-32500000D03*
%TD*%
D24*
%TO.C,C7*%
X39500000Y-8541950D03*
X40460000Y-8541950D03*
%TD*%
%TO.C,C1*%
X23250000Y-32500000D03*
X24210000Y-32500000D03*
%TD*%
D41*
%TO.C,R11*%
X49500000Y-36150000D03*
X51150000Y-36150000D03*
%TD*%
D12*
%TO.C,R20*%
X41730000Y-14650000D03*
X42750000Y-14650000D03*
%TD*%
D19*
%TO.C,C31*%
X50460000Y-15500000D03*
X49500000Y-15500000D03*
%TD*%
D18*
%TO.C,D2*%
X44325000Y-5791950D03*
X42750000Y-5791950D03*
%TD*%
D38*
%TO.C,C25*%
X49250000Y-14000000D03*
X47350000Y-14000000D03*
%TD*%
D42*
%TO.C,U1*%
X9835000Y-26900000D03*
X9835000Y-25950000D03*
X9835000Y-25000000D03*
X7560000Y-25000000D03*
X7560000Y-25950000D03*
X7560000Y-26900000D03*
%TD*%
D41*
%TO.C,R22*%
X49500000Y-21250000D03*
X51150000Y-21250000D03*
%TD*%
%TO.C,R18*%
X49500000Y-22750000D03*
X51150000Y-22750000D03*
%TD*%
D16*
%TO.C,J7*%
X15960000Y-3500000D03*
D17*
X18500000Y-3500000D03*
%TD*%
D37*
%TO.C,U4*%
X50900000Y-30150000D03*
X50250000Y-30150000D03*
X49600000Y-30150000D03*
X49600000Y-32050000D03*
X50250000Y-32050000D03*
X50900000Y-32050000D03*
%TD*%
D19*
%TO.C,C20*%
X51250000Y-33400000D03*
X50290000Y-33400000D03*
%TD*%
D12*
%TO.C,R19*%
X41730000Y-11650000D03*
X42750000Y-11650000D03*
%TD*%
D19*
%TO.C,C6*%
X5960000Y-23800000D03*
X5000000Y-23800000D03*
%TD*%
D40*
%TO.C,C4*%
X7600000Y-30000000D03*
X9500000Y-30000000D03*
%TD*%
D41*
%TO.C,R15*%
X49500000Y-34650000D03*
X51150000Y-34650000D03*
%TD*%
D39*
%TO.C,R16*%
X43750000Y-29420000D03*
X43750000Y-28400000D03*
%TD*%
D19*
%TO.C,C32*%
X45710000Y-16000000D03*
X44750000Y-16000000D03*
%TD*%
D16*
%TO.C,J11*%
X55000000Y-21370000D03*
D17*
X55000000Y-18830000D03*
X55000000Y-16290000D03*
X55000000Y-13750000D03*
%TD*%
D16*
%TO.C,J6*%
X55000000Y-39750000D03*
D17*
X55000000Y-37210000D03*
X55000000Y-34670000D03*
%TD*%
D16*
%TO.C,J12*%
X55000000Y-30500000D03*
D17*
X55000000Y-27960000D03*
X55000000Y-25420000D03*
%TD*%
D16*
%TO.C,J5*%
X55000000Y-9620000D03*
D17*
X55000000Y-7080000D03*
X55000000Y-4540000D03*
X55000000Y-2000000D03*
%TD*%
D16*
%TO.C,J3*%
X27200000Y-35000000D03*
D17*
X24660000Y-35000000D03*
X22120000Y-35000000D03*
X19580000Y-35000000D03*
X17040000Y-35000000D03*
X14500000Y-35000000D03*
%TD*%
D16*
%TO.C,J9*%
X27200000Y-7250000D03*
D17*
X24660000Y-7250000D03*
X22120000Y-7250000D03*
X19580000Y-7250000D03*
X17040000Y-7250000D03*
X14500000Y-7250000D03*
%TD*%
M02*
