%TF.GenerationSoftware,KiCad,Pcbnew,9.0.3*%
%TF.CreationDate,2025-08-10T23:59:10-04:00*%
%TF.ProjectId,Hydra_Driver_Shield,48796472-615f-4447-9269-7665725f5368,rev?*%
%TF.SameCoordinates,Original*%
%TF.FileFunction,Legend,Bot*%
%TF.FilePolarity,Positive*%
%FSLAX46Y46*%
G04 Gerber Fmt 4.6, Leading zero omitted, Abs format (unit mm)*
G04 Created by KiCad (PCBNEW 9.0.3) date 2025-08-10 23:59:10*
%MOMM*%
%LPD*%
G01*
G04 APERTURE LIST*
%ADD10C,0.150000*%
%ADD11C,0.120000*%
G04 APERTURE END LIST*
D10*
X16667438Y-8860588D02*
X16619819Y-8765350D01*
X16619819Y-8765350D02*
X16619819Y-8622493D01*
X16619819Y-8622493D02*
X16667438Y-8479636D01*
X16667438Y-8479636D02*
X16762676Y-8384398D01*
X16762676Y-8384398D02*
X16857914Y-8336779D01*
X16857914Y-8336779D02*
X17048390Y-8289160D01*
X17048390Y-8289160D02*
X17191247Y-8289160D01*
X17191247Y-8289160D02*
X17381723Y-8336779D01*
X17381723Y-8336779D02*
X17476961Y-8384398D01*
X17476961Y-8384398D02*
X17572200Y-8479636D01*
X17572200Y-8479636D02*
X17619819Y-8622493D01*
X17619819Y-8622493D02*
X17619819Y-8717731D01*
X17619819Y-8717731D02*
X17572200Y-8860588D01*
X17572200Y-8860588D02*
X17524580Y-8908207D01*
X17524580Y-8908207D02*
X17191247Y-8908207D01*
X17191247Y-8908207D02*
X17191247Y-8717731D01*
X17619819Y-9336779D02*
X16619819Y-9336779D01*
X16619819Y-9336779D02*
X17619819Y-9908207D01*
X17619819Y-9908207D02*
X16619819Y-9908207D01*
X17619819Y-10384398D02*
X16619819Y-10384398D01*
X16619819Y-10384398D02*
X16619819Y-10622493D01*
X16619819Y-10622493D02*
X16667438Y-10765350D01*
X16667438Y-10765350D02*
X16762676Y-10860588D01*
X16762676Y-10860588D02*
X16857914Y-10908207D01*
X16857914Y-10908207D02*
X17048390Y-10955826D01*
X17048390Y-10955826D02*
X17191247Y-10955826D01*
X17191247Y-10955826D02*
X17381723Y-10908207D01*
X17381723Y-10908207D02*
X17476961Y-10860588D01*
X17476961Y-10860588D02*
X17572200Y-10765350D01*
X17572200Y-10765350D02*
X17619819Y-10622493D01*
X17619819Y-10622493D02*
X17619819Y-10384398D01*
X53510839Y-16622200D02*
X53367982Y-16669819D01*
X53367982Y-16669819D02*
X53129887Y-16669819D01*
X53129887Y-16669819D02*
X53034649Y-16622200D01*
X53034649Y-16622200D02*
X52987030Y-16574580D01*
X52987030Y-16574580D02*
X52939411Y-16479342D01*
X52939411Y-16479342D02*
X52939411Y-16384104D01*
X52939411Y-16384104D02*
X52987030Y-16288866D01*
X52987030Y-16288866D02*
X53034649Y-16241247D01*
X53034649Y-16241247D02*
X53129887Y-16193628D01*
X53129887Y-16193628D02*
X53320363Y-16146009D01*
X53320363Y-16146009D02*
X53415601Y-16098390D01*
X53415601Y-16098390D02*
X53463220Y-16050771D01*
X53463220Y-16050771D02*
X53510839Y-15955533D01*
X53510839Y-15955533D02*
X53510839Y-15860295D01*
X53510839Y-15860295D02*
X53463220Y-15765057D01*
X53463220Y-15765057D02*
X53415601Y-15717438D01*
X53415601Y-15717438D02*
X53320363Y-15669819D01*
X53320363Y-15669819D02*
X53082268Y-15669819D01*
X53082268Y-15669819D02*
X52939411Y-15717438D01*
X52510839Y-16669819D02*
X52510839Y-15669819D01*
X52510839Y-15669819D02*
X52272744Y-15669819D01*
X52272744Y-15669819D02*
X52129887Y-15717438D01*
X52129887Y-15717438D02*
X52034649Y-15812676D01*
X52034649Y-15812676D02*
X51987030Y-15907914D01*
X51987030Y-15907914D02*
X51939411Y-16098390D01*
X51939411Y-16098390D02*
X51939411Y-16241247D01*
X51939411Y-16241247D02*
X51987030Y-16431723D01*
X51987030Y-16431723D02*
X52034649Y-16526961D01*
X52034649Y-16526961D02*
X52129887Y-16622200D01*
X52129887Y-16622200D02*
X52272744Y-16669819D01*
X52272744Y-16669819D02*
X52510839Y-16669819D01*
X51558458Y-16384104D02*
X51082268Y-16384104D01*
X51653696Y-16669819D02*
X51320363Y-15669819D01*
X51320363Y-15669819D02*
X50987030Y-16669819D01*
X22619819Y-33062969D02*
X22619819Y-32586779D01*
X22619819Y-32586779D02*
X21619819Y-32586779D01*
X22619819Y-33920112D02*
X22619819Y-33348684D01*
X22619819Y-33634398D02*
X21619819Y-33634398D01*
X21619819Y-33634398D02*
X21762676Y-33539160D01*
X21762676Y-33539160D02*
X21857914Y-33443922D01*
X21857914Y-33443922D02*
X21905533Y-33348684D01*
X20119819Y-8336779D02*
X19119819Y-8336779D01*
X19119819Y-8336779D02*
X19834104Y-8670112D01*
X19834104Y-8670112D02*
X19119819Y-9003445D01*
X19119819Y-9003445D02*
X20119819Y-9003445D01*
X20119819Y-9479636D02*
X19119819Y-9479636D01*
X20072200Y-9908207D02*
X20119819Y-10051064D01*
X20119819Y-10051064D02*
X20119819Y-10289159D01*
X20119819Y-10289159D02*
X20072200Y-10384397D01*
X20072200Y-10384397D02*
X20024580Y-10432016D01*
X20024580Y-10432016D02*
X19929342Y-10479635D01*
X19929342Y-10479635D02*
X19834104Y-10479635D01*
X19834104Y-10479635D02*
X19738866Y-10432016D01*
X19738866Y-10432016D02*
X19691247Y-10384397D01*
X19691247Y-10384397D02*
X19643628Y-10289159D01*
X19643628Y-10289159D02*
X19596009Y-10098683D01*
X19596009Y-10098683D02*
X19548390Y-10003445D01*
X19548390Y-10003445D02*
X19500771Y-9955826D01*
X19500771Y-9955826D02*
X19405533Y-9908207D01*
X19405533Y-9908207D02*
X19310295Y-9908207D01*
X19310295Y-9908207D02*
X19215057Y-9955826D01*
X19215057Y-9955826D02*
X19167438Y-10003445D01*
X19167438Y-10003445D02*
X19119819Y-10098683D01*
X19119819Y-10098683D02*
X19119819Y-10336778D01*
X19119819Y-10336778D02*
X19167438Y-10479635D01*
X19119819Y-11098683D02*
X19119819Y-11289159D01*
X19119819Y-11289159D02*
X19167438Y-11384397D01*
X19167438Y-11384397D02*
X19262676Y-11479635D01*
X19262676Y-11479635D02*
X19453152Y-11527254D01*
X19453152Y-11527254D02*
X19786485Y-11527254D01*
X19786485Y-11527254D02*
X19976961Y-11479635D01*
X19976961Y-11479635D02*
X20072200Y-11384397D01*
X20072200Y-11384397D02*
X20119819Y-11289159D01*
X20119819Y-11289159D02*
X20119819Y-11098683D01*
X20119819Y-11098683D02*
X20072200Y-11003445D01*
X20072200Y-11003445D02*
X19976961Y-10908207D01*
X19976961Y-10908207D02*
X19786485Y-10860588D01*
X19786485Y-10860588D02*
X19453152Y-10860588D01*
X19453152Y-10860588D02*
X19262676Y-10908207D01*
X19262676Y-10908207D02*
X19167438Y-11003445D01*
X19167438Y-11003445D02*
X19119819Y-11098683D01*
X52969819Y-35536779D02*
X51969819Y-35536779D01*
X51969819Y-35536779D02*
X52684104Y-35870112D01*
X52684104Y-35870112D02*
X51969819Y-36203445D01*
X51969819Y-36203445D02*
X52969819Y-36203445D01*
X51969819Y-36536779D02*
X51969819Y-37108207D01*
X52969819Y-36822493D02*
X51969819Y-36822493D01*
X52969819Y-38012969D02*
X52493628Y-37679636D01*
X52969819Y-37441541D02*
X51969819Y-37441541D01*
X51969819Y-37441541D02*
X51969819Y-37822493D01*
X51969819Y-37822493D02*
X52017438Y-37917731D01*
X52017438Y-37917731D02*
X52065057Y-37965350D01*
X52065057Y-37965350D02*
X52160295Y-38012969D01*
X52160295Y-38012969D02*
X52303152Y-38012969D01*
X52303152Y-38012969D02*
X52398390Y-37965350D01*
X52398390Y-37965350D02*
X52446009Y-37917731D01*
X52446009Y-37917731D02*
X52493628Y-37822493D01*
X52493628Y-37822493D02*
X52493628Y-37441541D01*
X52684104Y-38393922D02*
X52684104Y-38870112D01*
X52969819Y-38298684D02*
X51969819Y-38632017D01*
X51969819Y-38632017D02*
X52969819Y-38965350D01*
G36*
X37204884Y-30150945D02*
G01*
X37204884Y-30249253D01*
X37257461Y-30269839D01*
X37289436Y-30313108D01*
X37301849Y-30388838D01*
X37301849Y-31050491D01*
X37301849Y-31086029D01*
X37294850Y-31123591D01*
X37273150Y-31158691D01*
X37245371Y-31180562D01*
X37204884Y-31190198D01*
X37204884Y-31288750D01*
X37311726Y-31279424D01*
X37407065Y-31252383D01*
X37493091Y-31208028D01*
X37571767Y-31144940D01*
X37633054Y-31068176D01*
X37678228Y-30975773D01*
X37706928Y-30864562D01*
X37717184Y-30730411D01*
X37707614Y-30607219D01*
X37680238Y-30499886D01*
X37636143Y-30405719D01*
X37575157Y-30322648D01*
X37499261Y-30254511D01*
X37409193Y-30199427D01*
X37312992Y-30162808D01*
X37228087Y-30151556D01*
X37204884Y-30150945D01*
G37*
G36*
X37136496Y-30249253D02*
G01*
X37136496Y-30152411D01*
X37038189Y-30175858D01*
X36972609Y-30199427D01*
X36915212Y-30214082D01*
X36892679Y-30209366D01*
X36876988Y-30192222D01*
X36864654Y-30171950D01*
X36850030Y-30156886D01*
X36826430Y-30151556D01*
X36798684Y-30157469D01*
X36783089Y-30173529D01*
X36777215Y-30202847D01*
X36777215Y-30535383D01*
X36780744Y-30561345D01*
X36790282Y-30579591D01*
X36805515Y-30591883D01*
X36826430Y-30597055D01*
X36859439Y-30586676D01*
X36882362Y-30544787D01*
X36928514Y-30422771D01*
X36984822Y-30337302D01*
X37032213Y-30292825D01*
X37082398Y-30264091D01*
X37136496Y-30249253D01*
G37*
G36*
X37135153Y-31288750D02*
G01*
X37135153Y-31190198D01*
X37067481Y-31177099D01*
X36993126Y-31143548D01*
X36942549Y-31105450D01*
X36903672Y-31057073D01*
X36875645Y-30996758D01*
X36855739Y-30959755D01*
X36825087Y-30948764D01*
X36790282Y-30963175D01*
X36779540Y-30979283D01*
X36775872Y-30999445D01*
X36782373Y-31036188D01*
X36805914Y-31087250D01*
X36839856Y-31136620D01*
X36882484Y-31181772D01*
X36959047Y-31238488D01*
X37042528Y-31273773D01*
X37135153Y-31288750D01*
G37*
G36*
X37195237Y-29759302D02*
G01*
X37047296Y-29776868D01*
X36910488Y-29813566D01*
X36783105Y-29869119D01*
X36663764Y-29944071D01*
X36547947Y-30043226D01*
X36450917Y-30157282D01*
X36371528Y-30287599D01*
X36312928Y-30428437D01*
X36277990Y-30573794D01*
X36266259Y-30725404D01*
X36278013Y-30877985D01*
X36312973Y-31023864D01*
X36371528Y-31164797D01*
X36450824Y-31295127D01*
X36547427Y-31409138D01*
X36662421Y-31508203D01*
X36783116Y-31583295D01*
X36911220Y-31638847D01*
X37048051Y-31675470D01*
X37195237Y-31692972D01*
X37195237Y-31532627D01*
X37038719Y-31509886D01*
X36895300Y-31459025D01*
X36762194Y-31379364D01*
X36666778Y-31297002D01*
X36586718Y-31201826D01*
X36521127Y-31092623D01*
X36472833Y-30974656D01*
X36443993Y-30852645D01*
X36434298Y-30725160D01*
X36443975Y-30598484D01*
X36472796Y-30476915D01*
X36521127Y-30359040D01*
X36586660Y-30249754D01*
X36666718Y-30154072D01*
X36762194Y-30070833D01*
X36894379Y-29991922D01*
X37037789Y-29940993D01*
X37195237Y-29917571D01*
X37195237Y-29759302D01*
G37*
G36*
X37264968Y-31691507D02*
G01*
X37410806Y-31674721D01*
X37546739Y-31638829D01*
X37674364Y-31583986D01*
X37794975Y-31509546D01*
X37910895Y-31410315D01*
X38008221Y-31296060D01*
X38088066Y-31165408D01*
X38146988Y-31024051D01*
X38182137Y-30877969D01*
X38193946Y-30725404D01*
X38182169Y-30573718D01*
X38147050Y-30427869D01*
X38088066Y-30286133D01*
X38008121Y-30155100D01*
X37910788Y-30041118D01*
X37794975Y-29942728D01*
X37674372Y-29868155D01*
X37546738Y-29813020D01*
X37410794Y-29776687D01*
X37264968Y-29759302D01*
X37264968Y-29918914D01*
X37422461Y-29942233D01*
X37565411Y-29992753D01*
X37696667Y-30070833D01*
X37792138Y-30153169D01*
X37872450Y-30248347D01*
X37938468Y-30357575D01*
X37987111Y-30475572D01*
X38016148Y-30597579D01*
X38025907Y-30725038D01*
X38016146Y-30852578D01*
X37987107Y-30974624D01*
X37938468Y-31092623D01*
X37872429Y-31201767D01*
X37791693Y-31297417D01*
X37695324Y-31380708D01*
X37564913Y-31458741D01*
X37422430Y-31509278D01*
X37264968Y-31532627D01*
X37264968Y-31691507D01*
G37*
G36*
X35346563Y-29755150D02*
G01*
X35346563Y-29920380D01*
X35418043Y-29944944D01*
X35466852Y-29991332D01*
X35495361Y-30057823D01*
X35506420Y-30159127D01*
X35506420Y-31290094D01*
X35506420Y-31348956D01*
X35493475Y-31415390D01*
X35460013Y-31474986D01*
X35413607Y-31514064D01*
X35346563Y-31529818D01*
X35346563Y-31697002D01*
X35477801Y-31687925D01*
X35597103Y-31661553D01*
X35706318Y-31618555D01*
X35806960Y-31558761D01*
X35911668Y-31468857D01*
X35997913Y-31360347D01*
X36066591Y-31230865D01*
X36113688Y-31090872D01*
X36143504Y-30929341D01*
X36154030Y-30742745D01*
X36139521Y-30540701D01*
X36097365Y-30357330D01*
X36052983Y-30241595D01*
X35998073Y-30138679D01*
X35932745Y-30047264D01*
X35855020Y-29964470D01*
X35768071Y-29893506D01*
X35671161Y-29833796D01*
X35567243Y-29787586D01*
X35470034Y-29761370D01*
X35377948Y-29752951D01*
X35346563Y-29755150D01*
G37*
G36*
X35238729Y-29921723D02*
G01*
X35238729Y-29756493D01*
X35130163Y-29779330D01*
X34979099Y-29830376D01*
X34886287Y-29854556D01*
X34851302Y-29846264D01*
X34826081Y-29821584D01*
X34808374Y-29791175D01*
X34785950Y-29768951D01*
X34746824Y-29760767D01*
X34713262Y-29766250D01*
X34690160Y-29781284D01*
X34675764Y-29805170D01*
X34670376Y-29841245D01*
X34670376Y-30409476D01*
X34677262Y-30457879D01*
X34694923Y-30487023D01*
X34721608Y-30505211D01*
X34750976Y-30511081D01*
X34780994Y-30505624D01*
X34803611Y-30489954D01*
X34820389Y-30464597D01*
X34835729Y-30421200D01*
X34891660Y-30252428D01*
X34956732Y-30132000D01*
X35025628Y-30042868D01*
X35077767Y-29993419D01*
X35126744Y-29959214D01*
X35179620Y-29935321D01*
X35238729Y-29921723D01*
G37*
G36*
X35234577Y-31697002D02*
G01*
X35234577Y-31529818D01*
X35128940Y-31506627D01*
X35010484Y-31448363D01*
X34951856Y-31402309D01*
X34898499Y-31341385D01*
X34855490Y-31271241D01*
X34824738Y-31194351D01*
X34808643Y-31154207D01*
X34792620Y-31131580D01*
X34771703Y-31117732D01*
X34744138Y-31112896D01*
X34714057Y-31119083D01*
X34689427Y-31137686D01*
X34673201Y-31165117D01*
X34667568Y-31199724D01*
X34677901Y-31263459D01*
X34714706Y-31349811D01*
X34768162Y-31434076D01*
X34835607Y-31512355D01*
X34929415Y-31593331D01*
X35020865Y-31647421D01*
X35120045Y-31681464D01*
X35234577Y-31697002D01*
G37*
G36*
X33750802Y-29755150D02*
G01*
X33750802Y-29906702D01*
X33802053Y-29928502D01*
X33838405Y-29964928D01*
X33862022Y-30019075D01*
X33870969Y-30097700D01*
X33870969Y-31372404D01*
X33865129Y-31441605D01*
X33850453Y-31486099D01*
X33825320Y-31514655D01*
X33775348Y-31542274D01*
X33775348Y-31697002D01*
X33855338Y-31690163D01*
X33951570Y-31662808D01*
X34087984Y-31600635D01*
X34211200Y-31512233D01*
X34316664Y-31401596D01*
X34402442Y-31270066D01*
X34465423Y-31119083D01*
X34504782Y-30946606D01*
X34518579Y-30748607D01*
X34506387Y-30556584D01*
X34471299Y-30385173D01*
X34414776Y-30231423D01*
X34334337Y-30089932D01*
X34235392Y-29972649D01*
X34116922Y-29876905D01*
X34000566Y-29812160D01*
X33876465Y-29768827D01*
X33820702Y-29758822D01*
X33750802Y-29755150D01*
G37*
G36*
X33638817Y-29903893D02*
G01*
X33638817Y-29756493D01*
X33427098Y-29788261D01*
X33272575Y-29835994D01*
X33206995Y-29854556D01*
X33173534Y-29845153D01*
X33126395Y-29792030D01*
X33098460Y-29768428D01*
X33064968Y-29760767D01*
X33030796Y-29766321D01*
X33010990Y-29780673D01*
X32999833Y-29804533D01*
X32995237Y-29846741D01*
X32995237Y-30377847D01*
X33005325Y-30438438D01*
X33030448Y-30469254D01*
X33071807Y-30479818D01*
X33106319Y-30474262D01*
X33128471Y-30459424D01*
X33144519Y-30433336D01*
X33163276Y-30379068D01*
X33190203Y-30300910D01*
X33237159Y-30201381D01*
X33292120Y-30106420D01*
X33339619Y-30041402D01*
X33400077Y-29981534D01*
X33465282Y-29941385D01*
X33540113Y-29916766D01*
X33638817Y-29903893D01*
G37*
G36*
X33021249Y-31431877D02*
G01*
X33081780Y-31484671D01*
X33166695Y-31543251D01*
X33257333Y-31595183D01*
X33338154Y-31632766D01*
X33414357Y-31658291D01*
X33501430Y-31679173D01*
X33588659Y-31692881D01*
X33659211Y-31697002D01*
X33659211Y-31542641D01*
X33599860Y-31519438D01*
X33566277Y-31481214D01*
X33549341Y-31435159D01*
X33543073Y-31373258D01*
X33543073Y-30974043D01*
X33548979Y-30925460D01*
X33563590Y-30897473D01*
X33582763Y-30880376D01*
X33645533Y-30864623D01*
X33683166Y-30847989D01*
X33703899Y-30823220D01*
X33711113Y-30788175D01*
X33703475Y-30756712D01*
X33680460Y-30733464D01*
X33645376Y-30719750D01*
X33589602Y-30714291D01*
X33544539Y-30714291D01*
X33044452Y-30714291D01*
X32988078Y-30719404D01*
X32957745Y-30731388D01*
X32939366Y-30753482D01*
X32932466Y-30790861D01*
X32942725Y-30833970D01*
X32980216Y-30870118D01*
X33014410Y-30905778D01*
X33021249Y-30965861D01*
X33021249Y-31431877D01*
G37*
G36*
X31981507Y-29792030D02*
G01*
X31981507Y-31399759D01*
X31975606Y-31448361D01*
X31960990Y-31476451D01*
X31940596Y-31493548D01*
X31877704Y-31510645D01*
X31840086Y-31526582D01*
X31819362Y-31550965D01*
X31812124Y-31585994D01*
X31820631Y-31617584D01*
X31847662Y-31643513D01*
X31878320Y-31655101D01*
X31933757Y-31660000D01*
X31980163Y-31660000D01*
X32589549Y-31660000D01*
X32625087Y-31660000D01*
X32670727Y-31654867D01*
X32700924Y-31641559D01*
X32720797Y-31619274D01*
X32727547Y-31588803D01*
X32721328Y-31555282D01*
X32703733Y-31531370D01*
X32672836Y-31514797D01*
X32620324Y-31496357D01*
X32604448Y-31480603D01*
X32592816Y-31454809D01*
X32588084Y-31410750D01*
X32588084Y-30040425D01*
X32592810Y-29996582D01*
X32604448Y-29970816D01*
X32620324Y-29955184D01*
X32672836Y-29936744D01*
X32703753Y-29920182D01*
X32721338Y-29896342D01*
X32727547Y-29862983D01*
X32720800Y-29832640D01*
X32700924Y-29810471D01*
X32670727Y-29797163D01*
X32625087Y-29792030D01*
X32589549Y-29792030D01*
X31981507Y-29792030D01*
G37*
G36*
X31562142Y-30743722D02*
G01*
X31444045Y-30765481D01*
X31368824Y-30786221D01*
X31303994Y-30813787D01*
X31246458Y-30849235D01*
X31195366Y-30896203D01*
X31158408Y-30950596D01*
X31135307Y-31011252D01*
X31127634Y-31075160D01*
X31127634Y-31358726D01*
X31119459Y-31392654D01*
X31098935Y-31402079D01*
X31080617Y-31395851D01*
X31059368Y-31371427D01*
X31022443Y-31334223D01*
X30989637Y-31323921D01*
X30967622Y-31329528D01*
X30943230Y-31348834D01*
X30925362Y-31374768D01*
X30920027Y-31398660D01*
X30928711Y-31442567D01*
X30960327Y-31503196D01*
X31005281Y-31561157D01*
X31060711Y-31613227D01*
X31119539Y-31652701D01*
X31182344Y-31678928D01*
X31251139Y-31693697D01*
X31336706Y-31699078D01*
X31452569Y-31686494D01*
X31544562Y-31651410D01*
X31618073Y-31595153D01*
X31672555Y-31519954D01*
X31706834Y-31425185D01*
X31719190Y-31305237D01*
X31719190Y-31075160D01*
X31720533Y-30986133D01*
X31733718Y-30934571D01*
X31758757Y-30891612D01*
X31805680Y-30854214D01*
X31872208Y-30835436D01*
X31872208Y-30688890D01*
X31805011Y-30672290D01*
X31767062Y-30650544D01*
X31743734Y-30623796D01*
X31729448Y-30594368D01*
X31719190Y-30501189D01*
X31719190Y-30139099D01*
X31728625Y-30059993D01*
X31752651Y-30010628D01*
X31795481Y-29975050D01*
X31873551Y-29943705D01*
X31873551Y-29792030D01*
X31838014Y-29792030D01*
X31579849Y-29803021D01*
X31477069Y-29821489D01*
X31383314Y-29856067D01*
X31297016Y-29906946D01*
X31218687Y-29977331D01*
X31163670Y-30059413D01*
X31129935Y-30155479D01*
X31118108Y-30269281D01*
X31132151Y-30392839D01*
X31172311Y-30496632D01*
X31238398Y-30585087D01*
X31292873Y-30632126D01*
X31356489Y-30669961D01*
X31433551Y-30701804D01*
X31562142Y-30743722D01*
G37*
X20119819Y-30836779D02*
X19119819Y-30836779D01*
X19119819Y-30836779D02*
X19834104Y-31170112D01*
X19834104Y-31170112D02*
X19119819Y-31503445D01*
X19119819Y-31503445D02*
X20119819Y-31503445D01*
X19119819Y-32170112D02*
X19119819Y-32360588D01*
X19119819Y-32360588D02*
X19167438Y-32455826D01*
X19167438Y-32455826D02*
X19262676Y-32551064D01*
X19262676Y-32551064D02*
X19453152Y-32598683D01*
X19453152Y-32598683D02*
X19786485Y-32598683D01*
X19786485Y-32598683D02*
X19976961Y-32551064D01*
X19976961Y-32551064D02*
X20072200Y-32455826D01*
X20072200Y-32455826D02*
X20119819Y-32360588D01*
X20119819Y-32360588D02*
X20119819Y-32170112D01*
X20119819Y-32170112D02*
X20072200Y-32074874D01*
X20072200Y-32074874D02*
X19976961Y-31979636D01*
X19976961Y-31979636D02*
X19786485Y-31932017D01*
X19786485Y-31932017D02*
X19453152Y-31932017D01*
X19453152Y-31932017D02*
X19262676Y-31979636D01*
X19262676Y-31979636D02*
X19167438Y-32074874D01*
X19167438Y-32074874D02*
X19119819Y-32170112D01*
X20072200Y-32979636D02*
X20119819Y-33122493D01*
X20119819Y-33122493D02*
X20119819Y-33360588D01*
X20119819Y-33360588D02*
X20072200Y-33455826D01*
X20072200Y-33455826D02*
X20024580Y-33503445D01*
X20024580Y-33503445D02*
X19929342Y-33551064D01*
X19929342Y-33551064D02*
X19834104Y-33551064D01*
X19834104Y-33551064D02*
X19738866Y-33503445D01*
X19738866Y-33503445D02*
X19691247Y-33455826D01*
X19691247Y-33455826D02*
X19643628Y-33360588D01*
X19643628Y-33360588D02*
X19596009Y-33170112D01*
X19596009Y-33170112D02*
X19548390Y-33074874D01*
X19548390Y-33074874D02*
X19500771Y-33027255D01*
X19500771Y-33027255D02*
X19405533Y-32979636D01*
X19405533Y-32979636D02*
X19310295Y-32979636D01*
X19310295Y-32979636D02*
X19215057Y-33027255D01*
X19215057Y-33027255D02*
X19167438Y-33074874D01*
X19167438Y-33074874D02*
X19119819Y-33170112D01*
X19119819Y-33170112D02*
X19119819Y-33408207D01*
X19119819Y-33408207D02*
X19167438Y-33551064D01*
X20119819Y-33979636D02*
X19119819Y-33979636D01*
X25024580Y-32158207D02*
X25072200Y-32110588D01*
X25072200Y-32110588D02*
X25119819Y-31967731D01*
X25119819Y-31967731D02*
X25119819Y-31872493D01*
X25119819Y-31872493D02*
X25072200Y-31729636D01*
X25072200Y-31729636D02*
X24976961Y-31634398D01*
X24976961Y-31634398D02*
X24881723Y-31586779D01*
X24881723Y-31586779D02*
X24691247Y-31539160D01*
X24691247Y-31539160D02*
X24548390Y-31539160D01*
X24548390Y-31539160D02*
X24357914Y-31586779D01*
X24357914Y-31586779D02*
X24262676Y-31634398D01*
X24262676Y-31634398D02*
X24167438Y-31729636D01*
X24167438Y-31729636D02*
X24119819Y-31872493D01*
X24119819Y-31872493D02*
X24119819Y-31967731D01*
X24119819Y-31967731D02*
X24167438Y-32110588D01*
X24167438Y-32110588D02*
X24215057Y-32158207D01*
X25119819Y-33062969D02*
X25119819Y-32586779D01*
X25119819Y-32586779D02*
X24119819Y-32586779D01*
X25119819Y-33396303D02*
X24119819Y-33396303D01*
X25119819Y-33967731D02*
X24548390Y-33539160D01*
X24119819Y-33967731D02*
X24691247Y-33396303D01*
X49669819Y-4336779D02*
X48669819Y-4336779D01*
X48765057Y-4765350D02*
X48717438Y-4812969D01*
X48717438Y-4812969D02*
X48669819Y-4908207D01*
X48669819Y-4908207D02*
X48669819Y-5146302D01*
X48669819Y-5146302D02*
X48717438Y-5241540D01*
X48717438Y-5241540D02*
X48765057Y-5289159D01*
X48765057Y-5289159D02*
X48860295Y-5336778D01*
X48860295Y-5336778D02*
X48955533Y-5336778D01*
X48955533Y-5336778D02*
X49098390Y-5289159D01*
X49098390Y-5289159D02*
X49669819Y-4717731D01*
X49669819Y-4717731D02*
X49669819Y-5336778D01*
X49574580Y-6336778D02*
X49622200Y-6289159D01*
X49622200Y-6289159D02*
X49669819Y-6146302D01*
X49669819Y-6146302D02*
X49669819Y-6051064D01*
X49669819Y-6051064D02*
X49622200Y-5908207D01*
X49622200Y-5908207D02*
X49526961Y-5812969D01*
X49526961Y-5812969D02*
X49431723Y-5765350D01*
X49431723Y-5765350D02*
X49241247Y-5717731D01*
X49241247Y-5717731D02*
X49098390Y-5717731D01*
X49098390Y-5717731D02*
X48907914Y-5765350D01*
X48907914Y-5765350D02*
X48812676Y-5812969D01*
X48812676Y-5812969D02*
X48717438Y-5908207D01*
X48717438Y-5908207D02*
X48669819Y-6051064D01*
X48669819Y-6051064D02*
X48669819Y-6146302D01*
X48669819Y-6146302D02*
X48717438Y-6289159D01*
X48717438Y-6289159D02*
X48765057Y-6336778D01*
X48765057Y-6717731D02*
X48717438Y-6765350D01*
X48717438Y-6765350D02*
X48669819Y-6860588D01*
X48669819Y-6860588D02*
X48669819Y-7098683D01*
X48669819Y-7098683D02*
X48717438Y-7193921D01*
X48717438Y-7193921D02*
X48765057Y-7241540D01*
X48765057Y-7241540D02*
X48860295Y-7289159D01*
X48860295Y-7289159D02*
X48955533Y-7289159D01*
X48955533Y-7289159D02*
X49098390Y-7241540D01*
X49098390Y-7241540D02*
X49669819Y-6670112D01*
X49669819Y-6670112D02*
X49669819Y-7289159D01*
X53510839Y-4822200D02*
X53367982Y-4869819D01*
X53367982Y-4869819D02*
X53129887Y-4869819D01*
X53129887Y-4869819D02*
X53034649Y-4822200D01*
X53034649Y-4822200D02*
X52987030Y-4774580D01*
X52987030Y-4774580D02*
X52939411Y-4679342D01*
X52939411Y-4679342D02*
X52939411Y-4584104D01*
X52939411Y-4584104D02*
X52987030Y-4488866D01*
X52987030Y-4488866D02*
X53034649Y-4441247D01*
X53034649Y-4441247D02*
X53129887Y-4393628D01*
X53129887Y-4393628D02*
X53320363Y-4346009D01*
X53320363Y-4346009D02*
X53415601Y-4298390D01*
X53415601Y-4298390D02*
X53463220Y-4250771D01*
X53463220Y-4250771D02*
X53510839Y-4155533D01*
X53510839Y-4155533D02*
X53510839Y-4060295D01*
X53510839Y-4060295D02*
X53463220Y-3965057D01*
X53463220Y-3965057D02*
X53415601Y-3917438D01*
X53415601Y-3917438D02*
X53320363Y-3869819D01*
X53320363Y-3869819D02*
X53082268Y-3869819D01*
X53082268Y-3869819D02*
X52939411Y-3917438D01*
X52510839Y-4869819D02*
X52510839Y-3869819D01*
X52510839Y-3869819D02*
X52272744Y-3869819D01*
X52272744Y-3869819D02*
X52129887Y-3917438D01*
X52129887Y-3917438D02*
X52034649Y-4012676D01*
X52034649Y-4012676D02*
X51987030Y-4107914D01*
X51987030Y-4107914D02*
X51939411Y-4298390D01*
X51939411Y-4298390D02*
X51939411Y-4441247D01*
X51939411Y-4441247D02*
X51987030Y-4631723D01*
X51987030Y-4631723D02*
X52034649Y-4726961D01*
X52034649Y-4726961D02*
X52129887Y-4822200D01*
X52129887Y-4822200D02*
X52272744Y-4869819D01*
X52272744Y-4869819D02*
X52510839Y-4869819D01*
X51558458Y-4584104D02*
X51082268Y-4584104D01*
X51653696Y-4869819D02*
X51320363Y-3869819D01*
X51320363Y-3869819D02*
X50987030Y-4869819D01*
X16667438Y-31860588D02*
X16619819Y-31765350D01*
X16619819Y-31765350D02*
X16619819Y-31622493D01*
X16619819Y-31622493D02*
X16667438Y-31479636D01*
X16667438Y-31479636D02*
X16762676Y-31384398D01*
X16762676Y-31384398D02*
X16857914Y-31336779D01*
X16857914Y-31336779D02*
X17048390Y-31289160D01*
X17048390Y-31289160D02*
X17191247Y-31289160D01*
X17191247Y-31289160D02*
X17381723Y-31336779D01*
X17381723Y-31336779D02*
X17476961Y-31384398D01*
X17476961Y-31384398D02*
X17572200Y-31479636D01*
X17572200Y-31479636D02*
X17619819Y-31622493D01*
X17619819Y-31622493D02*
X17619819Y-31717731D01*
X17619819Y-31717731D02*
X17572200Y-31860588D01*
X17572200Y-31860588D02*
X17524580Y-31908207D01*
X17524580Y-31908207D02*
X17191247Y-31908207D01*
X17191247Y-31908207D02*
X17191247Y-31717731D01*
X17619819Y-32336779D02*
X16619819Y-32336779D01*
X16619819Y-32336779D02*
X17619819Y-32908207D01*
X17619819Y-32908207D02*
X16619819Y-32908207D01*
X17619819Y-33384398D02*
X16619819Y-33384398D01*
X16619819Y-33384398D02*
X16619819Y-33622493D01*
X16619819Y-33622493D02*
X16667438Y-33765350D01*
X16667438Y-33765350D02*
X16762676Y-33860588D01*
X16762676Y-33860588D02*
X16857914Y-33908207D01*
X16857914Y-33908207D02*
X17048390Y-33955826D01*
X17048390Y-33955826D02*
X17191247Y-33955826D01*
X17191247Y-33955826D02*
X17381723Y-33908207D01*
X17381723Y-33908207D02*
X17476961Y-33860588D01*
X17476961Y-33860588D02*
X17572200Y-33765350D01*
X17572200Y-33765350D02*
X17619819Y-33622493D01*
X17619819Y-33622493D02*
X17619819Y-33384398D01*
X53863220Y-8288866D02*
X53101316Y-8288866D01*
X53482268Y-8669819D02*
X53482268Y-7907914D01*
X52720363Y-7669819D02*
X52101316Y-7669819D01*
X52101316Y-7669819D02*
X52434649Y-8050771D01*
X52434649Y-8050771D02*
X52291792Y-8050771D01*
X52291792Y-8050771D02*
X52196554Y-8098390D01*
X52196554Y-8098390D02*
X52148935Y-8146009D01*
X52148935Y-8146009D02*
X52101316Y-8241247D01*
X52101316Y-8241247D02*
X52101316Y-8479342D01*
X52101316Y-8479342D02*
X52148935Y-8574580D01*
X52148935Y-8574580D02*
X52196554Y-8622200D01*
X52196554Y-8622200D02*
X52291792Y-8669819D01*
X52291792Y-8669819D02*
X52577506Y-8669819D01*
X52577506Y-8669819D02*
X52672744Y-8622200D01*
X52672744Y-8622200D02*
X52720363Y-8574580D01*
X51672744Y-8574580D02*
X51625125Y-8622200D01*
X51625125Y-8622200D02*
X51672744Y-8669819D01*
X51672744Y-8669819D02*
X51720363Y-8622200D01*
X51720363Y-8622200D02*
X51672744Y-8574580D01*
X51672744Y-8574580D02*
X51672744Y-8669819D01*
X51291792Y-7669819D02*
X50672745Y-7669819D01*
X50672745Y-7669819D02*
X51006078Y-8050771D01*
X51006078Y-8050771D02*
X50863221Y-8050771D01*
X50863221Y-8050771D02*
X50767983Y-8098390D01*
X50767983Y-8098390D02*
X50720364Y-8146009D01*
X50720364Y-8146009D02*
X50672745Y-8241247D01*
X50672745Y-8241247D02*
X50672745Y-8479342D01*
X50672745Y-8479342D02*
X50720364Y-8574580D01*
X50720364Y-8574580D02*
X50767983Y-8622200D01*
X50767983Y-8622200D02*
X50863221Y-8669819D01*
X50863221Y-8669819D02*
X51148935Y-8669819D01*
X51148935Y-8669819D02*
X51244173Y-8622200D01*
X51244173Y-8622200D02*
X51291792Y-8574580D01*
X27774580Y-9158207D02*
X27822200Y-9110588D01*
X27822200Y-9110588D02*
X27869819Y-8967731D01*
X27869819Y-8967731D02*
X27869819Y-8872493D01*
X27869819Y-8872493D02*
X27822200Y-8729636D01*
X27822200Y-8729636D02*
X27726961Y-8634398D01*
X27726961Y-8634398D02*
X27631723Y-8586779D01*
X27631723Y-8586779D02*
X27441247Y-8539160D01*
X27441247Y-8539160D02*
X27298390Y-8539160D01*
X27298390Y-8539160D02*
X27107914Y-8586779D01*
X27107914Y-8586779D02*
X27012676Y-8634398D01*
X27012676Y-8634398D02*
X26917438Y-8729636D01*
X26917438Y-8729636D02*
X26869819Y-8872493D01*
X26869819Y-8872493D02*
X26869819Y-8967731D01*
X26869819Y-8967731D02*
X26917438Y-9110588D01*
X26917438Y-9110588D02*
X26965057Y-9158207D01*
X27822200Y-9539160D02*
X27869819Y-9682017D01*
X27869819Y-9682017D02*
X27869819Y-9920112D01*
X27869819Y-9920112D02*
X27822200Y-10015350D01*
X27822200Y-10015350D02*
X27774580Y-10062969D01*
X27774580Y-10062969D02*
X27679342Y-10110588D01*
X27679342Y-10110588D02*
X27584104Y-10110588D01*
X27584104Y-10110588D02*
X27488866Y-10062969D01*
X27488866Y-10062969D02*
X27441247Y-10015350D01*
X27441247Y-10015350D02*
X27393628Y-9920112D01*
X27393628Y-9920112D02*
X27346009Y-9729636D01*
X27346009Y-9729636D02*
X27298390Y-9634398D01*
X27298390Y-9634398D02*
X27250771Y-9586779D01*
X27250771Y-9586779D02*
X27155533Y-9539160D01*
X27155533Y-9539160D02*
X27060295Y-9539160D01*
X27060295Y-9539160D02*
X26965057Y-9586779D01*
X26965057Y-9586779D02*
X26917438Y-9634398D01*
X26917438Y-9634398D02*
X26869819Y-9729636D01*
X26869819Y-9729636D02*
X26869819Y-9967731D01*
X26869819Y-9967731D02*
X26917438Y-10110588D01*
X52939411Y-6517438D02*
X53034649Y-6469819D01*
X53034649Y-6469819D02*
X53177506Y-6469819D01*
X53177506Y-6469819D02*
X53320363Y-6517438D01*
X53320363Y-6517438D02*
X53415601Y-6612676D01*
X53415601Y-6612676D02*
X53463220Y-6707914D01*
X53463220Y-6707914D02*
X53510839Y-6898390D01*
X53510839Y-6898390D02*
X53510839Y-7041247D01*
X53510839Y-7041247D02*
X53463220Y-7231723D01*
X53463220Y-7231723D02*
X53415601Y-7326961D01*
X53415601Y-7326961D02*
X53320363Y-7422200D01*
X53320363Y-7422200D02*
X53177506Y-7469819D01*
X53177506Y-7469819D02*
X53082268Y-7469819D01*
X53082268Y-7469819D02*
X52939411Y-7422200D01*
X52939411Y-7422200D02*
X52891792Y-7374580D01*
X52891792Y-7374580D02*
X52891792Y-7041247D01*
X52891792Y-7041247D02*
X53082268Y-7041247D01*
X52463220Y-7469819D02*
X52463220Y-6469819D01*
X52463220Y-6469819D02*
X51891792Y-7469819D01*
X51891792Y-7469819D02*
X51891792Y-6469819D01*
X51415601Y-7469819D02*
X51415601Y-6469819D01*
X51415601Y-6469819D02*
X51177506Y-6469819D01*
X51177506Y-6469819D02*
X51034649Y-6517438D01*
X51034649Y-6517438D02*
X50939411Y-6612676D01*
X50939411Y-6612676D02*
X50891792Y-6707914D01*
X50891792Y-6707914D02*
X50844173Y-6898390D01*
X50844173Y-6898390D02*
X50844173Y-7041247D01*
X50844173Y-7041247D02*
X50891792Y-7231723D01*
X50891792Y-7231723D02*
X50939411Y-7326961D01*
X50939411Y-7326961D02*
X51034649Y-7422200D01*
X51034649Y-7422200D02*
X51177506Y-7469819D01*
X51177506Y-7469819D02*
X51415601Y-7469819D01*
G36*
X38247138Y-19238003D02*
G01*
X38024511Y-19238003D01*
X38024511Y-18642295D01*
X38030149Y-18593525D01*
X38043928Y-18565991D01*
X38064078Y-18552170D01*
X38107798Y-18538614D01*
X38136771Y-18523024D01*
X38153620Y-18499334D01*
X38159699Y-18464853D01*
X38149694Y-18426803D01*
X38120156Y-18403393D01*
X38061392Y-18393900D01*
X38025854Y-18393900D01*
X37417934Y-18393900D01*
X37380931Y-18393900D01*
X37319306Y-18403545D01*
X37288705Y-18427092D01*
X37278471Y-18464853D01*
X37284680Y-18498212D01*
X37302265Y-18522052D01*
X37333182Y-18538614D01*
X37385816Y-18557054D01*
X37401570Y-18572686D01*
X37413208Y-18598452D01*
X37417934Y-18642295D01*
X37417934Y-20006147D01*
X37406018Y-20070455D01*
X37376901Y-20098227D01*
X37333182Y-20113370D01*
X37302415Y-20130013D01*
X37284757Y-20154393D01*
X37278471Y-20188963D01*
X37288832Y-20227959D01*
X37319554Y-20252062D01*
X37380931Y-20261870D01*
X37417934Y-20261870D01*
X38025854Y-20261870D01*
X38064078Y-20261870D01*
X38120764Y-20252321D01*
X38149725Y-20228452D01*
X38159699Y-20188963D01*
X38146529Y-20140901D01*
X38107798Y-20113370D01*
X38064078Y-20098227D01*
X38044120Y-20085017D01*
X38030267Y-20057173D01*
X38024511Y-20006147D01*
X38024511Y-19370872D01*
X38247138Y-19370872D01*
X38247138Y-19238003D01*
G37*
G36*
X38361933Y-20261870D02*
G01*
X38971318Y-20261870D01*
X39006856Y-20261870D01*
X39052496Y-20256737D01*
X39082693Y-20243429D01*
X39102566Y-20221144D01*
X39109316Y-20190673D01*
X39103106Y-20157141D01*
X39085545Y-20133231D01*
X39054727Y-20116667D01*
X39002093Y-20098227D01*
X38986339Y-20082473D01*
X38974707Y-20056679D01*
X38969975Y-20012620D01*
X38969975Y-18642295D01*
X38974701Y-18598452D01*
X38986339Y-18572686D01*
X39002093Y-18557054D01*
X39054727Y-18538614D01*
X39085566Y-18522061D01*
X39103116Y-18498223D01*
X39109316Y-18464853D01*
X39102569Y-18434510D01*
X39082693Y-18412341D01*
X39052496Y-18399033D01*
X39006856Y-18393900D01*
X38971318Y-18393900D01*
X38361933Y-18393900D01*
X38326395Y-18393900D01*
X38268553Y-18403343D01*
X38239361Y-18426708D01*
X38229431Y-18464853D01*
X38235510Y-18499334D01*
X38252359Y-18523024D01*
X38281332Y-18538614D01*
X38323709Y-18552170D01*
X38343859Y-18565991D01*
X38357638Y-18593525D01*
X38363276Y-18642295D01*
X38363276Y-20012620D01*
X38357632Y-20061561D01*
X38343847Y-20089159D01*
X38323709Y-20102990D01*
X38281332Y-20116667D01*
X38252367Y-20132332D01*
X38235513Y-20156101D01*
X38229431Y-20190673D01*
X38239376Y-20228973D01*
X38268583Y-20252407D01*
X38326395Y-20261870D01*
X38361933Y-20261870D01*
G37*
G36*
X36016102Y-19404455D02*
G01*
X36016102Y-20001629D01*
X36010201Y-20050231D01*
X35995586Y-20078321D01*
X35975191Y-20095418D01*
X35912299Y-20112515D01*
X35874681Y-20128452D01*
X35853957Y-20152835D01*
X35846720Y-20187864D01*
X35855792Y-20222608D01*
X35883600Y-20248192D01*
X35910862Y-20257596D01*
X35968353Y-20261870D01*
X36014759Y-20261870D01*
X36624023Y-20261870D01*
X36669085Y-20261870D01*
X36725520Y-20256899D01*
X36755181Y-20245383D01*
X36782212Y-20219454D01*
X36790718Y-20187864D01*
X36783481Y-20152835D01*
X36762757Y-20128452D01*
X36725139Y-20112515D01*
X36662369Y-20095418D01*
X36643196Y-20078321D01*
X36628581Y-20050231D01*
X36622679Y-20001629D01*
X36622679Y-19538666D01*
X37009438Y-18615428D01*
X37036526Y-18569697D01*
X37070865Y-18540202D01*
X37118004Y-18503321D01*
X37128262Y-18464975D01*
X37117941Y-18427236D01*
X37086958Y-18403608D01*
X37024337Y-18393900D01*
X36354989Y-18393900D01*
X36306100Y-18397674D01*
X36281228Y-18406234D01*
X36255276Y-18432034D01*
X36247034Y-18463632D01*
X36256753Y-18502288D01*
X36286601Y-18532020D01*
X36326290Y-18556688D01*
X36343561Y-18575210D01*
X36349494Y-18601751D01*
X36334473Y-18668796D01*
X36016102Y-19404455D01*
G37*
G36*
X35962857Y-19274274D02*
G01*
X36039305Y-19094877D01*
X35895812Y-18773820D01*
X35883094Y-18728700D01*
X35878105Y-18661712D01*
X35887477Y-18614646D01*
X35915170Y-18577610D01*
X35965544Y-18548262D01*
X36027826Y-18514923D01*
X36038159Y-18497754D01*
X36042114Y-18470470D01*
X36035661Y-18437316D01*
X36017445Y-18414417D01*
X35980565Y-18398052D01*
X35909490Y-18393900D01*
X35572069Y-18393900D01*
X35515809Y-18403736D01*
X35486641Y-18428632D01*
X35476448Y-18470470D01*
X35479992Y-18495618D01*
X35489515Y-18512846D01*
X35539340Y-18544232D01*
X35600261Y-18576637D01*
X35634961Y-18604438D01*
X35672315Y-18650995D01*
X35703227Y-18704211D01*
X35734734Y-18773942D01*
X35962857Y-19274274D01*
G37*
G36*
X34609141Y-18393900D02*
G01*
X34609141Y-20261870D01*
X35217184Y-20261870D01*
X35252721Y-20261870D01*
X35298362Y-20256737D01*
X35328558Y-20243429D01*
X35348432Y-20221144D01*
X35355181Y-20190673D01*
X35348962Y-20157152D01*
X35331367Y-20133240D01*
X35300471Y-20116667D01*
X35247958Y-20098227D01*
X35232083Y-20082473D01*
X35220450Y-20056679D01*
X35215718Y-20012620D01*
X35215718Y-18642295D01*
X35220444Y-18598452D01*
X35232083Y-18572686D01*
X35247958Y-18557054D01*
X35300471Y-18538614D01*
X35331388Y-18522052D01*
X35348972Y-18498212D01*
X35355181Y-18464853D01*
X35348434Y-18434510D01*
X35328558Y-18412341D01*
X35298362Y-18399033D01*
X35252721Y-18393900D01*
X35217184Y-18393900D01*
X34609141Y-18393900D01*
G37*
G36*
X34333147Y-19870226D02*
G01*
X34333147Y-18790062D01*
X34341145Y-18696155D01*
X34361845Y-18631548D01*
X34382551Y-18597405D01*
X34405687Y-18575617D01*
X34435901Y-18560397D01*
X34487630Y-18545575D01*
X34487630Y-18393900D01*
X34364654Y-18399396D01*
X34253111Y-18423386D01*
X34141669Y-18471659D01*
X34028576Y-18547163D01*
X33930879Y-18637986D01*
X33851442Y-18745390D01*
X33789462Y-18871517D01*
X33745361Y-19008654D01*
X33718206Y-19157660D01*
X33708862Y-19320313D01*
X33720867Y-19504148D01*
X33755465Y-19668596D01*
X33811322Y-19816493D01*
X33890464Y-19952178D01*
X33987985Y-20065156D01*
X34105024Y-20157822D01*
X34197989Y-20210013D01*
X34277948Y-20240010D01*
X34364123Y-20255737D01*
X34487630Y-20261870D01*
X34487630Y-20113980D01*
X34407641Y-20086625D01*
X34368684Y-20048279D01*
X34340718Y-19980502D01*
X34333147Y-19870226D01*
G37*
G36*
X32793928Y-18393900D02*
G01*
X32793928Y-20001629D01*
X32788027Y-20050231D01*
X32773412Y-20078321D01*
X32753018Y-20095418D01*
X32690125Y-20112515D01*
X32652508Y-20128452D01*
X32631784Y-20152835D01*
X32624546Y-20187864D01*
X32633052Y-20219454D01*
X32660083Y-20245383D01*
X32690742Y-20256971D01*
X32746179Y-20261870D01*
X32792585Y-20261870D01*
X33401971Y-20261870D01*
X33437508Y-20261870D01*
X33483149Y-20256737D01*
X33513346Y-20243429D01*
X33533219Y-20221144D01*
X33539968Y-20190673D01*
X33533749Y-20157152D01*
X33516155Y-20133240D01*
X33485258Y-20116667D01*
X33432745Y-20098227D01*
X33416870Y-20082473D01*
X33405237Y-20056679D01*
X33400505Y-20012620D01*
X33400505Y-18642295D01*
X33405231Y-18598452D01*
X33416870Y-18572686D01*
X33432745Y-18557054D01*
X33485258Y-18538614D01*
X33516175Y-18522052D01*
X33533760Y-18498212D01*
X33539968Y-18464853D01*
X33533221Y-18434510D01*
X33513346Y-18412341D01*
X33483149Y-18399033D01*
X33437508Y-18393900D01*
X33401971Y-18393900D01*
X32793928Y-18393900D01*
G37*
G36*
X32374563Y-19345592D02*
G01*
X32256467Y-19367351D01*
X32181245Y-19388091D01*
X32116416Y-19415657D01*
X32058879Y-19451105D01*
X32007787Y-19498073D01*
X31970830Y-19552466D01*
X31947728Y-19613122D01*
X31940055Y-19677030D01*
X31940055Y-19960596D01*
X31931880Y-19994524D01*
X31911357Y-20003949D01*
X31893039Y-19997721D01*
X31871789Y-19973297D01*
X31834865Y-19936093D01*
X31802058Y-19925791D01*
X31780044Y-19931398D01*
X31755652Y-19950704D01*
X31737784Y-19976638D01*
X31732449Y-20000530D01*
X31741132Y-20044437D01*
X31772749Y-20105066D01*
X31817703Y-20163027D01*
X31873133Y-20215097D01*
X31931960Y-20254571D01*
X31994766Y-20280798D01*
X32063561Y-20295567D01*
X32149127Y-20300948D01*
X32264991Y-20288364D01*
X32356983Y-20253280D01*
X32430495Y-20197023D01*
X32484976Y-20121824D01*
X32519255Y-20027055D01*
X32531612Y-19907107D01*
X32531612Y-19677030D01*
X32532955Y-19588003D01*
X32546140Y-19536441D01*
X32571179Y-19493482D01*
X32618101Y-19456084D01*
X32684630Y-19437306D01*
X32684630Y-19290760D01*
X32617432Y-19274160D01*
X32579483Y-19252414D01*
X32556156Y-19225666D01*
X32541870Y-19196238D01*
X32531612Y-19103059D01*
X32531612Y-18740969D01*
X32541046Y-18661863D01*
X32565073Y-18612498D01*
X32607902Y-18576920D01*
X32685973Y-18545575D01*
X32685973Y-18393900D01*
X32650436Y-18393900D01*
X32392271Y-18404891D01*
X32289490Y-18423359D01*
X32195735Y-18457937D01*
X32109438Y-18508816D01*
X32031109Y-18579201D01*
X31976092Y-18661283D01*
X31942356Y-18757349D01*
X31930530Y-18871151D01*
X31944572Y-18994709D01*
X31984732Y-19098502D01*
X32050819Y-19186957D01*
X32105295Y-19233996D01*
X32168911Y-19271831D01*
X32245972Y-19303674D01*
X32374563Y-19345592D01*
G37*
G36*
X31034159Y-18393900D02*
G01*
X30483635Y-18393900D01*
X30103838Y-20001873D01*
X30079169Y-20077100D01*
X30061062Y-20099418D01*
X30024581Y-20119598D01*
X29975366Y-20149640D01*
X29965331Y-20166752D01*
X29961688Y-20190673D01*
X29972162Y-20228309D01*
X30003835Y-20252057D01*
X30068300Y-20261870D01*
X30749982Y-20261870D01*
X30788015Y-20256556D01*
X30815683Y-20241964D01*
X30834028Y-20218839D01*
X30840230Y-20188963D01*
X30829361Y-20147686D01*
X30780146Y-20113248D01*
X30741922Y-20082962D01*
X30730931Y-20041685D01*
X30735083Y-20000285D01*
X30778681Y-19800739D01*
X31159944Y-19800739D01*
X31123063Y-19636608D01*
X30817027Y-19636608D01*
X31068353Y-18527623D01*
X31034159Y-18393900D01*
G37*
G36*
X31128436Y-18740603D02*
G01*
X31058827Y-19023558D01*
X31300628Y-19908450D01*
X31311496Y-19979647D01*
X31302399Y-20032093D01*
X31276314Y-20072198D01*
X31230896Y-20102990D01*
X31183147Y-20124849D01*
X31149239Y-20152464D01*
X31138084Y-20193359D01*
X31148005Y-20229772D01*
X31177735Y-20252531D01*
X31237735Y-20261870D01*
X31584804Y-20261870D01*
X31631795Y-20256089D01*
X31664794Y-20240620D01*
X31686739Y-20215536D01*
X31694103Y-20182491D01*
X31681171Y-20148582D01*
X31634019Y-20116667D01*
X31551343Y-20072337D01*
X31500052Y-20018115D01*
X31466695Y-19956124D01*
X31437281Y-19868883D01*
X31128436Y-18740603D01*
G37*
G36*
X28519556Y-18357020D02*
G01*
X28519556Y-18514068D01*
X28596621Y-18545058D01*
X28648761Y-18585997D01*
X28681779Y-18639542D01*
X28693091Y-18705676D01*
X28683690Y-18770404D01*
X28656210Y-18825477D01*
X28610944Y-18872906D01*
X28535921Y-18923297D01*
X28276413Y-19043708D01*
X28161148Y-19097722D01*
X28085781Y-19140306D01*
X28020740Y-19188092D01*
X27958042Y-19247651D01*
X27886974Y-19337384D01*
X27837142Y-19433488D01*
X27807099Y-19537493D01*
X27796842Y-19651507D01*
X27806720Y-19766806D01*
X27835824Y-19873874D01*
X27884281Y-19974518D01*
X27949784Y-20065058D01*
X28029473Y-20141367D01*
X28124738Y-20204472D01*
X28209708Y-20243231D01*
X28304378Y-20273471D01*
X28400875Y-20292802D01*
X28486828Y-20298872D01*
X28486828Y-20142801D01*
X28378827Y-20105723D01*
X28315369Y-20062812D01*
X28276497Y-20003932D01*
X28262735Y-19923837D01*
X28271464Y-19866313D01*
X28297886Y-19813131D01*
X28344678Y-19762393D01*
X28413060Y-19717726D01*
X28552407Y-19650163D01*
X28782606Y-19544895D01*
X28902163Y-19470889D01*
X28996718Y-19390560D01*
X29067762Y-19302880D01*
X29117948Y-19206910D01*
X29148473Y-19100895D01*
X29158984Y-18982403D01*
X29151677Y-18879863D01*
X29130203Y-18784243D01*
X29094748Y-18694319D01*
X29045790Y-18611259D01*
X28986344Y-18540758D01*
X28915840Y-18481583D01*
X28804389Y-18419420D01*
X28673620Y-18377430D01*
X28519556Y-18357020D01*
G37*
G36*
X28411601Y-18514068D02*
G01*
X28411601Y-18363858D01*
X28269574Y-18384741D01*
X28098726Y-18445680D01*
X28053663Y-18456426D01*
X28030671Y-18451832D01*
X28015439Y-18438963D01*
X27985397Y-18400006D01*
X27960591Y-18377531D01*
X27932152Y-18370453D01*
X27899668Y-18377415D01*
X27878175Y-18397197D01*
X27866060Y-18428218D01*
X27861078Y-18481217D01*
X27861078Y-18931845D01*
X27866930Y-18967304D01*
X27883670Y-18994738D01*
X27909149Y-19012947D01*
X27941678Y-19019162D01*
X27967788Y-19014807D01*
X27992236Y-19001454D01*
X28012142Y-18975076D01*
X28026430Y-18922808D01*
X28046411Y-18856584D01*
X28078332Y-18785666D01*
X28118633Y-18718265D01*
X28164305Y-18659392D01*
X28235333Y-18594487D01*
X28317144Y-18546274D01*
X28411601Y-18514068D01*
G37*
G36*
X28590631Y-20142801D02*
G01*
X28590631Y-20298872D01*
X28703860Y-20284211D01*
X28837927Y-20235613D01*
X28907658Y-20206060D01*
X28944539Y-20199343D01*
X28985450Y-20207648D01*
X29029169Y-20249291D01*
X29055774Y-20270947D01*
X29082414Y-20277501D01*
X29122914Y-20266256D01*
X29148443Y-20232281D01*
X29158984Y-20163195D01*
X29158984Y-19664574D01*
X29153387Y-19629786D01*
X29137124Y-19601437D01*
X29112400Y-19581534D01*
X29082414Y-19574082D01*
X29055074Y-19577893D01*
X29035397Y-19591179D01*
X29020775Y-19613768D01*
X29005966Y-19655903D01*
X28967417Y-19769849D01*
X28915108Y-19875599D01*
X28849779Y-19971101D01*
X28776378Y-20048645D01*
X28689424Y-20109114D01*
X28590631Y-20142801D01*
G37*
G36*
X26691521Y-19238003D02*
G01*
X26468893Y-19238003D01*
X26468893Y-18642295D01*
X26474531Y-18593525D01*
X26488311Y-18565991D01*
X26508461Y-18552170D01*
X26552180Y-18538614D01*
X26581154Y-18523024D01*
X26598002Y-18499334D01*
X26604082Y-18464853D01*
X26594077Y-18426803D01*
X26564539Y-18403393D01*
X26505774Y-18393900D01*
X26470237Y-18393900D01*
X25862316Y-18393900D01*
X25825314Y-18393900D01*
X25763689Y-18403545D01*
X25733088Y-18427092D01*
X25722854Y-18464853D01*
X25729062Y-18498212D01*
X25746647Y-18522052D01*
X25777564Y-18538614D01*
X25830198Y-18557054D01*
X25845952Y-18572686D01*
X25857591Y-18598452D01*
X25862316Y-18642295D01*
X25862316Y-20006147D01*
X25850400Y-20070455D01*
X25821284Y-20098227D01*
X25777564Y-20113370D01*
X25746797Y-20130013D01*
X25729139Y-20154393D01*
X25722854Y-20188963D01*
X25733215Y-20227959D01*
X25763937Y-20252062D01*
X25825314Y-20261870D01*
X25862316Y-20261870D01*
X26470237Y-20261870D01*
X26508461Y-20261870D01*
X26565146Y-20252321D01*
X26594108Y-20228452D01*
X26604082Y-20188963D01*
X26590912Y-20140901D01*
X26552180Y-20113370D01*
X26508461Y-20098227D01*
X26488502Y-20085017D01*
X26474650Y-20057173D01*
X26468893Y-20006147D01*
X26468893Y-19370872D01*
X26691521Y-19370872D01*
X26691521Y-19238003D01*
G37*
G36*
X26806315Y-20261870D02*
G01*
X27415701Y-20261870D01*
X27451238Y-20261870D01*
X27496879Y-20256737D01*
X27527076Y-20243429D01*
X27546949Y-20221144D01*
X27553698Y-20190673D01*
X27547488Y-20157141D01*
X27529928Y-20133231D01*
X27499110Y-20116667D01*
X27446475Y-20098227D01*
X27430722Y-20082473D01*
X27419089Y-20056679D01*
X27414357Y-20012620D01*
X27414357Y-18642295D01*
X27419083Y-18598452D01*
X27430722Y-18572686D01*
X27446475Y-18557054D01*
X27499110Y-18538614D01*
X27529948Y-18522061D01*
X27547499Y-18498223D01*
X27553698Y-18464853D01*
X27546951Y-18434510D01*
X27527076Y-18412341D01*
X27496879Y-18399033D01*
X27451238Y-18393900D01*
X27415701Y-18393900D01*
X26806315Y-18393900D01*
X26770778Y-18393900D01*
X26712936Y-18403343D01*
X26683743Y-18426708D01*
X26673813Y-18464853D01*
X26679893Y-18499334D01*
X26696741Y-18523024D01*
X26725715Y-18538614D01*
X26768091Y-18552170D01*
X26788241Y-18565991D01*
X26802021Y-18593525D01*
X26807658Y-18642295D01*
X26807658Y-20012620D01*
X26802014Y-20061561D01*
X26788230Y-20089159D01*
X26768091Y-20102990D01*
X26725715Y-20116667D01*
X26696749Y-20132332D01*
X26679895Y-20156101D01*
X26673813Y-20190673D01*
X26683758Y-20228973D01*
X26712966Y-20252407D01*
X26770778Y-20261870D01*
X26806315Y-20261870D01*
G37*
G36*
X24722801Y-20261870D02*
G01*
X25332187Y-20261870D01*
X25367725Y-20261870D01*
X25413365Y-20256737D01*
X25443562Y-20243429D01*
X25463435Y-20221144D01*
X25470184Y-20190673D01*
X25463966Y-20157152D01*
X25446371Y-20133240D01*
X25415474Y-20116667D01*
X25362962Y-20098227D01*
X25347086Y-20082473D01*
X25335454Y-20056679D01*
X25330722Y-20012620D01*
X25330722Y-18642295D01*
X25335447Y-18598452D01*
X25347086Y-18572686D01*
X25362962Y-18557054D01*
X25415474Y-18538614D01*
X25446391Y-18522052D01*
X25463976Y-18498212D01*
X25470184Y-18464853D01*
X25463438Y-18434510D01*
X25443562Y-18412341D01*
X25413365Y-18399033D01*
X25367725Y-18393900D01*
X25332187Y-18393900D01*
X24722801Y-18393900D01*
X24687264Y-18393900D01*
X24641624Y-18399033D01*
X24611427Y-18412341D01*
X24591551Y-18434510D01*
X24584804Y-18464853D01*
X24591003Y-18498223D01*
X24608554Y-18522061D01*
X24639392Y-18538614D01*
X24692149Y-18557054D01*
X24707780Y-18572686D01*
X24719419Y-18598452D01*
X24724145Y-18642295D01*
X24724145Y-20012620D01*
X24719413Y-20056679D01*
X24707780Y-20082473D01*
X24692149Y-20098227D01*
X24639392Y-20116667D01*
X24608574Y-20133231D01*
X24591014Y-20157141D01*
X24584804Y-20190673D01*
X24591554Y-20221144D01*
X24611427Y-20243429D01*
X24641624Y-20256737D01*
X24687264Y-20261870D01*
X24722801Y-20261870D01*
G37*
G36*
X23614305Y-18393900D02*
G01*
X23614305Y-20261870D01*
X24222348Y-20261870D01*
X24257885Y-20261870D01*
X24303526Y-20256737D01*
X24333722Y-20243429D01*
X24353596Y-20221144D01*
X24360345Y-20190673D01*
X24354126Y-20157152D01*
X24336531Y-20133240D01*
X24305635Y-20116667D01*
X24253122Y-20098227D01*
X24237247Y-20082473D01*
X24225614Y-20056679D01*
X24220882Y-20012620D01*
X24220882Y-18642295D01*
X24225608Y-18598452D01*
X24237247Y-18572686D01*
X24253122Y-18557054D01*
X24305635Y-18538614D01*
X24336552Y-18522052D01*
X24354136Y-18498212D01*
X24360345Y-18464853D01*
X24353598Y-18434510D01*
X24333722Y-18412341D01*
X24303526Y-18399033D01*
X24257885Y-18393900D01*
X24222348Y-18393900D01*
X23614305Y-18393900D01*
G37*
G36*
X23492794Y-18393900D02*
G01*
X22942149Y-18393900D01*
X22942149Y-18877013D01*
X22946855Y-18915218D01*
X22958635Y-18937829D01*
X22978556Y-18951482D01*
X23010415Y-18956636D01*
X23037899Y-18953162D01*
X23054256Y-18944424D01*
X23080146Y-18893987D01*
X23122169Y-18793128D01*
X23173107Y-18713981D01*
X23232554Y-18653042D01*
X23303510Y-18606402D01*
X23389223Y-18572962D01*
X23492794Y-18553635D01*
X23492794Y-18393900D01*
G37*
G36*
X23499511Y-19389434D02*
G01*
X23499511Y-19230432D01*
X23427396Y-19189069D01*
X23382030Y-19148733D01*
X23349847Y-19099100D01*
X23325976Y-19030763D01*
X23312080Y-18984572D01*
X23297400Y-18960421D01*
X23276562Y-18946139D01*
X23246842Y-18941004D01*
X23209153Y-18949520D01*
X23186636Y-18973366D01*
X23180229Y-18995587D01*
X23177110Y-19049692D01*
X23177110Y-19571517D01*
X23181527Y-19629718D01*
X23191521Y-19659200D01*
X23210696Y-19676903D01*
X23244033Y-19683502D01*
X23272623Y-19678507D01*
X23293248Y-19664451D01*
X23308164Y-19641347D01*
X23321946Y-19600460D01*
X23351784Y-19513895D01*
X23388258Y-19456234D01*
X23437163Y-19414558D01*
X23499511Y-19389434D01*
G37*
G36*
X23491329Y-20261870D02*
G01*
X23491329Y-20113614D01*
X23406813Y-20096283D01*
X23344539Y-20075268D01*
X23287796Y-20044966D01*
X23227669Y-19999675D01*
X23173803Y-19946767D01*
X23134124Y-19894650D01*
X23101764Y-19835278D01*
X23067812Y-19751158D01*
X23050967Y-19711582D01*
X23036427Y-19691562D01*
X23017550Y-19679893D01*
X22991242Y-19675687D01*
X22957593Y-19681906D01*
X22937997Y-19698401D01*
X22927501Y-19725647D01*
X22922976Y-19777292D01*
X22922976Y-20261870D01*
X23491329Y-20261870D01*
G37*
G36*
X21971039Y-20261870D02*
G01*
X22579082Y-20261870D01*
X22614619Y-20261870D01*
X22660260Y-20256737D01*
X22690457Y-20243429D01*
X22710330Y-20221144D01*
X22717079Y-20190673D01*
X22710860Y-20157152D01*
X22693265Y-20133240D01*
X22662369Y-20116667D01*
X22609856Y-20098227D01*
X22593981Y-20082473D01*
X22582348Y-20056679D01*
X22577616Y-20012620D01*
X22577616Y-18642295D01*
X22582342Y-18598452D01*
X22593981Y-18572686D01*
X22609856Y-18557054D01*
X22662369Y-18538614D01*
X22693286Y-18522052D01*
X22710871Y-18498212D01*
X22717079Y-18464853D01*
X22710332Y-18434510D01*
X22690457Y-18412341D01*
X22660260Y-18399033D01*
X22614619Y-18393900D01*
X22579082Y-18393900D01*
X21969696Y-18393900D01*
X21923290Y-18393900D01*
X21867842Y-18398764D01*
X21837194Y-18410264D01*
X21810147Y-18436158D01*
X21801657Y-18467539D01*
X21808891Y-18502479D01*
X21829607Y-18526784D01*
X21867236Y-18542644D01*
X21930129Y-18559130D01*
X21950523Y-18575373D01*
X21965227Y-18604320D01*
X21971039Y-18651821D01*
X21971039Y-20261870D01*
G37*
G36*
X21860397Y-20261870D02*
G01*
X21860397Y-20108607D01*
X21754518Y-20081252D01*
X21680024Y-20037410D01*
X21626641Y-19985565D01*
X21574877Y-19912846D01*
X21531904Y-19830037D01*
X21496964Y-19736381D01*
X21473521Y-19668038D01*
X21456664Y-19637096D01*
X21434532Y-19619406D01*
X21402686Y-19613160D01*
X21369351Y-19621156D01*
X21346632Y-19644668D01*
X21338450Y-19704874D01*
X21338450Y-20261870D01*
X21860397Y-20261870D01*
G37*
G36*
X20480181Y-18393900D02*
G01*
X20480181Y-20261870D01*
X21088224Y-20261870D01*
X21123761Y-20261870D01*
X21169401Y-20256737D01*
X21199598Y-20243429D01*
X21219471Y-20221144D01*
X21226221Y-20190673D01*
X21220002Y-20157152D01*
X21202407Y-20133240D01*
X21171510Y-20116667D01*
X21118998Y-20098227D01*
X21103122Y-20082473D01*
X21091490Y-20056679D01*
X21086758Y-20012620D01*
X21086758Y-18642295D01*
X21091484Y-18598452D01*
X21103122Y-18572686D01*
X21118998Y-18557054D01*
X21171510Y-18538614D01*
X21202427Y-18522052D01*
X21220012Y-18498212D01*
X21226221Y-18464853D01*
X21219474Y-18434510D01*
X21199598Y-18412341D01*
X21169401Y-18399033D01*
X21123761Y-18393900D01*
X21088224Y-18393900D01*
X20480181Y-18393900D01*
G37*
G36*
X20204187Y-19870226D02*
G01*
X20204187Y-18790062D01*
X20212185Y-18696155D01*
X20232885Y-18631548D01*
X20253591Y-18597405D01*
X20276727Y-18575617D01*
X20306941Y-18560397D01*
X20358670Y-18545575D01*
X20358670Y-18393900D01*
X20235694Y-18399396D01*
X20124151Y-18423386D01*
X20012709Y-18471659D01*
X19899616Y-18547163D01*
X19801919Y-18637986D01*
X19722481Y-18745390D01*
X19660502Y-18871517D01*
X19616401Y-19008654D01*
X19589246Y-19157660D01*
X19579902Y-19320313D01*
X19591907Y-19504148D01*
X19626505Y-19668596D01*
X19682362Y-19816493D01*
X19761504Y-19952178D01*
X19859025Y-20065156D01*
X19976064Y-20157822D01*
X20069029Y-20210013D01*
X20148988Y-20240010D01*
X20235163Y-20255737D01*
X20358670Y-20261870D01*
X20358670Y-20113980D01*
X20278681Y-20086625D01*
X20239724Y-20048279D01*
X20211758Y-19980502D01*
X20204187Y-19870226D01*
G37*
G36*
X35931559Y-20893900D02*
G01*
X35931559Y-22501629D01*
X35925658Y-22550231D01*
X35911043Y-22578321D01*
X35890648Y-22595418D01*
X35827756Y-22612515D01*
X35790138Y-22628452D01*
X35769415Y-22652835D01*
X35762177Y-22687864D01*
X35770683Y-22719454D01*
X35797714Y-22745383D01*
X35828373Y-22756971D01*
X35883810Y-22761870D01*
X35930216Y-22761870D01*
X36454849Y-22761870D01*
X36499912Y-22761870D01*
X36556346Y-22756899D01*
X36586008Y-22745383D01*
X36613039Y-22719454D01*
X36621545Y-22687864D01*
X36614307Y-22652835D01*
X36593584Y-22628452D01*
X36555966Y-22612515D01*
X36493196Y-22595418D01*
X36474023Y-22578321D01*
X36459407Y-22550231D01*
X36453506Y-22501629D01*
X36453506Y-21220087D01*
X36457790Y-21154078D01*
X36467916Y-21116405D01*
X36486869Y-21090448D01*
X36513590Y-21079525D01*
X36561461Y-21072686D01*
X36598618Y-21060296D01*
X36618687Y-21039119D01*
X36625697Y-21007229D01*
X36615689Y-20968722D01*
X36584665Y-20938963D01*
X36558566Y-20930718D01*
X36500034Y-20923942D01*
X35931559Y-20893900D01*
G37*
G36*
X34939689Y-22269476D02*
G01*
X34870028Y-22278211D01*
X34808373Y-22303862D01*
X34752599Y-22347389D01*
X34709071Y-22403164D01*
X34683421Y-22464818D01*
X34674685Y-22534479D01*
X34683458Y-22605114D01*
X34709146Y-22667277D01*
X34752599Y-22723157D01*
X34808365Y-22766611D01*
X34870019Y-22792225D01*
X34939689Y-22800948D01*
X35010251Y-22792191D01*
X35072376Y-22766543D01*
X35128244Y-22723157D01*
X35171624Y-22667286D01*
X35197275Y-22605122D01*
X35206036Y-22534479D01*
X35197312Y-22464810D01*
X35171699Y-22403155D01*
X35128244Y-22347389D01*
X35072367Y-22303930D01*
X35010242Y-22278245D01*
X34939689Y-22269476D01*
G37*
G36*
X33737770Y-22785195D02*
G01*
X33875114Y-22755312D01*
X33992637Y-22703740D01*
X34097635Y-22628023D01*
X34199633Y-22519703D01*
X34263305Y-22428454D01*
X34316625Y-22326245D01*
X34359490Y-22211835D01*
X34400031Y-22030201D01*
X34414078Y-21827274D01*
X34400052Y-21625541D01*
X34359490Y-21444179D01*
X34316619Y-21329689D01*
X34263299Y-21227441D01*
X34199633Y-21136189D01*
X34097635Y-21027869D01*
X33992637Y-20952152D01*
X33875114Y-20900580D01*
X33737770Y-20870697D01*
X33737770Y-21012602D01*
X33791137Y-21033851D01*
X33819713Y-21060352D01*
X33848419Y-21118368D01*
X33859403Y-21206409D01*
X33859403Y-22448140D01*
X33848408Y-22536629D01*
X33819713Y-22594807D01*
X33791137Y-22621552D01*
X33737770Y-22642801D01*
X33737770Y-22785195D01*
G37*
G36*
X33632501Y-22785195D02*
G01*
X33632501Y-22642801D01*
X33579256Y-22621552D01*
X33550558Y-22594807D01*
X33521954Y-22536640D01*
X33510990Y-22448140D01*
X33510990Y-21206409D01*
X33521944Y-21118356D01*
X33550558Y-21060352D01*
X33579256Y-21033851D01*
X33632501Y-21012602D01*
X33632501Y-20870697D01*
X33495175Y-20900584D01*
X33377756Y-20952152D01*
X33272679Y-21027885D01*
X33170760Y-21136189D01*
X33107106Y-21227445D01*
X33053826Y-21329692D01*
X33011025Y-21444179D01*
X32970372Y-21625546D01*
X32956315Y-21827274D01*
X32970393Y-22030196D01*
X33011025Y-22211835D01*
X33053821Y-22326242D01*
X33107099Y-22428450D01*
X33170760Y-22519703D01*
X33272679Y-22628007D01*
X33377756Y-22703740D01*
X33495175Y-22755307D01*
X33632501Y-22785195D01*
G37*
X53510839Y-2422200D02*
X53367982Y-2469819D01*
X53367982Y-2469819D02*
X53129887Y-2469819D01*
X53129887Y-2469819D02*
X53034649Y-2422200D01*
X53034649Y-2422200D02*
X52987030Y-2374580D01*
X52987030Y-2374580D02*
X52939411Y-2279342D01*
X52939411Y-2279342D02*
X52939411Y-2184104D01*
X52939411Y-2184104D02*
X52987030Y-2088866D01*
X52987030Y-2088866D02*
X53034649Y-2041247D01*
X53034649Y-2041247D02*
X53129887Y-1993628D01*
X53129887Y-1993628D02*
X53320363Y-1946009D01*
X53320363Y-1946009D02*
X53415601Y-1898390D01*
X53415601Y-1898390D02*
X53463220Y-1850771D01*
X53463220Y-1850771D02*
X53510839Y-1755533D01*
X53510839Y-1755533D02*
X53510839Y-1660295D01*
X53510839Y-1660295D02*
X53463220Y-1565057D01*
X53463220Y-1565057D02*
X53415601Y-1517438D01*
X53415601Y-1517438D02*
X53320363Y-1469819D01*
X53320363Y-1469819D02*
X53082268Y-1469819D01*
X53082268Y-1469819D02*
X52939411Y-1517438D01*
X51939411Y-2374580D02*
X51987030Y-2422200D01*
X51987030Y-2422200D02*
X52129887Y-2469819D01*
X52129887Y-2469819D02*
X52225125Y-2469819D01*
X52225125Y-2469819D02*
X52367982Y-2422200D01*
X52367982Y-2422200D02*
X52463220Y-2326961D01*
X52463220Y-2326961D02*
X52510839Y-2231723D01*
X52510839Y-2231723D02*
X52558458Y-2041247D01*
X52558458Y-2041247D02*
X52558458Y-1898390D01*
X52558458Y-1898390D02*
X52510839Y-1707914D01*
X52510839Y-1707914D02*
X52463220Y-1612676D01*
X52463220Y-1612676D02*
X52367982Y-1517438D01*
X52367982Y-1517438D02*
X52225125Y-1469819D01*
X52225125Y-1469819D02*
X52129887Y-1469819D01*
X52129887Y-1469819D02*
X51987030Y-1517438D01*
X51987030Y-1517438D02*
X51939411Y-1565057D01*
X51034649Y-2469819D02*
X51510839Y-2469819D01*
X51510839Y-2469819D02*
X51510839Y-1469819D01*
X25024580Y-8908207D02*
X25072200Y-8860588D01*
X25072200Y-8860588D02*
X25119819Y-8717731D01*
X25119819Y-8717731D02*
X25119819Y-8622493D01*
X25119819Y-8622493D02*
X25072200Y-8479636D01*
X25072200Y-8479636D02*
X24976961Y-8384398D01*
X24976961Y-8384398D02*
X24881723Y-8336779D01*
X24881723Y-8336779D02*
X24691247Y-8289160D01*
X24691247Y-8289160D02*
X24548390Y-8289160D01*
X24548390Y-8289160D02*
X24357914Y-8336779D01*
X24357914Y-8336779D02*
X24262676Y-8384398D01*
X24262676Y-8384398D02*
X24167438Y-8479636D01*
X24167438Y-8479636D02*
X24119819Y-8622493D01*
X24119819Y-8622493D02*
X24119819Y-8717731D01*
X24119819Y-8717731D02*
X24167438Y-8860588D01*
X24167438Y-8860588D02*
X24215057Y-8908207D01*
X25119819Y-9812969D02*
X25119819Y-9336779D01*
X25119819Y-9336779D02*
X24119819Y-9336779D01*
X25119819Y-10146303D02*
X24119819Y-10146303D01*
X25119819Y-10717731D02*
X24548390Y-10289160D01*
X24119819Y-10717731D02*
X24691247Y-10146303D01*
X52969819Y-26136779D02*
X51969819Y-26136779D01*
X51969819Y-26136779D02*
X52684104Y-26470112D01*
X52684104Y-26470112D02*
X51969819Y-26803445D01*
X51969819Y-26803445D02*
X52969819Y-26803445D01*
X51969819Y-27136779D02*
X51969819Y-27708207D01*
X52969819Y-27422493D02*
X51969819Y-27422493D01*
X52969819Y-28612969D02*
X52493628Y-28279636D01*
X52969819Y-28041541D02*
X51969819Y-28041541D01*
X51969819Y-28041541D02*
X51969819Y-28422493D01*
X51969819Y-28422493D02*
X52017438Y-28517731D01*
X52017438Y-28517731D02*
X52065057Y-28565350D01*
X52065057Y-28565350D02*
X52160295Y-28612969D01*
X52160295Y-28612969D02*
X52303152Y-28612969D01*
X52303152Y-28612969D02*
X52398390Y-28565350D01*
X52398390Y-28565350D02*
X52446009Y-28517731D01*
X52446009Y-28517731D02*
X52493628Y-28422493D01*
X52493628Y-28422493D02*
X52493628Y-28041541D01*
X52446009Y-29374874D02*
X52493628Y-29517731D01*
X52493628Y-29517731D02*
X52541247Y-29565350D01*
X52541247Y-29565350D02*
X52636485Y-29612969D01*
X52636485Y-29612969D02*
X52779342Y-29612969D01*
X52779342Y-29612969D02*
X52874580Y-29565350D01*
X52874580Y-29565350D02*
X52922200Y-29517731D01*
X52922200Y-29517731D02*
X52969819Y-29422493D01*
X52969819Y-29422493D02*
X52969819Y-29041541D01*
X52969819Y-29041541D02*
X51969819Y-29041541D01*
X51969819Y-29041541D02*
X51969819Y-29374874D01*
X51969819Y-29374874D02*
X52017438Y-29470112D01*
X52017438Y-29470112D02*
X52065057Y-29517731D01*
X52065057Y-29517731D02*
X52160295Y-29565350D01*
X52160295Y-29565350D02*
X52255533Y-29565350D01*
X52255533Y-29565350D02*
X52350771Y-29517731D01*
X52350771Y-29517731D02*
X52398390Y-29470112D01*
X52398390Y-29470112D02*
X52446009Y-29374874D01*
X52446009Y-29374874D02*
X52446009Y-29041541D01*
X49669819Y-16136779D02*
X48669819Y-16136779D01*
X48765057Y-16565350D02*
X48717438Y-16612969D01*
X48717438Y-16612969D02*
X48669819Y-16708207D01*
X48669819Y-16708207D02*
X48669819Y-16946302D01*
X48669819Y-16946302D02*
X48717438Y-17041540D01*
X48717438Y-17041540D02*
X48765057Y-17089159D01*
X48765057Y-17089159D02*
X48860295Y-17136778D01*
X48860295Y-17136778D02*
X48955533Y-17136778D01*
X48955533Y-17136778D02*
X49098390Y-17089159D01*
X49098390Y-17089159D02*
X49669819Y-16517731D01*
X49669819Y-16517731D02*
X49669819Y-17136778D01*
X49574580Y-18136778D02*
X49622200Y-18089159D01*
X49622200Y-18089159D02*
X49669819Y-17946302D01*
X49669819Y-17946302D02*
X49669819Y-17851064D01*
X49669819Y-17851064D02*
X49622200Y-17708207D01*
X49622200Y-17708207D02*
X49526961Y-17612969D01*
X49526961Y-17612969D02*
X49431723Y-17565350D01*
X49431723Y-17565350D02*
X49241247Y-17517731D01*
X49241247Y-17517731D02*
X49098390Y-17517731D01*
X49098390Y-17517731D02*
X48907914Y-17565350D01*
X48907914Y-17565350D02*
X48812676Y-17612969D01*
X48812676Y-17612969D02*
X48717438Y-17708207D01*
X48717438Y-17708207D02*
X48669819Y-17851064D01*
X48669819Y-17851064D02*
X48669819Y-17946302D01*
X48669819Y-17946302D02*
X48717438Y-18089159D01*
X48717438Y-18089159D02*
X48765057Y-18136778D01*
X49669819Y-19089159D02*
X49669819Y-18517731D01*
X49669819Y-18803445D02*
X48669819Y-18803445D01*
X48669819Y-18803445D02*
X48812676Y-18708207D01*
X48812676Y-18708207D02*
X48907914Y-18612969D01*
X48907914Y-18612969D02*
X48955533Y-18517731D01*
X14488866Y-31086779D02*
X14488866Y-31848684D01*
X14869819Y-31467731D02*
X14107914Y-31467731D01*
X13869819Y-32801064D02*
X13869819Y-32324874D01*
X13869819Y-32324874D02*
X14346009Y-32277255D01*
X14346009Y-32277255D02*
X14298390Y-32324874D01*
X14298390Y-32324874D02*
X14250771Y-32420112D01*
X14250771Y-32420112D02*
X14250771Y-32658207D01*
X14250771Y-32658207D02*
X14298390Y-32753445D01*
X14298390Y-32753445D02*
X14346009Y-32801064D01*
X14346009Y-32801064D02*
X14441247Y-32848683D01*
X14441247Y-32848683D02*
X14679342Y-32848683D01*
X14679342Y-32848683D02*
X14774580Y-32801064D01*
X14774580Y-32801064D02*
X14822200Y-32753445D01*
X14822200Y-32753445D02*
X14869819Y-32658207D01*
X14869819Y-32658207D02*
X14869819Y-32420112D01*
X14869819Y-32420112D02*
X14822200Y-32324874D01*
X14822200Y-32324874D02*
X14774580Y-32277255D01*
X13869819Y-33134398D02*
X14869819Y-33467731D01*
X14869819Y-33467731D02*
X13869819Y-33801064D01*
X52939411Y-18317438D02*
X53034649Y-18269819D01*
X53034649Y-18269819D02*
X53177506Y-18269819D01*
X53177506Y-18269819D02*
X53320363Y-18317438D01*
X53320363Y-18317438D02*
X53415601Y-18412676D01*
X53415601Y-18412676D02*
X53463220Y-18507914D01*
X53463220Y-18507914D02*
X53510839Y-18698390D01*
X53510839Y-18698390D02*
X53510839Y-18841247D01*
X53510839Y-18841247D02*
X53463220Y-19031723D01*
X53463220Y-19031723D02*
X53415601Y-19126961D01*
X53415601Y-19126961D02*
X53320363Y-19222200D01*
X53320363Y-19222200D02*
X53177506Y-19269819D01*
X53177506Y-19269819D02*
X53082268Y-19269819D01*
X53082268Y-19269819D02*
X52939411Y-19222200D01*
X52939411Y-19222200D02*
X52891792Y-19174580D01*
X52891792Y-19174580D02*
X52891792Y-18841247D01*
X52891792Y-18841247D02*
X53082268Y-18841247D01*
X52463220Y-19269819D02*
X52463220Y-18269819D01*
X52463220Y-18269819D02*
X51891792Y-19269819D01*
X51891792Y-19269819D02*
X51891792Y-18269819D01*
X51415601Y-19269819D02*
X51415601Y-18269819D01*
X51415601Y-18269819D02*
X51177506Y-18269819D01*
X51177506Y-18269819D02*
X51034649Y-18317438D01*
X51034649Y-18317438D02*
X50939411Y-18412676D01*
X50939411Y-18412676D02*
X50891792Y-18507914D01*
X50891792Y-18507914D02*
X50844173Y-18698390D01*
X50844173Y-18698390D02*
X50844173Y-18841247D01*
X50844173Y-18841247D02*
X50891792Y-19031723D01*
X50891792Y-19031723D02*
X50939411Y-19126961D01*
X50939411Y-19126961D02*
X51034649Y-19222200D01*
X51034649Y-19222200D02*
X51177506Y-19269819D01*
X51177506Y-19269819D02*
X51415601Y-19269819D01*
X22619819Y-8812969D02*
X22619819Y-8336779D01*
X22619819Y-8336779D02*
X21619819Y-8336779D01*
X21715057Y-9098684D02*
X21667438Y-9146303D01*
X21667438Y-9146303D02*
X21619819Y-9241541D01*
X21619819Y-9241541D02*
X21619819Y-9479636D01*
X21619819Y-9479636D02*
X21667438Y-9574874D01*
X21667438Y-9574874D02*
X21715057Y-9622493D01*
X21715057Y-9622493D02*
X21810295Y-9670112D01*
X21810295Y-9670112D02*
X21905533Y-9670112D01*
X21905533Y-9670112D02*
X22048390Y-9622493D01*
X22048390Y-9622493D02*
X22619819Y-9051065D01*
X22619819Y-9051065D02*
X22619819Y-9670112D01*
X53510839Y-14222200D02*
X53367982Y-14269819D01*
X53367982Y-14269819D02*
X53129887Y-14269819D01*
X53129887Y-14269819D02*
X53034649Y-14222200D01*
X53034649Y-14222200D02*
X52987030Y-14174580D01*
X52987030Y-14174580D02*
X52939411Y-14079342D01*
X52939411Y-14079342D02*
X52939411Y-13984104D01*
X52939411Y-13984104D02*
X52987030Y-13888866D01*
X52987030Y-13888866D02*
X53034649Y-13841247D01*
X53034649Y-13841247D02*
X53129887Y-13793628D01*
X53129887Y-13793628D02*
X53320363Y-13746009D01*
X53320363Y-13746009D02*
X53415601Y-13698390D01*
X53415601Y-13698390D02*
X53463220Y-13650771D01*
X53463220Y-13650771D02*
X53510839Y-13555533D01*
X53510839Y-13555533D02*
X53510839Y-13460295D01*
X53510839Y-13460295D02*
X53463220Y-13365057D01*
X53463220Y-13365057D02*
X53415601Y-13317438D01*
X53415601Y-13317438D02*
X53320363Y-13269819D01*
X53320363Y-13269819D02*
X53082268Y-13269819D01*
X53082268Y-13269819D02*
X52939411Y-13317438D01*
X51939411Y-14174580D02*
X51987030Y-14222200D01*
X51987030Y-14222200D02*
X52129887Y-14269819D01*
X52129887Y-14269819D02*
X52225125Y-14269819D01*
X52225125Y-14269819D02*
X52367982Y-14222200D01*
X52367982Y-14222200D02*
X52463220Y-14126961D01*
X52463220Y-14126961D02*
X52510839Y-14031723D01*
X52510839Y-14031723D02*
X52558458Y-13841247D01*
X52558458Y-13841247D02*
X52558458Y-13698390D01*
X52558458Y-13698390D02*
X52510839Y-13507914D01*
X52510839Y-13507914D02*
X52463220Y-13412676D01*
X52463220Y-13412676D02*
X52367982Y-13317438D01*
X52367982Y-13317438D02*
X52225125Y-13269819D01*
X52225125Y-13269819D02*
X52129887Y-13269819D01*
X52129887Y-13269819D02*
X51987030Y-13317438D01*
X51987030Y-13317438D02*
X51939411Y-13365057D01*
X51034649Y-14269819D02*
X51510839Y-14269819D01*
X51510839Y-14269819D02*
X51510839Y-13269819D01*
X53663220Y-21488866D02*
X52901316Y-21488866D01*
X53282268Y-21869819D02*
X53282268Y-21107914D01*
X52520363Y-20869819D02*
X51901316Y-20869819D01*
X51901316Y-20869819D02*
X52234649Y-21250771D01*
X52234649Y-21250771D02*
X52091792Y-21250771D01*
X52091792Y-21250771D02*
X51996554Y-21298390D01*
X51996554Y-21298390D02*
X51948935Y-21346009D01*
X51948935Y-21346009D02*
X51901316Y-21441247D01*
X51901316Y-21441247D02*
X51901316Y-21679342D01*
X51901316Y-21679342D02*
X51948935Y-21774580D01*
X51948935Y-21774580D02*
X51996554Y-21822200D01*
X51996554Y-21822200D02*
X52091792Y-21869819D01*
X52091792Y-21869819D02*
X52377506Y-21869819D01*
X52377506Y-21869819D02*
X52472744Y-21822200D01*
X52472744Y-21822200D02*
X52520363Y-21774580D01*
X51472744Y-21774580D02*
X51425125Y-21822200D01*
X51425125Y-21822200D02*
X51472744Y-21869819D01*
X51472744Y-21869819D02*
X51520363Y-21822200D01*
X51520363Y-21822200D02*
X51472744Y-21774580D01*
X51472744Y-21774580D02*
X51472744Y-21869819D01*
X51091792Y-20869819D02*
X50472745Y-20869819D01*
X50472745Y-20869819D02*
X50806078Y-21250771D01*
X50806078Y-21250771D02*
X50663221Y-21250771D01*
X50663221Y-21250771D02*
X50567983Y-21298390D01*
X50567983Y-21298390D02*
X50520364Y-21346009D01*
X50520364Y-21346009D02*
X50472745Y-21441247D01*
X50472745Y-21441247D02*
X50472745Y-21679342D01*
X50472745Y-21679342D02*
X50520364Y-21774580D01*
X50520364Y-21774580D02*
X50567983Y-21822200D01*
X50567983Y-21822200D02*
X50663221Y-21869819D01*
X50663221Y-21869819D02*
X50948935Y-21869819D01*
X50948935Y-21869819D02*
X51044173Y-21822200D01*
X51044173Y-21822200D02*
X51091792Y-21774580D01*
X27524580Y-32908207D02*
X27572200Y-32860588D01*
X27572200Y-32860588D02*
X27619819Y-32717731D01*
X27619819Y-32717731D02*
X27619819Y-32622493D01*
X27619819Y-32622493D02*
X27572200Y-32479636D01*
X27572200Y-32479636D02*
X27476961Y-32384398D01*
X27476961Y-32384398D02*
X27381723Y-32336779D01*
X27381723Y-32336779D02*
X27191247Y-32289160D01*
X27191247Y-32289160D02*
X27048390Y-32289160D01*
X27048390Y-32289160D02*
X26857914Y-32336779D01*
X26857914Y-32336779D02*
X26762676Y-32384398D01*
X26762676Y-32384398D02*
X26667438Y-32479636D01*
X26667438Y-32479636D02*
X26619819Y-32622493D01*
X26619819Y-32622493D02*
X26619819Y-32717731D01*
X26619819Y-32717731D02*
X26667438Y-32860588D01*
X26667438Y-32860588D02*
X26715057Y-32908207D01*
X27572200Y-33289160D02*
X27619819Y-33432017D01*
X27619819Y-33432017D02*
X27619819Y-33670112D01*
X27619819Y-33670112D02*
X27572200Y-33765350D01*
X27572200Y-33765350D02*
X27524580Y-33812969D01*
X27524580Y-33812969D02*
X27429342Y-33860588D01*
X27429342Y-33860588D02*
X27334104Y-33860588D01*
X27334104Y-33860588D02*
X27238866Y-33812969D01*
X27238866Y-33812969D02*
X27191247Y-33765350D01*
X27191247Y-33765350D02*
X27143628Y-33670112D01*
X27143628Y-33670112D02*
X27096009Y-33479636D01*
X27096009Y-33479636D02*
X27048390Y-33384398D01*
X27048390Y-33384398D02*
X27000771Y-33336779D01*
X27000771Y-33336779D02*
X26905533Y-33289160D01*
X26905533Y-33289160D02*
X26810295Y-33289160D01*
X26810295Y-33289160D02*
X26715057Y-33336779D01*
X26715057Y-33336779D02*
X26667438Y-33384398D01*
X26667438Y-33384398D02*
X26619819Y-33479636D01*
X26619819Y-33479636D02*
X26619819Y-33717731D01*
X26619819Y-33717731D02*
X26667438Y-33860588D01*
X14488866Y-8586779D02*
X14488866Y-9348684D01*
X14869819Y-8967731D02*
X14107914Y-8967731D01*
X13869819Y-10301064D02*
X13869819Y-9824874D01*
X13869819Y-9824874D02*
X14346009Y-9777255D01*
X14346009Y-9777255D02*
X14298390Y-9824874D01*
X14298390Y-9824874D02*
X14250771Y-9920112D01*
X14250771Y-9920112D02*
X14250771Y-10158207D01*
X14250771Y-10158207D02*
X14298390Y-10253445D01*
X14298390Y-10253445D02*
X14346009Y-10301064D01*
X14346009Y-10301064D02*
X14441247Y-10348683D01*
X14441247Y-10348683D02*
X14679342Y-10348683D01*
X14679342Y-10348683D02*
X14774580Y-10301064D01*
X14774580Y-10301064D02*
X14822200Y-10253445D01*
X14822200Y-10253445D02*
X14869819Y-10158207D01*
X14869819Y-10158207D02*
X14869819Y-9920112D01*
X14869819Y-9920112D02*
X14822200Y-9824874D01*
X14822200Y-9824874D02*
X14774580Y-9777255D01*
X13869819Y-10634398D02*
X14869819Y-10967731D01*
X14869819Y-10967731D02*
X13869819Y-11301064D01*
X19244819Y-3166666D02*
X19959104Y-3166666D01*
X19959104Y-3166666D02*
X20101961Y-3119047D01*
X20101961Y-3119047D02*
X20197200Y-3023809D01*
X20197200Y-3023809D02*
X20244819Y-2880952D01*
X20244819Y-2880952D02*
X20244819Y-2785714D01*
X19244819Y-4071428D02*
X19244819Y-3880952D01*
X19244819Y-3880952D02*
X19292438Y-3785714D01*
X19292438Y-3785714D02*
X19340057Y-3738095D01*
X19340057Y-3738095D02*
X19482914Y-3642857D01*
X19482914Y-3642857D02*
X19673390Y-3595238D01*
X19673390Y-3595238D02*
X20054342Y-3595238D01*
X20054342Y-3595238D02*
X20149580Y-3642857D01*
X20149580Y-3642857D02*
X20197200Y-3690476D01*
X20197200Y-3690476D02*
X20244819Y-3785714D01*
X20244819Y-3785714D02*
X20244819Y-3976190D01*
X20244819Y-3976190D02*
X20197200Y-4071428D01*
X20197200Y-4071428D02*
X20149580Y-4119047D01*
X20149580Y-4119047D02*
X20054342Y-4166666D01*
X20054342Y-4166666D02*
X19816247Y-4166666D01*
X19816247Y-4166666D02*
X19721009Y-4119047D01*
X19721009Y-4119047D02*
X19673390Y-4071428D01*
X19673390Y-4071428D02*
X19625771Y-3976190D01*
X19625771Y-3976190D02*
X19625771Y-3785714D01*
X19625771Y-3785714D02*
X19673390Y-3690476D01*
X19673390Y-3690476D02*
X19721009Y-3642857D01*
X19721009Y-3642857D02*
X19816247Y-3595238D01*
X19244819Y-38416666D02*
X19959104Y-38416666D01*
X19959104Y-38416666D02*
X20101961Y-38369047D01*
X20101961Y-38369047D02*
X20197200Y-38273809D01*
X20197200Y-38273809D02*
X20244819Y-38130952D01*
X20244819Y-38130952D02*
X20244819Y-38035714D01*
X19340057Y-38845238D02*
X19292438Y-38892857D01*
X19292438Y-38892857D02*
X19244819Y-38988095D01*
X19244819Y-38988095D02*
X19244819Y-39226190D01*
X19244819Y-39226190D02*
X19292438Y-39321428D01*
X19292438Y-39321428D02*
X19340057Y-39369047D01*
X19340057Y-39369047D02*
X19435295Y-39416666D01*
X19435295Y-39416666D02*
X19530533Y-39416666D01*
X19530533Y-39416666D02*
X19673390Y-39369047D01*
X19673390Y-39369047D02*
X20244819Y-38797619D01*
X20244819Y-38797619D02*
X20244819Y-39416666D01*
X1784819Y-10666666D02*
X2499104Y-10666666D01*
X2499104Y-10666666D02*
X2641961Y-10619047D01*
X2641961Y-10619047D02*
X2737200Y-10523809D01*
X2737200Y-10523809D02*
X2784819Y-10380952D01*
X2784819Y-10380952D02*
X2784819Y-10285714D01*
X1784819Y-11619047D02*
X1784819Y-11142857D01*
X1784819Y-11142857D02*
X2261009Y-11095238D01*
X2261009Y-11095238D02*
X2213390Y-11142857D01*
X2213390Y-11142857D02*
X2165771Y-11238095D01*
X2165771Y-11238095D02*
X2165771Y-11476190D01*
X2165771Y-11476190D02*
X2213390Y-11571428D01*
X2213390Y-11571428D02*
X2261009Y-11619047D01*
X2261009Y-11619047D02*
X2356247Y-11666666D01*
X2356247Y-11666666D02*
X2594342Y-11666666D01*
X2594342Y-11666666D02*
X2689580Y-11619047D01*
X2689580Y-11619047D02*
X2737200Y-11571428D01*
X2737200Y-11571428D02*
X2784819Y-11476190D01*
X2784819Y-11476190D02*
X2784819Y-11238095D01*
X2784819Y-11238095D02*
X2737200Y-11142857D01*
X2737200Y-11142857D02*
X2689580Y-11095238D01*
D11*
%TO.C,J6*%
X20790000Y-2120000D02*
X20790000Y-3500000D01*
X22170000Y-2120000D02*
X20790000Y-2120000D01*
X23440000Y-2120000D02*
X23440000Y-4880000D01*
X23440000Y-2120000D02*
X28630000Y-2120000D01*
X23440000Y-4880000D02*
X28630000Y-4880000D01*
X28630000Y-2120000D02*
X28630000Y-4880000D01*
%TO.C,J7*%
X53730000Y-21370000D02*
X53730000Y-22640000D01*
X53730000Y-22640000D02*
X55000000Y-22640000D01*
X56077358Y-13320000D02*
X56390000Y-13320000D01*
X56077358Y-14180000D02*
X56390000Y-14180000D01*
X56077358Y-15860000D02*
X56390000Y-15860000D01*
X56077358Y-16720000D02*
X56390000Y-16720000D01*
X56077358Y-18400000D02*
X56390000Y-18400000D01*
X56077358Y-19260000D02*
X56390000Y-19260000D01*
X56160000Y-20940000D02*
X56390000Y-20940000D01*
X56160000Y-21800000D02*
X56390000Y-21800000D01*
X56390000Y-12370000D02*
X59150000Y-12370000D01*
X56390000Y-15020000D02*
X59150000Y-15020000D01*
X56390000Y-17560000D02*
X59150000Y-17560000D01*
X56390000Y-20100000D02*
X59150000Y-20100000D01*
X56390000Y-22750000D02*
X56390000Y-12370000D01*
X59150000Y-12370000D02*
X59150000Y-22750000D01*
X59150000Y-14180000D02*
X65150000Y-14180000D01*
X59150000Y-16720000D02*
X65150000Y-16720000D01*
X59150000Y-19260000D02*
X65150000Y-19260000D01*
X59150000Y-22750000D02*
X56390000Y-22750000D01*
X65150000Y-13320000D02*
X59150000Y-13320000D01*
X65150000Y-14180000D02*
X65150000Y-13320000D01*
X65150000Y-15860000D02*
X59150000Y-15860000D01*
X65150000Y-16720000D02*
X65150000Y-15860000D01*
X65150000Y-18400000D02*
X59150000Y-18400000D01*
X65150000Y-19260000D02*
X65150000Y-18400000D01*
X59150000Y-21800000D02*
X65150000Y-21800000D01*
X65150000Y-20940000D01*
X59150000Y-20940000D01*
X59150000Y-21800000D01*
G36*
X59150000Y-21800000D02*
G01*
X65150000Y-21800000D01*
X65150000Y-20940000D01*
X59150000Y-20940000D01*
X59150000Y-21800000D01*
G37*
%TO.C,J4*%
X53730000Y-39750000D02*
X53730000Y-41020000D01*
X53730000Y-41020000D02*
X55000000Y-41020000D01*
X56077358Y-34240000D02*
X56390000Y-34240000D01*
X56077358Y-35100000D02*
X56390000Y-35100000D01*
X56077358Y-36780000D02*
X56390000Y-36780000D01*
X56077358Y-37640000D02*
X56390000Y-37640000D01*
X56160000Y-39320000D02*
X56390000Y-39320000D01*
X56160000Y-40180000D02*
X56390000Y-40180000D01*
X56390000Y-33290000D02*
X59150000Y-33290000D01*
X56390000Y-35940000D02*
X59150000Y-35940000D01*
X56390000Y-38480000D02*
X59150000Y-38480000D01*
X56390000Y-41130000D02*
X56390000Y-33290000D01*
X59150000Y-33290000D02*
X59150000Y-41130000D01*
X59150000Y-35100000D02*
X65150000Y-35100000D01*
X59150000Y-37640000D02*
X65150000Y-37640000D01*
X59150000Y-41130000D02*
X56390000Y-41130000D01*
X65150000Y-34240000D02*
X59150000Y-34240000D01*
X65150000Y-35100000D02*
X65150000Y-34240000D01*
X65150000Y-36780000D02*
X59150000Y-36780000D01*
X65150000Y-37640000D02*
X65150000Y-36780000D01*
X59150000Y-40180000D02*
X65150000Y-40180000D01*
X65150000Y-39320000D01*
X59150000Y-39320000D01*
X59150000Y-40180000D01*
G36*
X59150000Y-40180000D02*
G01*
X65150000Y-40180000D01*
X65150000Y-39320000D01*
X59150000Y-39320000D01*
X59150000Y-40180000D01*
G37*
%TO.C,J2*%
X20790000Y-37370000D02*
X20790000Y-38750000D01*
X22170000Y-37370000D02*
X20790000Y-37370000D01*
X23440000Y-37370000D02*
X23440000Y-40130000D01*
X23440000Y-37370000D02*
X28630000Y-37370000D01*
X23440000Y-40130000D02*
X28630000Y-40130000D01*
X28630000Y-37370000D02*
X28630000Y-40130000D01*
%TO.C,J8*%
X53730000Y-30500000D02*
X53730000Y-31770000D01*
X53730000Y-31770000D02*
X55000000Y-31770000D01*
X56077358Y-24990000D02*
X56390000Y-24990000D01*
X56077358Y-25850000D02*
X56390000Y-25850000D01*
X56077358Y-27530000D02*
X56390000Y-27530000D01*
X56077358Y-28390000D02*
X56390000Y-28390000D01*
X56160000Y-30070000D02*
X56390000Y-30070000D01*
X56160000Y-30930000D02*
X56390000Y-30930000D01*
X56390000Y-24040000D02*
X59150000Y-24040000D01*
X56390000Y-26690000D02*
X59150000Y-26690000D01*
X56390000Y-29230000D02*
X59150000Y-29230000D01*
X56390000Y-31880000D02*
X56390000Y-24040000D01*
X59150000Y-24040000D02*
X59150000Y-31880000D01*
X59150000Y-25850000D02*
X65150000Y-25850000D01*
X59150000Y-28390000D02*
X65150000Y-28390000D01*
X59150000Y-31880000D02*
X56390000Y-31880000D01*
X65150000Y-24990000D02*
X59150000Y-24990000D01*
X65150000Y-25850000D02*
X65150000Y-24990000D01*
X65150000Y-27530000D02*
X59150000Y-27530000D01*
X65150000Y-28390000D02*
X65150000Y-27530000D01*
X59150000Y-30930000D02*
X65150000Y-30930000D01*
X65150000Y-30070000D01*
X59150000Y-30070000D01*
X59150000Y-30930000D01*
G36*
X59150000Y-30930000D02*
G01*
X65150000Y-30930000D01*
X65150000Y-30070000D01*
X59150000Y-30070000D01*
X59150000Y-30930000D01*
G37*
%TO.C,J5*%
X3330000Y-9620000D02*
X3330000Y-11000000D01*
X4710000Y-9620000D02*
X3330000Y-9620000D01*
X5980000Y-9620000D02*
X5980000Y-12380000D01*
X5980000Y-9620000D02*
X11170000Y-9620000D01*
X5980000Y-12380000D02*
X11170000Y-12380000D01*
X11170000Y-9620000D02*
X11170000Y-12380000D01*
%TO.C,J3*%
X53730000Y-9620000D02*
X53730000Y-10890000D01*
X53730000Y-10890000D02*
X55000000Y-10890000D01*
X56077358Y-1570000D02*
X56390000Y-1570000D01*
X56077358Y-2430000D02*
X56390000Y-2430000D01*
X56077358Y-4110000D02*
X56390000Y-4110000D01*
X56077358Y-4970000D02*
X56390000Y-4970000D01*
X56077358Y-6650000D02*
X56390000Y-6650000D01*
X56077358Y-7510000D02*
X56390000Y-7510000D01*
X56160000Y-9190000D02*
X56390000Y-9190000D01*
X56160000Y-10050000D02*
X56390000Y-10050000D01*
X56390000Y-620000D02*
X59150000Y-620000D01*
X56390000Y-3270000D02*
X59150000Y-3270000D01*
X56390000Y-5810000D02*
X59150000Y-5810000D01*
X56390000Y-8350000D02*
X59150000Y-8350000D01*
X56390000Y-11000000D02*
X56390000Y-620000D01*
X59150000Y-620000D02*
X59150000Y-11000000D01*
X59150000Y-2430000D02*
X65150000Y-2430000D01*
X59150000Y-4970000D02*
X65150000Y-4970000D01*
X59150000Y-7510000D02*
X65150000Y-7510000D01*
X59150000Y-11000000D02*
X56390000Y-11000000D01*
X65150000Y-1570000D02*
X59150000Y-1570000D01*
X65150000Y-2430000D02*
X65150000Y-1570000D01*
X65150000Y-4110000D02*
X59150000Y-4110000D01*
X65150000Y-4970000D02*
X65150000Y-4110000D01*
X65150000Y-6650000D02*
X59150000Y-6650000D01*
X65150000Y-7510000D02*
X65150000Y-6650000D01*
X59150000Y-10050000D02*
X65150000Y-10050000D01*
X65150000Y-9190000D01*
X59150000Y-9190000D01*
X59150000Y-10050000D01*
G36*
X59150000Y-10050000D02*
G01*
X65150000Y-10050000D01*
X65150000Y-9190000D01*
X59150000Y-9190000D01*
X59150000Y-10050000D01*
G37*
%TD*%
M02*
