%TF.GenerationSoftware,KiCad,Pcbnew,9.0.3*%
%TF.CreationDate,2025-08-10T23:59:10-04:00*%
%TF.ProjectId,Hydra_Driver_Shield,48796472-615f-4447-9269-7665725f5368,rev?*%
%TF.SameCoordinates,Original*%
%TF.FileFunction,Copper,L2,Bot*%
%TF.FilePolarity,Positive*%
%FSLAX46Y46*%
G04 Gerber Fmt 4.6, Leading zero omitted, Abs format (unit mm)*
G04 Created by KiCad (PCBNEW 9.0.3) date 2025-08-10 23:59:10*
%MOMM*%
%LPD*%
G01*
G04 APERTURE LIST*
%TA.AperFunction,ComponentPad*%
%ADD10O,2.100000X1.000000*%
%TD*%
%TA.AperFunction,ComponentPad*%
%ADD11O,1.800000X1.000000*%
%TD*%
%TA.AperFunction,ComponentPad*%
%ADD12C,2.000000*%
%TD*%
%TA.AperFunction,ComponentPad*%
%ADD13R,1.700000X1.700000*%
%TD*%
%TA.AperFunction,ComponentPad*%
%ADD14C,1.700000*%
%TD*%
%TA.AperFunction,ViaPad*%
%ADD15C,0.600000*%
%TD*%
%TA.AperFunction,ViaPad*%
%ADD16C,0.800000*%
%TD*%
%TA.AperFunction,Conductor*%
%ADD17C,0.200000*%
%TD*%
%TA.AperFunction,Conductor*%
%ADD18C,0.250000*%
%TD*%
%TA.AperFunction,Conductor*%
%ADD19C,1.000000*%
%TD*%
G04 APERTURE END LIST*
D10*
%TO.P,J1,SH1,SHELL_GND*%
%TO.N,GND*%
X7180000Y-13570000D03*
%TO.P,J1,SH2,SHELL_GND__1*%
X7180000Y-22210000D03*
D11*
%TO.P,J1,SH3,SHELL_GND__2*%
X3000000Y-13570000D03*
%TO.P,J1,SH4,SHELL_GND__3*%
X3000000Y-22210000D03*
%TD*%
D12*
%TO.P,SW2,1,A*%
%TO.N,GND*%
X30700000Y-39800000D03*
X30700000Y-33300000D03*
%TO.P,SW2,2,B*%
%TO.N,/CHIP_PU*%
X35200000Y-39800000D03*
X35200000Y-33300000D03*
%TD*%
%TO.P,SW1,1,A*%
%TO.N,GND*%
X30750000Y-3000000D03*
X37250000Y-3000000D03*
%TO.P,SW1,2,B*%
%TO.N,/GPIO0*%
X30750000Y-7500000D03*
X37250000Y-7500000D03*
%TD*%
D13*
%TO.P,J6,1,Pin_1*%
%TO.N,/MOSI*%
X22170000Y-3500000D03*
D14*
%TO.P,J6,2,Pin_2*%
%TO.N,/CLK*%
X24710000Y-3500000D03*
%TO.P,J6,3,Pin_3*%
%TO.N,/CS*%
X27250000Y-3500000D03*
%TD*%
D13*
%TO.P,J7,1,Pin_1*%
%TO.N,+3.3V*%
X55000000Y-21370000D03*
D14*
%TO.P,J7,2,Pin_2*%
%TO.N,GND*%
X55000000Y-18830000D03*
%TO.P,J7,3,Pin_3*%
%TO.N,/SDA1*%
X55000000Y-16290000D03*
%TO.P,J7,4,Pin_4*%
%TO.N,/SCL1*%
X55000000Y-13750000D03*
%TD*%
D13*
%TO.P,J4,1,Pin_1*%
%TO.N,/OUT1A*%
X55000000Y-39750000D03*
D14*
%TO.P,J4,2,Pin_2*%
%TO.N,/OUT2A*%
X55000000Y-37210000D03*
%TO.P,J4,3,Pin_3*%
%TO.N,/OUT3A*%
X55000000Y-34670000D03*
%TD*%
D13*
%TO.P,J2,1,Pin_1*%
%TO.N,/MISO*%
X22170000Y-38750000D03*
D14*
%TO.P,J2,2,Pin_2*%
%TO.N,/CLK*%
X24710000Y-38750000D03*
%TO.P,J2,3,Pin_3*%
%TO.N,/CS*%
X27250000Y-38750000D03*
%TD*%
D13*
%TO.P,J8,1,Pin_1*%
%TO.N,/OUT1B*%
X55000000Y-30500000D03*
D14*
%TO.P,J8,2,Pin_2*%
%TO.N,/OUT2B*%
X55000000Y-27960000D03*
%TO.P,J8,3,Pin_3*%
%TO.N,/OUT3B*%
X55000000Y-25420000D03*
%TD*%
D13*
%TO.P,J5,1,Pin_1*%
%TO.N,VMOT*%
X4710000Y-11000000D03*
D14*
%TO.P,J5,2,Pin_2*%
%TO.N,+5V*%
X7250000Y-11000000D03*
%TO.P,J5,3,Pin_3*%
%TO.N,GND*%
X9790000Y-11000000D03*
%TD*%
D13*
%TO.P,J3,1,Pin_1*%
%TO.N,+3.3V*%
X55000000Y-9620000D03*
D14*
%TO.P,J3,2,Pin_2*%
%TO.N,GND*%
X55000000Y-7080000D03*
%TO.P,J3,3,Pin_3*%
%TO.N,/SDA2*%
X55000000Y-4540000D03*
%TO.P,J3,4,Pin_4*%
%TO.N,/SCL2*%
X55000000Y-2000000D03*
%TD*%
D15*
%TO.N,GND*%
X51987893Y-35612107D03*
X47400000Y-7800000D03*
X41200735Y-8091215D03*
X41500000Y-1000000D03*
X11002000Y-17626033D03*
X45500000Y-12250000D03*
X49250000Y-37400000D03*
X51600000Y-16200000D03*
X5114013Y-23100000D03*
X38600000Y-35800000D03*
X52150015Y-21670545D03*
X50200000Y-13600000D03*
X51000000Y-15000000D03*
X52200000Y-36400000D03*
X44370000Y-1070000D03*
X11000000Y-26000000D03*
X43968191Y-24500000D03*
X8800000Y-21400000D03*
X15000000Y-12000000D03*
X52250000Y-40210000D03*
X6600000Y-30400000D03*
X40802000Y-32402527D03*
X16000000Y-39500000D03*
X43783564Y-37800402D03*
X19754866Y-23500000D03*
X48250000Y-16900000D03*
X5000000Y-28800000D03*
X52200000Y-22600000D03*
X14750000Y-27750000D03*
X47400000Y-5800000D03*
X41242521Y-19291477D03*
X15250000Y-20250000D03*
X8800000Y-14400000D03*
X10200000Y-20400000D03*
X54000000Y-26420000D03*
X51792893Y-30207107D03*
X19836148Y-16750000D03*
X53184864Y-22764682D03*
X24250000Y-31500000D03*
X48500000Y-30150000D03*
X51600000Y-1200000D03*
X45500000Y-25500000D03*
%TO.N,+3.3V*%
X43600000Y-41400000D03*
X41985345Y-8521037D03*
X46852456Y-15190000D03*
X43500000Y-25250000D03*
X41800000Y-30800000D03*
X53117893Y-39282107D03*
X45407697Y-15187720D03*
X43500000Y-11500000D03*
X53500000Y-23500000D03*
X42350000Y-17599998D03*
D16*
%TO.N,VMOT*%
X48355727Y-25904617D03*
X47500000Y-12250000D03*
X46250000Y-28000000D03*
X46000000Y-39699000D03*
D15*
%TO.N,/GPIO0*%
X37800000Y-12600000D03*
D16*
%TO.N,/OUT3A*%
X48932087Y-31354478D03*
D15*
%TO.N,/RESET*%
X28000000Y-13500000D03*
X44624265Y-15025735D03*
X44568191Y-28590786D03*
D16*
%TO.N,/OUT2A*%
X49390000Y-33568332D03*
%TO.N,/OUT1A*%
X48000000Y-36650000D03*
D15*
%TO.N,/SLEEP*%
X26750000Y-13500000D03*
X42500000Y-16750000D03*
X42500000Y-30250000D03*
D16*
%TO.N,/OUT1B*%
X48000000Y-23150000D03*
%TO.N,/OUT2B*%
X49314654Y-20014605D03*
%TO.N,/OUT3B*%
X49000000Y-17900000D03*
D15*
%TO.N,/MISO*%
X36750000Y-21750000D03*
%TO.N,/D+*%
X4250000Y-27000000D03*
X36250000Y-28500000D03*
%TO.N,/MOSI*%
X22200000Y-7200000D03*
X36748963Y-20949443D03*
%TO.N,/CS*%
X28500000Y-28500000D03*
X22481471Y-11000000D03*
X29000000Y-31600000D03*
%TO.N,/D-*%
X4250000Y-25000000D03*
X35250000Y-28500000D03*
%TO.N,/CLK*%
X30837405Y-13497749D03*
X36334483Y-18994827D03*
X24705000Y-7295000D03*
%TO.N,/EN3B*%
X41204000Y-20650000D03*
X36698439Y-15826482D03*
%TD*%
D17*
%TO.N,+3.3V*%
X42250000Y-10250000D02*
X43500000Y-11500000D01*
X46817456Y-15225000D02*
X45444977Y-15225000D01*
X43600000Y-41400000D02*
X41800000Y-39600000D01*
X41985345Y-8521037D02*
X42250000Y-8785692D01*
X43600000Y-41400000D02*
X50210057Y-41400000D01*
X50210057Y-41400000D02*
X52327950Y-39282107D01*
X41800000Y-39600000D02*
X41800000Y-30800000D01*
D18*
X43500000Y-25250000D02*
X42350000Y-24100000D01*
D17*
X45444977Y-15225000D02*
X45407697Y-15187720D01*
X55000000Y-21370000D02*
X55000000Y-22000000D01*
D18*
X42350000Y-24100000D02*
X42350000Y-17599998D01*
D17*
X46852456Y-15190000D02*
X46817456Y-15225000D01*
X55000000Y-22000000D02*
X53500000Y-23500000D01*
X42250000Y-8785692D02*
X42250000Y-10250000D01*
X52327950Y-39282107D02*
X53117893Y-39282107D01*
D19*
%TO.N,VMOT*%
X47853456Y-15880916D02*
X46000000Y-17734372D01*
X46250000Y-39449000D02*
X46000000Y-39699000D01*
X47500000Y-12250000D02*
X47853456Y-12603456D01*
X9911000Y-5799000D02*
X41049000Y-5799000D01*
X48355727Y-25904617D02*
X48345383Y-25904617D01*
X46000000Y-17734372D02*
X46000000Y-23548890D01*
X46250000Y-28000000D02*
X46250000Y-39449000D01*
X4710000Y-11000000D02*
X9911000Y-5799000D01*
X41049000Y-5799000D02*
X47500000Y-12250000D01*
X46000000Y-23548890D02*
X48355727Y-25904617D01*
X48345383Y-25904617D02*
X46250000Y-28000000D01*
X47853456Y-12603456D02*
X47853456Y-15880916D01*
D17*
%TO.N,/GPIO0*%
X37800000Y-12600000D02*
X37800000Y-11300000D01*
X37250000Y-10750000D02*
X37250000Y-7500000D01*
X37800000Y-11300000D02*
X37250000Y-10750000D01*
%TO.N,/CHIP_PU*%
X35200000Y-33300000D02*
X35200000Y-39800000D01*
D19*
%TO.N,/OUT3A*%
X55000000Y-34670000D02*
X51684478Y-31354478D01*
X51684478Y-31354478D02*
X48932087Y-31354478D01*
D17*
%TO.N,/RESET*%
X44568191Y-15081809D02*
X44568191Y-28590786D01*
X28000000Y-13500000D02*
X29324482Y-14824482D01*
X44423012Y-14824482D02*
X44624265Y-15025735D01*
X29324482Y-14824482D02*
X44423012Y-14824482D01*
X44624265Y-15025735D02*
X44568191Y-15081809D01*
D19*
%TO.N,/OUT2A*%
X55000000Y-37210000D02*
X51358332Y-33568332D01*
X51358332Y-33568332D02*
X49390000Y-33568332D01*
%TO.N,/OUT1A*%
X53532521Y-38281107D02*
X52703265Y-38281107D01*
X48251000Y-36399000D02*
X48000000Y-36650000D01*
X54118893Y-38867479D02*
X53532521Y-38281107D01*
X54118893Y-39696735D02*
X54118893Y-38867479D01*
X50399000Y-36399000D02*
X48251000Y-36399000D01*
X52703265Y-38281107D02*
X52503265Y-38481107D01*
X52481107Y-38481107D02*
X50399000Y-36399000D01*
X54065628Y-39750000D02*
X54118893Y-39696735D01*
X55000000Y-39750000D02*
X54065628Y-39750000D01*
X52503265Y-38481107D02*
X52481107Y-38481107D01*
D17*
%TO.N,/SLEEP*%
X36449496Y-15225482D02*
X36424978Y-15250000D01*
X36971900Y-15250000D02*
X36947382Y-15225482D01*
X28500000Y-15250000D02*
X26750000Y-13500000D01*
X42500000Y-16750000D02*
X41973457Y-16750000D01*
X41750000Y-20346057D02*
X41805000Y-20401057D01*
X36424978Y-15250000D02*
X28500000Y-15250000D01*
X41750000Y-20953943D02*
X41750000Y-29500000D01*
X41750000Y-16973457D02*
X41750000Y-18949013D01*
X41750000Y-18949013D02*
X41843521Y-19042534D01*
X41750000Y-19633941D02*
X41750000Y-20346057D01*
X41750000Y-29500000D02*
X42500000Y-30250000D01*
X42500000Y-16750000D02*
X42473457Y-16723457D01*
X41973457Y-16750000D02*
X41750000Y-16973457D01*
X41843521Y-19540420D02*
X41750000Y-19633941D01*
X41805000Y-20898943D02*
X41750000Y-20953943D01*
X42473457Y-16723457D02*
X38573400Y-16723457D01*
X41805000Y-20401057D02*
X41805000Y-20898943D01*
X38573400Y-16723457D02*
X37099943Y-15250000D01*
X37099943Y-15250000D02*
X36971900Y-15250000D01*
X41843521Y-19042534D02*
X41843521Y-19540420D01*
X36947382Y-15225482D02*
X36449496Y-15225482D01*
D19*
%TO.N,/OUT1B*%
X49556726Y-26402088D02*
X49479407Y-26479407D01*
X49479407Y-26479407D02*
X53500000Y-30500000D01*
X48000000Y-23850420D02*
X49556726Y-25407146D01*
X49556726Y-25407146D02*
X49556726Y-26402088D01*
X53500000Y-30500000D02*
X55000000Y-30500000D01*
X48000000Y-23150000D02*
X48000000Y-23850420D01*
%TO.N,/OUT2B*%
X49314654Y-23314654D02*
X49314654Y-20014605D01*
X55000000Y-27960000D02*
X53960000Y-27960000D01*
X53960000Y-27960000D02*
X49314654Y-23314654D01*
%TO.N,/OUT3B*%
X55000000Y-25420000D02*
X53384098Y-25420000D01*
X50515654Y-19415654D02*
X49000000Y-17900000D01*
X53384098Y-25420000D02*
X50515654Y-22551556D01*
X50515654Y-22551556D02*
X50515654Y-19415654D01*
D17*
%TO.N,/MISO*%
X28982957Y-30200000D02*
X35399000Y-30200000D01*
X22170000Y-38750000D02*
X22170000Y-37012957D01*
X35399000Y-30200000D02*
X36851000Y-28748000D01*
X22170000Y-37012957D02*
X28982957Y-30200000D01*
X36851000Y-21851000D02*
X36750000Y-21750000D01*
X36851000Y-28748000D02*
X36851000Y-21851000D01*
%TO.N,/D+*%
X36250000Y-28500000D02*
X35550000Y-29200000D01*
X8932900Y-30250000D02*
X7500000Y-30250000D01*
X9182900Y-30500000D02*
X8932900Y-30250000D01*
X35550000Y-29200000D02*
X35117100Y-29200000D01*
X35117100Y-29200000D02*
X34917100Y-29400000D01*
X7500000Y-30250000D02*
X4250000Y-27000000D01*
X28025800Y-30500000D02*
X9182900Y-30500000D01*
X34917100Y-29400000D02*
X29125800Y-29400000D01*
X29125800Y-29400000D02*
X28025800Y-30500000D01*
%TO.N,/MOSI*%
X36748963Y-20949443D02*
X33349500Y-20949443D01*
X22200000Y-9799943D02*
X22200000Y-7200000D01*
X33349500Y-20949443D02*
X22200000Y-9799943D01*
%TO.N,/CS*%
X27200000Y-33400000D02*
X29000000Y-31600000D01*
X22481471Y-22481471D02*
X28500000Y-28500000D01*
X22481471Y-11000000D02*
X22481471Y-22481471D01*
X27250000Y-38750000D02*
X27200000Y-38700000D01*
X27200000Y-38700000D02*
X27200000Y-33400000D01*
%TO.N,/D-*%
X27958700Y-30000000D02*
X9250000Y-30000000D01*
X34750000Y-29000000D02*
X28958700Y-29000000D01*
X9250000Y-30000000D02*
X4250000Y-25000000D01*
X35250000Y-28500000D02*
X34750000Y-29000000D01*
X28958700Y-29000000D02*
X27958700Y-30000000D01*
%TO.N,/CLK*%
X37400000Y-21248423D02*
X37349963Y-21198386D01*
X36147963Y-19547963D02*
X36147963Y-19181347D01*
X30837405Y-13427405D02*
X24705000Y-7295000D01*
X30837405Y-13497749D02*
X30837405Y-13427405D01*
X37400000Y-29000000D02*
X37400000Y-22298000D01*
X24710000Y-35040057D02*
X28950057Y-30800000D01*
X24710000Y-38750000D02*
X24710000Y-35040057D01*
X37349963Y-21198386D02*
X37349963Y-20700500D01*
X37351000Y-21501057D02*
X37400000Y-21452057D01*
X37400000Y-21452057D02*
X37400000Y-21248423D01*
X35600000Y-30800000D02*
X37400000Y-29000000D01*
X36900463Y-20251000D02*
X36851000Y-20251000D01*
X24705000Y-7295000D02*
X24660000Y-7250000D01*
X37351000Y-22249000D02*
X37351000Y-21501057D01*
X28950057Y-30800000D02*
X35600000Y-30800000D01*
X36147963Y-19181347D02*
X36334483Y-18994827D01*
X37349963Y-20700500D02*
X36900463Y-20251000D01*
X37400000Y-22298000D02*
X37351000Y-22249000D01*
X36851000Y-20251000D02*
X36147963Y-19547963D01*
%TO.N,/EN3B*%
X36826482Y-15826482D02*
X41204000Y-20204000D01*
X41204000Y-20204000D02*
X41204000Y-20650000D01*
X36698439Y-15826482D02*
X36826482Y-15826482D01*
%TD*%
%TA.AperFunction,Conductor*%
%TO.N,GND*%
G36*
X59192539Y-20185D02*
G01*
X59238294Y-72989D01*
X59249500Y-124500D01*
X59249500Y-41875500D01*
X59229815Y-41942539D01*
X59177011Y-41988294D01*
X59125500Y-41999500D01*
X44078386Y-41999500D01*
X44057140Y-41993261D01*
X44035052Y-41991682D01*
X44024268Y-41983609D01*
X44011347Y-41979815D01*
X43996847Y-41963081D01*
X43979119Y-41949810D01*
X43974411Y-41937189D01*
X43965592Y-41927011D01*
X43962440Y-41905093D01*
X43954702Y-41884346D01*
X43957564Y-41871185D01*
X43955648Y-41857853D01*
X43964847Y-41837709D01*
X43969554Y-41816073D01*
X43982822Y-41798347D01*
X43984673Y-41794297D01*
X43990705Y-41787819D01*
X43991705Y-41786819D01*
X44053028Y-41753334D01*
X44079386Y-41750500D01*
X50256199Y-41750500D01*
X50256201Y-41750500D01*
X50345345Y-41726614D01*
X50355969Y-41720480D01*
X50425269Y-41680470D01*
X52436813Y-39668926D01*
X52463740Y-39654222D01*
X52489559Y-39637630D01*
X52495759Y-39636738D01*
X52498136Y-39635441D01*
X52524494Y-39632607D01*
X52638507Y-39632607D01*
X52705546Y-39652292D01*
X52726188Y-39668926D01*
X52779878Y-39722616D01*
X52779879Y-39722617D01*
X52779881Y-39722618D01*
X52905404Y-39795089D01*
X52905405Y-39795089D01*
X52905408Y-39795091D01*
X53045418Y-39832607D01*
X53045421Y-39832607D01*
X53190367Y-39832607D01*
X53190368Y-39832607D01*
X53190368Y-39832606D01*
X53198425Y-39831546D01*
X53198901Y-39835165D01*
X53251897Y-39836191D01*
X53309933Y-39875095D01*
X53336284Y-39930277D01*
X53343968Y-39968908D01*
X53343971Y-39968917D01*
X53400542Y-40105492D01*
X53429946Y-40149498D01*
X53429947Y-40149501D01*
X53482674Y-40228414D01*
X53482675Y-40228415D01*
X53482676Y-40228416D01*
X53587212Y-40332952D01*
X53660898Y-40382186D01*
X53710133Y-40415084D01*
X53826863Y-40463435D01*
X53830636Y-40465308D01*
X53853308Y-40486276D01*
X53877356Y-40505655D01*
X53878732Y-40509790D01*
X53881931Y-40512749D01*
X53889666Y-40542642D01*
X53899421Y-40571949D01*
X53899500Y-40576376D01*
X53899500Y-40624678D01*
X53914032Y-40697735D01*
X53914033Y-40697739D01*
X53914034Y-40697740D01*
X53969399Y-40780601D01*
X54043054Y-40829815D01*
X54052260Y-40835966D01*
X54052264Y-40835967D01*
X54125321Y-40850499D01*
X54125324Y-40850500D01*
X54125326Y-40850500D01*
X55874676Y-40850500D01*
X55874677Y-40850499D01*
X55947740Y-40835966D01*
X56030601Y-40780601D01*
X56085966Y-40697740D01*
X56100500Y-40624674D01*
X56100500Y-38875326D01*
X56100500Y-38875323D01*
X56100499Y-38875321D01*
X56085967Y-38802264D01*
X56085966Y-38802260D01*
X56055270Y-38756320D01*
X56030601Y-38719399D01*
X55947740Y-38664034D01*
X55947739Y-38664033D01*
X55947735Y-38664032D01*
X55874677Y-38649500D01*
X55874674Y-38649500D01*
X54923792Y-38649500D01*
X54907559Y-38644733D01*
X54890643Y-38644987D01*
X54874729Y-38635093D01*
X54856753Y-38629815D01*
X54845302Y-38616798D01*
X54831306Y-38608097D01*
X54815475Y-38582893D01*
X54811782Y-38578695D01*
X54810432Y-38575853D01*
X54783977Y-38511984D01*
X54770573Y-38491923D01*
X54766689Y-38483745D01*
X54762564Y-38457818D01*
X54754719Y-38432762D01*
X54757161Y-38423859D01*
X54755711Y-38414743D01*
X54766257Y-38390701D01*
X54773204Y-38365382D01*
X54780071Y-38359213D01*
X54783780Y-38350760D01*
X54805652Y-38336235D01*
X54825184Y-38318692D01*
X54834295Y-38317215D01*
X54841986Y-38312109D01*
X54868238Y-38311715D01*
X54894154Y-38307517D01*
X54897994Y-38308061D01*
X54913389Y-38310500D01*
X54913396Y-38310500D01*
X55086610Y-38310500D01*
X55086611Y-38310500D01*
X55257701Y-38283402D01*
X55422445Y-38229873D01*
X55576788Y-38151232D01*
X55716928Y-38049414D01*
X55839414Y-37926928D01*
X55941232Y-37786788D01*
X56019873Y-37632445D01*
X56073402Y-37467701D01*
X56100500Y-37296611D01*
X56100500Y-37123389D01*
X56073402Y-36952299D01*
X56019873Y-36787555D01*
X55941232Y-36633212D01*
X55839414Y-36493072D01*
X55716928Y-36370586D01*
X55576788Y-36268768D01*
X55422445Y-36190127D01*
X55257701Y-36136598D01*
X55257699Y-36136597D01*
X55257698Y-36136597D01*
X55126271Y-36115781D01*
X55086611Y-36109500D01*
X55086610Y-36109500D01*
X55012229Y-36109500D01*
X54982788Y-36100855D01*
X54952802Y-36094332D01*
X54947786Y-36090577D01*
X54945190Y-36089815D01*
X54924548Y-36073181D01*
X54833548Y-35982181D01*
X54800063Y-35920858D01*
X54805047Y-35851166D01*
X54846919Y-35795233D01*
X54912383Y-35770816D01*
X54921229Y-35770500D01*
X55086610Y-35770500D01*
X55086611Y-35770500D01*
X55257701Y-35743402D01*
X55422445Y-35689873D01*
X55576788Y-35611232D01*
X55716928Y-35509414D01*
X55839414Y-35386928D01*
X55941232Y-35246788D01*
X56019873Y-35092445D01*
X56073402Y-34927701D01*
X56100500Y-34756611D01*
X56100500Y-34583389D01*
X56073402Y-34412299D01*
X56019873Y-34247555D01*
X55941232Y-34093212D01*
X55839414Y-33953072D01*
X55716928Y-33830586D01*
X55576788Y-33728768D01*
X55422445Y-33650127D01*
X55257701Y-33596598D01*
X55257699Y-33596597D01*
X55257698Y-33596597D01*
X55117769Y-33574435D01*
X55086611Y-33569500D01*
X55086610Y-33569500D01*
X55012229Y-33569500D01*
X54945190Y-33549815D01*
X54924548Y-33533181D01*
X53544701Y-32153334D01*
X52162894Y-30771526D01*
X52078612Y-30715212D01*
X52078610Y-30715211D01*
X52078610Y-30715210D01*
X52039970Y-30689392D01*
X52039968Y-30689391D01*
X51903395Y-30632821D01*
X51903385Y-30632818D01*
X51758398Y-30603978D01*
X51758396Y-30603978D01*
X48858169Y-30603978D01*
X48858167Y-30603978D01*
X48713179Y-30632818D01*
X48713169Y-30632821D01*
X48576598Y-30689390D01*
X48576585Y-30689397D01*
X48453671Y-30771526D01*
X48453667Y-30771529D01*
X48349138Y-30876058D01*
X48349135Y-30876062D01*
X48267006Y-30998976D01*
X48266999Y-30998989D01*
X48210430Y-31135560D01*
X48210427Y-31135570D01*
X48181587Y-31280557D01*
X48181587Y-31280560D01*
X48181587Y-31428396D01*
X48181587Y-31428398D01*
X48181586Y-31428398D01*
X48210427Y-31573385D01*
X48210430Y-31573395D01*
X48266999Y-31709966D01*
X48267006Y-31709979D01*
X48349135Y-31832893D01*
X48349138Y-31832897D01*
X48453667Y-31937426D01*
X48453671Y-31937429D01*
X48576585Y-32019558D01*
X48576598Y-32019565D01*
X48713169Y-32076134D01*
X48713174Y-32076136D01*
X48713178Y-32076136D01*
X48713179Y-32076137D01*
X48858166Y-32104978D01*
X48858169Y-32104978D01*
X51322248Y-32104978D01*
X51389287Y-32124663D01*
X51409929Y-32141297D01*
X53863181Y-34594548D01*
X53877884Y-34621475D01*
X53894477Y-34647294D01*
X53895368Y-34653494D01*
X53896666Y-34655871D01*
X53899500Y-34682229D01*
X53899500Y-34748770D01*
X53879815Y-34815809D01*
X53827011Y-34861564D01*
X53757853Y-34871508D01*
X53694297Y-34842483D01*
X53687819Y-34836451D01*
X51836753Y-32985384D01*
X51836746Y-32985378D01*
X51763061Y-32936144D01*
X51763061Y-32936145D01*
X51713823Y-32903245D01*
X51577249Y-32846675D01*
X51577239Y-32846672D01*
X51432252Y-32817832D01*
X51432250Y-32817832D01*
X49316082Y-32817832D01*
X49316080Y-32817832D01*
X49171092Y-32846672D01*
X49171082Y-32846675D01*
X49034511Y-32903244D01*
X49034498Y-32903251D01*
X48911584Y-32985380D01*
X48911580Y-32985383D01*
X48807051Y-33089912D01*
X48807048Y-33089916D01*
X48724919Y-33212830D01*
X48724912Y-33212843D01*
X48668343Y-33349414D01*
X48668340Y-33349424D01*
X48639500Y-33494411D01*
X48639500Y-33494414D01*
X48639500Y-33642250D01*
X48639500Y-33642252D01*
X48639499Y-33642252D01*
X48668340Y-33787239D01*
X48668343Y-33787249D01*
X48724912Y-33923820D01*
X48724919Y-33923833D01*
X48807048Y-34046747D01*
X48807051Y-34046751D01*
X48911580Y-34151280D01*
X48911584Y-34151283D01*
X49034498Y-34233412D01*
X49034511Y-34233419D01*
X49171082Y-34289988D01*
X49171087Y-34289990D01*
X49171091Y-34289990D01*
X49171092Y-34289991D01*
X49316079Y-34318832D01*
X49316082Y-34318832D01*
X50996102Y-34318832D01*
X51063141Y-34338517D01*
X51083783Y-34355151D01*
X53863181Y-37134548D01*
X53875080Y-37156340D01*
X53890486Y-37175816D01*
X53893119Y-37189376D01*
X53896666Y-37195871D01*
X53898905Y-37210091D01*
X53899500Y-37216140D01*
X53899500Y-37296611D01*
X53920383Y-37428465D01*
X53920742Y-37432108D01*
X53914880Y-37462991D01*
X53910855Y-37494142D01*
X53908419Y-37497035D01*
X53907714Y-37500753D01*
X53886094Y-37523556D01*
X53865859Y-37547594D01*
X53862243Y-37548711D01*
X53859642Y-37551456D01*
X53829128Y-37558950D01*
X53799107Y-37568233D01*
X53794740Y-37567396D01*
X53791789Y-37568122D01*
X53783270Y-37565200D01*
X53757546Y-37560275D01*
X53757261Y-37561217D01*
X53751428Y-37559447D01*
X53606441Y-37530607D01*
X53606439Y-37530607D01*
X52643337Y-37530607D01*
X52576298Y-37510922D01*
X52555656Y-37494288D01*
X50877421Y-35816052D01*
X50877414Y-35816046D01*
X50803729Y-35766812D01*
X50803729Y-35766813D01*
X50754491Y-35733913D01*
X50617917Y-35677343D01*
X50617907Y-35677340D01*
X50472920Y-35648500D01*
X50472918Y-35648500D01*
X48177082Y-35648500D01*
X48177076Y-35648500D01*
X48148242Y-35654234D01*
X48148243Y-35654235D01*
X48032092Y-35677339D01*
X48032086Y-35677341D01*
X48006107Y-35688102D01*
X48006095Y-35688107D01*
X48001834Y-35689873D01*
X47895505Y-35733916D01*
X47840753Y-35770500D01*
X47834470Y-35774697D01*
X47834466Y-35774700D01*
X47772582Y-35816049D01*
X47772579Y-35816052D01*
X47417052Y-36171578D01*
X47417052Y-36171579D01*
X47417049Y-36171582D01*
X47417048Y-36171584D01*
X47404658Y-36190128D01*
X47334918Y-36294502D01*
X47334914Y-36294509D01*
X47278342Y-36431087D01*
X47278340Y-36431093D01*
X47249500Y-36576080D01*
X47249500Y-36576083D01*
X47249500Y-36723917D01*
X47249500Y-36723919D01*
X47249499Y-36723919D01*
X47278340Y-36868906D01*
X47278342Y-36868912D01*
X47334916Y-37005494D01*
X47417048Y-37128416D01*
X47417052Y-37128420D01*
X47417052Y-37128421D01*
X47521578Y-37232947D01*
X47521581Y-37232949D01*
X47521584Y-37232952D01*
X47644506Y-37315084D01*
X47781088Y-37371658D01*
X47781092Y-37371658D01*
X47781093Y-37371659D01*
X47926080Y-37400500D01*
X47926083Y-37400500D01*
X48073919Y-37400500D01*
X48171461Y-37381096D01*
X48218912Y-37371658D01*
X48355494Y-37315084D01*
X48478416Y-37232952D01*
X48525548Y-37185820D01*
X48586871Y-37152334D01*
X48613230Y-37149500D01*
X50036770Y-37149500D01*
X50103809Y-37169185D01*
X50124451Y-37185819D01*
X51938822Y-39000190D01*
X51972307Y-39061513D01*
X51967323Y-39131205D01*
X51938822Y-39175552D01*
X50101194Y-41013181D01*
X50039871Y-41046666D01*
X50013513Y-41049500D01*
X44079386Y-41049500D01*
X44012347Y-41029815D01*
X43991705Y-41013181D01*
X43938017Y-40959493D01*
X43938011Y-40959488D01*
X43812488Y-40887017D01*
X43812489Y-40887017D01*
X43801006Y-40883940D01*
X43672475Y-40849500D01*
X43672472Y-40849500D01*
X43596543Y-40849500D01*
X43529504Y-40829815D01*
X43508862Y-40813181D01*
X42186819Y-39491137D01*
X42153334Y-39429814D01*
X42150500Y-39403456D01*
X42150500Y-31279386D01*
X42170185Y-31212347D01*
X42186819Y-31191705D01*
X42213444Y-31165080D01*
X42240509Y-31138015D01*
X42312984Y-31012485D01*
X42345159Y-30892404D01*
X42381524Y-30832746D01*
X42444372Y-30802217D01*
X42464934Y-30800500D01*
X42572472Y-30800500D01*
X42572475Y-30800500D01*
X42712485Y-30762984D01*
X42838015Y-30690509D01*
X42940509Y-30588015D01*
X43012984Y-30462485D01*
X43050500Y-30322475D01*
X43050500Y-30177525D01*
X43012984Y-30037515D01*
X42940509Y-29911985D01*
X42838015Y-29809491D01*
X42838013Y-29809490D01*
X42838011Y-29809488D01*
X42712488Y-29737017D01*
X42712489Y-29737017D01*
X42701006Y-29733940D01*
X42572475Y-29699500D01*
X42572472Y-29699500D01*
X42496544Y-29699500D01*
X42429505Y-29679815D01*
X42408863Y-29663181D01*
X42136819Y-29391137D01*
X42103334Y-29329814D01*
X42100500Y-29303456D01*
X42100500Y-24680899D01*
X42120185Y-24613860D01*
X42172989Y-24568105D01*
X42242147Y-24558161D01*
X42305703Y-24587186D01*
X42312181Y-24593218D01*
X42913181Y-25194218D01*
X42946666Y-25255541D01*
X42949500Y-25281899D01*
X42949500Y-25322475D01*
X42981128Y-25440511D01*
X42987017Y-25462488D01*
X43059488Y-25588011D01*
X43059490Y-25588013D01*
X43059491Y-25588015D01*
X43161985Y-25690509D01*
X43161986Y-25690510D01*
X43161988Y-25690511D01*
X43287511Y-25762982D01*
X43287512Y-25762982D01*
X43287515Y-25762984D01*
X43427525Y-25800500D01*
X43427528Y-25800500D01*
X43572472Y-25800500D01*
X43572475Y-25800500D01*
X43712485Y-25762984D01*
X43838015Y-25690509D01*
X43940509Y-25588015D01*
X43986304Y-25508696D01*
X44036871Y-25460480D01*
X44105478Y-25447258D01*
X44170343Y-25473226D01*
X44210871Y-25530140D01*
X44217691Y-25570696D01*
X44217691Y-28111400D01*
X44198006Y-28178439D01*
X44181372Y-28199081D01*
X44127684Y-28252768D01*
X44127679Y-28252774D01*
X44055208Y-28378297D01*
X44055207Y-28378301D01*
X44017691Y-28518311D01*
X44017691Y-28663261D01*
X44040081Y-28746819D01*
X44055208Y-28803274D01*
X44127679Y-28928797D01*
X44127681Y-28928799D01*
X44127682Y-28928801D01*
X44230176Y-29031295D01*
X44230177Y-29031296D01*
X44230179Y-29031297D01*
X44355702Y-29103768D01*
X44355703Y-29103768D01*
X44355706Y-29103770D01*
X44495716Y-29141286D01*
X44495719Y-29141286D01*
X44640663Y-29141286D01*
X44640666Y-29141286D01*
X44780676Y-29103770D01*
X44906206Y-29031295D01*
X45008700Y-28928801D01*
X45081175Y-28803271D01*
X45118691Y-28663261D01*
X45118691Y-28518311D01*
X45081175Y-28378301D01*
X45042242Y-28310868D01*
X45008702Y-28252774D01*
X45008697Y-28252768D01*
X44955010Y-28199081D01*
X44921525Y-28137758D01*
X44918691Y-28111400D01*
X44918691Y-15755828D01*
X44938376Y-15688789D01*
X44991180Y-15643034D01*
X45060338Y-15633090D01*
X45104687Y-15648439D01*
X45195212Y-15700704D01*
X45335222Y-15738220D01*
X45335225Y-15738220D01*
X45480169Y-15738220D01*
X45480172Y-15738220D01*
X45620182Y-15700704D01*
X45745712Y-15628229D01*
X45762122Y-15611819D01*
X45823445Y-15578334D01*
X45849803Y-15575500D01*
X46408070Y-15575500D01*
X46475109Y-15595185D01*
X46495751Y-15611819D01*
X46514441Y-15630509D01*
X46514442Y-15630510D01*
X46514444Y-15630511D01*
X46639967Y-15702982D01*
X46639968Y-15702982D01*
X46639971Y-15702984D01*
X46692818Y-15717144D01*
X46752476Y-15753507D01*
X46783006Y-15816354D01*
X46774712Y-15885730D01*
X46748404Y-15924599D01*
X45417045Y-17255958D01*
X45381025Y-17309870D01*
X45381023Y-17309873D01*
X45334919Y-17378871D01*
X45334912Y-17378883D01*
X45278343Y-17515454D01*
X45278340Y-17515464D01*
X45249500Y-17660451D01*
X45249500Y-17660454D01*
X45249500Y-23622808D01*
X45249500Y-23622810D01*
X45249499Y-23622810D01*
X45278340Y-23767797D01*
X45278343Y-23767807D01*
X45330242Y-23893101D01*
X45334916Y-23904385D01*
X45344988Y-23919459D01*
X45359052Y-23940508D01*
X45417049Y-24027308D01*
X45417052Y-24027311D01*
X47201505Y-25811763D01*
X47234990Y-25873086D01*
X47230006Y-25942778D01*
X47201505Y-25987125D01*
X45667049Y-27521581D01*
X45627881Y-27580200D01*
X45627882Y-27580201D01*
X45584914Y-27644508D01*
X45528343Y-27781082D01*
X45528340Y-27781092D01*
X45499500Y-27926079D01*
X45499500Y-39086769D01*
X45479815Y-39153808D01*
X45463181Y-39174450D01*
X45417052Y-39220578D01*
X45417052Y-39220579D01*
X45417049Y-39220582D01*
X45417048Y-39220584D01*
X45376400Y-39281418D01*
X45334918Y-39343502D01*
X45334914Y-39343509D01*
X45278342Y-39480087D01*
X45278340Y-39480093D01*
X45249500Y-39625080D01*
X45249500Y-39625083D01*
X45249500Y-39772917D01*
X45249500Y-39772919D01*
X45249499Y-39772919D01*
X45278340Y-39917906D01*
X45278342Y-39917912D01*
X45334916Y-40054494D01*
X45417048Y-40177416D01*
X45417052Y-40177420D01*
X45417052Y-40177421D01*
X45521578Y-40281947D01*
X45521581Y-40281949D01*
X45521584Y-40281952D01*
X45644506Y-40364084D01*
X45781088Y-40420658D01*
X45781092Y-40420658D01*
X45781093Y-40420659D01*
X45926080Y-40449500D01*
X45926083Y-40449500D01*
X46073919Y-40449500D01*
X46171461Y-40430096D01*
X46218912Y-40420658D01*
X46355494Y-40364084D01*
X46478416Y-40281952D01*
X46832951Y-39927416D01*
X46915084Y-39804495D01*
X46916946Y-39800001D01*
X46929426Y-39769871D01*
X46971658Y-39667913D01*
X46987273Y-39589414D01*
X47000500Y-39522920D01*
X47000500Y-28362229D01*
X47020185Y-28295190D01*
X47036814Y-28274553D01*
X48584143Y-26727223D01*
X48645466Y-26693739D01*
X48715158Y-26698723D01*
X48771091Y-26740595D01*
X48786384Y-26767450D01*
X48814323Y-26834901D01*
X48896455Y-26957823D01*
X48896458Y-26957826D01*
X48896459Y-26957827D01*
X48896459Y-26957828D01*
X52917049Y-30978416D01*
X52994336Y-31055703D01*
X53021585Y-31082952D01*
X53144498Y-31165080D01*
X53144511Y-31165087D01*
X53258608Y-31212347D01*
X53281087Y-31221658D01*
X53281091Y-31221658D01*
X53281092Y-31221659D01*
X53426079Y-31250500D01*
X53426082Y-31250500D01*
X53775500Y-31250500D01*
X53842539Y-31270185D01*
X53888294Y-31322989D01*
X53898233Y-31368679D01*
X53898903Y-31368614D01*
X53899468Y-31374354D01*
X53899500Y-31374500D01*
X53899500Y-31374678D01*
X53914032Y-31447735D01*
X53914033Y-31447739D01*
X53914034Y-31447740D01*
X53969399Y-31530601D01*
X54033431Y-31573385D01*
X54052260Y-31585966D01*
X54052264Y-31585967D01*
X54125321Y-31600499D01*
X54125324Y-31600500D01*
X54125326Y-31600500D01*
X55874676Y-31600500D01*
X55874677Y-31600499D01*
X55947740Y-31585966D01*
X56030601Y-31530601D01*
X56085966Y-31447740D01*
X56100500Y-31374674D01*
X56100500Y-29625326D01*
X56100500Y-29625323D01*
X56100499Y-29625321D01*
X56085967Y-29552264D01*
X56085966Y-29552260D01*
X56081879Y-29546143D01*
X56030601Y-29469399D01*
X55947740Y-29414034D01*
X55947739Y-29414033D01*
X55947735Y-29414032D01*
X55874677Y-29399500D01*
X55874674Y-29399500D01*
X54125326Y-29399500D01*
X54125323Y-29399500D01*
X54052264Y-29414032D01*
X54052260Y-29414033D01*
X53969399Y-29469399D01*
X53914033Y-29552260D01*
X53914032Y-29552263D01*
X53909451Y-29575296D01*
X53877066Y-29637207D01*
X53816350Y-29671781D01*
X53746580Y-29668040D01*
X53700153Y-29638785D01*
X50343545Y-26282177D01*
X50310060Y-26220854D01*
X50307226Y-26194496D01*
X50307226Y-25667955D01*
X50326911Y-25600916D01*
X50379715Y-25555161D01*
X50448873Y-25545217D01*
X50512429Y-25574242D01*
X50518907Y-25580274D01*
X53481580Y-28542948D01*
X53481584Y-28542951D01*
X53604498Y-28625080D01*
X53604511Y-28625087D01*
X53741082Y-28681656D01*
X53741087Y-28681658D01*
X53741091Y-28681658D01*
X53741092Y-28681659D01*
X53886079Y-28710500D01*
X53886082Y-28710500D01*
X54033917Y-28710500D01*
X54142796Y-28710500D01*
X54209835Y-28730185D01*
X54230477Y-28746819D01*
X54283072Y-28799414D01*
X54423212Y-28901232D01*
X54577555Y-28979873D01*
X54742299Y-29033402D01*
X54913389Y-29060500D01*
X54913390Y-29060500D01*
X55086610Y-29060500D01*
X55086611Y-29060500D01*
X55257701Y-29033402D01*
X55422445Y-28979873D01*
X55576788Y-28901232D01*
X55716928Y-28799414D01*
X55839414Y-28676928D01*
X55941232Y-28536788D01*
X56019873Y-28382445D01*
X56073402Y-28217701D01*
X56100500Y-28046611D01*
X56100500Y-27873389D01*
X56073402Y-27702299D01*
X56019873Y-27537555D01*
X55941232Y-27383212D01*
X55839414Y-27243072D01*
X55716928Y-27120586D01*
X55576788Y-27018768D01*
X55546736Y-27003456D01*
X55422447Y-26940128D01*
X55422446Y-26940127D01*
X55422445Y-26940127D01*
X55257701Y-26886598D01*
X55257699Y-26886597D01*
X55257698Y-26886597D01*
X55126271Y-26865781D01*
X55086611Y-26859500D01*
X54913389Y-26859500D01*
X54873728Y-26865781D01*
X54742302Y-26886597D01*
X54577552Y-26940128D01*
X54423207Y-27018770D01*
X54310183Y-27100887D01*
X54244377Y-27124367D01*
X54176323Y-27108541D01*
X54149617Y-27088250D01*
X53443548Y-26382181D01*
X53410063Y-26320858D01*
X53415047Y-26251166D01*
X53456919Y-26195233D01*
X53522383Y-26170816D01*
X53531229Y-26170500D01*
X54142796Y-26170500D01*
X54209835Y-26190185D01*
X54230477Y-26206819D01*
X54283072Y-26259414D01*
X54423212Y-26361232D01*
X54577555Y-26439873D01*
X54742299Y-26493402D01*
X54913389Y-26520500D01*
X54913390Y-26520500D01*
X55086610Y-26520500D01*
X55086611Y-26520500D01*
X55257701Y-26493402D01*
X55422445Y-26439873D01*
X55576788Y-26361232D01*
X55716928Y-26259414D01*
X55839414Y-26136928D01*
X55941232Y-25996788D01*
X56019873Y-25842445D01*
X56073402Y-25677701D01*
X56100500Y-25506611D01*
X56100500Y-25333389D01*
X56073402Y-25162299D01*
X56019873Y-24997555D01*
X55941232Y-24843212D01*
X55839414Y-24703072D01*
X55716928Y-24580586D01*
X55576788Y-24478768D01*
X55422445Y-24400127D01*
X55257701Y-24346598D01*
X55257699Y-24346597D01*
X55257698Y-24346597D01*
X55126271Y-24325781D01*
X55086611Y-24319500D01*
X54913389Y-24319500D01*
X54873728Y-24325781D01*
X54742302Y-24346597D01*
X54577552Y-24400128D01*
X54423211Y-24478768D01*
X54343256Y-24536859D01*
X54283072Y-24580586D01*
X54283070Y-24580588D01*
X54283069Y-24580588D01*
X54230477Y-24633181D01*
X54169154Y-24666666D01*
X54142796Y-24669500D01*
X53746327Y-24669500D01*
X53679288Y-24649815D01*
X53658646Y-24633181D01*
X53274515Y-24249049D01*
X53241030Y-24187726D01*
X53246014Y-24118034D01*
X53287886Y-24062101D01*
X53353350Y-24037684D01*
X53394285Y-24041593D01*
X53427525Y-24050500D01*
X53427527Y-24050500D01*
X53572472Y-24050500D01*
X53572475Y-24050500D01*
X53712485Y-24012984D01*
X53838015Y-23940509D01*
X53940509Y-23838015D01*
X54012984Y-23712485D01*
X54050500Y-23572475D01*
X54050500Y-23496543D01*
X54070185Y-23429504D01*
X54086819Y-23408862D01*
X54988862Y-22506819D01*
X55050185Y-22473334D01*
X55076543Y-22470500D01*
X55874676Y-22470500D01*
X55874677Y-22470499D01*
X55947740Y-22455966D01*
X56030601Y-22400601D01*
X56085966Y-22317740D01*
X56100500Y-22244674D01*
X56100500Y-20495326D01*
X56100500Y-20495323D01*
X56100499Y-20495321D01*
X56085967Y-20422264D01*
X56085966Y-20422260D01*
X56066019Y-20392407D01*
X56030601Y-20339399D01*
X55947740Y-20284034D01*
X55947739Y-20284033D01*
X55947735Y-20284032D01*
X55874677Y-20269500D01*
X55874674Y-20269500D01*
X54125326Y-20269500D01*
X54125323Y-20269500D01*
X54052264Y-20284032D01*
X54052260Y-20284033D01*
X53969399Y-20339399D01*
X53914033Y-20422260D01*
X53914032Y-20422264D01*
X53899500Y-20495321D01*
X53899500Y-22244678D01*
X53914032Y-22317735D01*
X53914035Y-22317743D01*
X53966662Y-22396505D01*
X53987540Y-22463182D01*
X53969055Y-22530562D01*
X53951241Y-22553076D01*
X53591137Y-22913181D01*
X53529814Y-22946666D01*
X53503456Y-22949500D01*
X53427525Y-22949500D01*
X53298993Y-22983940D01*
X53287511Y-22987017D01*
X53161988Y-23059488D01*
X53161982Y-23059493D01*
X53059493Y-23161982D01*
X53059488Y-23161988D01*
X52987017Y-23287511D01*
X52987016Y-23287515D01*
X52949500Y-23427525D01*
X52949500Y-23427527D01*
X52949500Y-23572476D01*
X52958405Y-23605711D01*
X52956741Y-23675561D01*
X52917578Y-23733423D01*
X52853349Y-23760926D01*
X52784447Y-23749339D01*
X52750949Y-23725484D01*
X52470646Y-23445181D01*
X51302473Y-22277007D01*
X51268988Y-22215684D01*
X51266154Y-22189326D01*
X51266154Y-19341733D01*
X51237313Y-19196746D01*
X51237312Y-19196745D01*
X51237312Y-19196741D01*
X51231791Y-19183411D01*
X51180741Y-19060165D01*
X51180734Y-19060152D01*
X51098606Y-18937239D01*
X51057193Y-18895826D01*
X50994070Y-18832703D01*
X50904795Y-18743428D01*
X53900000Y-18743428D01*
X53900000Y-18916571D01*
X53927085Y-19087584D01*
X53980592Y-19252259D01*
X54059196Y-19406525D01*
X54063709Y-19412736D01*
X54063709Y-19412737D01*
X54517037Y-18959409D01*
X54534075Y-19022993D01*
X54599901Y-19137007D01*
X54692993Y-19230099D01*
X54807007Y-19295925D01*
X54870589Y-19312962D01*
X54417261Y-19766289D01*
X54417262Y-19766290D01*
X54423471Y-19770801D01*
X54577742Y-19849408D01*
X54742415Y-19902914D01*
X54913429Y-19930000D01*
X55086571Y-19930000D01*
X55257584Y-19902914D01*
X55422257Y-19849408D01*
X55576525Y-19770803D01*
X55582736Y-19766289D01*
X55582737Y-19766289D01*
X55129410Y-19312962D01*
X55192993Y-19295925D01*
X55307007Y-19230099D01*
X55400099Y-19137007D01*
X55465925Y-19022993D01*
X55482962Y-18959409D01*
X55936289Y-19412736D01*
X55940803Y-19406525D01*
X56019408Y-19252257D01*
X56072914Y-19087584D01*
X56100000Y-18916571D01*
X56100000Y-18743428D01*
X56072914Y-18572415D01*
X56019408Y-18407742D01*
X55940801Y-18253471D01*
X55936290Y-18247262D01*
X55936289Y-18247261D01*
X55482962Y-18700589D01*
X55465925Y-18637007D01*
X55400099Y-18522993D01*
X55307007Y-18429901D01*
X55192993Y-18364075D01*
X55129409Y-18347037D01*
X55582737Y-17893709D01*
X55576525Y-17889196D01*
X55422259Y-17810592D01*
X55257584Y-17757085D01*
X55086571Y-17730000D01*
X54913429Y-17730000D01*
X54742415Y-17757085D01*
X54577740Y-17810592D01*
X54423480Y-17889193D01*
X54423463Y-17889203D01*
X54417261Y-17893708D01*
X54417261Y-17893709D01*
X54870590Y-18347037D01*
X54807007Y-18364075D01*
X54692993Y-18429901D01*
X54599901Y-18522993D01*
X54534075Y-18637007D01*
X54517037Y-18700590D01*
X54063709Y-18247261D01*
X54063708Y-18247261D01*
X54059203Y-18253463D01*
X54059193Y-18253480D01*
X53980592Y-18407740D01*
X53927085Y-18572415D01*
X53900000Y-18743428D01*
X50904795Y-18743428D01*
X50591268Y-18429901D01*
X50190015Y-18028647D01*
X49478421Y-17317052D01*
X49478417Y-17317049D01*
X49478416Y-17317048D01*
X49355494Y-17234916D01*
X49355492Y-17234915D01*
X49355490Y-17234914D01*
X49218912Y-17178342D01*
X49218906Y-17178340D01*
X49073919Y-17149500D01*
X49073917Y-17149500D01*
X48926083Y-17149500D01*
X48926081Y-17149500D01*
X48781093Y-17178340D01*
X48781087Y-17178342D01*
X48644509Y-17234914D01*
X48644502Y-17234918D01*
X48605035Y-17261289D01*
X48521584Y-17317048D01*
X48521582Y-17317049D01*
X48521579Y-17317052D01*
X48521578Y-17317052D01*
X48417052Y-17421578D01*
X48417052Y-17421579D01*
X48417049Y-17421582D01*
X48417048Y-17421584D01*
X48376400Y-17482418D01*
X48334918Y-17544502D01*
X48334914Y-17544509D01*
X48278342Y-17681087D01*
X48278340Y-17681093D01*
X48249500Y-17826080D01*
X48249500Y-17826083D01*
X48249500Y-17973917D01*
X48249500Y-17973919D01*
X48249499Y-17973919D01*
X48278340Y-18118906D01*
X48278342Y-18118912D01*
X48334081Y-18253480D01*
X48334916Y-18255494D01*
X48417048Y-18378416D01*
X48417051Y-18378419D01*
X48417052Y-18378420D01*
X48417052Y-18378421D01*
X49131280Y-19092647D01*
X49164765Y-19153970D01*
X49159781Y-19223661D01*
X49117910Y-19279595D01*
X49091052Y-19294889D01*
X48959161Y-19349519D01*
X48959152Y-19349524D01*
X48836238Y-19431653D01*
X48836234Y-19431656D01*
X48731705Y-19536185D01*
X48731702Y-19536189D01*
X48649573Y-19659103D01*
X48649566Y-19659116D01*
X48592997Y-19795687D01*
X48592994Y-19795697D01*
X48564154Y-19940684D01*
X48564154Y-22392349D01*
X48544469Y-22459388D01*
X48491665Y-22505143D01*
X48422507Y-22515087D01*
X48371264Y-22495452D01*
X48355499Y-22484918D01*
X48355488Y-22484912D01*
X48218917Y-22428343D01*
X48218907Y-22428340D01*
X48073920Y-22399500D01*
X48073918Y-22399500D01*
X47926082Y-22399500D01*
X47926080Y-22399500D01*
X47781092Y-22428340D01*
X47781082Y-22428343D01*
X47644511Y-22484912D01*
X47644498Y-22484919D01*
X47521584Y-22567048D01*
X47521580Y-22567051D01*
X47417051Y-22671580D01*
X47417048Y-22671584D01*
X47334919Y-22794498D01*
X47334912Y-22794511D01*
X47278343Y-22931082D01*
X47278340Y-22931092D01*
X47249500Y-23076079D01*
X47249500Y-23437660D01*
X47229815Y-23504699D01*
X47177011Y-23550454D01*
X47107853Y-23560398D01*
X47044297Y-23531373D01*
X47037819Y-23525341D01*
X46786819Y-23274341D01*
X46753334Y-23213018D01*
X46750500Y-23186660D01*
X46750500Y-18096601D01*
X46770185Y-18029562D01*
X46786819Y-18008920D01*
X48436406Y-16359333D01*
X48436408Y-16359331D01*
X48498107Y-16266991D01*
X48518540Y-16236411D01*
X48532218Y-16203389D01*
X53899500Y-16203389D01*
X53899500Y-16376610D01*
X53924984Y-16537515D01*
X53926598Y-16547701D01*
X53980127Y-16712445D01*
X54058768Y-16866788D01*
X54160586Y-17006928D01*
X54283072Y-17129414D01*
X54423212Y-17231232D01*
X54577555Y-17309873D01*
X54742299Y-17363402D01*
X54913389Y-17390500D01*
X54913390Y-17390500D01*
X55086610Y-17390500D01*
X55086611Y-17390500D01*
X55257701Y-17363402D01*
X55422445Y-17309873D01*
X55576788Y-17231232D01*
X55716928Y-17129414D01*
X55839414Y-17006928D01*
X55941232Y-16866788D01*
X56019873Y-16712445D01*
X56073402Y-16547701D01*
X56100500Y-16376611D01*
X56100500Y-16203389D01*
X56073402Y-16032299D01*
X56019873Y-15867555D01*
X55941232Y-15713212D01*
X55839414Y-15573072D01*
X55716928Y-15450586D01*
X55576788Y-15348768D01*
X55422445Y-15270127D01*
X55257701Y-15216598D01*
X55257699Y-15216597D01*
X55257698Y-15216597D01*
X55119234Y-15194667D01*
X55086611Y-15189500D01*
X54913389Y-15189500D01*
X54880766Y-15194667D01*
X54742302Y-15216597D01*
X54577552Y-15270128D01*
X54423211Y-15348768D01*
X54371054Y-15386663D01*
X54283072Y-15450586D01*
X54283070Y-15450588D01*
X54283069Y-15450588D01*
X54160588Y-15573069D01*
X54160588Y-15573070D01*
X54160586Y-15573072D01*
X54140429Y-15600816D01*
X54058768Y-15713211D01*
X53980128Y-15867552D01*
X53926597Y-16032302D01*
X53899500Y-16203389D01*
X48532218Y-16203389D01*
X48555476Y-16147239D01*
X48555594Y-16146956D01*
X48575113Y-16099832D01*
X48575115Y-16099828D01*
X48603956Y-15954833D01*
X48603956Y-15806998D01*
X48603956Y-13663389D01*
X53899500Y-13663389D01*
X53899500Y-13836610D01*
X53915599Y-13938260D01*
X53926598Y-14007701D01*
X53980127Y-14172445D01*
X54058768Y-14326788D01*
X54160586Y-14466928D01*
X54283072Y-14589414D01*
X54423212Y-14691232D01*
X54577555Y-14769873D01*
X54742299Y-14823402D01*
X54913389Y-14850500D01*
X54913390Y-14850500D01*
X55086610Y-14850500D01*
X55086611Y-14850500D01*
X55257701Y-14823402D01*
X55422445Y-14769873D01*
X55576788Y-14691232D01*
X55716928Y-14589414D01*
X55839414Y-14466928D01*
X55941232Y-14326788D01*
X56019873Y-14172445D01*
X56073402Y-14007701D01*
X56100500Y-13836611D01*
X56100500Y-13663389D01*
X56073402Y-13492299D01*
X56019873Y-13327555D01*
X55941232Y-13173212D01*
X55839414Y-13033072D01*
X55716928Y-12910586D01*
X55576788Y-12808768D01*
X55422445Y-12730127D01*
X55257701Y-12676598D01*
X55257699Y-12676597D01*
X55257698Y-12676597D01*
X55126271Y-12655781D01*
X55086611Y-12649500D01*
X54913389Y-12649500D01*
X54873728Y-12655781D01*
X54742302Y-12676597D01*
X54577552Y-12730128D01*
X54423211Y-12808768D01*
X54343256Y-12866859D01*
X54283072Y-12910586D01*
X54283070Y-12910588D01*
X54283069Y-12910588D01*
X54160588Y-13033069D01*
X54160588Y-13033070D01*
X54160586Y-13033072D01*
X54141390Y-13059493D01*
X54058768Y-13173211D01*
X53980128Y-13327552D01*
X53926597Y-13492302D01*
X53899500Y-13663389D01*
X48603956Y-13663389D01*
X48603956Y-12529538D01*
X48603956Y-12529535D01*
X48575115Y-12384548D01*
X48575114Y-12384547D01*
X48575114Y-12384543D01*
X48575112Y-12384538D01*
X48518543Y-12247967D01*
X48518536Y-12247954D01*
X48436408Y-12125041D01*
X48384281Y-12072914D01*
X48331872Y-12020505D01*
X47978416Y-11667048D01*
X46205081Y-9893713D01*
X48849500Y-9893713D01*
X48849500Y-10106287D01*
X48859534Y-10169644D01*
X48879570Y-10296144D01*
X48882754Y-10316243D01*
X48947299Y-10514892D01*
X48948444Y-10518414D01*
X49044951Y-10707820D01*
X49169890Y-10879786D01*
X49320213Y-11030109D01*
X49492179Y-11155048D01*
X49492181Y-11155049D01*
X49492184Y-11155051D01*
X49681588Y-11251557D01*
X49883757Y-11317246D01*
X50093713Y-11350500D01*
X50093714Y-11350500D01*
X50306286Y-11350500D01*
X50306287Y-11350500D01*
X50516243Y-11317246D01*
X50718412Y-11251557D01*
X50907816Y-11155051D01*
X50946710Y-11126793D01*
X51079786Y-11030109D01*
X51079788Y-11030106D01*
X51079792Y-11030104D01*
X51230104Y-10879792D01*
X51230106Y-10879788D01*
X51230109Y-10879786D01*
X51355048Y-10707820D01*
X51355047Y-10707820D01*
X51355051Y-10707816D01*
X51451557Y-10518412D01*
X51517246Y-10316243D01*
X51550500Y-10106287D01*
X51550500Y-9893713D01*
X51517246Y-9683757D01*
X51451557Y-9481588D01*
X51355051Y-9292184D01*
X51355049Y-9292181D01*
X51355048Y-9292179D01*
X51230109Y-9120213D01*
X51079786Y-8969890D01*
X50907820Y-8844951D01*
X50718414Y-8748444D01*
X50718413Y-8748443D01*
X50718412Y-8748443D01*
X50708804Y-8745321D01*
X53899500Y-8745321D01*
X53899500Y-10494678D01*
X53914032Y-10567735D01*
X53914033Y-10567739D01*
X53920717Y-10577742D01*
X53969399Y-10650601D01*
X54052260Y-10705966D01*
X54052264Y-10705967D01*
X54125321Y-10720499D01*
X54125324Y-10720500D01*
X54125326Y-10720500D01*
X55874676Y-10720500D01*
X55874677Y-10720499D01*
X55947740Y-10705966D01*
X56030601Y-10650601D01*
X56085966Y-10567740D01*
X56100500Y-10494674D01*
X56100500Y-8745326D01*
X56100500Y-8745323D01*
X56100499Y-8745321D01*
X56085967Y-8672264D01*
X56085966Y-8672260D01*
X56083848Y-8669090D01*
X56030601Y-8589399D01*
X55947740Y-8534034D01*
X55947739Y-8534033D01*
X55947735Y-8534032D01*
X55874677Y-8519500D01*
X55874674Y-8519500D01*
X54125326Y-8519500D01*
X54125323Y-8519500D01*
X54052264Y-8534032D01*
X54052260Y-8534033D01*
X53969399Y-8589399D01*
X53914033Y-8672260D01*
X53914032Y-8672264D01*
X53899500Y-8745321D01*
X50708804Y-8745321D01*
X50516243Y-8682754D01*
X50516241Y-8682753D01*
X50516240Y-8682753D01*
X50354957Y-8657208D01*
X50306287Y-8649500D01*
X50093713Y-8649500D01*
X50045042Y-8657208D01*
X49883760Y-8682753D01*
X49883757Y-8682754D01*
X49691197Y-8745321D01*
X49681585Y-8748444D01*
X49492179Y-8844951D01*
X49320213Y-8969890D01*
X49169890Y-9120213D01*
X49044951Y-9292179D01*
X48948444Y-9481585D01*
X48882753Y-9683760D01*
X48857043Y-9846087D01*
X48849500Y-9893713D01*
X46205081Y-9893713D01*
X45345387Y-9034019D01*
X44368080Y-8056711D01*
X43304797Y-6993428D01*
X53900000Y-6993428D01*
X53900000Y-7166571D01*
X53927085Y-7337584D01*
X53980592Y-7502259D01*
X54059196Y-7656525D01*
X54063709Y-7662736D01*
X54063709Y-7662737D01*
X54517037Y-7209409D01*
X54534075Y-7272993D01*
X54599901Y-7387007D01*
X54692993Y-7480099D01*
X54807007Y-7545925D01*
X54870589Y-7562962D01*
X54417261Y-8016289D01*
X54417262Y-8016290D01*
X54423471Y-8020801D01*
X54577742Y-8099408D01*
X54742415Y-8152914D01*
X54913429Y-8180000D01*
X55086571Y-8180000D01*
X55257584Y-8152914D01*
X55422257Y-8099408D01*
X55576525Y-8020803D01*
X55582736Y-8016289D01*
X55582737Y-8016289D01*
X55129410Y-7562962D01*
X55192993Y-7545925D01*
X55307007Y-7480099D01*
X55400099Y-7387007D01*
X55465925Y-7272993D01*
X55482962Y-7209409D01*
X55936289Y-7662736D01*
X55940803Y-7656525D01*
X56019408Y-7502257D01*
X56072914Y-7337584D01*
X56100000Y-7166571D01*
X56100000Y-6993428D01*
X56072914Y-6822415D01*
X56019408Y-6657742D01*
X55940801Y-6503471D01*
X55936290Y-6497262D01*
X55936289Y-6497261D01*
X55482962Y-6950589D01*
X55465925Y-6887007D01*
X55400099Y-6772993D01*
X55307007Y-6679901D01*
X55192993Y-6614075D01*
X55129409Y-6597037D01*
X55582737Y-6143709D01*
X55576525Y-6139196D01*
X55422259Y-6060592D01*
X55257584Y-6007085D01*
X55086571Y-5980000D01*
X54913429Y-5980000D01*
X54742415Y-6007085D01*
X54577740Y-6060592D01*
X54423480Y-6139193D01*
X54423463Y-6139203D01*
X54417261Y-6143708D01*
X54417261Y-6143709D01*
X54870590Y-6597037D01*
X54807007Y-6614075D01*
X54692993Y-6679901D01*
X54599901Y-6772993D01*
X54534075Y-6887007D01*
X54517037Y-6950590D01*
X54063709Y-6497261D01*
X54063708Y-6497261D01*
X54059203Y-6503463D01*
X54059193Y-6503480D01*
X53980592Y-6657740D01*
X53927085Y-6822415D01*
X53900000Y-6993428D01*
X43304797Y-6993428D01*
X41527421Y-5216052D01*
X41527414Y-5216046D01*
X41453729Y-5166812D01*
X41453729Y-5166813D01*
X41404491Y-5133913D01*
X41267917Y-5077343D01*
X41267907Y-5077340D01*
X41122920Y-5048500D01*
X41122918Y-5048500D01*
X9837082Y-5048500D01*
X9837076Y-5048500D01*
X9808242Y-5054234D01*
X9808243Y-5054235D01*
X9692093Y-5077339D01*
X9692083Y-5077342D01*
X9612081Y-5110479D01*
X9612082Y-5110480D01*
X9555502Y-5133917D01*
X9506269Y-5166813D01*
X9432588Y-5216044D01*
X9432580Y-5216050D01*
X4785451Y-9863181D01*
X4724128Y-9896666D01*
X4697770Y-9899500D01*
X3835323Y-9899500D01*
X3762264Y-9914032D01*
X3762260Y-9914033D01*
X3679399Y-9969399D01*
X3624033Y-10052260D01*
X3624032Y-10052264D01*
X3609500Y-10125321D01*
X3609500Y-11874678D01*
X3624032Y-11947735D01*
X3624033Y-11947739D01*
X3624034Y-11947740D01*
X3679399Y-12030601D01*
X3762260Y-12085966D01*
X3762264Y-12085967D01*
X3835321Y-12100499D01*
X3835324Y-12100500D01*
X3835326Y-12100500D01*
X5584676Y-12100500D01*
X5584677Y-12100499D01*
X5657740Y-12085966D01*
X5740601Y-12030601D01*
X5795966Y-11947740D01*
X5810500Y-11874674D01*
X5810500Y-11012229D01*
X5819144Y-10982788D01*
X5825668Y-10952802D01*
X5829422Y-10947786D01*
X5830185Y-10945190D01*
X5846815Y-10924552D01*
X5937820Y-10833547D01*
X5999142Y-10800063D01*
X6068834Y-10805047D01*
X6124767Y-10846919D01*
X6149184Y-10912383D01*
X6149500Y-10921229D01*
X6149500Y-11086610D01*
X6175624Y-11251555D01*
X6176598Y-11257701D01*
X6230127Y-11422445D01*
X6308768Y-11576788D01*
X6410586Y-11716928D01*
X6533072Y-11839414D01*
X6673212Y-11941232D01*
X6827555Y-12019873D01*
X6992299Y-12073402D01*
X7163389Y-12100500D01*
X7163390Y-12100500D01*
X7336610Y-12100500D01*
X7336611Y-12100500D01*
X7507701Y-12073402D01*
X7672445Y-12019873D01*
X7826788Y-11941232D01*
X7966928Y-11839414D01*
X8089414Y-11716928D01*
X8191232Y-11576788D01*
X8269873Y-11422445D01*
X8323402Y-11257701D01*
X8350500Y-11086611D01*
X8350500Y-10913428D01*
X8690000Y-10913428D01*
X8690000Y-11086571D01*
X8717085Y-11257584D01*
X8770592Y-11422259D01*
X8849196Y-11576525D01*
X8853709Y-11582736D01*
X8853709Y-11582737D01*
X9307037Y-11129409D01*
X9324075Y-11192993D01*
X9389901Y-11307007D01*
X9482993Y-11400099D01*
X9597007Y-11465925D01*
X9660589Y-11482962D01*
X9207261Y-11936289D01*
X9207262Y-11936290D01*
X9213471Y-11940801D01*
X9367742Y-12019408D01*
X9532415Y-12072914D01*
X9703429Y-12100000D01*
X9876571Y-12100000D01*
X10047584Y-12072914D01*
X10212257Y-12019408D01*
X10366525Y-11940803D01*
X10372736Y-11936289D01*
X10372737Y-11936289D01*
X9919410Y-11482962D01*
X9982993Y-11465925D01*
X10097007Y-11400099D01*
X10190099Y-11307007D01*
X10255925Y-11192993D01*
X10272962Y-11129410D01*
X10726289Y-11582737D01*
X10726289Y-11582736D01*
X10730803Y-11576525D01*
X10809408Y-11422257D01*
X10862914Y-11257584D01*
X10890000Y-11086571D01*
X10890000Y-10913428D01*
X10862914Y-10742415D01*
X10809408Y-10577742D01*
X10730801Y-10423471D01*
X10726290Y-10417262D01*
X10726289Y-10417261D01*
X10272962Y-10870589D01*
X10255925Y-10807007D01*
X10190099Y-10692993D01*
X10097007Y-10599901D01*
X9982993Y-10534075D01*
X9919409Y-10517037D01*
X10372737Y-10063709D01*
X10366525Y-10059196D01*
X10212259Y-9980592D01*
X10047584Y-9927085D01*
X9876571Y-9900000D01*
X9703429Y-9900000D01*
X9532415Y-9927085D01*
X9367740Y-9980592D01*
X9213480Y-10059193D01*
X9213463Y-10059203D01*
X9207261Y-10063708D01*
X9207261Y-10063709D01*
X9660590Y-10517037D01*
X9597007Y-10534075D01*
X9482993Y-10599901D01*
X9389901Y-10692993D01*
X9324075Y-10807007D01*
X9307037Y-10870590D01*
X8853709Y-10417261D01*
X8853708Y-10417261D01*
X8849203Y-10423463D01*
X8849193Y-10423480D01*
X8770592Y-10577740D01*
X8717085Y-10742415D01*
X8690000Y-10913428D01*
X8350500Y-10913428D01*
X8350500Y-10913389D01*
X8323402Y-10742299D01*
X8269873Y-10577555D01*
X8191232Y-10423212D01*
X8089414Y-10283072D01*
X7966928Y-10160586D01*
X7826788Y-10058768D01*
X7672445Y-9980127D01*
X7507701Y-9926598D01*
X7507699Y-9926597D01*
X7507698Y-9926597D01*
X7376271Y-9905781D01*
X7336611Y-9899500D01*
X7171229Y-9899500D01*
X7104190Y-9879815D01*
X7058435Y-9827011D01*
X7048491Y-9757853D01*
X7077516Y-9694297D01*
X7083548Y-9687819D01*
X8588343Y-8183025D01*
X10185549Y-6585819D01*
X10246872Y-6552334D01*
X10273230Y-6549500D01*
X21772614Y-6549500D01*
X21839653Y-6569185D01*
X21885408Y-6621989D01*
X21895352Y-6691147D01*
X21866327Y-6754703D01*
X21860295Y-6761181D01*
X21759493Y-6861982D01*
X21759488Y-6861988D01*
X21687017Y-6987511D01*
X21687016Y-6987515D01*
X21649500Y-7127525D01*
X21649500Y-7272475D01*
X21679956Y-7386137D01*
X21687017Y-7412488D01*
X21759488Y-7538011D01*
X21759493Y-7538017D01*
X21813181Y-7591705D01*
X21846666Y-7653028D01*
X21849500Y-7679386D01*
X21849500Y-9846088D01*
X21870211Y-9923384D01*
X21873385Y-9935229D01*
X21873387Y-9935234D01*
X21919527Y-10015151D01*
X21919531Y-10015156D01*
X22232319Y-10327944D01*
X22265804Y-10389267D01*
X22260820Y-10458959D01*
X22218948Y-10514892D01*
X22206639Y-10523012D01*
X22143456Y-10559491D01*
X22143453Y-10559493D01*
X22040964Y-10661982D01*
X22040959Y-10661988D01*
X21968488Y-10787511D01*
X21968487Y-10787515D01*
X21930971Y-10927525D01*
X21930971Y-11072475D01*
X21963264Y-11192993D01*
X21968488Y-11212488D01*
X22040959Y-11338011D01*
X22040964Y-11338017D01*
X22094652Y-11391705D01*
X22128137Y-11453028D01*
X22130971Y-11479386D01*
X22130971Y-22527615D01*
X22141538Y-22567049D01*
X22154857Y-22616758D01*
X22154858Y-22616761D01*
X22200998Y-22696679D01*
X22201000Y-22696682D01*
X22201001Y-22696683D01*
X25075014Y-25570696D01*
X27913181Y-28408862D01*
X27946666Y-28470185D01*
X27949500Y-28496543D01*
X27949500Y-28572475D01*
X27979050Y-28682754D01*
X27987017Y-28712488D01*
X28059488Y-28838011D01*
X28059490Y-28838013D01*
X28059491Y-28838015D01*
X28161985Y-28940509D01*
X28242192Y-28986817D01*
X28250598Y-28991670D01*
X28298813Y-29042238D01*
X28312035Y-29110845D01*
X28286067Y-29175709D01*
X28276278Y-29186738D01*
X27849837Y-29613181D01*
X27788514Y-29646666D01*
X27762156Y-29649500D01*
X9446544Y-29649500D01*
X9379505Y-29629815D01*
X9358863Y-29613181D01*
X4836819Y-25091137D01*
X4803334Y-25029814D01*
X4800500Y-25003456D01*
X4800500Y-24927527D01*
X4800500Y-24927525D01*
X4762984Y-24787515D01*
X4733828Y-24737016D01*
X4690511Y-24661988D01*
X4690506Y-24661982D01*
X4588017Y-24559493D01*
X4588011Y-24559488D01*
X4462488Y-24487017D01*
X4462489Y-24487017D01*
X4431703Y-24478768D01*
X4322475Y-24449500D01*
X4177525Y-24449500D01*
X4068297Y-24478768D01*
X4037511Y-24487017D01*
X3911988Y-24559488D01*
X3911982Y-24559493D01*
X3809493Y-24661982D01*
X3809488Y-24661988D01*
X3737017Y-24787511D01*
X3737016Y-24787515D01*
X3699500Y-24927525D01*
X3699500Y-25072475D01*
X3737016Y-25212485D01*
X3737017Y-25212488D01*
X3809488Y-25338011D01*
X3809490Y-25338013D01*
X3809491Y-25338015D01*
X3911985Y-25440509D01*
X3911986Y-25440510D01*
X3911988Y-25440511D01*
X4037511Y-25512982D01*
X4037512Y-25512982D01*
X4037515Y-25512984D01*
X4177525Y-25550500D01*
X4253456Y-25550500D01*
X4320495Y-25570185D01*
X4341137Y-25586819D01*
X8442137Y-29687819D01*
X8475622Y-29749142D01*
X8470638Y-29818834D01*
X8428766Y-29874767D01*
X8363302Y-29899184D01*
X8354456Y-29899500D01*
X7696544Y-29899500D01*
X7629505Y-29879815D01*
X7608863Y-29863181D01*
X4836819Y-27091137D01*
X4803334Y-27029814D01*
X4800500Y-27003456D01*
X4800500Y-26927527D01*
X4800500Y-26927525D01*
X4762984Y-26787515D01*
X4708842Y-26693739D01*
X4690511Y-26661988D01*
X4690506Y-26661982D01*
X4588017Y-26559493D01*
X4588011Y-26559488D01*
X4462488Y-26487017D01*
X4462489Y-26487017D01*
X4451006Y-26483940D01*
X4322475Y-26449500D01*
X4177525Y-26449500D01*
X4048993Y-26483940D01*
X4037511Y-26487017D01*
X3911988Y-26559488D01*
X3911982Y-26559493D01*
X3809493Y-26661982D01*
X3809488Y-26661988D01*
X3737017Y-26787511D01*
X3737016Y-26787515D01*
X3699500Y-26927525D01*
X3699500Y-27072475D01*
X3713405Y-27124367D01*
X3737017Y-27212488D01*
X3809488Y-27338011D01*
X3809490Y-27338013D01*
X3809491Y-27338015D01*
X3911985Y-27440509D01*
X3911986Y-27440510D01*
X3911988Y-27440511D01*
X4037511Y-27512982D01*
X4037512Y-27512982D01*
X4037515Y-27512984D01*
X4177525Y-27550500D01*
X4253456Y-27550500D01*
X4320495Y-27570185D01*
X4341137Y-27586819D01*
X7284788Y-30530470D01*
X7354085Y-30570478D01*
X7354087Y-30570480D01*
X7361342Y-30574668D01*
X7364712Y-30576614D01*
X7453856Y-30600500D01*
X8736355Y-30600500D01*
X8765794Y-30609144D01*
X8795780Y-30615667D01*
X8800796Y-30619422D01*
X8803394Y-30620185D01*
X8824021Y-30636807D01*
X8824037Y-30636818D01*
X8902431Y-30715212D01*
X8967688Y-30780469D01*
X8967691Y-30780470D01*
X8967694Y-30780473D01*
X9047606Y-30826611D01*
X9047607Y-30826611D01*
X9047612Y-30826614D01*
X9136756Y-30850500D01*
X27537413Y-30850500D01*
X27604452Y-30870185D01*
X27650207Y-30922989D01*
X27660151Y-30992147D01*
X27631126Y-31055703D01*
X27625094Y-31062181D01*
X21889532Y-36797742D01*
X21889530Y-36797744D01*
X21874438Y-36823886D01*
X21843386Y-36877667D01*
X21819500Y-36966813D01*
X21819500Y-37525500D01*
X21799815Y-37592539D01*
X21747011Y-37638294D01*
X21695500Y-37649500D01*
X21295323Y-37649500D01*
X21222264Y-37664032D01*
X21222260Y-37664033D01*
X21139399Y-37719399D01*
X21084033Y-37802260D01*
X21084032Y-37802264D01*
X21069500Y-37875321D01*
X21069500Y-39624678D01*
X21084032Y-39697735D01*
X21084033Y-39697739D01*
X21086624Y-39701617D01*
X21139399Y-39780601D01*
X21204229Y-39823918D01*
X21222260Y-39835966D01*
X21222264Y-39835967D01*
X21295321Y-39850499D01*
X21295324Y-39850500D01*
X21295326Y-39850500D01*
X23044676Y-39850500D01*
X23044677Y-39850499D01*
X23117740Y-39835966D01*
X23200601Y-39780601D01*
X23255966Y-39697740D01*
X23270500Y-39624674D01*
X23270500Y-37875326D01*
X23270500Y-37875323D01*
X23270499Y-37875321D01*
X23255967Y-37802264D01*
X23255966Y-37802260D01*
X23245628Y-37786788D01*
X23200601Y-37719399D01*
X23141622Y-37679991D01*
X23117739Y-37664033D01*
X23117735Y-37664032D01*
X23044677Y-37649500D01*
X23044674Y-37649500D01*
X22644500Y-37649500D01*
X22577461Y-37629815D01*
X22531706Y-37577011D01*
X22520500Y-37525500D01*
X22520500Y-37209501D01*
X22540185Y-37142462D01*
X22556819Y-37121820D01*
X24147819Y-35530820D01*
X24209142Y-35497335D01*
X24278834Y-35502319D01*
X24334767Y-35544191D01*
X24359184Y-35609655D01*
X24359500Y-35618501D01*
X24359500Y-37617481D01*
X24339815Y-37684520D01*
X24291795Y-37727966D01*
X24133211Y-37808768D01*
X24053256Y-37866859D01*
X23993072Y-37910586D01*
X23993070Y-37910588D01*
X23993069Y-37910588D01*
X23870588Y-38033069D01*
X23870588Y-38033070D01*
X23870586Y-38033072D01*
X23834491Y-38082753D01*
X23768768Y-38173211D01*
X23690128Y-38327552D01*
X23636597Y-38492302D01*
X23609500Y-38663389D01*
X23609500Y-38836610D01*
X23633058Y-38985354D01*
X23636598Y-39007701D01*
X23690127Y-39172445D01*
X23768768Y-39326788D01*
X23870586Y-39466928D01*
X23993072Y-39589414D01*
X24133212Y-39691232D01*
X24287555Y-39769873D01*
X24452299Y-39823402D01*
X24623389Y-39850500D01*
X24623390Y-39850500D01*
X24796610Y-39850500D01*
X24796611Y-39850500D01*
X24967701Y-39823402D01*
X25132445Y-39769873D01*
X25286788Y-39691232D01*
X25426928Y-39589414D01*
X25549414Y-39466928D01*
X25651232Y-39326788D01*
X25729873Y-39172445D01*
X25783402Y-39007701D01*
X25810500Y-38836611D01*
X25810500Y-38663389D01*
X25783402Y-38492299D01*
X25729873Y-38327555D01*
X25651232Y-38173212D01*
X25549414Y-38033072D01*
X25426928Y-37910586D01*
X25286788Y-37808768D01*
X25274015Y-37802260D01*
X25128205Y-37727966D01*
X25077409Y-37679991D01*
X25060500Y-37617481D01*
X25060500Y-35236601D01*
X25080185Y-35169562D01*
X25096819Y-35148920D01*
X26637819Y-33607920D01*
X26699142Y-33574435D01*
X26768834Y-33579419D01*
X26824767Y-33621291D01*
X26849184Y-33686755D01*
X26849500Y-33695601D01*
X26849500Y-37642958D01*
X26829815Y-37709997D01*
X26781794Y-37753443D01*
X26673213Y-37808766D01*
X26581610Y-37875321D01*
X26533072Y-37910586D01*
X26533070Y-37910588D01*
X26533069Y-37910588D01*
X26410588Y-38033069D01*
X26410588Y-38033070D01*
X26410586Y-38033072D01*
X26374491Y-38082753D01*
X26308768Y-38173211D01*
X26230128Y-38327552D01*
X26176597Y-38492302D01*
X26149500Y-38663389D01*
X26149500Y-38836610D01*
X26173058Y-38985354D01*
X26176598Y-39007701D01*
X26230127Y-39172445D01*
X26308768Y-39326788D01*
X26410586Y-39466928D01*
X26533072Y-39589414D01*
X26673212Y-39691232D01*
X26827555Y-39769873D01*
X26992299Y-39823402D01*
X27163389Y-39850500D01*
X27163390Y-39850500D01*
X27336610Y-39850500D01*
X27336611Y-39850500D01*
X27507701Y-39823402D01*
X27672445Y-39769873D01*
X27806406Y-39701617D01*
X29450000Y-39701617D01*
X29450000Y-39898382D01*
X29480778Y-40092705D01*
X29541581Y-40279835D01*
X29630905Y-40455145D01*
X29656319Y-40490125D01*
X29656320Y-40490125D01*
X30176212Y-39970233D01*
X30187482Y-40012292D01*
X30259890Y-40137708D01*
X30362292Y-40240110D01*
X30487708Y-40312518D01*
X30529764Y-40323787D01*
X30009873Y-40843677D01*
X30009873Y-40843678D01*
X30044858Y-40869096D01*
X30220164Y-40958418D01*
X30407294Y-41019221D01*
X30601618Y-41050000D01*
X30798382Y-41050000D01*
X30992705Y-41019221D01*
X31179835Y-40958418D01*
X31355143Y-40869095D01*
X31390125Y-40843678D01*
X31390126Y-40843678D01*
X30870235Y-40323787D01*
X30912292Y-40312518D01*
X31037708Y-40240110D01*
X31140110Y-40137708D01*
X31212518Y-40012292D01*
X31223787Y-39970235D01*
X31743678Y-40490126D01*
X31743678Y-40490125D01*
X31769095Y-40455143D01*
X31858418Y-40279835D01*
X31919221Y-40092705D01*
X31950000Y-39898382D01*
X31950000Y-39701617D01*
X31919221Y-39507294D01*
X31858418Y-39320164D01*
X31769096Y-39144858D01*
X31743678Y-39109873D01*
X31743677Y-39109873D01*
X31223787Y-39629764D01*
X31212518Y-39587708D01*
X31140110Y-39462292D01*
X31037708Y-39359890D01*
X30912292Y-39287482D01*
X30870234Y-39276212D01*
X31390125Y-38756320D01*
X31390125Y-38756319D01*
X31355145Y-38730905D01*
X31179835Y-38641581D01*
X30992705Y-38580778D01*
X30798382Y-38550000D01*
X30601618Y-38550000D01*
X30407294Y-38580778D01*
X30220161Y-38641582D01*
X30044863Y-38730899D01*
X30044859Y-38730902D01*
X30009873Y-38756320D01*
X30009872Y-38756320D01*
X30529765Y-39276212D01*
X30487708Y-39287482D01*
X30362292Y-39359890D01*
X30259890Y-39462292D01*
X30187482Y-39587708D01*
X30176212Y-39629765D01*
X29656320Y-39109872D01*
X29656320Y-39109873D01*
X29630902Y-39144859D01*
X29630899Y-39144863D01*
X29541582Y-39320161D01*
X29480778Y-39507294D01*
X29450000Y-39701617D01*
X27806406Y-39701617D01*
X27826788Y-39691232D01*
X27966928Y-39589414D01*
X28089414Y-39466928D01*
X28191232Y-39326788D01*
X28269873Y-39172445D01*
X28323402Y-39007701D01*
X28350500Y-38836611D01*
X28350500Y-38663389D01*
X28323402Y-38492299D01*
X28269873Y-38327555D01*
X28191232Y-38173212D01*
X28089414Y-38033072D01*
X27966928Y-37910586D01*
X27826788Y-37808768D01*
X27814015Y-37802260D01*
X27672445Y-37730126D01*
X27636180Y-37718343D01*
X27578505Y-37678905D01*
X27551308Y-37614546D01*
X27550500Y-37600413D01*
X27550500Y-33596543D01*
X27570185Y-33529504D01*
X27586819Y-33508862D01*
X27894064Y-33201617D01*
X29450000Y-33201617D01*
X29450000Y-33398382D01*
X29480778Y-33592705D01*
X29541581Y-33779835D01*
X29630905Y-33955145D01*
X29656319Y-33990125D01*
X29656320Y-33990125D01*
X30176212Y-33470233D01*
X30187482Y-33512292D01*
X30259890Y-33637708D01*
X30362292Y-33740110D01*
X30487708Y-33812518D01*
X30529764Y-33823787D01*
X30009873Y-34343677D01*
X30009873Y-34343678D01*
X30044858Y-34369096D01*
X30220164Y-34458418D01*
X30407294Y-34519221D01*
X30601618Y-34550000D01*
X30798382Y-34550000D01*
X30992705Y-34519221D01*
X31179835Y-34458418D01*
X31355143Y-34369095D01*
X31390125Y-34343678D01*
X31390126Y-34343678D01*
X30870235Y-33823787D01*
X30912292Y-33812518D01*
X31037708Y-33740110D01*
X31140110Y-33637708D01*
X31212518Y-33512292D01*
X31223787Y-33470235D01*
X31743678Y-33990126D01*
X31743678Y-33990125D01*
X31769095Y-33955143D01*
X31858418Y-33779835D01*
X31919221Y-33592705D01*
X31950000Y-33398382D01*
X31950000Y-33201617D01*
X31949994Y-33201577D01*
X33949500Y-33201577D01*
X33949500Y-33398422D01*
X33980290Y-33592826D01*
X34041117Y-33780029D01*
X34114383Y-33923820D01*
X34130476Y-33955405D01*
X34246172Y-34114646D01*
X34385354Y-34253828D01*
X34544595Y-34369524D01*
X34719973Y-34458883D01*
X34719974Y-34458883D01*
X34719975Y-34458884D01*
X34763818Y-34473129D01*
X34821492Y-34512565D01*
X34848692Y-34576923D01*
X34849500Y-34591060D01*
X34849500Y-38508939D01*
X34829815Y-38575978D01*
X34777011Y-38621733D01*
X34763820Y-38626869D01*
X34719974Y-38641115D01*
X34544594Y-38730476D01*
X34453741Y-38796485D01*
X34385354Y-38846172D01*
X34385352Y-38846174D01*
X34385351Y-38846174D01*
X34246174Y-38985351D01*
X34246174Y-38985352D01*
X34246172Y-38985354D01*
X34235393Y-39000190D01*
X34130476Y-39144594D01*
X34041117Y-39319970D01*
X33980290Y-39507173D01*
X33949500Y-39701577D01*
X33949500Y-39898422D01*
X33980290Y-40092826D01*
X34041117Y-40280029D01*
X34117587Y-40430109D01*
X34130476Y-40455405D01*
X34246172Y-40614646D01*
X34385354Y-40753828D01*
X34544595Y-40869524D01*
X34627455Y-40911743D01*
X34719970Y-40958882D01*
X34719972Y-40958882D01*
X34719975Y-40958884D01*
X34820317Y-40991487D01*
X34907173Y-41019709D01*
X35101578Y-41050500D01*
X35101583Y-41050500D01*
X35298422Y-41050500D01*
X35492826Y-41019709D01*
X35512917Y-41013181D01*
X35680025Y-40958884D01*
X35855405Y-40869524D01*
X36014646Y-40753828D01*
X36153828Y-40614646D01*
X36269524Y-40455405D01*
X36358884Y-40280025D01*
X36419709Y-40092826D01*
X36425781Y-40054490D01*
X36450500Y-39898422D01*
X36450500Y-39701577D01*
X36419709Y-39507173D01*
X36386009Y-39403456D01*
X36358884Y-39319975D01*
X36358882Y-39319972D01*
X36358882Y-39319970D01*
X36345503Y-39293713D01*
X38049500Y-39293713D01*
X38049500Y-39506287D01*
X38059534Y-39569644D01*
X38079822Y-39697735D01*
X38082754Y-39716243D01*
X38141946Y-39898417D01*
X38148444Y-39918414D01*
X38244951Y-40107820D01*
X38369890Y-40279786D01*
X38520213Y-40430109D01*
X38692179Y-40555048D01*
X38692181Y-40555049D01*
X38692184Y-40555051D01*
X38881588Y-40651557D01*
X39083757Y-40717246D01*
X39293713Y-40750500D01*
X39293714Y-40750500D01*
X39506286Y-40750500D01*
X39506287Y-40750500D01*
X39716243Y-40717246D01*
X39918412Y-40651557D01*
X40107816Y-40555051D01*
X40170113Y-40509790D01*
X40279786Y-40430109D01*
X40279788Y-40430106D01*
X40279792Y-40430104D01*
X40430104Y-40279792D01*
X40430106Y-40279788D01*
X40430109Y-40279786D01*
X40555048Y-40107820D01*
X40555047Y-40107820D01*
X40555051Y-40107816D01*
X40651557Y-39918412D01*
X40717246Y-39716243D01*
X40750500Y-39506287D01*
X40750500Y-39293713D01*
X40717246Y-39083757D01*
X40651557Y-38881588D01*
X40555051Y-38692184D01*
X40555049Y-38692181D01*
X40555048Y-38692179D01*
X40430109Y-38520213D01*
X40279786Y-38369890D01*
X40107820Y-38244951D01*
X39918414Y-38148444D01*
X39918413Y-38148443D01*
X39918412Y-38148443D01*
X39716243Y-38082754D01*
X39716241Y-38082753D01*
X39716240Y-38082753D01*
X39554957Y-38057208D01*
X39506287Y-38049500D01*
X39293713Y-38049500D01*
X39245042Y-38057208D01*
X39083760Y-38082753D01*
X38881585Y-38148444D01*
X38692179Y-38244951D01*
X38520213Y-38369890D01*
X38369890Y-38520213D01*
X38244951Y-38692179D01*
X38148444Y-38881585D01*
X38082753Y-39083760D01*
X38050487Y-39287482D01*
X38049500Y-39293713D01*
X36345503Y-39293713D01*
X36308242Y-39220584D01*
X36269524Y-39144595D01*
X36153828Y-38985354D01*
X36014646Y-38846172D01*
X35855405Y-38730476D01*
X35833665Y-38719399D01*
X35680025Y-38641115D01*
X35636180Y-38626869D01*
X35578505Y-38587431D01*
X35551308Y-38523072D01*
X35550500Y-38508939D01*
X35550500Y-34591060D01*
X35570185Y-34524021D01*
X35622989Y-34478266D01*
X35636172Y-34473132D01*
X35680025Y-34458884D01*
X35855405Y-34369524D01*
X36014646Y-34253828D01*
X36153828Y-34114646D01*
X36269524Y-33955405D01*
X36358884Y-33780025D01*
X36419709Y-33592826D01*
X36422622Y-33574435D01*
X36450500Y-33398422D01*
X36450500Y-33201577D01*
X36419709Y-33007173D01*
X36358882Y-32819970D01*
X36311743Y-32727455D01*
X36269524Y-32644595D01*
X36153828Y-32485354D01*
X36014646Y-32346172D01*
X35855405Y-32230476D01*
X35680029Y-32141117D01*
X35492826Y-32080290D01*
X35298422Y-32049500D01*
X35298417Y-32049500D01*
X35101583Y-32049500D01*
X35101578Y-32049500D01*
X34907173Y-32080290D01*
X34719970Y-32141117D01*
X34544594Y-32230476D01*
X34453741Y-32296485D01*
X34385354Y-32346172D01*
X34385352Y-32346174D01*
X34385351Y-32346174D01*
X34246174Y-32485351D01*
X34246174Y-32485352D01*
X34246172Y-32485354D01*
X34196485Y-32553741D01*
X34130476Y-32644594D01*
X34041117Y-32819970D01*
X33980290Y-33007173D01*
X33949500Y-33201577D01*
X31949994Y-33201577D01*
X31919221Y-33007294D01*
X31858418Y-32820164D01*
X31769096Y-32644858D01*
X31743678Y-32609873D01*
X31743677Y-32609873D01*
X31223787Y-33129764D01*
X31212518Y-33087708D01*
X31140110Y-32962292D01*
X31037708Y-32859890D01*
X30912292Y-32787482D01*
X30870234Y-32776212D01*
X31390125Y-32256320D01*
X31390125Y-32256319D01*
X31355145Y-32230905D01*
X31179835Y-32141581D01*
X30992705Y-32080778D01*
X30798382Y-32050000D01*
X30601618Y-32050000D01*
X30407294Y-32080778D01*
X30220161Y-32141582D01*
X30044863Y-32230899D01*
X30044859Y-32230902D01*
X30009873Y-32256320D01*
X30009872Y-32256320D01*
X30529765Y-32776212D01*
X30487708Y-32787482D01*
X30362292Y-32859890D01*
X30259890Y-32962292D01*
X30187482Y-33087708D01*
X30176212Y-33129765D01*
X29656320Y-32609872D01*
X29656320Y-32609873D01*
X29630902Y-32644859D01*
X29630899Y-32644863D01*
X29541582Y-32820161D01*
X29480778Y-33007294D01*
X29450000Y-33201617D01*
X27894064Y-33201617D01*
X28908862Y-32186819D01*
X28970185Y-32153334D01*
X28996543Y-32150500D01*
X29072472Y-32150500D01*
X29072475Y-32150500D01*
X29212485Y-32112984D01*
X29338015Y-32040509D01*
X29440509Y-31938015D01*
X29512984Y-31812485D01*
X29550500Y-31672475D01*
X29550500Y-31527525D01*
X29512984Y-31387515D01*
X29505573Y-31374678D01*
X29483531Y-31336500D01*
X29467058Y-31268600D01*
X29489911Y-31202573D01*
X29544832Y-31159382D01*
X29590918Y-31150500D01*
X35646142Y-31150500D01*
X35646144Y-31150500D01*
X35735288Y-31126614D01*
X35745912Y-31120480D01*
X35815212Y-31080470D01*
X37680469Y-29215212D01*
X37726614Y-29135288D01*
X37750500Y-29046144D01*
X37750500Y-22251856D01*
X37726614Y-22162712D01*
X37726613Y-22162710D01*
X37719563Y-22150499D01*
X37719559Y-22150492D01*
X37718110Y-22147982D01*
X37701500Y-22085987D01*
X37701500Y-21664069D01*
X37718113Y-21602068D01*
X37726614Y-21587345D01*
X37730969Y-21571088D01*
X37736920Y-21548885D01*
X37749556Y-21501723D01*
X37750500Y-21498201D01*
X37750500Y-21202279D01*
X37726614Y-21113135D01*
X37717074Y-21096612D01*
X37700463Y-21034614D01*
X37700463Y-20654358D01*
X37700463Y-20654356D01*
X37676577Y-20565212D01*
X37637654Y-20497795D01*
X37630435Y-20485291D01*
X37630431Y-20485286D01*
X37115676Y-19970531D01*
X37115671Y-19970527D01*
X37035749Y-19924385D01*
X37031759Y-19922732D01*
X36991536Y-19895854D01*
X36689439Y-19593757D01*
X36655954Y-19532434D01*
X36660938Y-19462742D01*
X36689439Y-19418395D01*
X36712596Y-19395238D01*
X36774992Y-19332842D01*
X36847467Y-19207312D01*
X36884983Y-19067302D01*
X36884983Y-18922352D01*
X36847467Y-18782342D01*
X36774992Y-18656812D01*
X36672498Y-18554318D01*
X36672496Y-18554317D01*
X36672494Y-18554315D01*
X36546971Y-18481844D01*
X36546972Y-18481844D01*
X36526826Y-18476446D01*
X36406958Y-18444327D01*
X36262008Y-18444327D01*
X36142140Y-18476446D01*
X36121994Y-18481844D01*
X35996471Y-18554315D01*
X35996465Y-18554320D01*
X35893976Y-18656809D01*
X35893971Y-18656815D01*
X35821500Y-18782338D01*
X35821499Y-18782342D01*
X35783983Y-18922352D01*
X35783983Y-18922354D01*
X35783983Y-19067301D01*
X35793238Y-19101841D01*
X35797463Y-19133934D01*
X35797463Y-19594106D01*
X35819328Y-19675709D01*
X35821348Y-19683250D01*
X35867490Y-19763171D01*
X35867494Y-19763176D01*
X36425435Y-20321117D01*
X36430224Y-20329888D01*
X36438134Y-20335998D01*
X36446690Y-20360043D01*
X36458920Y-20382440D01*
X36458207Y-20392407D01*
X36461558Y-20401824D01*
X36455756Y-20426677D01*
X36453936Y-20452132D01*
X36447523Y-20461946D01*
X36445675Y-20469864D01*
X36432282Y-20485271D01*
X36424099Y-20497795D01*
X36415071Y-20506553D01*
X36410948Y-20508934D01*
X36356593Y-20563288D01*
X36355922Y-20563940D01*
X36325807Y-20579797D01*
X36295935Y-20596109D01*
X36294546Y-20596258D01*
X36294099Y-20596494D01*
X36293133Y-20596410D01*
X36269577Y-20598943D01*
X33546044Y-20598943D01*
X33479005Y-20579258D01*
X33458363Y-20562624D01*
X28707920Y-15812181D01*
X28674435Y-15750858D01*
X28679419Y-15681166D01*
X28721291Y-15625233D01*
X28786755Y-15600816D01*
X28795601Y-15600500D01*
X36027471Y-15600500D01*
X36094510Y-15620185D01*
X36140265Y-15672989D01*
X36150209Y-15742147D01*
X36148230Y-15751798D01*
X36147939Y-15754005D01*
X36147939Y-15754007D01*
X36147939Y-15898957D01*
X36183669Y-16032302D01*
X36185456Y-16038970D01*
X36257927Y-16164493D01*
X36257929Y-16164495D01*
X36257930Y-16164497D01*
X36360424Y-16266991D01*
X36360425Y-16266992D01*
X36360427Y-16266993D01*
X36485950Y-16339464D01*
X36485951Y-16339464D01*
X36485954Y-16339466D01*
X36625964Y-16376982D01*
X36625967Y-16376982D01*
X36770912Y-16376982D01*
X36770914Y-16376982D01*
X36788819Y-16372184D01*
X36858667Y-16373845D01*
X36908595Y-16404277D01*
X40715541Y-20211222D01*
X40749026Y-20272545D01*
X40744042Y-20342237D01*
X40735247Y-20360903D01*
X40691017Y-20437511D01*
X40691016Y-20437515D01*
X40653500Y-20577525D01*
X40653500Y-20722475D01*
X40689216Y-20855766D01*
X40691017Y-20862488D01*
X40763488Y-20988011D01*
X40763490Y-20988013D01*
X40763491Y-20988015D01*
X40865985Y-21090509D01*
X40865986Y-21090510D01*
X40865988Y-21090511D01*
X40991511Y-21162982D01*
X40991512Y-21162982D01*
X40991515Y-21162984D01*
X41131525Y-21200500D01*
X41131528Y-21200500D01*
X41275500Y-21200500D01*
X41342539Y-21220185D01*
X41388294Y-21272989D01*
X41399500Y-21324500D01*
X41399500Y-29546143D01*
X41417992Y-29615157D01*
X41418008Y-29615214D01*
X41423386Y-29635289D01*
X41469527Y-29715208D01*
X41469531Y-29715213D01*
X41793875Y-30039557D01*
X41827360Y-30100880D01*
X41822376Y-30170572D01*
X41780504Y-30226505D01*
X41734770Y-30245136D01*
X41735376Y-30247397D01*
X41727527Y-30249500D01*
X41727525Y-30249500D01*
X41601386Y-30283299D01*
X41587511Y-30287017D01*
X41461988Y-30359488D01*
X41461982Y-30359493D01*
X41359493Y-30461982D01*
X41359488Y-30461988D01*
X41287017Y-30587511D01*
X41287016Y-30587515D01*
X41249500Y-30727525D01*
X41249500Y-30872475D01*
X41283396Y-30998976D01*
X41287017Y-31012488D01*
X41359488Y-31138011D01*
X41359493Y-31138017D01*
X41413181Y-31191705D01*
X41446666Y-31253028D01*
X41449500Y-31279386D01*
X41449500Y-39646145D01*
X41463324Y-39697739D01*
X41473384Y-39735283D01*
X41473387Y-39735290D01*
X41519527Y-39815208D01*
X41519529Y-39815211D01*
X41519530Y-39815212D01*
X42280694Y-40576376D01*
X43013181Y-41308862D01*
X43046666Y-41370185D01*
X43049500Y-41396543D01*
X43049500Y-41472475D01*
X43087016Y-41612485D01*
X43087017Y-41612488D01*
X43159488Y-41738011D01*
X43159493Y-41738017D01*
X43209295Y-41787819D01*
X43242780Y-41849142D01*
X43237796Y-41918834D01*
X43195924Y-41974767D01*
X43130460Y-41999184D01*
X43121614Y-41999500D01*
X124500Y-41999500D01*
X57461Y-41979815D01*
X11706Y-41927011D01*
X500Y-41875500D01*
X500Y-29893713D01*
X1249500Y-29893713D01*
X1249500Y-30106286D01*
X1271491Y-30245136D01*
X1282754Y-30316243D01*
X1296806Y-30359491D01*
X1348444Y-30518414D01*
X1444951Y-30707820D01*
X1569890Y-30879786D01*
X1720213Y-31030109D01*
X1892179Y-31155048D01*
X1892181Y-31155049D01*
X1892184Y-31155051D01*
X2081588Y-31251557D01*
X2283757Y-31317246D01*
X2493713Y-31350500D01*
X2493714Y-31350500D01*
X2706286Y-31350500D01*
X2706287Y-31350500D01*
X2916243Y-31317246D01*
X3118412Y-31251557D01*
X3307816Y-31155051D01*
X3331270Y-31138011D01*
X3479786Y-31030109D01*
X3479788Y-31030106D01*
X3479792Y-31030104D01*
X3630104Y-30879792D01*
X3630106Y-30879788D01*
X3630109Y-30879786D01*
X3749676Y-30715214D01*
X3755051Y-30707816D01*
X3851557Y-30518412D01*
X3917246Y-30316243D01*
X3950500Y-30106287D01*
X3950500Y-29893713D01*
X3917246Y-29683757D01*
X3851557Y-29481588D01*
X3755051Y-29292184D01*
X3755049Y-29292181D01*
X3755048Y-29292179D01*
X3630109Y-29120213D01*
X3479786Y-28969890D01*
X3307820Y-28844951D01*
X3118414Y-28748444D01*
X3118413Y-28748443D01*
X3118412Y-28748443D01*
X2916243Y-28682754D01*
X2916241Y-28682753D01*
X2916240Y-28682753D01*
X2754957Y-28657208D01*
X2706287Y-28649500D01*
X2493713Y-28649500D01*
X2445042Y-28657208D01*
X2283760Y-28682753D01*
X2081585Y-28748444D01*
X1892179Y-28844951D01*
X1720213Y-28969890D01*
X1569890Y-29120213D01*
X1444951Y-29292179D01*
X1348444Y-29481585D01*
X1282753Y-29683760D01*
X1249500Y-29893713D01*
X500Y-29893713D01*
X500Y-21959999D01*
X1891759Y-21959999D01*
X1891759Y-21960000D01*
X2433012Y-21960000D01*
X2415795Y-21969940D01*
X2359940Y-22025795D01*
X2320444Y-22094204D01*
X2300000Y-22170504D01*
X2300000Y-22249496D01*
X2320444Y-22325796D01*
X2359940Y-22394205D01*
X2415795Y-22450060D01*
X2433012Y-22460000D01*
X1891759Y-22460000D01*
X1935357Y-22565254D01*
X1935362Y-22565264D01*
X2017436Y-22688096D01*
X2017439Y-22688100D01*
X2121899Y-22792560D01*
X2121903Y-22792563D01*
X2244735Y-22874637D01*
X2244745Y-22874642D01*
X2381232Y-22931177D01*
X2381240Y-22931179D01*
X2526126Y-22959999D01*
X2526129Y-22960000D01*
X2750000Y-22960000D01*
X2750000Y-22510000D01*
X3250000Y-22510000D01*
X3250000Y-22960000D01*
X3473871Y-22960000D01*
X3473873Y-22959999D01*
X3618759Y-22931179D01*
X3618767Y-22931177D01*
X3755254Y-22874642D01*
X3755264Y-22874637D01*
X3878096Y-22792563D01*
X3878100Y-22792560D01*
X3982560Y-22688100D01*
X3982563Y-22688096D01*
X4064637Y-22565264D01*
X4064642Y-22565254D01*
X4108241Y-22460000D01*
X3566988Y-22460000D01*
X3584205Y-22450060D01*
X3640060Y-22394205D01*
X3679556Y-22325796D01*
X3700000Y-22249496D01*
X3700000Y-22170504D01*
X3679556Y-22094204D01*
X3640060Y-22025795D01*
X3584205Y-21969940D01*
X3566988Y-21960000D01*
X4108241Y-21960000D01*
X4108240Y-21959999D01*
X5921759Y-21959999D01*
X5921759Y-21960000D01*
X6463012Y-21960000D01*
X6445795Y-21969940D01*
X6389940Y-22025795D01*
X6350444Y-22094204D01*
X6330000Y-22170504D01*
X6330000Y-22249496D01*
X6350444Y-22325796D01*
X6389940Y-22394205D01*
X6445795Y-22450060D01*
X6463012Y-22460000D01*
X5921759Y-22460000D01*
X5965357Y-22565254D01*
X5965362Y-22565264D01*
X6047436Y-22688096D01*
X6047439Y-22688100D01*
X6151899Y-22792560D01*
X6151903Y-22792563D01*
X6274735Y-22874637D01*
X6274745Y-22874642D01*
X6411232Y-22931177D01*
X6411240Y-22931179D01*
X6556126Y-22959999D01*
X6556129Y-22960000D01*
X6930000Y-22960000D01*
X6930000Y-22510000D01*
X7430000Y-22510000D01*
X7430000Y-22960000D01*
X7803871Y-22960000D01*
X7803873Y-22959999D01*
X7948759Y-22931179D01*
X7948767Y-22931177D01*
X8085254Y-22874642D01*
X8085264Y-22874637D01*
X8208096Y-22792563D01*
X8208100Y-22792560D01*
X8312560Y-22688100D01*
X8312563Y-22688096D01*
X8394637Y-22565264D01*
X8394642Y-22565254D01*
X8438241Y-22460000D01*
X7896988Y-22460000D01*
X7914205Y-22450060D01*
X7970060Y-22394205D01*
X8009556Y-22325796D01*
X8030000Y-22249496D01*
X8030000Y-22170504D01*
X8009556Y-22094204D01*
X7970060Y-22025795D01*
X7914205Y-21969940D01*
X7896988Y-21960000D01*
X8438241Y-21960000D01*
X8438240Y-21959999D01*
X8394642Y-21854745D01*
X8394637Y-21854735D01*
X8312563Y-21731903D01*
X8312560Y-21731899D01*
X8208100Y-21627439D01*
X8208096Y-21627436D01*
X8085264Y-21545362D01*
X8085254Y-21545357D01*
X7948767Y-21488822D01*
X7948759Y-21488820D01*
X7803872Y-21460000D01*
X7430000Y-21460000D01*
X7430000Y-21910000D01*
X6930000Y-21910000D01*
X6930000Y-21449230D01*
X6909469Y-21411631D01*
X6914453Y-21341939D01*
X6956325Y-21286006D01*
X6968618Y-21277896D01*
X7033365Y-21240515D01*
X7140515Y-21133365D01*
X7216281Y-21002135D01*
X7255500Y-20855766D01*
X7255500Y-20704234D01*
X7216281Y-20557865D01*
X7140515Y-20426635D01*
X7033365Y-20319485D01*
X6946789Y-20269500D01*
X6902136Y-20243719D01*
X6828950Y-20224109D01*
X6755766Y-20204500D01*
X6604234Y-20204500D01*
X6457863Y-20243719D01*
X6326635Y-20319485D01*
X6326632Y-20319487D01*
X6219487Y-20426632D01*
X6219485Y-20426635D01*
X6143719Y-20557863D01*
X6117864Y-20654358D01*
X6104500Y-20704234D01*
X6104500Y-20855766D01*
X6106301Y-20862488D01*
X6143719Y-21002136D01*
X6162471Y-21034614D01*
X6219485Y-21133365D01*
X6326635Y-21240515D01*
X6393714Y-21279243D01*
X6394635Y-21279775D01*
X6442850Y-21330343D01*
X6456072Y-21398950D01*
X6430104Y-21463814D01*
X6380087Y-21501723D01*
X6274745Y-21545357D01*
X6274735Y-21545362D01*
X6151903Y-21627436D01*
X6151899Y-21627439D01*
X6047439Y-21731899D01*
X6047436Y-21731903D01*
X5965362Y-21854735D01*
X5965357Y-21854745D01*
X5921759Y-21959999D01*
X4108240Y-21959999D01*
X4064642Y-21854745D01*
X4064637Y-21854735D01*
X3982563Y-21731903D01*
X3982560Y-21731899D01*
X3878100Y-21627439D01*
X3878096Y-21627436D01*
X3755264Y-21545362D01*
X3755254Y-21545357D01*
X3618767Y-21488822D01*
X3618759Y-21488820D01*
X3473872Y-21460000D01*
X3250000Y-21460000D01*
X3250000Y-21910000D01*
X2750000Y-21910000D01*
X2750000Y-21460000D01*
X2526128Y-21460000D01*
X2381240Y-21488820D01*
X2381232Y-21488822D01*
X2244745Y-21545357D01*
X2244735Y-21545362D01*
X2121903Y-21627436D01*
X2121899Y-21627439D01*
X2017439Y-21731899D01*
X2017436Y-21731903D01*
X1935362Y-21854735D01*
X1935357Y-21854745D01*
X1891759Y-21959999D01*
X500Y-21959999D01*
X500Y-13319999D01*
X1891759Y-13319999D01*
X1891759Y-13320000D01*
X2433012Y-13320000D01*
X2415795Y-13329940D01*
X2359940Y-13385795D01*
X2320444Y-13454204D01*
X2300000Y-13530504D01*
X2300000Y-13609496D01*
X2320444Y-13685796D01*
X2359940Y-13754205D01*
X2415795Y-13810060D01*
X2433012Y-13820000D01*
X1891759Y-13820000D01*
X1935357Y-13925254D01*
X1935362Y-13925264D01*
X2017436Y-14048096D01*
X2017439Y-14048100D01*
X2121899Y-14152560D01*
X2121903Y-14152563D01*
X2244735Y-14234637D01*
X2244745Y-14234642D01*
X2381232Y-14291177D01*
X2381240Y-14291179D01*
X2526126Y-14319999D01*
X2526129Y-14320000D01*
X2750000Y-14320000D01*
X2750000Y-13870000D01*
X3250000Y-13870000D01*
X3250000Y-14320000D01*
X3473871Y-14320000D01*
X3473873Y-14319999D01*
X3618759Y-14291179D01*
X3618767Y-14291177D01*
X3755254Y-14234642D01*
X3755264Y-14234637D01*
X3878096Y-14152563D01*
X3878100Y-14152560D01*
X3982560Y-14048100D01*
X3982563Y-14048096D01*
X4064637Y-13925264D01*
X4064642Y-13925254D01*
X4108241Y-13820000D01*
X3566988Y-13820000D01*
X3584205Y-13810060D01*
X3640060Y-13754205D01*
X3679556Y-13685796D01*
X3700000Y-13609496D01*
X3700000Y-13530504D01*
X3679556Y-13454204D01*
X3640060Y-13385795D01*
X3584205Y-13329940D01*
X3566988Y-13320000D01*
X4108241Y-13320000D01*
X4108240Y-13319999D01*
X5921759Y-13319999D01*
X5921759Y-13320000D01*
X6463012Y-13320000D01*
X6445795Y-13329940D01*
X6389940Y-13385795D01*
X6350444Y-13454204D01*
X6330000Y-13530504D01*
X6330000Y-13609496D01*
X6350444Y-13685796D01*
X6389940Y-13754205D01*
X6445795Y-13810060D01*
X6463012Y-13820000D01*
X5921759Y-13820000D01*
X5965357Y-13925254D01*
X5965362Y-13925264D01*
X6047436Y-14048096D01*
X6047439Y-14048100D01*
X6151899Y-14152560D01*
X6151903Y-14152563D01*
X6274735Y-14234637D01*
X6274748Y-14234644D01*
X6380086Y-14278276D01*
X6434490Y-14322117D01*
X6456555Y-14388411D01*
X6439276Y-14456110D01*
X6394636Y-14500223D01*
X6326638Y-14539483D01*
X6326632Y-14539487D01*
X6219487Y-14646632D01*
X6219485Y-14646635D01*
X6143719Y-14777863D01*
X6104500Y-14924234D01*
X6104500Y-15075765D01*
X6143719Y-15222136D01*
X6163068Y-15255648D01*
X6219485Y-15353365D01*
X6326635Y-15460515D01*
X6457865Y-15536281D01*
X6604234Y-15575500D01*
X6604236Y-15575500D01*
X6755764Y-15575500D01*
X6755766Y-15575500D01*
X6902135Y-15536281D01*
X7033365Y-15460515D01*
X7140515Y-15353365D01*
X7216281Y-15222135D01*
X7255500Y-15075766D01*
X7255500Y-14924234D01*
X7216281Y-14777865D01*
X7140515Y-14646635D01*
X7033365Y-14539485D01*
X6968634Y-14502112D01*
X6920419Y-14451546D01*
X6907196Y-14382939D01*
X6930000Y-14325979D01*
X6930000Y-13870000D01*
X7430000Y-13870000D01*
X7430000Y-14320000D01*
X7803871Y-14320000D01*
X7803873Y-14319999D01*
X7948759Y-14291179D01*
X7948767Y-14291177D01*
X8085254Y-14234642D01*
X8085264Y-14234637D01*
X8208096Y-14152563D01*
X8208100Y-14152560D01*
X8312560Y-14048100D01*
X8312563Y-14048096D01*
X8394637Y-13925264D01*
X8394642Y-13925254D01*
X8438241Y-13820000D01*
X7896988Y-13820000D01*
X7914205Y-13810060D01*
X7970060Y-13754205D01*
X8009556Y-13685796D01*
X8030000Y-13609496D01*
X8030000Y-13530504D01*
X8009556Y-13454204D01*
X7970060Y-13385795D01*
X7914205Y-13329940D01*
X7896988Y-13320000D01*
X8438241Y-13320000D01*
X8438240Y-13319999D01*
X8394642Y-13214745D01*
X8394637Y-13214735D01*
X8312563Y-13091903D01*
X8312560Y-13091899D01*
X8208100Y-12987439D01*
X8208096Y-12987436D01*
X8085264Y-12905362D01*
X8085254Y-12905357D01*
X7948767Y-12848822D01*
X7948759Y-12848820D01*
X7803872Y-12820000D01*
X7430000Y-12820000D01*
X7430000Y-13270000D01*
X6930000Y-13270000D01*
X6930000Y-12820000D01*
X6556128Y-12820000D01*
X6411240Y-12848820D01*
X6411232Y-12848822D01*
X6274745Y-12905357D01*
X6274735Y-12905362D01*
X6151903Y-12987436D01*
X6151899Y-12987439D01*
X6047439Y-13091899D01*
X6047436Y-13091903D01*
X5965362Y-13214735D01*
X5965357Y-13214745D01*
X5921759Y-13319999D01*
X4108240Y-13319999D01*
X4064642Y-13214745D01*
X4064637Y-13214735D01*
X3982563Y-13091903D01*
X3982560Y-13091899D01*
X3878100Y-12987439D01*
X3878096Y-12987436D01*
X3755264Y-12905362D01*
X3755254Y-12905357D01*
X3618767Y-12848822D01*
X3618759Y-12848820D01*
X3473872Y-12820000D01*
X3250000Y-12820000D01*
X3250000Y-13270000D01*
X2750000Y-13270000D01*
X2750000Y-12820000D01*
X2526128Y-12820000D01*
X2381240Y-12848820D01*
X2381232Y-12848822D01*
X2244745Y-12905357D01*
X2244735Y-12905362D01*
X2121903Y-12987436D01*
X2121899Y-12987439D01*
X2017439Y-13091899D01*
X2017436Y-13091903D01*
X1935362Y-13214735D01*
X1935357Y-13214745D01*
X1891759Y-13319999D01*
X500Y-13319999D01*
X500Y-2625321D01*
X21069500Y-2625321D01*
X21069500Y-4374678D01*
X21084032Y-4447735D01*
X21084033Y-4447739D01*
X21084034Y-4447740D01*
X21139399Y-4530601D01*
X21222260Y-4585966D01*
X21222264Y-4585967D01*
X21295321Y-4600499D01*
X21295324Y-4600500D01*
X21295326Y-4600500D01*
X23044676Y-4600500D01*
X23044677Y-4600499D01*
X23117740Y-4585966D01*
X23200601Y-4530601D01*
X23255966Y-4447740D01*
X23270500Y-4374674D01*
X23270500Y-3413389D01*
X23609500Y-3413389D01*
X23609500Y-3586611D01*
X23636598Y-3757701D01*
X23690127Y-3922445D01*
X23768768Y-4076788D01*
X23870586Y-4216928D01*
X23993072Y-4339414D01*
X24133212Y-4441232D01*
X24287555Y-4519873D01*
X24452299Y-4573402D01*
X24623389Y-4600500D01*
X24623390Y-4600500D01*
X24796610Y-4600500D01*
X24796611Y-4600500D01*
X24967701Y-4573402D01*
X25132445Y-4519873D01*
X25286788Y-4441232D01*
X25426928Y-4339414D01*
X25549414Y-4216928D01*
X25651232Y-4076788D01*
X25729873Y-3922445D01*
X25783402Y-3757701D01*
X25810500Y-3586611D01*
X25810500Y-3413389D01*
X26149500Y-3413389D01*
X26149500Y-3586611D01*
X26176598Y-3757701D01*
X26230127Y-3922445D01*
X26308768Y-4076788D01*
X26410586Y-4216928D01*
X26533072Y-4339414D01*
X26673212Y-4441232D01*
X26827555Y-4519873D01*
X26992299Y-4573402D01*
X27163389Y-4600500D01*
X27163390Y-4600500D01*
X27336610Y-4600500D01*
X27336611Y-4600500D01*
X27507701Y-4573402D01*
X27672445Y-4519873D01*
X27802928Y-4453389D01*
X53899500Y-4453389D01*
X53899500Y-4626611D01*
X53926598Y-4797701D01*
X53980127Y-4962445D01*
X54058768Y-5116788D01*
X54160586Y-5256928D01*
X54283072Y-5379414D01*
X54423212Y-5481232D01*
X54577555Y-5559873D01*
X54742299Y-5613402D01*
X54913389Y-5640500D01*
X54913390Y-5640500D01*
X55086610Y-5640500D01*
X55086611Y-5640500D01*
X55257701Y-5613402D01*
X55422445Y-5559873D01*
X55576788Y-5481232D01*
X55716928Y-5379414D01*
X55839414Y-5256928D01*
X55941232Y-5116788D01*
X56019873Y-4962445D01*
X56073402Y-4797701D01*
X56100500Y-4626611D01*
X56100500Y-4453389D01*
X56073402Y-4282299D01*
X56019873Y-4117555D01*
X55941232Y-3963212D01*
X55839414Y-3823072D01*
X55716928Y-3700586D01*
X55576788Y-3598768D01*
X55422445Y-3520127D01*
X55257701Y-3466598D01*
X55257699Y-3466597D01*
X55257698Y-3466597D01*
X55126271Y-3445781D01*
X55086611Y-3439500D01*
X54913389Y-3439500D01*
X54873728Y-3445781D01*
X54742302Y-3466597D01*
X54577552Y-3520128D01*
X54423211Y-3598768D01*
X54345619Y-3655143D01*
X54283072Y-3700586D01*
X54283070Y-3700588D01*
X54283069Y-3700588D01*
X54160588Y-3823069D01*
X54160588Y-3823070D01*
X54160586Y-3823072D01*
X54116859Y-3883256D01*
X54058768Y-3963211D01*
X53980128Y-4117552D01*
X53926597Y-4282302D01*
X53900395Y-4447739D01*
X53899500Y-4453389D01*
X27802928Y-4453389D01*
X27826788Y-4441232D01*
X27966928Y-4339414D01*
X28089414Y-4216928D01*
X28191232Y-4076788D01*
X28208103Y-4043677D01*
X28260865Y-3940125D01*
X28260865Y-3940124D01*
X28260866Y-3940123D01*
X28269871Y-3922449D01*
X28269872Y-3922447D01*
X28269873Y-3922445D01*
X28323402Y-3757701D01*
X28350500Y-3586611D01*
X28350500Y-3413389D01*
X28323402Y-3242299D01*
X28269873Y-3077555D01*
X28191232Y-2923212D01*
X28175542Y-2901617D01*
X29500000Y-2901617D01*
X29500000Y-3098382D01*
X29530778Y-3292705D01*
X29591581Y-3479835D01*
X29680905Y-3655145D01*
X29706319Y-3690125D01*
X29706320Y-3690125D01*
X30226212Y-3170233D01*
X30237482Y-3212292D01*
X30309890Y-3337708D01*
X30412292Y-3440110D01*
X30537708Y-3512518D01*
X30579764Y-3523787D01*
X30059873Y-4043677D01*
X30059873Y-4043678D01*
X30094858Y-4069096D01*
X30270164Y-4158418D01*
X30457294Y-4219221D01*
X30651618Y-4250000D01*
X30848382Y-4250000D01*
X31042705Y-4219221D01*
X31229835Y-4158418D01*
X31405143Y-4069095D01*
X31440125Y-4043678D01*
X31440126Y-4043678D01*
X30920235Y-3523787D01*
X30962292Y-3512518D01*
X31087708Y-3440110D01*
X31190110Y-3337708D01*
X31262518Y-3212292D01*
X31273787Y-3170235D01*
X31793678Y-3690126D01*
X31793678Y-3690125D01*
X31819095Y-3655143D01*
X31908418Y-3479835D01*
X31969221Y-3292705D01*
X32000000Y-3098382D01*
X32000000Y-2901617D01*
X36000000Y-2901617D01*
X36000000Y-3098382D01*
X36030778Y-3292705D01*
X36091581Y-3479835D01*
X36180905Y-3655145D01*
X36206319Y-3690125D01*
X36206320Y-3690125D01*
X36726212Y-3170233D01*
X36737482Y-3212292D01*
X36809890Y-3337708D01*
X36912292Y-3440110D01*
X37037708Y-3512518D01*
X37079764Y-3523787D01*
X36559873Y-4043677D01*
X36559873Y-4043678D01*
X36594858Y-4069096D01*
X36770164Y-4158418D01*
X36957294Y-4219221D01*
X37151618Y-4250000D01*
X37348382Y-4250000D01*
X37542705Y-4219221D01*
X37729835Y-4158418D01*
X37905143Y-4069095D01*
X37940125Y-4043678D01*
X37940126Y-4043678D01*
X37420235Y-3523787D01*
X37462292Y-3512518D01*
X37587708Y-3440110D01*
X37690110Y-3337708D01*
X37762518Y-3212292D01*
X37773787Y-3170235D01*
X38293678Y-3690126D01*
X38293678Y-3690125D01*
X38319095Y-3655143D01*
X38408418Y-3479835D01*
X38469221Y-3292705D01*
X38500000Y-3098382D01*
X38500000Y-2901617D01*
X38469221Y-2707294D01*
X38408418Y-2520164D01*
X38319096Y-2344858D01*
X38293678Y-2309873D01*
X38293677Y-2309873D01*
X37773787Y-2829764D01*
X37762518Y-2787708D01*
X37690110Y-2662292D01*
X37587708Y-2559890D01*
X37462292Y-2487482D01*
X37420234Y-2476212D01*
X37940125Y-1956320D01*
X37940125Y-1956319D01*
X37905145Y-1930905D01*
X37870768Y-1913389D01*
X53899500Y-1913389D01*
X53899500Y-2086611D01*
X53926598Y-2257701D01*
X53980127Y-2422445D01*
X54058768Y-2576788D01*
X54160586Y-2716928D01*
X54283072Y-2839414D01*
X54423212Y-2941232D01*
X54577555Y-3019873D01*
X54742299Y-3073402D01*
X54913389Y-3100500D01*
X54913390Y-3100500D01*
X55086610Y-3100500D01*
X55086611Y-3100500D01*
X55257701Y-3073402D01*
X55422445Y-3019873D01*
X55576788Y-2941232D01*
X55716928Y-2839414D01*
X55839414Y-2716928D01*
X55941232Y-2576788D01*
X56019873Y-2422445D01*
X56073402Y-2257701D01*
X56100500Y-2086611D01*
X56100500Y-1913389D01*
X56073402Y-1742299D01*
X56019873Y-1577555D01*
X55941232Y-1423212D01*
X55839414Y-1283072D01*
X55716928Y-1160586D01*
X55576788Y-1058768D01*
X55422445Y-980127D01*
X55257701Y-926598D01*
X55257699Y-926597D01*
X55257698Y-926597D01*
X55126271Y-905781D01*
X55086611Y-899500D01*
X54913389Y-899500D01*
X54873728Y-905781D01*
X54742302Y-926597D01*
X54577552Y-980128D01*
X54423211Y-1058768D01*
X54343256Y-1116859D01*
X54283072Y-1160586D01*
X54283070Y-1160588D01*
X54283069Y-1160588D01*
X54160588Y-1283069D01*
X54160588Y-1283070D01*
X54160586Y-1283072D01*
X54116859Y-1343256D01*
X54058768Y-1423211D01*
X53980128Y-1577552D01*
X53926597Y-1742302D01*
X53910873Y-1841581D01*
X53899500Y-1913389D01*
X37870768Y-1913389D01*
X37729835Y-1841581D01*
X37542705Y-1780778D01*
X37348382Y-1750000D01*
X37151618Y-1750000D01*
X36957294Y-1780778D01*
X36770161Y-1841582D01*
X36594863Y-1930899D01*
X36594859Y-1930902D01*
X36559873Y-1956320D01*
X36559872Y-1956320D01*
X37079765Y-2476212D01*
X37037708Y-2487482D01*
X36912292Y-2559890D01*
X36809890Y-2662292D01*
X36737482Y-2787708D01*
X36726212Y-2829765D01*
X36206320Y-2309872D01*
X36206320Y-2309873D01*
X36180902Y-2344859D01*
X36180899Y-2344863D01*
X36091582Y-2520161D01*
X36030778Y-2707294D01*
X36000000Y-2901617D01*
X32000000Y-2901617D01*
X31969221Y-2707294D01*
X31908418Y-2520164D01*
X31819096Y-2344858D01*
X31793678Y-2309873D01*
X31793677Y-2309873D01*
X31273787Y-2829764D01*
X31262518Y-2787708D01*
X31190110Y-2662292D01*
X31087708Y-2559890D01*
X30962292Y-2487482D01*
X30920234Y-2476212D01*
X31440125Y-1956320D01*
X31440125Y-1956319D01*
X31405145Y-1930905D01*
X31229835Y-1841581D01*
X31042705Y-1780778D01*
X30848382Y-1750000D01*
X30651618Y-1750000D01*
X30457294Y-1780778D01*
X30270161Y-1841582D01*
X30094863Y-1930899D01*
X30094859Y-1930902D01*
X30059873Y-1956320D01*
X30059872Y-1956320D01*
X30579765Y-2476212D01*
X30537708Y-2487482D01*
X30412292Y-2559890D01*
X30309890Y-2662292D01*
X30237482Y-2787708D01*
X30226212Y-2829765D01*
X29706320Y-2309872D01*
X29706320Y-2309873D01*
X29680902Y-2344859D01*
X29680899Y-2344863D01*
X29591582Y-2520161D01*
X29530778Y-2707294D01*
X29500000Y-2901617D01*
X28175542Y-2901617D01*
X28089414Y-2783072D01*
X27966928Y-2660586D01*
X27826788Y-2558768D01*
X27672445Y-2480127D01*
X27507701Y-2426598D01*
X27507699Y-2426597D01*
X27507698Y-2426597D01*
X27376271Y-2405781D01*
X27336611Y-2399500D01*
X27163389Y-2399500D01*
X27123728Y-2405781D01*
X26992302Y-2426597D01*
X26827552Y-2480128D01*
X26673211Y-2558768D01*
X26593256Y-2616859D01*
X26533072Y-2660586D01*
X26533070Y-2660588D01*
X26533069Y-2660588D01*
X26410588Y-2783069D01*
X26410588Y-2783070D01*
X26410586Y-2783072D01*
X26407218Y-2787708D01*
X26308768Y-2923211D01*
X26230128Y-3077552D01*
X26176597Y-3242302D01*
X26158977Y-3353553D01*
X26149500Y-3413389D01*
X25810500Y-3413389D01*
X25783402Y-3242299D01*
X25729873Y-3077555D01*
X25651232Y-2923212D01*
X25549414Y-2783072D01*
X25426928Y-2660586D01*
X25286788Y-2558768D01*
X25132445Y-2480127D01*
X24967701Y-2426598D01*
X24967699Y-2426597D01*
X24967698Y-2426597D01*
X24836271Y-2405781D01*
X24796611Y-2399500D01*
X24623389Y-2399500D01*
X24583728Y-2405781D01*
X24452302Y-2426597D01*
X24287552Y-2480128D01*
X24133211Y-2558768D01*
X24053256Y-2616859D01*
X23993072Y-2660586D01*
X23993070Y-2660588D01*
X23993069Y-2660588D01*
X23870588Y-2783069D01*
X23870588Y-2783070D01*
X23870586Y-2783072D01*
X23867218Y-2787708D01*
X23768768Y-2923211D01*
X23690128Y-3077552D01*
X23636597Y-3242302D01*
X23618977Y-3353553D01*
X23609500Y-3413389D01*
X23270500Y-3413389D01*
X23270500Y-2625326D01*
X23270500Y-2625323D01*
X23270499Y-2625321D01*
X23255967Y-2552264D01*
X23255966Y-2552260D01*
X23200601Y-2469399D01*
X23117740Y-2414034D01*
X23117739Y-2414033D01*
X23117735Y-2414032D01*
X23044677Y-2399500D01*
X23044674Y-2399500D01*
X21295326Y-2399500D01*
X21295323Y-2399500D01*
X21222264Y-2414032D01*
X21222260Y-2414033D01*
X21139399Y-2469399D01*
X21084033Y-2552260D01*
X21084032Y-2552264D01*
X21069500Y-2625321D01*
X500Y-2625321D01*
X500Y-124500D01*
X20185Y-57461D01*
X72989Y-11706D01*
X124500Y-500D01*
X59125500Y-500D01*
X59192539Y-20185D01*
G37*
%TD.AperFunction*%
%TA.AperFunction,Conductor*%
G36*
X44013561Y-15178030D02*
G01*
X44024312Y-15176796D01*
X44046500Y-15187702D01*
X44070218Y-15194667D01*
X44078642Y-15203501D01*
X44087016Y-15207618D01*
X44109360Y-15234939D01*
X44111234Y-15238047D01*
X44111281Y-15238220D01*
X44183756Y-15363750D01*
X44192062Y-15372056D01*
X44199872Y-15385004D01*
X44217691Y-15449047D01*
X44217691Y-24929303D01*
X44198006Y-24996342D01*
X44145202Y-25042097D01*
X44076044Y-25052041D01*
X44012488Y-25023016D01*
X43986304Y-24991304D01*
X43985647Y-24990167D01*
X43940509Y-24911985D01*
X43838015Y-24809491D01*
X43838013Y-24809490D01*
X43838011Y-24809488D01*
X43712488Y-24737017D01*
X43712489Y-24737017D01*
X43701006Y-24733940D01*
X43572475Y-24699500D01*
X43572472Y-24699500D01*
X43531899Y-24699500D01*
X43464860Y-24679815D01*
X43444218Y-24663181D01*
X42761819Y-23980782D01*
X42728334Y-23919459D01*
X42725500Y-23893101D01*
X42725500Y-18054384D01*
X42745185Y-17987345D01*
X42761819Y-17966703D01*
X42790509Y-17938013D01*
X42862984Y-17812483D01*
X42900500Y-17672473D01*
X42900500Y-17527523D01*
X42862984Y-17387513D01*
X42829309Y-17329187D01*
X42812837Y-17261289D01*
X42835689Y-17195262D01*
X42849005Y-17179518D01*
X42940509Y-17088015D01*
X43012984Y-16962485D01*
X43050500Y-16822475D01*
X43050500Y-16677525D01*
X43012984Y-16537515D01*
X42940509Y-16411985D01*
X42838015Y-16309491D01*
X42838013Y-16309490D01*
X42838011Y-16309488D01*
X42712488Y-16237017D01*
X42712489Y-16237017D01*
X42701006Y-16233940D01*
X42572475Y-16199500D01*
X42427525Y-16199500D01*
X42298993Y-16233940D01*
X42287511Y-16237017D01*
X42161988Y-16309488D01*
X42161982Y-16309493D01*
X42134838Y-16336638D01*
X42073515Y-16370123D01*
X42047157Y-16372957D01*
X38769944Y-16372957D01*
X38702905Y-16353272D01*
X38682263Y-16336638D01*
X37732288Y-15386663D01*
X37698803Y-15325340D01*
X37703787Y-15255648D01*
X37745659Y-15199715D01*
X37811123Y-15175298D01*
X37819969Y-15174982D01*
X44003179Y-15174982D01*
X44013561Y-15178030D01*
G37*
%TD.AperFunction*%
%TA.AperFunction,Conductor*%
G36*
X41342539Y-17093642D02*
G01*
X41388294Y-17146446D01*
X41399500Y-17197957D01*
X41399500Y-18995157D01*
X41410571Y-19036476D01*
X41410572Y-19036478D01*
X41413540Y-19047554D01*
X41423386Y-19084301D01*
X41469530Y-19164225D01*
X41473683Y-19168378D01*
X41480876Y-19183411D01*
X41484475Y-19205619D01*
X41492590Y-19226604D01*
X41493021Y-19236931D01*
X41493021Y-19346023D01*
X41473336Y-19413062D01*
X41470353Y-19417303D01*
X41425912Y-19494278D01*
X41423387Y-19498650D01*
X41423386Y-19498653D01*
X41399500Y-19587797D01*
X41399500Y-19604456D01*
X41379815Y-19671495D01*
X41327011Y-19717250D01*
X41257853Y-19727194D01*
X41194297Y-19698169D01*
X41187819Y-19692137D01*
X38781320Y-17285638D01*
X38747835Y-17224315D01*
X38752819Y-17154623D01*
X38794691Y-17098690D01*
X38860155Y-17074273D01*
X38869001Y-17073957D01*
X41275500Y-17073957D01*
X41342539Y-17093642D01*
G37*
%TD.AperFunction*%
%TA.AperFunction,Conductor*%
G36*
X24499508Y-6569185D02*
G01*
X24545263Y-6621989D01*
X24555207Y-6691147D01*
X24526182Y-6754703D01*
X24494470Y-6780887D01*
X24366985Y-6854491D01*
X24366982Y-6854493D01*
X24264493Y-6956982D01*
X24264488Y-6956988D01*
X24192017Y-7082511D01*
X24192016Y-7082515D01*
X24154500Y-7222525D01*
X24154500Y-7367475D01*
X24172206Y-7433553D01*
X24192017Y-7507488D01*
X24264488Y-7633011D01*
X24264490Y-7633013D01*
X24264491Y-7633015D01*
X24366985Y-7735509D01*
X24366986Y-7735510D01*
X24366988Y-7735511D01*
X24492511Y-7807982D01*
X24492512Y-7807982D01*
X24492515Y-7807984D01*
X24632525Y-7845500D01*
X24708456Y-7845500D01*
X24775495Y-7865185D01*
X24796137Y-7881819D01*
X30250586Y-13336267D01*
X30284071Y-13397590D01*
X30286905Y-13423948D01*
X30286905Y-13425274D01*
X30286905Y-13570224D01*
X30311869Y-13663389D01*
X30324422Y-13710237D01*
X30396893Y-13835760D01*
X30396895Y-13835762D01*
X30396896Y-13835764D01*
X30499390Y-13938258D01*
X30499391Y-13938259D01*
X30499393Y-13938260D01*
X30624916Y-14010731D01*
X30624917Y-14010731D01*
X30624920Y-14010733D01*
X30764930Y-14048249D01*
X30764933Y-14048249D01*
X30909877Y-14048249D01*
X30909880Y-14048249D01*
X31049890Y-14010733D01*
X31175420Y-13938258D01*
X31277914Y-13835764D01*
X31350389Y-13710234D01*
X31387905Y-13570224D01*
X31387905Y-13425274D01*
X31350389Y-13285264D01*
X31341576Y-13270000D01*
X31277916Y-13159737D01*
X31277911Y-13159731D01*
X31175422Y-13057242D01*
X31175416Y-13057237D01*
X31049893Y-12984766D01*
X31049894Y-12984766D01*
X31038411Y-12981689D01*
X30909880Y-12947249D01*
X30909877Y-12947249D01*
X30904292Y-12947249D01*
X30837253Y-12927564D01*
X30816611Y-12910930D01*
X25291819Y-7386137D01*
X25258334Y-7324814D01*
X25255500Y-7298456D01*
X25255500Y-7222527D01*
X25255500Y-7222525D01*
X25217984Y-7082515D01*
X25216531Y-7079999D01*
X25145511Y-6956988D01*
X25145506Y-6956982D01*
X25043017Y-6854493D01*
X25043015Y-6854491D01*
X24917485Y-6782016D01*
X24915530Y-6780887D01*
X24867315Y-6730319D01*
X24854093Y-6661712D01*
X24880061Y-6596848D01*
X24936975Y-6556320D01*
X24977531Y-6549500D01*
X29651512Y-6549500D01*
X29718551Y-6569185D01*
X29764306Y-6621989D01*
X29774250Y-6691147D01*
X29751830Y-6746384D01*
X29732498Y-6772993D01*
X29680476Y-6844594D01*
X29591117Y-7019970D01*
X29530290Y-7207173D01*
X29499500Y-7401577D01*
X29499500Y-7598422D01*
X29530290Y-7792826D01*
X29591117Y-7980029D01*
X29651944Y-8099408D01*
X29680476Y-8155405D01*
X29796172Y-8314646D01*
X29935354Y-8453828D01*
X30094595Y-8569524D01*
X30145182Y-8595299D01*
X30269970Y-8658882D01*
X30269972Y-8658882D01*
X30269975Y-8658884D01*
X30343436Y-8682753D01*
X30457173Y-8719709D01*
X30651578Y-8750500D01*
X30651583Y-8750500D01*
X30848422Y-8750500D01*
X31042826Y-8719709D01*
X31100501Y-8700969D01*
X31230025Y-8658884D01*
X31405405Y-8569524D01*
X31564646Y-8453828D01*
X31703828Y-8314646D01*
X31819524Y-8155405D01*
X31908884Y-7980025D01*
X31969709Y-7792826D01*
X31978787Y-7735509D01*
X32000500Y-7598422D01*
X32000500Y-7401577D01*
X31969709Y-7207173D01*
X31941487Y-7120317D01*
X31908884Y-7019975D01*
X31908882Y-7019972D01*
X31908882Y-7019970D01*
X31828386Y-6861988D01*
X31819524Y-6844595D01*
X31748169Y-6746384D01*
X31724690Y-6680580D01*
X31740515Y-6612526D01*
X31790621Y-6563831D01*
X31848488Y-6549500D01*
X36151512Y-6549500D01*
X36218551Y-6569185D01*
X36264306Y-6621989D01*
X36274250Y-6691147D01*
X36251830Y-6746384D01*
X36232498Y-6772993D01*
X36180476Y-6844594D01*
X36091117Y-7019970D01*
X36030290Y-7207173D01*
X35999500Y-7401577D01*
X35999500Y-7598422D01*
X36030290Y-7792826D01*
X36091117Y-7980029D01*
X36151944Y-8099408D01*
X36180476Y-8155405D01*
X36296172Y-8314646D01*
X36435354Y-8453828D01*
X36594595Y-8569524D01*
X36769973Y-8658883D01*
X36769974Y-8658883D01*
X36769975Y-8658884D01*
X36813818Y-8673129D01*
X36871492Y-8712565D01*
X36898692Y-8776923D01*
X36899500Y-8791060D01*
X36899500Y-10796144D01*
X36901886Y-10805047D01*
X36912702Y-10845413D01*
X36912702Y-10845414D01*
X36923385Y-10885286D01*
X36969527Y-10965208D01*
X36969531Y-10965213D01*
X37413181Y-11408863D01*
X37446666Y-11470186D01*
X37449500Y-11496544D01*
X37449500Y-12120614D01*
X37429815Y-12187653D01*
X37413181Y-12208295D01*
X37359493Y-12261982D01*
X37359488Y-12261988D01*
X37287017Y-12387511D01*
X37287016Y-12387515D01*
X37249500Y-12527525D01*
X37249500Y-12672475D01*
X37286020Y-12808768D01*
X37287017Y-12812488D01*
X37359488Y-12938011D01*
X37359490Y-12938013D01*
X37359491Y-12938015D01*
X37461985Y-13040509D01*
X37461986Y-13040510D01*
X37461988Y-13040511D01*
X37587511Y-13112982D01*
X37587512Y-13112982D01*
X37587515Y-13112984D01*
X37727525Y-13150500D01*
X37727528Y-13150500D01*
X37872472Y-13150500D01*
X37872475Y-13150500D01*
X38012485Y-13112984D01*
X38138015Y-13040509D01*
X38240509Y-12938015D01*
X38312984Y-12812485D01*
X38350500Y-12672475D01*
X38350500Y-12527525D01*
X38312984Y-12387515D01*
X38311265Y-12384538D01*
X38240511Y-12261988D01*
X38240506Y-12261982D01*
X38186819Y-12208295D01*
X38153334Y-12146972D01*
X38150500Y-12120614D01*
X38150500Y-11253858D01*
X38150500Y-11253856D01*
X38126614Y-11164712D01*
X38104721Y-11126793D01*
X38104721Y-11126792D01*
X38104719Y-11126790D01*
X38080471Y-11084790D01*
X38080467Y-11084785D01*
X37636819Y-10641137D01*
X37603334Y-10579814D01*
X37600500Y-10553456D01*
X37600500Y-8791060D01*
X37620185Y-8724021D01*
X37672989Y-8678266D01*
X37686172Y-8673132D01*
X37730025Y-8658884D01*
X37905405Y-8569524D01*
X38064646Y-8453828D01*
X38203828Y-8314646D01*
X38319524Y-8155405D01*
X38408884Y-7980025D01*
X38469709Y-7792826D01*
X38478787Y-7735509D01*
X38500500Y-7598422D01*
X38500500Y-7401577D01*
X38469709Y-7207173D01*
X38441487Y-7120317D01*
X38408884Y-7019975D01*
X38408882Y-7019972D01*
X38408882Y-7019970D01*
X38328386Y-6861988D01*
X38319524Y-6844595D01*
X38248169Y-6746384D01*
X38224690Y-6680580D01*
X38240515Y-6612526D01*
X38290621Y-6563831D01*
X38348488Y-6549500D01*
X40686770Y-6549500D01*
X40753809Y-6569185D01*
X40774451Y-6585819D01*
X41955251Y-7766619D01*
X41988736Y-7827942D01*
X41983752Y-7897634D01*
X41941880Y-7953567D01*
X41899665Y-7974074D01*
X41772861Y-8008052D01*
X41772856Y-8008054D01*
X41647333Y-8080525D01*
X41647327Y-8080530D01*
X41544838Y-8183019D01*
X41544833Y-8183025D01*
X41472362Y-8308548D01*
X41472361Y-8308552D01*
X41434845Y-8448562D01*
X41434845Y-8593512D01*
X41466746Y-8712565D01*
X41472362Y-8733525D01*
X41544833Y-8859048D01*
X41544835Y-8859050D01*
X41544836Y-8859052D01*
X41647330Y-8961546D01*
X41647331Y-8961547D01*
X41647333Y-8961548D01*
X41772856Y-9034019D01*
X41772857Y-9034019D01*
X41772860Y-9034021D01*
X41807594Y-9043328D01*
X41867253Y-9079691D01*
X41897783Y-9142538D01*
X41899500Y-9163102D01*
X41899500Y-10296144D01*
X41904885Y-10316239D01*
X41919424Y-10370500D01*
X41919424Y-10370502D01*
X41923385Y-10385287D01*
X41969527Y-10465208D01*
X41969531Y-10465213D01*
X42913181Y-11408863D01*
X42946666Y-11470186D01*
X42949500Y-11496544D01*
X42949500Y-11572475D01*
X42952250Y-11582737D01*
X42987017Y-11712488D01*
X43059488Y-11838011D01*
X43059490Y-11838013D01*
X43059491Y-11838015D01*
X43161985Y-11940509D01*
X43161986Y-11940510D01*
X43161988Y-11940511D01*
X43287511Y-12012982D01*
X43287512Y-12012982D01*
X43287515Y-12012984D01*
X43427525Y-12050500D01*
X43427528Y-12050500D01*
X43572472Y-12050500D01*
X43572475Y-12050500D01*
X43712485Y-12012984D01*
X43838015Y-11940509D01*
X43940509Y-11838015D01*
X44012984Y-11712485D01*
X44050500Y-11572475D01*
X44050500Y-11427525D01*
X44012984Y-11287515D01*
X43995703Y-11257584D01*
X43940511Y-11161988D01*
X43940506Y-11161982D01*
X43838017Y-11059493D01*
X43838011Y-11059488D01*
X43712488Y-10987017D01*
X43712489Y-10987017D01*
X43696706Y-10982788D01*
X43572475Y-10949500D01*
X43572472Y-10949500D01*
X43496544Y-10949500D01*
X43429505Y-10929815D01*
X43408863Y-10913181D01*
X42636819Y-10141137D01*
X42603334Y-10079814D01*
X42600500Y-10053456D01*
X42600500Y-8739551D01*
X42600500Y-8739548D01*
X42600336Y-8738936D01*
X42600348Y-8738401D01*
X42599439Y-8731492D01*
X42600516Y-8731350D01*
X42601995Y-8669090D01*
X42641154Y-8611225D01*
X42705380Y-8583717D01*
X42774283Y-8595299D01*
X42807790Y-8619158D01*
X46917048Y-12728416D01*
X47066638Y-12878005D01*
X47100122Y-12939326D01*
X47102956Y-12965685D01*
X47102956Y-14525602D01*
X47083271Y-14592641D01*
X47030467Y-14638396D01*
X46961309Y-14648340D01*
X46946867Y-14645377D01*
X46924931Y-14639500D01*
X46779981Y-14639500D01*
X46653944Y-14673272D01*
X46639967Y-14677017D01*
X46514444Y-14749488D01*
X46514438Y-14749493D01*
X46425751Y-14838181D01*
X46364428Y-14871666D01*
X46338070Y-14874500D01*
X45924363Y-14874500D01*
X45857324Y-14854815D01*
X45836682Y-14838181D01*
X45745714Y-14747213D01*
X45745708Y-14747208D01*
X45620185Y-14674737D01*
X45620186Y-14674737D01*
X45608703Y-14671660D01*
X45480172Y-14637220D01*
X45335222Y-14637220D01*
X45251216Y-14659729D01*
X45195210Y-14674736D01*
X45195207Y-14674738D01*
X45186678Y-14679662D01*
X45118777Y-14696129D01*
X45052752Y-14673272D01*
X45037005Y-14659951D01*
X44962282Y-14585228D01*
X44962276Y-14585223D01*
X44836753Y-14512752D01*
X44836754Y-14512752D01*
X44825271Y-14509675D01*
X44696740Y-14475235D01*
X44551790Y-14475235D01*
X44551786Y-14475235D01*
X44544899Y-14477081D01*
X44480722Y-14477081D01*
X44469156Y-14473982D01*
X44469155Y-14473982D01*
X29521025Y-14473982D01*
X29453986Y-14454297D01*
X29433344Y-14437663D01*
X28586819Y-13591137D01*
X28553334Y-13529814D01*
X28550500Y-13503456D01*
X28550500Y-13427527D01*
X28550500Y-13427525D01*
X28512984Y-13287515D01*
X28511684Y-13285264D01*
X28440511Y-13161988D01*
X28440506Y-13161982D01*
X28338017Y-13059493D01*
X28338011Y-13059488D01*
X28212488Y-12987017D01*
X28212489Y-12987017D01*
X28201006Y-12983940D01*
X28072475Y-12949500D01*
X27927525Y-12949500D01*
X27798993Y-12983940D01*
X27787511Y-12987017D01*
X27661988Y-13059488D01*
X27661982Y-13059493D01*
X27559493Y-13161982D01*
X27559488Y-13161988D01*
X27482952Y-13294553D01*
X27480212Y-13292971D01*
X27445719Y-13335774D01*
X27379425Y-13357838D01*
X27311726Y-13340558D01*
X27268248Y-13293859D01*
X27267048Y-13294553D01*
X27190511Y-13161988D01*
X27190506Y-13161982D01*
X27088017Y-13059493D01*
X27088011Y-13059488D01*
X26962488Y-12987017D01*
X26962489Y-12987017D01*
X26951006Y-12983940D01*
X26822475Y-12949500D01*
X26677525Y-12949500D01*
X26548993Y-12983940D01*
X26537511Y-12987017D01*
X26411988Y-13059488D01*
X26411982Y-13059493D01*
X26309493Y-13161982D01*
X26309486Y-13161991D01*
X26298135Y-13181652D01*
X26247567Y-13229866D01*
X26178960Y-13243087D01*
X26114096Y-13217117D01*
X26103069Y-13207330D01*
X22586819Y-9691080D01*
X22553334Y-9629757D01*
X22550500Y-9603399D01*
X22550500Y-7679386D01*
X22570185Y-7612347D01*
X22586819Y-7591705D01*
X22598524Y-7580000D01*
X22640509Y-7538015D01*
X22712984Y-7412485D01*
X22750500Y-7272475D01*
X22750500Y-7127525D01*
X22712984Y-6987515D01*
X22695357Y-6956985D01*
X22640511Y-6861988D01*
X22640506Y-6861982D01*
X22539705Y-6761181D01*
X22506220Y-6699858D01*
X22511204Y-6630166D01*
X22553076Y-6574233D01*
X22618540Y-6549816D01*
X22627386Y-6549500D01*
X24432469Y-6549500D01*
X24499508Y-6569185D01*
G37*
%TD.AperFunction*%
%TD*%
M02*
