%TF.GenerationSoftware,KiCad,Pcbnew,7.0.1*%
%TF.CreationDate,2025-01-26T23:07:24-05:00*%
%TF.ProjectId,TrackNodeAccel-panel,54726163-6b4e-46f6-9465-416363656c2d,rev?*%
%TF.SameCoordinates,Original*%
%TF.FileFunction,Soldermask,Bot*%
%TF.FilePolarity,Negative*%
%FSLAX46Y46*%
G04 Gerber Fmt 4.6, Leading zero omitted, Abs format (unit mm)*
G04 Created by KiCad (PCBNEW 7.0.1) date 2025-01-26 23:07:24*
%MOMM*%
%LPD*%
G01*
G04 APERTURE LIST*
%ADD10R,1.700000X1.700000*%
%ADD11O,1.700000X1.700000*%
G04 APERTURE END LIST*
D10*
%TO.C,J1*%
X122350000Y-88650000D03*
D11*
X119810000Y-88650000D03*
X117270000Y-88650000D03*
X114730000Y-88650000D03*
%TD*%
D10*
%TO.C,J1*%
X167350000Y-73650000D03*
D11*
X164810000Y-73650000D03*
X162270000Y-73650000D03*
X159730000Y-73650000D03*
%TD*%
D10*
%TO.C,J1*%
X182350000Y-73650000D03*
D11*
X179810000Y-73650000D03*
X177270000Y-73650000D03*
X174730000Y-73650000D03*
%TD*%
D10*
%TO.C,J1*%
X137350000Y-88650000D03*
D11*
X134810000Y-88650000D03*
X132270000Y-88650000D03*
X129730000Y-88650000D03*
%TD*%
D10*
%TO.C,J1*%
X167350000Y-43650000D03*
D11*
X164810000Y-43650000D03*
X162270000Y-43650000D03*
X159730000Y-43650000D03*
%TD*%
D10*
%TO.C,J1*%
X122350000Y-73650000D03*
D11*
X119810000Y-73650000D03*
X117270000Y-73650000D03*
X114730000Y-73650000D03*
%TD*%
D10*
%TO.C,J1*%
X152350000Y-73650000D03*
D11*
X149810000Y-73650000D03*
X147270000Y-73650000D03*
X144730000Y-73650000D03*
%TD*%
D10*
%TO.C,J1*%
X137350000Y-73650000D03*
D11*
X134810000Y-73650000D03*
X132270000Y-73650000D03*
X129730000Y-73650000D03*
%TD*%
D10*
%TO.C,J1*%
X152350000Y-28650000D03*
D11*
X149810000Y-28650000D03*
X147270000Y-28650000D03*
X144730000Y-28650000D03*
%TD*%
D10*
%TO.C,J1*%
X152350000Y-88650000D03*
D11*
X149810000Y-88650000D03*
X147270000Y-88650000D03*
X144730000Y-88650000D03*
%TD*%
D10*
%TO.C,J1*%
X167350000Y-88650000D03*
D11*
X164810000Y-88650000D03*
X162270000Y-88650000D03*
X159730000Y-88650000D03*
%TD*%
D10*
%TO.C,J1*%
X137350000Y-28650000D03*
D11*
X134810000Y-28650000D03*
X132270000Y-28650000D03*
X129730000Y-28650000D03*
%TD*%
D10*
%TO.C,J1*%
X182350000Y-88650000D03*
D11*
X179810000Y-88650000D03*
X177270000Y-88650000D03*
X174730000Y-88650000D03*
%TD*%
D10*
%TO.C,J1*%
X122350000Y-28650000D03*
D11*
X119810000Y-28650000D03*
X117270000Y-28650000D03*
X114730000Y-28650000D03*
%TD*%
D10*
%TO.C,J1*%
X152350000Y-43650000D03*
D11*
X149810000Y-43650000D03*
X147270000Y-43650000D03*
X144730000Y-43650000D03*
%TD*%
D10*
%TO.C,J1*%
X167350000Y-28650000D03*
D11*
X164810000Y-28650000D03*
X162270000Y-28650000D03*
X159730000Y-28650000D03*
%TD*%
D10*
%TO.C,J1*%
X182350000Y-43650000D03*
D11*
X179810000Y-43650000D03*
X177270000Y-43650000D03*
X174730000Y-43650000D03*
%TD*%
D10*
%TO.C,J1*%
X137350000Y-58650000D03*
D11*
X134810000Y-58650000D03*
X132270000Y-58650000D03*
X129730000Y-58650000D03*
%TD*%
D10*
%TO.C,J1*%
X137350000Y-43650000D03*
D11*
X134810000Y-43650000D03*
X132270000Y-43650000D03*
X129730000Y-43650000D03*
%TD*%
D10*
%TO.C,J1*%
X122350000Y-43650000D03*
D11*
X119810000Y-43650000D03*
X117270000Y-43650000D03*
X114730000Y-43650000D03*
%TD*%
D10*
%TO.C,J1*%
X122350000Y-58650000D03*
D11*
X119810000Y-58650000D03*
X117270000Y-58650000D03*
X114730000Y-58650000D03*
%TD*%
D10*
%TO.C,J1*%
X167350000Y-58650000D03*
D11*
X164810000Y-58650000D03*
X162270000Y-58650000D03*
X159730000Y-58650000D03*
%TD*%
D10*
%TO.C,J1*%
X182350000Y-58650000D03*
D11*
X179810000Y-58650000D03*
X177270000Y-58650000D03*
X174730000Y-58650000D03*
%TD*%
D10*
%TO.C,J1*%
X182350000Y-28650000D03*
D11*
X179810000Y-28650000D03*
X177270000Y-28650000D03*
X174730000Y-28650000D03*
%TD*%
D10*
%TO.C,J1*%
X152350000Y-58650000D03*
D11*
X149810000Y-58650000D03*
X147270000Y-58650000D03*
X144730000Y-58650000D03*
%TD*%
D10*
%TO.C,J2*%
X182340000Y-70000000D03*
D11*
X179800000Y-70000000D03*
%TD*%
D10*
%TO.C,J2*%
X152340000Y-85000000D03*
D11*
X149800000Y-85000000D03*
%TD*%
D10*
%TO.C,J2*%
X152340000Y-70000000D03*
D11*
X149800000Y-70000000D03*
%TD*%
D10*
%TO.C,J2*%
X167340000Y-70000000D03*
D11*
X164800000Y-70000000D03*
%TD*%
D10*
%TO.C,J2*%
X122340000Y-85000000D03*
D11*
X119800000Y-85000000D03*
%TD*%
D10*
%TO.C,J2*%
X137340000Y-85000000D03*
D11*
X134800000Y-85000000D03*
%TD*%
D10*
%TO.C,J2*%
X182340000Y-85000000D03*
D11*
X179800000Y-85000000D03*
%TD*%
D10*
%TO.C,J2*%
X137340000Y-25000000D03*
D11*
X134800000Y-25000000D03*
%TD*%
D10*
%TO.C,J2*%
X122340000Y-70000000D03*
D11*
X119800000Y-70000000D03*
%TD*%
D10*
%TO.C,J2*%
X122340000Y-25000000D03*
D11*
X119800000Y-25000000D03*
%TD*%
D10*
%TO.C,J2*%
X137340000Y-70000000D03*
D11*
X134800000Y-70000000D03*
%TD*%
D10*
%TO.C,J2*%
X167340000Y-85000000D03*
D11*
X164800000Y-85000000D03*
%TD*%
D10*
%TO.C,J2*%
X137340000Y-40000000D03*
D11*
X134800000Y-40000000D03*
%TD*%
D10*
%TO.C,J2*%
X137340000Y-55000000D03*
D11*
X134800000Y-55000000D03*
%TD*%
D10*
%TO.C,J2*%
X167340000Y-25000000D03*
D11*
X164800000Y-25000000D03*
%TD*%
D10*
%TO.C,J2*%
X167340000Y-55000000D03*
D11*
X164800000Y-55000000D03*
%TD*%
D10*
%TO.C,J2*%
X182340000Y-40000000D03*
D11*
X179800000Y-40000000D03*
%TD*%
D10*
%TO.C,J2*%
X152340000Y-55000000D03*
D11*
X149800000Y-55000000D03*
%TD*%
D10*
%TO.C,J2*%
X122340000Y-40000000D03*
D11*
X119800000Y-40000000D03*
%TD*%
D10*
%TO.C,J2*%
X152340000Y-25000000D03*
D11*
X149800000Y-25000000D03*
%TD*%
D10*
%TO.C,J2*%
X152340000Y-40000000D03*
D11*
X149800000Y-40000000D03*
%TD*%
D10*
%TO.C,J2*%
X182340000Y-25000000D03*
D11*
X179800000Y-25000000D03*
%TD*%
D10*
%TO.C,J2*%
X167340000Y-40000000D03*
D11*
X164800000Y-40000000D03*
%TD*%
D10*
%TO.C,J2*%
X122340000Y-55000000D03*
D11*
X119800000Y-55000000D03*
%TD*%
D10*
%TO.C,J2*%
X182340000Y-55000000D03*
D11*
X179800000Y-55000000D03*
%TD*%
M02*
