%TF.GenerationSoftware,KiCad,Pcbnew,7.0.1*%
%TF.CreationDate,2025-01-26T23:07:24-05:00*%
%TF.ProjectId,TrackNodeAccel-panel,54726163-6b4e-46f6-9465-416363656c2d,rev?*%
%TF.SameCoordinates,Original*%
%TF.FileFunction,Soldermask,Top*%
%TF.FilePolarity,Negative*%
%FSLAX46Y46*%
G04 Gerber Fmt 4.6, Leading zero omitted, Abs format (unit mm)*
G04 Created by KiCad (PCBNEW 7.0.1) date 2025-01-26 23:07:24*
%MOMM*%
%LPD*%
G01*
G04 APERTURE LIST*
G04 Aperture macros list*
%AMRoundRect*
0 Rectangle with rounded corners*
0 $1 Rounding radius*
0 $2 $3 $4 $5 $6 $7 $8 $9 X,Y pos of 4 corners*
0 Add a 4 corners polygon primitive as box body*
4,1,4,$2,$3,$4,$5,$6,$7,$8,$9,$2,$3,0*
0 Add four circle primitives for the rounded corners*
1,1,$1+$1,$2,$3*
1,1,$1+$1,$4,$5*
1,1,$1+$1,$6,$7*
1,1,$1+$1,$8,$9*
0 Add four rect primitives between the rounded corners*
20,1,$1+$1,$2,$3,$4,$5,0*
20,1,$1+$1,$4,$5,$6,$7,0*
20,1,$1+$1,$6,$7,$8,$9,0*
20,1,$1+$1,$8,$9,$2,$3,0*%
G04 Aperture macros list end*
%ADD10RoundRect,0.135000X-0.185000X0.135000X-0.185000X-0.135000X0.185000X-0.135000X0.185000X0.135000X0*%
%ADD11RoundRect,0.140000X0.140000X0.170000X-0.140000X0.170000X-0.140000X-0.170000X0.140000X-0.170000X0*%
%ADD12RoundRect,0.218750X0.256250X-0.218750X0.256250X0.218750X-0.256250X0.218750X-0.256250X-0.218750X0*%
%ADD13R,0.375000X0.350000*%
%ADD14R,0.350000X0.375000*%
%ADD15RoundRect,0.135000X0.185000X-0.135000X0.185000X0.135000X-0.185000X0.135000X-0.185000X-0.135000X0*%
%ADD16R,0.700000X0.510000*%
%ADD17R,1.700000X1.700000*%
%ADD18O,1.700000X1.700000*%
G04 APERTURE END LIST*
D10*
%TO.C,R2*%
X129000000Y-90990000D03*
X129000000Y-92010000D03*
%TD*%
%TO.C,R2*%
X174000000Y-90990000D03*
X174000000Y-92010000D03*
%TD*%
%TO.C,R2*%
X159000000Y-75990000D03*
X159000000Y-77010000D03*
%TD*%
%TO.C,R2*%
X159000000Y-90990000D03*
X159000000Y-92010000D03*
%TD*%
%TO.C,R2*%
X174000000Y-75990000D03*
X174000000Y-77010000D03*
%TD*%
%TO.C,R2*%
X114000000Y-90990000D03*
X114000000Y-92010000D03*
%TD*%
%TO.C,R2*%
X114000000Y-30990000D03*
X114000000Y-32010000D03*
%TD*%
%TO.C,R2*%
X144000000Y-90990000D03*
X144000000Y-92010000D03*
%TD*%
%TO.C,R2*%
X159000000Y-30990000D03*
X159000000Y-32010000D03*
%TD*%
%TO.C,R2*%
X129000000Y-45990000D03*
X129000000Y-47010000D03*
%TD*%
%TO.C,R2*%
X174000000Y-45990000D03*
X174000000Y-47010000D03*
%TD*%
%TO.C,R2*%
X129000000Y-60990000D03*
X129000000Y-62010000D03*
%TD*%
%TO.C,R2*%
X174000000Y-30990000D03*
X174000000Y-32010000D03*
%TD*%
%TO.C,R2*%
X144000000Y-30990000D03*
X144000000Y-32010000D03*
%TD*%
%TO.C,R2*%
X159000000Y-45990000D03*
X159000000Y-47010000D03*
%TD*%
%TO.C,R2*%
X129000000Y-75990000D03*
X129000000Y-77010000D03*
%TD*%
%TO.C,R2*%
X129000000Y-30990000D03*
X129000000Y-32010000D03*
%TD*%
%TO.C,R2*%
X114000000Y-75990000D03*
X114000000Y-77010000D03*
%TD*%
%TO.C,R2*%
X144000000Y-75990000D03*
X144000000Y-77010000D03*
%TD*%
%TO.C,R2*%
X114000000Y-45990000D03*
X114000000Y-47010000D03*
%TD*%
%TO.C,R2*%
X144000000Y-45990000D03*
X144000000Y-47010000D03*
%TD*%
%TO.C,R2*%
X114000000Y-60990000D03*
X114000000Y-62010000D03*
%TD*%
%TO.C,R2*%
X174000000Y-60990000D03*
X174000000Y-62010000D03*
%TD*%
%TO.C,R2*%
X144000000Y-60990000D03*
X144000000Y-62010000D03*
%TD*%
%TO.C,R2*%
X159000000Y-60990000D03*
X159000000Y-62010000D03*
%TD*%
D11*
%TO.C,C1*%
X182230000Y-79175000D03*
X181270000Y-79175000D03*
%TD*%
%TO.C,C1*%
X122230000Y-94175000D03*
X121270000Y-94175000D03*
%TD*%
%TO.C,C1*%
X167230000Y-79175000D03*
X166270000Y-79175000D03*
%TD*%
%TO.C,C1*%
X152230000Y-79175000D03*
X151270000Y-79175000D03*
%TD*%
%TO.C,C1*%
X167230000Y-49175000D03*
X166270000Y-49175000D03*
%TD*%
%TO.C,C1*%
X182230000Y-34175000D03*
X181270000Y-34175000D03*
%TD*%
%TO.C,C1*%
X152230000Y-94175000D03*
X151270000Y-94175000D03*
%TD*%
%TO.C,C1*%
X137230000Y-94175000D03*
X136270000Y-94175000D03*
%TD*%
%TO.C,C1*%
X122230000Y-34175000D03*
X121270000Y-34175000D03*
%TD*%
%TO.C,C1*%
X182230000Y-94175000D03*
X181270000Y-94175000D03*
%TD*%
%TO.C,C1*%
X137230000Y-34175000D03*
X136270000Y-34175000D03*
%TD*%
%TO.C,C1*%
X167230000Y-94175000D03*
X166270000Y-94175000D03*
%TD*%
%TO.C,C1*%
X122230000Y-79175000D03*
X121270000Y-79175000D03*
%TD*%
%TO.C,C1*%
X137230000Y-79175000D03*
X136270000Y-79175000D03*
%TD*%
%TO.C,C1*%
X152230000Y-34175000D03*
X151270000Y-34175000D03*
%TD*%
%TO.C,C1*%
X167230000Y-34175000D03*
X166270000Y-34175000D03*
%TD*%
%TO.C,C1*%
X122230000Y-49175000D03*
X121270000Y-49175000D03*
%TD*%
%TO.C,C1*%
X182230000Y-49175000D03*
X181270000Y-49175000D03*
%TD*%
%TO.C,C1*%
X167230000Y-64175000D03*
X166270000Y-64175000D03*
%TD*%
%TO.C,C1*%
X182230000Y-64175000D03*
X181270000Y-64175000D03*
%TD*%
%TO.C,C1*%
X137230000Y-49175000D03*
X136270000Y-49175000D03*
%TD*%
%TO.C,C1*%
X137230000Y-64175000D03*
X136270000Y-64175000D03*
%TD*%
%TO.C,C1*%
X122230000Y-64175000D03*
X121270000Y-64175000D03*
%TD*%
%TO.C,C1*%
X152230000Y-64175000D03*
X151270000Y-64175000D03*
%TD*%
%TO.C,C1*%
X152230000Y-49175000D03*
X151270000Y-49175000D03*
%TD*%
%TO.C,C2*%
X118780000Y-82400000D03*
X117820000Y-82400000D03*
%TD*%
%TO.C,C2*%
X163780000Y-67400000D03*
X162820000Y-67400000D03*
%TD*%
%TO.C,C2*%
X178780000Y-67400000D03*
X177820000Y-67400000D03*
%TD*%
%TO.C,C2*%
X118780000Y-67400000D03*
X117820000Y-67400000D03*
%TD*%
%TO.C,C2*%
X148780000Y-22400000D03*
X147820000Y-22400000D03*
%TD*%
%TO.C,C2*%
X163780000Y-22400000D03*
X162820000Y-22400000D03*
%TD*%
%TO.C,C2*%
X118780000Y-37400000D03*
X117820000Y-37400000D03*
%TD*%
%TO.C,C2*%
X148780000Y-82400000D03*
X147820000Y-82400000D03*
%TD*%
%TO.C,C2*%
X133780000Y-82400000D03*
X132820000Y-82400000D03*
%TD*%
%TO.C,C2*%
X163780000Y-82400000D03*
X162820000Y-82400000D03*
%TD*%
%TO.C,C2*%
X133780000Y-67400000D03*
X132820000Y-67400000D03*
%TD*%
%TO.C,C2*%
X133780000Y-22400000D03*
X132820000Y-22400000D03*
%TD*%
%TO.C,C2*%
X178780000Y-82400000D03*
X177820000Y-82400000D03*
%TD*%
%TO.C,C2*%
X118780000Y-22400000D03*
X117820000Y-22400000D03*
%TD*%
%TO.C,C2*%
X148780000Y-67400000D03*
X147820000Y-67400000D03*
%TD*%
%TO.C,C2*%
X163780000Y-37400000D03*
X162820000Y-37400000D03*
%TD*%
%TO.C,C2*%
X178780000Y-22400000D03*
X177820000Y-22400000D03*
%TD*%
%TO.C,C2*%
X178780000Y-37400000D03*
X177820000Y-37400000D03*
%TD*%
%TO.C,C2*%
X148780000Y-37400000D03*
X147820000Y-37400000D03*
%TD*%
%TO.C,C2*%
X133780000Y-52400000D03*
X132820000Y-52400000D03*
%TD*%
%TO.C,C2*%
X133780000Y-37400000D03*
X132820000Y-37400000D03*
%TD*%
%TO.C,C2*%
X118780000Y-52400000D03*
X117820000Y-52400000D03*
%TD*%
%TO.C,C2*%
X148780000Y-52400000D03*
X147820000Y-52400000D03*
%TD*%
%TO.C,C2*%
X178780000Y-52400000D03*
X177820000Y-52400000D03*
%TD*%
%TO.C,C2*%
X163780000Y-52400000D03*
X162820000Y-52400000D03*
%TD*%
D12*
%TO.C,D1*%
X122500000Y-92787500D03*
X122500000Y-91212500D03*
%TD*%
%TO.C,D1*%
X167500000Y-92787500D03*
X167500000Y-91212500D03*
%TD*%
%TO.C,D1*%
X182500000Y-77787500D03*
X182500000Y-76212500D03*
%TD*%
%TO.C,D1*%
X137500000Y-92787500D03*
X137500000Y-91212500D03*
%TD*%
%TO.C,D1*%
X182500000Y-92787500D03*
X182500000Y-91212500D03*
%TD*%
%TO.C,D1*%
X152500000Y-92787500D03*
X152500000Y-91212500D03*
%TD*%
%TO.C,D1*%
X167500000Y-47787500D03*
X167500000Y-46212500D03*
%TD*%
%TO.C,D1*%
X182500000Y-32787500D03*
X182500000Y-31212500D03*
%TD*%
%TO.C,D1*%
X152500000Y-32787500D03*
X152500000Y-31212500D03*
%TD*%
%TO.C,D1*%
X167500000Y-77787500D03*
X167500000Y-76212500D03*
%TD*%
%TO.C,D1*%
X137500000Y-32787500D03*
X137500000Y-31212500D03*
%TD*%
%TO.C,D1*%
X122500000Y-32787500D03*
X122500000Y-31212500D03*
%TD*%
%TO.C,D1*%
X122500000Y-77787500D03*
X122500000Y-76212500D03*
%TD*%
%TO.C,D1*%
X137500000Y-77787500D03*
X137500000Y-76212500D03*
%TD*%
%TO.C,D1*%
X152500000Y-77787500D03*
X152500000Y-76212500D03*
%TD*%
%TO.C,D1*%
X167500000Y-32787500D03*
X167500000Y-31212500D03*
%TD*%
%TO.C,D1*%
X152500000Y-62787500D03*
X152500000Y-61212500D03*
%TD*%
%TO.C,D1*%
X122500000Y-62787500D03*
X122500000Y-61212500D03*
%TD*%
%TO.C,D1*%
X137500000Y-62787500D03*
X137500000Y-61212500D03*
%TD*%
%TO.C,D1*%
X182500000Y-62787500D03*
X182500000Y-61212500D03*
%TD*%
%TO.C,D1*%
X122500000Y-47787500D03*
X122500000Y-46212500D03*
%TD*%
%TO.C,D1*%
X137500000Y-47787500D03*
X137500000Y-46212500D03*
%TD*%
%TO.C,D1*%
X152500000Y-47787500D03*
X152500000Y-46212500D03*
%TD*%
%TO.C,D1*%
X182500000Y-47787500D03*
X182500000Y-46212500D03*
%TD*%
%TO.C,D1*%
X167500000Y-62787500D03*
X167500000Y-61212500D03*
%TD*%
D13*
%TO.C,U2*%
X175237500Y-52000000D03*
X175237500Y-52500000D03*
X175237500Y-53000000D03*
X175237500Y-53500000D03*
D14*
X175750000Y-53512500D03*
X176250000Y-53512500D03*
D13*
X176762500Y-53500000D03*
X176762500Y-53000000D03*
X176762500Y-52500000D03*
X176762500Y-52000000D03*
D14*
X176250000Y-51987500D03*
X175750000Y-51987500D03*
%TD*%
D13*
%TO.C,U2*%
X145237500Y-52000000D03*
X145237500Y-52500000D03*
X145237500Y-53000000D03*
X145237500Y-53500000D03*
D14*
X145750000Y-53512500D03*
X146250000Y-53512500D03*
D13*
X146762500Y-53500000D03*
X146762500Y-53000000D03*
X146762500Y-52500000D03*
X146762500Y-52000000D03*
D14*
X146250000Y-51987500D03*
X145750000Y-51987500D03*
%TD*%
D13*
%TO.C,U2*%
X160237500Y-52000000D03*
X160237500Y-52500000D03*
X160237500Y-53000000D03*
X160237500Y-53500000D03*
D14*
X160750000Y-53512500D03*
X161250000Y-53512500D03*
D13*
X161762500Y-53500000D03*
X161762500Y-53000000D03*
X161762500Y-52500000D03*
X161762500Y-52000000D03*
D14*
X161250000Y-51987500D03*
X160750000Y-51987500D03*
%TD*%
D13*
%TO.C,U2*%
X115237500Y-52000000D03*
X115237500Y-52500000D03*
X115237500Y-53000000D03*
X115237500Y-53500000D03*
D14*
X115750000Y-53512500D03*
X116250000Y-53512500D03*
D13*
X116762500Y-53500000D03*
X116762500Y-53000000D03*
X116762500Y-52500000D03*
X116762500Y-52000000D03*
D14*
X116250000Y-51987500D03*
X115750000Y-51987500D03*
%TD*%
D13*
%TO.C,U2*%
X130237500Y-52000000D03*
X130237500Y-52500000D03*
X130237500Y-53000000D03*
X130237500Y-53500000D03*
D14*
X130750000Y-53512500D03*
X131250000Y-53512500D03*
D13*
X131762500Y-53500000D03*
X131762500Y-53000000D03*
X131762500Y-52500000D03*
X131762500Y-52000000D03*
D14*
X131250000Y-51987500D03*
X130750000Y-51987500D03*
%TD*%
D13*
%TO.C,U2*%
X160237500Y-67000000D03*
X160237500Y-67500000D03*
X160237500Y-68000000D03*
X160237500Y-68500000D03*
D14*
X160750000Y-68512500D03*
X161250000Y-68512500D03*
D13*
X161762500Y-68500000D03*
X161762500Y-68000000D03*
X161762500Y-67500000D03*
X161762500Y-67000000D03*
D14*
X161250000Y-66987500D03*
X160750000Y-66987500D03*
%TD*%
D13*
%TO.C,U2*%
X130237500Y-82000000D03*
X130237500Y-82500000D03*
X130237500Y-83000000D03*
X130237500Y-83500000D03*
D14*
X130750000Y-83512500D03*
X131250000Y-83512500D03*
D13*
X131762500Y-83500000D03*
X131762500Y-83000000D03*
X131762500Y-82500000D03*
X131762500Y-82000000D03*
D14*
X131250000Y-81987500D03*
X130750000Y-81987500D03*
%TD*%
D13*
%TO.C,U2*%
X175237500Y-67000000D03*
X175237500Y-67500000D03*
X175237500Y-68000000D03*
X175237500Y-68500000D03*
D14*
X175750000Y-68512500D03*
X176250000Y-68512500D03*
D13*
X176762500Y-68500000D03*
X176762500Y-68000000D03*
X176762500Y-67500000D03*
X176762500Y-67000000D03*
D14*
X176250000Y-66987500D03*
X175750000Y-66987500D03*
%TD*%
D13*
%TO.C,U2*%
X115237500Y-82000000D03*
X115237500Y-82500000D03*
X115237500Y-83000000D03*
X115237500Y-83500000D03*
D14*
X115750000Y-83512500D03*
X116250000Y-83512500D03*
D13*
X116762500Y-83500000D03*
X116762500Y-83000000D03*
X116762500Y-82500000D03*
X116762500Y-82000000D03*
D14*
X116250000Y-81987500D03*
X115750000Y-81987500D03*
%TD*%
D13*
%TO.C,U2*%
X115237500Y-67000000D03*
X115237500Y-67500000D03*
X115237500Y-68000000D03*
X115237500Y-68500000D03*
D14*
X115750000Y-68512500D03*
X116250000Y-68512500D03*
D13*
X116762500Y-68500000D03*
X116762500Y-68000000D03*
X116762500Y-67500000D03*
X116762500Y-67000000D03*
D14*
X116250000Y-66987500D03*
X115750000Y-66987500D03*
%TD*%
D13*
%TO.C,U2*%
X130237500Y-22000000D03*
X130237500Y-22500000D03*
X130237500Y-23000000D03*
X130237500Y-23500000D03*
D14*
X130750000Y-23512500D03*
X131250000Y-23512500D03*
D13*
X131762500Y-23500000D03*
X131762500Y-23000000D03*
X131762500Y-22500000D03*
X131762500Y-22000000D03*
D14*
X131250000Y-21987500D03*
X130750000Y-21987500D03*
%TD*%
D13*
%TO.C,U2*%
X160237500Y-37000000D03*
X160237500Y-37500000D03*
X160237500Y-38000000D03*
X160237500Y-38500000D03*
D14*
X160750000Y-38512500D03*
X161250000Y-38512500D03*
D13*
X161762500Y-38500000D03*
X161762500Y-38000000D03*
X161762500Y-37500000D03*
X161762500Y-37000000D03*
D14*
X161250000Y-36987500D03*
X160750000Y-36987500D03*
%TD*%
D13*
%TO.C,U2*%
X145237500Y-67000000D03*
X145237500Y-67500000D03*
X145237500Y-68000000D03*
X145237500Y-68500000D03*
D14*
X145750000Y-68512500D03*
X146250000Y-68512500D03*
D13*
X146762500Y-68500000D03*
X146762500Y-68000000D03*
X146762500Y-67500000D03*
X146762500Y-67000000D03*
D14*
X146250000Y-66987500D03*
X145750000Y-66987500D03*
%TD*%
D13*
%TO.C,U2*%
X145237500Y-37000000D03*
X145237500Y-37500000D03*
X145237500Y-38000000D03*
X145237500Y-38500000D03*
D14*
X145750000Y-38512500D03*
X146250000Y-38512500D03*
D13*
X146762500Y-38500000D03*
X146762500Y-38000000D03*
X146762500Y-37500000D03*
X146762500Y-37000000D03*
D14*
X146250000Y-36987500D03*
X145750000Y-36987500D03*
%TD*%
D13*
%TO.C,U2*%
X160237500Y-82000000D03*
X160237500Y-82500000D03*
X160237500Y-83000000D03*
X160237500Y-83500000D03*
D14*
X160750000Y-83512500D03*
X161250000Y-83512500D03*
D13*
X161762500Y-83500000D03*
X161762500Y-83000000D03*
X161762500Y-82500000D03*
X161762500Y-82000000D03*
D14*
X161250000Y-81987500D03*
X160750000Y-81987500D03*
%TD*%
D13*
%TO.C,U2*%
X175237500Y-82000000D03*
X175237500Y-82500000D03*
X175237500Y-83000000D03*
X175237500Y-83500000D03*
D14*
X175750000Y-83512500D03*
X176250000Y-83512500D03*
D13*
X176762500Y-83500000D03*
X176762500Y-83000000D03*
X176762500Y-82500000D03*
X176762500Y-82000000D03*
D14*
X176250000Y-81987500D03*
X175750000Y-81987500D03*
%TD*%
D13*
%TO.C,U2*%
X115237500Y-22000000D03*
X115237500Y-22500000D03*
X115237500Y-23000000D03*
X115237500Y-23500000D03*
D14*
X115750000Y-23512500D03*
X116250000Y-23512500D03*
D13*
X116762500Y-23500000D03*
X116762500Y-23000000D03*
X116762500Y-22500000D03*
X116762500Y-22000000D03*
D14*
X116250000Y-21987500D03*
X115750000Y-21987500D03*
%TD*%
D13*
%TO.C,U2*%
X145237500Y-82000000D03*
X145237500Y-82500000D03*
X145237500Y-83000000D03*
X145237500Y-83500000D03*
D14*
X145750000Y-83512500D03*
X146250000Y-83512500D03*
D13*
X146762500Y-83500000D03*
X146762500Y-83000000D03*
X146762500Y-82500000D03*
X146762500Y-82000000D03*
D14*
X146250000Y-81987500D03*
X145750000Y-81987500D03*
%TD*%
D13*
%TO.C,U2*%
X130237500Y-67000000D03*
X130237500Y-67500000D03*
X130237500Y-68000000D03*
X130237500Y-68500000D03*
D14*
X130750000Y-68512500D03*
X131250000Y-68512500D03*
D13*
X131762500Y-68500000D03*
X131762500Y-68000000D03*
X131762500Y-67500000D03*
X131762500Y-67000000D03*
D14*
X131250000Y-66987500D03*
X130750000Y-66987500D03*
%TD*%
D13*
%TO.C,U2*%
X145237500Y-22000000D03*
X145237500Y-22500000D03*
X145237500Y-23000000D03*
X145237500Y-23500000D03*
D14*
X145750000Y-23512500D03*
X146250000Y-23512500D03*
D13*
X146762500Y-23500000D03*
X146762500Y-23000000D03*
X146762500Y-22500000D03*
X146762500Y-22000000D03*
D14*
X146250000Y-21987500D03*
X145750000Y-21987500D03*
%TD*%
D13*
%TO.C,U2*%
X160237500Y-22000000D03*
X160237500Y-22500000D03*
X160237500Y-23000000D03*
X160237500Y-23500000D03*
D14*
X160750000Y-23512500D03*
X161250000Y-23512500D03*
D13*
X161762500Y-23500000D03*
X161762500Y-23000000D03*
X161762500Y-22500000D03*
X161762500Y-22000000D03*
D14*
X161250000Y-21987500D03*
X160750000Y-21987500D03*
%TD*%
D13*
%TO.C,U2*%
X175237500Y-22000000D03*
X175237500Y-22500000D03*
X175237500Y-23000000D03*
X175237500Y-23500000D03*
D14*
X175750000Y-23512500D03*
X176250000Y-23512500D03*
D13*
X176762500Y-23500000D03*
X176762500Y-23000000D03*
X176762500Y-22500000D03*
X176762500Y-22000000D03*
D14*
X176250000Y-21987500D03*
X175750000Y-21987500D03*
%TD*%
D13*
%TO.C,U2*%
X115237500Y-37000000D03*
X115237500Y-37500000D03*
X115237500Y-38000000D03*
X115237500Y-38500000D03*
D14*
X115750000Y-38512500D03*
X116250000Y-38512500D03*
D13*
X116762500Y-38500000D03*
X116762500Y-38000000D03*
X116762500Y-37500000D03*
X116762500Y-37000000D03*
D14*
X116250000Y-36987500D03*
X115750000Y-36987500D03*
%TD*%
D13*
%TO.C,U2*%
X130237500Y-37000000D03*
X130237500Y-37500000D03*
X130237500Y-38000000D03*
X130237500Y-38500000D03*
D14*
X130750000Y-38512500D03*
X131250000Y-38512500D03*
D13*
X131762500Y-38500000D03*
X131762500Y-38000000D03*
X131762500Y-37500000D03*
X131762500Y-37000000D03*
D14*
X131250000Y-36987500D03*
X130750000Y-36987500D03*
%TD*%
D13*
%TO.C,U2*%
X175237500Y-37000000D03*
X175237500Y-37500000D03*
X175237500Y-38000000D03*
X175237500Y-38500000D03*
D14*
X175750000Y-38512500D03*
X176250000Y-38512500D03*
D13*
X176762500Y-38500000D03*
X176762500Y-38000000D03*
X176762500Y-37500000D03*
X176762500Y-37000000D03*
D14*
X176250000Y-36987500D03*
X175750000Y-36987500D03*
%TD*%
D11*
%TO.C,C3*%
X178780000Y-66400000D03*
X177820000Y-66400000D03*
%TD*%
%TO.C,C3*%
X163780000Y-81400000D03*
X162820000Y-81400000D03*
%TD*%
%TO.C,C3*%
X118780000Y-21400000D03*
X117820000Y-21400000D03*
%TD*%
%TO.C,C3*%
X118780000Y-66400000D03*
X117820000Y-66400000D03*
%TD*%
%TO.C,C3*%
X118780000Y-81400000D03*
X117820000Y-81400000D03*
%TD*%
%TO.C,C3*%
X148780000Y-81400000D03*
X147820000Y-81400000D03*
%TD*%
%TO.C,C3*%
X163780000Y-66400000D03*
X162820000Y-66400000D03*
%TD*%
%TO.C,C3*%
X133780000Y-81400000D03*
X132820000Y-81400000D03*
%TD*%
%TO.C,C3*%
X178780000Y-81400000D03*
X177820000Y-81400000D03*
%TD*%
%TO.C,C3*%
X133780000Y-21400000D03*
X132820000Y-21400000D03*
%TD*%
%TO.C,C3*%
X178780000Y-36400000D03*
X177820000Y-36400000D03*
%TD*%
%TO.C,C3*%
X133780000Y-51400000D03*
X132820000Y-51400000D03*
%TD*%
%TO.C,C3*%
X148780000Y-36400000D03*
X147820000Y-36400000D03*
%TD*%
%TO.C,C3*%
X133780000Y-66400000D03*
X132820000Y-66400000D03*
%TD*%
%TO.C,C3*%
X148780000Y-66400000D03*
X147820000Y-66400000D03*
%TD*%
%TO.C,C3*%
X178780000Y-21400000D03*
X177820000Y-21400000D03*
%TD*%
%TO.C,C3*%
X118780000Y-36400000D03*
X117820000Y-36400000D03*
%TD*%
%TO.C,C3*%
X133780000Y-36400000D03*
X132820000Y-36400000D03*
%TD*%
%TO.C,C3*%
X148780000Y-21400000D03*
X147820000Y-21400000D03*
%TD*%
%TO.C,C3*%
X163780000Y-36400000D03*
X162820000Y-36400000D03*
%TD*%
%TO.C,C3*%
X163780000Y-21400000D03*
X162820000Y-21400000D03*
%TD*%
%TO.C,C3*%
X118780000Y-51400000D03*
X117820000Y-51400000D03*
%TD*%
%TO.C,C3*%
X163780000Y-51400000D03*
X162820000Y-51400000D03*
%TD*%
%TO.C,C3*%
X148780000Y-51400000D03*
X147820000Y-51400000D03*
%TD*%
%TO.C,C3*%
X178780000Y-51400000D03*
X177820000Y-51400000D03*
%TD*%
D15*
%TO.C,R4*%
X174010000Y-79010000D03*
X174010000Y-77990000D03*
%TD*%
%TO.C,R4*%
X129010000Y-34010000D03*
X129010000Y-32990000D03*
%TD*%
%TO.C,R4*%
X159010000Y-79010000D03*
X159010000Y-77990000D03*
%TD*%
%TO.C,R4*%
X129010000Y-79010000D03*
X129010000Y-77990000D03*
%TD*%
%TO.C,R4*%
X159010000Y-49010000D03*
X159010000Y-47990000D03*
%TD*%
%TO.C,R4*%
X174010000Y-94010000D03*
X174010000Y-92990000D03*
%TD*%
%TO.C,R4*%
X114010000Y-94010000D03*
X114010000Y-92990000D03*
%TD*%
%TO.C,R4*%
X114010000Y-34010000D03*
X114010000Y-32990000D03*
%TD*%
%TO.C,R4*%
X129010000Y-94010000D03*
X129010000Y-92990000D03*
%TD*%
%TO.C,R4*%
X144010000Y-94010000D03*
X144010000Y-92990000D03*
%TD*%
%TO.C,R4*%
X159010000Y-94010000D03*
X159010000Y-92990000D03*
%TD*%
%TO.C,R4*%
X114010000Y-79010000D03*
X114010000Y-77990000D03*
%TD*%
%TO.C,R4*%
X144010000Y-79010000D03*
X144010000Y-77990000D03*
%TD*%
%TO.C,R4*%
X144010000Y-34010000D03*
X144010000Y-32990000D03*
%TD*%
%TO.C,R4*%
X144010000Y-64010000D03*
X144010000Y-62990000D03*
%TD*%
%TO.C,R4*%
X174010000Y-64010000D03*
X174010000Y-62990000D03*
%TD*%
%TO.C,R4*%
X144010000Y-49010000D03*
X144010000Y-47990000D03*
%TD*%
%TO.C,R4*%
X114010000Y-49010000D03*
X114010000Y-47990000D03*
%TD*%
%TO.C,R4*%
X174010000Y-49010000D03*
X174010000Y-47990000D03*
%TD*%
%TO.C,R4*%
X159010000Y-34010000D03*
X159010000Y-32990000D03*
%TD*%
%TO.C,R4*%
X174010000Y-34010000D03*
X174010000Y-32990000D03*
%TD*%
%TO.C,R4*%
X114010000Y-64010000D03*
X114010000Y-62990000D03*
%TD*%
%TO.C,R4*%
X129010000Y-64010000D03*
X129010000Y-62990000D03*
%TD*%
%TO.C,R4*%
X129010000Y-49010000D03*
X129010000Y-47990000D03*
%TD*%
%TO.C,R4*%
X159010000Y-64010000D03*
X159010000Y-62990000D03*
%TD*%
D10*
%TO.C,R1*%
X175750000Y-75990000D03*
X175750000Y-77010000D03*
%TD*%
%TO.C,R1*%
X160750000Y-75990000D03*
X160750000Y-77010000D03*
%TD*%
%TO.C,R1*%
X115750000Y-90990000D03*
X115750000Y-92010000D03*
%TD*%
%TO.C,R1*%
X160750000Y-90990000D03*
X160750000Y-92010000D03*
%TD*%
%TO.C,R1*%
X130750000Y-90990000D03*
X130750000Y-92010000D03*
%TD*%
%TO.C,R1*%
X175750000Y-90990000D03*
X175750000Y-92010000D03*
%TD*%
%TO.C,R1*%
X115750000Y-30990000D03*
X115750000Y-32010000D03*
%TD*%
%TO.C,R1*%
X130750000Y-30990000D03*
X130750000Y-32010000D03*
%TD*%
%TO.C,R1*%
X145750000Y-90990000D03*
X145750000Y-92010000D03*
%TD*%
%TO.C,R1*%
X130750000Y-75990000D03*
X130750000Y-77010000D03*
%TD*%
%TO.C,R1*%
X145750000Y-45990000D03*
X145750000Y-47010000D03*
%TD*%
%TO.C,R1*%
X130750000Y-45990000D03*
X130750000Y-47010000D03*
%TD*%
%TO.C,R1*%
X145750000Y-60990000D03*
X145750000Y-62010000D03*
%TD*%
%TO.C,R1*%
X175750000Y-45990000D03*
X175750000Y-47010000D03*
%TD*%
%TO.C,R1*%
X115750000Y-75990000D03*
X115750000Y-77010000D03*
%TD*%
%TO.C,R1*%
X145750000Y-75990000D03*
X145750000Y-77010000D03*
%TD*%
%TO.C,R1*%
X160750000Y-45990000D03*
X160750000Y-47010000D03*
%TD*%
%TO.C,R1*%
X160750000Y-30990000D03*
X160750000Y-32010000D03*
%TD*%
%TO.C,R1*%
X175750000Y-30990000D03*
X175750000Y-32010000D03*
%TD*%
%TO.C,R1*%
X145750000Y-30990000D03*
X145750000Y-32010000D03*
%TD*%
%TO.C,R1*%
X115750000Y-45990000D03*
X115750000Y-47010000D03*
%TD*%
%TO.C,R1*%
X115750000Y-60990000D03*
X115750000Y-62010000D03*
%TD*%
%TO.C,R1*%
X130750000Y-60990000D03*
X130750000Y-62010000D03*
%TD*%
%TO.C,R1*%
X160750000Y-60990000D03*
X160750000Y-62010000D03*
%TD*%
%TO.C,R1*%
X175750000Y-60990000D03*
X175750000Y-62010000D03*
%TD*%
D15*
%TO.C,R5*%
X183800000Y-78010000D03*
X183800000Y-76990000D03*
%TD*%
%TO.C,R5*%
X138800000Y-33010000D03*
X138800000Y-31990000D03*
%TD*%
%TO.C,R5*%
X138800000Y-78010000D03*
X138800000Y-76990000D03*
%TD*%
%TO.C,R5*%
X153800000Y-93010000D03*
X153800000Y-91990000D03*
%TD*%
%TO.C,R5*%
X123800000Y-33010000D03*
X123800000Y-31990000D03*
%TD*%
%TO.C,R5*%
X138800000Y-93010000D03*
X138800000Y-91990000D03*
%TD*%
%TO.C,R5*%
X168800000Y-78010000D03*
X168800000Y-76990000D03*
%TD*%
%TO.C,R5*%
X183800000Y-93010000D03*
X183800000Y-91990000D03*
%TD*%
%TO.C,R5*%
X168800000Y-93010000D03*
X168800000Y-91990000D03*
%TD*%
%TO.C,R5*%
X123800000Y-93010000D03*
X123800000Y-91990000D03*
%TD*%
%TO.C,R5*%
X123800000Y-78010000D03*
X123800000Y-76990000D03*
%TD*%
%TO.C,R5*%
X168800000Y-33010000D03*
X168800000Y-31990000D03*
%TD*%
%TO.C,R5*%
X183800000Y-48010000D03*
X183800000Y-46990000D03*
%TD*%
%TO.C,R5*%
X168800000Y-63010000D03*
X168800000Y-61990000D03*
%TD*%
%TO.C,R5*%
X153800000Y-33010000D03*
X153800000Y-31990000D03*
%TD*%
%TO.C,R5*%
X168800000Y-48010000D03*
X168800000Y-46990000D03*
%TD*%
%TO.C,R5*%
X153800000Y-78010000D03*
X153800000Y-76990000D03*
%TD*%
%TO.C,R5*%
X183800000Y-33010000D03*
X183800000Y-31990000D03*
%TD*%
%TO.C,R5*%
X123800000Y-48010000D03*
X123800000Y-46990000D03*
%TD*%
%TO.C,R5*%
X138800000Y-48010000D03*
X138800000Y-46990000D03*
%TD*%
%TO.C,R5*%
X153800000Y-48010000D03*
X153800000Y-46990000D03*
%TD*%
%TO.C,R5*%
X123800000Y-63010000D03*
X123800000Y-61990000D03*
%TD*%
%TO.C,R5*%
X138800000Y-63010000D03*
X138800000Y-61990000D03*
%TD*%
%TO.C,R5*%
X153800000Y-63010000D03*
X153800000Y-61990000D03*
%TD*%
%TO.C,R5*%
X183800000Y-63010000D03*
X183800000Y-61990000D03*
%TD*%
%TO.C,R7*%
X144750000Y-86260000D03*
X144750000Y-85240000D03*
%TD*%
%TO.C,R7*%
X114750000Y-26260000D03*
X114750000Y-25240000D03*
%TD*%
%TO.C,R7*%
X174750000Y-71260000D03*
X174750000Y-70240000D03*
%TD*%
%TO.C,R7*%
X129750000Y-86260000D03*
X129750000Y-85240000D03*
%TD*%
%TO.C,R7*%
X174750000Y-86260000D03*
X174750000Y-85240000D03*
%TD*%
%TO.C,R7*%
X159750000Y-71260000D03*
X159750000Y-70240000D03*
%TD*%
%TO.C,R7*%
X114750000Y-86260000D03*
X114750000Y-85240000D03*
%TD*%
%TO.C,R7*%
X159750000Y-86260000D03*
X159750000Y-85240000D03*
%TD*%
%TO.C,R7*%
X129750000Y-41260000D03*
X129750000Y-40240000D03*
%TD*%
%TO.C,R7*%
X114750000Y-71260000D03*
X114750000Y-70240000D03*
%TD*%
%TO.C,R7*%
X129750000Y-71260000D03*
X129750000Y-70240000D03*
%TD*%
%TO.C,R7*%
X144750000Y-71260000D03*
X144750000Y-70240000D03*
%TD*%
%TO.C,R7*%
X159750000Y-26260000D03*
X159750000Y-25240000D03*
%TD*%
%TO.C,R7*%
X144750000Y-41260000D03*
X144750000Y-40240000D03*
%TD*%
%TO.C,R7*%
X159750000Y-41260000D03*
X159750000Y-40240000D03*
%TD*%
%TO.C,R7*%
X144750000Y-26260000D03*
X144750000Y-25240000D03*
%TD*%
%TO.C,R7*%
X174750000Y-26260000D03*
X174750000Y-25240000D03*
%TD*%
%TO.C,R7*%
X114750000Y-41260000D03*
X114750000Y-40240000D03*
%TD*%
%TO.C,R7*%
X129750000Y-26260000D03*
X129750000Y-25240000D03*
%TD*%
%TO.C,R7*%
X129750000Y-56260000D03*
X129750000Y-55240000D03*
%TD*%
%TO.C,R7*%
X144750000Y-56260000D03*
X144750000Y-55240000D03*
%TD*%
%TO.C,R7*%
X114750000Y-56260000D03*
X114750000Y-55240000D03*
%TD*%
%TO.C,R7*%
X174750000Y-41260000D03*
X174750000Y-40240000D03*
%TD*%
%TO.C,R7*%
X174750000Y-56260000D03*
X174750000Y-55240000D03*
%TD*%
%TO.C,R7*%
X159750000Y-56260000D03*
X159750000Y-55240000D03*
%TD*%
%TO.C,R6*%
X117250000Y-26260000D03*
X117250000Y-25240000D03*
%TD*%
%TO.C,R6*%
X132250000Y-71260000D03*
X132250000Y-70240000D03*
%TD*%
%TO.C,R6*%
X132250000Y-86260000D03*
X132250000Y-85240000D03*
%TD*%
%TO.C,R6*%
X162250000Y-71260000D03*
X162250000Y-70240000D03*
%TD*%
%TO.C,R6*%
X117250000Y-86260000D03*
X117250000Y-85240000D03*
%TD*%
%TO.C,R6*%
X117250000Y-71260000D03*
X117250000Y-70240000D03*
%TD*%
%TO.C,R6*%
X177250000Y-86260000D03*
X177250000Y-85240000D03*
%TD*%
%TO.C,R6*%
X177250000Y-71260000D03*
X177250000Y-70240000D03*
%TD*%
%TO.C,R6*%
X147250000Y-86260000D03*
X147250000Y-85240000D03*
%TD*%
%TO.C,R6*%
X162250000Y-86260000D03*
X162250000Y-85240000D03*
%TD*%
%TO.C,R6*%
X132250000Y-26260000D03*
X132250000Y-25240000D03*
%TD*%
%TO.C,R6*%
X117250000Y-56260000D03*
X117250000Y-55240000D03*
%TD*%
%TO.C,R6*%
X132250000Y-41260000D03*
X132250000Y-40240000D03*
%TD*%
%TO.C,R6*%
X162250000Y-56260000D03*
X162250000Y-55240000D03*
%TD*%
%TO.C,R6*%
X162250000Y-26260000D03*
X162250000Y-25240000D03*
%TD*%
%TO.C,R6*%
X147250000Y-41260000D03*
X147250000Y-40240000D03*
%TD*%
%TO.C,R6*%
X162250000Y-41260000D03*
X162250000Y-40240000D03*
%TD*%
%TO.C,R6*%
X177250000Y-26260000D03*
X177250000Y-25240000D03*
%TD*%
%TO.C,R6*%
X147250000Y-71260000D03*
X147250000Y-70240000D03*
%TD*%
%TO.C,R6*%
X117250000Y-41260000D03*
X117250000Y-40240000D03*
%TD*%
%TO.C,R6*%
X177250000Y-41260000D03*
X177250000Y-40240000D03*
%TD*%
%TO.C,R6*%
X147250000Y-26260000D03*
X147250000Y-25240000D03*
%TD*%
%TO.C,R6*%
X132250000Y-56260000D03*
X132250000Y-55240000D03*
%TD*%
%TO.C,R6*%
X147250000Y-56260000D03*
X147250000Y-55240000D03*
%TD*%
%TO.C,R6*%
X177250000Y-56260000D03*
X177250000Y-55240000D03*
%TD*%
D16*
%TO.C,U1*%
X162340000Y-91950000D03*
X162340000Y-92900000D03*
X162340000Y-93850000D03*
X164660000Y-93850000D03*
X164660000Y-92900000D03*
X164660000Y-91950000D03*
%TD*%
%TO.C,U1*%
X132340000Y-31950000D03*
X132340000Y-32900000D03*
X132340000Y-33850000D03*
X134660000Y-33850000D03*
X134660000Y-32900000D03*
X134660000Y-31950000D03*
%TD*%
%TO.C,U1*%
X117340000Y-76950000D03*
X117340000Y-77900000D03*
X117340000Y-78850000D03*
X119660000Y-78850000D03*
X119660000Y-77900000D03*
X119660000Y-76950000D03*
%TD*%
%TO.C,U1*%
X162340000Y-76950000D03*
X162340000Y-77900000D03*
X162340000Y-78850000D03*
X164660000Y-78850000D03*
X164660000Y-77900000D03*
X164660000Y-76950000D03*
%TD*%
%TO.C,U1*%
X132340000Y-76950000D03*
X132340000Y-77900000D03*
X132340000Y-78850000D03*
X134660000Y-78850000D03*
X134660000Y-77900000D03*
X134660000Y-76950000D03*
%TD*%
%TO.C,U1*%
X177340000Y-76950000D03*
X177340000Y-77900000D03*
X177340000Y-78850000D03*
X179660000Y-78850000D03*
X179660000Y-77900000D03*
X179660000Y-76950000D03*
%TD*%
%TO.C,U1*%
X132340000Y-91950000D03*
X132340000Y-92900000D03*
X132340000Y-93850000D03*
X134660000Y-93850000D03*
X134660000Y-92900000D03*
X134660000Y-91950000D03*
%TD*%
%TO.C,U1*%
X117340000Y-91950000D03*
X117340000Y-92900000D03*
X117340000Y-93850000D03*
X119660000Y-93850000D03*
X119660000Y-92900000D03*
X119660000Y-91950000D03*
%TD*%
%TO.C,U1*%
X177340000Y-91950000D03*
X177340000Y-92900000D03*
X177340000Y-93850000D03*
X179660000Y-93850000D03*
X179660000Y-92900000D03*
X179660000Y-91950000D03*
%TD*%
%TO.C,U1*%
X147340000Y-91950000D03*
X147340000Y-92900000D03*
X147340000Y-93850000D03*
X149660000Y-93850000D03*
X149660000Y-92900000D03*
X149660000Y-91950000D03*
%TD*%
%TO.C,U1*%
X117340000Y-31950000D03*
X117340000Y-32900000D03*
X117340000Y-33850000D03*
X119660000Y-33850000D03*
X119660000Y-32900000D03*
X119660000Y-31950000D03*
%TD*%
%TO.C,U1*%
X147340000Y-46950000D03*
X147340000Y-47900000D03*
X147340000Y-48850000D03*
X149660000Y-48850000D03*
X149660000Y-47900000D03*
X149660000Y-46950000D03*
%TD*%
%TO.C,U1*%
X147340000Y-76950000D03*
X147340000Y-77900000D03*
X147340000Y-78850000D03*
X149660000Y-78850000D03*
X149660000Y-77900000D03*
X149660000Y-76950000D03*
%TD*%
%TO.C,U1*%
X117340000Y-46950000D03*
X117340000Y-47900000D03*
X117340000Y-48850000D03*
X119660000Y-48850000D03*
X119660000Y-47900000D03*
X119660000Y-46950000D03*
%TD*%
%TO.C,U1*%
X147340000Y-31950000D03*
X147340000Y-32900000D03*
X147340000Y-33850000D03*
X149660000Y-33850000D03*
X149660000Y-32900000D03*
X149660000Y-31950000D03*
%TD*%
%TO.C,U1*%
X117340000Y-61950000D03*
X117340000Y-62900000D03*
X117340000Y-63850000D03*
X119660000Y-63850000D03*
X119660000Y-62900000D03*
X119660000Y-61950000D03*
%TD*%
%TO.C,U1*%
X177340000Y-61950000D03*
X177340000Y-62900000D03*
X177340000Y-63850000D03*
X179660000Y-63850000D03*
X179660000Y-62900000D03*
X179660000Y-61950000D03*
%TD*%
%TO.C,U1*%
X162340000Y-46950000D03*
X162340000Y-47900000D03*
X162340000Y-48850000D03*
X164660000Y-48850000D03*
X164660000Y-47900000D03*
X164660000Y-46950000D03*
%TD*%
%TO.C,U1*%
X177340000Y-46950000D03*
X177340000Y-47900000D03*
X177340000Y-48850000D03*
X179660000Y-48850000D03*
X179660000Y-47900000D03*
X179660000Y-46950000D03*
%TD*%
%TO.C,U1*%
X132340000Y-61950000D03*
X132340000Y-62900000D03*
X132340000Y-63850000D03*
X134660000Y-63850000D03*
X134660000Y-62900000D03*
X134660000Y-61950000D03*
%TD*%
%TO.C,U1*%
X177340000Y-31950000D03*
X177340000Y-32900000D03*
X177340000Y-33850000D03*
X179660000Y-33850000D03*
X179660000Y-32900000D03*
X179660000Y-31950000D03*
%TD*%
%TO.C,U1*%
X162340000Y-31950000D03*
X162340000Y-32900000D03*
X162340000Y-33850000D03*
X164660000Y-33850000D03*
X164660000Y-32900000D03*
X164660000Y-31950000D03*
%TD*%
%TO.C,U1*%
X147340000Y-61950000D03*
X147340000Y-62900000D03*
X147340000Y-63850000D03*
X149660000Y-63850000D03*
X149660000Y-62900000D03*
X149660000Y-61950000D03*
%TD*%
%TO.C,U1*%
X132340000Y-46950000D03*
X132340000Y-47900000D03*
X132340000Y-48850000D03*
X134660000Y-48850000D03*
X134660000Y-47900000D03*
X134660000Y-46950000D03*
%TD*%
%TO.C,U1*%
X162340000Y-61950000D03*
X162340000Y-62900000D03*
X162340000Y-63850000D03*
X164660000Y-63850000D03*
X164660000Y-62900000D03*
X164660000Y-61950000D03*
%TD*%
D15*
%TO.C,R3*%
X181000000Y-77010000D03*
X181000000Y-75990000D03*
%TD*%
%TO.C,R3*%
X136000000Y-92010000D03*
X136000000Y-90990000D03*
%TD*%
%TO.C,R3*%
X166000000Y-77010000D03*
X166000000Y-75990000D03*
%TD*%
%TO.C,R3*%
X121000000Y-92010000D03*
X121000000Y-90990000D03*
%TD*%
%TO.C,R3*%
X151000000Y-92010000D03*
X151000000Y-90990000D03*
%TD*%
%TO.C,R3*%
X136000000Y-32010000D03*
X136000000Y-30990000D03*
%TD*%
%TO.C,R3*%
X136000000Y-77010000D03*
X136000000Y-75990000D03*
%TD*%
%TO.C,R3*%
X121000000Y-77010000D03*
X121000000Y-75990000D03*
%TD*%
%TO.C,R3*%
X181000000Y-92010000D03*
X181000000Y-90990000D03*
%TD*%
%TO.C,R3*%
X151000000Y-77010000D03*
X151000000Y-75990000D03*
%TD*%
%TO.C,R3*%
X166000000Y-92010000D03*
X166000000Y-90990000D03*
%TD*%
%TO.C,R3*%
X121000000Y-32010000D03*
X121000000Y-30990000D03*
%TD*%
%TO.C,R3*%
X181000000Y-47010000D03*
X181000000Y-45990000D03*
%TD*%
%TO.C,R3*%
X136000000Y-62010000D03*
X136000000Y-60990000D03*
%TD*%
%TO.C,R3*%
X181000000Y-32010000D03*
X181000000Y-30990000D03*
%TD*%
%TO.C,R3*%
X151000000Y-62010000D03*
X151000000Y-60990000D03*
%TD*%
%TO.C,R3*%
X151000000Y-32010000D03*
X151000000Y-30990000D03*
%TD*%
%TO.C,R3*%
X166000000Y-32010000D03*
X166000000Y-30990000D03*
%TD*%
%TO.C,R3*%
X151000000Y-47010000D03*
X151000000Y-45990000D03*
%TD*%
%TO.C,R3*%
X166000000Y-47010000D03*
X166000000Y-45990000D03*
%TD*%
%TO.C,R3*%
X136000000Y-47010000D03*
X136000000Y-45990000D03*
%TD*%
%TO.C,R3*%
X121000000Y-47010000D03*
X121000000Y-45990000D03*
%TD*%
%TO.C,R3*%
X121000000Y-62010000D03*
X121000000Y-60990000D03*
%TD*%
%TO.C,R3*%
X181000000Y-62010000D03*
X181000000Y-60990000D03*
%TD*%
%TO.C,R3*%
X166000000Y-62010000D03*
X166000000Y-60990000D03*
%TD*%
D17*
%TO.C,J1*%
X122350000Y-88650000D03*
D18*
X119810000Y-88650000D03*
X117270000Y-88650000D03*
X114730000Y-88650000D03*
%TD*%
D17*
%TO.C,J1*%
X167350000Y-73650000D03*
D18*
X164810000Y-73650000D03*
X162270000Y-73650000D03*
X159730000Y-73650000D03*
%TD*%
D17*
%TO.C,J1*%
X182350000Y-73650000D03*
D18*
X179810000Y-73650000D03*
X177270000Y-73650000D03*
X174730000Y-73650000D03*
%TD*%
D17*
%TO.C,J1*%
X137350000Y-88650000D03*
D18*
X134810000Y-88650000D03*
X132270000Y-88650000D03*
X129730000Y-88650000D03*
%TD*%
D17*
%TO.C,J1*%
X167350000Y-43650000D03*
D18*
X164810000Y-43650000D03*
X162270000Y-43650000D03*
X159730000Y-43650000D03*
%TD*%
D17*
%TO.C,J1*%
X122350000Y-73650000D03*
D18*
X119810000Y-73650000D03*
X117270000Y-73650000D03*
X114730000Y-73650000D03*
%TD*%
D17*
%TO.C,J1*%
X152350000Y-73650000D03*
D18*
X149810000Y-73650000D03*
X147270000Y-73650000D03*
X144730000Y-73650000D03*
%TD*%
D17*
%TO.C,J1*%
X137350000Y-73650000D03*
D18*
X134810000Y-73650000D03*
X132270000Y-73650000D03*
X129730000Y-73650000D03*
%TD*%
D17*
%TO.C,J1*%
X152350000Y-28650000D03*
D18*
X149810000Y-28650000D03*
X147270000Y-28650000D03*
X144730000Y-28650000D03*
%TD*%
D17*
%TO.C,J1*%
X152350000Y-88650000D03*
D18*
X149810000Y-88650000D03*
X147270000Y-88650000D03*
X144730000Y-88650000D03*
%TD*%
D17*
%TO.C,J1*%
X167350000Y-88650000D03*
D18*
X164810000Y-88650000D03*
X162270000Y-88650000D03*
X159730000Y-88650000D03*
%TD*%
D17*
%TO.C,J1*%
X137350000Y-28650000D03*
D18*
X134810000Y-28650000D03*
X132270000Y-28650000D03*
X129730000Y-28650000D03*
%TD*%
D17*
%TO.C,J1*%
X182350000Y-88650000D03*
D18*
X179810000Y-88650000D03*
X177270000Y-88650000D03*
X174730000Y-88650000D03*
%TD*%
D17*
%TO.C,J1*%
X122350000Y-28650000D03*
D18*
X119810000Y-28650000D03*
X117270000Y-28650000D03*
X114730000Y-28650000D03*
%TD*%
D17*
%TO.C,J1*%
X152350000Y-43650000D03*
D18*
X149810000Y-43650000D03*
X147270000Y-43650000D03*
X144730000Y-43650000D03*
%TD*%
D17*
%TO.C,J1*%
X167350000Y-28650000D03*
D18*
X164810000Y-28650000D03*
X162270000Y-28650000D03*
X159730000Y-28650000D03*
%TD*%
D17*
%TO.C,J1*%
X182350000Y-43650000D03*
D18*
X179810000Y-43650000D03*
X177270000Y-43650000D03*
X174730000Y-43650000D03*
%TD*%
D17*
%TO.C,J1*%
X137350000Y-58650000D03*
D18*
X134810000Y-58650000D03*
X132270000Y-58650000D03*
X129730000Y-58650000D03*
%TD*%
D17*
%TO.C,J1*%
X137350000Y-43650000D03*
D18*
X134810000Y-43650000D03*
X132270000Y-43650000D03*
X129730000Y-43650000D03*
%TD*%
D17*
%TO.C,J1*%
X122350000Y-43650000D03*
D18*
X119810000Y-43650000D03*
X117270000Y-43650000D03*
X114730000Y-43650000D03*
%TD*%
D17*
%TO.C,J1*%
X122350000Y-58650000D03*
D18*
X119810000Y-58650000D03*
X117270000Y-58650000D03*
X114730000Y-58650000D03*
%TD*%
D17*
%TO.C,J1*%
X167350000Y-58650000D03*
D18*
X164810000Y-58650000D03*
X162270000Y-58650000D03*
X159730000Y-58650000D03*
%TD*%
D17*
%TO.C,J1*%
X182350000Y-58650000D03*
D18*
X179810000Y-58650000D03*
X177270000Y-58650000D03*
X174730000Y-58650000D03*
%TD*%
D17*
%TO.C,J1*%
X182350000Y-28650000D03*
D18*
X179810000Y-28650000D03*
X177270000Y-28650000D03*
X174730000Y-28650000D03*
%TD*%
D17*
%TO.C,J1*%
X152350000Y-58650000D03*
D18*
X149810000Y-58650000D03*
X147270000Y-58650000D03*
X144730000Y-58650000D03*
%TD*%
D17*
%TO.C,J2*%
X182340000Y-70000000D03*
D18*
X179800000Y-70000000D03*
%TD*%
D17*
%TO.C,J2*%
X152340000Y-85000000D03*
D18*
X149800000Y-85000000D03*
%TD*%
D17*
%TO.C,J2*%
X152340000Y-70000000D03*
D18*
X149800000Y-70000000D03*
%TD*%
D17*
%TO.C,J2*%
X167340000Y-70000000D03*
D18*
X164800000Y-70000000D03*
%TD*%
D17*
%TO.C,J2*%
X122340000Y-85000000D03*
D18*
X119800000Y-85000000D03*
%TD*%
D17*
%TO.C,J2*%
X137340000Y-85000000D03*
D18*
X134800000Y-85000000D03*
%TD*%
D17*
%TO.C,J2*%
X182340000Y-85000000D03*
D18*
X179800000Y-85000000D03*
%TD*%
D17*
%TO.C,J2*%
X137340000Y-25000000D03*
D18*
X134800000Y-25000000D03*
%TD*%
D17*
%TO.C,J2*%
X122340000Y-70000000D03*
D18*
X119800000Y-70000000D03*
%TD*%
D17*
%TO.C,J2*%
X122340000Y-25000000D03*
D18*
X119800000Y-25000000D03*
%TD*%
D17*
%TO.C,J2*%
X137340000Y-70000000D03*
D18*
X134800000Y-70000000D03*
%TD*%
D17*
%TO.C,J2*%
X167340000Y-85000000D03*
D18*
X164800000Y-85000000D03*
%TD*%
D17*
%TO.C,J2*%
X137340000Y-40000000D03*
D18*
X134800000Y-40000000D03*
%TD*%
D17*
%TO.C,J2*%
X137340000Y-55000000D03*
D18*
X134800000Y-55000000D03*
%TD*%
D17*
%TO.C,J2*%
X167340000Y-25000000D03*
D18*
X164800000Y-25000000D03*
%TD*%
D17*
%TO.C,J2*%
X167340000Y-55000000D03*
D18*
X164800000Y-55000000D03*
%TD*%
D17*
%TO.C,J2*%
X182340000Y-40000000D03*
D18*
X179800000Y-40000000D03*
%TD*%
D17*
%TO.C,J2*%
X152340000Y-55000000D03*
D18*
X149800000Y-55000000D03*
%TD*%
D17*
%TO.C,J2*%
X122340000Y-40000000D03*
D18*
X119800000Y-40000000D03*
%TD*%
D17*
%TO.C,J2*%
X152340000Y-25000000D03*
D18*
X149800000Y-25000000D03*
%TD*%
D17*
%TO.C,J2*%
X152340000Y-40000000D03*
D18*
X149800000Y-40000000D03*
%TD*%
D17*
%TO.C,J2*%
X182340000Y-25000000D03*
D18*
X179800000Y-25000000D03*
%TD*%
D17*
%TO.C,J2*%
X167340000Y-40000000D03*
D18*
X164800000Y-40000000D03*
%TD*%
D17*
%TO.C,J2*%
X122340000Y-55000000D03*
D18*
X119800000Y-55000000D03*
%TD*%
D17*
%TO.C,J2*%
X182340000Y-55000000D03*
D18*
X179800000Y-55000000D03*
%TD*%
M02*
