%TF.GenerationSoftware,KiCad,Pcbnew,7.0.1*%
%TF.CreationDate,2025-01-23T11:44:41-05:00*%
%TF.ProjectId,ESP32_Dock,45535033-325f-4446-9f63-6b2e6b696361,rev?*%
%TF.SameCoordinates,Original*%
%TF.FileFunction,Legend,Top*%
%TF.FilePolarity,Positive*%
%FSLAX46Y46*%
G04 Gerber Fmt 4.6, Leading zero omitted, Abs format (unit mm)*
G04 Created by KiCad (PCBNEW 7.0.1) date 2025-01-23 11:44:41*
%MOMM*%
%LPD*%
G01*
G04 APERTURE LIST*
%ADD10C,0.150000*%
%ADD11C,0.120000*%
G04 APERTURE END LIST*
D10*
X91785714Y-48415000D02*
X91928571Y-48462619D01*
X91928571Y-48462619D02*
X92166666Y-48462619D01*
X92166666Y-48462619D02*
X92261904Y-48415000D01*
X92261904Y-48415000D02*
X92309523Y-48367380D01*
X92309523Y-48367380D02*
X92357142Y-48272142D01*
X92357142Y-48272142D02*
X92357142Y-48176904D01*
X92357142Y-48176904D02*
X92309523Y-48081666D01*
X92309523Y-48081666D02*
X92261904Y-48034047D01*
X92261904Y-48034047D02*
X92166666Y-47986428D01*
X92166666Y-47986428D02*
X91976190Y-47938809D01*
X91976190Y-47938809D02*
X91880952Y-47891190D01*
X91880952Y-47891190D02*
X91833333Y-47843571D01*
X91833333Y-47843571D02*
X91785714Y-47748333D01*
X91785714Y-47748333D02*
X91785714Y-47653095D01*
X91785714Y-47653095D02*
X91833333Y-47557857D01*
X91833333Y-47557857D02*
X91880952Y-47510238D01*
X91880952Y-47510238D02*
X91976190Y-47462619D01*
X91976190Y-47462619D02*
X92214285Y-47462619D01*
X92214285Y-47462619D02*
X92357142Y-47510238D01*
X92785714Y-48462619D02*
X92785714Y-47462619D01*
X92785714Y-47462619D02*
X93023809Y-47462619D01*
X93023809Y-47462619D02*
X93166666Y-47510238D01*
X93166666Y-47510238D02*
X93261904Y-47605476D01*
X93261904Y-47605476D02*
X93309523Y-47700714D01*
X93309523Y-47700714D02*
X93357142Y-47891190D01*
X93357142Y-47891190D02*
X93357142Y-48034047D01*
X93357142Y-48034047D02*
X93309523Y-48224523D01*
X93309523Y-48224523D02*
X93261904Y-48319761D01*
X93261904Y-48319761D02*
X93166666Y-48415000D01*
X93166666Y-48415000D02*
X93023809Y-48462619D01*
X93023809Y-48462619D02*
X92785714Y-48462619D01*
X93738095Y-48176904D02*
X94214285Y-48176904D01*
X93642857Y-48462619D02*
X93976190Y-47462619D01*
X93976190Y-47462619D02*
X94309523Y-48462619D01*
X91666667Y-42462619D02*
X92000000Y-43462619D01*
X92000000Y-43462619D02*
X92333333Y-42462619D01*
X93238095Y-43367380D02*
X93190476Y-43415000D01*
X93190476Y-43415000D02*
X93047619Y-43462619D01*
X93047619Y-43462619D02*
X92952381Y-43462619D01*
X92952381Y-43462619D02*
X92809524Y-43415000D01*
X92809524Y-43415000D02*
X92714286Y-43319761D01*
X92714286Y-43319761D02*
X92666667Y-43224523D01*
X92666667Y-43224523D02*
X92619048Y-43034047D01*
X92619048Y-43034047D02*
X92619048Y-42891190D01*
X92619048Y-42891190D02*
X92666667Y-42700714D01*
X92666667Y-42700714D02*
X92714286Y-42605476D01*
X92714286Y-42605476D02*
X92809524Y-42510238D01*
X92809524Y-42510238D02*
X92952381Y-42462619D01*
X92952381Y-42462619D02*
X93047619Y-42462619D01*
X93047619Y-42462619D02*
X93190476Y-42510238D01*
X93190476Y-42510238D02*
X93238095Y-42557857D01*
X94238095Y-43367380D02*
X94190476Y-43415000D01*
X94190476Y-43415000D02*
X94047619Y-43462619D01*
X94047619Y-43462619D02*
X93952381Y-43462619D01*
X93952381Y-43462619D02*
X93809524Y-43415000D01*
X93809524Y-43415000D02*
X93714286Y-43319761D01*
X93714286Y-43319761D02*
X93666667Y-43224523D01*
X93666667Y-43224523D02*
X93619048Y-43034047D01*
X93619048Y-43034047D02*
X93619048Y-42891190D01*
X93619048Y-42891190D02*
X93666667Y-42700714D01*
X93666667Y-42700714D02*
X93714286Y-42605476D01*
X93714286Y-42605476D02*
X93809524Y-42510238D01*
X93809524Y-42510238D02*
X93952381Y-42462619D01*
X93952381Y-42462619D02*
X94047619Y-42462619D01*
X94047619Y-42462619D02*
X94190476Y-42510238D01*
X94190476Y-42510238D02*
X94238095Y-42557857D01*
X92238095Y-45010238D02*
X92142857Y-44962619D01*
X92142857Y-44962619D02*
X92000000Y-44962619D01*
X92000000Y-44962619D02*
X91857143Y-45010238D01*
X91857143Y-45010238D02*
X91761905Y-45105476D01*
X91761905Y-45105476D02*
X91714286Y-45200714D01*
X91714286Y-45200714D02*
X91666667Y-45391190D01*
X91666667Y-45391190D02*
X91666667Y-45534047D01*
X91666667Y-45534047D02*
X91714286Y-45724523D01*
X91714286Y-45724523D02*
X91761905Y-45819761D01*
X91761905Y-45819761D02*
X91857143Y-45915000D01*
X91857143Y-45915000D02*
X92000000Y-45962619D01*
X92000000Y-45962619D02*
X92095238Y-45962619D01*
X92095238Y-45962619D02*
X92238095Y-45915000D01*
X92238095Y-45915000D02*
X92285714Y-45867380D01*
X92285714Y-45867380D02*
X92285714Y-45534047D01*
X92285714Y-45534047D02*
X92095238Y-45534047D01*
X92714286Y-45962619D02*
X92714286Y-44962619D01*
X92714286Y-44962619D02*
X93285714Y-45962619D01*
X93285714Y-45962619D02*
X93285714Y-44962619D01*
X93761905Y-45962619D02*
X93761905Y-44962619D01*
X93761905Y-44962619D02*
X94000000Y-44962619D01*
X94000000Y-44962619D02*
X94142857Y-45010238D01*
X94142857Y-45010238D02*
X94238095Y-45105476D01*
X94238095Y-45105476D02*
X94285714Y-45200714D01*
X94285714Y-45200714D02*
X94333333Y-45391190D01*
X94333333Y-45391190D02*
X94333333Y-45534047D01*
X94333333Y-45534047D02*
X94285714Y-45724523D01*
X94285714Y-45724523D02*
X94238095Y-45819761D01*
X94238095Y-45819761D02*
X94142857Y-45915000D01*
X94142857Y-45915000D02*
X94000000Y-45962619D01*
X94000000Y-45962619D02*
X93761905Y-45962619D01*
X91809524Y-50915000D02*
X91952381Y-50962619D01*
X91952381Y-50962619D02*
X92190476Y-50962619D01*
X92190476Y-50962619D02*
X92285714Y-50915000D01*
X92285714Y-50915000D02*
X92333333Y-50867380D01*
X92333333Y-50867380D02*
X92380952Y-50772142D01*
X92380952Y-50772142D02*
X92380952Y-50676904D01*
X92380952Y-50676904D02*
X92333333Y-50581666D01*
X92333333Y-50581666D02*
X92285714Y-50534047D01*
X92285714Y-50534047D02*
X92190476Y-50486428D01*
X92190476Y-50486428D02*
X92000000Y-50438809D01*
X92000000Y-50438809D02*
X91904762Y-50391190D01*
X91904762Y-50391190D02*
X91857143Y-50343571D01*
X91857143Y-50343571D02*
X91809524Y-50248333D01*
X91809524Y-50248333D02*
X91809524Y-50153095D01*
X91809524Y-50153095D02*
X91857143Y-50057857D01*
X91857143Y-50057857D02*
X91904762Y-50010238D01*
X91904762Y-50010238D02*
X92000000Y-49962619D01*
X92000000Y-49962619D02*
X92238095Y-49962619D01*
X92238095Y-49962619D02*
X92380952Y-50010238D01*
X93380952Y-50867380D02*
X93333333Y-50915000D01*
X93333333Y-50915000D02*
X93190476Y-50962619D01*
X93190476Y-50962619D02*
X93095238Y-50962619D01*
X93095238Y-50962619D02*
X92952381Y-50915000D01*
X92952381Y-50915000D02*
X92857143Y-50819761D01*
X92857143Y-50819761D02*
X92809524Y-50724523D01*
X92809524Y-50724523D02*
X92761905Y-50534047D01*
X92761905Y-50534047D02*
X92761905Y-50391190D01*
X92761905Y-50391190D02*
X92809524Y-50200714D01*
X92809524Y-50200714D02*
X92857143Y-50105476D01*
X92857143Y-50105476D02*
X92952381Y-50010238D01*
X92952381Y-50010238D02*
X93095238Y-49962619D01*
X93095238Y-49962619D02*
X93190476Y-49962619D01*
X93190476Y-49962619D02*
X93333333Y-50010238D01*
X93333333Y-50010238D02*
X93380952Y-50057857D01*
X94285714Y-50962619D02*
X93809524Y-50962619D01*
X93809524Y-50962619D02*
X93809524Y-49962619D01*
X97761905Y-47462619D02*
X98333333Y-47462619D01*
X98047619Y-48462619D02*
X98047619Y-47462619D01*
X98571429Y-47462619D02*
X99238095Y-48462619D01*
X99238095Y-47462619D02*
X98571429Y-48462619D01*
X100142857Y-48462619D02*
X99571429Y-48462619D01*
X99857143Y-48462619D02*
X99857143Y-47462619D01*
X99857143Y-47462619D02*
X99761905Y-47605476D01*
X99761905Y-47605476D02*
X99666667Y-47700714D01*
X99666667Y-47700714D02*
X99571429Y-47748333D01*
X98357142Y-50962619D02*
X98023809Y-50486428D01*
X97785714Y-50962619D02*
X97785714Y-49962619D01*
X97785714Y-49962619D02*
X98166666Y-49962619D01*
X98166666Y-49962619D02*
X98261904Y-50010238D01*
X98261904Y-50010238D02*
X98309523Y-50057857D01*
X98309523Y-50057857D02*
X98357142Y-50153095D01*
X98357142Y-50153095D02*
X98357142Y-50295952D01*
X98357142Y-50295952D02*
X98309523Y-50391190D01*
X98309523Y-50391190D02*
X98261904Y-50438809D01*
X98261904Y-50438809D02*
X98166666Y-50486428D01*
X98166666Y-50486428D02*
X97785714Y-50486428D01*
X98690476Y-49962619D02*
X99357142Y-50962619D01*
X99357142Y-49962619D02*
X98690476Y-50962619D01*
X100261904Y-50962619D02*
X99690476Y-50962619D01*
X99976190Y-50962619D02*
X99976190Y-49962619D01*
X99976190Y-49962619D02*
X99880952Y-50105476D01*
X99880952Y-50105476D02*
X99785714Y-50200714D01*
X99785714Y-50200714D02*
X99690476Y-50248333D01*
X97666667Y-42462619D02*
X98000000Y-43462619D01*
X98000000Y-43462619D02*
X98333333Y-42462619D01*
X99238095Y-43367380D02*
X99190476Y-43415000D01*
X99190476Y-43415000D02*
X99047619Y-43462619D01*
X99047619Y-43462619D02*
X98952381Y-43462619D01*
X98952381Y-43462619D02*
X98809524Y-43415000D01*
X98809524Y-43415000D02*
X98714286Y-43319761D01*
X98714286Y-43319761D02*
X98666667Y-43224523D01*
X98666667Y-43224523D02*
X98619048Y-43034047D01*
X98619048Y-43034047D02*
X98619048Y-42891190D01*
X98619048Y-42891190D02*
X98666667Y-42700714D01*
X98666667Y-42700714D02*
X98714286Y-42605476D01*
X98714286Y-42605476D02*
X98809524Y-42510238D01*
X98809524Y-42510238D02*
X98952381Y-42462619D01*
X98952381Y-42462619D02*
X99047619Y-42462619D01*
X99047619Y-42462619D02*
X99190476Y-42510238D01*
X99190476Y-42510238D02*
X99238095Y-42557857D01*
X100238095Y-43367380D02*
X100190476Y-43415000D01*
X100190476Y-43415000D02*
X100047619Y-43462619D01*
X100047619Y-43462619D02*
X99952381Y-43462619D01*
X99952381Y-43462619D02*
X99809524Y-43415000D01*
X99809524Y-43415000D02*
X99714286Y-43319761D01*
X99714286Y-43319761D02*
X99666667Y-43224523D01*
X99666667Y-43224523D02*
X99619048Y-43034047D01*
X99619048Y-43034047D02*
X99619048Y-42891190D01*
X99619048Y-42891190D02*
X99666667Y-42700714D01*
X99666667Y-42700714D02*
X99714286Y-42605476D01*
X99714286Y-42605476D02*
X99809524Y-42510238D01*
X99809524Y-42510238D02*
X99952381Y-42462619D01*
X99952381Y-42462619D02*
X100047619Y-42462619D01*
X100047619Y-42462619D02*
X100190476Y-42510238D01*
X100190476Y-42510238D02*
X100238095Y-42557857D01*
X98238095Y-45010238D02*
X98142857Y-44962619D01*
X98142857Y-44962619D02*
X98000000Y-44962619D01*
X98000000Y-44962619D02*
X97857143Y-45010238D01*
X97857143Y-45010238D02*
X97761905Y-45105476D01*
X97761905Y-45105476D02*
X97714286Y-45200714D01*
X97714286Y-45200714D02*
X97666667Y-45391190D01*
X97666667Y-45391190D02*
X97666667Y-45534047D01*
X97666667Y-45534047D02*
X97714286Y-45724523D01*
X97714286Y-45724523D02*
X97761905Y-45819761D01*
X97761905Y-45819761D02*
X97857143Y-45915000D01*
X97857143Y-45915000D02*
X98000000Y-45962619D01*
X98000000Y-45962619D02*
X98095238Y-45962619D01*
X98095238Y-45962619D02*
X98238095Y-45915000D01*
X98238095Y-45915000D02*
X98285714Y-45867380D01*
X98285714Y-45867380D02*
X98285714Y-45534047D01*
X98285714Y-45534047D02*
X98095238Y-45534047D01*
X98714286Y-45962619D02*
X98714286Y-44962619D01*
X98714286Y-44962619D02*
X99285714Y-45962619D01*
X99285714Y-45962619D02*
X99285714Y-44962619D01*
X99761905Y-45962619D02*
X99761905Y-44962619D01*
X99761905Y-44962619D02*
X100000000Y-44962619D01*
X100000000Y-44962619D02*
X100142857Y-45010238D01*
X100142857Y-45010238D02*
X100238095Y-45105476D01*
X100238095Y-45105476D02*
X100285714Y-45200714D01*
X100285714Y-45200714D02*
X100333333Y-45391190D01*
X100333333Y-45391190D02*
X100333333Y-45534047D01*
X100333333Y-45534047D02*
X100285714Y-45724523D01*
X100285714Y-45724523D02*
X100238095Y-45819761D01*
X100238095Y-45819761D02*
X100142857Y-45915000D01*
X100142857Y-45915000D02*
X100000000Y-45962619D01*
X100000000Y-45962619D02*
X99761905Y-45962619D01*
X70857142Y-48462619D02*
X70523809Y-47986428D01*
X70285714Y-48462619D02*
X70285714Y-47462619D01*
X70285714Y-47462619D02*
X70666666Y-47462619D01*
X70666666Y-47462619D02*
X70761904Y-47510238D01*
X70761904Y-47510238D02*
X70809523Y-47557857D01*
X70809523Y-47557857D02*
X70857142Y-47653095D01*
X70857142Y-47653095D02*
X70857142Y-47795952D01*
X70857142Y-47795952D02*
X70809523Y-47891190D01*
X70809523Y-47891190D02*
X70761904Y-47938809D01*
X70761904Y-47938809D02*
X70666666Y-47986428D01*
X70666666Y-47986428D02*
X70285714Y-47986428D01*
X71190476Y-47462619D02*
X71857142Y-48462619D01*
X71857142Y-47462619D02*
X71190476Y-48462619D01*
X72428571Y-47462619D02*
X72523809Y-47462619D01*
X72523809Y-47462619D02*
X72619047Y-47510238D01*
X72619047Y-47510238D02*
X72666666Y-47557857D01*
X72666666Y-47557857D02*
X72714285Y-47653095D01*
X72714285Y-47653095D02*
X72761904Y-47843571D01*
X72761904Y-47843571D02*
X72761904Y-48081666D01*
X72761904Y-48081666D02*
X72714285Y-48272142D01*
X72714285Y-48272142D02*
X72666666Y-48367380D01*
X72666666Y-48367380D02*
X72619047Y-48415000D01*
X72619047Y-48415000D02*
X72523809Y-48462619D01*
X72523809Y-48462619D02*
X72428571Y-48462619D01*
X72428571Y-48462619D02*
X72333333Y-48415000D01*
X72333333Y-48415000D02*
X72285714Y-48367380D01*
X72285714Y-48367380D02*
X72238095Y-48272142D01*
X72238095Y-48272142D02*
X72190476Y-48081666D01*
X72190476Y-48081666D02*
X72190476Y-47843571D01*
X72190476Y-47843571D02*
X72238095Y-47653095D01*
X72238095Y-47653095D02*
X72285714Y-47557857D01*
X72285714Y-47557857D02*
X72333333Y-47510238D01*
X72333333Y-47510238D02*
X72428571Y-47462619D01*
X70261905Y-49962619D02*
X70833333Y-49962619D01*
X70547619Y-50962619D02*
X70547619Y-49962619D01*
X71071429Y-49962619D02*
X71738095Y-50962619D01*
X71738095Y-49962619D02*
X71071429Y-50962619D01*
X72309524Y-49962619D02*
X72404762Y-49962619D01*
X72404762Y-49962619D02*
X72500000Y-50010238D01*
X72500000Y-50010238D02*
X72547619Y-50057857D01*
X72547619Y-50057857D02*
X72595238Y-50153095D01*
X72595238Y-50153095D02*
X72642857Y-50343571D01*
X72642857Y-50343571D02*
X72642857Y-50581666D01*
X72642857Y-50581666D02*
X72595238Y-50772142D01*
X72595238Y-50772142D02*
X72547619Y-50867380D01*
X72547619Y-50867380D02*
X72500000Y-50915000D01*
X72500000Y-50915000D02*
X72404762Y-50962619D01*
X72404762Y-50962619D02*
X72309524Y-50962619D01*
X72309524Y-50962619D02*
X72214286Y-50915000D01*
X72214286Y-50915000D02*
X72166667Y-50867380D01*
X72166667Y-50867380D02*
X72119048Y-50772142D01*
X72119048Y-50772142D02*
X72071429Y-50581666D01*
X72071429Y-50581666D02*
X72071429Y-50343571D01*
X72071429Y-50343571D02*
X72119048Y-50153095D01*
X72119048Y-50153095D02*
X72166667Y-50057857D01*
X72166667Y-50057857D02*
X72214286Y-50010238D01*
X72214286Y-50010238D02*
X72309524Y-49962619D01*
X70404762Y-42462619D02*
X70738095Y-43462619D01*
X70738095Y-43462619D02*
X71071428Y-42462619D01*
X71404762Y-43462619D02*
X71404762Y-42462619D01*
X71880952Y-43462619D02*
X71880952Y-42462619D01*
X71880952Y-42462619D02*
X72452380Y-43462619D01*
X72452380Y-43462619D02*
X72452380Y-42462619D01*
X70738095Y-45010238D02*
X70642857Y-44962619D01*
X70642857Y-44962619D02*
X70500000Y-44962619D01*
X70500000Y-44962619D02*
X70357143Y-45010238D01*
X70357143Y-45010238D02*
X70261905Y-45105476D01*
X70261905Y-45105476D02*
X70214286Y-45200714D01*
X70214286Y-45200714D02*
X70166667Y-45391190D01*
X70166667Y-45391190D02*
X70166667Y-45534047D01*
X70166667Y-45534047D02*
X70214286Y-45724523D01*
X70214286Y-45724523D02*
X70261905Y-45819761D01*
X70261905Y-45819761D02*
X70357143Y-45915000D01*
X70357143Y-45915000D02*
X70500000Y-45962619D01*
X70500000Y-45962619D02*
X70595238Y-45962619D01*
X70595238Y-45962619D02*
X70738095Y-45915000D01*
X70738095Y-45915000D02*
X70785714Y-45867380D01*
X70785714Y-45867380D02*
X70785714Y-45534047D01*
X70785714Y-45534047D02*
X70595238Y-45534047D01*
X71214286Y-45962619D02*
X71214286Y-44962619D01*
X71214286Y-44962619D02*
X71785714Y-45962619D01*
X71785714Y-45962619D02*
X71785714Y-44962619D01*
X72261905Y-45962619D02*
X72261905Y-44962619D01*
X72261905Y-44962619D02*
X72500000Y-44962619D01*
X72500000Y-44962619D02*
X72642857Y-45010238D01*
X72642857Y-45010238D02*
X72738095Y-45105476D01*
X72738095Y-45105476D02*
X72785714Y-45200714D01*
X72785714Y-45200714D02*
X72833333Y-45391190D01*
X72833333Y-45391190D02*
X72833333Y-45534047D01*
X72833333Y-45534047D02*
X72785714Y-45724523D01*
X72785714Y-45724523D02*
X72738095Y-45819761D01*
X72738095Y-45819761D02*
X72642857Y-45915000D01*
X72642857Y-45915000D02*
X72500000Y-45962619D01*
X72500000Y-45962619D02*
X72261905Y-45962619D01*
X88442142Y-39238095D02*
X88489761Y-39285714D01*
X88489761Y-39285714D02*
X88537380Y-39380952D01*
X88537380Y-39380952D02*
X88537380Y-39619047D01*
X88537380Y-39619047D02*
X88489761Y-39714285D01*
X88489761Y-39714285D02*
X88442142Y-39761904D01*
X88442142Y-39761904D02*
X88346904Y-39809523D01*
X88346904Y-39809523D02*
X88251666Y-39809523D01*
X88251666Y-39809523D02*
X88108809Y-39761904D01*
X88108809Y-39761904D02*
X87537380Y-39190476D01*
X87537380Y-39190476D02*
X87537380Y-39809523D01*
X88537380Y-40142857D02*
X88537380Y-40761904D01*
X88537380Y-40761904D02*
X88156428Y-40428571D01*
X88156428Y-40428571D02*
X88156428Y-40571428D01*
X88156428Y-40571428D02*
X88108809Y-40666666D01*
X88108809Y-40666666D02*
X88061190Y-40714285D01*
X88061190Y-40714285D02*
X87965952Y-40761904D01*
X87965952Y-40761904D02*
X87727857Y-40761904D01*
X87727857Y-40761904D02*
X87632619Y-40714285D01*
X87632619Y-40714285D02*
X87585000Y-40666666D01*
X87585000Y-40666666D02*
X87537380Y-40571428D01*
X87537380Y-40571428D02*
X87537380Y-40285714D01*
X87537380Y-40285714D02*
X87585000Y-40190476D01*
X87585000Y-40190476D02*
X87632619Y-40142857D01*
X82537380Y-39809523D02*
X82537380Y-39238095D01*
X82537380Y-39523809D02*
X83537380Y-39523809D01*
X83537380Y-39523809D02*
X83394523Y-39428571D01*
X83394523Y-39428571D02*
X83299285Y-39333333D01*
X83299285Y-39333333D02*
X83251666Y-39238095D01*
X83108809Y-40380952D02*
X83156428Y-40285714D01*
X83156428Y-40285714D02*
X83204047Y-40238095D01*
X83204047Y-40238095D02*
X83299285Y-40190476D01*
X83299285Y-40190476D02*
X83346904Y-40190476D01*
X83346904Y-40190476D02*
X83442142Y-40238095D01*
X83442142Y-40238095D02*
X83489761Y-40285714D01*
X83489761Y-40285714D02*
X83537380Y-40380952D01*
X83537380Y-40380952D02*
X83537380Y-40571428D01*
X83537380Y-40571428D02*
X83489761Y-40666666D01*
X83489761Y-40666666D02*
X83442142Y-40714285D01*
X83442142Y-40714285D02*
X83346904Y-40761904D01*
X83346904Y-40761904D02*
X83299285Y-40761904D01*
X83299285Y-40761904D02*
X83204047Y-40714285D01*
X83204047Y-40714285D02*
X83156428Y-40666666D01*
X83156428Y-40666666D02*
X83108809Y-40571428D01*
X83108809Y-40571428D02*
X83108809Y-40380952D01*
X83108809Y-40380952D02*
X83061190Y-40285714D01*
X83061190Y-40285714D02*
X83013571Y-40238095D01*
X83013571Y-40238095D02*
X82918333Y-40190476D01*
X82918333Y-40190476D02*
X82727857Y-40190476D01*
X82727857Y-40190476D02*
X82632619Y-40238095D01*
X82632619Y-40238095D02*
X82585000Y-40285714D01*
X82585000Y-40285714D02*
X82537380Y-40380952D01*
X82537380Y-40380952D02*
X82537380Y-40571428D01*
X82537380Y-40571428D02*
X82585000Y-40666666D01*
X82585000Y-40666666D02*
X82632619Y-40714285D01*
X82632619Y-40714285D02*
X82727857Y-40761904D01*
X82727857Y-40761904D02*
X82918333Y-40761904D01*
X82918333Y-40761904D02*
X83013571Y-40714285D01*
X83013571Y-40714285D02*
X83061190Y-40666666D01*
X83061190Y-40666666D02*
X83108809Y-40571428D01*
X72287380Y-39809523D02*
X72287380Y-39238095D01*
X72287380Y-39523809D02*
X73287380Y-39523809D01*
X73287380Y-39523809D02*
X73144523Y-39428571D01*
X73144523Y-39428571D02*
X73049285Y-39333333D01*
X73049285Y-39333333D02*
X73001666Y-39238095D01*
X73287380Y-40714285D02*
X73287380Y-40238095D01*
X73287380Y-40238095D02*
X72811190Y-40190476D01*
X72811190Y-40190476D02*
X72858809Y-40238095D01*
X72858809Y-40238095D02*
X72906428Y-40333333D01*
X72906428Y-40333333D02*
X72906428Y-40571428D01*
X72906428Y-40571428D02*
X72858809Y-40666666D01*
X72858809Y-40666666D02*
X72811190Y-40714285D01*
X72811190Y-40714285D02*
X72715952Y-40761904D01*
X72715952Y-40761904D02*
X72477857Y-40761904D01*
X72477857Y-40761904D02*
X72382619Y-40714285D01*
X72382619Y-40714285D02*
X72335000Y-40666666D01*
X72335000Y-40666666D02*
X72287380Y-40571428D01*
X72287380Y-40571428D02*
X72287380Y-40333333D01*
X72287380Y-40333333D02*
X72335000Y-40238095D01*
X72335000Y-40238095D02*
X72382619Y-40190476D01*
X80787380Y-40238095D02*
X80787380Y-39761905D01*
X80787380Y-39761905D02*
X80311190Y-39714286D01*
X80311190Y-39714286D02*
X80358809Y-39761905D01*
X80358809Y-39761905D02*
X80406428Y-39857143D01*
X80406428Y-39857143D02*
X80406428Y-40095238D01*
X80406428Y-40095238D02*
X80358809Y-40190476D01*
X80358809Y-40190476D02*
X80311190Y-40238095D01*
X80311190Y-40238095D02*
X80215952Y-40285714D01*
X80215952Y-40285714D02*
X79977857Y-40285714D01*
X79977857Y-40285714D02*
X79882619Y-40238095D01*
X79882619Y-40238095D02*
X79835000Y-40190476D01*
X79835000Y-40190476D02*
X79787380Y-40095238D01*
X79787380Y-40095238D02*
X79787380Y-39857143D01*
X79787380Y-39857143D02*
X79835000Y-39761905D01*
X79835000Y-39761905D02*
X79882619Y-39714286D01*
X75692142Y-39714286D02*
X75739761Y-39761905D01*
X75739761Y-39761905D02*
X75787380Y-39857143D01*
X75787380Y-39857143D02*
X75787380Y-40095238D01*
X75787380Y-40095238D02*
X75739761Y-40190476D01*
X75739761Y-40190476D02*
X75692142Y-40238095D01*
X75692142Y-40238095D02*
X75596904Y-40285714D01*
X75596904Y-40285714D02*
X75501666Y-40285714D01*
X75501666Y-40285714D02*
X75358809Y-40238095D01*
X75358809Y-40238095D02*
X74787380Y-39666667D01*
X74787380Y-39666667D02*
X74787380Y-40285714D01*
X77954047Y-40190476D02*
X77287380Y-40190476D01*
X78335000Y-39952381D02*
X77620714Y-39714286D01*
X77620714Y-39714286D02*
X77620714Y-40333333D01*
X85037380Y-39809523D02*
X85037380Y-39238095D01*
X85037380Y-39523809D02*
X86037380Y-39523809D01*
X86037380Y-39523809D02*
X85894523Y-39428571D01*
X85894523Y-39428571D02*
X85799285Y-39333333D01*
X85799285Y-39333333D02*
X85751666Y-39238095D01*
X85037380Y-40285714D02*
X85037380Y-40476190D01*
X85037380Y-40476190D02*
X85085000Y-40571428D01*
X85085000Y-40571428D02*
X85132619Y-40619047D01*
X85132619Y-40619047D02*
X85275476Y-40714285D01*
X85275476Y-40714285D02*
X85465952Y-40761904D01*
X85465952Y-40761904D02*
X85846904Y-40761904D01*
X85846904Y-40761904D02*
X85942142Y-40714285D01*
X85942142Y-40714285D02*
X85989761Y-40666666D01*
X85989761Y-40666666D02*
X86037380Y-40571428D01*
X86037380Y-40571428D02*
X86037380Y-40380952D01*
X86037380Y-40380952D02*
X85989761Y-40285714D01*
X85989761Y-40285714D02*
X85942142Y-40238095D01*
X85942142Y-40238095D02*
X85846904Y-40190476D01*
X85846904Y-40190476D02*
X85608809Y-40190476D01*
X85608809Y-40190476D02*
X85513571Y-40238095D01*
X85513571Y-40238095D02*
X85465952Y-40285714D01*
X85465952Y-40285714D02*
X85418333Y-40380952D01*
X85418333Y-40380952D02*
X85418333Y-40571428D01*
X85418333Y-40571428D02*
X85465952Y-40666666D01*
X85465952Y-40666666D02*
X85513571Y-40714285D01*
X85513571Y-40714285D02*
X85608809Y-40761904D01*
X103311190Y-53261905D02*
X103311190Y-53595238D01*
X102787380Y-53738095D02*
X102787380Y-53261905D01*
X102787380Y-53261905D02*
X103787380Y-53261905D01*
X103787380Y-53261905D02*
X103787380Y-53738095D01*
X102787380Y-54166667D02*
X103787380Y-54166667D01*
X103787380Y-54166667D02*
X102787380Y-54738095D01*
X102787380Y-54738095D02*
X103787380Y-54738095D01*
X101287380Y-53190476D02*
X101287380Y-53809523D01*
X101287380Y-53809523D02*
X100906428Y-53476190D01*
X100906428Y-53476190D02*
X100906428Y-53619047D01*
X100906428Y-53619047D02*
X100858809Y-53714285D01*
X100858809Y-53714285D02*
X100811190Y-53761904D01*
X100811190Y-53761904D02*
X100715952Y-53809523D01*
X100715952Y-53809523D02*
X100477857Y-53809523D01*
X100477857Y-53809523D02*
X100382619Y-53761904D01*
X100382619Y-53761904D02*
X100335000Y-53714285D01*
X100335000Y-53714285D02*
X100287380Y-53619047D01*
X100287380Y-53619047D02*
X100287380Y-53333333D01*
X100287380Y-53333333D02*
X100335000Y-53238095D01*
X100335000Y-53238095D02*
X100382619Y-53190476D01*
X101287380Y-54666666D02*
X101287380Y-54476190D01*
X101287380Y-54476190D02*
X101239761Y-54380952D01*
X101239761Y-54380952D02*
X101192142Y-54333333D01*
X101192142Y-54333333D02*
X101049285Y-54238095D01*
X101049285Y-54238095D02*
X100858809Y-54190476D01*
X100858809Y-54190476D02*
X100477857Y-54190476D01*
X100477857Y-54190476D02*
X100382619Y-54238095D01*
X100382619Y-54238095D02*
X100335000Y-54285714D01*
X100335000Y-54285714D02*
X100287380Y-54380952D01*
X100287380Y-54380952D02*
X100287380Y-54571428D01*
X100287380Y-54571428D02*
X100335000Y-54666666D01*
X100335000Y-54666666D02*
X100382619Y-54714285D01*
X100382619Y-54714285D02*
X100477857Y-54761904D01*
X100477857Y-54761904D02*
X100715952Y-54761904D01*
X100715952Y-54761904D02*
X100811190Y-54714285D01*
X100811190Y-54714285D02*
X100858809Y-54666666D01*
X100858809Y-54666666D02*
X100906428Y-54571428D01*
X100906428Y-54571428D02*
X100906428Y-54380952D01*
X100906428Y-54380952D02*
X100858809Y-54285714D01*
X100858809Y-54285714D02*
X100811190Y-54238095D01*
X100811190Y-54238095D02*
X100715952Y-54190476D01*
X98787380Y-53190476D02*
X98787380Y-53809523D01*
X98787380Y-53809523D02*
X98406428Y-53476190D01*
X98406428Y-53476190D02*
X98406428Y-53619047D01*
X98406428Y-53619047D02*
X98358809Y-53714285D01*
X98358809Y-53714285D02*
X98311190Y-53761904D01*
X98311190Y-53761904D02*
X98215952Y-53809523D01*
X98215952Y-53809523D02*
X97977857Y-53809523D01*
X97977857Y-53809523D02*
X97882619Y-53761904D01*
X97882619Y-53761904D02*
X97835000Y-53714285D01*
X97835000Y-53714285D02*
X97787380Y-53619047D01*
X97787380Y-53619047D02*
X97787380Y-53333333D01*
X97787380Y-53333333D02*
X97835000Y-53238095D01*
X97835000Y-53238095D02*
X97882619Y-53190476D01*
X97787380Y-54285714D02*
X97787380Y-54476190D01*
X97787380Y-54476190D02*
X97835000Y-54571428D01*
X97835000Y-54571428D02*
X97882619Y-54619047D01*
X97882619Y-54619047D02*
X98025476Y-54714285D01*
X98025476Y-54714285D02*
X98215952Y-54761904D01*
X98215952Y-54761904D02*
X98596904Y-54761904D01*
X98596904Y-54761904D02*
X98692142Y-54714285D01*
X98692142Y-54714285D02*
X98739761Y-54666666D01*
X98739761Y-54666666D02*
X98787380Y-54571428D01*
X98787380Y-54571428D02*
X98787380Y-54380952D01*
X98787380Y-54380952D02*
X98739761Y-54285714D01*
X98739761Y-54285714D02*
X98692142Y-54238095D01*
X98692142Y-54238095D02*
X98596904Y-54190476D01*
X98596904Y-54190476D02*
X98358809Y-54190476D01*
X98358809Y-54190476D02*
X98263571Y-54238095D01*
X98263571Y-54238095D02*
X98215952Y-54285714D01*
X98215952Y-54285714D02*
X98168333Y-54380952D01*
X98168333Y-54380952D02*
X98168333Y-54571428D01*
X98168333Y-54571428D02*
X98215952Y-54666666D01*
X98215952Y-54666666D02*
X98263571Y-54714285D01*
X98263571Y-54714285D02*
X98358809Y-54761904D01*
X96287380Y-53190476D02*
X96287380Y-53809523D01*
X96287380Y-53809523D02*
X95906428Y-53476190D01*
X95906428Y-53476190D02*
X95906428Y-53619047D01*
X95906428Y-53619047D02*
X95858809Y-53714285D01*
X95858809Y-53714285D02*
X95811190Y-53761904D01*
X95811190Y-53761904D02*
X95715952Y-53809523D01*
X95715952Y-53809523D02*
X95477857Y-53809523D01*
X95477857Y-53809523D02*
X95382619Y-53761904D01*
X95382619Y-53761904D02*
X95335000Y-53714285D01*
X95335000Y-53714285D02*
X95287380Y-53619047D01*
X95287380Y-53619047D02*
X95287380Y-53333333D01*
X95287380Y-53333333D02*
X95335000Y-53238095D01*
X95335000Y-53238095D02*
X95382619Y-53190476D01*
X95954047Y-54666666D02*
X95287380Y-54666666D01*
X96335000Y-54428571D02*
X95620714Y-54190476D01*
X95620714Y-54190476D02*
X95620714Y-54809523D01*
X93537380Y-53190476D02*
X93537380Y-53809523D01*
X93537380Y-53809523D02*
X93156428Y-53476190D01*
X93156428Y-53476190D02*
X93156428Y-53619047D01*
X93156428Y-53619047D02*
X93108809Y-53714285D01*
X93108809Y-53714285D02*
X93061190Y-53761904D01*
X93061190Y-53761904D02*
X92965952Y-53809523D01*
X92965952Y-53809523D02*
X92727857Y-53809523D01*
X92727857Y-53809523D02*
X92632619Y-53761904D01*
X92632619Y-53761904D02*
X92585000Y-53714285D01*
X92585000Y-53714285D02*
X92537380Y-53619047D01*
X92537380Y-53619047D02*
X92537380Y-53333333D01*
X92537380Y-53333333D02*
X92585000Y-53238095D01*
X92585000Y-53238095D02*
X92632619Y-53190476D01*
X93537380Y-54714285D02*
X93537380Y-54238095D01*
X93537380Y-54238095D02*
X93061190Y-54190476D01*
X93061190Y-54190476D02*
X93108809Y-54238095D01*
X93108809Y-54238095D02*
X93156428Y-54333333D01*
X93156428Y-54333333D02*
X93156428Y-54571428D01*
X93156428Y-54571428D02*
X93108809Y-54666666D01*
X93108809Y-54666666D02*
X93061190Y-54714285D01*
X93061190Y-54714285D02*
X92965952Y-54761904D01*
X92965952Y-54761904D02*
X92727857Y-54761904D01*
X92727857Y-54761904D02*
X92632619Y-54714285D01*
X92632619Y-54714285D02*
X92585000Y-54666666D01*
X92585000Y-54666666D02*
X92537380Y-54571428D01*
X92537380Y-54571428D02*
X92537380Y-54333333D01*
X92537380Y-54333333D02*
X92585000Y-54238095D01*
X92585000Y-54238095D02*
X92632619Y-54190476D01*
X91037380Y-53190476D02*
X91037380Y-53809523D01*
X91037380Y-53809523D02*
X90656428Y-53476190D01*
X90656428Y-53476190D02*
X90656428Y-53619047D01*
X90656428Y-53619047D02*
X90608809Y-53714285D01*
X90608809Y-53714285D02*
X90561190Y-53761904D01*
X90561190Y-53761904D02*
X90465952Y-53809523D01*
X90465952Y-53809523D02*
X90227857Y-53809523D01*
X90227857Y-53809523D02*
X90132619Y-53761904D01*
X90132619Y-53761904D02*
X90085000Y-53714285D01*
X90085000Y-53714285D02*
X90037380Y-53619047D01*
X90037380Y-53619047D02*
X90037380Y-53333333D01*
X90037380Y-53333333D02*
X90085000Y-53238095D01*
X90085000Y-53238095D02*
X90132619Y-53190476D01*
X90942142Y-54190476D02*
X90989761Y-54238095D01*
X90989761Y-54238095D02*
X91037380Y-54333333D01*
X91037380Y-54333333D02*
X91037380Y-54571428D01*
X91037380Y-54571428D02*
X90989761Y-54666666D01*
X90989761Y-54666666D02*
X90942142Y-54714285D01*
X90942142Y-54714285D02*
X90846904Y-54761904D01*
X90846904Y-54761904D02*
X90751666Y-54761904D01*
X90751666Y-54761904D02*
X90608809Y-54714285D01*
X90608809Y-54714285D02*
X90037380Y-54142857D01*
X90037380Y-54142857D02*
X90037380Y-54761904D01*
X88537380Y-53190476D02*
X88537380Y-53809523D01*
X88537380Y-53809523D02*
X88156428Y-53476190D01*
X88156428Y-53476190D02*
X88156428Y-53619047D01*
X88156428Y-53619047D02*
X88108809Y-53714285D01*
X88108809Y-53714285D02*
X88061190Y-53761904D01*
X88061190Y-53761904D02*
X87965952Y-53809523D01*
X87965952Y-53809523D02*
X87727857Y-53809523D01*
X87727857Y-53809523D02*
X87632619Y-53761904D01*
X87632619Y-53761904D02*
X87585000Y-53714285D01*
X87585000Y-53714285D02*
X87537380Y-53619047D01*
X87537380Y-53619047D02*
X87537380Y-53333333D01*
X87537380Y-53333333D02*
X87585000Y-53238095D01*
X87585000Y-53238095D02*
X87632619Y-53190476D01*
X88537380Y-54142857D02*
X88537380Y-54761904D01*
X88537380Y-54761904D02*
X88156428Y-54428571D01*
X88156428Y-54428571D02*
X88156428Y-54571428D01*
X88156428Y-54571428D02*
X88108809Y-54666666D01*
X88108809Y-54666666D02*
X88061190Y-54714285D01*
X88061190Y-54714285D02*
X87965952Y-54761904D01*
X87965952Y-54761904D02*
X87727857Y-54761904D01*
X87727857Y-54761904D02*
X87632619Y-54714285D01*
X87632619Y-54714285D02*
X87585000Y-54666666D01*
X87585000Y-54666666D02*
X87537380Y-54571428D01*
X87537380Y-54571428D02*
X87537380Y-54285714D01*
X87537380Y-54285714D02*
X87585000Y-54190476D01*
X87585000Y-54190476D02*
X87632619Y-54142857D01*
X85942142Y-53238095D02*
X85989761Y-53285714D01*
X85989761Y-53285714D02*
X86037380Y-53380952D01*
X86037380Y-53380952D02*
X86037380Y-53619047D01*
X86037380Y-53619047D02*
X85989761Y-53714285D01*
X85989761Y-53714285D02*
X85942142Y-53761904D01*
X85942142Y-53761904D02*
X85846904Y-53809523D01*
X85846904Y-53809523D02*
X85751666Y-53809523D01*
X85751666Y-53809523D02*
X85608809Y-53761904D01*
X85608809Y-53761904D02*
X85037380Y-53190476D01*
X85037380Y-53190476D02*
X85037380Y-53809523D01*
X86037380Y-54714285D02*
X86037380Y-54238095D01*
X86037380Y-54238095D02*
X85561190Y-54190476D01*
X85561190Y-54190476D02*
X85608809Y-54238095D01*
X85608809Y-54238095D02*
X85656428Y-54333333D01*
X85656428Y-54333333D02*
X85656428Y-54571428D01*
X85656428Y-54571428D02*
X85608809Y-54666666D01*
X85608809Y-54666666D02*
X85561190Y-54714285D01*
X85561190Y-54714285D02*
X85465952Y-54761904D01*
X85465952Y-54761904D02*
X85227857Y-54761904D01*
X85227857Y-54761904D02*
X85132619Y-54714285D01*
X85132619Y-54714285D02*
X85085000Y-54666666D01*
X85085000Y-54666666D02*
X85037380Y-54571428D01*
X85037380Y-54571428D02*
X85037380Y-54333333D01*
X85037380Y-54333333D02*
X85085000Y-54238095D01*
X85085000Y-54238095D02*
X85132619Y-54190476D01*
X83442142Y-53238095D02*
X83489761Y-53285714D01*
X83489761Y-53285714D02*
X83537380Y-53380952D01*
X83537380Y-53380952D02*
X83537380Y-53619047D01*
X83537380Y-53619047D02*
X83489761Y-53714285D01*
X83489761Y-53714285D02*
X83442142Y-53761904D01*
X83442142Y-53761904D02*
X83346904Y-53809523D01*
X83346904Y-53809523D02*
X83251666Y-53809523D01*
X83251666Y-53809523D02*
X83108809Y-53761904D01*
X83108809Y-53761904D02*
X82537380Y-53190476D01*
X82537380Y-53190476D02*
X82537380Y-53809523D01*
X83537380Y-54666666D02*
X83537380Y-54476190D01*
X83537380Y-54476190D02*
X83489761Y-54380952D01*
X83489761Y-54380952D02*
X83442142Y-54333333D01*
X83442142Y-54333333D02*
X83299285Y-54238095D01*
X83299285Y-54238095D02*
X83108809Y-54190476D01*
X83108809Y-54190476D02*
X82727857Y-54190476D01*
X82727857Y-54190476D02*
X82632619Y-54238095D01*
X82632619Y-54238095D02*
X82585000Y-54285714D01*
X82585000Y-54285714D02*
X82537380Y-54380952D01*
X82537380Y-54380952D02*
X82537380Y-54571428D01*
X82537380Y-54571428D02*
X82585000Y-54666666D01*
X82585000Y-54666666D02*
X82632619Y-54714285D01*
X82632619Y-54714285D02*
X82727857Y-54761904D01*
X82727857Y-54761904D02*
X82965952Y-54761904D01*
X82965952Y-54761904D02*
X83061190Y-54714285D01*
X83061190Y-54714285D02*
X83108809Y-54666666D01*
X83108809Y-54666666D02*
X83156428Y-54571428D01*
X83156428Y-54571428D02*
X83156428Y-54380952D01*
X83156428Y-54380952D02*
X83108809Y-54285714D01*
X83108809Y-54285714D02*
X83061190Y-54238095D01*
X83061190Y-54238095D02*
X82965952Y-54190476D01*
X80692142Y-53238095D02*
X80739761Y-53285714D01*
X80739761Y-53285714D02*
X80787380Y-53380952D01*
X80787380Y-53380952D02*
X80787380Y-53619047D01*
X80787380Y-53619047D02*
X80739761Y-53714285D01*
X80739761Y-53714285D02*
X80692142Y-53761904D01*
X80692142Y-53761904D02*
X80596904Y-53809523D01*
X80596904Y-53809523D02*
X80501666Y-53809523D01*
X80501666Y-53809523D02*
X80358809Y-53761904D01*
X80358809Y-53761904D02*
X79787380Y-53190476D01*
X79787380Y-53190476D02*
X79787380Y-53809523D01*
X80787380Y-54142857D02*
X80787380Y-54809523D01*
X80787380Y-54809523D02*
X79787380Y-54380952D01*
X77287380Y-53809523D02*
X77287380Y-53238095D01*
X77287380Y-53523809D02*
X78287380Y-53523809D01*
X78287380Y-53523809D02*
X78144523Y-53428571D01*
X78144523Y-53428571D02*
X78049285Y-53333333D01*
X78049285Y-53333333D02*
X78001666Y-53238095D01*
X77954047Y-54666666D02*
X77287380Y-54666666D01*
X78335000Y-54428571D02*
X77620714Y-54190476D01*
X77620714Y-54190476D02*
X77620714Y-54809523D01*
X74787380Y-53809523D02*
X74787380Y-53238095D01*
X74787380Y-53523809D02*
X75787380Y-53523809D01*
X75787380Y-53523809D02*
X75644523Y-53428571D01*
X75644523Y-53428571D02*
X75549285Y-53333333D01*
X75549285Y-53333333D02*
X75501666Y-53238095D01*
X75692142Y-54190476D02*
X75739761Y-54238095D01*
X75739761Y-54238095D02*
X75787380Y-54333333D01*
X75787380Y-54333333D02*
X75787380Y-54571428D01*
X75787380Y-54571428D02*
X75739761Y-54666666D01*
X75739761Y-54666666D02*
X75692142Y-54714285D01*
X75692142Y-54714285D02*
X75596904Y-54761904D01*
X75596904Y-54761904D02*
X75501666Y-54761904D01*
X75501666Y-54761904D02*
X75358809Y-54714285D01*
X75358809Y-54714285D02*
X74787380Y-54142857D01*
X74787380Y-54142857D02*
X74787380Y-54761904D01*
X72287380Y-53809523D02*
X72287380Y-53238095D01*
X72287380Y-53523809D02*
X73287380Y-53523809D01*
X73287380Y-53523809D02*
X73144523Y-53428571D01*
X73144523Y-53428571D02*
X73049285Y-53333333D01*
X73049285Y-53333333D02*
X73001666Y-53238095D01*
X73287380Y-54142857D02*
X73287380Y-54761904D01*
X73287380Y-54761904D02*
X72906428Y-54428571D01*
X72906428Y-54428571D02*
X72906428Y-54571428D01*
X72906428Y-54571428D02*
X72858809Y-54666666D01*
X72858809Y-54666666D02*
X72811190Y-54714285D01*
X72811190Y-54714285D02*
X72715952Y-54761904D01*
X72715952Y-54761904D02*
X72477857Y-54761904D01*
X72477857Y-54761904D02*
X72382619Y-54714285D01*
X72382619Y-54714285D02*
X72335000Y-54666666D01*
X72335000Y-54666666D02*
X72287380Y-54571428D01*
X72287380Y-54571428D02*
X72287380Y-54285714D01*
X72287380Y-54285714D02*
X72335000Y-54190476D01*
X72335000Y-54190476D02*
X72382619Y-54142857D01*
X79107143Y-44100714D02*
X79607143Y-44100714D01*
X79821429Y-44886428D02*
X79107143Y-44886428D01*
X79107143Y-44886428D02*
X79107143Y-43386428D01*
X79107143Y-43386428D02*
X79821429Y-43386428D01*
X80392858Y-44815000D02*
X80607144Y-44886428D01*
X80607144Y-44886428D02*
X80964286Y-44886428D01*
X80964286Y-44886428D02*
X81107144Y-44815000D01*
X81107144Y-44815000D02*
X81178572Y-44743571D01*
X81178572Y-44743571D02*
X81250001Y-44600714D01*
X81250001Y-44600714D02*
X81250001Y-44457857D01*
X81250001Y-44457857D02*
X81178572Y-44315000D01*
X81178572Y-44315000D02*
X81107144Y-44243571D01*
X81107144Y-44243571D02*
X80964286Y-44172142D01*
X80964286Y-44172142D02*
X80678572Y-44100714D01*
X80678572Y-44100714D02*
X80535715Y-44029285D01*
X80535715Y-44029285D02*
X80464286Y-43957857D01*
X80464286Y-43957857D02*
X80392858Y-43815000D01*
X80392858Y-43815000D02*
X80392858Y-43672142D01*
X80392858Y-43672142D02*
X80464286Y-43529285D01*
X80464286Y-43529285D02*
X80535715Y-43457857D01*
X80535715Y-43457857D02*
X80678572Y-43386428D01*
X80678572Y-43386428D02*
X81035715Y-43386428D01*
X81035715Y-43386428D02*
X81250001Y-43457857D01*
X81892857Y-44886428D02*
X81892857Y-43386428D01*
X81892857Y-43386428D02*
X82464286Y-43386428D01*
X82464286Y-43386428D02*
X82607143Y-43457857D01*
X82607143Y-43457857D02*
X82678572Y-43529285D01*
X82678572Y-43529285D02*
X82750000Y-43672142D01*
X82750000Y-43672142D02*
X82750000Y-43886428D01*
X82750000Y-43886428D02*
X82678572Y-44029285D01*
X82678572Y-44029285D02*
X82607143Y-44100714D01*
X82607143Y-44100714D02*
X82464286Y-44172142D01*
X82464286Y-44172142D02*
X81892857Y-44172142D01*
X83250000Y-43386428D02*
X84178572Y-43386428D01*
X84178572Y-43386428D02*
X83678572Y-43957857D01*
X83678572Y-43957857D02*
X83892857Y-43957857D01*
X83892857Y-43957857D02*
X84035715Y-44029285D01*
X84035715Y-44029285D02*
X84107143Y-44100714D01*
X84107143Y-44100714D02*
X84178572Y-44243571D01*
X84178572Y-44243571D02*
X84178572Y-44600714D01*
X84178572Y-44600714D02*
X84107143Y-44743571D01*
X84107143Y-44743571D02*
X84035715Y-44815000D01*
X84035715Y-44815000D02*
X83892857Y-44886428D01*
X83892857Y-44886428D02*
X83464286Y-44886428D01*
X83464286Y-44886428D02*
X83321429Y-44815000D01*
X83321429Y-44815000D02*
X83250000Y-44743571D01*
X84750000Y-43529285D02*
X84821428Y-43457857D01*
X84821428Y-43457857D02*
X84964286Y-43386428D01*
X84964286Y-43386428D02*
X85321428Y-43386428D01*
X85321428Y-43386428D02*
X85464286Y-43457857D01*
X85464286Y-43457857D02*
X85535714Y-43529285D01*
X85535714Y-43529285D02*
X85607143Y-43672142D01*
X85607143Y-43672142D02*
X85607143Y-43815000D01*
X85607143Y-43815000D02*
X85535714Y-44029285D01*
X85535714Y-44029285D02*
X84678571Y-44886428D01*
X84678571Y-44886428D02*
X85607143Y-44886428D01*
X86249999Y-44886428D02*
X86249999Y-43386428D01*
X86249999Y-43386428D02*
X86607142Y-43386428D01*
X86607142Y-43386428D02*
X86821428Y-43457857D01*
X86821428Y-43457857D02*
X86964285Y-43600714D01*
X86964285Y-43600714D02*
X87035714Y-43743571D01*
X87035714Y-43743571D02*
X87107142Y-44029285D01*
X87107142Y-44029285D02*
X87107142Y-44243571D01*
X87107142Y-44243571D02*
X87035714Y-44529285D01*
X87035714Y-44529285D02*
X86964285Y-44672142D01*
X86964285Y-44672142D02*
X86821428Y-44815000D01*
X86821428Y-44815000D02*
X86607142Y-44886428D01*
X86607142Y-44886428D02*
X86249999Y-44886428D01*
X87964285Y-44886428D02*
X87821428Y-44815000D01*
X87821428Y-44815000D02*
X87749999Y-44743571D01*
X87749999Y-44743571D02*
X87678571Y-44600714D01*
X87678571Y-44600714D02*
X87678571Y-44172142D01*
X87678571Y-44172142D02*
X87749999Y-44029285D01*
X87749999Y-44029285D02*
X87821428Y-43957857D01*
X87821428Y-43957857D02*
X87964285Y-43886428D01*
X87964285Y-43886428D02*
X88178571Y-43886428D01*
X88178571Y-43886428D02*
X88321428Y-43957857D01*
X88321428Y-43957857D02*
X88392857Y-44029285D01*
X88392857Y-44029285D02*
X88464285Y-44172142D01*
X88464285Y-44172142D02*
X88464285Y-44600714D01*
X88464285Y-44600714D02*
X88392857Y-44743571D01*
X88392857Y-44743571D02*
X88321428Y-44815000D01*
X88321428Y-44815000D02*
X88178571Y-44886428D01*
X88178571Y-44886428D02*
X87964285Y-44886428D01*
X89750000Y-44815000D02*
X89607142Y-44886428D01*
X89607142Y-44886428D02*
X89321428Y-44886428D01*
X89321428Y-44886428D02*
X89178571Y-44815000D01*
X89178571Y-44815000D02*
X89107142Y-44743571D01*
X89107142Y-44743571D02*
X89035714Y-44600714D01*
X89035714Y-44600714D02*
X89035714Y-44172142D01*
X89035714Y-44172142D02*
X89107142Y-44029285D01*
X89107142Y-44029285D02*
X89178571Y-43957857D01*
X89178571Y-43957857D02*
X89321428Y-43886428D01*
X89321428Y-43886428D02*
X89607142Y-43886428D01*
X89607142Y-43886428D02*
X89750000Y-43957857D01*
X90392856Y-44886428D02*
X90392856Y-43386428D01*
X90535714Y-44315000D02*
X90964285Y-44886428D01*
X90964285Y-43886428D02*
X90392856Y-44457857D01*
X84357143Y-47316428D02*
X83500000Y-47316428D01*
X83928571Y-47316428D02*
X83928571Y-45816428D01*
X83928571Y-45816428D02*
X83785714Y-46030714D01*
X83785714Y-46030714D02*
X83642857Y-46173571D01*
X83642857Y-46173571D02*
X83500000Y-46245000D01*
X84999999Y-47173571D02*
X85071428Y-47245000D01*
X85071428Y-47245000D02*
X84999999Y-47316428D01*
X84999999Y-47316428D02*
X84928571Y-47245000D01*
X84928571Y-47245000D02*
X84999999Y-47173571D01*
X84999999Y-47173571D02*
X84999999Y-47316428D01*
X86000000Y-45816428D02*
X86142857Y-45816428D01*
X86142857Y-45816428D02*
X86285714Y-45887857D01*
X86285714Y-45887857D02*
X86357143Y-45959285D01*
X86357143Y-45959285D02*
X86428571Y-46102142D01*
X86428571Y-46102142D02*
X86500000Y-46387857D01*
X86500000Y-46387857D02*
X86500000Y-46745000D01*
X86500000Y-46745000D02*
X86428571Y-47030714D01*
X86428571Y-47030714D02*
X86357143Y-47173571D01*
X86357143Y-47173571D02*
X86285714Y-47245000D01*
X86285714Y-47245000D02*
X86142857Y-47316428D01*
X86142857Y-47316428D02*
X86000000Y-47316428D01*
X86000000Y-47316428D02*
X85857143Y-47245000D01*
X85857143Y-47245000D02*
X85785714Y-47173571D01*
X85785714Y-47173571D02*
X85714285Y-47030714D01*
X85714285Y-47030714D02*
X85642857Y-46745000D01*
X85642857Y-46745000D02*
X85642857Y-46387857D01*
X85642857Y-46387857D02*
X85714285Y-46102142D01*
X85714285Y-46102142D02*
X85785714Y-45959285D01*
X85785714Y-45959285D02*
X85857143Y-45887857D01*
X85857143Y-45887857D02*
X86000000Y-45816428D01*
X82821428Y-48423571D02*
X82678571Y-48352142D01*
X82678571Y-48352142D02*
X82392857Y-48352142D01*
X82392857Y-48352142D02*
X82250000Y-48423571D01*
X82250000Y-48423571D02*
X82107142Y-48566428D01*
X82107142Y-48566428D02*
X82035714Y-48709285D01*
X82035714Y-48709285D02*
X82035714Y-48995000D01*
X82035714Y-48995000D02*
X82107142Y-49137857D01*
X82107142Y-49137857D02*
X82250000Y-49280714D01*
X82250000Y-49280714D02*
X82392857Y-49352142D01*
X82392857Y-49352142D02*
X82678571Y-49352142D01*
X82678571Y-49352142D02*
X82821428Y-49280714D01*
X82535714Y-47852142D02*
X82178571Y-47923571D01*
X82178571Y-47923571D02*
X81821428Y-48137857D01*
X81821428Y-48137857D02*
X81607142Y-48495000D01*
X81607142Y-48495000D02*
X81535714Y-48852142D01*
X81535714Y-48852142D02*
X81607142Y-49209285D01*
X81607142Y-49209285D02*
X81821428Y-49566428D01*
X81821428Y-49566428D02*
X82178571Y-49780714D01*
X82178571Y-49780714D02*
X82535714Y-49852142D01*
X82535714Y-49852142D02*
X82892857Y-49780714D01*
X82892857Y-49780714D02*
X83250000Y-49566428D01*
X83250000Y-49566428D02*
X83464285Y-49209285D01*
X83464285Y-49209285D02*
X83535714Y-48852142D01*
X83535714Y-48852142D02*
X83464285Y-48495000D01*
X83464285Y-48495000D02*
X83250000Y-48137857D01*
X83250000Y-48137857D02*
X82892857Y-47923571D01*
X82892857Y-47923571D02*
X82535714Y-47852142D01*
X85035714Y-49423571D02*
X84964286Y-49495000D01*
X84964286Y-49495000D02*
X84750000Y-49566428D01*
X84750000Y-49566428D02*
X84607143Y-49566428D01*
X84607143Y-49566428D02*
X84392857Y-49495000D01*
X84392857Y-49495000D02*
X84250000Y-49352142D01*
X84250000Y-49352142D02*
X84178571Y-49209285D01*
X84178571Y-49209285D02*
X84107143Y-48923571D01*
X84107143Y-48923571D02*
X84107143Y-48709285D01*
X84107143Y-48709285D02*
X84178571Y-48423571D01*
X84178571Y-48423571D02*
X84250000Y-48280714D01*
X84250000Y-48280714D02*
X84392857Y-48137857D01*
X84392857Y-48137857D02*
X84607143Y-48066428D01*
X84607143Y-48066428D02*
X84750000Y-48066428D01*
X84750000Y-48066428D02*
X84964286Y-48137857D01*
X84964286Y-48137857D02*
X85035714Y-48209285D01*
X86464286Y-48137857D02*
X86321429Y-48066428D01*
X86321429Y-48066428D02*
X86107143Y-48066428D01*
X86107143Y-48066428D02*
X85892857Y-48137857D01*
X85892857Y-48137857D02*
X85750000Y-48280714D01*
X85750000Y-48280714D02*
X85678571Y-48423571D01*
X85678571Y-48423571D02*
X85607143Y-48709285D01*
X85607143Y-48709285D02*
X85607143Y-48923571D01*
X85607143Y-48923571D02*
X85678571Y-49209285D01*
X85678571Y-49209285D02*
X85750000Y-49352142D01*
X85750000Y-49352142D02*
X85892857Y-49495000D01*
X85892857Y-49495000D02*
X86107143Y-49566428D01*
X86107143Y-49566428D02*
X86250000Y-49566428D01*
X86250000Y-49566428D02*
X86464286Y-49495000D01*
X86464286Y-49495000D02*
X86535714Y-49423571D01*
X86535714Y-49423571D02*
X86535714Y-48923571D01*
X86535714Y-48923571D02*
X86250000Y-48923571D01*
X88035714Y-49566428D02*
X87535714Y-48852142D01*
X87178571Y-49566428D02*
X87178571Y-48066428D01*
X87178571Y-48066428D02*
X87750000Y-48066428D01*
X87750000Y-48066428D02*
X87892857Y-48137857D01*
X87892857Y-48137857D02*
X87964286Y-48209285D01*
X87964286Y-48209285D02*
X88035714Y-48352142D01*
X88035714Y-48352142D02*
X88035714Y-48566428D01*
X88035714Y-48566428D02*
X87964286Y-48709285D01*
X87964286Y-48709285D02*
X87892857Y-48780714D01*
X87892857Y-48780714D02*
X87750000Y-48852142D01*
X87750000Y-48852142D02*
X87178571Y-48852142D01*
%TO.C,C1*%
X75583333Y-43867380D02*
X75535714Y-43915000D01*
X75535714Y-43915000D02*
X75392857Y-43962619D01*
X75392857Y-43962619D02*
X75297619Y-43962619D01*
X75297619Y-43962619D02*
X75154762Y-43915000D01*
X75154762Y-43915000D02*
X75059524Y-43819761D01*
X75059524Y-43819761D02*
X75011905Y-43724523D01*
X75011905Y-43724523D02*
X74964286Y-43534047D01*
X74964286Y-43534047D02*
X74964286Y-43391190D01*
X74964286Y-43391190D02*
X75011905Y-43200714D01*
X75011905Y-43200714D02*
X75059524Y-43105476D01*
X75059524Y-43105476D02*
X75154762Y-43010238D01*
X75154762Y-43010238D02*
X75297619Y-42962619D01*
X75297619Y-42962619D02*
X75392857Y-42962619D01*
X75392857Y-42962619D02*
X75535714Y-43010238D01*
X75535714Y-43010238D02*
X75583333Y-43057857D01*
X76535714Y-43962619D02*
X75964286Y-43962619D01*
X76250000Y-43962619D02*
X76250000Y-42962619D01*
X76250000Y-42962619D02*
X76154762Y-43105476D01*
X76154762Y-43105476D02*
X76059524Y-43200714D01*
X76059524Y-43200714D02*
X75964286Y-43248333D01*
%TO.C,J5*%
X105112619Y-56833333D02*
X105826904Y-56833333D01*
X105826904Y-56833333D02*
X105969761Y-56880952D01*
X105969761Y-56880952D02*
X106065000Y-56976190D01*
X106065000Y-56976190D02*
X106112619Y-57119047D01*
X106112619Y-57119047D02*
X106112619Y-57214285D01*
X105112619Y-55880952D02*
X105112619Y-56357142D01*
X105112619Y-56357142D02*
X105588809Y-56404761D01*
X105588809Y-56404761D02*
X105541190Y-56357142D01*
X105541190Y-56357142D02*
X105493571Y-56261904D01*
X105493571Y-56261904D02*
X105493571Y-56023809D01*
X105493571Y-56023809D02*
X105541190Y-55928571D01*
X105541190Y-55928571D02*
X105588809Y-55880952D01*
X105588809Y-55880952D02*
X105684047Y-55833333D01*
X105684047Y-55833333D02*
X105922142Y-55833333D01*
X105922142Y-55833333D02*
X106017380Y-55880952D01*
X106017380Y-55880952D02*
X106065000Y-55928571D01*
X106065000Y-55928571D02*
X106112619Y-56023809D01*
X106112619Y-56023809D02*
X106112619Y-56261904D01*
X106112619Y-56261904D02*
X106065000Y-56357142D01*
X106065000Y-56357142D02*
X106017380Y-56404761D01*
%TO.C,J4*%
X89917619Y-37833333D02*
X90631904Y-37833333D01*
X90631904Y-37833333D02*
X90774761Y-37880952D01*
X90774761Y-37880952D02*
X90870000Y-37976190D01*
X90870000Y-37976190D02*
X90917619Y-38119047D01*
X90917619Y-38119047D02*
X90917619Y-38214285D01*
X90250952Y-36928571D02*
X90917619Y-36928571D01*
X89870000Y-37166666D02*
X90584285Y-37404761D01*
X90584285Y-37404761D02*
X90584285Y-36785714D01*
%TO.C,J1*%
X95666666Y-40082619D02*
X95666666Y-40796904D01*
X95666666Y-40796904D02*
X95619047Y-40939761D01*
X95619047Y-40939761D02*
X95523809Y-41035000D01*
X95523809Y-41035000D02*
X95380952Y-41082619D01*
X95380952Y-41082619D02*
X95285714Y-41082619D01*
X96666666Y-41082619D02*
X96095238Y-41082619D01*
X96380952Y-41082619D02*
X96380952Y-40082619D01*
X96380952Y-40082619D02*
X96285714Y-40225476D01*
X96285714Y-40225476D02*
X96190476Y-40320714D01*
X96190476Y-40320714D02*
X96095238Y-40368333D01*
%TO.C,J3*%
X105801666Y-40142619D02*
X105801666Y-40856904D01*
X105801666Y-40856904D02*
X105754047Y-40999761D01*
X105754047Y-40999761D02*
X105658809Y-41095000D01*
X105658809Y-41095000D02*
X105515952Y-41142619D01*
X105515952Y-41142619D02*
X105420714Y-41142619D01*
X106182619Y-40142619D02*
X106801666Y-40142619D01*
X106801666Y-40142619D02*
X106468333Y-40523571D01*
X106468333Y-40523571D02*
X106611190Y-40523571D01*
X106611190Y-40523571D02*
X106706428Y-40571190D01*
X106706428Y-40571190D02*
X106754047Y-40618809D01*
X106754047Y-40618809D02*
X106801666Y-40714047D01*
X106801666Y-40714047D02*
X106801666Y-40952142D01*
X106801666Y-40952142D02*
X106754047Y-41047380D01*
X106754047Y-41047380D02*
X106706428Y-41095000D01*
X106706428Y-41095000D02*
X106611190Y-41142619D01*
X106611190Y-41142619D02*
X106325476Y-41142619D01*
X106325476Y-41142619D02*
X106230238Y-41095000D01*
X106230238Y-41095000D02*
X106182619Y-41047380D01*
%TO.C,J2*%
X64186666Y-39592619D02*
X64186666Y-40306904D01*
X64186666Y-40306904D02*
X64139047Y-40449761D01*
X64139047Y-40449761D02*
X64043809Y-40545000D01*
X64043809Y-40545000D02*
X63900952Y-40592619D01*
X63900952Y-40592619D02*
X63805714Y-40592619D01*
X64615238Y-39687857D02*
X64662857Y-39640238D01*
X64662857Y-39640238D02*
X64758095Y-39592619D01*
X64758095Y-39592619D02*
X64996190Y-39592619D01*
X64996190Y-39592619D02*
X65091428Y-39640238D01*
X65091428Y-39640238D02*
X65139047Y-39687857D01*
X65139047Y-39687857D02*
X65186666Y-39783095D01*
X65186666Y-39783095D02*
X65186666Y-39878333D01*
X65186666Y-39878333D02*
X65139047Y-40021190D01*
X65139047Y-40021190D02*
X64567619Y-40592619D01*
X64567619Y-40592619D02*
X65186666Y-40592619D01*
D11*
%TO.C,C1*%
X77870000Y-46750000D02*
G75*
G03*
X77870000Y-46750000I-2120000J0D01*
G01*
%TO.C,J5*%
X102050000Y-57830000D02*
X71510000Y-57830000D01*
X104650000Y-55170000D02*
X104650000Y-56500000D01*
X102050000Y-55170000D02*
X102050000Y-57830000D01*
X103320000Y-55170000D02*
X104650000Y-55170000D01*
X71510000Y-55170000D02*
X71510000Y-57830000D01*
X102050000Y-55170000D02*
X71510000Y-55170000D01*
%TO.C,J4*%
X86855000Y-36170000D02*
X86855000Y-38830000D01*
X86855000Y-36170000D02*
X71555000Y-36170000D01*
X89455000Y-36170000D02*
X89455000Y-37500000D01*
X71555000Y-36170000D02*
X71555000Y-38830000D01*
X88125000Y-36170000D02*
X89455000Y-36170000D01*
X86855000Y-38830000D02*
X71555000Y-38830000D01*
%TO.C,J1*%
X97330000Y-44220000D02*
X97330000Y-51900000D01*
X94670000Y-42950000D02*
X94670000Y-41620000D01*
X94670000Y-51900000D02*
X97330000Y-51900000D01*
X94670000Y-44220000D02*
X97330000Y-44220000D01*
X94670000Y-41620000D02*
X96000000Y-41620000D01*
X94670000Y-44220000D02*
X94670000Y-51900000D01*
%TO.C,J3*%
X111850000Y-42570000D02*
X111850000Y-43330000D01*
X103190000Y-41620000D02*
X103190000Y-51900000D01*
X105850000Y-42630000D02*
X111850000Y-42630000D01*
X105850000Y-45110000D02*
X111850000Y-45110000D01*
X102792929Y-48410000D02*
X103190000Y-48410000D01*
X111850000Y-50190000D02*
X111850000Y-50950000D01*
X111850000Y-43330000D02*
X105850000Y-43330000D01*
X103190000Y-46760000D02*
X105850000Y-46760000D01*
X105850000Y-42570000D02*
X111850000Y-42570000D01*
X105850000Y-51900000D02*
X105850000Y-41620000D01*
X111850000Y-50950000D02*
X105850000Y-50950000D01*
X100480000Y-41680000D02*
X101750000Y-41680000D01*
X102860000Y-42570000D02*
X103190000Y-42570000D01*
X103190000Y-51900000D02*
X105850000Y-51900000D01*
X105850000Y-43230000D02*
X111850000Y-43230000D01*
X105850000Y-41620000D02*
X103190000Y-41620000D01*
X111850000Y-47650000D02*
X111850000Y-48410000D01*
X105850000Y-50190000D02*
X111850000Y-50190000D01*
X102860000Y-43330000D02*
X103190000Y-43330000D01*
X102792929Y-47650000D02*
X103190000Y-47650000D01*
X102792929Y-50950000D02*
X103190000Y-50950000D01*
X105850000Y-42750000D02*
X111850000Y-42750000D01*
X102792929Y-45870000D02*
X103190000Y-45870000D01*
X111850000Y-48410000D02*
X105850000Y-48410000D01*
X103190000Y-49300000D02*
X105850000Y-49300000D01*
X102792929Y-50190000D02*
X103190000Y-50190000D01*
X105850000Y-43110000D02*
X111850000Y-43110000D01*
X102792929Y-45110000D02*
X103190000Y-45110000D01*
X105850000Y-47650000D02*
X111850000Y-47650000D01*
X105850000Y-42870000D02*
X111850000Y-42870000D01*
X111850000Y-45870000D02*
X105850000Y-45870000D01*
X105850000Y-42990000D02*
X111850000Y-42990000D01*
X103190000Y-44220000D02*
X105850000Y-44220000D01*
X111850000Y-45110000D02*
X111850000Y-45870000D01*
X100480000Y-42950000D02*
X100480000Y-41680000D01*
%TO.C,J2*%
X58810000Y-43461425D02*
X67440000Y-43461425D01*
X58810000Y-42989045D02*
X67440000Y-42989045D01*
X58810000Y-44051900D02*
X67440000Y-44051900D01*
X58810000Y-42634760D02*
X67440000Y-42634760D01*
X58810000Y-42044285D02*
X67440000Y-42044285D01*
X58810000Y-43579520D02*
X67440000Y-43579520D01*
X58810000Y-44170000D02*
X67440000Y-44170000D01*
X67440000Y-45800000D02*
X67850000Y-45800000D01*
X67440000Y-50880000D02*
X67850000Y-50880000D01*
X58810000Y-41808095D02*
X67440000Y-41808095D01*
X58810000Y-42398570D02*
X67440000Y-42398570D01*
X67440000Y-42540000D02*
X67790000Y-42540000D01*
X67440000Y-41570000D02*
X67440000Y-51850000D01*
X58810000Y-41570000D02*
X58810000Y-51850000D01*
X58810000Y-41690000D02*
X67440000Y-41690000D01*
X58810000Y-42280475D02*
X67440000Y-42280475D01*
X58810000Y-46710000D02*
X67440000Y-46710000D01*
X67440000Y-50160000D02*
X67850000Y-50160000D01*
X58810000Y-41570000D02*
X67440000Y-41570000D01*
X58810000Y-42870950D02*
X67440000Y-42870950D01*
X58810000Y-43933805D02*
X67440000Y-43933805D01*
X68900000Y-41570000D02*
X70010000Y-41570000D01*
X58810000Y-42162380D02*
X67440000Y-42162380D01*
X58810000Y-43225235D02*
X67440000Y-43225235D01*
X67440000Y-45080000D02*
X67850000Y-45080000D01*
X67440000Y-48340000D02*
X67850000Y-48340000D01*
X58810000Y-42516665D02*
X67440000Y-42516665D01*
X58810000Y-43697615D02*
X67440000Y-43697615D01*
X58810000Y-41926190D02*
X67440000Y-41926190D01*
X58810000Y-49250000D02*
X67440000Y-49250000D01*
X67440000Y-47620000D02*
X67850000Y-47620000D01*
X58810000Y-43815710D02*
X67440000Y-43815710D01*
X58810000Y-43107140D02*
X67440000Y-43107140D01*
X58810000Y-42752855D02*
X67440000Y-42752855D01*
X67440000Y-43260000D02*
X67790000Y-43260000D01*
X58810000Y-43343330D02*
X67440000Y-43343330D01*
X70010000Y-41570000D02*
X70010000Y-42900000D01*
X58810000Y-51850000D02*
X67440000Y-51850000D01*
%TD*%
M02*
