%TF.GenerationSoftware,KiCad,Pcbnew,7.0.1*%
%TF.CreationDate,2025-01-23T15:28:38-05:00*%
%TF.ProjectId,ESP32_Dock,45535033-325f-4446-9f63-6b2e6b696361,rev?*%
%TF.SameCoordinates,Original*%
%TF.FileFunction,Copper,L2,Bot*%
%TF.FilePolarity,Positive*%
%FSLAX46Y46*%
G04 Gerber Fmt 4.6, Leading zero omitted, Abs format (unit mm)*
G04 Created by KiCad (PCBNEW 7.0.1) date 2025-01-23 15:28:38*
%MOMM*%
%LPD*%
G01*
G04 APERTURE LIST*
%TA.AperFunction,ComponentPad*%
%ADD10C,1.600000*%
%TD*%
%TA.AperFunction,ComponentPad*%
%ADD11R,1.700000X1.700000*%
%TD*%
%TA.AperFunction,ComponentPad*%
%ADD12O,1.700000X1.700000*%
%TD*%
%TA.AperFunction,ComponentPad*%
%ADD13O,1.524000X1.900000*%
%TD*%
%TA.AperFunction,Conductor*%
%ADD14C,0.250000*%
%TD*%
G04 APERTURE END LIST*
D10*
%TO.P,C1,1*%
%TO.N,/VCC*%
X75000000Y-46750000D03*
%TO.P,C1,2*%
%TO.N,/GND*%
X77000000Y-46750000D03*
%TD*%
D11*
%TO.P,J5,1,Pin_1*%
%TO.N,/EN*%
X103320000Y-56500000D03*
D12*
%TO.P,J5,2,Pin_2*%
%TO.N,/GPIO36*%
X100780000Y-56500000D03*
%TO.P,J5,3,Pin_3*%
%TO.N,/GPIO39*%
X98240000Y-56500000D03*
%TO.P,J5,4,Pin_4*%
%TO.N,/GPIO34*%
X95700000Y-56500000D03*
%TO.P,J5,5,Pin_5*%
%TO.N,/GPIO35*%
X93160000Y-56500000D03*
%TO.P,J5,6,Pin_6*%
%TO.N,/GPIO32*%
X90620000Y-56500000D03*
%TO.P,J5,7,Pin_7*%
%TO.N,/GPIO33*%
X88080000Y-56500000D03*
%TO.P,J5,8,Pin_8*%
%TO.N,/GPIO25*%
X85540000Y-56500000D03*
%TO.P,J5,9,Pin_9*%
%TO.N,/GPIO26*%
X83000000Y-56500000D03*
%TO.P,J5,10,Pin_10*%
%TO.N,/GPIO27*%
X80460000Y-56500000D03*
%TO.P,J5,11,Pin_11*%
%TO.N,/GPIO14*%
X77920000Y-56500000D03*
%TO.P,J5,12,Pin_12*%
%TO.N,/GPIO12*%
X75380000Y-56500000D03*
%TO.P,J5,13,Pin_13*%
%TO.N,/GPIO13*%
X72840000Y-56500000D03*
%TD*%
D11*
%TO.P,J3,1,Pin_1*%
%TO.N,/VIN*%
X101750000Y-42950000D03*
D12*
%TO.P,J3,2,Pin_2*%
%TO.N,/GND*%
X101750000Y-45490000D03*
%TO.P,J3,3,Pin_3*%
%TO.N,/TX1*%
X101750000Y-48030000D03*
%TO.P,J3,4,Pin_4*%
%TO.N,/RX1*%
X101750000Y-50570000D03*
%TD*%
D11*
%TO.P,J4,1,Pin_1*%
%TO.N,/GPIO23*%
X88125000Y-37500000D03*
D12*
%TO.P,J4,2,Pin_2*%
%TO.N,/GPIO19*%
X85585000Y-37500000D03*
%TO.P,J4,3,Pin_3*%
%TO.N,/GPIO18*%
X83045000Y-37500000D03*
%TO.P,J4,4,Pin_4*%
%TO.N,/GPIO5*%
X80505000Y-37500000D03*
%TO.P,J4,5,Pin_5*%
%TO.N,/GPIO4*%
X77965000Y-37500000D03*
%TO.P,J4,6,Pin_6*%
%TO.N,/GPIO2*%
X75425000Y-37500000D03*
%TO.P,J4,7,Pin_7*%
%TO.N,/GPIO15*%
X72885000Y-37500000D03*
%TD*%
D11*
%TO.P,J2,1,Pin_1*%
%TO.N,/VIN*%
X68900000Y-42900000D03*
D12*
%TO.P,J2,2,Pin_2*%
%TO.N,/GND*%
X68900000Y-45440000D03*
%TO.P,J2,3,Pin_3*%
%TO.N,/RX0*%
X68900000Y-47980000D03*
%TO.P,J2,4,Pin_4*%
%TO.N,/TX0*%
X68900000Y-50520000D03*
%TD*%
D11*
%TO.P,J1,1,Pin_1*%
%TO.N,/VCC*%
X96000000Y-42950000D03*
D12*
%TO.P,J1,2,Pin_2*%
%TO.N,/GND*%
X96000000Y-45490000D03*
%TO.P,J1,3,Pin_3*%
%TO.N,/SDA*%
X96000000Y-48030000D03*
%TO.P,J1,4,Pin_4*%
%TO.N,/SCL*%
X96000000Y-50570000D03*
%TD*%
D13*
%TO.P,U1,1,EN*%
%TO.N,/EN*%
X103458098Y-59747540D03*
%TO.P,U1,2,GPIO36*%
%TO.N,/GPIO36*%
X100918098Y-59747540D03*
%TO.P,U1,3,GPIO39*%
%TO.N,/GPIO39*%
X98378098Y-59747540D03*
%TO.P,U1,4,GPIO34*%
%TO.N,/GPIO34*%
X95838098Y-59747540D03*
%TO.P,U1,5,GPIO35*%
%TO.N,/GPIO35*%
X93298098Y-59747540D03*
%TO.P,U1,6,GPIO32*%
%TO.N,/GPIO32*%
X90758098Y-59747540D03*
%TO.P,U1,7,GPIO33*%
%TO.N,/GPIO33*%
X88218098Y-59747540D03*
%TO.P,U1,8,GPIO25*%
%TO.N,/GPIO25*%
X85678098Y-59747540D03*
%TO.P,U1,9,GPIO26*%
%TO.N,/GPIO26*%
X83138098Y-59747540D03*
%TO.P,U1,10,GPIO27*%
%TO.N,/GPIO27*%
X80598098Y-59747540D03*
%TO.P,U1,11,GPIO14*%
%TO.N,/GPIO14*%
X78058098Y-59747540D03*
%TO.P,U1,12,GPIO12*%
%TO.N,/GPIO12*%
X75518098Y-59747540D03*
%TO.P,U1,13,GPIO13*%
%TO.N,/GPIO13*%
X72978098Y-59747540D03*
%TO.P,U1,14,GND*%
%TO.N,/GND*%
X70438098Y-59747540D03*
%TO.P,U1,15,VIN*%
%TO.N,/VIN*%
X67898098Y-59747540D03*
%TO.P,U1,16,3.3v*%
%TO.N,/VCC*%
X67898098Y-34347540D03*
%TO.P,U1,17,GND*%
%TO.N,/GND*%
X70438098Y-34347540D03*
%TO.P,U1,18,GPIO15*%
%TO.N,/GPIO15*%
X72978098Y-34347540D03*
%TO.P,U1,19,GPIO2*%
%TO.N,/GPIO2*%
X75518098Y-34347540D03*
%TO.P,U1,20,GPIO4*%
%TO.N,/GPIO4*%
X78058098Y-34347540D03*
%TO.P,U1,21,GPIO16*%
%TO.N,/RX1*%
X80598098Y-34347540D03*
%TO.P,U1,22,GPIO17*%
%TO.N,/TX1*%
X83138098Y-34347540D03*
%TO.P,U1,23,GPIO5*%
%TO.N,/GPIO5*%
X85678098Y-34347540D03*
%TO.P,U1,24,GPIO18*%
%TO.N,/GPIO18*%
X88218098Y-34347540D03*
%TO.P,U1,25,GPIO19*%
%TO.N,/GPIO19*%
X90758098Y-34347540D03*
%TO.P,U1,26,GPIO21*%
%TO.N,/SDA*%
X93298098Y-34347540D03*
%TO.P,U1,27,GPIO3*%
%TO.N,/RX0*%
X95838098Y-34347540D03*
%TO.P,U1,28,GPIO1*%
%TO.N,/TX0*%
X98378098Y-34347540D03*
%TO.P,U1,29,GPIO22*%
%TO.N,/SCL*%
X100918098Y-34347540D03*
%TO.P,U1,30,GPIO23*%
%TO.N,/GPIO23*%
X103458098Y-34347540D03*
%TD*%
D14*
%TO.N,/VCC*%
X67898098Y-34347540D02*
X72300558Y-38750000D01*
X72300558Y-38750000D02*
X72300558Y-44050558D01*
X72300558Y-44050558D02*
X75000000Y-46750000D01*
X96000000Y-42950000D02*
X101750000Y-42950000D01*
%TO.N,/SDA*%
X93298098Y-45328098D02*
X96000000Y-48030000D01*
X93298098Y-34347540D02*
X93298098Y-45328098D01*
%TO.N,/TX1*%
X100575000Y-49205000D02*
X95513299Y-49205000D01*
X101750000Y-48030000D02*
X100575000Y-49205000D01*
X84250000Y-35459442D02*
X83138098Y-34347540D01*
X84250000Y-37941701D02*
X84250000Y-35459442D01*
X95513299Y-49205000D02*
X84250000Y-37941701D01*
%TO.N,/RX1*%
X100575000Y-51745000D02*
X95513299Y-51745000D01*
X81680000Y-37911701D02*
X81680000Y-35429442D01*
X81680000Y-35429442D02*
X80598098Y-34347540D01*
X95513299Y-51745000D02*
X81680000Y-37911701D01*
X101750000Y-50570000D02*
X100575000Y-51745000D01*
%TD*%
%TA.AperFunction,Conductor*%
%TO.N,/GND*%
G36*
X111937500Y-32267113D02*
G01*
X111982887Y-32312500D01*
X111999500Y-32374500D01*
X111999500Y-61625500D01*
X111982887Y-61687500D01*
X111937500Y-61732887D01*
X111875500Y-61749500D01*
X59374500Y-61749500D01*
X59312500Y-61732887D01*
X59267113Y-61687500D01*
X59250500Y-61625500D01*
X59250500Y-59992236D01*
X66635598Y-59992236D01*
X66650866Y-60161882D01*
X66711324Y-60380945D01*
X66809923Y-60585690D01*
X66859985Y-60654594D01*
X66943502Y-60769545D01*
X66943503Y-60769546D01*
X66943504Y-60769547D01*
X67107759Y-60926592D01*
X67202590Y-60989189D01*
X67297421Y-61051786D01*
X67367076Y-61081558D01*
X67506385Y-61141102D01*
X67588728Y-61159896D01*
X67727944Y-61191671D01*
X67935451Y-61200990D01*
X67954967Y-61201867D01*
X67954967Y-61201866D01*
X67954969Y-61201867D01*
X68180166Y-61171362D01*
X68396298Y-61101136D01*
X68596417Y-60993448D01*
X68774091Y-60851757D01*
X68923610Y-60680618D01*
X69040169Y-60485532D01*
X69120020Y-60272769D01*
X69160598Y-60049167D01*
X69160598Y-59997540D01*
X69427307Y-59997540D01*
X69440740Y-60133928D01*
X69498607Y-60324689D01*
X69592578Y-60500497D01*
X69719043Y-60654594D01*
X69873140Y-60781059D01*
X70048948Y-60875030D01*
X70188096Y-60917240D01*
X70188098Y-60917240D01*
X70188098Y-59997540D01*
X70688098Y-59997540D01*
X70688098Y-60917240D01*
X70688099Y-60917240D01*
X70827247Y-60875030D01*
X71003055Y-60781059D01*
X71157152Y-60654594D01*
X71283617Y-60500497D01*
X71377588Y-60324689D01*
X71435455Y-60133928D01*
X71448889Y-59997540D01*
X70688098Y-59997540D01*
X70188098Y-59997540D01*
X69427307Y-59997540D01*
X69160598Y-59997540D01*
X69160598Y-59992236D01*
X71715598Y-59992236D01*
X71730866Y-60161882D01*
X71791324Y-60380945D01*
X71889923Y-60585690D01*
X71939985Y-60654594D01*
X72023502Y-60769545D01*
X72023503Y-60769546D01*
X72023504Y-60769547D01*
X72187759Y-60926592D01*
X72282590Y-60989189D01*
X72377421Y-61051786D01*
X72447076Y-61081558D01*
X72586385Y-61141102D01*
X72668728Y-61159896D01*
X72807944Y-61191671D01*
X73015451Y-61200990D01*
X73034967Y-61201867D01*
X73034967Y-61201866D01*
X73034969Y-61201867D01*
X73260166Y-61171362D01*
X73476298Y-61101136D01*
X73676417Y-60993448D01*
X73854091Y-60851757D01*
X74003610Y-60680618D01*
X74120169Y-60485532D01*
X74132775Y-60451941D01*
X74164798Y-60404364D01*
X74214807Y-60376283D01*
X74272103Y-60373709D01*
X74324428Y-60397194D01*
X74360588Y-60441712D01*
X74429923Y-60585690D01*
X74479985Y-60654594D01*
X74563502Y-60769545D01*
X74563503Y-60769546D01*
X74563504Y-60769547D01*
X74727759Y-60926592D01*
X74822590Y-60989189D01*
X74917421Y-61051786D01*
X74987076Y-61081558D01*
X75126385Y-61141102D01*
X75208728Y-61159896D01*
X75347944Y-61191671D01*
X75555451Y-61200990D01*
X75574967Y-61201867D01*
X75574967Y-61201866D01*
X75574969Y-61201867D01*
X75800166Y-61171362D01*
X76016298Y-61101136D01*
X76216417Y-60993448D01*
X76394091Y-60851757D01*
X76543610Y-60680618D01*
X76660169Y-60485532D01*
X76672775Y-60451941D01*
X76704798Y-60404364D01*
X76754807Y-60376283D01*
X76812103Y-60373709D01*
X76864428Y-60397194D01*
X76900588Y-60441712D01*
X76969923Y-60585690D01*
X77019985Y-60654594D01*
X77103502Y-60769545D01*
X77103503Y-60769546D01*
X77103504Y-60769547D01*
X77267759Y-60926592D01*
X77362590Y-60989189D01*
X77457421Y-61051786D01*
X77527076Y-61081558D01*
X77666385Y-61141102D01*
X77748728Y-61159896D01*
X77887944Y-61191671D01*
X78095451Y-61200990D01*
X78114967Y-61201867D01*
X78114967Y-61201866D01*
X78114969Y-61201867D01*
X78340166Y-61171362D01*
X78556298Y-61101136D01*
X78756417Y-60993448D01*
X78934091Y-60851757D01*
X79083610Y-60680618D01*
X79200169Y-60485532D01*
X79212775Y-60451941D01*
X79244798Y-60404364D01*
X79294807Y-60376283D01*
X79352103Y-60373709D01*
X79404428Y-60397194D01*
X79440588Y-60441712D01*
X79509923Y-60585690D01*
X79559985Y-60654594D01*
X79643502Y-60769545D01*
X79643503Y-60769546D01*
X79643504Y-60769547D01*
X79807759Y-60926592D01*
X79902590Y-60989189D01*
X79997421Y-61051786D01*
X80067076Y-61081558D01*
X80206385Y-61141102D01*
X80288728Y-61159896D01*
X80427944Y-61191671D01*
X80635451Y-61200990D01*
X80654967Y-61201867D01*
X80654967Y-61201866D01*
X80654969Y-61201867D01*
X80880166Y-61171362D01*
X81096298Y-61101136D01*
X81296417Y-60993448D01*
X81474091Y-60851757D01*
X81623610Y-60680618D01*
X81740169Y-60485532D01*
X81752775Y-60451941D01*
X81784798Y-60404364D01*
X81834807Y-60376283D01*
X81892103Y-60373709D01*
X81944428Y-60397194D01*
X81980588Y-60441712D01*
X82049923Y-60585690D01*
X82099985Y-60654594D01*
X82183502Y-60769545D01*
X82183503Y-60769546D01*
X82183504Y-60769547D01*
X82347759Y-60926592D01*
X82442590Y-60989189D01*
X82537421Y-61051786D01*
X82607076Y-61081558D01*
X82746385Y-61141102D01*
X82828728Y-61159896D01*
X82967944Y-61191671D01*
X83175451Y-61200990D01*
X83194967Y-61201867D01*
X83194967Y-61201866D01*
X83194969Y-61201867D01*
X83420166Y-61171362D01*
X83636298Y-61101136D01*
X83836417Y-60993448D01*
X84014091Y-60851757D01*
X84163610Y-60680618D01*
X84280169Y-60485532D01*
X84292775Y-60451941D01*
X84324798Y-60404364D01*
X84374807Y-60376283D01*
X84432103Y-60373709D01*
X84484428Y-60397194D01*
X84520588Y-60441712D01*
X84589923Y-60585690D01*
X84639985Y-60654594D01*
X84723502Y-60769545D01*
X84723503Y-60769546D01*
X84723504Y-60769547D01*
X84887759Y-60926592D01*
X84982590Y-60989189D01*
X85077421Y-61051786D01*
X85147076Y-61081558D01*
X85286385Y-61141102D01*
X85368728Y-61159896D01*
X85507944Y-61191671D01*
X85715451Y-61200990D01*
X85734967Y-61201867D01*
X85734967Y-61201866D01*
X85734969Y-61201867D01*
X85960166Y-61171362D01*
X86176298Y-61101136D01*
X86376417Y-60993448D01*
X86554091Y-60851757D01*
X86703610Y-60680618D01*
X86820169Y-60485532D01*
X86832775Y-60451941D01*
X86864798Y-60404364D01*
X86914807Y-60376283D01*
X86972103Y-60373709D01*
X87024428Y-60397194D01*
X87060588Y-60441712D01*
X87129923Y-60585690D01*
X87179985Y-60654594D01*
X87263502Y-60769545D01*
X87263503Y-60769546D01*
X87263504Y-60769547D01*
X87427759Y-60926592D01*
X87522590Y-60989189D01*
X87617421Y-61051786D01*
X87687076Y-61081558D01*
X87826385Y-61141102D01*
X87908728Y-61159896D01*
X88047944Y-61191671D01*
X88255451Y-61200990D01*
X88274967Y-61201867D01*
X88274967Y-61201866D01*
X88274969Y-61201867D01*
X88500166Y-61171362D01*
X88716298Y-61101136D01*
X88916417Y-60993448D01*
X89094091Y-60851757D01*
X89243610Y-60680618D01*
X89360169Y-60485532D01*
X89372775Y-60451941D01*
X89404798Y-60404364D01*
X89454807Y-60376283D01*
X89512103Y-60373709D01*
X89564428Y-60397194D01*
X89600588Y-60441712D01*
X89669923Y-60585690D01*
X89719985Y-60654594D01*
X89803502Y-60769545D01*
X89803503Y-60769546D01*
X89803504Y-60769547D01*
X89967759Y-60926592D01*
X90062590Y-60989189D01*
X90157421Y-61051786D01*
X90227076Y-61081558D01*
X90366385Y-61141102D01*
X90448728Y-61159896D01*
X90587944Y-61191671D01*
X90795451Y-61200990D01*
X90814967Y-61201867D01*
X90814967Y-61201866D01*
X90814969Y-61201867D01*
X91040166Y-61171362D01*
X91256298Y-61101136D01*
X91456417Y-60993448D01*
X91634091Y-60851757D01*
X91783610Y-60680618D01*
X91900169Y-60485532D01*
X91912775Y-60451941D01*
X91944798Y-60404364D01*
X91994807Y-60376283D01*
X92052103Y-60373709D01*
X92104428Y-60397194D01*
X92140588Y-60441712D01*
X92209923Y-60585690D01*
X92259985Y-60654594D01*
X92343502Y-60769545D01*
X92343503Y-60769546D01*
X92343504Y-60769547D01*
X92507759Y-60926592D01*
X92602590Y-60989189D01*
X92697421Y-61051786D01*
X92767076Y-61081558D01*
X92906385Y-61141102D01*
X92988728Y-61159896D01*
X93127944Y-61191671D01*
X93335451Y-61200990D01*
X93354967Y-61201867D01*
X93354967Y-61201866D01*
X93354969Y-61201867D01*
X93580166Y-61171362D01*
X93796298Y-61101136D01*
X93996417Y-60993448D01*
X94174091Y-60851757D01*
X94323610Y-60680618D01*
X94440169Y-60485532D01*
X94452775Y-60451941D01*
X94484798Y-60404364D01*
X94534807Y-60376283D01*
X94592103Y-60373709D01*
X94644428Y-60397194D01*
X94680588Y-60441712D01*
X94749923Y-60585690D01*
X94799985Y-60654594D01*
X94883502Y-60769545D01*
X94883503Y-60769546D01*
X94883504Y-60769547D01*
X95047759Y-60926592D01*
X95142590Y-60989189D01*
X95237421Y-61051786D01*
X95307076Y-61081558D01*
X95446385Y-61141102D01*
X95528728Y-61159896D01*
X95667944Y-61191671D01*
X95875451Y-61200990D01*
X95894967Y-61201867D01*
X95894967Y-61201866D01*
X95894969Y-61201867D01*
X96120166Y-61171362D01*
X96336298Y-61101136D01*
X96536417Y-60993448D01*
X96714091Y-60851757D01*
X96863610Y-60680618D01*
X96980169Y-60485532D01*
X96992775Y-60451941D01*
X97024798Y-60404364D01*
X97074807Y-60376283D01*
X97132103Y-60373709D01*
X97184428Y-60397194D01*
X97220588Y-60441712D01*
X97289923Y-60585690D01*
X97339985Y-60654594D01*
X97423502Y-60769545D01*
X97423503Y-60769546D01*
X97423504Y-60769547D01*
X97587759Y-60926592D01*
X97682590Y-60989189D01*
X97777421Y-61051786D01*
X97847076Y-61081558D01*
X97986385Y-61141102D01*
X98068728Y-61159896D01*
X98207944Y-61191671D01*
X98415451Y-61200990D01*
X98434967Y-61201867D01*
X98434967Y-61201866D01*
X98434969Y-61201867D01*
X98660166Y-61171362D01*
X98876298Y-61101136D01*
X99076417Y-60993448D01*
X99254091Y-60851757D01*
X99403610Y-60680618D01*
X99520169Y-60485532D01*
X99532775Y-60451941D01*
X99564798Y-60404364D01*
X99614807Y-60376283D01*
X99672103Y-60373709D01*
X99724428Y-60397194D01*
X99760588Y-60441712D01*
X99829923Y-60585690D01*
X99879985Y-60654594D01*
X99963502Y-60769545D01*
X99963503Y-60769546D01*
X99963504Y-60769547D01*
X100127759Y-60926592D01*
X100222590Y-60989189D01*
X100317421Y-61051786D01*
X100387076Y-61081558D01*
X100526385Y-61141102D01*
X100608728Y-61159896D01*
X100747944Y-61191671D01*
X100955451Y-61200990D01*
X100974967Y-61201867D01*
X100974967Y-61201866D01*
X100974969Y-61201867D01*
X101200166Y-61171362D01*
X101416298Y-61101136D01*
X101616417Y-60993448D01*
X101794091Y-60851757D01*
X101943610Y-60680618D01*
X102060169Y-60485532D01*
X102072775Y-60451941D01*
X102104798Y-60404364D01*
X102154807Y-60376283D01*
X102212103Y-60373709D01*
X102264428Y-60397194D01*
X102300588Y-60441712D01*
X102369923Y-60585690D01*
X102419985Y-60654594D01*
X102503502Y-60769545D01*
X102503503Y-60769546D01*
X102503504Y-60769547D01*
X102667759Y-60926592D01*
X102762590Y-60989189D01*
X102857421Y-61051786D01*
X102927076Y-61081558D01*
X103066385Y-61141102D01*
X103148728Y-61159896D01*
X103287944Y-61191671D01*
X103495451Y-61200990D01*
X103514967Y-61201867D01*
X103514967Y-61201866D01*
X103514969Y-61201867D01*
X103740166Y-61171362D01*
X103956298Y-61101136D01*
X104156417Y-60993448D01*
X104334091Y-60851757D01*
X104483610Y-60680618D01*
X104600169Y-60485532D01*
X104680020Y-60272769D01*
X104720598Y-60049167D01*
X104720598Y-59502841D01*
X104705330Y-59333201D01*
X104644872Y-59114136D01*
X104594506Y-59009549D01*
X104546272Y-58909389D01*
X104477300Y-58814458D01*
X104412694Y-58725535D01*
X104400650Y-58714020D01*
X104248436Y-58568487D01*
X104058773Y-58443293D01*
X103934089Y-58390000D01*
X107272267Y-58390000D01*
X107292802Y-58637816D01*
X107292802Y-58637819D01*
X107292803Y-58637821D01*
X107353848Y-58878881D01*
X107367230Y-58909389D01*
X107453736Y-59106604D01*
X107453738Y-59106607D01*
X107589747Y-59314785D01*
X107758167Y-59497738D01*
X107823578Y-59548649D01*
X107954396Y-59650470D01*
X107954398Y-59650471D01*
X107954402Y-59650474D01*
X108173101Y-59768828D01*
X108408297Y-59849571D01*
X108653576Y-59890500D01*
X108902246Y-59890500D01*
X109147525Y-59849571D01*
X109382721Y-59768828D01*
X109601420Y-59650474D01*
X109797655Y-59497738D01*
X109966075Y-59314785D01*
X110102084Y-59106607D01*
X110201974Y-58878881D01*
X110263019Y-58637821D01*
X110283554Y-58390000D01*
X110263019Y-58142179D01*
X110201974Y-57901119D01*
X110102084Y-57673393D01*
X109966075Y-57465215D01*
X109797655Y-57282262D01*
X109775523Y-57265036D01*
X109601425Y-57129529D01*
X109601421Y-57129526D01*
X109601420Y-57129526D01*
X109382721Y-57011172D01*
X109382717Y-57011170D01*
X109382716Y-57011170D01*
X109147526Y-56930429D01*
X108902246Y-56889500D01*
X108653576Y-56889500D01*
X108408295Y-56930429D01*
X108173105Y-57011170D01*
X107954396Y-57129529D01*
X107758170Y-57282259D01*
X107589748Y-57465214D01*
X107453736Y-57673395D01*
X107373789Y-57855659D01*
X107353848Y-57901119D01*
X107292803Y-58142179D01*
X107292802Y-58142183D01*
X107272267Y-58390000D01*
X103934089Y-58390000D01*
X103849810Y-58353977D01*
X103628252Y-58303409D01*
X103401228Y-58293212D01*
X103176030Y-58323717D01*
X102972039Y-58389999D01*
X102959898Y-58393944D01*
X102759779Y-58501632D01*
X102759777Y-58501633D01*
X102759778Y-58501633D01*
X102582104Y-58643323D01*
X102432588Y-58814458D01*
X102316026Y-59009549D01*
X102303420Y-59043138D01*
X102271395Y-59090717D01*
X102221386Y-59118797D01*
X102164091Y-59121369D01*
X102111766Y-59097885D01*
X102075607Y-59053367D01*
X102054505Y-59009549D01*
X102006270Y-58909387D01*
X101872694Y-58725535D01*
X101860650Y-58714020D01*
X101708436Y-58568487D01*
X101518773Y-58443293D01*
X101309810Y-58353977D01*
X101088252Y-58303409D01*
X100861228Y-58293212D01*
X100636030Y-58323717D01*
X100432039Y-58389999D01*
X100419898Y-58393944D01*
X100219779Y-58501632D01*
X100219777Y-58501633D01*
X100219778Y-58501633D01*
X100042104Y-58643323D01*
X99892588Y-58814458D01*
X99776026Y-59009549D01*
X99763420Y-59043138D01*
X99731395Y-59090717D01*
X99681386Y-59118797D01*
X99624091Y-59121369D01*
X99571766Y-59097885D01*
X99535607Y-59053367D01*
X99514505Y-59009549D01*
X99466270Y-58909387D01*
X99332694Y-58725535D01*
X99320650Y-58714020D01*
X99168436Y-58568487D01*
X98978773Y-58443293D01*
X98769810Y-58353977D01*
X98548252Y-58303409D01*
X98321228Y-58293212D01*
X98096030Y-58323717D01*
X97892039Y-58389999D01*
X97879898Y-58393944D01*
X97679779Y-58501632D01*
X97679777Y-58501633D01*
X97679778Y-58501633D01*
X97502104Y-58643323D01*
X97352588Y-58814458D01*
X97236026Y-59009549D01*
X97223420Y-59043138D01*
X97191395Y-59090717D01*
X97141386Y-59118797D01*
X97084091Y-59121369D01*
X97031766Y-59097885D01*
X96995607Y-59053367D01*
X96974505Y-59009549D01*
X96926270Y-58909387D01*
X96792694Y-58725535D01*
X96780650Y-58714020D01*
X96628436Y-58568487D01*
X96438773Y-58443293D01*
X96229810Y-58353977D01*
X96008252Y-58303409D01*
X95781228Y-58293212D01*
X95556030Y-58323717D01*
X95352039Y-58389999D01*
X95339898Y-58393944D01*
X95139779Y-58501632D01*
X95139777Y-58501633D01*
X95139778Y-58501633D01*
X94962104Y-58643323D01*
X94812588Y-58814458D01*
X94696026Y-59009549D01*
X94683420Y-59043138D01*
X94651395Y-59090717D01*
X94601386Y-59118797D01*
X94544091Y-59121369D01*
X94491766Y-59097885D01*
X94455607Y-59053367D01*
X94434505Y-59009549D01*
X94386270Y-58909387D01*
X94252694Y-58725535D01*
X94240650Y-58714020D01*
X94088436Y-58568487D01*
X93898773Y-58443293D01*
X93689810Y-58353977D01*
X93468252Y-58303409D01*
X93241228Y-58293212D01*
X93016030Y-58323717D01*
X92812039Y-58389999D01*
X92799898Y-58393944D01*
X92599779Y-58501632D01*
X92599777Y-58501633D01*
X92599778Y-58501633D01*
X92422104Y-58643323D01*
X92272588Y-58814458D01*
X92156026Y-59009549D01*
X92143420Y-59043138D01*
X92111395Y-59090717D01*
X92061386Y-59118797D01*
X92004091Y-59121369D01*
X91951766Y-59097885D01*
X91915607Y-59053367D01*
X91894505Y-59009549D01*
X91846270Y-58909387D01*
X91712694Y-58725535D01*
X91700650Y-58714020D01*
X91548436Y-58568487D01*
X91358773Y-58443293D01*
X91149810Y-58353977D01*
X90928252Y-58303409D01*
X90701228Y-58293212D01*
X90476030Y-58323717D01*
X90272039Y-58389999D01*
X90259898Y-58393944D01*
X90059779Y-58501632D01*
X90059777Y-58501633D01*
X90059778Y-58501633D01*
X89882104Y-58643323D01*
X89732588Y-58814458D01*
X89616026Y-59009549D01*
X89603420Y-59043138D01*
X89571395Y-59090717D01*
X89521386Y-59118797D01*
X89464091Y-59121369D01*
X89411766Y-59097885D01*
X89375607Y-59053367D01*
X89354505Y-59009549D01*
X89306270Y-58909387D01*
X89172694Y-58725535D01*
X89160650Y-58714020D01*
X89008436Y-58568487D01*
X88818773Y-58443293D01*
X88609810Y-58353977D01*
X88388252Y-58303409D01*
X88161228Y-58293212D01*
X87936030Y-58323717D01*
X87732039Y-58389999D01*
X87719898Y-58393944D01*
X87519779Y-58501632D01*
X87519777Y-58501633D01*
X87519778Y-58501633D01*
X87342104Y-58643323D01*
X87192588Y-58814458D01*
X87076026Y-59009549D01*
X87063420Y-59043138D01*
X87031395Y-59090717D01*
X86981386Y-59118797D01*
X86924091Y-59121369D01*
X86871766Y-59097885D01*
X86835607Y-59053367D01*
X86814505Y-59009549D01*
X86766270Y-58909387D01*
X86632694Y-58725535D01*
X86620650Y-58714020D01*
X86468436Y-58568487D01*
X86278773Y-58443293D01*
X86069810Y-58353977D01*
X85848252Y-58303409D01*
X85621228Y-58293212D01*
X85396030Y-58323717D01*
X85192039Y-58389999D01*
X85179898Y-58393944D01*
X84979779Y-58501632D01*
X84979777Y-58501633D01*
X84979778Y-58501633D01*
X84802104Y-58643323D01*
X84652588Y-58814458D01*
X84536026Y-59009549D01*
X84523420Y-59043138D01*
X84491395Y-59090717D01*
X84441386Y-59118797D01*
X84384091Y-59121369D01*
X84331766Y-59097885D01*
X84295607Y-59053367D01*
X84274505Y-59009549D01*
X84226270Y-58909387D01*
X84092694Y-58725535D01*
X84080650Y-58714020D01*
X83928436Y-58568487D01*
X83738773Y-58443293D01*
X83529810Y-58353977D01*
X83308252Y-58303409D01*
X83081228Y-58293212D01*
X82856030Y-58323717D01*
X82652039Y-58389999D01*
X82639898Y-58393944D01*
X82439779Y-58501632D01*
X82439777Y-58501633D01*
X82439778Y-58501633D01*
X82262104Y-58643323D01*
X82112588Y-58814458D01*
X81996026Y-59009549D01*
X81983420Y-59043138D01*
X81951395Y-59090717D01*
X81901386Y-59118797D01*
X81844091Y-59121369D01*
X81791766Y-59097885D01*
X81755607Y-59053367D01*
X81734505Y-59009549D01*
X81686270Y-58909387D01*
X81552694Y-58725535D01*
X81540650Y-58714020D01*
X81388436Y-58568487D01*
X81198773Y-58443293D01*
X80989810Y-58353977D01*
X80768252Y-58303409D01*
X80541228Y-58293212D01*
X80316030Y-58323717D01*
X80112039Y-58389999D01*
X80099898Y-58393944D01*
X79899779Y-58501632D01*
X79899777Y-58501633D01*
X79899778Y-58501633D01*
X79722104Y-58643323D01*
X79572588Y-58814458D01*
X79456026Y-59009549D01*
X79443420Y-59043138D01*
X79411395Y-59090717D01*
X79361386Y-59118797D01*
X79304091Y-59121369D01*
X79251766Y-59097885D01*
X79215607Y-59053367D01*
X79194505Y-59009549D01*
X79146270Y-58909387D01*
X79012694Y-58725535D01*
X79000650Y-58714020D01*
X78848436Y-58568487D01*
X78658773Y-58443293D01*
X78449810Y-58353977D01*
X78228252Y-58303409D01*
X78001228Y-58293212D01*
X77776030Y-58323717D01*
X77572039Y-58389999D01*
X77559898Y-58393944D01*
X77359779Y-58501632D01*
X77359777Y-58501633D01*
X77359778Y-58501633D01*
X77182104Y-58643323D01*
X77032588Y-58814458D01*
X76916026Y-59009549D01*
X76903420Y-59043138D01*
X76871395Y-59090717D01*
X76821386Y-59118797D01*
X76764091Y-59121369D01*
X76711766Y-59097885D01*
X76675607Y-59053367D01*
X76654505Y-59009549D01*
X76606270Y-58909387D01*
X76472694Y-58725535D01*
X76460650Y-58714020D01*
X76308436Y-58568487D01*
X76118773Y-58443293D01*
X75909810Y-58353977D01*
X75688252Y-58303409D01*
X75461228Y-58293212D01*
X75236030Y-58323717D01*
X75032039Y-58389999D01*
X75019898Y-58393944D01*
X74819779Y-58501632D01*
X74819777Y-58501633D01*
X74819778Y-58501633D01*
X74642104Y-58643323D01*
X74492588Y-58814458D01*
X74376026Y-59009549D01*
X74363420Y-59043138D01*
X74331395Y-59090717D01*
X74281386Y-59118797D01*
X74224091Y-59121369D01*
X74171766Y-59097885D01*
X74135607Y-59053367D01*
X74114505Y-59009549D01*
X74066270Y-58909387D01*
X73932694Y-58725535D01*
X73920650Y-58714020D01*
X73768436Y-58568487D01*
X73578773Y-58443293D01*
X73369810Y-58353977D01*
X73148252Y-58303409D01*
X72921228Y-58293212D01*
X72696030Y-58323717D01*
X72492039Y-58389999D01*
X72479898Y-58393944D01*
X72279779Y-58501632D01*
X72279777Y-58501633D01*
X72279778Y-58501633D01*
X72102104Y-58643323D01*
X71952588Y-58814458D01*
X71836024Y-59009552D01*
X71756175Y-59222310D01*
X71715598Y-59445912D01*
X71715598Y-59992236D01*
X69160598Y-59992236D01*
X69160598Y-59502841D01*
X69160121Y-59497540D01*
X69427307Y-59497540D01*
X70188098Y-59497540D01*
X70688098Y-59497540D01*
X71448888Y-59497540D01*
X71435455Y-59361151D01*
X71377588Y-59170390D01*
X71283617Y-58994582D01*
X71157152Y-58840485D01*
X71003055Y-58714020D01*
X70827247Y-58620049D01*
X70688099Y-58577839D01*
X70688098Y-58577840D01*
X70688098Y-59497540D01*
X70188098Y-59497540D01*
X70188098Y-58577840D01*
X70188096Y-58577839D01*
X70048948Y-58620049D01*
X69873140Y-58714020D01*
X69719043Y-58840485D01*
X69592578Y-58994582D01*
X69498607Y-59170390D01*
X69440740Y-59361151D01*
X69427307Y-59497540D01*
X69160121Y-59497540D01*
X69145330Y-59333201D01*
X69084872Y-59114136D01*
X69034506Y-59009549D01*
X68986272Y-58909389D01*
X68917300Y-58814458D01*
X68852694Y-58725535D01*
X68840650Y-58714020D01*
X68688436Y-58568487D01*
X68498773Y-58443293D01*
X68289810Y-58353977D01*
X68068252Y-58303409D01*
X67841228Y-58293212D01*
X67616030Y-58323717D01*
X67412039Y-58389999D01*
X67399898Y-58393944D01*
X67199779Y-58501632D01*
X67199777Y-58501633D01*
X67199778Y-58501633D01*
X67022104Y-58643323D01*
X66872588Y-58814458D01*
X66756024Y-59009552D01*
X66676175Y-59222310D01*
X66635598Y-59445912D01*
X66635598Y-59992236D01*
X59250500Y-59992236D01*
X59250500Y-58389999D01*
X61272267Y-58389999D01*
X61292802Y-58637816D01*
X61292802Y-58637819D01*
X61292803Y-58637821D01*
X61353848Y-58878881D01*
X61367230Y-58909389D01*
X61453736Y-59106604D01*
X61453738Y-59106607D01*
X61589747Y-59314785D01*
X61758167Y-59497738D01*
X61823578Y-59548649D01*
X61954396Y-59650470D01*
X61954398Y-59650471D01*
X61954402Y-59650474D01*
X62173101Y-59768828D01*
X62408297Y-59849571D01*
X62653576Y-59890500D01*
X62902246Y-59890500D01*
X63147525Y-59849571D01*
X63382721Y-59768828D01*
X63601420Y-59650474D01*
X63797655Y-59497738D01*
X63966075Y-59314785D01*
X64102084Y-59106607D01*
X64201974Y-58878881D01*
X64263019Y-58637821D01*
X64283554Y-58390000D01*
X64263019Y-58142179D01*
X64201974Y-57901119D01*
X64102084Y-57673393D01*
X63966075Y-57465215D01*
X63797655Y-57282262D01*
X63775523Y-57265036D01*
X63601425Y-57129529D01*
X63601421Y-57129526D01*
X63601420Y-57129526D01*
X63382721Y-57011172D01*
X63382717Y-57011170D01*
X63382716Y-57011170D01*
X63147526Y-56930429D01*
X62902246Y-56889500D01*
X62653576Y-56889500D01*
X62408295Y-56930429D01*
X62173105Y-57011170D01*
X61954396Y-57129529D01*
X61758170Y-57282259D01*
X61589748Y-57465214D01*
X61453736Y-57673395D01*
X61373789Y-57855659D01*
X61353848Y-57901119D01*
X61292803Y-58142179D01*
X61292802Y-58142183D01*
X61272267Y-58389999D01*
X59250500Y-58389999D01*
X59250500Y-56500000D01*
X71484340Y-56500000D01*
X71504936Y-56735407D01*
X71546225Y-56889500D01*
X71566097Y-56963663D01*
X71665965Y-57177830D01*
X71801505Y-57371401D01*
X71968599Y-57538495D01*
X72162170Y-57674035D01*
X72376337Y-57773903D01*
X72604592Y-57835063D01*
X72840000Y-57855659D01*
X73075408Y-57835063D01*
X73303663Y-57773903D01*
X73517830Y-57674035D01*
X73711401Y-57538495D01*
X73878495Y-57371401D01*
X74008426Y-57185839D01*
X74052743Y-57146975D01*
X74110000Y-57132964D01*
X74167257Y-57146975D01*
X74211573Y-57185839D01*
X74341505Y-57371401D01*
X74508599Y-57538495D01*
X74702170Y-57674035D01*
X74916337Y-57773903D01*
X75144592Y-57835063D01*
X75380000Y-57855659D01*
X75615408Y-57835063D01*
X75843663Y-57773903D01*
X76057830Y-57674035D01*
X76251401Y-57538495D01*
X76418495Y-57371401D01*
X76548426Y-57185839D01*
X76592743Y-57146975D01*
X76650000Y-57132964D01*
X76707257Y-57146975D01*
X76751573Y-57185839D01*
X76881505Y-57371401D01*
X77048599Y-57538495D01*
X77242170Y-57674035D01*
X77456337Y-57773903D01*
X77684592Y-57835063D01*
X77920000Y-57855659D01*
X78155408Y-57835063D01*
X78383663Y-57773903D01*
X78597830Y-57674035D01*
X78791401Y-57538495D01*
X78958495Y-57371401D01*
X79088426Y-57185839D01*
X79132743Y-57146975D01*
X79190000Y-57132964D01*
X79247257Y-57146975D01*
X79291573Y-57185839D01*
X79421505Y-57371401D01*
X79588599Y-57538495D01*
X79782170Y-57674035D01*
X79996337Y-57773903D01*
X80224592Y-57835063D01*
X80460000Y-57855659D01*
X80695408Y-57835063D01*
X80923663Y-57773903D01*
X81137830Y-57674035D01*
X81331401Y-57538495D01*
X81498495Y-57371401D01*
X81628426Y-57185839D01*
X81672743Y-57146975D01*
X81730000Y-57132964D01*
X81787257Y-57146975D01*
X81831573Y-57185839D01*
X81961505Y-57371401D01*
X82128599Y-57538495D01*
X82322170Y-57674035D01*
X82536337Y-57773903D01*
X82764592Y-57835063D01*
X83000000Y-57855659D01*
X83235408Y-57835063D01*
X83463663Y-57773903D01*
X83677830Y-57674035D01*
X83871401Y-57538495D01*
X84038495Y-57371401D01*
X84168426Y-57185839D01*
X84212743Y-57146975D01*
X84270000Y-57132964D01*
X84327257Y-57146975D01*
X84371573Y-57185839D01*
X84501505Y-57371401D01*
X84668599Y-57538495D01*
X84862170Y-57674035D01*
X85076337Y-57773903D01*
X85304592Y-57835063D01*
X85540000Y-57855659D01*
X85775408Y-57835063D01*
X86003663Y-57773903D01*
X86217830Y-57674035D01*
X86411401Y-57538495D01*
X86578495Y-57371401D01*
X86708426Y-57185839D01*
X86752743Y-57146975D01*
X86810000Y-57132964D01*
X86867257Y-57146975D01*
X86911573Y-57185839D01*
X87041505Y-57371401D01*
X87208599Y-57538495D01*
X87402170Y-57674035D01*
X87616337Y-57773903D01*
X87844592Y-57835063D01*
X88080000Y-57855659D01*
X88315408Y-57835063D01*
X88543663Y-57773903D01*
X88757830Y-57674035D01*
X88951401Y-57538495D01*
X89118495Y-57371401D01*
X89248426Y-57185839D01*
X89292743Y-57146975D01*
X89350000Y-57132964D01*
X89407257Y-57146975D01*
X89451573Y-57185839D01*
X89581505Y-57371401D01*
X89748599Y-57538495D01*
X89942170Y-57674035D01*
X90156337Y-57773903D01*
X90384592Y-57835063D01*
X90620000Y-57855659D01*
X90855408Y-57835063D01*
X91083663Y-57773903D01*
X91297830Y-57674035D01*
X91491401Y-57538495D01*
X91658495Y-57371401D01*
X91788426Y-57185839D01*
X91832743Y-57146975D01*
X91890000Y-57132964D01*
X91947257Y-57146975D01*
X91991573Y-57185839D01*
X92121505Y-57371401D01*
X92288599Y-57538495D01*
X92482170Y-57674035D01*
X92696337Y-57773903D01*
X92924592Y-57835063D01*
X93160000Y-57855659D01*
X93395408Y-57835063D01*
X93623663Y-57773903D01*
X93837830Y-57674035D01*
X94031401Y-57538495D01*
X94198495Y-57371401D01*
X94328426Y-57185839D01*
X94372743Y-57146975D01*
X94430000Y-57132964D01*
X94487257Y-57146975D01*
X94531573Y-57185839D01*
X94661505Y-57371401D01*
X94828599Y-57538495D01*
X95022170Y-57674035D01*
X95236337Y-57773903D01*
X95464592Y-57835063D01*
X95700000Y-57855659D01*
X95935408Y-57835063D01*
X96163663Y-57773903D01*
X96377830Y-57674035D01*
X96571401Y-57538495D01*
X96738495Y-57371401D01*
X96868426Y-57185839D01*
X96912743Y-57146975D01*
X96970000Y-57132964D01*
X97027257Y-57146975D01*
X97071573Y-57185839D01*
X97201505Y-57371401D01*
X97368599Y-57538495D01*
X97562170Y-57674035D01*
X97776337Y-57773903D01*
X98004592Y-57835063D01*
X98240000Y-57855659D01*
X98475408Y-57835063D01*
X98703663Y-57773903D01*
X98917830Y-57674035D01*
X99111401Y-57538495D01*
X99278495Y-57371401D01*
X99408426Y-57185839D01*
X99452743Y-57146975D01*
X99510000Y-57132964D01*
X99567257Y-57146975D01*
X99611573Y-57185839D01*
X99741505Y-57371401D01*
X99908599Y-57538495D01*
X100102170Y-57674035D01*
X100316337Y-57773903D01*
X100544592Y-57835063D01*
X100780000Y-57855659D01*
X101015408Y-57835063D01*
X101243663Y-57773903D01*
X101457830Y-57674035D01*
X101651401Y-57538495D01*
X101773329Y-57416566D01*
X101826072Y-57385273D01*
X101887365Y-57383084D01*
X101942209Y-57410537D01*
X101977189Y-57460916D01*
X101980200Y-57468988D01*
X102026204Y-57592331D01*
X102112454Y-57707546D01*
X102227669Y-57793796D01*
X102362517Y-57844091D01*
X102422127Y-57850500D01*
X104217872Y-57850499D01*
X104277483Y-57844091D01*
X104412331Y-57793796D01*
X104527546Y-57707546D01*
X104613796Y-57592331D01*
X104664091Y-57457483D01*
X104670500Y-57397873D01*
X104670499Y-55602128D01*
X104664091Y-55542517D01*
X104613796Y-55407669D01*
X104527546Y-55292454D01*
X104412331Y-55206204D01*
X104277483Y-55155909D01*
X104217873Y-55149500D01*
X104217869Y-55149500D01*
X102422130Y-55149500D01*
X102362515Y-55155909D01*
X102227669Y-55206204D01*
X102112454Y-55292454D01*
X102026204Y-55407669D01*
X101977189Y-55539083D01*
X101942209Y-55589462D01*
X101887365Y-55616915D01*
X101826072Y-55614726D01*
X101773326Y-55583430D01*
X101651404Y-55461508D01*
X101651404Y-55461507D01*
X101651401Y-55461505D01*
X101457830Y-55325965D01*
X101243663Y-55226097D01*
X101182502Y-55209709D01*
X101015407Y-55164936D01*
X100780000Y-55144340D01*
X100544592Y-55164936D01*
X100316336Y-55226097D01*
X100102170Y-55325965D01*
X99908598Y-55461505D01*
X99741505Y-55628598D01*
X99611575Y-55814159D01*
X99567257Y-55853025D01*
X99510000Y-55867036D01*
X99452743Y-55853025D01*
X99408425Y-55814159D01*
X99278494Y-55628598D01*
X99111404Y-55461508D01*
X99111404Y-55461507D01*
X99111401Y-55461505D01*
X98917830Y-55325965D01*
X98703663Y-55226097D01*
X98642502Y-55209709D01*
X98475407Y-55164936D01*
X98240000Y-55144340D01*
X98004592Y-55164936D01*
X97776336Y-55226097D01*
X97562170Y-55325965D01*
X97368598Y-55461505D01*
X97201505Y-55628598D01*
X97071575Y-55814159D01*
X97027257Y-55853025D01*
X96970000Y-55867036D01*
X96912743Y-55853025D01*
X96868425Y-55814159D01*
X96738494Y-55628598D01*
X96571404Y-55461508D01*
X96571404Y-55461507D01*
X96571401Y-55461505D01*
X96377830Y-55325965D01*
X96163663Y-55226097D01*
X96102502Y-55209709D01*
X95935407Y-55164936D01*
X95700000Y-55144340D01*
X95464592Y-55164936D01*
X95236336Y-55226097D01*
X95022170Y-55325965D01*
X94828598Y-55461505D01*
X94661505Y-55628598D01*
X94531575Y-55814159D01*
X94487257Y-55853025D01*
X94430000Y-55867036D01*
X94372743Y-55853025D01*
X94328425Y-55814159D01*
X94198494Y-55628598D01*
X94031404Y-55461508D01*
X94031404Y-55461507D01*
X94031401Y-55461505D01*
X93837830Y-55325965D01*
X93623663Y-55226097D01*
X93562502Y-55209709D01*
X93395407Y-55164936D01*
X93160000Y-55144340D01*
X92924592Y-55164936D01*
X92696336Y-55226097D01*
X92482170Y-55325965D01*
X92288598Y-55461505D01*
X92121505Y-55628598D01*
X91991575Y-55814159D01*
X91947257Y-55853025D01*
X91890000Y-55867036D01*
X91832743Y-55853025D01*
X91788425Y-55814159D01*
X91658494Y-55628598D01*
X91491404Y-55461508D01*
X91491404Y-55461507D01*
X91491401Y-55461505D01*
X91297830Y-55325965D01*
X91083663Y-55226097D01*
X91022502Y-55209709D01*
X90855407Y-55164936D01*
X90620000Y-55144340D01*
X90384592Y-55164936D01*
X90156336Y-55226097D01*
X89942170Y-55325965D01*
X89748598Y-55461505D01*
X89581505Y-55628598D01*
X89451575Y-55814159D01*
X89407257Y-55853025D01*
X89350000Y-55867036D01*
X89292743Y-55853025D01*
X89248425Y-55814159D01*
X89118494Y-55628598D01*
X88951404Y-55461508D01*
X88951404Y-55461507D01*
X88951401Y-55461505D01*
X88757830Y-55325965D01*
X88543663Y-55226097D01*
X88482502Y-55209709D01*
X88315407Y-55164936D01*
X88080000Y-55144340D01*
X87844592Y-55164936D01*
X87616336Y-55226097D01*
X87402170Y-55325965D01*
X87208598Y-55461505D01*
X87041505Y-55628598D01*
X86911575Y-55814159D01*
X86867257Y-55853025D01*
X86810000Y-55867036D01*
X86752743Y-55853025D01*
X86708425Y-55814159D01*
X86578494Y-55628598D01*
X86411404Y-55461508D01*
X86411404Y-55461507D01*
X86411401Y-55461505D01*
X86217830Y-55325965D01*
X86003663Y-55226097D01*
X85942502Y-55209709D01*
X85775407Y-55164936D01*
X85540000Y-55144340D01*
X85304592Y-55164936D01*
X85076336Y-55226097D01*
X84862170Y-55325965D01*
X84668598Y-55461505D01*
X84501505Y-55628598D01*
X84371575Y-55814159D01*
X84327257Y-55853025D01*
X84270000Y-55867036D01*
X84212743Y-55853025D01*
X84168425Y-55814159D01*
X84038494Y-55628598D01*
X83871404Y-55461508D01*
X83871404Y-55461507D01*
X83871401Y-55461505D01*
X83677830Y-55325965D01*
X83463663Y-55226097D01*
X83402502Y-55209709D01*
X83235407Y-55164936D01*
X83000000Y-55144340D01*
X82764592Y-55164936D01*
X82536336Y-55226097D01*
X82322170Y-55325965D01*
X82128598Y-55461505D01*
X81961505Y-55628598D01*
X81831575Y-55814159D01*
X81787257Y-55853025D01*
X81730000Y-55867036D01*
X81672743Y-55853025D01*
X81628425Y-55814159D01*
X81498494Y-55628598D01*
X81331404Y-55461508D01*
X81331404Y-55461507D01*
X81331401Y-55461505D01*
X81137830Y-55325965D01*
X80923663Y-55226097D01*
X80862502Y-55209709D01*
X80695407Y-55164936D01*
X80460000Y-55144340D01*
X80224592Y-55164936D01*
X79996336Y-55226097D01*
X79782170Y-55325965D01*
X79588598Y-55461505D01*
X79421505Y-55628598D01*
X79291575Y-55814159D01*
X79247257Y-55853025D01*
X79190000Y-55867036D01*
X79132743Y-55853025D01*
X79088425Y-55814159D01*
X78958494Y-55628598D01*
X78791404Y-55461508D01*
X78791404Y-55461507D01*
X78791401Y-55461505D01*
X78597830Y-55325965D01*
X78383663Y-55226097D01*
X78322502Y-55209709D01*
X78155407Y-55164936D01*
X77920000Y-55144340D01*
X77684592Y-55164936D01*
X77456336Y-55226097D01*
X77242170Y-55325965D01*
X77048598Y-55461505D01*
X76881505Y-55628598D01*
X76751575Y-55814159D01*
X76707257Y-55853025D01*
X76650000Y-55867036D01*
X76592743Y-55853025D01*
X76548425Y-55814159D01*
X76418494Y-55628598D01*
X76251404Y-55461508D01*
X76251404Y-55461507D01*
X76251401Y-55461505D01*
X76057830Y-55325965D01*
X75843663Y-55226097D01*
X75782502Y-55209709D01*
X75615407Y-55164936D01*
X75380000Y-55144340D01*
X75144592Y-55164936D01*
X74916336Y-55226097D01*
X74702170Y-55325965D01*
X74508598Y-55461505D01*
X74341505Y-55628598D01*
X74211575Y-55814159D01*
X74167257Y-55853025D01*
X74110000Y-55867036D01*
X74052743Y-55853025D01*
X74008425Y-55814159D01*
X73878494Y-55628598D01*
X73711404Y-55461508D01*
X73711404Y-55461507D01*
X73711401Y-55461505D01*
X73517830Y-55325965D01*
X73303663Y-55226097D01*
X73242502Y-55209709D01*
X73075407Y-55164936D01*
X72840000Y-55144340D01*
X72604592Y-55164936D01*
X72376336Y-55226097D01*
X72162170Y-55325965D01*
X71968598Y-55461505D01*
X71801505Y-55628598D01*
X71665965Y-55822170D01*
X71566097Y-56036336D01*
X71504936Y-56264592D01*
X71484340Y-56500000D01*
X59250500Y-56500000D01*
X59250500Y-50519999D01*
X67544340Y-50519999D01*
X67564936Y-50755407D01*
X67578334Y-50805407D01*
X67626097Y-50983663D01*
X67725965Y-51197830D01*
X67861505Y-51391401D01*
X68028599Y-51558495D01*
X68222170Y-51694035D01*
X68436337Y-51793903D01*
X68664592Y-51855063D01*
X68900000Y-51875659D01*
X69135408Y-51855063D01*
X69363663Y-51793903D01*
X69577830Y-51694035D01*
X69771401Y-51558495D01*
X69938495Y-51391401D01*
X70074035Y-51197830D01*
X70173903Y-50983663D01*
X70235063Y-50755408D01*
X70255659Y-50520000D01*
X70235063Y-50284592D01*
X70173903Y-50056337D01*
X70074035Y-49842171D01*
X69938495Y-49648599D01*
X69771401Y-49481505D01*
X69585839Y-49351573D01*
X69546975Y-49307257D01*
X69532964Y-49250000D01*
X69546975Y-49192743D01*
X69585839Y-49148426D01*
X69771401Y-49018495D01*
X69938495Y-48851401D01*
X70074035Y-48657830D01*
X70173903Y-48443663D01*
X70235063Y-48215408D01*
X70255659Y-47980000D01*
X70235063Y-47744592D01*
X70173903Y-47516337D01*
X70074035Y-47302171D01*
X69938495Y-47108599D01*
X69771401Y-46941505D01*
X69577830Y-46805965D01*
X69363663Y-46706097D01*
X69324385Y-46695572D01*
X69270709Y-46665349D01*
X69238200Y-46613024D01*
X69234882Y-46551512D01*
X69261573Y-46495994D01*
X69311688Y-46460171D01*
X69392410Y-46428900D01*
X69565740Y-46321578D01*
X69716392Y-46184241D01*
X69839248Y-46021553D01*
X69930113Y-45839069D01*
X69972528Y-45690000D01*
X67827472Y-45690000D01*
X67869886Y-45839069D01*
X67960751Y-46021553D01*
X68083607Y-46184241D01*
X68234259Y-46321578D01*
X68407588Y-46428899D01*
X68488311Y-46460171D01*
X68538425Y-46495994D01*
X68565117Y-46551512D01*
X68561798Y-46613024D01*
X68529289Y-46665348D01*
X68475613Y-46695573D01*
X68458253Y-46700224D01*
X68436337Y-46706097D01*
X68436336Y-46706097D01*
X68436334Y-46706098D01*
X68222170Y-46805965D01*
X68028598Y-46941505D01*
X67861505Y-47108598D01*
X67725965Y-47302170D01*
X67626097Y-47516336D01*
X67564936Y-47744592D01*
X67544340Y-47979999D01*
X67564936Y-48215407D01*
X67578334Y-48265407D01*
X67626097Y-48443663D01*
X67725965Y-48657830D01*
X67861505Y-48851401D01*
X68028599Y-49018495D01*
X68214160Y-49148426D01*
X68253024Y-49192743D01*
X68267035Y-49250000D01*
X68253024Y-49307257D01*
X68214159Y-49351575D01*
X68028595Y-49481508D01*
X67861505Y-49648598D01*
X67725965Y-49842170D01*
X67626097Y-50056336D01*
X67564936Y-50284592D01*
X67544340Y-50519999D01*
X59250500Y-50519999D01*
X59250500Y-43797869D01*
X67549500Y-43797869D01*
X67554876Y-43847872D01*
X67555909Y-43857483D01*
X67606204Y-43992331D01*
X67692454Y-44107546D01*
X67807669Y-44193796D01*
X67942517Y-44244091D01*
X68002127Y-44250500D01*
X68295757Y-44250499D01*
X68357091Y-44266732D01*
X68402369Y-44311180D01*
X68419733Y-44372207D01*
X68404637Y-44433834D01*
X68361032Y-44479925D01*
X68234263Y-44558418D01*
X68083607Y-44695758D01*
X67960751Y-44858446D01*
X67869886Y-45040930D01*
X67827471Y-45189999D01*
X67827472Y-45190000D01*
X69972528Y-45190000D01*
X69972528Y-45189999D01*
X69930113Y-45040930D01*
X69839248Y-44858446D01*
X69716392Y-44695758D01*
X69565740Y-44558421D01*
X69438966Y-44479926D01*
X69395362Y-44433834D01*
X69380265Y-44372207D01*
X69397629Y-44311181D01*
X69442907Y-44266732D01*
X69504243Y-44250499D01*
X69797872Y-44250499D01*
X69857483Y-44244091D01*
X69992331Y-44193796D01*
X70107546Y-44107546D01*
X70193796Y-43992331D01*
X70244091Y-43857483D01*
X70250500Y-43797873D01*
X70250499Y-42002128D01*
X70244091Y-41942517D01*
X70193796Y-41807669D01*
X70107546Y-41692454D01*
X69992331Y-41606204D01*
X69857483Y-41555909D01*
X69797873Y-41549500D01*
X69797869Y-41549500D01*
X68002130Y-41549500D01*
X67942515Y-41555909D01*
X67807669Y-41606204D01*
X67692454Y-41692454D01*
X67606204Y-41807668D01*
X67555909Y-41942515D01*
X67555909Y-41942517D01*
X67550534Y-41992516D01*
X67549500Y-42002130D01*
X67549500Y-43797869D01*
X59250500Y-43797869D01*
X59250500Y-35389999D01*
X61272267Y-35389999D01*
X61292802Y-35637816D01*
X61292802Y-35637819D01*
X61292803Y-35637821D01*
X61353848Y-35878881D01*
X61356703Y-35885389D01*
X61453736Y-36106604D01*
X61453738Y-36106607D01*
X61589747Y-36314785D01*
X61758167Y-36497738D01*
X61758170Y-36497740D01*
X61954396Y-36650470D01*
X61954398Y-36650471D01*
X61954402Y-36650474D01*
X62173101Y-36768828D01*
X62408297Y-36849571D01*
X62653576Y-36890500D01*
X62902246Y-36890500D01*
X63147525Y-36849571D01*
X63382721Y-36768828D01*
X63601420Y-36650474D01*
X63797655Y-36497738D01*
X63966075Y-36314785D01*
X64102084Y-36106607D01*
X64201974Y-35878881D01*
X64263019Y-35637821D01*
X64283554Y-35390000D01*
X64263019Y-35142179D01*
X64201974Y-34901119D01*
X64102084Y-34673393D01*
X64049064Y-34592239D01*
X66635598Y-34592239D01*
X66640722Y-34649167D01*
X66650866Y-34761882D01*
X66711324Y-34980945D01*
X66809923Y-35185690D01*
X66859985Y-35254594D01*
X66943502Y-35369545D01*
X66943503Y-35369546D01*
X66943504Y-35369547D01*
X67107759Y-35526592D01*
X67176226Y-35571786D01*
X67297421Y-35651786D01*
X67351223Y-35674782D01*
X67506385Y-35741102D01*
X67588728Y-35759896D01*
X67727944Y-35791671D01*
X67935451Y-35800990D01*
X67954967Y-35801867D01*
X67954967Y-35801866D01*
X67954969Y-35801867D01*
X68180166Y-35771362D01*
X68301997Y-35731775D01*
X68369260Y-35729133D01*
X68427994Y-35762026D01*
X71638739Y-38972771D01*
X71665619Y-39012999D01*
X71675058Y-39060452D01*
X71675058Y-43967814D01*
X71672793Y-43988320D01*
X71674997Y-44058431D01*
X71675058Y-44062326D01*
X71675058Y-44089907D01*
X71675561Y-44093892D01*
X71676476Y-44105525D01*
X71677848Y-44149184D01*
X71683437Y-44168418D01*
X71687383Y-44187474D01*
X71689893Y-44207350D01*
X71705972Y-44247962D01*
X71709755Y-44259009D01*
X71721940Y-44300949D01*
X71732138Y-44318193D01*
X71740694Y-44335658D01*
X71748072Y-44354290D01*
X71748073Y-44354291D01*
X71773738Y-44389617D01*
X71780151Y-44399380D01*
X71802384Y-44436974D01*
X71802387Y-44436977D01*
X71802388Y-44436978D01*
X71816553Y-44451143D01*
X71829185Y-44465933D01*
X71840964Y-44482145D01*
X71874616Y-44509984D01*
X71883257Y-44517847D01*
X73700586Y-46335177D01*
X73732680Y-46390764D01*
X73732680Y-46454950D01*
X73714364Y-46523307D01*
X73694531Y-46750000D01*
X73714364Y-46976689D01*
X73773261Y-47196497D01*
X73869432Y-47402735D01*
X73999953Y-47589140D01*
X74160859Y-47750046D01*
X74347264Y-47880567D01*
X74347265Y-47880567D01*
X74347266Y-47880568D01*
X74553504Y-47976739D01*
X74773308Y-48035635D01*
X75000000Y-48055468D01*
X75226692Y-48035635D01*
X75446496Y-47976739D01*
X75652734Y-47880568D01*
X75839139Y-47750047D01*
X75940163Y-47649023D01*
X76454528Y-47649023D01*
X76596235Y-47724766D01*
X76794165Y-47784808D01*
X77000000Y-47805080D01*
X77205834Y-47784808D01*
X77403764Y-47724766D01*
X77545470Y-47649023D01*
X77000001Y-47103553D01*
X77000000Y-47103553D01*
X76454528Y-47649023D01*
X75940163Y-47649023D01*
X76000047Y-47589139D01*
X76130568Y-47402734D01*
X76226739Y-47196496D01*
X76227944Y-47191996D01*
X76260038Y-47136406D01*
X76646446Y-46750001D01*
X77353553Y-46750001D01*
X77899023Y-47295470D01*
X77974766Y-47153764D01*
X78034808Y-46955834D01*
X78055080Y-46749999D01*
X78034808Y-46544165D01*
X77974766Y-46346235D01*
X77899023Y-46204528D01*
X77353553Y-46750000D01*
X77353553Y-46750001D01*
X76646446Y-46750001D01*
X76646447Y-46750000D01*
X76260038Y-46363591D01*
X76227943Y-46307999D01*
X76226738Y-46303501D01*
X76130567Y-46097264D01*
X76000046Y-45910859D01*
X75940163Y-45850976D01*
X76454529Y-45850976D01*
X77000000Y-46396447D01*
X77000001Y-46396447D01*
X77545469Y-45850976D01*
X77403760Y-45775232D01*
X77205834Y-45715191D01*
X77000000Y-45694919D01*
X76794165Y-45715191D01*
X76596235Y-45775232D01*
X76454529Y-45850975D01*
X76454529Y-45850976D01*
X75940163Y-45850976D01*
X75839140Y-45749953D01*
X75652735Y-45619432D01*
X75446497Y-45523261D01*
X75226689Y-45464364D01*
X75000000Y-45444531D01*
X74773307Y-45464364D01*
X74704950Y-45482680D01*
X74640764Y-45482680D01*
X74585177Y-45450586D01*
X72962377Y-43827786D01*
X72935497Y-43787558D01*
X72926058Y-43740105D01*
X72926058Y-38965692D01*
X72940913Y-38906842D01*
X72981919Y-38862092D01*
X73039251Y-38842164D01*
X73106973Y-38836238D01*
X73120408Y-38835063D01*
X73348663Y-38773903D01*
X73562830Y-38674035D01*
X73756401Y-38538495D01*
X73923495Y-38371401D01*
X74053426Y-38185839D01*
X74097743Y-38146975D01*
X74155000Y-38132964D01*
X74212257Y-38146975D01*
X74256573Y-38185839D01*
X74386505Y-38371401D01*
X74553599Y-38538495D01*
X74747170Y-38674035D01*
X74961337Y-38773903D01*
X75189592Y-38835063D01*
X75425000Y-38855659D01*
X75660408Y-38835063D01*
X75888663Y-38773903D01*
X76102830Y-38674035D01*
X76296401Y-38538495D01*
X76463495Y-38371401D01*
X76593426Y-38185839D01*
X76637743Y-38146975D01*
X76695000Y-38132964D01*
X76752257Y-38146975D01*
X76796573Y-38185839D01*
X76926505Y-38371401D01*
X77093599Y-38538495D01*
X77287170Y-38674035D01*
X77501337Y-38773903D01*
X77729592Y-38835063D01*
X77965000Y-38855659D01*
X78200408Y-38835063D01*
X78428663Y-38773903D01*
X78642830Y-38674035D01*
X78836401Y-38538495D01*
X79003495Y-38371401D01*
X79133426Y-38185839D01*
X79177743Y-38146975D01*
X79235000Y-38132964D01*
X79292257Y-38146975D01*
X79336573Y-38185839D01*
X79466505Y-38371401D01*
X79633599Y-38538495D01*
X79827170Y-38674035D01*
X80041337Y-38773903D01*
X80269592Y-38835063D01*
X80505000Y-38855659D01*
X80740408Y-38835063D01*
X80968663Y-38773903D01*
X81182830Y-38674035D01*
X81318109Y-38579311D01*
X81371261Y-38558195D01*
X81428237Y-38563180D01*
X81476913Y-38593204D01*
X88251156Y-45367448D01*
X95012495Y-52128787D01*
X95025395Y-52144888D01*
X95076522Y-52192900D01*
X95079318Y-52195610D01*
X95098828Y-52215120D01*
X95102010Y-52217588D01*
X95110870Y-52225155D01*
X95142717Y-52255062D01*
X95160271Y-52264712D01*
X95176535Y-52275396D01*
X95188271Y-52284499D01*
X95192363Y-52287673D01*
X95217208Y-52298424D01*
X95232451Y-52305021D01*
X95242930Y-52310154D01*
X95281207Y-52331197D01*
X95300605Y-52336177D01*
X95319007Y-52342477D01*
X95337403Y-52350438D01*
X95380560Y-52357273D01*
X95391963Y-52359634D01*
X95434280Y-52370500D01*
X95454315Y-52370500D01*
X95473712Y-52372026D01*
X95493495Y-52375160D01*
X95536973Y-52371050D01*
X95548643Y-52370500D01*
X100492256Y-52370500D01*
X100512762Y-52372764D01*
X100515665Y-52372672D01*
X100515667Y-52372673D01*
X100582872Y-52370561D01*
X100586768Y-52370500D01*
X100614349Y-52370500D01*
X100614350Y-52370500D01*
X100618319Y-52369998D01*
X100629965Y-52369080D01*
X100673627Y-52367709D01*
X100692859Y-52362120D01*
X100711918Y-52358174D01*
X100719091Y-52357268D01*
X100731792Y-52355664D01*
X100772407Y-52339582D01*
X100783444Y-52335803D01*
X100825390Y-52323618D01*
X100842629Y-52313422D01*
X100860102Y-52304862D01*
X100878732Y-52297486D01*
X100914064Y-52271814D01*
X100923830Y-52265400D01*
X100961418Y-52243171D01*
X100961417Y-52243171D01*
X100961420Y-52243170D01*
X100975585Y-52229004D01*
X100990373Y-52216373D01*
X101006587Y-52204594D01*
X101034438Y-52170926D01*
X101042279Y-52162309D01*
X101294353Y-51910235D01*
X101349939Y-51878143D01*
X101414126Y-51878143D01*
X101514592Y-51905063D01*
X101750000Y-51925659D01*
X101985408Y-51905063D01*
X102213663Y-51843903D01*
X102427830Y-51744035D01*
X102621401Y-51608495D01*
X102788495Y-51441401D01*
X102924035Y-51247830D01*
X103023903Y-51033663D01*
X103085063Y-50805408D01*
X103105659Y-50570000D01*
X103085063Y-50334592D01*
X103023903Y-50106337D01*
X102924035Y-49892171D01*
X102788495Y-49698599D01*
X102621401Y-49531505D01*
X102435839Y-49401573D01*
X102396975Y-49357257D01*
X102382964Y-49300000D01*
X102396975Y-49242743D01*
X102435839Y-49198426D01*
X102621401Y-49068495D01*
X102788495Y-48901401D01*
X102924035Y-48707830D01*
X103023903Y-48493663D01*
X103085063Y-48265408D01*
X103105659Y-48030000D01*
X103101284Y-47980000D01*
X103085063Y-47794592D01*
X103046058Y-47649023D01*
X103023903Y-47566337D01*
X102924035Y-47352171D01*
X102788495Y-47158599D01*
X102621401Y-46991505D01*
X102427830Y-46855965D01*
X102213663Y-46756097D01*
X102174385Y-46745572D01*
X102120709Y-46715349D01*
X102088200Y-46663024D01*
X102084882Y-46601512D01*
X102111573Y-46545994D01*
X102161688Y-46510171D01*
X102242410Y-46478900D01*
X102415740Y-46371578D01*
X102566392Y-46234241D01*
X102689248Y-46071553D01*
X102780113Y-45889069D01*
X102822528Y-45740000D01*
X100677472Y-45740000D01*
X100719886Y-45889069D01*
X100810751Y-46071553D01*
X100933607Y-46234241D01*
X101084259Y-46371578D01*
X101257588Y-46478899D01*
X101338311Y-46510171D01*
X101388425Y-46545994D01*
X101415117Y-46601512D01*
X101411798Y-46663024D01*
X101379289Y-46715348D01*
X101325613Y-46745573D01*
X101309095Y-46749999D01*
X101286337Y-46756097D01*
X101286336Y-46756097D01*
X101286334Y-46756098D01*
X101072170Y-46855965D01*
X100878598Y-46991505D01*
X100711505Y-47158598D01*
X100575965Y-47352170D01*
X100476097Y-47566336D01*
X100414936Y-47794592D01*
X100394340Y-48029999D01*
X100414936Y-48265408D01*
X100441855Y-48365873D01*
X100441855Y-48430059D01*
X100409762Y-48485645D01*
X100352228Y-48543180D01*
X100311999Y-48570061D01*
X100264546Y-48579500D01*
X97412503Y-48579500D01*
X97357659Y-48566712D01*
X97314127Y-48530986D01*
X97290886Y-48479691D01*
X97292728Y-48423407D01*
X97335063Y-48265407D01*
X97339437Y-48215408D01*
X97355659Y-48030000D01*
X97351284Y-47980000D01*
X97335063Y-47794592D01*
X97296058Y-47649023D01*
X97273903Y-47566337D01*
X97174035Y-47352171D01*
X97038495Y-47158599D01*
X96871401Y-46991505D01*
X96677830Y-46855965D01*
X96463663Y-46756097D01*
X96424385Y-46745572D01*
X96370709Y-46715349D01*
X96338200Y-46663024D01*
X96334882Y-46601512D01*
X96361573Y-46545994D01*
X96411688Y-46510171D01*
X96492410Y-46478900D01*
X96665740Y-46371578D01*
X96816392Y-46234241D01*
X96939248Y-46071553D01*
X97030113Y-45889069D01*
X97072528Y-45740000D01*
X94927471Y-45740000D01*
X94929188Y-45746035D01*
X94930083Y-45810585D01*
X94898410Y-45866836D01*
X94842753Y-45899544D01*
X94778197Y-45899842D01*
X94722241Y-45867650D01*
X93959917Y-45105326D01*
X93933037Y-45065098D01*
X93923598Y-45017645D01*
X93923598Y-43847869D01*
X94649500Y-43847869D01*
X94650534Y-43857483D01*
X94655909Y-43907483D01*
X94706204Y-44042331D01*
X94792454Y-44157546D01*
X94907669Y-44243796D01*
X95042517Y-44294091D01*
X95102127Y-44300500D01*
X95395757Y-44300499D01*
X95457091Y-44316732D01*
X95502369Y-44361180D01*
X95519733Y-44422207D01*
X95504637Y-44483834D01*
X95461032Y-44529925D01*
X95334263Y-44608418D01*
X95183607Y-44745758D01*
X95060751Y-44908446D01*
X94969886Y-45090930D01*
X94927471Y-45239999D01*
X94927472Y-45240000D01*
X97072528Y-45240000D01*
X97072528Y-45239999D01*
X97030113Y-45090930D01*
X96939248Y-44908446D01*
X96816392Y-44745758D01*
X96665740Y-44608421D01*
X96538966Y-44529926D01*
X96495362Y-44483834D01*
X96480265Y-44422207D01*
X96497629Y-44361181D01*
X96542907Y-44316732D01*
X96604243Y-44300499D01*
X96897872Y-44300499D01*
X96957483Y-44294091D01*
X97092331Y-44243796D01*
X97207546Y-44157546D01*
X97293796Y-44042331D01*
X97344091Y-43907483D01*
X97350500Y-43847873D01*
X97350500Y-43699500D01*
X97367113Y-43637500D01*
X97412500Y-43592113D01*
X97474500Y-43575500D01*
X100275501Y-43575500D01*
X100337501Y-43592113D01*
X100382888Y-43637500D01*
X100399501Y-43699500D01*
X100399501Y-43847872D01*
X100405909Y-43907483D01*
X100456204Y-44042331D01*
X100542454Y-44157546D01*
X100657669Y-44243796D01*
X100792517Y-44294091D01*
X100852127Y-44300500D01*
X101145757Y-44300499D01*
X101207091Y-44316732D01*
X101252369Y-44361180D01*
X101269733Y-44422207D01*
X101254637Y-44483834D01*
X101211032Y-44529925D01*
X101084263Y-44608418D01*
X100933607Y-44745758D01*
X100810751Y-44908446D01*
X100719886Y-45090930D01*
X100677471Y-45239999D01*
X100677472Y-45240000D01*
X102822528Y-45240000D01*
X102822528Y-45239999D01*
X102780113Y-45090930D01*
X102689248Y-44908446D01*
X102566392Y-44745758D01*
X102415740Y-44608421D01*
X102288966Y-44529926D01*
X102245362Y-44483834D01*
X102230265Y-44422207D01*
X102247629Y-44361181D01*
X102292907Y-44316732D01*
X102354243Y-44300499D01*
X102647872Y-44300499D01*
X102707483Y-44294091D01*
X102842331Y-44243796D01*
X102957546Y-44157546D01*
X103043796Y-44042331D01*
X103094091Y-43907483D01*
X103100500Y-43847873D01*
X103100499Y-42052128D01*
X103094091Y-41992517D01*
X103043796Y-41857669D01*
X102957546Y-41742454D01*
X102842331Y-41656204D01*
X102707483Y-41605909D01*
X102647873Y-41599500D01*
X102647869Y-41599500D01*
X100852130Y-41599500D01*
X100792515Y-41605909D01*
X100657669Y-41656204D01*
X100542454Y-41742454D01*
X100456204Y-41857668D01*
X100405909Y-41992516D01*
X100399500Y-42052131D01*
X100399500Y-42200500D01*
X100382887Y-42262500D01*
X100337500Y-42307887D01*
X100275500Y-42324500D01*
X97474499Y-42324500D01*
X97412499Y-42307887D01*
X97367112Y-42262500D01*
X97350499Y-42200500D01*
X97350499Y-42052130D01*
X97345124Y-42002130D01*
X97344091Y-41992517D01*
X97293796Y-41857669D01*
X97207546Y-41742454D01*
X97092331Y-41656204D01*
X96957483Y-41605909D01*
X96897873Y-41599500D01*
X96897869Y-41599500D01*
X95102130Y-41599500D01*
X95042515Y-41605909D01*
X94907669Y-41656204D01*
X94792454Y-41742454D01*
X94706204Y-41857668D01*
X94655909Y-41992516D01*
X94649500Y-42052130D01*
X94649500Y-43847869D01*
X93923598Y-43847869D01*
X93923598Y-35706720D01*
X93941151Y-35643119D01*
X93988841Y-35597525D01*
X93991179Y-35596266D01*
X93996417Y-35593448D01*
X94174091Y-35451757D01*
X94323610Y-35280618D01*
X94440169Y-35085532D01*
X94452775Y-35051941D01*
X94484798Y-35004364D01*
X94534807Y-34976283D01*
X94592103Y-34973709D01*
X94644428Y-34997194D01*
X94680588Y-35041712D01*
X94749923Y-35185690D01*
X94799985Y-35254594D01*
X94883502Y-35369545D01*
X94883503Y-35369546D01*
X94883504Y-35369547D01*
X95047759Y-35526592D01*
X95116226Y-35571786D01*
X95237421Y-35651786D01*
X95291223Y-35674782D01*
X95446385Y-35741102D01*
X95528728Y-35759896D01*
X95667944Y-35791671D01*
X95875451Y-35800990D01*
X95894967Y-35801867D01*
X95894967Y-35801866D01*
X95894969Y-35801867D01*
X96120166Y-35771362D01*
X96336298Y-35701136D01*
X96536417Y-35593448D01*
X96714091Y-35451757D01*
X96863610Y-35280618D01*
X96980169Y-35085532D01*
X96992775Y-35051941D01*
X97024798Y-35004364D01*
X97074807Y-34976283D01*
X97132103Y-34973709D01*
X97184428Y-34997194D01*
X97220588Y-35041712D01*
X97289923Y-35185690D01*
X97339985Y-35254594D01*
X97423502Y-35369545D01*
X97423503Y-35369546D01*
X97423504Y-35369547D01*
X97587759Y-35526592D01*
X97656226Y-35571786D01*
X97777421Y-35651786D01*
X97831223Y-35674782D01*
X97986385Y-35741102D01*
X98068728Y-35759896D01*
X98207944Y-35791671D01*
X98415451Y-35800990D01*
X98434967Y-35801867D01*
X98434967Y-35801866D01*
X98434969Y-35801867D01*
X98660166Y-35771362D01*
X98876298Y-35701136D01*
X99076417Y-35593448D01*
X99254091Y-35451757D01*
X99403610Y-35280618D01*
X99520169Y-35085532D01*
X99532775Y-35051941D01*
X99564798Y-35004364D01*
X99614807Y-34976283D01*
X99672103Y-34973709D01*
X99724428Y-34997194D01*
X99760588Y-35041712D01*
X99829923Y-35185690D01*
X99879985Y-35254594D01*
X99963502Y-35369545D01*
X99963503Y-35369546D01*
X99963504Y-35369547D01*
X100127759Y-35526592D01*
X100196226Y-35571786D01*
X100317421Y-35651786D01*
X100371223Y-35674782D01*
X100526385Y-35741102D01*
X100608728Y-35759896D01*
X100747944Y-35791671D01*
X100955451Y-35800990D01*
X100974967Y-35801867D01*
X100974967Y-35801866D01*
X100974969Y-35801867D01*
X101200166Y-35771362D01*
X101416298Y-35701136D01*
X101616417Y-35593448D01*
X101794091Y-35451757D01*
X101943610Y-35280618D01*
X102060169Y-35085532D01*
X102072775Y-35051941D01*
X102104798Y-35004364D01*
X102154807Y-34976283D01*
X102212103Y-34973709D01*
X102264428Y-34997194D01*
X102300588Y-35041712D01*
X102369923Y-35185690D01*
X102419985Y-35254594D01*
X102503502Y-35369545D01*
X102503503Y-35369546D01*
X102503504Y-35369547D01*
X102667759Y-35526592D01*
X102736226Y-35571786D01*
X102857421Y-35651786D01*
X102911223Y-35674782D01*
X103066385Y-35741102D01*
X103148728Y-35759896D01*
X103287944Y-35791671D01*
X103495451Y-35800990D01*
X103514967Y-35801867D01*
X103514967Y-35801866D01*
X103514969Y-35801867D01*
X103740166Y-35771362D01*
X103956298Y-35701136D01*
X104156417Y-35593448D01*
X104334091Y-35451757D01*
X104388047Y-35389999D01*
X107272267Y-35389999D01*
X107292802Y-35637816D01*
X107292802Y-35637819D01*
X107292803Y-35637821D01*
X107353848Y-35878881D01*
X107356703Y-35885389D01*
X107453736Y-36106604D01*
X107453738Y-36106607D01*
X107589747Y-36314785D01*
X107758167Y-36497738D01*
X107758170Y-36497740D01*
X107954396Y-36650470D01*
X107954398Y-36650471D01*
X107954402Y-36650474D01*
X108173101Y-36768828D01*
X108408297Y-36849571D01*
X108653576Y-36890500D01*
X108902246Y-36890500D01*
X109147525Y-36849571D01*
X109382721Y-36768828D01*
X109601420Y-36650474D01*
X109797655Y-36497738D01*
X109966075Y-36314785D01*
X110102084Y-36106607D01*
X110201974Y-35878881D01*
X110263019Y-35637821D01*
X110283554Y-35390000D01*
X110263019Y-35142179D01*
X110201974Y-34901119D01*
X110102084Y-34673393D01*
X109966075Y-34465215D01*
X109797655Y-34282262D01*
X109775523Y-34265036D01*
X109601425Y-34129529D01*
X109601421Y-34129526D01*
X109601420Y-34129526D01*
X109382721Y-34011172D01*
X109382717Y-34011170D01*
X109382716Y-34011170D01*
X109147526Y-33930429D01*
X108902246Y-33889500D01*
X108653576Y-33889500D01*
X108408295Y-33930429D01*
X108173105Y-34011170D01*
X107954396Y-34129529D01*
X107758170Y-34282259D01*
X107589748Y-34465214D01*
X107453736Y-34673395D01*
X107387608Y-34824154D01*
X107353848Y-34901119D01*
X107327703Y-35004364D01*
X107292802Y-35142183D01*
X107272267Y-35389999D01*
X104388047Y-35389999D01*
X104483610Y-35280618D01*
X104600169Y-35085532D01*
X104680020Y-34872769D01*
X104700144Y-34761879D01*
X104720598Y-34649168D01*
X104720598Y-34102844D01*
X104715474Y-34045912D01*
X104705330Y-33933201D01*
X104644872Y-33714136D01*
X104594506Y-33609549D01*
X104546272Y-33509389D01*
X104477300Y-33414458D01*
X104412694Y-33325535D01*
X104400650Y-33314020D01*
X104248436Y-33168487D01*
X104058773Y-33043293D01*
X103849810Y-32953977D01*
X103628252Y-32903409D01*
X103401228Y-32893212D01*
X103176030Y-32923717D01*
X102959898Y-32993943D01*
X102959898Y-32993944D01*
X102759779Y-33101632D01*
X102759777Y-33101633D01*
X102759778Y-33101633D01*
X102582104Y-33243323D01*
X102432588Y-33414458D01*
X102316026Y-33609549D01*
X102303420Y-33643138D01*
X102271395Y-33690717D01*
X102221386Y-33718797D01*
X102164091Y-33721369D01*
X102111766Y-33697885D01*
X102075607Y-33653367D01*
X102054505Y-33609549D01*
X102006270Y-33509387D01*
X101872694Y-33325535D01*
X101860650Y-33314020D01*
X101708436Y-33168487D01*
X101518773Y-33043293D01*
X101309810Y-32953977D01*
X101088252Y-32903409D01*
X100861228Y-32893212D01*
X100636030Y-32923717D01*
X100419898Y-32993943D01*
X100419898Y-32993944D01*
X100219779Y-33101632D01*
X100219777Y-33101633D01*
X100219778Y-33101633D01*
X100042104Y-33243323D01*
X99892588Y-33414458D01*
X99776026Y-33609549D01*
X99763420Y-33643138D01*
X99731395Y-33690717D01*
X99681386Y-33718797D01*
X99624091Y-33721369D01*
X99571766Y-33697885D01*
X99535607Y-33653367D01*
X99514505Y-33609549D01*
X99466270Y-33509387D01*
X99332694Y-33325535D01*
X99320650Y-33314020D01*
X99168436Y-33168487D01*
X98978773Y-33043293D01*
X98769810Y-32953977D01*
X98548252Y-32903409D01*
X98321228Y-32893212D01*
X98096030Y-32923717D01*
X97879898Y-32993943D01*
X97879898Y-32993944D01*
X97679779Y-33101632D01*
X97679777Y-33101633D01*
X97679778Y-33101633D01*
X97502104Y-33243323D01*
X97352588Y-33414458D01*
X97236026Y-33609549D01*
X97223420Y-33643138D01*
X97191395Y-33690717D01*
X97141386Y-33718797D01*
X97084091Y-33721369D01*
X97031766Y-33697885D01*
X96995607Y-33653367D01*
X96974505Y-33609549D01*
X96926270Y-33509387D01*
X96792694Y-33325535D01*
X96780650Y-33314020D01*
X96628436Y-33168487D01*
X96438773Y-33043293D01*
X96229810Y-32953977D01*
X96008252Y-32903409D01*
X95781228Y-32893212D01*
X95556030Y-32923717D01*
X95339898Y-32993943D01*
X95339898Y-32993944D01*
X95139779Y-33101632D01*
X95139777Y-33101633D01*
X95139778Y-33101633D01*
X94962104Y-33243323D01*
X94812588Y-33414458D01*
X94696026Y-33609549D01*
X94683420Y-33643138D01*
X94651395Y-33690717D01*
X94601386Y-33718797D01*
X94544091Y-33721369D01*
X94491766Y-33697885D01*
X94455607Y-33653367D01*
X94434505Y-33609549D01*
X94386270Y-33509387D01*
X94252694Y-33325535D01*
X94240650Y-33314020D01*
X94088436Y-33168487D01*
X93898773Y-33043293D01*
X93689810Y-32953977D01*
X93468252Y-32903409D01*
X93241228Y-32893212D01*
X93016030Y-32923717D01*
X92799898Y-32993943D01*
X92799898Y-32993944D01*
X92599779Y-33101632D01*
X92599777Y-33101633D01*
X92599778Y-33101633D01*
X92422104Y-33243323D01*
X92272588Y-33414458D01*
X92156026Y-33609549D01*
X92143420Y-33643138D01*
X92111395Y-33690717D01*
X92061386Y-33718797D01*
X92004091Y-33721369D01*
X91951766Y-33697885D01*
X91915607Y-33653367D01*
X91894505Y-33609549D01*
X91846270Y-33509387D01*
X91712694Y-33325535D01*
X91700650Y-33314020D01*
X91548436Y-33168487D01*
X91358773Y-33043293D01*
X91149810Y-32953977D01*
X90928252Y-32903409D01*
X90701228Y-32893212D01*
X90476030Y-32923717D01*
X90259898Y-32993943D01*
X90259898Y-32993944D01*
X90059779Y-33101632D01*
X90059777Y-33101633D01*
X90059778Y-33101633D01*
X89882104Y-33243323D01*
X89732588Y-33414458D01*
X89616026Y-33609549D01*
X89603420Y-33643138D01*
X89571395Y-33690717D01*
X89521386Y-33718797D01*
X89464091Y-33721369D01*
X89411766Y-33697885D01*
X89375607Y-33653367D01*
X89354505Y-33609549D01*
X89306270Y-33509387D01*
X89172694Y-33325535D01*
X89160650Y-33314020D01*
X89008436Y-33168487D01*
X88818773Y-33043293D01*
X88609810Y-32953977D01*
X88388252Y-32903409D01*
X88161228Y-32893212D01*
X87936030Y-32923717D01*
X87719898Y-32993943D01*
X87719898Y-32993944D01*
X87519779Y-33101632D01*
X87519777Y-33101633D01*
X87519778Y-33101633D01*
X87342104Y-33243323D01*
X87192588Y-33414458D01*
X87076026Y-33609549D01*
X87063420Y-33643138D01*
X87031395Y-33690717D01*
X86981386Y-33718797D01*
X86924091Y-33721369D01*
X86871766Y-33697885D01*
X86835607Y-33653367D01*
X86814505Y-33609549D01*
X86766270Y-33509387D01*
X86632694Y-33325535D01*
X86620650Y-33314020D01*
X86468436Y-33168487D01*
X86278773Y-33043293D01*
X86069810Y-32953977D01*
X85848252Y-32903409D01*
X85621228Y-32893212D01*
X85396030Y-32923717D01*
X85179898Y-32993943D01*
X85179898Y-32993944D01*
X84979779Y-33101632D01*
X84979777Y-33101633D01*
X84979778Y-33101633D01*
X84802104Y-33243323D01*
X84652588Y-33414458D01*
X84536026Y-33609549D01*
X84523420Y-33643138D01*
X84491395Y-33690717D01*
X84441386Y-33718797D01*
X84384091Y-33721369D01*
X84331766Y-33697885D01*
X84295607Y-33653367D01*
X84274505Y-33609549D01*
X84226270Y-33509387D01*
X84092694Y-33325535D01*
X84080650Y-33314020D01*
X83928436Y-33168487D01*
X83738773Y-33043293D01*
X83529810Y-32953977D01*
X83308252Y-32903409D01*
X83081228Y-32893212D01*
X82856030Y-32923717D01*
X82639898Y-32993943D01*
X82639898Y-32993944D01*
X82439779Y-33101632D01*
X82439777Y-33101633D01*
X82439778Y-33101633D01*
X82262104Y-33243323D01*
X82112588Y-33414458D01*
X81996026Y-33609549D01*
X81983420Y-33643138D01*
X81951395Y-33690717D01*
X81901386Y-33718797D01*
X81844091Y-33721369D01*
X81791766Y-33697885D01*
X81755607Y-33653367D01*
X81734505Y-33609549D01*
X81686270Y-33509387D01*
X81552694Y-33325535D01*
X81540650Y-33314020D01*
X81388436Y-33168487D01*
X81198773Y-33043293D01*
X80989810Y-32953977D01*
X80768252Y-32903409D01*
X80541228Y-32893212D01*
X80316030Y-32923717D01*
X80099898Y-32993943D01*
X80099898Y-32993944D01*
X79899779Y-33101632D01*
X79899777Y-33101633D01*
X79899778Y-33101633D01*
X79722104Y-33243323D01*
X79572588Y-33414458D01*
X79456026Y-33609549D01*
X79443420Y-33643138D01*
X79411395Y-33690717D01*
X79361386Y-33718797D01*
X79304091Y-33721369D01*
X79251766Y-33697885D01*
X79215607Y-33653367D01*
X79194505Y-33609549D01*
X79146270Y-33509387D01*
X79012694Y-33325535D01*
X79000650Y-33314020D01*
X78848436Y-33168487D01*
X78658773Y-33043293D01*
X78449810Y-32953977D01*
X78228252Y-32903409D01*
X78001228Y-32893212D01*
X77776030Y-32923717D01*
X77559898Y-32993943D01*
X77559898Y-32993944D01*
X77359779Y-33101632D01*
X77359777Y-33101633D01*
X77359778Y-33101633D01*
X77182104Y-33243323D01*
X77032588Y-33414458D01*
X76916026Y-33609549D01*
X76903420Y-33643138D01*
X76871395Y-33690717D01*
X76821386Y-33718797D01*
X76764091Y-33721369D01*
X76711766Y-33697885D01*
X76675607Y-33653367D01*
X76654505Y-33609549D01*
X76606270Y-33509387D01*
X76472694Y-33325535D01*
X76460650Y-33314020D01*
X76308436Y-33168487D01*
X76118773Y-33043293D01*
X75909810Y-32953977D01*
X75688252Y-32903409D01*
X75461228Y-32893212D01*
X75236030Y-32923717D01*
X75019898Y-32993943D01*
X75019898Y-32993944D01*
X74819779Y-33101632D01*
X74819777Y-33101633D01*
X74819778Y-33101633D01*
X74642104Y-33243323D01*
X74492588Y-33414458D01*
X74376026Y-33609549D01*
X74363420Y-33643138D01*
X74331395Y-33690717D01*
X74281386Y-33718797D01*
X74224091Y-33721369D01*
X74171766Y-33697885D01*
X74135607Y-33653367D01*
X74114505Y-33609549D01*
X74066270Y-33509387D01*
X73932694Y-33325535D01*
X73920650Y-33314020D01*
X73768436Y-33168487D01*
X73578773Y-33043293D01*
X73369810Y-32953977D01*
X73148252Y-32903409D01*
X72921228Y-32893212D01*
X72696030Y-32923717D01*
X72479898Y-32993943D01*
X72479898Y-32993944D01*
X72279779Y-33101632D01*
X72279777Y-33101633D01*
X72279778Y-33101633D01*
X72102104Y-33243323D01*
X71952588Y-33414458D01*
X71836024Y-33609552D01*
X71756175Y-33822310D01*
X71715598Y-34045912D01*
X71715598Y-34045913D01*
X71715598Y-34592239D01*
X71720722Y-34649167D01*
X71730866Y-34761882D01*
X71791324Y-34980945D01*
X71889923Y-35185690D01*
X71939985Y-35254594D01*
X72023502Y-35369545D01*
X72023503Y-35369546D01*
X72023504Y-35369547D01*
X72187759Y-35526592D01*
X72256226Y-35571786D01*
X72377421Y-35651786D01*
X72431223Y-35674782D01*
X72586385Y-35741102D01*
X72668728Y-35759896D01*
X72807944Y-35791671D01*
X73015451Y-35800990D01*
X73034967Y-35801867D01*
X73034967Y-35801866D01*
X73034969Y-35801867D01*
X73260166Y-35771362D01*
X73476298Y-35701136D01*
X73676417Y-35593448D01*
X73854091Y-35451757D01*
X74003610Y-35280618D01*
X74120169Y-35085532D01*
X74132775Y-35051941D01*
X74164798Y-35004364D01*
X74214807Y-34976283D01*
X74272103Y-34973709D01*
X74324428Y-34997194D01*
X74360588Y-35041712D01*
X74429923Y-35185690D01*
X74479985Y-35254594D01*
X74563502Y-35369545D01*
X74563503Y-35369546D01*
X74563504Y-35369547D01*
X74727759Y-35526592D01*
X74796226Y-35571786D01*
X74917421Y-35651786D01*
X74971223Y-35674782D01*
X75126385Y-35741102D01*
X75208728Y-35759896D01*
X75347944Y-35791671D01*
X75555451Y-35800990D01*
X75574967Y-35801867D01*
X75574967Y-35801866D01*
X75574969Y-35801867D01*
X75800166Y-35771362D01*
X76016298Y-35701136D01*
X76216417Y-35593448D01*
X76394091Y-35451757D01*
X76543610Y-35280618D01*
X76660169Y-35085532D01*
X76672775Y-35051941D01*
X76704798Y-35004364D01*
X76754807Y-34976283D01*
X76812103Y-34973709D01*
X76864428Y-34997194D01*
X76900588Y-35041712D01*
X76969923Y-35185690D01*
X77019985Y-35254594D01*
X77103502Y-35369545D01*
X77103503Y-35369546D01*
X77103504Y-35369547D01*
X77267759Y-35526592D01*
X77336226Y-35571786D01*
X77457421Y-35651786D01*
X77511223Y-35674782D01*
X77666385Y-35741102D01*
X77748728Y-35759896D01*
X77887944Y-35791671D01*
X78095451Y-35800990D01*
X78114967Y-35801867D01*
X78114967Y-35801866D01*
X78114969Y-35801867D01*
X78340166Y-35771362D01*
X78556298Y-35701136D01*
X78756417Y-35593448D01*
X78934091Y-35451757D01*
X79083610Y-35280618D01*
X79200169Y-35085532D01*
X79212775Y-35051941D01*
X79244798Y-35004364D01*
X79294807Y-34976283D01*
X79352103Y-34973709D01*
X79404428Y-34997194D01*
X79440588Y-35041712D01*
X79509923Y-35185690D01*
X79559985Y-35254594D01*
X79643502Y-35369545D01*
X79643503Y-35369546D01*
X79643504Y-35369547D01*
X79807759Y-35526592D01*
X79876226Y-35571786D01*
X79997421Y-35651786D01*
X80051223Y-35674782D01*
X80206385Y-35741102D01*
X80288728Y-35759896D01*
X80427944Y-35791671D01*
X80635451Y-35800990D01*
X80654967Y-35801867D01*
X80654967Y-35801866D01*
X80654969Y-35801867D01*
X80880166Y-35771362D01*
X80888785Y-35768561D01*
X80892182Y-35767458D01*
X80949898Y-35762916D01*
X81003385Y-35785071D01*
X81040985Y-35829094D01*
X81054500Y-35885389D01*
X81054500Y-36087497D01*
X81041712Y-36142341D01*
X81005986Y-36185873D01*
X80954691Y-36209114D01*
X80898407Y-36207272D01*
X80740407Y-36164936D01*
X80505000Y-36144340D01*
X80269592Y-36164936D01*
X80041336Y-36226097D01*
X79827170Y-36325965D01*
X79633598Y-36461505D01*
X79466505Y-36628598D01*
X79336575Y-36814159D01*
X79292257Y-36853025D01*
X79235000Y-36867036D01*
X79177743Y-36853025D01*
X79133425Y-36814159D01*
X79003494Y-36628598D01*
X78836404Y-36461508D01*
X78836401Y-36461505D01*
X78642830Y-36325965D01*
X78428663Y-36226097D01*
X78358406Y-36207272D01*
X78200407Y-36164936D01*
X77965000Y-36144340D01*
X77729592Y-36164936D01*
X77501336Y-36226097D01*
X77287170Y-36325965D01*
X77093598Y-36461505D01*
X76926505Y-36628598D01*
X76796575Y-36814159D01*
X76752257Y-36853025D01*
X76695000Y-36867036D01*
X76637743Y-36853025D01*
X76593425Y-36814159D01*
X76463494Y-36628598D01*
X76296404Y-36461508D01*
X76296401Y-36461505D01*
X76102830Y-36325965D01*
X75888663Y-36226097D01*
X75818406Y-36207272D01*
X75660407Y-36164936D01*
X75425000Y-36144340D01*
X75189592Y-36164936D01*
X74961336Y-36226097D01*
X74747170Y-36325965D01*
X74553598Y-36461505D01*
X74386505Y-36628598D01*
X74256575Y-36814159D01*
X74212257Y-36853025D01*
X74155000Y-36867036D01*
X74097743Y-36853025D01*
X74053425Y-36814159D01*
X73923494Y-36628598D01*
X73756404Y-36461508D01*
X73756401Y-36461505D01*
X73562830Y-36325965D01*
X73348663Y-36226097D01*
X73278406Y-36207272D01*
X73120407Y-36164936D01*
X72885000Y-36144340D01*
X72649592Y-36164936D01*
X72421336Y-36226097D01*
X72207170Y-36325965D01*
X72013598Y-36461505D01*
X71846505Y-36628598D01*
X71710966Y-36822168D01*
X71641539Y-36971053D01*
X71604643Y-37017023D01*
X71550689Y-37040763D01*
X71491869Y-37036908D01*
X71441476Y-37006328D01*
X70154408Y-35719259D01*
X70125859Y-35674782D01*
X70118425Y-35622455D01*
X70133457Y-35571786D01*
X70168223Y-35531979D01*
X70188098Y-35517239D01*
X70188098Y-34597540D01*
X70688098Y-34597540D01*
X70688098Y-35517240D01*
X70688099Y-35517240D01*
X70827247Y-35475030D01*
X71003055Y-35381059D01*
X71157152Y-35254594D01*
X71283617Y-35100497D01*
X71377588Y-34924689D01*
X71435455Y-34733928D01*
X71448889Y-34597540D01*
X70688098Y-34597540D01*
X70188098Y-34597540D01*
X69427307Y-34597540D01*
X69436451Y-34690384D01*
X69427609Y-34749990D01*
X69391712Y-34798391D01*
X69337239Y-34824154D01*
X69277053Y-34821198D01*
X69225367Y-34790218D01*
X69194803Y-34759654D01*
X69164130Y-34708963D01*
X69161126Y-34660327D01*
X69160598Y-34660327D01*
X69160598Y-34651769D01*
X69160478Y-34649826D01*
X69160598Y-34649168D01*
X69160598Y-34649167D01*
X69160598Y-34102841D01*
X69160121Y-34097540D01*
X69427307Y-34097540D01*
X70188098Y-34097540D01*
X70688098Y-34097540D01*
X71448888Y-34097540D01*
X71435455Y-33961151D01*
X71377588Y-33770390D01*
X71283617Y-33594582D01*
X71157152Y-33440485D01*
X71003055Y-33314020D01*
X70827247Y-33220049D01*
X70688099Y-33177839D01*
X70688098Y-33177840D01*
X70688098Y-34097540D01*
X70188098Y-34097540D01*
X70188098Y-33177840D01*
X70188096Y-33177839D01*
X70048948Y-33220049D01*
X69873140Y-33314020D01*
X69719043Y-33440485D01*
X69592578Y-33594582D01*
X69498607Y-33770390D01*
X69440740Y-33961151D01*
X69427307Y-34097540D01*
X69160121Y-34097540D01*
X69145330Y-33933201D01*
X69084872Y-33714136D01*
X69034506Y-33609549D01*
X68986272Y-33509389D01*
X68917300Y-33414458D01*
X68852694Y-33325535D01*
X68840650Y-33314020D01*
X68688436Y-33168487D01*
X68498773Y-33043293D01*
X68289810Y-32953977D01*
X68068252Y-32903409D01*
X67841228Y-32893212D01*
X67616030Y-32923717D01*
X67399898Y-32993943D01*
X67399898Y-32993944D01*
X67199779Y-33101632D01*
X67199777Y-33101633D01*
X67199778Y-33101633D01*
X67022104Y-33243323D01*
X66872588Y-33414458D01*
X66756024Y-33609552D01*
X66676175Y-33822310D01*
X66635598Y-34045912D01*
X66635598Y-34045913D01*
X66635598Y-34592239D01*
X64049064Y-34592239D01*
X63966075Y-34465215D01*
X63797655Y-34282262D01*
X63775523Y-34265036D01*
X63601425Y-34129529D01*
X63601421Y-34129526D01*
X63601420Y-34129526D01*
X63382721Y-34011172D01*
X63382717Y-34011170D01*
X63382716Y-34011170D01*
X63147526Y-33930429D01*
X62902246Y-33889500D01*
X62653576Y-33889500D01*
X62408295Y-33930429D01*
X62173105Y-34011170D01*
X61954396Y-34129529D01*
X61758170Y-34282259D01*
X61589748Y-34465214D01*
X61453736Y-34673395D01*
X61387608Y-34824154D01*
X61353848Y-34901119D01*
X61327703Y-35004364D01*
X61292802Y-35142183D01*
X61272267Y-35389999D01*
X59250500Y-35389999D01*
X59250500Y-32374500D01*
X59267113Y-32312500D01*
X59312500Y-32267113D01*
X59374500Y-32250500D01*
X111875500Y-32250500D01*
X111937500Y-32267113D01*
G37*
%TD.AperFunction*%
%TD*%
M02*
