M48
; DRILL file {KiCad 7.0.1} date Thu Jan 23 11:44:43 2025
; FORMAT={-:-/ absolute / inch / decimal}
; #@! TF.CreationDate,2025-01-23T11:44:43-05:00
; #@! TF.GenerationSoftware,Kicad,Pcbnew,7.0.1
; #@! TF.FileFunction,Plated,1,2,PTH
FMAT,2
INCH
; #@! TA.AperFunction,Plated,PTH,ComponentDrill
T1C0.0236
; #@! TA.AperFunction,Plated,PTH,ComponentDrill
T2C0.0315
; #@! TA.AperFunction,Plated,PTH,ComponentDrill
T3C0.0394
%
G90
G05
T1
X2.9528Y-1.8406
X3.0118Y-1.8406
T2
X2.6732Y-1.3523
X2.6732Y-2.3523
X2.7732Y-1.3523
X2.7732Y-2.3523
X2.8732Y-1.3523
X2.8732Y-2.3523
X2.9732Y-1.3523
X2.9732Y-2.3523
X3.0732Y-1.3523
X3.0732Y-2.3523
X3.1732Y-1.3523
X3.1732Y-2.3523
X3.2732Y-1.3523
X3.2732Y-2.3523
X3.3732Y-1.3523
X3.3732Y-2.3523
X3.4732Y-1.3523
X3.4732Y-2.3523
X3.5732Y-1.3523
X3.5732Y-2.3523
X3.6732Y-1.3523
X3.6732Y-2.3523
X3.7732Y-1.3523
X3.7732Y-2.3523
X3.8732Y-1.3523
X3.8732Y-2.3523
X3.9732Y-1.3523
X3.9732Y-2.3523
X4.0732Y-1.3523
X4.0732Y-2.3523
T3
X2.7126Y-1.689
X2.7126Y-1.789
X2.7126Y-1.889
X2.7126Y-1.989
X2.8677Y-2.2244
X2.8695Y-1.4764
X2.9677Y-2.2244
X2.9695Y-1.4764
X3.0677Y-2.2244
X3.0695Y-1.4764
X3.1677Y-2.2244
X3.1695Y-1.4764
X3.2677Y-2.2244
X3.2695Y-1.4764
X3.3677Y-2.2244
X3.3695Y-1.4764
X3.4677Y-2.2244
X3.4695Y-1.4764
X3.5677Y-2.2244
X3.6677Y-2.2244
X3.7677Y-2.2244
X3.7795Y-1.6909
X3.7795Y-1.7909
X3.7795Y-1.8909
X3.7795Y-1.9909
X3.8677Y-2.2244
X3.9677Y-2.2244
X4.0059Y-1.6909
X4.0059Y-1.7909
X4.0059Y-1.8909
X4.0059Y-1.9909
X4.0677Y-2.2244
T0
M30
