%TF.GenerationSoftware,KiCad,Pcbnew,7.0.1*%
%TF.CreationDate,2025-01-23T15:28:38-05:00*%
%TF.ProjectId,ESP32_Dock,45535033-325f-4446-9f63-6b2e6b696361,rev?*%
%TF.SameCoordinates,Original*%
%TF.FileFunction,Copper,L1,Top*%
%TF.FilePolarity,Positive*%
%FSLAX46Y46*%
G04 Gerber Fmt 4.6, Leading zero omitted, Abs format (unit mm)*
G04 Created by KiCad (PCBNEW 7.0.1) date 2025-01-23 15:28:38*
%MOMM*%
%LPD*%
G01*
G04 APERTURE LIST*
%TA.AperFunction,ComponentPad*%
%ADD10C,1.600000*%
%TD*%
%TA.AperFunction,ComponentPad*%
%ADD11R,1.700000X1.700000*%
%TD*%
%TA.AperFunction,ComponentPad*%
%ADD12O,1.700000X1.700000*%
%TD*%
%TA.AperFunction,ComponentPad*%
%ADD13O,1.524000X1.900000*%
%TD*%
%TA.AperFunction,Conductor*%
%ADD14C,0.250000*%
%TD*%
G04 APERTURE END LIST*
D10*
%TO.P,C1,1*%
%TO.N,/VCC*%
X75000000Y-46750000D03*
%TO.P,C1,2*%
%TO.N,/GND*%
X77000000Y-46750000D03*
%TD*%
D11*
%TO.P,J5,1,Pin_1*%
%TO.N,/EN*%
X103320000Y-56500000D03*
D12*
%TO.P,J5,2,Pin_2*%
%TO.N,/GPIO36*%
X100780000Y-56500000D03*
%TO.P,J5,3,Pin_3*%
%TO.N,/GPIO39*%
X98240000Y-56500000D03*
%TO.P,J5,4,Pin_4*%
%TO.N,/GPIO34*%
X95700000Y-56500000D03*
%TO.P,J5,5,Pin_5*%
%TO.N,/GPIO35*%
X93160000Y-56500000D03*
%TO.P,J5,6,Pin_6*%
%TO.N,/GPIO32*%
X90620000Y-56500000D03*
%TO.P,J5,7,Pin_7*%
%TO.N,/GPIO33*%
X88080000Y-56500000D03*
%TO.P,J5,8,Pin_8*%
%TO.N,/GPIO25*%
X85540000Y-56500000D03*
%TO.P,J5,9,Pin_9*%
%TO.N,/GPIO26*%
X83000000Y-56500000D03*
%TO.P,J5,10,Pin_10*%
%TO.N,/GPIO27*%
X80460000Y-56500000D03*
%TO.P,J5,11,Pin_11*%
%TO.N,/GPIO14*%
X77920000Y-56500000D03*
%TO.P,J5,12,Pin_12*%
%TO.N,/GPIO12*%
X75380000Y-56500000D03*
%TO.P,J5,13,Pin_13*%
%TO.N,/GPIO13*%
X72840000Y-56500000D03*
%TD*%
D11*
%TO.P,J3,1,Pin_1*%
%TO.N,/VIN*%
X101750000Y-42950000D03*
D12*
%TO.P,J3,2,Pin_2*%
%TO.N,/GND*%
X101750000Y-45490000D03*
%TO.P,J3,3,Pin_3*%
%TO.N,/TX1*%
X101750000Y-48030000D03*
%TO.P,J3,4,Pin_4*%
%TO.N,/RX1*%
X101750000Y-50570000D03*
%TD*%
D11*
%TO.P,J4,1,Pin_1*%
%TO.N,/GPIO23*%
X88125000Y-37500000D03*
D12*
%TO.P,J4,2,Pin_2*%
%TO.N,/GPIO19*%
X85585000Y-37500000D03*
%TO.P,J4,3,Pin_3*%
%TO.N,/GPIO18*%
X83045000Y-37500000D03*
%TO.P,J4,4,Pin_4*%
%TO.N,/GPIO5*%
X80505000Y-37500000D03*
%TO.P,J4,5,Pin_5*%
%TO.N,/GPIO4*%
X77965000Y-37500000D03*
%TO.P,J4,6,Pin_6*%
%TO.N,/GPIO2*%
X75425000Y-37500000D03*
%TO.P,J4,7,Pin_7*%
%TO.N,/GPIO15*%
X72885000Y-37500000D03*
%TD*%
D11*
%TO.P,J2,1,Pin_1*%
%TO.N,/VIN*%
X68900000Y-42900000D03*
D12*
%TO.P,J2,2,Pin_2*%
%TO.N,/GND*%
X68900000Y-45440000D03*
%TO.P,J2,3,Pin_3*%
%TO.N,/RX0*%
X68900000Y-47980000D03*
%TO.P,J2,4,Pin_4*%
%TO.N,/TX0*%
X68900000Y-50520000D03*
%TD*%
D11*
%TO.P,J1,1,Pin_1*%
%TO.N,/VCC*%
X96000000Y-42950000D03*
D12*
%TO.P,J1,2,Pin_2*%
%TO.N,/GND*%
X96000000Y-45490000D03*
%TO.P,J1,3,Pin_3*%
%TO.N,/SDA*%
X96000000Y-48030000D03*
%TO.P,J1,4,Pin_4*%
%TO.N,/SCL*%
X96000000Y-50570000D03*
%TD*%
D13*
%TO.P,U1,1,EN*%
%TO.N,/EN*%
X103458098Y-59747540D03*
%TO.P,U1,2,GPIO36*%
%TO.N,/GPIO36*%
X100918098Y-59747540D03*
%TO.P,U1,3,GPIO39*%
%TO.N,/GPIO39*%
X98378098Y-59747540D03*
%TO.P,U1,4,GPIO34*%
%TO.N,/GPIO34*%
X95838098Y-59747540D03*
%TO.P,U1,5,GPIO35*%
%TO.N,/GPIO35*%
X93298098Y-59747540D03*
%TO.P,U1,6,GPIO32*%
%TO.N,/GPIO32*%
X90758098Y-59747540D03*
%TO.P,U1,7,GPIO33*%
%TO.N,/GPIO33*%
X88218098Y-59747540D03*
%TO.P,U1,8,GPIO25*%
%TO.N,/GPIO25*%
X85678098Y-59747540D03*
%TO.P,U1,9,GPIO26*%
%TO.N,/GPIO26*%
X83138098Y-59747540D03*
%TO.P,U1,10,GPIO27*%
%TO.N,/GPIO27*%
X80598098Y-59747540D03*
%TO.P,U1,11,GPIO14*%
%TO.N,/GPIO14*%
X78058098Y-59747540D03*
%TO.P,U1,12,GPIO12*%
%TO.N,/GPIO12*%
X75518098Y-59747540D03*
%TO.P,U1,13,GPIO13*%
%TO.N,/GPIO13*%
X72978098Y-59747540D03*
%TO.P,U1,14,GND*%
%TO.N,/GND*%
X70438098Y-59747540D03*
%TO.P,U1,15,VIN*%
%TO.N,/VIN*%
X67898098Y-59747540D03*
%TO.P,U1,16,3.3v*%
%TO.N,/VCC*%
X67898098Y-34347540D03*
%TO.P,U1,17,GND*%
%TO.N,/GND*%
X70438098Y-34347540D03*
%TO.P,U1,18,GPIO15*%
%TO.N,/GPIO15*%
X72978098Y-34347540D03*
%TO.P,U1,19,GPIO2*%
%TO.N,/GPIO2*%
X75518098Y-34347540D03*
%TO.P,U1,20,GPIO4*%
%TO.N,/GPIO4*%
X78058098Y-34347540D03*
%TO.P,U1,21,GPIO16*%
%TO.N,/RX1*%
X80598098Y-34347540D03*
%TO.P,U1,22,GPIO17*%
%TO.N,/TX1*%
X83138098Y-34347540D03*
%TO.P,U1,23,GPIO5*%
%TO.N,/GPIO5*%
X85678098Y-34347540D03*
%TO.P,U1,24,GPIO18*%
%TO.N,/GPIO18*%
X88218098Y-34347540D03*
%TO.P,U1,25,GPIO19*%
%TO.N,/GPIO19*%
X90758098Y-34347540D03*
%TO.P,U1,26,GPIO21*%
%TO.N,/SDA*%
X93298098Y-34347540D03*
%TO.P,U1,27,GPIO3*%
%TO.N,/RX0*%
X95838098Y-34347540D03*
%TO.P,U1,28,GPIO1*%
%TO.N,/TX0*%
X98378098Y-34347540D03*
%TO.P,U1,29,GPIO22*%
%TO.N,/SCL*%
X100918098Y-34347540D03*
%TO.P,U1,30,GPIO23*%
%TO.N,/GPIO23*%
X103458098Y-34347540D03*
%TD*%
D14*
%TO.N,/VCC*%
X78250000Y-43500000D02*
X95450000Y-43500000D01*
X95450000Y-43500000D02*
X96000000Y-42950000D01*
X75000000Y-46750000D02*
X78250000Y-43500000D01*
%TO.N,/SCL*%
X100575000Y-34690638D02*
X100918098Y-34347540D01*
X100575000Y-45995000D02*
X100575000Y-34690638D01*
X96000000Y-50570000D02*
X100575000Y-45995000D01*
%TO.N,/VIN*%
X67000000Y-44800000D02*
X68900000Y-42900000D01*
X67000000Y-58849442D02*
X67000000Y-44800000D01*
X67898098Y-59747540D02*
X67000000Y-58849442D01*
%TO.N,/TX0*%
X76670000Y-42750000D02*
X89975638Y-42750000D01*
X68900000Y-50520000D02*
X76670000Y-42750000D01*
X89975638Y-42750000D02*
X98378098Y-34347540D01*
%TO.N,/RX0*%
X87935638Y-42250000D02*
X95838098Y-34347540D01*
X70770000Y-47980000D02*
X76500000Y-42250000D01*
X68900000Y-47980000D02*
X70770000Y-47980000D01*
X76500000Y-42250000D02*
X87935638Y-42250000D01*
%TO.N,/GPIO23*%
X102110558Y-33000000D02*
X103458098Y-34347540D01*
X92920388Y-33000000D02*
X102110558Y-33000000D01*
X92000000Y-34830888D02*
X92000000Y-33920388D01*
X88125000Y-37500000D02*
X89330888Y-37500000D01*
X92000000Y-33920388D02*
X92920388Y-33000000D01*
X89330888Y-37500000D02*
X92000000Y-34830888D01*
%TO.N,/GPIO19*%
X85585000Y-37500000D02*
X85950000Y-37500000D01*
X87827460Y-35622540D02*
X89483098Y-35622540D01*
X89483098Y-35622540D02*
X90758098Y-34347540D01*
X85950000Y-37500000D02*
X87827460Y-35622540D01*
%TO.N,/GPIO18*%
X83045000Y-37500000D02*
X83162034Y-37500000D01*
X84589494Y-36072540D02*
X86493098Y-36072540D01*
X83162034Y-37500000D02*
X84589494Y-36072540D01*
X86493098Y-36072540D02*
X88218098Y-34347540D01*
%TO.N,/GPIO5*%
X82382460Y-35622540D02*
X84403098Y-35622540D01*
X84403098Y-35622540D02*
X85678098Y-34347540D01*
X80505000Y-37500000D02*
X82382460Y-35622540D01*
%TO.N,/GPIO4*%
X77965000Y-34440638D02*
X78058098Y-34347540D01*
X77965000Y-37500000D02*
X77965000Y-34440638D01*
%TO.N,/GPIO2*%
X75425000Y-34440638D02*
X75518098Y-34347540D01*
X75425000Y-37500000D02*
X75425000Y-34440638D01*
%TO.N,/GPIO15*%
X72885000Y-34440638D02*
X72978098Y-34347540D01*
X72885000Y-37500000D02*
X72885000Y-34440638D01*
%TO.N,/EN*%
X103320000Y-59609442D02*
X103458098Y-59747540D01*
X103320000Y-56500000D02*
X103320000Y-59609442D01*
%TO.N,/GPIO36*%
X100780000Y-59609442D02*
X100918098Y-59747540D01*
X100780000Y-56500000D02*
X100780000Y-59609442D01*
%TO.N,/GPIO39*%
X98240000Y-59609442D02*
X98378098Y-59747540D01*
X98240000Y-56500000D02*
X98240000Y-59609442D01*
%TO.N,/GPIO34*%
X95700000Y-56500000D02*
X95700000Y-59609442D01*
X95700000Y-59609442D02*
X95838098Y-59747540D01*
%TO.N,/GPIO35*%
X93160000Y-59609442D02*
X93298098Y-59747540D01*
X93160000Y-56500000D02*
X93160000Y-59609442D01*
%TO.N,/GPIO32*%
X90620000Y-56500000D02*
X90620000Y-59609442D01*
X90620000Y-59609442D02*
X90758098Y-59747540D01*
%TO.N,/GPIO33*%
X88080000Y-59609442D02*
X88218098Y-59747540D01*
X88080000Y-56500000D02*
X88080000Y-59609442D01*
%TO.N,/GPIO25*%
X85540000Y-56500000D02*
X85540000Y-59609442D01*
X85540000Y-59609442D02*
X85678098Y-59747540D01*
%TO.N,/GPIO26*%
X83000000Y-56500000D02*
X83000000Y-59609442D01*
X83000000Y-59609442D02*
X83138098Y-59747540D01*
%TO.N,/GPIO27*%
X80460000Y-56500000D02*
X80460000Y-59609442D01*
X80460000Y-59609442D02*
X80598098Y-59747540D01*
%TO.N,/GPIO14*%
X77920000Y-59609442D02*
X78058098Y-59747540D01*
X77920000Y-56500000D02*
X77920000Y-59609442D01*
%TO.N,/GPIO12*%
X75380000Y-59609442D02*
X75518098Y-59747540D01*
X75380000Y-56500000D02*
X75380000Y-59609442D01*
%TO.N,/GPIO13*%
X72840000Y-56500000D02*
X72840000Y-59609442D01*
X72840000Y-59609442D02*
X72978098Y-59747540D01*
%TD*%
M02*
