%TF.GenerationSoftware,KiCad,Pcbnew,7.0.1*%
%TF.CreationDate,2025-01-23T23:54:12-05:00*%
%TF.ProjectId,ESP32_Dock,45535033-325f-4446-9f63-6b2e6b696361,rev?*%
%TF.SameCoordinates,Original*%
%TF.FileFunction,Legend,Bot*%
%TF.FilePolarity,Positive*%
%FSLAX46Y46*%
G04 Gerber Fmt 4.6, Leading zero omitted, Abs format (unit mm)*
G04 Created by KiCad (PCBNEW 7.0.1) date 2025-01-23 23:54:12*
%MOMM*%
%LPD*%
G01*
G04 APERTURE LIST*
%ADD10C,0.150000*%
%ADD11C,0.100000*%
%ADD12C,0.200000*%
G04 APERTURE END LIST*
D10*
%TO.C,U1*%
X87075002Y-46010159D02*
X87075002Y-46819682D01*
X87075002Y-46819682D02*
X87027383Y-46914920D01*
X87027383Y-46914920D02*
X86979764Y-46962540D01*
X86979764Y-46962540D02*
X86884526Y-47010159D01*
X86884526Y-47010159D02*
X86694050Y-47010159D01*
X86694050Y-47010159D02*
X86598812Y-46962540D01*
X86598812Y-46962540D02*
X86551193Y-46914920D01*
X86551193Y-46914920D02*
X86503574Y-46819682D01*
X86503574Y-46819682D02*
X86503574Y-46010159D01*
X85503574Y-47010159D02*
X86075002Y-47010159D01*
X85789288Y-47010159D02*
X85789288Y-46010159D01*
X85789288Y-46010159D02*
X85884526Y-46153016D01*
X85884526Y-46153016D02*
X85979764Y-46248254D01*
X85979764Y-46248254D02*
X86075002Y-46295873D01*
D11*
X88764562Y-36019267D02*
X88712181Y-35971648D01*
X88712181Y-35971648D02*
X88607419Y-35924029D01*
X88607419Y-35924029D02*
X88345514Y-35924029D01*
X88345514Y-35924029D02*
X88240752Y-35971648D01*
X88240752Y-35971648D02*
X88188371Y-36019267D01*
X88188371Y-36019267D02*
X88135990Y-36114505D01*
X88135990Y-36114505D02*
X88135990Y-36209743D01*
X88135990Y-36209743D02*
X88188371Y-36352600D01*
X88188371Y-36352600D02*
X88816943Y-36924029D01*
X88816943Y-36924029D02*
X88135990Y-36924029D01*
X87193133Y-36257362D02*
X87193133Y-36924029D01*
X87455038Y-35876410D02*
X87716943Y-36590695D01*
X87716943Y-36590695D02*
X87035990Y-36590695D01*
X103312319Y-58126702D02*
X103940891Y-58126702D01*
X103626605Y-58126702D02*
X103626605Y-57126702D01*
X103626605Y-57126702D02*
X103731367Y-57269559D01*
X103731367Y-57269559D02*
X103836129Y-57364797D01*
X103836129Y-57364797D02*
X103940891Y-57412416D01*
X90717081Y-57126702D02*
X90926605Y-57126702D01*
X90926605Y-57126702D02*
X91031367Y-57174321D01*
X91031367Y-57174321D02*
X91083748Y-57221940D01*
X91083748Y-57221940D02*
X91188510Y-57364797D01*
X91188510Y-57364797D02*
X91240891Y-57555273D01*
X91240891Y-57555273D02*
X91240891Y-57936225D01*
X91240891Y-57936225D02*
X91188510Y-58031463D01*
X91188510Y-58031463D02*
X91136129Y-58079083D01*
X91136129Y-58079083D02*
X91031367Y-58126702D01*
X91031367Y-58126702D02*
X90821843Y-58126702D01*
X90821843Y-58126702D02*
X90717081Y-58079083D01*
X90717081Y-58079083D02*
X90664700Y-58031463D01*
X90664700Y-58031463D02*
X90612319Y-57936225D01*
X90612319Y-57936225D02*
X90612319Y-57698130D01*
X90612319Y-57698130D02*
X90664700Y-57602892D01*
X90664700Y-57602892D02*
X90717081Y-57555273D01*
X90717081Y-57555273D02*
X90821843Y-57507654D01*
X90821843Y-57507654D02*
X91031367Y-57507654D01*
X91031367Y-57507654D02*
X91136129Y-57555273D01*
X91136129Y-57555273D02*
X91188510Y-57602892D01*
X91188510Y-57602892D02*
X91240891Y-57698130D01*
X78013273Y-58071450D02*
X78641845Y-58071450D01*
X78327559Y-58071450D02*
X78327559Y-57071450D01*
X78327559Y-57071450D02*
X78432321Y-57214307D01*
X78432321Y-57214307D02*
X78537083Y-57309545D01*
X78537083Y-57309545D02*
X78641845Y-57357164D01*
X76965654Y-58071450D02*
X77594226Y-58071450D01*
X77279940Y-58071450D02*
X77279940Y-57071450D01*
X77279940Y-57071450D02*
X77384702Y-57214307D01*
X77384702Y-57214307D02*
X77489464Y-57309545D01*
X77489464Y-57309545D02*
X77594226Y-57357164D01*
X73045213Y-58066097D02*
X73673785Y-58066097D01*
X73359499Y-58066097D02*
X73359499Y-57066097D01*
X73359499Y-57066097D02*
X73464261Y-57208954D01*
X73464261Y-57208954D02*
X73569023Y-57304192D01*
X73569023Y-57304192D02*
X73673785Y-57351811D01*
X72678547Y-57066097D02*
X71997594Y-57066097D01*
X71997594Y-57066097D02*
X72364261Y-57447049D01*
X72364261Y-57447049D02*
X72207118Y-57447049D01*
X72207118Y-57447049D02*
X72102356Y-57494668D01*
X72102356Y-57494668D02*
X72049975Y-57542287D01*
X72049975Y-57542287D02*
X71997594Y-57637525D01*
X71997594Y-57637525D02*
X71997594Y-57875620D01*
X71997594Y-57875620D02*
X72049975Y-57970858D01*
X72049975Y-57970858D02*
X72102356Y-58018478D01*
X72102356Y-58018478D02*
X72207118Y-58066097D01*
X72207118Y-58066097D02*
X72521404Y-58066097D01*
X72521404Y-58066097D02*
X72626166Y-58018478D01*
X72626166Y-58018478D02*
X72678547Y-57970858D01*
X79152862Y-35958274D02*
X79100481Y-35910655D01*
X79100481Y-35910655D02*
X78995719Y-35863036D01*
X78995719Y-35863036D02*
X78733814Y-35863036D01*
X78733814Y-35863036D02*
X78629052Y-35910655D01*
X78629052Y-35910655D02*
X78576671Y-35958274D01*
X78576671Y-35958274D02*
X78524290Y-36053512D01*
X78524290Y-36053512D02*
X78524290Y-36148750D01*
X78524290Y-36148750D02*
X78576671Y-36291607D01*
X78576671Y-36291607D02*
X79205243Y-36863036D01*
X79205243Y-36863036D02*
X78524290Y-36863036D01*
X77843338Y-35863036D02*
X77738576Y-35863036D01*
X77738576Y-35863036D02*
X77633814Y-35910655D01*
X77633814Y-35910655D02*
X77581433Y-35958274D01*
X77581433Y-35958274D02*
X77529052Y-36053512D01*
X77529052Y-36053512D02*
X77476671Y-36243988D01*
X77476671Y-36243988D02*
X77476671Y-36482083D01*
X77476671Y-36482083D02*
X77529052Y-36672559D01*
X77529052Y-36672559D02*
X77581433Y-36767797D01*
X77581433Y-36767797D02*
X77633814Y-36815417D01*
X77633814Y-36815417D02*
X77738576Y-36863036D01*
X77738576Y-36863036D02*
X77843338Y-36863036D01*
X77843338Y-36863036D02*
X77948100Y-36815417D01*
X77948100Y-36815417D02*
X78000481Y-36767797D01*
X78000481Y-36767797D02*
X78052862Y-36672559D01*
X78052862Y-36672559D02*
X78105243Y-36482083D01*
X78105243Y-36482083D02*
X78105243Y-36243988D01*
X78105243Y-36243988D02*
X78052862Y-36053512D01*
X78052862Y-36053512D02*
X78000481Y-35958274D01*
X78000481Y-35958274D02*
X77948100Y-35910655D01*
X77948100Y-35910655D02*
X77843338Y-35863036D01*
X93204700Y-57126702D02*
X93728510Y-57126702D01*
X93728510Y-57126702D02*
X93780891Y-57602892D01*
X93780891Y-57602892D02*
X93728510Y-57555273D01*
X93728510Y-57555273D02*
X93623748Y-57507654D01*
X93623748Y-57507654D02*
X93361843Y-57507654D01*
X93361843Y-57507654D02*
X93257081Y-57555273D01*
X93257081Y-57555273D02*
X93204700Y-57602892D01*
X93204700Y-57602892D02*
X93152319Y-57698130D01*
X93152319Y-57698130D02*
X93152319Y-57936225D01*
X93152319Y-57936225D02*
X93204700Y-58031463D01*
X93204700Y-58031463D02*
X93257081Y-58079083D01*
X93257081Y-58079083D02*
X93361843Y-58126702D01*
X93361843Y-58126702D02*
X93623748Y-58126702D01*
X93623748Y-58126702D02*
X93728510Y-58079083D01*
X93728510Y-58079083D02*
X93780891Y-58031463D01*
X86052321Y-57500021D02*
X86157083Y-57452402D01*
X86157083Y-57452402D02*
X86209464Y-57404783D01*
X86209464Y-57404783D02*
X86261845Y-57309545D01*
X86261845Y-57309545D02*
X86261845Y-57261926D01*
X86261845Y-57261926D02*
X86209464Y-57166688D01*
X86209464Y-57166688D02*
X86157083Y-57119069D01*
X86157083Y-57119069D02*
X86052321Y-57071450D01*
X86052321Y-57071450D02*
X85842797Y-57071450D01*
X85842797Y-57071450D02*
X85738035Y-57119069D01*
X85738035Y-57119069D02*
X85685654Y-57166688D01*
X85685654Y-57166688D02*
X85633273Y-57261926D01*
X85633273Y-57261926D02*
X85633273Y-57309545D01*
X85633273Y-57309545D02*
X85685654Y-57404783D01*
X85685654Y-57404783D02*
X85738035Y-57452402D01*
X85738035Y-57452402D02*
X85842797Y-57500021D01*
X85842797Y-57500021D02*
X86052321Y-57500021D01*
X86052321Y-57500021D02*
X86157083Y-57547640D01*
X86157083Y-57547640D02*
X86209464Y-57595259D01*
X86209464Y-57595259D02*
X86261845Y-57690497D01*
X86261845Y-57690497D02*
X86261845Y-57880973D01*
X86261845Y-57880973D02*
X86209464Y-57976211D01*
X86209464Y-57976211D02*
X86157083Y-58023831D01*
X86157083Y-58023831D02*
X86052321Y-58071450D01*
X86052321Y-58071450D02*
X85842797Y-58071450D01*
X85842797Y-58071450D02*
X85738035Y-58023831D01*
X85738035Y-58023831D02*
X85685654Y-57976211D01*
X85685654Y-57976211D02*
X85633273Y-57880973D01*
X85633273Y-57880973D02*
X85633273Y-57690497D01*
X85633273Y-57690497D02*
X85685654Y-57595259D01*
X85685654Y-57595259D02*
X85738035Y-57547640D01*
X85738035Y-57547640D02*
X85842797Y-57500021D01*
X101464562Y-36019267D02*
X101412181Y-35971648D01*
X101412181Y-35971648D02*
X101307419Y-35924029D01*
X101307419Y-35924029D02*
X101045514Y-35924029D01*
X101045514Y-35924029D02*
X100940752Y-35971648D01*
X100940752Y-35971648D02*
X100888371Y-36019267D01*
X100888371Y-36019267D02*
X100835990Y-36114505D01*
X100835990Y-36114505D02*
X100835990Y-36209743D01*
X100835990Y-36209743D02*
X100888371Y-36352600D01*
X100888371Y-36352600D02*
X101516943Y-36924029D01*
X101516943Y-36924029D02*
X100835990Y-36924029D01*
X100312181Y-36924029D02*
X100102657Y-36924029D01*
X100102657Y-36924029D02*
X99997895Y-36876410D01*
X99997895Y-36876410D02*
X99945514Y-36828790D01*
X99945514Y-36828790D02*
X99840752Y-36685933D01*
X99840752Y-36685933D02*
X99788371Y-36495457D01*
X99788371Y-36495457D02*
X99788371Y-36114505D01*
X99788371Y-36114505D02*
X99840752Y-36019267D01*
X99840752Y-36019267D02*
X99893133Y-35971648D01*
X99893133Y-35971648D02*
X99997895Y-35924029D01*
X99997895Y-35924029D02*
X100207419Y-35924029D01*
X100207419Y-35924029D02*
X100312181Y-35971648D01*
X100312181Y-35971648D02*
X100364562Y-36019267D01*
X100364562Y-36019267D02*
X100416943Y-36114505D01*
X100416943Y-36114505D02*
X100416943Y-36352600D01*
X100416943Y-36352600D02*
X100364562Y-36447838D01*
X100364562Y-36447838D02*
X100312181Y-36495457D01*
X100312181Y-36495457D02*
X100207419Y-36543076D01*
X100207419Y-36543076D02*
X99997895Y-36543076D01*
X99997895Y-36543076D02*
X99893133Y-36495457D01*
X99893133Y-36495457D02*
X99840752Y-36447838D01*
X99840752Y-36447838D02*
X99788371Y-36352600D01*
X93844562Y-36019267D02*
X93792181Y-35971648D01*
X93792181Y-35971648D02*
X93687419Y-35924029D01*
X93687419Y-35924029D02*
X93425514Y-35924029D01*
X93425514Y-35924029D02*
X93320752Y-35971648D01*
X93320752Y-35971648D02*
X93268371Y-36019267D01*
X93268371Y-36019267D02*
X93215990Y-36114505D01*
X93215990Y-36114505D02*
X93215990Y-36209743D01*
X93215990Y-36209743D02*
X93268371Y-36352600D01*
X93268371Y-36352600D02*
X93896943Y-36924029D01*
X93896943Y-36924029D02*
X93215990Y-36924029D01*
X92273133Y-35924029D02*
X92482657Y-35924029D01*
X92482657Y-35924029D02*
X92587419Y-35971648D01*
X92587419Y-35971648D02*
X92639800Y-36019267D01*
X92639800Y-36019267D02*
X92744562Y-36162124D01*
X92744562Y-36162124D02*
X92796943Y-36352600D01*
X92796943Y-36352600D02*
X92796943Y-36733552D01*
X92796943Y-36733552D02*
X92744562Y-36828790D01*
X92744562Y-36828790D02*
X92692181Y-36876410D01*
X92692181Y-36876410D02*
X92587419Y-36924029D01*
X92587419Y-36924029D02*
X92377895Y-36924029D01*
X92377895Y-36924029D02*
X92273133Y-36876410D01*
X92273133Y-36876410D02*
X92220752Y-36828790D01*
X92220752Y-36828790D02*
X92168371Y-36733552D01*
X92168371Y-36733552D02*
X92168371Y-36495457D01*
X92168371Y-36495457D02*
X92220752Y-36400219D01*
X92220752Y-36400219D02*
X92273133Y-36352600D01*
X92273133Y-36352600D02*
X92377895Y-36304981D01*
X92377895Y-36304981D02*
X92587419Y-36304981D01*
X92587419Y-36304981D02*
X92692181Y-36352600D01*
X92692181Y-36352600D02*
X92744562Y-36400219D01*
X92744562Y-36400219D02*
X92796943Y-36495457D01*
X95797081Y-57460035D02*
X95797081Y-58126702D01*
X96058986Y-57079083D02*
X96320891Y-57793368D01*
X96320891Y-57793368D02*
X95639938Y-57793368D01*
X86224562Y-36019267D02*
X86172181Y-35971648D01*
X86172181Y-35971648D02*
X86067419Y-35924029D01*
X86067419Y-35924029D02*
X85805514Y-35924029D01*
X85805514Y-35924029D02*
X85700752Y-35971648D01*
X85700752Y-35971648D02*
X85648371Y-36019267D01*
X85648371Y-36019267D02*
X85595990Y-36114505D01*
X85595990Y-36114505D02*
X85595990Y-36209743D01*
X85595990Y-36209743D02*
X85648371Y-36352600D01*
X85648371Y-36352600D02*
X86276943Y-36924029D01*
X86276943Y-36924029D02*
X85595990Y-36924029D01*
X85229324Y-35924029D02*
X84548371Y-35924029D01*
X84548371Y-35924029D02*
X84915038Y-36304981D01*
X84915038Y-36304981D02*
X84757895Y-36304981D01*
X84757895Y-36304981D02*
X84653133Y-36352600D01*
X84653133Y-36352600D02*
X84600752Y-36400219D01*
X84600752Y-36400219D02*
X84548371Y-36495457D01*
X84548371Y-36495457D02*
X84548371Y-36733552D01*
X84548371Y-36733552D02*
X84600752Y-36828790D01*
X84600752Y-36828790D02*
X84653133Y-36876410D01*
X84653133Y-36876410D02*
X84757895Y-36924029D01*
X84757895Y-36924029D02*
X85072181Y-36924029D01*
X85072181Y-36924029D02*
X85176943Y-36876410D01*
X85176943Y-36876410D02*
X85229324Y-36828790D01*
X70904290Y-36863036D02*
X71532862Y-36863036D01*
X71218576Y-36863036D02*
X71218576Y-35863036D01*
X71218576Y-35863036D02*
X71323338Y-36005893D01*
X71323338Y-36005893D02*
X71428100Y-36101131D01*
X71428100Y-36101131D02*
X71532862Y-36148750D01*
X70537624Y-35863036D02*
X69804290Y-35863036D01*
X69804290Y-35863036D02*
X70275719Y-36863036D01*
X88854226Y-57071450D02*
X88120892Y-57071450D01*
X88120892Y-57071450D02*
X88592321Y-58071450D01*
X67965213Y-58066097D02*
X68593785Y-58066097D01*
X68279499Y-58066097D02*
X68279499Y-57066097D01*
X68279499Y-57066097D02*
X68384261Y-57208954D01*
X68384261Y-57208954D02*
X68489023Y-57304192D01*
X68489023Y-57304192D02*
X68593785Y-57351811D01*
X66969975Y-57066097D02*
X67493785Y-57066097D01*
X67493785Y-57066097D02*
X67546166Y-57542287D01*
X67546166Y-57542287D02*
X67493785Y-57494668D01*
X67493785Y-57494668D02*
X67389023Y-57447049D01*
X67389023Y-57447049D02*
X67127118Y-57447049D01*
X67127118Y-57447049D02*
X67022356Y-57494668D01*
X67022356Y-57494668D02*
X66969975Y-57542287D01*
X66969975Y-57542287D02*
X66917594Y-57637525D01*
X66917594Y-57637525D02*
X66917594Y-57875620D01*
X66917594Y-57875620D02*
X66969975Y-57970858D01*
X66969975Y-57970858D02*
X67022356Y-58018478D01*
X67022356Y-58018478D02*
X67127118Y-58066097D01*
X67127118Y-58066097D02*
X67389023Y-58066097D01*
X67389023Y-58066097D02*
X67493785Y-58018478D01*
X67493785Y-58018478D02*
X67546166Y-57970858D01*
X91304562Y-36019267D02*
X91252181Y-35971648D01*
X91252181Y-35971648D02*
X91147419Y-35924029D01*
X91147419Y-35924029D02*
X90885514Y-35924029D01*
X90885514Y-35924029D02*
X90780752Y-35971648D01*
X90780752Y-35971648D02*
X90728371Y-36019267D01*
X90728371Y-36019267D02*
X90675990Y-36114505D01*
X90675990Y-36114505D02*
X90675990Y-36209743D01*
X90675990Y-36209743D02*
X90728371Y-36352600D01*
X90728371Y-36352600D02*
X91356943Y-36924029D01*
X91356943Y-36924029D02*
X90675990Y-36924029D01*
X89680752Y-35924029D02*
X90204562Y-35924029D01*
X90204562Y-35924029D02*
X90256943Y-36400219D01*
X90256943Y-36400219D02*
X90204562Y-36352600D01*
X90204562Y-36352600D02*
X90099800Y-36304981D01*
X90099800Y-36304981D02*
X89837895Y-36304981D01*
X89837895Y-36304981D02*
X89733133Y-36352600D01*
X89733133Y-36352600D02*
X89680752Y-36400219D01*
X89680752Y-36400219D02*
X89628371Y-36495457D01*
X89628371Y-36495457D02*
X89628371Y-36733552D01*
X89628371Y-36733552D02*
X89680752Y-36828790D01*
X89680752Y-36828790D02*
X89733133Y-36876410D01*
X89733133Y-36876410D02*
X89837895Y-36924029D01*
X89837895Y-36924029D02*
X90099800Y-36924029D01*
X90099800Y-36924029D02*
X90204562Y-36876410D01*
X90204562Y-36876410D02*
X90256943Y-36828790D01*
X96384562Y-36019267D02*
X96332181Y-35971648D01*
X96332181Y-35971648D02*
X96227419Y-35924029D01*
X96227419Y-35924029D02*
X95965514Y-35924029D01*
X95965514Y-35924029D02*
X95860752Y-35971648D01*
X95860752Y-35971648D02*
X95808371Y-36019267D01*
X95808371Y-36019267D02*
X95755990Y-36114505D01*
X95755990Y-36114505D02*
X95755990Y-36209743D01*
X95755990Y-36209743D02*
X95808371Y-36352600D01*
X95808371Y-36352600D02*
X96436943Y-36924029D01*
X96436943Y-36924029D02*
X95755990Y-36924029D01*
X95389324Y-35924029D02*
X94655990Y-35924029D01*
X94655990Y-35924029D02*
X95127419Y-36924029D01*
X75473273Y-58071450D02*
X76101845Y-58071450D01*
X75787559Y-58071450D02*
X75787559Y-57071450D01*
X75787559Y-57071450D02*
X75892321Y-57214307D01*
X75892321Y-57214307D02*
X75997083Y-57309545D01*
X75997083Y-57309545D02*
X76101845Y-57357164D01*
X75054226Y-57166688D02*
X75001845Y-57119069D01*
X75001845Y-57119069D02*
X74897083Y-57071450D01*
X74897083Y-57071450D02*
X74635178Y-57071450D01*
X74635178Y-57071450D02*
X74530416Y-57119069D01*
X74530416Y-57119069D02*
X74478035Y-57166688D01*
X74478035Y-57166688D02*
X74425654Y-57261926D01*
X74425654Y-57261926D02*
X74425654Y-57357164D01*
X74425654Y-57357164D02*
X74478035Y-57500021D01*
X74478035Y-57500021D02*
X75106607Y-58071450D01*
X75106607Y-58071450D02*
X74425654Y-58071450D01*
X98924562Y-36019267D02*
X98872181Y-35971648D01*
X98872181Y-35971648D02*
X98767419Y-35924029D01*
X98767419Y-35924029D02*
X98505514Y-35924029D01*
X98505514Y-35924029D02*
X98400752Y-35971648D01*
X98400752Y-35971648D02*
X98348371Y-36019267D01*
X98348371Y-36019267D02*
X98295990Y-36114505D01*
X98295990Y-36114505D02*
X98295990Y-36209743D01*
X98295990Y-36209743D02*
X98348371Y-36352600D01*
X98348371Y-36352600D02*
X98976943Y-36924029D01*
X98976943Y-36924029D02*
X98295990Y-36924029D01*
X97667419Y-36352600D02*
X97772181Y-36304981D01*
X97772181Y-36304981D02*
X97824562Y-36257362D01*
X97824562Y-36257362D02*
X97876943Y-36162124D01*
X97876943Y-36162124D02*
X97876943Y-36114505D01*
X97876943Y-36114505D02*
X97824562Y-36019267D01*
X97824562Y-36019267D02*
X97772181Y-35971648D01*
X97772181Y-35971648D02*
X97667419Y-35924029D01*
X97667419Y-35924029D02*
X97457895Y-35924029D01*
X97457895Y-35924029D02*
X97353133Y-35971648D01*
X97353133Y-35971648D02*
X97300752Y-36019267D01*
X97300752Y-36019267D02*
X97248371Y-36114505D01*
X97248371Y-36114505D02*
X97248371Y-36162124D01*
X97248371Y-36162124D02*
X97300752Y-36257362D01*
X97300752Y-36257362D02*
X97353133Y-36304981D01*
X97353133Y-36304981D02*
X97457895Y-36352600D01*
X97457895Y-36352600D02*
X97667419Y-36352600D01*
X97667419Y-36352600D02*
X97772181Y-36400219D01*
X97772181Y-36400219D02*
X97824562Y-36447838D01*
X97824562Y-36447838D02*
X97876943Y-36543076D01*
X97876943Y-36543076D02*
X97876943Y-36733552D01*
X97876943Y-36733552D02*
X97824562Y-36828790D01*
X97824562Y-36828790D02*
X97772181Y-36876410D01*
X97772181Y-36876410D02*
X97667419Y-36924029D01*
X97667419Y-36924029D02*
X97457895Y-36924029D01*
X97457895Y-36924029D02*
X97353133Y-36876410D01*
X97353133Y-36876410D02*
X97300752Y-36828790D01*
X97300752Y-36828790D02*
X97248371Y-36733552D01*
X97248371Y-36733552D02*
X97248371Y-36543076D01*
X97248371Y-36543076D02*
X97300752Y-36447838D01*
X97300752Y-36447838D02*
X97353133Y-36400219D01*
X97353133Y-36400219D02*
X97457895Y-36352600D01*
X81692862Y-35958274D02*
X81640481Y-35910655D01*
X81640481Y-35910655D02*
X81535719Y-35863036D01*
X81535719Y-35863036D02*
X81273814Y-35863036D01*
X81273814Y-35863036D02*
X81169052Y-35910655D01*
X81169052Y-35910655D02*
X81116671Y-35958274D01*
X81116671Y-35958274D02*
X81064290Y-36053512D01*
X81064290Y-36053512D02*
X81064290Y-36148750D01*
X81064290Y-36148750D02*
X81116671Y-36291607D01*
X81116671Y-36291607D02*
X81745243Y-36863036D01*
X81745243Y-36863036D02*
X81064290Y-36863036D01*
X80016671Y-36863036D02*
X80645243Y-36863036D01*
X80330957Y-36863036D02*
X80330957Y-35863036D01*
X80330957Y-35863036D02*
X80435719Y-36005893D01*
X80435719Y-36005893D02*
X80540481Y-36101131D01*
X80540481Y-36101131D02*
X80645243Y-36148750D01*
X98913272Y-57126702D02*
X98232319Y-57126702D01*
X98232319Y-57126702D02*
X98598986Y-57507654D01*
X98598986Y-57507654D02*
X98441843Y-57507654D01*
X98441843Y-57507654D02*
X98337081Y-57555273D01*
X98337081Y-57555273D02*
X98284700Y-57602892D01*
X98284700Y-57602892D02*
X98232319Y-57698130D01*
X98232319Y-57698130D02*
X98232319Y-57936225D01*
X98232319Y-57936225D02*
X98284700Y-58031463D01*
X98284700Y-58031463D02*
X98337081Y-58079083D01*
X98337081Y-58079083D02*
X98441843Y-58126702D01*
X98441843Y-58126702D02*
X98756129Y-58126702D01*
X98756129Y-58126702D02*
X98860891Y-58079083D01*
X98860891Y-58079083D02*
X98913272Y-58031463D01*
X75984290Y-36863036D02*
X76612862Y-36863036D01*
X76298576Y-36863036D02*
X76298576Y-35863036D01*
X76298576Y-35863036D02*
X76403338Y-36005893D01*
X76403338Y-36005893D02*
X76508100Y-36101131D01*
X76508100Y-36101131D02*
X76612862Y-36148750D01*
X75460481Y-36863036D02*
X75250957Y-36863036D01*
X75250957Y-36863036D02*
X75146195Y-36815417D01*
X75146195Y-36815417D02*
X75093814Y-36767797D01*
X75093814Y-36767797D02*
X74989052Y-36624940D01*
X74989052Y-36624940D02*
X74936671Y-36434464D01*
X74936671Y-36434464D02*
X74936671Y-36053512D01*
X74936671Y-36053512D02*
X74989052Y-35958274D01*
X74989052Y-35958274D02*
X75041433Y-35910655D01*
X75041433Y-35910655D02*
X75146195Y-35863036D01*
X75146195Y-35863036D02*
X75355719Y-35863036D01*
X75355719Y-35863036D02*
X75460481Y-35910655D01*
X75460481Y-35910655D02*
X75512862Y-35958274D01*
X75512862Y-35958274D02*
X75565243Y-36053512D01*
X75565243Y-36053512D02*
X75565243Y-36291607D01*
X75565243Y-36291607D02*
X75512862Y-36386845D01*
X75512862Y-36386845D02*
X75460481Y-36434464D01*
X75460481Y-36434464D02*
X75355719Y-36482083D01*
X75355719Y-36482083D02*
X75146195Y-36482083D01*
X75146195Y-36482083D02*
X75041433Y-36434464D01*
X75041433Y-36434464D02*
X74989052Y-36386845D01*
X74989052Y-36386845D02*
X74936671Y-36291607D01*
X104056943Y-35924029D02*
X103375990Y-35924029D01*
X103375990Y-35924029D02*
X103742657Y-36304981D01*
X103742657Y-36304981D02*
X103585514Y-36304981D01*
X103585514Y-36304981D02*
X103480752Y-36352600D01*
X103480752Y-36352600D02*
X103428371Y-36400219D01*
X103428371Y-36400219D02*
X103375990Y-36495457D01*
X103375990Y-36495457D02*
X103375990Y-36733552D01*
X103375990Y-36733552D02*
X103428371Y-36828790D01*
X103428371Y-36828790D02*
X103480752Y-36876410D01*
X103480752Y-36876410D02*
X103585514Y-36924029D01*
X103585514Y-36924029D02*
X103899800Y-36924029D01*
X103899800Y-36924029D02*
X104004562Y-36876410D01*
X104004562Y-36876410D02*
X104056943Y-36828790D01*
X102695038Y-35924029D02*
X102590276Y-35924029D01*
X102590276Y-35924029D02*
X102485514Y-35971648D01*
X102485514Y-35971648D02*
X102433133Y-36019267D01*
X102433133Y-36019267D02*
X102380752Y-36114505D01*
X102380752Y-36114505D02*
X102328371Y-36304981D01*
X102328371Y-36304981D02*
X102328371Y-36543076D01*
X102328371Y-36543076D02*
X102380752Y-36733552D01*
X102380752Y-36733552D02*
X102433133Y-36828790D01*
X102433133Y-36828790D02*
X102485514Y-36876410D01*
X102485514Y-36876410D02*
X102590276Y-36924029D01*
X102590276Y-36924029D02*
X102695038Y-36924029D01*
X102695038Y-36924029D02*
X102799800Y-36876410D01*
X102799800Y-36876410D02*
X102852181Y-36828790D01*
X102852181Y-36828790D02*
X102904562Y-36733552D01*
X102904562Y-36733552D02*
X102956943Y-36543076D01*
X102956943Y-36543076D02*
X102956943Y-36304981D01*
X102956943Y-36304981D02*
X102904562Y-36114505D01*
X102904562Y-36114505D02*
X102852181Y-36019267D01*
X102852181Y-36019267D02*
X102799800Y-35971648D01*
X102799800Y-35971648D02*
X102695038Y-35924029D01*
X101400891Y-57221940D02*
X101348510Y-57174321D01*
X101348510Y-57174321D02*
X101243748Y-57126702D01*
X101243748Y-57126702D02*
X100981843Y-57126702D01*
X100981843Y-57126702D02*
X100877081Y-57174321D01*
X100877081Y-57174321D02*
X100824700Y-57221940D01*
X100824700Y-57221940D02*
X100772319Y-57317178D01*
X100772319Y-57317178D02*
X100772319Y-57412416D01*
X100772319Y-57412416D02*
X100824700Y-57555273D01*
X100824700Y-57555273D02*
X101453272Y-58126702D01*
X101453272Y-58126702D02*
X100772319Y-58126702D01*
X83617083Y-58071450D02*
X83407559Y-58071450D01*
X83407559Y-58071450D02*
X83302797Y-58023831D01*
X83302797Y-58023831D02*
X83250416Y-57976211D01*
X83250416Y-57976211D02*
X83145654Y-57833354D01*
X83145654Y-57833354D02*
X83093273Y-57642878D01*
X83093273Y-57642878D02*
X83093273Y-57261926D01*
X83093273Y-57261926D02*
X83145654Y-57166688D01*
X83145654Y-57166688D02*
X83198035Y-57119069D01*
X83198035Y-57119069D02*
X83302797Y-57071450D01*
X83302797Y-57071450D02*
X83512321Y-57071450D01*
X83512321Y-57071450D02*
X83617083Y-57119069D01*
X83617083Y-57119069D02*
X83669464Y-57166688D01*
X83669464Y-57166688D02*
X83721845Y-57261926D01*
X83721845Y-57261926D02*
X83721845Y-57500021D01*
X83721845Y-57500021D02*
X83669464Y-57595259D01*
X83669464Y-57595259D02*
X83617083Y-57642878D01*
X83617083Y-57642878D02*
X83512321Y-57690497D01*
X83512321Y-57690497D02*
X83302797Y-57690497D01*
X83302797Y-57690497D02*
X83198035Y-57642878D01*
X83198035Y-57642878D02*
X83145654Y-57595259D01*
X83145654Y-57595259D02*
X83093273Y-57500021D01*
X80553273Y-58071450D02*
X81181845Y-58071450D01*
X80867559Y-58071450D02*
X80867559Y-57071450D01*
X80867559Y-57071450D02*
X80972321Y-57214307D01*
X80972321Y-57214307D02*
X81077083Y-57309545D01*
X81077083Y-57309545D02*
X81181845Y-57357164D01*
X79872321Y-57071450D02*
X79767559Y-57071450D01*
X79767559Y-57071450D02*
X79662797Y-57119069D01*
X79662797Y-57119069D02*
X79610416Y-57166688D01*
X79610416Y-57166688D02*
X79558035Y-57261926D01*
X79558035Y-57261926D02*
X79505654Y-57452402D01*
X79505654Y-57452402D02*
X79505654Y-57690497D01*
X79505654Y-57690497D02*
X79558035Y-57880973D01*
X79558035Y-57880973D02*
X79610416Y-57976211D01*
X79610416Y-57976211D02*
X79662797Y-58023831D01*
X79662797Y-58023831D02*
X79767559Y-58071450D01*
X79767559Y-58071450D02*
X79872321Y-58071450D01*
X79872321Y-58071450D02*
X79977083Y-58023831D01*
X79977083Y-58023831D02*
X80029464Y-57976211D01*
X80029464Y-57976211D02*
X80081845Y-57880973D01*
X80081845Y-57880973D02*
X80134226Y-57690497D01*
X80134226Y-57690497D02*
X80134226Y-57452402D01*
X80134226Y-57452402D02*
X80081845Y-57261926D01*
X80081845Y-57261926D02*
X80029464Y-57166688D01*
X80029464Y-57166688D02*
X79977083Y-57119069D01*
X79977083Y-57119069D02*
X79872321Y-57071450D01*
X83684562Y-36019267D02*
X83632181Y-35971648D01*
X83632181Y-35971648D02*
X83527419Y-35924029D01*
X83527419Y-35924029D02*
X83265514Y-35924029D01*
X83265514Y-35924029D02*
X83160752Y-35971648D01*
X83160752Y-35971648D02*
X83108371Y-36019267D01*
X83108371Y-36019267D02*
X83055990Y-36114505D01*
X83055990Y-36114505D02*
X83055990Y-36209743D01*
X83055990Y-36209743D02*
X83108371Y-36352600D01*
X83108371Y-36352600D02*
X83736943Y-36924029D01*
X83736943Y-36924029D02*
X83055990Y-36924029D01*
X82636943Y-36019267D02*
X82584562Y-35971648D01*
X82584562Y-35971648D02*
X82479800Y-35924029D01*
X82479800Y-35924029D02*
X82217895Y-35924029D01*
X82217895Y-35924029D02*
X82113133Y-35971648D01*
X82113133Y-35971648D02*
X82060752Y-36019267D01*
X82060752Y-36019267D02*
X82008371Y-36114505D01*
X82008371Y-36114505D02*
X82008371Y-36209743D01*
X82008371Y-36209743D02*
X82060752Y-36352600D01*
X82060752Y-36352600D02*
X82689324Y-36924029D01*
X82689324Y-36924029D02*
X82008371Y-36924029D01*
X70505213Y-58066097D02*
X71133785Y-58066097D01*
X70819499Y-58066097D02*
X70819499Y-57066097D01*
X70819499Y-57066097D02*
X70924261Y-57208954D01*
X70924261Y-57208954D02*
X71029023Y-57304192D01*
X71029023Y-57304192D02*
X71133785Y-57351811D01*
X69562356Y-57399430D02*
X69562356Y-58066097D01*
X69824261Y-57018478D02*
X70086166Y-57732763D01*
X70086166Y-57732763D02*
X69405213Y-57732763D01*
X68364290Y-36863036D02*
X68992862Y-36863036D01*
X68678576Y-36863036D02*
X68678576Y-35863036D01*
X68678576Y-35863036D02*
X68783338Y-36005893D01*
X68783338Y-36005893D02*
X68888100Y-36101131D01*
X68888100Y-36101131D02*
X68992862Y-36148750D01*
X67421433Y-35863036D02*
X67630957Y-35863036D01*
X67630957Y-35863036D02*
X67735719Y-35910655D01*
X67735719Y-35910655D02*
X67788100Y-35958274D01*
X67788100Y-35958274D02*
X67892862Y-36101131D01*
X67892862Y-36101131D02*
X67945243Y-36291607D01*
X67945243Y-36291607D02*
X67945243Y-36672559D01*
X67945243Y-36672559D02*
X67892862Y-36767797D01*
X67892862Y-36767797D02*
X67840481Y-36815417D01*
X67840481Y-36815417D02*
X67735719Y-36863036D01*
X67735719Y-36863036D02*
X67526195Y-36863036D01*
X67526195Y-36863036D02*
X67421433Y-36815417D01*
X67421433Y-36815417D02*
X67369052Y-36767797D01*
X67369052Y-36767797D02*
X67316671Y-36672559D01*
X67316671Y-36672559D02*
X67316671Y-36434464D01*
X67316671Y-36434464D02*
X67369052Y-36339226D01*
X67369052Y-36339226D02*
X67421433Y-36291607D01*
X67421433Y-36291607D02*
X67526195Y-36243988D01*
X67526195Y-36243988D02*
X67735719Y-36243988D01*
X67735719Y-36243988D02*
X67840481Y-36291607D01*
X67840481Y-36291607D02*
X67892862Y-36339226D01*
X67892862Y-36339226D02*
X67945243Y-36434464D01*
X73444290Y-36863036D02*
X74072862Y-36863036D01*
X73758576Y-36863036D02*
X73758576Y-35863036D01*
X73758576Y-35863036D02*
X73863338Y-36005893D01*
X73863338Y-36005893D02*
X73968100Y-36101131D01*
X73968100Y-36101131D02*
X74072862Y-36148750D01*
X72815719Y-36291607D02*
X72920481Y-36243988D01*
X72920481Y-36243988D02*
X72972862Y-36196369D01*
X72972862Y-36196369D02*
X73025243Y-36101131D01*
X73025243Y-36101131D02*
X73025243Y-36053512D01*
X73025243Y-36053512D02*
X72972862Y-35958274D01*
X72972862Y-35958274D02*
X72920481Y-35910655D01*
X72920481Y-35910655D02*
X72815719Y-35863036D01*
X72815719Y-35863036D02*
X72606195Y-35863036D01*
X72606195Y-35863036D02*
X72501433Y-35910655D01*
X72501433Y-35910655D02*
X72449052Y-35958274D01*
X72449052Y-35958274D02*
X72396671Y-36053512D01*
X72396671Y-36053512D02*
X72396671Y-36101131D01*
X72396671Y-36101131D02*
X72449052Y-36196369D01*
X72449052Y-36196369D02*
X72501433Y-36243988D01*
X72501433Y-36243988D02*
X72606195Y-36291607D01*
X72606195Y-36291607D02*
X72815719Y-36291607D01*
X72815719Y-36291607D02*
X72920481Y-36339226D01*
X72920481Y-36339226D02*
X72972862Y-36386845D01*
X72972862Y-36386845D02*
X73025243Y-36482083D01*
X73025243Y-36482083D02*
X73025243Y-36672559D01*
X73025243Y-36672559D02*
X72972862Y-36767797D01*
X72972862Y-36767797D02*
X72920481Y-36815417D01*
X72920481Y-36815417D02*
X72815719Y-36863036D01*
X72815719Y-36863036D02*
X72606195Y-36863036D01*
X72606195Y-36863036D02*
X72501433Y-36815417D01*
X72501433Y-36815417D02*
X72449052Y-36767797D01*
X72449052Y-36767797D02*
X72396671Y-36672559D01*
X72396671Y-36672559D02*
X72396671Y-36482083D01*
X72396671Y-36482083D02*
X72449052Y-36386845D01*
X72449052Y-36386845D02*
X72501433Y-36339226D01*
X72501433Y-36339226D02*
X72606195Y-36291607D01*
D12*
X111317911Y-32850000D02*
X59817911Y-32850000D01*
X59817911Y-32850000D02*
X59817911Y-61150000D01*
X59817911Y-61150000D02*
X111317911Y-61150000D01*
X111317911Y-61150000D02*
X111317911Y-32850000D01*
D11*
X63057911Y-43010000D02*
X58803732Y-43010000D01*
X58803732Y-43010000D02*
X58803732Y-50630000D01*
X58803732Y-50630000D02*
X63057911Y-50630000D01*
X63057911Y-50630000D02*
X63057911Y-43010000D01*
%TD*%
M02*
