%TF.GenerationSoftware,KiCad,Pcbnew,7.0.1*%
%TF.CreationDate,2025-01-23T23:54:12-05:00*%
%TF.ProjectId,ESP32_Dock,45535033-325f-4446-9f63-6b2e6b696361,rev?*%
%TF.SameCoordinates,Original*%
%TF.FileFunction,Copper,L2,Bot*%
%TF.FilePolarity,Positive*%
%FSLAX46Y46*%
G04 Gerber Fmt 4.6, Leading zero omitted, Abs format (unit mm)*
G04 Created by KiCad (PCBNEW 7.0.1) date 2025-01-23 23:54:12*
%MOMM*%
%LPD*%
G01*
G04 APERTURE LIST*
%TA.AperFunction,ComponentPad*%
%ADD10R,1.700000X1.700000*%
%TD*%
%TA.AperFunction,ComponentPad*%
%ADD11O,1.700000X1.700000*%
%TD*%
%TA.AperFunction,ComponentPad*%
%ADD12C,1.600000*%
%TD*%
%TA.AperFunction,ViaPad*%
%ADD13C,0.800000*%
%TD*%
%TA.AperFunction,Conductor*%
%ADD14C,0.250000*%
%TD*%
G04 APERTURE END LIST*
D10*
%TO.P,J5,1,Pin_1*%
%TO.N,/EN*%
X103320000Y-56500000D03*
D11*
%TO.P,J5,2,Pin_2*%
%TO.N,/GPIO36*%
X100780000Y-56500000D03*
%TO.P,J5,3,Pin_3*%
%TO.N,/GPIO39*%
X98240000Y-56500000D03*
%TO.P,J5,4,Pin_4*%
%TO.N,/GPIO34*%
X95700000Y-56500000D03*
%TO.P,J5,5,Pin_5*%
%TO.N,/GPIO35*%
X93160000Y-56500000D03*
%TO.P,J5,6,Pin_6*%
%TO.N,/GPIO32*%
X90620000Y-56500000D03*
%TO.P,J5,7,Pin_7*%
%TO.N,/GPIO33*%
X88080000Y-56500000D03*
%TO.P,J5,8,Pin_8*%
%TO.N,/GPIO25*%
X85540000Y-56500000D03*
%TO.P,J5,9,Pin_9*%
%TO.N,/GPIO26*%
X83000000Y-56500000D03*
%TO.P,J5,10,Pin_10*%
%TO.N,/GPIO27*%
X80460000Y-56500000D03*
%TO.P,J5,11,Pin_11*%
%TO.N,/GPIO14*%
X77920000Y-56500000D03*
%TO.P,J5,12,Pin_12*%
%TO.N,/GPIO12*%
X75380000Y-56500000D03*
%TO.P,J5,13,Pin_13*%
%TO.N,/GPIO13*%
X72840000Y-56500000D03*
%TD*%
D10*
%TO.P,J3,1,Pin_1*%
%TO.N,/VIN*%
X101750000Y-42950000D03*
D11*
%TO.P,J3,2,Pin_2*%
%TO.N,/GND*%
X101750000Y-45490000D03*
%TO.P,J3,3,Pin_3*%
%TO.N,/TX1*%
X101750000Y-48030000D03*
%TO.P,J3,4,Pin_4*%
%TO.N,/RX1*%
X101750000Y-50570000D03*
%TD*%
D10*
%TO.P,J4,1,Pin_1*%
%TO.N,/GPIO23*%
X88125000Y-37500000D03*
D11*
%TO.P,J4,2,Pin_2*%
%TO.N,/GPIO19*%
X85585000Y-37500000D03*
%TO.P,J4,3,Pin_3*%
%TO.N,/GPIO18*%
X83045000Y-37500000D03*
%TO.P,J4,4,Pin_4*%
%TO.N,/GPIO5*%
X80505000Y-37500000D03*
%TO.P,J4,5,Pin_5*%
%TO.N,/GPIO4*%
X77965000Y-37500000D03*
%TO.P,J4,6,Pin_6*%
%TO.N,/GPIO2*%
X75425000Y-37500000D03*
%TO.P,J4,7,Pin_7*%
%TO.N,/GPIO15*%
X72885000Y-37500000D03*
%TD*%
D10*
%TO.P,J2,1,Pin_1*%
%TO.N,/VIN*%
X68900000Y-42900000D03*
D11*
%TO.P,J2,2,Pin_2*%
%TO.N,/GND*%
X68900000Y-45440000D03*
%TO.P,J2,3,Pin_3*%
%TO.N,/RX0*%
X68900000Y-47980000D03*
%TO.P,J2,4,Pin_4*%
%TO.N,/TX0*%
X68900000Y-50520000D03*
%TD*%
D12*
%TO.P,C1,1*%
%TO.N,/VCC*%
X75000000Y-46750000D03*
%TO.P,C1,2*%
%TO.N,/GND*%
X77000000Y-46750000D03*
%TD*%
D10*
%TO.P,J1,1,Pin_1*%
%TO.N,/VCC*%
X96000000Y-42950000D03*
D11*
%TO.P,J1,2,Pin_2*%
%TO.N,/GND*%
X96000000Y-45490000D03*
%TO.P,J1,3,Pin_3*%
%TO.N,/SDA*%
X96000000Y-48030000D03*
%TO.P,J1,4,Pin_4*%
%TO.N,/SCL*%
X96000000Y-50570000D03*
%TD*%
%TO.P,U1,1,EN*%
%TO.N,/EN*%
X103458098Y-59747540D03*
%TO.P,U1,2,GPIO36*%
%TO.N,/GPIO36*%
X100918098Y-59747540D03*
%TO.P,U1,3,GPIO39*%
%TO.N,/GPIO39*%
X98378098Y-59747540D03*
%TO.P,U1,4,GPIO34*%
%TO.N,/GPIO34*%
X95838098Y-59747540D03*
%TO.P,U1,5,GPIO35*%
%TO.N,/GPIO35*%
X93298098Y-59747540D03*
%TO.P,U1,6,GPIO32*%
%TO.N,/GPIO32*%
X90758098Y-59747540D03*
%TO.P,U1,7,GPIO33*%
%TO.N,/GPIO33*%
X88218098Y-59747540D03*
%TO.P,U1,8,GPIO25*%
%TO.N,/GPIO25*%
X85678098Y-59747540D03*
%TO.P,U1,9,GPIO26*%
%TO.N,/GPIO26*%
X83138098Y-59747540D03*
%TO.P,U1,10,GPIO27*%
%TO.N,/GPIO27*%
X80598098Y-59747540D03*
%TO.P,U1,11,GPIO14*%
%TO.N,/GPIO14*%
X78058098Y-59747540D03*
%TO.P,U1,12,GPIO12*%
%TO.N,/GPIO12*%
X75518098Y-59747540D03*
%TO.P,U1,13,GPIO13*%
%TO.N,/GPIO13*%
X72978098Y-59747540D03*
%TO.P,U1,14,GND*%
%TO.N,/GND*%
X70438098Y-59747540D03*
%TO.P,U1,15,VIN*%
%TO.N,/VIN*%
X67898098Y-59747540D03*
%TO.P,U1,16,3.3v*%
%TO.N,/VCC*%
X67898098Y-34347540D03*
%TO.P,U1,17,GND*%
%TO.N,/GND*%
X70438098Y-34347540D03*
%TO.P,U1,18,GPIO15*%
%TO.N,/GPIO15*%
X72978098Y-34347540D03*
%TO.P,U1,19,GPIO2*%
%TO.N,/GPIO2*%
X75518098Y-34347540D03*
%TO.P,U1,20,GPIO4*%
%TO.N,/GPIO4*%
X78058098Y-34347540D03*
%TO.P,U1,21,GPIO16*%
%TO.N,/RX1*%
X80598098Y-34347540D03*
%TO.P,U1,22,GPIO17*%
%TO.N,/TX1*%
X83138098Y-34347540D03*
%TO.P,U1,23,GPIO5*%
%TO.N,/GPIO5*%
X85678098Y-34347540D03*
%TO.P,U1,24,GPIO18*%
%TO.N,/GPIO18*%
X88218098Y-34347540D03*
%TO.P,U1,25,GPIO19*%
%TO.N,/GPIO19*%
X90758098Y-34347540D03*
%TO.P,U1,26,GPIO21*%
%TO.N,/SDA*%
X93298098Y-34347540D03*
%TO.P,U1,27,GPIO3*%
%TO.N,/RX0*%
X95838098Y-34347540D03*
%TO.P,U1,28,GPIO1*%
%TO.N,/TX0*%
X98378098Y-34347540D03*
%TO.P,U1,29,GPIO22*%
%TO.N,/SCL*%
X100918098Y-34347540D03*
%TO.P,U1,30,GPIO23*%
%TO.N,/GPIO23*%
X103458098Y-34347540D03*
%TD*%
D13*
%TO.N,/VIN*%
X73250000Y-47250000D03*
X99750000Y-44250000D03*
%TD*%
D14*
%TO.N,/VCC*%
X67898098Y-34347540D02*
X72300558Y-38750000D01*
X72300558Y-38750000D02*
X72300558Y-44050558D01*
X72300558Y-44050558D02*
X75000000Y-46750000D01*
%TO.N,/SDA*%
X93298098Y-45328098D02*
X96000000Y-48030000D01*
X93298098Y-34347540D02*
X93298098Y-45328098D01*
%TO.N,/VIN*%
X68900000Y-42900000D02*
X73250000Y-47250000D01*
X100450000Y-44250000D02*
X101750000Y-42950000D01*
X99750000Y-44250000D02*
X100450000Y-44250000D01*
%TO.N,/TX1*%
X100575000Y-49205000D02*
X95513299Y-49205000D01*
X101750000Y-48030000D02*
X100575000Y-49205000D01*
X84250000Y-35459442D02*
X83138098Y-34347540D01*
X84250000Y-37941701D02*
X84250000Y-35459442D01*
X95513299Y-49205000D02*
X84250000Y-37941701D01*
%TO.N,/RX1*%
X100575000Y-51745000D02*
X95513299Y-51745000D01*
X81680000Y-37911701D02*
X81680000Y-35429442D01*
X81680000Y-35429442D02*
X80598098Y-34347540D01*
X95513299Y-51745000D02*
X81680000Y-37911701D01*
X101750000Y-50570000D02*
X100575000Y-51745000D01*
%TD*%
%TA.AperFunction,Conductor*%
%TO.N,/GND*%
G36*
X111937500Y-32267113D02*
G01*
X111982887Y-32312500D01*
X111999500Y-32374500D01*
X111999500Y-61625500D01*
X111982887Y-61687500D01*
X111937500Y-61732887D01*
X111875500Y-61749500D01*
X59374500Y-61749500D01*
X59312500Y-61732887D01*
X59267113Y-61687500D01*
X59250500Y-61625500D01*
X59250500Y-58389999D01*
X61272267Y-58389999D01*
X61292802Y-58637816D01*
X61292802Y-58637819D01*
X61292803Y-58637821D01*
X61353848Y-58878881D01*
X61398871Y-58981523D01*
X61453736Y-59106604D01*
X61453738Y-59106607D01*
X61589747Y-59314785D01*
X61758167Y-59497738D01*
X61823578Y-59548649D01*
X61954396Y-59650470D01*
X61954398Y-59650471D01*
X61954402Y-59650474D01*
X62173101Y-59768828D01*
X62408297Y-59849571D01*
X62653576Y-59890500D01*
X62902246Y-59890500D01*
X63147525Y-59849571D01*
X63382721Y-59768828D01*
X63422060Y-59747539D01*
X66542438Y-59747539D01*
X66563034Y-59982947D01*
X66592455Y-60092746D01*
X66624195Y-60211203D01*
X66724063Y-60425370D01*
X66859603Y-60618941D01*
X67026697Y-60786035D01*
X67220268Y-60921575D01*
X67434435Y-61021443D01*
X67662690Y-61082603D01*
X67898098Y-61103199D01*
X68133506Y-61082603D01*
X68361761Y-61021443D01*
X68575928Y-60921575D01*
X68769499Y-60786035D01*
X68936593Y-60618941D01*
X69072133Y-60425370D01*
X69172001Y-60211203D01*
X69181037Y-60177476D01*
X69209690Y-60125469D01*
X69259239Y-60092746D01*
X69318321Y-60086811D01*
X69373388Y-60109027D01*
X69411812Y-60154297D01*
X69498851Y-60329095D01*
X69621705Y-60491781D01*
X69772357Y-60629118D01*
X69945686Y-60736439D01*
X70135777Y-60810079D01*
X70188098Y-60819860D01*
X70688098Y-60819860D01*
X70740418Y-60810079D01*
X70930509Y-60736439D01*
X71103838Y-60629118D01*
X71254490Y-60491781D01*
X71377345Y-60329093D01*
X71464383Y-60154298D01*
X71502807Y-60109027D01*
X71557873Y-60086811D01*
X71616955Y-60092745D01*
X71666504Y-60125468D01*
X71695158Y-60177475D01*
X71704195Y-60211204D01*
X71758017Y-60326624D01*
X71804063Y-60425370D01*
X71939603Y-60618941D01*
X72106697Y-60786035D01*
X72300268Y-60921575D01*
X72514435Y-61021443D01*
X72742690Y-61082603D01*
X72978098Y-61103199D01*
X73213506Y-61082603D01*
X73441761Y-61021443D01*
X73655928Y-60921575D01*
X73849499Y-60786035D01*
X74016593Y-60618941D01*
X74146524Y-60433379D01*
X74190841Y-60394515D01*
X74248098Y-60380504D01*
X74305355Y-60394515D01*
X74349671Y-60433379D01*
X74479603Y-60618941D01*
X74646697Y-60786035D01*
X74840268Y-60921575D01*
X75054435Y-61021443D01*
X75282690Y-61082603D01*
X75518098Y-61103199D01*
X75753506Y-61082603D01*
X75981761Y-61021443D01*
X76195928Y-60921575D01*
X76389499Y-60786035D01*
X76556593Y-60618941D01*
X76686524Y-60433379D01*
X76730841Y-60394515D01*
X76788098Y-60380504D01*
X76845355Y-60394515D01*
X76889671Y-60433379D01*
X77019603Y-60618941D01*
X77186697Y-60786035D01*
X77380268Y-60921575D01*
X77594435Y-61021443D01*
X77822690Y-61082603D01*
X78058098Y-61103199D01*
X78293506Y-61082603D01*
X78521761Y-61021443D01*
X78735928Y-60921575D01*
X78929499Y-60786035D01*
X79096593Y-60618941D01*
X79226524Y-60433379D01*
X79270841Y-60394515D01*
X79328098Y-60380504D01*
X79385355Y-60394515D01*
X79429671Y-60433379D01*
X79559603Y-60618941D01*
X79726697Y-60786035D01*
X79920268Y-60921575D01*
X80134435Y-61021443D01*
X80362690Y-61082603D01*
X80598098Y-61103199D01*
X80833506Y-61082603D01*
X81061761Y-61021443D01*
X81275928Y-60921575D01*
X81469499Y-60786035D01*
X81636593Y-60618941D01*
X81766524Y-60433379D01*
X81810841Y-60394515D01*
X81868098Y-60380504D01*
X81925355Y-60394515D01*
X81969671Y-60433379D01*
X82099603Y-60618941D01*
X82266697Y-60786035D01*
X82460268Y-60921575D01*
X82674435Y-61021443D01*
X82902690Y-61082603D01*
X83138098Y-61103199D01*
X83373506Y-61082603D01*
X83601761Y-61021443D01*
X83815928Y-60921575D01*
X84009499Y-60786035D01*
X84176593Y-60618941D01*
X84306524Y-60433379D01*
X84350841Y-60394515D01*
X84408098Y-60380504D01*
X84465355Y-60394515D01*
X84509671Y-60433379D01*
X84639603Y-60618941D01*
X84806697Y-60786035D01*
X85000268Y-60921575D01*
X85214435Y-61021443D01*
X85442690Y-61082603D01*
X85678098Y-61103199D01*
X85913506Y-61082603D01*
X86141761Y-61021443D01*
X86355928Y-60921575D01*
X86549499Y-60786035D01*
X86716593Y-60618941D01*
X86846524Y-60433379D01*
X86890841Y-60394515D01*
X86948098Y-60380504D01*
X87005355Y-60394515D01*
X87049671Y-60433379D01*
X87179603Y-60618941D01*
X87346697Y-60786035D01*
X87540268Y-60921575D01*
X87754435Y-61021443D01*
X87982690Y-61082603D01*
X88218098Y-61103199D01*
X88453506Y-61082603D01*
X88681761Y-61021443D01*
X88895928Y-60921575D01*
X89089499Y-60786035D01*
X89256593Y-60618941D01*
X89386524Y-60433379D01*
X89430841Y-60394515D01*
X89488098Y-60380504D01*
X89545355Y-60394515D01*
X89589671Y-60433379D01*
X89719603Y-60618941D01*
X89886697Y-60786035D01*
X90080268Y-60921575D01*
X90294435Y-61021443D01*
X90522690Y-61082603D01*
X90758098Y-61103199D01*
X90993506Y-61082603D01*
X91221761Y-61021443D01*
X91435928Y-60921575D01*
X91629499Y-60786035D01*
X91796593Y-60618941D01*
X91926524Y-60433379D01*
X91970841Y-60394515D01*
X92028098Y-60380504D01*
X92085355Y-60394515D01*
X92129671Y-60433379D01*
X92259603Y-60618941D01*
X92426697Y-60786035D01*
X92620268Y-60921575D01*
X92834435Y-61021443D01*
X93062690Y-61082603D01*
X93298098Y-61103199D01*
X93533506Y-61082603D01*
X93761761Y-61021443D01*
X93975928Y-60921575D01*
X94169499Y-60786035D01*
X94336593Y-60618941D01*
X94466524Y-60433379D01*
X94510841Y-60394515D01*
X94568098Y-60380504D01*
X94625355Y-60394515D01*
X94669671Y-60433379D01*
X94799603Y-60618941D01*
X94966697Y-60786035D01*
X95160268Y-60921575D01*
X95374435Y-61021443D01*
X95602690Y-61082603D01*
X95838098Y-61103199D01*
X96073506Y-61082603D01*
X96301761Y-61021443D01*
X96515928Y-60921575D01*
X96709499Y-60786035D01*
X96876593Y-60618941D01*
X97006524Y-60433379D01*
X97050841Y-60394515D01*
X97108098Y-60380504D01*
X97165355Y-60394515D01*
X97209671Y-60433379D01*
X97339603Y-60618941D01*
X97506697Y-60786035D01*
X97700268Y-60921575D01*
X97914435Y-61021443D01*
X98142690Y-61082603D01*
X98378098Y-61103199D01*
X98613506Y-61082603D01*
X98841761Y-61021443D01*
X99055928Y-60921575D01*
X99249499Y-60786035D01*
X99416593Y-60618941D01*
X99546524Y-60433379D01*
X99590841Y-60394515D01*
X99648098Y-60380504D01*
X99705355Y-60394515D01*
X99749671Y-60433379D01*
X99879603Y-60618941D01*
X100046697Y-60786035D01*
X100240268Y-60921575D01*
X100454435Y-61021443D01*
X100682690Y-61082603D01*
X100918098Y-61103199D01*
X101153506Y-61082603D01*
X101381761Y-61021443D01*
X101595928Y-60921575D01*
X101789499Y-60786035D01*
X101956593Y-60618941D01*
X102086524Y-60433379D01*
X102130841Y-60394515D01*
X102188098Y-60380504D01*
X102245355Y-60394515D01*
X102289671Y-60433379D01*
X102419603Y-60618941D01*
X102586697Y-60786035D01*
X102780268Y-60921575D01*
X102994435Y-61021443D01*
X103222690Y-61082603D01*
X103458098Y-61103199D01*
X103693506Y-61082603D01*
X103921761Y-61021443D01*
X104135928Y-60921575D01*
X104329499Y-60786035D01*
X104496593Y-60618941D01*
X104632133Y-60425370D01*
X104732001Y-60211203D01*
X104793161Y-59982948D01*
X104813757Y-59747540D01*
X104793161Y-59512132D01*
X104732001Y-59283877D01*
X104632133Y-59069711D01*
X104496593Y-58876139D01*
X104329499Y-58709045D01*
X104135928Y-58573505D01*
X103921761Y-58473637D01*
X103860599Y-58457249D01*
X103693505Y-58412476D01*
X103458098Y-58391880D01*
X103222690Y-58412476D01*
X102994434Y-58473637D01*
X102780268Y-58573505D01*
X102586696Y-58709045D01*
X102419603Y-58876138D01*
X102289673Y-59061699D01*
X102245355Y-59100565D01*
X102188098Y-59114576D01*
X102130841Y-59100565D01*
X102086523Y-59061699D01*
X102045630Y-59003298D01*
X101956593Y-58876139D01*
X101789499Y-58709045D01*
X101595928Y-58573505D01*
X101381761Y-58473637D01*
X101320599Y-58457249D01*
X101153505Y-58412476D01*
X100918098Y-58391880D01*
X100682690Y-58412476D01*
X100454434Y-58473637D01*
X100240268Y-58573505D01*
X100046696Y-58709045D01*
X99879603Y-58876138D01*
X99749673Y-59061699D01*
X99705355Y-59100565D01*
X99648098Y-59114576D01*
X99590841Y-59100565D01*
X99546523Y-59061699D01*
X99505630Y-59003298D01*
X99416593Y-58876139D01*
X99249499Y-58709045D01*
X99055928Y-58573505D01*
X98841761Y-58473637D01*
X98780599Y-58457249D01*
X98613505Y-58412476D01*
X98378098Y-58391880D01*
X98142690Y-58412476D01*
X97914434Y-58473637D01*
X97700268Y-58573505D01*
X97506696Y-58709045D01*
X97339603Y-58876138D01*
X97209673Y-59061699D01*
X97165355Y-59100565D01*
X97108098Y-59114576D01*
X97050841Y-59100565D01*
X97006523Y-59061699D01*
X96965630Y-59003298D01*
X96876593Y-58876139D01*
X96709499Y-58709045D01*
X96515928Y-58573505D01*
X96301761Y-58473637D01*
X96240599Y-58457249D01*
X96073505Y-58412476D01*
X95838098Y-58391880D01*
X95602690Y-58412476D01*
X95374434Y-58473637D01*
X95160268Y-58573505D01*
X94966696Y-58709045D01*
X94799603Y-58876138D01*
X94669673Y-59061699D01*
X94625355Y-59100565D01*
X94568098Y-59114576D01*
X94510841Y-59100565D01*
X94466523Y-59061699D01*
X94425630Y-59003298D01*
X94336593Y-58876139D01*
X94169499Y-58709045D01*
X93975928Y-58573505D01*
X93761761Y-58473637D01*
X93700599Y-58457249D01*
X93533505Y-58412476D01*
X93298098Y-58391880D01*
X93062690Y-58412476D01*
X92834434Y-58473637D01*
X92620268Y-58573505D01*
X92426696Y-58709045D01*
X92259603Y-58876138D01*
X92129673Y-59061699D01*
X92085355Y-59100565D01*
X92028098Y-59114576D01*
X91970841Y-59100565D01*
X91926523Y-59061699D01*
X91885630Y-59003298D01*
X91796593Y-58876139D01*
X91629499Y-58709045D01*
X91435928Y-58573505D01*
X91221761Y-58473637D01*
X91160599Y-58457249D01*
X90993505Y-58412476D01*
X90758098Y-58391880D01*
X90522690Y-58412476D01*
X90294434Y-58473637D01*
X90080268Y-58573505D01*
X89886696Y-58709045D01*
X89719603Y-58876138D01*
X89589673Y-59061699D01*
X89545355Y-59100565D01*
X89488098Y-59114576D01*
X89430841Y-59100565D01*
X89386523Y-59061699D01*
X89345630Y-59003298D01*
X89256593Y-58876139D01*
X89089499Y-58709045D01*
X88895928Y-58573505D01*
X88681761Y-58473637D01*
X88620599Y-58457249D01*
X88453505Y-58412476D01*
X88218098Y-58391880D01*
X87982690Y-58412476D01*
X87754434Y-58473637D01*
X87540268Y-58573505D01*
X87346696Y-58709045D01*
X87179603Y-58876138D01*
X87049673Y-59061699D01*
X87005355Y-59100565D01*
X86948098Y-59114576D01*
X86890841Y-59100565D01*
X86846523Y-59061699D01*
X86805630Y-59003298D01*
X86716593Y-58876139D01*
X86549499Y-58709045D01*
X86355928Y-58573505D01*
X86141761Y-58473637D01*
X86080599Y-58457249D01*
X85913505Y-58412476D01*
X85678098Y-58391880D01*
X85442690Y-58412476D01*
X85214434Y-58473637D01*
X85000268Y-58573505D01*
X84806696Y-58709045D01*
X84639603Y-58876138D01*
X84509673Y-59061699D01*
X84465355Y-59100565D01*
X84408098Y-59114576D01*
X84350841Y-59100565D01*
X84306523Y-59061699D01*
X84265630Y-59003298D01*
X84176593Y-58876139D01*
X84009499Y-58709045D01*
X83815928Y-58573505D01*
X83601761Y-58473637D01*
X83540599Y-58457249D01*
X83373505Y-58412476D01*
X83138098Y-58391880D01*
X82902690Y-58412476D01*
X82674434Y-58473637D01*
X82460268Y-58573505D01*
X82266696Y-58709045D01*
X82099603Y-58876138D01*
X81969673Y-59061699D01*
X81925355Y-59100565D01*
X81868098Y-59114576D01*
X81810841Y-59100565D01*
X81766523Y-59061699D01*
X81725630Y-59003298D01*
X81636593Y-58876139D01*
X81469499Y-58709045D01*
X81275928Y-58573505D01*
X81061761Y-58473637D01*
X81000599Y-58457249D01*
X80833505Y-58412476D01*
X80598098Y-58391880D01*
X80362690Y-58412476D01*
X80134434Y-58473637D01*
X79920268Y-58573505D01*
X79726696Y-58709045D01*
X79559603Y-58876138D01*
X79429673Y-59061699D01*
X79385355Y-59100565D01*
X79328098Y-59114576D01*
X79270841Y-59100565D01*
X79226523Y-59061699D01*
X79185630Y-59003298D01*
X79096593Y-58876139D01*
X78929499Y-58709045D01*
X78735928Y-58573505D01*
X78521761Y-58473637D01*
X78460599Y-58457249D01*
X78293505Y-58412476D01*
X78058098Y-58391880D01*
X77822690Y-58412476D01*
X77594434Y-58473637D01*
X77380268Y-58573505D01*
X77186696Y-58709045D01*
X77019603Y-58876138D01*
X76889673Y-59061699D01*
X76845355Y-59100565D01*
X76788098Y-59114576D01*
X76730841Y-59100565D01*
X76686523Y-59061699D01*
X76645630Y-59003298D01*
X76556593Y-58876139D01*
X76389499Y-58709045D01*
X76195928Y-58573505D01*
X75981761Y-58473637D01*
X75920599Y-58457249D01*
X75753505Y-58412476D01*
X75518098Y-58391880D01*
X75282690Y-58412476D01*
X75054434Y-58473637D01*
X74840268Y-58573505D01*
X74646696Y-58709045D01*
X74479603Y-58876138D01*
X74349673Y-59061699D01*
X74305355Y-59100565D01*
X74248098Y-59114576D01*
X74190841Y-59100565D01*
X74146523Y-59061699D01*
X74105630Y-59003298D01*
X74016593Y-58876139D01*
X73849499Y-58709045D01*
X73655928Y-58573505D01*
X73441761Y-58473637D01*
X73380599Y-58457249D01*
X73213505Y-58412476D01*
X72978098Y-58391880D01*
X72742690Y-58412476D01*
X72514434Y-58473637D01*
X72300268Y-58573505D01*
X72106696Y-58709045D01*
X71939603Y-58876138D01*
X71804063Y-59069710D01*
X71704195Y-59283875D01*
X71695158Y-59317604D01*
X71666504Y-59369611D01*
X71616955Y-59402334D01*
X71557873Y-59408268D01*
X71502807Y-59386052D01*
X71464383Y-59340781D01*
X71377346Y-59165986D01*
X71254490Y-59003298D01*
X71103838Y-58865961D01*
X70930509Y-58758640D01*
X70740418Y-58685000D01*
X70688098Y-58675220D01*
X70688098Y-60819860D01*
X70188098Y-60819860D01*
X70188098Y-58675220D01*
X70135777Y-58685000D01*
X69945686Y-58758640D01*
X69772357Y-58865961D01*
X69621705Y-59003298D01*
X69498851Y-59165984D01*
X69411812Y-59340782D01*
X69373387Y-59386053D01*
X69318320Y-59408268D01*
X69259238Y-59402333D01*
X69209690Y-59369610D01*
X69181037Y-59317601D01*
X69172001Y-59283877D01*
X69072133Y-59069711D01*
X68936593Y-58876139D01*
X68769499Y-58709045D01*
X68575928Y-58573505D01*
X68361761Y-58473637D01*
X68300599Y-58457249D01*
X68133505Y-58412476D01*
X67898098Y-58391880D01*
X67662690Y-58412476D01*
X67434434Y-58473637D01*
X67220268Y-58573505D01*
X67026696Y-58709045D01*
X66859603Y-58876138D01*
X66724063Y-59069710D01*
X66624195Y-59283876D01*
X66563034Y-59512132D01*
X66542438Y-59747539D01*
X63422060Y-59747539D01*
X63601420Y-59650474D01*
X63797655Y-59497738D01*
X63966075Y-59314785D01*
X64102084Y-59106607D01*
X64201974Y-58878881D01*
X64263019Y-58637821D01*
X64283554Y-58390000D01*
X107272267Y-58390000D01*
X107292802Y-58637816D01*
X107292802Y-58637819D01*
X107292803Y-58637821D01*
X107353848Y-58878881D01*
X107398871Y-58981523D01*
X107453736Y-59106604D01*
X107453738Y-59106607D01*
X107589747Y-59314785D01*
X107758167Y-59497738D01*
X107823578Y-59548649D01*
X107954396Y-59650470D01*
X107954398Y-59650471D01*
X107954402Y-59650474D01*
X108173101Y-59768828D01*
X108408297Y-59849571D01*
X108653576Y-59890500D01*
X108902246Y-59890500D01*
X109147525Y-59849571D01*
X109382721Y-59768828D01*
X109601420Y-59650474D01*
X109797655Y-59497738D01*
X109966075Y-59314785D01*
X110102084Y-59106607D01*
X110201974Y-58878881D01*
X110263019Y-58637821D01*
X110283554Y-58390000D01*
X110263019Y-58142179D01*
X110201974Y-57901119D01*
X110102084Y-57673393D01*
X109966075Y-57465215D01*
X109797655Y-57282262D01*
X109775523Y-57265036D01*
X109601425Y-57129529D01*
X109601421Y-57129526D01*
X109601420Y-57129526D01*
X109382721Y-57011172D01*
X109382717Y-57011170D01*
X109382716Y-57011170D01*
X109147526Y-56930429D01*
X108902246Y-56889500D01*
X108653576Y-56889500D01*
X108408295Y-56930429D01*
X108173105Y-57011170D01*
X107954396Y-57129529D01*
X107758170Y-57282259D01*
X107589748Y-57465214D01*
X107453736Y-57673395D01*
X107373789Y-57855659D01*
X107353848Y-57901119D01*
X107292803Y-58142179D01*
X107292802Y-58142183D01*
X107272267Y-58390000D01*
X64283554Y-58390000D01*
X64263019Y-58142179D01*
X64201974Y-57901119D01*
X64102084Y-57673393D01*
X63966075Y-57465215D01*
X63797655Y-57282262D01*
X63775523Y-57265036D01*
X63601425Y-57129529D01*
X63601421Y-57129526D01*
X63601420Y-57129526D01*
X63382721Y-57011172D01*
X63382717Y-57011170D01*
X63382716Y-57011170D01*
X63147526Y-56930429D01*
X62902246Y-56889500D01*
X62653576Y-56889500D01*
X62408295Y-56930429D01*
X62173105Y-57011170D01*
X61954396Y-57129529D01*
X61758170Y-57282259D01*
X61589748Y-57465214D01*
X61453736Y-57673395D01*
X61373789Y-57855659D01*
X61353848Y-57901119D01*
X61292803Y-58142179D01*
X61292802Y-58142183D01*
X61272267Y-58389999D01*
X59250500Y-58389999D01*
X59250500Y-56500000D01*
X71484340Y-56500000D01*
X71504936Y-56735407D01*
X71546225Y-56889500D01*
X71566097Y-56963663D01*
X71665965Y-57177830D01*
X71801505Y-57371401D01*
X71968599Y-57538495D01*
X72162170Y-57674035D01*
X72376337Y-57773903D01*
X72604592Y-57835063D01*
X72840000Y-57855659D01*
X73075408Y-57835063D01*
X73303663Y-57773903D01*
X73517830Y-57674035D01*
X73711401Y-57538495D01*
X73878495Y-57371401D01*
X74008426Y-57185839D01*
X74052743Y-57146975D01*
X74110000Y-57132964D01*
X74167257Y-57146975D01*
X74211573Y-57185839D01*
X74341505Y-57371401D01*
X74508599Y-57538495D01*
X74702170Y-57674035D01*
X74916337Y-57773903D01*
X75144592Y-57835063D01*
X75380000Y-57855659D01*
X75615408Y-57835063D01*
X75843663Y-57773903D01*
X76057830Y-57674035D01*
X76251401Y-57538495D01*
X76418495Y-57371401D01*
X76548426Y-57185839D01*
X76592743Y-57146975D01*
X76650000Y-57132964D01*
X76707257Y-57146975D01*
X76751573Y-57185839D01*
X76881505Y-57371401D01*
X77048599Y-57538495D01*
X77242170Y-57674035D01*
X77456337Y-57773903D01*
X77684592Y-57835063D01*
X77920000Y-57855659D01*
X78155408Y-57835063D01*
X78383663Y-57773903D01*
X78597830Y-57674035D01*
X78791401Y-57538495D01*
X78958495Y-57371401D01*
X79088426Y-57185839D01*
X79132743Y-57146975D01*
X79190000Y-57132964D01*
X79247257Y-57146975D01*
X79291573Y-57185839D01*
X79421505Y-57371401D01*
X79588599Y-57538495D01*
X79782170Y-57674035D01*
X79996337Y-57773903D01*
X80224592Y-57835063D01*
X80460000Y-57855659D01*
X80695408Y-57835063D01*
X80923663Y-57773903D01*
X81137830Y-57674035D01*
X81331401Y-57538495D01*
X81498495Y-57371401D01*
X81628426Y-57185839D01*
X81672743Y-57146975D01*
X81730000Y-57132964D01*
X81787257Y-57146975D01*
X81831573Y-57185839D01*
X81961505Y-57371401D01*
X82128599Y-57538495D01*
X82322170Y-57674035D01*
X82536337Y-57773903D01*
X82764592Y-57835063D01*
X83000000Y-57855659D01*
X83235408Y-57835063D01*
X83463663Y-57773903D01*
X83677830Y-57674035D01*
X83871401Y-57538495D01*
X84038495Y-57371401D01*
X84168426Y-57185839D01*
X84212743Y-57146975D01*
X84270000Y-57132964D01*
X84327257Y-57146975D01*
X84371573Y-57185839D01*
X84501505Y-57371401D01*
X84668599Y-57538495D01*
X84862170Y-57674035D01*
X85076337Y-57773903D01*
X85304592Y-57835063D01*
X85540000Y-57855659D01*
X85775408Y-57835063D01*
X86003663Y-57773903D01*
X86217830Y-57674035D01*
X86411401Y-57538495D01*
X86578495Y-57371401D01*
X86708426Y-57185839D01*
X86752743Y-57146975D01*
X86810000Y-57132964D01*
X86867257Y-57146975D01*
X86911573Y-57185839D01*
X87041505Y-57371401D01*
X87208599Y-57538495D01*
X87402170Y-57674035D01*
X87616337Y-57773903D01*
X87844592Y-57835063D01*
X88080000Y-57855659D01*
X88315408Y-57835063D01*
X88543663Y-57773903D01*
X88757830Y-57674035D01*
X88951401Y-57538495D01*
X89118495Y-57371401D01*
X89248426Y-57185839D01*
X89292743Y-57146975D01*
X89350000Y-57132964D01*
X89407257Y-57146975D01*
X89451573Y-57185839D01*
X89581505Y-57371401D01*
X89748599Y-57538495D01*
X89942170Y-57674035D01*
X90156337Y-57773903D01*
X90384592Y-57835063D01*
X90620000Y-57855659D01*
X90855408Y-57835063D01*
X91083663Y-57773903D01*
X91297830Y-57674035D01*
X91491401Y-57538495D01*
X91658495Y-57371401D01*
X91788426Y-57185839D01*
X91832743Y-57146975D01*
X91890000Y-57132964D01*
X91947257Y-57146975D01*
X91991573Y-57185839D01*
X92121505Y-57371401D01*
X92288599Y-57538495D01*
X92482170Y-57674035D01*
X92696337Y-57773903D01*
X92924592Y-57835063D01*
X93160000Y-57855659D01*
X93395408Y-57835063D01*
X93623663Y-57773903D01*
X93837830Y-57674035D01*
X94031401Y-57538495D01*
X94198495Y-57371401D01*
X94328426Y-57185839D01*
X94372743Y-57146975D01*
X94430000Y-57132964D01*
X94487257Y-57146975D01*
X94531573Y-57185839D01*
X94661505Y-57371401D01*
X94828599Y-57538495D01*
X95022170Y-57674035D01*
X95236337Y-57773903D01*
X95464592Y-57835063D01*
X95700000Y-57855659D01*
X95935408Y-57835063D01*
X96163663Y-57773903D01*
X96377830Y-57674035D01*
X96571401Y-57538495D01*
X96738495Y-57371401D01*
X96868426Y-57185839D01*
X96912743Y-57146975D01*
X96970000Y-57132964D01*
X97027257Y-57146975D01*
X97071573Y-57185839D01*
X97201505Y-57371401D01*
X97368599Y-57538495D01*
X97562170Y-57674035D01*
X97776337Y-57773903D01*
X98004592Y-57835063D01*
X98240000Y-57855659D01*
X98475408Y-57835063D01*
X98703663Y-57773903D01*
X98917830Y-57674035D01*
X99111401Y-57538495D01*
X99278495Y-57371401D01*
X99408426Y-57185839D01*
X99452743Y-57146975D01*
X99510000Y-57132964D01*
X99567257Y-57146975D01*
X99611573Y-57185839D01*
X99741505Y-57371401D01*
X99908599Y-57538495D01*
X100102170Y-57674035D01*
X100316337Y-57773903D01*
X100544592Y-57835063D01*
X100780000Y-57855659D01*
X101015408Y-57835063D01*
X101243663Y-57773903D01*
X101457830Y-57674035D01*
X101651401Y-57538495D01*
X101773329Y-57416566D01*
X101826072Y-57385273D01*
X101887365Y-57383084D01*
X101942209Y-57410537D01*
X101977189Y-57460916D01*
X101980200Y-57468988D01*
X102026204Y-57592331D01*
X102112454Y-57707546D01*
X102227669Y-57793796D01*
X102362517Y-57844091D01*
X102422127Y-57850500D01*
X104217872Y-57850499D01*
X104277483Y-57844091D01*
X104412331Y-57793796D01*
X104527546Y-57707546D01*
X104613796Y-57592331D01*
X104664091Y-57457483D01*
X104670500Y-57397873D01*
X104670499Y-55602128D01*
X104664091Y-55542517D01*
X104613796Y-55407669D01*
X104527546Y-55292454D01*
X104412331Y-55206204D01*
X104277483Y-55155909D01*
X104217873Y-55149500D01*
X104217869Y-55149500D01*
X102422130Y-55149500D01*
X102362515Y-55155909D01*
X102227669Y-55206204D01*
X102112454Y-55292454D01*
X102026204Y-55407669D01*
X101977189Y-55539083D01*
X101942209Y-55589462D01*
X101887365Y-55616915D01*
X101826072Y-55614726D01*
X101773326Y-55583430D01*
X101651404Y-55461508D01*
X101651404Y-55461507D01*
X101651401Y-55461505D01*
X101457830Y-55325965D01*
X101243663Y-55226097D01*
X101182502Y-55209709D01*
X101015407Y-55164936D01*
X100780000Y-55144340D01*
X100544592Y-55164936D01*
X100316336Y-55226097D01*
X100102170Y-55325965D01*
X99908598Y-55461505D01*
X99741505Y-55628598D01*
X99611575Y-55814159D01*
X99567257Y-55853025D01*
X99510000Y-55867036D01*
X99452743Y-55853025D01*
X99408425Y-55814159D01*
X99278494Y-55628598D01*
X99111404Y-55461508D01*
X99111404Y-55461507D01*
X99111401Y-55461505D01*
X98917830Y-55325965D01*
X98703663Y-55226097D01*
X98642502Y-55209709D01*
X98475407Y-55164936D01*
X98240000Y-55144340D01*
X98004592Y-55164936D01*
X97776336Y-55226097D01*
X97562170Y-55325965D01*
X97368598Y-55461505D01*
X97201505Y-55628598D01*
X97071575Y-55814159D01*
X97027257Y-55853025D01*
X96970000Y-55867036D01*
X96912743Y-55853025D01*
X96868425Y-55814159D01*
X96738494Y-55628598D01*
X96571404Y-55461508D01*
X96571404Y-55461507D01*
X96571401Y-55461505D01*
X96377830Y-55325965D01*
X96163663Y-55226097D01*
X96102502Y-55209709D01*
X95935407Y-55164936D01*
X95700000Y-55144340D01*
X95464592Y-55164936D01*
X95236336Y-55226097D01*
X95022170Y-55325965D01*
X94828598Y-55461505D01*
X94661505Y-55628598D01*
X94531575Y-55814159D01*
X94487257Y-55853025D01*
X94430000Y-55867036D01*
X94372743Y-55853025D01*
X94328425Y-55814159D01*
X94198494Y-55628598D01*
X94031404Y-55461508D01*
X94031404Y-55461507D01*
X94031401Y-55461505D01*
X93837830Y-55325965D01*
X93623663Y-55226097D01*
X93562502Y-55209709D01*
X93395407Y-55164936D01*
X93160000Y-55144340D01*
X92924592Y-55164936D01*
X92696336Y-55226097D01*
X92482170Y-55325965D01*
X92288598Y-55461505D01*
X92121505Y-55628598D01*
X91991575Y-55814159D01*
X91947257Y-55853025D01*
X91890000Y-55867036D01*
X91832743Y-55853025D01*
X91788425Y-55814159D01*
X91658494Y-55628598D01*
X91491404Y-55461508D01*
X91491404Y-55461507D01*
X91491401Y-55461505D01*
X91297830Y-55325965D01*
X91083663Y-55226097D01*
X91022502Y-55209709D01*
X90855407Y-55164936D01*
X90620000Y-55144340D01*
X90384592Y-55164936D01*
X90156336Y-55226097D01*
X89942170Y-55325965D01*
X89748598Y-55461505D01*
X89581505Y-55628598D01*
X89451575Y-55814159D01*
X89407257Y-55853025D01*
X89350000Y-55867036D01*
X89292743Y-55853025D01*
X89248425Y-55814159D01*
X89118494Y-55628598D01*
X88951404Y-55461508D01*
X88951404Y-55461507D01*
X88951401Y-55461505D01*
X88757830Y-55325965D01*
X88543663Y-55226097D01*
X88482502Y-55209709D01*
X88315407Y-55164936D01*
X88080000Y-55144340D01*
X87844592Y-55164936D01*
X87616336Y-55226097D01*
X87402170Y-55325965D01*
X87208598Y-55461505D01*
X87041505Y-55628598D01*
X86911575Y-55814159D01*
X86867257Y-55853025D01*
X86810000Y-55867036D01*
X86752743Y-55853025D01*
X86708425Y-55814159D01*
X86578494Y-55628598D01*
X86411404Y-55461508D01*
X86411404Y-55461507D01*
X86411401Y-55461505D01*
X86217830Y-55325965D01*
X86003663Y-55226097D01*
X85942502Y-55209709D01*
X85775407Y-55164936D01*
X85540000Y-55144340D01*
X85304592Y-55164936D01*
X85076336Y-55226097D01*
X84862170Y-55325965D01*
X84668598Y-55461505D01*
X84501505Y-55628598D01*
X84371575Y-55814159D01*
X84327257Y-55853025D01*
X84270000Y-55867036D01*
X84212743Y-55853025D01*
X84168425Y-55814159D01*
X84038494Y-55628598D01*
X83871404Y-55461508D01*
X83871404Y-55461507D01*
X83871401Y-55461505D01*
X83677830Y-55325965D01*
X83463663Y-55226097D01*
X83402502Y-55209709D01*
X83235407Y-55164936D01*
X83000000Y-55144340D01*
X82764592Y-55164936D01*
X82536336Y-55226097D01*
X82322170Y-55325965D01*
X82128598Y-55461505D01*
X81961505Y-55628598D01*
X81831575Y-55814159D01*
X81787257Y-55853025D01*
X81730000Y-55867036D01*
X81672743Y-55853025D01*
X81628425Y-55814159D01*
X81498494Y-55628598D01*
X81331404Y-55461508D01*
X81331404Y-55461507D01*
X81331401Y-55461505D01*
X81137830Y-55325965D01*
X80923663Y-55226097D01*
X80862502Y-55209709D01*
X80695407Y-55164936D01*
X80460000Y-55144340D01*
X80224592Y-55164936D01*
X79996336Y-55226097D01*
X79782170Y-55325965D01*
X79588598Y-55461505D01*
X79421505Y-55628598D01*
X79291575Y-55814159D01*
X79247257Y-55853025D01*
X79190000Y-55867036D01*
X79132743Y-55853025D01*
X79088425Y-55814159D01*
X78958494Y-55628598D01*
X78791404Y-55461508D01*
X78791404Y-55461507D01*
X78791401Y-55461505D01*
X78597830Y-55325965D01*
X78383663Y-55226097D01*
X78322502Y-55209709D01*
X78155407Y-55164936D01*
X77920000Y-55144340D01*
X77684592Y-55164936D01*
X77456336Y-55226097D01*
X77242170Y-55325965D01*
X77048598Y-55461505D01*
X76881505Y-55628598D01*
X76751575Y-55814159D01*
X76707257Y-55853025D01*
X76650000Y-55867036D01*
X76592743Y-55853025D01*
X76548425Y-55814159D01*
X76418494Y-55628598D01*
X76251404Y-55461508D01*
X76251404Y-55461507D01*
X76251401Y-55461505D01*
X76057830Y-55325965D01*
X75843663Y-55226097D01*
X75782502Y-55209709D01*
X75615407Y-55164936D01*
X75380000Y-55144340D01*
X75144592Y-55164936D01*
X74916336Y-55226097D01*
X74702170Y-55325965D01*
X74508598Y-55461505D01*
X74341505Y-55628598D01*
X74211575Y-55814159D01*
X74167257Y-55853025D01*
X74110000Y-55867036D01*
X74052743Y-55853025D01*
X74008425Y-55814159D01*
X73878494Y-55628598D01*
X73711404Y-55461508D01*
X73711404Y-55461507D01*
X73711401Y-55461505D01*
X73517830Y-55325965D01*
X73303663Y-55226097D01*
X73242502Y-55209709D01*
X73075407Y-55164936D01*
X72840000Y-55144340D01*
X72604592Y-55164936D01*
X72376336Y-55226097D01*
X72162170Y-55325965D01*
X71968598Y-55461505D01*
X71801505Y-55628598D01*
X71665965Y-55822170D01*
X71566097Y-56036336D01*
X71504936Y-56264592D01*
X71484340Y-56500000D01*
X59250500Y-56500000D01*
X59250500Y-50519999D01*
X67544340Y-50519999D01*
X67564936Y-50755407D01*
X67578334Y-50805407D01*
X67626097Y-50983663D01*
X67725965Y-51197830D01*
X67861505Y-51391401D01*
X68028599Y-51558495D01*
X68222170Y-51694035D01*
X68436337Y-51793903D01*
X68664592Y-51855063D01*
X68900000Y-51875659D01*
X69135408Y-51855063D01*
X69363663Y-51793903D01*
X69577830Y-51694035D01*
X69771401Y-51558495D01*
X69938495Y-51391401D01*
X70074035Y-51197830D01*
X70173903Y-50983663D01*
X70235063Y-50755408D01*
X70255659Y-50520000D01*
X70235063Y-50284592D01*
X70173903Y-50056337D01*
X70074035Y-49842171D01*
X69938495Y-49648599D01*
X69771401Y-49481505D01*
X69585839Y-49351573D01*
X69546975Y-49307257D01*
X69532964Y-49250000D01*
X69546975Y-49192743D01*
X69585839Y-49148426D01*
X69771401Y-49018495D01*
X69938495Y-48851401D01*
X70074035Y-48657830D01*
X70173903Y-48443663D01*
X70235063Y-48215408D01*
X70255659Y-47980000D01*
X70235063Y-47744592D01*
X70173903Y-47516337D01*
X70074035Y-47302171D01*
X69938495Y-47108599D01*
X69771401Y-46941505D01*
X69577830Y-46805965D01*
X69363663Y-46706097D01*
X69324385Y-46695572D01*
X69270709Y-46665349D01*
X69238200Y-46613024D01*
X69234882Y-46551512D01*
X69261573Y-46495994D01*
X69311688Y-46460171D01*
X69392410Y-46428900D01*
X69565740Y-46321578D01*
X69716392Y-46184241D01*
X69839248Y-46021553D01*
X69930113Y-45839069D01*
X69972528Y-45690000D01*
X67827472Y-45690000D01*
X67869886Y-45839069D01*
X67960751Y-46021553D01*
X68083607Y-46184241D01*
X68234259Y-46321578D01*
X68407588Y-46428899D01*
X68488311Y-46460171D01*
X68538425Y-46495994D01*
X68565117Y-46551512D01*
X68561798Y-46613024D01*
X68529289Y-46665348D01*
X68475613Y-46695573D01*
X68458253Y-46700224D01*
X68436337Y-46706097D01*
X68436336Y-46706097D01*
X68436334Y-46706098D01*
X68222170Y-46805965D01*
X68028598Y-46941505D01*
X67861505Y-47108598D01*
X67725965Y-47302170D01*
X67626097Y-47516336D01*
X67564936Y-47744592D01*
X67544340Y-47979999D01*
X67564936Y-48215407D01*
X67578334Y-48265407D01*
X67626097Y-48443663D01*
X67725965Y-48657830D01*
X67861505Y-48851401D01*
X68028599Y-49018495D01*
X68214160Y-49148426D01*
X68253024Y-49192743D01*
X68267035Y-49250000D01*
X68253024Y-49307257D01*
X68214159Y-49351575D01*
X68028595Y-49481508D01*
X67861505Y-49648598D01*
X67725965Y-49842170D01*
X67626097Y-50056336D01*
X67564936Y-50284592D01*
X67544340Y-50519999D01*
X59250500Y-50519999D01*
X59250500Y-35389999D01*
X61272267Y-35389999D01*
X61292802Y-35637816D01*
X61292802Y-35637819D01*
X61292803Y-35637821D01*
X61353848Y-35878881D01*
X61398871Y-35981523D01*
X61453736Y-36106604D01*
X61453738Y-36106607D01*
X61589747Y-36314785D01*
X61758167Y-36497738D01*
X61758170Y-36497740D01*
X61954396Y-36650470D01*
X61954398Y-36650471D01*
X61954402Y-36650474D01*
X62173101Y-36768828D01*
X62408297Y-36849571D01*
X62653576Y-36890500D01*
X62902246Y-36890500D01*
X63147525Y-36849571D01*
X63382721Y-36768828D01*
X63601420Y-36650474D01*
X63797655Y-36497738D01*
X63966075Y-36314785D01*
X64102084Y-36106607D01*
X64201974Y-35878881D01*
X64263019Y-35637821D01*
X64283554Y-35390000D01*
X64263019Y-35142179D01*
X64201974Y-34901119D01*
X64102084Y-34673393D01*
X63966075Y-34465215D01*
X63857748Y-34347540D01*
X66542438Y-34347540D01*
X66563034Y-34582947D01*
X66596817Y-34709027D01*
X66624195Y-34811203D01*
X66724063Y-35025370D01*
X66859603Y-35218941D01*
X67026697Y-35386035D01*
X67220268Y-35521575D01*
X67434435Y-35621443D01*
X67662690Y-35682603D01*
X67898098Y-35703199D01*
X68133506Y-35682603D01*
X68233972Y-35655683D01*
X68298157Y-35655683D01*
X68353745Y-35687777D01*
X71638739Y-38972771D01*
X71665619Y-39012999D01*
X71675058Y-39060452D01*
X71675058Y-43967814D01*
X71672793Y-43988320D01*
X71674997Y-44058431D01*
X71675058Y-44062326D01*
X71675058Y-44089907D01*
X71675561Y-44093892D01*
X71676476Y-44105525D01*
X71677848Y-44149184D01*
X71683437Y-44168418D01*
X71687383Y-44187474D01*
X71689893Y-44207350D01*
X71705972Y-44247962D01*
X71709755Y-44259009D01*
X71721940Y-44300949D01*
X71732138Y-44318193D01*
X71740694Y-44335658D01*
X71748072Y-44354290D01*
X71748073Y-44354291D01*
X71773738Y-44389617D01*
X71780151Y-44399380D01*
X71802384Y-44436974D01*
X71802387Y-44436977D01*
X71802388Y-44436978D01*
X71816553Y-44451143D01*
X71829185Y-44465933D01*
X71840964Y-44482145D01*
X71874616Y-44509984D01*
X71883257Y-44517847D01*
X73518848Y-46153439D01*
X73550599Y-46207774D01*
X73551588Y-46270698D01*
X73521559Y-46326004D01*
X73468248Y-46359446D01*
X73405387Y-46362410D01*
X73344649Y-46349500D01*
X73344646Y-46349500D01*
X73285452Y-46349500D01*
X73237999Y-46340061D01*
X73197771Y-46313181D01*
X70286818Y-43402227D01*
X70259938Y-43361999D01*
X70250499Y-43314546D01*
X70250499Y-42002130D01*
X70249466Y-41992517D01*
X70244091Y-41942517D01*
X70193796Y-41807669D01*
X70107546Y-41692454D01*
X69992331Y-41606204D01*
X69857483Y-41555909D01*
X69797873Y-41549500D01*
X69797869Y-41549500D01*
X68002130Y-41549500D01*
X67942515Y-41555909D01*
X67807669Y-41606204D01*
X67692454Y-41692454D01*
X67606204Y-41807668D01*
X67555909Y-41942515D01*
X67555909Y-41942517D01*
X67550534Y-41992516D01*
X67549500Y-42002130D01*
X67549500Y-43797869D01*
X67554876Y-43847872D01*
X67555909Y-43857483D01*
X67606204Y-43992331D01*
X67692454Y-44107546D01*
X67807669Y-44193796D01*
X67942517Y-44244091D01*
X68002127Y-44250500D01*
X68295756Y-44250499D01*
X68357091Y-44266732D01*
X68402369Y-44311180D01*
X68419733Y-44372207D01*
X68404637Y-44433834D01*
X68361032Y-44479925D01*
X68234263Y-44558418D01*
X68083607Y-44695758D01*
X67960751Y-44858446D01*
X67869886Y-45040930D01*
X67827471Y-45189999D01*
X67827472Y-45190000D01*
X69972528Y-45190000D01*
X69972528Y-45189999D01*
X69970811Y-45183964D01*
X69969916Y-45119414D01*
X70001589Y-45063162D01*
X70057246Y-45030454D01*
X70121801Y-45030156D01*
X70177757Y-45062347D01*
X71268848Y-46153439D01*
X72311038Y-47195629D01*
X72335277Y-47229926D01*
X72346678Y-47270348D01*
X72364326Y-47438257D01*
X72422820Y-47618284D01*
X72517466Y-47782216D01*
X72644129Y-47922889D01*
X72797269Y-48034151D01*
X72970197Y-48111144D01*
X73155352Y-48150500D01*
X73155354Y-48150500D01*
X73344646Y-48150500D01*
X73344648Y-48150500D01*
X73468083Y-48124262D01*
X73529803Y-48111144D01*
X73702730Y-48034151D01*
X73855871Y-47922888D01*
X73893977Y-47880567D01*
X73991254Y-47772531D01*
X73993162Y-47774249D01*
X74027961Y-47740441D01*
X74094026Y-47725790D01*
X74157945Y-47748006D01*
X74347264Y-47880567D01*
X74347265Y-47880567D01*
X74347266Y-47880568D01*
X74553504Y-47976739D01*
X74773308Y-48035635D01*
X75000000Y-48055468D01*
X75226692Y-48035635D01*
X75446496Y-47976739D01*
X75652734Y-47880568D01*
X75839139Y-47750047D01*
X75940163Y-47649023D01*
X76454528Y-47649023D01*
X76596235Y-47724766D01*
X76794165Y-47784808D01*
X77000000Y-47805080D01*
X77205834Y-47784808D01*
X77403764Y-47724766D01*
X77545470Y-47649023D01*
X77000001Y-47103553D01*
X77000000Y-47103553D01*
X76454528Y-47649023D01*
X75940163Y-47649023D01*
X76000047Y-47589139D01*
X76130568Y-47402734D01*
X76226739Y-47196496D01*
X76227944Y-47191996D01*
X76260038Y-47136406D01*
X76646446Y-46750001D01*
X77353553Y-46750001D01*
X77899023Y-47295470D01*
X77974766Y-47153764D01*
X78034808Y-46955834D01*
X78055080Y-46749999D01*
X78034808Y-46544165D01*
X77974766Y-46346235D01*
X77899023Y-46204528D01*
X77353553Y-46750000D01*
X77353553Y-46750001D01*
X76646446Y-46750001D01*
X76646447Y-46750000D01*
X76260038Y-46363591D01*
X76227943Y-46307999D01*
X76226738Y-46303501D01*
X76130567Y-46097264D01*
X76000046Y-45910859D01*
X75940163Y-45850976D01*
X76454529Y-45850976D01*
X77000000Y-46396447D01*
X77000001Y-46396447D01*
X77545469Y-45850976D01*
X77403760Y-45775232D01*
X77205834Y-45715191D01*
X77000000Y-45694919D01*
X76794165Y-45715191D01*
X76596235Y-45775232D01*
X76454529Y-45850975D01*
X76454529Y-45850976D01*
X75940163Y-45850976D01*
X75839140Y-45749953D01*
X75652735Y-45619432D01*
X75446497Y-45523261D01*
X75226689Y-45464364D01*
X75000000Y-45444531D01*
X74773307Y-45464364D01*
X74704950Y-45482680D01*
X74640764Y-45482680D01*
X74585177Y-45450586D01*
X72962377Y-43827786D01*
X72935497Y-43787558D01*
X72926058Y-43740105D01*
X72926058Y-38965692D01*
X72940913Y-38906842D01*
X72981919Y-38862092D01*
X73039251Y-38842164D01*
X73106973Y-38836238D01*
X73120408Y-38835063D01*
X73348663Y-38773903D01*
X73562830Y-38674035D01*
X73756401Y-38538495D01*
X73923495Y-38371401D01*
X74053426Y-38185839D01*
X74097743Y-38146975D01*
X74155000Y-38132964D01*
X74212257Y-38146975D01*
X74256573Y-38185839D01*
X74386505Y-38371401D01*
X74553599Y-38538495D01*
X74747170Y-38674035D01*
X74961337Y-38773903D01*
X75189592Y-38835063D01*
X75425000Y-38855659D01*
X75660408Y-38835063D01*
X75888663Y-38773903D01*
X76102830Y-38674035D01*
X76296401Y-38538495D01*
X76463495Y-38371401D01*
X76593426Y-38185839D01*
X76637743Y-38146975D01*
X76695000Y-38132964D01*
X76752257Y-38146975D01*
X76796573Y-38185839D01*
X76926505Y-38371401D01*
X77093599Y-38538495D01*
X77287170Y-38674035D01*
X77501337Y-38773903D01*
X77729592Y-38835063D01*
X77965000Y-38855659D01*
X78200408Y-38835063D01*
X78428663Y-38773903D01*
X78642830Y-38674035D01*
X78836401Y-38538495D01*
X79003495Y-38371401D01*
X79133426Y-38185839D01*
X79177743Y-38146975D01*
X79235000Y-38132964D01*
X79292257Y-38146975D01*
X79336573Y-38185839D01*
X79466505Y-38371401D01*
X79633599Y-38538495D01*
X79827170Y-38674035D01*
X80041337Y-38773903D01*
X80269592Y-38835063D01*
X80505000Y-38855659D01*
X80740408Y-38835063D01*
X80968663Y-38773903D01*
X81182830Y-38674035D01*
X81318109Y-38579311D01*
X81371261Y-38558195D01*
X81428237Y-38563180D01*
X81476913Y-38593204D01*
X88251156Y-45367448D01*
X95012495Y-52128787D01*
X95025395Y-52144888D01*
X95076522Y-52192900D01*
X95079318Y-52195610D01*
X95098828Y-52215120D01*
X95102010Y-52217588D01*
X95110870Y-52225155D01*
X95142717Y-52255062D01*
X95160271Y-52264712D01*
X95176535Y-52275396D01*
X95188271Y-52284499D01*
X95192363Y-52287673D01*
X95217208Y-52298424D01*
X95232451Y-52305021D01*
X95242930Y-52310154D01*
X95281207Y-52331197D01*
X95300605Y-52336177D01*
X95319007Y-52342477D01*
X95337403Y-52350438D01*
X95380560Y-52357273D01*
X95391963Y-52359634D01*
X95434280Y-52370500D01*
X95454315Y-52370500D01*
X95473712Y-52372026D01*
X95493495Y-52375160D01*
X95536973Y-52371050D01*
X95548643Y-52370500D01*
X100492256Y-52370500D01*
X100512762Y-52372764D01*
X100515665Y-52372672D01*
X100515667Y-52372673D01*
X100582872Y-52370561D01*
X100586768Y-52370500D01*
X100614349Y-52370500D01*
X100614350Y-52370500D01*
X100618319Y-52369998D01*
X100629965Y-52369080D01*
X100673627Y-52367709D01*
X100692859Y-52362120D01*
X100711918Y-52358174D01*
X100719091Y-52357268D01*
X100731792Y-52355664D01*
X100772407Y-52339582D01*
X100783444Y-52335803D01*
X100825390Y-52323618D01*
X100842629Y-52313422D01*
X100860102Y-52304862D01*
X100878732Y-52297486D01*
X100914064Y-52271814D01*
X100923830Y-52265400D01*
X100961418Y-52243171D01*
X100961417Y-52243171D01*
X100961420Y-52243170D01*
X100975585Y-52229004D01*
X100990373Y-52216373D01*
X101006587Y-52204594D01*
X101034438Y-52170926D01*
X101042279Y-52162309D01*
X101294353Y-51910235D01*
X101349939Y-51878143D01*
X101414126Y-51878143D01*
X101514592Y-51905063D01*
X101750000Y-51925659D01*
X101985408Y-51905063D01*
X102213663Y-51843903D01*
X102427830Y-51744035D01*
X102621401Y-51608495D01*
X102788495Y-51441401D01*
X102924035Y-51247830D01*
X103023903Y-51033663D01*
X103085063Y-50805408D01*
X103105659Y-50570000D01*
X103085063Y-50334592D01*
X103023903Y-50106337D01*
X102924035Y-49892171D01*
X102788495Y-49698599D01*
X102621401Y-49531505D01*
X102435839Y-49401573D01*
X102396975Y-49357257D01*
X102382964Y-49300000D01*
X102396975Y-49242743D01*
X102435839Y-49198426D01*
X102621401Y-49068495D01*
X102788495Y-48901401D01*
X102924035Y-48707830D01*
X103023903Y-48493663D01*
X103085063Y-48265408D01*
X103105659Y-48030000D01*
X103101284Y-47980000D01*
X103085063Y-47794592D01*
X103046058Y-47649023D01*
X103023903Y-47566337D01*
X102924035Y-47352171D01*
X102788495Y-47158599D01*
X102621401Y-46991505D01*
X102427830Y-46855965D01*
X102213663Y-46756097D01*
X102174385Y-46745572D01*
X102120709Y-46715349D01*
X102088200Y-46663024D01*
X102084882Y-46601512D01*
X102111573Y-46545994D01*
X102161688Y-46510171D01*
X102242410Y-46478900D01*
X102415740Y-46371578D01*
X102566392Y-46234241D01*
X102689248Y-46071553D01*
X102780113Y-45889069D01*
X102822528Y-45740000D01*
X100677472Y-45740000D01*
X100719886Y-45889069D01*
X100810751Y-46071553D01*
X100933607Y-46234241D01*
X101084259Y-46371578D01*
X101257588Y-46478899D01*
X101338311Y-46510171D01*
X101388425Y-46545994D01*
X101415117Y-46601512D01*
X101411798Y-46663024D01*
X101379289Y-46715348D01*
X101325613Y-46745573D01*
X101309095Y-46749999D01*
X101286337Y-46756097D01*
X101286336Y-46756097D01*
X101286334Y-46756098D01*
X101072170Y-46855965D01*
X100878598Y-46991505D01*
X100711505Y-47158598D01*
X100575965Y-47352170D01*
X100476097Y-47566336D01*
X100414936Y-47794592D01*
X100394340Y-48029999D01*
X100414936Y-48265408D01*
X100441855Y-48365873D01*
X100441855Y-48430059D01*
X100409762Y-48485645D01*
X100352228Y-48543180D01*
X100311999Y-48570061D01*
X100264546Y-48579500D01*
X97412503Y-48579500D01*
X97357659Y-48566712D01*
X97314127Y-48530986D01*
X97290886Y-48479691D01*
X97292728Y-48423407D01*
X97335063Y-48265407D01*
X97339437Y-48215408D01*
X97355659Y-48030000D01*
X97351284Y-47980000D01*
X97335063Y-47794592D01*
X97296058Y-47649023D01*
X97273903Y-47566337D01*
X97174035Y-47352171D01*
X97038495Y-47158599D01*
X96871401Y-46991505D01*
X96677830Y-46855965D01*
X96463663Y-46756097D01*
X96424385Y-46745572D01*
X96370709Y-46715349D01*
X96338200Y-46663024D01*
X96334882Y-46601512D01*
X96361573Y-46545994D01*
X96411688Y-46510171D01*
X96492410Y-46478900D01*
X96665740Y-46371578D01*
X96816392Y-46234241D01*
X96939248Y-46071553D01*
X97030113Y-45889069D01*
X97072528Y-45740000D01*
X94927471Y-45740000D01*
X94929188Y-45746035D01*
X94930083Y-45810585D01*
X94898410Y-45866836D01*
X94842753Y-45899544D01*
X94778197Y-45899842D01*
X94722241Y-45867650D01*
X93959917Y-45105326D01*
X93933037Y-45065098D01*
X93923598Y-45017645D01*
X93923598Y-43847869D01*
X94649500Y-43847869D01*
X94650534Y-43857483D01*
X94655909Y-43907483D01*
X94706204Y-44042331D01*
X94792454Y-44157546D01*
X94907669Y-44243796D01*
X95042517Y-44294091D01*
X95102127Y-44300500D01*
X95395757Y-44300499D01*
X95457091Y-44316732D01*
X95502369Y-44361180D01*
X95519733Y-44422207D01*
X95504637Y-44483834D01*
X95461032Y-44529925D01*
X95334263Y-44608418D01*
X95183607Y-44745758D01*
X95060751Y-44908446D01*
X94969886Y-45090930D01*
X94927471Y-45239999D01*
X94927472Y-45240000D01*
X97072528Y-45240000D01*
X97072528Y-45239999D01*
X97030113Y-45090930D01*
X96939248Y-44908446D01*
X96816392Y-44745758D01*
X96665740Y-44608421D01*
X96538966Y-44529926D01*
X96495362Y-44483834D01*
X96480265Y-44422207D01*
X96497629Y-44361181D01*
X96542907Y-44316732D01*
X96604243Y-44300499D01*
X96897872Y-44300499D01*
X96957483Y-44294091D01*
X97075697Y-44250000D01*
X98844540Y-44250000D01*
X98844593Y-44250500D01*
X98864326Y-44438257D01*
X98922820Y-44618284D01*
X99017466Y-44782216D01*
X99144129Y-44922889D01*
X99297269Y-45034151D01*
X99470197Y-45111144D01*
X99655352Y-45150500D01*
X99655354Y-45150500D01*
X99844646Y-45150500D01*
X99844648Y-45150500D01*
X99990895Y-45119414D01*
X100029803Y-45111144D01*
X100202730Y-45034151D01*
X100355871Y-44922888D01*
X100361363Y-44916787D01*
X100401306Y-44887285D01*
X100449623Y-44875820D01*
X100453774Y-44875689D01*
X100457876Y-44875561D01*
X100461766Y-44875500D01*
X100489349Y-44875500D01*
X100489350Y-44875500D01*
X100493319Y-44874998D01*
X100504965Y-44874080D01*
X100548627Y-44872709D01*
X100567859Y-44867120D01*
X100586917Y-44863174D01*
X100606792Y-44860664D01*
X100606792Y-44860663D01*
X100620062Y-44858988D01*
X100685478Y-44868485D01*
X100736720Y-44910244D01*
X100759226Y-44972396D01*
X100746600Y-45037281D01*
X100719885Y-45090932D01*
X100677471Y-45239999D01*
X100677472Y-45240000D01*
X102822528Y-45240000D01*
X102822528Y-45239999D01*
X102780113Y-45090930D01*
X102689248Y-44908446D01*
X102566392Y-44745758D01*
X102415740Y-44608421D01*
X102288966Y-44529926D01*
X102245362Y-44483834D01*
X102230265Y-44422207D01*
X102247629Y-44361181D01*
X102292907Y-44316732D01*
X102354244Y-44300499D01*
X102647870Y-44300499D01*
X102647872Y-44300499D01*
X102707483Y-44294091D01*
X102842331Y-44243796D01*
X102957546Y-44157546D01*
X103043796Y-44042331D01*
X103094091Y-43907483D01*
X103100500Y-43847873D01*
X103100499Y-42052128D01*
X103094091Y-41992517D01*
X103043796Y-41857669D01*
X102957546Y-41742454D01*
X102842331Y-41656204D01*
X102707483Y-41605909D01*
X102647873Y-41599500D01*
X102647869Y-41599500D01*
X100852130Y-41599500D01*
X100792515Y-41605909D01*
X100657669Y-41656204D01*
X100542454Y-41742454D01*
X100456204Y-41857668D01*
X100405909Y-41992516D01*
X100399500Y-42052131D01*
X100399500Y-43364545D01*
X100390061Y-43411998D01*
X100363181Y-43452226D01*
X100362659Y-43452748D01*
X100313296Y-43482998D01*
X100255581Y-43487540D01*
X100214849Y-43470669D01*
X100214636Y-43471149D01*
X100029802Y-43388855D01*
X99844648Y-43349500D01*
X99844646Y-43349500D01*
X99655354Y-43349500D01*
X99655352Y-43349500D01*
X99470197Y-43388855D01*
X99297269Y-43465848D01*
X99144129Y-43577110D01*
X99017466Y-43717783D01*
X98922820Y-43881715D01*
X98864326Y-44061742D01*
X98845192Y-44243795D01*
X98844540Y-44250000D01*
X97075697Y-44250000D01*
X97092331Y-44243796D01*
X97207546Y-44157546D01*
X97293796Y-44042331D01*
X97344091Y-43907483D01*
X97350500Y-43847873D01*
X97350499Y-42052128D01*
X97344091Y-41992517D01*
X97293796Y-41857669D01*
X97207546Y-41742454D01*
X97092331Y-41656204D01*
X96957483Y-41605909D01*
X96897873Y-41599500D01*
X96897869Y-41599500D01*
X95102130Y-41599500D01*
X95042515Y-41605909D01*
X94907669Y-41656204D01*
X94792454Y-41742454D01*
X94706204Y-41857668D01*
X94655909Y-41992516D01*
X94649500Y-42052130D01*
X94649500Y-43847869D01*
X93923598Y-43847869D01*
X93923598Y-35622767D01*
X93937609Y-35565510D01*
X93976472Y-35521193D01*
X94169499Y-35386035D01*
X94336593Y-35218941D01*
X94466524Y-35033379D01*
X94510841Y-34994515D01*
X94568098Y-34980504D01*
X94625355Y-34994515D01*
X94669671Y-35033379D01*
X94799603Y-35218941D01*
X94966697Y-35386035D01*
X95160268Y-35521575D01*
X95374435Y-35621443D01*
X95602690Y-35682603D01*
X95838098Y-35703199D01*
X96073506Y-35682603D01*
X96301761Y-35621443D01*
X96515928Y-35521575D01*
X96709499Y-35386035D01*
X96876593Y-35218941D01*
X97006524Y-35033379D01*
X97050841Y-34994515D01*
X97108098Y-34980504D01*
X97165355Y-34994515D01*
X97209671Y-35033379D01*
X97339603Y-35218941D01*
X97506697Y-35386035D01*
X97700268Y-35521575D01*
X97914435Y-35621443D01*
X98142690Y-35682603D01*
X98378098Y-35703199D01*
X98613506Y-35682603D01*
X98841761Y-35621443D01*
X99055928Y-35521575D01*
X99249499Y-35386035D01*
X99416593Y-35218941D01*
X99546524Y-35033379D01*
X99590841Y-34994515D01*
X99648098Y-34980504D01*
X99705355Y-34994515D01*
X99749671Y-35033379D01*
X99879603Y-35218941D01*
X100046697Y-35386035D01*
X100240268Y-35521575D01*
X100454435Y-35621443D01*
X100682690Y-35682603D01*
X100918098Y-35703199D01*
X101153506Y-35682603D01*
X101381761Y-35621443D01*
X101595928Y-35521575D01*
X101789499Y-35386035D01*
X101956593Y-35218941D01*
X102086524Y-35033379D01*
X102130841Y-34994515D01*
X102188098Y-34980504D01*
X102245355Y-34994515D01*
X102289671Y-35033379D01*
X102419603Y-35218941D01*
X102586697Y-35386035D01*
X102780268Y-35521575D01*
X102994435Y-35621443D01*
X103222690Y-35682603D01*
X103458098Y-35703199D01*
X103693506Y-35682603D01*
X103921761Y-35621443D01*
X104135928Y-35521575D01*
X104323838Y-35389999D01*
X107272267Y-35389999D01*
X107292802Y-35637816D01*
X107292802Y-35637819D01*
X107292803Y-35637821D01*
X107353848Y-35878881D01*
X107398871Y-35981523D01*
X107453736Y-36106604D01*
X107453738Y-36106607D01*
X107589747Y-36314785D01*
X107758167Y-36497738D01*
X107758170Y-36497740D01*
X107954396Y-36650470D01*
X107954398Y-36650471D01*
X107954402Y-36650474D01*
X108173101Y-36768828D01*
X108408297Y-36849571D01*
X108653576Y-36890500D01*
X108902246Y-36890500D01*
X109147525Y-36849571D01*
X109382721Y-36768828D01*
X109601420Y-36650474D01*
X109797655Y-36497738D01*
X109966075Y-36314785D01*
X110102084Y-36106607D01*
X110201974Y-35878881D01*
X110263019Y-35637821D01*
X110283554Y-35390000D01*
X110283225Y-35386035D01*
X110269380Y-35218944D01*
X110263019Y-35142179D01*
X110201974Y-34901119D01*
X110102084Y-34673393D01*
X109966075Y-34465215D01*
X109797655Y-34282262D01*
X109775523Y-34265036D01*
X109601425Y-34129529D01*
X109601421Y-34129526D01*
X109601420Y-34129526D01*
X109382721Y-34011172D01*
X109382717Y-34011170D01*
X109382716Y-34011170D01*
X109147526Y-33930429D01*
X108902246Y-33889500D01*
X108653576Y-33889500D01*
X108408295Y-33930429D01*
X108173105Y-34011170D01*
X107954396Y-34129529D01*
X107758170Y-34282259D01*
X107758167Y-34282261D01*
X107758167Y-34282262D01*
X107589748Y-34465214D01*
X107453736Y-34673395D01*
X107393288Y-34811204D01*
X107353848Y-34901119D01*
X107346764Y-34929093D01*
X107292802Y-35142183D01*
X107272267Y-35389999D01*
X104323838Y-35389999D01*
X104329499Y-35386035D01*
X104496593Y-35218941D01*
X104632133Y-35025370D01*
X104732001Y-34811203D01*
X104793161Y-34582948D01*
X104813757Y-34347540D01*
X104793161Y-34112132D01*
X104732001Y-33883877D01*
X104632133Y-33669711D01*
X104496593Y-33476139D01*
X104329499Y-33309045D01*
X104135928Y-33173505D01*
X103921761Y-33073637D01*
X103860600Y-33057249D01*
X103693505Y-33012476D01*
X103458098Y-32991880D01*
X103222690Y-33012476D01*
X102994434Y-33073637D01*
X102780268Y-33173505D01*
X102586696Y-33309045D01*
X102419603Y-33476138D01*
X102289673Y-33661699D01*
X102245355Y-33700565D01*
X102188098Y-33714576D01*
X102130841Y-33700565D01*
X102086523Y-33661699D01*
X101956592Y-33476138D01*
X101789502Y-33309048D01*
X101789499Y-33309045D01*
X101595928Y-33173505D01*
X101381761Y-33073637D01*
X101320600Y-33057249D01*
X101153505Y-33012476D01*
X100918098Y-32991880D01*
X100682690Y-33012476D01*
X100454434Y-33073637D01*
X100240268Y-33173505D01*
X100046696Y-33309045D01*
X99879603Y-33476138D01*
X99749673Y-33661699D01*
X99705355Y-33700565D01*
X99648098Y-33714576D01*
X99590841Y-33700565D01*
X99546523Y-33661699D01*
X99416592Y-33476138D01*
X99249502Y-33309048D01*
X99249499Y-33309045D01*
X99055928Y-33173505D01*
X98841761Y-33073637D01*
X98780600Y-33057249D01*
X98613505Y-33012476D01*
X98378098Y-32991880D01*
X98142690Y-33012476D01*
X97914434Y-33073637D01*
X97700268Y-33173505D01*
X97506696Y-33309045D01*
X97339603Y-33476138D01*
X97209673Y-33661699D01*
X97165355Y-33700565D01*
X97108098Y-33714576D01*
X97050841Y-33700565D01*
X97006523Y-33661699D01*
X96876592Y-33476138D01*
X96709502Y-33309048D01*
X96709499Y-33309045D01*
X96515928Y-33173505D01*
X96301761Y-33073637D01*
X96240600Y-33057249D01*
X96073505Y-33012476D01*
X95838098Y-32991880D01*
X95602690Y-33012476D01*
X95374434Y-33073637D01*
X95160268Y-33173505D01*
X94966696Y-33309045D01*
X94799603Y-33476138D01*
X94669673Y-33661699D01*
X94625355Y-33700565D01*
X94568098Y-33714576D01*
X94510841Y-33700565D01*
X94466523Y-33661699D01*
X94336592Y-33476138D01*
X94169502Y-33309048D01*
X94169499Y-33309045D01*
X93975928Y-33173505D01*
X93761761Y-33073637D01*
X93700600Y-33057249D01*
X93533505Y-33012476D01*
X93298098Y-32991880D01*
X93062690Y-33012476D01*
X92834434Y-33073637D01*
X92620268Y-33173505D01*
X92426696Y-33309045D01*
X92259603Y-33476138D01*
X92129673Y-33661699D01*
X92085355Y-33700565D01*
X92028098Y-33714576D01*
X91970841Y-33700565D01*
X91926523Y-33661699D01*
X91796592Y-33476138D01*
X91629502Y-33309048D01*
X91629499Y-33309045D01*
X91435928Y-33173505D01*
X91221761Y-33073637D01*
X91160600Y-33057249D01*
X90993505Y-33012476D01*
X90758098Y-32991880D01*
X90522690Y-33012476D01*
X90294434Y-33073637D01*
X90080268Y-33173505D01*
X89886696Y-33309045D01*
X89719603Y-33476138D01*
X89589673Y-33661699D01*
X89545355Y-33700565D01*
X89488098Y-33714576D01*
X89430841Y-33700565D01*
X89386523Y-33661699D01*
X89256592Y-33476138D01*
X89089502Y-33309048D01*
X89089499Y-33309045D01*
X88895928Y-33173505D01*
X88681761Y-33073637D01*
X88620600Y-33057249D01*
X88453505Y-33012476D01*
X88218098Y-32991880D01*
X87982690Y-33012476D01*
X87754434Y-33073637D01*
X87540268Y-33173505D01*
X87346696Y-33309045D01*
X87179603Y-33476138D01*
X87049673Y-33661699D01*
X87005355Y-33700565D01*
X86948098Y-33714576D01*
X86890841Y-33700565D01*
X86846523Y-33661699D01*
X86716592Y-33476138D01*
X86549502Y-33309048D01*
X86549499Y-33309045D01*
X86355928Y-33173505D01*
X86141761Y-33073637D01*
X86080600Y-33057249D01*
X85913505Y-33012476D01*
X85678098Y-32991880D01*
X85442690Y-33012476D01*
X85214434Y-33073637D01*
X85000268Y-33173505D01*
X84806696Y-33309045D01*
X84639603Y-33476138D01*
X84509673Y-33661699D01*
X84465355Y-33700565D01*
X84408098Y-33714576D01*
X84350841Y-33700565D01*
X84306523Y-33661699D01*
X84176592Y-33476138D01*
X84009502Y-33309048D01*
X84009499Y-33309045D01*
X83815928Y-33173505D01*
X83601761Y-33073637D01*
X83540600Y-33057249D01*
X83373505Y-33012476D01*
X83138098Y-32991880D01*
X82902690Y-33012476D01*
X82674434Y-33073637D01*
X82460268Y-33173505D01*
X82266696Y-33309045D01*
X82099603Y-33476138D01*
X81969673Y-33661699D01*
X81925355Y-33700565D01*
X81868098Y-33714576D01*
X81810841Y-33700565D01*
X81766523Y-33661699D01*
X81636592Y-33476138D01*
X81469502Y-33309048D01*
X81469499Y-33309045D01*
X81275928Y-33173505D01*
X81061761Y-33073637D01*
X81000600Y-33057249D01*
X80833505Y-33012476D01*
X80598098Y-32991880D01*
X80362690Y-33012476D01*
X80134434Y-33073637D01*
X79920268Y-33173505D01*
X79726696Y-33309045D01*
X79559603Y-33476138D01*
X79429673Y-33661699D01*
X79385355Y-33700565D01*
X79328098Y-33714576D01*
X79270841Y-33700565D01*
X79226523Y-33661699D01*
X79096592Y-33476138D01*
X78929502Y-33309048D01*
X78929499Y-33309045D01*
X78735928Y-33173505D01*
X78521761Y-33073637D01*
X78460600Y-33057249D01*
X78293505Y-33012476D01*
X78058098Y-32991880D01*
X77822690Y-33012476D01*
X77594434Y-33073637D01*
X77380268Y-33173505D01*
X77186696Y-33309045D01*
X77019603Y-33476138D01*
X76889673Y-33661699D01*
X76845355Y-33700565D01*
X76788098Y-33714576D01*
X76730841Y-33700565D01*
X76686523Y-33661699D01*
X76556592Y-33476138D01*
X76389502Y-33309048D01*
X76389499Y-33309045D01*
X76195928Y-33173505D01*
X75981761Y-33073637D01*
X75920600Y-33057249D01*
X75753505Y-33012476D01*
X75518098Y-32991880D01*
X75282690Y-33012476D01*
X75054434Y-33073637D01*
X74840268Y-33173505D01*
X74646696Y-33309045D01*
X74479603Y-33476138D01*
X74349673Y-33661699D01*
X74305355Y-33700565D01*
X74248098Y-33714576D01*
X74190841Y-33700565D01*
X74146523Y-33661699D01*
X74016592Y-33476138D01*
X73849502Y-33309048D01*
X73849499Y-33309045D01*
X73655928Y-33173505D01*
X73441761Y-33073637D01*
X73380600Y-33057249D01*
X73213505Y-33012476D01*
X72978098Y-32991880D01*
X72742690Y-33012476D01*
X72514434Y-33073637D01*
X72300268Y-33173505D01*
X72106696Y-33309045D01*
X71939603Y-33476138D01*
X71804063Y-33669710D01*
X71704195Y-33883875D01*
X71695158Y-33917604D01*
X71666504Y-33969611D01*
X71616955Y-34002334D01*
X71557873Y-34008268D01*
X71502807Y-33986052D01*
X71464383Y-33940781D01*
X71377346Y-33765986D01*
X71254490Y-33603298D01*
X71103838Y-33465961D01*
X70930509Y-33358640D01*
X70740418Y-33285000D01*
X70688098Y-33275220D01*
X70688098Y-35419860D01*
X70740418Y-35410079D01*
X70930509Y-35336439D01*
X71103838Y-35229118D01*
X71254490Y-35091781D01*
X71377345Y-34929093D01*
X71464383Y-34754298D01*
X71502807Y-34709027D01*
X71557873Y-34686811D01*
X71616955Y-34692745D01*
X71666504Y-34725468D01*
X71695158Y-34777475D01*
X71704195Y-34811204D01*
X71746123Y-34901117D01*
X71804063Y-35025370D01*
X71939603Y-35218941D01*
X72106697Y-35386035D01*
X72300268Y-35521575D01*
X72514435Y-35621443D01*
X72742690Y-35682603D01*
X72978098Y-35703199D01*
X73213506Y-35682603D01*
X73441761Y-35621443D01*
X73655928Y-35521575D01*
X73849499Y-35386035D01*
X74016593Y-35218941D01*
X74146524Y-35033379D01*
X74190841Y-34994515D01*
X74248098Y-34980504D01*
X74305355Y-34994515D01*
X74349671Y-35033379D01*
X74479603Y-35218941D01*
X74646697Y-35386035D01*
X74840268Y-35521575D01*
X75054435Y-35621443D01*
X75282690Y-35682603D01*
X75518098Y-35703199D01*
X75753506Y-35682603D01*
X75981761Y-35621443D01*
X76195928Y-35521575D01*
X76389499Y-35386035D01*
X76556593Y-35218941D01*
X76686524Y-35033379D01*
X76730841Y-34994515D01*
X76788098Y-34980504D01*
X76845355Y-34994515D01*
X76889671Y-35033379D01*
X77019603Y-35218941D01*
X77186697Y-35386035D01*
X77380268Y-35521575D01*
X77594435Y-35621443D01*
X77822690Y-35682603D01*
X78058098Y-35703199D01*
X78293506Y-35682603D01*
X78521761Y-35621443D01*
X78735928Y-35521575D01*
X78929499Y-35386035D01*
X79096593Y-35218941D01*
X79226524Y-35033379D01*
X79270841Y-34994515D01*
X79328098Y-34980504D01*
X79385355Y-34994515D01*
X79429671Y-35033379D01*
X79559603Y-35218941D01*
X79726697Y-35386035D01*
X79920268Y-35521575D01*
X80134435Y-35621443D01*
X80362690Y-35682603D01*
X80598098Y-35703199D01*
X80833506Y-35682603D01*
X80898407Y-35665212D01*
X80954691Y-35663371D01*
X81005986Y-35686612D01*
X81041712Y-35730144D01*
X81054500Y-35784988D01*
X81054500Y-36087497D01*
X81041712Y-36142341D01*
X81005986Y-36185873D01*
X80954691Y-36209114D01*
X80898407Y-36207272D01*
X80740407Y-36164936D01*
X80505000Y-36144340D01*
X80269592Y-36164936D01*
X80041336Y-36226097D01*
X79827170Y-36325965D01*
X79633598Y-36461505D01*
X79466505Y-36628598D01*
X79336575Y-36814159D01*
X79292257Y-36853025D01*
X79235000Y-36867036D01*
X79177743Y-36853025D01*
X79133425Y-36814159D01*
X79003494Y-36628598D01*
X78836404Y-36461508D01*
X78836401Y-36461505D01*
X78642830Y-36325965D01*
X78428663Y-36226097D01*
X78358406Y-36207272D01*
X78200407Y-36164936D01*
X77965000Y-36144340D01*
X77729592Y-36164936D01*
X77501336Y-36226097D01*
X77287170Y-36325965D01*
X77093598Y-36461505D01*
X76926505Y-36628598D01*
X76796575Y-36814159D01*
X76752257Y-36853025D01*
X76695000Y-36867036D01*
X76637743Y-36853025D01*
X76593425Y-36814159D01*
X76463494Y-36628598D01*
X76296404Y-36461508D01*
X76296401Y-36461505D01*
X76102830Y-36325965D01*
X75888663Y-36226097D01*
X75818406Y-36207272D01*
X75660407Y-36164936D01*
X75425000Y-36144340D01*
X75189592Y-36164936D01*
X74961336Y-36226097D01*
X74747170Y-36325965D01*
X74553598Y-36461505D01*
X74386505Y-36628598D01*
X74256575Y-36814159D01*
X74212257Y-36853025D01*
X74155000Y-36867036D01*
X74097743Y-36853025D01*
X74053425Y-36814159D01*
X73923494Y-36628598D01*
X73756404Y-36461508D01*
X73756401Y-36461505D01*
X73562830Y-36325965D01*
X73348663Y-36226097D01*
X73278406Y-36207272D01*
X73120407Y-36164936D01*
X72885000Y-36144340D01*
X72649592Y-36164936D01*
X72421336Y-36226097D01*
X72207170Y-36325965D01*
X72013598Y-36461505D01*
X71846505Y-36628598D01*
X71710966Y-36822168D01*
X71641539Y-36971053D01*
X71604643Y-37017023D01*
X71550689Y-37040763D01*
X71491869Y-37036908D01*
X71441476Y-37006328D01*
X70061578Y-35626429D01*
X70029993Y-35572682D01*
X70028553Y-35510358D01*
X70057623Y-35455209D01*
X70109854Y-35421176D01*
X70172045Y-35416860D01*
X70188098Y-35419861D01*
X70188098Y-33275220D01*
X70135777Y-33285000D01*
X69945686Y-33358640D01*
X69772357Y-33465961D01*
X69621705Y-33603298D01*
X69498851Y-33765984D01*
X69411812Y-33940782D01*
X69373387Y-33986053D01*
X69318320Y-34008268D01*
X69259238Y-34002333D01*
X69209690Y-33969610D01*
X69181037Y-33917601D01*
X69175148Y-33895622D01*
X69172001Y-33883877D01*
X69072133Y-33669711D01*
X68936593Y-33476139D01*
X68769499Y-33309045D01*
X68575928Y-33173505D01*
X68361761Y-33073637D01*
X68300600Y-33057249D01*
X68133505Y-33012476D01*
X67898098Y-32991880D01*
X67662690Y-33012476D01*
X67434434Y-33073637D01*
X67220268Y-33173505D01*
X67026696Y-33309045D01*
X66859603Y-33476138D01*
X66724063Y-33669710D01*
X66624195Y-33883876D01*
X66563034Y-34112132D01*
X66542438Y-34347540D01*
X63857748Y-34347540D01*
X63797655Y-34282262D01*
X63775523Y-34265036D01*
X63601425Y-34129529D01*
X63601421Y-34129526D01*
X63601420Y-34129526D01*
X63382721Y-34011172D01*
X63382717Y-34011170D01*
X63382716Y-34011170D01*
X63147526Y-33930429D01*
X62902246Y-33889500D01*
X62653576Y-33889500D01*
X62408295Y-33930429D01*
X62173105Y-34011170D01*
X61954396Y-34129529D01*
X61758170Y-34282259D01*
X61758167Y-34282261D01*
X61758167Y-34282262D01*
X61589748Y-34465214D01*
X61453736Y-34673395D01*
X61393288Y-34811204D01*
X61353848Y-34901119D01*
X61346764Y-34929093D01*
X61292802Y-35142183D01*
X61272267Y-35389999D01*
X59250500Y-35389999D01*
X59250500Y-32374500D01*
X59267113Y-32312500D01*
X59312500Y-32267113D01*
X59374500Y-32250500D01*
X111875500Y-32250500D01*
X111937500Y-32267113D01*
G37*
%TD.AperFunction*%
%TD*%
M02*
