%TF.GenerationSoftware,KiCad,Pcbnew,7.0.1*%
%TF.CreationDate,2024-10-11T23:35:26-04:00*%
%TF.ProjectId,TrackRing-panel,54726163-6b52-4696-9e67-2d70616e656c,rev?*%
%TF.SameCoordinates,Original*%
%TF.FileFunction,Copper,L1,Top*%
%TF.FilePolarity,Positive*%
%FSLAX46Y46*%
G04 Gerber Fmt 4.6, Leading zero omitted, Abs format (unit mm)*
G04 Created by KiCad (PCBNEW 7.0.1) date 2024-10-11 23:35:26*
%MOMM*%
%LPD*%
G01*
G04 APERTURE LIST*
G04 Aperture macros list*
%AMRoundRect*
0 Rectangle with rounded corners*
0 $1 Rounding radius*
0 $2 $3 $4 $5 $6 $7 $8 $9 X,Y pos of 4 corners*
0 Add a 4 corners polygon primitive as box body*
4,1,4,$2,$3,$4,$5,$6,$7,$8,$9,$2,$3,0*
0 Add four circle primitives for the rounded corners*
1,1,$1+$1,$2,$3*
1,1,$1+$1,$4,$5*
1,1,$1+$1,$6,$7*
1,1,$1+$1,$8,$9*
0 Add four rect primitives between the rounded corners*
20,1,$1+$1,$2,$3,$4,$5,0*
20,1,$1+$1,$4,$5,$6,$7,0*
20,1,$1+$1,$6,$7,$8,$9,0*
20,1,$1+$1,$8,$9,$2,$3,0*%
G04 Aperture macros list end*
%TA.AperFunction,ComponentPad*%
%ADD10R,1.700000X1.700000*%
%TD*%
%TA.AperFunction,ComponentPad*%
%ADD11O,1.700000X1.700000*%
%TD*%
%TA.AperFunction,SMDPad,CuDef*%
%ADD12RoundRect,0.135000X-0.185000X0.135000X-0.185000X-0.135000X0.185000X-0.135000X0.185000X0.135000X0*%
%TD*%
%TA.AperFunction,SMDPad,CuDef*%
%ADD13RoundRect,0.140000X0.140000X0.170000X-0.140000X0.170000X-0.140000X-0.170000X0.140000X-0.170000X0*%
%TD*%
%TA.AperFunction,SMDPad,CuDef*%
%ADD14RoundRect,0.218750X0.256250X-0.218750X0.256250X0.218750X-0.256250X0.218750X-0.256250X-0.218750X0*%
%TD*%
%TA.AperFunction,SMDPad,CuDef*%
%ADD15RoundRect,0.135000X0.185000X-0.135000X0.185000X0.135000X-0.185000X0.135000X-0.185000X-0.135000X0*%
%TD*%
%TA.AperFunction,SMDPad,CuDef*%
%ADD16R,0.700000X0.510000*%
%TD*%
%TA.AperFunction,ViaPad*%
%ADD17C,0.800000*%
%TD*%
%TA.AperFunction,Conductor*%
%ADD18C,0.250000*%
%TD*%
G04 APERTURE END LIST*
D10*
%TO.P,J1,1,Pin_1*%
%TO.N,Board_1-/VCC*%
X138350000Y-28650000D03*
D11*
%TO.P,J1,2,Pin_2*%
%TO.N,Board_1-GND*%
X135810000Y-28650000D03*
%TO.P,J1,3,Pin_3*%
%TO.N,Board_1-/SDA*%
X133270000Y-28650000D03*
%TO.P,J1,4,Pin_4*%
%TO.N,Board_1-/SCL*%
X130730000Y-28650000D03*
%TD*%
D10*
%TO.P,J1,1,Pin_1*%
%TO.N,Board_18-/VCC*%
X166350000Y-79650000D03*
D11*
%TO.P,J1,2,Pin_2*%
%TO.N,Board_18-GND*%
X163810000Y-79650000D03*
%TO.P,J1,3,Pin_3*%
%TO.N,Board_18-/SDA*%
X161270000Y-79650000D03*
%TO.P,J1,4,Pin_4*%
%TO.N,Board_18-/SCL*%
X158730000Y-79650000D03*
%TD*%
D10*
%TO.P,J1,1,Pin_1*%
%TO.N,Board_4-/VCC*%
X180350000Y-28650000D03*
D11*
%TO.P,J1,2,Pin_2*%
%TO.N,Board_4-GND*%
X177810000Y-28650000D03*
%TO.P,J1,3,Pin_3*%
%TO.N,Board_4-/SDA*%
X175270000Y-28650000D03*
%TO.P,J1,4,Pin_4*%
%TO.N,Board_4-/SCL*%
X172730000Y-28650000D03*
%TD*%
D10*
%TO.P,J1,1,Pin_1*%
%TO.N,Board_7-/VCC*%
X152350000Y-45650000D03*
D11*
%TO.P,J1,2,Pin_2*%
%TO.N,Board_7-GND*%
X149810000Y-45650000D03*
%TO.P,J1,3,Pin_3*%
%TO.N,Board_7-/SDA*%
X147270000Y-45650000D03*
%TO.P,J1,4,Pin_4*%
%TO.N,Board_7-/SCL*%
X144730000Y-45650000D03*
%TD*%
D10*
%TO.P,J1,1,Pin_1*%
%TO.N,Board_8-/VCC*%
X166350000Y-45650000D03*
D11*
%TO.P,J1,2,Pin_2*%
%TO.N,Board_8-GND*%
X163810000Y-45650000D03*
%TO.P,J1,3,Pin_3*%
%TO.N,Board_8-/SDA*%
X161270000Y-45650000D03*
%TO.P,J1,4,Pin_4*%
%TO.N,Board_8-/SCL*%
X158730000Y-45650000D03*
%TD*%
D10*
%TO.P,J1,1,Pin_1*%
%TO.N,Board_10-/VCC*%
X124350000Y-62650000D03*
D11*
%TO.P,J1,2,Pin_2*%
%TO.N,Board_10-GND*%
X121810000Y-62650000D03*
%TO.P,J1,3,Pin_3*%
%TO.N,Board_10-/SDA*%
X119270000Y-62650000D03*
%TO.P,J1,4,Pin_4*%
%TO.N,Board_10-/SCL*%
X116730000Y-62650000D03*
%TD*%
D10*
%TO.P,J1,1,Pin_1*%
%TO.N,Board_9-/VCC*%
X180350000Y-45650000D03*
D11*
%TO.P,J1,2,Pin_2*%
%TO.N,Board_9-GND*%
X177810000Y-45650000D03*
%TO.P,J1,3,Pin_3*%
%TO.N,Board_9-/SDA*%
X175270000Y-45650000D03*
%TO.P,J1,4,Pin_4*%
%TO.N,Board_9-/SCL*%
X172730000Y-45650000D03*
%TD*%
D10*
%TO.P,J1,1,Pin_1*%
%TO.N,Board_3-/VCC*%
X166350000Y-28650000D03*
D11*
%TO.P,J1,2,Pin_2*%
%TO.N,Board_3-GND*%
X163810000Y-28650000D03*
%TO.P,J1,3,Pin_3*%
%TO.N,Board_3-/SDA*%
X161270000Y-28650000D03*
%TO.P,J1,4,Pin_4*%
%TO.N,Board_3-/SCL*%
X158730000Y-28650000D03*
%TD*%
D10*
%TO.P,J1,1,Pin_1*%
%TO.N,Board_6-/VCC*%
X138350000Y-45650000D03*
D11*
%TO.P,J1,2,Pin_2*%
%TO.N,Board_6-GND*%
X135810000Y-45650000D03*
%TO.P,J1,3,Pin_3*%
%TO.N,Board_6-/SDA*%
X133270000Y-45650000D03*
%TO.P,J1,4,Pin_4*%
%TO.N,Board_6-/SCL*%
X130730000Y-45650000D03*
%TD*%
D10*
%TO.P,J1,1,Pin_1*%
%TO.N,Board_0-/VCC*%
X124350000Y-28650000D03*
D11*
%TO.P,J1,2,Pin_2*%
%TO.N,Board_0-GND*%
X121810000Y-28650000D03*
%TO.P,J1,3,Pin_3*%
%TO.N,Board_0-/SDA*%
X119270000Y-28650000D03*
%TO.P,J1,4,Pin_4*%
%TO.N,Board_0-/SCL*%
X116730000Y-28650000D03*
%TD*%
D10*
%TO.P,J1,1,Pin_1*%
%TO.N,Board_5-/VCC*%
X124350000Y-45650000D03*
D11*
%TO.P,J1,2,Pin_2*%
%TO.N,Board_5-GND*%
X121810000Y-45650000D03*
%TO.P,J1,3,Pin_3*%
%TO.N,Board_5-/SDA*%
X119270000Y-45650000D03*
%TO.P,J1,4,Pin_4*%
%TO.N,Board_5-/SCL*%
X116730000Y-45650000D03*
%TD*%
D10*
%TO.P,J1,1,Pin_1*%
%TO.N,Board_2-/VCC*%
X152350000Y-28650000D03*
D11*
%TO.P,J1,2,Pin_2*%
%TO.N,Board_2-GND*%
X149810000Y-28650000D03*
%TO.P,J1,3,Pin_3*%
%TO.N,Board_2-/SDA*%
X147270000Y-28650000D03*
%TO.P,J1,4,Pin_4*%
%TO.N,Board_2-/SCL*%
X144730000Y-28650000D03*
%TD*%
D10*
%TO.P,J1,1,Pin_1*%
%TO.N,Board_19-/VCC*%
X180350000Y-79650000D03*
D11*
%TO.P,J1,2,Pin_2*%
%TO.N,Board_19-GND*%
X177810000Y-79650000D03*
%TO.P,J1,3,Pin_3*%
%TO.N,Board_19-/SDA*%
X175270000Y-79650000D03*
%TO.P,J1,4,Pin_4*%
%TO.N,Board_19-/SCL*%
X172730000Y-79650000D03*
%TD*%
D10*
%TO.P,J1,1,Pin_1*%
%TO.N,Board_11-/VCC*%
X138350000Y-62650000D03*
D11*
%TO.P,J1,2,Pin_2*%
%TO.N,Board_11-GND*%
X135810000Y-62650000D03*
%TO.P,J1,3,Pin_3*%
%TO.N,Board_11-/SDA*%
X133270000Y-62650000D03*
%TO.P,J1,4,Pin_4*%
%TO.N,Board_11-/SCL*%
X130730000Y-62650000D03*
%TD*%
D10*
%TO.P,J1,1,Pin_1*%
%TO.N,Board_20-/VCC*%
X124350000Y-96650000D03*
D11*
%TO.P,J1,2,Pin_2*%
%TO.N,Board_20-GND*%
X121810000Y-96650000D03*
%TO.P,J1,3,Pin_3*%
%TO.N,Board_20-/SDA*%
X119270000Y-96650000D03*
%TO.P,J1,4,Pin_4*%
%TO.N,Board_20-/SCL*%
X116730000Y-96650000D03*
%TD*%
D10*
%TO.P,J1,1,Pin_1*%
%TO.N,Board_15-/VCC*%
X124350000Y-79650000D03*
D11*
%TO.P,J1,2,Pin_2*%
%TO.N,Board_15-GND*%
X121810000Y-79650000D03*
%TO.P,J1,3,Pin_3*%
%TO.N,Board_15-/SDA*%
X119270000Y-79650000D03*
%TO.P,J1,4,Pin_4*%
%TO.N,Board_15-/SCL*%
X116730000Y-79650000D03*
%TD*%
D10*
%TO.P,J1,1,Pin_1*%
%TO.N,Board_21-/VCC*%
X138350000Y-96650000D03*
D11*
%TO.P,J1,2,Pin_2*%
%TO.N,Board_21-GND*%
X135810000Y-96650000D03*
%TO.P,J1,3,Pin_3*%
%TO.N,Board_21-/SDA*%
X133270000Y-96650000D03*
%TO.P,J1,4,Pin_4*%
%TO.N,Board_21-/SCL*%
X130730000Y-96650000D03*
%TD*%
D10*
%TO.P,J1,1,Pin_1*%
%TO.N,Board_13-/VCC*%
X166350000Y-62650000D03*
D11*
%TO.P,J1,2,Pin_2*%
%TO.N,Board_13-GND*%
X163810000Y-62650000D03*
%TO.P,J1,3,Pin_3*%
%TO.N,Board_13-/SDA*%
X161270000Y-62650000D03*
%TO.P,J1,4,Pin_4*%
%TO.N,Board_13-/SCL*%
X158730000Y-62650000D03*
%TD*%
D10*
%TO.P,J1,1,Pin_1*%
%TO.N,Board_12-/VCC*%
X152350000Y-62650000D03*
D11*
%TO.P,J1,2,Pin_2*%
%TO.N,Board_12-GND*%
X149810000Y-62650000D03*
%TO.P,J1,3,Pin_3*%
%TO.N,Board_12-/SDA*%
X147270000Y-62650000D03*
%TO.P,J1,4,Pin_4*%
%TO.N,Board_12-/SCL*%
X144730000Y-62650000D03*
%TD*%
D10*
%TO.P,J1,1,Pin_1*%
%TO.N,Board_16-/VCC*%
X138350000Y-79650000D03*
D11*
%TO.P,J1,2,Pin_2*%
%TO.N,Board_16-GND*%
X135810000Y-79650000D03*
%TO.P,J1,3,Pin_3*%
%TO.N,Board_16-/SDA*%
X133270000Y-79650000D03*
%TO.P,J1,4,Pin_4*%
%TO.N,Board_16-/SCL*%
X130730000Y-79650000D03*
%TD*%
D10*
%TO.P,J1,1,Pin_1*%
%TO.N,Board_17-/VCC*%
X152350000Y-79650000D03*
D11*
%TO.P,J1,2,Pin_2*%
%TO.N,Board_17-GND*%
X149810000Y-79650000D03*
%TO.P,J1,3,Pin_3*%
%TO.N,Board_17-/SDA*%
X147270000Y-79650000D03*
%TO.P,J1,4,Pin_4*%
%TO.N,Board_17-/SCL*%
X144730000Y-79650000D03*
%TD*%
D10*
%TO.P,J1,1,Pin_1*%
%TO.N,Board_14-/VCC*%
X180350000Y-62650000D03*
D11*
%TO.P,J1,2,Pin_2*%
%TO.N,Board_14-GND*%
X177810000Y-62650000D03*
%TO.P,J1,3,Pin_3*%
%TO.N,Board_14-/SDA*%
X175270000Y-62650000D03*
%TO.P,J1,4,Pin_4*%
%TO.N,Board_14-/SCL*%
X172730000Y-62650000D03*
%TD*%
D10*
%TO.P,J1,1,Pin_1*%
%TO.N,Board_24-/VCC*%
X180350000Y-96650000D03*
D11*
%TO.P,J1,2,Pin_2*%
%TO.N,Board_24-GND*%
X177810000Y-96650000D03*
%TO.P,J1,3,Pin_3*%
%TO.N,Board_24-/SDA*%
X175270000Y-96650000D03*
%TO.P,J1,4,Pin_4*%
%TO.N,Board_24-/SCL*%
X172730000Y-96650000D03*
%TD*%
D10*
%TO.P,J1,1,Pin_1*%
%TO.N,Board_22-/VCC*%
X152350000Y-96650000D03*
D11*
%TO.P,J1,2,Pin_2*%
%TO.N,Board_22-GND*%
X149810000Y-96650000D03*
%TO.P,J1,3,Pin_3*%
%TO.N,Board_22-/SDA*%
X147270000Y-96650000D03*
%TO.P,J1,4,Pin_4*%
%TO.N,Board_22-/SCL*%
X144730000Y-96650000D03*
%TD*%
D10*
%TO.P,J1,1,Pin_1*%
%TO.N,Board_23-/VCC*%
X166350000Y-96650000D03*
D11*
%TO.P,J1,2,Pin_2*%
%TO.N,Board_23-GND*%
X163810000Y-96650000D03*
%TO.P,J1,3,Pin_3*%
%TO.N,Board_23-/SDA*%
X161270000Y-96650000D03*
%TO.P,J1,4,Pin_4*%
%TO.N,Board_23-/SCL*%
X158730000Y-96650000D03*
%TD*%
D12*
%TO.P,R2,1*%
%TO.N,Board_0-/SCL*%
X116000000Y-30990000D03*
%TO.P,R2,2*%
%TO.N,Board_0-Net-(U1-SCL)*%
X116000000Y-32010000D03*
%TD*%
%TO.P,R2,1*%
%TO.N,Board_2-/SCL*%
X144000000Y-30990000D03*
%TO.P,R2,2*%
%TO.N,Board_2-Net-(U1-SCL)*%
X144000000Y-32010000D03*
%TD*%
%TO.P,R2,1*%
%TO.N,Board_5-/SCL*%
X116000000Y-47990000D03*
%TO.P,R2,2*%
%TO.N,Board_5-Net-(U1-SCL)*%
X116000000Y-49010000D03*
%TD*%
%TO.P,R2,1*%
%TO.N,Board_1-/SCL*%
X130000000Y-30990000D03*
%TO.P,R2,2*%
%TO.N,Board_1-Net-(U1-SCL)*%
X130000000Y-32010000D03*
%TD*%
%TO.P,R2,1*%
%TO.N,Board_3-/SCL*%
X158000000Y-30990000D03*
%TO.P,R2,2*%
%TO.N,Board_3-Net-(U1-SCL)*%
X158000000Y-32010000D03*
%TD*%
%TO.P,R2,1*%
%TO.N,Board_18-/SCL*%
X158000000Y-81990000D03*
%TO.P,R2,2*%
%TO.N,Board_18-Net-(U1-SCL)*%
X158000000Y-83010000D03*
%TD*%
%TO.P,R2,1*%
%TO.N,Board_4-/SCL*%
X172000000Y-30990000D03*
%TO.P,R2,2*%
%TO.N,Board_4-Net-(U1-SCL)*%
X172000000Y-32010000D03*
%TD*%
%TO.P,R2,1*%
%TO.N,Board_7-/SCL*%
X144000000Y-47990000D03*
%TO.P,R2,2*%
%TO.N,Board_7-Net-(U1-SCL)*%
X144000000Y-49010000D03*
%TD*%
%TO.P,R2,1*%
%TO.N,Board_6-/SCL*%
X130000000Y-47990000D03*
%TO.P,R2,2*%
%TO.N,Board_6-Net-(U1-SCL)*%
X130000000Y-49010000D03*
%TD*%
%TO.P,R2,1*%
%TO.N,Board_9-/SCL*%
X172000000Y-47990000D03*
%TO.P,R2,2*%
%TO.N,Board_9-Net-(U1-SCL)*%
X172000000Y-49010000D03*
%TD*%
%TO.P,R2,1*%
%TO.N,Board_10-/SCL*%
X116000000Y-64990000D03*
%TO.P,R2,2*%
%TO.N,Board_10-Net-(U1-SCL)*%
X116000000Y-66010000D03*
%TD*%
%TO.P,R2,1*%
%TO.N,Board_12-/SCL*%
X144000000Y-64990000D03*
%TO.P,R2,2*%
%TO.N,Board_12-Net-(U1-SCL)*%
X144000000Y-66010000D03*
%TD*%
%TO.P,R2,1*%
%TO.N,Board_13-/SCL*%
X158000000Y-64990000D03*
%TO.P,R2,2*%
%TO.N,Board_13-Net-(U1-SCL)*%
X158000000Y-66010000D03*
%TD*%
%TO.P,R2,1*%
%TO.N,Board_14-/SCL*%
X172000000Y-64990000D03*
%TO.P,R2,2*%
%TO.N,Board_14-Net-(U1-SCL)*%
X172000000Y-66010000D03*
%TD*%
%TO.P,R2,1*%
%TO.N,Board_11-/SCL*%
X130000000Y-64990000D03*
%TO.P,R2,2*%
%TO.N,Board_11-Net-(U1-SCL)*%
X130000000Y-66010000D03*
%TD*%
%TO.P,R2,1*%
%TO.N,Board_15-/SCL*%
X116000000Y-81990000D03*
%TO.P,R2,2*%
%TO.N,Board_15-Net-(U1-SCL)*%
X116000000Y-83010000D03*
%TD*%
%TO.P,R2,1*%
%TO.N,Board_8-/SCL*%
X158000000Y-47990000D03*
%TO.P,R2,2*%
%TO.N,Board_8-Net-(U1-SCL)*%
X158000000Y-49010000D03*
%TD*%
%TO.P,R2,1*%
%TO.N,Board_16-/SCL*%
X130000000Y-81990000D03*
%TO.P,R2,2*%
%TO.N,Board_16-Net-(U1-SCL)*%
X130000000Y-83010000D03*
%TD*%
%TO.P,R2,1*%
%TO.N,Board_17-/SCL*%
X144000000Y-81990000D03*
%TO.P,R2,2*%
%TO.N,Board_17-Net-(U1-SCL)*%
X144000000Y-83010000D03*
%TD*%
%TO.P,R2,1*%
%TO.N,Board_22-/SCL*%
X144000000Y-98990000D03*
%TO.P,R2,2*%
%TO.N,Board_22-Net-(U1-SCL)*%
X144000000Y-100010000D03*
%TD*%
%TO.P,R2,1*%
%TO.N,Board_23-/SCL*%
X158000000Y-98990000D03*
%TO.P,R2,2*%
%TO.N,Board_23-Net-(U1-SCL)*%
X158000000Y-100010000D03*
%TD*%
%TO.P,R2,1*%
%TO.N,Board_20-/SCL*%
X116000000Y-98990000D03*
%TO.P,R2,2*%
%TO.N,Board_20-Net-(U1-SCL)*%
X116000000Y-100010000D03*
%TD*%
%TO.P,R2,1*%
%TO.N,Board_19-/SCL*%
X172000000Y-81990000D03*
%TO.P,R2,2*%
%TO.N,Board_19-Net-(U1-SCL)*%
X172000000Y-83010000D03*
%TD*%
%TO.P,R2,1*%
%TO.N,Board_21-/SCL*%
X130000000Y-98990000D03*
%TO.P,R2,2*%
%TO.N,Board_21-Net-(U1-SCL)*%
X130000000Y-100010000D03*
%TD*%
%TO.P,R2,1*%
%TO.N,Board_24-/SCL*%
X172000000Y-98990000D03*
%TO.P,R2,2*%
%TO.N,Board_24-Net-(U1-SCL)*%
X172000000Y-100010000D03*
%TD*%
D13*
%TO.P,C1,1*%
%TO.N,Board_0-GND*%
X124230000Y-34175000D03*
%TO.P,C1,2*%
%TO.N,Board_0-/VCC*%
X123270000Y-34175000D03*
%TD*%
%TO.P,C1,1*%
%TO.N,Board_18-GND*%
X166230000Y-85175000D03*
%TO.P,C1,2*%
%TO.N,Board_18-/VCC*%
X165270000Y-85175000D03*
%TD*%
%TO.P,C1,1*%
%TO.N,Board_3-GND*%
X166230000Y-34175000D03*
%TO.P,C1,2*%
%TO.N,Board_3-/VCC*%
X165270000Y-34175000D03*
%TD*%
%TO.P,C1,1*%
%TO.N,Board_2-GND*%
X152230000Y-34175000D03*
%TO.P,C1,2*%
%TO.N,Board_2-/VCC*%
X151270000Y-34175000D03*
%TD*%
%TO.P,C1,1*%
%TO.N,Board_6-GND*%
X138230000Y-51175000D03*
%TO.P,C1,2*%
%TO.N,Board_6-/VCC*%
X137270000Y-51175000D03*
%TD*%
%TO.P,C1,1*%
%TO.N,Board_7-GND*%
X152230000Y-51175000D03*
%TO.P,C1,2*%
%TO.N,Board_7-/VCC*%
X151270000Y-51175000D03*
%TD*%
%TO.P,C1,1*%
%TO.N,Board_5-GND*%
X124230000Y-51175000D03*
%TO.P,C1,2*%
%TO.N,Board_5-/VCC*%
X123270000Y-51175000D03*
%TD*%
%TO.P,C1,1*%
%TO.N,Board_9-GND*%
X180230000Y-51175000D03*
%TO.P,C1,2*%
%TO.N,Board_9-/VCC*%
X179270000Y-51175000D03*
%TD*%
%TO.P,C1,1*%
%TO.N,Board_8-GND*%
X166230000Y-51175000D03*
%TO.P,C1,2*%
%TO.N,Board_8-/VCC*%
X165270000Y-51175000D03*
%TD*%
%TO.P,C1,1*%
%TO.N,Board_10-GND*%
X124230000Y-68175000D03*
%TO.P,C1,2*%
%TO.N,Board_10-/VCC*%
X123270000Y-68175000D03*
%TD*%
%TO.P,C1,1*%
%TO.N,Board_1-GND*%
X138230000Y-34175000D03*
%TO.P,C1,2*%
%TO.N,Board_1-/VCC*%
X137270000Y-34175000D03*
%TD*%
%TO.P,C1,1*%
%TO.N,Board_4-GND*%
X180230000Y-34175000D03*
%TO.P,C1,2*%
%TO.N,Board_4-/VCC*%
X179270000Y-34175000D03*
%TD*%
%TO.P,C1,1*%
%TO.N,Board_14-GND*%
X180230000Y-68175000D03*
%TO.P,C1,2*%
%TO.N,Board_14-/VCC*%
X179270000Y-68175000D03*
%TD*%
%TO.P,C1,1*%
%TO.N,Board_16-GND*%
X138230000Y-85175000D03*
%TO.P,C1,2*%
%TO.N,Board_16-/VCC*%
X137270000Y-85175000D03*
%TD*%
%TO.P,C1,1*%
%TO.N,Board_17-GND*%
X152230000Y-85175000D03*
%TO.P,C1,2*%
%TO.N,Board_17-/VCC*%
X151270000Y-85175000D03*
%TD*%
%TO.P,C1,1*%
%TO.N,Board_11-GND*%
X138230000Y-68175000D03*
%TO.P,C1,2*%
%TO.N,Board_11-/VCC*%
X137270000Y-68175000D03*
%TD*%
%TO.P,C1,1*%
%TO.N,Board_13-GND*%
X166230000Y-68175000D03*
%TO.P,C1,2*%
%TO.N,Board_13-/VCC*%
X165270000Y-68175000D03*
%TD*%
%TO.P,C1,1*%
%TO.N,Board_20-GND*%
X124230000Y-102175000D03*
%TO.P,C1,2*%
%TO.N,Board_20-/VCC*%
X123270000Y-102175000D03*
%TD*%
%TO.P,C1,1*%
%TO.N,Board_21-GND*%
X138230000Y-102175000D03*
%TO.P,C1,2*%
%TO.N,Board_21-/VCC*%
X137270000Y-102175000D03*
%TD*%
%TO.P,C1,1*%
%TO.N,Board_15-GND*%
X124230000Y-85175000D03*
%TO.P,C1,2*%
%TO.N,Board_15-/VCC*%
X123270000Y-85175000D03*
%TD*%
%TO.P,C1,1*%
%TO.N,Board_19-GND*%
X180230000Y-85175000D03*
%TO.P,C1,2*%
%TO.N,Board_19-/VCC*%
X179270000Y-85175000D03*
%TD*%
%TO.P,C1,1*%
%TO.N,Board_12-GND*%
X152230000Y-68175000D03*
%TO.P,C1,2*%
%TO.N,Board_12-/VCC*%
X151270000Y-68175000D03*
%TD*%
%TO.P,C1,1*%
%TO.N,Board_22-GND*%
X152230000Y-102175000D03*
%TO.P,C1,2*%
%TO.N,Board_22-/VCC*%
X151270000Y-102175000D03*
%TD*%
%TO.P,C1,1*%
%TO.N,Board_24-GND*%
X180230000Y-102175000D03*
%TO.P,C1,2*%
%TO.N,Board_24-/VCC*%
X179270000Y-102175000D03*
%TD*%
%TO.P,C1,1*%
%TO.N,Board_23-GND*%
X166230000Y-102175000D03*
%TO.P,C1,2*%
%TO.N,Board_23-/VCC*%
X165270000Y-102175000D03*
%TD*%
D14*
%TO.P,D1,1,K*%
%TO.N,Board_5-Net-(D1-K)*%
X124500000Y-49787500D03*
%TO.P,D1,2,A*%
%TO.N,Board_5-/VCC*%
X124500000Y-48212500D03*
%TD*%
%TO.P,D1,1,K*%
%TO.N,Board_2-Net-(D1-K)*%
X152500000Y-32787500D03*
%TO.P,D1,2,A*%
%TO.N,Board_2-/VCC*%
X152500000Y-31212500D03*
%TD*%
%TO.P,D1,1,K*%
%TO.N,Board_3-Net-(D1-K)*%
X166500000Y-32787500D03*
%TO.P,D1,2,A*%
%TO.N,Board_3-/VCC*%
X166500000Y-31212500D03*
%TD*%
%TO.P,D1,1,K*%
%TO.N,Board_4-Net-(D1-K)*%
X180500000Y-32787500D03*
%TO.P,D1,2,A*%
%TO.N,Board_4-/VCC*%
X180500000Y-31212500D03*
%TD*%
%TO.P,D1,1,K*%
%TO.N,Board_1-Net-(D1-K)*%
X138500000Y-32787500D03*
%TO.P,D1,2,A*%
%TO.N,Board_1-/VCC*%
X138500000Y-31212500D03*
%TD*%
%TO.P,D1,1,K*%
%TO.N,Board_18-Net-(D1-K)*%
X166500000Y-83787500D03*
%TO.P,D1,2,A*%
%TO.N,Board_18-/VCC*%
X166500000Y-82212500D03*
%TD*%
%TO.P,D1,1,K*%
%TO.N,Board_0-Net-(D1-K)*%
X124500000Y-32787500D03*
%TO.P,D1,2,A*%
%TO.N,Board_0-/VCC*%
X124500000Y-31212500D03*
%TD*%
%TO.P,D1,1,K*%
%TO.N,Board_8-Net-(D1-K)*%
X166500000Y-49787500D03*
%TO.P,D1,2,A*%
%TO.N,Board_8-/VCC*%
X166500000Y-48212500D03*
%TD*%
%TO.P,D1,1,K*%
%TO.N,Board_9-Net-(D1-K)*%
X180500000Y-49787500D03*
%TO.P,D1,2,A*%
%TO.N,Board_9-/VCC*%
X180500000Y-48212500D03*
%TD*%
%TO.P,D1,1,K*%
%TO.N,Board_11-Net-(D1-K)*%
X138500000Y-66787500D03*
%TO.P,D1,2,A*%
%TO.N,Board_11-/VCC*%
X138500000Y-65212500D03*
%TD*%
%TO.P,D1,1,K*%
%TO.N,Board_14-Net-(D1-K)*%
X180500000Y-66787500D03*
%TO.P,D1,2,A*%
%TO.N,Board_14-/VCC*%
X180500000Y-65212500D03*
%TD*%
%TO.P,D1,1,K*%
%TO.N,Board_12-Net-(D1-K)*%
X152500000Y-66787500D03*
%TO.P,D1,2,A*%
%TO.N,Board_12-/VCC*%
X152500000Y-65212500D03*
%TD*%
%TO.P,D1,1,K*%
%TO.N,Board_13-Net-(D1-K)*%
X166500000Y-66787500D03*
%TO.P,D1,2,A*%
%TO.N,Board_13-/VCC*%
X166500000Y-65212500D03*
%TD*%
%TO.P,D1,1,K*%
%TO.N,Board_6-Net-(D1-K)*%
X138500000Y-49787500D03*
%TO.P,D1,2,A*%
%TO.N,Board_6-/VCC*%
X138500000Y-48212500D03*
%TD*%
%TO.P,D1,1,K*%
%TO.N,Board_15-Net-(D1-K)*%
X124500000Y-83787500D03*
%TO.P,D1,2,A*%
%TO.N,Board_15-/VCC*%
X124500000Y-82212500D03*
%TD*%
%TO.P,D1,1,K*%
%TO.N,Board_7-Net-(D1-K)*%
X152500000Y-49787500D03*
%TO.P,D1,2,A*%
%TO.N,Board_7-/VCC*%
X152500000Y-48212500D03*
%TD*%
%TO.P,D1,1,K*%
%TO.N,Board_10-Net-(D1-K)*%
X124500000Y-66787500D03*
%TO.P,D1,2,A*%
%TO.N,Board_10-/VCC*%
X124500000Y-65212500D03*
%TD*%
%TO.P,D1,1,K*%
%TO.N,Board_20-Net-(D1-K)*%
X124500000Y-100787500D03*
%TO.P,D1,2,A*%
%TO.N,Board_20-/VCC*%
X124500000Y-99212500D03*
%TD*%
%TO.P,D1,1,K*%
%TO.N,Board_23-Net-(D1-K)*%
X166500000Y-100787500D03*
%TO.P,D1,2,A*%
%TO.N,Board_23-/VCC*%
X166500000Y-99212500D03*
%TD*%
%TO.P,D1,1,K*%
%TO.N,Board_17-Net-(D1-K)*%
X152500000Y-83787500D03*
%TO.P,D1,2,A*%
%TO.N,Board_17-/VCC*%
X152500000Y-82212500D03*
%TD*%
%TO.P,D1,1,K*%
%TO.N,Board_21-Net-(D1-K)*%
X138500000Y-100787500D03*
%TO.P,D1,2,A*%
%TO.N,Board_21-/VCC*%
X138500000Y-99212500D03*
%TD*%
%TO.P,D1,1,K*%
%TO.N,Board_22-Net-(D1-K)*%
X152500000Y-100787500D03*
%TO.P,D1,2,A*%
%TO.N,Board_22-/VCC*%
X152500000Y-99212500D03*
%TD*%
%TO.P,D1,1,K*%
%TO.N,Board_16-Net-(D1-K)*%
X138500000Y-83787500D03*
%TO.P,D1,2,A*%
%TO.N,Board_16-/VCC*%
X138500000Y-82212500D03*
%TD*%
%TO.P,D1,1,K*%
%TO.N,Board_19-Net-(D1-K)*%
X180500000Y-83787500D03*
%TO.P,D1,2,A*%
%TO.N,Board_19-/VCC*%
X180500000Y-82212500D03*
%TD*%
%TO.P,D1,1,K*%
%TO.N,Board_24-Net-(D1-K)*%
X180500000Y-100787500D03*
%TO.P,D1,2,A*%
%TO.N,Board_24-/VCC*%
X180500000Y-99212500D03*
%TD*%
D15*
%TO.P,R4,1*%
%TO.N,Board_1-/VCC*%
X130000000Y-34510000D03*
%TO.P,R4,2*%
%TO.N,Board_1-/SCL*%
X130000000Y-33490000D03*
%TD*%
%TO.P,R4,1*%
%TO.N,Board_18-/VCC*%
X158000000Y-85510000D03*
%TO.P,R4,2*%
%TO.N,Board_18-/SCL*%
X158000000Y-84490000D03*
%TD*%
%TO.P,R4,1*%
%TO.N,Board_5-/VCC*%
X116000000Y-51510000D03*
%TO.P,R4,2*%
%TO.N,Board_5-/SCL*%
X116000000Y-50490000D03*
%TD*%
%TO.P,R4,1*%
%TO.N,Board_2-/VCC*%
X144000000Y-34510000D03*
%TO.P,R4,2*%
%TO.N,Board_2-/SCL*%
X144000000Y-33490000D03*
%TD*%
%TO.P,R4,1*%
%TO.N,Board_3-/VCC*%
X158000000Y-34510000D03*
%TO.P,R4,2*%
%TO.N,Board_3-/SCL*%
X158000000Y-33490000D03*
%TD*%
%TO.P,R4,1*%
%TO.N,Board_4-/VCC*%
X172000000Y-34510000D03*
%TO.P,R4,2*%
%TO.N,Board_4-/SCL*%
X172000000Y-33490000D03*
%TD*%
%TO.P,R4,1*%
%TO.N,Board_6-/VCC*%
X130000000Y-51510000D03*
%TO.P,R4,2*%
%TO.N,Board_6-/SCL*%
X130000000Y-50490000D03*
%TD*%
%TO.P,R4,1*%
%TO.N,Board_7-/VCC*%
X144000000Y-51510000D03*
%TO.P,R4,2*%
%TO.N,Board_7-/SCL*%
X144000000Y-50490000D03*
%TD*%
%TO.P,R4,1*%
%TO.N,Board_0-/VCC*%
X116000000Y-34510000D03*
%TO.P,R4,2*%
%TO.N,Board_0-/SCL*%
X116000000Y-33490000D03*
%TD*%
%TO.P,R4,1*%
%TO.N,Board_8-/VCC*%
X158000000Y-51510000D03*
%TO.P,R4,2*%
%TO.N,Board_8-/SCL*%
X158000000Y-50490000D03*
%TD*%
%TO.P,R4,1*%
%TO.N,Board_10-/VCC*%
X116000000Y-68510000D03*
%TO.P,R4,2*%
%TO.N,Board_10-/SCL*%
X116000000Y-67490000D03*
%TD*%
%TO.P,R4,1*%
%TO.N,Board_9-/VCC*%
X172000000Y-51510000D03*
%TO.P,R4,2*%
%TO.N,Board_9-/SCL*%
X172000000Y-50490000D03*
%TD*%
%TO.P,R4,1*%
%TO.N,Board_11-/VCC*%
X130000000Y-68510000D03*
%TO.P,R4,2*%
%TO.N,Board_11-/SCL*%
X130000000Y-67490000D03*
%TD*%
%TO.P,R4,1*%
%TO.N,Board_13-/VCC*%
X158000000Y-68510000D03*
%TO.P,R4,2*%
%TO.N,Board_13-/SCL*%
X158000000Y-67490000D03*
%TD*%
%TO.P,R4,1*%
%TO.N,Board_20-/VCC*%
X116000000Y-102510000D03*
%TO.P,R4,2*%
%TO.N,Board_20-/SCL*%
X116000000Y-101490000D03*
%TD*%
%TO.P,R4,1*%
%TO.N,Board_15-/VCC*%
X116000000Y-85510000D03*
%TO.P,R4,2*%
%TO.N,Board_15-/SCL*%
X116000000Y-84490000D03*
%TD*%
%TO.P,R4,1*%
%TO.N,Board_23-/VCC*%
X158000000Y-102510000D03*
%TO.P,R4,2*%
%TO.N,Board_23-/SCL*%
X158000000Y-101490000D03*
%TD*%
%TO.P,R4,1*%
%TO.N,Board_21-/VCC*%
X130000000Y-102510000D03*
%TO.P,R4,2*%
%TO.N,Board_21-/SCL*%
X130000000Y-101490000D03*
%TD*%
%TO.P,R4,1*%
%TO.N,Board_17-/VCC*%
X144000000Y-85510000D03*
%TO.P,R4,2*%
%TO.N,Board_17-/SCL*%
X144000000Y-84490000D03*
%TD*%
%TO.P,R4,1*%
%TO.N,Board_24-/VCC*%
X172000000Y-102510000D03*
%TO.P,R4,2*%
%TO.N,Board_24-/SCL*%
X172000000Y-101490000D03*
%TD*%
%TO.P,R4,1*%
%TO.N,Board_14-/VCC*%
X172000000Y-68510000D03*
%TO.P,R4,2*%
%TO.N,Board_14-/SCL*%
X172000000Y-67490000D03*
%TD*%
%TO.P,R4,1*%
%TO.N,Board_12-/VCC*%
X144000000Y-68510000D03*
%TO.P,R4,2*%
%TO.N,Board_12-/SCL*%
X144000000Y-67490000D03*
%TD*%
%TO.P,R4,1*%
%TO.N,Board_19-/VCC*%
X172000000Y-85510000D03*
%TO.P,R4,2*%
%TO.N,Board_19-/SCL*%
X172000000Y-84490000D03*
%TD*%
%TO.P,R4,1*%
%TO.N,Board_22-/VCC*%
X144000000Y-102510000D03*
%TO.P,R4,2*%
%TO.N,Board_22-/SCL*%
X144000000Y-101490000D03*
%TD*%
%TO.P,R4,1*%
%TO.N,Board_16-/VCC*%
X130000000Y-85510000D03*
%TO.P,R4,2*%
%TO.N,Board_16-/SCL*%
X130000000Y-84490000D03*
%TD*%
D12*
%TO.P,R1,1*%
%TO.N,Board_3-/SDA*%
X159750000Y-30990000D03*
%TO.P,R1,2*%
%TO.N,Board_3-Net-(U1-SDA)*%
X159750000Y-32010000D03*
%TD*%
%TO.P,R1,1*%
%TO.N,Board_6-/SDA*%
X131750000Y-47990000D03*
%TO.P,R1,2*%
%TO.N,Board_6-Net-(U1-SDA)*%
X131750000Y-49010000D03*
%TD*%
%TO.P,R1,1*%
%TO.N,Board_7-/SDA*%
X145750000Y-47990000D03*
%TO.P,R1,2*%
%TO.N,Board_7-Net-(U1-SDA)*%
X145750000Y-49010000D03*
%TD*%
%TO.P,R1,1*%
%TO.N,Board_0-/SDA*%
X117750000Y-30990000D03*
%TO.P,R1,2*%
%TO.N,Board_0-Net-(U1-SDA)*%
X117750000Y-32010000D03*
%TD*%
%TO.P,R1,1*%
%TO.N,Board_2-/SDA*%
X145750000Y-30990000D03*
%TO.P,R1,2*%
%TO.N,Board_2-Net-(U1-SDA)*%
X145750000Y-32010000D03*
%TD*%
%TO.P,R1,1*%
%TO.N,Board_4-/SDA*%
X173750000Y-30990000D03*
%TO.P,R1,2*%
%TO.N,Board_4-Net-(U1-SDA)*%
X173750000Y-32010000D03*
%TD*%
%TO.P,R1,1*%
%TO.N,Board_1-/SDA*%
X131750000Y-30990000D03*
%TO.P,R1,2*%
%TO.N,Board_1-Net-(U1-SDA)*%
X131750000Y-32010000D03*
%TD*%
%TO.P,R1,1*%
%TO.N,Board_5-/SDA*%
X117750000Y-47990000D03*
%TO.P,R1,2*%
%TO.N,Board_5-Net-(U1-SDA)*%
X117750000Y-49010000D03*
%TD*%
%TO.P,R1,1*%
%TO.N,Board_18-/SDA*%
X159750000Y-81990000D03*
%TO.P,R1,2*%
%TO.N,Board_18-Net-(U1-SDA)*%
X159750000Y-83010000D03*
%TD*%
%TO.P,R1,1*%
%TO.N,Board_23-/SDA*%
X159750000Y-98990000D03*
%TO.P,R1,2*%
%TO.N,Board_23-Net-(U1-SDA)*%
X159750000Y-100010000D03*
%TD*%
%TO.P,R1,1*%
%TO.N,Board_9-/SDA*%
X173750000Y-47990000D03*
%TO.P,R1,2*%
%TO.N,Board_9-Net-(U1-SDA)*%
X173750000Y-49010000D03*
%TD*%
%TO.P,R1,1*%
%TO.N,Board_13-/SDA*%
X159750000Y-64990000D03*
%TO.P,R1,2*%
%TO.N,Board_13-Net-(U1-SDA)*%
X159750000Y-66010000D03*
%TD*%
%TO.P,R1,1*%
%TO.N,Board_17-/SDA*%
X145750000Y-81990000D03*
%TO.P,R1,2*%
%TO.N,Board_17-Net-(U1-SDA)*%
X145750000Y-83010000D03*
%TD*%
%TO.P,R1,1*%
%TO.N,Board_11-/SDA*%
X131750000Y-64990000D03*
%TO.P,R1,2*%
%TO.N,Board_11-Net-(U1-SDA)*%
X131750000Y-66010000D03*
%TD*%
%TO.P,R1,1*%
%TO.N,Board_12-/SDA*%
X145750000Y-64990000D03*
%TO.P,R1,2*%
%TO.N,Board_12-Net-(U1-SDA)*%
X145750000Y-66010000D03*
%TD*%
%TO.P,R1,1*%
%TO.N,Board_14-/SDA*%
X173750000Y-64990000D03*
%TO.P,R1,2*%
%TO.N,Board_14-Net-(U1-SDA)*%
X173750000Y-66010000D03*
%TD*%
%TO.P,R1,1*%
%TO.N,Board_19-/SDA*%
X173750000Y-81990000D03*
%TO.P,R1,2*%
%TO.N,Board_19-Net-(U1-SDA)*%
X173750000Y-83010000D03*
%TD*%
%TO.P,R1,1*%
%TO.N,Board_21-/SDA*%
X131750000Y-98990000D03*
%TO.P,R1,2*%
%TO.N,Board_21-Net-(U1-SDA)*%
X131750000Y-100010000D03*
%TD*%
%TO.P,R1,1*%
%TO.N,Board_22-/SDA*%
X145750000Y-98990000D03*
%TO.P,R1,2*%
%TO.N,Board_22-Net-(U1-SDA)*%
X145750000Y-100010000D03*
%TD*%
%TO.P,R1,1*%
%TO.N,Board_8-/SDA*%
X159750000Y-47990000D03*
%TO.P,R1,2*%
%TO.N,Board_8-Net-(U1-SDA)*%
X159750000Y-49010000D03*
%TD*%
%TO.P,R1,1*%
%TO.N,Board_24-/SDA*%
X173750000Y-98990000D03*
%TO.P,R1,2*%
%TO.N,Board_24-Net-(U1-SDA)*%
X173750000Y-100010000D03*
%TD*%
%TO.P,R1,1*%
%TO.N,Board_10-/SDA*%
X117750000Y-64990000D03*
%TO.P,R1,2*%
%TO.N,Board_10-Net-(U1-SDA)*%
X117750000Y-66010000D03*
%TD*%
%TO.P,R1,1*%
%TO.N,Board_16-/SDA*%
X131750000Y-81990000D03*
%TO.P,R1,2*%
%TO.N,Board_16-Net-(U1-SDA)*%
X131750000Y-83010000D03*
%TD*%
%TO.P,R1,1*%
%TO.N,Board_15-/SDA*%
X117750000Y-81990000D03*
%TO.P,R1,2*%
%TO.N,Board_15-Net-(U1-SDA)*%
X117750000Y-83010000D03*
%TD*%
%TO.P,R1,1*%
%TO.N,Board_20-/SDA*%
X117750000Y-98990000D03*
%TO.P,R1,2*%
%TO.N,Board_20-Net-(U1-SDA)*%
X117750000Y-100010000D03*
%TD*%
D15*
%TO.P,R5,1*%
%TO.N,Board_1-Net-(D1-K)*%
X140000000Y-33010000D03*
%TO.P,R5,2*%
%TO.N,Board_1-GND*%
X140000000Y-31990000D03*
%TD*%
%TO.P,R5,1*%
%TO.N,Board_3-Net-(D1-K)*%
X168000000Y-33010000D03*
%TO.P,R5,2*%
%TO.N,Board_3-GND*%
X168000000Y-31990000D03*
%TD*%
%TO.P,R5,1*%
%TO.N,Board_2-Net-(D1-K)*%
X154000000Y-33010000D03*
%TO.P,R5,2*%
%TO.N,Board_2-GND*%
X154000000Y-31990000D03*
%TD*%
%TO.P,R5,1*%
%TO.N,Board_18-Net-(D1-K)*%
X168000000Y-84010000D03*
%TO.P,R5,2*%
%TO.N,Board_18-GND*%
X168000000Y-82990000D03*
%TD*%
%TO.P,R5,1*%
%TO.N,Board_0-Net-(D1-K)*%
X126000000Y-33010000D03*
%TO.P,R5,2*%
%TO.N,Board_0-GND*%
X126000000Y-31990000D03*
%TD*%
%TO.P,R5,1*%
%TO.N,Board_22-Net-(D1-K)*%
X154000000Y-101010000D03*
%TO.P,R5,2*%
%TO.N,Board_22-GND*%
X154000000Y-99990000D03*
%TD*%
%TO.P,R5,1*%
%TO.N,Board_6-Net-(D1-K)*%
X140000000Y-50010000D03*
%TO.P,R5,2*%
%TO.N,Board_6-GND*%
X140000000Y-48990000D03*
%TD*%
%TO.P,R5,1*%
%TO.N,Board_24-Net-(D1-K)*%
X182000000Y-101010000D03*
%TO.P,R5,2*%
%TO.N,Board_24-GND*%
X182000000Y-99990000D03*
%TD*%
%TO.P,R5,1*%
%TO.N,Board_17-Net-(D1-K)*%
X154000000Y-84010000D03*
%TO.P,R5,2*%
%TO.N,Board_17-GND*%
X154000000Y-82990000D03*
%TD*%
%TO.P,R5,1*%
%TO.N,Board_9-Net-(D1-K)*%
X182000000Y-50010000D03*
%TO.P,R5,2*%
%TO.N,Board_9-GND*%
X182000000Y-48990000D03*
%TD*%
%TO.P,R5,1*%
%TO.N,Board_11-Net-(D1-K)*%
X140000000Y-67010000D03*
%TO.P,R5,2*%
%TO.N,Board_11-GND*%
X140000000Y-65990000D03*
%TD*%
%TO.P,R5,1*%
%TO.N,Board_10-Net-(D1-K)*%
X126000000Y-67010000D03*
%TO.P,R5,2*%
%TO.N,Board_10-GND*%
X126000000Y-65990000D03*
%TD*%
%TO.P,R5,1*%
%TO.N,Board_15-Net-(D1-K)*%
X126000000Y-84010000D03*
%TO.P,R5,2*%
%TO.N,Board_15-GND*%
X126000000Y-82990000D03*
%TD*%
%TO.P,R5,1*%
%TO.N,Board_7-Net-(D1-K)*%
X154000000Y-50010000D03*
%TO.P,R5,2*%
%TO.N,Board_7-GND*%
X154000000Y-48990000D03*
%TD*%
%TO.P,R5,1*%
%TO.N,Board_14-Net-(D1-K)*%
X182000000Y-67010000D03*
%TO.P,R5,2*%
%TO.N,Board_14-GND*%
X182000000Y-65990000D03*
%TD*%
%TO.P,R5,1*%
%TO.N,Board_4-Net-(D1-K)*%
X182000000Y-33010000D03*
%TO.P,R5,2*%
%TO.N,Board_4-GND*%
X182000000Y-31990000D03*
%TD*%
%TO.P,R5,1*%
%TO.N,Board_12-Net-(D1-K)*%
X154000000Y-67010000D03*
%TO.P,R5,2*%
%TO.N,Board_12-GND*%
X154000000Y-65990000D03*
%TD*%
%TO.P,R5,1*%
%TO.N,Board_16-Net-(D1-K)*%
X140000000Y-84010000D03*
%TO.P,R5,2*%
%TO.N,Board_16-GND*%
X140000000Y-82990000D03*
%TD*%
%TO.P,R5,1*%
%TO.N,Board_13-Net-(D1-K)*%
X168000000Y-67010000D03*
%TO.P,R5,2*%
%TO.N,Board_13-GND*%
X168000000Y-65990000D03*
%TD*%
%TO.P,R5,1*%
%TO.N,Board_20-Net-(D1-K)*%
X126000000Y-101010000D03*
%TO.P,R5,2*%
%TO.N,Board_20-GND*%
X126000000Y-99990000D03*
%TD*%
%TO.P,R5,1*%
%TO.N,Board_5-Net-(D1-K)*%
X126000000Y-50010000D03*
%TO.P,R5,2*%
%TO.N,Board_5-GND*%
X126000000Y-48990000D03*
%TD*%
%TO.P,R5,1*%
%TO.N,Board_8-Net-(D1-K)*%
X168000000Y-50010000D03*
%TO.P,R5,2*%
%TO.N,Board_8-GND*%
X168000000Y-48990000D03*
%TD*%
%TO.P,R5,1*%
%TO.N,Board_19-Net-(D1-K)*%
X182000000Y-84010000D03*
%TO.P,R5,2*%
%TO.N,Board_19-GND*%
X182000000Y-82990000D03*
%TD*%
%TO.P,R5,1*%
%TO.N,Board_21-Net-(D1-K)*%
X140000000Y-101010000D03*
%TO.P,R5,2*%
%TO.N,Board_21-GND*%
X140000000Y-99990000D03*
%TD*%
%TO.P,R5,1*%
%TO.N,Board_23-Net-(D1-K)*%
X168000000Y-101010000D03*
%TO.P,R5,2*%
%TO.N,Board_23-GND*%
X168000000Y-99990000D03*
%TD*%
D16*
%TO.P,U1,1,SCL*%
%TO.N,Board_18-Net-(U1-SCL)*%
X161340000Y-83225000D03*
%TO.P,U1,2,GND*%
%TO.N,Board_18-GND*%
X161340000Y-84175000D03*
%TO.P,U1,3,GND*%
X161340000Y-85125000D03*
%TO.P,U1,4,VCC*%
%TO.N,Board_18-/VCC*%
X163660000Y-85125000D03*
%TO.P,U1,5,GND*%
%TO.N,Board_18-GND*%
X163660000Y-84175000D03*
%TO.P,U1,6,SDA*%
%TO.N,Board_18-Net-(U1-SDA)*%
X163660000Y-83225000D03*
%TD*%
%TO.P,U1,1,SCL*%
%TO.N,Board_11-Net-(U1-SCL)*%
X133340000Y-66225000D03*
%TO.P,U1,2,GND*%
%TO.N,Board_11-GND*%
X133340000Y-67175000D03*
%TO.P,U1,3,GND*%
X133340000Y-68125000D03*
%TO.P,U1,4,VCC*%
%TO.N,Board_11-/VCC*%
X135660000Y-68125000D03*
%TO.P,U1,5,GND*%
%TO.N,Board_11-GND*%
X135660000Y-67175000D03*
%TO.P,U1,6,SDA*%
%TO.N,Board_11-Net-(U1-SDA)*%
X135660000Y-66225000D03*
%TD*%
%TO.P,U1,1,SCL*%
%TO.N,Board_2-Net-(U1-SCL)*%
X147340000Y-32225000D03*
%TO.P,U1,2,GND*%
%TO.N,Board_2-GND*%
X147340000Y-33175000D03*
%TO.P,U1,3,GND*%
X147340000Y-34125000D03*
%TO.P,U1,4,VCC*%
%TO.N,Board_2-/VCC*%
X149660000Y-34125000D03*
%TO.P,U1,5,GND*%
%TO.N,Board_2-GND*%
X149660000Y-33175000D03*
%TO.P,U1,6,SDA*%
%TO.N,Board_2-Net-(U1-SDA)*%
X149660000Y-32225000D03*
%TD*%
%TO.P,U1,1,SCL*%
%TO.N,Board_22-Net-(U1-SCL)*%
X147340000Y-100225000D03*
%TO.P,U1,2,GND*%
%TO.N,Board_22-GND*%
X147340000Y-101175000D03*
%TO.P,U1,3,GND*%
X147340000Y-102125000D03*
%TO.P,U1,4,VCC*%
%TO.N,Board_22-/VCC*%
X149660000Y-102125000D03*
%TO.P,U1,5,GND*%
%TO.N,Board_22-GND*%
X149660000Y-101175000D03*
%TO.P,U1,6,SDA*%
%TO.N,Board_22-Net-(U1-SDA)*%
X149660000Y-100225000D03*
%TD*%
%TO.P,U1,1,SCL*%
%TO.N,Board_24-Net-(U1-SCL)*%
X175340000Y-100225000D03*
%TO.P,U1,2,GND*%
%TO.N,Board_24-GND*%
X175340000Y-101175000D03*
%TO.P,U1,3,GND*%
X175340000Y-102125000D03*
%TO.P,U1,4,VCC*%
%TO.N,Board_24-/VCC*%
X177660000Y-102125000D03*
%TO.P,U1,5,GND*%
%TO.N,Board_24-GND*%
X177660000Y-101175000D03*
%TO.P,U1,6,SDA*%
%TO.N,Board_24-Net-(U1-SDA)*%
X177660000Y-100225000D03*
%TD*%
%TO.P,U1,1,SCL*%
%TO.N,Board_0-Net-(U1-SCL)*%
X119340000Y-32225000D03*
%TO.P,U1,2,GND*%
%TO.N,Board_0-GND*%
X119340000Y-33175000D03*
%TO.P,U1,3,GND*%
X119340000Y-34125000D03*
%TO.P,U1,4,VCC*%
%TO.N,Board_0-/VCC*%
X121660000Y-34125000D03*
%TO.P,U1,5,GND*%
%TO.N,Board_0-GND*%
X121660000Y-33175000D03*
%TO.P,U1,6,SDA*%
%TO.N,Board_0-Net-(U1-SDA)*%
X121660000Y-32225000D03*
%TD*%
%TO.P,U1,1,SCL*%
%TO.N,Board_3-Net-(U1-SCL)*%
X161340000Y-32225000D03*
%TO.P,U1,2,GND*%
%TO.N,Board_3-GND*%
X161340000Y-33175000D03*
%TO.P,U1,3,GND*%
X161340000Y-34125000D03*
%TO.P,U1,4,VCC*%
%TO.N,Board_3-/VCC*%
X163660000Y-34125000D03*
%TO.P,U1,5,GND*%
%TO.N,Board_3-GND*%
X163660000Y-33175000D03*
%TO.P,U1,6,SDA*%
%TO.N,Board_3-Net-(U1-SDA)*%
X163660000Y-32225000D03*
%TD*%
%TO.P,U1,1,SCL*%
%TO.N,Board_9-Net-(U1-SCL)*%
X175340000Y-49225000D03*
%TO.P,U1,2,GND*%
%TO.N,Board_9-GND*%
X175340000Y-50175000D03*
%TO.P,U1,3,GND*%
X175340000Y-51125000D03*
%TO.P,U1,4,VCC*%
%TO.N,Board_9-/VCC*%
X177660000Y-51125000D03*
%TO.P,U1,5,GND*%
%TO.N,Board_9-GND*%
X177660000Y-50175000D03*
%TO.P,U1,6,SDA*%
%TO.N,Board_9-Net-(U1-SDA)*%
X177660000Y-49225000D03*
%TD*%
%TO.P,U1,1,SCL*%
%TO.N,Board_8-Net-(U1-SCL)*%
X161340000Y-49225000D03*
%TO.P,U1,2,GND*%
%TO.N,Board_8-GND*%
X161340000Y-50175000D03*
%TO.P,U1,3,GND*%
X161340000Y-51125000D03*
%TO.P,U1,4,VCC*%
%TO.N,Board_8-/VCC*%
X163660000Y-51125000D03*
%TO.P,U1,5,GND*%
%TO.N,Board_8-GND*%
X163660000Y-50175000D03*
%TO.P,U1,6,SDA*%
%TO.N,Board_8-Net-(U1-SDA)*%
X163660000Y-49225000D03*
%TD*%
%TO.P,U1,1,SCL*%
%TO.N,Board_14-Net-(U1-SCL)*%
X175340000Y-66225000D03*
%TO.P,U1,2,GND*%
%TO.N,Board_14-GND*%
X175340000Y-67175000D03*
%TO.P,U1,3,GND*%
X175340000Y-68125000D03*
%TO.P,U1,4,VCC*%
%TO.N,Board_14-/VCC*%
X177660000Y-68125000D03*
%TO.P,U1,5,GND*%
%TO.N,Board_14-GND*%
X177660000Y-67175000D03*
%TO.P,U1,6,SDA*%
%TO.N,Board_14-Net-(U1-SDA)*%
X177660000Y-66225000D03*
%TD*%
%TO.P,U1,1,SCL*%
%TO.N,Board_5-Net-(U1-SCL)*%
X119340000Y-49225000D03*
%TO.P,U1,2,GND*%
%TO.N,Board_5-GND*%
X119340000Y-50175000D03*
%TO.P,U1,3,GND*%
X119340000Y-51125000D03*
%TO.P,U1,4,VCC*%
%TO.N,Board_5-/VCC*%
X121660000Y-51125000D03*
%TO.P,U1,5,GND*%
%TO.N,Board_5-GND*%
X121660000Y-50175000D03*
%TO.P,U1,6,SDA*%
%TO.N,Board_5-Net-(U1-SDA)*%
X121660000Y-49225000D03*
%TD*%
%TO.P,U1,1,SCL*%
%TO.N,Board_16-Net-(U1-SCL)*%
X133340000Y-83225000D03*
%TO.P,U1,2,GND*%
%TO.N,Board_16-GND*%
X133340000Y-84175000D03*
%TO.P,U1,3,GND*%
X133340000Y-85125000D03*
%TO.P,U1,4,VCC*%
%TO.N,Board_16-/VCC*%
X135660000Y-85125000D03*
%TO.P,U1,5,GND*%
%TO.N,Board_16-GND*%
X135660000Y-84175000D03*
%TO.P,U1,6,SDA*%
%TO.N,Board_16-Net-(U1-SDA)*%
X135660000Y-83225000D03*
%TD*%
%TO.P,U1,1,SCL*%
%TO.N,Board_15-Net-(U1-SCL)*%
X119340000Y-83225000D03*
%TO.P,U1,2,GND*%
%TO.N,Board_15-GND*%
X119340000Y-84175000D03*
%TO.P,U1,3,GND*%
X119340000Y-85125000D03*
%TO.P,U1,4,VCC*%
%TO.N,Board_15-/VCC*%
X121660000Y-85125000D03*
%TO.P,U1,5,GND*%
%TO.N,Board_15-GND*%
X121660000Y-84175000D03*
%TO.P,U1,6,SDA*%
%TO.N,Board_15-Net-(U1-SDA)*%
X121660000Y-83225000D03*
%TD*%
%TO.P,U1,1,SCL*%
%TO.N,Board_1-Net-(U1-SCL)*%
X133340000Y-32225000D03*
%TO.P,U1,2,GND*%
%TO.N,Board_1-GND*%
X133340000Y-33175000D03*
%TO.P,U1,3,GND*%
X133340000Y-34125000D03*
%TO.P,U1,4,VCC*%
%TO.N,Board_1-/VCC*%
X135660000Y-34125000D03*
%TO.P,U1,5,GND*%
%TO.N,Board_1-GND*%
X135660000Y-33175000D03*
%TO.P,U1,6,SDA*%
%TO.N,Board_1-Net-(U1-SDA)*%
X135660000Y-32225000D03*
%TD*%
%TO.P,U1,1,SCL*%
%TO.N,Board_4-Net-(U1-SCL)*%
X175340000Y-32225000D03*
%TO.P,U1,2,GND*%
%TO.N,Board_4-GND*%
X175340000Y-33175000D03*
%TO.P,U1,3,GND*%
X175340000Y-34125000D03*
%TO.P,U1,4,VCC*%
%TO.N,Board_4-/VCC*%
X177660000Y-34125000D03*
%TO.P,U1,5,GND*%
%TO.N,Board_4-GND*%
X177660000Y-33175000D03*
%TO.P,U1,6,SDA*%
%TO.N,Board_4-Net-(U1-SDA)*%
X177660000Y-32225000D03*
%TD*%
%TO.P,U1,1,SCL*%
%TO.N,Board_6-Net-(U1-SCL)*%
X133340000Y-49225000D03*
%TO.P,U1,2,GND*%
%TO.N,Board_6-GND*%
X133340000Y-50175000D03*
%TO.P,U1,3,GND*%
X133340000Y-51125000D03*
%TO.P,U1,4,VCC*%
%TO.N,Board_6-/VCC*%
X135660000Y-51125000D03*
%TO.P,U1,5,GND*%
%TO.N,Board_6-GND*%
X135660000Y-50175000D03*
%TO.P,U1,6,SDA*%
%TO.N,Board_6-Net-(U1-SDA)*%
X135660000Y-49225000D03*
%TD*%
%TO.P,U1,1,SCL*%
%TO.N,Board_13-Net-(U1-SCL)*%
X161340000Y-66225000D03*
%TO.P,U1,2,GND*%
%TO.N,Board_13-GND*%
X161340000Y-67175000D03*
%TO.P,U1,3,GND*%
X161340000Y-68125000D03*
%TO.P,U1,4,VCC*%
%TO.N,Board_13-/VCC*%
X163660000Y-68125000D03*
%TO.P,U1,5,GND*%
%TO.N,Board_13-GND*%
X163660000Y-67175000D03*
%TO.P,U1,6,SDA*%
%TO.N,Board_13-Net-(U1-SDA)*%
X163660000Y-66225000D03*
%TD*%
%TO.P,U1,1,SCL*%
%TO.N,Board_17-Net-(U1-SCL)*%
X147340000Y-83225000D03*
%TO.P,U1,2,GND*%
%TO.N,Board_17-GND*%
X147340000Y-84175000D03*
%TO.P,U1,3,GND*%
X147340000Y-85125000D03*
%TO.P,U1,4,VCC*%
%TO.N,Board_17-/VCC*%
X149660000Y-85125000D03*
%TO.P,U1,5,GND*%
%TO.N,Board_17-GND*%
X149660000Y-84175000D03*
%TO.P,U1,6,SDA*%
%TO.N,Board_17-Net-(U1-SDA)*%
X149660000Y-83225000D03*
%TD*%
%TO.P,U1,1,SCL*%
%TO.N,Board_19-Net-(U1-SCL)*%
X175340000Y-83225000D03*
%TO.P,U1,2,GND*%
%TO.N,Board_19-GND*%
X175340000Y-84175000D03*
%TO.P,U1,3,GND*%
X175340000Y-85125000D03*
%TO.P,U1,4,VCC*%
%TO.N,Board_19-/VCC*%
X177660000Y-85125000D03*
%TO.P,U1,5,GND*%
%TO.N,Board_19-GND*%
X177660000Y-84175000D03*
%TO.P,U1,6,SDA*%
%TO.N,Board_19-Net-(U1-SDA)*%
X177660000Y-83225000D03*
%TD*%
%TO.P,U1,1,SCL*%
%TO.N,Board_10-Net-(U1-SCL)*%
X119340000Y-66225000D03*
%TO.P,U1,2,GND*%
%TO.N,Board_10-GND*%
X119340000Y-67175000D03*
%TO.P,U1,3,GND*%
X119340000Y-68125000D03*
%TO.P,U1,4,VCC*%
%TO.N,Board_10-/VCC*%
X121660000Y-68125000D03*
%TO.P,U1,5,GND*%
%TO.N,Board_10-GND*%
X121660000Y-67175000D03*
%TO.P,U1,6,SDA*%
%TO.N,Board_10-Net-(U1-SDA)*%
X121660000Y-66225000D03*
%TD*%
%TO.P,U1,1,SCL*%
%TO.N,Board_20-Net-(U1-SCL)*%
X119340000Y-100225000D03*
%TO.P,U1,2,GND*%
%TO.N,Board_20-GND*%
X119340000Y-101175000D03*
%TO.P,U1,3,GND*%
X119340000Y-102125000D03*
%TO.P,U1,4,VCC*%
%TO.N,Board_20-/VCC*%
X121660000Y-102125000D03*
%TO.P,U1,5,GND*%
%TO.N,Board_20-GND*%
X121660000Y-101175000D03*
%TO.P,U1,6,SDA*%
%TO.N,Board_20-Net-(U1-SDA)*%
X121660000Y-100225000D03*
%TD*%
%TO.P,U1,1,SCL*%
%TO.N,Board_21-Net-(U1-SCL)*%
X133340000Y-100225000D03*
%TO.P,U1,2,GND*%
%TO.N,Board_21-GND*%
X133340000Y-101175000D03*
%TO.P,U1,3,GND*%
X133340000Y-102125000D03*
%TO.P,U1,4,VCC*%
%TO.N,Board_21-/VCC*%
X135660000Y-102125000D03*
%TO.P,U1,5,GND*%
%TO.N,Board_21-GND*%
X135660000Y-101175000D03*
%TO.P,U1,6,SDA*%
%TO.N,Board_21-Net-(U1-SDA)*%
X135660000Y-100225000D03*
%TD*%
%TO.P,U1,1,SCL*%
%TO.N,Board_7-Net-(U1-SCL)*%
X147340000Y-49225000D03*
%TO.P,U1,2,GND*%
%TO.N,Board_7-GND*%
X147340000Y-50175000D03*
%TO.P,U1,3,GND*%
X147340000Y-51125000D03*
%TO.P,U1,4,VCC*%
%TO.N,Board_7-/VCC*%
X149660000Y-51125000D03*
%TO.P,U1,5,GND*%
%TO.N,Board_7-GND*%
X149660000Y-50175000D03*
%TO.P,U1,6,SDA*%
%TO.N,Board_7-Net-(U1-SDA)*%
X149660000Y-49225000D03*
%TD*%
%TO.P,U1,1,SCL*%
%TO.N,Board_12-Net-(U1-SCL)*%
X147340000Y-66225000D03*
%TO.P,U1,2,GND*%
%TO.N,Board_12-GND*%
X147340000Y-67175000D03*
%TO.P,U1,3,GND*%
X147340000Y-68125000D03*
%TO.P,U1,4,VCC*%
%TO.N,Board_12-/VCC*%
X149660000Y-68125000D03*
%TO.P,U1,5,GND*%
%TO.N,Board_12-GND*%
X149660000Y-67175000D03*
%TO.P,U1,6,SDA*%
%TO.N,Board_12-Net-(U1-SDA)*%
X149660000Y-66225000D03*
%TD*%
%TO.P,U1,1,SCL*%
%TO.N,Board_23-Net-(U1-SCL)*%
X161340000Y-100225000D03*
%TO.P,U1,2,GND*%
%TO.N,Board_23-GND*%
X161340000Y-101175000D03*
%TO.P,U1,3,GND*%
X161340000Y-102125000D03*
%TO.P,U1,4,VCC*%
%TO.N,Board_23-/VCC*%
X163660000Y-102125000D03*
%TO.P,U1,5,GND*%
%TO.N,Board_23-GND*%
X163660000Y-101175000D03*
%TO.P,U1,6,SDA*%
%TO.N,Board_23-Net-(U1-SDA)*%
X163660000Y-100225000D03*
%TD*%
D15*
%TO.P,R3,1*%
%TO.N,Board_4-/VCC*%
X179000000Y-32010000D03*
%TO.P,R3,2*%
%TO.N,Board_4-/SDA*%
X179000000Y-30990000D03*
%TD*%
%TO.P,R3,1*%
%TO.N,Board_12-/VCC*%
X151000000Y-66010000D03*
%TO.P,R3,2*%
%TO.N,Board_12-/SDA*%
X151000000Y-64990000D03*
%TD*%
%TO.P,R3,1*%
%TO.N,Board_11-/VCC*%
X137000000Y-66010000D03*
%TO.P,R3,2*%
%TO.N,Board_11-/SDA*%
X137000000Y-64990000D03*
%TD*%
%TO.P,R3,1*%
%TO.N,Board_7-/VCC*%
X151000000Y-49010000D03*
%TO.P,R3,2*%
%TO.N,Board_7-/SDA*%
X151000000Y-47990000D03*
%TD*%
%TO.P,R3,1*%
%TO.N,Board_6-/VCC*%
X137000000Y-49010000D03*
%TO.P,R3,2*%
%TO.N,Board_6-/SDA*%
X137000000Y-47990000D03*
%TD*%
%TO.P,R3,1*%
%TO.N,Board_15-/VCC*%
X123000000Y-83010000D03*
%TO.P,R3,2*%
%TO.N,Board_15-/SDA*%
X123000000Y-81990000D03*
%TD*%
%TO.P,R3,1*%
%TO.N,Board_17-/VCC*%
X151000000Y-83010000D03*
%TO.P,R3,2*%
%TO.N,Board_17-/SDA*%
X151000000Y-81990000D03*
%TD*%
%TO.P,R3,1*%
%TO.N,Board_18-/VCC*%
X165000000Y-83010000D03*
%TO.P,R3,2*%
%TO.N,Board_18-/SDA*%
X165000000Y-81990000D03*
%TD*%
%TO.P,R3,1*%
%TO.N,Board_1-/VCC*%
X137000000Y-32010000D03*
%TO.P,R3,2*%
%TO.N,Board_1-/SDA*%
X137000000Y-30990000D03*
%TD*%
%TO.P,R3,1*%
%TO.N,Board_8-/VCC*%
X165000000Y-49010000D03*
%TO.P,R3,2*%
%TO.N,Board_8-/SDA*%
X165000000Y-47990000D03*
%TD*%
%TO.P,R3,1*%
%TO.N,Board_0-/VCC*%
X123000000Y-32010000D03*
%TO.P,R3,2*%
%TO.N,Board_0-/SDA*%
X123000000Y-30990000D03*
%TD*%
%TO.P,R3,1*%
%TO.N,Board_9-/VCC*%
X179000000Y-49010000D03*
%TO.P,R3,2*%
%TO.N,Board_9-/SDA*%
X179000000Y-47990000D03*
%TD*%
%TO.P,R3,1*%
%TO.N,Board_3-/VCC*%
X165000000Y-32010000D03*
%TO.P,R3,2*%
%TO.N,Board_3-/SDA*%
X165000000Y-30990000D03*
%TD*%
%TO.P,R3,1*%
%TO.N,Board_10-/VCC*%
X123000000Y-66010000D03*
%TO.P,R3,2*%
%TO.N,Board_10-/SDA*%
X123000000Y-64990000D03*
%TD*%
%TO.P,R3,1*%
%TO.N,Board_5-/VCC*%
X123000000Y-49010000D03*
%TO.P,R3,2*%
%TO.N,Board_5-/SDA*%
X123000000Y-47990000D03*
%TD*%
%TO.P,R3,1*%
%TO.N,Board_14-/VCC*%
X179000000Y-66010000D03*
%TO.P,R3,2*%
%TO.N,Board_14-/SDA*%
X179000000Y-64990000D03*
%TD*%
%TO.P,R3,1*%
%TO.N,Board_2-/VCC*%
X151000000Y-32010000D03*
%TO.P,R3,2*%
%TO.N,Board_2-/SDA*%
X151000000Y-30990000D03*
%TD*%
%TO.P,R3,1*%
%TO.N,Board_13-/VCC*%
X165000000Y-66010000D03*
%TO.P,R3,2*%
%TO.N,Board_13-/SDA*%
X165000000Y-64990000D03*
%TD*%
%TO.P,R3,1*%
%TO.N,Board_16-/VCC*%
X137000000Y-83010000D03*
%TO.P,R3,2*%
%TO.N,Board_16-/SDA*%
X137000000Y-81990000D03*
%TD*%
%TO.P,R3,1*%
%TO.N,Board_24-/VCC*%
X179000000Y-100010000D03*
%TO.P,R3,2*%
%TO.N,Board_24-/SDA*%
X179000000Y-98990000D03*
%TD*%
%TO.P,R3,1*%
%TO.N,Board_23-/VCC*%
X165000000Y-100010000D03*
%TO.P,R3,2*%
%TO.N,Board_23-/SDA*%
X165000000Y-98990000D03*
%TD*%
%TO.P,R3,1*%
%TO.N,Board_19-/VCC*%
X179000000Y-83010000D03*
%TO.P,R3,2*%
%TO.N,Board_19-/SDA*%
X179000000Y-81990000D03*
%TD*%
%TO.P,R3,1*%
%TO.N,Board_20-/VCC*%
X123000000Y-100010000D03*
%TO.P,R3,2*%
%TO.N,Board_20-/SDA*%
X123000000Y-98990000D03*
%TD*%
%TO.P,R3,1*%
%TO.N,Board_22-/VCC*%
X151000000Y-100010000D03*
%TO.P,R3,2*%
%TO.N,Board_22-/SDA*%
X151000000Y-98990000D03*
%TD*%
%TO.P,R3,1*%
%TO.N,Board_21-/VCC*%
X137000000Y-100010000D03*
%TO.P,R3,2*%
%TO.N,Board_21-/SDA*%
X137000000Y-98990000D03*
%TD*%
D17*
%TO.N,Board_0-/VCC*%
X117000000Y-34500000D03*
X120710500Y-33134098D03*
%TO.N,Board_0-GND*%
X120477701Y-34272299D03*
X122945644Y-33288848D03*
X126000000Y-31000000D03*
X120487182Y-32076780D03*
X125250000Y-34175000D03*
%TO.N,Board_1-/VCC*%
X131000000Y-34500000D03*
X134710500Y-33134098D03*
%TO.N,Board_1-GND*%
X134477701Y-34272299D03*
X136945644Y-33288848D03*
X140000000Y-31000000D03*
X134487182Y-32076780D03*
X139250000Y-34175000D03*
%TO.N,Board_2-/VCC*%
X145000000Y-34500000D03*
X148710500Y-33134098D03*
%TO.N,Board_2-GND*%
X148477701Y-34272299D03*
X150945644Y-33288848D03*
X154000000Y-31000000D03*
X148487182Y-32076780D03*
X153250000Y-34175000D03*
%TO.N,Board_3-/VCC*%
X159000000Y-34500000D03*
X162710500Y-33134098D03*
%TO.N,Board_3-GND*%
X162477701Y-34272299D03*
X164945644Y-33288848D03*
X168000000Y-31000000D03*
X162487182Y-32076780D03*
X167250000Y-34175000D03*
%TO.N,Board_4-/VCC*%
X173000000Y-34500000D03*
X176710500Y-33134098D03*
%TO.N,Board_4-GND*%
X176477701Y-34272299D03*
X178945644Y-33288848D03*
X182000000Y-31000000D03*
X176487182Y-32076780D03*
X181250000Y-34175000D03*
%TO.N,Board_5-/VCC*%
X117000000Y-51500000D03*
X120710500Y-50134098D03*
%TO.N,Board_5-GND*%
X120477701Y-51272299D03*
X122945644Y-50288848D03*
X126000000Y-48000000D03*
X120487182Y-49076780D03*
X125250000Y-51175000D03*
%TO.N,Board_6-/VCC*%
X131000000Y-51500000D03*
X134710500Y-50134098D03*
%TO.N,Board_6-GND*%
X134477701Y-51272299D03*
X136945644Y-50288848D03*
X140000000Y-48000000D03*
X134487182Y-49076780D03*
X139250000Y-51175000D03*
%TO.N,Board_7-/VCC*%
X145000000Y-51500000D03*
X148710500Y-50134098D03*
%TO.N,Board_7-GND*%
X148477701Y-51272299D03*
X150945644Y-50288848D03*
X154000000Y-48000000D03*
X148487182Y-49076780D03*
X153250000Y-51175000D03*
%TO.N,Board_8-/VCC*%
X159000000Y-51500000D03*
X162710500Y-50134098D03*
%TO.N,Board_8-GND*%
X162477701Y-51272299D03*
X164945644Y-50288848D03*
X168000000Y-48000000D03*
X162487182Y-49076780D03*
X167250000Y-51175000D03*
%TO.N,Board_9-/VCC*%
X173000000Y-51500000D03*
X176710500Y-50134098D03*
%TO.N,Board_9-GND*%
X176477701Y-51272299D03*
X178945644Y-50288848D03*
X182000000Y-48000000D03*
X176487182Y-49076780D03*
X181250000Y-51175000D03*
%TO.N,Board_10-/VCC*%
X117000000Y-68500000D03*
X120710500Y-67134098D03*
%TO.N,Board_10-GND*%
X120477701Y-68272299D03*
X122945644Y-67288848D03*
X126000000Y-65000000D03*
X120487182Y-66076780D03*
X125250000Y-68175000D03*
%TO.N,Board_11-/VCC*%
X131000000Y-68500000D03*
X134710500Y-67134098D03*
%TO.N,Board_11-GND*%
X134477701Y-68272299D03*
X136945644Y-67288848D03*
X140000000Y-65000000D03*
X134487182Y-66076780D03*
X139250000Y-68175000D03*
%TO.N,Board_12-/VCC*%
X145000000Y-68500000D03*
X148710500Y-67134098D03*
%TO.N,Board_12-GND*%
X148477701Y-68272299D03*
X150945644Y-67288848D03*
X154000000Y-65000000D03*
X148487182Y-66076780D03*
X153250000Y-68175000D03*
%TO.N,Board_13-/VCC*%
X159000000Y-68500000D03*
X162710500Y-67134098D03*
%TO.N,Board_13-GND*%
X162477701Y-68272299D03*
X164945644Y-67288848D03*
X168000000Y-65000000D03*
X162487182Y-66076780D03*
X167250000Y-68175000D03*
%TO.N,Board_14-/VCC*%
X173000000Y-68500000D03*
X176710500Y-67134098D03*
%TO.N,Board_14-GND*%
X176477701Y-68272299D03*
X178945644Y-67288848D03*
X182000000Y-65000000D03*
X176487182Y-66076780D03*
X181250000Y-68175000D03*
%TO.N,Board_15-/VCC*%
X117000000Y-85500000D03*
X120710500Y-84134098D03*
%TO.N,Board_15-GND*%
X120477701Y-85272299D03*
X122945644Y-84288848D03*
X126000000Y-82000000D03*
X120487182Y-83076780D03*
X125250000Y-85175000D03*
%TO.N,Board_16-/VCC*%
X131000000Y-85500000D03*
X134710500Y-84134098D03*
%TO.N,Board_16-GND*%
X134477701Y-85272299D03*
X136945644Y-84288848D03*
X140000000Y-82000000D03*
X134487182Y-83076780D03*
X139250000Y-85175000D03*
%TO.N,Board_17-/VCC*%
X145000000Y-85500000D03*
X148710500Y-84134098D03*
%TO.N,Board_17-GND*%
X148477701Y-85272299D03*
X150945644Y-84288848D03*
X154000000Y-82000000D03*
X148487182Y-83076780D03*
X153250000Y-85175000D03*
%TO.N,Board_18-/VCC*%
X159000000Y-85500000D03*
X162710500Y-84134098D03*
%TO.N,Board_18-GND*%
X162477701Y-85272299D03*
X164945644Y-84288848D03*
X168000000Y-82000000D03*
X162487182Y-83076780D03*
X167250000Y-85175000D03*
%TO.N,Board_19-/VCC*%
X173000000Y-85500000D03*
X176710500Y-84134098D03*
%TO.N,Board_19-GND*%
X176477701Y-85272299D03*
X178945644Y-84288848D03*
X182000000Y-82000000D03*
X176487182Y-83076780D03*
X181250000Y-85175000D03*
%TO.N,Board_20-/VCC*%
X117000000Y-102500000D03*
X120710500Y-101134098D03*
%TO.N,Board_20-GND*%
X120477701Y-102272299D03*
X122945644Y-101288848D03*
X126000000Y-99000000D03*
X120487182Y-100076780D03*
X125250000Y-102175000D03*
%TO.N,Board_21-/VCC*%
X131000000Y-102500000D03*
X134710500Y-101134098D03*
%TO.N,Board_21-GND*%
X134477701Y-102272299D03*
X136945644Y-101288848D03*
X140000000Y-99000000D03*
X134487182Y-100076780D03*
X139250000Y-102175000D03*
%TO.N,Board_22-/VCC*%
X145000000Y-102500000D03*
X148710500Y-101134098D03*
%TO.N,Board_22-GND*%
X148477701Y-102272299D03*
X150945644Y-101288848D03*
X154000000Y-99000000D03*
X148487182Y-100076780D03*
X153250000Y-102175000D03*
%TO.N,Board_23-/VCC*%
X159000000Y-102500000D03*
X162710500Y-101134098D03*
%TO.N,Board_23-GND*%
X162477701Y-102272299D03*
X164945644Y-101288848D03*
X168000000Y-99000000D03*
X162487182Y-100076780D03*
X167250000Y-102175000D03*
%TO.N,Board_24-/VCC*%
X173000000Y-102500000D03*
X176710500Y-101134098D03*
%TO.N,Board_24-GND*%
X176477701Y-102272299D03*
X178945644Y-101288848D03*
X182000000Y-99000000D03*
X176487182Y-100076780D03*
X181250000Y-102175000D03*
%TD*%
D18*
%TO.N,Board_0-/SCL*%
X116000000Y-30990000D02*
X116730000Y-30260000D01*
X116730000Y-30260000D02*
X116730000Y-28650000D01*
X116000000Y-33490000D02*
X115355000Y-32845000D01*
X115355000Y-32845000D02*
X115355000Y-31635000D01*
X115355000Y-31635000D02*
X116000000Y-30990000D01*
%TO.N,Board_0-/SDA*%
X122899462Y-30889462D02*
X123000000Y-30990000D01*
X117750000Y-30990000D02*
X117850538Y-30889462D01*
X117850538Y-30889462D02*
X122899462Y-30889462D01*
X117750000Y-30170000D02*
X119270000Y-28650000D01*
X117750000Y-30990000D02*
X117750000Y-30170000D01*
%TO.N,Board_0-/VCC*%
X123797500Y-31212500D02*
X123000000Y-32010000D01*
X120710500Y-33134098D02*
X120710500Y-33480500D01*
X123670644Y-32680644D02*
X123670644Y-33774356D01*
X121355000Y-34125000D02*
X121660000Y-34125000D01*
X123000000Y-32010000D02*
X123670644Y-32680644D01*
X124500000Y-31212500D02*
X123797500Y-31212500D01*
X123670644Y-33774356D02*
X123270000Y-34175000D01*
X120710500Y-33480500D02*
X121355000Y-34125000D01*
X121660000Y-34125000D02*
X123220000Y-34125000D01*
X124350000Y-28650000D02*
X124350000Y-31062500D01*
X124350000Y-31062500D02*
X124500000Y-31212500D01*
X123220000Y-34125000D02*
X123270000Y-34175000D01*
X117000000Y-34500000D02*
X116010000Y-34500000D01*
X116010000Y-34500000D02*
X116000000Y-34510000D01*
%TO.N,Board_0-GND*%
X120487182Y-32332818D02*
X119645000Y-33175000D01*
X120477701Y-34272299D02*
X120330402Y-34125000D01*
X124230000Y-34175000D02*
X125250000Y-34175000D01*
X122831796Y-33175000D02*
X122945644Y-33288848D01*
X120487182Y-32076780D02*
X120487182Y-32332818D01*
X120330402Y-34125000D02*
X119340000Y-34125000D01*
X121660000Y-33175000D02*
X122831796Y-33175000D01*
X119645000Y-33175000D02*
X119340000Y-33175000D01*
X126000000Y-31990000D02*
X126000000Y-31000000D01*
%TO.N,Board_0-Net-(D1-K)*%
X125777500Y-32787500D02*
X126000000Y-33010000D01*
X124500000Y-32787500D02*
X125777500Y-32787500D01*
%TO.N,Board_0-Net-(U1-SCL)*%
X118505538Y-32225000D02*
X117980538Y-32750000D01*
X116740000Y-32750000D02*
X116000000Y-32010000D01*
X117980538Y-32750000D02*
X116740000Y-32750000D01*
X119340000Y-32225000D02*
X118505538Y-32225000D01*
%TO.N,Board_0-Net-(U1-SDA)*%
X121660000Y-32225000D02*
X120774462Y-31339462D01*
X120774462Y-31339462D02*
X118420538Y-31339462D01*
X118420538Y-31339462D02*
X117750000Y-32010000D01*
%TO.N,Board_1-/SCL*%
X130000000Y-30990000D02*
X130730000Y-30260000D01*
X130730000Y-30260000D02*
X130730000Y-28650000D01*
X130000000Y-33490000D02*
X129355000Y-32845000D01*
X129355000Y-32845000D02*
X129355000Y-31635000D01*
X129355000Y-31635000D02*
X130000000Y-30990000D01*
%TO.N,Board_1-/SDA*%
X136899462Y-30889462D02*
X137000000Y-30990000D01*
X131750000Y-30990000D02*
X131850538Y-30889462D01*
X131850538Y-30889462D02*
X136899462Y-30889462D01*
X131750000Y-30170000D02*
X133270000Y-28650000D01*
X131750000Y-30990000D02*
X131750000Y-30170000D01*
%TO.N,Board_1-/VCC*%
X137797500Y-31212500D02*
X137000000Y-32010000D01*
X134710500Y-33134098D02*
X134710500Y-33480500D01*
X137670644Y-32680644D02*
X137670644Y-33774356D01*
X135355000Y-34125000D02*
X135660000Y-34125000D01*
X137000000Y-32010000D02*
X137670644Y-32680644D01*
X138500000Y-31212500D02*
X137797500Y-31212500D01*
X137670644Y-33774356D02*
X137270000Y-34175000D01*
X134710500Y-33480500D02*
X135355000Y-34125000D01*
X135660000Y-34125000D02*
X137220000Y-34125000D01*
X138350000Y-28650000D02*
X138350000Y-31062500D01*
X138350000Y-31062500D02*
X138500000Y-31212500D01*
X137220000Y-34125000D02*
X137270000Y-34175000D01*
X131000000Y-34500000D02*
X130010000Y-34500000D01*
X130010000Y-34500000D02*
X130000000Y-34510000D01*
%TO.N,Board_1-GND*%
X134487182Y-32332818D02*
X133645000Y-33175000D01*
X134477701Y-34272299D02*
X134330402Y-34125000D01*
X138230000Y-34175000D02*
X139250000Y-34175000D01*
X136831796Y-33175000D02*
X136945644Y-33288848D01*
X134487182Y-32076780D02*
X134487182Y-32332818D01*
X134330402Y-34125000D02*
X133340000Y-34125000D01*
X135660000Y-33175000D02*
X136831796Y-33175000D01*
X133645000Y-33175000D02*
X133340000Y-33175000D01*
X140000000Y-31990000D02*
X140000000Y-31000000D01*
%TO.N,Board_1-Net-(D1-K)*%
X139777500Y-32787500D02*
X140000000Y-33010000D01*
X138500000Y-32787500D02*
X139777500Y-32787500D01*
%TO.N,Board_1-Net-(U1-SCL)*%
X132505538Y-32225000D02*
X131980538Y-32750000D01*
X130740000Y-32750000D02*
X130000000Y-32010000D01*
X131980538Y-32750000D02*
X130740000Y-32750000D01*
X133340000Y-32225000D02*
X132505538Y-32225000D01*
%TO.N,Board_1-Net-(U1-SDA)*%
X135660000Y-32225000D02*
X134774462Y-31339462D01*
X134774462Y-31339462D02*
X132420538Y-31339462D01*
X132420538Y-31339462D02*
X131750000Y-32010000D01*
%TO.N,Board_2-/SCL*%
X144000000Y-30990000D02*
X144730000Y-30260000D01*
X144730000Y-30260000D02*
X144730000Y-28650000D01*
X144000000Y-33490000D02*
X143355000Y-32845000D01*
X143355000Y-32845000D02*
X143355000Y-31635000D01*
X143355000Y-31635000D02*
X144000000Y-30990000D01*
%TO.N,Board_2-/SDA*%
X150899462Y-30889462D02*
X151000000Y-30990000D01*
X145750000Y-30990000D02*
X145850538Y-30889462D01*
X145850538Y-30889462D02*
X150899462Y-30889462D01*
X145750000Y-30170000D02*
X147270000Y-28650000D01*
X145750000Y-30990000D02*
X145750000Y-30170000D01*
%TO.N,Board_2-/VCC*%
X151797500Y-31212500D02*
X151000000Y-32010000D01*
X148710500Y-33134098D02*
X148710500Y-33480500D01*
X151670644Y-32680644D02*
X151670644Y-33774356D01*
X149355000Y-34125000D02*
X149660000Y-34125000D01*
X151000000Y-32010000D02*
X151670644Y-32680644D01*
X152500000Y-31212500D02*
X151797500Y-31212500D01*
X151670644Y-33774356D02*
X151270000Y-34175000D01*
X148710500Y-33480500D02*
X149355000Y-34125000D01*
X149660000Y-34125000D02*
X151220000Y-34125000D01*
X152350000Y-28650000D02*
X152350000Y-31062500D01*
X152350000Y-31062500D02*
X152500000Y-31212500D01*
X151220000Y-34125000D02*
X151270000Y-34175000D01*
X145000000Y-34500000D02*
X144010000Y-34500000D01*
X144010000Y-34500000D02*
X144000000Y-34510000D01*
%TO.N,Board_2-GND*%
X148487182Y-32332818D02*
X147645000Y-33175000D01*
X148477701Y-34272299D02*
X148330402Y-34125000D01*
X152230000Y-34175000D02*
X153250000Y-34175000D01*
X150831796Y-33175000D02*
X150945644Y-33288848D01*
X148487182Y-32076780D02*
X148487182Y-32332818D01*
X148330402Y-34125000D02*
X147340000Y-34125000D01*
X149660000Y-33175000D02*
X150831796Y-33175000D01*
X147645000Y-33175000D02*
X147340000Y-33175000D01*
X154000000Y-31990000D02*
X154000000Y-31000000D01*
%TO.N,Board_2-Net-(D1-K)*%
X153777500Y-32787500D02*
X154000000Y-33010000D01*
X152500000Y-32787500D02*
X153777500Y-32787500D01*
%TO.N,Board_2-Net-(U1-SCL)*%
X146505538Y-32225000D02*
X145980538Y-32750000D01*
X144740000Y-32750000D02*
X144000000Y-32010000D01*
X145980538Y-32750000D02*
X144740000Y-32750000D01*
X147340000Y-32225000D02*
X146505538Y-32225000D01*
%TO.N,Board_2-Net-(U1-SDA)*%
X149660000Y-32225000D02*
X148774462Y-31339462D01*
X148774462Y-31339462D02*
X146420538Y-31339462D01*
X146420538Y-31339462D02*
X145750000Y-32010000D01*
%TO.N,Board_3-/SCL*%
X158000000Y-30990000D02*
X158730000Y-30260000D01*
X158730000Y-30260000D02*
X158730000Y-28650000D01*
X158000000Y-33490000D02*
X157355000Y-32845000D01*
X157355000Y-32845000D02*
X157355000Y-31635000D01*
X157355000Y-31635000D02*
X158000000Y-30990000D01*
%TO.N,Board_3-/SDA*%
X164899462Y-30889462D02*
X165000000Y-30990000D01*
X159750000Y-30990000D02*
X159850538Y-30889462D01*
X159850538Y-30889462D02*
X164899462Y-30889462D01*
X159750000Y-30170000D02*
X161270000Y-28650000D01*
X159750000Y-30990000D02*
X159750000Y-30170000D01*
%TO.N,Board_3-/VCC*%
X165797500Y-31212500D02*
X165000000Y-32010000D01*
X162710500Y-33134098D02*
X162710500Y-33480500D01*
X165670644Y-32680644D02*
X165670644Y-33774356D01*
X163355000Y-34125000D02*
X163660000Y-34125000D01*
X165000000Y-32010000D02*
X165670644Y-32680644D01*
X166500000Y-31212500D02*
X165797500Y-31212500D01*
X165670644Y-33774356D02*
X165270000Y-34175000D01*
X162710500Y-33480500D02*
X163355000Y-34125000D01*
X163660000Y-34125000D02*
X165220000Y-34125000D01*
X166350000Y-28650000D02*
X166350000Y-31062500D01*
X166350000Y-31062500D02*
X166500000Y-31212500D01*
X165220000Y-34125000D02*
X165270000Y-34175000D01*
X159000000Y-34500000D02*
X158010000Y-34500000D01*
X158010000Y-34500000D02*
X158000000Y-34510000D01*
%TO.N,Board_3-GND*%
X162487182Y-32332818D02*
X161645000Y-33175000D01*
X162477701Y-34272299D02*
X162330402Y-34125000D01*
X166230000Y-34175000D02*
X167250000Y-34175000D01*
X164831796Y-33175000D02*
X164945644Y-33288848D01*
X162487182Y-32076780D02*
X162487182Y-32332818D01*
X162330402Y-34125000D02*
X161340000Y-34125000D01*
X163660000Y-33175000D02*
X164831796Y-33175000D01*
X161645000Y-33175000D02*
X161340000Y-33175000D01*
X168000000Y-31990000D02*
X168000000Y-31000000D01*
%TO.N,Board_3-Net-(D1-K)*%
X167777500Y-32787500D02*
X168000000Y-33010000D01*
X166500000Y-32787500D02*
X167777500Y-32787500D01*
%TO.N,Board_3-Net-(U1-SCL)*%
X160505538Y-32225000D02*
X159980538Y-32750000D01*
X158740000Y-32750000D02*
X158000000Y-32010000D01*
X159980538Y-32750000D02*
X158740000Y-32750000D01*
X161340000Y-32225000D02*
X160505538Y-32225000D01*
%TO.N,Board_3-Net-(U1-SDA)*%
X163660000Y-32225000D02*
X162774462Y-31339462D01*
X162774462Y-31339462D02*
X160420538Y-31339462D01*
X160420538Y-31339462D02*
X159750000Y-32010000D01*
%TO.N,Board_4-/SCL*%
X172000000Y-30990000D02*
X172730000Y-30260000D01*
X172730000Y-30260000D02*
X172730000Y-28650000D01*
X172000000Y-33490000D02*
X171355000Y-32845000D01*
X171355000Y-32845000D02*
X171355000Y-31635000D01*
X171355000Y-31635000D02*
X172000000Y-30990000D01*
%TO.N,Board_4-/SDA*%
X178899462Y-30889462D02*
X179000000Y-30990000D01*
X173750000Y-30990000D02*
X173850538Y-30889462D01*
X173850538Y-30889462D02*
X178899462Y-30889462D01*
X173750000Y-30170000D02*
X175270000Y-28650000D01*
X173750000Y-30990000D02*
X173750000Y-30170000D01*
%TO.N,Board_4-/VCC*%
X179797500Y-31212500D02*
X179000000Y-32010000D01*
X176710500Y-33134098D02*
X176710500Y-33480500D01*
X179670644Y-32680644D02*
X179670644Y-33774356D01*
X177355000Y-34125000D02*
X177660000Y-34125000D01*
X179000000Y-32010000D02*
X179670644Y-32680644D01*
X180500000Y-31212500D02*
X179797500Y-31212500D01*
X179670644Y-33774356D02*
X179270000Y-34175000D01*
X176710500Y-33480500D02*
X177355000Y-34125000D01*
X177660000Y-34125000D02*
X179220000Y-34125000D01*
X180350000Y-28650000D02*
X180350000Y-31062500D01*
X180350000Y-31062500D02*
X180500000Y-31212500D01*
X179220000Y-34125000D02*
X179270000Y-34175000D01*
X173000000Y-34500000D02*
X172010000Y-34500000D01*
X172010000Y-34500000D02*
X172000000Y-34510000D01*
%TO.N,Board_4-GND*%
X176487182Y-32332818D02*
X175645000Y-33175000D01*
X176477701Y-34272299D02*
X176330402Y-34125000D01*
X180230000Y-34175000D02*
X181250000Y-34175000D01*
X178831796Y-33175000D02*
X178945644Y-33288848D01*
X176487182Y-32076780D02*
X176487182Y-32332818D01*
X176330402Y-34125000D02*
X175340000Y-34125000D01*
X177660000Y-33175000D02*
X178831796Y-33175000D01*
X175645000Y-33175000D02*
X175340000Y-33175000D01*
X182000000Y-31990000D02*
X182000000Y-31000000D01*
%TO.N,Board_4-Net-(D1-K)*%
X181777500Y-32787500D02*
X182000000Y-33010000D01*
X180500000Y-32787500D02*
X181777500Y-32787500D01*
%TO.N,Board_4-Net-(U1-SCL)*%
X174505538Y-32225000D02*
X173980538Y-32750000D01*
X172740000Y-32750000D02*
X172000000Y-32010000D01*
X173980538Y-32750000D02*
X172740000Y-32750000D01*
X175340000Y-32225000D02*
X174505538Y-32225000D01*
%TO.N,Board_4-Net-(U1-SDA)*%
X177660000Y-32225000D02*
X176774462Y-31339462D01*
X176774462Y-31339462D02*
X174420538Y-31339462D01*
X174420538Y-31339462D02*
X173750000Y-32010000D01*
%TO.N,Board_5-/SCL*%
X116000000Y-47990000D02*
X116730000Y-47260000D01*
X116730000Y-47260000D02*
X116730000Y-45650000D01*
X116000000Y-50490000D02*
X115355000Y-49845000D01*
X115355000Y-49845000D02*
X115355000Y-48635000D01*
X115355000Y-48635000D02*
X116000000Y-47990000D01*
%TO.N,Board_5-/SDA*%
X122899462Y-47889462D02*
X123000000Y-47990000D01*
X117750000Y-47990000D02*
X117850538Y-47889462D01*
X117850538Y-47889462D02*
X122899462Y-47889462D01*
X117750000Y-47170000D02*
X119270000Y-45650000D01*
X117750000Y-47990000D02*
X117750000Y-47170000D01*
%TO.N,Board_5-/VCC*%
X123797500Y-48212500D02*
X123000000Y-49010000D01*
X120710500Y-50134098D02*
X120710500Y-50480500D01*
X123670644Y-49680644D02*
X123670644Y-50774356D01*
X121355000Y-51125000D02*
X121660000Y-51125000D01*
X123000000Y-49010000D02*
X123670644Y-49680644D01*
X124500000Y-48212500D02*
X123797500Y-48212500D01*
X123670644Y-50774356D02*
X123270000Y-51175000D01*
X120710500Y-50480500D02*
X121355000Y-51125000D01*
X121660000Y-51125000D02*
X123220000Y-51125000D01*
X124350000Y-45650000D02*
X124350000Y-48062500D01*
X124350000Y-48062500D02*
X124500000Y-48212500D01*
X123220000Y-51125000D02*
X123270000Y-51175000D01*
X117000000Y-51500000D02*
X116010000Y-51500000D01*
X116010000Y-51500000D02*
X116000000Y-51510000D01*
%TO.N,Board_5-GND*%
X120487182Y-49332818D02*
X119645000Y-50175000D01*
X120477701Y-51272299D02*
X120330402Y-51125000D01*
X124230000Y-51175000D02*
X125250000Y-51175000D01*
X122831796Y-50175000D02*
X122945644Y-50288848D01*
X120487182Y-49076780D02*
X120487182Y-49332818D01*
X120330402Y-51125000D02*
X119340000Y-51125000D01*
X121660000Y-50175000D02*
X122831796Y-50175000D01*
X119645000Y-50175000D02*
X119340000Y-50175000D01*
X126000000Y-48990000D02*
X126000000Y-48000000D01*
%TO.N,Board_5-Net-(D1-K)*%
X125777500Y-49787500D02*
X126000000Y-50010000D01*
X124500000Y-49787500D02*
X125777500Y-49787500D01*
%TO.N,Board_5-Net-(U1-SCL)*%
X118505538Y-49225000D02*
X117980538Y-49750000D01*
X116740000Y-49750000D02*
X116000000Y-49010000D01*
X117980538Y-49750000D02*
X116740000Y-49750000D01*
X119340000Y-49225000D02*
X118505538Y-49225000D01*
%TO.N,Board_5-Net-(U1-SDA)*%
X121660000Y-49225000D02*
X120774462Y-48339462D01*
X120774462Y-48339462D02*
X118420538Y-48339462D01*
X118420538Y-48339462D02*
X117750000Y-49010000D01*
%TO.N,Board_6-/SCL*%
X130000000Y-47990000D02*
X130730000Y-47260000D01*
X130730000Y-47260000D02*
X130730000Y-45650000D01*
X130000000Y-50490000D02*
X129355000Y-49845000D01*
X129355000Y-49845000D02*
X129355000Y-48635000D01*
X129355000Y-48635000D02*
X130000000Y-47990000D01*
%TO.N,Board_6-/SDA*%
X136899462Y-47889462D02*
X137000000Y-47990000D01*
X131750000Y-47990000D02*
X131850538Y-47889462D01*
X131850538Y-47889462D02*
X136899462Y-47889462D01*
X131750000Y-47170000D02*
X133270000Y-45650000D01*
X131750000Y-47990000D02*
X131750000Y-47170000D01*
%TO.N,Board_6-/VCC*%
X137797500Y-48212500D02*
X137000000Y-49010000D01*
X134710500Y-50134098D02*
X134710500Y-50480500D01*
X137670644Y-49680644D02*
X137670644Y-50774356D01*
X135355000Y-51125000D02*
X135660000Y-51125000D01*
X137000000Y-49010000D02*
X137670644Y-49680644D01*
X138500000Y-48212500D02*
X137797500Y-48212500D01*
X137670644Y-50774356D02*
X137270000Y-51175000D01*
X134710500Y-50480500D02*
X135355000Y-51125000D01*
X135660000Y-51125000D02*
X137220000Y-51125000D01*
X138350000Y-45650000D02*
X138350000Y-48062500D01*
X138350000Y-48062500D02*
X138500000Y-48212500D01*
X137220000Y-51125000D02*
X137270000Y-51175000D01*
X131000000Y-51500000D02*
X130010000Y-51500000D01*
X130010000Y-51500000D02*
X130000000Y-51510000D01*
%TO.N,Board_6-GND*%
X134487182Y-49332818D02*
X133645000Y-50175000D01*
X134477701Y-51272299D02*
X134330402Y-51125000D01*
X138230000Y-51175000D02*
X139250000Y-51175000D01*
X136831796Y-50175000D02*
X136945644Y-50288848D01*
X134487182Y-49076780D02*
X134487182Y-49332818D01*
X134330402Y-51125000D02*
X133340000Y-51125000D01*
X135660000Y-50175000D02*
X136831796Y-50175000D01*
X133645000Y-50175000D02*
X133340000Y-50175000D01*
X140000000Y-48990000D02*
X140000000Y-48000000D01*
%TO.N,Board_6-Net-(D1-K)*%
X139777500Y-49787500D02*
X140000000Y-50010000D01*
X138500000Y-49787500D02*
X139777500Y-49787500D01*
%TO.N,Board_6-Net-(U1-SCL)*%
X132505538Y-49225000D02*
X131980538Y-49750000D01*
X130740000Y-49750000D02*
X130000000Y-49010000D01*
X131980538Y-49750000D02*
X130740000Y-49750000D01*
X133340000Y-49225000D02*
X132505538Y-49225000D01*
%TO.N,Board_6-Net-(U1-SDA)*%
X135660000Y-49225000D02*
X134774462Y-48339462D01*
X134774462Y-48339462D02*
X132420538Y-48339462D01*
X132420538Y-48339462D02*
X131750000Y-49010000D01*
%TO.N,Board_7-/SCL*%
X144000000Y-47990000D02*
X144730000Y-47260000D01*
X144730000Y-47260000D02*
X144730000Y-45650000D01*
X144000000Y-50490000D02*
X143355000Y-49845000D01*
X143355000Y-49845000D02*
X143355000Y-48635000D01*
X143355000Y-48635000D02*
X144000000Y-47990000D01*
%TO.N,Board_7-/SDA*%
X150899462Y-47889462D02*
X151000000Y-47990000D01*
X145750000Y-47990000D02*
X145850538Y-47889462D01*
X145850538Y-47889462D02*
X150899462Y-47889462D01*
X145750000Y-47170000D02*
X147270000Y-45650000D01*
X145750000Y-47990000D02*
X145750000Y-47170000D01*
%TO.N,Board_7-/VCC*%
X151797500Y-48212500D02*
X151000000Y-49010000D01*
X148710500Y-50134098D02*
X148710500Y-50480500D01*
X151670644Y-49680644D02*
X151670644Y-50774356D01*
X149355000Y-51125000D02*
X149660000Y-51125000D01*
X151000000Y-49010000D02*
X151670644Y-49680644D01*
X152500000Y-48212500D02*
X151797500Y-48212500D01*
X151670644Y-50774356D02*
X151270000Y-51175000D01*
X148710500Y-50480500D02*
X149355000Y-51125000D01*
X149660000Y-51125000D02*
X151220000Y-51125000D01*
X152350000Y-45650000D02*
X152350000Y-48062500D01*
X152350000Y-48062500D02*
X152500000Y-48212500D01*
X151220000Y-51125000D02*
X151270000Y-51175000D01*
X145000000Y-51500000D02*
X144010000Y-51500000D01*
X144010000Y-51500000D02*
X144000000Y-51510000D01*
%TO.N,Board_7-GND*%
X148487182Y-49332818D02*
X147645000Y-50175000D01*
X148477701Y-51272299D02*
X148330402Y-51125000D01*
X152230000Y-51175000D02*
X153250000Y-51175000D01*
X150831796Y-50175000D02*
X150945644Y-50288848D01*
X148487182Y-49076780D02*
X148487182Y-49332818D01*
X148330402Y-51125000D02*
X147340000Y-51125000D01*
X149660000Y-50175000D02*
X150831796Y-50175000D01*
X147645000Y-50175000D02*
X147340000Y-50175000D01*
X154000000Y-48990000D02*
X154000000Y-48000000D01*
%TO.N,Board_7-Net-(D1-K)*%
X153777500Y-49787500D02*
X154000000Y-50010000D01*
X152500000Y-49787500D02*
X153777500Y-49787500D01*
%TO.N,Board_7-Net-(U1-SCL)*%
X146505538Y-49225000D02*
X145980538Y-49750000D01*
X144740000Y-49750000D02*
X144000000Y-49010000D01*
X145980538Y-49750000D02*
X144740000Y-49750000D01*
X147340000Y-49225000D02*
X146505538Y-49225000D01*
%TO.N,Board_7-Net-(U1-SDA)*%
X149660000Y-49225000D02*
X148774462Y-48339462D01*
X148774462Y-48339462D02*
X146420538Y-48339462D01*
X146420538Y-48339462D02*
X145750000Y-49010000D01*
%TO.N,Board_8-/SCL*%
X158000000Y-47990000D02*
X158730000Y-47260000D01*
X158730000Y-47260000D02*
X158730000Y-45650000D01*
X158000000Y-50490000D02*
X157355000Y-49845000D01*
X157355000Y-49845000D02*
X157355000Y-48635000D01*
X157355000Y-48635000D02*
X158000000Y-47990000D01*
%TO.N,Board_8-/SDA*%
X164899462Y-47889462D02*
X165000000Y-47990000D01*
X159750000Y-47990000D02*
X159850538Y-47889462D01*
X159850538Y-47889462D02*
X164899462Y-47889462D01*
X159750000Y-47170000D02*
X161270000Y-45650000D01*
X159750000Y-47990000D02*
X159750000Y-47170000D01*
%TO.N,Board_8-/VCC*%
X165797500Y-48212500D02*
X165000000Y-49010000D01*
X162710500Y-50134098D02*
X162710500Y-50480500D01*
X165670644Y-49680644D02*
X165670644Y-50774356D01*
X163355000Y-51125000D02*
X163660000Y-51125000D01*
X165000000Y-49010000D02*
X165670644Y-49680644D01*
X166500000Y-48212500D02*
X165797500Y-48212500D01*
X165670644Y-50774356D02*
X165270000Y-51175000D01*
X162710500Y-50480500D02*
X163355000Y-51125000D01*
X163660000Y-51125000D02*
X165220000Y-51125000D01*
X166350000Y-45650000D02*
X166350000Y-48062500D01*
X166350000Y-48062500D02*
X166500000Y-48212500D01*
X165220000Y-51125000D02*
X165270000Y-51175000D01*
X159000000Y-51500000D02*
X158010000Y-51500000D01*
X158010000Y-51500000D02*
X158000000Y-51510000D01*
%TO.N,Board_8-GND*%
X162487182Y-49332818D02*
X161645000Y-50175000D01*
X162477701Y-51272299D02*
X162330402Y-51125000D01*
X166230000Y-51175000D02*
X167250000Y-51175000D01*
X164831796Y-50175000D02*
X164945644Y-50288848D01*
X162487182Y-49076780D02*
X162487182Y-49332818D01*
X162330402Y-51125000D02*
X161340000Y-51125000D01*
X163660000Y-50175000D02*
X164831796Y-50175000D01*
X161645000Y-50175000D02*
X161340000Y-50175000D01*
X168000000Y-48990000D02*
X168000000Y-48000000D01*
%TO.N,Board_8-Net-(D1-K)*%
X167777500Y-49787500D02*
X168000000Y-50010000D01*
X166500000Y-49787500D02*
X167777500Y-49787500D01*
%TO.N,Board_8-Net-(U1-SCL)*%
X160505538Y-49225000D02*
X159980538Y-49750000D01*
X158740000Y-49750000D02*
X158000000Y-49010000D01*
X159980538Y-49750000D02*
X158740000Y-49750000D01*
X161340000Y-49225000D02*
X160505538Y-49225000D01*
%TO.N,Board_8-Net-(U1-SDA)*%
X163660000Y-49225000D02*
X162774462Y-48339462D01*
X162774462Y-48339462D02*
X160420538Y-48339462D01*
X160420538Y-48339462D02*
X159750000Y-49010000D01*
%TO.N,Board_9-/SCL*%
X172000000Y-47990000D02*
X172730000Y-47260000D01*
X172730000Y-47260000D02*
X172730000Y-45650000D01*
X172000000Y-50490000D02*
X171355000Y-49845000D01*
X171355000Y-49845000D02*
X171355000Y-48635000D01*
X171355000Y-48635000D02*
X172000000Y-47990000D01*
%TO.N,Board_9-/SDA*%
X178899462Y-47889462D02*
X179000000Y-47990000D01*
X173750000Y-47990000D02*
X173850538Y-47889462D01*
X173850538Y-47889462D02*
X178899462Y-47889462D01*
X173750000Y-47170000D02*
X175270000Y-45650000D01*
X173750000Y-47990000D02*
X173750000Y-47170000D01*
%TO.N,Board_9-/VCC*%
X179797500Y-48212500D02*
X179000000Y-49010000D01*
X176710500Y-50134098D02*
X176710500Y-50480500D01*
X179670644Y-49680644D02*
X179670644Y-50774356D01*
X177355000Y-51125000D02*
X177660000Y-51125000D01*
X179000000Y-49010000D02*
X179670644Y-49680644D01*
X180500000Y-48212500D02*
X179797500Y-48212500D01*
X179670644Y-50774356D02*
X179270000Y-51175000D01*
X176710500Y-50480500D02*
X177355000Y-51125000D01*
X177660000Y-51125000D02*
X179220000Y-51125000D01*
X180350000Y-45650000D02*
X180350000Y-48062500D01*
X180350000Y-48062500D02*
X180500000Y-48212500D01*
X179220000Y-51125000D02*
X179270000Y-51175000D01*
X173000000Y-51500000D02*
X172010000Y-51500000D01*
X172010000Y-51500000D02*
X172000000Y-51510000D01*
%TO.N,Board_9-GND*%
X176487182Y-49332818D02*
X175645000Y-50175000D01*
X176477701Y-51272299D02*
X176330402Y-51125000D01*
X180230000Y-51175000D02*
X181250000Y-51175000D01*
X178831796Y-50175000D02*
X178945644Y-50288848D01*
X176487182Y-49076780D02*
X176487182Y-49332818D01*
X176330402Y-51125000D02*
X175340000Y-51125000D01*
X177660000Y-50175000D02*
X178831796Y-50175000D01*
X175645000Y-50175000D02*
X175340000Y-50175000D01*
X182000000Y-48990000D02*
X182000000Y-48000000D01*
%TO.N,Board_9-Net-(D1-K)*%
X181777500Y-49787500D02*
X182000000Y-50010000D01*
X180500000Y-49787500D02*
X181777500Y-49787500D01*
%TO.N,Board_9-Net-(U1-SCL)*%
X174505538Y-49225000D02*
X173980538Y-49750000D01*
X172740000Y-49750000D02*
X172000000Y-49010000D01*
X173980538Y-49750000D02*
X172740000Y-49750000D01*
X175340000Y-49225000D02*
X174505538Y-49225000D01*
%TO.N,Board_9-Net-(U1-SDA)*%
X177660000Y-49225000D02*
X176774462Y-48339462D01*
X176774462Y-48339462D02*
X174420538Y-48339462D01*
X174420538Y-48339462D02*
X173750000Y-49010000D01*
%TO.N,Board_10-/SCL*%
X116000000Y-64990000D02*
X116730000Y-64260000D01*
X116730000Y-64260000D02*
X116730000Y-62650000D01*
X116000000Y-67490000D02*
X115355000Y-66845000D01*
X115355000Y-66845000D02*
X115355000Y-65635000D01*
X115355000Y-65635000D02*
X116000000Y-64990000D01*
%TO.N,Board_10-/SDA*%
X122899462Y-64889462D02*
X123000000Y-64990000D01*
X117750000Y-64990000D02*
X117850538Y-64889462D01*
X117850538Y-64889462D02*
X122899462Y-64889462D01*
X117750000Y-64170000D02*
X119270000Y-62650000D01*
X117750000Y-64990000D02*
X117750000Y-64170000D01*
%TO.N,Board_10-/VCC*%
X123797500Y-65212500D02*
X123000000Y-66010000D01*
X120710500Y-67134098D02*
X120710500Y-67480500D01*
X123670644Y-66680644D02*
X123670644Y-67774356D01*
X121355000Y-68125000D02*
X121660000Y-68125000D01*
X123000000Y-66010000D02*
X123670644Y-66680644D01*
X124500000Y-65212500D02*
X123797500Y-65212500D01*
X123670644Y-67774356D02*
X123270000Y-68175000D01*
X120710500Y-67480500D02*
X121355000Y-68125000D01*
X121660000Y-68125000D02*
X123220000Y-68125000D01*
X124350000Y-62650000D02*
X124350000Y-65062500D01*
X124350000Y-65062500D02*
X124500000Y-65212500D01*
X123220000Y-68125000D02*
X123270000Y-68175000D01*
X117000000Y-68500000D02*
X116010000Y-68500000D01*
X116010000Y-68500000D02*
X116000000Y-68510000D01*
%TO.N,Board_10-GND*%
X120487182Y-66332818D02*
X119645000Y-67175000D01*
X120477701Y-68272299D02*
X120330402Y-68125000D01*
X124230000Y-68175000D02*
X125250000Y-68175000D01*
X122831796Y-67175000D02*
X122945644Y-67288848D01*
X120487182Y-66076780D02*
X120487182Y-66332818D01*
X120330402Y-68125000D02*
X119340000Y-68125000D01*
X121660000Y-67175000D02*
X122831796Y-67175000D01*
X119645000Y-67175000D02*
X119340000Y-67175000D01*
X126000000Y-65990000D02*
X126000000Y-65000000D01*
%TO.N,Board_10-Net-(D1-K)*%
X125777500Y-66787500D02*
X126000000Y-67010000D01*
X124500000Y-66787500D02*
X125777500Y-66787500D01*
%TO.N,Board_10-Net-(U1-SCL)*%
X118505538Y-66225000D02*
X117980538Y-66750000D01*
X116740000Y-66750000D02*
X116000000Y-66010000D01*
X117980538Y-66750000D02*
X116740000Y-66750000D01*
X119340000Y-66225000D02*
X118505538Y-66225000D01*
%TO.N,Board_10-Net-(U1-SDA)*%
X121660000Y-66225000D02*
X120774462Y-65339462D01*
X120774462Y-65339462D02*
X118420538Y-65339462D01*
X118420538Y-65339462D02*
X117750000Y-66010000D01*
%TO.N,Board_11-/SCL*%
X130000000Y-64990000D02*
X130730000Y-64260000D01*
X130730000Y-64260000D02*
X130730000Y-62650000D01*
X130000000Y-67490000D02*
X129355000Y-66845000D01*
X129355000Y-66845000D02*
X129355000Y-65635000D01*
X129355000Y-65635000D02*
X130000000Y-64990000D01*
%TO.N,Board_11-/SDA*%
X136899462Y-64889462D02*
X137000000Y-64990000D01*
X131750000Y-64990000D02*
X131850538Y-64889462D01*
X131850538Y-64889462D02*
X136899462Y-64889462D01*
X131750000Y-64170000D02*
X133270000Y-62650000D01*
X131750000Y-64990000D02*
X131750000Y-64170000D01*
%TO.N,Board_11-/VCC*%
X137797500Y-65212500D02*
X137000000Y-66010000D01*
X134710500Y-67134098D02*
X134710500Y-67480500D01*
X137670644Y-66680644D02*
X137670644Y-67774356D01*
X135355000Y-68125000D02*
X135660000Y-68125000D01*
X137000000Y-66010000D02*
X137670644Y-66680644D01*
X138500000Y-65212500D02*
X137797500Y-65212500D01*
X137670644Y-67774356D02*
X137270000Y-68175000D01*
X134710500Y-67480500D02*
X135355000Y-68125000D01*
X135660000Y-68125000D02*
X137220000Y-68125000D01*
X138350000Y-62650000D02*
X138350000Y-65062500D01*
X138350000Y-65062500D02*
X138500000Y-65212500D01*
X137220000Y-68125000D02*
X137270000Y-68175000D01*
X131000000Y-68500000D02*
X130010000Y-68500000D01*
X130010000Y-68500000D02*
X130000000Y-68510000D01*
%TO.N,Board_11-GND*%
X134487182Y-66332818D02*
X133645000Y-67175000D01*
X134477701Y-68272299D02*
X134330402Y-68125000D01*
X138230000Y-68175000D02*
X139250000Y-68175000D01*
X136831796Y-67175000D02*
X136945644Y-67288848D01*
X134487182Y-66076780D02*
X134487182Y-66332818D01*
X134330402Y-68125000D02*
X133340000Y-68125000D01*
X135660000Y-67175000D02*
X136831796Y-67175000D01*
X133645000Y-67175000D02*
X133340000Y-67175000D01*
X140000000Y-65990000D02*
X140000000Y-65000000D01*
%TO.N,Board_11-Net-(D1-K)*%
X139777500Y-66787500D02*
X140000000Y-67010000D01*
X138500000Y-66787500D02*
X139777500Y-66787500D01*
%TO.N,Board_11-Net-(U1-SCL)*%
X132505538Y-66225000D02*
X131980538Y-66750000D01*
X130740000Y-66750000D02*
X130000000Y-66010000D01*
X131980538Y-66750000D02*
X130740000Y-66750000D01*
X133340000Y-66225000D02*
X132505538Y-66225000D01*
%TO.N,Board_11-Net-(U1-SDA)*%
X135660000Y-66225000D02*
X134774462Y-65339462D01*
X134774462Y-65339462D02*
X132420538Y-65339462D01*
X132420538Y-65339462D02*
X131750000Y-66010000D01*
%TO.N,Board_12-/SCL*%
X144000000Y-64990000D02*
X144730000Y-64260000D01*
X144730000Y-64260000D02*
X144730000Y-62650000D01*
X144000000Y-67490000D02*
X143355000Y-66845000D01*
X143355000Y-66845000D02*
X143355000Y-65635000D01*
X143355000Y-65635000D02*
X144000000Y-64990000D01*
%TO.N,Board_12-/SDA*%
X150899462Y-64889462D02*
X151000000Y-64990000D01*
X145750000Y-64990000D02*
X145850538Y-64889462D01*
X145850538Y-64889462D02*
X150899462Y-64889462D01*
X145750000Y-64170000D02*
X147270000Y-62650000D01*
X145750000Y-64990000D02*
X145750000Y-64170000D01*
%TO.N,Board_12-/VCC*%
X151797500Y-65212500D02*
X151000000Y-66010000D01*
X148710500Y-67134098D02*
X148710500Y-67480500D01*
X151670644Y-66680644D02*
X151670644Y-67774356D01*
X149355000Y-68125000D02*
X149660000Y-68125000D01*
X151000000Y-66010000D02*
X151670644Y-66680644D01*
X152500000Y-65212500D02*
X151797500Y-65212500D01*
X151670644Y-67774356D02*
X151270000Y-68175000D01*
X148710500Y-67480500D02*
X149355000Y-68125000D01*
X149660000Y-68125000D02*
X151220000Y-68125000D01*
X152350000Y-62650000D02*
X152350000Y-65062500D01*
X152350000Y-65062500D02*
X152500000Y-65212500D01*
X151220000Y-68125000D02*
X151270000Y-68175000D01*
X145000000Y-68500000D02*
X144010000Y-68500000D01*
X144010000Y-68500000D02*
X144000000Y-68510000D01*
%TO.N,Board_12-GND*%
X148487182Y-66332818D02*
X147645000Y-67175000D01*
X148477701Y-68272299D02*
X148330402Y-68125000D01*
X152230000Y-68175000D02*
X153250000Y-68175000D01*
X150831796Y-67175000D02*
X150945644Y-67288848D01*
X148487182Y-66076780D02*
X148487182Y-66332818D01*
X148330402Y-68125000D02*
X147340000Y-68125000D01*
X149660000Y-67175000D02*
X150831796Y-67175000D01*
X147645000Y-67175000D02*
X147340000Y-67175000D01*
X154000000Y-65990000D02*
X154000000Y-65000000D01*
%TO.N,Board_12-Net-(D1-K)*%
X153777500Y-66787500D02*
X154000000Y-67010000D01*
X152500000Y-66787500D02*
X153777500Y-66787500D01*
%TO.N,Board_12-Net-(U1-SCL)*%
X146505538Y-66225000D02*
X145980538Y-66750000D01*
X144740000Y-66750000D02*
X144000000Y-66010000D01*
X145980538Y-66750000D02*
X144740000Y-66750000D01*
X147340000Y-66225000D02*
X146505538Y-66225000D01*
%TO.N,Board_12-Net-(U1-SDA)*%
X149660000Y-66225000D02*
X148774462Y-65339462D01*
X148774462Y-65339462D02*
X146420538Y-65339462D01*
X146420538Y-65339462D02*
X145750000Y-66010000D01*
%TO.N,Board_13-/SCL*%
X158000000Y-64990000D02*
X158730000Y-64260000D01*
X158730000Y-64260000D02*
X158730000Y-62650000D01*
X158000000Y-67490000D02*
X157355000Y-66845000D01*
X157355000Y-66845000D02*
X157355000Y-65635000D01*
X157355000Y-65635000D02*
X158000000Y-64990000D01*
%TO.N,Board_13-/SDA*%
X164899462Y-64889462D02*
X165000000Y-64990000D01*
X159750000Y-64990000D02*
X159850538Y-64889462D01*
X159850538Y-64889462D02*
X164899462Y-64889462D01*
X159750000Y-64170000D02*
X161270000Y-62650000D01*
X159750000Y-64990000D02*
X159750000Y-64170000D01*
%TO.N,Board_13-/VCC*%
X165797500Y-65212500D02*
X165000000Y-66010000D01*
X162710500Y-67134098D02*
X162710500Y-67480500D01*
X165670644Y-66680644D02*
X165670644Y-67774356D01*
X163355000Y-68125000D02*
X163660000Y-68125000D01*
X165000000Y-66010000D02*
X165670644Y-66680644D01*
X166500000Y-65212500D02*
X165797500Y-65212500D01*
X165670644Y-67774356D02*
X165270000Y-68175000D01*
X162710500Y-67480500D02*
X163355000Y-68125000D01*
X163660000Y-68125000D02*
X165220000Y-68125000D01*
X166350000Y-62650000D02*
X166350000Y-65062500D01*
X166350000Y-65062500D02*
X166500000Y-65212500D01*
X165220000Y-68125000D02*
X165270000Y-68175000D01*
X159000000Y-68500000D02*
X158010000Y-68500000D01*
X158010000Y-68500000D02*
X158000000Y-68510000D01*
%TO.N,Board_13-GND*%
X162487182Y-66332818D02*
X161645000Y-67175000D01*
X162477701Y-68272299D02*
X162330402Y-68125000D01*
X166230000Y-68175000D02*
X167250000Y-68175000D01*
X164831796Y-67175000D02*
X164945644Y-67288848D01*
X162487182Y-66076780D02*
X162487182Y-66332818D01*
X162330402Y-68125000D02*
X161340000Y-68125000D01*
X163660000Y-67175000D02*
X164831796Y-67175000D01*
X161645000Y-67175000D02*
X161340000Y-67175000D01*
X168000000Y-65990000D02*
X168000000Y-65000000D01*
%TO.N,Board_13-Net-(D1-K)*%
X167777500Y-66787500D02*
X168000000Y-67010000D01*
X166500000Y-66787500D02*
X167777500Y-66787500D01*
%TO.N,Board_13-Net-(U1-SCL)*%
X160505538Y-66225000D02*
X159980538Y-66750000D01*
X158740000Y-66750000D02*
X158000000Y-66010000D01*
X159980538Y-66750000D02*
X158740000Y-66750000D01*
X161340000Y-66225000D02*
X160505538Y-66225000D01*
%TO.N,Board_13-Net-(U1-SDA)*%
X163660000Y-66225000D02*
X162774462Y-65339462D01*
X162774462Y-65339462D02*
X160420538Y-65339462D01*
X160420538Y-65339462D02*
X159750000Y-66010000D01*
%TO.N,Board_14-/SCL*%
X172000000Y-64990000D02*
X172730000Y-64260000D01*
X172730000Y-64260000D02*
X172730000Y-62650000D01*
X172000000Y-67490000D02*
X171355000Y-66845000D01*
X171355000Y-66845000D02*
X171355000Y-65635000D01*
X171355000Y-65635000D02*
X172000000Y-64990000D01*
%TO.N,Board_14-/SDA*%
X178899462Y-64889462D02*
X179000000Y-64990000D01*
X173750000Y-64990000D02*
X173850538Y-64889462D01*
X173850538Y-64889462D02*
X178899462Y-64889462D01*
X173750000Y-64170000D02*
X175270000Y-62650000D01*
X173750000Y-64990000D02*
X173750000Y-64170000D01*
%TO.N,Board_14-/VCC*%
X179797500Y-65212500D02*
X179000000Y-66010000D01*
X176710500Y-67134098D02*
X176710500Y-67480500D01*
X179670644Y-66680644D02*
X179670644Y-67774356D01*
X177355000Y-68125000D02*
X177660000Y-68125000D01*
X179000000Y-66010000D02*
X179670644Y-66680644D01*
X180500000Y-65212500D02*
X179797500Y-65212500D01*
X179670644Y-67774356D02*
X179270000Y-68175000D01*
X176710500Y-67480500D02*
X177355000Y-68125000D01*
X177660000Y-68125000D02*
X179220000Y-68125000D01*
X180350000Y-62650000D02*
X180350000Y-65062500D01*
X180350000Y-65062500D02*
X180500000Y-65212500D01*
X179220000Y-68125000D02*
X179270000Y-68175000D01*
X173000000Y-68500000D02*
X172010000Y-68500000D01*
X172010000Y-68500000D02*
X172000000Y-68510000D01*
%TO.N,Board_14-GND*%
X176487182Y-66332818D02*
X175645000Y-67175000D01*
X176477701Y-68272299D02*
X176330402Y-68125000D01*
X180230000Y-68175000D02*
X181250000Y-68175000D01*
X178831796Y-67175000D02*
X178945644Y-67288848D01*
X176487182Y-66076780D02*
X176487182Y-66332818D01*
X176330402Y-68125000D02*
X175340000Y-68125000D01*
X177660000Y-67175000D02*
X178831796Y-67175000D01*
X175645000Y-67175000D02*
X175340000Y-67175000D01*
X182000000Y-65990000D02*
X182000000Y-65000000D01*
%TO.N,Board_14-Net-(D1-K)*%
X181777500Y-66787500D02*
X182000000Y-67010000D01*
X180500000Y-66787500D02*
X181777500Y-66787500D01*
%TO.N,Board_14-Net-(U1-SCL)*%
X174505538Y-66225000D02*
X173980538Y-66750000D01*
X172740000Y-66750000D02*
X172000000Y-66010000D01*
X173980538Y-66750000D02*
X172740000Y-66750000D01*
X175340000Y-66225000D02*
X174505538Y-66225000D01*
%TO.N,Board_14-Net-(U1-SDA)*%
X177660000Y-66225000D02*
X176774462Y-65339462D01*
X176774462Y-65339462D02*
X174420538Y-65339462D01*
X174420538Y-65339462D02*
X173750000Y-66010000D01*
%TO.N,Board_15-/SCL*%
X116000000Y-81990000D02*
X116730000Y-81260000D01*
X116730000Y-81260000D02*
X116730000Y-79650000D01*
X116000000Y-84490000D02*
X115355000Y-83845000D01*
X115355000Y-83845000D02*
X115355000Y-82635000D01*
X115355000Y-82635000D02*
X116000000Y-81990000D01*
%TO.N,Board_15-/SDA*%
X122899462Y-81889462D02*
X123000000Y-81990000D01*
X117750000Y-81990000D02*
X117850538Y-81889462D01*
X117850538Y-81889462D02*
X122899462Y-81889462D01*
X117750000Y-81170000D02*
X119270000Y-79650000D01*
X117750000Y-81990000D02*
X117750000Y-81170000D01*
%TO.N,Board_15-/VCC*%
X123797500Y-82212500D02*
X123000000Y-83010000D01*
X120710500Y-84134098D02*
X120710500Y-84480500D01*
X123670644Y-83680644D02*
X123670644Y-84774356D01*
X121355000Y-85125000D02*
X121660000Y-85125000D01*
X123000000Y-83010000D02*
X123670644Y-83680644D01*
X124500000Y-82212500D02*
X123797500Y-82212500D01*
X123670644Y-84774356D02*
X123270000Y-85175000D01*
X120710500Y-84480500D02*
X121355000Y-85125000D01*
X121660000Y-85125000D02*
X123220000Y-85125000D01*
X124350000Y-79650000D02*
X124350000Y-82062500D01*
X124350000Y-82062500D02*
X124500000Y-82212500D01*
X123220000Y-85125000D02*
X123270000Y-85175000D01*
X117000000Y-85500000D02*
X116010000Y-85500000D01*
X116010000Y-85500000D02*
X116000000Y-85510000D01*
%TO.N,Board_15-GND*%
X120487182Y-83332818D02*
X119645000Y-84175000D01*
X120477701Y-85272299D02*
X120330402Y-85125000D01*
X124230000Y-85175000D02*
X125250000Y-85175000D01*
X122831796Y-84175000D02*
X122945644Y-84288848D01*
X120487182Y-83076780D02*
X120487182Y-83332818D01*
X120330402Y-85125000D02*
X119340000Y-85125000D01*
X121660000Y-84175000D02*
X122831796Y-84175000D01*
X119645000Y-84175000D02*
X119340000Y-84175000D01*
X126000000Y-82990000D02*
X126000000Y-82000000D01*
%TO.N,Board_15-Net-(D1-K)*%
X125777500Y-83787500D02*
X126000000Y-84010000D01*
X124500000Y-83787500D02*
X125777500Y-83787500D01*
%TO.N,Board_15-Net-(U1-SCL)*%
X118505538Y-83225000D02*
X117980538Y-83750000D01*
X116740000Y-83750000D02*
X116000000Y-83010000D01*
X117980538Y-83750000D02*
X116740000Y-83750000D01*
X119340000Y-83225000D02*
X118505538Y-83225000D01*
%TO.N,Board_15-Net-(U1-SDA)*%
X121660000Y-83225000D02*
X120774462Y-82339462D01*
X120774462Y-82339462D02*
X118420538Y-82339462D01*
X118420538Y-82339462D02*
X117750000Y-83010000D01*
%TO.N,Board_16-/SCL*%
X130000000Y-81990000D02*
X130730000Y-81260000D01*
X130730000Y-81260000D02*
X130730000Y-79650000D01*
X130000000Y-84490000D02*
X129355000Y-83845000D01*
X129355000Y-83845000D02*
X129355000Y-82635000D01*
X129355000Y-82635000D02*
X130000000Y-81990000D01*
%TO.N,Board_16-/SDA*%
X136899462Y-81889462D02*
X137000000Y-81990000D01*
X131750000Y-81990000D02*
X131850538Y-81889462D01*
X131850538Y-81889462D02*
X136899462Y-81889462D01*
X131750000Y-81170000D02*
X133270000Y-79650000D01*
X131750000Y-81990000D02*
X131750000Y-81170000D01*
%TO.N,Board_16-/VCC*%
X137797500Y-82212500D02*
X137000000Y-83010000D01*
X134710500Y-84134098D02*
X134710500Y-84480500D01*
X137670644Y-83680644D02*
X137670644Y-84774356D01*
X135355000Y-85125000D02*
X135660000Y-85125000D01*
X137000000Y-83010000D02*
X137670644Y-83680644D01*
X138500000Y-82212500D02*
X137797500Y-82212500D01*
X137670644Y-84774356D02*
X137270000Y-85175000D01*
X134710500Y-84480500D02*
X135355000Y-85125000D01*
X135660000Y-85125000D02*
X137220000Y-85125000D01*
X138350000Y-79650000D02*
X138350000Y-82062500D01*
X138350000Y-82062500D02*
X138500000Y-82212500D01*
X137220000Y-85125000D02*
X137270000Y-85175000D01*
X131000000Y-85500000D02*
X130010000Y-85500000D01*
X130010000Y-85500000D02*
X130000000Y-85510000D01*
%TO.N,Board_16-GND*%
X134487182Y-83332818D02*
X133645000Y-84175000D01*
X134477701Y-85272299D02*
X134330402Y-85125000D01*
X138230000Y-85175000D02*
X139250000Y-85175000D01*
X136831796Y-84175000D02*
X136945644Y-84288848D01*
X134487182Y-83076780D02*
X134487182Y-83332818D01*
X134330402Y-85125000D02*
X133340000Y-85125000D01*
X135660000Y-84175000D02*
X136831796Y-84175000D01*
X133645000Y-84175000D02*
X133340000Y-84175000D01*
X140000000Y-82990000D02*
X140000000Y-82000000D01*
%TO.N,Board_16-Net-(D1-K)*%
X139777500Y-83787500D02*
X140000000Y-84010000D01*
X138500000Y-83787500D02*
X139777500Y-83787500D01*
%TO.N,Board_16-Net-(U1-SCL)*%
X132505538Y-83225000D02*
X131980538Y-83750000D01*
X130740000Y-83750000D02*
X130000000Y-83010000D01*
X131980538Y-83750000D02*
X130740000Y-83750000D01*
X133340000Y-83225000D02*
X132505538Y-83225000D01*
%TO.N,Board_16-Net-(U1-SDA)*%
X135660000Y-83225000D02*
X134774462Y-82339462D01*
X134774462Y-82339462D02*
X132420538Y-82339462D01*
X132420538Y-82339462D02*
X131750000Y-83010000D01*
%TO.N,Board_17-/SCL*%
X144000000Y-81990000D02*
X144730000Y-81260000D01*
X144730000Y-81260000D02*
X144730000Y-79650000D01*
X144000000Y-84490000D02*
X143355000Y-83845000D01*
X143355000Y-83845000D02*
X143355000Y-82635000D01*
X143355000Y-82635000D02*
X144000000Y-81990000D01*
%TO.N,Board_17-/SDA*%
X150899462Y-81889462D02*
X151000000Y-81990000D01*
X145750000Y-81990000D02*
X145850538Y-81889462D01*
X145850538Y-81889462D02*
X150899462Y-81889462D01*
X145750000Y-81170000D02*
X147270000Y-79650000D01*
X145750000Y-81990000D02*
X145750000Y-81170000D01*
%TO.N,Board_17-/VCC*%
X151797500Y-82212500D02*
X151000000Y-83010000D01*
X148710500Y-84134098D02*
X148710500Y-84480500D01*
X151670644Y-83680644D02*
X151670644Y-84774356D01*
X149355000Y-85125000D02*
X149660000Y-85125000D01*
X151000000Y-83010000D02*
X151670644Y-83680644D01*
X152500000Y-82212500D02*
X151797500Y-82212500D01*
X151670644Y-84774356D02*
X151270000Y-85175000D01*
X148710500Y-84480500D02*
X149355000Y-85125000D01*
X149660000Y-85125000D02*
X151220000Y-85125000D01*
X152350000Y-79650000D02*
X152350000Y-82062500D01*
X152350000Y-82062500D02*
X152500000Y-82212500D01*
X151220000Y-85125000D02*
X151270000Y-85175000D01*
X145000000Y-85500000D02*
X144010000Y-85500000D01*
X144010000Y-85500000D02*
X144000000Y-85510000D01*
%TO.N,Board_17-GND*%
X148487182Y-83332818D02*
X147645000Y-84175000D01*
X148477701Y-85272299D02*
X148330402Y-85125000D01*
X152230000Y-85175000D02*
X153250000Y-85175000D01*
X150831796Y-84175000D02*
X150945644Y-84288848D01*
X148487182Y-83076780D02*
X148487182Y-83332818D01*
X148330402Y-85125000D02*
X147340000Y-85125000D01*
X149660000Y-84175000D02*
X150831796Y-84175000D01*
X147645000Y-84175000D02*
X147340000Y-84175000D01*
X154000000Y-82990000D02*
X154000000Y-82000000D01*
%TO.N,Board_17-Net-(D1-K)*%
X153777500Y-83787500D02*
X154000000Y-84010000D01*
X152500000Y-83787500D02*
X153777500Y-83787500D01*
%TO.N,Board_17-Net-(U1-SCL)*%
X146505538Y-83225000D02*
X145980538Y-83750000D01*
X144740000Y-83750000D02*
X144000000Y-83010000D01*
X145980538Y-83750000D02*
X144740000Y-83750000D01*
X147340000Y-83225000D02*
X146505538Y-83225000D01*
%TO.N,Board_17-Net-(U1-SDA)*%
X149660000Y-83225000D02*
X148774462Y-82339462D01*
X148774462Y-82339462D02*
X146420538Y-82339462D01*
X146420538Y-82339462D02*
X145750000Y-83010000D01*
%TO.N,Board_18-/SCL*%
X158000000Y-81990000D02*
X158730000Y-81260000D01*
X158730000Y-81260000D02*
X158730000Y-79650000D01*
X158000000Y-84490000D02*
X157355000Y-83845000D01*
X157355000Y-83845000D02*
X157355000Y-82635000D01*
X157355000Y-82635000D02*
X158000000Y-81990000D01*
%TO.N,Board_18-/SDA*%
X164899462Y-81889462D02*
X165000000Y-81990000D01*
X159750000Y-81990000D02*
X159850538Y-81889462D01*
X159850538Y-81889462D02*
X164899462Y-81889462D01*
X159750000Y-81170000D02*
X161270000Y-79650000D01*
X159750000Y-81990000D02*
X159750000Y-81170000D01*
%TO.N,Board_18-/VCC*%
X165797500Y-82212500D02*
X165000000Y-83010000D01*
X162710500Y-84134098D02*
X162710500Y-84480500D01*
X165670644Y-83680644D02*
X165670644Y-84774356D01*
X163355000Y-85125000D02*
X163660000Y-85125000D01*
X165000000Y-83010000D02*
X165670644Y-83680644D01*
X166500000Y-82212500D02*
X165797500Y-82212500D01*
X165670644Y-84774356D02*
X165270000Y-85175000D01*
X162710500Y-84480500D02*
X163355000Y-85125000D01*
X163660000Y-85125000D02*
X165220000Y-85125000D01*
X166350000Y-79650000D02*
X166350000Y-82062500D01*
X166350000Y-82062500D02*
X166500000Y-82212500D01*
X165220000Y-85125000D02*
X165270000Y-85175000D01*
X159000000Y-85500000D02*
X158010000Y-85500000D01*
X158010000Y-85500000D02*
X158000000Y-85510000D01*
%TO.N,Board_18-GND*%
X162487182Y-83332818D02*
X161645000Y-84175000D01*
X162477701Y-85272299D02*
X162330402Y-85125000D01*
X166230000Y-85175000D02*
X167250000Y-85175000D01*
X164831796Y-84175000D02*
X164945644Y-84288848D01*
X162487182Y-83076780D02*
X162487182Y-83332818D01*
X162330402Y-85125000D02*
X161340000Y-85125000D01*
X163660000Y-84175000D02*
X164831796Y-84175000D01*
X161645000Y-84175000D02*
X161340000Y-84175000D01*
X168000000Y-82990000D02*
X168000000Y-82000000D01*
%TO.N,Board_18-Net-(D1-K)*%
X167777500Y-83787500D02*
X168000000Y-84010000D01*
X166500000Y-83787500D02*
X167777500Y-83787500D01*
%TO.N,Board_18-Net-(U1-SCL)*%
X160505538Y-83225000D02*
X159980538Y-83750000D01*
X158740000Y-83750000D02*
X158000000Y-83010000D01*
X159980538Y-83750000D02*
X158740000Y-83750000D01*
X161340000Y-83225000D02*
X160505538Y-83225000D01*
%TO.N,Board_18-Net-(U1-SDA)*%
X163660000Y-83225000D02*
X162774462Y-82339462D01*
X162774462Y-82339462D02*
X160420538Y-82339462D01*
X160420538Y-82339462D02*
X159750000Y-83010000D01*
%TO.N,Board_19-/SCL*%
X172000000Y-81990000D02*
X172730000Y-81260000D01*
X172730000Y-81260000D02*
X172730000Y-79650000D01*
X172000000Y-84490000D02*
X171355000Y-83845000D01*
X171355000Y-83845000D02*
X171355000Y-82635000D01*
X171355000Y-82635000D02*
X172000000Y-81990000D01*
%TO.N,Board_19-/SDA*%
X178899462Y-81889462D02*
X179000000Y-81990000D01*
X173750000Y-81990000D02*
X173850538Y-81889462D01*
X173850538Y-81889462D02*
X178899462Y-81889462D01*
X173750000Y-81170000D02*
X175270000Y-79650000D01*
X173750000Y-81990000D02*
X173750000Y-81170000D01*
%TO.N,Board_19-/VCC*%
X179797500Y-82212500D02*
X179000000Y-83010000D01*
X176710500Y-84134098D02*
X176710500Y-84480500D01*
X179670644Y-83680644D02*
X179670644Y-84774356D01*
X177355000Y-85125000D02*
X177660000Y-85125000D01*
X179000000Y-83010000D02*
X179670644Y-83680644D01*
X180500000Y-82212500D02*
X179797500Y-82212500D01*
X179670644Y-84774356D02*
X179270000Y-85175000D01*
X176710500Y-84480500D02*
X177355000Y-85125000D01*
X177660000Y-85125000D02*
X179220000Y-85125000D01*
X180350000Y-79650000D02*
X180350000Y-82062500D01*
X180350000Y-82062500D02*
X180500000Y-82212500D01*
X179220000Y-85125000D02*
X179270000Y-85175000D01*
X173000000Y-85500000D02*
X172010000Y-85500000D01*
X172010000Y-85500000D02*
X172000000Y-85510000D01*
%TO.N,Board_19-GND*%
X176487182Y-83332818D02*
X175645000Y-84175000D01*
X176477701Y-85272299D02*
X176330402Y-85125000D01*
X180230000Y-85175000D02*
X181250000Y-85175000D01*
X178831796Y-84175000D02*
X178945644Y-84288848D01*
X176487182Y-83076780D02*
X176487182Y-83332818D01*
X176330402Y-85125000D02*
X175340000Y-85125000D01*
X177660000Y-84175000D02*
X178831796Y-84175000D01*
X175645000Y-84175000D02*
X175340000Y-84175000D01*
X182000000Y-82990000D02*
X182000000Y-82000000D01*
%TO.N,Board_19-Net-(D1-K)*%
X181777500Y-83787500D02*
X182000000Y-84010000D01*
X180500000Y-83787500D02*
X181777500Y-83787500D01*
%TO.N,Board_19-Net-(U1-SCL)*%
X174505538Y-83225000D02*
X173980538Y-83750000D01*
X172740000Y-83750000D02*
X172000000Y-83010000D01*
X173980538Y-83750000D02*
X172740000Y-83750000D01*
X175340000Y-83225000D02*
X174505538Y-83225000D01*
%TO.N,Board_19-Net-(U1-SDA)*%
X177660000Y-83225000D02*
X176774462Y-82339462D01*
X176774462Y-82339462D02*
X174420538Y-82339462D01*
X174420538Y-82339462D02*
X173750000Y-83010000D01*
%TO.N,Board_20-/SCL*%
X116000000Y-98990000D02*
X116730000Y-98260000D01*
X116730000Y-98260000D02*
X116730000Y-96650000D01*
X116000000Y-101490000D02*
X115355000Y-100845000D01*
X115355000Y-100845000D02*
X115355000Y-99635000D01*
X115355000Y-99635000D02*
X116000000Y-98990000D01*
%TO.N,Board_20-/SDA*%
X122899462Y-98889462D02*
X123000000Y-98990000D01*
X117750000Y-98990000D02*
X117850538Y-98889462D01*
X117850538Y-98889462D02*
X122899462Y-98889462D01*
X117750000Y-98170000D02*
X119270000Y-96650000D01*
X117750000Y-98990000D02*
X117750000Y-98170000D01*
%TO.N,Board_20-/VCC*%
X123797500Y-99212500D02*
X123000000Y-100010000D01*
X120710500Y-101134098D02*
X120710500Y-101480500D01*
X123670644Y-100680644D02*
X123670644Y-101774356D01*
X121355000Y-102125000D02*
X121660000Y-102125000D01*
X123000000Y-100010000D02*
X123670644Y-100680644D01*
X124500000Y-99212500D02*
X123797500Y-99212500D01*
X123670644Y-101774356D02*
X123270000Y-102175000D01*
X120710500Y-101480500D02*
X121355000Y-102125000D01*
X121660000Y-102125000D02*
X123220000Y-102125000D01*
X124350000Y-96650000D02*
X124350000Y-99062500D01*
X124350000Y-99062500D02*
X124500000Y-99212500D01*
X123220000Y-102125000D02*
X123270000Y-102175000D01*
X117000000Y-102500000D02*
X116010000Y-102500000D01*
X116010000Y-102500000D02*
X116000000Y-102510000D01*
%TO.N,Board_20-GND*%
X120487182Y-100332818D02*
X119645000Y-101175000D01*
X120477701Y-102272299D02*
X120330402Y-102125000D01*
X124230000Y-102175000D02*
X125250000Y-102175000D01*
X122831796Y-101175000D02*
X122945644Y-101288848D01*
X120487182Y-100076780D02*
X120487182Y-100332818D01*
X120330402Y-102125000D02*
X119340000Y-102125000D01*
X121660000Y-101175000D02*
X122831796Y-101175000D01*
X119645000Y-101175000D02*
X119340000Y-101175000D01*
X126000000Y-99990000D02*
X126000000Y-99000000D01*
%TO.N,Board_20-Net-(D1-K)*%
X125777500Y-100787500D02*
X126000000Y-101010000D01*
X124500000Y-100787500D02*
X125777500Y-100787500D01*
%TO.N,Board_20-Net-(U1-SCL)*%
X118505538Y-100225000D02*
X117980538Y-100750000D01*
X116740000Y-100750000D02*
X116000000Y-100010000D01*
X117980538Y-100750000D02*
X116740000Y-100750000D01*
X119340000Y-100225000D02*
X118505538Y-100225000D01*
%TO.N,Board_20-Net-(U1-SDA)*%
X121660000Y-100225000D02*
X120774462Y-99339462D01*
X120774462Y-99339462D02*
X118420538Y-99339462D01*
X118420538Y-99339462D02*
X117750000Y-100010000D01*
%TO.N,Board_21-/SCL*%
X130000000Y-98990000D02*
X130730000Y-98260000D01*
X130730000Y-98260000D02*
X130730000Y-96650000D01*
X130000000Y-101490000D02*
X129355000Y-100845000D01*
X129355000Y-100845000D02*
X129355000Y-99635000D01*
X129355000Y-99635000D02*
X130000000Y-98990000D01*
%TO.N,Board_21-/SDA*%
X136899462Y-98889462D02*
X137000000Y-98990000D01*
X131750000Y-98990000D02*
X131850538Y-98889462D01*
X131850538Y-98889462D02*
X136899462Y-98889462D01*
X131750000Y-98170000D02*
X133270000Y-96650000D01*
X131750000Y-98990000D02*
X131750000Y-98170000D01*
%TO.N,Board_21-/VCC*%
X137797500Y-99212500D02*
X137000000Y-100010000D01*
X134710500Y-101134098D02*
X134710500Y-101480500D01*
X137670644Y-100680644D02*
X137670644Y-101774356D01*
X135355000Y-102125000D02*
X135660000Y-102125000D01*
X137000000Y-100010000D02*
X137670644Y-100680644D01*
X138500000Y-99212500D02*
X137797500Y-99212500D01*
X137670644Y-101774356D02*
X137270000Y-102175000D01*
X134710500Y-101480500D02*
X135355000Y-102125000D01*
X135660000Y-102125000D02*
X137220000Y-102125000D01*
X138350000Y-96650000D02*
X138350000Y-99062500D01*
X138350000Y-99062500D02*
X138500000Y-99212500D01*
X137220000Y-102125000D02*
X137270000Y-102175000D01*
X131000000Y-102500000D02*
X130010000Y-102500000D01*
X130010000Y-102500000D02*
X130000000Y-102510000D01*
%TO.N,Board_21-GND*%
X134487182Y-100332818D02*
X133645000Y-101175000D01*
X134477701Y-102272299D02*
X134330402Y-102125000D01*
X138230000Y-102175000D02*
X139250000Y-102175000D01*
X136831796Y-101175000D02*
X136945644Y-101288848D01*
X134487182Y-100076780D02*
X134487182Y-100332818D01*
X134330402Y-102125000D02*
X133340000Y-102125000D01*
X135660000Y-101175000D02*
X136831796Y-101175000D01*
X133645000Y-101175000D02*
X133340000Y-101175000D01*
X140000000Y-99990000D02*
X140000000Y-99000000D01*
%TO.N,Board_21-Net-(D1-K)*%
X139777500Y-100787500D02*
X140000000Y-101010000D01*
X138500000Y-100787500D02*
X139777500Y-100787500D01*
%TO.N,Board_21-Net-(U1-SCL)*%
X132505538Y-100225000D02*
X131980538Y-100750000D01*
X130740000Y-100750000D02*
X130000000Y-100010000D01*
X131980538Y-100750000D02*
X130740000Y-100750000D01*
X133340000Y-100225000D02*
X132505538Y-100225000D01*
%TO.N,Board_21-Net-(U1-SDA)*%
X135660000Y-100225000D02*
X134774462Y-99339462D01*
X134774462Y-99339462D02*
X132420538Y-99339462D01*
X132420538Y-99339462D02*
X131750000Y-100010000D01*
%TO.N,Board_22-/SCL*%
X144000000Y-98990000D02*
X144730000Y-98260000D01*
X144730000Y-98260000D02*
X144730000Y-96650000D01*
X144000000Y-101490000D02*
X143355000Y-100845000D01*
X143355000Y-100845000D02*
X143355000Y-99635000D01*
X143355000Y-99635000D02*
X144000000Y-98990000D01*
%TO.N,Board_22-/SDA*%
X150899462Y-98889462D02*
X151000000Y-98990000D01*
X145750000Y-98990000D02*
X145850538Y-98889462D01*
X145850538Y-98889462D02*
X150899462Y-98889462D01*
X145750000Y-98170000D02*
X147270000Y-96650000D01*
X145750000Y-98990000D02*
X145750000Y-98170000D01*
%TO.N,Board_22-/VCC*%
X151797500Y-99212500D02*
X151000000Y-100010000D01*
X148710500Y-101134098D02*
X148710500Y-101480500D01*
X151670644Y-100680644D02*
X151670644Y-101774356D01*
X149355000Y-102125000D02*
X149660000Y-102125000D01*
X151000000Y-100010000D02*
X151670644Y-100680644D01*
X152500000Y-99212500D02*
X151797500Y-99212500D01*
X151670644Y-101774356D02*
X151270000Y-102175000D01*
X148710500Y-101480500D02*
X149355000Y-102125000D01*
X149660000Y-102125000D02*
X151220000Y-102125000D01*
X152350000Y-96650000D02*
X152350000Y-99062500D01*
X152350000Y-99062500D02*
X152500000Y-99212500D01*
X151220000Y-102125000D02*
X151270000Y-102175000D01*
X145000000Y-102500000D02*
X144010000Y-102500000D01*
X144010000Y-102500000D02*
X144000000Y-102510000D01*
%TO.N,Board_22-GND*%
X148487182Y-100332818D02*
X147645000Y-101175000D01*
X148477701Y-102272299D02*
X148330402Y-102125000D01*
X152230000Y-102175000D02*
X153250000Y-102175000D01*
X150831796Y-101175000D02*
X150945644Y-101288848D01*
X148487182Y-100076780D02*
X148487182Y-100332818D01*
X148330402Y-102125000D02*
X147340000Y-102125000D01*
X149660000Y-101175000D02*
X150831796Y-101175000D01*
X147645000Y-101175000D02*
X147340000Y-101175000D01*
X154000000Y-99990000D02*
X154000000Y-99000000D01*
%TO.N,Board_22-Net-(D1-K)*%
X153777500Y-100787500D02*
X154000000Y-101010000D01*
X152500000Y-100787500D02*
X153777500Y-100787500D01*
%TO.N,Board_22-Net-(U1-SCL)*%
X146505538Y-100225000D02*
X145980538Y-100750000D01*
X144740000Y-100750000D02*
X144000000Y-100010000D01*
X145980538Y-100750000D02*
X144740000Y-100750000D01*
X147340000Y-100225000D02*
X146505538Y-100225000D01*
%TO.N,Board_22-Net-(U1-SDA)*%
X149660000Y-100225000D02*
X148774462Y-99339462D01*
X148774462Y-99339462D02*
X146420538Y-99339462D01*
X146420538Y-99339462D02*
X145750000Y-100010000D01*
%TO.N,Board_23-/SCL*%
X158000000Y-98990000D02*
X158730000Y-98260000D01*
X158730000Y-98260000D02*
X158730000Y-96650000D01*
X158000000Y-101490000D02*
X157355000Y-100845000D01*
X157355000Y-100845000D02*
X157355000Y-99635000D01*
X157355000Y-99635000D02*
X158000000Y-98990000D01*
%TO.N,Board_23-/SDA*%
X164899462Y-98889462D02*
X165000000Y-98990000D01*
X159750000Y-98990000D02*
X159850538Y-98889462D01*
X159850538Y-98889462D02*
X164899462Y-98889462D01*
X159750000Y-98170000D02*
X161270000Y-96650000D01*
X159750000Y-98990000D02*
X159750000Y-98170000D01*
%TO.N,Board_23-/VCC*%
X165797500Y-99212500D02*
X165000000Y-100010000D01*
X162710500Y-101134098D02*
X162710500Y-101480500D01*
X165670644Y-100680644D02*
X165670644Y-101774356D01*
X163355000Y-102125000D02*
X163660000Y-102125000D01*
X165000000Y-100010000D02*
X165670644Y-100680644D01*
X166500000Y-99212500D02*
X165797500Y-99212500D01*
X165670644Y-101774356D02*
X165270000Y-102175000D01*
X162710500Y-101480500D02*
X163355000Y-102125000D01*
X163660000Y-102125000D02*
X165220000Y-102125000D01*
X166350000Y-96650000D02*
X166350000Y-99062500D01*
X166350000Y-99062500D02*
X166500000Y-99212500D01*
X165220000Y-102125000D02*
X165270000Y-102175000D01*
X159000000Y-102500000D02*
X158010000Y-102500000D01*
X158010000Y-102500000D02*
X158000000Y-102510000D01*
%TO.N,Board_23-GND*%
X162487182Y-100332818D02*
X161645000Y-101175000D01*
X162477701Y-102272299D02*
X162330402Y-102125000D01*
X166230000Y-102175000D02*
X167250000Y-102175000D01*
X164831796Y-101175000D02*
X164945644Y-101288848D01*
X162487182Y-100076780D02*
X162487182Y-100332818D01*
X162330402Y-102125000D02*
X161340000Y-102125000D01*
X163660000Y-101175000D02*
X164831796Y-101175000D01*
X161645000Y-101175000D02*
X161340000Y-101175000D01*
X168000000Y-99990000D02*
X168000000Y-99000000D01*
%TO.N,Board_23-Net-(D1-K)*%
X167777500Y-100787500D02*
X168000000Y-101010000D01*
X166500000Y-100787500D02*
X167777500Y-100787500D01*
%TO.N,Board_23-Net-(U1-SCL)*%
X160505538Y-100225000D02*
X159980538Y-100750000D01*
X158740000Y-100750000D02*
X158000000Y-100010000D01*
X159980538Y-100750000D02*
X158740000Y-100750000D01*
X161340000Y-100225000D02*
X160505538Y-100225000D01*
%TO.N,Board_23-Net-(U1-SDA)*%
X163660000Y-100225000D02*
X162774462Y-99339462D01*
X162774462Y-99339462D02*
X160420538Y-99339462D01*
X160420538Y-99339462D02*
X159750000Y-100010000D01*
%TO.N,Board_24-/SCL*%
X172000000Y-98990000D02*
X172730000Y-98260000D01*
X172730000Y-98260000D02*
X172730000Y-96650000D01*
X172000000Y-101490000D02*
X171355000Y-100845000D01*
X171355000Y-100845000D02*
X171355000Y-99635000D01*
X171355000Y-99635000D02*
X172000000Y-98990000D01*
%TO.N,Board_24-/SDA*%
X178899462Y-98889462D02*
X179000000Y-98990000D01*
X173750000Y-98990000D02*
X173850538Y-98889462D01*
X173850538Y-98889462D02*
X178899462Y-98889462D01*
X173750000Y-98170000D02*
X175270000Y-96650000D01*
X173750000Y-98990000D02*
X173750000Y-98170000D01*
%TO.N,Board_24-/VCC*%
X179797500Y-99212500D02*
X179000000Y-100010000D01*
X176710500Y-101134098D02*
X176710500Y-101480500D01*
X179670644Y-100680644D02*
X179670644Y-101774356D01*
X177355000Y-102125000D02*
X177660000Y-102125000D01*
X179000000Y-100010000D02*
X179670644Y-100680644D01*
X180500000Y-99212500D02*
X179797500Y-99212500D01*
X179670644Y-101774356D02*
X179270000Y-102175000D01*
X176710500Y-101480500D02*
X177355000Y-102125000D01*
X177660000Y-102125000D02*
X179220000Y-102125000D01*
X180350000Y-96650000D02*
X180350000Y-99062500D01*
X180350000Y-99062500D02*
X180500000Y-99212500D01*
X179220000Y-102125000D02*
X179270000Y-102175000D01*
X173000000Y-102500000D02*
X172010000Y-102500000D01*
X172010000Y-102500000D02*
X172000000Y-102510000D01*
%TO.N,Board_24-GND*%
X176487182Y-100332818D02*
X175645000Y-101175000D01*
X176477701Y-102272299D02*
X176330402Y-102125000D01*
X180230000Y-102175000D02*
X181250000Y-102175000D01*
X178831796Y-101175000D02*
X178945644Y-101288848D01*
X176487182Y-100076780D02*
X176487182Y-100332818D01*
X176330402Y-102125000D02*
X175340000Y-102125000D01*
X177660000Y-101175000D02*
X178831796Y-101175000D01*
X175645000Y-101175000D02*
X175340000Y-101175000D01*
X182000000Y-99990000D02*
X182000000Y-99000000D01*
%TO.N,Board_24-Net-(D1-K)*%
X181777500Y-100787500D02*
X182000000Y-101010000D01*
X180500000Y-100787500D02*
X181777500Y-100787500D01*
%TO.N,Board_24-Net-(U1-SCL)*%
X174505538Y-100225000D02*
X173980538Y-100750000D01*
X172740000Y-100750000D02*
X172000000Y-100010000D01*
X173980538Y-100750000D02*
X172740000Y-100750000D01*
X175340000Y-100225000D02*
X174505538Y-100225000D01*
%TO.N,Board_24-Net-(U1-SDA)*%
X177660000Y-100225000D02*
X176774462Y-99339462D01*
X176774462Y-99339462D02*
X174420538Y-99339462D01*
X174420538Y-99339462D02*
X173750000Y-100010000D01*
%TD*%
M02*
