%TF.GenerationSoftware,KiCad,Pcbnew,7.0.1*%
%TF.CreationDate,2024-10-11T19:22:07-04:00*%
%TF.ProjectId,TrackRing,54726163-6b52-4696-9e67-2e6b69636164,rev?*%
%TF.SameCoordinates,Original*%
%TF.FileFunction,Legend,Bot*%
%TF.FilePolarity,Positive*%
%FSLAX46Y46*%
G04 Gerber Fmt 4.6, Leading zero omitted, Abs format (unit mm)*
G04 Created by KiCad (PCBNEW 7.0.1) date 2024-10-11 19:22:07*
%MOMM*%
%LPD*%
G01*
G04 APERTURE LIST*
%ADD10C,0.150000*%
G04 APERTURE END LIST*
D10*
X26825238Y-24961904D02*
X26777619Y-24866666D01*
X26777619Y-24866666D02*
X26777619Y-24723809D01*
X26777619Y-24723809D02*
X26825238Y-24580952D01*
X26825238Y-24580952D02*
X26920476Y-24485714D01*
X26920476Y-24485714D02*
X27015714Y-24438095D01*
X27015714Y-24438095D02*
X27206190Y-24390476D01*
X27206190Y-24390476D02*
X27349047Y-24390476D01*
X27349047Y-24390476D02*
X27539523Y-24438095D01*
X27539523Y-24438095D02*
X27634761Y-24485714D01*
X27634761Y-24485714D02*
X27730000Y-24580952D01*
X27730000Y-24580952D02*
X27777619Y-24723809D01*
X27777619Y-24723809D02*
X27777619Y-24819047D01*
X27777619Y-24819047D02*
X27730000Y-24961904D01*
X27730000Y-24961904D02*
X27682380Y-25009523D01*
X27682380Y-25009523D02*
X27349047Y-25009523D01*
X27349047Y-25009523D02*
X27349047Y-24819047D01*
X27777619Y-25438095D02*
X26777619Y-25438095D01*
X26777619Y-25438095D02*
X27777619Y-26009523D01*
X27777619Y-26009523D02*
X26777619Y-26009523D01*
X27777619Y-26485714D02*
X26777619Y-26485714D01*
X26777619Y-26485714D02*
X26777619Y-26723809D01*
X26777619Y-26723809D02*
X26825238Y-26866666D01*
X26825238Y-26866666D02*
X26920476Y-26961904D01*
X26920476Y-26961904D02*
X27015714Y-27009523D01*
X27015714Y-27009523D02*
X27206190Y-27057142D01*
X27206190Y-27057142D02*
X27349047Y-27057142D01*
X27349047Y-27057142D02*
X27539523Y-27009523D01*
X27539523Y-27009523D02*
X27634761Y-26961904D01*
X27634761Y-26961904D02*
X27730000Y-26866666D01*
X27730000Y-26866666D02*
X27777619Y-26723809D01*
X27777619Y-26723809D02*
X27777619Y-26485714D01*
X29252380Y-22415714D02*
X29347619Y-22368095D01*
X29347619Y-22368095D02*
X29538095Y-22368095D01*
X29538095Y-22368095D02*
X29633333Y-22415714D01*
X29633333Y-22415714D02*
X29728571Y-22510952D01*
X29728571Y-22510952D02*
X29776190Y-22606190D01*
X29776190Y-22606190D02*
X29776190Y-22796666D01*
X29776190Y-22796666D02*
X29728571Y-22891904D01*
X29728571Y-22891904D02*
X29633333Y-22987142D01*
X29633333Y-22987142D02*
X29538095Y-23034761D01*
X29538095Y-23034761D02*
X29347619Y-23034761D01*
X29347619Y-23034761D02*
X29252380Y-22987142D01*
X29442857Y-22034761D02*
X29680952Y-22082380D01*
X29680952Y-22082380D02*
X29919047Y-22225238D01*
X29919047Y-22225238D02*
X30061904Y-22463333D01*
X30061904Y-22463333D02*
X30109523Y-22701428D01*
X30109523Y-22701428D02*
X30061904Y-22939523D01*
X30061904Y-22939523D02*
X29919047Y-23177619D01*
X29919047Y-23177619D02*
X29680952Y-23320476D01*
X29680952Y-23320476D02*
X29442857Y-23368095D01*
X29442857Y-23368095D02*
X29204761Y-23320476D01*
X29204761Y-23320476D02*
X28966666Y-23177619D01*
X28966666Y-23177619D02*
X28823809Y-22939523D01*
X28823809Y-22939523D02*
X28776190Y-22701428D01*
X28776190Y-22701428D02*
X28823809Y-22463333D01*
X28823809Y-22463333D02*
X28966666Y-22225238D01*
X28966666Y-22225238D02*
X29204761Y-22082380D01*
X29204761Y-22082380D02*
X29442857Y-22034761D01*
X27776190Y-23082380D02*
X27823809Y-23130000D01*
X27823809Y-23130000D02*
X27966666Y-23177619D01*
X27966666Y-23177619D02*
X28061904Y-23177619D01*
X28061904Y-23177619D02*
X28204761Y-23130000D01*
X28204761Y-23130000D02*
X28299999Y-23034761D01*
X28299999Y-23034761D02*
X28347618Y-22939523D01*
X28347618Y-22939523D02*
X28395237Y-22749047D01*
X28395237Y-22749047D02*
X28395237Y-22606190D01*
X28395237Y-22606190D02*
X28347618Y-22415714D01*
X28347618Y-22415714D02*
X28299999Y-22320476D01*
X28299999Y-22320476D02*
X28204761Y-22225238D01*
X28204761Y-22225238D02*
X28061904Y-22177619D01*
X28061904Y-22177619D02*
X27966666Y-22177619D01*
X27966666Y-22177619D02*
X27823809Y-22225238D01*
X27823809Y-22225238D02*
X27776190Y-22272857D01*
X26823809Y-22225238D02*
X26919047Y-22177619D01*
X26919047Y-22177619D02*
X27061904Y-22177619D01*
X27061904Y-22177619D02*
X27204761Y-22225238D01*
X27204761Y-22225238D02*
X27299999Y-22320476D01*
X27299999Y-22320476D02*
X27347618Y-22415714D01*
X27347618Y-22415714D02*
X27395237Y-22606190D01*
X27395237Y-22606190D02*
X27395237Y-22749047D01*
X27395237Y-22749047D02*
X27347618Y-22939523D01*
X27347618Y-22939523D02*
X27299999Y-23034761D01*
X27299999Y-23034761D02*
X27204761Y-23130000D01*
X27204761Y-23130000D02*
X27061904Y-23177619D01*
X27061904Y-23177619D02*
X26966666Y-23177619D01*
X26966666Y-23177619D02*
X26823809Y-23130000D01*
X26823809Y-23130000D02*
X26776190Y-23082380D01*
X26776190Y-23082380D02*
X26776190Y-22749047D01*
X26776190Y-22749047D02*
X26966666Y-22749047D01*
X25776190Y-23177619D02*
X26109523Y-22701428D01*
X26347618Y-23177619D02*
X26347618Y-22177619D01*
X26347618Y-22177619D02*
X25966666Y-22177619D01*
X25966666Y-22177619D02*
X25871428Y-22225238D01*
X25871428Y-22225238D02*
X25823809Y-22272857D01*
X25823809Y-22272857D02*
X25776190Y-22368095D01*
X25776190Y-22368095D02*
X25776190Y-22510952D01*
X25776190Y-22510952D02*
X25823809Y-22606190D01*
X25823809Y-22606190D02*
X25871428Y-22653809D01*
X25871428Y-22653809D02*
X25966666Y-22701428D01*
X25966666Y-22701428D02*
X26347618Y-22701428D01*
X25230000Y-24490476D02*
X25277619Y-24633333D01*
X25277619Y-24633333D02*
X25277619Y-24871428D01*
X25277619Y-24871428D02*
X25230000Y-24966666D01*
X25230000Y-24966666D02*
X25182380Y-25014285D01*
X25182380Y-25014285D02*
X25087142Y-25061904D01*
X25087142Y-25061904D02*
X24991904Y-25061904D01*
X24991904Y-25061904D02*
X24896666Y-25014285D01*
X24896666Y-25014285D02*
X24849047Y-24966666D01*
X24849047Y-24966666D02*
X24801428Y-24871428D01*
X24801428Y-24871428D02*
X24753809Y-24680952D01*
X24753809Y-24680952D02*
X24706190Y-24585714D01*
X24706190Y-24585714D02*
X24658571Y-24538095D01*
X24658571Y-24538095D02*
X24563333Y-24490476D01*
X24563333Y-24490476D02*
X24468095Y-24490476D01*
X24468095Y-24490476D02*
X24372857Y-24538095D01*
X24372857Y-24538095D02*
X24325238Y-24585714D01*
X24325238Y-24585714D02*
X24277619Y-24680952D01*
X24277619Y-24680952D02*
X24277619Y-24919047D01*
X24277619Y-24919047D02*
X24325238Y-25061904D01*
X25277619Y-25490476D02*
X24277619Y-25490476D01*
X24277619Y-25490476D02*
X24277619Y-25728571D01*
X24277619Y-25728571D02*
X24325238Y-25871428D01*
X24325238Y-25871428D02*
X24420476Y-25966666D01*
X24420476Y-25966666D02*
X24515714Y-26014285D01*
X24515714Y-26014285D02*
X24706190Y-26061904D01*
X24706190Y-26061904D02*
X24849047Y-26061904D01*
X24849047Y-26061904D02*
X25039523Y-26014285D01*
X25039523Y-26014285D02*
X25134761Y-25966666D01*
X25134761Y-25966666D02*
X25230000Y-25871428D01*
X25230000Y-25871428D02*
X25277619Y-25728571D01*
X25277619Y-25728571D02*
X25277619Y-25490476D01*
X24991904Y-26442857D02*
X24991904Y-26919047D01*
X25277619Y-26347619D02*
X24277619Y-26680952D01*
X24277619Y-26680952D02*
X25277619Y-27014285D01*
X22630000Y-24590476D02*
X22677619Y-24733333D01*
X22677619Y-24733333D02*
X22677619Y-24971428D01*
X22677619Y-24971428D02*
X22630000Y-25066666D01*
X22630000Y-25066666D02*
X22582380Y-25114285D01*
X22582380Y-25114285D02*
X22487142Y-25161904D01*
X22487142Y-25161904D02*
X22391904Y-25161904D01*
X22391904Y-25161904D02*
X22296666Y-25114285D01*
X22296666Y-25114285D02*
X22249047Y-25066666D01*
X22249047Y-25066666D02*
X22201428Y-24971428D01*
X22201428Y-24971428D02*
X22153809Y-24780952D01*
X22153809Y-24780952D02*
X22106190Y-24685714D01*
X22106190Y-24685714D02*
X22058571Y-24638095D01*
X22058571Y-24638095D02*
X21963333Y-24590476D01*
X21963333Y-24590476D02*
X21868095Y-24590476D01*
X21868095Y-24590476D02*
X21772857Y-24638095D01*
X21772857Y-24638095D02*
X21725238Y-24685714D01*
X21725238Y-24685714D02*
X21677619Y-24780952D01*
X21677619Y-24780952D02*
X21677619Y-25019047D01*
X21677619Y-25019047D02*
X21725238Y-25161904D01*
X22582380Y-26161904D02*
X22630000Y-26114285D01*
X22630000Y-26114285D02*
X22677619Y-25971428D01*
X22677619Y-25971428D02*
X22677619Y-25876190D01*
X22677619Y-25876190D02*
X22630000Y-25733333D01*
X22630000Y-25733333D02*
X22534761Y-25638095D01*
X22534761Y-25638095D02*
X22439523Y-25590476D01*
X22439523Y-25590476D02*
X22249047Y-25542857D01*
X22249047Y-25542857D02*
X22106190Y-25542857D01*
X22106190Y-25542857D02*
X21915714Y-25590476D01*
X21915714Y-25590476D02*
X21820476Y-25638095D01*
X21820476Y-25638095D02*
X21725238Y-25733333D01*
X21725238Y-25733333D02*
X21677619Y-25876190D01*
X21677619Y-25876190D02*
X21677619Y-25971428D01*
X21677619Y-25971428D02*
X21725238Y-26114285D01*
X21725238Y-26114285D02*
X21772857Y-26161904D01*
X22677619Y-27066666D02*
X22677619Y-26590476D01*
X22677619Y-26590476D02*
X21677619Y-26590476D01*
X29377619Y-24142857D02*
X29377619Y-24761904D01*
X29377619Y-24761904D02*
X29758571Y-24428571D01*
X29758571Y-24428571D02*
X29758571Y-24571428D01*
X29758571Y-24571428D02*
X29806190Y-24666666D01*
X29806190Y-24666666D02*
X29853809Y-24714285D01*
X29853809Y-24714285D02*
X29949047Y-24761904D01*
X29949047Y-24761904D02*
X30187142Y-24761904D01*
X30187142Y-24761904D02*
X30282380Y-24714285D01*
X30282380Y-24714285D02*
X30330000Y-24666666D01*
X30330000Y-24666666D02*
X30377619Y-24571428D01*
X30377619Y-24571428D02*
X30377619Y-24285714D01*
X30377619Y-24285714D02*
X30330000Y-24190476D01*
X30330000Y-24190476D02*
X30282380Y-24142857D01*
X30282380Y-25190476D02*
X30330000Y-25238095D01*
X30330000Y-25238095D02*
X30377619Y-25190476D01*
X30377619Y-25190476D02*
X30330000Y-25142857D01*
X30330000Y-25142857D02*
X30282380Y-25190476D01*
X30282380Y-25190476D02*
X30377619Y-25190476D01*
X29377619Y-25571428D02*
X29377619Y-26190475D01*
X29377619Y-26190475D02*
X29758571Y-25857142D01*
X29758571Y-25857142D02*
X29758571Y-25999999D01*
X29758571Y-25999999D02*
X29806190Y-26095237D01*
X29806190Y-26095237D02*
X29853809Y-26142856D01*
X29853809Y-26142856D02*
X29949047Y-26190475D01*
X29949047Y-26190475D02*
X30187142Y-26190475D01*
X30187142Y-26190475D02*
X30282380Y-26142856D01*
X30282380Y-26142856D02*
X30330000Y-26095237D01*
X30330000Y-26095237D02*
X30377619Y-25999999D01*
X30377619Y-25999999D02*
X30377619Y-25714285D01*
X30377619Y-25714285D02*
X30330000Y-25619047D01*
X30330000Y-25619047D02*
X30282380Y-25571428D01*
X29377619Y-26476190D02*
X30377619Y-26809523D01*
X30377619Y-26809523D02*
X29377619Y-27142856D01*
X31004761Y-20577619D02*
X30433333Y-20577619D01*
X30719047Y-21577619D02*
X30719047Y-20577619D01*
X30099999Y-21577619D02*
X30099999Y-20910952D01*
X30099999Y-21101428D02*
X30052380Y-21006190D01*
X30052380Y-21006190D02*
X30004761Y-20958571D01*
X30004761Y-20958571D02*
X29909523Y-20910952D01*
X29909523Y-20910952D02*
X29814285Y-20910952D01*
X29052380Y-21577619D02*
X29052380Y-21053809D01*
X29052380Y-21053809D02*
X29099999Y-20958571D01*
X29099999Y-20958571D02*
X29195237Y-20910952D01*
X29195237Y-20910952D02*
X29385713Y-20910952D01*
X29385713Y-20910952D02*
X29480951Y-20958571D01*
X29052380Y-21530000D02*
X29147618Y-21577619D01*
X29147618Y-21577619D02*
X29385713Y-21577619D01*
X29385713Y-21577619D02*
X29480951Y-21530000D01*
X29480951Y-21530000D02*
X29528570Y-21434761D01*
X29528570Y-21434761D02*
X29528570Y-21339523D01*
X29528570Y-21339523D02*
X29480951Y-21244285D01*
X29480951Y-21244285D02*
X29385713Y-21196666D01*
X29385713Y-21196666D02*
X29147618Y-21196666D01*
X29147618Y-21196666D02*
X29052380Y-21149047D01*
X28147618Y-21530000D02*
X28242856Y-21577619D01*
X28242856Y-21577619D02*
X28433332Y-21577619D01*
X28433332Y-21577619D02*
X28528570Y-21530000D01*
X28528570Y-21530000D02*
X28576189Y-21482380D01*
X28576189Y-21482380D02*
X28623808Y-21387142D01*
X28623808Y-21387142D02*
X28623808Y-21101428D01*
X28623808Y-21101428D02*
X28576189Y-21006190D01*
X28576189Y-21006190D02*
X28528570Y-20958571D01*
X28528570Y-20958571D02*
X28433332Y-20910952D01*
X28433332Y-20910952D02*
X28242856Y-20910952D01*
X28242856Y-20910952D02*
X28147618Y-20958571D01*
X27719046Y-21577619D02*
X27719046Y-20577619D01*
X27623808Y-21196666D02*
X27338094Y-21577619D01*
X27338094Y-20910952D02*
X27719046Y-21291904D01*
X26338094Y-21577619D02*
X26671427Y-21101428D01*
X26909522Y-21577619D02*
X26909522Y-20577619D01*
X26909522Y-20577619D02*
X26528570Y-20577619D01*
X26528570Y-20577619D02*
X26433332Y-20625238D01*
X26433332Y-20625238D02*
X26385713Y-20672857D01*
X26385713Y-20672857D02*
X26338094Y-20768095D01*
X26338094Y-20768095D02*
X26338094Y-20910952D01*
X26338094Y-20910952D02*
X26385713Y-21006190D01*
X26385713Y-21006190D02*
X26433332Y-21053809D01*
X26433332Y-21053809D02*
X26528570Y-21101428D01*
X26528570Y-21101428D02*
X26909522Y-21101428D01*
X25909522Y-21577619D02*
X25909522Y-20910952D01*
X25909522Y-20577619D02*
X25957141Y-20625238D01*
X25957141Y-20625238D02*
X25909522Y-20672857D01*
X25909522Y-20672857D02*
X25861903Y-20625238D01*
X25861903Y-20625238D02*
X25909522Y-20577619D01*
X25909522Y-20577619D02*
X25909522Y-20672857D01*
X25433332Y-20910952D02*
X25433332Y-21577619D01*
X25433332Y-21006190D02*
X25385713Y-20958571D01*
X25385713Y-20958571D02*
X25290475Y-20910952D01*
X25290475Y-20910952D02*
X25147618Y-20910952D01*
X25147618Y-20910952D02*
X25052380Y-20958571D01*
X25052380Y-20958571D02*
X25004761Y-21053809D01*
X25004761Y-21053809D02*
X25004761Y-21577619D01*
X24099999Y-20910952D02*
X24099999Y-21720476D01*
X24099999Y-21720476D02*
X24147618Y-21815714D01*
X24147618Y-21815714D02*
X24195237Y-21863333D01*
X24195237Y-21863333D02*
X24290475Y-21910952D01*
X24290475Y-21910952D02*
X24433332Y-21910952D01*
X24433332Y-21910952D02*
X24528570Y-21863333D01*
X24099999Y-21530000D02*
X24195237Y-21577619D01*
X24195237Y-21577619D02*
X24385713Y-21577619D01*
X24385713Y-21577619D02*
X24480951Y-21530000D01*
X24480951Y-21530000D02*
X24528570Y-21482380D01*
X24528570Y-21482380D02*
X24576189Y-21387142D01*
X24576189Y-21387142D02*
X24576189Y-21101428D01*
X24576189Y-21101428D02*
X24528570Y-21006190D01*
X24528570Y-21006190D02*
X24480951Y-20958571D01*
X24480951Y-20958571D02*
X24385713Y-20910952D01*
X24385713Y-20910952D02*
X24195237Y-20910952D01*
X24195237Y-20910952D02*
X24099999Y-20958571D01*
X22338094Y-21577619D02*
X22909522Y-21577619D01*
X22623808Y-21577619D02*
X22623808Y-20577619D01*
X22623808Y-20577619D02*
X22719046Y-20720476D01*
X22719046Y-20720476D02*
X22814284Y-20815714D01*
X22814284Y-20815714D02*
X22909522Y-20863333D01*
X21909522Y-21482380D02*
X21861903Y-21530000D01*
X21861903Y-21530000D02*
X21909522Y-21577619D01*
X21909522Y-21577619D02*
X21957141Y-21530000D01*
X21957141Y-21530000D02*
X21909522Y-21482380D01*
X21909522Y-21482380D02*
X21909522Y-21577619D01*
X21242856Y-20577619D02*
X21147618Y-20577619D01*
X21147618Y-20577619D02*
X21052380Y-20625238D01*
X21052380Y-20625238D02*
X21004761Y-20672857D01*
X21004761Y-20672857D02*
X20957142Y-20768095D01*
X20957142Y-20768095D02*
X20909523Y-20958571D01*
X20909523Y-20958571D02*
X20909523Y-21196666D01*
X20909523Y-21196666D02*
X20957142Y-21387142D01*
X20957142Y-21387142D02*
X21004761Y-21482380D01*
X21004761Y-21482380D02*
X21052380Y-21530000D01*
X21052380Y-21530000D02*
X21147618Y-21577619D01*
X21147618Y-21577619D02*
X21242856Y-21577619D01*
X21242856Y-21577619D02*
X21338094Y-21530000D01*
X21338094Y-21530000D02*
X21385713Y-21482380D01*
X21385713Y-21482380D02*
X21433332Y-21387142D01*
X21433332Y-21387142D02*
X21480951Y-21196666D01*
X21480951Y-21196666D02*
X21480951Y-20958571D01*
X21480951Y-20958571D02*
X21433332Y-20768095D01*
X21433332Y-20768095D02*
X21385713Y-20672857D01*
X21385713Y-20672857D02*
X21338094Y-20625238D01*
X21338094Y-20625238D02*
X21242856Y-20577619D01*
M02*
