M48
; DRILL file {KiCad 7.0.1} date Fri Oct 11 23:35:29 2024
; FORMAT={-:-/ absolute / inch / decimal}
; #@! TF.CreationDate,2024-10-11T23:35:29-04:00
; #@! TF.GenerationSoftware,Kicad,Pcbnew,7.0.1
; #@! TF.FileFunction,Plated,1,2,PTH
FMAT,2
INCH
; #@! TA.AperFunction,Plated,PTH,ViaDrill
T1C0.0157
; #@! TA.AperFunction,Plated,PTH,ComponentDrill
T2C0.0394
%
G90
G05
T1
X4.6063Y-1.3583
X4.6063Y-2.0276
X4.6063Y-2.6969
X4.6063Y-3.3661
X4.6063Y-4.0354
X4.7432Y-1.3493
X4.7432Y-2.0186
X4.7432Y-2.6879
X4.7432Y-3.3572
X4.7432Y-4.0265
X4.7436Y-1.2629
X4.7436Y-1.9322
X4.7436Y-2.6014
X4.7436Y-3.2707
X4.7436Y-3.94
X4.7524Y-1.3045
X4.7524Y-1.9738
X4.7524Y-2.6431
X4.7524Y-3.3124
X4.7524Y-3.9817
X4.8404Y-1.3106
X4.8404Y-1.9799
X4.8404Y-2.6492
X4.8404Y-3.3185
X4.8404Y-3.9877
X4.9311Y-1.3455
X4.9311Y-2.0148
X4.9311Y-2.6841
X4.9311Y-3.3533
X4.9311Y-4.0226
X4.9606Y-1.2205
X4.9606Y-1.8898
X4.9606Y-2.5591
X4.9606Y-3.2283
X4.9606Y-3.8976
X5.1575Y-1.3583
X5.1575Y-2.0276
X5.1575Y-2.6969
X5.1575Y-3.3661
X5.1575Y-4.0354
X5.2944Y-1.3493
X5.2944Y-2.0186
X5.2944Y-2.6879
X5.2944Y-3.3572
X5.2944Y-4.0265
X5.2948Y-1.2629
X5.2948Y-1.9322
X5.2948Y-2.6014
X5.2948Y-3.2707
X5.2948Y-3.94
X5.3036Y-1.3045
X5.3036Y-1.9738
X5.3036Y-2.6431
X5.3036Y-3.3124
X5.3036Y-3.9817
X5.3916Y-1.3106
X5.3916Y-1.9799
X5.3916Y-2.6492
X5.3916Y-3.3185
X5.3916Y-3.9877
X5.4823Y-1.3455
X5.4823Y-2.0148
X5.4823Y-2.6841
X5.4823Y-3.3533
X5.4823Y-4.0226
X5.5118Y-1.2205
X5.5118Y-1.8898
X5.5118Y-2.5591
X5.5118Y-3.2283
X5.5118Y-3.8976
X5.7087Y-1.3583
X5.7087Y-2.0276
X5.7087Y-2.6969
X5.7087Y-3.3661
X5.7087Y-4.0354
X5.8456Y-1.3493
X5.8456Y-2.0186
X5.8456Y-2.6879
X5.8456Y-3.3572
X5.8456Y-4.0265
X5.846Y-1.2629
X5.846Y-1.9322
X5.846Y-2.6014
X5.846Y-3.2707
X5.846Y-3.94
X5.8547Y-1.3045
X5.8547Y-1.9738
X5.8547Y-2.6431
X5.8547Y-3.3124
X5.8547Y-3.9817
X5.9427Y-1.3106
X5.9427Y-1.9799
X5.9427Y-2.6492
X5.9427Y-3.3185
X5.9427Y-3.9877
X6.0335Y-1.3455
X6.0335Y-2.0148
X6.0335Y-2.6841
X6.0335Y-3.3533
X6.0335Y-4.0226
X6.063Y-1.2205
X6.063Y-1.8898
X6.063Y-2.5591
X6.063Y-3.2283
X6.063Y-3.8976
X6.2598Y-1.3583
X6.2598Y-2.0276
X6.2598Y-2.6969
X6.2598Y-3.3661
X6.2598Y-4.0354
X6.3968Y-1.3493
X6.3968Y-2.0186
X6.3968Y-2.6879
X6.3968Y-3.3572
X6.3968Y-4.0265
X6.3971Y-1.2629
X6.3971Y-1.9322
X6.3971Y-2.6014
X6.3971Y-3.2707
X6.3971Y-3.94
X6.4059Y-1.3045
X6.4059Y-1.9738
X6.4059Y-2.6431
X6.4059Y-3.3124
X6.4059Y-3.9817
X6.4939Y-1.3106
X6.4939Y-1.9799
X6.4939Y-2.6492
X6.4939Y-3.3185
X6.4939Y-3.9877
X6.5846Y-1.3455
X6.5846Y-2.0148
X6.5846Y-2.6841
X6.5846Y-3.3533
X6.5846Y-4.0226
X6.6142Y-1.2205
X6.6142Y-1.8898
X6.6142Y-2.5591
X6.6142Y-3.2283
X6.6142Y-3.8976
X6.811Y-1.3583
X6.811Y-2.0276
X6.811Y-2.6969
X6.811Y-3.3661
X6.811Y-4.0354
X6.9479Y-1.3493
X6.9479Y-2.0186
X6.9479Y-2.6879
X6.9479Y-3.3572
X6.9479Y-4.0265
X6.9483Y-1.2629
X6.9483Y-1.9322
X6.9483Y-2.6014
X6.9483Y-3.2707
X6.9483Y-3.94
X6.9571Y-1.3045
X6.9571Y-1.9738
X6.9571Y-2.6431
X6.9571Y-3.3124
X6.9571Y-3.9817
X7.0451Y-1.3106
X7.0451Y-1.9799
X7.0451Y-2.6492
X7.0451Y-3.3185
X7.0451Y-3.9877
X7.1358Y-1.3455
X7.1358Y-2.0148
X7.1358Y-2.6841
X7.1358Y-3.3533
X7.1358Y-4.0226
X7.1654Y-1.2205
X7.1654Y-1.8898
X7.1654Y-2.5591
X7.1654Y-3.2283
X7.1654Y-3.8976
T2
X4.5957Y-1.128
X4.5957Y-1.7972
X4.5957Y-2.4665
X4.5957Y-3.1358
X4.5957Y-3.8051
X4.6957Y-1.128
X4.6957Y-1.7972
X4.6957Y-2.4665
X4.6957Y-3.1358
X4.6957Y-3.8051
X4.7957Y-1.128
X4.7957Y-1.7972
X4.7957Y-2.4665
X4.7957Y-3.1358
X4.7957Y-3.8051
X4.8957Y-1.128
X4.8957Y-1.7972
X4.8957Y-2.4665
X4.8957Y-3.1358
X4.8957Y-3.8051
X5.1469Y-1.128
X5.1469Y-1.7972
X5.1469Y-2.4665
X5.1469Y-3.1358
X5.1469Y-3.8051
X5.2469Y-1.128
X5.2469Y-1.7972
X5.2469Y-2.4665
X5.2469Y-3.1358
X5.2469Y-3.8051
X5.3469Y-1.128
X5.3469Y-1.7972
X5.3469Y-2.4665
X5.3469Y-3.1358
X5.3469Y-3.8051
X5.4469Y-1.128
X5.4469Y-1.7972
X5.4469Y-2.4665
X5.4469Y-3.1358
X5.4469Y-3.8051
X5.698Y-1.128
X5.698Y-1.7972
X5.698Y-2.4665
X5.698Y-3.1358
X5.698Y-3.8051
X5.798Y-1.128
X5.798Y-1.7972
X5.798Y-2.4665
X5.798Y-3.1358
X5.798Y-3.8051
X5.898Y-1.128
X5.898Y-1.7972
X5.898Y-2.4665
X5.898Y-3.1358
X5.898Y-3.8051
X5.998Y-1.128
X5.998Y-1.7972
X5.998Y-2.4665
X5.998Y-3.1358
X5.998Y-3.8051
X6.2492Y-1.128
X6.2492Y-1.7972
X6.2492Y-2.4665
X6.2492Y-3.1358
X6.2492Y-3.8051
X6.3492Y-1.128
X6.3492Y-1.7972
X6.3492Y-2.4665
X6.3492Y-3.1358
X6.3492Y-3.8051
X6.4492Y-1.128
X6.4492Y-1.7972
X6.4492Y-2.4665
X6.4492Y-3.1358
X6.4492Y-3.8051
X6.5492Y-1.128
X6.5492Y-1.7972
X6.5492Y-2.4665
X6.5492Y-3.1358
X6.5492Y-3.8051
X6.8004Y-1.128
X6.8004Y-1.7972
X6.8004Y-2.4665
X6.8004Y-3.1358
X6.8004Y-3.8051
X6.9004Y-1.128
X6.9004Y-1.7972
X6.9004Y-2.4665
X6.9004Y-3.1358
X6.9004Y-3.8051
X7.0004Y-1.128
X7.0004Y-1.7972
X7.0004Y-2.4665
X7.0004Y-3.1358
X7.0004Y-3.8051
X7.1004Y-1.128
X7.1004Y-1.7972
X7.1004Y-2.4665
X7.1004Y-3.1358
X7.1004Y-3.8051
T0
M30
