%TF.GenerationSoftware,KiCad,Pcbnew,7.0.1*%
%TF.CreationDate,2024-10-11T23:35:26-04:00*%
%TF.ProjectId,TrackRing-panel,54726163-6b52-4696-9e67-2d70616e656c,rev?*%
%TF.SameCoordinates,Original*%
%TF.FileFunction,Copper,L2,Bot*%
%TF.FilePolarity,Positive*%
%FSLAX46Y46*%
G04 Gerber Fmt 4.6, Leading zero omitted, Abs format (unit mm)*
G04 Created by KiCad (PCBNEW 7.0.1) date 2024-10-11 23:35:26*
%MOMM*%
%LPD*%
G01*
G04 APERTURE LIST*
%TA.AperFunction,ComponentPad*%
%ADD10R,1.700000X1.700000*%
%TD*%
%TA.AperFunction,ComponentPad*%
%ADD11O,1.700000X1.700000*%
%TD*%
%TA.AperFunction,ViaPad*%
%ADD12C,0.800000*%
%TD*%
%TA.AperFunction,Conductor*%
%ADD13C,0.250000*%
%TD*%
G04 APERTURE END LIST*
D10*
%TO.P,J1,1,Pin_1*%
%TO.N,Board_1-/VCC*%
X138350000Y-28650000D03*
D11*
%TO.P,J1,2,Pin_2*%
%TO.N,Board_1-GND*%
X135810000Y-28650000D03*
%TO.P,J1,3,Pin_3*%
%TO.N,Board_1-/SDA*%
X133270000Y-28650000D03*
%TO.P,J1,4,Pin_4*%
%TO.N,Board_1-/SCL*%
X130730000Y-28650000D03*
%TD*%
D10*
%TO.P,J1,1,Pin_1*%
%TO.N,Board_18-/VCC*%
X166350000Y-79650000D03*
D11*
%TO.P,J1,2,Pin_2*%
%TO.N,Board_18-GND*%
X163810000Y-79650000D03*
%TO.P,J1,3,Pin_3*%
%TO.N,Board_18-/SDA*%
X161270000Y-79650000D03*
%TO.P,J1,4,Pin_4*%
%TO.N,Board_18-/SCL*%
X158730000Y-79650000D03*
%TD*%
D10*
%TO.P,J1,1,Pin_1*%
%TO.N,Board_4-/VCC*%
X180350000Y-28650000D03*
D11*
%TO.P,J1,2,Pin_2*%
%TO.N,Board_4-GND*%
X177810000Y-28650000D03*
%TO.P,J1,3,Pin_3*%
%TO.N,Board_4-/SDA*%
X175270000Y-28650000D03*
%TO.P,J1,4,Pin_4*%
%TO.N,Board_4-/SCL*%
X172730000Y-28650000D03*
%TD*%
D10*
%TO.P,J1,1,Pin_1*%
%TO.N,Board_7-/VCC*%
X152350000Y-45650000D03*
D11*
%TO.P,J1,2,Pin_2*%
%TO.N,Board_7-GND*%
X149810000Y-45650000D03*
%TO.P,J1,3,Pin_3*%
%TO.N,Board_7-/SDA*%
X147270000Y-45650000D03*
%TO.P,J1,4,Pin_4*%
%TO.N,Board_7-/SCL*%
X144730000Y-45650000D03*
%TD*%
D10*
%TO.P,J1,1,Pin_1*%
%TO.N,Board_8-/VCC*%
X166350000Y-45650000D03*
D11*
%TO.P,J1,2,Pin_2*%
%TO.N,Board_8-GND*%
X163810000Y-45650000D03*
%TO.P,J1,3,Pin_3*%
%TO.N,Board_8-/SDA*%
X161270000Y-45650000D03*
%TO.P,J1,4,Pin_4*%
%TO.N,Board_8-/SCL*%
X158730000Y-45650000D03*
%TD*%
D10*
%TO.P,J1,1,Pin_1*%
%TO.N,Board_10-/VCC*%
X124350000Y-62650000D03*
D11*
%TO.P,J1,2,Pin_2*%
%TO.N,Board_10-GND*%
X121810000Y-62650000D03*
%TO.P,J1,3,Pin_3*%
%TO.N,Board_10-/SDA*%
X119270000Y-62650000D03*
%TO.P,J1,4,Pin_4*%
%TO.N,Board_10-/SCL*%
X116730000Y-62650000D03*
%TD*%
D10*
%TO.P,J1,1,Pin_1*%
%TO.N,Board_9-/VCC*%
X180350000Y-45650000D03*
D11*
%TO.P,J1,2,Pin_2*%
%TO.N,Board_9-GND*%
X177810000Y-45650000D03*
%TO.P,J1,3,Pin_3*%
%TO.N,Board_9-/SDA*%
X175270000Y-45650000D03*
%TO.P,J1,4,Pin_4*%
%TO.N,Board_9-/SCL*%
X172730000Y-45650000D03*
%TD*%
D10*
%TO.P,J1,1,Pin_1*%
%TO.N,Board_3-/VCC*%
X166350000Y-28650000D03*
D11*
%TO.P,J1,2,Pin_2*%
%TO.N,Board_3-GND*%
X163810000Y-28650000D03*
%TO.P,J1,3,Pin_3*%
%TO.N,Board_3-/SDA*%
X161270000Y-28650000D03*
%TO.P,J1,4,Pin_4*%
%TO.N,Board_3-/SCL*%
X158730000Y-28650000D03*
%TD*%
D10*
%TO.P,J1,1,Pin_1*%
%TO.N,Board_6-/VCC*%
X138350000Y-45650000D03*
D11*
%TO.P,J1,2,Pin_2*%
%TO.N,Board_6-GND*%
X135810000Y-45650000D03*
%TO.P,J1,3,Pin_3*%
%TO.N,Board_6-/SDA*%
X133270000Y-45650000D03*
%TO.P,J1,4,Pin_4*%
%TO.N,Board_6-/SCL*%
X130730000Y-45650000D03*
%TD*%
D10*
%TO.P,J1,1,Pin_1*%
%TO.N,Board_0-/VCC*%
X124350000Y-28650000D03*
D11*
%TO.P,J1,2,Pin_2*%
%TO.N,Board_0-GND*%
X121810000Y-28650000D03*
%TO.P,J1,3,Pin_3*%
%TO.N,Board_0-/SDA*%
X119270000Y-28650000D03*
%TO.P,J1,4,Pin_4*%
%TO.N,Board_0-/SCL*%
X116730000Y-28650000D03*
%TD*%
D10*
%TO.P,J1,1,Pin_1*%
%TO.N,Board_5-/VCC*%
X124350000Y-45650000D03*
D11*
%TO.P,J1,2,Pin_2*%
%TO.N,Board_5-GND*%
X121810000Y-45650000D03*
%TO.P,J1,3,Pin_3*%
%TO.N,Board_5-/SDA*%
X119270000Y-45650000D03*
%TO.P,J1,4,Pin_4*%
%TO.N,Board_5-/SCL*%
X116730000Y-45650000D03*
%TD*%
D10*
%TO.P,J1,1,Pin_1*%
%TO.N,Board_2-/VCC*%
X152350000Y-28650000D03*
D11*
%TO.P,J1,2,Pin_2*%
%TO.N,Board_2-GND*%
X149810000Y-28650000D03*
%TO.P,J1,3,Pin_3*%
%TO.N,Board_2-/SDA*%
X147270000Y-28650000D03*
%TO.P,J1,4,Pin_4*%
%TO.N,Board_2-/SCL*%
X144730000Y-28650000D03*
%TD*%
D10*
%TO.P,J1,1,Pin_1*%
%TO.N,Board_19-/VCC*%
X180350000Y-79650000D03*
D11*
%TO.P,J1,2,Pin_2*%
%TO.N,Board_19-GND*%
X177810000Y-79650000D03*
%TO.P,J1,3,Pin_3*%
%TO.N,Board_19-/SDA*%
X175270000Y-79650000D03*
%TO.P,J1,4,Pin_4*%
%TO.N,Board_19-/SCL*%
X172730000Y-79650000D03*
%TD*%
D10*
%TO.P,J1,1,Pin_1*%
%TO.N,Board_11-/VCC*%
X138350000Y-62650000D03*
D11*
%TO.P,J1,2,Pin_2*%
%TO.N,Board_11-GND*%
X135810000Y-62650000D03*
%TO.P,J1,3,Pin_3*%
%TO.N,Board_11-/SDA*%
X133270000Y-62650000D03*
%TO.P,J1,4,Pin_4*%
%TO.N,Board_11-/SCL*%
X130730000Y-62650000D03*
%TD*%
D10*
%TO.P,J1,1,Pin_1*%
%TO.N,Board_20-/VCC*%
X124350000Y-96650000D03*
D11*
%TO.P,J1,2,Pin_2*%
%TO.N,Board_20-GND*%
X121810000Y-96650000D03*
%TO.P,J1,3,Pin_3*%
%TO.N,Board_20-/SDA*%
X119270000Y-96650000D03*
%TO.P,J1,4,Pin_4*%
%TO.N,Board_20-/SCL*%
X116730000Y-96650000D03*
%TD*%
D10*
%TO.P,J1,1,Pin_1*%
%TO.N,Board_15-/VCC*%
X124350000Y-79650000D03*
D11*
%TO.P,J1,2,Pin_2*%
%TO.N,Board_15-GND*%
X121810000Y-79650000D03*
%TO.P,J1,3,Pin_3*%
%TO.N,Board_15-/SDA*%
X119270000Y-79650000D03*
%TO.P,J1,4,Pin_4*%
%TO.N,Board_15-/SCL*%
X116730000Y-79650000D03*
%TD*%
D10*
%TO.P,J1,1,Pin_1*%
%TO.N,Board_21-/VCC*%
X138350000Y-96650000D03*
D11*
%TO.P,J1,2,Pin_2*%
%TO.N,Board_21-GND*%
X135810000Y-96650000D03*
%TO.P,J1,3,Pin_3*%
%TO.N,Board_21-/SDA*%
X133270000Y-96650000D03*
%TO.P,J1,4,Pin_4*%
%TO.N,Board_21-/SCL*%
X130730000Y-96650000D03*
%TD*%
D10*
%TO.P,J1,1,Pin_1*%
%TO.N,Board_13-/VCC*%
X166350000Y-62650000D03*
D11*
%TO.P,J1,2,Pin_2*%
%TO.N,Board_13-GND*%
X163810000Y-62650000D03*
%TO.P,J1,3,Pin_3*%
%TO.N,Board_13-/SDA*%
X161270000Y-62650000D03*
%TO.P,J1,4,Pin_4*%
%TO.N,Board_13-/SCL*%
X158730000Y-62650000D03*
%TD*%
D10*
%TO.P,J1,1,Pin_1*%
%TO.N,Board_12-/VCC*%
X152350000Y-62650000D03*
D11*
%TO.P,J1,2,Pin_2*%
%TO.N,Board_12-GND*%
X149810000Y-62650000D03*
%TO.P,J1,3,Pin_3*%
%TO.N,Board_12-/SDA*%
X147270000Y-62650000D03*
%TO.P,J1,4,Pin_4*%
%TO.N,Board_12-/SCL*%
X144730000Y-62650000D03*
%TD*%
D10*
%TO.P,J1,1,Pin_1*%
%TO.N,Board_16-/VCC*%
X138350000Y-79650000D03*
D11*
%TO.P,J1,2,Pin_2*%
%TO.N,Board_16-GND*%
X135810000Y-79650000D03*
%TO.P,J1,3,Pin_3*%
%TO.N,Board_16-/SDA*%
X133270000Y-79650000D03*
%TO.P,J1,4,Pin_4*%
%TO.N,Board_16-/SCL*%
X130730000Y-79650000D03*
%TD*%
D10*
%TO.P,J1,1,Pin_1*%
%TO.N,Board_17-/VCC*%
X152350000Y-79650000D03*
D11*
%TO.P,J1,2,Pin_2*%
%TO.N,Board_17-GND*%
X149810000Y-79650000D03*
%TO.P,J1,3,Pin_3*%
%TO.N,Board_17-/SDA*%
X147270000Y-79650000D03*
%TO.P,J1,4,Pin_4*%
%TO.N,Board_17-/SCL*%
X144730000Y-79650000D03*
%TD*%
D10*
%TO.P,J1,1,Pin_1*%
%TO.N,Board_14-/VCC*%
X180350000Y-62650000D03*
D11*
%TO.P,J1,2,Pin_2*%
%TO.N,Board_14-GND*%
X177810000Y-62650000D03*
%TO.P,J1,3,Pin_3*%
%TO.N,Board_14-/SDA*%
X175270000Y-62650000D03*
%TO.P,J1,4,Pin_4*%
%TO.N,Board_14-/SCL*%
X172730000Y-62650000D03*
%TD*%
D10*
%TO.P,J1,1,Pin_1*%
%TO.N,Board_24-/VCC*%
X180350000Y-96650000D03*
D11*
%TO.P,J1,2,Pin_2*%
%TO.N,Board_24-GND*%
X177810000Y-96650000D03*
%TO.P,J1,3,Pin_3*%
%TO.N,Board_24-/SDA*%
X175270000Y-96650000D03*
%TO.P,J1,4,Pin_4*%
%TO.N,Board_24-/SCL*%
X172730000Y-96650000D03*
%TD*%
D10*
%TO.P,J1,1,Pin_1*%
%TO.N,Board_22-/VCC*%
X152350000Y-96650000D03*
D11*
%TO.P,J1,2,Pin_2*%
%TO.N,Board_22-GND*%
X149810000Y-96650000D03*
%TO.P,J1,3,Pin_3*%
%TO.N,Board_22-/SDA*%
X147270000Y-96650000D03*
%TO.P,J1,4,Pin_4*%
%TO.N,Board_22-/SCL*%
X144730000Y-96650000D03*
%TD*%
D10*
%TO.P,J1,1,Pin_1*%
%TO.N,Board_23-/VCC*%
X166350000Y-96650000D03*
D11*
%TO.P,J1,2,Pin_2*%
%TO.N,Board_23-GND*%
X163810000Y-96650000D03*
%TO.P,J1,3,Pin_3*%
%TO.N,Board_23-/SDA*%
X161270000Y-96650000D03*
%TO.P,J1,4,Pin_4*%
%TO.N,Board_23-/SCL*%
X158730000Y-96650000D03*
%TD*%
D12*
%TO.N,Board_0-/VCC*%
X117000000Y-34500000D03*
X120710500Y-33134098D03*
%TO.N,Board_0-GND*%
X120477701Y-34272299D03*
X122945644Y-33288848D03*
X126000000Y-31000000D03*
X120487182Y-32076780D03*
X125250000Y-34175000D03*
%TO.N,Board_1-/VCC*%
X131000000Y-34500000D03*
X134710500Y-33134098D03*
%TO.N,Board_1-GND*%
X134477701Y-34272299D03*
X136945644Y-33288848D03*
X140000000Y-31000000D03*
X134487182Y-32076780D03*
X139250000Y-34175000D03*
%TO.N,Board_2-/VCC*%
X145000000Y-34500000D03*
X148710500Y-33134098D03*
%TO.N,Board_2-GND*%
X148477701Y-34272299D03*
X150945644Y-33288848D03*
X154000000Y-31000000D03*
X148487182Y-32076780D03*
X153250000Y-34175000D03*
%TO.N,Board_3-/VCC*%
X159000000Y-34500000D03*
X162710500Y-33134098D03*
%TO.N,Board_3-GND*%
X162477701Y-34272299D03*
X164945644Y-33288848D03*
X168000000Y-31000000D03*
X162487182Y-32076780D03*
X167250000Y-34175000D03*
%TO.N,Board_4-/VCC*%
X173000000Y-34500000D03*
X176710500Y-33134098D03*
%TO.N,Board_4-GND*%
X176477701Y-34272299D03*
X178945644Y-33288848D03*
X182000000Y-31000000D03*
X176487182Y-32076780D03*
X181250000Y-34175000D03*
%TO.N,Board_5-/VCC*%
X117000000Y-51500000D03*
X120710500Y-50134098D03*
%TO.N,Board_5-GND*%
X120477701Y-51272299D03*
X122945644Y-50288848D03*
X126000000Y-48000000D03*
X120487182Y-49076780D03*
X125250000Y-51175000D03*
%TO.N,Board_6-/VCC*%
X131000000Y-51500000D03*
X134710500Y-50134098D03*
%TO.N,Board_6-GND*%
X134477701Y-51272299D03*
X136945644Y-50288848D03*
X140000000Y-48000000D03*
X134487182Y-49076780D03*
X139250000Y-51175000D03*
%TO.N,Board_7-/VCC*%
X145000000Y-51500000D03*
X148710500Y-50134098D03*
%TO.N,Board_7-GND*%
X148477701Y-51272299D03*
X150945644Y-50288848D03*
X154000000Y-48000000D03*
X148487182Y-49076780D03*
X153250000Y-51175000D03*
%TO.N,Board_8-/VCC*%
X159000000Y-51500000D03*
X162710500Y-50134098D03*
%TO.N,Board_8-GND*%
X162477701Y-51272299D03*
X164945644Y-50288848D03*
X168000000Y-48000000D03*
X162487182Y-49076780D03*
X167250000Y-51175000D03*
%TO.N,Board_9-/VCC*%
X173000000Y-51500000D03*
X176710500Y-50134098D03*
%TO.N,Board_9-GND*%
X176477701Y-51272299D03*
X178945644Y-50288848D03*
X182000000Y-48000000D03*
X176487182Y-49076780D03*
X181250000Y-51175000D03*
%TO.N,Board_10-/VCC*%
X117000000Y-68500000D03*
X120710500Y-67134098D03*
%TO.N,Board_10-GND*%
X120477701Y-68272299D03*
X122945644Y-67288848D03*
X126000000Y-65000000D03*
X120487182Y-66076780D03*
X125250000Y-68175000D03*
%TO.N,Board_11-/VCC*%
X131000000Y-68500000D03*
X134710500Y-67134098D03*
%TO.N,Board_11-GND*%
X134477701Y-68272299D03*
X136945644Y-67288848D03*
X140000000Y-65000000D03*
X134487182Y-66076780D03*
X139250000Y-68175000D03*
%TO.N,Board_12-/VCC*%
X145000000Y-68500000D03*
X148710500Y-67134098D03*
%TO.N,Board_12-GND*%
X148477701Y-68272299D03*
X150945644Y-67288848D03*
X154000000Y-65000000D03*
X148487182Y-66076780D03*
X153250000Y-68175000D03*
%TO.N,Board_13-/VCC*%
X159000000Y-68500000D03*
X162710500Y-67134098D03*
%TO.N,Board_13-GND*%
X162477701Y-68272299D03*
X164945644Y-67288848D03*
X168000000Y-65000000D03*
X162487182Y-66076780D03*
X167250000Y-68175000D03*
%TO.N,Board_14-/VCC*%
X173000000Y-68500000D03*
X176710500Y-67134098D03*
%TO.N,Board_14-GND*%
X176477701Y-68272299D03*
X178945644Y-67288848D03*
X182000000Y-65000000D03*
X176487182Y-66076780D03*
X181250000Y-68175000D03*
%TO.N,Board_15-/VCC*%
X117000000Y-85500000D03*
X120710500Y-84134098D03*
%TO.N,Board_15-GND*%
X120477701Y-85272299D03*
X122945644Y-84288848D03*
X126000000Y-82000000D03*
X120487182Y-83076780D03*
X125250000Y-85175000D03*
%TO.N,Board_16-/VCC*%
X131000000Y-85500000D03*
X134710500Y-84134098D03*
%TO.N,Board_16-GND*%
X134477701Y-85272299D03*
X136945644Y-84288848D03*
X140000000Y-82000000D03*
X134487182Y-83076780D03*
X139250000Y-85175000D03*
%TO.N,Board_17-/VCC*%
X145000000Y-85500000D03*
X148710500Y-84134098D03*
%TO.N,Board_17-GND*%
X148477701Y-85272299D03*
X150945644Y-84288848D03*
X154000000Y-82000000D03*
X148487182Y-83076780D03*
X153250000Y-85175000D03*
%TO.N,Board_18-/VCC*%
X159000000Y-85500000D03*
X162710500Y-84134098D03*
%TO.N,Board_18-GND*%
X162477701Y-85272299D03*
X164945644Y-84288848D03*
X168000000Y-82000000D03*
X162487182Y-83076780D03*
X167250000Y-85175000D03*
%TO.N,Board_19-/VCC*%
X173000000Y-85500000D03*
X176710500Y-84134098D03*
%TO.N,Board_19-GND*%
X176477701Y-85272299D03*
X178945644Y-84288848D03*
X182000000Y-82000000D03*
X176487182Y-83076780D03*
X181250000Y-85175000D03*
%TO.N,Board_20-/VCC*%
X117000000Y-102500000D03*
X120710500Y-101134098D03*
%TO.N,Board_20-GND*%
X120477701Y-102272299D03*
X122945644Y-101288848D03*
X126000000Y-99000000D03*
X120487182Y-100076780D03*
X125250000Y-102175000D03*
%TO.N,Board_21-/VCC*%
X131000000Y-102500000D03*
X134710500Y-101134098D03*
%TO.N,Board_21-GND*%
X134477701Y-102272299D03*
X136945644Y-101288848D03*
X140000000Y-99000000D03*
X134487182Y-100076780D03*
X139250000Y-102175000D03*
%TO.N,Board_22-/VCC*%
X145000000Y-102500000D03*
X148710500Y-101134098D03*
%TO.N,Board_22-GND*%
X148477701Y-102272299D03*
X150945644Y-101288848D03*
X154000000Y-99000000D03*
X148487182Y-100076780D03*
X153250000Y-102175000D03*
%TO.N,Board_23-/VCC*%
X159000000Y-102500000D03*
X162710500Y-101134098D03*
%TO.N,Board_23-GND*%
X162477701Y-102272299D03*
X164945644Y-101288848D03*
X168000000Y-99000000D03*
X162487182Y-100076780D03*
X167250000Y-102175000D03*
%TO.N,Board_24-/VCC*%
X173000000Y-102500000D03*
X176710500Y-101134098D03*
%TO.N,Board_24-GND*%
X176477701Y-102272299D03*
X178945644Y-101288848D03*
X182000000Y-99000000D03*
X176487182Y-100076780D03*
X181250000Y-102175000D03*
%TD*%
D13*
%TO.N,Board_0-/VCC*%
X118365902Y-33134098D02*
X117000000Y-34500000D01*
X120710500Y-33134098D02*
X118365902Y-33134098D01*
%TO.N,Board_1-/VCC*%
X132365902Y-33134098D02*
X131000000Y-34500000D01*
X134710500Y-33134098D02*
X132365902Y-33134098D01*
%TO.N,Board_2-/VCC*%
X146365902Y-33134098D02*
X145000000Y-34500000D01*
X148710500Y-33134098D02*
X146365902Y-33134098D01*
%TO.N,Board_3-/VCC*%
X160365902Y-33134098D02*
X159000000Y-34500000D01*
X162710500Y-33134098D02*
X160365902Y-33134098D01*
%TO.N,Board_4-/VCC*%
X174365902Y-33134098D02*
X173000000Y-34500000D01*
X176710500Y-33134098D02*
X174365902Y-33134098D01*
%TO.N,Board_5-/VCC*%
X118365902Y-50134098D02*
X117000000Y-51500000D01*
X120710500Y-50134098D02*
X118365902Y-50134098D01*
%TO.N,Board_6-/VCC*%
X132365902Y-50134098D02*
X131000000Y-51500000D01*
X134710500Y-50134098D02*
X132365902Y-50134098D01*
%TO.N,Board_7-/VCC*%
X146365902Y-50134098D02*
X145000000Y-51500000D01*
X148710500Y-50134098D02*
X146365902Y-50134098D01*
%TO.N,Board_8-/VCC*%
X160365902Y-50134098D02*
X159000000Y-51500000D01*
X162710500Y-50134098D02*
X160365902Y-50134098D01*
%TO.N,Board_9-/VCC*%
X174365902Y-50134098D02*
X173000000Y-51500000D01*
X176710500Y-50134098D02*
X174365902Y-50134098D01*
%TO.N,Board_10-/VCC*%
X118365902Y-67134098D02*
X117000000Y-68500000D01*
X120710500Y-67134098D02*
X118365902Y-67134098D01*
%TO.N,Board_11-/VCC*%
X132365902Y-67134098D02*
X131000000Y-68500000D01*
X134710500Y-67134098D02*
X132365902Y-67134098D01*
%TO.N,Board_12-/VCC*%
X146365902Y-67134098D02*
X145000000Y-68500000D01*
X148710500Y-67134098D02*
X146365902Y-67134098D01*
%TO.N,Board_13-/VCC*%
X160365902Y-67134098D02*
X159000000Y-68500000D01*
X162710500Y-67134098D02*
X160365902Y-67134098D01*
%TO.N,Board_14-/VCC*%
X174365902Y-67134098D02*
X173000000Y-68500000D01*
X176710500Y-67134098D02*
X174365902Y-67134098D01*
%TO.N,Board_15-/VCC*%
X118365902Y-84134098D02*
X117000000Y-85500000D01*
X120710500Y-84134098D02*
X118365902Y-84134098D01*
%TO.N,Board_16-/VCC*%
X132365902Y-84134098D02*
X131000000Y-85500000D01*
X134710500Y-84134098D02*
X132365902Y-84134098D01*
%TO.N,Board_17-/VCC*%
X146365902Y-84134098D02*
X145000000Y-85500000D01*
X148710500Y-84134098D02*
X146365902Y-84134098D01*
%TO.N,Board_18-/VCC*%
X160365902Y-84134098D02*
X159000000Y-85500000D01*
X162710500Y-84134098D02*
X160365902Y-84134098D01*
%TO.N,Board_19-/VCC*%
X174365902Y-84134098D02*
X173000000Y-85500000D01*
X176710500Y-84134098D02*
X174365902Y-84134098D01*
%TO.N,Board_20-/VCC*%
X118365902Y-101134098D02*
X117000000Y-102500000D01*
X120710500Y-101134098D02*
X118365902Y-101134098D01*
%TO.N,Board_21-/VCC*%
X132365902Y-101134098D02*
X131000000Y-102500000D01*
X134710500Y-101134098D02*
X132365902Y-101134098D01*
%TO.N,Board_22-/VCC*%
X146365902Y-101134098D02*
X145000000Y-102500000D01*
X148710500Y-101134098D02*
X146365902Y-101134098D01*
%TO.N,Board_23-/VCC*%
X160365902Y-101134098D02*
X159000000Y-102500000D01*
X162710500Y-101134098D02*
X160365902Y-101134098D01*
%TO.N,Board_24-/VCC*%
X174365902Y-101134098D02*
X173000000Y-102500000D01*
X176710500Y-101134098D02*
X174365902Y-101134098D01*
%TD*%
%TA.AperFunction,Conductor*%
%TO.N,Board_24-GND*%
G36*
X182437500Y-88017113D02*
G01*
X182482887Y-88062500D01*
X182499500Y-88124500D01*
X182499500Y-102875500D01*
X182482887Y-102937500D01*
X182437500Y-102982887D01*
X182375500Y-102999500D01*
X173681899Y-102999500D01*
X173617748Y-102981617D01*
X173572102Y-102933124D01*
X173558125Y-102868011D01*
X173575142Y-102818700D01*
X173574881Y-102818601D01*
X173578171Y-102809925D01*
X173579851Y-102805058D01*
X173579932Y-102804940D01*
X173580220Y-102804523D01*
X173636237Y-102656818D01*
X173655278Y-102500000D01*
X173649102Y-102449143D01*
X173654980Y-102393751D01*
X173684515Y-102346520D01*
X174485119Y-101545917D01*
X174525348Y-101519037D01*
X174572801Y-101509598D01*
X176114192Y-101509598D01*
X176171819Y-101523802D01*
X176216243Y-101563160D01*
X176220015Y-101568626D01*
X176220016Y-101568627D01*
X176220017Y-101568628D01*
X176338260Y-101673381D01*
X176478135Y-101746794D01*
X176631515Y-101784598D01*
X176789485Y-101784598D01*
X176942865Y-101746794D01*
X177082740Y-101673381D01*
X177200983Y-101568628D01*
X177290720Y-101438621D01*
X177346737Y-101290916D01*
X177365778Y-101134098D01*
X177346737Y-100977280D01*
X177290720Y-100829575D01*
X177231924Y-100744394D01*
X177200984Y-100699569D01*
X177200983Y-100699568D01*
X177082740Y-100594815D01*
X177069494Y-100587862D01*
X176942864Y-100521401D01*
X176789485Y-100483598D01*
X176631515Y-100483598D01*
X176478135Y-100521401D01*
X176338261Y-100594814D01*
X176220015Y-100699569D01*
X176216243Y-100705036D01*
X176171819Y-100744394D01*
X176114192Y-100758598D01*
X174417707Y-100758598D01*
X174392261Y-100755959D01*
X174381635Y-100753731D01*
X174381634Y-100753731D01*
X174363760Y-100755959D01*
X174350225Y-100757646D01*
X174334888Y-100758598D01*
X174334786Y-100758598D01*
X174314301Y-100762016D01*
X174309234Y-100762755D01*
X174249469Y-100770205D01*
X174249214Y-100770287D01*
X174196272Y-100798936D01*
X174191722Y-100801278D01*
X174137617Y-100827730D01*
X174137407Y-100827886D01*
X174096621Y-100872191D01*
X174093074Y-100875887D01*
X173155780Y-101813181D01*
X173115552Y-101840061D01*
X173068099Y-101849500D01*
X172921015Y-101849500D01*
X172767635Y-101887303D01*
X172627761Y-101960716D01*
X172509515Y-102065471D01*
X172419780Y-102195476D01*
X172363763Y-102343181D01*
X172344721Y-102500000D01*
X172363763Y-102656818D01*
X172419780Y-102804523D01*
X172420149Y-102805058D01*
X172421828Y-102809925D01*
X172425119Y-102818601D01*
X172424857Y-102818700D01*
X172441875Y-102868011D01*
X172427898Y-102933124D01*
X172382252Y-102981617D01*
X172318101Y-102999500D01*
X170624500Y-102999500D01*
X170562500Y-102982887D01*
X170517113Y-102937500D01*
X170500500Y-102875500D01*
X170500500Y-96650000D01*
X171624785Y-96650000D01*
X171643602Y-96853083D01*
X171699418Y-97049251D01*
X171790324Y-97231818D01*
X171913236Y-97394580D01*
X172063958Y-97531981D01*
X172237361Y-97639347D01*
X172237363Y-97639348D01*
X172427544Y-97713024D01*
X172628024Y-97750500D01*
X172831974Y-97750500D01*
X172831976Y-97750500D01*
X173032456Y-97713024D01*
X173222637Y-97639348D01*
X173396041Y-97531981D01*
X173546764Y-97394579D01*
X173669673Y-97231821D01*
X173669673Y-97231819D01*
X173669675Y-97231818D01*
X173715313Y-97140161D01*
X173760582Y-97049250D01*
X173816397Y-96853083D01*
X173835215Y-96650000D01*
X174164785Y-96650000D01*
X174183602Y-96853083D01*
X174239418Y-97049251D01*
X174330324Y-97231818D01*
X174453236Y-97394580D01*
X174603958Y-97531981D01*
X174777361Y-97639347D01*
X174777363Y-97639348D01*
X174967544Y-97713024D01*
X175168024Y-97750500D01*
X175371974Y-97750500D01*
X175371976Y-97750500D01*
X175572456Y-97713024D01*
X175762637Y-97639348D01*
X175936041Y-97531981D01*
X176086764Y-97394579D01*
X176209673Y-97231821D01*
X176209673Y-97231819D01*
X176209675Y-97231818D01*
X176255313Y-97140161D01*
X176300582Y-97049250D01*
X176343048Y-96900000D01*
X176737472Y-96900000D01*
X176779886Y-97049069D01*
X176870751Y-97231553D01*
X176993607Y-97394241D01*
X177144259Y-97531578D01*
X177317588Y-97638899D01*
X177507679Y-97712539D01*
X177560000Y-97722320D01*
X177560000Y-96900000D01*
X178060000Y-96900000D01*
X178060000Y-97722320D01*
X178112320Y-97712539D01*
X178302411Y-97638899D01*
X178475740Y-97531578D01*
X178483312Y-97524675D01*
X179249500Y-97524675D01*
X179264033Y-97597738D01*
X179264033Y-97597739D01*
X179264034Y-97597740D01*
X179319399Y-97680601D01*
X179402260Y-97735966D01*
X179438793Y-97743233D01*
X179475325Y-97750500D01*
X179475326Y-97750500D01*
X181224674Y-97750500D01*
X181224675Y-97750500D01*
X181249029Y-97745655D01*
X181297740Y-97735966D01*
X181380601Y-97680601D01*
X181435966Y-97597740D01*
X181450500Y-97524674D01*
X181450500Y-95775326D01*
X181449126Y-95768421D01*
X181435966Y-95702261D01*
X181435966Y-95702260D01*
X181380601Y-95619399D01*
X181297740Y-95564034D01*
X181297739Y-95564033D01*
X181297738Y-95564033D01*
X181224675Y-95549500D01*
X181224674Y-95549500D01*
X179475326Y-95549500D01*
X179475325Y-95549500D01*
X179402261Y-95564033D01*
X179319399Y-95619399D01*
X179264033Y-95702261D01*
X179249500Y-95775325D01*
X179249500Y-97524675D01*
X178483312Y-97524675D01*
X178626392Y-97394241D01*
X178749248Y-97231553D01*
X178840113Y-97049069D01*
X178882528Y-96900000D01*
X178060000Y-96900000D01*
X177560000Y-96900000D01*
X176737472Y-96900000D01*
X176343048Y-96900000D01*
X176356397Y-96853083D01*
X176375215Y-96650000D01*
X176356397Y-96446917D01*
X176343048Y-96399999D01*
X176737471Y-96399999D01*
X176737472Y-96400000D01*
X177560000Y-96400000D01*
X177560000Y-95577680D01*
X178060000Y-95577680D01*
X178060000Y-96400000D01*
X178882528Y-96400000D01*
X178882528Y-96399999D01*
X178840113Y-96250930D01*
X178749248Y-96068446D01*
X178626392Y-95905758D01*
X178475740Y-95768421D01*
X178302411Y-95661100D01*
X178112320Y-95587460D01*
X178060000Y-95577680D01*
X177560000Y-95577680D01*
X177507679Y-95587460D01*
X177317588Y-95661100D01*
X177144259Y-95768421D01*
X176993607Y-95905758D01*
X176870751Y-96068446D01*
X176779886Y-96250930D01*
X176737471Y-96399999D01*
X176343048Y-96399999D01*
X176300582Y-96250750D01*
X176300209Y-96250001D01*
X176209675Y-96068181D01*
X176086763Y-95905419D01*
X175936041Y-95768018D01*
X175762638Y-95660652D01*
X175572457Y-95586976D01*
X175449726Y-95564034D01*
X175371976Y-95549500D01*
X175168024Y-95549500D01*
X175090279Y-95564033D01*
X174967542Y-95586976D01*
X174777361Y-95660652D01*
X174603958Y-95768018D01*
X174453236Y-95905419D01*
X174330324Y-96068181D01*
X174239418Y-96250748D01*
X174183602Y-96446916D01*
X174164785Y-96650000D01*
X173835215Y-96650000D01*
X173816397Y-96446917D01*
X173760582Y-96250750D01*
X173760209Y-96250001D01*
X173669675Y-96068181D01*
X173546763Y-95905419D01*
X173396041Y-95768018D01*
X173222638Y-95660652D01*
X173032457Y-95586976D01*
X172909726Y-95564034D01*
X172831976Y-95549500D01*
X172628024Y-95549500D01*
X172550279Y-95564033D01*
X172427542Y-95586976D01*
X172237361Y-95660652D01*
X172063958Y-95768018D01*
X171913236Y-95905419D01*
X171790324Y-96068181D01*
X171699418Y-96250748D01*
X171643602Y-96446916D01*
X171624785Y-96650000D01*
X170500500Y-96650000D01*
X170500500Y-88124500D01*
X170517113Y-88062500D01*
X170562500Y-88017113D01*
X170624500Y-88000500D01*
X182375500Y-88000500D01*
X182437500Y-88017113D01*
G37*
%TD.AperFunction*%
%TD*%
%TA.AperFunction,Conductor*%
%TO.N,Board_20-GND*%
G36*
X126437500Y-88017113D02*
G01*
X126482887Y-88062500D01*
X126499500Y-88124500D01*
X126499500Y-102875500D01*
X126482887Y-102937500D01*
X126437500Y-102982887D01*
X126375500Y-102999500D01*
X117681899Y-102999500D01*
X117617748Y-102981617D01*
X117572102Y-102933124D01*
X117558125Y-102868011D01*
X117575142Y-102818700D01*
X117574881Y-102818601D01*
X117578171Y-102809925D01*
X117579851Y-102805058D01*
X117579932Y-102804940D01*
X117580220Y-102804523D01*
X117636237Y-102656818D01*
X117655278Y-102500000D01*
X117649102Y-102449143D01*
X117654980Y-102393751D01*
X117684515Y-102346520D01*
X118485119Y-101545917D01*
X118525348Y-101519037D01*
X118572801Y-101509598D01*
X120114192Y-101509598D01*
X120171819Y-101523802D01*
X120216243Y-101563160D01*
X120220015Y-101568626D01*
X120220016Y-101568627D01*
X120220017Y-101568628D01*
X120338260Y-101673381D01*
X120478135Y-101746794D01*
X120631515Y-101784598D01*
X120789485Y-101784598D01*
X120942865Y-101746794D01*
X121082740Y-101673381D01*
X121200983Y-101568628D01*
X121290720Y-101438621D01*
X121346737Y-101290916D01*
X121365778Y-101134098D01*
X121346737Y-100977280D01*
X121290720Y-100829575D01*
X121231924Y-100744394D01*
X121200984Y-100699569D01*
X121200983Y-100699568D01*
X121082740Y-100594815D01*
X121069494Y-100587862D01*
X120942864Y-100521401D01*
X120789485Y-100483598D01*
X120631515Y-100483598D01*
X120478135Y-100521401D01*
X120338261Y-100594814D01*
X120220015Y-100699569D01*
X120216243Y-100705036D01*
X120171819Y-100744394D01*
X120114192Y-100758598D01*
X118417707Y-100758598D01*
X118392261Y-100755959D01*
X118381635Y-100753731D01*
X118381634Y-100753731D01*
X118363760Y-100755959D01*
X118350225Y-100757646D01*
X118334888Y-100758598D01*
X118334786Y-100758598D01*
X118314301Y-100762016D01*
X118309234Y-100762755D01*
X118249469Y-100770205D01*
X118249214Y-100770287D01*
X118196272Y-100798936D01*
X118191722Y-100801278D01*
X118137617Y-100827730D01*
X118137407Y-100827886D01*
X118096621Y-100872191D01*
X118093074Y-100875887D01*
X117155780Y-101813181D01*
X117115552Y-101840061D01*
X117068099Y-101849500D01*
X116921015Y-101849500D01*
X116767635Y-101887303D01*
X116627761Y-101960716D01*
X116509515Y-102065471D01*
X116419780Y-102195476D01*
X116363763Y-102343181D01*
X116344721Y-102500000D01*
X116363763Y-102656818D01*
X116419780Y-102804523D01*
X116420149Y-102805058D01*
X116421828Y-102809925D01*
X116425119Y-102818601D01*
X116424857Y-102818700D01*
X116441875Y-102868011D01*
X116427898Y-102933124D01*
X116382252Y-102981617D01*
X116318101Y-102999500D01*
X114624500Y-102999500D01*
X114562500Y-102982887D01*
X114517113Y-102937500D01*
X114500500Y-102875500D01*
X114500500Y-96650000D01*
X115624785Y-96650000D01*
X115643602Y-96853083D01*
X115699418Y-97049251D01*
X115790324Y-97231818D01*
X115913236Y-97394580D01*
X116063958Y-97531981D01*
X116237361Y-97639347D01*
X116237363Y-97639348D01*
X116427544Y-97713024D01*
X116628024Y-97750500D01*
X116831974Y-97750500D01*
X116831976Y-97750500D01*
X117032456Y-97713024D01*
X117222637Y-97639348D01*
X117396041Y-97531981D01*
X117546764Y-97394579D01*
X117669673Y-97231821D01*
X117669673Y-97231819D01*
X117669675Y-97231818D01*
X117715313Y-97140161D01*
X117760582Y-97049250D01*
X117816397Y-96853083D01*
X117835215Y-96650000D01*
X118164785Y-96650000D01*
X118183602Y-96853083D01*
X118239418Y-97049251D01*
X118330324Y-97231818D01*
X118453236Y-97394580D01*
X118603958Y-97531981D01*
X118777361Y-97639347D01*
X118777363Y-97639348D01*
X118967544Y-97713024D01*
X119168024Y-97750500D01*
X119371974Y-97750500D01*
X119371976Y-97750500D01*
X119572456Y-97713024D01*
X119762637Y-97639348D01*
X119936041Y-97531981D01*
X120086764Y-97394579D01*
X120209673Y-97231821D01*
X120209673Y-97231819D01*
X120209675Y-97231818D01*
X120255313Y-97140161D01*
X120300582Y-97049250D01*
X120343048Y-96900000D01*
X120737472Y-96900000D01*
X120779886Y-97049069D01*
X120870751Y-97231553D01*
X120993607Y-97394241D01*
X121144259Y-97531578D01*
X121317588Y-97638899D01*
X121507679Y-97712539D01*
X121560000Y-97722320D01*
X121560000Y-96900000D01*
X122060000Y-96900000D01*
X122060000Y-97722320D01*
X122112320Y-97712539D01*
X122302411Y-97638899D01*
X122475740Y-97531578D01*
X122483312Y-97524675D01*
X123249500Y-97524675D01*
X123264033Y-97597738D01*
X123264033Y-97597739D01*
X123264034Y-97597740D01*
X123319399Y-97680601D01*
X123402260Y-97735966D01*
X123438793Y-97743233D01*
X123475325Y-97750500D01*
X123475326Y-97750500D01*
X125224674Y-97750500D01*
X125224675Y-97750500D01*
X125249029Y-97745655D01*
X125297740Y-97735966D01*
X125380601Y-97680601D01*
X125435966Y-97597740D01*
X125450500Y-97524674D01*
X125450500Y-95775326D01*
X125449126Y-95768421D01*
X125435966Y-95702261D01*
X125435966Y-95702260D01*
X125380601Y-95619399D01*
X125297740Y-95564034D01*
X125297739Y-95564033D01*
X125297738Y-95564033D01*
X125224675Y-95549500D01*
X125224674Y-95549500D01*
X123475326Y-95549500D01*
X123475325Y-95549500D01*
X123402261Y-95564033D01*
X123319399Y-95619399D01*
X123264033Y-95702261D01*
X123249500Y-95775325D01*
X123249500Y-97524675D01*
X122483312Y-97524675D01*
X122626392Y-97394241D01*
X122749248Y-97231553D01*
X122840113Y-97049069D01*
X122882528Y-96900000D01*
X122060000Y-96900000D01*
X121560000Y-96900000D01*
X120737472Y-96900000D01*
X120343048Y-96900000D01*
X120356397Y-96853083D01*
X120375215Y-96650000D01*
X120356397Y-96446917D01*
X120343048Y-96399999D01*
X120737471Y-96399999D01*
X120737472Y-96400000D01*
X121560000Y-96400000D01*
X121560000Y-95577680D01*
X122060000Y-95577680D01*
X122060000Y-96400000D01*
X122882528Y-96400000D01*
X122882528Y-96399999D01*
X122840113Y-96250930D01*
X122749248Y-96068446D01*
X122626392Y-95905758D01*
X122475740Y-95768421D01*
X122302411Y-95661100D01*
X122112320Y-95587460D01*
X122060000Y-95577680D01*
X121560000Y-95577680D01*
X121507679Y-95587460D01*
X121317588Y-95661100D01*
X121144259Y-95768421D01*
X120993607Y-95905758D01*
X120870751Y-96068446D01*
X120779886Y-96250930D01*
X120737471Y-96399999D01*
X120343048Y-96399999D01*
X120300582Y-96250750D01*
X120300209Y-96250001D01*
X120209675Y-96068181D01*
X120086763Y-95905419D01*
X119936041Y-95768018D01*
X119762638Y-95660652D01*
X119572457Y-95586976D01*
X119449726Y-95564034D01*
X119371976Y-95549500D01*
X119168024Y-95549500D01*
X119090279Y-95564033D01*
X118967542Y-95586976D01*
X118777361Y-95660652D01*
X118603958Y-95768018D01*
X118453236Y-95905419D01*
X118330324Y-96068181D01*
X118239418Y-96250748D01*
X118183602Y-96446916D01*
X118164785Y-96650000D01*
X117835215Y-96650000D01*
X117816397Y-96446917D01*
X117760582Y-96250750D01*
X117760209Y-96250001D01*
X117669675Y-96068181D01*
X117546763Y-95905419D01*
X117396041Y-95768018D01*
X117222638Y-95660652D01*
X117032457Y-95586976D01*
X116909726Y-95564034D01*
X116831976Y-95549500D01*
X116628024Y-95549500D01*
X116550279Y-95564033D01*
X116427542Y-95586976D01*
X116237361Y-95660652D01*
X116063958Y-95768018D01*
X115913236Y-95905419D01*
X115790324Y-96068181D01*
X115699418Y-96250748D01*
X115643602Y-96446916D01*
X115624785Y-96650000D01*
X114500500Y-96650000D01*
X114500500Y-88124500D01*
X114517113Y-88062500D01*
X114562500Y-88017113D01*
X114624500Y-88000500D01*
X126375500Y-88000500D01*
X126437500Y-88017113D01*
G37*
%TD.AperFunction*%
%TD*%
%TA.AperFunction,Conductor*%
%TO.N,Board_7-GND*%
G36*
X154437500Y-37017113D02*
G01*
X154482887Y-37062500D01*
X154499500Y-37124500D01*
X154499500Y-51875500D01*
X154482887Y-51937500D01*
X154437500Y-51982887D01*
X154375500Y-51999500D01*
X145681899Y-51999500D01*
X145617748Y-51981617D01*
X145572102Y-51933124D01*
X145558125Y-51868011D01*
X145575142Y-51818700D01*
X145574881Y-51818601D01*
X145578171Y-51809925D01*
X145579851Y-51805058D01*
X145579932Y-51804940D01*
X145580220Y-51804523D01*
X145636237Y-51656818D01*
X145655278Y-51500000D01*
X145649102Y-51449143D01*
X145654980Y-51393751D01*
X145684515Y-51346520D01*
X146485119Y-50545917D01*
X146525348Y-50519037D01*
X146572801Y-50509598D01*
X148114192Y-50509598D01*
X148171819Y-50523802D01*
X148216243Y-50563160D01*
X148220015Y-50568626D01*
X148220016Y-50568627D01*
X148220017Y-50568628D01*
X148338260Y-50673381D01*
X148478135Y-50746794D01*
X148631515Y-50784598D01*
X148789485Y-50784598D01*
X148942865Y-50746794D01*
X149082740Y-50673381D01*
X149200983Y-50568628D01*
X149290720Y-50438621D01*
X149346737Y-50290916D01*
X149365778Y-50134098D01*
X149346737Y-49977280D01*
X149290720Y-49829575D01*
X149231924Y-49744394D01*
X149200984Y-49699569D01*
X149200983Y-49699568D01*
X149082740Y-49594815D01*
X149069494Y-49587862D01*
X148942864Y-49521401D01*
X148789485Y-49483598D01*
X148631515Y-49483598D01*
X148478135Y-49521401D01*
X148338261Y-49594814D01*
X148220015Y-49699569D01*
X148216243Y-49705036D01*
X148171819Y-49744394D01*
X148114192Y-49758598D01*
X146417707Y-49758598D01*
X146392261Y-49755959D01*
X146381635Y-49753731D01*
X146381634Y-49753731D01*
X146363760Y-49755959D01*
X146350225Y-49757646D01*
X146334888Y-49758598D01*
X146334786Y-49758598D01*
X146314301Y-49762016D01*
X146309234Y-49762755D01*
X146249469Y-49770205D01*
X146249214Y-49770287D01*
X146196272Y-49798936D01*
X146191722Y-49801278D01*
X146137617Y-49827730D01*
X146137407Y-49827886D01*
X146096621Y-49872191D01*
X146093074Y-49875887D01*
X145155780Y-50813181D01*
X145115552Y-50840061D01*
X145068099Y-50849500D01*
X144921015Y-50849500D01*
X144767635Y-50887303D01*
X144627761Y-50960716D01*
X144509515Y-51065471D01*
X144419780Y-51195476D01*
X144363763Y-51343181D01*
X144344721Y-51500000D01*
X144363763Y-51656818D01*
X144419780Y-51804523D01*
X144420149Y-51805058D01*
X144421828Y-51809925D01*
X144425119Y-51818601D01*
X144424857Y-51818700D01*
X144441875Y-51868011D01*
X144427898Y-51933124D01*
X144382252Y-51981617D01*
X144318101Y-51999500D01*
X142624500Y-51999500D01*
X142562500Y-51982887D01*
X142517113Y-51937500D01*
X142500500Y-51875500D01*
X142500500Y-45650000D01*
X143624785Y-45650000D01*
X143643602Y-45853083D01*
X143699418Y-46049251D01*
X143790324Y-46231818D01*
X143913236Y-46394580D01*
X144063958Y-46531981D01*
X144237361Y-46639347D01*
X144237363Y-46639348D01*
X144427544Y-46713024D01*
X144628024Y-46750500D01*
X144831974Y-46750500D01*
X144831976Y-46750500D01*
X145032456Y-46713024D01*
X145222637Y-46639348D01*
X145396041Y-46531981D01*
X145546764Y-46394579D01*
X145669673Y-46231821D01*
X145669673Y-46231819D01*
X145669675Y-46231818D01*
X145715313Y-46140161D01*
X145760582Y-46049250D01*
X145816397Y-45853083D01*
X145835215Y-45650000D01*
X146164785Y-45650000D01*
X146183602Y-45853083D01*
X146239418Y-46049251D01*
X146330324Y-46231818D01*
X146453236Y-46394580D01*
X146603958Y-46531981D01*
X146777361Y-46639347D01*
X146777363Y-46639348D01*
X146967544Y-46713024D01*
X147168024Y-46750500D01*
X147371974Y-46750500D01*
X147371976Y-46750500D01*
X147572456Y-46713024D01*
X147762637Y-46639348D01*
X147936041Y-46531981D01*
X148086764Y-46394579D01*
X148209673Y-46231821D01*
X148209673Y-46231819D01*
X148209675Y-46231818D01*
X148255313Y-46140161D01*
X148300582Y-46049250D01*
X148343048Y-45900000D01*
X148737472Y-45900000D01*
X148779886Y-46049069D01*
X148870751Y-46231553D01*
X148993607Y-46394241D01*
X149144259Y-46531578D01*
X149317588Y-46638899D01*
X149507679Y-46712539D01*
X149560000Y-46722320D01*
X149560000Y-45900000D01*
X150060000Y-45900000D01*
X150060000Y-46722320D01*
X150112320Y-46712539D01*
X150302411Y-46638899D01*
X150475740Y-46531578D01*
X150483312Y-46524675D01*
X151249500Y-46524675D01*
X151264033Y-46597738D01*
X151264033Y-46597739D01*
X151264034Y-46597740D01*
X151319399Y-46680601D01*
X151402260Y-46735966D01*
X151438793Y-46743233D01*
X151475325Y-46750500D01*
X151475326Y-46750500D01*
X153224674Y-46750500D01*
X153224675Y-46750500D01*
X153249029Y-46745655D01*
X153297740Y-46735966D01*
X153380601Y-46680601D01*
X153435966Y-46597740D01*
X153450500Y-46524674D01*
X153450500Y-44775326D01*
X153449126Y-44768421D01*
X153435966Y-44702261D01*
X153435966Y-44702260D01*
X153380601Y-44619399D01*
X153297740Y-44564034D01*
X153297739Y-44564033D01*
X153297738Y-44564033D01*
X153224675Y-44549500D01*
X153224674Y-44549500D01*
X151475326Y-44549500D01*
X151475325Y-44549500D01*
X151402261Y-44564033D01*
X151319399Y-44619399D01*
X151264033Y-44702261D01*
X151249500Y-44775325D01*
X151249500Y-46524675D01*
X150483312Y-46524675D01*
X150626392Y-46394241D01*
X150749248Y-46231553D01*
X150840113Y-46049069D01*
X150882528Y-45900000D01*
X150060000Y-45900000D01*
X149560000Y-45900000D01*
X148737472Y-45900000D01*
X148343048Y-45900000D01*
X148356397Y-45853083D01*
X148375215Y-45650000D01*
X148356397Y-45446917D01*
X148343048Y-45399999D01*
X148737471Y-45399999D01*
X148737472Y-45400000D01*
X149560000Y-45400000D01*
X149560000Y-44577680D01*
X150060000Y-44577680D01*
X150060000Y-45400000D01*
X150882528Y-45400000D01*
X150882528Y-45399999D01*
X150840113Y-45250930D01*
X150749248Y-45068446D01*
X150626392Y-44905758D01*
X150475740Y-44768421D01*
X150302411Y-44661100D01*
X150112320Y-44587460D01*
X150060000Y-44577680D01*
X149560000Y-44577680D01*
X149507679Y-44587460D01*
X149317588Y-44661100D01*
X149144259Y-44768421D01*
X148993607Y-44905758D01*
X148870751Y-45068446D01*
X148779886Y-45250930D01*
X148737471Y-45399999D01*
X148343048Y-45399999D01*
X148300582Y-45250750D01*
X148300209Y-45250001D01*
X148209675Y-45068181D01*
X148086763Y-44905419D01*
X147936041Y-44768018D01*
X147762638Y-44660652D01*
X147572457Y-44586976D01*
X147449726Y-44564034D01*
X147371976Y-44549500D01*
X147168024Y-44549500D01*
X147090279Y-44564033D01*
X146967542Y-44586976D01*
X146777361Y-44660652D01*
X146603958Y-44768018D01*
X146453236Y-44905419D01*
X146330324Y-45068181D01*
X146239418Y-45250748D01*
X146183602Y-45446916D01*
X146164785Y-45650000D01*
X145835215Y-45650000D01*
X145816397Y-45446917D01*
X145760582Y-45250750D01*
X145760209Y-45250001D01*
X145669675Y-45068181D01*
X145546763Y-44905419D01*
X145396041Y-44768018D01*
X145222638Y-44660652D01*
X145032457Y-44586976D01*
X144909726Y-44564034D01*
X144831976Y-44549500D01*
X144628024Y-44549500D01*
X144550279Y-44564033D01*
X144427542Y-44586976D01*
X144237361Y-44660652D01*
X144063958Y-44768018D01*
X143913236Y-44905419D01*
X143790324Y-45068181D01*
X143699418Y-45250748D01*
X143643602Y-45446916D01*
X143624785Y-45650000D01*
X142500500Y-45650000D01*
X142500500Y-37124500D01*
X142517113Y-37062500D01*
X142562500Y-37017113D01*
X142624500Y-37000500D01*
X154375500Y-37000500D01*
X154437500Y-37017113D01*
G37*
%TD.AperFunction*%
%TD*%
%TA.AperFunction,Conductor*%
%TO.N,Board_1-GND*%
G36*
X140437500Y-20017113D02*
G01*
X140482887Y-20062500D01*
X140499500Y-20124500D01*
X140499500Y-34875500D01*
X140482887Y-34937500D01*
X140437500Y-34982887D01*
X140375500Y-34999500D01*
X131681899Y-34999500D01*
X131617748Y-34981617D01*
X131572102Y-34933124D01*
X131558125Y-34868011D01*
X131575142Y-34818700D01*
X131574881Y-34818601D01*
X131578171Y-34809925D01*
X131579851Y-34805058D01*
X131579932Y-34804940D01*
X131580220Y-34804523D01*
X131636237Y-34656818D01*
X131655278Y-34500000D01*
X131649102Y-34449143D01*
X131654980Y-34393751D01*
X131684515Y-34346520D01*
X132485119Y-33545917D01*
X132525348Y-33519037D01*
X132572801Y-33509598D01*
X134114192Y-33509598D01*
X134171819Y-33523802D01*
X134216243Y-33563160D01*
X134220015Y-33568626D01*
X134220016Y-33568627D01*
X134220017Y-33568628D01*
X134338260Y-33673381D01*
X134478135Y-33746794D01*
X134631515Y-33784598D01*
X134789485Y-33784598D01*
X134942865Y-33746794D01*
X135082740Y-33673381D01*
X135200983Y-33568628D01*
X135290720Y-33438621D01*
X135346737Y-33290916D01*
X135365778Y-33134098D01*
X135346737Y-32977280D01*
X135290720Y-32829575D01*
X135231924Y-32744394D01*
X135200984Y-32699569D01*
X135200983Y-32699568D01*
X135082740Y-32594815D01*
X135069494Y-32587862D01*
X134942864Y-32521401D01*
X134789485Y-32483598D01*
X134631515Y-32483598D01*
X134478135Y-32521401D01*
X134338261Y-32594814D01*
X134220015Y-32699569D01*
X134216243Y-32705036D01*
X134171819Y-32744394D01*
X134114192Y-32758598D01*
X132417707Y-32758598D01*
X132392261Y-32755959D01*
X132381635Y-32753731D01*
X132381634Y-32753731D01*
X132363760Y-32755959D01*
X132350225Y-32757646D01*
X132334888Y-32758598D01*
X132334786Y-32758598D01*
X132314301Y-32762016D01*
X132309234Y-32762755D01*
X132249469Y-32770205D01*
X132249214Y-32770287D01*
X132196272Y-32798936D01*
X132191722Y-32801278D01*
X132137617Y-32827730D01*
X132137407Y-32827886D01*
X132096621Y-32872191D01*
X132093074Y-32875887D01*
X131155780Y-33813181D01*
X131115552Y-33840061D01*
X131068099Y-33849500D01*
X130921015Y-33849500D01*
X130767635Y-33887303D01*
X130627761Y-33960716D01*
X130509515Y-34065471D01*
X130419780Y-34195476D01*
X130363763Y-34343181D01*
X130344721Y-34500000D01*
X130363763Y-34656818D01*
X130419780Y-34804523D01*
X130420149Y-34805058D01*
X130421828Y-34809925D01*
X130425119Y-34818601D01*
X130424857Y-34818700D01*
X130441875Y-34868011D01*
X130427898Y-34933124D01*
X130382252Y-34981617D01*
X130318101Y-34999500D01*
X128624500Y-34999500D01*
X128562500Y-34982887D01*
X128517113Y-34937500D01*
X128500500Y-34875500D01*
X128500500Y-28650000D01*
X129624785Y-28650000D01*
X129643602Y-28853083D01*
X129699418Y-29049251D01*
X129790324Y-29231818D01*
X129913236Y-29394580D01*
X130063958Y-29531981D01*
X130237361Y-29639347D01*
X130237363Y-29639348D01*
X130427544Y-29713024D01*
X130628024Y-29750500D01*
X130831974Y-29750500D01*
X130831976Y-29750500D01*
X131032456Y-29713024D01*
X131222637Y-29639348D01*
X131396041Y-29531981D01*
X131546764Y-29394579D01*
X131669673Y-29231821D01*
X131669673Y-29231819D01*
X131669675Y-29231818D01*
X131715313Y-29140161D01*
X131760582Y-29049250D01*
X131816397Y-28853083D01*
X131835215Y-28650000D01*
X132164785Y-28650000D01*
X132183602Y-28853083D01*
X132239418Y-29049251D01*
X132330324Y-29231818D01*
X132453236Y-29394580D01*
X132603958Y-29531981D01*
X132777361Y-29639347D01*
X132777363Y-29639348D01*
X132967544Y-29713024D01*
X133168024Y-29750500D01*
X133371974Y-29750500D01*
X133371976Y-29750500D01*
X133572456Y-29713024D01*
X133762637Y-29639348D01*
X133936041Y-29531981D01*
X134086764Y-29394579D01*
X134209673Y-29231821D01*
X134209673Y-29231819D01*
X134209675Y-29231818D01*
X134255313Y-29140161D01*
X134300582Y-29049250D01*
X134343048Y-28900000D01*
X134737472Y-28900000D01*
X134779886Y-29049069D01*
X134870751Y-29231553D01*
X134993607Y-29394241D01*
X135144259Y-29531578D01*
X135317588Y-29638899D01*
X135507679Y-29712539D01*
X135560000Y-29722320D01*
X135560000Y-28900000D01*
X136060000Y-28900000D01*
X136060000Y-29722320D01*
X136112320Y-29712539D01*
X136302411Y-29638899D01*
X136475740Y-29531578D01*
X136483312Y-29524675D01*
X137249500Y-29524675D01*
X137264033Y-29597738D01*
X137264033Y-29597739D01*
X137264034Y-29597740D01*
X137319399Y-29680601D01*
X137402260Y-29735966D01*
X137438793Y-29743233D01*
X137475325Y-29750500D01*
X137475326Y-29750500D01*
X139224674Y-29750500D01*
X139224675Y-29750500D01*
X139249029Y-29745655D01*
X139297740Y-29735966D01*
X139380601Y-29680601D01*
X139435966Y-29597740D01*
X139450500Y-29524674D01*
X139450500Y-27775326D01*
X139449126Y-27768421D01*
X139435966Y-27702261D01*
X139435966Y-27702260D01*
X139380601Y-27619399D01*
X139297740Y-27564034D01*
X139297739Y-27564033D01*
X139297738Y-27564033D01*
X139224675Y-27549500D01*
X139224674Y-27549500D01*
X137475326Y-27549500D01*
X137475325Y-27549500D01*
X137402261Y-27564033D01*
X137319399Y-27619399D01*
X137264033Y-27702261D01*
X137249500Y-27775325D01*
X137249500Y-29524675D01*
X136483312Y-29524675D01*
X136626392Y-29394241D01*
X136749248Y-29231553D01*
X136840113Y-29049069D01*
X136882528Y-28900000D01*
X136060000Y-28900000D01*
X135560000Y-28900000D01*
X134737472Y-28900000D01*
X134343048Y-28900000D01*
X134356397Y-28853083D01*
X134375215Y-28650000D01*
X134356397Y-28446917D01*
X134343048Y-28399999D01*
X134737471Y-28399999D01*
X134737472Y-28400000D01*
X135560000Y-28400000D01*
X135560000Y-27577680D01*
X136060000Y-27577680D01*
X136060000Y-28400000D01*
X136882528Y-28400000D01*
X136882528Y-28399999D01*
X136840113Y-28250930D01*
X136749248Y-28068446D01*
X136626392Y-27905758D01*
X136475740Y-27768421D01*
X136302411Y-27661100D01*
X136112320Y-27587460D01*
X136060000Y-27577680D01*
X135560000Y-27577680D01*
X135507679Y-27587460D01*
X135317588Y-27661100D01*
X135144259Y-27768421D01*
X134993607Y-27905758D01*
X134870751Y-28068446D01*
X134779886Y-28250930D01*
X134737471Y-28399999D01*
X134343048Y-28399999D01*
X134300582Y-28250750D01*
X134300209Y-28250001D01*
X134209675Y-28068181D01*
X134086763Y-27905419D01*
X133936041Y-27768018D01*
X133762638Y-27660652D01*
X133572457Y-27586976D01*
X133449726Y-27564034D01*
X133371976Y-27549500D01*
X133168024Y-27549500D01*
X133090279Y-27564033D01*
X132967542Y-27586976D01*
X132777361Y-27660652D01*
X132603958Y-27768018D01*
X132453236Y-27905419D01*
X132330324Y-28068181D01*
X132239418Y-28250748D01*
X132183602Y-28446916D01*
X132164785Y-28650000D01*
X131835215Y-28650000D01*
X131816397Y-28446917D01*
X131760582Y-28250750D01*
X131760209Y-28250001D01*
X131669675Y-28068181D01*
X131546763Y-27905419D01*
X131396041Y-27768018D01*
X131222638Y-27660652D01*
X131032457Y-27586976D01*
X130909726Y-27564034D01*
X130831976Y-27549500D01*
X130628024Y-27549500D01*
X130550279Y-27564033D01*
X130427542Y-27586976D01*
X130237361Y-27660652D01*
X130063958Y-27768018D01*
X129913236Y-27905419D01*
X129790324Y-28068181D01*
X129699418Y-28250748D01*
X129643602Y-28446916D01*
X129624785Y-28650000D01*
X128500500Y-28650000D01*
X128500500Y-20124500D01*
X128517113Y-20062500D01*
X128562500Y-20017113D01*
X128624500Y-20000500D01*
X140375500Y-20000500D01*
X140437500Y-20017113D01*
G37*
%TD.AperFunction*%
%TD*%
%TA.AperFunction,Conductor*%
%TO.N,Board_0-GND*%
G36*
X126437500Y-20017113D02*
G01*
X126482887Y-20062500D01*
X126499500Y-20124500D01*
X126499500Y-34875500D01*
X126482887Y-34937500D01*
X126437500Y-34982887D01*
X126375500Y-34999500D01*
X117681899Y-34999500D01*
X117617748Y-34981617D01*
X117572102Y-34933124D01*
X117558125Y-34868011D01*
X117575142Y-34818700D01*
X117574881Y-34818601D01*
X117578171Y-34809925D01*
X117579851Y-34805058D01*
X117579932Y-34804940D01*
X117580220Y-34804523D01*
X117636237Y-34656818D01*
X117655278Y-34500000D01*
X117649102Y-34449143D01*
X117654980Y-34393751D01*
X117684515Y-34346520D01*
X118485119Y-33545917D01*
X118525348Y-33519037D01*
X118572801Y-33509598D01*
X120114192Y-33509598D01*
X120171819Y-33523802D01*
X120216243Y-33563160D01*
X120220015Y-33568626D01*
X120220016Y-33568627D01*
X120220017Y-33568628D01*
X120338260Y-33673381D01*
X120478135Y-33746794D01*
X120631515Y-33784598D01*
X120789485Y-33784598D01*
X120942865Y-33746794D01*
X121082740Y-33673381D01*
X121200983Y-33568628D01*
X121290720Y-33438621D01*
X121346737Y-33290916D01*
X121365778Y-33134098D01*
X121346737Y-32977280D01*
X121290720Y-32829575D01*
X121231924Y-32744394D01*
X121200984Y-32699569D01*
X121200983Y-32699568D01*
X121082740Y-32594815D01*
X121069494Y-32587862D01*
X120942864Y-32521401D01*
X120789485Y-32483598D01*
X120631515Y-32483598D01*
X120478135Y-32521401D01*
X120338261Y-32594814D01*
X120220015Y-32699569D01*
X120216243Y-32705036D01*
X120171819Y-32744394D01*
X120114192Y-32758598D01*
X118417707Y-32758598D01*
X118392261Y-32755959D01*
X118381635Y-32753731D01*
X118381634Y-32753731D01*
X118363760Y-32755959D01*
X118350225Y-32757646D01*
X118334888Y-32758598D01*
X118334786Y-32758598D01*
X118314301Y-32762016D01*
X118309234Y-32762755D01*
X118249469Y-32770205D01*
X118249214Y-32770287D01*
X118196272Y-32798936D01*
X118191722Y-32801278D01*
X118137617Y-32827730D01*
X118137407Y-32827886D01*
X118096621Y-32872191D01*
X118093074Y-32875887D01*
X117155780Y-33813181D01*
X117115552Y-33840061D01*
X117068099Y-33849500D01*
X116921015Y-33849500D01*
X116767635Y-33887303D01*
X116627761Y-33960716D01*
X116509515Y-34065471D01*
X116419780Y-34195476D01*
X116363763Y-34343181D01*
X116344721Y-34500000D01*
X116363763Y-34656818D01*
X116419780Y-34804523D01*
X116420149Y-34805058D01*
X116421828Y-34809925D01*
X116425119Y-34818601D01*
X116424857Y-34818700D01*
X116441875Y-34868011D01*
X116427898Y-34933124D01*
X116382252Y-34981617D01*
X116318101Y-34999500D01*
X114624500Y-34999500D01*
X114562500Y-34982887D01*
X114517113Y-34937500D01*
X114500500Y-34875500D01*
X114500500Y-28650000D01*
X115624785Y-28650000D01*
X115643602Y-28853083D01*
X115699418Y-29049251D01*
X115790324Y-29231818D01*
X115913236Y-29394580D01*
X116063958Y-29531981D01*
X116237361Y-29639347D01*
X116237363Y-29639348D01*
X116427544Y-29713024D01*
X116628024Y-29750500D01*
X116831974Y-29750500D01*
X116831976Y-29750500D01*
X117032456Y-29713024D01*
X117222637Y-29639348D01*
X117396041Y-29531981D01*
X117546764Y-29394579D01*
X117669673Y-29231821D01*
X117669673Y-29231819D01*
X117669675Y-29231818D01*
X117715313Y-29140161D01*
X117760582Y-29049250D01*
X117816397Y-28853083D01*
X117835215Y-28650000D01*
X118164785Y-28650000D01*
X118183602Y-28853083D01*
X118239418Y-29049251D01*
X118330324Y-29231818D01*
X118453236Y-29394580D01*
X118603958Y-29531981D01*
X118777361Y-29639347D01*
X118777363Y-29639348D01*
X118967544Y-29713024D01*
X119168024Y-29750500D01*
X119371974Y-29750500D01*
X119371976Y-29750500D01*
X119572456Y-29713024D01*
X119762637Y-29639348D01*
X119936041Y-29531981D01*
X120086764Y-29394579D01*
X120209673Y-29231821D01*
X120209673Y-29231819D01*
X120209675Y-29231818D01*
X120255313Y-29140161D01*
X120300582Y-29049250D01*
X120343048Y-28900000D01*
X120737472Y-28900000D01*
X120779886Y-29049069D01*
X120870751Y-29231553D01*
X120993607Y-29394241D01*
X121144259Y-29531578D01*
X121317588Y-29638899D01*
X121507679Y-29712539D01*
X121560000Y-29722320D01*
X121560000Y-28900000D01*
X122060000Y-28900000D01*
X122060000Y-29722320D01*
X122112320Y-29712539D01*
X122302411Y-29638899D01*
X122475740Y-29531578D01*
X122483312Y-29524675D01*
X123249500Y-29524675D01*
X123264033Y-29597738D01*
X123264033Y-29597739D01*
X123264034Y-29597740D01*
X123319399Y-29680601D01*
X123402260Y-29735966D01*
X123438793Y-29743233D01*
X123475325Y-29750500D01*
X123475326Y-29750500D01*
X125224674Y-29750500D01*
X125224675Y-29750500D01*
X125249029Y-29745655D01*
X125297740Y-29735966D01*
X125380601Y-29680601D01*
X125435966Y-29597740D01*
X125450500Y-29524674D01*
X125450500Y-27775326D01*
X125449126Y-27768421D01*
X125435966Y-27702261D01*
X125435966Y-27702260D01*
X125380601Y-27619399D01*
X125297740Y-27564034D01*
X125297739Y-27564033D01*
X125297738Y-27564033D01*
X125224675Y-27549500D01*
X125224674Y-27549500D01*
X123475326Y-27549500D01*
X123475325Y-27549500D01*
X123402261Y-27564033D01*
X123319399Y-27619399D01*
X123264033Y-27702261D01*
X123249500Y-27775325D01*
X123249500Y-29524675D01*
X122483312Y-29524675D01*
X122626392Y-29394241D01*
X122749248Y-29231553D01*
X122840113Y-29049069D01*
X122882528Y-28900000D01*
X122060000Y-28900000D01*
X121560000Y-28900000D01*
X120737472Y-28900000D01*
X120343048Y-28900000D01*
X120356397Y-28853083D01*
X120375215Y-28650000D01*
X120356397Y-28446917D01*
X120343048Y-28399999D01*
X120737471Y-28399999D01*
X120737472Y-28400000D01*
X121560000Y-28400000D01*
X121560000Y-27577680D01*
X122060000Y-27577680D01*
X122060000Y-28400000D01*
X122882528Y-28400000D01*
X122882528Y-28399999D01*
X122840113Y-28250930D01*
X122749248Y-28068446D01*
X122626392Y-27905758D01*
X122475740Y-27768421D01*
X122302411Y-27661100D01*
X122112320Y-27587460D01*
X122060000Y-27577680D01*
X121560000Y-27577680D01*
X121507679Y-27587460D01*
X121317588Y-27661100D01*
X121144259Y-27768421D01*
X120993607Y-27905758D01*
X120870751Y-28068446D01*
X120779886Y-28250930D01*
X120737471Y-28399999D01*
X120343048Y-28399999D01*
X120300582Y-28250750D01*
X120300209Y-28250001D01*
X120209675Y-28068181D01*
X120086763Y-27905419D01*
X119936041Y-27768018D01*
X119762638Y-27660652D01*
X119572457Y-27586976D01*
X119449726Y-27564034D01*
X119371976Y-27549500D01*
X119168024Y-27549500D01*
X119090279Y-27564033D01*
X118967542Y-27586976D01*
X118777361Y-27660652D01*
X118603958Y-27768018D01*
X118453236Y-27905419D01*
X118330324Y-28068181D01*
X118239418Y-28250748D01*
X118183602Y-28446916D01*
X118164785Y-28650000D01*
X117835215Y-28650000D01*
X117816397Y-28446917D01*
X117760582Y-28250750D01*
X117760209Y-28250001D01*
X117669675Y-28068181D01*
X117546763Y-27905419D01*
X117396041Y-27768018D01*
X117222638Y-27660652D01*
X117032457Y-27586976D01*
X116909726Y-27564034D01*
X116831976Y-27549500D01*
X116628024Y-27549500D01*
X116550279Y-27564033D01*
X116427542Y-27586976D01*
X116237361Y-27660652D01*
X116063958Y-27768018D01*
X115913236Y-27905419D01*
X115790324Y-28068181D01*
X115699418Y-28250748D01*
X115643602Y-28446916D01*
X115624785Y-28650000D01*
X114500500Y-28650000D01*
X114500500Y-20124500D01*
X114517113Y-20062500D01*
X114562500Y-20017113D01*
X114624500Y-20000500D01*
X126375500Y-20000500D01*
X126437500Y-20017113D01*
G37*
%TD.AperFunction*%
%TD*%
%TA.AperFunction,Conductor*%
%TO.N,Board_17-GND*%
G36*
X154437500Y-71017113D02*
G01*
X154482887Y-71062500D01*
X154499500Y-71124500D01*
X154499500Y-85875500D01*
X154482887Y-85937500D01*
X154437500Y-85982887D01*
X154375500Y-85999500D01*
X145681899Y-85999500D01*
X145617748Y-85981617D01*
X145572102Y-85933124D01*
X145558125Y-85868011D01*
X145575142Y-85818700D01*
X145574881Y-85818601D01*
X145578171Y-85809925D01*
X145579851Y-85805058D01*
X145579932Y-85804940D01*
X145580220Y-85804523D01*
X145636237Y-85656818D01*
X145655278Y-85500000D01*
X145649102Y-85449143D01*
X145654980Y-85393751D01*
X145684515Y-85346520D01*
X146485119Y-84545917D01*
X146525348Y-84519037D01*
X146572801Y-84509598D01*
X148114192Y-84509598D01*
X148171819Y-84523802D01*
X148216243Y-84563160D01*
X148220015Y-84568626D01*
X148220016Y-84568627D01*
X148220017Y-84568628D01*
X148338260Y-84673381D01*
X148478135Y-84746794D01*
X148631515Y-84784598D01*
X148789485Y-84784598D01*
X148942865Y-84746794D01*
X149082740Y-84673381D01*
X149200983Y-84568628D01*
X149290720Y-84438621D01*
X149346737Y-84290916D01*
X149365778Y-84134098D01*
X149346737Y-83977280D01*
X149290720Y-83829575D01*
X149231924Y-83744394D01*
X149200984Y-83699569D01*
X149200983Y-83699568D01*
X149082740Y-83594815D01*
X149069494Y-83587862D01*
X148942864Y-83521401D01*
X148789485Y-83483598D01*
X148631515Y-83483598D01*
X148478135Y-83521401D01*
X148338261Y-83594814D01*
X148220015Y-83699569D01*
X148216243Y-83705036D01*
X148171819Y-83744394D01*
X148114192Y-83758598D01*
X146417707Y-83758598D01*
X146392261Y-83755959D01*
X146381635Y-83753731D01*
X146381634Y-83753731D01*
X146363760Y-83755959D01*
X146350225Y-83757646D01*
X146334888Y-83758598D01*
X146334786Y-83758598D01*
X146314301Y-83762016D01*
X146309234Y-83762755D01*
X146249469Y-83770205D01*
X146249214Y-83770287D01*
X146196272Y-83798936D01*
X146191722Y-83801278D01*
X146137617Y-83827730D01*
X146137407Y-83827886D01*
X146096621Y-83872191D01*
X146093074Y-83875887D01*
X145155780Y-84813181D01*
X145115552Y-84840061D01*
X145068099Y-84849500D01*
X144921015Y-84849500D01*
X144767635Y-84887303D01*
X144627761Y-84960716D01*
X144509515Y-85065471D01*
X144419780Y-85195476D01*
X144363763Y-85343181D01*
X144344721Y-85500000D01*
X144363763Y-85656818D01*
X144419780Y-85804523D01*
X144420149Y-85805058D01*
X144421828Y-85809925D01*
X144425119Y-85818601D01*
X144424857Y-85818700D01*
X144441875Y-85868011D01*
X144427898Y-85933124D01*
X144382252Y-85981617D01*
X144318101Y-85999500D01*
X142624500Y-85999500D01*
X142562500Y-85982887D01*
X142517113Y-85937500D01*
X142500500Y-85875500D01*
X142500500Y-79650000D01*
X143624785Y-79650000D01*
X143643602Y-79853083D01*
X143699418Y-80049251D01*
X143790324Y-80231818D01*
X143913236Y-80394580D01*
X144063958Y-80531981D01*
X144237361Y-80639347D01*
X144237363Y-80639348D01*
X144427544Y-80713024D01*
X144628024Y-80750500D01*
X144831974Y-80750500D01*
X144831976Y-80750500D01*
X145032456Y-80713024D01*
X145222637Y-80639348D01*
X145396041Y-80531981D01*
X145546764Y-80394579D01*
X145669673Y-80231821D01*
X145669673Y-80231819D01*
X145669675Y-80231818D01*
X145715313Y-80140161D01*
X145760582Y-80049250D01*
X145816397Y-79853083D01*
X145835215Y-79650000D01*
X146164785Y-79650000D01*
X146183602Y-79853083D01*
X146239418Y-80049251D01*
X146330324Y-80231818D01*
X146453236Y-80394580D01*
X146603958Y-80531981D01*
X146777361Y-80639347D01*
X146777363Y-80639348D01*
X146967544Y-80713024D01*
X147168024Y-80750500D01*
X147371974Y-80750500D01*
X147371976Y-80750500D01*
X147572456Y-80713024D01*
X147762637Y-80639348D01*
X147936041Y-80531981D01*
X148086764Y-80394579D01*
X148209673Y-80231821D01*
X148209673Y-80231819D01*
X148209675Y-80231818D01*
X148255313Y-80140161D01*
X148300582Y-80049250D01*
X148343048Y-79900000D01*
X148737472Y-79900000D01*
X148779886Y-80049069D01*
X148870751Y-80231553D01*
X148993607Y-80394241D01*
X149144259Y-80531578D01*
X149317588Y-80638899D01*
X149507679Y-80712539D01*
X149560000Y-80722320D01*
X149560000Y-79900000D01*
X150060000Y-79900000D01*
X150060000Y-80722320D01*
X150112320Y-80712539D01*
X150302411Y-80638899D01*
X150475740Y-80531578D01*
X150483312Y-80524675D01*
X151249500Y-80524675D01*
X151264033Y-80597738D01*
X151264033Y-80597739D01*
X151264034Y-80597740D01*
X151319399Y-80680601D01*
X151402260Y-80735966D01*
X151438793Y-80743233D01*
X151475325Y-80750500D01*
X151475326Y-80750500D01*
X153224674Y-80750500D01*
X153224675Y-80750500D01*
X153249029Y-80745655D01*
X153297740Y-80735966D01*
X153380601Y-80680601D01*
X153435966Y-80597740D01*
X153450500Y-80524674D01*
X153450500Y-78775326D01*
X153449126Y-78768421D01*
X153435966Y-78702261D01*
X153435966Y-78702260D01*
X153380601Y-78619399D01*
X153297740Y-78564034D01*
X153297739Y-78564033D01*
X153297738Y-78564033D01*
X153224675Y-78549500D01*
X153224674Y-78549500D01*
X151475326Y-78549500D01*
X151475325Y-78549500D01*
X151402261Y-78564033D01*
X151319399Y-78619399D01*
X151264033Y-78702261D01*
X151249500Y-78775325D01*
X151249500Y-80524675D01*
X150483312Y-80524675D01*
X150626392Y-80394241D01*
X150749248Y-80231553D01*
X150840113Y-80049069D01*
X150882528Y-79900000D01*
X150060000Y-79900000D01*
X149560000Y-79900000D01*
X148737472Y-79900000D01*
X148343048Y-79900000D01*
X148356397Y-79853083D01*
X148375215Y-79650000D01*
X148356397Y-79446917D01*
X148343048Y-79399999D01*
X148737471Y-79399999D01*
X148737472Y-79400000D01*
X149560000Y-79400000D01*
X149560000Y-78577680D01*
X150060000Y-78577680D01*
X150060000Y-79400000D01*
X150882528Y-79400000D01*
X150882528Y-79399999D01*
X150840113Y-79250930D01*
X150749248Y-79068446D01*
X150626392Y-78905758D01*
X150475740Y-78768421D01*
X150302411Y-78661100D01*
X150112320Y-78587460D01*
X150060000Y-78577680D01*
X149560000Y-78577680D01*
X149507679Y-78587460D01*
X149317588Y-78661100D01*
X149144259Y-78768421D01*
X148993607Y-78905758D01*
X148870751Y-79068446D01*
X148779886Y-79250930D01*
X148737471Y-79399999D01*
X148343048Y-79399999D01*
X148300582Y-79250750D01*
X148300209Y-79250001D01*
X148209675Y-79068181D01*
X148086763Y-78905419D01*
X147936041Y-78768018D01*
X147762638Y-78660652D01*
X147572457Y-78586976D01*
X147449726Y-78564034D01*
X147371976Y-78549500D01*
X147168024Y-78549500D01*
X147090279Y-78564033D01*
X146967542Y-78586976D01*
X146777361Y-78660652D01*
X146603958Y-78768018D01*
X146453236Y-78905419D01*
X146330324Y-79068181D01*
X146239418Y-79250748D01*
X146183602Y-79446916D01*
X146164785Y-79650000D01*
X145835215Y-79650000D01*
X145816397Y-79446917D01*
X145760582Y-79250750D01*
X145760209Y-79250001D01*
X145669675Y-79068181D01*
X145546763Y-78905419D01*
X145396041Y-78768018D01*
X145222638Y-78660652D01*
X145032457Y-78586976D01*
X144909726Y-78564034D01*
X144831976Y-78549500D01*
X144628024Y-78549500D01*
X144550279Y-78564033D01*
X144427542Y-78586976D01*
X144237361Y-78660652D01*
X144063958Y-78768018D01*
X143913236Y-78905419D01*
X143790324Y-79068181D01*
X143699418Y-79250748D01*
X143643602Y-79446916D01*
X143624785Y-79650000D01*
X142500500Y-79650000D01*
X142500500Y-71124500D01*
X142517113Y-71062500D01*
X142562500Y-71017113D01*
X142624500Y-71000500D01*
X154375500Y-71000500D01*
X154437500Y-71017113D01*
G37*
%TD.AperFunction*%
%TD*%
%TA.AperFunction,Conductor*%
%TO.N,Board_22-GND*%
G36*
X154437500Y-88017113D02*
G01*
X154482887Y-88062500D01*
X154499500Y-88124500D01*
X154499500Y-102875500D01*
X154482887Y-102937500D01*
X154437500Y-102982887D01*
X154375500Y-102999500D01*
X145681899Y-102999500D01*
X145617748Y-102981617D01*
X145572102Y-102933124D01*
X145558125Y-102868011D01*
X145575142Y-102818700D01*
X145574881Y-102818601D01*
X145578171Y-102809925D01*
X145579851Y-102805058D01*
X145579932Y-102804940D01*
X145580220Y-102804523D01*
X145636237Y-102656818D01*
X145655278Y-102500000D01*
X145649102Y-102449143D01*
X145654980Y-102393751D01*
X145684515Y-102346520D01*
X146485119Y-101545917D01*
X146525348Y-101519037D01*
X146572801Y-101509598D01*
X148114192Y-101509598D01*
X148171819Y-101523802D01*
X148216243Y-101563160D01*
X148220015Y-101568626D01*
X148220016Y-101568627D01*
X148220017Y-101568628D01*
X148338260Y-101673381D01*
X148478135Y-101746794D01*
X148631515Y-101784598D01*
X148789485Y-101784598D01*
X148942865Y-101746794D01*
X149082740Y-101673381D01*
X149200983Y-101568628D01*
X149290720Y-101438621D01*
X149346737Y-101290916D01*
X149365778Y-101134098D01*
X149346737Y-100977280D01*
X149290720Y-100829575D01*
X149231924Y-100744394D01*
X149200984Y-100699569D01*
X149200983Y-100699568D01*
X149082740Y-100594815D01*
X149069494Y-100587862D01*
X148942864Y-100521401D01*
X148789485Y-100483598D01*
X148631515Y-100483598D01*
X148478135Y-100521401D01*
X148338261Y-100594814D01*
X148220015Y-100699569D01*
X148216243Y-100705036D01*
X148171819Y-100744394D01*
X148114192Y-100758598D01*
X146417707Y-100758598D01*
X146392261Y-100755959D01*
X146381635Y-100753731D01*
X146381634Y-100753731D01*
X146363760Y-100755959D01*
X146350225Y-100757646D01*
X146334888Y-100758598D01*
X146334786Y-100758598D01*
X146314301Y-100762016D01*
X146309234Y-100762755D01*
X146249469Y-100770205D01*
X146249214Y-100770287D01*
X146196272Y-100798936D01*
X146191722Y-100801278D01*
X146137617Y-100827730D01*
X146137407Y-100827886D01*
X146096621Y-100872191D01*
X146093074Y-100875887D01*
X145155780Y-101813181D01*
X145115552Y-101840061D01*
X145068099Y-101849500D01*
X144921015Y-101849500D01*
X144767635Y-101887303D01*
X144627761Y-101960716D01*
X144509515Y-102065471D01*
X144419780Y-102195476D01*
X144363763Y-102343181D01*
X144344721Y-102500000D01*
X144363763Y-102656818D01*
X144419780Y-102804523D01*
X144420149Y-102805058D01*
X144421828Y-102809925D01*
X144425119Y-102818601D01*
X144424857Y-102818700D01*
X144441875Y-102868011D01*
X144427898Y-102933124D01*
X144382252Y-102981617D01*
X144318101Y-102999500D01*
X142624500Y-102999500D01*
X142562500Y-102982887D01*
X142517113Y-102937500D01*
X142500500Y-102875500D01*
X142500500Y-96650000D01*
X143624785Y-96650000D01*
X143643602Y-96853083D01*
X143699418Y-97049251D01*
X143790324Y-97231818D01*
X143913236Y-97394580D01*
X144063958Y-97531981D01*
X144237361Y-97639347D01*
X144237363Y-97639348D01*
X144427544Y-97713024D01*
X144628024Y-97750500D01*
X144831974Y-97750500D01*
X144831976Y-97750500D01*
X145032456Y-97713024D01*
X145222637Y-97639348D01*
X145396041Y-97531981D01*
X145546764Y-97394579D01*
X145669673Y-97231821D01*
X145669673Y-97231819D01*
X145669675Y-97231818D01*
X145715313Y-97140161D01*
X145760582Y-97049250D01*
X145816397Y-96853083D01*
X145835215Y-96650000D01*
X146164785Y-96650000D01*
X146183602Y-96853083D01*
X146239418Y-97049251D01*
X146330324Y-97231818D01*
X146453236Y-97394580D01*
X146603958Y-97531981D01*
X146777361Y-97639347D01*
X146777363Y-97639348D01*
X146967544Y-97713024D01*
X147168024Y-97750500D01*
X147371974Y-97750500D01*
X147371976Y-97750500D01*
X147572456Y-97713024D01*
X147762637Y-97639348D01*
X147936041Y-97531981D01*
X148086764Y-97394579D01*
X148209673Y-97231821D01*
X148209673Y-97231819D01*
X148209675Y-97231818D01*
X148255313Y-97140161D01*
X148300582Y-97049250D01*
X148343048Y-96900000D01*
X148737472Y-96900000D01*
X148779886Y-97049069D01*
X148870751Y-97231553D01*
X148993607Y-97394241D01*
X149144259Y-97531578D01*
X149317588Y-97638899D01*
X149507679Y-97712539D01*
X149560000Y-97722320D01*
X149560000Y-96900000D01*
X150060000Y-96900000D01*
X150060000Y-97722320D01*
X150112320Y-97712539D01*
X150302411Y-97638899D01*
X150475740Y-97531578D01*
X150483312Y-97524675D01*
X151249500Y-97524675D01*
X151264033Y-97597738D01*
X151264033Y-97597739D01*
X151264034Y-97597740D01*
X151319399Y-97680601D01*
X151402260Y-97735966D01*
X151438793Y-97743233D01*
X151475325Y-97750500D01*
X151475326Y-97750500D01*
X153224674Y-97750500D01*
X153224675Y-97750500D01*
X153249029Y-97745655D01*
X153297740Y-97735966D01*
X153380601Y-97680601D01*
X153435966Y-97597740D01*
X153450500Y-97524674D01*
X153450500Y-95775326D01*
X153449126Y-95768421D01*
X153435966Y-95702261D01*
X153435966Y-95702260D01*
X153380601Y-95619399D01*
X153297740Y-95564034D01*
X153297739Y-95564033D01*
X153297738Y-95564033D01*
X153224675Y-95549500D01*
X153224674Y-95549500D01*
X151475326Y-95549500D01*
X151475325Y-95549500D01*
X151402261Y-95564033D01*
X151319399Y-95619399D01*
X151264033Y-95702261D01*
X151249500Y-95775325D01*
X151249500Y-97524675D01*
X150483312Y-97524675D01*
X150626392Y-97394241D01*
X150749248Y-97231553D01*
X150840113Y-97049069D01*
X150882528Y-96900000D01*
X150060000Y-96900000D01*
X149560000Y-96900000D01*
X148737472Y-96900000D01*
X148343048Y-96900000D01*
X148356397Y-96853083D01*
X148375215Y-96650000D01*
X148356397Y-96446917D01*
X148343048Y-96399999D01*
X148737471Y-96399999D01*
X148737472Y-96400000D01*
X149560000Y-96400000D01*
X149560000Y-95577680D01*
X150060000Y-95577680D01*
X150060000Y-96400000D01*
X150882528Y-96400000D01*
X150882528Y-96399999D01*
X150840113Y-96250930D01*
X150749248Y-96068446D01*
X150626392Y-95905758D01*
X150475740Y-95768421D01*
X150302411Y-95661100D01*
X150112320Y-95587460D01*
X150060000Y-95577680D01*
X149560000Y-95577680D01*
X149507679Y-95587460D01*
X149317588Y-95661100D01*
X149144259Y-95768421D01*
X148993607Y-95905758D01*
X148870751Y-96068446D01*
X148779886Y-96250930D01*
X148737471Y-96399999D01*
X148343048Y-96399999D01*
X148300582Y-96250750D01*
X148300209Y-96250001D01*
X148209675Y-96068181D01*
X148086763Y-95905419D01*
X147936041Y-95768018D01*
X147762638Y-95660652D01*
X147572457Y-95586976D01*
X147449726Y-95564034D01*
X147371976Y-95549500D01*
X147168024Y-95549500D01*
X147090279Y-95564033D01*
X146967542Y-95586976D01*
X146777361Y-95660652D01*
X146603958Y-95768018D01*
X146453236Y-95905419D01*
X146330324Y-96068181D01*
X146239418Y-96250748D01*
X146183602Y-96446916D01*
X146164785Y-96650000D01*
X145835215Y-96650000D01*
X145816397Y-96446917D01*
X145760582Y-96250750D01*
X145760209Y-96250001D01*
X145669675Y-96068181D01*
X145546763Y-95905419D01*
X145396041Y-95768018D01*
X145222638Y-95660652D01*
X145032457Y-95586976D01*
X144909726Y-95564034D01*
X144831976Y-95549500D01*
X144628024Y-95549500D01*
X144550279Y-95564033D01*
X144427542Y-95586976D01*
X144237361Y-95660652D01*
X144063958Y-95768018D01*
X143913236Y-95905419D01*
X143790324Y-96068181D01*
X143699418Y-96250748D01*
X143643602Y-96446916D01*
X143624785Y-96650000D01*
X142500500Y-96650000D01*
X142500500Y-88124500D01*
X142517113Y-88062500D01*
X142562500Y-88017113D01*
X142624500Y-88000500D01*
X154375500Y-88000500D01*
X154437500Y-88017113D01*
G37*
%TD.AperFunction*%
%TD*%
%TA.AperFunction,Conductor*%
%TO.N,Board_5-GND*%
G36*
X126437500Y-37017113D02*
G01*
X126482887Y-37062500D01*
X126499500Y-37124500D01*
X126499500Y-51875500D01*
X126482887Y-51937500D01*
X126437500Y-51982887D01*
X126375500Y-51999500D01*
X117681899Y-51999500D01*
X117617748Y-51981617D01*
X117572102Y-51933124D01*
X117558125Y-51868011D01*
X117575142Y-51818700D01*
X117574881Y-51818601D01*
X117578171Y-51809925D01*
X117579851Y-51805058D01*
X117579932Y-51804940D01*
X117580220Y-51804523D01*
X117636237Y-51656818D01*
X117655278Y-51500000D01*
X117649102Y-51449143D01*
X117654980Y-51393751D01*
X117684515Y-51346520D01*
X118485119Y-50545917D01*
X118525348Y-50519037D01*
X118572801Y-50509598D01*
X120114192Y-50509598D01*
X120171819Y-50523802D01*
X120216243Y-50563160D01*
X120220015Y-50568626D01*
X120220016Y-50568627D01*
X120220017Y-50568628D01*
X120338260Y-50673381D01*
X120478135Y-50746794D01*
X120631515Y-50784598D01*
X120789485Y-50784598D01*
X120942865Y-50746794D01*
X121082740Y-50673381D01*
X121200983Y-50568628D01*
X121290720Y-50438621D01*
X121346737Y-50290916D01*
X121365778Y-50134098D01*
X121346737Y-49977280D01*
X121290720Y-49829575D01*
X121231924Y-49744394D01*
X121200984Y-49699569D01*
X121200983Y-49699568D01*
X121082740Y-49594815D01*
X121069494Y-49587862D01*
X120942864Y-49521401D01*
X120789485Y-49483598D01*
X120631515Y-49483598D01*
X120478135Y-49521401D01*
X120338261Y-49594814D01*
X120220015Y-49699569D01*
X120216243Y-49705036D01*
X120171819Y-49744394D01*
X120114192Y-49758598D01*
X118417707Y-49758598D01*
X118392261Y-49755959D01*
X118381635Y-49753731D01*
X118381634Y-49753731D01*
X118363760Y-49755959D01*
X118350225Y-49757646D01*
X118334888Y-49758598D01*
X118334786Y-49758598D01*
X118314301Y-49762016D01*
X118309234Y-49762755D01*
X118249469Y-49770205D01*
X118249214Y-49770287D01*
X118196272Y-49798936D01*
X118191722Y-49801278D01*
X118137617Y-49827730D01*
X118137407Y-49827886D01*
X118096621Y-49872191D01*
X118093074Y-49875887D01*
X117155780Y-50813181D01*
X117115552Y-50840061D01*
X117068099Y-50849500D01*
X116921015Y-50849500D01*
X116767635Y-50887303D01*
X116627761Y-50960716D01*
X116509515Y-51065471D01*
X116419780Y-51195476D01*
X116363763Y-51343181D01*
X116344721Y-51500000D01*
X116363763Y-51656818D01*
X116419780Y-51804523D01*
X116420149Y-51805058D01*
X116421828Y-51809925D01*
X116425119Y-51818601D01*
X116424857Y-51818700D01*
X116441875Y-51868011D01*
X116427898Y-51933124D01*
X116382252Y-51981617D01*
X116318101Y-51999500D01*
X114624500Y-51999500D01*
X114562500Y-51982887D01*
X114517113Y-51937500D01*
X114500500Y-51875500D01*
X114500500Y-45650000D01*
X115624785Y-45650000D01*
X115643602Y-45853083D01*
X115699418Y-46049251D01*
X115790324Y-46231818D01*
X115913236Y-46394580D01*
X116063958Y-46531981D01*
X116237361Y-46639347D01*
X116237363Y-46639348D01*
X116427544Y-46713024D01*
X116628024Y-46750500D01*
X116831974Y-46750500D01*
X116831976Y-46750500D01*
X117032456Y-46713024D01*
X117222637Y-46639348D01*
X117396041Y-46531981D01*
X117546764Y-46394579D01*
X117669673Y-46231821D01*
X117669673Y-46231819D01*
X117669675Y-46231818D01*
X117715313Y-46140161D01*
X117760582Y-46049250D01*
X117816397Y-45853083D01*
X117835215Y-45650000D01*
X118164785Y-45650000D01*
X118183602Y-45853083D01*
X118239418Y-46049251D01*
X118330324Y-46231818D01*
X118453236Y-46394580D01*
X118603958Y-46531981D01*
X118777361Y-46639347D01*
X118777363Y-46639348D01*
X118967544Y-46713024D01*
X119168024Y-46750500D01*
X119371974Y-46750500D01*
X119371976Y-46750500D01*
X119572456Y-46713024D01*
X119762637Y-46639348D01*
X119936041Y-46531981D01*
X120086764Y-46394579D01*
X120209673Y-46231821D01*
X120209673Y-46231819D01*
X120209675Y-46231818D01*
X120255313Y-46140161D01*
X120300582Y-46049250D01*
X120343048Y-45900000D01*
X120737472Y-45900000D01*
X120779886Y-46049069D01*
X120870751Y-46231553D01*
X120993607Y-46394241D01*
X121144259Y-46531578D01*
X121317588Y-46638899D01*
X121507679Y-46712539D01*
X121560000Y-46722320D01*
X121560000Y-45900000D01*
X122060000Y-45900000D01*
X122060000Y-46722320D01*
X122112320Y-46712539D01*
X122302411Y-46638899D01*
X122475740Y-46531578D01*
X122483312Y-46524675D01*
X123249500Y-46524675D01*
X123264033Y-46597738D01*
X123264033Y-46597739D01*
X123264034Y-46597740D01*
X123319399Y-46680601D01*
X123402260Y-46735966D01*
X123438793Y-46743233D01*
X123475325Y-46750500D01*
X123475326Y-46750500D01*
X125224674Y-46750500D01*
X125224675Y-46750500D01*
X125249029Y-46745655D01*
X125297740Y-46735966D01*
X125380601Y-46680601D01*
X125435966Y-46597740D01*
X125450500Y-46524674D01*
X125450500Y-44775326D01*
X125449126Y-44768421D01*
X125435966Y-44702261D01*
X125435966Y-44702260D01*
X125380601Y-44619399D01*
X125297740Y-44564034D01*
X125297739Y-44564033D01*
X125297738Y-44564033D01*
X125224675Y-44549500D01*
X125224674Y-44549500D01*
X123475326Y-44549500D01*
X123475325Y-44549500D01*
X123402261Y-44564033D01*
X123319399Y-44619399D01*
X123264033Y-44702261D01*
X123249500Y-44775325D01*
X123249500Y-46524675D01*
X122483312Y-46524675D01*
X122626392Y-46394241D01*
X122749248Y-46231553D01*
X122840113Y-46049069D01*
X122882528Y-45900000D01*
X122060000Y-45900000D01*
X121560000Y-45900000D01*
X120737472Y-45900000D01*
X120343048Y-45900000D01*
X120356397Y-45853083D01*
X120375215Y-45650000D01*
X120356397Y-45446917D01*
X120343048Y-45399999D01*
X120737471Y-45399999D01*
X120737472Y-45400000D01*
X121560000Y-45400000D01*
X121560000Y-44577680D01*
X122060000Y-44577680D01*
X122060000Y-45400000D01*
X122882528Y-45400000D01*
X122882528Y-45399999D01*
X122840113Y-45250930D01*
X122749248Y-45068446D01*
X122626392Y-44905758D01*
X122475740Y-44768421D01*
X122302411Y-44661100D01*
X122112320Y-44587460D01*
X122060000Y-44577680D01*
X121560000Y-44577680D01*
X121507679Y-44587460D01*
X121317588Y-44661100D01*
X121144259Y-44768421D01*
X120993607Y-44905758D01*
X120870751Y-45068446D01*
X120779886Y-45250930D01*
X120737471Y-45399999D01*
X120343048Y-45399999D01*
X120300582Y-45250750D01*
X120300209Y-45250001D01*
X120209675Y-45068181D01*
X120086763Y-44905419D01*
X119936041Y-44768018D01*
X119762638Y-44660652D01*
X119572457Y-44586976D01*
X119449726Y-44564034D01*
X119371976Y-44549500D01*
X119168024Y-44549500D01*
X119090279Y-44564033D01*
X118967542Y-44586976D01*
X118777361Y-44660652D01*
X118603958Y-44768018D01*
X118453236Y-44905419D01*
X118330324Y-45068181D01*
X118239418Y-45250748D01*
X118183602Y-45446916D01*
X118164785Y-45650000D01*
X117835215Y-45650000D01*
X117816397Y-45446917D01*
X117760582Y-45250750D01*
X117760209Y-45250001D01*
X117669675Y-45068181D01*
X117546763Y-44905419D01*
X117396041Y-44768018D01*
X117222638Y-44660652D01*
X117032457Y-44586976D01*
X116909726Y-44564034D01*
X116831976Y-44549500D01*
X116628024Y-44549500D01*
X116550279Y-44564033D01*
X116427542Y-44586976D01*
X116237361Y-44660652D01*
X116063958Y-44768018D01*
X115913236Y-44905419D01*
X115790324Y-45068181D01*
X115699418Y-45250748D01*
X115643602Y-45446916D01*
X115624785Y-45650000D01*
X114500500Y-45650000D01*
X114500500Y-37124500D01*
X114517113Y-37062500D01*
X114562500Y-37017113D01*
X114624500Y-37000500D01*
X126375500Y-37000500D01*
X126437500Y-37017113D01*
G37*
%TD.AperFunction*%
%TD*%
%TA.AperFunction,Conductor*%
%TO.N,Board_11-GND*%
G36*
X140437500Y-54017113D02*
G01*
X140482887Y-54062500D01*
X140499500Y-54124500D01*
X140499500Y-68875500D01*
X140482887Y-68937500D01*
X140437500Y-68982887D01*
X140375500Y-68999500D01*
X131681899Y-68999500D01*
X131617748Y-68981617D01*
X131572102Y-68933124D01*
X131558125Y-68868011D01*
X131575142Y-68818700D01*
X131574881Y-68818601D01*
X131578171Y-68809925D01*
X131579851Y-68805058D01*
X131579932Y-68804940D01*
X131580220Y-68804523D01*
X131636237Y-68656818D01*
X131655278Y-68500000D01*
X131649102Y-68449143D01*
X131654980Y-68393751D01*
X131684515Y-68346520D01*
X132485119Y-67545917D01*
X132525348Y-67519037D01*
X132572801Y-67509598D01*
X134114192Y-67509598D01*
X134171819Y-67523802D01*
X134216243Y-67563160D01*
X134220015Y-67568626D01*
X134220016Y-67568627D01*
X134220017Y-67568628D01*
X134338260Y-67673381D01*
X134478135Y-67746794D01*
X134631515Y-67784598D01*
X134789485Y-67784598D01*
X134942865Y-67746794D01*
X135082740Y-67673381D01*
X135200983Y-67568628D01*
X135290720Y-67438621D01*
X135346737Y-67290916D01*
X135365778Y-67134098D01*
X135346737Y-66977280D01*
X135290720Y-66829575D01*
X135231924Y-66744394D01*
X135200984Y-66699569D01*
X135200983Y-66699568D01*
X135082740Y-66594815D01*
X135069494Y-66587862D01*
X134942864Y-66521401D01*
X134789485Y-66483598D01*
X134631515Y-66483598D01*
X134478135Y-66521401D01*
X134338261Y-66594814D01*
X134220015Y-66699569D01*
X134216243Y-66705036D01*
X134171819Y-66744394D01*
X134114192Y-66758598D01*
X132417707Y-66758598D01*
X132392261Y-66755959D01*
X132381635Y-66753731D01*
X132381634Y-66753731D01*
X132363760Y-66755959D01*
X132350225Y-66757646D01*
X132334888Y-66758598D01*
X132334786Y-66758598D01*
X132314301Y-66762016D01*
X132309234Y-66762755D01*
X132249469Y-66770205D01*
X132249214Y-66770287D01*
X132196272Y-66798936D01*
X132191722Y-66801278D01*
X132137617Y-66827730D01*
X132137407Y-66827886D01*
X132096621Y-66872191D01*
X132093074Y-66875887D01*
X131155780Y-67813181D01*
X131115552Y-67840061D01*
X131068099Y-67849500D01*
X130921015Y-67849500D01*
X130767635Y-67887303D01*
X130627761Y-67960716D01*
X130509515Y-68065471D01*
X130419780Y-68195476D01*
X130363763Y-68343181D01*
X130344721Y-68500000D01*
X130363763Y-68656818D01*
X130419780Y-68804523D01*
X130420149Y-68805058D01*
X130421828Y-68809925D01*
X130425119Y-68818601D01*
X130424857Y-68818700D01*
X130441875Y-68868011D01*
X130427898Y-68933124D01*
X130382252Y-68981617D01*
X130318101Y-68999500D01*
X128624500Y-68999500D01*
X128562500Y-68982887D01*
X128517113Y-68937500D01*
X128500500Y-68875500D01*
X128500500Y-62650000D01*
X129624785Y-62650000D01*
X129643602Y-62853083D01*
X129699418Y-63049251D01*
X129790324Y-63231818D01*
X129913236Y-63394580D01*
X130063958Y-63531981D01*
X130237361Y-63639347D01*
X130237363Y-63639348D01*
X130427544Y-63713024D01*
X130628024Y-63750500D01*
X130831974Y-63750500D01*
X130831976Y-63750500D01*
X131032456Y-63713024D01*
X131222637Y-63639348D01*
X131396041Y-63531981D01*
X131546764Y-63394579D01*
X131669673Y-63231821D01*
X131669673Y-63231819D01*
X131669675Y-63231818D01*
X131715313Y-63140161D01*
X131760582Y-63049250D01*
X131816397Y-62853083D01*
X131835215Y-62650000D01*
X132164785Y-62650000D01*
X132183602Y-62853083D01*
X132239418Y-63049251D01*
X132330324Y-63231818D01*
X132453236Y-63394580D01*
X132603958Y-63531981D01*
X132777361Y-63639347D01*
X132777363Y-63639348D01*
X132967544Y-63713024D01*
X133168024Y-63750500D01*
X133371974Y-63750500D01*
X133371976Y-63750500D01*
X133572456Y-63713024D01*
X133762637Y-63639348D01*
X133936041Y-63531981D01*
X134086764Y-63394579D01*
X134209673Y-63231821D01*
X134209673Y-63231819D01*
X134209675Y-63231818D01*
X134255313Y-63140161D01*
X134300582Y-63049250D01*
X134343048Y-62900000D01*
X134737472Y-62900000D01*
X134779886Y-63049069D01*
X134870751Y-63231553D01*
X134993607Y-63394241D01*
X135144259Y-63531578D01*
X135317588Y-63638899D01*
X135507679Y-63712539D01*
X135560000Y-63722320D01*
X135560000Y-62900000D01*
X136060000Y-62900000D01*
X136060000Y-63722320D01*
X136112320Y-63712539D01*
X136302411Y-63638899D01*
X136475740Y-63531578D01*
X136483312Y-63524675D01*
X137249500Y-63524675D01*
X137264033Y-63597738D01*
X137264033Y-63597739D01*
X137264034Y-63597740D01*
X137319399Y-63680601D01*
X137402260Y-63735966D01*
X137438793Y-63743233D01*
X137475325Y-63750500D01*
X137475326Y-63750500D01*
X139224674Y-63750500D01*
X139224675Y-63750500D01*
X139249029Y-63745655D01*
X139297740Y-63735966D01*
X139380601Y-63680601D01*
X139435966Y-63597740D01*
X139450500Y-63524674D01*
X139450500Y-61775326D01*
X139449126Y-61768421D01*
X139435966Y-61702261D01*
X139435966Y-61702260D01*
X139380601Y-61619399D01*
X139297740Y-61564034D01*
X139297739Y-61564033D01*
X139297738Y-61564033D01*
X139224675Y-61549500D01*
X139224674Y-61549500D01*
X137475326Y-61549500D01*
X137475325Y-61549500D01*
X137402261Y-61564033D01*
X137319399Y-61619399D01*
X137264033Y-61702261D01*
X137249500Y-61775325D01*
X137249500Y-63524675D01*
X136483312Y-63524675D01*
X136626392Y-63394241D01*
X136749248Y-63231553D01*
X136840113Y-63049069D01*
X136882528Y-62900000D01*
X136060000Y-62900000D01*
X135560000Y-62900000D01*
X134737472Y-62900000D01*
X134343048Y-62900000D01*
X134356397Y-62853083D01*
X134375215Y-62650000D01*
X134356397Y-62446917D01*
X134343048Y-62399999D01*
X134737471Y-62399999D01*
X134737472Y-62400000D01*
X135560000Y-62400000D01*
X135560000Y-61577680D01*
X136060000Y-61577680D01*
X136060000Y-62400000D01*
X136882528Y-62400000D01*
X136882528Y-62399999D01*
X136840113Y-62250930D01*
X136749248Y-62068446D01*
X136626392Y-61905758D01*
X136475740Y-61768421D01*
X136302411Y-61661100D01*
X136112320Y-61587460D01*
X136060000Y-61577680D01*
X135560000Y-61577680D01*
X135507679Y-61587460D01*
X135317588Y-61661100D01*
X135144259Y-61768421D01*
X134993607Y-61905758D01*
X134870751Y-62068446D01*
X134779886Y-62250930D01*
X134737471Y-62399999D01*
X134343048Y-62399999D01*
X134300582Y-62250750D01*
X134300209Y-62250001D01*
X134209675Y-62068181D01*
X134086763Y-61905419D01*
X133936041Y-61768018D01*
X133762638Y-61660652D01*
X133572457Y-61586976D01*
X133449726Y-61564034D01*
X133371976Y-61549500D01*
X133168024Y-61549500D01*
X133090279Y-61564033D01*
X132967542Y-61586976D01*
X132777361Y-61660652D01*
X132603958Y-61768018D01*
X132453236Y-61905419D01*
X132330324Y-62068181D01*
X132239418Y-62250748D01*
X132183602Y-62446916D01*
X132164785Y-62650000D01*
X131835215Y-62650000D01*
X131816397Y-62446917D01*
X131760582Y-62250750D01*
X131760209Y-62250001D01*
X131669675Y-62068181D01*
X131546763Y-61905419D01*
X131396041Y-61768018D01*
X131222638Y-61660652D01*
X131032457Y-61586976D01*
X130909726Y-61564034D01*
X130831976Y-61549500D01*
X130628024Y-61549500D01*
X130550279Y-61564033D01*
X130427542Y-61586976D01*
X130237361Y-61660652D01*
X130063958Y-61768018D01*
X129913236Y-61905419D01*
X129790324Y-62068181D01*
X129699418Y-62250748D01*
X129643602Y-62446916D01*
X129624785Y-62650000D01*
X128500500Y-62650000D01*
X128500500Y-54124500D01*
X128517113Y-54062500D01*
X128562500Y-54017113D01*
X128624500Y-54000500D01*
X140375500Y-54000500D01*
X140437500Y-54017113D01*
G37*
%TD.AperFunction*%
%TD*%
%TA.AperFunction,Conductor*%
%TO.N,Board_16-GND*%
G36*
X140437500Y-71017113D02*
G01*
X140482887Y-71062500D01*
X140499500Y-71124500D01*
X140499500Y-85875500D01*
X140482887Y-85937500D01*
X140437500Y-85982887D01*
X140375500Y-85999500D01*
X131681899Y-85999500D01*
X131617748Y-85981617D01*
X131572102Y-85933124D01*
X131558125Y-85868011D01*
X131575142Y-85818700D01*
X131574881Y-85818601D01*
X131578171Y-85809925D01*
X131579851Y-85805058D01*
X131579932Y-85804940D01*
X131580220Y-85804523D01*
X131636237Y-85656818D01*
X131655278Y-85500000D01*
X131649102Y-85449143D01*
X131654980Y-85393751D01*
X131684515Y-85346520D01*
X132485119Y-84545917D01*
X132525348Y-84519037D01*
X132572801Y-84509598D01*
X134114192Y-84509598D01*
X134171819Y-84523802D01*
X134216243Y-84563160D01*
X134220015Y-84568626D01*
X134220016Y-84568627D01*
X134220017Y-84568628D01*
X134338260Y-84673381D01*
X134478135Y-84746794D01*
X134631515Y-84784598D01*
X134789485Y-84784598D01*
X134942865Y-84746794D01*
X135082740Y-84673381D01*
X135200983Y-84568628D01*
X135290720Y-84438621D01*
X135346737Y-84290916D01*
X135365778Y-84134098D01*
X135346737Y-83977280D01*
X135290720Y-83829575D01*
X135231924Y-83744394D01*
X135200984Y-83699569D01*
X135200983Y-83699568D01*
X135082740Y-83594815D01*
X135069494Y-83587862D01*
X134942864Y-83521401D01*
X134789485Y-83483598D01*
X134631515Y-83483598D01*
X134478135Y-83521401D01*
X134338261Y-83594814D01*
X134220015Y-83699569D01*
X134216243Y-83705036D01*
X134171819Y-83744394D01*
X134114192Y-83758598D01*
X132417707Y-83758598D01*
X132392261Y-83755959D01*
X132381635Y-83753731D01*
X132381634Y-83753731D01*
X132363760Y-83755959D01*
X132350225Y-83757646D01*
X132334888Y-83758598D01*
X132334786Y-83758598D01*
X132314301Y-83762016D01*
X132309234Y-83762755D01*
X132249469Y-83770205D01*
X132249214Y-83770287D01*
X132196272Y-83798936D01*
X132191722Y-83801278D01*
X132137617Y-83827730D01*
X132137407Y-83827886D01*
X132096621Y-83872191D01*
X132093074Y-83875887D01*
X131155780Y-84813181D01*
X131115552Y-84840061D01*
X131068099Y-84849500D01*
X130921015Y-84849500D01*
X130767635Y-84887303D01*
X130627761Y-84960716D01*
X130509515Y-85065471D01*
X130419780Y-85195476D01*
X130363763Y-85343181D01*
X130344721Y-85500000D01*
X130363763Y-85656818D01*
X130419780Y-85804523D01*
X130420149Y-85805058D01*
X130421828Y-85809925D01*
X130425119Y-85818601D01*
X130424857Y-85818700D01*
X130441875Y-85868011D01*
X130427898Y-85933124D01*
X130382252Y-85981617D01*
X130318101Y-85999500D01*
X128624500Y-85999500D01*
X128562500Y-85982887D01*
X128517113Y-85937500D01*
X128500500Y-85875500D01*
X128500500Y-79650000D01*
X129624785Y-79650000D01*
X129643602Y-79853083D01*
X129699418Y-80049251D01*
X129790324Y-80231818D01*
X129913236Y-80394580D01*
X130063958Y-80531981D01*
X130237361Y-80639347D01*
X130237363Y-80639348D01*
X130427544Y-80713024D01*
X130628024Y-80750500D01*
X130831974Y-80750500D01*
X130831976Y-80750500D01*
X131032456Y-80713024D01*
X131222637Y-80639348D01*
X131396041Y-80531981D01*
X131546764Y-80394579D01*
X131669673Y-80231821D01*
X131669673Y-80231819D01*
X131669675Y-80231818D01*
X131715313Y-80140161D01*
X131760582Y-80049250D01*
X131816397Y-79853083D01*
X131835215Y-79650000D01*
X132164785Y-79650000D01*
X132183602Y-79853083D01*
X132239418Y-80049251D01*
X132330324Y-80231818D01*
X132453236Y-80394580D01*
X132603958Y-80531981D01*
X132777361Y-80639347D01*
X132777363Y-80639348D01*
X132967544Y-80713024D01*
X133168024Y-80750500D01*
X133371974Y-80750500D01*
X133371976Y-80750500D01*
X133572456Y-80713024D01*
X133762637Y-80639348D01*
X133936041Y-80531981D01*
X134086764Y-80394579D01*
X134209673Y-80231821D01*
X134209673Y-80231819D01*
X134209675Y-80231818D01*
X134255313Y-80140161D01*
X134300582Y-80049250D01*
X134343048Y-79900000D01*
X134737472Y-79900000D01*
X134779886Y-80049069D01*
X134870751Y-80231553D01*
X134993607Y-80394241D01*
X135144259Y-80531578D01*
X135317588Y-80638899D01*
X135507679Y-80712539D01*
X135560000Y-80722320D01*
X135560000Y-79900000D01*
X136060000Y-79900000D01*
X136060000Y-80722320D01*
X136112320Y-80712539D01*
X136302411Y-80638899D01*
X136475740Y-80531578D01*
X136483312Y-80524675D01*
X137249500Y-80524675D01*
X137264033Y-80597738D01*
X137264033Y-80597739D01*
X137264034Y-80597740D01*
X137319399Y-80680601D01*
X137402260Y-80735966D01*
X137438793Y-80743233D01*
X137475325Y-80750500D01*
X137475326Y-80750500D01*
X139224674Y-80750500D01*
X139224675Y-80750500D01*
X139249029Y-80745655D01*
X139297740Y-80735966D01*
X139380601Y-80680601D01*
X139435966Y-80597740D01*
X139450500Y-80524674D01*
X139450500Y-78775326D01*
X139449126Y-78768421D01*
X139435966Y-78702261D01*
X139435966Y-78702260D01*
X139380601Y-78619399D01*
X139297740Y-78564034D01*
X139297739Y-78564033D01*
X139297738Y-78564033D01*
X139224675Y-78549500D01*
X139224674Y-78549500D01*
X137475326Y-78549500D01*
X137475325Y-78549500D01*
X137402261Y-78564033D01*
X137319399Y-78619399D01*
X137264033Y-78702261D01*
X137249500Y-78775325D01*
X137249500Y-80524675D01*
X136483312Y-80524675D01*
X136626392Y-80394241D01*
X136749248Y-80231553D01*
X136840113Y-80049069D01*
X136882528Y-79900000D01*
X136060000Y-79900000D01*
X135560000Y-79900000D01*
X134737472Y-79900000D01*
X134343048Y-79900000D01*
X134356397Y-79853083D01*
X134375215Y-79650000D01*
X134356397Y-79446917D01*
X134343048Y-79399999D01*
X134737471Y-79399999D01*
X134737472Y-79400000D01*
X135560000Y-79400000D01*
X135560000Y-78577680D01*
X136060000Y-78577680D01*
X136060000Y-79400000D01*
X136882528Y-79400000D01*
X136882528Y-79399999D01*
X136840113Y-79250930D01*
X136749248Y-79068446D01*
X136626392Y-78905758D01*
X136475740Y-78768421D01*
X136302411Y-78661100D01*
X136112320Y-78587460D01*
X136060000Y-78577680D01*
X135560000Y-78577680D01*
X135507679Y-78587460D01*
X135317588Y-78661100D01*
X135144259Y-78768421D01*
X134993607Y-78905758D01*
X134870751Y-79068446D01*
X134779886Y-79250930D01*
X134737471Y-79399999D01*
X134343048Y-79399999D01*
X134300582Y-79250750D01*
X134300209Y-79250001D01*
X134209675Y-79068181D01*
X134086763Y-78905419D01*
X133936041Y-78768018D01*
X133762638Y-78660652D01*
X133572457Y-78586976D01*
X133449726Y-78564034D01*
X133371976Y-78549500D01*
X133168024Y-78549500D01*
X133090279Y-78564033D01*
X132967542Y-78586976D01*
X132777361Y-78660652D01*
X132603958Y-78768018D01*
X132453236Y-78905419D01*
X132330324Y-79068181D01*
X132239418Y-79250748D01*
X132183602Y-79446916D01*
X132164785Y-79650000D01*
X131835215Y-79650000D01*
X131816397Y-79446917D01*
X131760582Y-79250750D01*
X131760209Y-79250001D01*
X131669675Y-79068181D01*
X131546763Y-78905419D01*
X131396041Y-78768018D01*
X131222638Y-78660652D01*
X131032457Y-78586976D01*
X130909726Y-78564034D01*
X130831976Y-78549500D01*
X130628024Y-78549500D01*
X130550279Y-78564033D01*
X130427542Y-78586976D01*
X130237361Y-78660652D01*
X130063958Y-78768018D01*
X129913236Y-78905419D01*
X129790324Y-79068181D01*
X129699418Y-79250748D01*
X129643602Y-79446916D01*
X129624785Y-79650000D01*
X128500500Y-79650000D01*
X128500500Y-71124500D01*
X128517113Y-71062500D01*
X128562500Y-71017113D01*
X128624500Y-71000500D01*
X140375500Y-71000500D01*
X140437500Y-71017113D01*
G37*
%TD.AperFunction*%
%TD*%
%TA.AperFunction,Conductor*%
%TO.N,Board_4-GND*%
G36*
X182437500Y-20017113D02*
G01*
X182482887Y-20062500D01*
X182499500Y-20124500D01*
X182499500Y-34875500D01*
X182482887Y-34937500D01*
X182437500Y-34982887D01*
X182375500Y-34999500D01*
X173681899Y-34999500D01*
X173617748Y-34981617D01*
X173572102Y-34933124D01*
X173558125Y-34868011D01*
X173575142Y-34818700D01*
X173574881Y-34818601D01*
X173578171Y-34809925D01*
X173579851Y-34805058D01*
X173579932Y-34804940D01*
X173580220Y-34804523D01*
X173636237Y-34656818D01*
X173655278Y-34500000D01*
X173649102Y-34449143D01*
X173654980Y-34393751D01*
X173684515Y-34346520D01*
X174485119Y-33545917D01*
X174525348Y-33519037D01*
X174572801Y-33509598D01*
X176114192Y-33509598D01*
X176171819Y-33523802D01*
X176216243Y-33563160D01*
X176220015Y-33568626D01*
X176220016Y-33568627D01*
X176220017Y-33568628D01*
X176338260Y-33673381D01*
X176478135Y-33746794D01*
X176631515Y-33784598D01*
X176789485Y-33784598D01*
X176942865Y-33746794D01*
X177082740Y-33673381D01*
X177200983Y-33568628D01*
X177290720Y-33438621D01*
X177346737Y-33290916D01*
X177365778Y-33134098D01*
X177346737Y-32977280D01*
X177290720Y-32829575D01*
X177231924Y-32744394D01*
X177200984Y-32699569D01*
X177200983Y-32699568D01*
X177082740Y-32594815D01*
X177069494Y-32587862D01*
X176942864Y-32521401D01*
X176789485Y-32483598D01*
X176631515Y-32483598D01*
X176478135Y-32521401D01*
X176338261Y-32594814D01*
X176220015Y-32699569D01*
X176216243Y-32705036D01*
X176171819Y-32744394D01*
X176114192Y-32758598D01*
X174417707Y-32758598D01*
X174392261Y-32755959D01*
X174381635Y-32753731D01*
X174381634Y-32753731D01*
X174363760Y-32755959D01*
X174350225Y-32757646D01*
X174334888Y-32758598D01*
X174334786Y-32758598D01*
X174314301Y-32762016D01*
X174309234Y-32762755D01*
X174249469Y-32770205D01*
X174249214Y-32770287D01*
X174196272Y-32798936D01*
X174191722Y-32801278D01*
X174137617Y-32827730D01*
X174137407Y-32827886D01*
X174096621Y-32872191D01*
X174093074Y-32875887D01*
X173155780Y-33813181D01*
X173115552Y-33840061D01*
X173068099Y-33849500D01*
X172921015Y-33849500D01*
X172767635Y-33887303D01*
X172627761Y-33960716D01*
X172509515Y-34065471D01*
X172419780Y-34195476D01*
X172363763Y-34343181D01*
X172344721Y-34500000D01*
X172363763Y-34656818D01*
X172419780Y-34804523D01*
X172420149Y-34805058D01*
X172421828Y-34809925D01*
X172425119Y-34818601D01*
X172424857Y-34818700D01*
X172441875Y-34868011D01*
X172427898Y-34933124D01*
X172382252Y-34981617D01*
X172318101Y-34999500D01*
X170624500Y-34999500D01*
X170562500Y-34982887D01*
X170517113Y-34937500D01*
X170500500Y-34875500D01*
X170500500Y-28650000D01*
X171624785Y-28650000D01*
X171643602Y-28853083D01*
X171699418Y-29049251D01*
X171790324Y-29231818D01*
X171913236Y-29394580D01*
X172063958Y-29531981D01*
X172237361Y-29639347D01*
X172237363Y-29639348D01*
X172427544Y-29713024D01*
X172628024Y-29750500D01*
X172831974Y-29750500D01*
X172831976Y-29750500D01*
X173032456Y-29713024D01*
X173222637Y-29639348D01*
X173396041Y-29531981D01*
X173546764Y-29394579D01*
X173669673Y-29231821D01*
X173669673Y-29231819D01*
X173669675Y-29231818D01*
X173715313Y-29140161D01*
X173760582Y-29049250D01*
X173816397Y-28853083D01*
X173835215Y-28650000D01*
X174164785Y-28650000D01*
X174183602Y-28853083D01*
X174239418Y-29049251D01*
X174330324Y-29231818D01*
X174453236Y-29394580D01*
X174603958Y-29531981D01*
X174777361Y-29639347D01*
X174777363Y-29639348D01*
X174967544Y-29713024D01*
X175168024Y-29750500D01*
X175371974Y-29750500D01*
X175371976Y-29750500D01*
X175572456Y-29713024D01*
X175762637Y-29639348D01*
X175936041Y-29531981D01*
X176086764Y-29394579D01*
X176209673Y-29231821D01*
X176209673Y-29231819D01*
X176209675Y-29231818D01*
X176255313Y-29140161D01*
X176300582Y-29049250D01*
X176343048Y-28900000D01*
X176737472Y-28900000D01*
X176779886Y-29049069D01*
X176870751Y-29231553D01*
X176993607Y-29394241D01*
X177144259Y-29531578D01*
X177317588Y-29638899D01*
X177507679Y-29712539D01*
X177560000Y-29722320D01*
X177560000Y-28900000D01*
X178060000Y-28900000D01*
X178060000Y-29722320D01*
X178112320Y-29712539D01*
X178302411Y-29638899D01*
X178475740Y-29531578D01*
X178483312Y-29524675D01*
X179249500Y-29524675D01*
X179264033Y-29597738D01*
X179264033Y-29597739D01*
X179264034Y-29597740D01*
X179319399Y-29680601D01*
X179402260Y-29735966D01*
X179438793Y-29743233D01*
X179475325Y-29750500D01*
X179475326Y-29750500D01*
X181224674Y-29750500D01*
X181224675Y-29750500D01*
X181249029Y-29745655D01*
X181297740Y-29735966D01*
X181380601Y-29680601D01*
X181435966Y-29597740D01*
X181450500Y-29524674D01*
X181450500Y-27775326D01*
X181449126Y-27768421D01*
X181435966Y-27702261D01*
X181435966Y-27702260D01*
X181380601Y-27619399D01*
X181297740Y-27564034D01*
X181297739Y-27564033D01*
X181297738Y-27564033D01*
X181224675Y-27549500D01*
X181224674Y-27549500D01*
X179475326Y-27549500D01*
X179475325Y-27549500D01*
X179402261Y-27564033D01*
X179319399Y-27619399D01*
X179264033Y-27702261D01*
X179249500Y-27775325D01*
X179249500Y-29524675D01*
X178483312Y-29524675D01*
X178626392Y-29394241D01*
X178749248Y-29231553D01*
X178840113Y-29049069D01*
X178882528Y-28900000D01*
X178060000Y-28900000D01*
X177560000Y-28900000D01*
X176737472Y-28900000D01*
X176343048Y-28900000D01*
X176356397Y-28853083D01*
X176375215Y-28650000D01*
X176356397Y-28446917D01*
X176343048Y-28399999D01*
X176737471Y-28399999D01*
X176737472Y-28400000D01*
X177560000Y-28400000D01*
X177560000Y-27577680D01*
X178060000Y-27577680D01*
X178060000Y-28400000D01*
X178882528Y-28400000D01*
X178882528Y-28399999D01*
X178840113Y-28250930D01*
X178749248Y-28068446D01*
X178626392Y-27905758D01*
X178475740Y-27768421D01*
X178302411Y-27661100D01*
X178112320Y-27587460D01*
X178060000Y-27577680D01*
X177560000Y-27577680D01*
X177507679Y-27587460D01*
X177317588Y-27661100D01*
X177144259Y-27768421D01*
X176993607Y-27905758D01*
X176870751Y-28068446D01*
X176779886Y-28250930D01*
X176737471Y-28399999D01*
X176343048Y-28399999D01*
X176300582Y-28250750D01*
X176300209Y-28250001D01*
X176209675Y-28068181D01*
X176086763Y-27905419D01*
X175936041Y-27768018D01*
X175762638Y-27660652D01*
X175572457Y-27586976D01*
X175449726Y-27564034D01*
X175371976Y-27549500D01*
X175168024Y-27549500D01*
X175090279Y-27564033D01*
X174967542Y-27586976D01*
X174777361Y-27660652D01*
X174603958Y-27768018D01*
X174453236Y-27905419D01*
X174330324Y-28068181D01*
X174239418Y-28250748D01*
X174183602Y-28446916D01*
X174164785Y-28650000D01*
X173835215Y-28650000D01*
X173816397Y-28446917D01*
X173760582Y-28250750D01*
X173760209Y-28250001D01*
X173669675Y-28068181D01*
X173546763Y-27905419D01*
X173396041Y-27768018D01*
X173222638Y-27660652D01*
X173032457Y-27586976D01*
X172909726Y-27564034D01*
X172831976Y-27549500D01*
X172628024Y-27549500D01*
X172550279Y-27564033D01*
X172427542Y-27586976D01*
X172237361Y-27660652D01*
X172063958Y-27768018D01*
X171913236Y-27905419D01*
X171790324Y-28068181D01*
X171699418Y-28250748D01*
X171643602Y-28446916D01*
X171624785Y-28650000D01*
X170500500Y-28650000D01*
X170500500Y-20124500D01*
X170517113Y-20062500D01*
X170562500Y-20017113D01*
X170624500Y-20000500D01*
X182375500Y-20000500D01*
X182437500Y-20017113D01*
G37*
%TD.AperFunction*%
%TD*%
%TA.AperFunction,Conductor*%
%TO.N,Board_2-GND*%
G36*
X154437500Y-20017113D02*
G01*
X154482887Y-20062500D01*
X154499500Y-20124500D01*
X154499500Y-34875500D01*
X154482887Y-34937500D01*
X154437500Y-34982887D01*
X154375500Y-34999500D01*
X145681899Y-34999500D01*
X145617748Y-34981617D01*
X145572102Y-34933124D01*
X145558125Y-34868011D01*
X145575142Y-34818700D01*
X145574881Y-34818601D01*
X145578171Y-34809925D01*
X145579851Y-34805058D01*
X145579932Y-34804940D01*
X145580220Y-34804523D01*
X145636237Y-34656818D01*
X145655278Y-34500000D01*
X145649102Y-34449143D01*
X145654980Y-34393751D01*
X145684515Y-34346520D01*
X146485119Y-33545917D01*
X146525348Y-33519037D01*
X146572801Y-33509598D01*
X148114192Y-33509598D01*
X148171819Y-33523802D01*
X148216243Y-33563160D01*
X148220015Y-33568626D01*
X148220016Y-33568627D01*
X148220017Y-33568628D01*
X148338260Y-33673381D01*
X148478135Y-33746794D01*
X148631515Y-33784598D01*
X148789485Y-33784598D01*
X148942865Y-33746794D01*
X149082740Y-33673381D01*
X149200983Y-33568628D01*
X149290720Y-33438621D01*
X149346737Y-33290916D01*
X149365778Y-33134098D01*
X149346737Y-32977280D01*
X149290720Y-32829575D01*
X149231924Y-32744394D01*
X149200984Y-32699569D01*
X149200983Y-32699568D01*
X149082740Y-32594815D01*
X149069494Y-32587862D01*
X148942864Y-32521401D01*
X148789485Y-32483598D01*
X148631515Y-32483598D01*
X148478135Y-32521401D01*
X148338261Y-32594814D01*
X148220015Y-32699569D01*
X148216243Y-32705036D01*
X148171819Y-32744394D01*
X148114192Y-32758598D01*
X146417707Y-32758598D01*
X146392261Y-32755959D01*
X146381635Y-32753731D01*
X146381634Y-32753731D01*
X146363760Y-32755959D01*
X146350225Y-32757646D01*
X146334888Y-32758598D01*
X146334786Y-32758598D01*
X146314301Y-32762016D01*
X146309234Y-32762755D01*
X146249469Y-32770205D01*
X146249214Y-32770287D01*
X146196272Y-32798936D01*
X146191722Y-32801278D01*
X146137617Y-32827730D01*
X146137407Y-32827886D01*
X146096621Y-32872191D01*
X146093074Y-32875887D01*
X145155780Y-33813181D01*
X145115552Y-33840061D01*
X145068099Y-33849500D01*
X144921015Y-33849500D01*
X144767635Y-33887303D01*
X144627761Y-33960716D01*
X144509515Y-34065471D01*
X144419780Y-34195476D01*
X144363763Y-34343181D01*
X144344721Y-34500000D01*
X144363763Y-34656818D01*
X144419780Y-34804523D01*
X144420149Y-34805058D01*
X144421828Y-34809925D01*
X144425119Y-34818601D01*
X144424857Y-34818700D01*
X144441875Y-34868011D01*
X144427898Y-34933124D01*
X144382252Y-34981617D01*
X144318101Y-34999500D01*
X142624500Y-34999500D01*
X142562500Y-34982887D01*
X142517113Y-34937500D01*
X142500500Y-34875500D01*
X142500500Y-28650000D01*
X143624785Y-28650000D01*
X143643602Y-28853083D01*
X143699418Y-29049251D01*
X143790324Y-29231818D01*
X143913236Y-29394580D01*
X144063958Y-29531981D01*
X144237361Y-29639347D01*
X144237363Y-29639348D01*
X144427544Y-29713024D01*
X144628024Y-29750500D01*
X144831974Y-29750500D01*
X144831976Y-29750500D01*
X145032456Y-29713024D01*
X145222637Y-29639348D01*
X145396041Y-29531981D01*
X145546764Y-29394579D01*
X145669673Y-29231821D01*
X145669673Y-29231819D01*
X145669675Y-29231818D01*
X145715313Y-29140161D01*
X145760582Y-29049250D01*
X145816397Y-28853083D01*
X145835215Y-28650000D01*
X146164785Y-28650000D01*
X146183602Y-28853083D01*
X146239418Y-29049251D01*
X146330324Y-29231818D01*
X146453236Y-29394580D01*
X146603958Y-29531981D01*
X146777361Y-29639347D01*
X146777363Y-29639348D01*
X146967544Y-29713024D01*
X147168024Y-29750500D01*
X147371974Y-29750500D01*
X147371976Y-29750500D01*
X147572456Y-29713024D01*
X147762637Y-29639348D01*
X147936041Y-29531981D01*
X148086764Y-29394579D01*
X148209673Y-29231821D01*
X148209673Y-29231819D01*
X148209675Y-29231818D01*
X148255313Y-29140161D01*
X148300582Y-29049250D01*
X148343048Y-28900000D01*
X148737472Y-28900000D01*
X148779886Y-29049069D01*
X148870751Y-29231553D01*
X148993607Y-29394241D01*
X149144259Y-29531578D01*
X149317588Y-29638899D01*
X149507679Y-29712539D01*
X149560000Y-29722320D01*
X149560000Y-28900000D01*
X150060000Y-28900000D01*
X150060000Y-29722320D01*
X150112320Y-29712539D01*
X150302411Y-29638899D01*
X150475740Y-29531578D01*
X150483312Y-29524675D01*
X151249500Y-29524675D01*
X151264033Y-29597738D01*
X151264033Y-29597739D01*
X151264034Y-29597740D01*
X151319399Y-29680601D01*
X151402260Y-29735966D01*
X151438793Y-29743233D01*
X151475325Y-29750500D01*
X151475326Y-29750500D01*
X153224674Y-29750500D01*
X153224675Y-29750500D01*
X153249029Y-29745655D01*
X153297740Y-29735966D01*
X153380601Y-29680601D01*
X153435966Y-29597740D01*
X153450500Y-29524674D01*
X153450500Y-27775326D01*
X153449126Y-27768421D01*
X153435966Y-27702261D01*
X153435966Y-27702260D01*
X153380601Y-27619399D01*
X153297740Y-27564034D01*
X153297739Y-27564033D01*
X153297738Y-27564033D01*
X153224675Y-27549500D01*
X153224674Y-27549500D01*
X151475326Y-27549500D01*
X151475325Y-27549500D01*
X151402261Y-27564033D01*
X151319399Y-27619399D01*
X151264033Y-27702261D01*
X151249500Y-27775325D01*
X151249500Y-29524675D01*
X150483312Y-29524675D01*
X150626392Y-29394241D01*
X150749248Y-29231553D01*
X150840113Y-29049069D01*
X150882528Y-28900000D01*
X150060000Y-28900000D01*
X149560000Y-28900000D01*
X148737472Y-28900000D01*
X148343048Y-28900000D01*
X148356397Y-28853083D01*
X148375215Y-28650000D01*
X148356397Y-28446917D01*
X148343048Y-28399999D01*
X148737471Y-28399999D01*
X148737472Y-28400000D01*
X149560000Y-28400000D01*
X149560000Y-27577680D01*
X150060000Y-27577680D01*
X150060000Y-28400000D01*
X150882528Y-28400000D01*
X150882528Y-28399999D01*
X150840113Y-28250930D01*
X150749248Y-28068446D01*
X150626392Y-27905758D01*
X150475740Y-27768421D01*
X150302411Y-27661100D01*
X150112320Y-27587460D01*
X150060000Y-27577680D01*
X149560000Y-27577680D01*
X149507679Y-27587460D01*
X149317588Y-27661100D01*
X149144259Y-27768421D01*
X148993607Y-27905758D01*
X148870751Y-28068446D01*
X148779886Y-28250930D01*
X148737471Y-28399999D01*
X148343048Y-28399999D01*
X148300582Y-28250750D01*
X148300209Y-28250001D01*
X148209675Y-28068181D01*
X148086763Y-27905419D01*
X147936041Y-27768018D01*
X147762638Y-27660652D01*
X147572457Y-27586976D01*
X147449726Y-27564034D01*
X147371976Y-27549500D01*
X147168024Y-27549500D01*
X147090279Y-27564033D01*
X146967542Y-27586976D01*
X146777361Y-27660652D01*
X146603958Y-27768018D01*
X146453236Y-27905419D01*
X146330324Y-28068181D01*
X146239418Y-28250748D01*
X146183602Y-28446916D01*
X146164785Y-28650000D01*
X145835215Y-28650000D01*
X145816397Y-28446917D01*
X145760582Y-28250750D01*
X145760209Y-28250001D01*
X145669675Y-28068181D01*
X145546763Y-27905419D01*
X145396041Y-27768018D01*
X145222638Y-27660652D01*
X145032457Y-27586976D01*
X144909726Y-27564034D01*
X144831976Y-27549500D01*
X144628024Y-27549500D01*
X144550279Y-27564033D01*
X144427542Y-27586976D01*
X144237361Y-27660652D01*
X144063958Y-27768018D01*
X143913236Y-27905419D01*
X143790324Y-28068181D01*
X143699418Y-28250748D01*
X143643602Y-28446916D01*
X143624785Y-28650000D01*
X142500500Y-28650000D01*
X142500500Y-20124500D01*
X142517113Y-20062500D01*
X142562500Y-20017113D01*
X142624500Y-20000500D01*
X154375500Y-20000500D01*
X154437500Y-20017113D01*
G37*
%TD.AperFunction*%
%TD*%
%TA.AperFunction,Conductor*%
%TO.N,Board_9-GND*%
G36*
X182437500Y-37017113D02*
G01*
X182482887Y-37062500D01*
X182499500Y-37124500D01*
X182499500Y-51875500D01*
X182482887Y-51937500D01*
X182437500Y-51982887D01*
X182375500Y-51999500D01*
X173681899Y-51999500D01*
X173617748Y-51981617D01*
X173572102Y-51933124D01*
X173558125Y-51868011D01*
X173575142Y-51818700D01*
X173574881Y-51818601D01*
X173578171Y-51809925D01*
X173579851Y-51805058D01*
X173579932Y-51804940D01*
X173580220Y-51804523D01*
X173636237Y-51656818D01*
X173655278Y-51500000D01*
X173649102Y-51449143D01*
X173654980Y-51393751D01*
X173684515Y-51346520D01*
X174485119Y-50545917D01*
X174525348Y-50519037D01*
X174572801Y-50509598D01*
X176114192Y-50509598D01*
X176171819Y-50523802D01*
X176216243Y-50563160D01*
X176220015Y-50568626D01*
X176220016Y-50568627D01*
X176220017Y-50568628D01*
X176338260Y-50673381D01*
X176478135Y-50746794D01*
X176631515Y-50784598D01*
X176789485Y-50784598D01*
X176942865Y-50746794D01*
X177082740Y-50673381D01*
X177200983Y-50568628D01*
X177290720Y-50438621D01*
X177346737Y-50290916D01*
X177365778Y-50134098D01*
X177346737Y-49977280D01*
X177290720Y-49829575D01*
X177231924Y-49744394D01*
X177200984Y-49699569D01*
X177200983Y-49699568D01*
X177082740Y-49594815D01*
X177069494Y-49587862D01*
X176942864Y-49521401D01*
X176789485Y-49483598D01*
X176631515Y-49483598D01*
X176478135Y-49521401D01*
X176338261Y-49594814D01*
X176220015Y-49699569D01*
X176216243Y-49705036D01*
X176171819Y-49744394D01*
X176114192Y-49758598D01*
X174417707Y-49758598D01*
X174392261Y-49755959D01*
X174381635Y-49753731D01*
X174381634Y-49753731D01*
X174363760Y-49755959D01*
X174350225Y-49757646D01*
X174334888Y-49758598D01*
X174334786Y-49758598D01*
X174314301Y-49762016D01*
X174309234Y-49762755D01*
X174249469Y-49770205D01*
X174249214Y-49770287D01*
X174196272Y-49798936D01*
X174191722Y-49801278D01*
X174137617Y-49827730D01*
X174137407Y-49827886D01*
X174096621Y-49872191D01*
X174093074Y-49875887D01*
X173155780Y-50813181D01*
X173115552Y-50840061D01*
X173068099Y-50849500D01*
X172921015Y-50849500D01*
X172767635Y-50887303D01*
X172627761Y-50960716D01*
X172509515Y-51065471D01*
X172419780Y-51195476D01*
X172363763Y-51343181D01*
X172344721Y-51500000D01*
X172363763Y-51656818D01*
X172419780Y-51804523D01*
X172420149Y-51805058D01*
X172421828Y-51809925D01*
X172425119Y-51818601D01*
X172424857Y-51818700D01*
X172441875Y-51868011D01*
X172427898Y-51933124D01*
X172382252Y-51981617D01*
X172318101Y-51999500D01*
X170624500Y-51999500D01*
X170562500Y-51982887D01*
X170517113Y-51937500D01*
X170500500Y-51875500D01*
X170500500Y-45650000D01*
X171624785Y-45650000D01*
X171643602Y-45853083D01*
X171699418Y-46049251D01*
X171790324Y-46231818D01*
X171913236Y-46394580D01*
X172063958Y-46531981D01*
X172237361Y-46639347D01*
X172237363Y-46639348D01*
X172427544Y-46713024D01*
X172628024Y-46750500D01*
X172831974Y-46750500D01*
X172831976Y-46750500D01*
X173032456Y-46713024D01*
X173222637Y-46639348D01*
X173396041Y-46531981D01*
X173546764Y-46394579D01*
X173669673Y-46231821D01*
X173669673Y-46231819D01*
X173669675Y-46231818D01*
X173715313Y-46140161D01*
X173760582Y-46049250D01*
X173816397Y-45853083D01*
X173835215Y-45650000D01*
X174164785Y-45650000D01*
X174183602Y-45853083D01*
X174239418Y-46049251D01*
X174330324Y-46231818D01*
X174453236Y-46394580D01*
X174603958Y-46531981D01*
X174777361Y-46639347D01*
X174777363Y-46639348D01*
X174967544Y-46713024D01*
X175168024Y-46750500D01*
X175371974Y-46750500D01*
X175371976Y-46750500D01*
X175572456Y-46713024D01*
X175762637Y-46639348D01*
X175936041Y-46531981D01*
X176086764Y-46394579D01*
X176209673Y-46231821D01*
X176209673Y-46231819D01*
X176209675Y-46231818D01*
X176255313Y-46140161D01*
X176300582Y-46049250D01*
X176343048Y-45900000D01*
X176737472Y-45900000D01*
X176779886Y-46049069D01*
X176870751Y-46231553D01*
X176993607Y-46394241D01*
X177144259Y-46531578D01*
X177317588Y-46638899D01*
X177507679Y-46712539D01*
X177560000Y-46722320D01*
X177560000Y-45900000D01*
X178060000Y-45900000D01*
X178060000Y-46722320D01*
X178112320Y-46712539D01*
X178302411Y-46638899D01*
X178475740Y-46531578D01*
X178483312Y-46524675D01*
X179249500Y-46524675D01*
X179264033Y-46597738D01*
X179264033Y-46597739D01*
X179264034Y-46597740D01*
X179319399Y-46680601D01*
X179402260Y-46735966D01*
X179438793Y-46743233D01*
X179475325Y-46750500D01*
X179475326Y-46750500D01*
X181224674Y-46750500D01*
X181224675Y-46750500D01*
X181249029Y-46745655D01*
X181297740Y-46735966D01*
X181380601Y-46680601D01*
X181435966Y-46597740D01*
X181450500Y-46524674D01*
X181450500Y-44775326D01*
X181449126Y-44768421D01*
X181435966Y-44702261D01*
X181435966Y-44702260D01*
X181380601Y-44619399D01*
X181297740Y-44564034D01*
X181297739Y-44564033D01*
X181297738Y-44564033D01*
X181224675Y-44549500D01*
X181224674Y-44549500D01*
X179475326Y-44549500D01*
X179475325Y-44549500D01*
X179402261Y-44564033D01*
X179319399Y-44619399D01*
X179264033Y-44702261D01*
X179249500Y-44775325D01*
X179249500Y-46524675D01*
X178483312Y-46524675D01*
X178626392Y-46394241D01*
X178749248Y-46231553D01*
X178840113Y-46049069D01*
X178882528Y-45900000D01*
X178060000Y-45900000D01*
X177560000Y-45900000D01*
X176737472Y-45900000D01*
X176343048Y-45900000D01*
X176356397Y-45853083D01*
X176375215Y-45650000D01*
X176356397Y-45446917D01*
X176343048Y-45399999D01*
X176737471Y-45399999D01*
X176737472Y-45400000D01*
X177560000Y-45400000D01*
X177560000Y-44577680D01*
X178060000Y-44577680D01*
X178060000Y-45400000D01*
X178882528Y-45400000D01*
X178882528Y-45399999D01*
X178840113Y-45250930D01*
X178749248Y-45068446D01*
X178626392Y-44905758D01*
X178475740Y-44768421D01*
X178302411Y-44661100D01*
X178112320Y-44587460D01*
X178060000Y-44577680D01*
X177560000Y-44577680D01*
X177507679Y-44587460D01*
X177317588Y-44661100D01*
X177144259Y-44768421D01*
X176993607Y-44905758D01*
X176870751Y-45068446D01*
X176779886Y-45250930D01*
X176737471Y-45399999D01*
X176343048Y-45399999D01*
X176300582Y-45250750D01*
X176300209Y-45250001D01*
X176209675Y-45068181D01*
X176086763Y-44905419D01*
X175936041Y-44768018D01*
X175762638Y-44660652D01*
X175572457Y-44586976D01*
X175449726Y-44564034D01*
X175371976Y-44549500D01*
X175168024Y-44549500D01*
X175090279Y-44564033D01*
X174967542Y-44586976D01*
X174777361Y-44660652D01*
X174603958Y-44768018D01*
X174453236Y-44905419D01*
X174330324Y-45068181D01*
X174239418Y-45250748D01*
X174183602Y-45446916D01*
X174164785Y-45650000D01*
X173835215Y-45650000D01*
X173816397Y-45446917D01*
X173760582Y-45250750D01*
X173760209Y-45250001D01*
X173669675Y-45068181D01*
X173546763Y-44905419D01*
X173396041Y-44768018D01*
X173222638Y-44660652D01*
X173032457Y-44586976D01*
X172909726Y-44564034D01*
X172831976Y-44549500D01*
X172628024Y-44549500D01*
X172550279Y-44564033D01*
X172427542Y-44586976D01*
X172237361Y-44660652D01*
X172063958Y-44768018D01*
X171913236Y-44905419D01*
X171790324Y-45068181D01*
X171699418Y-45250748D01*
X171643602Y-45446916D01*
X171624785Y-45650000D01*
X170500500Y-45650000D01*
X170500500Y-37124500D01*
X170517113Y-37062500D01*
X170562500Y-37017113D01*
X170624500Y-37000500D01*
X182375500Y-37000500D01*
X182437500Y-37017113D01*
G37*
%TD.AperFunction*%
%TD*%
%TA.AperFunction,Conductor*%
%TO.N,Board_8-GND*%
G36*
X168437500Y-37017113D02*
G01*
X168482887Y-37062500D01*
X168499500Y-37124500D01*
X168499500Y-51875500D01*
X168482887Y-51937500D01*
X168437500Y-51982887D01*
X168375500Y-51999500D01*
X159681899Y-51999500D01*
X159617748Y-51981617D01*
X159572102Y-51933124D01*
X159558125Y-51868011D01*
X159575142Y-51818700D01*
X159574881Y-51818601D01*
X159578171Y-51809925D01*
X159579851Y-51805058D01*
X159579932Y-51804940D01*
X159580220Y-51804523D01*
X159636237Y-51656818D01*
X159655278Y-51500000D01*
X159649102Y-51449143D01*
X159654980Y-51393751D01*
X159684515Y-51346520D01*
X160485119Y-50545917D01*
X160525348Y-50519037D01*
X160572801Y-50509598D01*
X162114192Y-50509598D01*
X162171819Y-50523802D01*
X162216243Y-50563160D01*
X162220015Y-50568626D01*
X162220016Y-50568627D01*
X162220017Y-50568628D01*
X162338260Y-50673381D01*
X162478135Y-50746794D01*
X162631515Y-50784598D01*
X162789485Y-50784598D01*
X162942865Y-50746794D01*
X163082740Y-50673381D01*
X163200983Y-50568628D01*
X163290720Y-50438621D01*
X163346737Y-50290916D01*
X163365778Y-50134098D01*
X163346737Y-49977280D01*
X163290720Y-49829575D01*
X163231924Y-49744394D01*
X163200984Y-49699569D01*
X163200983Y-49699568D01*
X163082740Y-49594815D01*
X163069494Y-49587862D01*
X162942864Y-49521401D01*
X162789485Y-49483598D01*
X162631515Y-49483598D01*
X162478135Y-49521401D01*
X162338261Y-49594814D01*
X162220015Y-49699569D01*
X162216243Y-49705036D01*
X162171819Y-49744394D01*
X162114192Y-49758598D01*
X160417707Y-49758598D01*
X160392261Y-49755959D01*
X160381635Y-49753731D01*
X160381634Y-49753731D01*
X160363760Y-49755959D01*
X160350225Y-49757646D01*
X160334888Y-49758598D01*
X160334786Y-49758598D01*
X160314301Y-49762016D01*
X160309234Y-49762755D01*
X160249469Y-49770205D01*
X160249214Y-49770287D01*
X160196272Y-49798936D01*
X160191722Y-49801278D01*
X160137617Y-49827730D01*
X160137407Y-49827886D01*
X160096621Y-49872191D01*
X160093074Y-49875887D01*
X159155780Y-50813181D01*
X159115552Y-50840061D01*
X159068099Y-50849500D01*
X158921015Y-50849500D01*
X158767635Y-50887303D01*
X158627761Y-50960716D01*
X158509515Y-51065471D01*
X158419780Y-51195476D01*
X158363763Y-51343181D01*
X158344721Y-51500000D01*
X158363763Y-51656818D01*
X158419780Y-51804523D01*
X158420149Y-51805058D01*
X158421828Y-51809925D01*
X158425119Y-51818601D01*
X158424857Y-51818700D01*
X158441875Y-51868011D01*
X158427898Y-51933124D01*
X158382252Y-51981617D01*
X158318101Y-51999500D01*
X156624500Y-51999500D01*
X156562500Y-51982887D01*
X156517113Y-51937500D01*
X156500500Y-51875500D01*
X156500500Y-45650000D01*
X157624785Y-45650000D01*
X157643602Y-45853083D01*
X157699418Y-46049251D01*
X157790324Y-46231818D01*
X157913236Y-46394580D01*
X158063958Y-46531981D01*
X158237361Y-46639347D01*
X158237363Y-46639348D01*
X158427544Y-46713024D01*
X158628024Y-46750500D01*
X158831974Y-46750500D01*
X158831976Y-46750500D01*
X159032456Y-46713024D01*
X159222637Y-46639348D01*
X159396041Y-46531981D01*
X159546764Y-46394579D01*
X159669673Y-46231821D01*
X159669673Y-46231819D01*
X159669675Y-46231818D01*
X159715313Y-46140161D01*
X159760582Y-46049250D01*
X159816397Y-45853083D01*
X159835215Y-45650000D01*
X160164785Y-45650000D01*
X160183602Y-45853083D01*
X160239418Y-46049251D01*
X160330324Y-46231818D01*
X160453236Y-46394580D01*
X160603958Y-46531981D01*
X160777361Y-46639347D01*
X160777363Y-46639348D01*
X160967544Y-46713024D01*
X161168024Y-46750500D01*
X161371974Y-46750500D01*
X161371976Y-46750500D01*
X161572456Y-46713024D01*
X161762637Y-46639348D01*
X161936041Y-46531981D01*
X162086764Y-46394579D01*
X162209673Y-46231821D01*
X162209673Y-46231819D01*
X162209675Y-46231818D01*
X162255313Y-46140161D01*
X162300582Y-46049250D01*
X162343048Y-45900000D01*
X162737472Y-45900000D01*
X162779886Y-46049069D01*
X162870751Y-46231553D01*
X162993607Y-46394241D01*
X163144259Y-46531578D01*
X163317588Y-46638899D01*
X163507679Y-46712539D01*
X163560000Y-46722320D01*
X163560000Y-45900000D01*
X164060000Y-45900000D01*
X164060000Y-46722320D01*
X164112320Y-46712539D01*
X164302411Y-46638899D01*
X164475740Y-46531578D01*
X164483312Y-46524675D01*
X165249500Y-46524675D01*
X165264033Y-46597738D01*
X165264033Y-46597739D01*
X165264034Y-46597740D01*
X165319399Y-46680601D01*
X165402260Y-46735966D01*
X165438793Y-46743233D01*
X165475325Y-46750500D01*
X165475326Y-46750500D01*
X167224674Y-46750500D01*
X167224675Y-46750500D01*
X167249029Y-46745655D01*
X167297740Y-46735966D01*
X167380601Y-46680601D01*
X167435966Y-46597740D01*
X167450500Y-46524674D01*
X167450500Y-44775326D01*
X167449126Y-44768421D01*
X167435966Y-44702261D01*
X167435966Y-44702260D01*
X167380601Y-44619399D01*
X167297740Y-44564034D01*
X167297739Y-44564033D01*
X167297738Y-44564033D01*
X167224675Y-44549500D01*
X167224674Y-44549500D01*
X165475326Y-44549500D01*
X165475325Y-44549500D01*
X165402261Y-44564033D01*
X165319399Y-44619399D01*
X165264033Y-44702261D01*
X165249500Y-44775325D01*
X165249500Y-46524675D01*
X164483312Y-46524675D01*
X164626392Y-46394241D01*
X164749248Y-46231553D01*
X164840113Y-46049069D01*
X164882528Y-45900000D01*
X164060000Y-45900000D01*
X163560000Y-45900000D01*
X162737472Y-45900000D01*
X162343048Y-45900000D01*
X162356397Y-45853083D01*
X162375215Y-45650000D01*
X162356397Y-45446917D01*
X162343048Y-45399999D01*
X162737471Y-45399999D01*
X162737472Y-45400000D01*
X163560000Y-45400000D01*
X163560000Y-44577680D01*
X164060000Y-44577680D01*
X164060000Y-45400000D01*
X164882528Y-45400000D01*
X164882528Y-45399999D01*
X164840113Y-45250930D01*
X164749248Y-45068446D01*
X164626392Y-44905758D01*
X164475740Y-44768421D01*
X164302411Y-44661100D01*
X164112320Y-44587460D01*
X164060000Y-44577680D01*
X163560000Y-44577680D01*
X163507679Y-44587460D01*
X163317588Y-44661100D01*
X163144259Y-44768421D01*
X162993607Y-44905758D01*
X162870751Y-45068446D01*
X162779886Y-45250930D01*
X162737471Y-45399999D01*
X162343048Y-45399999D01*
X162300582Y-45250750D01*
X162300209Y-45250001D01*
X162209675Y-45068181D01*
X162086763Y-44905419D01*
X161936041Y-44768018D01*
X161762638Y-44660652D01*
X161572457Y-44586976D01*
X161449726Y-44564034D01*
X161371976Y-44549500D01*
X161168024Y-44549500D01*
X161090279Y-44564033D01*
X160967542Y-44586976D01*
X160777361Y-44660652D01*
X160603958Y-44768018D01*
X160453236Y-44905419D01*
X160330324Y-45068181D01*
X160239418Y-45250748D01*
X160183602Y-45446916D01*
X160164785Y-45650000D01*
X159835215Y-45650000D01*
X159816397Y-45446917D01*
X159760582Y-45250750D01*
X159760209Y-45250001D01*
X159669675Y-45068181D01*
X159546763Y-44905419D01*
X159396041Y-44768018D01*
X159222638Y-44660652D01*
X159032457Y-44586976D01*
X158909726Y-44564034D01*
X158831976Y-44549500D01*
X158628024Y-44549500D01*
X158550279Y-44564033D01*
X158427542Y-44586976D01*
X158237361Y-44660652D01*
X158063958Y-44768018D01*
X157913236Y-44905419D01*
X157790324Y-45068181D01*
X157699418Y-45250748D01*
X157643602Y-45446916D01*
X157624785Y-45650000D01*
X156500500Y-45650000D01*
X156500500Y-37124500D01*
X156517113Y-37062500D01*
X156562500Y-37017113D01*
X156624500Y-37000500D01*
X168375500Y-37000500D01*
X168437500Y-37017113D01*
G37*
%TD.AperFunction*%
%TD*%
%TA.AperFunction,Conductor*%
%TO.N,Board_14-GND*%
G36*
X182437500Y-54017113D02*
G01*
X182482887Y-54062500D01*
X182499500Y-54124500D01*
X182499500Y-68875500D01*
X182482887Y-68937500D01*
X182437500Y-68982887D01*
X182375500Y-68999500D01*
X173681899Y-68999500D01*
X173617748Y-68981617D01*
X173572102Y-68933124D01*
X173558125Y-68868011D01*
X173575142Y-68818700D01*
X173574881Y-68818601D01*
X173578171Y-68809925D01*
X173579851Y-68805058D01*
X173579932Y-68804940D01*
X173580220Y-68804523D01*
X173636237Y-68656818D01*
X173655278Y-68500000D01*
X173649102Y-68449143D01*
X173654980Y-68393751D01*
X173684515Y-68346520D01*
X174485119Y-67545917D01*
X174525348Y-67519037D01*
X174572801Y-67509598D01*
X176114192Y-67509598D01*
X176171819Y-67523802D01*
X176216243Y-67563160D01*
X176220015Y-67568626D01*
X176220016Y-67568627D01*
X176220017Y-67568628D01*
X176338260Y-67673381D01*
X176478135Y-67746794D01*
X176631515Y-67784598D01*
X176789485Y-67784598D01*
X176942865Y-67746794D01*
X177082740Y-67673381D01*
X177200983Y-67568628D01*
X177290720Y-67438621D01*
X177346737Y-67290916D01*
X177365778Y-67134098D01*
X177346737Y-66977280D01*
X177290720Y-66829575D01*
X177231924Y-66744394D01*
X177200984Y-66699569D01*
X177200983Y-66699568D01*
X177082740Y-66594815D01*
X177069494Y-66587862D01*
X176942864Y-66521401D01*
X176789485Y-66483598D01*
X176631515Y-66483598D01*
X176478135Y-66521401D01*
X176338261Y-66594814D01*
X176220015Y-66699569D01*
X176216243Y-66705036D01*
X176171819Y-66744394D01*
X176114192Y-66758598D01*
X174417707Y-66758598D01*
X174392261Y-66755959D01*
X174381635Y-66753731D01*
X174381634Y-66753731D01*
X174363760Y-66755959D01*
X174350225Y-66757646D01*
X174334888Y-66758598D01*
X174334786Y-66758598D01*
X174314301Y-66762016D01*
X174309234Y-66762755D01*
X174249469Y-66770205D01*
X174249214Y-66770287D01*
X174196272Y-66798936D01*
X174191722Y-66801278D01*
X174137617Y-66827730D01*
X174137407Y-66827886D01*
X174096621Y-66872191D01*
X174093074Y-66875887D01*
X173155780Y-67813181D01*
X173115552Y-67840061D01*
X173068099Y-67849500D01*
X172921015Y-67849500D01*
X172767635Y-67887303D01*
X172627761Y-67960716D01*
X172509515Y-68065471D01*
X172419780Y-68195476D01*
X172363763Y-68343181D01*
X172344721Y-68500000D01*
X172363763Y-68656818D01*
X172419780Y-68804523D01*
X172420149Y-68805058D01*
X172421828Y-68809925D01*
X172425119Y-68818601D01*
X172424857Y-68818700D01*
X172441875Y-68868011D01*
X172427898Y-68933124D01*
X172382252Y-68981617D01*
X172318101Y-68999500D01*
X170624500Y-68999500D01*
X170562500Y-68982887D01*
X170517113Y-68937500D01*
X170500500Y-68875500D01*
X170500500Y-62650000D01*
X171624785Y-62650000D01*
X171643602Y-62853083D01*
X171699418Y-63049251D01*
X171790324Y-63231818D01*
X171913236Y-63394580D01*
X172063958Y-63531981D01*
X172237361Y-63639347D01*
X172237363Y-63639348D01*
X172427544Y-63713024D01*
X172628024Y-63750500D01*
X172831974Y-63750500D01*
X172831976Y-63750500D01*
X173032456Y-63713024D01*
X173222637Y-63639348D01*
X173396041Y-63531981D01*
X173546764Y-63394579D01*
X173669673Y-63231821D01*
X173669673Y-63231819D01*
X173669675Y-63231818D01*
X173715313Y-63140161D01*
X173760582Y-63049250D01*
X173816397Y-62853083D01*
X173835215Y-62650000D01*
X174164785Y-62650000D01*
X174183602Y-62853083D01*
X174239418Y-63049251D01*
X174330324Y-63231818D01*
X174453236Y-63394580D01*
X174603958Y-63531981D01*
X174777361Y-63639347D01*
X174777363Y-63639348D01*
X174967544Y-63713024D01*
X175168024Y-63750500D01*
X175371974Y-63750500D01*
X175371976Y-63750500D01*
X175572456Y-63713024D01*
X175762637Y-63639348D01*
X175936041Y-63531981D01*
X176086764Y-63394579D01*
X176209673Y-63231821D01*
X176209673Y-63231819D01*
X176209675Y-63231818D01*
X176255313Y-63140161D01*
X176300582Y-63049250D01*
X176343048Y-62900000D01*
X176737472Y-62900000D01*
X176779886Y-63049069D01*
X176870751Y-63231553D01*
X176993607Y-63394241D01*
X177144259Y-63531578D01*
X177317588Y-63638899D01*
X177507679Y-63712539D01*
X177560000Y-63722320D01*
X177560000Y-62900000D01*
X178060000Y-62900000D01*
X178060000Y-63722320D01*
X178112320Y-63712539D01*
X178302411Y-63638899D01*
X178475740Y-63531578D01*
X178483312Y-63524675D01*
X179249500Y-63524675D01*
X179264033Y-63597738D01*
X179264033Y-63597739D01*
X179264034Y-63597740D01*
X179319399Y-63680601D01*
X179402260Y-63735966D01*
X179438793Y-63743233D01*
X179475325Y-63750500D01*
X179475326Y-63750500D01*
X181224674Y-63750500D01*
X181224675Y-63750500D01*
X181249029Y-63745655D01*
X181297740Y-63735966D01*
X181380601Y-63680601D01*
X181435966Y-63597740D01*
X181450500Y-63524674D01*
X181450500Y-61775326D01*
X181449126Y-61768421D01*
X181435966Y-61702261D01*
X181435966Y-61702260D01*
X181380601Y-61619399D01*
X181297740Y-61564034D01*
X181297739Y-61564033D01*
X181297738Y-61564033D01*
X181224675Y-61549500D01*
X181224674Y-61549500D01*
X179475326Y-61549500D01*
X179475325Y-61549500D01*
X179402261Y-61564033D01*
X179319399Y-61619399D01*
X179264033Y-61702261D01*
X179249500Y-61775325D01*
X179249500Y-63524675D01*
X178483312Y-63524675D01*
X178626392Y-63394241D01*
X178749248Y-63231553D01*
X178840113Y-63049069D01*
X178882528Y-62900000D01*
X178060000Y-62900000D01*
X177560000Y-62900000D01*
X176737472Y-62900000D01*
X176343048Y-62900000D01*
X176356397Y-62853083D01*
X176375215Y-62650000D01*
X176356397Y-62446917D01*
X176343048Y-62399999D01*
X176737471Y-62399999D01*
X176737472Y-62400000D01*
X177560000Y-62400000D01*
X177560000Y-61577680D01*
X178060000Y-61577680D01*
X178060000Y-62400000D01*
X178882528Y-62400000D01*
X178882528Y-62399999D01*
X178840113Y-62250930D01*
X178749248Y-62068446D01*
X178626392Y-61905758D01*
X178475740Y-61768421D01*
X178302411Y-61661100D01*
X178112320Y-61587460D01*
X178060000Y-61577680D01*
X177560000Y-61577680D01*
X177507679Y-61587460D01*
X177317588Y-61661100D01*
X177144259Y-61768421D01*
X176993607Y-61905758D01*
X176870751Y-62068446D01*
X176779886Y-62250930D01*
X176737471Y-62399999D01*
X176343048Y-62399999D01*
X176300582Y-62250750D01*
X176300209Y-62250001D01*
X176209675Y-62068181D01*
X176086763Y-61905419D01*
X175936041Y-61768018D01*
X175762638Y-61660652D01*
X175572457Y-61586976D01*
X175449726Y-61564034D01*
X175371976Y-61549500D01*
X175168024Y-61549500D01*
X175090279Y-61564033D01*
X174967542Y-61586976D01*
X174777361Y-61660652D01*
X174603958Y-61768018D01*
X174453236Y-61905419D01*
X174330324Y-62068181D01*
X174239418Y-62250748D01*
X174183602Y-62446916D01*
X174164785Y-62650000D01*
X173835215Y-62650000D01*
X173816397Y-62446917D01*
X173760582Y-62250750D01*
X173760209Y-62250001D01*
X173669675Y-62068181D01*
X173546763Y-61905419D01*
X173396041Y-61768018D01*
X173222638Y-61660652D01*
X173032457Y-61586976D01*
X172909726Y-61564034D01*
X172831976Y-61549500D01*
X172628024Y-61549500D01*
X172550279Y-61564033D01*
X172427542Y-61586976D01*
X172237361Y-61660652D01*
X172063958Y-61768018D01*
X171913236Y-61905419D01*
X171790324Y-62068181D01*
X171699418Y-62250748D01*
X171643602Y-62446916D01*
X171624785Y-62650000D01*
X170500500Y-62650000D01*
X170500500Y-54124500D01*
X170517113Y-54062500D01*
X170562500Y-54017113D01*
X170624500Y-54000500D01*
X182375500Y-54000500D01*
X182437500Y-54017113D01*
G37*
%TD.AperFunction*%
%TD*%
%TA.AperFunction,Conductor*%
%TO.N,Board_18-GND*%
G36*
X168437500Y-71017113D02*
G01*
X168482887Y-71062500D01*
X168499500Y-71124500D01*
X168499500Y-85875500D01*
X168482887Y-85937500D01*
X168437500Y-85982887D01*
X168375500Y-85999500D01*
X159681899Y-85999500D01*
X159617748Y-85981617D01*
X159572102Y-85933124D01*
X159558125Y-85868011D01*
X159575142Y-85818700D01*
X159574881Y-85818601D01*
X159578171Y-85809925D01*
X159579851Y-85805058D01*
X159579932Y-85804940D01*
X159580220Y-85804523D01*
X159636237Y-85656818D01*
X159655278Y-85500000D01*
X159649102Y-85449143D01*
X159654980Y-85393751D01*
X159684515Y-85346520D01*
X160485119Y-84545917D01*
X160525348Y-84519037D01*
X160572801Y-84509598D01*
X162114192Y-84509598D01*
X162171819Y-84523802D01*
X162216243Y-84563160D01*
X162220015Y-84568626D01*
X162220016Y-84568627D01*
X162220017Y-84568628D01*
X162338260Y-84673381D01*
X162478135Y-84746794D01*
X162631515Y-84784598D01*
X162789485Y-84784598D01*
X162942865Y-84746794D01*
X163082740Y-84673381D01*
X163200983Y-84568628D01*
X163290720Y-84438621D01*
X163346737Y-84290916D01*
X163365778Y-84134098D01*
X163346737Y-83977280D01*
X163290720Y-83829575D01*
X163231924Y-83744394D01*
X163200984Y-83699569D01*
X163200983Y-83699568D01*
X163082740Y-83594815D01*
X163069494Y-83587862D01*
X162942864Y-83521401D01*
X162789485Y-83483598D01*
X162631515Y-83483598D01*
X162478135Y-83521401D01*
X162338261Y-83594814D01*
X162220015Y-83699569D01*
X162216243Y-83705036D01*
X162171819Y-83744394D01*
X162114192Y-83758598D01*
X160417707Y-83758598D01*
X160392261Y-83755959D01*
X160381635Y-83753731D01*
X160381634Y-83753731D01*
X160363760Y-83755959D01*
X160350225Y-83757646D01*
X160334888Y-83758598D01*
X160334786Y-83758598D01*
X160314301Y-83762016D01*
X160309234Y-83762755D01*
X160249469Y-83770205D01*
X160249214Y-83770287D01*
X160196272Y-83798936D01*
X160191722Y-83801278D01*
X160137617Y-83827730D01*
X160137407Y-83827886D01*
X160096621Y-83872191D01*
X160093074Y-83875887D01*
X159155780Y-84813181D01*
X159115552Y-84840061D01*
X159068099Y-84849500D01*
X158921015Y-84849500D01*
X158767635Y-84887303D01*
X158627761Y-84960716D01*
X158509515Y-85065471D01*
X158419780Y-85195476D01*
X158363763Y-85343181D01*
X158344721Y-85500000D01*
X158363763Y-85656818D01*
X158419780Y-85804523D01*
X158420149Y-85805058D01*
X158421828Y-85809925D01*
X158425119Y-85818601D01*
X158424857Y-85818700D01*
X158441875Y-85868011D01*
X158427898Y-85933124D01*
X158382252Y-85981617D01*
X158318101Y-85999500D01*
X156624500Y-85999500D01*
X156562500Y-85982887D01*
X156517113Y-85937500D01*
X156500500Y-85875500D01*
X156500500Y-79650000D01*
X157624785Y-79650000D01*
X157643602Y-79853083D01*
X157699418Y-80049251D01*
X157790324Y-80231818D01*
X157913236Y-80394580D01*
X158063958Y-80531981D01*
X158237361Y-80639347D01*
X158237363Y-80639348D01*
X158427544Y-80713024D01*
X158628024Y-80750500D01*
X158831974Y-80750500D01*
X158831976Y-80750500D01*
X159032456Y-80713024D01*
X159222637Y-80639348D01*
X159396041Y-80531981D01*
X159546764Y-80394579D01*
X159669673Y-80231821D01*
X159669673Y-80231819D01*
X159669675Y-80231818D01*
X159715313Y-80140161D01*
X159760582Y-80049250D01*
X159816397Y-79853083D01*
X159835215Y-79650000D01*
X160164785Y-79650000D01*
X160183602Y-79853083D01*
X160239418Y-80049251D01*
X160330324Y-80231818D01*
X160453236Y-80394580D01*
X160603958Y-80531981D01*
X160777361Y-80639347D01*
X160777363Y-80639348D01*
X160967544Y-80713024D01*
X161168024Y-80750500D01*
X161371974Y-80750500D01*
X161371976Y-80750500D01*
X161572456Y-80713024D01*
X161762637Y-80639348D01*
X161936041Y-80531981D01*
X162086764Y-80394579D01*
X162209673Y-80231821D01*
X162209673Y-80231819D01*
X162209675Y-80231818D01*
X162255313Y-80140161D01*
X162300582Y-80049250D01*
X162343048Y-79900000D01*
X162737472Y-79900000D01*
X162779886Y-80049069D01*
X162870751Y-80231553D01*
X162993607Y-80394241D01*
X163144259Y-80531578D01*
X163317588Y-80638899D01*
X163507679Y-80712539D01*
X163560000Y-80722320D01*
X163560000Y-79900000D01*
X164060000Y-79900000D01*
X164060000Y-80722320D01*
X164112320Y-80712539D01*
X164302411Y-80638899D01*
X164475740Y-80531578D01*
X164483312Y-80524675D01*
X165249500Y-80524675D01*
X165264033Y-80597738D01*
X165264033Y-80597739D01*
X165264034Y-80597740D01*
X165319399Y-80680601D01*
X165402260Y-80735966D01*
X165438793Y-80743233D01*
X165475325Y-80750500D01*
X165475326Y-80750500D01*
X167224674Y-80750500D01*
X167224675Y-80750500D01*
X167249029Y-80745655D01*
X167297740Y-80735966D01*
X167380601Y-80680601D01*
X167435966Y-80597740D01*
X167450500Y-80524674D01*
X167450500Y-78775326D01*
X167449126Y-78768421D01*
X167435966Y-78702261D01*
X167435966Y-78702260D01*
X167380601Y-78619399D01*
X167297740Y-78564034D01*
X167297739Y-78564033D01*
X167297738Y-78564033D01*
X167224675Y-78549500D01*
X167224674Y-78549500D01*
X165475326Y-78549500D01*
X165475325Y-78549500D01*
X165402261Y-78564033D01*
X165319399Y-78619399D01*
X165264033Y-78702261D01*
X165249500Y-78775325D01*
X165249500Y-80524675D01*
X164483312Y-80524675D01*
X164626392Y-80394241D01*
X164749248Y-80231553D01*
X164840113Y-80049069D01*
X164882528Y-79900000D01*
X164060000Y-79900000D01*
X163560000Y-79900000D01*
X162737472Y-79900000D01*
X162343048Y-79900000D01*
X162356397Y-79853083D01*
X162375215Y-79650000D01*
X162356397Y-79446917D01*
X162343048Y-79399999D01*
X162737471Y-79399999D01*
X162737472Y-79400000D01*
X163560000Y-79400000D01*
X163560000Y-78577680D01*
X164060000Y-78577680D01*
X164060000Y-79400000D01*
X164882528Y-79400000D01*
X164882528Y-79399999D01*
X164840113Y-79250930D01*
X164749248Y-79068446D01*
X164626392Y-78905758D01*
X164475740Y-78768421D01*
X164302411Y-78661100D01*
X164112320Y-78587460D01*
X164060000Y-78577680D01*
X163560000Y-78577680D01*
X163507679Y-78587460D01*
X163317588Y-78661100D01*
X163144259Y-78768421D01*
X162993607Y-78905758D01*
X162870751Y-79068446D01*
X162779886Y-79250930D01*
X162737471Y-79399999D01*
X162343048Y-79399999D01*
X162300582Y-79250750D01*
X162300209Y-79250001D01*
X162209675Y-79068181D01*
X162086763Y-78905419D01*
X161936041Y-78768018D01*
X161762638Y-78660652D01*
X161572457Y-78586976D01*
X161449726Y-78564034D01*
X161371976Y-78549500D01*
X161168024Y-78549500D01*
X161090279Y-78564033D01*
X160967542Y-78586976D01*
X160777361Y-78660652D01*
X160603958Y-78768018D01*
X160453236Y-78905419D01*
X160330324Y-79068181D01*
X160239418Y-79250748D01*
X160183602Y-79446916D01*
X160164785Y-79650000D01*
X159835215Y-79650000D01*
X159816397Y-79446917D01*
X159760582Y-79250750D01*
X159760209Y-79250001D01*
X159669675Y-79068181D01*
X159546763Y-78905419D01*
X159396041Y-78768018D01*
X159222638Y-78660652D01*
X159032457Y-78586976D01*
X158909726Y-78564034D01*
X158831976Y-78549500D01*
X158628024Y-78549500D01*
X158550279Y-78564033D01*
X158427542Y-78586976D01*
X158237361Y-78660652D01*
X158063958Y-78768018D01*
X157913236Y-78905419D01*
X157790324Y-79068181D01*
X157699418Y-79250748D01*
X157643602Y-79446916D01*
X157624785Y-79650000D01*
X156500500Y-79650000D01*
X156500500Y-71124500D01*
X156517113Y-71062500D01*
X156562500Y-71017113D01*
X156624500Y-71000500D01*
X168375500Y-71000500D01*
X168437500Y-71017113D01*
G37*
%TD.AperFunction*%
%TD*%
%TA.AperFunction,Conductor*%
%TO.N,Board_23-GND*%
G36*
X168437500Y-88017113D02*
G01*
X168482887Y-88062500D01*
X168499500Y-88124500D01*
X168499500Y-102875500D01*
X168482887Y-102937500D01*
X168437500Y-102982887D01*
X168375500Y-102999500D01*
X159681899Y-102999500D01*
X159617748Y-102981617D01*
X159572102Y-102933124D01*
X159558125Y-102868011D01*
X159575142Y-102818700D01*
X159574881Y-102818601D01*
X159578171Y-102809925D01*
X159579851Y-102805058D01*
X159579932Y-102804940D01*
X159580220Y-102804523D01*
X159636237Y-102656818D01*
X159655278Y-102500000D01*
X159649102Y-102449143D01*
X159654980Y-102393751D01*
X159684515Y-102346520D01*
X160485119Y-101545917D01*
X160525348Y-101519037D01*
X160572801Y-101509598D01*
X162114192Y-101509598D01*
X162171819Y-101523802D01*
X162216243Y-101563160D01*
X162220015Y-101568626D01*
X162220016Y-101568627D01*
X162220017Y-101568628D01*
X162338260Y-101673381D01*
X162478135Y-101746794D01*
X162631515Y-101784598D01*
X162789485Y-101784598D01*
X162942865Y-101746794D01*
X163082740Y-101673381D01*
X163200983Y-101568628D01*
X163290720Y-101438621D01*
X163346737Y-101290916D01*
X163365778Y-101134098D01*
X163346737Y-100977280D01*
X163290720Y-100829575D01*
X163231924Y-100744394D01*
X163200984Y-100699569D01*
X163200983Y-100699568D01*
X163082740Y-100594815D01*
X163069494Y-100587862D01*
X162942864Y-100521401D01*
X162789485Y-100483598D01*
X162631515Y-100483598D01*
X162478135Y-100521401D01*
X162338261Y-100594814D01*
X162220015Y-100699569D01*
X162216243Y-100705036D01*
X162171819Y-100744394D01*
X162114192Y-100758598D01*
X160417707Y-100758598D01*
X160392261Y-100755959D01*
X160381635Y-100753731D01*
X160381634Y-100753731D01*
X160363760Y-100755959D01*
X160350225Y-100757646D01*
X160334888Y-100758598D01*
X160334786Y-100758598D01*
X160314301Y-100762016D01*
X160309234Y-100762755D01*
X160249469Y-100770205D01*
X160249214Y-100770287D01*
X160196272Y-100798936D01*
X160191722Y-100801278D01*
X160137617Y-100827730D01*
X160137407Y-100827886D01*
X160096621Y-100872191D01*
X160093074Y-100875887D01*
X159155780Y-101813181D01*
X159115552Y-101840061D01*
X159068099Y-101849500D01*
X158921015Y-101849500D01*
X158767635Y-101887303D01*
X158627761Y-101960716D01*
X158509515Y-102065471D01*
X158419780Y-102195476D01*
X158363763Y-102343181D01*
X158344721Y-102500000D01*
X158363763Y-102656818D01*
X158419780Y-102804523D01*
X158420149Y-102805058D01*
X158421828Y-102809925D01*
X158425119Y-102818601D01*
X158424857Y-102818700D01*
X158441875Y-102868011D01*
X158427898Y-102933124D01*
X158382252Y-102981617D01*
X158318101Y-102999500D01*
X156624500Y-102999500D01*
X156562500Y-102982887D01*
X156517113Y-102937500D01*
X156500500Y-102875500D01*
X156500500Y-96650000D01*
X157624785Y-96650000D01*
X157643602Y-96853083D01*
X157699418Y-97049251D01*
X157790324Y-97231818D01*
X157913236Y-97394580D01*
X158063958Y-97531981D01*
X158237361Y-97639347D01*
X158237363Y-97639348D01*
X158427544Y-97713024D01*
X158628024Y-97750500D01*
X158831974Y-97750500D01*
X158831976Y-97750500D01*
X159032456Y-97713024D01*
X159222637Y-97639348D01*
X159396041Y-97531981D01*
X159546764Y-97394579D01*
X159669673Y-97231821D01*
X159669673Y-97231819D01*
X159669675Y-97231818D01*
X159715313Y-97140161D01*
X159760582Y-97049250D01*
X159816397Y-96853083D01*
X159835215Y-96650000D01*
X160164785Y-96650000D01*
X160183602Y-96853083D01*
X160239418Y-97049251D01*
X160330324Y-97231818D01*
X160453236Y-97394580D01*
X160603958Y-97531981D01*
X160777361Y-97639347D01*
X160777363Y-97639348D01*
X160967544Y-97713024D01*
X161168024Y-97750500D01*
X161371974Y-97750500D01*
X161371976Y-97750500D01*
X161572456Y-97713024D01*
X161762637Y-97639348D01*
X161936041Y-97531981D01*
X162086764Y-97394579D01*
X162209673Y-97231821D01*
X162209673Y-97231819D01*
X162209675Y-97231818D01*
X162255313Y-97140161D01*
X162300582Y-97049250D01*
X162343048Y-96900000D01*
X162737472Y-96900000D01*
X162779886Y-97049069D01*
X162870751Y-97231553D01*
X162993607Y-97394241D01*
X163144259Y-97531578D01*
X163317588Y-97638899D01*
X163507679Y-97712539D01*
X163560000Y-97722320D01*
X163560000Y-96900000D01*
X164060000Y-96900000D01*
X164060000Y-97722320D01*
X164112320Y-97712539D01*
X164302411Y-97638899D01*
X164475740Y-97531578D01*
X164483312Y-97524675D01*
X165249500Y-97524675D01*
X165264033Y-97597738D01*
X165264033Y-97597739D01*
X165264034Y-97597740D01*
X165319399Y-97680601D01*
X165402260Y-97735966D01*
X165438793Y-97743233D01*
X165475325Y-97750500D01*
X165475326Y-97750500D01*
X167224674Y-97750500D01*
X167224675Y-97750500D01*
X167249029Y-97745655D01*
X167297740Y-97735966D01*
X167380601Y-97680601D01*
X167435966Y-97597740D01*
X167450500Y-97524674D01*
X167450500Y-95775326D01*
X167449126Y-95768421D01*
X167435966Y-95702261D01*
X167435966Y-95702260D01*
X167380601Y-95619399D01*
X167297740Y-95564034D01*
X167297739Y-95564033D01*
X167297738Y-95564033D01*
X167224675Y-95549500D01*
X167224674Y-95549500D01*
X165475326Y-95549500D01*
X165475325Y-95549500D01*
X165402261Y-95564033D01*
X165319399Y-95619399D01*
X165264033Y-95702261D01*
X165249500Y-95775325D01*
X165249500Y-97524675D01*
X164483312Y-97524675D01*
X164626392Y-97394241D01*
X164749248Y-97231553D01*
X164840113Y-97049069D01*
X164882528Y-96900000D01*
X164060000Y-96900000D01*
X163560000Y-96900000D01*
X162737472Y-96900000D01*
X162343048Y-96900000D01*
X162356397Y-96853083D01*
X162375215Y-96650000D01*
X162356397Y-96446917D01*
X162343048Y-96399999D01*
X162737471Y-96399999D01*
X162737472Y-96400000D01*
X163560000Y-96400000D01*
X163560000Y-95577680D01*
X164060000Y-95577680D01*
X164060000Y-96400000D01*
X164882528Y-96400000D01*
X164882528Y-96399999D01*
X164840113Y-96250930D01*
X164749248Y-96068446D01*
X164626392Y-95905758D01*
X164475740Y-95768421D01*
X164302411Y-95661100D01*
X164112320Y-95587460D01*
X164060000Y-95577680D01*
X163560000Y-95577680D01*
X163507679Y-95587460D01*
X163317588Y-95661100D01*
X163144259Y-95768421D01*
X162993607Y-95905758D01*
X162870751Y-96068446D01*
X162779886Y-96250930D01*
X162737471Y-96399999D01*
X162343048Y-96399999D01*
X162300582Y-96250750D01*
X162300209Y-96250001D01*
X162209675Y-96068181D01*
X162086763Y-95905419D01*
X161936041Y-95768018D01*
X161762638Y-95660652D01*
X161572457Y-95586976D01*
X161449726Y-95564034D01*
X161371976Y-95549500D01*
X161168024Y-95549500D01*
X161090279Y-95564033D01*
X160967542Y-95586976D01*
X160777361Y-95660652D01*
X160603958Y-95768018D01*
X160453236Y-95905419D01*
X160330324Y-96068181D01*
X160239418Y-96250748D01*
X160183602Y-96446916D01*
X160164785Y-96650000D01*
X159835215Y-96650000D01*
X159816397Y-96446917D01*
X159760582Y-96250750D01*
X159760209Y-96250001D01*
X159669675Y-96068181D01*
X159546763Y-95905419D01*
X159396041Y-95768018D01*
X159222638Y-95660652D01*
X159032457Y-95586976D01*
X158909726Y-95564034D01*
X158831976Y-95549500D01*
X158628024Y-95549500D01*
X158550279Y-95564033D01*
X158427542Y-95586976D01*
X158237361Y-95660652D01*
X158063958Y-95768018D01*
X157913236Y-95905419D01*
X157790324Y-96068181D01*
X157699418Y-96250748D01*
X157643602Y-96446916D01*
X157624785Y-96650000D01*
X156500500Y-96650000D01*
X156500500Y-88124500D01*
X156517113Y-88062500D01*
X156562500Y-88017113D01*
X156624500Y-88000500D01*
X168375500Y-88000500D01*
X168437500Y-88017113D01*
G37*
%TD.AperFunction*%
%TD*%
%TA.AperFunction,Conductor*%
%TO.N,Board_6-GND*%
G36*
X140437500Y-37017113D02*
G01*
X140482887Y-37062500D01*
X140499500Y-37124500D01*
X140499500Y-51875500D01*
X140482887Y-51937500D01*
X140437500Y-51982887D01*
X140375500Y-51999500D01*
X131681899Y-51999500D01*
X131617748Y-51981617D01*
X131572102Y-51933124D01*
X131558125Y-51868011D01*
X131575142Y-51818700D01*
X131574881Y-51818601D01*
X131578171Y-51809925D01*
X131579851Y-51805058D01*
X131579932Y-51804940D01*
X131580220Y-51804523D01*
X131636237Y-51656818D01*
X131655278Y-51500000D01*
X131649102Y-51449143D01*
X131654980Y-51393751D01*
X131684515Y-51346520D01*
X132485119Y-50545917D01*
X132525348Y-50519037D01*
X132572801Y-50509598D01*
X134114192Y-50509598D01*
X134171819Y-50523802D01*
X134216243Y-50563160D01*
X134220015Y-50568626D01*
X134220016Y-50568627D01*
X134220017Y-50568628D01*
X134338260Y-50673381D01*
X134478135Y-50746794D01*
X134631515Y-50784598D01*
X134789485Y-50784598D01*
X134942865Y-50746794D01*
X135082740Y-50673381D01*
X135200983Y-50568628D01*
X135290720Y-50438621D01*
X135346737Y-50290916D01*
X135365778Y-50134098D01*
X135346737Y-49977280D01*
X135290720Y-49829575D01*
X135231924Y-49744394D01*
X135200984Y-49699569D01*
X135200983Y-49699568D01*
X135082740Y-49594815D01*
X135069494Y-49587862D01*
X134942864Y-49521401D01*
X134789485Y-49483598D01*
X134631515Y-49483598D01*
X134478135Y-49521401D01*
X134338261Y-49594814D01*
X134220015Y-49699569D01*
X134216243Y-49705036D01*
X134171819Y-49744394D01*
X134114192Y-49758598D01*
X132417707Y-49758598D01*
X132392261Y-49755959D01*
X132381635Y-49753731D01*
X132381634Y-49753731D01*
X132363760Y-49755959D01*
X132350225Y-49757646D01*
X132334888Y-49758598D01*
X132334786Y-49758598D01*
X132314301Y-49762016D01*
X132309234Y-49762755D01*
X132249469Y-49770205D01*
X132249214Y-49770287D01*
X132196272Y-49798936D01*
X132191722Y-49801278D01*
X132137617Y-49827730D01*
X132137407Y-49827886D01*
X132096621Y-49872191D01*
X132093074Y-49875887D01*
X131155780Y-50813181D01*
X131115552Y-50840061D01*
X131068099Y-50849500D01*
X130921015Y-50849500D01*
X130767635Y-50887303D01*
X130627761Y-50960716D01*
X130509515Y-51065471D01*
X130419780Y-51195476D01*
X130363763Y-51343181D01*
X130344721Y-51500000D01*
X130363763Y-51656818D01*
X130419780Y-51804523D01*
X130420149Y-51805058D01*
X130421828Y-51809925D01*
X130425119Y-51818601D01*
X130424857Y-51818700D01*
X130441875Y-51868011D01*
X130427898Y-51933124D01*
X130382252Y-51981617D01*
X130318101Y-51999500D01*
X128624500Y-51999500D01*
X128562500Y-51982887D01*
X128517113Y-51937500D01*
X128500500Y-51875500D01*
X128500500Y-45650000D01*
X129624785Y-45650000D01*
X129643602Y-45853083D01*
X129699418Y-46049251D01*
X129790324Y-46231818D01*
X129913236Y-46394580D01*
X130063958Y-46531981D01*
X130237361Y-46639347D01*
X130237363Y-46639348D01*
X130427544Y-46713024D01*
X130628024Y-46750500D01*
X130831974Y-46750500D01*
X130831976Y-46750500D01*
X131032456Y-46713024D01*
X131222637Y-46639348D01*
X131396041Y-46531981D01*
X131546764Y-46394579D01*
X131669673Y-46231821D01*
X131669673Y-46231819D01*
X131669675Y-46231818D01*
X131715313Y-46140161D01*
X131760582Y-46049250D01*
X131816397Y-45853083D01*
X131835215Y-45650000D01*
X132164785Y-45650000D01*
X132183602Y-45853083D01*
X132239418Y-46049251D01*
X132330324Y-46231818D01*
X132453236Y-46394580D01*
X132603958Y-46531981D01*
X132777361Y-46639347D01*
X132777363Y-46639348D01*
X132967544Y-46713024D01*
X133168024Y-46750500D01*
X133371974Y-46750500D01*
X133371976Y-46750500D01*
X133572456Y-46713024D01*
X133762637Y-46639348D01*
X133936041Y-46531981D01*
X134086764Y-46394579D01*
X134209673Y-46231821D01*
X134209673Y-46231819D01*
X134209675Y-46231818D01*
X134255313Y-46140161D01*
X134300582Y-46049250D01*
X134343048Y-45900000D01*
X134737472Y-45900000D01*
X134779886Y-46049069D01*
X134870751Y-46231553D01*
X134993607Y-46394241D01*
X135144259Y-46531578D01*
X135317588Y-46638899D01*
X135507679Y-46712539D01*
X135560000Y-46722320D01*
X135560000Y-45900000D01*
X136060000Y-45900000D01*
X136060000Y-46722320D01*
X136112320Y-46712539D01*
X136302411Y-46638899D01*
X136475740Y-46531578D01*
X136483312Y-46524675D01*
X137249500Y-46524675D01*
X137264033Y-46597738D01*
X137264033Y-46597739D01*
X137264034Y-46597740D01*
X137319399Y-46680601D01*
X137402260Y-46735966D01*
X137438793Y-46743233D01*
X137475325Y-46750500D01*
X137475326Y-46750500D01*
X139224674Y-46750500D01*
X139224675Y-46750500D01*
X139249029Y-46745655D01*
X139297740Y-46735966D01*
X139380601Y-46680601D01*
X139435966Y-46597740D01*
X139450500Y-46524674D01*
X139450500Y-44775326D01*
X139449126Y-44768421D01*
X139435966Y-44702261D01*
X139435966Y-44702260D01*
X139380601Y-44619399D01*
X139297740Y-44564034D01*
X139297739Y-44564033D01*
X139297738Y-44564033D01*
X139224675Y-44549500D01*
X139224674Y-44549500D01*
X137475326Y-44549500D01*
X137475325Y-44549500D01*
X137402261Y-44564033D01*
X137319399Y-44619399D01*
X137264033Y-44702261D01*
X137249500Y-44775325D01*
X137249500Y-46524675D01*
X136483312Y-46524675D01*
X136626392Y-46394241D01*
X136749248Y-46231553D01*
X136840113Y-46049069D01*
X136882528Y-45900000D01*
X136060000Y-45900000D01*
X135560000Y-45900000D01*
X134737472Y-45900000D01*
X134343048Y-45900000D01*
X134356397Y-45853083D01*
X134375215Y-45650000D01*
X134356397Y-45446917D01*
X134343048Y-45399999D01*
X134737471Y-45399999D01*
X134737472Y-45400000D01*
X135560000Y-45400000D01*
X135560000Y-44577680D01*
X136060000Y-44577680D01*
X136060000Y-45400000D01*
X136882528Y-45400000D01*
X136882528Y-45399999D01*
X136840113Y-45250930D01*
X136749248Y-45068446D01*
X136626392Y-44905758D01*
X136475740Y-44768421D01*
X136302411Y-44661100D01*
X136112320Y-44587460D01*
X136060000Y-44577680D01*
X135560000Y-44577680D01*
X135507679Y-44587460D01*
X135317588Y-44661100D01*
X135144259Y-44768421D01*
X134993607Y-44905758D01*
X134870751Y-45068446D01*
X134779886Y-45250930D01*
X134737471Y-45399999D01*
X134343048Y-45399999D01*
X134300582Y-45250750D01*
X134300209Y-45250001D01*
X134209675Y-45068181D01*
X134086763Y-44905419D01*
X133936041Y-44768018D01*
X133762638Y-44660652D01*
X133572457Y-44586976D01*
X133449726Y-44564034D01*
X133371976Y-44549500D01*
X133168024Y-44549500D01*
X133090279Y-44564033D01*
X132967542Y-44586976D01*
X132777361Y-44660652D01*
X132603958Y-44768018D01*
X132453236Y-44905419D01*
X132330324Y-45068181D01*
X132239418Y-45250748D01*
X132183602Y-45446916D01*
X132164785Y-45650000D01*
X131835215Y-45650000D01*
X131816397Y-45446917D01*
X131760582Y-45250750D01*
X131760209Y-45250001D01*
X131669675Y-45068181D01*
X131546763Y-44905419D01*
X131396041Y-44768018D01*
X131222638Y-44660652D01*
X131032457Y-44586976D01*
X130909726Y-44564034D01*
X130831976Y-44549500D01*
X130628024Y-44549500D01*
X130550279Y-44564033D01*
X130427542Y-44586976D01*
X130237361Y-44660652D01*
X130063958Y-44768018D01*
X129913236Y-44905419D01*
X129790324Y-45068181D01*
X129699418Y-45250748D01*
X129643602Y-45446916D01*
X129624785Y-45650000D01*
X128500500Y-45650000D01*
X128500500Y-37124500D01*
X128517113Y-37062500D01*
X128562500Y-37017113D01*
X128624500Y-37000500D01*
X140375500Y-37000500D01*
X140437500Y-37017113D01*
G37*
%TD.AperFunction*%
%TD*%
%TA.AperFunction,Conductor*%
%TO.N,Board_13-GND*%
G36*
X168437500Y-54017113D02*
G01*
X168482887Y-54062500D01*
X168499500Y-54124500D01*
X168499500Y-68875500D01*
X168482887Y-68937500D01*
X168437500Y-68982887D01*
X168375500Y-68999500D01*
X159681899Y-68999500D01*
X159617748Y-68981617D01*
X159572102Y-68933124D01*
X159558125Y-68868011D01*
X159575142Y-68818700D01*
X159574881Y-68818601D01*
X159578171Y-68809925D01*
X159579851Y-68805058D01*
X159579932Y-68804940D01*
X159580220Y-68804523D01*
X159636237Y-68656818D01*
X159655278Y-68500000D01*
X159649102Y-68449143D01*
X159654980Y-68393751D01*
X159684515Y-68346520D01*
X160485119Y-67545917D01*
X160525348Y-67519037D01*
X160572801Y-67509598D01*
X162114192Y-67509598D01*
X162171819Y-67523802D01*
X162216243Y-67563160D01*
X162220015Y-67568626D01*
X162220016Y-67568627D01*
X162220017Y-67568628D01*
X162338260Y-67673381D01*
X162478135Y-67746794D01*
X162631515Y-67784598D01*
X162789485Y-67784598D01*
X162942865Y-67746794D01*
X163082740Y-67673381D01*
X163200983Y-67568628D01*
X163290720Y-67438621D01*
X163346737Y-67290916D01*
X163365778Y-67134098D01*
X163346737Y-66977280D01*
X163290720Y-66829575D01*
X163231924Y-66744394D01*
X163200984Y-66699569D01*
X163200983Y-66699568D01*
X163082740Y-66594815D01*
X163069494Y-66587862D01*
X162942864Y-66521401D01*
X162789485Y-66483598D01*
X162631515Y-66483598D01*
X162478135Y-66521401D01*
X162338261Y-66594814D01*
X162220015Y-66699569D01*
X162216243Y-66705036D01*
X162171819Y-66744394D01*
X162114192Y-66758598D01*
X160417707Y-66758598D01*
X160392261Y-66755959D01*
X160381635Y-66753731D01*
X160381634Y-66753731D01*
X160363760Y-66755959D01*
X160350225Y-66757646D01*
X160334888Y-66758598D01*
X160334786Y-66758598D01*
X160314301Y-66762016D01*
X160309234Y-66762755D01*
X160249469Y-66770205D01*
X160249214Y-66770287D01*
X160196272Y-66798936D01*
X160191722Y-66801278D01*
X160137617Y-66827730D01*
X160137407Y-66827886D01*
X160096621Y-66872191D01*
X160093074Y-66875887D01*
X159155780Y-67813181D01*
X159115552Y-67840061D01*
X159068099Y-67849500D01*
X158921015Y-67849500D01*
X158767635Y-67887303D01*
X158627761Y-67960716D01*
X158509515Y-68065471D01*
X158419780Y-68195476D01*
X158363763Y-68343181D01*
X158344721Y-68500000D01*
X158363763Y-68656818D01*
X158419780Y-68804523D01*
X158420149Y-68805058D01*
X158421828Y-68809925D01*
X158425119Y-68818601D01*
X158424857Y-68818700D01*
X158441875Y-68868011D01*
X158427898Y-68933124D01*
X158382252Y-68981617D01*
X158318101Y-68999500D01*
X156624500Y-68999500D01*
X156562500Y-68982887D01*
X156517113Y-68937500D01*
X156500500Y-68875500D01*
X156500500Y-62650000D01*
X157624785Y-62650000D01*
X157643602Y-62853083D01*
X157699418Y-63049251D01*
X157790324Y-63231818D01*
X157913236Y-63394580D01*
X158063958Y-63531981D01*
X158237361Y-63639347D01*
X158237363Y-63639348D01*
X158427544Y-63713024D01*
X158628024Y-63750500D01*
X158831974Y-63750500D01*
X158831976Y-63750500D01*
X159032456Y-63713024D01*
X159222637Y-63639348D01*
X159396041Y-63531981D01*
X159546764Y-63394579D01*
X159669673Y-63231821D01*
X159669673Y-63231819D01*
X159669675Y-63231818D01*
X159715313Y-63140161D01*
X159760582Y-63049250D01*
X159816397Y-62853083D01*
X159835215Y-62650000D01*
X160164785Y-62650000D01*
X160183602Y-62853083D01*
X160239418Y-63049251D01*
X160330324Y-63231818D01*
X160453236Y-63394580D01*
X160603958Y-63531981D01*
X160777361Y-63639347D01*
X160777363Y-63639348D01*
X160967544Y-63713024D01*
X161168024Y-63750500D01*
X161371974Y-63750500D01*
X161371976Y-63750500D01*
X161572456Y-63713024D01*
X161762637Y-63639348D01*
X161936041Y-63531981D01*
X162086764Y-63394579D01*
X162209673Y-63231821D01*
X162209673Y-63231819D01*
X162209675Y-63231818D01*
X162255313Y-63140161D01*
X162300582Y-63049250D01*
X162343048Y-62900000D01*
X162737472Y-62900000D01*
X162779886Y-63049069D01*
X162870751Y-63231553D01*
X162993607Y-63394241D01*
X163144259Y-63531578D01*
X163317588Y-63638899D01*
X163507679Y-63712539D01*
X163560000Y-63722320D01*
X163560000Y-62900000D01*
X164060000Y-62900000D01*
X164060000Y-63722320D01*
X164112320Y-63712539D01*
X164302411Y-63638899D01*
X164475740Y-63531578D01*
X164483312Y-63524675D01*
X165249500Y-63524675D01*
X165264033Y-63597738D01*
X165264033Y-63597739D01*
X165264034Y-63597740D01*
X165319399Y-63680601D01*
X165402260Y-63735966D01*
X165438793Y-63743233D01*
X165475325Y-63750500D01*
X165475326Y-63750500D01*
X167224674Y-63750500D01*
X167224675Y-63750500D01*
X167249029Y-63745655D01*
X167297740Y-63735966D01*
X167380601Y-63680601D01*
X167435966Y-63597740D01*
X167450500Y-63524674D01*
X167450500Y-61775326D01*
X167449126Y-61768421D01*
X167435966Y-61702261D01*
X167435966Y-61702260D01*
X167380601Y-61619399D01*
X167297740Y-61564034D01*
X167297739Y-61564033D01*
X167297738Y-61564033D01*
X167224675Y-61549500D01*
X167224674Y-61549500D01*
X165475326Y-61549500D01*
X165475325Y-61549500D01*
X165402261Y-61564033D01*
X165319399Y-61619399D01*
X165264033Y-61702261D01*
X165249500Y-61775325D01*
X165249500Y-63524675D01*
X164483312Y-63524675D01*
X164626392Y-63394241D01*
X164749248Y-63231553D01*
X164840113Y-63049069D01*
X164882528Y-62900000D01*
X164060000Y-62900000D01*
X163560000Y-62900000D01*
X162737472Y-62900000D01*
X162343048Y-62900000D01*
X162356397Y-62853083D01*
X162375215Y-62650000D01*
X162356397Y-62446917D01*
X162343048Y-62399999D01*
X162737471Y-62399999D01*
X162737472Y-62400000D01*
X163560000Y-62400000D01*
X163560000Y-61577680D01*
X164060000Y-61577680D01*
X164060000Y-62400000D01*
X164882528Y-62400000D01*
X164882528Y-62399999D01*
X164840113Y-62250930D01*
X164749248Y-62068446D01*
X164626392Y-61905758D01*
X164475740Y-61768421D01*
X164302411Y-61661100D01*
X164112320Y-61587460D01*
X164060000Y-61577680D01*
X163560000Y-61577680D01*
X163507679Y-61587460D01*
X163317588Y-61661100D01*
X163144259Y-61768421D01*
X162993607Y-61905758D01*
X162870751Y-62068446D01*
X162779886Y-62250930D01*
X162737471Y-62399999D01*
X162343048Y-62399999D01*
X162300582Y-62250750D01*
X162300209Y-62250001D01*
X162209675Y-62068181D01*
X162086763Y-61905419D01*
X161936041Y-61768018D01*
X161762638Y-61660652D01*
X161572457Y-61586976D01*
X161449726Y-61564034D01*
X161371976Y-61549500D01*
X161168024Y-61549500D01*
X161090279Y-61564033D01*
X160967542Y-61586976D01*
X160777361Y-61660652D01*
X160603958Y-61768018D01*
X160453236Y-61905419D01*
X160330324Y-62068181D01*
X160239418Y-62250748D01*
X160183602Y-62446916D01*
X160164785Y-62650000D01*
X159835215Y-62650000D01*
X159816397Y-62446917D01*
X159760582Y-62250750D01*
X159760209Y-62250001D01*
X159669675Y-62068181D01*
X159546763Y-61905419D01*
X159396041Y-61768018D01*
X159222638Y-61660652D01*
X159032457Y-61586976D01*
X158909726Y-61564034D01*
X158831976Y-61549500D01*
X158628024Y-61549500D01*
X158550279Y-61564033D01*
X158427542Y-61586976D01*
X158237361Y-61660652D01*
X158063958Y-61768018D01*
X157913236Y-61905419D01*
X157790324Y-62068181D01*
X157699418Y-62250748D01*
X157643602Y-62446916D01*
X157624785Y-62650000D01*
X156500500Y-62650000D01*
X156500500Y-54124500D01*
X156517113Y-54062500D01*
X156562500Y-54017113D01*
X156624500Y-54000500D01*
X168375500Y-54000500D01*
X168437500Y-54017113D01*
G37*
%TD.AperFunction*%
%TD*%
%TA.AperFunction,Conductor*%
%TO.N,Board_3-GND*%
G36*
X168437500Y-20017113D02*
G01*
X168482887Y-20062500D01*
X168499500Y-20124500D01*
X168499500Y-34875500D01*
X168482887Y-34937500D01*
X168437500Y-34982887D01*
X168375500Y-34999500D01*
X159681899Y-34999500D01*
X159617748Y-34981617D01*
X159572102Y-34933124D01*
X159558125Y-34868011D01*
X159575142Y-34818700D01*
X159574881Y-34818601D01*
X159578171Y-34809925D01*
X159579851Y-34805058D01*
X159579932Y-34804940D01*
X159580220Y-34804523D01*
X159636237Y-34656818D01*
X159655278Y-34500000D01*
X159649102Y-34449143D01*
X159654980Y-34393751D01*
X159684515Y-34346520D01*
X160485119Y-33545917D01*
X160525348Y-33519037D01*
X160572801Y-33509598D01*
X162114192Y-33509598D01*
X162171819Y-33523802D01*
X162216243Y-33563160D01*
X162220015Y-33568626D01*
X162220016Y-33568627D01*
X162220017Y-33568628D01*
X162338260Y-33673381D01*
X162478135Y-33746794D01*
X162631515Y-33784598D01*
X162789485Y-33784598D01*
X162942865Y-33746794D01*
X163082740Y-33673381D01*
X163200983Y-33568628D01*
X163290720Y-33438621D01*
X163346737Y-33290916D01*
X163365778Y-33134098D01*
X163346737Y-32977280D01*
X163290720Y-32829575D01*
X163231924Y-32744394D01*
X163200984Y-32699569D01*
X163200983Y-32699568D01*
X163082740Y-32594815D01*
X163069494Y-32587862D01*
X162942864Y-32521401D01*
X162789485Y-32483598D01*
X162631515Y-32483598D01*
X162478135Y-32521401D01*
X162338261Y-32594814D01*
X162220015Y-32699569D01*
X162216243Y-32705036D01*
X162171819Y-32744394D01*
X162114192Y-32758598D01*
X160417707Y-32758598D01*
X160392261Y-32755959D01*
X160381635Y-32753731D01*
X160381634Y-32753731D01*
X160363760Y-32755959D01*
X160350225Y-32757646D01*
X160334888Y-32758598D01*
X160334786Y-32758598D01*
X160314301Y-32762016D01*
X160309234Y-32762755D01*
X160249469Y-32770205D01*
X160249214Y-32770287D01*
X160196272Y-32798936D01*
X160191722Y-32801278D01*
X160137617Y-32827730D01*
X160137407Y-32827886D01*
X160096621Y-32872191D01*
X160093074Y-32875887D01*
X159155780Y-33813181D01*
X159115552Y-33840061D01*
X159068099Y-33849500D01*
X158921015Y-33849500D01*
X158767635Y-33887303D01*
X158627761Y-33960716D01*
X158509515Y-34065471D01*
X158419780Y-34195476D01*
X158363763Y-34343181D01*
X158344721Y-34500000D01*
X158363763Y-34656818D01*
X158419780Y-34804523D01*
X158420149Y-34805058D01*
X158421828Y-34809925D01*
X158425119Y-34818601D01*
X158424857Y-34818700D01*
X158441875Y-34868011D01*
X158427898Y-34933124D01*
X158382252Y-34981617D01*
X158318101Y-34999500D01*
X156624500Y-34999500D01*
X156562500Y-34982887D01*
X156517113Y-34937500D01*
X156500500Y-34875500D01*
X156500500Y-28650000D01*
X157624785Y-28650000D01*
X157643602Y-28853083D01*
X157699418Y-29049251D01*
X157790324Y-29231818D01*
X157913236Y-29394580D01*
X158063958Y-29531981D01*
X158237361Y-29639347D01*
X158237363Y-29639348D01*
X158427544Y-29713024D01*
X158628024Y-29750500D01*
X158831974Y-29750500D01*
X158831976Y-29750500D01*
X159032456Y-29713024D01*
X159222637Y-29639348D01*
X159396041Y-29531981D01*
X159546764Y-29394579D01*
X159669673Y-29231821D01*
X159669673Y-29231819D01*
X159669675Y-29231818D01*
X159715313Y-29140161D01*
X159760582Y-29049250D01*
X159816397Y-28853083D01*
X159835215Y-28650000D01*
X160164785Y-28650000D01*
X160183602Y-28853083D01*
X160239418Y-29049251D01*
X160330324Y-29231818D01*
X160453236Y-29394580D01*
X160603958Y-29531981D01*
X160777361Y-29639347D01*
X160777363Y-29639348D01*
X160967544Y-29713024D01*
X161168024Y-29750500D01*
X161371974Y-29750500D01*
X161371976Y-29750500D01*
X161572456Y-29713024D01*
X161762637Y-29639348D01*
X161936041Y-29531981D01*
X162086764Y-29394579D01*
X162209673Y-29231821D01*
X162209673Y-29231819D01*
X162209675Y-29231818D01*
X162255313Y-29140161D01*
X162300582Y-29049250D01*
X162343048Y-28900000D01*
X162737472Y-28900000D01*
X162779886Y-29049069D01*
X162870751Y-29231553D01*
X162993607Y-29394241D01*
X163144259Y-29531578D01*
X163317588Y-29638899D01*
X163507679Y-29712539D01*
X163560000Y-29722320D01*
X163560000Y-28900000D01*
X164060000Y-28900000D01*
X164060000Y-29722320D01*
X164112320Y-29712539D01*
X164302411Y-29638899D01*
X164475740Y-29531578D01*
X164483312Y-29524675D01*
X165249500Y-29524675D01*
X165264033Y-29597738D01*
X165264033Y-29597739D01*
X165264034Y-29597740D01*
X165319399Y-29680601D01*
X165402260Y-29735966D01*
X165438793Y-29743233D01*
X165475325Y-29750500D01*
X165475326Y-29750500D01*
X167224674Y-29750500D01*
X167224675Y-29750500D01*
X167249029Y-29745655D01*
X167297740Y-29735966D01*
X167380601Y-29680601D01*
X167435966Y-29597740D01*
X167450500Y-29524674D01*
X167450500Y-27775326D01*
X167449126Y-27768421D01*
X167435966Y-27702261D01*
X167435966Y-27702260D01*
X167380601Y-27619399D01*
X167297740Y-27564034D01*
X167297739Y-27564033D01*
X167297738Y-27564033D01*
X167224675Y-27549500D01*
X167224674Y-27549500D01*
X165475326Y-27549500D01*
X165475325Y-27549500D01*
X165402261Y-27564033D01*
X165319399Y-27619399D01*
X165264033Y-27702261D01*
X165249500Y-27775325D01*
X165249500Y-29524675D01*
X164483312Y-29524675D01*
X164626392Y-29394241D01*
X164749248Y-29231553D01*
X164840113Y-29049069D01*
X164882528Y-28900000D01*
X164060000Y-28900000D01*
X163560000Y-28900000D01*
X162737472Y-28900000D01*
X162343048Y-28900000D01*
X162356397Y-28853083D01*
X162375215Y-28650000D01*
X162356397Y-28446917D01*
X162343048Y-28399999D01*
X162737471Y-28399999D01*
X162737472Y-28400000D01*
X163560000Y-28400000D01*
X163560000Y-27577680D01*
X164060000Y-27577680D01*
X164060000Y-28400000D01*
X164882528Y-28400000D01*
X164882528Y-28399999D01*
X164840113Y-28250930D01*
X164749248Y-28068446D01*
X164626392Y-27905758D01*
X164475740Y-27768421D01*
X164302411Y-27661100D01*
X164112320Y-27587460D01*
X164060000Y-27577680D01*
X163560000Y-27577680D01*
X163507679Y-27587460D01*
X163317588Y-27661100D01*
X163144259Y-27768421D01*
X162993607Y-27905758D01*
X162870751Y-28068446D01*
X162779886Y-28250930D01*
X162737471Y-28399999D01*
X162343048Y-28399999D01*
X162300582Y-28250750D01*
X162300209Y-28250001D01*
X162209675Y-28068181D01*
X162086763Y-27905419D01*
X161936041Y-27768018D01*
X161762638Y-27660652D01*
X161572457Y-27586976D01*
X161449726Y-27564034D01*
X161371976Y-27549500D01*
X161168024Y-27549500D01*
X161090279Y-27564033D01*
X160967542Y-27586976D01*
X160777361Y-27660652D01*
X160603958Y-27768018D01*
X160453236Y-27905419D01*
X160330324Y-28068181D01*
X160239418Y-28250748D01*
X160183602Y-28446916D01*
X160164785Y-28650000D01*
X159835215Y-28650000D01*
X159816397Y-28446917D01*
X159760582Y-28250750D01*
X159760209Y-28250001D01*
X159669675Y-28068181D01*
X159546763Y-27905419D01*
X159396041Y-27768018D01*
X159222638Y-27660652D01*
X159032457Y-27586976D01*
X158909726Y-27564034D01*
X158831976Y-27549500D01*
X158628024Y-27549500D01*
X158550279Y-27564033D01*
X158427542Y-27586976D01*
X158237361Y-27660652D01*
X158063958Y-27768018D01*
X157913236Y-27905419D01*
X157790324Y-28068181D01*
X157699418Y-28250748D01*
X157643602Y-28446916D01*
X157624785Y-28650000D01*
X156500500Y-28650000D01*
X156500500Y-20124500D01*
X156517113Y-20062500D01*
X156562500Y-20017113D01*
X156624500Y-20000500D01*
X168375500Y-20000500D01*
X168437500Y-20017113D01*
G37*
%TD.AperFunction*%
%TD*%
%TA.AperFunction,Conductor*%
%TO.N,Board_10-GND*%
G36*
X126437500Y-54017113D02*
G01*
X126482887Y-54062500D01*
X126499500Y-54124500D01*
X126499500Y-68875500D01*
X126482887Y-68937500D01*
X126437500Y-68982887D01*
X126375500Y-68999500D01*
X117681899Y-68999500D01*
X117617748Y-68981617D01*
X117572102Y-68933124D01*
X117558125Y-68868011D01*
X117575142Y-68818700D01*
X117574881Y-68818601D01*
X117578171Y-68809925D01*
X117579851Y-68805058D01*
X117579932Y-68804940D01*
X117580220Y-68804523D01*
X117636237Y-68656818D01*
X117655278Y-68500000D01*
X117649102Y-68449143D01*
X117654980Y-68393751D01*
X117684515Y-68346520D01*
X118485119Y-67545917D01*
X118525348Y-67519037D01*
X118572801Y-67509598D01*
X120114192Y-67509598D01*
X120171819Y-67523802D01*
X120216243Y-67563160D01*
X120220015Y-67568626D01*
X120220016Y-67568627D01*
X120220017Y-67568628D01*
X120338260Y-67673381D01*
X120478135Y-67746794D01*
X120631515Y-67784598D01*
X120789485Y-67784598D01*
X120942865Y-67746794D01*
X121082740Y-67673381D01*
X121200983Y-67568628D01*
X121290720Y-67438621D01*
X121346737Y-67290916D01*
X121365778Y-67134098D01*
X121346737Y-66977280D01*
X121290720Y-66829575D01*
X121231924Y-66744394D01*
X121200984Y-66699569D01*
X121200983Y-66699568D01*
X121082740Y-66594815D01*
X121069494Y-66587862D01*
X120942864Y-66521401D01*
X120789485Y-66483598D01*
X120631515Y-66483598D01*
X120478135Y-66521401D01*
X120338261Y-66594814D01*
X120220015Y-66699569D01*
X120216243Y-66705036D01*
X120171819Y-66744394D01*
X120114192Y-66758598D01*
X118417707Y-66758598D01*
X118392261Y-66755959D01*
X118381635Y-66753731D01*
X118381634Y-66753731D01*
X118363760Y-66755959D01*
X118350225Y-66757646D01*
X118334888Y-66758598D01*
X118334786Y-66758598D01*
X118314301Y-66762016D01*
X118309234Y-66762755D01*
X118249469Y-66770205D01*
X118249214Y-66770287D01*
X118196272Y-66798936D01*
X118191722Y-66801278D01*
X118137617Y-66827730D01*
X118137407Y-66827886D01*
X118096621Y-66872191D01*
X118093074Y-66875887D01*
X117155780Y-67813181D01*
X117115552Y-67840061D01*
X117068099Y-67849500D01*
X116921015Y-67849500D01*
X116767635Y-67887303D01*
X116627761Y-67960716D01*
X116509515Y-68065471D01*
X116419780Y-68195476D01*
X116363763Y-68343181D01*
X116344721Y-68500000D01*
X116363763Y-68656818D01*
X116419780Y-68804523D01*
X116420149Y-68805058D01*
X116421828Y-68809925D01*
X116425119Y-68818601D01*
X116424857Y-68818700D01*
X116441875Y-68868011D01*
X116427898Y-68933124D01*
X116382252Y-68981617D01*
X116318101Y-68999500D01*
X114624500Y-68999500D01*
X114562500Y-68982887D01*
X114517113Y-68937500D01*
X114500500Y-68875500D01*
X114500500Y-62650000D01*
X115624785Y-62650000D01*
X115643602Y-62853083D01*
X115699418Y-63049251D01*
X115790324Y-63231818D01*
X115913236Y-63394580D01*
X116063958Y-63531981D01*
X116237361Y-63639347D01*
X116237363Y-63639348D01*
X116427544Y-63713024D01*
X116628024Y-63750500D01*
X116831974Y-63750500D01*
X116831976Y-63750500D01*
X117032456Y-63713024D01*
X117222637Y-63639348D01*
X117396041Y-63531981D01*
X117546764Y-63394579D01*
X117669673Y-63231821D01*
X117669673Y-63231819D01*
X117669675Y-63231818D01*
X117715313Y-63140161D01*
X117760582Y-63049250D01*
X117816397Y-62853083D01*
X117835215Y-62650000D01*
X118164785Y-62650000D01*
X118183602Y-62853083D01*
X118239418Y-63049251D01*
X118330324Y-63231818D01*
X118453236Y-63394580D01*
X118603958Y-63531981D01*
X118777361Y-63639347D01*
X118777363Y-63639348D01*
X118967544Y-63713024D01*
X119168024Y-63750500D01*
X119371974Y-63750500D01*
X119371976Y-63750500D01*
X119572456Y-63713024D01*
X119762637Y-63639348D01*
X119936041Y-63531981D01*
X120086764Y-63394579D01*
X120209673Y-63231821D01*
X120209673Y-63231819D01*
X120209675Y-63231818D01*
X120255313Y-63140161D01*
X120300582Y-63049250D01*
X120343048Y-62900000D01*
X120737472Y-62900000D01*
X120779886Y-63049069D01*
X120870751Y-63231553D01*
X120993607Y-63394241D01*
X121144259Y-63531578D01*
X121317588Y-63638899D01*
X121507679Y-63712539D01*
X121560000Y-63722320D01*
X121560000Y-62900000D01*
X122060000Y-62900000D01*
X122060000Y-63722320D01*
X122112320Y-63712539D01*
X122302411Y-63638899D01*
X122475740Y-63531578D01*
X122483312Y-63524675D01*
X123249500Y-63524675D01*
X123264033Y-63597738D01*
X123264033Y-63597739D01*
X123264034Y-63597740D01*
X123319399Y-63680601D01*
X123402260Y-63735966D01*
X123438793Y-63743233D01*
X123475325Y-63750500D01*
X123475326Y-63750500D01*
X125224674Y-63750500D01*
X125224675Y-63750500D01*
X125249029Y-63745655D01*
X125297740Y-63735966D01*
X125380601Y-63680601D01*
X125435966Y-63597740D01*
X125450500Y-63524674D01*
X125450500Y-61775326D01*
X125449126Y-61768421D01*
X125435966Y-61702261D01*
X125435966Y-61702260D01*
X125380601Y-61619399D01*
X125297740Y-61564034D01*
X125297739Y-61564033D01*
X125297738Y-61564033D01*
X125224675Y-61549500D01*
X125224674Y-61549500D01*
X123475326Y-61549500D01*
X123475325Y-61549500D01*
X123402261Y-61564033D01*
X123319399Y-61619399D01*
X123264033Y-61702261D01*
X123249500Y-61775325D01*
X123249500Y-63524675D01*
X122483312Y-63524675D01*
X122626392Y-63394241D01*
X122749248Y-63231553D01*
X122840113Y-63049069D01*
X122882528Y-62900000D01*
X122060000Y-62900000D01*
X121560000Y-62900000D01*
X120737472Y-62900000D01*
X120343048Y-62900000D01*
X120356397Y-62853083D01*
X120375215Y-62650000D01*
X120356397Y-62446917D01*
X120343048Y-62399999D01*
X120737471Y-62399999D01*
X120737472Y-62400000D01*
X121560000Y-62400000D01*
X121560000Y-61577680D01*
X122060000Y-61577680D01*
X122060000Y-62400000D01*
X122882528Y-62400000D01*
X122882528Y-62399999D01*
X122840113Y-62250930D01*
X122749248Y-62068446D01*
X122626392Y-61905758D01*
X122475740Y-61768421D01*
X122302411Y-61661100D01*
X122112320Y-61587460D01*
X122060000Y-61577680D01*
X121560000Y-61577680D01*
X121507679Y-61587460D01*
X121317588Y-61661100D01*
X121144259Y-61768421D01*
X120993607Y-61905758D01*
X120870751Y-62068446D01*
X120779886Y-62250930D01*
X120737471Y-62399999D01*
X120343048Y-62399999D01*
X120300582Y-62250750D01*
X120300209Y-62250001D01*
X120209675Y-62068181D01*
X120086763Y-61905419D01*
X119936041Y-61768018D01*
X119762638Y-61660652D01*
X119572457Y-61586976D01*
X119449726Y-61564034D01*
X119371976Y-61549500D01*
X119168024Y-61549500D01*
X119090279Y-61564033D01*
X118967542Y-61586976D01*
X118777361Y-61660652D01*
X118603958Y-61768018D01*
X118453236Y-61905419D01*
X118330324Y-62068181D01*
X118239418Y-62250748D01*
X118183602Y-62446916D01*
X118164785Y-62650000D01*
X117835215Y-62650000D01*
X117816397Y-62446917D01*
X117760582Y-62250750D01*
X117760209Y-62250001D01*
X117669675Y-62068181D01*
X117546763Y-61905419D01*
X117396041Y-61768018D01*
X117222638Y-61660652D01*
X117032457Y-61586976D01*
X116909726Y-61564034D01*
X116831976Y-61549500D01*
X116628024Y-61549500D01*
X116550279Y-61564033D01*
X116427542Y-61586976D01*
X116237361Y-61660652D01*
X116063958Y-61768018D01*
X115913236Y-61905419D01*
X115790324Y-62068181D01*
X115699418Y-62250748D01*
X115643602Y-62446916D01*
X115624785Y-62650000D01*
X114500500Y-62650000D01*
X114500500Y-54124500D01*
X114517113Y-54062500D01*
X114562500Y-54017113D01*
X114624500Y-54000500D01*
X126375500Y-54000500D01*
X126437500Y-54017113D01*
G37*
%TD.AperFunction*%
%TD*%
%TA.AperFunction,Conductor*%
%TO.N,Board_21-GND*%
G36*
X140437500Y-88017113D02*
G01*
X140482887Y-88062500D01*
X140499500Y-88124500D01*
X140499500Y-102875500D01*
X140482887Y-102937500D01*
X140437500Y-102982887D01*
X140375500Y-102999500D01*
X131681899Y-102999500D01*
X131617748Y-102981617D01*
X131572102Y-102933124D01*
X131558125Y-102868011D01*
X131575142Y-102818700D01*
X131574881Y-102818601D01*
X131578171Y-102809925D01*
X131579851Y-102805058D01*
X131579932Y-102804940D01*
X131580220Y-102804523D01*
X131636237Y-102656818D01*
X131655278Y-102500000D01*
X131649102Y-102449143D01*
X131654980Y-102393751D01*
X131684515Y-102346520D01*
X132485119Y-101545917D01*
X132525348Y-101519037D01*
X132572801Y-101509598D01*
X134114192Y-101509598D01*
X134171819Y-101523802D01*
X134216243Y-101563160D01*
X134220015Y-101568626D01*
X134220016Y-101568627D01*
X134220017Y-101568628D01*
X134338260Y-101673381D01*
X134478135Y-101746794D01*
X134631515Y-101784598D01*
X134789485Y-101784598D01*
X134942865Y-101746794D01*
X135082740Y-101673381D01*
X135200983Y-101568628D01*
X135290720Y-101438621D01*
X135346737Y-101290916D01*
X135365778Y-101134098D01*
X135346737Y-100977280D01*
X135290720Y-100829575D01*
X135231924Y-100744394D01*
X135200984Y-100699569D01*
X135200983Y-100699568D01*
X135082740Y-100594815D01*
X135069494Y-100587862D01*
X134942864Y-100521401D01*
X134789485Y-100483598D01*
X134631515Y-100483598D01*
X134478135Y-100521401D01*
X134338261Y-100594814D01*
X134220015Y-100699569D01*
X134216243Y-100705036D01*
X134171819Y-100744394D01*
X134114192Y-100758598D01*
X132417707Y-100758598D01*
X132392261Y-100755959D01*
X132381635Y-100753731D01*
X132381634Y-100753731D01*
X132363760Y-100755959D01*
X132350225Y-100757646D01*
X132334888Y-100758598D01*
X132334786Y-100758598D01*
X132314301Y-100762016D01*
X132309234Y-100762755D01*
X132249469Y-100770205D01*
X132249214Y-100770287D01*
X132196272Y-100798936D01*
X132191722Y-100801278D01*
X132137617Y-100827730D01*
X132137407Y-100827886D01*
X132096621Y-100872191D01*
X132093074Y-100875887D01*
X131155780Y-101813181D01*
X131115552Y-101840061D01*
X131068099Y-101849500D01*
X130921015Y-101849500D01*
X130767635Y-101887303D01*
X130627761Y-101960716D01*
X130509515Y-102065471D01*
X130419780Y-102195476D01*
X130363763Y-102343181D01*
X130344721Y-102500000D01*
X130363763Y-102656818D01*
X130419780Y-102804523D01*
X130420149Y-102805058D01*
X130421828Y-102809925D01*
X130425119Y-102818601D01*
X130424857Y-102818700D01*
X130441875Y-102868011D01*
X130427898Y-102933124D01*
X130382252Y-102981617D01*
X130318101Y-102999500D01*
X128624500Y-102999500D01*
X128562500Y-102982887D01*
X128517113Y-102937500D01*
X128500500Y-102875500D01*
X128500500Y-96650000D01*
X129624785Y-96650000D01*
X129643602Y-96853083D01*
X129699418Y-97049251D01*
X129790324Y-97231818D01*
X129913236Y-97394580D01*
X130063958Y-97531981D01*
X130237361Y-97639347D01*
X130237363Y-97639348D01*
X130427544Y-97713024D01*
X130628024Y-97750500D01*
X130831974Y-97750500D01*
X130831976Y-97750500D01*
X131032456Y-97713024D01*
X131222637Y-97639348D01*
X131396041Y-97531981D01*
X131546764Y-97394579D01*
X131669673Y-97231821D01*
X131669673Y-97231819D01*
X131669675Y-97231818D01*
X131715313Y-97140161D01*
X131760582Y-97049250D01*
X131816397Y-96853083D01*
X131835215Y-96650000D01*
X132164785Y-96650000D01*
X132183602Y-96853083D01*
X132239418Y-97049251D01*
X132330324Y-97231818D01*
X132453236Y-97394580D01*
X132603958Y-97531981D01*
X132777361Y-97639347D01*
X132777363Y-97639348D01*
X132967544Y-97713024D01*
X133168024Y-97750500D01*
X133371974Y-97750500D01*
X133371976Y-97750500D01*
X133572456Y-97713024D01*
X133762637Y-97639348D01*
X133936041Y-97531981D01*
X134086764Y-97394579D01*
X134209673Y-97231821D01*
X134209673Y-97231819D01*
X134209675Y-97231818D01*
X134255313Y-97140161D01*
X134300582Y-97049250D01*
X134343048Y-96900000D01*
X134737472Y-96900000D01*
X134779886Y-97049069D01*
X134870751Y-97231553D01*
X134993607Y-97394241D01*
X135144259Y-97531578D01*
X135317588Y-97638899D01*
X135507679Y-97712539D01*
X135560000Y-97722320D01*
X135560000Y-96900000D01*
X136060000Y-96900000D01*
X136060000Y-97722320D01*
X136112320Y-97712539D01*
X136302411Y-97638899D01*
X136475740Y-97531578D01*
X136483312Y-97524675D01*
X137249500Y-97524675D01*
X137264033Y-97597738D01*
X137264033Y-97597739D01*
X137264034Y-97597740D01*
X137319399Y-97680601D01*
X137402260Y-97735966D01*
X137438793Y-97743233D01*
X137475325Y-97750500D01*
X137475326Y-97750500D01*
X139224674Y-97750500D01*
X139224675Y-97750500D01*
X139249029Y-97745655D01*
X139297740Y-97735966D01*
X139380601Y-97680601D01*
X139435966Y-97597740D01*
X139450500Y-97524674D01*
X139450500Y-95775326D01*
X139449126Y-95768421D01*
X139435966Y-95702261D01*
X139435966Y-95702260D01*
X139380601Y-95619399D01*
X139297740Y-95564034D01*
X139297739Y-95564033D01*
X139297738Y-95564033D01*
X139224675Y-95549500D01*
X139224674Y-95549500D01*
X137475326Y-95549500D01*
X137475325Y-95549500D01*
X137402261Y-95564033D01*
X137319399Y-95619399D01*
X137264033Y-95702261D01*
X137249500Y-95775325D01*
X137249500Y-97524675D01*
X136483312Y-97524675D01*
X136626392Y-97394241D01*
X136749248Y-97231553D01*
X136840113Y-97049069D01*
X136882528Y-96900000D01*
X136060000Y-96900000D01*
X135560000Y-96900000D01*
X134737472Y-96900000D01*
X134343048Y-96900000D01*
X134356397Y-96853083D01*
X134375215Y-96650000D01*
X134356397Y-96446917D01*
X134343048Y-96399999D01*
X134737471Y-96399999D01*
X134737472Y-96400000D01*
X135560000Y-96400000D01*
X135560000Y-95577680D01*
X136060000Y-95577680D01*
X136060000Y-96400000D01*
X136882528Y-96400000D01*
X136882528Y-96399999D01*
X136840113Y-96250930D01*
X136749248Y-96068446D01*
X136626392Y-95905758D01*
X136475740Y-95768421D01*
X136302411Y-95661100D01*
X136112320Y-95587460D01*
X136060000Y-95577680D01*
X135560000Y-95577680D01*
X135507679Y-95587460D01*
X135317588Y-95661100D01*
X135144259Y-95768421D01*
X134993607Y-95905758D01*
X134870751Y-96068446D01*
X134779886Y-96250930D01*
X134737471Y-96399999D01*
X134343048Y-96399999D01*
X134300582Y-96250750D01*
X134300209Y-96250001D01*
X134209675Y-96068181D01*
X134086763Y-95905419D01*
X133936041Y-95768018D01*
X133762638Y-95660652D01*
X133572457Y-95586976D01*
X133449726Y-95564034D01*
X133371976Y-95549500D01*
X133168024Y-95549500D01*
X133090279Y-95564033D01*
X132967542Y-95586976D01*
X132777361Y-95660652D01*
X132603958Y-95768018D01*
X132453236Y-95905419D01*
X132330324Y-96068181D01*
X132239418Y-96250748D01*
X132183602Y-96446916D01*
X132164785Y-96650000D01*
X131835215Y-96650000D01*
X131816397Y-96446917D01*
X131760582Y-96250750D01*
X131760209Y-96250001D01*
X131669675Y-96068181D01*
X131546763Y-95905419D01*
X131396041Y-95768018D01*
X131222638Y-95660652D01*
X131032457Y-95586976D01*
X130909726Y-95564034D01*
X130831976Y-95549500D01*
X130628024Y-95549500D01*
X130550279Y-95564033D01*
X130427542Y-95586976D01*
X130237361Y-95660652D01*
X130063958Y-95768018D01*
X129913236Y-95905419D01*
X129790324Y-96068181D01*
X129699418Y-96250748D01*
X129643602Y-96446916D01*
X129624785Y-96650000D01*
X128500500Y-96650000D01*
X128500500Y-88124500D01*
X128517113Y-88062500D01*
X128562500Y-88017113D01*
X128624500Y-88000500D01*
X140375500Y-88000500D01*
X140437500Y-88017113D01*
G37*
%TD.AperFunction*%
%TD*%
%TA.AperFunction,Conductor*%
%TO.N,Board_12-GND*%
G36*
X154437500Y-54017113D02*
G01*
X154482887Y-54062500D01*
X154499500Y-54124500D01*
X154499500Y-68875500D01*
X154482887Y-68937500D01*
X154437500Y-68982887D01*
X154375500Y-68999500D01*
X145681899Y-68999500D01*
X145617748Y-68981617D01*
X145572102Y-68933124D01*
X145558125Y-68868011D01*
X145575142Y-68818700D01*
X145574881Y-68818601D01*
X145578171Y-68809925D01*
X145579851Y-68805058D01*
X145579932Y-68804940D01*
X145580220Y-68804523D01*
X145636237Y-68656818D01*
X145655278Y-68500000D01*
X145649102Y-68449143D01*
X145654980Y-68393751D01*
X145684515Y-68346520D01*
X146485119Y-67545917D01*
X146525348Y-67519037D01*
X146572801Y-67509598D01*
X148114192Y-67509598D01*
X148171819Y-67523802D01*
X148216243Y-67563160D01*
X148220015Y-67568626D01*
X148220016Y-67568627D01*
X148220017Y-67568628D01*
X148338260Y-67673381D01*
X148478135Y-67746794D01*
X148631515Y-67784598D01*
X148789485Y-67784598D01*
X148942865Y-67746794D01*
X149082740Y-67673381D01*
X149200983Y-67568628D01*
X149290720Y-67438621D01*
X149346737Y-67290916D01*
X149365778Y-67134098D01*
X149346737Y-66977280D01*
X149290720Y-66829575D01*
X149231924Y-66744394D01*
X149200984Y-66699569D01*
X149200983Y-66699568D01*
X149082740Y-66594815D01*
X149069494Y-66587862D01*
X148942864Y-66521401D01*
X148789485Y-66483598D01*
X148631515Y-66483598D01*
X148478135Y-66521401D01*
X148338261Y-66594814D01*
X148220015Y-66699569D01*
X148216243Y-66705036D01*
X148171819Y-66744394D01*
X148114192Y-66758598D01*
X146417707Y-66758598D01*
X146392261Y-66755959D01*
X146381635Y-66753731D01*
X146381634Y-66753731D01*
X146363760Y-66755959D01*
X146350225Y-66757646D01*
X146334888Y-66758598D01*
X146334786Y-66758598D01*
X146314301Y-66762016D01*
X146309234Y-66762755D01*
X146249469Y-66770205D01*
X146249214Y-66770287D01*
X146196272Y-66798936D01*
X146191722Y-66801278D01*
X146137617Y-66827730D01*
X146137407Y-66827886D01*
X146096621Y-66872191D01*
X146093074Y-66875887D01*
X145155780Y-67813181D01*
X145115552Y-67840061D01*
X145068099Y-67849500D01*
X144921015Y-67849500D01*
X144767635Y-67887303D01*
X144627761Y-67960716D01*
X144509515Y-68065471D01*
X144419780Y-68195476D01*
X144363763Y-68343181D01*
X144344721Y-68500000D01*
X144363763Y-68656818D01*
X144419780Y-68804523D01*
X144420149Y-68805058D01*
X144421828Y-68809925D01*
X144425119Y-68818601D01*
X144424857Y-68818700D01*
X144441875Y-68868011D01*
X144427898Y-68933124D01*
X144382252Y-68981617D01*
X144318101Y-68999500D01*
X142624500Y-68999500D01*
X142562500Y-68982887D01*
X142517113Y-68937500D01*
X142500500Y-68875500D01*
X142500500Y-62650000D01*
X143624785Y-62650000D01*
X143643602Y-62853083D01*
X143699418Y-63049251D01*
X143790324Y-63231818D01*
X143913236Y-63394580D01*
X144063958Y-63531981D01*
X144237361Y-63639347D01*
X144237363Y-63639348D01*
X144427544Y-63713024D01*
X144628024Y-63750500D01*
X144831974Y-63750500D01*
X144831976Y-63750500D01*
X145032456Y-63713024D01*
X145222637Y-63639348D01*
X145396041Y-63531981D01*
X145546764Y-63394579D01*
X145669673Y-63231821D01*
X145669673Y-63231819D01*
X145669675Y-63231818D01*
X145715313Y-63140161D01*
X145760582Y-63049250D01*
X145816397Y-62853083D01*
X145835215Y-62650000D01*
X146164785Y-62650000D01*
X146183602Y-62853083D01*
X146239418Y-63049251D01*
X146330324Y-63231818D01*
X146453236Y-63394580D01*
X146603958Y-63531981D01*
X146777361Y-63639347D01*
X146777363Y-63639348D01*
X146967544Y-63713024D01*
X147168024Y-63750500D01*
X147371974Y-63750500D01*
X147371976Y-63750500D01*
X147572456Y-63713024D01*
X147762637Y-63639348D01*
X147936041Y-63531981D01*
X148086764Y-63394579D01*
X148209673Y-63231821D01*
X148209673Y-63231819D01*
X148209675Y-63231818D01*
X148255313Y-63140161D01*
X148300582Y-63049250D01*
X148343048Y-62900000D01*
X148737472Y-62900000D01*
X148779886Y-63049069D01*
X148870751Y-63231553D01*
X148993607Y-63394241D01*
X149144259Y-63531578D01*
X149317588Y-63638899D01*
X149507679Y-63712539D01*
X149560000Y-63722320D01*
X149560000Y-62900000D01*
X150060000Y-62900000D01*
X150060000Y-63722320D01*
X150112320Y-63712539D01*
X150302411Y-63638899D01*
X150475740Y-63531578D01*
X150483312Y-63524675D01*
X151249500Y-63524675D01*
X151264033Y-63597738D01*
X151264033Y-63597739D01*
X151264034Y-63597740D01*
X151319399Y-63680601D01*
X151402260Y-63735966D01*
X151438793Y-63743233D01*
X151475325Y-63750500D01*
X151475326Y-63750500D01*
X153224674Y-63750500D01*
X153224675Y-63750500D01*
X153249029Y-63745655D01*
X153297740Y-63735966D01*
X153380601Y-63680601D01*
X153435966Y-63597740D01*
X153450500Y-63524674D01*
X153450500Y-61775326D01*
X153449126Y-61768421D01*
X153435966Y-61702261D01*
X153435966Y-61702260D01*
X153380601Y-61619399D01*
X153297740Y-61564034D01*
X153297739Y-61564033D01*
X153297738Y-61564033D01*
X153224675Y-61549500D01*
X153224674Y-61549500D01*
X151475326Y-61549500D01*
X151475325Y-61549500D01*
X151402261Y-61564033D01*
X151319399Y-61619399D01*
X151264033Y-61702261D01*
X151249500Y-61775325D01*
X151249500Y-63524675D01*
X150483312Y-63524675D01*
X150626392Y-63394241D01*
X150749248Y-63231553D01*
X150840113Y-63049069D01*
X150882528Y-62900000D01*
X150060000Y-62900000D01*
X149560000Y-62900000D01*
X148737472Y-62900000D01*
X148343048Y-62900000D01*
X148356397Y-62853083D01*
X148375215Y-62650000D01*
X148356397Y-62446917D01*
X148343048Y-62399999D01*
X148737471Y-62399999D01*
X148737472Y-62400000D01*
X149560000Y-62400000D01*
X149560000Y-61577680D01*
X150060000Y-61577680D01*
X150060000Y-62400000D01*
X150882528Y-62400000D01*
X150882528Y-62399999D01*
X150840113Y-62250930D01*
X150749248Y-62068446D01*
X150626392Y-61905758D01*
X150475740Y-61768421D01*
X150302411Y-61661100D01*
X150112320Y-61587460D01*
X150060000Y-61577680D01*
X149560000Y-61577680D01*
X149507679Y-61587460D01*
X149317588Y-61661100D01*
X149144259Y-61768421D01*
X148993607Y-61905758D01*
X148870751Y-62068446D01*
X148779886Y-62250930D01*
X148737471Y-62399999D01*
X148343048Y-62399999D01*
X148300582Y-62250750D01*
X148300209Y-62250001D01*
X148209675Y-62068181D01*
X148086763Y-61905419D01*
X147936041Y-61768018D01*
X147762638Y-61660652D01*
X147572457Y-61586976D01*
X147449726Y-61564034D01*
X147371976Y-61549500D01*
X147168024Y-61549500D01*
X147090279Y-61564033D01*
X146967542Y-61586976D01*
X146777361Y-61660652D01*
X146603958Y-61768018D01*
X146453236Y-61905419D01*
X146330324Y-62068181D01*
X146239418Y-62250748D01*
X146183602Y-62446916D01*
X146164785Y-62650000D01*
X145835215Y-62650000D01*
X145816397Y-62446917D01*
X145760582Y-62250750D01*
X145760209Y-62250001D01*
X145669675Y-62068181D01*
X145546763Y-61905419D01*
X145396041Y-61768018D01*
X145222638Y-61660652D01*
X145032457Y-61586976D01*
X144909726Y-61564034D01*
X144831976Y-61549500D01*
X144628024Y-61549500D01*
X144550279Y-61564033D01*
X144427542Y-61586976D01*
X144237361Y-61660652D01*
X144063958Y-61768018D01*
X143913236Y-61905419D01*
X143790324Y-62068181D01*
X143699418Y-62250748D01*
X143643602Y-62446916D01*
X143624785Y-62650000D01*
X142500500Y-62650000D01*
X142500500Y-54124500D01*
X142517113Y-54062500D01*
X142562500Y-54017113D01*
X142624500Y-54000500D01*
X154375500Y-54000500D01*
X154437500Y-54017113D01*
G37*
%TD.AperFunction*%
%TD*%
%TA.AperFunction,Conductor*%
%TO.N,Board_15-GND*%
G36*
X126437500Y-71017113D02*
G01*
X126482887Y-71062500D01*
X126499500Y-71124500D01*
X126499500Y-85875500D01*
X126482887Y-85937500D01*
X126437500Y-85982887D01*
X126375500Y-85999500D01*
X117681899Y-85999500D01*
X117617748Y-85981617D01*
X117572102Y-85933124D01*
X117558125Y-85868011D01*
X117575142Y-85818700D01*
X117574881Y-85818601D01*
X117578171Y-85809925D01*
X117579851Y-85805058D01*
X117579932Y-85804940D01*
X117580220Y-85804523D01*
X117636237Y-85656818D01*
X117655278Y-85500000D01*
X117649102Y-85449143D01*
X117654980Y-85393751D01*
X117684515Y-85346520D01*
X118485119Y-84545917D01*
X118525348Y-84519037D01*
X118572801Y-84509598D01*
X120114192Y-84509598D01*
X120171819Y-84523802D01*
X120216243Y-84563160D01*
X120220015Y-84568626D01*
X120220016Y-84568627D01*
X120220017Y-84568628D01*
X120338260Y-84673381D01*
X120478135Y-84746794D01*
X120631515Y-84784598D01*
X120789485Y-84784598D01*
X120942865Y-84746794D01*
X121082740Y-84673381D01*
X121200983Y-84568628D01*
X121290720Y-84438621D01*
X121346737Y-84290916D01*
X121365778Y-84134098D01*
X121346737Y-83977280D01*
X121290720Y-83829575D01*
X121231924Y-83744394D01*
X121200984Y-83699569D01*
X121200983Y-83699568D01*
X121082740Y-83594815D01*
X121069494Y-83587862D01*
X120942864Y-83521401D01*
X120789485Y-83483598D01*
X120631515Y-83483598D01*
X120478135Y-83521401D01*
X120338261Y-83594814D01*
X120220015Y-83699569D01*
X120216243Y-83705036D01*
X120171819Y-83744394D01*
X120114192Y-83758598D01*
X118417707Y-83758598D01*
X118392261Y-83755959D01*
X118381635Y-83753731D01*
X118381634Y-83753731D01*
X118363760Y-83755959D01*
X118350225Y-83757646D01*
X118334888Y-83758598D01*
X118334786Y-83758598D01*
X118314301Y-83762016D01*
X118309234Y-83762755D01*
X118249469Y-83770205D01*
X118249214Y-83770287D01*
X118196272Y-83798936D01*
X118191722Y-83801278D01*
X118137617Y-83827730D01*
X118137407Y-83827886D01*
X118096621Y-83872191D01*
X118093074Y-83875887D01*
X117155780Y-84813181D01*
X117115552Y-84840061D01*
X117068099Y-84849500D01*
X116921015Y-84849500D01*
X116767635Y-84887303D01*
X116627761Y-84960716D01*
X116509515Y-85065471D01*
X116419780Y-85195476D01*
X116363763Y-85343181D01*
X116344721Y-85500000D01*
X116363763Y-85656818D01*
X116419780Y-85804523D01*
X116420149Y-85805058D01*
X116421828Y-85809925D01*
X116425119Y-85818601D01*
X116424857Y-85818700D01*
X116441875Y-85868011D01*
X116427898Y-85933124D01*
X116382252Y-85981617D01*
X116318101Y-85999500D01*
X114624500Y-85999500D01*
X114562500Y-85982887D01*
X114517113Y-85937500D01*
X114500500Y-85875500D01*
X114500500Y-79650000D01*
X115624785Y-79650000D01*
X115643602Y-79853083D01*
X115699418Y-80049251D01*
X115790324Y-80231818D01*
X115913236Y-80394580D01*
X116063958Y-80531981D01*
X116237361Y-80639347D01*
X116237363Y-80639348D01*
X116427544Y-80713024D01*
X116628024Y-80750500D01*
X116831974Y-80750500D01*
X116831976Y-80750500D01*
X117032456Y-80713024D01*
X117222637Y-80639348D01*
X117396041Y-80531981D01*
X117546764Y-80394579D01*
X117669673Y-80231821D01*
X117669673Y-80231819D01*
X117669675Y-80231818D01*
X117715313Y-80140161D01*
X117760582Y-80049250D01*
X117816397Y-79853083D01*
X117835215Y-79650000D01*
X118164785Y-79650000D01*
X118183602Y-79853083D01*
X118239418Y-80049251D01*
X118330324Y-80231818D01*
X118453236Y-80394580D01*
X118603958Y-80531981D01*
X118777361Y-80639347D01*
X118777363Y-80639348D01*
X118967544Y-80713024D01*
X119168024Y-80750500D01*
X119371974Y-80750500D01*
X119371976Y-80750500D01*
X119572456Y-80713024D01*
X119762637Y-80639348D01*
X119936041Y-80531981D01*
X120086764Y-80394579D01*
X120209673Y-80231821D01*
X120209673Y-80231819D01*
X120209675Y-80231818D01*
X120255313Y-80140161D01*
X120300582Y-80049250D01*
X120343048Y-79900000D01*
X120737472Y-79900000D01*
X120779886Y-80049069D01*
X120870751Y-80231553D01*
X120993607Y-80394241D01*
X121144259Y-80531578D01*
X121317588Y-80638899D01*
X121507679Y-80712539D01*
X121560000Y-80722320D01*
X121560000Y-79900000D01*
X122060000Y-79900000D01*
X122060000Y-80722320D01*
X122112320Y-80712539D01*
X122302411Y-80638899D01*
X122475740Y-80531578D01*
X122483312Y-80524675D01*
X123249500Y-80524675D01*
X123264033Y-80597738D01*
X123264033Y-80597739D01*
X123264034Y-80597740D01*
X123319399Y-80680601D01*
X123402260Y-80735966D01*
X123438793Y-80743233D01*
X123475325Y-80750500D01*
X123475326Y-80750500D01*
X125224674Y-80750500D01*
X125224675Y-80750500D01*
X125249029Y-80745655D01*
X125297740Y-80735966D01*
X125380601Y-80680601D01*
X125435966Y-80597740D01*
X125450500Y-80524674D01*
X125450500Y-78775326D01*
X125449126Y-78768421D01*
X125435966Y-78702261D01*
X125435966Y-78702260D01*
X125380601Y-78619399D01*
X125297740Y-78564034D01*
X125297739Y-78564033D01*
X125297738Y-78564033D01*
X125224675Y-78549500D01*
X125224674Y-78549500D01*
X123475326Y-78549500D01*
X123475325Y-78549500D01*
X123402261Y-78564033D01*
X123319399Y-78619399D01*
X123264033Y-78702261D01*
X123249500Y-78775325D01*
X123249500Y-80524675D01*
X122483312Y-80524675D01*
X122626392Y-80394241D01*
X122749248Y-80231553D01*
X122840113Y-80049069D01*
X122882528Y-79900000D01*
X122060000Y-79900000D01*
X121560000Y-79900000D01*
X120737472Y-79900000D01*
X120343048Y-79900000D01*
X120356397Y-79853083D01*
X120375215Y-79650000D01*
X120356397Y-79446917D01*
X120343048Y-79399999D01*
X120737471Y-79399999D01*
X120737472Y-79400000D01*
X121560000Y-79400000D01*
X121560000Y-78577680D01*
X122060000Y-78577680D01*
X122060000Y-79400000D01*
X122882528Y-79400000D01*
X122882528Y-79399999D01*
X122840113Y-79250930D01*
X122749248Y-79068446D01*
X122626392Y-78905758D01*
X122475740Y-78768421D01*
X122302411Y-78661100D01*
X122112320Y-78587460D01*
X122060000Y-78577680D01*
X121560000Y-78577680D01*
X121507679Y-78587460D01*
X121317588Y-78661100D01*
X121144259Y-78768421D01*
X120993607Y-78905758D01*
X120870751Y-79068446D01*
X120779886Y-79250930D01*
X120737471Y-79399999D01*
X120343048Y-79399999D01*
X120300582Y-79250750D01*
X120300209Y-79250001D01*
X120209675Y-79068181D01*
X120086763Y-78905419D01*
X119936041Y-78768018D01*
X119762638Y-78660652D01*
X119572457Y-78586976D01*
X119449726Y-78564034D01*
X119371976Y-78549500D01*
X119168024Y-78549500D01*
X119090279Y-78564033D01*
X118967542Y-78586976D01*
X118777361Y-78660652D01*
X118603958Y-78768018D01*
X118453236Y-78905419D01*
X118330324Y-79068181D01*
X118239418Y-79250748D01*
X118183602Y-79446916D01*
X118164785Y-79650000D01*
X117835215Y-79650000D01*
X117816397Y-79446917D01*
X117760582Y-79250750D01*
X117760209Y-79250001D01*
X117669675Y-79068181D01*
X117546763Y-78905419D01*
X117396041Y-78768018D01*
X117222638Y-78660652D01*
X117032457Y-78586976D01*
X116909726Y-78564034D01*
X116831976Y-78549500D01*
X116628024Y-78549500D01*
X116550279Y-78564033D01*
X116427542Y-78586976D01*
X116237361Y-78660652D01*
X116063958Y-78768018D01*
X115913236Y-78905419D01*
X115790324Y-79068181D01*
X115699418Y-79250748D01*
X115643602Y-79446916D01*
X115624785Y-79650000D01*
X114500500Y-79650000D01*
X114500500Y-71124500D01*
X114517113Y-71062500D01*
X114562500Y-71017113D01*
X114624500Y-71000500D01*
X126375500Y-71000500D01*
X126437500Y-71017113D01*
G37*
%TD.AperFunction*%
%TD*%
%TA.AperFunction,Conductor*%
%TO.N,Board_19-GND*%
G36*
X182437500Y-71017113D02*
G01*
X182482887Y-71062500D01*
X182499500Y-71124500D01*
X182499500Y-85875500D01*
X182482887Y-85937500D01*
X182437500Y-85982887D01*
X182375500Y-85999500D01*
X173681899Y-85999500D01*
X173617748Y-85981617D01*
X173572102Y-85933124D01*
X173558125Y-85868011D01*
X173575142Y-85818700D01*
X173574881Y-85818601D01*
X173578171Y-85809925D01*
X173579851Y-85805058D01*
X173579932Y-85804940D01*
X173580220Y-85804523D01*
X173636237Y-85656818D01*
X173655278Y-85500000D01*
X173649102Y-85449143D01*
X173654980Y-85393751D01*
X173684515Y-85346520D01*
X174485119Y-84545917D01*
X174525348Y-84519037D01*
X174572801Y-84509598D01*
X176114192Y-84509598D01*
X176171819Y-84523802D01*
X176216243Y-84563160D01*
X176220015Y-84568626D01*
X176220016Y-84568627D01*
X176220017Y-84568628D01*
X176338260Y-84673381D01*
X176478135Y-84746794D01*
X176631515Y-84784598D01*
X176789485Y-84784598D01*
X176942865Y-84746794D01*
X177082740Y-84673381D01*
X177200983Y-84568628D01*
X177290720Y-84438621D01*
X177346737Y-84290916D01*
X177365778Y-84134098D01*
X177346737Y-83977280D01*
X177290720Y-83829575D01*
X177231924Y-83744394D01*
X177200984Y-83699569D01*
X177200983Y-83699568D01*
X177082740Y-83594815D01*
X177069494Y-83587862D01*
X176942864Y-83521401D01*
X176789485Y-83483598D01*
X176631515Y-83483598D01*
X176478135Y-83521401D01*
X176338261Y-83594814D01*
X176220015Y-83699569D01*
X176216243Y-83705036D01*
X176171819Y-83744394D01*
X176114192Y-83758598D01*
X174417707Y-83758598D01*
X174392261Y-83755959D01*
X174381635Y-83753731D01*
X174381634Y-83753731D01*
X174363760Y-83755959D01*
X174350225Y-83757646D01*
X174334888Y-83758598D01*
X174334786Y-83758598D01*
X174314301Y-83762016D01*
X174309234Y-83762755D01*
X174249469Y-83770205D01*
X174249214Y-83770287D01*
X174196272Y-83798936D01*
X174191722Y-83801278D01*
X174137617Y-83827730D01*
X174137407Y-83827886D01*
X174096621Y-83872191D01*
X174093074Y-83875887D01*
X173155780Y-84813181D01*
X173115552Y-84840061D01*
X173068099Y-84849500D01*
X172921015Y-84849500D01*
X172767635Y-84887303D01*
X172627761Y-84960716D01*
X172509515Y-85065471D01*
X172419780Y-85195476D01*
X172363763Y-85343181D01*
X172344721Y-85500000D01*
X172363763Y-85656818D01*
X172419780Y-85804523D01*
X172420149Y-85805058D01*
X172421828Y-85809925D01*
X172425119Y-85818601D01*
X172424857Y-85818700D01*
X172441875Y-85868011D01*
X172427898Y-85933124D01*
X172382252Y-85981617D01*
X172318101Y-85999500D01*
X170624500Y-85999500D01*
X170562500Y-85982887D01*
X170517113Y-85937500D01*
X170500500Y-85875500D01*
X170500500Y-79650000D01*
X171624785Y-79650000D01*
X171643602Y-79853083D01*
X171699418Y-80049251D01*
X171790324Y-80231818D01*
X171913236Y-80394580D01*
X172063958Y-80531981D01*
X172237361Y-80639347D01*
X172237363Y-80639348D01*
X172427544Y-80713024D01*
X172628024Y-80750500D01*
X172831974Y-80750500D01*
X172831976Y-80750500D01*
X173032456Y-80713024D01*
X173222637Y-80639348D01*
X173396041Y-80531981D01*
X173546764Y-80394579D01*
X173669673Y-80231821D01*
X173669673Y-80231819D01*
X173669675Y-80231818D01*
X173715313Y-80140161D01*
X173760582Y-80049250D01*
X173816397Y-79853083D01*
X173835215Y-79650000D01*
X174164785Y-79650000D01*
X174183602Y-79853083D01*
X174239418Y-80049251D01*
X174330324Y-80231818D01*
X174453236Y-80394580D01*
X174603958Y-80531981D01*
X174777361Y-80639347D01*
X174777363Y-80639348D01*
X174967544Y-80713024D01*
X175168024Y-80750500D01*
X175371974Y-80750500D01*
X175371976Y-80750500D01*
X175572456Y-80713024D01*
X175762637Y-80639348D01*
X175936041Y-80531981D01*
X176086764Y-80394579D01*
X176209673Y-80231821D01*
X176209673Y-80231819D01*
X176209675Y-80231818D01*
X176255313Y-80140161D01*
X176300582Y-80049250D01*
X176343048Y-79900000D01*
X176737472Y-79900000D01*
X176779886Y-80049069D01*
X176870751Y-80231553D01*
X176993607Y-80394241D01*
X177144259Y-80531578D01*
X177317588Y-80638899D01*
X177507679Y-80712539D01*
X177560000Y-80722320D01*
X177560000Y-79900000D01*
X178060000Y-79900000D01*
X178060000Y-80722320D01*
X178112320Y-80712539D01*
X178302411Y-80638899D01*
X178475740Y-80531578D01*
X178483312Y-80524675D01*
X179249500Y-80524675D01*
X179264033Y-80597738D01*
X179264033Y-80597739D01*
X179264034Y-80597740D01*
X179319399Y-80680601D01*
X179402260Y-80735966D01*
X179438793Y-80743233D01*
X179475325Y-80750500D01*
X179475326Y-80750500D01*
X181224674Y-80750500D01*
X181224675Y-80750500D01*
X181249029Y-80745655D01*
X181297740Y-80735966D01*
X181380601Y-80680601D01*
X181435966Y-80597740D01*
X181450500Y-80524674D01*
X181450500Y-78775326D01*
X181449126Y-78768421D01*
X181435966Y-78702261D01*
X181435966Y-78702260D01*
X181380601Y-78619399D01*
X181297740Y-78564034D01*
X181297739Y-78564033D01*
X181297738Y-78564033D01*
X181224675Y-78549500D01*
X181224674Y-78549500D01*
X179475326Y-78549500D01*
X179475325Y-78549500D01*
X179402261Y-78564033D01*
X179319399Y-78619399D01*
X179264033Y-78702261D01*
X179249500Y-78775325D01*
X179249500Y-80524675D01*
X178483312Y-80524675D01*
X178626392Y-80394241D01*
X178749248Y-80231553D01*
X178840113Y-80049069D01*
X178882528Y-79900000D01*
X178060000Y-79900000D01*
X177560000Y-79900000D01*
X176737472Y-79900000D01*
X176343048Y-79900000D01*
X176356397Y-79853083D01*
X176375215Y-79650000D01*
X176356397Y-79446917D01*
X176343048Y-79399999D01*
X176737471Y-79399999D01*
X176737472Y-79400000D01*
X177560000Y-79400000D01*
X177560000Y-78577680D01*
X178060000Y-78577680D01*
X178060000Y-79400000D01*
X178882528Y-79400000D01*
X178882528Y-79399999D01*
X178840113Y-79250930D01*
X178749248Y-79068446D01*
X178626392Y-78905758D01*
X178475740Y-78768421D01*
X178302411Y-78661100D01*
X178112320Y-78587460D01*
X178060000Y-78577680D01*
X177560000Y-78577680D01*
X177507679Y-78587460D01*
X177317588Y-78661100D01*
X177144259Y-78768421D01*
X176993607Y-78905758D01*
X176870751Y-79068446D01*
X176779886Y-79250930D01*
X176737471Y-79399999D01*
X176343048Y-79399999D01*
X176300582Y-79250750D01*
X176300209Y-79250001D01*
X176209675Y-79068181D01*
X176086763Y-78905419D01*
X175936041Y-78768018D01*
X175762638Y-78660652D01*
X175572457Y-78586976D01*
X175449726Y-78564034D01*
X175371976Y-78549500D01*
X175168024Y-78549500D01*
X175090279Y-78564033D01*
X174967542Y-78586976D01*
X174777361Y-78660652D01*
X174603958Y-78768018D01*
X174453236Y-78905419D01*
X174330324Y-79068181D01*
X174239418Y-79250748D01*
X174183602Y-79446916D01*
X174164785Y-79650000D01*
X173835215Y-79650000D01*
X173816397Y-79446917D01*
X173760582Y-79250750D01*
X173760209Y-79250001D01*
X173669675Y-79068181D01*
X173546763Y-78905419D01*
X173396041Y-78768018D01*
X173222638Y-78660652D01*
X173032457Y-78586976D01*
X172909726Y-78564034D01*
X172831976Y-78549500D01*
X172628024Y-78549500D01*
X172550279Y-78564033D01*
X172427542Y-78586976D01*
X172237361Y-78660652D01*
X172063958Y-78768018D01*
X171913236Y-78905419D01*
X171790324Y-79068181D01*
X171699418Y-79250748D01*
X171643602Y-79446916D01*
X171624785Y-79650000D01*
X170500500Y-79650000D01*
X170500500Y-71124500D01*
X170517113Y-71062500D01*
X170562500Y-71017113D01*
X170624500Y-71000500D01*
X182375500Y-71000500D01*
X182437500Y-71017113D01*
G37*
%TD.AperFunction*%
%TD*%
M02*
