%TF.GenerationSoftware,KiCad,Pcbnew,7.0.1*%
%TF.CreationDate,2024-10-11T23:35:26-04:00*%
%TF.ProjectId,TrackRing-panel,54726163-6b52-4696-9e67-2d70616e656c,rev?*%
%TF.SameCoordinates,Original*%
%TF.FileFunction,Soldermask,Top*%
%TF.FilePolarity,Negative*%
%FSLAX46Y46*%
G04 Gerber Fmt 4.6, Leading zero omitted, Abs format (unit mm)*
G04 Created by KiCad (PCBNEW 7.0.1) date 2024-10-11 23:35:26*
%MOMM*%
%LPD*%
G01*
G04 APERTURE LIST*
G04 Aperture macros list*
%AMRoundRect*
0 Rectangle with rounded corners*
0 $1 Rounding radius*
0 $2 $3 $4 $5 $6 $7 $8 $9 X,Y pos of 4 corners*
0 Add a 4 corners polygon primitive as box body*
4,1,4,$2,$3,$4,$5,$6,$7,$8,$9,$2,$3,0*
0 Add four circle primitives for the rounded corners*
1,1,$1+$1,$2,$3*
1,1,$1+$1,$4,$5*
1,1,$1+$1,$6,$7*
1,1,$1+$1,$8,$9*
0 Add four rect primitives between the rounded corners*
20,1,$1+$1,$2,$3,$4,$5,0*
20,1,$1+$1,$4,$5,$6,$7,0*
20,1,$1+$1,$6,$7,$8,$9,0*
20,1,$1+$1,$8,$9,$2,$3,0*%
G04 Aperture macros list end*
%ADD10R,1.700000X1.700000*%
%ADD11O,1.700000X1.700000*%
%ADD12RoundRect,0.135000X-0.185000X0.135000X-0.185000X-0.135000X0.185000X-0.135000X0.185000X0.135000X0*%
%ADD13RoundRect,0.140000X0.140000X0.170000X-0.140000X0.170000X-0.140000X-0.170000X0.140000X-0.170000X0*%
%ADD14RoundRect,0.218750X0.256250X-0.218750X0.256250X0.218750X-0.256250X0.218750X-0.256250X-0.218750X0*%
%ADD15RoundRect,0.135000X0.185000X-0.135000X0.185000X0.135000X-0.185000X0.135000X-0.185000X-0.135000X0*%
%ADD16R,0.700000X0.510000*%
G04 APERTURE END LIST*
D10*
%TO.C,J1*%
X138350000Y-28650000D03*
D11*
X135810000Y-28650000D03*
X133270000Y-28650000D03*
X130730000Y-28650000D03*
%TD*%
D10*
%TO.C,J1*%
X166350000Y-79650000D03*
D11*
X163810000Y-79650000D03*
X161270000Y-79650000D03*
X158730000Y-79650000D03*
%TD*%
D10*
%TO.C,J1*%
X180350000Y-28650000D03*
D11*
X177810000Y-28650000D03*
X175270000Y-28650000D03*
X172730000Y-28650000D03*
%TD*%
D10*
%TO.C,J1*%
X152350000Y-45650000D03*
D11*
X149810000Y-45650000D03*
X147270000Y-45650000D03*
X144730000Y-45650000D03*
%TD*%
D10*
%TO.C,J1*%
X166350000Y-45650000D03*
D11*
X163810000Y-45650000D03*
X161270000Y-45650000D03*
X158730000Y-45650000D03*
%TD*%
D10*
%TO.C,J1*%
X124350000Y-62650000D03*
D11*
X121810000Y-62650000D03*
X119270000Y-62650000D03*
X116730000Y-62650000D03*
%TD*%
D10*
%TO.C,J1*%
X180350000Y-45650000D03*
D11*
X177810000Y-45650000D03*
X175270000Y-45650000D03*
X172730000Y-45650000D03*
%TD*%
D10*
%TO.C,J1*%
X166350000Y-28650000D03*
D11*
X163810000Y-28650000D03*
X161270000Y-28650000D03*
X158730000Y-28650000D03*
%TD*%
D10*
%TO.C,J1*%
X138350000Y-45650000D03*
D11*
X135810000Y-45650000D03*
X133270000Y-45650000D03*
X130730000Y-45650000D03*
%TD*%
D10*
%TO.C,J1*%
X124350000Y-28650000D03*
D11*
X121810000Y-28650000D03*
X119270000Y-28650000D03*
X116730000Y-28650000D03*
%TD*%
D10*
%TO.C,J1*%
X124350000Y-45650000D03*
D11*
X121810000Y-45650000D03*
X119270000Y-45650000D03*
X116730000Y-45650000D03*
%TD*%
D10*
%TO.C,J1*%
X152350000Y-28650000D03*
D11*
X149810000Y-28650000D03*
X147270000Y-28650000D03*
X144730000Y-28650000D03*
%TD*%
D10*
%TO.C,J1*%
X180350000Y-79650000D03*
D11*
X177810000Y-79650000D03*
X175270000Y-79650000D03*
X172730000Y-79650000D03*
%TD*%
D10*
%TO.C,J1*%
X138350000Y-62650000D03*
D11*
X135810000Y-62650000D03*
X133270000Y-62650000D03*
X130730000Y-62650000D03*
%TD*%
D10*
%TO.C,J1*%
X124350000Y-96650000D03*
D11*
X121810000Y-96650000D03*
X119270000Y-96650000D03*
X116730000Y-96650000D03*
%TD*%
D10*
%TO.C,J1*%
X124350000Y-79650000D03*
D11*
X121810000Y-79650000D03*
X119270000Y-79650000D03*
X116730000Y-79650000D03*
%TD*%
D10*
%TO.C,J1*%
X138350000Y-96650000D03*
D11*
X135810000Y-96650000D03*
X133270000Y-96650000D03*
X130730000Y-96650000D03*
%TD*%
D10*
%TO.C,J1*%
X166350000Y-62650000D03*
D11*
X163810000Y-62650000D03*
X161270000Y-62650000D03*
X158730000Y-62650000D03*
%TD*%
D10*
%TO.C,J1*%
X152350000Y-62650000D03*
D11*
X149810000Y-62650000D03*
X147270000Y-62650000D03*
X144730000Y-62650000D03*
%TD*%
D10*
%TO.C,J1*%
X138350000Y-79650000D03*
D11*
X135810000Y-79650000D03*
X133270000Y-79650000D03*
X130730000Y-79650000D03*
%TD*%
D10*
%TO.C,J1*%
X152350000Y-79650000D03*
D11*
X149810000Y-79650000D03*
X147270000Y-79650000D03*
X144730000Y-79650000D03*
%TD*%
D10*
%TO.C,J1*%
X180350000Y-62650000D03*
D11*
X177810000Y-62650000D03*
X175270000Y-62650000D03*
X172730000Y-62650000D03*
%TD*%
D10*
%TO.C,J1*%
X180350000Y-96650000D03*
D11*
X177810000Y-96650000D03*
X175270000Y-96650000D03*
X172730000Y-96650000D03*
%TD*%
D10*
%TO.C,J1*%
X152350000Y-96650000D03*
D11*
X149810000Y-96650000D03*
X147270000Y-96650000D03*
X144730000Y-96650000D03*
%TD*%
D10*
%TO.C,J1*%
X166350000Y-96650000D03*
D11*
X163810000Y-96650000D03*
X161270000Y-96650000D03*
X158730000Y-96650000D03*
%TD*%
D12*
%TO.C,R2*%
X116000000Y-30990000D03*
X116000000Y-32010000D03*
%TD*%
%TO.C,R2*%
X144000000Y-30990000D03*
X144000000Y-32010000D03*
%TD*%
%TO.C,R2*%
X116000000Y-47990000D03*
X116000000Y-49010000D03*
%TD*%
%TO.C,R2*%
X130000000Y-30990000D03*
X130000000Y-32010000D03*
%TD*%
%TO.C,R2*%
X158000000Y-30990000D03*
X158000000Y-32010000D03*
%TD*%
%TO.C,R2*%
X158000000Y-81990000D03*
X158000000Y-83010000D03*
%TD*%
%TO.C,R2*%
X172000000Y-30990000D03*
X172000000Y-32010000D03*
%TD*%
%TO.C,R2*%
X144000000Y-47990000D03*
X144000000Y-49010000D03*
%TD*%
%TO.C,R2*%
X130000000Y-47990000D03*
X130000000Y-49010000D03*
%TD*%
%TO.C,R2*%
X172000000Y-47990000D03*
X172000000Y-49010000D03*
%TD*%
%TO.C,R2*%
X116000000Y-64990000D03*
X116000000Y-66010000D03*
%TD*%
%TO.C,R2*%
X144000000Y-64990000D03*
X144000000Y-66010000D03*
%TD*%
%TO.C,R2*%
X158000000Y-64990000D03*
X158000000Y-66010000D03*
%TD*%
%TO.C,R2*%
X172000000Y-64990000D03*
X172000000Y-66010000D03*
%TD*%
%TO.C,R2*%
X130000000Y-64990000D03*
X130000000Y-66010000D03*
%TD*%
%TO.C,R2*%
X116000000Y-81990000D03*
X116000000Y-83010000D03*
%TD*%
%TO.C,R2*%
X158000000Y-47990000D03*
X158000000Y-49010000D03*
%TD*%
%TO.C,R2*%
X130000000Y-81990000D03*
X130000000Y-83010000D03*
%TD*%
%TO.C,R2*%
X144000000Y-81990000D03*
X144000000Y-83010000D03*
%TD*%
%TO.C,R2*%
X144000000Y-98990000D03*
X144000000Y-100010000D03*
%TD*%
%TO.C,R2*%
X158000000Y-98990000D03*
X158000000Y-100010000D03*
%TD*%
%TO.C,R2*%
X116000000Y-98990000D03*
X116000000Y-100010000D03*
%TD*%
%TO.C,R2*%
X172000000Y-81990000D03*
X172000000Y-83010000D03*
%TD*%
%TO.C,R2*%
X130000000Y-98990000D03*
X130000000Y-100010000D03*
%TD*%
%TO.C,R2*%
X172000000Y-98990000D03*
X172000000Y-100010000D03*
%TD*%
D13*
%TO.C,C1*%
X124230000Y-34175000D03*
X123270000Y-34175000D03*
%TD*%
%TO.C,C1*%
X166230000Y-85175000D03*
X165270000Y-85175000D03*
%TD*%
%TO.C,C1*%
X166230000Y-34175000D03*
X165270000Y-34175000D03*
%TD*%
%TO.C,C1*%
X152230000Y-34175000D03*
X151270000Y-34175000D03*
%TD*%
%TO.C,C1*%
X138230000Y-51175000D03*
X137270000Y-51175000D03*
%TD*%
%TO.C,C1*%
X152230000Y-51175000D03*
X151270000Y-51175000D03*
%TD*%
%TO.C,C1*%
X124230000Y-51175000D03*
X123270000Y-51175000D03*
%TD*%
%TO.C,C1*%
X180230000Y-51175000D03*
X179270000Y-51175000D03*
%TD*%
%TO.C,C1*%
X166230000Y-51175000D03*
X165270000Y-51175000D03*
%TD*%
%TO.C,C1*%
X124230000Y-68175000D03*
X123270000Y-68175000D03*
%TD*%
%TO.C,C1*%
X138230000Y-34175000D03*
X137270000Y-34175000D03*
%TD*%
%TO.C,C1*%
X180230000Y-34175000D03*
X179270000Y-34175000D03*
%TD*%
%TO.C,C1*%
X180230000Y-68175000D03*
X179270000Y-68175000D03*
%TD*%
%TO.C,C1*%
X138230000Y-85175000D03*
X137270000Y-85175000D03*
%TD*%
%TO.C,C1*%
X152230000Y-85175000D03*
X151270000Y-85175000D03*
%TD*%
%TO.C,C1*%
X138230000Y-68175000D03*
X137270000Y-68175000D03*
%TD*%
%TO.C,C1*%
X166230000Y-68175000D03*
X165270000Y-68175000D03*
%TD*%
%TO.C,C1*%
X124230000Y-102175000D03*
X123270000Y-102175000D03*
%TD*%
%TO.C,C1*%
X138230000Y-102175000D03*
X137270000Y-102175000D03*
%TD*%
%TO.C,C1*%
X124230000Y-85175000D03*
X123270000Y-85175000D03*
%TD*%
%TO.C,C1*%
X180230000Y-85175000D03*
X179270000Y-85175000D03*
%TD*%
%TO.C,C1*%
X152230000Y-68175000D03*
X151270000Y-68175000D03*
%TD*%
%TO.C,C1*%
X152230000Y-102175000D03*
X151270000Y-102175000D03*
%TD*%
%TO.C,C1*%
X180230000Y-102175000D03*
X179270000Y-102175000D03*
%TD*%
%TO.C,C1*%
X166230000Y-102175000D03*
X165270000Y-102175000D03*
%TD*%
D14*
%TO.C,D1*%
X124500000Y-49787500D03*
X124500000Y-48212500D03*
%TD*%
%TO.C,D1*%
X152500000Y-32787500D03*
X152500000Y-31212500D03*
%TD*%
%TO.C,D1*%
X166500000Y-32787500D03*
X166500000Y-31212500D03*
%TD*%
%TO.C,D1*%
X180500000Y-32787500D03*
X180500000Y-31212500D03*
%TD*%
%TO.C,D1*%
X138500000Y-32787500D03*
X138500000Y-31212500D03*
%TD*%
%TO.C,D1*%
X166500000Y-83787500D03*
X166500000Y-82212500D03*
%TD*%
%TO.C,D1*%
X124500000Y-32787500D03*
X124500000Y-31212500D03*
%TD*%
%TO.C,D1*%
X166500000Y-49787500D03*
X166500000Y-48212500D03*
%TD*%
%TO.C,D1*%
X180500000Y-49787500D03*
X180500000Y-48212500D03*
%TD*%
%TO.C,D1*%
X138500000Y-66787500D03*
X138500000Y-65212500D03*
%TD*%
%TO.C,D1*%
X180500000Y-66787500D03*
X180500000Y-65212500D03*
%TD*%
%TO.C,D1*%
X152500000Y-66787500D03*
X152500000Y-65212500D03*
%TD*%
%TO.C,D1*%
X166500000Y-66787500D03*
X166500000Y-65212500D03*
%TD*%
%TO.C,D1*%
X138500000Y-49787500D03*
X138500000Y-48212500D03*
%TD*%
%TO.C,D1*%
X124500000Y-83787500D03*
X124500000Y-82212500D03*
%TD*%
%TO.C,D1*%
X152500000Y-49787500D03*
X152500000Y-48212500D03*
%TD*%
%TO.C,D1*%
X124500000Y-66787500D03*
X124500000Y-65212500D03*
%TD*%
%TO.C,D1*%
X124500000Y-100787500D03*
X124500000Y-99212500D03*
%TD*%
%TO.C,D1*%
X166500000Y-100787500D03*
X166500000Y-99212500D03*
%TD*%
%TO.C,D1*%
X152500000Y-83787500D03*
X152500000Y-82212500D03*
%TD*%
%TO.C,D1*%
X138500000Y-100787500D03*
X138500000Y-99212500D03*
%TD*%
%TO.C,D1*%
X152500000Y-100787500D03*
X152500000Y-99212500D03*
%TD*%
%TO.C,D1*%
X138500000Y-83787500D03*
X138500000Y-82212500D03*
%TD*%
%TO.C,D1*%
X180500000Y-83787500D03*
X180500000Y-82212500D03*
%TD*%
%TO.C,D1*%
X180500000Y-100787500D03*
X180500000Y-99212500D03*
%TD*%
D15*
%TO.C,R4*%
X130000000Y-34510000D03*
X130000000Y-33490000D03*
%TD*%
%TO.C,R4*%
X158000000Y-85510000D03*
X158000000Y-84490000D03*
%TD*%
%TO.C,R4*%
X116000000Y-51510000D03*
X116000000Y-50490000D03*
%TD*%
%TO.C,R4*%
X144000000Y-34510000D03*
X144000000Y-33490000D03*
%TD*%
%TO.C,R4*%
X158000000Y-34510000D03*
X158000000Y-33490000D03*
%TD*%
%TO.C,R4*%
X172000000Y-34510000D03*
X172000000Y-33490000D03*
%TD*%
%TO.C,R4*%
X130000000Y-51510000D03*
X130000000Y-50490000D03*
%TD*%
%TO.C,R4*%
X144000000Y-51510000D03*
X144000000Y-50490000D03*
%TD*%
%TO.C,R4*%
X116000000Y-34510000D03*
X116000000Y-33490000D03*
%TD*%
%TO.C,R4*%
X158000000Y-51510000D03*
X158000000Y-50490000D03*
%TD*%
%TO.C,R4*%
X116000000Y-68510000D03*
X116000000Y-67490000D03*
%TD*%
%TO.C,R4*%
X172000000Y-51510000D03*
X172000000Y-50490000D03*
%TD*%
%TO.C,R4*%
X130000000Y-68510000D03*
X130000000Y-67490000D03*
%TD*%
%TO.C,R4*%
X158000000Y-68510000D03*
X158000000Y-67490000D03*
%TD*%
%TO.C,R4*%
X116000000Y-102510000D03*
X116000000Y-101490000D03*
%TD*%
%TO.C,R4*%
X116000000Y-85510000D03*
X116000000Y-84490000D03*
%TD*%
%TO.C,R4*%
X158000000Y-102510000D03*
X158000000Y-101490000D03*
%TD*%
%TO.C,R4*%
X130000000Y-102510000D03*
X130000000Y-101490000D03*
%TD*%
%TO.C,R4*%
X144000000Y-85510000D03*
X144000000Y-84490000D03*
%TD*%
%TO.C,R4*%
X172000000Y-102510000D03*
X172000000Y-101490000D03*
%TD*%
%TO.C,R4*%
X172000000Y-68510000D03*
X172000000Y-67490000D03*
%TD*%
%TO.C,R4*%
X144000000Y-68510000D03*
X144000000Y-67490000D03*
%TD*%
%TO.C,R4*%
X172000000Y-85510000D03*
X172000000Y-84490000D03*
%TD*%
%TO.C,R4*%
X144000000Y-102510000D03*
X144000000Y-101490000D03*
%TD*%
%TO.C,R4*%
X130000000Y-85510000D03*
X130000000Y-84490000D03*
%TD*%
D12*
%TO.C,R1*%
X159750000Y-30990000D03*
X159750000Y-32010000D03*
%TD*%
%TO.C,R1*%
X131750000Y-47990000D03*
X131750000Y-49010000D03*
%TD*%
%TO.C,R1*%
X145750000Y-47990000D03*
X145750000Y-49010000D03*
%TD*%
%TO.C,R1*%
X117750000Y-30990000D03*
X117750000Y-32010000D03*
%TD*%
%TO.C,R1*%
X145750000Y-30990000D03*
X145750000Y-32010000D03*
%TD*%
%TO.C,R1*%
X173750000Y-30990000D03*
X173750000Y-32010000D03*
%TD*%
%TO.C,R1*%
X131750000Y-30990000D03*
X131750000Y-32010000D03*
%TD*%
%TO.C,R1*%
X117750000Y-47990000D03*
X117750000Y-49010000D03*
%TD*%
%TO.C,R1*%
X159750000Y-81990000D03*
X159750000Y-83010000D03*
%TD*%
%TO.C,R1*%
X159750000Y-98990000D03*
X159750000Y-100010000D03*
%TD*%
%TO.C,R1*%
X173750000Y-47990000D03*
X173750000Y-49010000D03*
%TD*%
%TO.C,R1*%
X159750000Y-64990000D03*
X159750000Y-66010000D03*
%TD*%
%TO.C,R1*%
X145750000Y-81990000D03*
X145750000Y-83010000D03*
%TD*%
%TO.C,R1*%
X131750000Y-64990000D03*
X131750000Y-66010000D03*
%TD*%
%TO.C,R1*%
X145750000Y-64990000D03*
X145750000Y-66010000D03*
%TD*%
%TO.C,R1*%
X173750000Y-64990000D03*
X173750000Y-66010000D03*
%TD*%
%TO.C,R1*%
X173750000Y-81990000D03*
X173750000Y-83010000D03*
%TD*%
%TO.C,R1*%
X131750000Y-98990000D03*
X131750000Y-100010000D03*
%TD*%
%TO.C,R1*%
X145750000Y-98990000D03*
X145750000Y-100010000D03*
%TD*%
%TO.C,R1*%
X159750000Y-47990000D03*
X159750000Y-49010000D03*
%TD*%
%TO.C,R1*%
X173750000Y-98990000D03*
X173750000Y-100010000D03*
%TD*%
%TO.C,R1*%
X117750000Y-64990000D03*
X117750000Y-66010000D03*
%TD*%
%TO.C,R1*%
X131750000Y-81990000D03*
X131750000Y-83010000D03*
%TD*%
%TO.C,R1*%
X117750000Y-81990000D03*
X117750000Y-83010000D03*
%TD*%
%TO.C,R1*%
X117750000Y-98990000D03*
X117750000Y-100010000D03*
%TD*%
D15*
%TO.C,R5*%
X140000000Y-33010000D03*
X140000000Y-31990000D03*
%TD*%
%TO.C,R5*%
X168000000Y-33010000D03*
X168000000Y-31990000D03*
%TD*%
%TO.C,R5*%
X154000000Y-33010000D03*
X154000000Y-31990000D03*
%TD*%
%TO.C,R5*%
X168000000Y-84010000D03*
X168000000Y-82990000D03*
%TD*%
%TO.C,R5*%
X126000000Y-33010000D03*
X126000000Y-31990000D03*
%TD*%
%TO.C,R5*%
X154000000Y-101010000D03*
X154000000Y-99990000D03*
%TD*%
%TO.C,R5*%
X140000000Y-50010000D03*
X140000000Y-48990000D03*
%TD*%
%TO.C,R5*%
X182000000Y-101010000D03*
X182000000Y-99990000D03*
%TD*%
%TO.C,R5*%
X154000000Y-84010000D03*
X154000000Y-82990000D03*
%TD*%
%TO.C,R5*%
X182000000Y-50010000D03*
X182000000Y-48990000D03*
%TD*%
%TO.C,R5*%
X140000000Y-67010000D03*
X140000000Y-65990000D03*
%TD*%
%TO.C,R5*%
X126000000Y-67010000D03*
X126000000Y-65990000D03*
%TD*%
%TO.C,R5*%
X126000000Y-84010000D03*
X126000000Y-82990000D03*
%TD*%
%TO.C,R5*%
X154000000Y-50010000D03*
X154000000Y-48990000D03*
%TD*%
%TO.C,R5*%
X182000000Y-67010000D03*
X182000000Y-65990000D03*
%TD*%
%TO.C,R5*%
X182000000Y-33010000D03*
X182000000Y-31990000D03*
%TD*%
%TO.C,R5*%
X154000000Y-67010000D03*
X154000000Y-65990000D03*
%TD*%
%TO.C,R5*%
X140000000Y-84010000D03*
X140000000Y-82990000D03*
%TD*%
%TO.C,R5*%
X168000000Y-67010000D03*
X168000000Y-65990000D03*
%TD*%
%TO.C,R5*%
X126000000Y-101010000D03*
X126000000Y-99990000D03*
%TD*%
%TO.C,R5*%
X126000000Y-50010000D03*
X126000000Y-48990000D03*
%TD*%
%TO.C,R5*%
X168000000Y-50010000D03*
X168000000Y-48990000D03*
%TD*%
%TO.C,R5*%
X182000000Y-84010000D03*
X182000000Y-82990000D03*
%TD*%
%TO.C,R5*%
X140000000Y-101010000D03*
X140000000Y-99990000D03*
%TD*%
%TO.C,R5*%
X168000000Y-101010000D03*
X168000000Y-99990000D03*
%TD*%
D16*
%TO.C,U1*%
X161340000Y-83225000D03*
X161340000Y-84175000D03*
X161340000Y-85125000D03*
X163660000Y-85125000D03*
X163660000Y-84175000D03*
X163660000Y-83225000D03*
%TD*%
%TO.C,U1*%
X133340000Y-66225000D03*
X133340000Y-67175000D03*
X133340000Y-68125000D03*
X135660000Y-68125000D03*
X135660000Y-67175000D03*
X135660000Y-66225000D03*
%TD*%
%TO.C,U1*%
X147340000Y-32225000D03*
X147340000Y-33175000D03*
X147340000Y-34125000D03*
X149660000Y-34125000D03*
X149660000Y-33175000D03*
X149660000Y-32225000D03*
%TD*%
%TO.C,U1*%
X147340000Y-100225000D03*
X147340000Y-101175000D03*
X147340000Y-102125000D03*
X149660000Y-102125000D03*
X149660000Y-101175000D03*
X149660000Y-100225000D03*
%TD*%
%TO.C,U1*%
X175340000Y-100225000D03*
X175340000Y-101175000D03*
X175340000Y-102125000D03*
X177660000Y-102125000D03*
X177660000Y-101175000D03*
X177660000Y-100225000D03*
%TD*%
%TO.C,U1*%
X119340000Y-32225000D03*
X119340000Y-33175000D03*
X119340000Y-34125000D03*
X121660000Y-34125000D03*
X121660000Y-33175000D03*
X121660000Y-32225000D03*
%TD*%
%TO.C,U1*%
X161340000Y-32225000D03*
X161340000Y-33175000D03*
X161340000Y-34125000D03*
X163660000Y-34125000D03*
X163660000Y-33175000D03*
X163660000Y-32225000D03*
%TD*%
%TO.C,U1*%
X175340000Y-49225000D03*
X175340000Y-50175000D03*
X175340000Y-51125000D03*
X177660000Y-51125000D03*
X177660000Y-50175000D03*
X177660000Y-49225000D03*
%TD*%
%TO.C,U1*%
X161340000Y-49225000D03*
X161340000Y-50175000D03*
X161340000Y-51125000D03*
X163660000Y-51125000D03*
X163660000Y-50175000D03*
X163660000Y-49225000D03*
%TD*%
%TO.C,U1*%
X175340000Y-66225000D03*
X175340000Y-67175000D03*
X175340000Y-68125000D03*
X177660000Y-68125000D03*
X177660000Y-67175000D03*
X177660000Y-66225000D03*
%TD*%
%TO.C,U1*%
X119340000Y-49225000D03*
X119340000Y-50175000D03*
X119340000Y-51125000D03*
X121660000Y-51125000D03*
X121660000Y-50175000D03*
X121660000Y-49225000D03*
%TD*%
%TO.C,U1*%
X133340000Y-83225000D03*
X133340000Y-84175000D03*
X133340000Y-85125000D03*
X135660000Y-85125000D03*
X135660000Y-84175000D03*
X135660000Y-83225000D03*
%TD*%
%TO.C,U1*%
X119340000Y-83225000D03*
X119340000Y-84175000D03*
X119340000Y-85125000D03*
X121660000Y-85125000D03*
X121660000Y-84175000D03*
X121660000Y-83225000D03*
%TD*%
%TO.C,U1*%
X133340000Y-32225000D03*
X133340000Y-33175000D03*
X133340000Y-34125000D03*
X135660000Y-34125000D03*
X135660000Y-33175000D03*
X135660000Y-32225000D03*
%TD*%
%TO.C,U1*%
X175340000Y-32225000D03*
X175340000Y-33175000D03*
X175340000Y-34125000D03*
X177660000Y-34125000D03*
X177660000Y-33175000D03*
X177660000Y-32225000D03*
%TD*%
%TO.C,U1*%
X133340000Y-49225000D03*
X133340000Y-50175000D03*
X133340000Y-51125000D03*
X135660000Y-51125000D03*
X135660000Y-50175000D03*
X135660000Y-49225000D03*
%TD*%
%TO.C,U1*%
X161340000Y-66225000D03*
X161340000Y-67175000D03*
X161340000Y-68125000D03*
X163660000Y-68125000D03*
X163660000Y-67175000D03*
X163660000Y-66225000D03*
%TD*%
%TO.C,U1*%
X147340000Y-83225000D03*
X147340000Y-84175000D03*
X147340000Y-85125000D03*
X149660000Y-85125000D03*
X149660000Y-84175000D03*
X149660000Y-83225000D03*
%TD*%
%TO.C,U1*%
X175340000Y-83225000D03*
X175340000Y-84175000D03*
X175340000Y-85125000D03*
X177660000Y-85125000D03*
X177660000Y-84175000D03*
X177660000Y-83225000D03*
%TD*%
%TO.C,U1*%
X119340000Y-66225000D03*
X119340000Y-67175000D03*
X119340000Y-68125000D03*
X121660000Y-68125000D03*
X121660000Y-67175000D03*
X121660000Y-66225000D03*
%TD*%
%TO.C,U1*%
X119340000Y-100225000D03*
X119340000Y-101175000D03*
X119340000Y-102125000D03*
X121660000Y-102125000D03*
X121660000Y-101175000D03*
X121660000Y-100225000D03*
%TD*%
%TO.C,U1*%
X133340000Y-100225000D03*
X133340000Y-101175000D03*
X133340000Y-102125000D03*
X135660000Y-102125000D03*
X135660000Y-101175000D03*
X135660000Y-100225000D03*
%TD*%
%TO.C,U1*%
X147340000Y-49225000D03*
X147340000Y-50175000D03*
X147340000Y-51125000D03*
X149660000Y-51125000D03*
X149660000Y-50175000D03*
X149660000Y-49225000D03*
%TD*%
%TO.C,U1*%
X147340000Y-66225000D03*
X147340000Y-67175000D03*
X147340000Y-68125000D03*
X149660000Y-68125000D03*
X149660000Y-67175000D03*
X149660000Y-66225000D03*
%TD*%
%TO.C,U1*%
X161340000Y-100225000D03*
X161340000Y-101175000D03*
X161340000Y-102125000D03*
X163660000Y-102125000D03*
X163660000Y-101175000D03*
X163660000Y-100225000D03*
%TD*%
D15*
%TO.C,R3*%
X179000000Y-32010000D03*
X179000000Y-30990000D03*
%TD*%
%TO.C,R3*%
X151000000Y-66010000D03*
X151000000Y-64990000D03*
%TD*%
%TO.C,R3*%
X137000000Y-66010000D03*
X137000000Y-64990000D03*
%TD*%
%TO.C,R3*%
X151000000Y-49010000D03*
X151000000Y-47990000D03*
%TD*%
%TO.C,R3*%
X137000000Y-49010000D03*
X137000000Y-47990000D03*
%TD*%
%TO.C,R3*%
X123000000Y-83010000D03*
X123000000Y-81990000D03*
%TD*%
%TO.C,R3*%
X151000000Y-83010000D03*
X151000000Y-81990000D03*
%TD*%
%TO.C,R3*%
X165000000Y-83010000D03*
X165000000Y-81990000D03*
%TD*%
%TO.C,R3*%
X137000000Y-32010000D03*
X137000000Y-30990000D03*
%TD*%
%TO.C,R3*%
X165000000Y-49010000D03*
X165000000Y-47990000D03*
%TD*%
%TO.C,R3*%
X123000000Y-32010000D03*
X123000000Y-30990000D03*
%TD*%
%TO.C,R3*%
X179000000Y-49010000D03*
X179000000Y-47990000D03*
%TD*%
%TO.C,R3*%
X165000000Y-32010000D03*
X165000000Y-30990000D03*
%TD*%
%TO.C,R3*%
X123000000Y-66010000D03*
X123000000Y-64990000D03*
%TD*%
%TO.C,R3*%
X123000000Y-49010000D03*
X123000000Y-47990000D03*
%TD*%
%TO.C,R3*%
X179000000Y-66010000D03*
X179000000Y-64990000D03*
%TD*%
%TO.C,R3*%
X151000000Y-32010000D03*
X151000000Y-30990000D03*
%TD*%
%TO.C,R3*%
X165000000Y-66010000D03*
X165000000Y-64990000D03*
%TD*%
%TO.C,R3*%
X137000000Y-83010000D03*
X137000000Y-81990000D03*
%TD*%
%TO.C,R3*%
X179000000Y-100010000D03*
X179000000Y-98990000D03*
%TD*%
%TO.C,R3*%
X165000000Y-100010000D03*
X165000000Y-98990000D03*
%TD*%
%TO.C,R3*%
X179000000Y-83010000D03*
X179000000Y-81990000D03*
%TD*%
%TO.C,R3*%
X123000000Y-100010000D03*
X123000000Y-98990000D03*
%TD*%
%TO.C,R3*%
X151000000Y-100010000D03*
X151000000Y-98990000D03*
%TD*%
%TO.C,R3*%
X137000000Y-100010000D03*
X137000000Y-98990000D03*
%TD*%
M02*
