%TF.GenerationSoftware,KiCad,Pcbnew,7.0.1*%
%TF.CreationDate,2024-10-11T19:22:07-04:00*%
%TF.ProjectId,TrackRing,54726163-6b52-4696-9e67-2e6b69636164,rev?*%
%TF.SameCoordinates,Original*%
%TF.FileFunction,Copper,L2,Bot*%
%TF.FilePolarity,Positive*%
%FSLAX46Y46*%
G04 Gerber Fmt 4.6, Leading zero omitted, Abs format (unit mm)*
G04 Created by KiCad (PCBNEW 7.0.1) date 2024-10-11 19:22:07*
%MOMM*%
%LPD*%
G01*
G04 APERTURE LIST*
%TA.AperFunction,ComponentPad*%
%ADD10R,1.700000X1.700000*%
%TD*%
%TA.AperFunction,ComponentPad*%
%ADD11O,1.700000X1.700000*%
%TD*%
%TA.AperFunction,ViaPad*%
%ADD12C,0.800000*%
%TD*%
%TA.AperFunction,Conductor*%
%ADD13C,0.250000*%
%TD*%
G04 APERTURE END LIST*
D10*
%TO.P,J1,1,Pin_1*%
%TO.N,/VCC*%
X29850000Y-28650000D03*
D11*
%TO.P,J1,2,Pin_2*%
%TO.N,GND*%
X27310000Y-28650000D03*
%TO.P,J1,3,Pin_3*%
%TO.N,/SDA*%
X24770000Y-28650000D03*
%TO.P,J1,4,Pin_4*%
%TO.N,/SCL*%
X22230000Y-28650000D03*
%TD*%
D12*
%TO.N,/VCC*%
X22500000Y-34500000D03*
X26210500Y-33134098D03*
%TO.N,GND*%
X25977701Y-34272299D03*
X28445644Y-33288848D03*
X31500000Y-31000000D03*
X25987182Y-32076780D03*
X30750000Y-34175000D03*
%TD*%
D13*
%TO.N,/VCC*%
X23865902Y-33134098D02*
X22500000Y-34500000D01*
X26210500Y-33134098D02*
X23865902Y-33134098D01*
%TD*%
%TA.AperFunction,Conductor*%
%TO.N,GND*%
G36*
X31937500Y-20017113D02*
G01*
X31982887Y-20062500D01*
X31999500Y-20124500D01*
X31999500Y-34875500D01*
X31982887Y-34937500D01*
X31937500Y-34982887D01*
X31875500Y-34999500D01*
X23181899Y-34999500D01*
X23117748Y-34981617D01*
X23072102Y-34933124D01*
X23058125Y-34868011D01*
X23075142Y-34818700D01*
X23074881Y-34818601D01*
X23078171Y-34809925D01*
X23079851Y-34805058D01*
X23079932Y-34804940D01*
X23080220Y-34804523D01*
X23136237Y-34656818D01*
X23155278Y-34500000D01*
X23149102Y-34449143D01*
X23154980Y-34393751D01*
X23184515Y-34346520D01*
X23985119Y-33545917D01*
X24025348Y-33519037D01*
X24072801Y-33509598D01*
X25614192Y-33509598D01*
X25671819Y-33523802D01*
X25716243Y-33563160D01*
X25720015Y-33568626D01*
X25720016Y-33568627D01*
X25720017Y-33568628D01*
X25838260Y-33673381D01*
X25978135Y-33746794D01*
X26131515Y-33784598D01*
X26289485Y-33784598D01*
X26442865Y-33746794D01*
X26582740Y-33673381D01*
X26700983Y-33568628D01*
X26790720Y-33438621D01*
X26846737Y-33290916D01*
X26865778Y-33134098D01*
X26846737Y-32977280D01*
X26790720Y-32829575D01*
X26731924Y-32744394D01*
X26700984Y-32699569D01*
X26700983Y-32699568D01*
X26582740Y-32594815D01*
X26569494Y-32587862D01*
X26442864Y-32521401D01*
X26289485Y-32483598D01*
X26131515Y-32483598D01*
X25978135Y-32521401D01*
X25838261Y-32594814D01*
X25720015Y-32699569D01*
X25716243Y-32705036D01*
X25671819Y-32744394D01*
X25614192Y-32758598D01*
X23917707Y-32758598D01*
X23892261Y-32755959D01*
X23881635Y-32753731D01*
X23881634Y-32753731D01*
X23863760Y-32755959D01*
X23850225Y-32757646D01*
X23834888Y-32758598D01*
X23834786Y-32758598D01*
X23814301Y-32762016D01*
X23809234Y-32762755D01*
X23749469Y-32770205D01*
X23749214Y-32770287D01*
X23696272Y-32798936D01*
X23691722Y-32801278D01*
X23637617Y-32827730D01*
X23637407Y-32827886D01*
X23596621Y-32872191D01*
X23593074Y-32875887D01*
X22655780Y-33813181D01*
X22615552Y-33840061D01*
X22568099Y-33849500D01*
X22421015Y-33849500D01*
X22267635Y-33887303D01*
X22127761Y-33960716D01*
X22009515Y-34065471D01*
X21919780Y-34195476D01*
X21863763Y-34343181D01*
X21844721Y-34500000D01*
X21863763Y-34656818D01*
X21919780Y-34804523D01*
X21920149Y-34805058D01*
X21921828Y-34809925D01*
X21925119Y-34818601D01*
X21924857Y-34818700D01*
X21941875Y-34868011D01*
X21927898Y-34933124D01*
X21882252Y-34981617D01*
X21818101Y-34999500D01*
X20124500Y-34999500D01*
X20062500Y-34982887D01*
X20017113Y-34937500D01*
X20000500Y-34875500D01*
X20000500Y-28650000D01*
X21124785Y-28650000D01*
X21143602Y-28853083D01*
X21199418Y-29049251D01*
X21290324Y-29231818D01*
X21413236Y-29394580D01*
X21563958Y-29531981D01*
X21737361Y-29639347D01*
X21737363Y-29639348D01*
X21927544Y-29713024D01*
X22128024Y-29750500D01*
X22331974Y-29750500D01*
X22331976Y-29750500D01*
X22532456Y-29713024D01*
X22722637Y-29639348D01*
X22896041Y-29531981D01*
X23046764Y-29394579D01*
X23169673Y-29231821D01*
X23169673Y-29231819D01*
X23169675Y-29231818D01*
X23215313Y-29140161D01*
X23260582Y-29049250D01*
X23316397Y-28853083D01*
X23335215Y-28650000D01*
X23664785Y-28650000D01*
X23683602Y-28853083D01*
X23739418Y-29049251D01*
X23830324Y-29231818D01*
X23953236Y-29394580D01*
X24103958Y-29531981D01*
X24277361Y-29639347D01*
X24277363Y-29639348D01*
X24467544Y-29713024D01*
X24668024Y-29750500D01*
X24871974Y-29750500D01*
X24871976Y-29750500D01*
X25072456Y-29713024D01*
X25262637Y-29639348D01*
X25436041Y-29531981D01*
X25586764Y-29394579D01*
X25709673Y-29231821D01*
X25709673Y-29231819D01*
X25709675Y-29231818D01*
X25755313Y-29140161D01*
X25800582Y-29049250D01*
X25843048Y-28900000D01*
X26237472Y-28900000D01*
X26279886Y-29049069D01*
X26370751Y-29231553D01*
X26493607Y-29394241D01*
X26644259Y-29531578D01*
X26817588Y-29638899D01*
X27007679Y-29712539D01*
X27060000Y-29722320D01*
X27060000Y-28900000D01*
X27560000Y-28900000D01*
X27560000Y-29722320D01*
X27612320Y-29712539D01*
X27802411Y-29638899D01*
X27975740Y-29531578D01*
X27983312Y-29524675D01*
X28749500Y-29524675D01*
X28764033Y-29597738D01*
X28764033Y-29597739D01*
X28764034Y-29597740D01*
X28819399Y-29680601D01*
X28902260Y-29735966D01*
X28938793Y-29743233D01*
X28975325Y-29750500D01*
X28975326Y-29750500D01*
X30724674Y-29750500D01*
X30724675Y-29750500D01*
X30749029Y-29745655D01*
X30797740Y-29735966D01*
X30880601Y-29680601D01*
X30935966Y-29597740D01*
X30950500Y-29524674D01*
X30950500Y-27775326D01*
X30949126Y-27768421D01*
X30935966Y-27702261D01*
X30935966Y-27702260D01*
X30880601Y-27619399D01*
X30797740Y-27564034D01*
X30797739Y-27564033D01*
X30797738Y-27564033D01*
X30724675Y-27549500D01*
X30724674Y-27549500D01*
X28975326Y-27549500D01*
X28975325Y-27549500D01*
X28902261Y-27564033D01*
X28819399Y-27619399D01*
X28764033Y-27702261D01*
X28749500Y-27775325D01*
X28749500Y-29524675D01*
X27983312Y-29524675D01*
X28126392Y-29394241D01*
X28249248Y-29231553D01*
X28340113Y-29049069D01*
X28382528Y-28900000D01*
X27560000Y-28900000D01*
X27060000Y-28900000D01*
X26237472Y-28900000D01*
X25843048Y-28900000D01*
X25856397Y-28853083D01*
X25875215Y-28650000D01*
X25856397Y-28446917D01*
X25843048Y-28399999D01*
X26237471Y-28399999D01*
X26237472Y-28400000D01*
X27060000Y-28400000D01*
X27060000Y-27577680D01*
X27560000Y-27577680D01*
X27560000Y-28400000D01*
X28382528Y-28400000D01*
X28382528Y-28399999D01*
X28340113Y-28250930D01*
X28249248Y-28068446D01*
X28126392Y-27905758D01*
X27975740Y-27768421D01*
X27802411Y-27661100D01*
X27612320Y-27587460D01*
X27560000Y-27577680D01*
X27060000Y-27577680D01*
X27007679Y-27587460D01*
X26817588Y-27661100D01*
X26644259Y-27768421D01*
X26493607Y-27905758D01*
X26370751Y-28068446D01*
X26279886Y-28250930D01*
X26237471Y-28399999D01*
X25843048Y-28399999D01*
X25800582Y-28250750D01*
X25800209Y-28250001D01*
X25709675Y-28068181D01*
X25586763Y-27905419D01*
X25436041Y-27768018D01*
X25262638Y-27660652D01*
X25072457Y-27586976D01*
X24949726Y-27564034D01*
X24871976Y-27549500D01*
X24668024Y-27549500D01*
X24590279Y-27564033D01*
X24467542Y-27586976D01*
X24277361Y-27660652D01*
X24103958Y-27768018D01*
X23953236Y-27905419D01*
X23830324Y-28068181D01*
X23739418Y-28250748D01*
X23683602Y-28446916D01*
X23664785Y-28650000D01*
X23335215Y-28650000D01*
X23316397Y-28446917D01*
X23260582Y-28250750D01*
X23260209Y-28250001D01*
X23169675Y-28068181D01*
X23046763Y-27905419D01*
X22896041Y-27768018D01*
X22722638Y-27660652D01*
X22532457Y-27586976D01*
X22409726Y-27564034D01*
X22331976Y-27549500D01*
X22128024Y-27549500D01*
X22050279Y-27564033D01*
X21927542Y-27586976D01*
X21737361Y-27660652D01*
X21563958Y-27768018D01*
X21413236Y-27905419D01*
X21290324Y-28068181D01*
X21199418Y-28250748D01*
X21143602Y-28446916D01*
X21124785Y-28650000D01*
X20000500Y-28650000D01*
X20000500Y-20124500D01*
X20017113Y-20062500D01*
X20062500Y-20017113D01*
X20124500Y-20000500D01*
X31875500Y-20000500D01*
X31937500Y-20017113D01*
G37*
%TD.AperFunction*%
%TD*%
M02*
