%TF.GenerationSoftware,KiCad,Pcbnew,7.0.1*%
%TF.CreationDate,2024-10-13T19:11:28-04:00*%
%TF.ProjectId,TrackRing-panel,54726163-6b52-4696-9e67-2d70616e656c,rev?*%
%TF.SameCoordinates,Original*%
%TF.FileFunction,Copper,L1,Top*%
%TF.FilePolarity,Positive*%
%FSLAX46Y46*%
G04 Gerber Fmt 4.6, Leading zero omitted, Abs format (unit mm)*
G04 Created by KiCad (PCBNEW 7.0.1) date 2024-10-13 19:11:28*
%MOMM*%
%LPD*%
G01*
G04 APERTURE LIST*
G04 Aperture macros list*
%AMRoundRect*
0 Rectangle with rounded corners*
0 $1 Rounding radius*
0 $2 $3 $4 $5 $6 $7 $8 $9 X,Y pos of 4 corners*
0 Add a 4 corners polygon primitive as box body*
4,1,4,$2,$3,$4,$5,$6,$7,$8,$9,$2,$3,0*
0 Add four circle primitives for the rounded corners*
1,1,$1+$1,$2,$3*
1,1,$1+$1,$4,$5*
1,1,$1+$1,$6,$7*
1,1,$1+$1,$8,$9*
0 Add four rect primitives between the rounded corners*
20,1,$1+$1,$2,$3,$4,$5,0*
20,1,$1+$1,$4,$5,$6,$7,0*
20,1,$1+$1,$6,$7,$8,$9,0*
20,1,$1+$1,$8,$9,$2,$3,0*%
G04 Aperture macros list end*
%TA.AperFunction,ComponentPad*%
%ADD10R,1.700000X1.700000*%
%TD*%
%TA.AperFunction,ComponentPad*%
%ADD11O,1.700000X1.700000*%
%TD*%
%TA.AperFunction,SMDPad,CuDef*%
%ADD12RoundRect,0.135000X-0.185000X0.135000X-0.185000X-0.135000X0.185000X-0.135000X0.185000X0.135000X0*%
%TD*%
%TA.AperFunction,SMDPad,CuDef*%
%ADD13RoundRect,0.140000X0.140000X0.170000X-0.140000X0.170000X-0.140000X-0.170000X0.140000X-0.170000X0*%
%TD*%
%TA.AperFunction,SMDPad,CuDef*%
%ADD14RoundRect,0.218750X0.256250X-0.218750X0.256250X0.218750X-0.256250X0.218750X-0.256250X-0.218750X0*%
%TD*%
%TA.AperFunction,SMDPad,CuDef*%
%ADD15RoundRect,0.135000X0.185000X-0.135000X0.185000X0.135000X-0.185000X0.135000X-0.185000X-0.135000X0*%
%TD*%
%TA.AperFunction,SMDPad,CuDef*%
%ADD16R,0.700000X0.510000*%
%TD*%
%TA.AperFunction,ViaPad*%
%ADD17C,0.800000*%
%TD*%
%TA.AperFunction,Conductor*%
%ADD18C,0.250000*%
%TD*%
G04 APERTURE END LIST*
D10*
%TO.P,J1,1,Pin_1*%
%TO.N,Board_1-/VCC*%
X137350000Y-28650000D03*
D11*
%TO.P,J1,2,Pin_2*%
%TO.N,Board_1-GND*%
X134810000Y-28650000D03*
%TO.P,J1,3,Pin_3*%
%TO.N,Board_1-/SDA*%
X132270000Y-28650000D03*
%TO.P,J1,4,Pin_4*%
%TO.N,Board_1-/SCL*%
X129730000Y-28650000D03*
%TD*%
D10*
%TO.P,J1,1,Pin_1*%
%TO.N,Board_3-/VCC*%
X167350000Y-28650000D03*
D11*
%TO.P,J1,2,Pin_2*%
%TO.N,Board_3-GND*%
X164810000Y-28650000D03*
%TO.P,J1,3,Pin_3*%
%TO.N,Board_3-/SDA*%
X162270000Y-28650000D03*
%TO.P,J1,4,Pin_4*%
%TO.N,Board_3-/SCL*%
X159730000Y-28650000D03*
%TD*%
D10*
%TO.P,J1,1,Pin_1*%
%TO.N,Board_16-/VCC*%
X137350000Y-73650000D03*
D11*
%TO.P,J1,2,Pin_2*%
%TO.N,Board_16-GND*%
X134810000Y-73650000D03*
%TO.P,J1,3,Pin_3*%
%TO.N,Board_16-/SDA*%
X132270000Y-73650000D03*
%TO.P,J1,4,Pin_4*%
%TO.N,Board_16-/SCL*%
X129730000Y-73650000D03*
%TD*%
D10*
%TO.P,J1,1,Pin_1*%
%TO.N,Board_23-/VCC*%
X167350000Y-88650000D03*
D11*
%TO.P,J1,2,Pin_2*%
%TO.N,Board_23-GND*%
X164810000Y-88650000D03*
%TO.P,J1,3,Pin_3*%
%TO.N,Board_23-/SDA*%
X162270000Y-88650000D03*
%TO.P,J1,4,Pin_4*%
%TO.N,Board_23-/SCL*%
X159730000Y-88650000D03*
%TD*%
D10*
%TO.P,J1,1,Pin_1*%
%TO.N,Board_0-/VCC*%
X122350000Y-28650000D03*
D11*
%TO.P,J1,2,Pin_2*%
%TO.N,Board_0-GND*%
X119810000Y-28650000D03*
%TO.P,J1,3,Pin_3*%
%TO.N,Board_0-/SDA*%
X117270000Y-28650000D03*
%TO.P,J1,4,Pin_4*%
%TO.N,Board_0-/SCL*%
X114730000Y-28650000D03*
%TD*%
D10*
%TO.P,J1,1,Pin_1*%
%TO.N,Board_17-/VCC*%
X152350000Y-73650000D03*
D11*
%TO.P,J1,2,Pin_2*%
%TO.N,Board_17-GND*%
X149810000Y-73650000D03*
%TO.P,J1,3,Pin_3*%
%TO.N,Board_17-/SDA*%
X147270000Y-73650000D03*
%TO.P,J1,4,Pin_4*%
%TO.N,Board_17-/SCL*%
X144730000Y-73650000D03*
%TD*%
D10*
%TO.P,J1,1,Pin_1*%
%TO.N,Board_18-/VCC*%
X167350000Y-73650000D03*
D11*
%TO.P,J1,2,Pin_2*%
%TO.N,Board_18-GND*%
X164810000Y-73650000D03*
%TO.P,J1,3,Pin_3*%
%TO.N,Board_18-/SDA*%
X162270000Y-73650000D03*
%TO.P,J1,4,Pin_4*%
%TO.N,Board_18-/SCL*%
X159730000Y-73650000D03*
%TD*%
D10*
%TO.P,J1,1,Pin_1*%
%TO.N,Board_20-/VCC*%
X122350000Y-88650000D03*
D11*
%TO.P,J1,2,Pin_2*%
%TO.N,Board_20-GND*%
X119810000Y-88650000D03*
%TO.P,J1,3,Pin_3*%
%TO.N,Board_20-/SDA*%
X117270000Y-88650000D03*
%TO.P,J1,4,Pin_4*%
%TO.N,Board_20-/SCL*%
X114730000Y-88650000D03*
%TD*%
D10*
%TO.P,J1,1,Pin_1*%
%TO.N,Board_4-/VCC*%
X182350000Y-28650000D03*
D11*
%TO.P,J1,2,Pin_2*%
%TO.N,Board_4-GND*%
X179810000Y-28650000D03*
%TO.P,J1,3,Pin_3*%
%TO.N,Board_4-/SDA*%
X177270000Y-28650000D03*
%TO.P,J1,4,Pin_4*%
%TO.N,Board_4-/SCL*%
X174730000Y-28650000D03*
%TD*%
D10*
%TO.P,J1,1,Pin_1*%
%TO.N,Board_9-/VCC*%
X182350000Y-43650000D03*
D11*
%TO.P,J1,2,Pin_2*%
%TO.N,Board_9-GND*%
X179810000Y-43650000D03*
%TO.P,J1,3,Pin_3*%
%TO.N,Board_9-/SDA*%
X177270000Y-43650000D03*
%TO.P,J1,4,Pin_4*%
%TO.N,Board_9-/SCL*%
X174730000Y-43650000D03*
%TD*%
D10*
%TO.P,J1,1,Pin_1*%
%TO.N,Board_12-/VCC*%
X152350000Y-58650000D03*
D11*
%TO.P,J1,2,Pin_2*%
%TO.N,Board_12-GND*%
X149810000Y-58650000D03*
%TO.P,J1,3,Pin_3*%
%TO.N,Board_12-/SDA*%
X147270000Y-58650000D03*
%TO.P,J1,4,Pin_4*%
%TO.N,Board_12-/SCL*%
X144730000Y-58650000D03*
%TD*%
D10*
%TO.P,J1,1,Pin_1*%
%TO.N,Board_19-/VCC*%
X182350000Y-73650000D03*
D11*
%TO.P,J1,2,Pin_2*%
%TO.N,Board_19-GND*%
X179810000Y-73650000D03*
%TO.P,J1,3,Pin_3*%
%TO.N,Board_19-/SDA*%
X177270000Y-73650000D03*
%TO.P,J1,4,Pin_4*%
%TO.N,Board_19-/SCL*%
X174730000Y-73650000D03*
%TD*%
D10*
%TO.P,J1,1,Pin_1*%
%TO.N,Board_8-/VCC*%
X167350000Y-43650000D03*
D11*
%TO.P,J1,2,Pin_2*%
%TO.N,Board_8-GND*%
X164810000Y-43650000D03*
%TO.P,J1,3,Pin_3*%
%TO.N,Board_8-/SDA*%
X162270000Y-43650000D03*
%TO.P,J1,4,Pin_4*%
%TO.N,Board_8-/SCL*%
X159730000Y-43650000D03*
%TD*%
D10*
%TO.P,J1,1,Pin_1*%
%TO.N,Board_5-/VCC*%
X122350000Y-43650000D03*
D11*
%TO.P,J1,2,Pin_2*%
%TO.N,Board_5-GND*%
X119810000Y-43650000D03*
%TO.P,J1,3,Pin_3*%
%TO.N,Board_5-/SDA*%
X117270000Y-43650000D03*
%TO.P,J1,4,Pin_4*%
%TO.N,Board_5-/SCL*%
X114730000Y-43650000D03*
%TD*%
D10*
%TO.P,J1,1,Pin_1*%
%TO.N,Board_10-/VCC*%
X122350000Y-58650000D03*
D11*
%TO.P,J1,2,Pin_2*%
%TO.N,Board_10-GND*%
X119810000Y-58650000D03*
%TO.P,J1,3,Pin_3*%
%TO.N,Board_10-/SDA*%
X117270000Y-58650000D03*
%TO.P,J1,4,Pin_4*%
%TO.N,Board_10-/SCL*%
X114730000Y-58650000D03*
%TD*%
D10*
%TO.P,J1,1,Pin_1*%
%TO.N,Board_13-/VCC*%
X167350000Y-58650000D03*
D11*
%TO.P,J1,2,Pin_2*%
%TO.N,Board_13-GND*%
X164810000Y-58650000D03*
%TO.P,J1,3,Pin_3*%
%TO.N,Board_13-/SDA*%
X162270000Y-58650000D03*
%TO.P,J1,4,Pin_4*%
%TO.N,Board_13-/SCL*%
X159730000Y-58650000D03*
%TD*%
D10*
%TO.P,J1,1,Pin_1*%
%TO.N,Board_2-/VCC*%
X152350000Y-28650000D03*
D11*
%TO.P,J1,2,Pin_2*%
%TO.N,Board_2-GND*%
X149810000Y-28650000D03*
%TO.P,J1,3,Pin_3*%
%TO.N,Board_2-/SDA*%
X147270000Y-28650000D03*
%TO.P,J1,4,Pin_4*%
%TO.N,Board_2-/SCL*%
X144730000Y-28650000D03*
%TD*%
D10*
%TO.P,J1,1,Pin_1*%
%TO.N,Board_22-/VCC*%
X152350000Y-88650000D03*
D11*
%TO.P,J1,2,Pin_2*%
%TO.N,Board_22-GND*%
X149810000Y-88650000D03*
%TO.P,J1,3,Pin_3*%
%TO.N,Board_22-/SDA*%
X147270000Y-88650000D03*
%TO.P,J1,4,Pin_4*%
%TO.N,Board_22-/SCL*%
X144730000Y-88650000D03*
%TD*%
D10*
%TO.P,J1,1,Pin_1*%
%TO.N,Board_11-/VCC*%
X137350000Y-58650000D03*
D11*
%TO.P,J1,2,Pin_2*%
%TO.N,Board_11-GND*%
X134810000Y-58650000D03*
%TO.P,J1,3,Pin_3*%
%TO.N,Board_11-/SDA*%
X132270000Y-58650000D03*
%TO.P,J1,4,Pin_4*%
%TO.N,Board_11-/SCL*%
X129730000Y-58650000D03*
%TD*%
D10*
%TO.P,J1,1,Pin_1*%
%TO.N,Board_7-/VCC*%
X152350000Y-43650000D03*
D11*
%TO.P,J1,2,Pin_2*%
%TO.N,Board_7-GND*%
X149810000Y-43650000D03*
%TO.P,J1,3,Pin_3*%
%TO.N,Board_7-/SDA*%
X147270000Y-43650000D03*
%TO.P,J1,4,Pin_4*%
%TO.N,Board_7-/SCL*%
X144730000Y-43650000D03*
%TD*%
D10*
%TO.P,J1,1,Pin_1*%
%TO.N,Board_14-/VCC*%
X182350000Y-58650000D03*
D11*
%TO.P,J1,2,Pin_2*%
%TO.N,Board_14-GND*%
X179810000Y-58650000D03*
%TO.P,J1,3,Pin_3*%
%TO.N,Board_14-/SDA*%
X177270000Y-58650000D03*
%TO.P,J1,4,Pin_4*%
%TO.N,Board_14-/SCL*%
X174730000Y-58650000D03*
%TD*%
D10*
%TO.P,J1,1,Pin_1*%
%TO.N,Board_6-/VCC*%
X137350000Y-43650000D03*
D11*
%TO.P,J1,2,Pin_2*%
%TO.N,Board_6-GND*%
X134810000Y-43650000D03*
%TO.P,J1,3,Pin_3*%
%TO.N,Board_6-/SDA*%
X132270000Y-43650000D03*
%TO.P,J1,4,Pin_4*%
%TO.N,Board_6-/SCL*%
X129730000Y-43650000D03*
%TD*%
D10*
%TO.P,J1,1,Pin_1*%
%TO.N,Board_15-/VCC*%
X122350000Y-73650000D03*
D11*
%TO.P,J1,2,Pin_2*%
%TO.N,Board_15-GND*%
X119810000Y-73650000D03*
%TO.P,J1,3,Pin_3*%
%TO.N,Board_15-/SDA*%
X117270000Y-73650000D03*
%TO.P,J1,4,Pin_4*%
%TO.N,Board_15-/SCL*%
X114730000Y-73650000D03*
%TD*%
D10*
%TO.P,J1,1,Pin_1*%
%TO.N,Board_21-/VCC*%
X137350000Y-88650000D03*
D11*
%TO.P,J1,2,Pin_2*%
%TO.N,Board_21-GND*%
X134810000Y-88650000D03*
%TO.P,J1,3,Pin_3*%
%TO.N,Board_21-/SDA*%
X132270000Y-88650000D03*
%TO.P,J1,4,Pin_4*%
%TO.N,Board_21-/SCL*%
X129730000Y-88650000D03*
%TD*%
D10*
%TO.P,J1,1,Pin_1*%
%TO.N,Board_24-/VCC*%
X182350000Y-88650000D03*
D11*
%TO.P,J1,2,Pin_2*%
%TO.N,Board_24-GND*%
X179810000Y-88650000D03*
%TO.P,J1,3,Pin_3*%
%TO.N,Board_24-/SDA*%
X177270000Y-88650000D03*
%TO.P,J1,4,Pin_4*%
%TO.N,Board_24-/SCL*%
X174730000Y-88650000D03*
%TD*%
D12*
%TO.P,R2,1*%
%TO.N,Board_5-/SCL*%
X114000000Y-45990000D03*
%TO.P,R2,2*%
%TO.N,Board_5-Net-(U1-SCL)*%
X114000000Y-47010000D03*
%TD*%
%TO.P,R2,1*%
%TO.N,Board_1-/SCL*%
X129000000Y-30990000D03*
%TO.P,R2,2*%
%TO.N,Board_1-Net-(U1-SCL)*%
X129000000Y-32010000D03*
%TD*%
%TO.P,R2,1*%
%TO.N,Board_2-/SCL*%
X144000000Y-30990000D03*
%TO.P,R2,2*%
%TO.N,Board_2-Net-(U1-SCL)*%
X144000000Y-32010000D03*
%TD*%
%TO.P,R2,1*%
%TO.N,Board_3-/SCL*%
X159000000Y-30990000D03*
%TO.P,R2,2*%
%TO.N,Board_3-Net-(U1-SCL)*%
X159000000Y-32010000D03*
%TD*%
%TO.P,R2,1*%
%TO.N,Board_4-/SCL*%
X174000000Y-30990000D03*
%TO.P,R2,2*%
%TO.N,Board_4-Net-(U1-SCL)*%
X174000000Y-32010000D03*
%TD*%
%TO.P,R2,1*%
%TO.N,Board_24-/SCL*%
X174000000Y-90990000D03*
%TO.P,R2,2*%
%TO.N,Board_24-Net-(U1-SCL)*%
X174000000Y-92010000D03*
%TD*%
%TO.P,R2,1*%
%TO.N,Board_11-/SCL*%
X129000000Y-60990000D03*
%TO.P,R2,2*%
%TO.N,Board_11-Net-(U1-SCL)*%
X129000000Y-62010000D03*
%TD*%
%TO.P,R2,1*%
%TO.N,Board_15-/SCL*%
X114000000Y-75990000D03*
%TO.P,R2,2*%
%TO.N,Board_15-Net-(U1-SCL)*%
X114000000Y-77010000D03*
%TD*%
%TO.P,R2,1*%
%TO.N,Board_19-/SCL*%
X174000000Y-75990000D03*
%TO.P,R2,2*%
%TO.N,Board_19-Net-(U1-SCL)*%
X174000000Y-77010000D03*
%TD*%
%TO.P,R2,1*%
%TO.N,Board_22-/SCL*%
X144000000Y-90990000D03*
%TO.P,R2,2*%
%TO.N,Board_22-Net-(U1-SCL)*%
X144000000Y-92010000D03*
%TD*%
%TO.P,R2,1*%
%TO.N,Board_17-/SCL*%
X144000000Y-75990000D03*
%TO.P,R2,2*%
%TO.N,Board_17-Net-(U1-SCL)*%
X144000000Y-77010000D03*
%TD*%
%TO.P,R2,1*%
%TO.N,Board_12-/SCL*%
X144000000Y-60990000D03*
%TO.P,R2,2*%
%TO.N,Board_12-Net-(U1-SCL)*%
X144000000Y-62010000D03*
%TD*%
%TO.P,R2,1*%
%TO.N,Board_21-/SCL*%
X129000000Y-90990000D03*
%TO.P,R2,2*%
%TO.N,Board_21-Net-(U1-SCL)*%
X129000000Y-92010000D03*
%TD*%
%TO.P,R2,1*%
%TO.N,Board_7-/SCL*%
X144000000Y-45990000D03*
%TO.P,R2,2*%
%TO.N,Board_7-Net-(U1-SCL)*%
X144000000Y-47010000D03*
%TD*%
%TO.P,R2,1*%
%TO.N,Board_23-/SCL*%
X159000000Y-90990000D03*
%TO.P,R2,2*%
%TO.N,Board_23-Net-(U1-SCL)*%
X159000000Y-92010000D03*
%TD*%
%TO.P,R2,1*%
%TO.N,Board_6-/SCL*%
X129000000Y-45990000D03*
%TO.P,R2,2*%
%TO.N,Board_6-Net-(U1-SCL)*%
X129000000Y-47010000D03*
%TD*%
%TO.P,R2,1*%
%TO.N,Board_8-/SCL*%
X159000000Y-45990000D03*
%TO.P,R2,2*%
%TO.N,Board_8-Net-(U1-SCL)*%
X159000000Y-47010000D03*
%TD*%
%TO.P,R2,1*%
%TO.N,Board_13-/SCL*%
X159000000Y-60990000D03*
%TO.P,R2,2*%
%TO.N,Board_13-Net-(U1-SCL)*%
X159000000Y-62010000D03*
%TD*%
%TO.P,R2,1*%
%TO.N,Board_9-/SCL*%
X174000000Y-45990000D03*
%TO.P,R2,2*%
%TO.N,Board_9-Net-(U1-SCL)*%
X174000000Y-47010000D03*
%TD*%
%TO.P,R2,1*%
%TO.N,Board_14-/SCL*%
X174000000Y-60990000D03*
%TO.P,R2,2*%
%TO.N,Board_14-Net-(U1-SCL)*%
X174000000Y-62010000D03*
%TD*%
%TO.P,R2,1*%
%TO.N,Board_10-/SCL*%
X114000000Y-60990000D03*
%TO.P,R2,2*%
%TO.N,Board_10-Net-(U1-SCL)*%
X114000000Y-62010000D03*
%TD*%
%TO.P,R2,1*%
%TO.N,Board_16-/SCL*%
X129000000Y-75990000D03*
%TO.P,R2,2*%
%TO.N,Board_16-Net-(U1-SCL)*%
X129000000Y-77010000D03*
%TD*%
%TO.P,R2,1*%
%TO.N,Board_18-/SCL*%
X159000000Y-75990000D03*
%TO.P,R2,2*%
%TO.N,Board_18-Net-(U1-SCL)*%
X159000000Y-77010000D03*
%TD*%
%TO.P,R2,1*%
%TO.N,Board_20-/SCL*%
X114000000Y-90990000D03*
%TO.P,R2,2*%
%TO.N,Board_20-Net-(U1-SCL)*%
X114000000Y-92010000D03*
%TD*%
%TO.P,R2,1*%
%TO.N,Board_0-/SCL*%
X114000000Y-30990000D03*
%TO.P,R2,2*%
%TO.N,Board_0-Net-(U1-SCL)*%
X114000000Y-32010000D03*
%TD*%
D13*
%TO.P,C1,1*%
%TO.N,Board_2-GND*%
X152230000Y-34175000D03*
%TO.P,C1,2*%
%TO.N,Board_2-/VCC*%
X151270000Y-34175000D03*
%TD*%
%TO.P,C1,1*%
%TO.N,Board_5-GND*%
X122230000Y-49175000D03*
%TO.P,C1,2*%
%TO.N,Board_5-/VCC*%
X121270000Y-49175000D03*
%TD*%
%TO.P,C1,1*%
%TO.N,Board_1-GND*%
X137230000Y-34175000D03*
%TO.P,C1,2*%
%TO.N,Board_1-/VCC*%
X136270000Y-34175000D03*
%TD*%
%TO.P,C1,1*%
%TO.N,Board_3-GND*%
X167230000Y-34175000D03*
%TO.P,C1,2*%
%TO.N,Board_3-/VCC*%
X166270000Y-34175000D03*
%TD*%
%TO.P,C1,1*%
%TO.N,Board_4-GND*%
X182230000Y-34175000D03*
%TO.P,C1,2*%
%TO.N,Board_4-/VCC*%
X181270000Y-34175000D03*
%TD*%
%TO.P,C1,1*%
%TO.N,Board_6-GND*%
X137230000Y-49175000D03*
%TO.P,C1,2*%
%TO.N,Board_6-/VCC*%
X136270000Y-49175000D03*
%TD*%
%TO.P,C1,1*%
%TO.N,Board_7-GND*%
X152230000Y-49175000D03*
%TO.P,C1,2*%
%TO.N,Board_7-/VCC*%
X151270000Y-49175000D03*
%TD*%
%TO.P,C1,1*%
%TO.N,Board_12-GND*%
X152230000Y-64175000D03*
%TO.P,C1,2*%
%TO.N,Board_12-/VCC*%
X151270000Y-64175000D03*
%TD*%
%TO.P,C1,1*%
%TO.N,Board_14-GND*%
X182230000Y-64175000D03*
%TO.P,C1,2*%
%TO.N,Board_14-/VCC*%
X181270000Y-64175000D03*
%TD*%
%TO.P,C1,1*%
%TO.N,Board_15-GND*%
X122230000Y-79175000D03*
%TO.P,C1,2*%
%TO.N,Board_15-/VCC*%
X121270000Y-79175000D03*
%TD*%
%TO.P,C1,1*%
%TO.N,Board_16-GND*%
X137230000Y-79175000D03*
%TO.P,C1,2*%
%TO.N,Board_16-/VCC*%
X136270000Y-79175000D03*
%TD*%
%TO.P,C1,1*%
%TO.N,Board_11-GND*%
X137230000Y-64175000D03*
%TO.P,C1,2*%
%TO.N,Board_11-/VCC*%
X136270000Y-64175000D03*
%TD*%
%TO.P,C1,1*%
%TO.N,Board_13-GND*%
X167230000Y-64175000D03*
%TO.P,C1,2*%
%TO.N,Board_13-/VCC*%
X166270000Y-64175000D03*
%TD*%
%TO.P,C1,1*%
%TO.N,Board_9-GND*%
X182230000Y-49175000D03*
%TO.P,C1,2*%
%TO.N,Board_9-/VCC*%
X181270000Y-49175000D03*
%TD*%
%TO.P,C1,1*%
%TO.N,Board_8-GND*%
X167230000Y-49175000D03*
%TO.P,C1,2*%
%TO.N,Board_8-/VCC*%
X166270000Y-49175000D03*
%TD*%
%TO.P,C1,1*%
%TO.N,Board_10-GND*%
X122230000Y-64175000D03*
%TO.P,C1,2*%
%TO.N,Board_10-/VCC*%
X121270000Y-64175000D03*
%TD*%
%TO.P,C1,1*%
%TO.N,Board_17-GND*%
X152230000Y-79175000D03*
%TO.P,C1,2*%
%TO.N,Board_17-/VCC*%
X151270000Y-79175000D03*
%TD*%
%TO.P,C1,1*%
%TO.N,Board_0-GND*%
X122230000Y-34175000D03*
%TO.P,C1,2*%
%TO.N,Board_0-/VCC*%
X121270000Y-34175000D03*
%TD*%
%TO.P,C1,1*%
%TO.N,Board_22-GND*%
X152230000Y-94175000D03*
%TO.P,C1,2*%
%TO.N,Board_22-/VCC*%
X151270000Y-94175000D03*
%TD*%
%TO.P,C1,1*%
%TO.N,Board_20-GND*%
X122230000Y-94175000D03*
%TO.P,C1,2*%
%TO.N,Board_20-/VCC*%
X121270000Y-94175000D03*
%TD*%
%TO.P,C1,1*%
%TO.N,Board_24-GND*%
X182230000Y-94175000D03*
%TO.P,C1,2*%
%TO.N,Board_24-/VCC*%
X181270000Y-94175000D03*
%TD*%
%TO.P,C1,1*%
%TO.N,Board_18-GND*%
X167230000Y-79175000D03*
%TO.P,C1,2*%
%TO.N,Board_18-/VCC*%
X166270000Y-79175000D03*
%TD*%
%TO.P,C1,1*%
%TO.N,Board_19-GND*%
X182230000Y-79175000D03*
%TO.P,C1,2*%
%TO.N,Board_19-/VCC*%
X181270000Y-79175000D03*
%TD*%
%TO.P,C1,1*%
%TO.N,Board_23-GND*%
X167230000Y-94175000D03*
%TO.P,C1,2*%
%TO.N,Board_23-/VCC*%
X166270000Y-94175000D03*
%TD*%
%TO.P,C1,1*%
%TO.N,Board_21-GND*%
X137230000Y-94175000D03*
%TO.P,C1,2*%
%TO.N,Board_21-/VCC*%
X136270000Y-94175000D03*
%TD*%
D14*
%TO.P,D1,1,K*%
%TO.N,Board_20-Net-(D1-K)*%
X122500000Y-92787500D03*
%TO.P,D1,2,A*%
%TO.N,Board_20-/VCC*%
X122500000Y-91212500D03*
%TD*%
%TO.P,D1,1,K*%
%TO.N,Board_17-Net-(D1-K)*%
X152500000Y-77787500D03*
%TO.P,D1,2,A*%
%TO.N,Board_17-/VCC*%
X152500000Y-76212500D03*
%TD*%
%TO.P,D1,1,K*%
%TO.N,Board_19-Net-(D1-K)*%
X182500000Y-77787500D03*
%TO.P,D1,2,A*%
%TO.N,Board_19-/VCC*%
X182500000Y-76212500D03*
%TD*%
%TO.P,D1,1,K*%
%TO.N,Board_16-Net-(D1-K)*%
X137500000Y-77787500D03*
%TO.P,D1,2,A*%
%TO.N,Board_16-/VCC*%
X137500000Y-76212500D03*
%TD*%
%TO.P,D1,1,K*%
%TO.N,Board_0-Net-(D1-K)*%
X122500000Y-32787500D03*
%TO.P,D1,2,A*%
%TO.N,Board_0-/VCC*%
X122500000Y-31212500D03*
%TD*%
%TO.P,D1,1,K*%
%TO.N,Board_23-Net-(D1-K)*%
X167500000Y-92787500D03*
%TO.P,D1,2,A*%
%TO.N,Board_23-/VCC*%
X167500000Y-91212500D03*
%TD*%
%TO.P,D1,1,K*%
%TO.N,Board_22-Net-(D1-K)*%
X152500000Y-92787500D03*
%TO.P,D1,2,A*%
%TO.N,Board_22-/VCC*%
X152500000Y-91212500D03*
%TD*%
%TO.P,D1,1,K*%
%TO.N,Board_24-Net-(D1-K)*%
X182500000Y-92787500D03*
%TO.P,D1,2,A*%
%TO.N,Board_24-/VCC*%
X182500000Y-91212500D03*
%TD*%
%TO.P,D1,1,K*%
%TO.N,Board_18-Net-(D1-K)*%
X167500000Y-77787500D03*
%TO.P,D1,2,A*%
%TO.N,Board_18-/VCC*%
X167500000Y-76212500D03*
%TD*%
%TO.P,D1,1,K*%
%TO.N,Board_21-Net-(D1-K)*%
X137500000Y-92787500D03*
%TO.P,D1,2,A*%
%TO.N,Board_21-/VCC*%
X137500000Y-91212500D03*
%TD*%
%TO.P,D1,1,K*%
%TO.N,Board_12-Net-(D1-K)*%
X152500000Y-62787500D03*
%TO.P,D1,2,A*%
%TO.N,Board_12-/VCC*%
X152500000Y-61212500D03*
%TD*%
%TO.P,D1,1,K*%
%TO.N,Board_11-Net-(D1-K)*%
X137500000Y-62787500D03*
%TO.P,D1,2,A*%
%TO.N,Board_11-/VCC*%
X137500000Y-61212500D03*
%TD*%
%TO.P,D1,1,K*%
%TO.N,Board_15-Net-(D1-K)*%
X122500000Y-77787500D03*
%TO.P,D1,2,A*%
%TO.N,Board_15-/VCC*%
X122500000Y-76212500D03*
%TD*%
%TO.P,D1,1,K*%
%TO.N,Board_4-Net-(D1-K)*%
X182500000Y-32787500D03*
%TO.P,D1,2,A*%
%TO.N,Board_4-/VCC*%
X182500000Y-31212500D03*
%TD*%
%TO.P,D1,1,K*%
%TO.N,Board_5-Net-(D1-K)*%
X122500000Y-47787500D03*
%TO.P,D1,2,A*%
%TO.N,Board_5-/VCC*%
X122500000Y-46212500D03*
%TD*%
%TO.P,D1,1,K*%
%TO.N,Board_9-Net-(D1-K)*%
X182500000Y-47787500D03*
%TO.P,D1,2,A*%
%TO.N,Board_9-/VCC*%
X182500000Y-46212500D03*
%TD*%
%TO.P,D1,1,K*%
%TO.N,Board_2-Net-(D1-K)*%
X152500000Y-32787500D03*
%TO.P,D1,2,A*%
%TO.N,Board_2-/VCC*%
X152500000Y-31212500D03*
%TD*%
%TO.P,D1,1,K*%
%TO.N,Board_7-Net-(D1-K)*%
X152500000Y-47787500D03*
%TO.P,D1,2,A*%
%TO.N,Board_7-/VCC*%
X152500000Y-46212500D03*
%TD*%
%TO.P,D1,1,K*%
%TO.N,Board_3-Net-(D1-K)*%
X167500000Y-32787500D03*
%TO.P,D1,2,A*%
%TO.N,Board_3-/VCC*%
X167500000Y-31212500D03*
%TD*%
%TO.P,D1,1,K*%
%TO.N,Board_6-Net-(D1-K)*%
X137500000Y-47787500D03*
%TO.P,D1,2,A*%
%TO.N,Board_6-/VCC*%
X137500000Y-46212500D03*
%TD*%
%TO.P,D1,1,K*%
%TO.N,Board_8-Net-(D1-K)*%
X167500000Y-47787500D03*
%TO.P,D1,2,A*%
%TO.N,Board_8-/VCC*%
X167500000Y-46212500D03*
%TD*%
%TO.P,D1,1,K*%
%TO.N,Board_10-Net-(D1-K)*%
X122500000Y-62787500D03*
%TO.P,D1,2,A*%
%TO.N,Board_10-/VCC*%
X122500000Y-61212500D03*
%TD*%
%TO.P,D1,1,K*%
%TO.N,Board_1-Net-(D1-K)*%
X137500000Y-32787500D03*
%TO.P,D1,2,A*%
%TO.N,Board_1-/VCC*%
X137500000Y-31212500D03*
%TD*%
%TO.P,D1,1,K*%
%TO.N,Board_13-Net-(D1-K)*%
X167500000Y-62787500D03*
%TO.P,D1,2,A*%
%TO.N,Board_13-/VCC*%
X167500000Y-61212500D03*
%TD*%
%TO.P,D1,1,K*%
%TO.N,Board_14-Net-(D1-K)*%
X182500000Y-62787500D03*
%TO.P,D1,2,A*%
%TO.N,Board_14-/VCC*%
X182500000Y-61212500D03*
%TD*%
D15*
%TO.P,R4,1*%
%TO.N,Board_3-/VCC*%
X159010000Y-34010000D03*
%TO.P,R4,2*%
%TO.N,Board_3-/SCL*%
X159010000Y-32990000D03*
%TD*%
%TO.P,R4,1*%
%TO.N,Board_6-/VCC*%
X129010000Y-49010000D03*
%TO.P,R4,2*%
%TO.N,Board_6-/SCL*%
X129010000Y-47990000D03*
%TD*%
%TO.P,R4,1*%
%TO.N,Board_12-/VCC*%
X144010000Y-64010000D03*
%TO.P,R4,2*%
%TO.N,Board_12-/SCL*%
X144010000Y-62990000D03*
%TD*%
%TO.P,R4,1*%
%TO.N,Board_14-/VCC*%
X174010000Y-64010000D03*
%TO.P,R4,2*%
%TO.N,Board_14-/SCL*%
X174010000Y-62990000D03*
%TD*%
%TO.P,R4,1*%
%TO.N,Board_16-/VCC*%
X129010000Y-79010000D03*
%TO.P,R4,2*%
%TO.N,Board_16-/SCL*%
X129010000Y-77990000D03*
%TD*%
%TO.P,R4,1*%
%TO.N,Board_18-/VCC*%
X159010000Y-79010000D03*
%TO.P,R4,2*%
%TO.N,Board_18-/SCL*%
X159010000Y-77990000D03*
%TD*%
%TO.P,R4,1*%
%TO.N,Board_9-/VCC*%
X174010000Y-49010000D03*
%TO.P,R4,2*%
%TO.N,Board_9-/SCL*%
X174010000Y-47990000D03*
%TD*%
%TO.P,R4,1*%
%TO.N,Board_8-/VCC*%
X159010000Y-49010000D03*
%TO.P,R4,2*%
%TO.N,Board_8-/SCL*%
X159010000Y-47990000D03*
%TD*%
%TO.P,R4,1*%
%TO.N,Board_1-/VCC*%
X129010000Y-34010000D03*
%TO.P,R4,2*%
%TO.N,Board_1-/SCL*%
X129010000Y-32990000D03*
%TD*%
%TO.P,R4,1*%
%TO.N,Board_2-/VCC*%
X144010000Y-34010000D03*
%TO.P,R4,2*%
%TO.N,Board_2-/SCL*%
X144010000Y-32990000D03*
%TD*%
%TO.P,R4,1*%
%TO.N,Board_5-/VCC*%
X114010000Y-49010000D03*
%TO.P,R4,2*%
%TO.N,Board_5-/SCL*%
X114010000Y-47990000D03*
%TD*%
%TO.P,R4,1*%
%TO.N,Board_4-/VCC*%
X174010000Y-34010000D03*
%TO.P,R4,2*%
%TO.N,Board_4-/SCL*%
X174010000Y-32990000D03*
%TD*%
%TO.P,R4,1*%
%TO.N,Board_7-/VCC*%
X144010000Y-49010000D03*
%TO.P,R4,2*%
%TO.N,Board_7-/SCL*%
X144010000Y-47990000D03*
%TD*%
%TO.P,R4,1*%
%TO.N,Board_10-/VCC*%
X114010000Y-64010000D03*
%TO.P,R4,2*%
%TO.N,Board_10-/SCL*%
X114010000Y-62990000D03*
%TD*%
%TO.P,R4,1*%
%TO.N,Board_11-/VCC*%
X129010000Y-64010000D03*
%TO.P,R4,2*%
%TO.N,Board_11-/SCL*%
X129010000Y-62990000D03*
%TD*%
%TO.P,R4,1*%
%TO.N,Board_13-/VCC*%
X159010000Y-64010000D03*
%TO.P,R4,2*%
%TO.N,Board_13-/SCL*%
X159010000Y-62990000D03*
%TD*%
%TO.P,R4,1*%
%TO.N,Board_15-/VCC*%
X114010000Y-79010000D03*
%TO.P,R4,2*%
%TO.N,Board_15-/SCL*%
X114010000Y-77990000D03*
%TD*%
%TO.P,R4,1*%
%TO.N,Board_17-/VCC*%
X144010000Y-79010000D03*
%TO.P,R4,2*%
%TO.N,Board_17-/SCL*%
X144010000Y-77990000D03*
%TD*%
%TO.P,R4,1*%
%TO.N,Board_20-/VCC*%
X114010000Y-94010000D03*
%TO.P,R4,2*%
%TO.N,Board_20-/SCL*%
X114010000Y-92990000D03*
%TD*%
%TO.P,R4,1*%
%TO.N,Board_19-/VCC*%
X174010000Y-79010000D03*
%TO.P,R4,2*%
%TO.N,Board_19-/SCL*%
X174010000Y-77990000D03*
%TD*%
%TO.P,R4,1*%
%TO.N,Board_23-/VCC*%
X159010000Y-94010000D03*
%TO.P,R4,2*%
%TO.N,Board_23-/SCL*%
X159010000Y-92990000D03*
%TD*%
%TO.P,R4,1*%
%TO.N,Board_21-/VCC*%
X129010000Y-94010000D03*
%TO.P,R4,2*%
%TO.N,Board_21-/SCL*%
X129010000Y-92990000D03*
%TD*%
%TO.P,R4,1*%
%TO.N,Board_0-/VCC*%
X114010000Y-34010000D03*
%TO.P,R4,2*%
%TO.N,Board_0-/SCL*%
X114010000Y-32990000D03*
%TD*%
%TO.P,R4,1*%
%TO.N,Board_22-/VCC*%
X144010000Y-94010000D03*
%TO.P,R4,2*%
%TO.N,Board_22-/SCL*%
X144010000Y-92990000D03*
%TD*%
%TO.P,R4,1*%
%TO.N,Board_24-/VCC*%
X174010000Y-94010000D03*
%TO.P,R4,2*%
%TO.N,Board_24-/SCL*%
X174010000Y-92990000D03*
%TD*%
D12*
%TO.P,R1,1*%
%TO.N,Board_12-/SDA*%
X145750000Y-60990000D03*
%TO.P,R1,2*%
%TO.N,Board_12-Net-(U1-SDA)*%
X145750000Y-62010000D03*
%TD*%
%TO.P,R1,1*%
%TO.N,Board_15-/SDA*%
X115750000Y-75990000D03*
%TO.P,R1,2*%
%TO.N,Board_15-Net-(U1-SDA)*%
X115750000Y-77010000D03*
%TD*%
%TO.P,R1,1*%
%TO.N,Board_18-/SDA*%
X160750000Y-75990000D03*
%TO.P,R1,2*%
%TO.N,Board_18-Net-(U1-SDA)*%
X160750000Y-77010000D03*
%TD*%
%TO.P,R1,1*%
%TO.N,Board_4-/SDA*%
X175750000Y-30990000D03*
%TO.P,R1,2*%
%TO.N,Board_4-Net-(U1-SDA)*%
X175750000Y-32010000D03*
%TD*%
%TO.P,R1,1*%
%TO.N,Board_7-/SDA*%
X145750000Y-45990000D03*
%TO.P,R1,2*%
%TO.N,Board_7-Net-(U1-SDA)*%
X145750000Y-47010000D03*
%TD*%
%TO.P,R1,1*%
%TO.N,Board_8-/SDA*%
X160750000Y-45990000D03*
%TO.P,R1,2*%
%TO.N,Board_8-Net-(U1-SDA)*%
X160750000Y-47010000D03*
%TD*%
%TO.P,R1,1*%
%TO.N,Board_1-/SDA*%
X130750000Y-30990000D03*
%TO.P,R1,2*%
%TO.N,Board_1-Net-(U1-SDA)*%
X130750000Y-32010000D03*
%TD*%
%TO.P,R1,1*%
%TO.N,Board_3-/SDA*%
X160750000Y-30990000D03*
%TO.P,R1,2*%
%TO.N,Board_3-Net-(U1-SDA)*%
X160750000Y-32010000D03*
%TD*%
%TO.P,R1,1*%
%TO.N,Board_9-/SDA*%
X175750000Y-45990000D03*
%TO.P,R1,2*%
%TO.N,Board_9-Net-(U1-SDA)*%
X175750000Y-47010000D03*
%TD*%
%TO.P,R1,1*%
%TO.N,Board_2-/SDA*%
X145750000Y-30990000D03*
%TO.P,R1,2*%
%TO.N,Board_2-Net-(U1-SDA)*%
X145750000Y-32010000D03*
%TD*%
%TO.P,R1,1*%
%TO.N,Board_10-/SDA*%
X115750000Y-60990000D03*
%TO.P,R1,2*%
%TO.N,Board_10-Net-(U1-SDA)*%
X115750000Y-62010000D03*
%TD*%
%TO.P,R1,1*%
%TO.N,Board_11-/SDA*%
X130750000Y-60990000D03*
%TO.P,R1,2*%
%TO.N,Board_11-Net-(U1-SDA)*%
X130750000Y-62010000D03*
%TD*%
%TO.P,R1,1*%
%TO.N,Board_13-/SDA*%
X160750000Y-60990000D03*
%TO.P,R1,2*%
%TO.N,Board_13-Net-(U1-SDA)*%
X160750000Y-62010000D03*
%TD*%
%TO.P,R1,1*%
%TO.N,Board_6-/SDA*%
X130750000Y-45990000D03*
%TO.P,R1,2*%
%TO.N,Board_6-Net-(U1-SDA)*%
X130750000Y-47010000D03*
%TD*%
%TO.P,R1,1*%
%TO.N,Board_5-/SDA*%
X115750000Y-45990000D03*
%TO.P,R1,2*%
%TO.N,Board_5-Net-(U1-SDA)*%
X115750000Y-47010000D03*
%TD*%
%TO.P,R1,1*%
%TO.N,Board_14-/SDA*%
X175750000Y-60990000D03*
%TO.P,R1,2*%
%TO.N,Board_14-Net-(U1-SDA)*%
X175750000Y-62010000D03*
%TD*%
%TO.P,R1,1*%
%TO.N,Board_17-/SDA*%
X145750000Y-75990000D03*
%TO.P,R1,2*%
%TO.N,Board_17-Net-(U1-SDA)*%
X145750000Y-77010000D03*
%TD*%
%TO.P,R1,1*%
%TO.N,Board_16-/SDA*%
X130750000Y-75990000D03*
%TO.P,R1,2*%
%TO.N,Board_16-Net-(U1-SDA)*%
X130750000Y-77010000D03*
%TD*%
%TO.P,R1,1*%
%TO.N,Board_20-/SDA*%
X115750000Y-90990000D03*
%TO.P,R1,2*%
%TO.N,Board_20-Net-(U1-SDA)*%
X115750000Y-92010000D03*
%TD*%
%TO.P,R1,1*%
%TO.N,Board_21-/SDA*%
X130750000Y-90990000D03*
%TO.P,R1,2*%
%TO.N,Board_21-Net-(U1-SDA)*%
X130750000Y-92010000D03*
%TD*%
%TO.P,R1,1*%
%TO.N,Board_23-/SDA*%
X160750000Y-90990000D03*
%TO.P,R1,2*%
%TO.N,Board_23-Net-(U1-SDA)*%
X160750000Y-92010000D03*
%TD*%
%TO.P,R1,1*%
%TO.N,Board_24-/SDA*%
X175750000Y-90990000D03*
%TO.P,R1,2*%
%TO.N,Board_24-Net-(U1-SDA)*%
X175750000Y-92010000D03*
%TD*%
%TO.P,R1,1*%
%TO.N,Board_22-/SDA*%
X145750000Y-90990000D03*
%TO.P,R1,2*%
%TO.N,Board_22-Net-(U1-SDA)*%
X145750000Y-92010000D03*
%TD*%
%TO.P,R1,1*%
%TO.N,Board_0-/SDA*%
X115750000Y-30990000D03*
%TO.P,R1,2*%
%TO.N,Board_0-Net-(U1-SDA)*%
X115750000Y-32010000D03*
%TD*%
%TO.P,R1,1*%
%TO.N,Board_19-/SDA*%
X175750000Y-75990000D03*
%TO.P,R1,2*%
%TO.N,Board_19-Net-(U1-SDA)*%
X175750000Y-77010000D03*
%TD*%
D15*
%TO.P,R5,1*%
%TO.N,Board_1-Net-(D1-K)*%
X138800000Y-33010000D03*
%TO.P,R5,2*%
%TO.N,Board_1-GND*%
X138800000Y-31990000D03*
%TD*%
%TO.P,R5,1*%
%TO.N,Board_2-Net-(D1-K)*%
X153800000Y-33010000D03*
%TO.P,R5,2*%
%TO.N,Board_2-GND*%
X153800000Y-31990000D03*
%TD*%
%TO.P,R5,1*%
%TO.N,Board_4-Net-(D1-K)*%
X183800000Y-33010000D03*
%TO.P,R5,2*%
%TO.N,Board_4-GND*%
X183800000Y-31990000D03*
%TD*%
%TO.P,R5,1*%
%TO.N,Board_3-Net-(D1-K)*%
X168800000Y-33010000D03*
%TO.P,R5,2*%
%TO.N,Board_3-GND*%
X168800000Y-31990000D03*
%TD*%
%TO.P,R5,1*%
%TO.N,Board_23-Net-(D1-K)*%
X168800000Y-93010000D03*
%TO.P,R5,2*%
%TO.N,Board_23-GND*%
X168800000Y-91990000D03*
%TD*%
%TO.P,R5,1*%
%TO.N,Board_7-Net-(D1-K)*%
X153800000Y-48010000D03*
%TO.P,R5,2*%
%TO.N,Board_7-GND*%
X153800000Y-46990000D03*
%TD*%
%TO.P,R5,1*%
%TO.N,Board_6-Net-(D1-K)*%
X138800000Y-48010000D03*
%TO.P,R5,2*%
%TO.N,Board_6-GND*%
X138800000Y-46990000D03*
%TD*%
%TO.P,R5,1*%
%TO.N,Board_13-Net-(D1-K)*%
X168800000Y-63010000D03*
%TO.P,R5,2*%
%TO.N,Board_13-GND*%
X168800000Y-61990000D03*
%TD*%
%TO.P,R5,1*%
%TO.N,Board_17-Net-(D1-K)*%
X153800000Y-78010000D03*
%TO.P,R5,2*%
%TO.N,Board_17-GND*%
X153800000Y-76990000D03*
%TD*%
%TO.P,R5,1*%
%TO.N,Board_11-Net-(D1-K)*%
X138800000Y-63010000D03*
%TO.P,R5,2*%
%TO.N,Board_11-GND*%
X138800000Y-61990000D03*
%TD*%
%TO.P,R5,1*%
%TO.N,Board_18-Net-(D1-K)*%
X168800000Y-78010000D03*
%TO.P,R5,2*%
%TO.N,Board_18-GND*%
X168800000Y-76990000D03*
%TD*%
%TO.P,R5,1*%
%TO.N,Board_14-Net-(D1-K)*%
X183800000Y-63010000D03*
%TO.P,R5,2*%
%TO.N,Board_14-GND*%
X183800000Y-61990000D03*
%TD*%
%TO.P,R5,1*%
%TO.N,Board_5-Net-(D1-K)*%
X123800000Y-48010000D03*
%TO.P,R5,2*%
%TO.N,Board_5-GND*%
X123800000Y-46990000D03*
%TD*%
%TO.P,R5,1*%
%TO.N,Board_16-Net-(D1-K)*%
X138800000Y-78010000D03*
%TO.P,R5,2*%
%TO.N,Board_16-GND*%
X138800000Y-76990000D03*
%TD*%
%TO.P,R5,1*%
%TO.N,Board_21-Net-(D1-K)*%
X138800000Y-93010000D03*
%TO.P,R5,2*%
%TO.N,Board_21-GND*%
X138800000Y-91990000D03*
%TD*%
%TO.P,R5,1*%
%TO.N,Board_19-Net-(D1-K)*%
X183800000Y-78010000D03*
%TO.P,R5,2*%
%TO.N,Board_19-GND*%
X183800000Y-76990000D03*
%TD*%
%TO.P,R5,1*%
%TO.N,Board_10-Net-(D1-K)*%
X123800000Y-63010000D03*
%TO.P,R5,2*%
%TO.N,Board_10-GND*%
X123800000Y-61990000D03*
%TD*%
%TO.P,R5,1*%
%TO.N,Board_12-Net-(D1-K)*%
X153800000Y-63010000D03*
%TO.P,R5,2*%
%TO.N,Board_12-GND*%
X153800000Y-61990000D03*
%TD*%
%TO.P,R5,1*%
%TO.N,Board_8-Net-(D1-K)*%
X168800000Y-48010000D03*
%TO.P,R5,2*%
%TO.N,Board_8-GND*%
X168800000Y-46990000D03*
%TD*%
%TO.P,R5,1*%
%TO.N,Board_15-Net-(D1-K)*%
X123800000Y-78010000D03*
%TO.P,R5,2*%
%TO.N,Board_15-GND*%
X123800000Y-76990000D03*
%TD*%
%TO.P,R5,1*%
%TO.N,Board_20-Net-(D1-K)*%
X123800000Y-93010000D03*
%TO.P,R5,2*%
%TO.N,Board_20-GND*%
X123800000Y-91990000D03*
%TD*%
%TO.P,R5,1*%
%TO.N,Board_9-Net-(D1-K)*%
X183800000Y-48010000D03*
%TO.P,R5,2*%
%TO.N,Board_9-GND*%
X183800000Y-46990000D03*
%TD*%
%TO.P,R5,1*%
%TO.N,Board_22-Net-(D1-K)*%
X153800000Y-93010000D03*
%TO.P,R5,2*%
%TO.N,Board_22-GND*%
X153800000Y-91990000D03*
%TD*%
%TO.P,R5,1*%
%TO.N,Board_24-Net-(D1-K)*%
X183800000Y-93010000D03*
%TO.P,R5,2*%
%TO.N,Board_24-GND*%
X183800000Y-91990000D03*
%TD*%
%TO.P,R5,1*%
%TO.N,Board_0-Net-(D1-K)*%
X123800000Y-33010000D03*
%TO.P,R5,2*%
%TO.N,Board_0-GND*%
X123800000Y-31990000D03*
%TD*%
D16*
%TO.P,U1,1,SCL*%
%TO.N,Board_1-Net-(U1-SCL)*%
X132340000Y-31950000D03*
%TO.P,U1,2,GND*%
%TO.N,Board_1-GND*%
X132340000Y-32900000D03*
%TO.P,U1,3,GND*%
X132340000Y-33850000D03*
%TO.P,U1,4,VCC*%
%TO.N,Board_1-/VCC*%
X134660000Y-33850000D03*
%TO.P,U1,5,GND*%
%TO.N,Board_1-GND*%
X134660000Y-32900000D03*
%TO.P,U1,6,SDA*%
%TO.N,Board_1-Net-(U1-SDA)*%
X134660000Y-31950000D03*
%TD*%
%TO.P,U1,1,SCL*%
%TO.N,Board_3-Net-(U1-SCL)*%
X162340000Y-31950000D03*
%TO.P,U1,2,GND*%
%TO.N,Board_3-GND*%
X162340000Y-32900000D03*
%TO.P,U1,3,GND*%
X162340000Y-33850000D03*
%TO.P,U1,4,VCC*%
%TO.N,Board_3-/VCC*%
X164660000Y-33850000D03*
%TO.P,U1,5,GND*%
%TO.N,Board_3-GND*%
X164660000Y-32900000D03*
%TO.P,U1,6,SDA*%
%TO.N,Board_3-Net-(U1-SDA)*%
X164660000Y-31950000D03*
%TD*%
%TO.P,U1,1,SCL*%
%TO.N,Board_2-Net-(U1-SCL)*%
X147340000Y-31950000D03*
%TO.P,U1,2,GND*%
%TO.N,Board_2-GND*%
X147340000Y-32900000D03*
%TO.P,U1,3,GND*%
X147340000Y-33850000D03*
%TO.P,U1,4,VCC*%
%TO.N,Board_2-/VCC*%
X149660000Y-33850000D03*
%TO.P,U1,5,GND*%
%TO.N,Board_2-GND*%
X149660000Y-32900000D03*
%TO.P,U1,6,SDA*%
%TO.N,Board_2-Net-(U1-SDA)*%
X149660000Y-31950000D03*
%TD*%
%TO.P,U1,1,SCL*%
%TO.N,Board_7-Net-(U1-SCL)*%
X147340000Y-46950000D03*
%TO.P,U1,2,GND*%
%TO.N,Board_7-GND*%
X147340000Y-47900000D03*
%TO.P,U1,3,GND*%
X147340000Y-48850000D03*
%TO.P,U1,4,VCC*%
%TO.N,Board_7-/VCC*%
X149660000Y-48850000D03*
%TO.P,U1,5,GND*%
%TO.N,Board_7-GND*%
X149660000Y-47900000D03*
%TO.P,U1,6,SDA*%
%TO.N,Board_7-Net-(U1-SDA)*%
X149660000Y-46950000D03*
%TD*%
%TO.P,U1,1,SCL*%
%TO.N,Board_8-Net-(U1-SCL)*%
X162340000Y-46950000D03*
%TO.P,U1,2,GND*%
%TO.N,Board_8-GND*%
X162340000Y-47900000D03*
%TO.P,U1,3,GND*%
X162340000Y-48850000D03*
%TO.P,U1,4,VCC*%
%TO.N,Board_8-/VCC*%
X164660000Y-48850000D03*
%TO.P,U1,5,GND*%
%TO.N,Board_8-GND*%
X164660000Y-47900000D03*
%TO.P,U1,6,SDA*%
%TO.N,Board_8-Net-(U1-SDA)*%
X164660000Y-46950000D03*
%TD*%
%TO.P,U1,1,SCL*%
%TO.N,Board_13-Net-(U1-SCL)*%
X162340000Y-61950000D03*
%TO.P,U1,2,GND*%
%TO.N,Board_13-GND*%
X162340000Y-62900000D03*
%TO.P,U1,3,GND*%
X162340000Y-63850000D03*
%TO.P,U1,4,VCC*%
%TO.N,Board_13-/VCC*%
X164660000Y-63850000D03*
%TO.P,U1,5,GND*%
%TO.N,Board_13-GND*%
X164660000Y-62900000D03*
%TO.P,U1,6,SDA*%
%TO.N,Board_13-Net-(U1-SDA)*%
X164660000Y-61950000D03*
%TD*%
%TO.P,U1,1,SCL*%
%TO.N,Board_5-Net-(U1-SCL)*%
X117340000Y-46950000D03*
%TO.P,U1,2,GND*%
%TO.N,Board_5-GND*%
X117340000Y-47900000D03*
%TO.P,U1,3,GND*%
X117340000Y-48850000D03*
%TO.P,U1,4,VCC*%
%TO.N,Board_5-/VCC*%
X119660000Y-48850000D03*
%TO.P,U1,5,GND*%
%TO.N,Board_5-GND*%
X119660000Y-47900000D03*
%TO.P,U1,6,SDA*%
%TO.N,Board_5-Net-(U1-SDA)*%
X119660000Y-46950000D03*
%TD*%
%TO.P,U1,1,SCL*%
%TO.N,Board_9-Net-(U1-SCL)*%
X177340000Y-46950000D03*
%TO.P,U1,2,GND*%
%TO.N,Board_9-GND*%
X177340000Y-47900000D03*
%TO.P,U1,3,GND*%
X177340000Y-48850000D03*
%TO.P,U1,4,VCC*%
%TO.N,Board_9-/VCC*%
X179660000Y-48850000D03*
%TO.P,U1,5,GND*%
%TO.N,Board_9-GND*%
X179660000Y-47900000D03*
%TO.P,U1,6,SDA*%
%TO.N,Board_9-Net-(U1-SDA)*%
X179660000Y-46950000D03*
%TD*%
%TO.P,U1,1,SCL*%
%TO.N,Board_23-Net-(U1-SCL)*%
X162340000Y-91950000D03*
%TO.P,U1,2,GND*%
%TO.N,Board_23-GND*%
X162340000Y-92900000D03*
%TO.P,U1,3,GND*%
X162340000Y-93850000D03*
%TO.P,U1,4,VCC*%
%TO.N,Board_23-/VCC*%
X164660000Y-93850000D03*
%TO.P,U1,5,GND*%
%TO.N,Board_23-GND*%
X164660000Y-92900000D03*
%TO.P,U1,6,SDA*%
%TO.N,Board_23-Net-(U1-SDA)*%
X164660000Y-91950000D03*
%TD*%
%TO.P,U1,1,SCL*%
%TO.N,Board_11-Net-(U1-SCL)*%
X132340000Y-61950000D03*
%TO.P,U1,2,GND*%
%TO.N,Board_11-GND*%
X132340000Y-62900000D03*
%TO.P,U1,3,GND*%
X132340000Y-63850000D03*
%TO.P,U1,4,VCC*%
%TO.N,Board_11-/VCC*%
X134660000Y-63850000D03*
%TO.P,U1,5,GND*%
%TO.N,Board_11-GND*%
X134660000Y-62900000D03*
%TO.P,U1,6,SDA*%
%TO.N,Board_11-Net-(U1-SDA)*%
X134660000Y-61950000D03*
%TD*%
%TO.P,U1,1,SCL*%
%TO.N,Board_15-Net-(U1-SCL)*%
X117340000Y-76950000D03*
%TO.P,U1,2,GND*%
%TO.N,Board_15-GND*%
X117340000Y-77900000D03*
%TO.P,U1,3,GND*%
X117340000Y-78850000D03*
%TO.P,U1,4,VCC*%
%TO.N,Board_15-/VCC*%
X119660000Y-78850000D03*
%TO.P,U1,5,GND*%
%TO.N,Board_15-GND*%
X119660000Y-77900000D03*
%TO.P,U1,6,SDA*%
%TO.N,Board_15-Net-(U1-SDA)*%
X119660000Y-76950000D03*
%TD*%
%TO.P,U1,1,SCL*%
%TO.N,Board_18-Net-(U1-SCL)*%
X162340000Y-76950000D03*
%TO.P,U1,2,GND*%
%TO.N,Board_18-GND*%
X162340000Y-77900000D03*
%TO.P,U1,3,GND*%
X162340000Y-78850000D03*
%TO.P,U1,4,VCC*%
%TO.N,Board_18-/VCC*%
X164660000Y-78850000D03*
%TO.P,U1,5,GND*%
%TO.N,Board_18-GND*%
X164660000Y-77900000D03*
%TO.P,U1,6,SDA*%
%TO.N,Board_18-Net-(U1-SDA)*%
X164660000Y-76950000D03*
%TD*%
%TO.P,U1,1,SCL*%
%TO.N,Board_10-Net-(U1-SCL)*%
X117340000Y-61950000D03*
%TO.P,U1,2,GND*%
%TO.N,Board_10-GND*%
X117340000Y-62900000D03*
%TO.P,U1,3,GND*%
X117340000Y-63850000D03*
%TO.P,U1,4,VCC*%
%TO.N,Board_10-/VCC*%
X119660000Y-63850000D03*
%TO.P,U1,5,GND*%
%TO.N,Board_10-GND*%
X119660000Y-62900000D03*
%TO.P,U1,6,SDA*%
%TO.N,Board_10-Net-(U1-SDA)*%
X119660000Y-61950000D03*
%TD*%
%TO.P,U1,1,SCL*%
%TO.N,Board_20-Net-(U1-SCL)*%
X117340000Y-91950000D03*
%TO.P,U1,2,GND*%
%TO.N,Board_20-GND*%
X117340000Y-92900000D03*
%TO.P,U1,3,GND*%
X117340000Y-93850000D03*
%TO.P,U1,4,VCC*%
%TO.N,Board_20-/VCC*%
X119660000Y-93850000D03*
%TO.P,U1,5,GND*%
%TO.N,Board_20-GND*%
X119660000Y-92900000D03*
%TO.P,U1,6,SDA*%
%TO.N,Board_20-Net-(U1-SDA)*%
X119660000Y-91950000D03*
%TD*%
%TO.P,U1,1,SCL*%
%TO.N,Board_0-Net-(U1-SCL)*%
X117340000Y-31950000D03*
%TO.P,U1,2,GND*%
%TO.N,Board_0-GND*%
X117340000Y-32900000D03*
%TO.P,U1,3,GND*%
X117340000Y-33850000D03*
%TO.P,U1,4,VCC*%
%TO.N,Board_0-/VCC*%
X119660000Y-33850000D03*
%TO.P,U1,5,GND*%
%TO.N,Board_0-GND*%
X119660000Y-32900000D03*
%TO.P,U1,6,SDA*%
%TO.N,Board_0-Net-(U1-SDA)*%
X119660000Y-31950000D03*
%TD*%
%TO.P,U1,1,SCL*%
%TO.N,Board_14-Net-(U1-SCL)*%
X177340000Y-61950000D03*
%TO.P,U1,2,GND*%
%TO.N,Board_14-GND*%
X177340000Y-62900000D03*
%TO.P,U1,3,GND*%
X177340000Y-63850000D03*
%TO.P,U1,4,VCC*%
%TO.N,Board_14-/VCC*%
X179660000Y-63850000D03*
%TO.P,U1,5,GND*%
%TO.N,Board_14-GND*%
X179660000Y-62900000D03*
%TO.P,U1,6,SDA*%
%TO.N,Board_14-Net-(U1-SDA)*%
X179660000Y-61950000D03*
%TD*%
%TO.P,U1,1,SCL*%
%TO.N,Board_16-Net-(U1-SCL)*%
X132340000Y-76950000D03*
%TO.P,U1,2,GND*%
%TO.N,Board_16-GND*%
X132340000Y-77900000D03*
%TO.P,U1,3,GND*%
X132340000Y-78850000D03*
%TO.P,U1,4,VCC*%
%TO.N,Board_16-/VCC*%
X134660000Y-78850000D03*
%TO.P,U1,5,GND*%
%TO.N,Board_16-GND*%
X134660000Y-77900000D03*
%TO.P,U1,6,SDA*%
%TO.N,Board_16-Net-(U1-SDA)*%
X134660000Y-76950000D03*
%TD*%
%TO.P,U1,1,SCL*%
%TO.N,Board_4-Net-(U1-SCL)*%
X177340000Y-31950000D03*
%TO.P,U1,2,GND*%
%TO.N,Board_4-GND*%
X177340000Y-32900000D03*
%TO.P,U1,3,GND*%
X177340000Y-33850000D03*
%TO.P,U1,4,VCC*%
%TO.N,Board_4-/VCC*%
X179660000Y-33850000D03*
%TO.P,U1,5,GND*%
%TO.N,Board_4-GND*%
X179660000Y-32900000D03*
%TO.P,U1,6,SDA*%
%TO.N,Board_4-Net-(U1-SDA)*%
X179660000Y-31950000D03*
%TD*%
%TO.P,U1,1,SCL*%
%TO.N,Board_12-Net-(U1-SCL)*%
X147340000Y-61950000D03*
%TO.P,U1,2,GND*%
%TO.N,Board_12-GND*%
X147340000Y-62900000D03*
%TO.P,U1,3,GND*%
X147340000Y-63850000D03*
%TO.P,U1,4,VCC*%
%TO.N,Board_12-/VCC*%
X149660000Y-63850000D03*
%TO.P,U1,5,GND*%
%TO.N,Board_12-GND*%
X149660000Y-62900000D03*
%TO.P,U1,6,SDA*%
%TO.N,Board_12-Net-(U1-SDA)*%
X149660000Y-61950000D03*
%TD*%
%TO.P,U1,1,SCL*%
%TO.N,Board_19-Net-(U1-SCL)*%
X177340000Y-76950000D03*
%TO.P,U1,2,GND*%
%TO.N,Board_19-GND*%
X177340000Y-77900000D03*
%TO.P,U1,3,GND*%
X177340000Y-78850000D03*
%TO.P,U1,4,VCC*%
%TO.N,Board_19-/VCC*%
X179660000Y-78850000D03*
%TO.P,U1,5,GND*%
%TO.N,Board_19-GND*%
X179660000Y-77900000D03*
%TO.P,U1,6,SDA*%
%TO.N,Board_19-Net-(U1-SDA)*%
X179660000Y-76950000D03*
%TD*%
%TO.P,U1,1,SCL*%
%TO.N,Board_22-Net-(U1-SCL)*%
X147340000Y-91950000D03*
%TO.P,U1,2,GND*%
%TO.N,Board_22-GND*%
X147340000Y-92900000D03*
%TO.P,U1,3,GND*%
X147340000Y-93850000D03*
%TO.P,U1,4,VCC*%
%TO.N,Board_22-/VCC*%
X149660000Y-93850000D03*
%TO.P,U1,5,GND*%
%TO.N,Board_22-GND*%
X149660000Y-92900000D03*
%TO.P,U1,6,SDA*%
%TO.N,Board_22-Net-(U1-SDA)*%
X149660000Y-91950000D03*
%TD*%
%TO.P,U1,1,SCL*%
%TO.N,Board_17-Net-(U1-SCL)*%
X147340000Y-76950000D03*
%TO.P,U1,2,GND*%
%TO.N,Board_17-GND*%
X147340000Y-77900000D03*
%TO.P,U1,3,GND*%
X147340000Y-78850000D03*
%TO.P,U1,4,VCC*%
%TO.N,Board_17-/VCC*%
X149660000Y-78850000D03*
%TO.P,U1,5,GND*%
%TO.N,Board_17-GND*%
X149660000Y-77900000D03*
%TO.P,U1,6,SDA*%
%TO.N,Board_17-Net-(U1-SDA)*%
X149660000Y-76950000D03*
%TD*%
%TO.P,U1,1,SCL*%
%TO.N,Board_24-Net-(U1-SCL)*%
X177340000Y-91950000D03*
%TO.P,U1,2,GND*%
%TO.N,Board_24-GND*%
X177340000Y-92900000D03*
%TO.P,U1,3,GND*%
X177340000Y-93850000D03*
%TO.P,U1,4,VCC*%
%TO.N,Board_24-/VCC*%
X179660000Y-93850000D03*
%TO.P,U1,5,GND*%
%TO.N,Board_24-GND*%
X179660000Y-92900000D03*
%TO.P,U1,6,SDA*%
%TO.N,Board_24-Net-(U1-SDA)*%
X179660000Y-91950000D03*
%TD*%
%TO.P,U1,1,SCL*%
%TO.N,Board_6-Net-(U1-SCL)*%
X132340000Y-46950000D03*
%TO.P,U1,2,GND*%
%TO.N,Board_6-GND*%
X132340000Y-47900000D03*
%TO.P,U1,3,GND*%
X132340000Y-48850000D03*
%TO.P,U1,4,VCC*%
%TO.N,Board_6-/VCC*%
X134660000Y-48850000D03*
%TO.P,U1,5,GND*%
%TO.N,Board_6-GND*%
X134660000Y-47900000D03*
%TO.P,U1,6,SDA*%
%TO.N,Board_6-Net-(U1-SDA)*%
X134660000Y-46950000D03*
%TD*%
%TO.P,U1,1,SCL*%
%TO.N,Board_21-Net-(U1-SCL)*%
X132340000Y-91950000D03*
%TO.P,U1,2,GND*%
%TO.N,Board_21-GND*%
X132340000Y-92900000D03*
%TO.P,U1,3,GND*%
X132340000Y-93850000D03*
%TO.P,U1,4,VCC*%
%TO.N,Board_21-/VCC*%
X134660000Y-93850000D03*
%TO.P,U1,5,GND*%
%TO.N,Board_21-GND*%
X134660000Y-92900000D03*
%TO.P,U1,6,SDA*%
%TO.N,Board_21-Net-(U1-SDA)*%
X134660000Y-91950000D03*
%TD*%
D15*
%TO.P,R3,1*%
%TO.N,Board_4-/VCC*%
X181000000Y-32010000D03*
%TO.P,R3,2*%
%TO.N,Board_4-/SDA*%
X181000000Y-30990000D03*
%TD*%
%TO.P,R3,1*%
%TO.N,Board_2-/VCC*%
X151000000Y-32010000D03*
%TO.P,R3,2*%
%TO.N,Board_2-/SDA*%
X151000000Y-30990000D03*
%TD*%
%TO.P,R3,1*%
%TO.N,Board_3-/VCC*%
X166000000Y-32010000D03*
%TO.P,R3,2*%
%TO.N,Board_3-/SDA*%
X166000000Y-30990000D03*
%TD*%
%TO.P,R3,1*%
%TO.N,Board_1-/VCC*%
X136000000Y-32010000D03*
%TO.P,R3,2*%
%TO.N,Board_1-/SDA*%
X136000000Y-30990000D03*
%TD*%
%TO.P,R3,1*%
%TO.N,Board_5-/VCC*%
X121000000Y-47010000D03*
%TO.P,R3,2*%
%TO.N,Board_5-/SDA*%
X121000000Y-45990000D03*
%TD*%
%TO.P,R3,1*%
%TO.N,Board_10-/VCC*%
X121000000Y-62010000D03*
%TO.P,R3,2*%
%TO.N,Board_10-/SDA*%
X121000000Y-60990000D03*
%TD*%
%TO.P,R3,1*%
%TO.N,Board_7-/VCC*%
X151000000Y-47010000D03*
%TO.P,R3,2*%
%TO.N,Board_7-/SDA*%
X151000000Y-45990000D03*
%TD*%
%TO.P,R3,1*%
%TO.N,Board_24-/VCC*%
X181000000Y-92010000D03*
%TO.P,R3,2*%
%TO.N,Board_24-/SDA*%
X181000000Y-90990000D03*
%TD*%
%TO.P,R3,1*%
%TO.N,Board_0-/VCC*%
X121000000Y-32010000D03*
%TO.P,R3,2*%
%TO.N,Board_0-/SDA*%
X121000000Y-30990000D03*
%TD*%
%TO.P,R3,1*%
%TO.N,Board_17-/VCC*%
X151000000Y-77010000D03*
%TO.P,R3,2*%
%TO.N,Board_17-/SDA*%
X151000000Y-75990000D03*
%TD*%
%TO.P,R3,1*%
%TO.N,Board_6-/VCC*%
X136000000Y-47010000D03*
%TO.P,R3,2*%
%TO.N,Board_6-/SDA*%
X136000000Y-45990000D03*
%TD*%
%TO.P,R3,1*%
%TO.N,Board_11-/VCC*%
X136000000Y-62010000D03*
%TO.P,R3,2*%
%TO.N,Board_11-/SDA*%
X136000000Y-60990000D03*
%TD*%
%TO.P,R3,1*%
%TO.N,Board_16-/VCC*%
X136000000Y-77010000D03*
%TO.P,R3,2*%
%TO.N,Board_16-/SDA*%
X136000000Y-75990000D03*
%TD*%
%TO.P,R3,1*%
%TO.N,Board_9-/VCC*%
X181000000Y-47010000D03*
%TO.P,R3,2*%
%TO.N,Board_9-/SDA*%
X181000000Y-45990000D03*
%TD*%
%TO.P,R3,1*%
%TO.N,Board_13-/VCC*%
X166000000Y-62010000D03*
%TO.P,R3,2*%
%TO.N,Board_13-/SDA*%
X166000000Y-60990000D03*
%TD*%
%TO.P,R3,1*%
%TO.N,Board_12-/VCC*%
X151000000Y-62010000D03*
%TO.P,R3,2*%
%TO.N,Board_12-/SDA*%
X151000000Y-60990000D03*
%TD*%
%TO.P,R3,1*%
%TO.N,Board_15-/VCC*%
X121000000Y-77010000D03*
%TO.P,R3,2*%
%TO.N,Board_15-/SDA*%
X121000000Y-75990000D03*
%TD*%
%TO.P,R3,1*%
%TO.N,Board_14-/VCC*%
X181000000Y-62010000D03*
%TO.P,R3,2*%
%TO.N,Board_14-/SDA*%
X181000000Y-60990000D03*
%TD*%
%TO.P,R3,1*%
%TO.N,Board_18-/VCC*%
X166000000Y-77010000D03*
%TO.P,R3,2*%
%TO.N,Board_18-/SDA*%
X166000000Y-75990000D03*
%TD*%
%TO.P,R3,1*%
%TO.N,Board_20-/VCC*%
X121000000Y-92010000D03*
%TO.P,R3,2*%
%TO.N,Board_20-/SDA*%
X121000000Y-90990000D03*
%TD*%
%TO.P,R3,1*%
%TO.N,Board_21-/VCC*%
X136000000Y-92010000D03*
%TO.P,R3,2*%
%TO.N,Board_21-/SDA*%
X136000000Y-90990000D03*
%TD*%
%TO.P,R3,1*%
%TO.N,Board_8-/VCC*%
X166000000Y-47010000D03*
%TO.P,R3,2*%
%TO.N,Board_8-/SDA*%
X166000000Y-45990000D03*
%TD*%
%TO.P,R3,1*%
%TO.N,Board_22-/VCC*%
X151000000Y-92010000D03*
%TO.P,R3,2*%
%TO.N,Board_22-/SDA*%
X151000000Y-90990000D03*
%TD*%
%TO.P,R3,1*%
%TO.N,Board_19-/VCC*%
X181000000Y-77010000D03*
%TO.P,R3,2*%
%TO.N,Board_19-/SDA*%
X181000000Y-75990000D03*
%TD*%
%TO.P,R3,1*%
%TO.N,Board_23-/VCC*%
X166000000Y-92010000D03*
%TO.P,R3,2*%
%TO.N,Board_23-/SDA*%
X166000000Y-90990000D03*
%TD*%
D17*
%TO.N,Board_0-/VCC*%
X115000000Y-34000000D03*
X118710500Y-32859098D03*
%TO.N,Board_0-GND*%
X118477701Y-33997299D03*
X120905523Y-32940121D03*
X123800000Y-31000000D03*
X118487182Y-31801780D03*
X123250000Y-34175000D03*
%TO.N,Board_1-/VCC*%
X130000000Y-34000000D03*
X133710500Y-32859098D03*
%TO.N,Board_1-GND*%
X133477701Y-33997299D03*
X135905523Y-32940121D03*
X138800000Y-31000000D03*
X133487182Y-31801780D03*
X138250000Y-34175000D03*
%TO.N,Board_2-/VCC*%
X145000000Y-34000000D03*
X148710500Y-32859098D03*
%TO.N,Board_2-GND*%
X148477701Y-33997299D03*
X150905523Y-32940121D03*
X153800000Y-31000000D03*
X148487182Y-31801780D03*
X153250000Y-34175000D03*
%TO.N,Board_3-/VCC*%
X160000000Y-34000000D03*
X163710500Y-32859098D03*
%TO.N,Board_3-GND*%
X163477701Y-33997299D03*
X165905523Y-32940121D03*
X168800000Y-31000000D03*
X163487182Y-31801780D03*
X168250000Y-34175000D03*
%TO.N,Board_4-/VCC*%
X175000000Y-34000000D03*
X178710500Y-32859098D03*
%TO.N,Board_4-GND*%
X178477701Y-33997299D03*
X180905523Y-32940121D03*
X183800000Y-31000000D03*
X178487182Y-31801780D03*
X183250000Y-34175000D03*
%TO.N,Board_5-/VCC*%
X115000000Y-49000000D03*
X118710500Y-47859098D03*
%TO.N,Board_5-GND*%
X118477701Y-48997299D03*
X120905523Y-47940121D03*
X123800000Y-46000000D03*
X118487182Y-46801780D03*
X123250000Y-49175000D03*
%TO.N,Board_6-/VCC*%
X130000000Y-49000000D03*
X133710500Y-47859098D03*
%TO.N,Board_6-GND*%
X133477701Y-48997299D03*
X135905523Y-47940121D03*
X138800000Y-46000000D03*
X133487182Y-46801780D03*
X138250000Y-49175000D03*
%TO.N,Board_7-/VCC*%
X145000000Y-49000000D03*
X148710500Y-47859098D03*
%TO.N,Board_7-GND*%
X148477701Y-48997299D03*
X150905523Y-47940121D03*
X153800000Y-46000000D03*
X148487182Y-46801780D03*
X153250000Y-49175000D03*
%TO.N,Board_8-/VCC*%
X160000000Y-49000000D03*
X163710500Y-47859098D03*
%TO.N,Board_8-GND*%
X163477701Y-48997299D03*
X165905523Y-47940121D03*
X168800000Y-46000000D03*
X163487182Y-46801780D03*
X168250000Y-49175000D03*
%TO.N,Board_9-/VCC*%
X175000000Y-49000000D03*
X178710500Y-47859098D03*
%TO.N,Board_9-GND*%
X178477701Y-48997299D03*
X180905523Y-47940121D03*
X183800000Y-46000000D03*
X178487182Y-46801780D03*
X183250000Y-49175000D03*
%TO.N,Board_10-/VCC*%
X115000000Y-64000000D03*
X118710500Y-62859098D03*
%TO.N,Board_10-GND*%
X118477701Y-63997299D03*
X120905523Y-62940121D03*
X123800000Y-61000000D03*
X118487182Y-61801780D03*
X123250000Y-64175000D03*
%TO.N,Board_11-/VCC*%
X130000000Y-64000000D03*
X133710500Y-62859098D03*
%TO.N,Board_11-GND*%
X133477701Y-63997299D03*
X135905523Y-62940121D03*
X138800000Y-61000000D03*
X133487182Y-61801780D03*
X138250000Y-64175000D03*
%TO.N,Board_12-/VCC*%
X145000000Y-64000000D03*
X148710500Y-62859098D03*
%TO.N,Board_12-GND*%
X148477701Y-63997299D03*
X150905523Y-62940121D03*
X153800000Y-61000000D03*
X148487182Y-61801780D03*
X153250000Y-64175000D03*
%TO.N,Board_13-/VCC*%
X160000000Y-64000000D03*
X163710500Y-62859098D03*
%TO.N,Board_13-GND*%
X163477701Y-63997299D03*
X165905523Y-62940121D03*
X168800000Y-61000000D03*
X163487182Y-61801780D03*
X168250000Y-64175000D03*
%TO.N,Board_14-/VCC*%
X175000000Y-64000000D03*
X178710500Y-62859098D03*
%TO.N,Board_14-GND*%
X178477701Y-63997299D03*
X180905523Y-62940121D03*
X183800000Y-61000000D03*
X178487182Y-61801780D03*
X183250000Y-64175000D03*
%TO.N,Board_15-/VCC*%
X115000000Y-79000000D03*
X118710500Y-77859098D03*
%TO.N,Board_15-GND*%
X118477701Y-78997299D03*
X120905523Y-77940121D03*
X123800000Y-76000000D03*
X118487182Y-76801780D03*
X123250000Y-79175000D03*
%TO.N,Board_16-/VCC*%
X130000000Y-79000000D03*
X133710500Y-77859098D03*
%TO.N,Board_16-GND*%
X133477701Y-78997299D03*
X135905523Y-77940121D03*
X138800000Y-76000000D03*
X133487182Y-76801780D03*
X138250000Y-79175000D03*
%TO.N,Board_17-/VCC*%
X145000000Y-79000000D03*
X148710500Y-77859098D03*
%TO.N,Board_17-GND*%
X148477701Y-78997299D03*
X150905523Y-77940121D03*
X153800000Y-76000000D03*
X148487182Y-76801780D03*
X153250000Y-79175000D03*
%TO.N,Board_18-/VCC*%
X160000000Y-79000000D03*
X163710500Y-77859098D03*
%TO.N,Board_18-GND*%
X163477701Y-78997299D03*
X165905523Y-77940121D03*
X168800000Y-76000000D03*
X163487182Y-76801780D03*
X168250000Y-79175000D03*
%TO.N,Board_19-/VCC*%
X175000000Y-79000000D03*
X178710500Y-77859098D03*
%TO.N,Board_19-GND*%
X178477701Y-78997299D03*
X180905523Y-77940121D03*
X183800000Y-76000000D03*
X178487182Y-76801780D03*
X183250000Y-79175000D03*
%TO.N,Board_20-/VCC*%
X115000000Y-94000000D03*
X118710500Y-92859098D03*
%TO.N,Board_20-GND*%
X118477701Y-93997299D03*
X120905523Y-92940121D03*
X123800000Y-91000000D03*
X118487182Y-91801780D03*
X123250000Y-94175000D03*
%TO.N,Board_21-/VCC*%
X130000000Y-94000000D03*
X133710500Y-92859098D03*
%TO.N,Board_21-GND*%
X133477701Y-93997299D03*
X135905523Y-92940121D03*
X138800000Y-91000000D03*
X133487182Y-91801780D03*
X138250000Y-94175000D03*
%TO.N,Board_22-/VCC*%
X145000000Y-94000000D03*
X148710500Y-92859098D03*
%TO.N,Board_22-GND*%
X148477701Y-93997299D03*
X150905523Y-92940121D03*
X153800000Y-91000000D03*
X148487182Y-91801780D03*
X153250000Y-94175000D03*
%TO.N,Board_23-/VCC*%
X160000000Y-94000000D03*
X163710500Y-92859098D03*
%TO.N,Board_23-GND*%
X163477701Y-93997299D03*
X165905523Y-92940121D03*
X168800000Y-91000000D03*
X163487182Y-91801780D03*
X168250000Y-94175000D03*
%TO.N,Board_24-/VCC*%
X175000000Y-94000000D03*
X178710500Y-92859098D03*
%TO.N,Board_24-GND*%
X178477701Y-93997299D03*
X180905523Y-92940121D03*
X183800000Y-91000000D03*
X178487182Y-91801780D03*
X183250000Y-94175000D03*
%TD*%
D18*
%TO.N,Board_0-/SCL*%
X114000000Y-30990000D02*
X114730000Y-30260000D01*
X114730000Y-30260000D02*
X114730000Y-28650000D01*
X114000000Y-30990000D02*
X113355000Y-31635000D01*
X113355000Y-31635000D02*
X113355000Y-32335000D01*
X113355000Y-32335000D02*
X114010000Y-32990000D01*
%TO.N,Board_0-/SDA*%
X120610000Y-30600000D02*
X121000000Y-30990000D01*
X116140000Y-30600000D02*
X120610000Y-30600000D01*
X115750000Y-30990000D02*
X116140000Y-30600000D01*
X115750000Y-30170000D02*
X117270000Y-28650000D01*
X115750000Y-30990000D02*
X115750000Y-30170000D01*
%TO.N,Board_0-/VCC*%
X121797500Y-31212500D02*
X121000000Y-32010000D01*
X118710500Y-32859098D02*
X118710500Y-33205500D01*
X119355000Y-33850000D02*
X119660000Y-33850000D01*
X122500000Y-31212500D02*
X121797500Y-31212500D01*
X120945000Y-33850000D02*
X121270000Y-34175000D01*
X118710500Y-33205500D02*
X119355000Y-33850000D01*
X121630523Y-32640523D02*
X121630523Y-33814477D01*
X122350000Y-28650000D02*
X122350000Y-31062500D01*
X122350000Y-31062500D02*
X122500000Y-31212500D01*
X121000000Y-32010000D02*
X121630523Y-32640523D01*
X114010000Y-34010000D02*
X114990000Y-34010000D01*
X121630523Y-33814477D02*
X121270000Y-34175000D01*
X119660000Y-33850000D02*
X120945000Y-33850000D01*
X114990000Y-34010000D02*
X115000000Y-34000000D01*
%TO.N,Board_0-GND*%
X119700121Y-32940121D02*
X119660000Y-32900000D01*
X118487182Y-32057818D02*
X117645000Y-32900000D01*
X118477701Y-33997299D02*
X118330402Y-33850000D01*
X122230000Y-34175000D02*
X123250000Y-34175000D01*
X123800000Y-31990000D02*
X123800000Y-31000000D01*
X118487182Y-31801780D02*
X118487182Y-32057818D01*
X120905523Y-32940121D02*
X119700121Y-32940121D01*
X118330402Y-33850000D02*
X117340000Y-33850000D01*
X117645000Y-32900000D02*
X117340000Y-32900000D01*
%TO.N,Board_0-Net-(D1-K)*%
X123777500Y-32787500D02*
X124000000Y-33010000D01*
X122500000Y-32787500D02*
X123577500Y-32787500D01*
X123577500Y-32787500D02*
X123800000Y-33010000D01*
%TO.N,Board_0-Net-(U1-SCL)*%
X116780538Y-31950000D02*
X116125538Y-32605000D01*
X117340000Y-31950000D02*
X116780538Y-31950000D01*
X116125538Y-32605000D02*
X114595000Y-32605000D01*
X114595000Y-32605000D02*
X114000000Y-32010000D01*
%TO.N,Board_0-Net-(U1-SDA)*%
X116710000Y-31050000D02*
X115750000Y-32010000D01*
X116710000Y-31050000D02*
X118760000Y-31050000D01*
X118760000Y-31050000D02*
X119660000Y-31950000D01*
%TO.N,Board_1-/SCL*%
X129000000Y-30990000D02*
X129730000Y-30260000D01*
X129730000Y-30260000D02*
X129730000Y-28650000D01*
X129000000Y-30990000D02*
X128355000Y-31635000D01*
X128355000Y-31635000D02*
X128355000Y-32335000D01*
X128355000Y-32335000D02*
X129010000Y-32990000D01*
%TO.N,Board_1-/SDA*%
X135610000Y-30600000D02*
X136000000Y-30990000D01*
X131140000Y-30600000D02*
X135610000Y-30600000D01*
X130750000Y-30990000D02*
X131140000Y-30600000D01*
X130750000Y-30170000D02*
X132270000Y-28650000D01*
X130750000Y-30990000D02*
X130750000Y-30170000D01*
%TO.N,Board_1-/VCC*%
X136797500Y-31212500D02*
X136000000Y-32010000D01*
X133710500Y-32859098D02*
X133710500Y-33205500D01*
X134355000Y-33850000D02*
X134660000Y-33850000D01*
X137500000Y-31212500D02*
X136797500Y-31212500D01*
X135945000Y-33850000D02*
X136270000Y-34175000D01*
X133710500Y-33205500D02*
X134355000Y-33850000D01*
X136630523Y-32640523D02*
X136630523Y-33814477D01*
X137350000Y-28650000D02*
X137350000Y-31062500D01*
X137350000Y-31062500D02*
X137500000Y-31212500D01*
X136000000Y-32010000D02*
X136630523Y-32640523D01*
X129010000Y-34010000D02*
X129990000Y-34010000D01*
X136630523Y-33814477D02*
X136270000Y-34175000D01*
X134660000Y-33850000D02*
X135945000Y-33850000D01*
X129990000Y-34010000D02*
X130000000Y-34000000D01*
%TO.N,Board_1-GND*%
X134700121Y-32940121D02*
X134660000Y-32900000D01*
X133487182Y-32057818D02*
X132645000Y-32900000D01*
X133477701Y-33997299D02*
X133330402Y-33850000D01*
X137230000Y-34175000D02*
X138250000Y-34175000D01*
X138800000Y-31990000D02*
X138800000Y-31000000D01*
X133487182Y-31801780D02*
X133487182Y-32057818D01*
X135905523Y-32940121D02*
X134700121Y-32940121D01*
X133330402Y-33850000D02*
X132340000Y-33850000D01*
X132645000Y-32900000D02*
X132340000Y-32900000D01*
%TO.N,Board_1-Net-(D1-K)*%
X138777500Y-32787500D02*
X139000000Y-33010000D01*
X137500000Y-32787500D02*
X138577500Y-32787500D01*
X138577500Y-32787500D02*
X138800000Y-33010000D01*
%TO.N,Board_1-Net-(U1-SCL)*%
X131780538Y-31950000D02*
X131125538Y-32605000D01*
X132340000Y-31950000D02*
X131780538Y-31950000D01*
X131125538Y-32605000D02*
X129595000Y-32605000D01*
X129595000Y-32605000D02*
X129000000Y-32010000D01*
%TO.N,Board_1-Net-(U1-SDA)*%
X131710000Y-31050000D02*
X130750000Y-32010000D01*
X131710000Y-31050000D02*
X133760000Y-31050000D01*
X133760000Y-31050000D02*
X134660000Y-31950000D01*
%TO.N,Board_2-/SCL*%
X144000000Y-30990000D02*
X144730000Y-30260000D01*
X144730000Y-30260000D02*
X144730000Y-28650000D01*
X144000000Y-30990000D02*
X143355000Y-31635000D01*
X143355000Y-31635000D02*
X143355000Y-32335000D01*
X143355000Y-32335000D02*
X144010000Y-32990000D01*
%TO.N,Board_2-/SDA*%
X150610000Y-30600000D02*
X151000000Y-30990000D01*
X146140000Y-30600000D02*
X150610000Y-30600000D01*
X145750000Y-30990000D02*
X146140000Y-30600000D01*
X145750000Y-30170000D02*
X147270000Y-28650000D01*
X145750000Y-30990000D02*
X145750000Y-30170000D01*
%TO.N,Board_2-/VCC*%
X151797500Y-31212500D02*
X151000000Y-32010000D01*
X148710500Y-32859098D02*
X148710500Y-33205500D01*
X149355000Y-33850000D02*
X149660000Y-33850000D01*
X152500000Y-31212500D02*
X151797500Y-31212500D01*
X150945000Y-33850000D02*
X151270000Y-34175000D01*
X148710500Y-33205500D02*
X149355000Y-33850000D01*
X151630523Y-32640523D02*
X151630523Y-33814477D01*
X152350000Y-28650000D02*
X152350000Y-31062500D01*
X152350000Y-31062500D02*
X152500000Y-31212500D01*
X151000000Y-32010000D02*
X151630523Y-32640523D01*
X144010000Y-34010000D02*
X144990000Y-34010000D01*
X151630523Y-33814477D02*
X151270000Y-34175000D01*
X149660000Y-33850000D02*
X150945000Y-33850000D01*
X144990000Y-34010000D02*
X145000000Y-34000000D01*
%TO.N,Board_2-GND*%
X149700121Y-32940121D02*
X149660000Y-32900000D01*
X148487182Y-32057818D02*
X147645000Y-32900000D01*
X148477701Y-33997299D02*
X148330402Y-33850000D01*
X152230000Y-34175000D02*
X153250000Y-34175000D01*
X153800000Y-31990000D02*
X153800000Y-31000000D01*
X148487182Y-31801780D02*
X148487182Y-32057818D01*
X150905523Y-32940121D02*
X149700121Y-32940121D01*
X148330402Y-33850000D02*
X147340000Y-33850000D01*
X147645000Y-32900000D02*
X147340000Y-32900000D01*
%TO.N,Board_2-Net-(D1-K)*%
X153777500Y-32787500D02*
X154000000Y-33010000D01*
X152500000Y-32787500D02*
X153577500Y-32787500D01*
X153577500Y-32787500D02*
X153800000Y-33010000D01*
%TO.N,Board_2-Net-(U1-SCL)*%
X146780538Y-31950000D02*
X146125538Y-32605000D01*
X147340000Y-31950000D02*
X146780538Y-31950000D01*
X146125538Y-32605000D02*
X144595000Y-32605000D01*
X144595000Y-32605000D02*
X144000000Y-32010000D01*
%TO.N,Board_2-Net-(U1-SDA)*%
X146710000Y-31050000D02*
X145750000Y-32010000D01*
X146710000Y-31050000D02*
X148760000Y-31050000D01*
X148760000Y-31050000D02*
X149660000Y-31950000D01*
%TO.N,Board_3-/SCL*%
X159000000Y-30990000D02*
X159730000Y-30260000D01*
X159730000Y-30260000D02*
X159730000Y-28650000D01*
X159000000Y-30990000D02*
X158355000Y-31635000D01*
X158355000Y-31635000D02*
X158355000Y-32335000D01*
X158355000Y-32335000D02*
X159010000Y-32990000D01*
%TO.N,Board_3-/SDA*%
X165610000Y-30600000D02*
X166000000Y-30990000D01*
X161140000Y-30600000D02*
X165610000Y-30600000D01*
X160750000Y-30990000D02*
X161140000Y-30600000D01*
X160750000Y-30170000D02*
X162270000Y-28650000D01*
X160750000Y-30990000D02*
X160750000Y-30170000D01*
%TO.N,Board_3-/VCC*%
X166797500Y-31212500D02*
X166000000Y-32010000D01*
X163710500Y-32859098D02*
X163710500Y-33205500D01*
X164355000Y-33850000D02*
X164660000Y-33850000D01*
X167500000Y-31212500D02*
X166797500Y-31212500D01*
X165945000Y-33850000D02*
X166270000Y-34175000D01*
X163710500Y-33205500D02*
X164355000Y-33850000D01*
X166630523Y-32640523D02*
X166630523Y-33814477D01*
X167350000Y-28650000D02*
X167350000Y-31062500D01*
X167350000Y-31062500D02*
X167500000Y-31212500D01*
X166000000Y-32010000D02*
X166630523Y-32640523D01*
X159010000Y-34010000D02*
X159990000Y-34010000D01*
X166630523Y-33814477D02*
X166270000Y-34175000D01*
X164660000Y-33850000D02*
X165945000Y-33850000D01*
X159990000Y-34010000D02*
X160000000Y-34000000D01*
%TO.N,Board_3-GND*%
X164700121Y-32940121D02*
X164660000Y-32900000D01*
X163487182Y-32057818D02*
X162645000Y-32900000D01*
X163477701Y-33997299D02*
X163330402Y-33850000D01*
X167230000Y-34175000D02*
X168250000Y-34175000D01*
X168800000Y-31990000D02*
X168800000Y-31000000D01*
X163487182Y-31801780D02*
X163487182Y-32057818D01*
X165905523Y-32940121D02*
X164700121Y-32940121D01*
X163330402Y-33850000D02*
X162340000Y-33850000D01*
X162645000Y-32900000D02*
X162340000Y-32900000D01*
%TO.N,Board_3-Net-(D1-K)*%
X168777500Y-32787500D02*
X169000000Y-33010000D01*
X167500000Y-32787500D02*
X168577500Y-32787500D01*
X168577500Y-32787500D02*
X168800000Y-33010000D01*
%TO.N,Board_3-Net-(U1-SCL)*%
X161780538Y-31950000D02*
X161125538Y-32605000D01*
X162340000Y-31950000D02*
X161780538Y-31950000D01*
X161125538Y-32605000D02*
X159595000Y-32605000D01*
X159595000Y-32605000D02*
X159000000Y-32010000D01*
%TO.N,Board_3-Net-(U1-SDA)*%
X161710000Y-31050000D02*
X160750000Y-32010000D01*
X161710000Y-31050000D02*
X163760000Y-31050000D01*
X163760000Y-31050000D02*
X164660000Y-31950000D01*
%TO.N,Board_4-/SCL*%
X174000000Y-30990000D02*
X174730000Y-30260000D01*
X174730000Y-30260000D02*
X174730000Y-28650000D01*
X174000000Y-30990000D02*
X173355000Y-31635000D01*
X173355000Y-31635000D02*
X173355000Y-32335000D01*
X173355000Y-32335000D02*
X174010000Y-32990000D01*
%TO.N,Board_4-/SDA*%
X180610000Y-30600000D02*
X181000000Y-30990000D01*
X176140000Y-30600000D02*
X180610000Y-30600000D01*
X175750000Y-30990000D02*
X176140000Y-30600000D01*
X175750000Y-30170000D02*
X177270000Y-28650000D01*
X175750000Y-30990000D02*
X175750000Y-30170000D01*
%TO.N,Board_4-/VCC*%
X181797500Y-31212500D02*
X181000000Y-32010000D01*
X178710500Y-32859098D02*
X178710500Y-33205500D01*
X179355000Y-33850000D02*
X179660000Y-33850000D01*
X182500000Y-31212500D02*
X181797500Y-31212500D01*
X180945000Y-33850000D02*
X181270000Y-34175000D01*
X178710500Y-33205500D02*
X179355000Y-33850000D01*
X181630523Y-32640523D02*
X181630523Y-33814477D01*
X182350000Y-28650000D02*
X182350000Y-31062500D01*
X182350000Y-31062500D02*
X182500000Y-31212500D01*
X181000000Y-32010000D02*
X181630523Y-32640523D01*
X174010000Y-34010000D02*
X174990000Y-34010000D01*
X181630523Y-33814477D02*
X181270000Y-34175000D01*
X179660000Y-33850000D02*
X180945000Y-33850000D01*
X174990000Y-34010000D02*
X175000000Y-34000000D01*
%TO.N,Board_4-GND*%
X179700121Y-32940121D02*
X179660000Y-32900000D01*
X178487182Y-32057818D02*
X177645000Y-32900000D01*
X178477701Y-33997299D02*
X178330402Y-33850000D01*
X182230000Y-34175000D02*
X183250000Y-34175000D01*
X183800000Y-31990000D02*
X183800000Y-31000000D01*
X178487182Y-31801780D02*
X178487182Y-32057818D01*
X180905523Y-32940121D02*
X179700121Y-32940121D01*
X178330402Y-33850000D02*
X177340000Y-33850000D01*
X177645000Y-32900000D02*
X177340000Y-32900000D01*
%TO.N,Board_4-Net-(D1-K)*%
X183777500Y-32787500D02*
X184000000Y-33010000D01*
X182500000Y-32787500D02*
X183577500Y-32787500D01*
X183577500Y-32787500D02*
X183800000Y-33010000D01*
%TO.N,Board_4-Net-(U1-SCL)*%
X176780538Y-31950000D02*
X176125538Y-32605000D01*
X177340000Y-31950000D02*
X176780538Y-31950000D01*
X176125538Y-32605000D02*
X174595000Y-32605000D01*
X174595000Y-32605000D02*
X174000000Y-32010000D01*
%TO.N,Board_4-Net-(U1-SDA)*%
X176710000Y-31050000D02*
X175750000Y-32010000D01*
X176710000Y-31050000D02*
X178760000Y-31050000D01*
X178760000Y-31050000D02*
X179660000Y-31950000D01*
%TO.N,Board_5-/SCL*%
X114000000Y-45990000D02*
X114730000Y-45260000D01*
X114730000Y-45260000D02*
X114730000Y-43650000D01*
X114000000Y-45990000D02*
X113355000Y-46635000D01*
X113355000Y-46635000D02*
X113355000Y-47335000D01*
X113355000Y-47335000D02*
X114010000Y-47990000D01*
%TO.N,Board_5-/SDA*%
X120610000Y-45600000D02*
X121000000Y-45990000D01*
X116140000Y-45600000D02*
X120610000Y-45600000D01*
X115750000Y-45990000D02*
X116140000Y-45600000D01*
X115750000Y-45170000D02*
X117270000Y-43650000D01*
X115750000Y-45990000D02*
X115750000Y-45170000D01*
%TO.N,Board_5-/VCC*%
X121797500Y-46212500D02*
X121000000Y-47010000D01*
X118710500Y-47859098D02*
X118710500Y-48205500D01*
X119355000Y-48850000D02*
X119660000Y-48850000D01*
X122500000Y-46212500D02*
X121797500Y-46212500D01*
X120945000Y-48850000D02*
X121270000Y-49175000D01*
X118710500Y-48205500D02*
X119355000Y-48850000D01*
X121630523Y-47640523D02*
X121630523Y-48814477D01*
X122350000Y-43650000D02*
X122350000Y-46062500D01*
X122350000Y-46062500D02*
X122500000Y-46212500D01*
X121000000Y-47010000D02*
X121630523Y-47640523D01*
X114010000Y-49010000D02*
X114990000Y-49010000D01*
X121630523Y-48814477D02*
X121270000Y-49175000D01*
X119660000Y-48850000D02*
X120945000Y-48850000D01*
X114990000Y-49010000D02*
X115000000Y-49000000D01*
%TO.N,Board_5-GND*%
X119700121Y-47940121D02*
X119660000Y-47900000D01*
X118487182Y-47057818D02*
X117645000Y-47900000D01*
X118477701Y-48997299D02*
X118330402Y-48850000D01*
X122230000Y-49175000D02*
X123250000Y-49175000D01*
X123800000Y-46990000D02*
X123800000Y-46000000D01*
X118487182Y-46801780D02*
X118487182Y-47057818D01*
X120905523Y-47940121D02*
X119700121Y-47940121D01*
X118330402Y-48850000D02*
X117340000Y-48850000D01*
X117645000Y-47900000D02*
X117340000Y-47900000D01*
%TO.N,Board_5-Net-(D1-K)*%
X123777500Y-47787500D02*
X124000000Y-48010000D01*
X122500000Y-47787500D02*
X123577500Y-47787500D01*
X123577500Y-47787500D02*
X123800000Y-48010000D01*
%TO.N,Board_5-Net-(U1-SCL)*%
X116780538Y-46950000D02*
X116125538Y-47605000D01*
X117340000Y-46950000D02*
X116780538Y-46950000D01*
X116125538Y-47605000D02*
X114595000Y-47605000D01*
X114595000Y-47605000D02*
X114000000Y-47010000D01*
%TO.N,Board_5-Net-(U1-SDA)*%
X116710000Y-46050000D02*
X115750000Y-47010000D01*
X116710000Y-46050000D02*
X118760000Y-46050000D01*
X118760000Y-46050000D02*
X119660000Y-46950000D01*
%TO.N,Board_6-/SCL*%
X129000000Y-45990000D02*
X129730000Y-45260000D01*
X129730000Y-45260000D02*
X129730000Y-43650000D01*
X129000000Y-45990000D02*
X128355000Y-46635000D01*
X128355000Y-46635000D02*
X128355000Y-47335000D01*
X128355000Y-47335000D02*
X129010000Y-47990000D01*
%TO.N,Board_6-/SDA*%
X135610000Y-45600000D02*
X136000000Y-45990000D01*
X131140000Y-45600000D02*
X135610000Y-45600000D01*
X130750000Y-45990000D02*
X131140000Y-45600000D01*
X130750000Y-45170000D02*
X132270000Y-43650000D01*
X130750000Y-45990000D02*
X130750000Y-45170000D01*
%TO.N,Board_6-/VCC*%
X136797500Y-46212500D02*
X136000000Y-47010000D01*
X133710500Y-47859098D02*
X133710500Y-48205500D01*
X134355000Y-48850000D02*
X134660000Y-48850000D01*
X137500000Y-46212500D02*
X136797500Y-46212500D01*
X135945000Y-48850000D02*
X136270000Y-49175000D01*
X133710500Y-48205500D02*
X134355000Y-48850000D01*
X136630523Y-47640523D02*
X136630523Y-48814477D01*
X137350000Y-43650000D02*
X137350000Y-46062500D01*
X137350000Y-46062500D02*
X137500000Y-46212500D01*
X136000000Y-47010000D02*
X136630523Y-47640523D01*
X129010000Y-49010000D02*
X129990000Y-49010000D01*
X136630523Y-48814477D02*
X136270000Y-49175000D01*
X134660000Y-48850000D02*
X135945000Y-48850000D01*
X129990000Y-49010000D02*
X130000000Y-49000000D01*
%TO.N,Board_6-GND*%
X134700121Y-47940121D02*
X134660000Y-47900000D01*
X133487182Y-47057818D02*
X132645000Y-47900000D01*
X133477701Y-48997299D02*
X133330402Y-48850000D01*
X137230000Y-49175000D02*
X138250000Y-49175000D01*
X138800000Y-46990000D02*
X138800000Y-46000000D01*
X133487182Y-46801780D02*
X133487182Y-47057818D01*
X135905523Y-47940121D02*
X134700121Y-47940121D01*
X133330402Y-48850000D02*
X132340000Y-48850000D01*
X132645000Y-47900000D02*
X132340000Y-47900000D01*
%TO.N,Board_6-Net-(D1-K)*%
X138777500Y-47787500D02*
X139000000Y-48010000D01*
X137500000Y-47787500D02*
X138577500Y-47787500D01*
X138577500Y-47787500D02*
X138800000Y-48010000D01*
%TO.N,Board_6-Net-(U1-SCL)*%
X131780538Y-46950000D02*
X131125538Y-47605000D01*
X132340000Y-46950000D02*
X131780538Y-46950000D01*
X131125538Y-47605000D02*
X129595000Y-47605000D01*
X129595000Y-47605000D02*
X129000000Y-47010000D01*
%TO.N,Board_6-Net-(U1-SDA)*%
X131710000Y-46050000D02*
X130750000Y-47010000D01*
X131710000Y-46050000D02*
X133760000Y-46050000D01*
X133760000Y-46050000D02*
X134660000Y-46950000D01*
%TO.N,Board_7-/SCL*%
X144000000Y-45990000D02*
X144730000Y-45260000D01*
X144730000Y-45260000D02*
X144730000Y-43650000D01*
X144000000Y-45990000D02*
X143355000Y-46635000D01*
X143355000Y-46635000D02*
X143355000Y-47335000D01*
X143355000Y-47335000D02*
X144010000Y-47990000D01*
%TO.N,Board_7-/SDA*%
X150610000Y-45600000D02*
X151000000Y-45990000D01*
X146140000Y-45600000D02*
X150610000Y-45600000D01*
X145750000Y-45990000D02*
X146140000Y-45600000D01*
X145750000Y-45170000D02*
X147270000Y-43650000D01*
X145750000Y-45990000D02*
X145750000Y-45170000D01*
%TO.N,Board_7-/VCC*%
X151797500Y-46212500D02*
X151000000Y-47010000D01*
X148710500Y-47859098D02*
X148710500Y-48205500D01*
X149355000Y-48850000D02*
X149660000Y-48850000D01*
X152500000Y-46212500D02*
X151797500Y-46212500D01*
X150945000Y-48850000D02*
X151270000Y-49175000D01*
X148710500Y-48205500D02*
X149355000Y-48850000D01*
X151630523Y-47640523D02*
X151630523Y-48814477D01*
X152350000Y-43650000D02*
X152350000Y-46062500D01*
X152350000Y-46062500D02*
X152500000Y-46212500D01*
X151000000Y-47010000D02*
X151630523Y-47640523D01*
X144010000Y-49010000D02*
X144990000Y-49010000D01*
X151630523Y-48814477D02*
X151270000Y-49175000D01*
X149660000Y-48850000D02*
X150945000Y-48850000D01*
X144990000Y-49010000D02*
X145000000Y-49000000D01*
%TO.N,Board_7-GND*%
X149700121Y-47940121D02*
X149660000Y-47900000D01*
X148487182Y-47057818D02*
X147645000Y-47900000D01*
X148477701Y-48997299D02*
X148330402Y-48850000D01*
X152230000Y-49175000D02*
X153250000Y-49175000D01*
X153800000Y-46990000D02*
X153800000Y-46000000D01*
X148487182Y-46801780D02*
X148487182Y-47057818D01*
X150905523Y-47940121D02*
X149700121Y-47940121D01*
X148330402Y-48850000D02*
X147340000Y-48850000D01*
X147645000Y-47900000D02*
X147340000Y-47900000D01*
%TO.N,Board_7-Net-(D1-K)*%
X153777500Y-47787500D02*
X154000000Y-48010000D01*
X152500000Y-47787500D02*
X153577500Y-47787500D01*
X153577500Y-47787500D02*
X153800000Y-48010000D01*
%TO.N,Board_7-Net-(U1-SCL)*%
X146780538Y-46950000D02*
X146125538Y-47605000D01*
X147340000Y-46950000D02*
X146780538Y-46950000D01*
X146125538Y-47605000D02*
X144595000Y-47605000D01*
X144595000Y-47605000D02*
X144000000Y-47010000D01*
%TO.N,Board_7-Net-(U1-SDA)*%
X146710000Y-46050000D02*
X145750000Y-47010000D01*
X146710000Y-46050000D02*
X148760000Y-46050000D01*
X148760000Y-46050000D02*
X149660000Y-46950000D01*
%TO.N,Board_8-/SCL*%
X159000000Y-45990000D02*
X159730000Y-45260000D01*
X159730000Y-45260000D02*
X159730000Y-43650000D01*
X159000000Y-45990000D02*
X158355000Y-46635000D01*
X158355000Y-46635000D02*
X158355000Y-47335000D01*
X158355000Y-47335000D02*
X159010000Y-47990000D01*
%TO.N,Board_8-/SDA*%
X165610000Y-45600000D02*
X166000000Y-45990000D01*
X161140000Y-45600000D02*
X165610000Y-45600000D01*
X160750000Y-45990000D02*
X161140000Y-45600000D01*
X160750000Y-45170000D02*
X162270000Y-43650000D01*
X160750000Y-45990000D02*
X160750000Y-45170000D01*
%TO.N,Board_8-/VCC*%
X166797500Y-46212500D02*
X166000000Y-47010000D01*
X163710500Y-47859098D02*
X163710500Y-48205500D01*
X164355000Y-48850000D02*
X164660000Y-48850000D01*
X167500000Y-46212500D02*
X166797500Y-46212500D01*
X165945000Y-48850000D02*
X166270000Y-49175000D01*
X163710500Y-48205500D02*
X164355000Y-48850000D01*
X166630523Y-47640523D02*
X166630523Y-48814477D01*
X167350000Y-43650000D02*
X167350000Y-46062500D01*
X167350000Y-46062500D02*
X167500000Y-46212500D01*
X166000000Y-47010000D02*
X166630523Y-47640523D01*
X159010000Y-49010000D02*
X159990000Y-49010000D01*
X166630523Y-48814477D02*
X166270000Y-49175000D01*
X164660000Y-48850000D02*
X165945000Y-48850000D01*
X159990000Y-49010000D02*
X160000000Y-49000000D01*
%TO.N,Board_8-GND*%
X164700121Y-47940121D02*
X164660000Y-47900000D01*
X163487182Y-47057818D02*
X162645000Y-47900000D01*
X163477701Y-48997299D02*
X163330402Y-48850000D01*
X167230000Y-49175000D02*
X168250000Y-49175000D01*
X168800000Y-46990000D02*
X168800000Y-46000000D01*
X163487182Y-46801780D02*
X163487182Y-47057818D01*
X165905523Y-47940121D02*
X164700121Y-47940121D01*
X163330402Y-48850000D02*
X162340000Y-48850000D01*
X162645000Y-47900000D02*
X162340000Y-47900000D01*
%TO.N,Board_8-Net-(D1-K)*%
X168777500Y-47787500D02*
X169000000Y-48010000D01*
X167500000Y-47787500D02*
X168577500Y-47787500D01*
X168577500Y-47787500D02*
X168800000Y-48010000D01*
%TO.N,Board_8-Net-(U1-SCL)*%
X161780538Y-46950000D02*
X161125538Y-47605000D01*
X162340000Y-46950000D02*
X161780538Y-46950000D01*
X161125538Y-47605000D02*
X159595000Y-47605000D01*
X159595000Y-47605000D02*
X159000000Y-47010000D01*
%TO.N,Board_8-Net-(U1-SDA)*%
X161710000Y-46050000D02*
X160750000Y-47010000D01*
X161710000Y-46050000D02*
X163760000Y-46050000D01*
X163760000Y-46050000D02*
X164660000Y-46950000D01*
%TO.N,Board_9-/SCL*%
X174000000Y-45990000D02*
X174730000Y-45260000D01*
X174730000Y-45260000D02*
X174730000Y-43650000D01*
X174000000Y-45990000D02*
X173355000Y-46635000D01*
X173355000Y-46635000D02*
X173355000Y-47335000D01*
X173355000Y-47335000D02*
X174010000Y-47990000D01*
%TO.N,Board_9-/SDA*%
X180610000Y-45600000D02*
X181000000Y-45990000D01*
X176140000Y-45600000D02*
X180610000Y-45600000D01*
X175750000Y-45990000D02*
X176140000Y-45600000D01*
X175750000Y-45170000D02*
X177270000Y-43650000D01*
X175750000Y-45990000D02*
X175750000Y-45170000D01*
%TO.N,Board_9-/VCC*%
X181797500Y-46212500D02*
X181000000Y-47010000D01*
X178710500Y-47859098D02*
X178710500Y-48205500D01*
X179355000Y-48850000D02*
X179660000Y-48850000D01*
X182500000Y-46212500D02*
X181797500Y-46212500D01*
X180945000Y-48850000D02*
X181270000Y-49175000D01*
X178710500Y-48205500D02*
X179355000Y-48850000D01*
X181630523Y-47640523D02*
X181630523Y-48814477D01*
X182350000Y-43650000D02*
X182350000Y-46062500D01*
X182350000Y-46062500D02*
X182500000Y-46212500D01*
X181000000Y-47010000D02*
X181630523Y-47640523D01*
X174010000Y-49010000D02*
X174990000Y-49010000D01*
X181630523Y-48814477D02*
X181270000Y-49175000D01*
X179660000Y-48850000D02*
X180945000Y-48850000D01*
X174990000Y-49010000D02*
X175000000Y-49000000D01*
%TO.N,Board_9-GND*%
X179700121Y-47940121D02*
X179660000Y-47900000D01*
X178487182Y-47057818D02*
X177645000Y-47900000D01*
X178477701Y-48997299D02*
X178330402Y-48850000D01*
X182230000Y-49175000D02*
X183250000Y-49175000D01*
X183800000Y-46990000D02*
X183800000Y-46000000D01*
X178487182Y-46801780D02*
X178487182Y-47057818D01*
X180905523Y-47940121D02*
X179700121Y-47940121D01*
X178330402Y-48850000D02*
X177340000Y-48850000D01*
X177645000Y-47900000D02*
X177340000Y-47900000D01*
%TO.N,Board_9-Net-(D1-K)*%
X183777500Y-47787500D02*
X184000000Y-48010000D01*
X182500000Y-47787500D02*
X183577500Y-47787500D01*
X183577500Y-47787500D02*
X183800000Y-48010000D01*
%TO.N,Board_9-Net-(U1-SCL)*%
X176780538Y-46950000D02*
X176125538Y-47605000D01*
X177340000Y-46950000D02*
X176780538Y-46950000D01*
X176125538Y-47605000D02*
X174595000Y-47605000D01*
X174595000Y-47605000D02*
X174000000Y-47010000D01*
%TO.N,Board_9-Net-(U1-SDA)*%
X176710000Y-46050000D02*
X175750000Y-47010000D01*
X176710000Y-46050000D02*
X178760000Y-46050000D01*
X178760000Y-46050000D02*
X179660000Y-46950000D01*
%TO.N,Board_10-/SCL*%
X114000000Y-60990000D02*
X114730000Y-60260000D01*
X114730000Y-60260000D02*
X114730000Y-58650000D01*
X114000000Y-60990000D02*
X113355000Y-61635000D01*
X113355000Y-61635000D02*
X113355000Y-62335000D01*
X113355000Y-62335000D02*
X114010000Y-62990000D01*
%TO.N,Board_10-/SDA*%
X120610000Y-60600000D02*
X121000000Y-60990000D01*
X116140000Y-60600000D02*
X120610000Y-60600000D01*
X115750000Y-60990000D02*
X116140000Y-60600000D01*
X115750000Y-60170000D02*
X117270000Y-58650000D01*
X115750000Y-60990000D02*
X115750000Y-60170000D01*
%TO.N,Board_10-/VCC*%
X121797500Y-61212500D02*
X121000000Y-62010000D01*
X118710500Y-62859098D02*
X118710500Y-63205500D01*
X119355000Y-63850000D02*
X119660000Y-63850000D01*
X122500000Y-61212500D02*
X121797500Y-61212500D01*
X120945000Y-63850000D02*
X121270000Y-64175000D01*
X118710500Y-63205500D02*
X119355000Y-63850000D01*
X121630523Y-62640523D02*
X121630523Y-63814477D01*
X122350000Y-58650000D02*
X122350000Y-61062500D01*
X122350000Y-61062500D02*
X122500000Y-61212500D01*
X121000000Y-62010000D02*
X121630523Y-62640523D01*
X114010000Y-64010000D02*
X114990000Y-64010000D01*
X121630523Y-63814477D02*
X121270000Y-64175000D01*
X119660000Y-63850000D02*
X120945000Y-63850000D01*
X114990000Y-64010000D02*
X115000000Y-64000000D01*
%TO.N,Board_10-GND*%
X119700121Y-62940121D02*
X119660000Y-62900000D01*
X118487182Y-62057818D02*
X117645000Y-62900000D01*
X118477701Y-63997299D02*
X118330402Y-63850000D01*
X122230000Y-64175000D02*
X123250000Y-64175000D01*
X123800000Y-61990000D02*
X123800000Y-61000000D01*
X118487182Y-61801780D02*
X118487182Y-62057818D01*
X120905523Y-62940121D02*
X119700121Y-62940121D01*
X118330402Y-63850000D02*
X117340000Y-63850000D01*
X117645000Y-62900000D02*
X117340000Y-62900000D01*
%TO.N,Board_10-Net-(D1-K)*%
X123777500Y-62787500D02*
X124000000Y-63010000D01*
X122500000Y-62787500D02*
X123577500Y-62787500D01*
X123577500Y-62787500D02*
X123800000Y-63010000D01*
%TO.N,Board_10-Net-(U1-SCL)*%
X116780538Y-61950000D02*
X116125538Y-62605000D01*
X117340000Y-61950000D02*
X116780538Y-61950000D01*
X116125538Y-62605000D02*
X114595000Y-62605000D01*
X114595000Y-62605000D02*
X114000000Y-62010000D01*
%TO.N,Board_10-Net-(U1-SDA)*%
X116710000Y-61050000D02*
X115750000Y-62010000D01*
X116710000Y-61050000D02*
X118760000Y-61050000D01*
X118760000Y-61050000D02*
X119660000Y-61950000D01*
%TO.N,Board_11-/SCL*%
X129000000Y-60990000D02*
X129730000Y-60260000D01*
X129730000Y-60260000D02*
X129730000Y-58650000D01*
X129000000Y-60990000D02*
X128355000Y-61635000D01*
X128355000Y-61635000D02*
X128355000Y-62335000D01*
X128355000Y-62335000D02*
X129010000Y-62990000D01*
%TO.N,Board_11-/SDA*%
X135610000Y-60600000D02*
X136000000Y-60990000D01*
X131140000Y-60600000D02*
X135610000Y-60600000D01*
X130750000Y-60990000D02*
X131140000Y-60600000D01*
X130750000Y-60170000D02*
X132270000Y-58650000D01*
X130750000Y-60990000D02*
X130750000Y-60170000D01*
%TO.N,Board_11-/VCC*%
X136797500Y-61212500D02*
X136000000Y-62010000D01*
X133710500Y-62859098D02*
X133710500Y-63205500D01*
X134355000Y-63850000D02*
X134660000Y-63850000D01*
X137500000Y-61212500D02*
X136797500Y-61212500D01*
X135945000Y-63850000D02*
X136270000Y-64175000D01*
X133710500Y-63205500D02*
X134355000Y-63850000D01*
X136630523Y-62640523D02*
X136630523Y-63814477D01*
X137350000Y-58650000D02*
X137350000Y-61062500D01*
X137350000Y-61062500D02*
X137500000Y-61212500D01*
X136000000Y-62010000D02*
X136630523Y-62640523D01*
X129010000Y-64010000D02*
X129990000Y-64010000D01*
X136630523Y-63814477D02*
X136270000Y-64175000D01*
X134660000Y-63850000D02*
X135945000Y-63850000D01*
X129990000Y-64010000D02*
X130000000Y-64000000D01*
%TO.N,Board_11-GND*%
X134700121Y-62940121D02*
X134660000Y-62900000D01*
X133487182Y-62057818D02*
X132645000Y-62900000D01*
X133477701Y-63997299D02*
X133330402Y-63850000D01*
X137230000Y-64175000D02*
X138250000Y-64175000D01*
X138800000Y-61990000D02*
X138800000Y-61000000D01*
X133487182Y-61801780D02*
X133487182Y-62057818D01*
X135905523Y-62940121D02*
X134700121Y-62940121D01*
X133330402Y-63850000D02*
X132340000Y-63850000D01*
X132645000Y-62900000D02*
X132340000Y-62900000D01*
%TO.N,Board_11-Net-(D1-K)*%
X138777500Y-62787500D02*
X139000000Y-63010000D01*
X137500000Y-62787500D02*
X138577500Y-62787500D01*
X138577500Y-62787500D02*
X138800000Y-63010000D01*
%TO.N,Board_11-Net-(U1-SCL)*%
X131780538Y-61950000D02*
X131125538Y-62605000D01*
X132340000Y-61950000D02*
X131780538Y-61950000D01*
X131125538Y-62605000D02*
X129595000Y-62605000D01*
X129595000Y-62605000D02*
X129000000Y-62010000D01*
%TO.N,Board_11-Net-(U1-SDA)*%
X131710000Y-61050000D02*
X130750000Y-62010000D01*
X131710000Y-61050000D02*
X133760000Y-61050000D01*
X133760000Y-61050000D02*
X134660000Y-61950000D01*
%TO.N,Board_12-/SCL*%
X144000000Y-60990000D02*
X144730000Y-60260000D01*
X144730000Y-60260000D02*
X144730000Y-58650000D01*
X144000000Y-60990000D02*
X143355000Y-61635000D01*
X143355000Y-61635000D02*
X143355000Y-62335000D01*
X143355000Y-62335000D02*
X144010000Y-62990000D01*
%TO.N,Board_12-/SDA*%
X150610000Y-60600000D02*
X151000000Y-60990000D01*
X146140000Y-60600000D02*
X150610000Y-60600000D01*
X145750000Y-60990000D02*
X146140000Y-60600000D01*
X145750000Y-60170000D02*
X147270000Y-58650000D01*
X145750000Y-60990000D02*
X145750000Y-60170000D01*
%TO.N,Board_12-/VCC*%
X151797500Y-61212500D02*
X151000000Y-62010000D01*
X148710500Y-62859098D02*
X148710500Y-63205500D01*
X149355000Y-63850000D02*
X149660000Y-63850000D01*
X152500000Y-61212500D02*
X151797500Y-61212500D01*
X150945000Y-63850000D02*
X151270000Y-64175000D01*
X148710500Y-63205500D02*
X149355000Y-63850000D01*
X151630523Y-62640523D02*
X151630523Y-63814477D01*
X152350000Y-58650000D02*
X152350000Y-61062500D01*
X152350000Y-61062500D02*
X152500000Y-61212500D01*
X151000000Y-62010000D02*
X151630523Y-62640523D01*
X144010000Y-64010000D02*
X144990000Y-64010000D01*
X151630523Y-63814477D02*
X151270000Y-64175000D01*
X149660000Y-63850000D02*
X150945000Y-63850000D01*
X144990000Y-64010000D02*
X145000000Y-64000000D01*
%TO.N,Board_12-GND*%
X149700121Y-62940121D02*
X149660000Y-62900000D01*
X148487182Y-62057818D02*
X147645000Y-62900000D01*
X148477701Y-63997299D02*
X148330402Y-63850000D01*
X152230000Y-64175000D02*
X153250000Y-64175000D01*
X153800000Y-61990000D02*
X153800000Y-61000000D01*
X148487182Y-61801780D02*
X148487182Y-62057818D01*
X150905523Y-62940121D02*
X149700121Y-62940121D01*
X148330402Y-63850000D02*
X147340000Y-63850000D01*
X147645000Y-62900000D02*
X147340000Y-62900000D01*
%TO.N,Board_12-Net-(D1-K)*%
X153777500Y-62787500D02*
X154000000Y-63010000D01*
X152500000Y-62787500D02*
X153577500Y-62787500D01*
X153577500Y-62787500D02*
X153800000Y-63010000D01*
%TO.N,Board_12-Net-(U1-SCL)*%
X146780538Y-61950000D02*
X146125538Y-62605000D01*
X147340000Y-61950000D02*
X146780538Y-61950000D01*
X146125538Y-62605000D02*
X144595000Y-62605000D01*
X144595000Y-62605000D02*
X144000000Y-62010000D01*
%TO.N,Board_12-Net-(U1-SDA)*%
X146710000Y-61050000D02*
X145750000Y-62010000D01*
X146710000Y-61050000D02*
X148760000Y-61050000D01*
X148760000Y-61050000D02*
X149660000Y-61950000D01*
%TO.N,Board_13-/SCL*%
X159000000Y-60990000D02*
X159730000Y-60260000D01*
X159730000Y-60260000D02*
X159730000Y-58650000D01*
X159000000Y-60990000D02*
X158355000Y-61635000D01*
X158355000Y-61635000D02*
X158355000Y-62335000D01*
X158355000Y-62335000D02*
X159010000Y-62990000D01*
%TO.N,Board_13-/SDA*%
X165610000Y-60600000D02*
X166000000Y-60990000D01*
X161140000Y-60600000D02*
X165610000Y-60600000D01*
X160750000Y-60990000D02*
X161140000Y-60600000D01*
X160750000Y-60170000D02*
X162270000Y-58650000D01*
X160750000Y-60990000D02*
X160750000Y-60170000D01*
%TO.N,Board_13-/VCC*%
X166797500Y-61212500D02*
X166000000Y-62010000D01*
X163710500Y-62859098D02*
X163710500Y-63205500D01*
X164355000Y-63850000D02*
X164660000Y-63850000D01*
X167500000Y-61212500D02*
X166797500Y-61212500D01*
X165945000Y-63850000D02*
X166270000Y-64175000D01*
X163710500Y-63205500D02*
X164355000Y-63850000D01*
X166630523Y-62640523D02*
X166630523Y-63814477D01*
X167350000Y-58650000D02*
X167350000Y-61062500D01*
X167350000Y-61062500D02*
X167500000Y-61212500D01*
X166000000Y-62010000D02*
X166630523Y-62640523D01*
X159010000Y-64010000D02*
X159990000Y-64010000D01*
X166630523Y-63814477D02*
X166270000Y-64175000D01*
X164660000Y-63850000D02*
X165945000Y-63850000D01*
X159990000Y-64010000D02*
X160000000Y-64000000D01*
%TO.N,Board_13-GND*%
X164700121Y-62940121D02*
X164660000Y-62900000D01*
X163487182Y-62057818D02*
X162645000Y-62900000D01*
X163477701Y-63997299D02*
X163330402Y-63850000D01*
X167230000Y-64175000D02*
X168250000Y-64175000D01*
X168800000Y-61990000D02*
X168800000Y-61000000D01*
X163487182Y-61801780D02*
X163487182Y-62057818D01*
X165905523Y-62940121D02*
X164700121Y-62940121D01*
X163330402Y-63850000D02*
X162340000Y-63850000D01*
X162645000Y-62900000D02*
X162340000Y-62900000D01*
%TO.N,Board_13-Net-(D1-K)*%
X168777500Y-62787500D02*
X169000000Y-63010000D01*
X167500000Y-62787500D02*
X168577500Y-62787500D01*
X168577500Y-62787500D02*
X168800000Y-63010000D01*
%TO.N,Board_13-Net-(U1-SCL)*%
X161780538Y-61950000D02*
X161125538Y-62605000D01*
X162340000Y-61950000D02*
X161780538Y-61950000D01*
X161125538Y-62605000D02*
X159595000Y-62605000D01*
X159595000Y-62605000D02*
X159000000Y-62010000D01*
%TO.N,Board_13-Net-(U1-SDA)*%
X161710000Y-61050000D02*
X160750000Y-62010000D01*
X161710000Y-61050000D02*
X163760000Y-61050000D01*
X163760000Y-61050000D02*
X164660000Y-61950000D01*
%TO.N,Board_14-/SCL*%
X174000000Y-60990000D02*
X174730000Y-60260000D01*
X174730000Y-60260000D02*
X174730000Y-58650000D01*
X174000000Y-60990000D02*
X173355000Y-61635000D01*
X173355000Y-61635000D02*
X173355000Y-62335000D01*
X173355000Y-62335000D02*
X174010000Y-62990000D01*
%TO.N,Board_14-/SDA*%
X180610000Y-60600000D02*
X181000000Y-60990000D01*
X176140000Y-60600000D02*
X180610000Y-60600000D01*
X175750000Y-60990000D02*
X176140000Y-60600000D01*
X175750000Y-60170000D02*
X177270000Y-58650000D01*
X175750000Y-60990000D02*
X175750000Y-60170000D01*
%TO.N,Board_14-/VCC*%
X181797500Y-61212500D02*
X181000000Y-62010000D01*
X178710500Y-62859098D02*
X178710500Y-63205500D01*
X179355000Y-63850000D02*
X179660000Y-63850000D01*
X182500000Y-61212500D02*
X181797500Y-61212500D01*
X180945000Y-63850000D02*
X181270000Y-64175000D01*
X178710500Y-63205500D02*
X179355000Y-63850000D01*
X181630523Y-62640523D02*
X181630523Y-63814477D01*
X182350000Y-58650000D02*
X182350000Y-61062500D01*
X182350000Y-61062500D02*
X182500000Y-61212500D01*
X181000000Y-62010000D02*
X181630523Y-62640523D01*
X174010000Y-64010000D02*
X174990000Y-64010000D01*
X181630523Y-63814477D02*
X181270000Y-64175000D01*
X179660000Y-63850000D02*
X180945000Y-63850000D01*
X174990000Y-64010000D02*
X175000000Y-64000000D01*
%TO.N,Board_14-GND*%
X179700121Y-62940121D02*
X179660000Y-62900000D01*
X178487182Y-62057818D02*
X177645000Y-62900000D01*
X178477701Y-63997299D02*
X178330402Y-63850000D01*
X182230000Y-64175000D02*
X183250000Y-64175000D01*
X183800000Y-61990000D02*
X183800000Y-61000000D01*
X178487182Y-61801780D02*
X178487182Y-62057818D01*
X180905523Y-62940121D02*
X179700121Y-62940121D01*
X178330402Y-63850000D02*
X177340000Y-63850000D01*
X177645000Y-62900000D02*
X177340000Y-62900000D01*
%TO.N,Board_14-Net-(D1-K)*%
X183777500Y-62787500D02*
X184000000Y-63010000D01*
X182500000Y-62787500D02*
X183577500Y-62787500D01*
X183577500Y-62787500D02*
X183800000Y-63010000D01*
%TO.N,Board_14-Net-(U1-SCL)*%
X176780538Y-61950000D02*
X176125538Y-62605000D01*
X177340000Y-61950000D02*
X176780538Y-61950000D01*
X176125538Y-62605000D02*
X174595000Y-62605000D01*
X174595000Y-62605000D02*
X174000000Y-62010000D01*
%TO.N,Board_14-Net-(U1-SDA)*%
X176710000Y-61050000D02*
X175750000Y-62010000D01*
X176710000Y-61050000D02*
X178760000Y-61050000D01*
X178760000Y-61050000D02*
X179660000Y-61950000D01*
%TO.N,Board_15-/SCL*%
X114000000Y-75990000D02*
X114730000Y-75260000D01*
X114730000Y-75260000D02*
X114730000Y-73650000D01*
X114000000Y-75990000D02*
X113355000Y-76635000D01*
X113355000Y-76635000D02*
X113355000Y-77335000D01*
X113355000Y-77335000D02*
X114010000Y-77990000D01*
%TO.N,Board_15-/SDA*%
X120610000Y-75600000D02*
X121000000Y-75990000D01*
X116140000Y-75600000D02*
X120610000Y-75600000D01*
X115750000Y-75990000D02*
X116140000Y-75600000D01*
X115750000Y-75170000D02*
X117270000Y-73650000D01*
X115750000Y-75990000D02*
X115750000Y-75170000D01*
%TO.N,Board_15-/VCC*%
X121797500Y-76212500D02*
X121000000Y-77010000D01*
X118710500Y-77859098D02*
X118710500Y-78205500D01*
X119355000Y-78850000D02*
X119660000Y-78850000D01*
X122500000Y-76212500D02*
X121797500Y-76212500D01*
X120945000Y-78850000D02*
X121270000Y-79175000D01*
X118710500Y-78205500D02*
X119355000Y-78850000D01*
X121630523Y-77640523D02*
X121630523Y-78814477D01*
X122350000Y-73650000D02*
X122350000Y-76062500D01*
X122350000Y-76062500D02*
X122500000Y-76212500D01*
X121000000Y-77010000D02*
X121630523Y-77640523D01*
X114010000Y-79010000D02*
X114990000Y-79010000D01*
X121630523Y-78814477D02*
X121270000Y-79175000D01*
X119660000Y-78850000D02*
X120945000Y-78850000D01*
X114990000Y-79010000D02*
X115000000Y-79000000D01*
%TO.N,Board_15-GND*%
X119700121Y-77940121D02*
X119660000Y-77900000D01*
X118487182Y-77057818D02*
X117645000Y-77900000D01*
X118477701Y-78997299D02*
X118330402Y-78850000D01*
X122230000Y-79175000D02*
X123250000Y-79175000D01*
X123800000Y-76990000D02*
X123800000Y-76000000D01*
X118487182Y-76801780D02*
X118487182Y-77057818D01*
X120905523Y-77940121D02*
X119700121Y-77940121D01*
X118330402Y-78850000D02*
X117340000Y-78850000D01*
X117645000Y-77900000D02*
X117340000Y-77900000D01*
%TO.N,Board_15-Net-(D1-K)*%
X123777500Y-77787500D02*
X124000000Y-78010000D01*
X122500000Y-77787500D02*
X123577500Y-77787500D01*
X123577500Y-77787500D02*
X123800000Y-78010000D01*
%TO.N,Board_15-Net-(U1-SCL)*%
X116780538Y-76950000D02*
X116125538Y-77605000D01*
X117340000Y-76950000D02*
X116780538Y-76950000D01*
X116125538Y-77605000D02*
X114595000Y-77605000D01*
X114595000Y-77605000D02*
X114000000Y-77010000D01*
%TO.N,Board_15-Net-(U1-SDA)*%
X116710000Y-76050000D02*
X115750000Y-77010000D01*
X116710000Y-76050000D02*
X118760000Y-76050000D01*
X118760000Y-76050000D02*
X119660000Y-76950000D01*
%TO.N,Board_16-/SCL*%
X129000000Y-75990000D02*
X129730000Y-75260000D01*
X129730000Y-75260000D02*
X129730000Y-73650000D01*
X129000000Y-75990000D02*
X128355000Y-76635000D01*
X128355000Y-76635000D02*
X128355000Y-77335000D01*
X128355000Y-77335000D02*
X129010000Y-77990000D01*
%TO.N,Board_16-/SDA*%
X135610000Y-75600000D02*
X136000000Y-75990000D01*
X131140000Y-75600000D02*
X135610000Y-75600000D01*
X130750000Y-75990000D02*
X131140000Y-75600000D01*
X130750000Y-75170000D02*
X132270000Y-73650000D01*
X130750000Y-75990000D02*
X130750000Y-75170000D01*
%TO.N,Board_16-/VCC*%
X136797500Y-76212500D02*
X136000000Y-77010000D01*
X133710500Y-77859098D02*
X133710500Y-78205500D01*
X134355000Y-78850000D02*
X134660000Y-78850000D01*
X137500000Y-76212500D02*
X136797500Y-76212500D01*
X135945000Y-78850000D02*
X136270000Y-79175000D01*
X133710500Y-78205500D02*
X134355000Y-78850000D01*
X136630523Y-77640523D02*
X136630523Y-78814477D01*
X137350000Y-73650000D02*
X137350000Y-76062500D01*
X137350000Y-76062500D02*
X137500000Y-76212500D01*
X136000000Y-77010000D02*
X136630523Y-77640523D01*
X129010000Y-79010000D02*
X129990000Y-79010000D01*
X136630523Y-78814477D02*
X136270000Y-79175000D01*
X134660000Y-78850000D02*
X135945000Y-78850000D01*
X129990000Y-79010000D02*
X130000000Y-79000000D01*
%TO.N,Board_16-GND*%
X134700121Y-77940121D02*
X134660000Y-77900000D01*
X133487182Y-77057818D02*
X132645000Y-77900000D01*
X133477701Y-78997299D02*
X133330402Y-78850000D01*
X137230000Y-79175000D02*
X138250000Y-79175000D01*
X138800000Y-76990000D02*
X138800000Y-76000000D01*
X133487182Y-76801780D02*
X133487182Y-77057818D01*
X135905523Y-77940121D02*
X134700121Y-77940121D01*
X133330402Y-78850000D02*
X132340000Y-78850000D01*
X132645000Y-77900000D02*
X132340000Y-77900000D01*
%TO.N,Board_16-Net-(D1-K)*%
X138777500Y-77787500D02*
X139000000Y-78010000D01*
X137500000Y-77787500D02*
X138577500Y-77787500D01*
X138577500Y-77787500D02*
X138800000Y-78010000D01*
%TO.N,Board_16-Net-(U1-SCL)*%
X131780538Y-76950000D02*
X131125538Y-77605000D01*
X132340000Y-76950000D02*
X131780538Y-76950000D01*
X131125538Y-77605000D02*
X129595000Y-77605000D01*
X129595000Y-77605000D02*
X129000000Y-77010000D01*
%TO.N,Board_16-Net-(U1-SDA)*%
X131710000Y-76050000D02*
X130750000Y-77010000D01*
X131710000Y-76050000D02*
X133760000Y-76050000D01*
X133760000Y-76050000D02*
X134660000Y-76950000D01*
%TO.N,Board_17-/SCL*%
X144000000Y-75990000D02*
X144730000Y-75260000D01*
X144730000Y-75260000D02*
X144730000Y-73650000D01*
X144000000Y-75990000D02*
X143355000Y-76635000D01*
X143355000Y-76635000D02*
X143355000Y-77335000D01*
X143355000Y-77335000D02*
X144010000Y-77990000D01*
%TO.N,Board_17-/SDA*%
X150610000Y-75600000D02*
X151000000Y-75990000D01*
X146140000Y-75600000D02*
X150610000Y-75600000D01*
X145750000Y-75990000D02*
X146140000Y-75600000D01*
X145750000Y-75170000D02*
X147270000Y-73650000D01*
X145750000Y-75990000D02*
X145750000Y-75170000D01*
%TO.N,Board_17-/VCC*%
X151797500Y-76212500D02*
X151000000Y-77010000D01*
X148710500Y-77859098D02*
X148710500Y-78205500D01*
X149355000Y-78850000D02*
X149660000Y-78850000D01*
X152500000Y-76212500D02*
X151797500Y-76212500D01*
X150945000Y-78850000D02*
X151270000Y-79175000D01*
X148710500Y-78205500D02*
X149355000Y-78850000D01*
X151630523Y-77640523D02*
X151630523Y-78814477D01*
X152350000Y-73650000D02*
X152350000Y-76062500D01*
X152350000Y-76062500D02*
X152500000Y-76212500D01*
X151000000Y-77010000D02*
X151630523Y-77640523D01*
X144010000Y-79010000D02*
X144990000Y-79010000D01*
X151630523Y-78814477D02*
X151270000Y-79175000D01*
X149660000Y-78850000D02*
X150945000Y-78850000D01*
X144990000Y-79010000D02*
X145000000Y-79000000D01*
%TO.N,Board_17-GND*%
X149700121Y-77940121D02*
X149660000Y-77900000D01*
X148487182Y-77057818D02*
X147645000Y-77900000D01*
X148477701Y-78997299D02*
X148330402Y-78850000D01*
X152230000Y-79175000D02*
X153250000Y-79175000D01*
X153800000Y-76990000D02*
X153800000Y-76000000D01*
X148487182Y-76801780D02*
X148487182Y-77057818D01*
X150905523Y-77940121D02*
X149700121Y-77940121D01*
X148330402Y-78850000D02*
X147340000Y-78850000D01*
X147645000Y-77900000D02*
X147340000Y-77900000D01*
%TO.N,Board_17-Net-(D1-K)*%
X153777500Y-77787500D02*
X154000000Y-78010000D01*
X152500000Y-77787500D02*
X153577500Y-77787500D01*
X153577500Y-77787500D02*
X153800000Y-78010000D01*
%TO.N,Board_17-Net-(U1-SCL)*%
X146780538Y-76950000D02*
X146125538Y-77605000D01*
X147340000Y-76950000D02*
X146780538Y-76950000D01*
X146125538Y-77605000D02*
X144595000Y-77605000D01*
X144595000Y-77605000D02*
X144000000Y-77010000D01*
%TO.N,Board_17-Net-(U1-SDA)*%
X146710000Y-76050000D02*
X145750000Y-77010000D01*
X146710000Y-76050000D02*
X148760000Y-76050000D01*
X148760000Y-76050000D02*
X149660000Y-76950000D01*
%TO.N,Board_18-/SCL*%
X159000000Y-75990000D02*
X159730000Y-75260000D01*
X159730000Y-75260000D02*
X159730000Y-73650000D01*
X159000000Y-75990000D02*
X158355000Y-76635000D01*
X158355000Y-76635000D02*
X158355000Y-77335000D01*
X158355000Y-77335000D02*
X159010000Y-77990000D01*
%TO.N,Board_18-/SDA*%
X165610000Y-75600000D02*
X166000000Y-75990000D01*
X161140000Y-75600000D02*
X165610000Y-75600000D01*
X160750000Y-75990000D02*
X161140000Y-75600000D01*
X160750000Y-75170000D02*
X162270000Y-73650000D01*
X160750000Y-75990000D02*
X160750000Y-75170000D01*
%TO.N,Board_18-/VCC*%
X166797500Y-76212500D02*
X166000000Y-77010000D01*
X163710500Y-77859098D02*
X163710500Y-78205500D01*
X164355000Y-78850000D02*
X164660000Y-78850000D01*
X167500000Y-76212500D02*
X166797500Y-76212500D01*
X165945000Y-78850000D02*
X166270000Y-79175000D01*
X163710500Y-78205500D02*
X164355000Y-78850000D01*
X166630523Y-77640523D02*
X166630523Y-78814477D01*
X167350000Y-73650000D02*
X167350000Y-76062500D01*
X167350000Y-76062500D02*
X167500000Y-76212500D01*
X166000000Y-77010000D02*
X166630523Y-77640523D01*
X159010000Y-79010000D02*
X159990000Y-79010000D01*
X166630523Y-78814477D02*
X166270000Y-79175000D01*
X164660000Y-78850000D02*
X165945000Y-78850000D01*
X159990000Y-79010000D02*
X160000000Y-79000000D01*
%TO.N,Board_18-GND*%
X164700121Y-77940121D02*
X164660000Y-77900000D01*
X163487182Y-77057818D02*
X162645000Y-77900000D01*
X163477701Y-78997299D02*
X163330402Y-78850000D01*
X167230000Y-79175000D02*
X168250000Y-79175000D01*
X168800000Y-76990000D02*
X168800000Y-76000000D01*
X163487182Y-76801780D02*
X163487182Y-77057818D01*
X165905523Y-77940121D02*
X164700121Y-77940121D01*
X163330402Y-78850000D02*
X162340000Y-78850000D01*
X162645000Y-77900000D02*
X162340000Y-77900000D01*
%TO.N,Board_18-Net-(D1-K)*%
X168777500Y-77787500D02*
X169000000Y-78010000D01*
X167500000Y-77787500D02*
X168577500Y-77787500D01*
X168577500Y-77787500D02*
X168800000Y-78010000D01*
%TO.N,Board_18-Net-(U1-SCL)*%
X161780538Y-76950000D02*
X161125538Y-77605000D01*
X162340000Y-76950000D02*
X161780538Y-76950000D01*
X161125538Y-77605000D02*
X159595000Y-77605000D01*
X159595000Y-77605000D02*
X159000000Y-77010000D01*
%TO.N,Board_18-Net-(U1-SDA)*%
X161710000Y-76050000D02*
X160750000Y-77010000D01*
X161710000Y-76050000D02*
X163760000Y-76050000D01*
X163760000Y-76050000D02*
X164660000Y-76950000D01*
%TO.N,Board_19-/SCL*%
X174000000Y-75990000D02*
X174730000Y-75260000D01*
X174730000Y-75260000D02*
X174730000Y-73650000D01*
X174000000Y-75990000D02*
X173355000Y-76635000D01*
X173355000Y-76635000D02*
X173355000Y-77335000D01*
X173355000Y-77335000D02*
X174010000Y-77990000D01*
%TO.N,Board_19-/SDA*%
X180610000Y-75600000D02*
X181000000Y-75990000D01*
X176140000Y-75600000D02*
X180610000Y-75600000D01*
X175750000Y-75990000D02*
X176140000Y-75600000D01*
X175750000Y-75170000D02*
X177270000Y-73650000D01*
X175750000Y-75990000D02*
X175750000Y-75170000D01*
%TO.N,Board_19-/VCC*%
X181797500Y-76212500D02*
X181000000Y-77010000D01*
X178710500Y-77859098D02*
X178710500Y-78205500D01*
X179355000Y-78850000D02*
X179660000Y-78850000D01*
X182500000Y-76212500D02*
X181797500Y-76212500D01*
X180945000Y-78850000D02*
X181270000Y-79175000D01*
X178710500Y-78205500D02*
X179355000Y-78850000D01*
X181630523Y-77640523D02*
X181630523Y-78814477D01*
X182350000Y-73650000D02*
X182350000Y-76062500D01*
X182350000Y-76062500D02*
X182500000Y-76212500D01*
X181000000Y-77010000D02*
X181630523Y-77640523D01*
X174010000Y-79010000D02*
X174990000Y-79010000D01*
X181630523Y-78814477D02*
X181270000Y-79175000D01*
X179660000Y-78850000D02*
X180945000Y-78850000D01*
X174990000Y-79010000D02*
X175000000Y-79000000D01*
%TO.N,Board_19-GND*%
X179700121Y-77940121D02*
X179660000Y-77900000D01*
X178487182Y-77057818D02*
X177645000Y-77900000D01*
X178477701Y-78997299D02*
X178330402Y-78850000D01*
X182230000Y-79175000D02*
X183250000Y-79175000D01*
X183800000Y-76990000D02*
X183800000Y-76000000D01*
X178487182Y-76801780D02*
X178487182Y-77057818D01*
X180905523Y-77940121D02*
X179700121Y-77940121D01*
X178330402Y-78850000D02*
X177340000Y-78850000D01*
X177645000Y-77900000D02*
X177340000Y-77900000D01*
%TO.N,Board_19-Net-(D1-K)*%
X183777500Y-77787500D02*
X184000000Y-78010000D01*
X182500000Y-77787500D02*
X183577500Y-77787500D01*
X183577500Y-77787500D02*
X183800000Y-78010000D01*
%TO.N,Board_19-Net-(U1-SCL)*%
X176780538Y-76950000D02*
X176125538Y-77605000D01*
X177340000Y-76950000D02*
X176780538Y-76950000D01*
X176125538Y-77605000D02*
X174595000Y-77605000D01*
X174595000Y-77605000D02*
X174000000Y-77010000D01*
%TO.N,Board_19-Net-(U1-SDA)*%
X176710000Y-76050000D02*
X175750000Y-77010000D01*
X176710000Y-76050000D02*
X178760000Y-76050000D01*
X178760000Y-76050000D02*
X179660000Y-76950000D01*
%TO.N,Board_20-/SCL*%
X114000000Y-90990000D02*
X114730000Y-90260000D01*
X114730000Y-90260000D02*
X114730000Y-88650000D01*
X114000000Y-90990000D02*
X113355000Y-91635000D01*
X113355000Y-91635000D02*
X113355000Y-92335000D01*
X113355000Y-92335000D02*
X114010000Y-92990000D01*
%TO.N,Board_20-/SDA*%
X120610000Y-90600000D02*
X121000000Y-90990000D01*
X116140000Y-90600000D02*
X120610000Y-90600000D01*
X115750000Y-90990000D02*
X116140000Y-90600000D01*
X115750000Y-90170000D02*
X117270000Y-88650000D01*
X115750000Y-90990000D02*
X115750000Y-90170000D01*
%TO.N,Board_20-/VCC*%
X121797500Y-91212500D02*
X121000000Y-92010000D01*
X118710500Y-92859098D02*
X118710500Y-93205500D01*
X119355000Y-93850000D02*
X119660000Y-93850000D01*
X122500000Y-91212500D02*
X121797500Y-91212500D01*
X120945000Y-93850000D02*
X121270000Y-94175000D01*
X118710500Y-93205500D02*
X119355000Y-93850000D01*
X121630523Y-92640523D02*
X121630523Y-93814477D01*
X122350000Y-88650000D02*
X122350000Y-91062500D01*
X122350000Y-91062500D02*
X122500000Y-91212500D01*
X121000000Y-92010000D02*
X121630523Y-92640523D01*
X114010000Y-94010000D02*
X114990000Y-94010000D01*
X121630523Y-93814477D02*
X121270000Y-94175000D01*
X119660000Y-93850000D02*
X120945000Y-93850000D01*
X114990000Y-94010000D02*
X115000000Y-94000000D01*
%TO.N,Board_20-GND*%
X119700121Y-92940121D02*
X119660000Y-92900000D01*
X118487182Y-92057818D02*
X117645000Y-92900000D01*
X118477701Y-93997299D02*
X118330402Y-93850000D01*
X122230000Y-94175000D02*
X123250000Y-94175000D01*
X123800000Y-91990000D02*
X123800000Y-91000000D01*
X118487182Y-91801780D02*
X118487182Y-92057818D01*
X120905523Y-92940121D02*
X119700121Y-92940121D01*
X118330402Y-93850000D02*
X117340000Y-93850000D01*
X117645000Y-92900000D02*
X117340000Y-92900000D01*
%TO.N,Board_20-Net-(D1-K)*%
X123777500Y-92787500D02*
X124000000Y-93010000D01*
X122500000Y-92787500D02*
X123577500Y-92787500D01*
X123577500Y-92787500D02*
X123800000Y-93010000D01*
%TO.N,Board_20-Net-(U1-SCL)*%
X116780538Y-91950000D02*
X116125538Y-92605000D01*
X117340000Y-91950000D02*
X116780538Y-91950000D01*
X116125538Y-92605000D02*
X114595000Y-92605000D01*
X114595000Y-92605000D02*
X114000000Y-92010000D01*
%TO.N,Board_20-Net-(U1-SDA)*%
X116710000Y-91050000D02*
X115750000Y-92010000D01*
X116710000Y-91050000D02*
X118760000Y-91050000D01*
X118760000Y-91050000D02*
X119660000Y-91950000D01*
%TO.N,Board_21-/SCL*%
X129000000Y-90990000D02*
X129730000Y-90260000D01*
X129730000Y-90260000D02*
X129730000Y-88650000D01*
X129000000Y-90990000D02*
X128355000Y-91635000D01*
X128355000Y-91635000D02*
X128355000Y-92335000D01*
X128355000Y-92335000D02*
X129010000Y-92990000D01*
%TO.N,Board_21-/SDA*%
X135610000Y-90600000D02*
X136000000Y-90990000D01*
X131140000Y-90600000D02*
X135610000Y-90600000D01*
X130750000Y-90990000D02*
X131140000Y-90600000D01*
X130750000Y-90170000D02*
X132270000Y-88650000D01*
X130750000Y-90990000D02*
X130750000Y-90170000D01*
%TO.N,Board_21-/VCC*%
X136797500Y-91212500D02*
X136000000Y-92010000D01*
X133710500Y-92859098D02*
X133710500Y-93205500D01*
X134355000Y-93850000D02*
X134660000Y-93850000D01*
X137500000Y-91212500D02*
X136797500Y-91212500D01*
X135945000Y-93850000D02*
X136270000Y-94175000D01*
X133710500Y-93205500D02*
X134355000Y-93850000D01*
X136630523Y-92640523D02*
X136630523Y-93814477D01*
X137350000Y-88650000D02*
X137350000Y-91062500D01*
X137350000Y-91062500D02*
X137500000Y-91212500D01*
X136000000Y-92010000D02*
X136630523Y-92640523D01*
X129010000Y-94010000D02*
X129990000Y-94010000D01*
X136630523Y-93814477D02*
X136270000Y-94175000D01*
X134660000Y-93850000D02*
X135945000Y-93850000D01*
X129990000Y-94010000D02*
X130000000Y-94000000D01*
%TO.N,Board_21-GND*%
X134700121Y-92940121D02*
X134660000Y-92900000D01*
X133487182Y-92057818D02*
X132645000Y-92900000D01*
X133477701Y-93997299D02*
X133330402Y-93850000D01*
X137230000Y-94175000D02*
X138250000Y-94175000D01*
X138800000Y-91990000D02*
X138800000Y-91000000D01*
X133487182Y-91801780D02*
X133487182Y-92057818D01*
X135905523Y-92940121D02*
X134700121Y-92940121D01*
X133330402Y-93850000D02*
X132340000Y-93850000D01*
X132645000Y-92900000D02*
X132340000Y-92900000D01*
%TO.N,Board_21-Net-(D1-K)*%
X138777500Y-92787500D02*
X139000000Y-93010000D01*
X137500000Y-92787500D02*
X138577500Y-92787500D01*
X138577500Y-92787500D02*
X138800000Y-93010000D01*
%TO.N,Board_21-Net-(U1-SCL)*%
X131780538Y-91950000D02*
X131125538Y-92605000D01*
X132340000Y-91950000D02*
X131780538Y-91950000D01*
X131125538Y-92605000D02*
X129595000Y-92605000D01*
X129595000Y-92605000D02*
X129000000Y-92010000D01*
%TO.N,Board_21-Net-(U1-SDA)*%
X131710000Y-91050000D02*
X130750000Y-92010000D01*
X131710000Y-91050000D02*
X133760000Y-91050000D01*
X133760000Y-91050000D02*
X134660000Y-91950000D01*
%TO.N,Board_22-/SCL*%
X144000000Y-90990000D02*
X144730000Y-90260000D01*
X144730000Y-90260000D02*
X144730000Y-88650000D01*
X144000000Y-90990000D02*
X143355000Y-91635000D01*
X143355000Y-91635000D02*
X143355000Y-92335000D01*
X143355000Y-92335000D02*
X144010000Y-92990000D01*
%TO.N,Board_22-/SDA*%
X150610000Y-90600000D02*
X151000000Y-90990000D01*
X146140000Y-90600000D02*
X150610000Y-90600000D01*
X145750000Y-90990000D02*
X146140000Y-90600000D01*
X145750000Y-90170000D02*
X147270000Y-88650000D01*
X145750000Y-90990000D02*
X145750000Y-90170000D01*
%TO.N,Board_22-/VCC*%
X151797500Y-91212500D02*
X151000000Y-92010000D01*
X148710500Y-92859098D02*
X148710500Y-93205500D01*
X149355000Y-93850000D02*
X149660000Y-93850000D01*
X152500000Y-91212500D02*
X151797500Y-91212500D01*
X150945000Y-93850000D02*
X151270000Y-94175000D01*
X148710500Y-93205500D02*
X149355000Y-93850000D01*
X151630523Y-92640523D02*
X151630523Y-93814477D01*
X152350000Y-88650000D02*
X152350000Y-91062500D01*
X152350000Y-91062500D02*
X152500000Y-91212500D01*
X151000000Y-92010000D02*
X151630523Y-92640523D01*
X144010000Y-94010000D02*
X144990000Y-94010000D01*
X151630523Y-93814477D02*
X151270000Y-94175000D01*
X149660000Y-93850000D02*
X150945000Y-93850000D01*
X144990000Y-94010000D02*
X145000000Y-94000000D01*
%TO.N,Board_22-GND*%
X149700121Y-92940121D02*
X149660000Y-92900000D01*
X148487182Y-92057818D02*
X147645000Y-92900000D01*
X148477701Y-93997299D02*
X148330402Y-93850000D01*
X152230000Y-94175000D02*
X153250000Y-94175000D01*
X153800000Y-91990000D02*
X153800000Y-91000000D01*
X148487182Y-91801780D02*
X148487182Y-92057818D01*
X150905523Y-92940121D02*
X149700121Y-92940121D01*
X148330402Y-93850000D02*
X147340000Y-93850000D01*
X147645000Y-92900000D02*
X147340000Y-92900000D01*
%TO.N,Board_22-Net-(D1-K)*%
X153777500Y-92787500D02*
X154000000Y-93010000D01*
X152500000Y-92787500D02*
X153577500Y-92787500D01*
X153577500Y-92787500D02*
X153800000Y-93010000D01*
%TO.N,Board_22-Net-(U1-SCL)*%
X146780538Y-91950000D02*
X146125538Y-92605000D01*
X147340000Y-91950000D02*
X146780538Y-91950000D01*
X146125538Y-92605000D02*
X144595000Y-92605000D01*
X144595000Y-92605000D02*
X144000000Y-92010000D01*
%TO.N,Board_22-Net-(U1-SDA)*%
X146710000Y-91050000D02*
X145750000Y-92010000D01*
X146710000Y-91050000D02*
X148760000Y-91050000D01*
X148760000Y-91050000D02*
X149660000Y-91950000D01*
%TO.N,Board_23-/SCL*%
X159000000Y-90990000D02*
X159730000Y-90260000D01*
X159730000Y-90260000D02*
X159730000Y-88650000D01*
X159000000Y-90990000D02*
X158355000Y-91635000D01*
X158355000Y-91635000D02*
X158355000Y-92335000D01*
X158355000Y-92335000D02*
X159010000Y-92990000D01*
%TO.N,Board_23-/SDA*%
X165610000Y-90600000D02*
X166000000Y-90990000D01*
X161140000Y-90600000D02*
X165610000Y-90600000D01*
X160750000Y-90990000D02*
X161140000Y-90600000D01*
X160750000Y-90170000D02*
X162270000Y-88650000D01*
X160750000Y-90990000D02*
X160750000Y-90170000D01*
%TO.N,Board_23-/VCC*%
X166797500Y-91212500D02*
X166000000Y-92010000D01*
X163710500Y-92859098D02*
X163710500Y-93205500D01*
X164355000Y-93850000D02*
X164660000Y-93850000D01*
X167500000Y-91212500D02*
X166797500Y-91212500D01*
X165945000Y-93850000D02*
X166270000Y-94175000D01*
X163710500Y-93205500D02*
X164355000Y-93850000D01*
X166630523Y-92640523D02*
X166630523Y-93814477D01*
X167350000Y-88650000D02*
X167350000Y-91062500D01*
X167350000Y-91062500D02*
X167500000Y-91212500D01*
X166000000Y-92010000D02*
X166630523Y-92640523D01*
X159010000Y-94010000D02*
X159990000Y-94010000D01*
X166630523Y-93814477D02*
X166270000Y-94175000D01*
X164660000Y-93850000D02*
X165945000Y-93850000D01*
X159990000Y-94010000D02*
X160000000Y-94000000D01*
%TO.N,Board_23-GND*%
X164700121Y-92940121D02*
X164660000Y-92900000D01*
X163487182Y-92057818D02*
X162645000Y-92900000D01*
X163477701Y-93997299D02*
X163330402Y-93850000D01*
X167230000Y-94175000D02*
X168250000Y-94175000D01*
X168800000Y-91990000D02*
X168800000Y-91000000D01*
X163487182Y-91801780D02*
X163487182Y-92057818D01*
X165905523Y-92940121D02*
X164700121Y-92940121D01*
X163330402Y-93850000D02*
X162340000Y-93850000D01*
X162645000Y-92900000D02*
X162340000Y-92900000D01*
%TO.N,Board_23-Net-(D1-K)*%
X168777500Y-92787500D02*
X169000000Y-93010000D01*
X167500000Y-92787500D02*
X168577500Y-92787500D01*
X168577500Y-92787500D02*
X168800000Y-93010000D01*
%TO.N,Board_23-Net-(U1-SCL)*%
X161780538Y-91950000D02*
X161125538Y-92605000D01*
X162340000Y-91950000D02*
X161780538Y-91950000D01*
X161125538Y-92605000D02*
X159595000Y-92605000D01*
X159595000Y-92605000D02*
X159000000Y-92010000D01*
%TO.N,Board_23-Net-(U1-SDA)*%
X161710000Y-91050000D02*
X160750000Y-92010000D01*
X161710000Y-91050000D02*
X163760000Y-91050000D01*
X163760000Y-91050000D02*
X164660000Y-91950000D01*
%TO.N,Board_24-/SCL*%
X174000000Y-90990000D02*
X174730000Y-90260000D01*
X174730000Y-90260000D02*
X174730000Y-88650000D01*
X174000000Y-90990000D02*
X173355000Y-91635000D01*
X173355000Y-91635000D02*
X173355000Y-92335000D01*
X173355000Y-92335000D02*
X174010000Y-92990000D01*
%TO.N,Board_24-/SDA*%
X180610000Y-90600000D02*
X181000000Y-90990000D01*
X176140000Y-90600000D02*
X180610000Y-90600000D01*
X175750000Y-90990000D02*
X176140000Y-90600000D01*
X175750000Y-90170000D02*
X177270000Y-88650000D01*
X175750000Y-90990000D02*
X175750000Y-90170000D01*
%TO.N,Board_24-/VCC*%
X181797500Y-91212500D02*
X181000000Y-92010000D01*
X178710500Y-92859098D02*
X178710500Y-93205500D01*
X179355000Y-93850000D02*
X179660000Y-93850000D01*
X182500000Y-91212500D02*
X181797500Y-91212500D01*
X180945000Y-93850000D02*
X181270000Y-94175000D01*
X178710500Y-93205500D02*
X179355000Y-93850000D01*
X181630523Y-92640523D02*
X181630523Y-93814477D01*
X182350000Y-88650000D02*
X182350000Y-91062500D01*
X182350000Y-91062500D02*
X182500000Y-91212500D01*
X181000000Y-92010000D02*
X181630523Y-92640523D01*
X174010000Y-94010000D02*
X174990000Y-94010000D01*
X181630523Y-93814477D02*
X181270000Y-94175000D01*
X179660000Y-93850000D02*
X180945000Y-93850000D01*
X174990000Y-94010000D02*
X175000000Y-94000000D01*
%TO.N,Board_24-GND*%
X179700121Y-92940121D02*
X179660000Y-92900000D01*
X178487182Y-92057818D02*
X177645000Y-92900000D01*
X178477701Y-93997299D02*
X178330402Y-93850000D01*
X182230000Y-94175000D02*
X183250000Y-94175000D01*
X183800000Y-91990000D02*
X183800000Y-91000000D01*
X178487182Y-91801780D02*
X178487182Y-92057818D01*
X180905523Y-92940121D02*
X179700121Y-92940121D01*
X178330402Y-93850000D02*
X177340000Y-93850000D01*
X177645000Y-92900000D02*
X177340000Y-92900000D01*
%TO.N,Board_24-Net-(D1-K)*%
X183777500Y-92787500D02*
X184000000Y-93010000D01*
X182500000Y-92787500D02*
X183577500Y-92787500D01*
X183577500Y-92787500D02*
X183800000Y-93010000D01*
%TO.N,Board_24-Net-(U1-SCL)*%
X176780538Y-91950000D02*
X176125538Y-92605000D01*
X177340000Y-91950000D02*
X176780538Y-91950000D01*
X176125538Y-92605000D02*
X174595000Y-92605000D01*
X174595000Y-92605000D02*
X174000000Y-92010000D01*
%TO.N,Board_24-Net-(U1-SDA)*%
X176710000Y-91050000D02*
X175750000Y-92010000D01*
X176710000Y-91050000D02*
X178760000Y-91050000D01*
X178760000Y-91050000D02*
X179660000Y-91950000D01*
%TD*%
M02*
