%TF.GenerationSoftware,KiCad,Pcbnew,7.0.1*%
%TF.CreationDate,2024-10-11T19:22:07-04:00*%
%TF.ProjectId,TrackRing,54726163-6b52-4696-9e67-2e6b69636164,rev?*%
%TF.SameCoordinates,Original*%
%TF.FileFunction,Copper,L1,Top*%
%TF.FilePolarity,Positive*%
%FSLAX46Y46*%
G04 Gerber Fmt 4.6, Leading zero omitted, Abs format (unit mm)*
G04 Created by KiCad (PCBNEW 7.0.1) date 2024-10-11 19:22:07*
%MOMM*%
%LPD*%
G01*
G04 APERTURE LIST*
G04 Aperture macros list*
%AMRoundRect*
0 Rectangle with rounded corners*
0 $1 Rounding radius*
0 $2 $3 $4 $5 $6 $7 $8 $9 X,Y pos of 4 corners*
0 Add a 4 corners polygon primitive as box body*
4,1,4,$2,$3,$4,$5,$6,$7,$8,$9,$2,$3,0*
0 Add four circle primitives for the rounded corners*
1,1,$1+$1,$2,$3*
1,1,$1+$1,$4,$5*
1,1,$1+$1,$6,$7*
1,1,$1+$1,$8,$9*
0 Add four rect primitives between the rounded corners*
20,1,$1+$1,$2,$3,$4,$5,0*
20,1,$1+$1,$4,$5,$6,$7,0*
20,1,$1+$1,$6,$7,$8,$9,0*
20,1,$1+$1,$8,$9,$2,$3,0*%
G04 Aperture macros list end*
%TA.AperFunction,ComponentPad*%
%ADD10R,1.700000X1.700000*%
%TD*%
%TA.AperFunction,ComponentPad*%
%ADD11O,1.700000X1.700000*%
%TD*%
%TA.AperFunction,SMDPad,CuDef*%
%ADD12RoundRect,0.135000X-0.185000X0.135000X-0.185000X-0.135000X0.185000X-0.135000X0.185000X0.135000X0*%
%TD*%
%TA.AperFunction,SMDPad,CuDef*%
%ADD13RoundRect,0.140000X0.140000X0.170000X-0.140000X0.170000X-0.140000X-0.170000X0.140000X-0.170000X0*%
%TD*%
%TA.AperFunction,SMDPad,CuDef*%
%ADD14RoundRect,0.218750X0.256250X-0.218750X0.256250X0.218750X-0.256250X0.218750X-0.256250X-0.218750X0*%
%TD*%
%TA.AperFunction,SMDPad,CuDef*%
%ADD15RoundRect,0.135000X0.185000X-0.135000X0.185000X0.135000X-0.185000X0.135000X-0.185000X-0.135000X0*%
%TD*%
%TA.AperFunction,SMDPad,CuDef*%
%ADD16R,0.700000X0.510000*%
%TD*%
%TA.AperFunction,ViaPad*%
%ADD17C,0.800000*%
%TD*%
%TA.AperFunction,Conductor*%
%ADD18C,0.250000*%
%TD*%
G04 APERTURE END LIST*
D10*
%TO.P,J1,1,Pin_1*%
%TO.N,/VCC*%
X29850000Y-28650000D03*
D11*
%TO.P,J1,2,Pin_2*%
%TO.N,GND*%
X27310000Y-28650000D03*
%TO.P,J1,3,Pin_3*%
%TO.N,/SDA*%
X24770000Y-28650000D03*
%TO.P,J1,4,Pin_4*%
%TO.N,/SCL*%
X22230000Y-28650000D03*
%TD*%
D12*
%TO.P,R2,1*%
%TO.N,/SCL*%
X21500000Y-30990000D03*
%TO.P,R2,2*%
%TO.N,Net-(U1-SCL)*%
X21500000Y-32010000D03*
%TD*%
D13*
%TO.P,C1,1*%
%TO.N,GND*%
X29730000Y-34175000D03*
%TO.P,C1,2*%
%TO.N,/VCC*%
X28770000Y-34175000D03*
%TD*%
D14*
%TO.P,D1,1,K*%
%TO.N,Net-(D1-K)*%
X30000000Y-32787500D03*
%TO.P,D1,2,A*%
%TO.N,/VCC*%
X30000000Y-31212500D03*
%TD*%
D15*
%TO.P,R4,1*%
%TO.N,/VCC*%
X21500000Y-34510000D03*
%TO.P,R4,2*%
%TO.N,/SCL*%
X21500000Y-33490000D03*
%TD*%
D12*
%TO.P,R1,1*%
%TO.N,/SDA*%
X23250000Y-30990000D03*
%TO.P,R1,2*%
%TO.N,Net-(U1-SDA)*%
X23250000Y-32010000D03*
%TD*%
D15*
%TO.P,R5,1*%
%TO.N,Net-(D1-K)*%
X31500000Y-33010000D03*
%TO.P,R5,2*%
%TO.N,GND*%
X31500000Y-31990000D03*
%TD*%
D16*
%TO.P,U1,1,SCL*%
%TO.N,Net-(U1-SCL)*%
X24840000Y-32225000D03*
%TO.P,U1,2,GND*%
%TO.N,GND*%
X24840000Y-33175000D03*
%TO.P,U1,3,GND*%
X24840000Y-34125000D03*
%TO.P,U1,4,VCC*%
%TO.N,/VCC*%
X27160000Y-34125000D03*
%TO.P,U1,5,GND*%
%TO.N,GND*%
X27160000Y-33175000D03*
%TO.P,U1,6,SDA*%
%TO.N,Net-(U1-SDA)*%
X27160000Y-32225000D03*
%TD*%
D15*
%TO.P,R3,1*%
%TO.N,/VCC*%
X28500000Y-32010000D03*
%TO.P,R3,2*%
%TO.N,/SDA*%
X28500000Y-30990000D03*
%TD*%
D17*
%TO.N,/VCC*%
X22500000Y-34500000D03*
X26210500Y-33134098D03*
%TO.N,GND*%
X25977701Y-34272299D03*
X28445644Y-33288848D03*
X31500000Y-31000000D03*
X25987182Y-32076780D03*
X30750000Y-34175000D03*
%TD*%
D18*
%TO.N,/VCC*%
X29297500Y-31212500D02*
X28500000Y-32010000D01*
X26210500Y-33134098D02*
X26210500Y-33480500D01*
X29170644Y-32680644D02*
X29170644Y-33774356D01*
X26855000Y-34125000D02*
X27160000Y-34125000D01*
X28500000Y-32010000D02*
X29170644Y-32680644D01*
X30000000Y-31212500D02*
X29297500Y-31212500D01*
X29170644Y-33774356D02*
X28770000Y-34175000D01*
X26210500Y-33480500D02*
X26855000Y-34125000D01*
X27160000Y-34125000D02*
X28720000Y-34125000D01*
X29850000Y-28650000D02*
X29850000Y-31062500D01*
X29850000Y-31062500D02*
X30000000Y-31212500D01*
X28720000Y-34125000D02*
X28770000Y-34175000D01*
X22500000Y-34500000D02*
X21510000Y-34500000D01*
X21510000Y-34500000D02*
X21500000Y-34510000D01*
%TO.N,GND*%
X25987182Y-32332818D02*
X25145000Y-33175000D01*
X25977701Y-34272299D02*
X25830402Y-34125000D01*
X29730000Y-34175000D02*
X30750000Y-34175000D01*
X28331796Y-33175000D02*
X28445644Y-33288848D01*
X25987182Y-32076780D02*
X25987182Y-32332818D01*
X25830402Y-34125000D02*
X24840000Y-34125000D01*
X27160000Y-33175000D02*
X28331796Y-33175000D01*
X25145000Y-33175000D02*
X24840000Y-33175000D01*
X31500000Y-31990000D02*
X31500000Y-31000000D01*
%TO.N,/SDA*%
X28399462Y-30889462D02*
X28500000Y-30990000D01*
X23250000Y-30990000D02*
X23350538Y-30889462D01*
X23350538Y-30889462D02*
X28399462Y-30889462D01*
X23250000Y-30170000D02*
X24770000Y-28650000D01*
X23250000Y-30990000D02*
X23250000Y-30170000D01*
%TO.N,/SCL*%
X21500000Y-30990000D02*
X22230000Y-30260000D01*
X22230000Y-30260000D02*
X22230000Y-28650000D01*
X21500000Y-33490000D02*
X20855000Y-32845000D01*
X20855000Y-32845000D02*
X20855000Y-31635000D01*
X20855000Y-31635000D02*
X21500000Y-30990000D01*
%TO.N,Net-(U1-SDA)*%
X27160000Y-32225000D02*
X26274462Y-31339462D01*
X26274462Y-31339462D02*
X23920538Y-31339462D01*
X23920538Y-31339462D02*
X23250000Y-32010000D01*
%TO.N,Net-(U1-SCL)*%
X24005538Y-32225000D02*
X23480538Y-32750000D01*
X22240000Y-32750000D02*
X21500000Y-32010000D01*
X23480538Y-32750000D02*
X22240000Y-32750000D01*
X24840000Y-32225000D02*
X24005538Y-32225000D01*
%TO.N,Net-(D1-K)*%
X31277500Y-32787500D02*
X31500000Y-33010000D01*
X30000000Y-32787500D02*
X31277500Y-32787500D01*
%TD*%
M02*
