%TF.GenerationSoftware,KiCad,Pcbnew,7.0.1*%
%TF.CreationDate,2024-10-11T19:22:07-04:00*%
%TF.ProjectId,TrackRing,54726163-6b52-4696-9e67-2e6b69636164,rev?*%
%TF.SameCoordinates,Original*%
%TF.FileFunction,Legend,Top*%
%TF.FilePolarity,Positive*%
%FSLAX46Y46*%
G04 Gerber Fmt 4.6, Leading zero omitted, Abs format (unit mm)*
G04 Created by KiCad (PCBNEW 7.0.1) date 2024-10-11 19:22:07*
%MOMM*%
%LPD*%
G01*
G04 APERTURE LIST*
%ADD10C,0.150000*%
%ADD11C,0.120000*%
G04 APERTURE END LIST*
D10*
%TO.C,J1*%
X32082619Y-24603333D02*
X32796904Y-24603333D01*
X32796904Y-24603333D02*
X32939761Y-24650952D01*
X32939761Y-24650952D02*
X33035000Y-24746190D01*
X33035000Y-24746190D02*
X33082619Y-24889047D01*
X33082619Y-24889047D02*
X33082619Y-24984285D01*
X33082619Y-23603333D02*
X33082619Y-24174761D01*
X33082619Y-23889047D02*
X32082619Y-23889047D01*
X32082619Y-23889047D02*
X32225476Y-23984285D01*
X32225476Y-23984285D02*
X32320714Y-24079523D01*
X32320714Y-24079523D02*
X32368333Y-24174761D01*
%TO.C,R2*%
X23132619Y-31666666D02*
X22656428Y-31999999D01*
X23132619Y-32238094D02*
X22132619Y-32238094D01*
X22132619Y-32238094D02*
X22132619Y-31857142D01*
X22132619Y-31857142D02*
X22180238Y-31761904D01*
X22180238Y-31761904D02*
X22227857Y-31714285D01*
X22227857Y-31714285D02*
X22323095Y-31666666D01*
X22323095Y-31666666D02*
X22465952Y-31666666D01*
X22465952Y-31666666D02*
X22561190Y-31714285D01*
X22561190Y-31714285D02*
X22608809Y-31761904D01*
X22608809Y-31761904D02*
X22656428Y-31857142D01*
X22656428Y-31857142D02*
X22656428Y-32238094D01*
X22227857Y-31285713D02*
X22180238Y-31238094D01*
X22180238Y-31238094D02*
X22132619Y-31142856D01*
X22132619Y-31142856D02*
X22132619Y-30904761D01*
X22132619Y-30904761D02*
X22180238Y-30809523D01*
X22180238Y-30809523D02*
X22227857Y-30761904D01*
X22227857Y-30761904D02*
X22323095Y-30714285D01*
X22323095Y-30714285D02*
X22418333Y-30714285D01*
X22418333Y-30714285D02*
X22561190Y-30761904D01*
X22561190Y-30761904D02*
X23132619Y-31333332D01*
X23132619Y-31333332D02*
X23132619Y-30714285D01*
%TO.C,C1*%
X29083333Y-35702380D02*
X29035714Y-35750000D01*
X29035714Y-35750000D02*
X28892857Y-35797619D01*
X28892857Y-35797619D02*
X28797619Y-35797619D01*
X28797619Y-35797619D02*
X28654762Y-35750000D01*
X28654762Y-35750000D02*
X28559524Y-35654761D01*
X28559524Y-35654761D02*
X28511905Y-35559523D01*
X28511905Y-35559523D02*
X28464286Y-35369047D01*
X28464286Y-35369047D02*
X28464286Y-35226190D01*
X28464286Y-35226190D02*
X28511905Y-35035714D01*
X28511905Y-35035714D02*
X28559524Y-34940476D01*
X28559524Y-34940476D02*
X28654762Y-34845238D01*
X28654762Y-34845238D02*
X28797619Y-34797619D01*
X28797619Y-34797619D02*
X28892857Y-34797619D01*
X28892857Y-34797619D02*
X29035714Y-34845238D01*
X29035714Y-34845238D02*
X29083333Y-34892857D01*
X30035714Y-35797619D02*
X29464286Y-35797619D01*
X29750000Y-35797619D02*
X29750000Y-34797619D01*
X29750000Y-34797619D02*
X29654762Y-34940476D01*
X29654762Y-34940476D02*
X29559524Y-35035714D01*
X29559524Y-35035714D02*
X29464286Y-35083333D01*
%TO.C,D1*%
X29032619Y-32738094D02*
X28032619Y-32738094D01*
X28032619Y-32738094D02*
X28032619Y-32499999D01*
X28032619Y-32499999D02*
X28080238Y-32357142D01*
X28080238Y-32357142D02*
X28175476Y-32261904D01*
X28175476Y-32261904D02*
X28270714Y-32214285D01*
X28270714Y-32214285D02*
X28461190Y-32166666D01*
X28461190Y-32166666D02*
X28604047Y-32166666D01*
X28604047Y-32166666D02*
X28794523Y-32214285D01*
X28794523Y-32214285D02*
X28889761Y-32261904D01*
X28889761Y-32261904D02*
X28985000Y-32357142D01*
X28985000Y-32357142D02*
X29032619Y-32499999D01*
X29032619Y-32499999D02*
X29032619Y-32738094D01*
X29032619Y-31214285D02*
X29032619Y-31785713D01*
X29032619Y-31499999D02*
X28032619Y-31499999D01*
X28032619Y-31499999D02*
X28175476Y-31595237D01*
X28175476Y-31595237D02*
X28270714Y-31690475D01*
X28270714Y-31690475D02*
X28318333Y-31785713D01*
%TO.C,R4*%
X20792619Y-34166666D02*
X20316428Y-34499999D01*
X20792619Y-34738094D02*
X19792619Y-34738094D01*
X19792619Y-34738094D02*
X19792619Y-34357142D01*
X19792619Y-34357142D02*
X19840238Y-34261904D01*
X19840238Y-34261904D02*
X19887857Y-34214285D01*
X19887857Y-34214285D02*
X19983095Y-34166666D01*
X19983095Y-34166666D02*
X20125952Y-34166666D01*
X20125952Y-34166666D02*
X20221190Y-34214285D01*
X20221190Y-34214285D02*
X20268809Y-34261904D01*
X20268809Y-34261904D02*
X20316428Y-34357142D01*
X20316428Y-34357142D02*
X20316428Y-34738094D01*
X20125952Y-33309523D02*
X20792619Y-33309523D01*
X19745000Y-33547618D02*
X20459285Y-33785713D01*
X20459285Y-33785713D02*
X20459285Y-33166666D01*
%TO.C,R1*%
X24882619Y-31666666D02*
X24406428Y-31999999D01*
X24882619Y-32238094D02*
X23882619Y-32238094D01*
X23882619Y-32238094D02*
X23882619Y-31857142D01*
X23882619Y-31857142D02*
X23930238Y-31761904D01*
X23930238Y-31761904D02*
X23977857Y-31714285D01*
X23977857Y-31714285D02*
X24073095Y-31666666D01*
X24073095Y-31666666D02*
X24215952Y-31666666D01*
X24215952Y-31666666D02*
X24311190Y-31714285D01*
X24311190Y-31714285D02*
X24358809Y-31761904D01*
X24358809Y-31761904D02*
X24406428Y-31857142D01*
X24406428Y-31857142D02*
X24406428Y-32238094D01*
X24882619Y-30714285D02*
X24882619Y-31285713D01*
X24882619Y-30999999D02*
X23882619Y-30999999D01*
X23882619Y-30999999D02*
X24025476Y-31095237D01*
X24025476Y-31095237D02*
X24120714Y-31190475D01*
X24120714Y-31190475D02*
X24168333Y-31285713D01*
%TO.C,R5*%
X30792619Y-32666666D02*
X30316428Y-32999999D01*
X30792619Y-33238094D02*
X29792619Y-33238094D01*
X29792619Y-33238094D02*
X29792619Y-32857142D01*
X29792619Y-32857142D02*
X29840238Y-32761904D01*
X29840238Y-32761904D02*
X29887857Y-32714285D01*
X29887857Y-32714285D02*
X29983095Y-32666666D01*
X29983095Y-32666666D02*
X30125952Y-32666666D01*
X30125952Y-32666666D02*
X30221190Y-32714285D01*
X30221190Y-32714285D02*
X30268809Y-32761904D01*
X30268809Y-32761904D02*
X30316428Y-32857142D01*
X30316428Y-32857142D02*
X30316428Y-33238094D01*
X29792619Y-31761904D02*
X29792619Y-32238094D01*
X29792619Y-32238094D02*
X30268809Y-32285713D01*
X30268809Y-32285713D02*
X30221190Y-32238094D01*
X30221190Y-32238094D02*
X30173571Y-32142856D01*
X30173571Y-32142856D02*
X30173571Y-31904761D01*
X30173571Y-31904761D02*
X30221190Y-31809523D01*
X30221190Y-31809523D02*
X30268809Y-31761904D01*
X30268809Y-31761904D02*
X30364047Y-31714285D01*
X30364047Y-31714285D02*
X30602142Y-31714285D01*
X30602142Y-31714285D02*
X30697380Y-31761904D01*
X30697380Y-31761904D02*
X30745000Y-31809523D01*
X30745000Y-31809523D02*
X30792619Y-31904761D01*
X30792619Y-31904761D02*
X30792619Y-32142856D01*
X30792619Y-32142856D02*
X30745000Y-32238094D01*
X30745000Y-32238094D02*
X30697380Y-32285713D01*
%TO.C,U1*%
X25238095Y-30187619D02*
X25238095Y-30997142D01*
X25238095Y-30997142D02*
X25285714Y-31092380D01*
X25285714Y-31092380D02*
X25333333Y-31140000D01*
X25333333Y-31140000D02*
X25428571Y-31187619D01*
X25428571Y-31187619D02*
X25619047Y-31187619D01*
X25619047Y-31187619D02*
X25714285Y-31140000D01*
X25714285Y-31140000D02*
X25761904Y-31092380D01*
X25761904Y-31092380D02*
X25809523Y-30997142D01*
X25809523Y-30997142D02*
X25809523Y-30187619D01*
X26809523Y-31187619D02*
X26238095Y-31187619D01*
X26523809Y-31187619D02*
X26523809Y-30187619D01*
X26523809Y-30187619D02*
X26428571Y-30330476D01*
X26428571Y-30330476D02*
X26333333Y-30425714D01*
X26333333Y-30425714D02*
X26238095Y-30473333D01*
%TO.C,R3*%
X27792619Y-31666666D02*
X27316428Y-31999999D01*
X27792619Y-32238094D02*
X26792619Y-32238094D01*
X26792619Y-32238094D02*
X26792619Y-31857142D01*
X26792619Y-31857142D02*
X26840238Y-31761904D01*
X26840238Y-31761904D02*
X26887857Y-31714285D01*
X26887857Y-31714285D02*
X26983095Y-31666666D01*
X26983095Y-31666666D02*
X27125952Y-31666666D01*
X27125952Y-31666666D02*
X27221190Y-31714285D01*
X27221190Y-31714285D02*
X27268809Y-31761904D01*
X27268809Y-31761904D02*
X27316428Y-31857142D01*
X27316428Y-31857142D02*
X27316428Y-32238094D01*
X26792619Y-31333332D02*
X26792619Y-30714285D01*
X26792619Y-30714285D02*
X27173571Y-31047618D01*
X27173571Y-31047618D02*
X27173571Y-30904761D01*
X27173571Y-30904761D02*
X27221190Y-30809523D01*
X27221190Y-30809523D02*
X27268809Y-30761904D01*
X27268809Y-30761904D02*
X27364047Y-30714285D01*
X27364047Y-30714285D02*
X27602142Y-30714285D01*
X27602142Y-30714285D02*
X27697380Y-30761904D01*
X27697380Y-30761904D02*
X27745000Y-30809523D01*
X27745000Y-30809523D02*
X27792619Y-30904761D01*
X27792619Y-30904761D02*
X27792619Y-31190475D01*
X27792619Y-31190475D02*
X27745000Y-31285713D01*
X27745000Y-31285713D02*
X27697380Y-31333332D01*
D11*
%TO.C,J1*%
X31180000Y-18560000D02*
X20900000Y-18560000D01*
X31180000Y-18560000D02*
X31180000Y-27190000D01*
X31060000Y-18560000D02*
X31060000Y-27190000D01*
X30941905Y-18560000D02*
X30941905Y-27190000D01*
X30823810Y-18560000D02*
X30823810Y-27190000D01*
X30705715Y-18560000D02*
X30705715Y-27190000D01*
X30587620Y-18560000D02*
X30587620Y-27190000D01*
X30469525Y-18560000D02*
X30469525Y-27190000D01*
X30351430Y-18560000D02*
X30351430Y-27190000D01*
X30233335Y-18560000D02*
X30233335Y-27190000D01*
X30115240Y-18560000D02*
X30115240Y-27190000D01*
X29997145Y-18560000D02*
X29997145Y-27190000D01*
X29879050Y-18560000D02*
X29879050Y-27190000D01*
X29760955Y-18560000D02*
X29760955Y-27190000D01*
X29642860Y-18560000D02*
X29642860Y-27190000D01*
X29524765Y-18560000D02*
X29524765Y-27190000D01*
X29406670Y-18560000D02*
X29406670Y-27190000D01*
X29288575Y-18560000D02*
X29288575Y-27190000D01*
X29170480Y-18560000D02*
X29170480Y-27190000D01*
X29052385Y-18560000D02*
X29052385Y-27190000D01*
X28934290Y-18560000D02*
X28934290Y-27190000D01*
X28816195Y-18560000D02*
X28816195Y-27190000D01*
X28698100Y-18560000D02*
X28698100Y-27190000D01*
X28580000Y-18560000D02*
X28580000Y-27190000D01*
X26040000Y-18560000D02*
X26040000Y-27190000D01*
X23500000Y-18560000D02*
X23500000Y-27190000D01*
X20900000Y-18560000D02*
X20900000Y-27190000D01*
X31180000Y-27190000D02*
X20900000Y-27190000D01*
X30210000Y-27190000D02*
X30210000Y-27540000D01*
X29490000Y-27190000D02*
X29490000Y-27540000D01*
X27670000Y-27190000D02*
X27670000Y-27600000D01*
X26950000Y-27190000D02*
X26950000Y-27600000D01*
X25130000Y-27190000D02*
X25130000Y-27600000D01*
X24410000Y-27190000D02*
X24410000Y-27600000D01*
X22590000Y-27190000D02*
X22590000Y-27600000D01*
X21870000Y-27190000D02*
X21870000Y-27600000D01*
X31180000Y-28650000D02*
X31180000Y-29760000D01*
X31180000Y-29760000D02*
X29850000Y-29760000D01*
%TO.C,R2*%
X21880000Y-31346359D02*
X21880000Y-31653641D01*
X21120000Y-31346359D02*
X21120000Y-31653641D01*
%TO.C,C1*%
X29357836Y-34535000D02*
X29142164Y-34535000D01*
X29357836Y-33815000D02*
X29142164Y-33815000D01*
%TO.C,D1*%
X29265000Y-33485000D02*
X30735000Y-33485000D01*
X30735000Y-33485000D02*
X30735000Y-31200000D01*
X29265000Y-31200000D02*
X29265000Y-33485000D01*
%TO.C,R4*%
X21120000Y-34153641D02*
X21120000Y-33846359D01*
X21880000Y-34153641D02*
X21880000Y-33846359D01*
%TO.C,R1*%
X23630000Y-31346359D02*
X23630000Y-31653641D01*
X22870000Y-31346359D02*
X22870000Y-31653641D01*
%TO.C,R5*%
X31120000Y-32653641D02*
X31120000Y-32346359D01*
X31880000Y-32653641D02*
X31880000Y-32346359D01*
%TO.C,U1*%
X25200000Y-34775000D02*
X26800000Y-34775000D01*
X26800000Y-31575000D02*
X24500000Y-31575000D01*
%TO.C,R3*%
X28120000Y-31653641D02*
X28120000Y-31346359D01*
X28880000Y-31653641D02*
X28880000Y-31346359D01*
%TD*%
M02*
