%TF.GenerationSoftware,KiCad,Pcbnew,7.0.1*%
%TF.CreationDate,2024-10-13T19:11:28-04:00*%
%TF.ProjectId,TrackRing-panel,54726163-6b52-4696-9e67-2d70616e656c,rev?*%
%TF.SameCoordinates,Original*%
%TF.FileFunction,Soldermask,Bot*%
%TF.FilePolarity,Negative*%
%FSLAX46Y46*%
G04 Gerber Fmt 4.6, Leading zero omitted, Abs format (unit mm)*
G04 Created by KiCad (PCBNEW 7.0.1) date 2024-10-13 19:11:28*
%MOMM*%
%LPD*%
G01*
G04 APERTURE LIST*
%ADD10R,1.700000X1.700000*%
%ADD11O,1.700000X1.700000*%
G04 APERTURE END LIST*
D10*
%TO.C,J1*%
X137350000Y-28650000D03*
D11*
X134810000Y-28650000D03*
X132270000Y-28650000D03*
X129730000Y-28650000D03*
%TD*%
D10*
%TO.C,J1*%
X167350000Y-28650000D03*
D11*
X164810000Y-28650000D03*
X162270000Y-28650000D03*
X159730000Y-28650000D03*
%TD*%
D10*
%TO.C,J1*%
X137350000Y-73650000D03*
D11*
X134810000Y-73650000D03*
X132270000Y-73650000D03*
X129730000Y-73650000D03*
%TD*%
D10*
%TO.C,J1*%
X167350000Y-88650000D03*
D11*
X164810000Y-88650000D03*
X162270000Y-88650000D03*
X159730000Y-88650000D03*
%TD*%
D10*
%TO.C,J1*%
X122350000Y-28650000D03*
D11*
X119810000Y-28650000D03*
X117270000Y-28650000D03*
X114730000Y-28650000D03*
%TD*%
D10*
%TO.C,J1*%
X152350000Y-73650000D03*
D11*
X149810000Y-73650000D03*
X147270000Y-73650000D03*
X144730000Y-73650000D03*
%TD*%
D10*
%TO.C,J1*%
X167350000Y-73650000D03*
D11*
X164810000Y-73650000D03*
X162270000Y-73650000D03*
X159730000Y-73650000D03*
%TD*%
D10*
%TO.C,J1*%
X122350000Y-88650000D03*
D11*
X119810000Y-88650000D03*
X117270000Y-88650000D03*
X114730000Y-88650000D03*
%TD*%
D10*
%TO.C,J1*%
X182350000Y-28650000D03*
D11*
X179810000Y-28650000D03*
X177270000Y-28650000D03*
X174730000Y-28650000D03*
%TD*%
D10*
%TO.C,J1*%
X182350000Y-43650000D03*
D11*
X179810000Y-43650000D03*
X177270000Y-43650000D03*
X174730000Y-43650000D03*
%TD*%
D10*
%TO.C,J1*%
X152350000Y-58650000D03*
D11*
X149810000Y-58650000D03*
X147270000Y-58650000D03*
X144730000Y-58650000D03*
%TD*%
D10*
%TO.C,J1*%
X182350000Y-73650000D03*
D11*
X179810000Y-73650000D03*
X177270000Y-73650000D03*
X174730000Y-73650000D03*
%TD*%
D10*
%TO.C,J1*%
X167350000Y-43650000D03*
D11*
X164810000Y-43650000D03*
X162270000Y-43650000D03*
X159730000Y-43650000D03*
%TD*%
D10*
%TO.C,J1*%
X122350000Y-43650000D03*
D11*
X119810000Y-43650000D03*
X117270000Y-43650000D03*
X114730000Y-43650000D03*
%TD*%
D10*
%TO.C,J1*%
X122350000Y-58650000D03*
D11*
X119810000Y-58650000D03*
X117270000Y-58650000D03*
X114730000Y-58650000D03*
%TD*%
D10*
%TO.C,J1*%
X167350000Y-58650000D03*
D11*
X164810000Y-58650000D03*
X162270000Y-58650000D03*
X159730000Y-58650000D03*
%TD*%
D10*
%TO.C,J1*%
X152350000Y-28650000D03*
D11*
X149810000Y-28650000D03*
X147270000Y-28650000D03*
X144730000Y-28650000D03*
%TD*%
D10*
%TO.C,J1*%
X152350000Y-88650000D03*
D11*
X149810000Y-88650000D03*
X147270000Y-88650000D03*
X144730000Y-88650000D03*
%TD*%
D10*
%TO.C,J1*%
X137350000Y-58650000D03*
D11*
X134810000Y-58650000D03*
X132270000Y-58650000D03*
X129730000Y-58650000D03*
%TD*%
D10*
%TO.C,J1*%
X152350000Y-43650000D03*
D11*
X149810000Y-43650000D03*
X147270000Y-43650000D03*
X144730000Y-43650000D03*
%TD*%
D10*
%TO.C,J1*%
X182350000Y-58650000D03*
D11*
X179810000Y-58650000D03*
X177270000Y-58650000D03*
X174730000Y-58650000D03*
%TD*%
D10*
%TO.C,J1*%
X137350000Y-43650000D03*
D11*
X134810000Y-43650000D03*
X132270000Y-43650000D03*
X129730000Y-43650000D03*
%TD*%
D10*
%TO.C,J1*%
X122350000Y-73650000D03*
D11*
X119810000Y-73650000D03*
X117270000Y-73650000D03*
X114730000Y-73650000D03*
%TD*%
D10*
%TO.C,J1*%
X137350000Y-88650000D03*
D11*
X134810000Y-88650000D03*
X132270000Y-88650000D03*
X129730000Y-88650000D03*
%TD*%
D10*
%TO.C,J1*%
X182350000Y-88650000D03*
D11*
X179810000Y-88650000D03*
X177270000Y-88650000D03*
X174730000Y-88650000D03*
%TD*%
M02*
