M48
; DRILL file {KiCad 7.0.1} date Sun Oct 13 19:11:30 2024
; FORMAT={-:-/ absolute / inch / decimal}
; #@! TF.CreationDate,2024-10-13T19:11:30-04:00
; #@! TF.GenerationSoftware,Kicad,Pcbnew,7.0.1
; #@! TF.FileFunction,Plated,1,2,PTH
FMAT,2
INCH
; #@! TA.AperFunction,Plated,PTH,ViaDrill
T1C0.0157
; #@! TA.AperFunction,Plated,PTH,ComponentDrill
T2C0.0394
%
G90
G05
T1
X4.5276Y-1.3386
X4.5276Y-1.9291
X4.5276Y-2.5197
X4.5276Y-3.1102
X4.5276Y-3.7008
X4.6645Y-1.3385
X4.6645Y-1.929
X4.6645Y-2.5196
X4.6645Y-3.1101
X4.6645Y-3.7007
X4.6648Y-1.252
X4.6648Y-1.8426
X4.6648Y-2.4331
X4.6648Y-3.0237
X4.6648Y-3.6142
X4.6736Y-1.2937
X4.6736Y-1.8842
X4.6736Y-2.4748
X4.6736Y-3.0653
X4.6736Y-3.6559
X4.7601Y-1.2969
X4.7601Y-1.8874
X4.7601Y-2.478
X4.7601Y-3.0685
X4.7601Y-3.6591
X4.8524Y-1.3455
X4.8524Y-1.936
X4.8524Y-2.5266
X4.8524Y-3.1171
X4.8524Y-3.7077
X4.874Y-1.2205
X4.874Y-1.811
X4.874Y-2.4016
X4.874Y-2.9921
X4.874Y-3.5827
X5.1181Y-1.3386
X5.1181Y-1.9291
X5.1181Y-2.5197
X5.1181Y-3.1102
X5.1181Y-3.7008
X5.255Y-1.3385
X5.255Y-1.929
X5.255Y-2.5196
X5.255Y-3.1101
X5.255Y-3.7007
X5.2554Y-1.252
X5.2554Y-1.8426
X5.2554Y-2.4331
X5.2554Y-3.0237
X5.2554Y-3.6142
X5.2642Y-1.2937
X5.2642Y-1.8842
X5.2642Y-2.4748
X5.2642Y-3.0653
X5.2642Y-3.6559
X5.3506Y-1.2969
X5.3506Y-1.8874
X5.3506Y-2.478
X5.3506Y-3.0685
X5.3506Y-3.6591
X5.4429Y-1.3455
X5.4429Y-1.936
X5.4429Y-2.5266
X5.4429Y-3.1171
X5.4429Y-3.7077
X5.4646Y-1.2205
X5.4646Y-1.811
X5.4646Y-2.4016
X5.4646Y-2.9921
X5.4646Y-3.5827
X5.7087Y-1.3386
X5.7087Y-1.9291
X5.7087Y-2.5197
X5.7087Y-3.1102
X5.7087Y-3.7008
X5.8456Y-1.3385
X5.8456Y-1.929
X5.8456Y-2.5196
X5.8456Y-3.1101
X5.8456Y-3.7007
X5.846Y-1.252
X5.846Y-1.8426
X5.846Y-2.4331
X5.846Y-3.0237
X5.846Y-3.6142
X5.8547Y-1.2937
X5.8547Y-1.8842
X5.8547Y-2.4748
X5.8547Y-3.0653
X5.8547Y-3.6559
X5.9412Y-1.2969
X5.9412Y-1.8874
X5.9412Y-2.478
X5.9412Y-3.0685
X5.9412Y-3.6591
X6.0335Y-1.3455
X6.0335Y-1.936
X6.0335Y-2.5266
X6.0335Y-3.1171
X6.0335Y-3.7077
X6.0551Y-1.2205
X6.0551Y-1.811
X6.0551Y-2.4016
X6.0551Y-2.9921
X6.0551Y-3.5827
X6.2992Y-1.3386
X6.2992Y-1.9291
X6.2992Y-2.5197
X6.2992Y-3.1102
X6.2992Y-3.7008
X6.4361Y-1.3385
X6.4361Y-1.929
X6.4361Y-2.5196
X6.4361Y-3.1101
X6.4361Y-3.7007
X6.4365Y-1.252
X6.4365Y-1.8426
X6.4365Y-2.4331
X6.4365Y-3.0237
X6.4365Y-3.6142
X6.4453Y-1.2937
X6.4453Y-1.8842
X6.4453Y-2.4748
X6.4453Y-3.0653
X6.4453Y-3.6559
X6.5317Y-1.2969
X6.5317Y-1.8874
X6.5317Y-2.478
X6.5317Y-3.0685
X6.5317Y-3.6591
X6.624Y-1.3455
X6.624Y-1.936
X6.624Y-2.5266
X6.624Y-3.1171
X6.624Y-3.7077
X6.6457Y-1.2205
X6.6457Y-1.811
X6.6457Y-2.4016
X6.6457Y-2.9921
X6.6457Y-3.5827
X6.8898Y-1.3386
X6.8898Y-1.9291
X6.8898Y-2.5197
X6.8898Y-3.1102
X6.8898Y-3.7008
X7.0267Y-1.3385
X7.0267Y-1.929
X7.0267Y-2.5196
X7.0267Y-3.1101
X7.0267Y-3.7007
X7.0271Y-1.252
X7.0271Y-1.8426
X7.0271Y-2.4331
X7.0271Y-3.0237
X7.0271Y-3.6142
X7.0358Y-1.2937
X7.0358Y-1.8842
X7.0358Y-2.4748
X7.0358Y-3.0653
X7.0358Y-3.6559
X7.1223Y-1.2969
X7.1223Y-1.8874
X7.1223Y-2.478
X7.1223Y-3.0685
X7.1223Y-3.6591
X7.2146Y-1.3455
X7.2146Y-1.936
X7.2146Y-2.5266
X7.2146Y-3.1171
X7.2146Y-3.7077
X7.2362Y-1.2205
X7.2362Y-1.811
X7.2362Y-2.4016
X7.2362Y-2.9921
X7.2362Y-3.5827
T2
X4.5169Y-1.128
X4.5169Y-1.7185
X4.5169Y-2.3091
X4.5169Y-2.8996
X4.5169Y-3.4902
X4.6169Y-1.128
X4.6169Y-1.7185
X4.6169Y-2.3091
X4.6169Y-2.8996
X4.6169Y-3.4902
X4.7169Y-1.128
X4.7169Y-1.7185
X4.7169Y-2.3091
X4.7169Y-2.8996
X4.7169Y-3.4902
X4.8169Y-1.128
X4.8169Y-1.7185
X4.8169Y-2.3091
X4.8169Y-2.8996
X4.8169Y-3.4902
X5.1075Y-1.128
X5.1075Y-1.7185
X5.1075Y-2.3091
X5.1075Y-2.8996
X5.1075Y-3.4902
X5.2075Y-1.128
X5.2075Y-1.7185
X5.2075Y-2.3091
X5.2075Y-2.8996
X5.2075Y-3.4902
X5.3075Y-1.128
X5.3075Y-1.7185
X5.3075Y-2.3091
X5.3075Y-2.8996
X5.3075Y-3.4902
X5.4075Y-1.128
X5.4075Y-1.7185
X5.4075Y-2.3091
X5.4075Y-2.8996
X5.4075Y-3.4902
X5.698Y-1.128
X5.698Y-1.7185
X5.698Y-2.3091
X5.698Y-2.8996
X5.698Y-3.4902
X5.798Y-1.128
X5.798Y-1.7185
X5.798Y-2.3091
X5.798Y-2.8996
X5.798Y-3.4902
X5.898Y-1.128
X5.898Y-1.7185
X5.898Y-2.3091
X5.898Y-2.8996
X5.898Y-3.4902
X5.998Y-1.128
X5.998Y-1.7185
X5.998Y-2.3091
X5.998Y-2.8996
X5.998Y-3.4902
X6.2886Y-1.128
X6.2886Y-1.7185
X6.2886Y-2.3091
X6.2886Y-2.8996
X6.2886Y-3.4902
X6.3886Y-1.128
X6.3886Y-1.7185
X6.3886Y-2.3091
X6.3886Y-2.8996
X6.3886Y-3.4902
X6.4886Y-1.128
X6.4886Y-1.7185
X6.4886Y-2.3091
X6.4886Y-2.8996
X6.4886Y-3.4902
X6.5886Y-1.128
X6.5886Y-1.7185
X6.5886Y-2.3091
X6.5886Y-2.8996
X6.5886Y-3.4902
X6.8791Y-1.128
X6.8791Y-1.7185
X6.8791Y-2.3091
X6.8791Y-2.8996
X6.8791Y-3.4902
X6.9791Y-1.128
X6.9791Y-1.7185
X6.9791Y-2.3091
X6.9791Y-2.8996
X6.9791Y-3.4902
X7.0791Y-1.128
X7.0791Y-1.7185
X7.0791Y-2.3091
X7.0791Y-2.8996
X7.0791Y-3.4902
X7.1791Y-1.128
X7.1791Y-1.7185
X7.1791Y-2.3091
X7.1791Y-2.8996
X7.1791Y-3.4902
T0
M30
