%TF.GenerationSoftware,KiCad,Pcbnew,7.0.1*%
%TF.CreationDate,2024-10-12T00:25:36-04:00*%
%TF.ProjectId,Combined_Stencil,436f6d62-696e-4656-945f-5374656e6369,rev?*%
%TF.SameCoordinates,Original*%
%TF.FileFunction,Copper,L1,Top*%
%TF.FilePolarity,Positive*%
%FSLAX46Y46*%
G04 Gerber Fmt 4.6, Leading zero omitted, Abs format (unit mm)*
G04 Created by KiCad (PCBNEW 7.0.1) date 2024-10-12 00:25:36*
%MOMM*%
%LPD*%
G01*
G04 APERTURE LIST*
G04 Aperture macros list*
%AMRoundRect*
0 Rectangle with rounded corners*
0 $1 Rounding radius*
0 $2 $3 $4 $5 $6 $7 $8 $9 X,Y pos of 4 corners*
0 Add a 4 corners polygon primitive as box body*
4,1,4,$2,$3,$4,$5,$6,$7,$8,$9,$2,$3,0*
0 Add four circle primitives for the rounded corners*
1,1,$1+$1,$2,$3*
1,1,$1+$1,$4,$5*
1,1,$1+$1,$6,$7*
1,1,$1+$1,$8,$9*
0 Add four rect primitives between the rounded corners*
20,1,$1+$1,$2,$3,$4,$5,0*
20,1,$1+$1,$4,$5,$6,$7,0*
20,1,$1+$1,$6,$7,$8,$9,0*
20,1,$1+$1,$8,$9,$2,$3,0*%
G04 Aperture macros list end*
%TA.AperFunction,SMDPad,CuDef*%
%ADD10RoundRect,0.140000X-0.140000X-0.170000X0.140000X-0.170000X0.140000X0.170000X-0.140000X0.170000X0*%
%TD*%
%TA.AperFunction,SMDPad,CuDef*%
%ADD11RoundRect,0.140000X0.140000X0.170000X-0.140000X0.170000X-0.140000X-0.170000X0.140000X-0.170000X0*%
%TD*%
%TA.AperFunction,SMDPad,CuDef*%
%ADD12RoundRect,0.150000X0.150000X-0.512500X0.150000X0.512500X-0.150000X0.512500X-0.150000X-0.512500X0*%
%TD*%
%TA.AperFunction,SMDPad,CuDef*%
%ADD13RoundRect,0.100000X0.637500X0.100000X-0.637500X0.100000X-0.637500X-0.100000X0.637500X-0.100000X0*%
%TD*%
%TA.AperFunction,SMDPad,CuDef*%
%ADD14RoundRect,0.135000X-0.185000X0.135000X-0.185000X-0.135000X0.185000X-0.135000X0.185000X0.135000X0*%
%TD*%
%TA.AperFunction,SMDPad,CuDef*%
%ADD15RoundRect,0.125000X-0.604273X0.645061X0.399485X-0.788455X0.604273X-0.645061X-0.399485X0.788455X0*%
%TD*%
%TA.AperFunction,SMDPad,CuDef*%
%ADD16RoundRect,0.150000X-0.150000X0.512500X-0.150000X-0.512500X0.150000X-0.512500X0.150000X0.512500X0*%
%TD*%
%TA.AperFunction,SMDPad,CuDef*%
%ADD17RoundRect,0.135000X0.185000X-0.135000X0.185000X0.135000X-0.185000X0.135000X-0.185000X-0.135000X0*%
%TD*%
%TA.AperFunction,SMDPad,CuDef*%
%ADD18RoundRect,0.100000X-0.637500X-0.100000X0.637500X-0.100000X0.637500X0.100000X-0.637500X0.100000X0*%
%TD*%
%TA.AperFunction,SMDPad,CuDef*%
%ADD19RoundRect,0.140000X-0.170000X0.140000X-0.170000X-0.140000X0.170000X-0.140000X0.170000X0.140000X0*%
%TD*%
%TA.AperFunction,SMDPad,CuDef*%
%ADD20RoundRect,0.135000X-0.135000X-0.185000X0.135000X-0.185000X0.135000X0.185000X-0.135000X0.185000X0*%
%TD*%
%TA.AperFunction,SMDPad,CuDef*%
%ADD21RoundRect,0.140000X0.170000X-0.140000X0.170000X0.140000X-0.170000X0.140000X-0.170000X-0.140000X0*%
%TD*%
%TA.AperFunction,SMDPad,CuDef*%
%ADD22RoundRect,0.218750X0.218750X0.256250X-0.218750X0.256250X-0.218750X-0.256250X0.218750X-0.256250X0*%
%TD*%
%TA.AperFunction,SMDPad,CuDef*%
%ADD23RoundRect,0.250000X-0.625000X0.312500X-0.625000X-0.312500X0.625000X-0.312500X0.625000X0.312500X0*%
%TD*%
%TA.AperFunction,SMDPad,CuDef*%
%ADD24RoundRect,0.135000X0.135000X0.185000X-0.135000X0.185000X-0.135000X-0.185000X0.135000X-0.185000X0*%
%TD*%
%TA.AperFunction,SMDPad,CuDef*%
%ADD25R,0.400000X0.650000*%
%TD*%
%TA.AperFunction,SMDPad,CuDef*%
%ADD26R,0.650000X0.400000*%
%TD*%
%TA.AperFunction,SMDPad,CuDef*%
%ADD27RoundRect,0.247222X-0.642778X-0.832778X0.642778X-0.832778X0.642778X0.832778X-0.642778X0.832778X0*%
%TD*%
G04 APERTURE END LIST*
D10*
%TO.P,C3,1*%
%TO.N,N/C*%
X129490000Y-20837500D03*
%TO.P,C3,2*%
X130450000Y-20837500D03*
%TD*%
D11*
%TO.P,C8,1*%
%TO.N,N/C*%
X155990000Y-51837500D03*
%TO.P,C8,2*%
X155030000Y-51837500D03*
%TD*%
D12*
%TO.P,Q30,1,G*%
%TO.N,N/C*%
X151790000Y-38725000D03*
%TO.P,Q30,2,S*%
X152740000Y-38725000D03*
%TO.P,Q30,3,G*%
X153690000Y-38725000D03*
%TO.P,Q30,4,D*%
X153690000Y-36450000D03*
%TO.P,Q30,5,S*%
X152740000Y-36450000D03*
%TO.P,Q30,6,D*%
X151790000Y-36450000D03*
%TD*%
D13*
%TO.P,U9,1,A4*%
%TO.N,N/C*%
X137602500Y-49362500D03*
%TO.P,U9,2,A6*%
X137602500Y-48712500D03*
%TO.P,U9,3,A*%
X137602500Y-48062500D03*
%TO.P,U9,4,A7*%
X137602500Y-47412500D03*
%TO.P,U9,5,A5*%
X137602500Y-46762500D03*
%TO.P,U9,6,~{E}*%
X137602500Y-46112500D03*
%TO.P,U9,7,VEE*%
X137602500Y-45462500D03*
%TO.P,U9,8,GND*%
X137602500Y-44812500D03*
%TO.P,U9,9,S2*%
X131877500Y-44812500D03*
%TO.P,U9,10,S1*%
X131877500Y-45462500D03*
%TO.P,U9,11,S0*%
X131877500Y-46112500D03*
%TO.P,U9,12,A3*%
X131877500Y-46762500D03*
%TO.P,U9,13,A0*%
X131877500Y-47412500D03*
%TO.P,U9,14,A1*%
X131877500Y-48062500D03*
%TO.P,U9,15,A2*%
X131877500Y-48712500D03*
%TO.P,U9,16,VCC*%
X131877500Y-49362500D03*
%TD*%
D14*
%TO.P,R10,1*%
%TO.N,N/C*%
X103740000Y-22577500D03*
%TO.P,R10,2*%
X103740000Y-23597500D03*
%TD*%
D15*
%TO.P,L5,1,1*%
%TO.N,N/C*%
X29420000Y-73820000D03*
%TO.P,L5,2,2*%
X25242222Y-76012846D03*
%TD*%
D16*
%TO.P,Q5,1,G*%
%TO.N,N/C*%
X105690000Y-26950000D03*
%TO.P,Q5,2,S*%
X104740000Y-26950000D03*
%TO.P,Q5,3,G*%
X103790000Y-26950000D03*
%TO.P,Q5,4,D*%
X103790000Y-29225000D03*
%TO.P,Q5,5,S*%
X104740000Y-29225000D03*
%TO.P,Q5,6,D*%
X105690000Y-29225000D03*
%TD*%
D17*
%TO.P,R28,1*%
%TO.N,N/C*%
X121740000Y-43097500D03*
%TO.P,R28,2*%
X121740000Y-42077500D03*
%TD*%
D16*
%TO.P,Q29,1,G*%
%TO.N,N/C*%
X153690000Y-26950000D03*
%TO.P,Q29,2,S*%
X152740000Y-26950000D03*
%TO.P,Q29,3,G*%
X151790000Y-26950000D03*
%TO.P,Q29,4,D*%
X151790000Y-29225000D03*
%TO.P,Q29,5,S*%
X152740000Y-29225000D03*
%TO.P,Q29,6,D*%
X153690000Y-29225000D03*
%TD*%
D18*
%TO.P,U13,1,A4*%
%TO.N,N/C*%
X147877500Y-51812500D03*
%TO.P,U13,2,A6*%
X147877500Y-52462500D03*
%TO.P,U13,3,A*%
X147877500Y-53112500D03*
%TO.P,U13,4,A7*%
X147877500Y-53762500D03*
%TO.P,U13,5,A5*%
X147877500Y-54412500D03*
%TO.P,U13,6,~{E}*%
X147877500Y-55062500D03*
%TO.P,U13,7,VEE*%
X147877500Y-55712500D03*
%TO.P,U13,8,GND*%
X147877500Y-56362500D03*
%TO.P,U13,9,S2*%
X153602500Y-56362500D03*
%TO.P,U13,10,S1*%
X153602500Y-55712500D03*
%TO.P,U13,11,S0*%
X153602500Y-55062500D03*
%TO.P,U13,12,A3*%
X153602500Y-54412500D03*
%TO.P,U13,13,A0*%
X153602500Y-53762500D03*
%TO.P,U13,14,A1*%
X153602500Y-53112500D03*
%TO.P,U13,15,A2*%
X153602500Y-52462500D03*
%TO.P,U13,16,VCC*%
X153602500Y-51812500D03*
%TD*%
D14*
%TO.P,R5,1*%
%TO.N,N/C*%
X95740000Y-42077500D03*
%TO.P,R5,2*%
X95740000Y-43097500D03*
%TD*%
D17*
%TO.P,R12,1*%
%TO.N,N/C*%
X105710000Y-43097500D03*
%TO.P,R12,2*%
X105710000Y-42077500D03*
%TD*%
D18*
%TO.P,U5,1,A0*%
%TO.N,N/C*%
X27707500Y-27865000D03*
%TO.P,U5,2,A1*%
X27707500Y-28515000D03*
%TO.P,U5,3,~{RESET}*%
X27707500Y-29165000D03*
%TO.P,U5,4,SD0*%
X27707500Y-29815000D03*
%TO.P,U5,5,SC0*%
X27707500Y-30465000D03*
%TO.P,U5,6,SD1*%
X27707500Y-31115000D03*
%TO.P,U5,7,SC1*%
X27707500Y-31765000D03*
%TO.P,U5,8,SD2*%
X27707500Y-32415000D03*
%TO.P,U5,9,SC2*%
X27707500Y-33065000D03*
%TO.P,U5,10,SD3*%
X27707500Y-33715000D03*
%TO.P,U5,11,SC3*%
X27707500Y-34365000D03*
%TO.P,U5,12,GND*%
X27707500Y-35015000D03*
%TO.P,U5,13,SD4*%
X33432500Y-35015000D03*
%TO.P,U5,14,SC4*%
X33432500Y-34365000D03*
%TO.P,U5,15,SD5*%
X33432500Y-33715000D03*
%TO.P,U5,16,SC5*%
X33432500Y-33065000D03*
%TO.P,U5,17,SD6*%
X33432500Y-32415000D03*
%TO.P,U5,18,SC6*%
X33432500Y-31765000D03*
%TO.P,U5,19,SD7*%
X33432500Y-31115000D03*
%TO.P,U5,20,SC7*%
X33432500Y-30465000D03*
%TO.P,U5,21,A2*%
X33432500Y-29815000D03*
%TO.P,U5,22,SCL*%
X33432500Y-29165000D03*
%TO.P,U5,23,SDA*%
X33432500Y-28515000D03*
%TO.P,U5,24,VCC*%
X33432500Y-27865000D03*
%TD*%
D11*
%TO.P,C9,1*%
%TO.N,N/C*%
X123990000Y-51837500D03*
%TO.P,C9,2*%
X123030000Y-51837500D03*
%TD*%
D14*
%TO.P,R22,1*%
%TO.N,N/C*%
X115740000Y-22577500D03*
%TO.P,R22,2*%
X115740000Y-23597500D03*
%TD*%
D19*
%TO.P,C1,1*%
%TO.N,N/C*%
X20920000Y-15460000D03*
%TO.P,C1,2*%
X20920000Y-16420000D03*
%TD*%
D15*
%TO.P,L4,1,1*%
%TO.N,N/C*%
X24420000Y-70820000D03*
%TO.P,L4,2,2*%
X20242222Y-73012846D03*
%TD*%
D19*
%TO.P,C4,1*%
%TO.N,N/C*%
X32670000Y-25810000D03*
%TO.P,C4,2*%
X32670000Y-26770000D03*
%TD*%
D14*
%TO.P,R53,1*%
%TO.N,N/C*%
X143740000Y-42067500D03*
%TO.P,R53,2*%
X143740000Y-43087500D03*
%TD*%
D12*
%TO.P,Q14,1,G*%
%TO.N,N/C*%
X119790000Y-38725000D03*
%TO.P,Q14,2,S*%
X120740000Y-38725000D03*
%TO.P,Q14,3,G*%
X121690000Y-38725000D03*
%TO.P,Q14,4,D*%
X121690000Y-36450000D03*
%TO.P,Q14,5,S*%
X120740000Y-36450000D03*
%TO.P,Q14,6,D*%
X119790000Y-36450000D03*
%TD*%
D20*
%TO.P,R3,1*%
%TO.N,N/C*%
X67472500Y-41440000D03*
%TO.P,R3,2*%
X68492500Y-41440000D03*
%TD*%
D13*
%TO.P,U10,1,A4*%
%TO.N,N/C*%
X153602500Y-49362500D03*
%TO.P,U10,2,A6*%
X153602500Y-48712500D03*
%TO.P,U10,3,A*%
X153602500Y-48062500D03*
%TO.P,U10,4,A7*%
X153602500Y-47412500D03*
%TO.P,U10,5,A5*%
X153602500Y-46762500D03*
%TO.P,U10,6,~{E}*%
X153602500Y-46112500D03*
%TO.P,U10,7,VEE*%
X153602500Y-45462500D03*
%TO.P,U10,8,GND*%
X153602500Y-44812500D03*
%TO.P,U10,9,S2*%
X147877500Y-44812500D03*
%TO.P,U10,10,S1*%
X147877500Y-45462500D03*
%TO.P,U10,11,S0*%
X147877500Y-46112500D03*
%TO.P,U10,12,A3*%
X147877500Y-46762500D03*
%TO.P,U10,13,A0*%
X147877500Y-47412500D03*
%TO.P,U10,14,A1*%
X147877500Y-48062500D03*
%TO.P,U10,15,A2*%
X147877500Y-48712500D03*
%TO.P,U10,16,VCC*%
X147877500Y-49362500D03*
%TD*%
D17*
%TO.P,R55,1*%
%TO.N,N/C*%
X149740000Y-23597500D03*
%TO.P,R55,2*%
X149740000Y-22577500D03*
%TD*%
D10*
%TO.P,C5,1*%
%TO.N,N/C*%
X113490000Y-49337500D03*
%TO.P,C5,2*%
X114450000Y-49337500D03*
%TD*%
D14*
%TO.P,R26,1*%
%TO.N,N/C*%
X119740000Y-22577500D03*
%TO.P,R26,2*%
X119740000Y-23597500D03*
%TD*%
%TO.P,R62,1*%
%TO.N,N/C*%
X155740000Y-22577500D03*
%TO.P,R62,2*%
X155740000Y-23597500D03*
%TD*%
%TO.P,R25,1*%
%TO.N,N/C*%
X115740000Y-42077500D03*
%TO.P,R25,2*%
X115740000Y-43097500D03*
%TD*%
D20*
%TO.P,R67,1*%
%TO.N,N/C*%
X107030000Y-53787500D03*
%TO.P,R67,2*%
X108050000Y-53787500D03*
%TD*%
D13*
%TO.P,U8,1,A4*%
%TO.N,N/C*%
X153602500Y-20862500D03*
%TO.P,U8,2,A6*%
X153602500Y-20212500D03*
%TO.P,U8,3,A*%
X153602500Y-19562500D03*
%TO.P,U8,4,A7*%
X153602500Y-18912500D03*
%TO.P,U8,5,A5*%
X153602500Y-18262500D03*
%TO.P,U8,6,~{E}*%
X153602500Y-17612500D03*
%TO.P,U8,7,VEE*%
X153602500Y-16962500D03*
%TO.P,U8,8,GND*%
X153602500Y-16312500D03*
%TO.P,U8,9,S2*%
X147877500Y-16312500D03*
%TO.P,U8,10,S1*%
X147877500Y-16962500D03*
%TO.P,U8,11,S0*%
X147877500Y-17612500D03*
%TO.P,U8,12,A3*%
X147877500Y-18262500D03*
%TO.P,U8,13,A0*%
X147877500Y-18912500D03*
%TO.P,U8,14,A1*%
X147877500Y-19562500D03*
%TO.P,U8,15,A2*%
X147877500Y-20212500D03*
%TO.P,U8,16,VCC*%
X147877500Y-20862500D03*
%TD*%
D21*
%TO.P,C17,1*%
%TO.N,N/C*%
X126140000Y-48847500D03*
%TO.P,C17,2*%
X126140000Y-47887500D03*
%TD*%
D14*
%TO.P,R37,1*%
%TO.N,N/C*%
X127740000Y-42077500D03*
%TO.P,R37,2*%
X127740000Y-43097500D03*
%TD*%
D17*
%TO.P,R16,1*%
%TO.N,N/C*%
X109740000Y-43097500D03*
%TO.P,R16,2*%
X109740000Y-42077500D03*
%TD*%
D12*
%TO.P,Q6,1,G*%
%TO.N,N/C*%
X103790000Y-38725000D03*
%TO.P,Q6,2,S*%
X104740000Y-38725000D03*
%TO.P,Q6,3,G*%
X105690000Y-38725000D03*
%TO.P,Q6,4,D*%
X105690000Y-36450000D03*
%TO.P,Q6,5,S*%
X104740000Y-36450000D03*
%TO.P,Q6,6,D*%
X103790000Y-36450000D03*
%TD*%
D13*
%TO.P,U7,1,A4*%
%TO.N,N/C*%
X137602500Y-20862500D03*
%TO.P,U7,2,A6*%
X137602500Y-20212500D03*
%TO.P,U7,3,A*%
X137602500Y-19562500D03*
%TO.P,U7,4,A7*%
X137602500Y-18912500D03*
%TO.P,U7,5,A5*%
X137602500Y-18262500D03*
%TO.P,U7,6,~{E}*%
X137602500Y-17612500D03*
%TO.P,U7,7,VEE*%
X137602500Y-16962500D03*
%TO.P,U7,8,GND*%
X137602500Y-16312500D03*
%TO.P,U7,9,S2*%
X131877500Y-16312500D03*
%TO.P,U7,10,S1*%
X131877500Y-16962500D03*
%TO.P,U7,11,S0*%
X131877500Y-17612500D03*
%TO.P,U7,12,A3*%
X131877500Y-18262500D03*
%TO.P,U7,13,A0*%
X131877500Y-18912500D03*
%TO.P,U7,14,A1*%
X131877500Y-19562500D03*
%TO.P,U7,15,A2*%
X131877500Y-20212500D03*
%TO.P,U7,16,VCC*%
X131877500Y-20862500D03*
%TD*%
D15*
%TO.P,L11,1,1*%
%TO.N,N/C*%
X29420000Y-85820000D03*
%TO.P,L11,2,2*%
X25242222Y-88012846D03*
%TD*%
D12*
%TO.P,Q2,1,G*%
%TO.N,N/C*%
X95790000Y-38725000D03*
%TO.P,Q2,2,S*%
X96740000Y-38725000D03*
%TO.P,Q2,3,G*%
X97690000Y-38725000D03*
%TO.P,Q2,4,D*%
X97690000Y-36450000D03*
%TO.P,Q2,5,S*%
X96740000Y-36450000D03*
%TO.P,Q2,6,D*%
X95790000Y-36450000D03*
%TD*%
D14*
%TO.P,R34,1*%
%TO.N,N/C*%
X127740000Y-22577500D03*
%TO.P,R34,2*%
X127740000Y-23597500D03*
%TD*%
D15*
%TO.P,L8,1,1*%
%TO.N,N/C*%
X29420000Y-79820000D03*
%TO.P,L8,2,2*%
X25242222Y-82012846D03*
%TD*%
D14*
%TO.P,R46,1*%
%TO.N,N/C*%
X139740000Y-22577500D03*
%TO.P,R46,2*%
X139740000Y-23597500D03*
%TD*%
%TO.P,R17,1*%
%TO.N,N/C*%
X107740000Y-42077500D03*
%TO.P,R17,2*%
X107740000Y-43097500D03*
%TD*%
D20*
%TO.P,R68,1*%
%TO.N,N/C*%
X110130000Y-53787500D03*
%TO.P,R68,2*%
X111150000Y-53787500D03*
%TD*%
D14*
%TO.P,R6,1*%
%TO.N,N/C*%
X99740000Y-22577500D03*
%TO.P,R6,2*%
X99740000Y-23597500D03*
%TD*%
D17*
%TO.P,R31,1*%
%TO.N,N/C*%
X125740000Y-23597500D03*
%TO.P,R31,2*%
X125740000Y-22577500D03*
%TD*%
D15*
%TO.P,L12,1,1*%
%TO.N,N/C*%
X24420000Y-64820000D03*
%TO.P,L12,2,2*%
X20242222Y-67012846D03*
%TD*%
D16*
%TO.P,Q11,1,G*%
%TO.N,N/C*%
X117690000Y-26950000D03*
%TO.P,Q11,2,S*%
X116740000Y-26950000D03*
%TO.P,Q11,3,G*%
X115790000Y-26950000D03*
%TO.P,Q11,4,D*%
X115790000Y-29225000D03*
%TO.P,Q11,5,S*%
X116740000Y-29225000D03*
%TO.P,Q11,6,D*%
X117690000Y-29225000D03*
%TD*%
D14*
%TO.P,R54,1*%
%TO.N,N/C*%
X147740000Y-22577500D03*
%TO.P,R54,2*%
X147740000Y-23597500D03*
%TD*%
%TO.P,R41,1*%
%TO.N,N/C*%
X131740000Y-42077500D03*
%TO.P,R41,2*%
X131740000Y-43097500D03*
%TD*%
D11*
%TO.P,C3,1*%
%TO.N,N/C*%
X57950000Y-29690000D03*
%TO.P,C3,2*%
X56990000Y-29690000D03*
%TD*%
D17*
%TO.P,R35,1*%
%TO.N,N/C*%
X129740000Y-23597500D03*
%TO.P,R35,2*%
X129740000Y-22577500D03*
%TD*%
%TO.P,R20,1*%
%TO.N,N/C*%
X113740000Y-43097500D03*
%TO.P,R20,2*%
X113740000Y-42077500D03*
%TD*%
%TO.P,R15,1*%
%TO.N,N/C*%
X109740000Y-23597500D03*
%TO.P,R15,2*%
X109740000Y-22577500D03*
%TD*%
D22*
%TO.P,D1,1,K*%
%TO.N,N/C*%
X65820000Y-41440000D03*
%TO.P,D1,2,A*%
X64245000Y-41440000D03*
%TD*%
D14*
%TO.P,R18,1*%
%TO.N,N/C*%
X111740000Y-22577500D03*
%TO.P,R18,2*%
X111740000Y-23597500D03*
%TD*%
%TO.P,R45,1*%
%TO.N,N/C*%
X135740000Y-42067500D03*
%TO.P,R45,2*%
X135740000Y-43087500D03*
%TD*%
D16*
%TO.P,Q25,1,G*%
%TO.N,N/C*%
X145690000Y-26950000D03*
%TO.P,Q25,2,S*%
X144740000Y-26950000D03*
%TO.P,Q25,3,G*%
X143790000Y-26950000D03*
%TO.P,Q25,4,D*%
X143790000Y-29225000D03*
%TO.P,Q25,5,S*%
X144740000Y-29225000D03*
%TO.P,Q25,6,D*%
X145690000Y-29225000D03*
%TD*%
D17*
%TO.P,R19,1*%
%TO.N,N/C*%
X113740000Y-23597500D03*
%TO.P,R19,2*%
X113740000Y-22577500D03*
%TD*%
D15*
%TO.P,L1,1,1*%
%TO.N,N/C*%
X19420000Y-67820000D03*
%TO.P,L1,2,2*%
X15242222Y-70012846D03*
%TD*%
D12*
%TO.P,Q16,1,G*%
%TO.N,N/C*%
X123790000Y-38725000D03*
%TO.P,Q16,2,S*%
X124740000Y-38725000D03*
%TO.P,Q16,3,G*%
X125690000Y-38725000D03*
%TO.P,Q16,4,D*%
X125690000Y-36450000D03*
%TO.P,Q16,5,S*%
X124740000Y-36450000D03*
%TO.P,Q16,6,D*%
X123790000Y-36450000D03*
%TD*%
D10*
%TO.P,C1,1*%
%TO.N,N/C*%
X97460000Y-20987500D03*
%TO.P,C1,2*%
X98420000Y-20987500D03*
%TD*%
D16*
%TO.P,Q13,1,G*%
%TO.N,N/C*%
X121690000Y-26950000D03*
%TO.P,Q13,2,S*%
X120740000Y-26950000D03*
%TO.P,Q13,3,G*%
X119790000Y-26950000D03*
%TO.P,Q13,4,D*%
X119790000Y-29225000D03*
%TO.P,Q13,5,S*%
X120740000Y-29225000D03*
%TO.P,Q13,6,D*%
X121690000Y-29225000D03*
%TD*%
D14*
%TO.P,R29,1*%
%TO.N,N/C*%
X119740000Y-42077500D03*
%TO.P,R29,2*%
X119740000Y-43097500D03*
%TD*%
D13*
%TO.P,U4,1,A4*%
%TO.N,N/C*%
X105602500Y-49362500D03*
%TO.P,U4,2,A6*%
X105602500Y-48712500D03*
%TO.P,U4,3,A*%
X105602500Y-48062500D03*
%TO.P,U4,4,A7*%
X105602500Y-47412500D03*
%TO.P,U4,5,A5*%
X105602500Y-46762500D03*
%TO.P,U4,6,~{E}*%
X105602500Y-46112500D03*
%TO.P,U4,7,VEE*%
X105602500Y-45462500D03*
%TO.P,U4,8,GND*%
X105602500Y-44812500D03*
%TO.P,U4,9,S2*%
X99877500Y-44812500D03*
%TO.P,U4,10,S1*%
X99877500Y-45462500D03*
%TO.P,U4,11,S0*%
X99877500Y-46112500D03*
%TO.P,U4,12,A3*%
X99877500Y-46762500D03*
%TO.P,U4,13,A0*%
X99877500Y-47412500D03*
%TO.P,U4,14,A1*%
X99877500Y-48062500D03*
%TO.P,U4,15,A2*%
X99877500Y-48712500D03*
%TO.P,U4,16,VCC*%
X99877500Y-49362500D03*
%TD*%
D12*
%TO.P,Q28,1,G*%
%TO.N,N/C*%
X147790000Y-38725000D03*
%TO.P,Q28,2,S*%
X148740000Y-38725000D03*
%TO.P,Q28,3,G*%
X149690000Y-38725000D03*
%TO.P,Q28,4,D*%
X149690000Y-36450000D03*
%TO.P,Q28,5,S*%
X148740000Y-36450000D03*
%TO.P,Q28,6,D*%
X147790000Y-36450000D03*
%TD*%
D11*
%TO.P,C5,1*%
%TO.N,N/C*%
X41750000Y-36090000D03*
%TO.P,C5,2*%
X40790000Y-36090000D03*
%TD*%
D20*
%TO.P,R5,1*%
%TO.N,N/C*%
X67472500Y-46640000D03*
%TO.P,R5,2*%
X68492500Y-46640000D03*
%TD*%
D14*
%TO.P,R42,1*%
%TO.N,N/C*%
X135740000Y-22577500D03*
%TO.P,R42,2*%
X135740000Y-23597500D03*
%TD*%
D20*
%TO.P,R99,1*%
%TO.N,N/C*%
X157730000Y-63087500D03*
%TO.P,R99,2*%
X158750000Y-63087500D03*
%TD*%
D17*
%TO.P,R39,1*%
%TO.N,N/C*%
X133740000Y-23597500D03*
%TO.P,R39,2*%
X133740000Y-22577500D03*
%TD*%
D20*
%TO.P,R69,1*%
%TO.N,N/C*%
X110130000Y-51787500D03*
%TO.P,R69,2*%
X111150000Y-51787500D03*
%TD*%
D23*
%TO.P,R1,1*%
%TO.N,N/C*%
X128240000Y-45375000D03*
%TO.P,R1,2*%
X128240000Y-48300000D03*
%TD*%
D11*
%TO.P,C12,1*%
%TO.N,N/C*%
X107990000Y-51837500D03*
%TO.P,C12,2*%
X107030000Y-51837500D03*
%TD*%
D22*
%TO.P,D3,1,K*%
%TO.N,N/C*%
X65820000Y-46620000D03*
%TO.P,D3,2,A*%
X64245000Y-46620000D03*
%TD*%
D12*
%TO.P,Q4,1,G*%
%TO.N,N/C*%
X99790000Y-38725000D03*
%TO.P,Q4,2,S*%
X100740000Y-38725000D03*
%TO.P,Q4,3,G*%
X101690000Y-38725000D03*
%TO.P,Q4,4,D*%
X101690000Y-36450000D03*
%TO.P,Q4,5,S*%
X100740000Y-36450000D03*
%TO.P,Q4,6,D*%
X99790000Y-36450000D03*
%TD*%
D17*
%TO.P,R24,1*%
%TO.N,N/C*%
X117740000Y-43097500D03*
%TO.P,R24,2*%
X117740000Y-42077500D03*
%TD*%
D14*
%TO.P,R14,1*%
%TO.N,N/C*%
X107740000Y-22577500D03*
%TO.P,R14,2*%
X107740000Y-23597500D03*
%TD*%
D22*
%TO.P,D1,1,K*%
%TO.N,N/C*%
X156527500Y-60087500D03*
%TO.P,D1,2,A*%
X154952500Y-60087500D03*
%TD*%
D17*
%TO.P,R59,1*%
%TO.N,N/C*%
X153740000Y-23587500D03*
%TO.P,R59,2*%
X153740000Y-22567500D03*
%TD*%
D16*
%TO.P,Q27,1,G*%
%TO.N,N/C*%
X149690000Y-26950000D03*
%TO.P,Q27,2,S*%
X148740000Y-26950000D03*
%TO.P,Q27,3,G*%
X147790000Y-26950000D03*
%TO.P,Q27,4,D*%
X147790000Y-29225000D03*
%TO.P,Q27,5,S*%
X148740000Y-29225000D03*
%TO.P,Q27,6,D*%
X149690000Y-29225000D03*
%TD*%
D18*
%TO.P,U6,1,QB*%
%TO.N,N/C*%
X115877500Y-51812500D03*
%TO.P,U6,2,QC*%
X115877500Y-52462500D03*
%TO.P,U6,3,QD*%
X115877500Y-53112500D03*
%TO.P,U6,4,QE*%
X115877500Y-53762500D03*
%TO.P,U6,5,QF*%
X115877500Y-54412500D03*
%TO.P,U6,6,QG*%
X115877500Y-55062500D03*
%TO.P,U6,7,QH*%
X115877500Y-55712500D03*
%TO.P,U6,8,GND*%
X115877500Y-56362500D03*
%TO.P,U6,9,QH'*%
X121602500Y-56362500D03*
%TO.P,U6,10,~{SRCLR}*%
X121602500Y-55712500D03*
%TO.P,U6,11,SRCLK*%
X121602500Y-55062500D03*
%TO.P,U6,12,RCLK*%
X121602500Y-54412500D03*
%TO.P,U6,13,~{OE}*%
X121602500Y-53762500D03*
%TO.P,U6,14,SER*%
X121602500Y-53112500D03*
%TO.P,U6,15,QA*%
X121602500Y-52462500D03*
%TO.P,U6,16,VCC*%
X121602500Y-51812500D03*
%TD*%
D15*
%TO.P,L7,1,1*%
%TO.N,N/C*%
X24420000Y-76820000D03*
%TO.P,L7,2,2*%
X20242222Y-79012846D03*
%TD*%
D16*
%TO.P,Q7,1,G*%
%TO.N,N/C*%
X109690000Y-26950000D03*
%TO.P,Q7,2,S*%
X108740000Y-26950000D03*
%TO.P,Q7,3,G*%
X107790000Y-26950000D03*
%TO.P,Q7,4,D*%
X107790000Y-29225000D03*
%TO.P,Q7,5,S*%
X108740000Y-29225000D03*
%TO.P,Q7,6,D*%
X109690000Y-29225000D03*
%TD*%
D17*
%TO.P,R44,1*%
%TO.N,N/C*%
X137740000Y-43097500D03*
%TO.P,R44,2*%
X137740000Y-42077500D03*
%TD*%
%TO.P,R23,1*%
%TO.N,N/C*%
X117740000Y-23597500D03*
%TO.P,R23,2*%
X117740000Y-22577500D03*
%TD*%
%TO.P,R70,1*%
%TO.N,N/C*%
X113740000Y-51597500D03*
%TO.P,R70,2*%
X113740000Y-50577500D03*
%TD*%
D14*
%TO.P,R13,1*%
%TO.N,N/C*%
X103740000Y-42077500D03*
%TO.P,R13,2*%
X103740000Y-43097500D03*
%TD*%
D10*
%TO.P,C7,1*%
%TO.N,N/C*%
X145490000Y-49337500D03*
%TO.P,C7,2*%
X146450000Y-49337500D03*
%TD*%
D20*
%TO.P,R71,1*%
%TO.N,N/C*%
X155630000Y-53787500D03*
%TO.P,R71,2*%
X156650000Y-53787500D03*
%TD*%
D15*
%TO.P,L2,1,1*%
%TO.N,N/C*%
X29420000Y-67820000D03*
%TO.P,L2,2,2*%
X25242222Y-70012846D03*
%TD*%
D17*
%TO.P,R36,1*%
%TO.N,N/C*%
X129740000Y-43097500D03*
%TO.P,R36,2*%
X129740000Y-42077500D03*
%TD*%
D18*
%TO.P,U4,1,QB*%
%TO.N,N/C*%
X51207500Y-30665000D03*
%TO.P,U4,2,QC*%
X51207500Y-31315000D03*
%TO.P,U4,3,QD*%
X51207500Y-31965000D03*
%TO.P,U4,4,QE*%
X51207500Y-32615000D03*
%TO.P,U4,5,QF*%
X51207500Y-33265000D03*
%TO.P,U4,6,QG*%
X51207500Y-33915000D03*
%TO.P,U4,7,QH*%
X51207500Y-34565000D03*
%TO.P,U4,8,GND*%
X51207500Y-35215000D03*
%TO.P,U4,9,QH'*%
X56932500Y-35215000D03*
%TO.P,U4,10,~{SRCLR}*%
X56932500Y-34565000D03*
%TO.P,U4,11,SRCLK*%
X56932500Y-33915000D03*
%TO.P,U4,12,RCLK*%
X56932500Y-33265000D03*
%TO.P,U4,13,~{OE}*%
X56932500Y-32615000D03*
%TO.P,U4,14,SER*%
X56932500Y-31965000D03*
%TO.P,U4,15,QA*%
X56932500Y-31315000D03*
%TO.P,U4,16,VCC*%
X56932500Y-30665000D03*
%TD*%
D14*
%TO.P,R2,1*%
%TO.N,N/C*%
X95740000Y-22577500D03*
%TO.P,R2,2*%
X95740000Y-23597500D03*
%TD*%
D21*
%TO.P,C18,1*%
%TO.N,N/C*%
X130040000Y-48867500D03*
%TO.P,C18,2*%
X130040000Y-47907500D03*
%TD*%
D24*
%TO.P,R72,1*%
%TO.N,N/C*%
X158550000Y-48287500D03*
%TO.P,R72,2*%
X157530000Y-48287500D03*
%TD*%
D17*
%TO.P,R27,1*%
%TO.N,N/C*%
X121740000Y-23597500D03*
%TO.P,R27,2*%
X121740000Y-22577500D03*
%TD*%
D14*
%TO.P,R33,1*%
%TO.N,N/C*%
X123740000Y-42077500D03*
%TO.P,R33,2*%
X123740000Y-43097500D03*
%TD*%
D10*
%TO.P,C2,1*%
%TO.N,N/C*%
X113490000Y-20837500D03*
%TO.P,C2,2*%
X114450000Y-20837500D03*
%TD*%
D17*
%TO.P,R48,1*%
%TO.N,N/C*%
X141740000Y-43097500D03*
%TO.P,R48,2*%
X141740000Y-42077500D03*
%TD*%
%TO.P,R51,1*%
%TO.N,N/C*%
X145740000Y-23597500D03*
%TO.P,R51,2*%
X145740000Y-22577500D03*
%TD*%
D16*
%TO.P,Q9,1,G*%
%TO.N,N/C*%
X113690000Y-26950000D03*
%TO.P,Q9,2,S*%
X112740000Y-26950000D03*
%TO.P,Q9,3,G*%
X111790000Y-26950000D03*
%TO.P,Q9,4,D*%
X111790000Y-29225000D03*
%TO.P,Q9,5,S*%
X112740000Y-29225000D03*
%TO.P,Q9,6,D*%
X113690000Y-29225000D03*
%TD*%
D17*
%TO.P,R66,1*%
%TO.N,N/C*%
X141940000Y-62287500D03*
%TO.P,R66,2*%
X141940000Y-61267500D03*
%TD*%
%TO.P,R60,1*%
%TO.N,N/C*%
X153740000Y-43097500D03*
%TO.P,R60,2*%
X153740000Y-42077500D03*
%TD*%
D16*
%TO.P,Q31,1,G*%
%TO.N,N/C*%
X157690000Y-26950000D03*
%TO.P,Q31,2,S*%
X156740000Y-26950000D03*
%TO.P,Q31,3,G*%
X155790000Y-26950000D03*
%TO.P,Q31,4,D*%
X155790000Y-29225000D03*
%TO.P,Q31,5,S*%
X156740000Y-29225000D03*
%TO.P,Q31,6,D*%
X157690000Y-29225000D03*
%TD*%
D18*
%TO.P,U11,1,QB*%
%TO.N,N/C*%
X131877500Y-51812500D03*
%TO.P,U11,2,QC*%
X131877500Y-52462500D03*
%TO.P,U11,3,QD*%
X131877500Y-53112500D03*
%TO.P,U11,4,QE*%
X131877500Y-53762500D03*
%TO.P,U11,5,QF*%
X131877500Y-54412500D03*
%TO.P,U11,6,QG*%
X131877500Y-55062500D03*
%TO.P,U11,7,QH*%
X131877500Y-55712500D03*
%TO.P,U11,8,GND*%
X131877500Y-56362500D03*
%TO.P,U11,9,QH'*%
X137602500Y-56362500D03*
%TO.P,U11,10,~{SRCLR}*%
X137602500Y-55712500D03*
%TO.P,U11,11,SRCLK*%
X137602500Y-55062500D03*
%TO.P,U11,12,RCLK*%
X137602500Y-54412500D03*
%TO.P,U11,13,~{OE}*%
X137602500Y-53762500D03*
%TO.P,U11,14,SER*%
X137602500Y-53112500D03*
%TO.P,U11,15,QA*%
X137602500Y-52462500D03*
%TO.P,U11,16,VCC*%
X137602500Y-51812500D03*
%TD*%
D22*
%TO.P,D2,1,K*%
%TO.N,N/C*%
X156527500Y-63087500D03*
%TO.P,D2,2,A*%
X154952500Y-63087500D03*
%TD*%
D17*
%TO.P,R63,1*%
%TO.N,N/C*%
X157740000Y-23597500D03*
%TO.P,R63,2*%
X157740000Y-22577500D03*
%TD*%
D18*
%TO.P,U12,1,A4*%
%TO.N,N/C*%
X99877500Y-51812500D03*
%TO.P,U12,2,A6*%
X99877500Y-52462500D03*
%TO.P,U12,3,A*%
X99877500Y-53112500D03*
%TO.P,U12,4,A7*%
X99877500Y-53762500D03*
%TO.P,U12,5,A5*%
X99877500Y-54412500D03*
%TO.P,U12,6,~{E}*%
X99877500Y-55062500D03*
%TO.P,U12,7,VEE*%
X99877500Y-55712500D03*
%TO.P,U12,8,GND*%
X99877500Y-56362500D03*
%TO.P,U12,9,S2*%
X105602500Y-56362500D03*
%TO.P,U12,10,S1*%
X105602500Y-55712500D03*
%TO.P,U12,11,S0*%
X105602500Y-55062500D03*
%TO.P,U12,12,A3*%
X105602500Y-54412500D03*
%TO.P,U12,13,A0*%
X105602500Y-53762500D03*
%TO.P,U12,14,A1*%
X105602500Y-53112500D03*
%TO.P,U12,15,A2*%
X105602500Y-52462500D03*
%TO.P,U12,16,VCC*%
X105602500Y-51812500D03*
%TD*%
D13*
%TO.P,U2,1,A4*%
%TO.N,N/C*%
X105602500Y-20862500D03*
%TO.P,U2,2,A6*%
X105602500Y-20212500D03*
%TO.P,U2,3,A*%
X105602500Y-19562500D03*
%TO.P,U2,4,A7*%
X105602500Y-18912500D03*
%TO.P,U2,5,A5*%
X105602500Y-18262500D03*
%TO.P,U2,6,~{E}*%
X105602500Y-17612500D03*
%TO.P,U2,7,VEE*%
X105602500Y-16962500D03*
%TO.P,U2,8,GND*%
X105602500Y-16312500D03*
%TO.P,U2,9,S2*%
X99877500Y-16312500D03*
%TO.P,U2,10,S1*%
X99877500Y-16962500D03*
%TO.P,U2,11,S0*%
X99877500Y-17612500D03*
%TO.P,U2,12,A3*%
X99877500Y-18262500D03*
%TO.P,U2,13,A0*%
X99877500Y-18912500D03*
%TO.P,U2,14,A1*%
X99877500Y-19562500D03*
%TO.P,U2,15,A2*%
X99877500Y-20212500D03*
%TO.P,U2,16,VCC*%
X99877500Y-20862500D03*
%TD*%
D14*
%TO.P,R65,1*%
%TO.N,N/C*%
X155740000Y-42077500D03*
%TO.P,R65,2*%
X155740000Y-43097500D03*
%TD*%
D17*
%TO.P,R2,1*%
%TO.N,N/C*%
X25570000Y-27750000D03*
%TO.P,R2,2*%
X25570000Y-26730000D03*
%TD*%
%TO.P,R32,1*%
%TO.N,N/C*%
X125740000Y-43097500D03*
%TO.P,R32,2*%
X125740000Y-42077500D03*
%TD*%
D14*
%TO.P,R50,1*%
%TO.N,N/C*%
X143740000Y-22577500D03*
%TO.P,R50,2*%
X143740000Y-23597500D03*
%TD*%
D25*
%TO.P,U1,1,REF*%
%TO.N,N/C*%
X124840000Y-46787500D03*
%TO.P,U1,2,GND*%
X125490000Y-46787500D03*
%TO.P,U1,3,V+*%
X126140000Y-46787500D03*
%TO.P,U1,4,+*%
X126140000Y-44887500D03*
%TO.P,U1,5,-*%
X125490000Y-44887500D03*
%TO.P,U1,6*%
X124840000Y-44887500D03*
%TD*%
D15*
%TO.P,L10,1,1*%
%TO.N,N/C*%
X24420000Y-82820000D03*
%TO.P,L10,2,2*%
X20242222Y-85012846D03*
%TD*%
D14*
%TO.P,R49,1*%
%TO.N,N/C*%
X139740000Y-42067500D03*
%TO.P,R49,2*%
X139740000Y-43087500D03*
%TD*%
D12*
%TO.P,Q26,1,G*%
%TO.N,N/C*%
X143790000Y-38725000D03*
%TO.P,Q26,2,S*%
X144740000Y-38725000D03*
%TO.P,Q26,3,G*%
X145690000Y-38725000D03*
%TO.P,Q26,4,D*%
X145690000Y-36450000D03*
%TO.P,Q26,5,S*%
X144740000Y-36450000D03*
%TO.P,Q26,6,D*%
X143790000Y-36450000D03*
%TD*%
D14*
%TO.P,R61,1*%
%TO.N,N/C*%
X151740000Y-42077500D03*
%TO.P,R61,2*%
X151740000Y-43097500D03*
%TD*%
D17*
%TO.P,R7,1*%
%TO.N,N/C*%
X101740000Y-23597500D03*
%TO.P,R7,2*%
X101740000Y-22577500D03*
%TD*%
D20*
%TO.P,R4,1*%
%TO.N,N/C*%
X67472500Y-44040000D03*
%TO.P,R4,2*%
X68492500Y-44040000D03*
%TD*%
D17*
%TO.P,R4,1*%
%TO.N,N/C*%
X97740000Y-43097500D03*
%TO.P,R4,2*%
X97740000Y-42077500D03*
%TD*%
D26*
%TO.P,U2,1,VIN*%
%TO.N,N/C*%
X22220000Y-15790000D03*
%TO.P,U2,2,GND*%
X22220000Y-16440000D03*
%TO.P,U2,3,EN*%
X22220000Y-17090000D03*
%TO.P,U2,4,NC*%
X24120000Y-17090000D03*
%TO.P,U2,5,VOUT*%
X24120000Y-15790000D03*
%TD*%
D22*
%TO.P,D2,1,K*%
%TO.N,N/C*%
X65820000Y-44030000D03*
%TO.P,D2,2,A*%
X64245000Y-44030000D03*
%TD*%
D20*
%TO.P,R100,1*%
%TO.N,N/C*%
X157730000Y-66087500D03*
%TO.P,R100,2*%
X158750000Y-66087500D03*
%TD*%
D16*
%TO.P,Q3,1,G*%
%TO.N,N/C*%
X101690000Y-26950000D03*
%TO.P,Q3,2,S*%
X100740000Y-26950000D03*
%TO.P,Q3,3,G*%
X99790000Y-26950000D03*
%TO.P,Q3,4,D*%
X99790000Y-29225000D03*
%TO.P,Q3,5,S*%
X100740000Y-29225000D03*
%TO.P,Q3,6,D*%
X101690000Y-29225000D03*
%TD*%
D17*
%TO.P,R8,1*%
%TO.N,N/C*%
X101740000Y-43097500D03*
%TO.P,R8,2*%
X101740000Y-42077500D03*
%TD*%
D14*
%TO.P,R9,1*%
%TO.N,N/C*%
X99740000Y-42077500D03*
%TO.P,R9,2*%
X99740000Y-43097500D03*
%TD*%
D12*
%TO.P,Q32,1,G*%
%TO.N,N/C*%
X155790000Y-38725000D03*
%TO.P,Q32,2,S*%
X156740000Y-38725000D03*
%TO.P,Q32,3,G*%
X157690000Y-38725000D03*
%TO.P,Q32,4,D*%
X157690000Y-36450000D03*
%TO.P,Q32,5,S*%
X156740000Y-36450000D03*
%TO.P,Q32,6,D*%
X155790000Y-36450000D03*
%TD*%
D16*
%TO.P,Q23,1,G*%
%TO.N,N/C*%
X141690000Y-26950000D03*
%TO.P,Q23,2,S*%
X140740000Y-26950000D03*
%TO.P,Q23,3,G*%
X139790000Y-26950000D03*
%TO.P,Q23,4,D*%
X139790000Y-29225000D03*
%TO.P,Q23,5,S*%
X140740000Y-29225000D03*
%TO.P,Q23,6,D*%
X141690000Y-29225000D03*
%TD*%
D15*
%TO.P,L6,1,1*%
%TO.N,N/C*%
X19420000Y-79820000D03*
%TO.P,L6,2,2*%
X15242222Y-82012846D03*
%TD*%
D17*
%TO.P,R43,1*%
%TO.N,N/C*%
X137740000Y-23597500D03*
%TO.P,R43,2*%
X137740000Y-22577500D03*
%TD*%
D13*
%TO.P,U3,1,A4*%
%TO.N,N/C*%
X121602500Y-20862500D03*
%TO.P,U3,2,A6*%
X121602500Y-20212500D03*
%TO.P,U3,3,A*%
X121602500Y-19562500D03*
%TO.P,U3,4,A7*%
X121602500Y-18912500D03*
%TO.P,U3,5,A5*%
X121602500Y-18262500D03*
%TO.P,U3,6,~{E}*%
X121602500Y-17612500D03*
%TO.P,U3,7,VEE*%
X121602500Y-16962500D03*
%TO.P,U3,8,GND*%
X121602500Y-16312500D03*
%TO.P,U3,9,S2*%
X115877500Y-16312500D03*
%TO.P,U3,10,S1*%
X115877500Y-16962500D03*
%TO.P,U3,11,S0*%
X115877500Y-17612500D03*
%TO.P,U3,12,A3*%
X115877500Y-18262500D03*
%TO.P,U3,13,A0*%
X115877500Y-18912500D03*
%TO.P,U3,14,A1*%
X115877500Y-19562500D03*
%TO.P,U3,15,A2*%
X115877500Y-20212500D03*
%TO.P,U3,16,VCC*%
X115877500Y-20862500D03*
%TD*%
D10*
%TO.P,C4,1*%
%TO.N,N/C*%
X145490000Y-20837500D03*
%TO.P,C4,2*%
X146450000Y-20837500D03*
%TD*%
D21*
%TO.P,C11,1*%
%TO.N,N/C*%
X130340000Y-50947500D03*
%TO.P,C11,2*%
X130340000Y-49987500D03*
%TD*%
D17*
%TO.P,R3,1*%
%TO.N,N/C*%
X97740000Y-23597500D03*
%TO.P,R3,2*%
X97740000Y-22577500D03*
%TD*%
%TO.P,R1,1*%
%TO.N,N/C*%
X15570000Y-35960000D03*
%TO.P,R1,2*%
X15570000Y-34940000D03*
%TD*%
D12*
%TO.P,Q18,1,G*%
%TO.N,N/C*%
X127790000Y-38725000D03*
%TO.P,Q18,2,S*%
X128740000Y-38725000D03*
%TO.P,Q18,3,G*%
X129690000Y-38725000D03*
%TO.P,Q18,4,D*%
X129690000Y-36450000D03*
%TO.P,Q18,5,S*%
X128740000Y-36450000D03*
%TO.P,Q18,6,D*%
X127790000Y-36450000D03*
%TD*%
D14*
%TO.P,R57,1*%
%TO.N,N/C*%
X147740000Y-42077500D03*
%TO.P,R57,2*%
X147740000Y-43097500D03*
%TD*%
D15*
%TO.P,L3,1,1*%
%TO.N,N/C*%
X19420000Y-73820000D03*
%TO.P,L3,2,2*%
X15242222Y-76012846D03*
%TD*%
D17*
%TO.P,R11,1*%
%TO.N,N/C*%
X105710000Y-23597500D03*
%TO.P,R11,2*%
X105710000Y-22577500D03*
%TD*%
D16*
%TO.P,Q15,1,G*%
%TO.N,N/C*%
X125690000Y-26950000D03*
%TO.P,Q15,2,S*%
X124740000Y-26950000D03*
%TO.P,Q15,3,G*%
X123790000Y-26950000D03*
%TO.P,Q15,4,D*%
X123790000Y-29225000D03*
%TO.P,Q15,5,S*%
X124740000Y-29225000D03*
%TO.P,Q15,6,D*%
X125690000Y-29225000D03*
%TD*%
%TO.P,Q17,1,G*%
%TO.N,N/C*%
X129690000Y-26950000D03*
%TO.P,Q17,2,S*%
X128740000Y-26950000D03*
%TO.P,Q17,3,G*%
X127790000Y-26950000D03*
%TO.P,Q17,4,D*%
X127790000Y-29225000D03*
%TO.P,Q17,5,S*%
X128740000Y-29225000D03*
%TO.P,Q17,6,D*%
X129690000Y-29225000D03*
%TD*%
D12*
%TO.P,Q24,1,G*%
%TO.N,N/C*%
X139790000Y-38725000D03*
%TO.P,Q24,2,S*%
X140740000Y-38725000D03*
%TO.P,Q24,3,G*%
X141690000Y-38725000D03*
%TO.P,Q24,4,D*%
X141690000Y-36450000D03*
%TO.P,Q24,5,S*%
X140740000Y-36450000D03*
%TO.P,Q24,6,D*%
X139790000Y-36450000D03*
%TD*%
D19*
%TO.P,C2,1*%
%TO.N,N/C*%
X25420000Y-15460000D03*
%TO.P,C2,2*%
X25420000Y-16420000D03*
%TD*%
D15*
%TO.P,L9,1,1*%
%TO.N,N/C*%
X19420000Y-85820000D03*
%TO.P,L9,2,2*%
X15242222Y-88012846D03*
%TD*%
D14*
%TO.P,R58,1*%
%TO.N,N/C*%
X151740000Y-22577500D03*
%TO.P,R58,2*%
X151740000Y-23597500D03*
%TD*%
D17*
%TO.P,R47,1*%
%TO.N,N/C*%
X141740000Y-23597500D03*
%TO.P,R47,2*%
X141740000Y-22577500D03*
%TD*%
%TO.P,R40,1*%
%TO.N,N/C*%
X133740000Y-43097500D03*
%TO.P,R40,2*%
X133740000Y-42077500D03*
%TD*%
D22*
%TO.P,D3,1,K*%
%TO.N,N/C*%
X156527500Y-66087500D03*
%TO.P,D3,2,A*%
X154952500Y-66087500D03*
%TD*%
D16*
%TO.P,Q21,1,G*%
%TO.N,N/C*%
X137690000Y-26950000D03*
%TO.P,Q21,2,S*%
X136740000Y-26950000D03*
%TO.P,Q21,3,G*%
X135790000Y-26950000D03*
%TO.P,Q21,4,D*%
X135790000Y-29225000D03*
%TO.P,Q21,5,S*%
X136740000Y-29225000D03*
%TO.P,Q21,6,D*%
X137690000Y-29225000D03*
%TD*%
D13*
%TO.P,U5,1,A4*%
%TO.N,N/C*%
X121602500Y-49362500D03*
%TO.P,U5,2,A6*%
X121602500Y-48712500D03*
%TO.P,U5,3,A*%
X121602500Y-48062500D03*
%TO.P,U5,4,A7*%
X121602500Y-47412500D03*
%TO.P,U5,5,A5*%
X121602500Y-46762500D03*
%TO.P,U5,6,~{E}*%
X121602500Y-46112500D03*
%TO.P,U5,7,VEE*%
X121602500Y-45462500D03*
%TO.P,U5,8,GND*%
X121602500Y-44812500D03*
%TO.P,U5,9,S2*%
X115877500Y-44812500D03*
%TO.P,U5,10,S1*%
X115877500Y-45462500D03*
%TO.P,U5,11,S0*%
X115877500Y-46112500D03*
%TO.P,U5,12,A3*%
X115877500Y-46762500D03*
%TO.P,U5,13,A0*%
X115877500Y-47412500D03*
%TO.P,U5,14,A1*%
X115877500Y-48062500D03*
%TO.P,U5,15,A2*%
X115877500Y-48712500D03*
%TO.P,U5,16,VCC*%
X115877500Y-49362500D03*
%TD*%
D11*
%TO.P,C10,1*%
%TO.N,N/C*%
X139990000Y-51837500D03*
%TO.P,C10,2*%
X139030000Y-51837500D03*
%TD*%
D17*
%TO.P,R52,1*%
%TO.N,N/C*%
X145740000Y-43097500D03*
%TO.P,R52,2*%
X145740000Y-42077500D03*
%TD*%
%TO.P,R56,1*%
%TO.N,N/C*%
X149740000Y-43097500D03*
%TO.P,R56,2*%
X149740000Y-42077500D03*
%TD*%
D20*
%TO.P,R74,1*%
%TO.N,N/C*%
X155630000Y-55487500D03*
%TO.P,R74,2*%
X156650000Y-55487500D03*
%TD*%
D14*
%TO.P,R73,1*%
%TO.N,N/C*%
X142740000Y-50577500D03*
%TO.P,R73,2*%
X142740000Y-51597500D03*
%TD*%
D20*
%TO.P,R98,1*%
%TO.N,N/C*%
X157730000Y-60087500D03*
%TO.P,R98,2*%
X158750000Y-60087500D03*
%TD*%
D13*
%TO.P,U6,1,A0*%
%TO.N,N/C*%
X45932500Y-35015000D03*
%TO.P,U6,2,A1*%
X45932500Y-34365000D03*
%TO.P,U6,3,~{RESET}*%
X45932500Y-33715000D03*
%TO.P,U6,4,SD0*%
X45932500Y-33065000D03*
%TO.P,U6,5,SC0*%
X45932500Y-32415000D03*
%TO.P,U6,6,SD1*%
X45932500Y-31765000D03*
%TO.P,U6,7,SC1*%
X45932500Y-31115000D03*
%TO.P,U6,8,SD2*%
X45932500Y-30465000D03*
%TO.P,U6,9,SC2*%
X45932500Y-29815000D03*
%TO.P,U6,10,SD3*%
X45932500Y-29165000D03*
%TO.P,U6,11,SC3*%
X45932500Y-28515000D03*
%TO.P,U6,12,GND*%
X45932500Y-27865000D03*
%TO.P,U6,13,SD4*%
X40207500Y-27865000D03*
%TO.P,U6,14,SC4*%
X40207500Y-28515000D03*
%TO.P,U6,15,SD5*%
X40207500Y-29165000D03*
%TO.P,U6,16,SC5*%
X40207500Y-29815000D03*
%TO.P,U6,17,SD6*%
X40207500Y-30465000D03*
%TO.P,U6,18,SC6*%
X40207500Y-31115000D03*
%TO.P,U6,19,SD7*%
X40207500Y-31765000D03*
%TO.P,U6,20,SC7*%
X40207500Y-32415000D03*
%TO.P,U6,21,A2*%
X40207500Y-33065000D03*
%TO.P,U6,22,SCL*%
X40207500Y-33715000D03*
%TO.P,U6,23,SDA*%
X40207500Y-34365000D03*
%TO.P,U6,24,VCC*%
X40207500Y-35015000D03*
%TD*%
D14*
%TO.P,R38,1*%
%TO.N,N/C*%
X131740000Y-22577500D03*
%TO.P,R38,2*%
X131740000Y-23597500D03*
%TD*%
D12*
%TO.P,Q12,1,G*%
%TO.N,N/C*%
X115790000Y-38725000D03*
%TO.P,Q12,2,S*%
X116740000Y-38725000D03*
%TO.P,Q12,3,G*%
X117690000Y-38725000D03*
%TO.P,Q12,4,D*%
X117690000Y-36450000D03*
%TO.P,Q12,5,S*%
X116740000Y-36450000D03*
%TO.P,Q12,6,D*%
X115790000Y-36450000D03*
%TD*%
%TO.P,Q20,1,G*%
%TO.N,N/C*%
X131790000Y-38725000D03*
%TO.P,Q20,2,S*%
X132740000Y-38725000D03*
%TO.P,Q20,3,G*%
X133690000Y-38725000D03*
%TO.P,Q20,4,D*%
X133690000Y-36450000D03*
%TO.P,Q20,5,S*%
X132740000Y-36450000D03*
%TO.P,Q20,6,D*%
X131790000Y-36450000D03*
%TD*%
D14*
%TO.P,R21,1*%
%TO.N,N/C*%
X111740000Y-42077500D03*
%TO.P,R21,2*%
X111740000Y-43097500D03*
%TD*%
D12*
%TO.P,Q22,1,G*%
%TO.N,N/C*%
X135790000Y-38725000D03*
%TO.P,Q22,2,S*%
X136740000Y-38725000D03*
%TO.P,Q22,3,G*%
X137690000Y-38725000D03*
%TO.P,Q22,4,D*%
X137690000Y-36450000D03*
%TO.P,Q22,5,S*%
X136740000Y-36450000D03*
%TO.P,Q22,6,D*%
X135790000Y-36450000D03*
%TD*%
%TO.P,Q8,1,G*%
%TO.N,N/C*%
X107790000Y-38725000D03*
%TO.P,Q8,2,S*%
X108740000Y-38725000D03*
%TO.P,Q8,3,G*%
X109690000Y-38725000D03*
%TO.P,Q8,4,D*%
X109690000Y-36450000D03*
%TO.P,Q8,5,S*%
X108740000Y-36450000D03*
%TO.P,Q8,6,D*%
X107790000Y-36450000D03*
%TD*%
D16*
%TO.P,Q1,1,G*%
%TO.N,N/C*%
X97690000Y-26950000D03*
%TO.P,Q1,2,S*%
X96740000Y-26950000D03*
%TO.P,Q1,3,G*%
X95790000Y-26950000D03*
%TO.P,Q1,4,D*%
X95790000Y-29225000D03*
%TO.P,Q1,5,S*%
X96740000Y-29225000D03*
%TO.P,Q1,6,D*%
X97690000Y-29225000D03*
%TD*%
%TO.P,Q19,1,G*%
%TO.N,N/C*%
X133690000Y-26950000D03*
%TO.P,Q19,2,S*%
X132740000Y-26950000D03*
%TO.P,Q19,3,G*%
X131790000Y-26950000D03*
%TO.P,Q19,4,D*%
X131790000Y-29225000D03*
%TO.P,Q19,5,S*%
X132740000Y-29225000D03*
%TO.P,Q19,6,D*%
X133690000Y-29225000D03*
%TD*%
D17*
%TO.P,R64,1*%
%TO.N,N/C*%
X157740000Y-43097500D03*
%TO.P,R64,2*%
X157740000Y-42077500D03*
%TD*%
D12*
%TO.P,Q10,1,G*%
%TO.N,N/C*%
X111790000Y-38725000D03*
%TO.P,Q10,2,S*%
X112740000Y-38725000D03*
%TO.P,Q10,3,G*%
X113690000Y-38725000D03*
%TO.P,Q10,4,D*%
X113690000Y-36450000D03*
%TO.P,Q10,5,S*%
X112740000Y-36450000D03*
%TO.P,Q10,6,D*%
X111790000Y-36450000D03*
%TD*%
D14*
%TO.P,R30,1*%
%TO.N,N/C*%
X123740000Y-22577500D03*
%TO.P,R30,2*%
X123740000Y-23597500D03*
%TD*%
D10*
%TO.P,C6,1*%
%TO.N,N/C*%
X97490000Y-49337500D03*
%TO.P,C6,2*%
X98450000Y-49337500D03*
%TD*%
D27*
%TO.P,D2,1,K*%
%TO.N,N/C*%
X59750000Y-69280000D03*
%TO.P,D2,2,A*%
X63750000Y-69280000D03*
%TD*%
%TO.P,D5,1,K*%
%TO.N,N/C*%
X59750000Y-75280000D03*
%TO.P,D5,2,A*%
X63750000Y-75280000D03*
%TD*%
%TO.P,D9,1,K*%
%TO.N,N/C*%
X69750000Y-87280000D03*
%TO.P,D9,2,A*%
X73750000Y-87280000D03*
%TD*%
%TO.P,D10,1,K*%
%TO.N,N/C*%
X64750000Y-84280000D03*
%TO.P,D10,2,A*%
X68750000Y-84280000D03*
%TD*%
%TO.P,D1,1,K*%
%TO.N,N/C*%
X69750000Y-69280000D03*
%TO.P,D1,2,A*%
X73750000Y-69280000D03*
%TD*%
%TO.P,D11,1,K*%
%TO.N,N/C*%
X59750000Y-87280000D03*
%TO.P,D11,2,A*%
X63750000Y-87280000D03*
%TD*%
%TO.P,D6,1,K*%
%TO.N,N/C*%
X69750000Y-81280000D03*
%TO.P,D6,2,A*%
X73750000Y-81280000D03*
%TD*%
%TO.P,D4,1,K*%
%TO.N,N/C*%
X64750000Y-72280000D03*
%TO.P,D4,2,A*%
X68750000Y-72280000D03*
%TD*%
%TO.P,D3,1,K*%
%TO.N,N/C*%
X69750000Y-75280000D03*
%TO.P,D3,2,A*%
X73750000Y-75280000D03*
%TD*%
%TO.P,D8,1,K*%
%TO.N,N/C*%
X59750000Y-81280000D03*
%TO.P,D8,2,A*%
X63750000Y-81280000D03*
%TD*%
%TO.P,D7,1,K*%
%TO.N,N/C*%
X64750000Y-78280000D03*
%TO.P,D7,2,A*%
X68750000Y-78280000D03*
%TD*%
M02*
