%TF.GenerationSoftware,KiCad,Pcbnew,7.0.1*%
%TF.CreationDate,2024-10-12T00:25:36-04:00*%
%TF.ProjectId,Combined_Stencil,436f6d62-696e-4656-945f-5374656e6369,rev?*%
%TF.SameCoordinates,Original*%
%TF.FileFunction,Paste,Top*%
%TF.FilePolarity,Positive*%
%FSLAX46Y46*%
G04 Gerber Fmt 4.6, Leading zero omitted, Abs format (unit mm)*
G04 Created by KiCad (PCBNEW 7.0.1) date 2024-10-12 00:25:36*
%MOMM*%
%LPD*%
G01*
G04 APERTURE LIST*
G04 Aperture macros list*
%AMRoundRect*
0 Rectangle with rounded corners*
0 $1 Rounding radius*
0 $2 $3 $4 $5 $6 $7 $8 $9 X,Y pos of 4 corners*
0 Add a 4 corners polygon primitive as box body*
4,1,4,$2,$3,$4,$5,$6,$7,$8,$9,$2,$3,0*
0 Add four circle primitives for the rounded corners*
1,1,$1+$1,$2,$3*
1,1,$1+$1,$4,$5*
1,1,$1+$1,$6,$7*
1,1,$1+$1,$8,$9*
0 Add four rect primitives between the rounded corners*
20,1,$1+$1,$2,$3,$4,$5,0*
20,1,$1+$1,$4,$5,$6,$7,0*
20,1,$1+$1,$6,$7,$8,$9,0*
20,1,$1+$1,$8,$9,$2,$3,0*%
G04 Aperture macros list end*
%ADD10RoundRect,0.140000X-0.140000X-0.170000X0.140000X-0.170000X0.140000X0.170000X-0.140000X0.170000X0*%
%ADD11RoundRect,0.140000X0.140000X0.170000X-0.140000X0.170000X-0.140000X-0.170000X0.140000X-0.170000X0*%
%ADD12RoundRect,0.150000X0.150000X-0.512500X0.150000X0.512500X-0.150000X0.512500X-0.150000X-0.512500X0*%
%ADD13RoundRect,0.100000X0.637500X0.100000X-0.637500X0.100000X-0.637500X-0.100000X0.637500X-0.100000X0*%
%ADD14RoundRect,0.135000X-0.185000X0.135000X-0.185000X-0.135000X0.185000X-0.135000X0.185000X0.135000X0*%
%ADD15RoundRect,0.125000X-0.604273X0.645061X0.399485X-0.788455X0.604273X-0.645061X-0.399485X0.788455X0*%
%ADD16RoundRect,0.150000X-0.150000X0.512500X-0.150000X-0.512500X0.150000X-0.512500X0.150000X0.512500X0*%
%ADD17RoundRect,0.135000X0.185000X-0.135000X0.185000X0.135000X-0.185000X0.135000X-0.185000X-0.135000X0*%
%ADD18RoundRect,0.100000X-0.637500X-0.100000X0.637500X-0.100000X0.637500X0.100000X-0.637500X0.100000X0*%
%ADD19RoundRect,0.140000X-0.170000X0.140000X-0.170000X-0.140000X0.170000X-0.140000X0.170000X0.140000X0*%
%ADD20RoundRect,0.135000X-0.135000X-0.185000X0.135000X-0.185000X0.135000X0.185000X-0.135000X0.185000X0*%
%ADD21RoundRect,0.140000X0.170000X-0.140000X0.170000X0.140000X-0.170000X0.140000X-0.170000X-0.140000X0*%
%ADD22RoundRect,0.218750X0.218750X0.256250X-0.218750X0.256250X-0.218750X-0.256250X0.218750X-0.256250X0*%
%ADD23RoundRect,0.250000X-0.625000X0.312500X-0.625000X-0.312500X0.625000X-0.312500X0.625000X0.312500X0*%
%ADD24RoundRect,0.135000X0.135000X0.185000X-0.135000X0.185000X-0.135000X-0.185000X0.135000X-0.185000X0*%
%ADD25R,0.400000X0.650000*%
%ADD26R,0.650000X0.400000*%
%ADD27RoundRect,0.247222X-0.642778X-0.832778X0.642778X-0.832778X0.642778X0.832778X-0.642778X0.832778X0*%
G04 APERTURE END LIST*
D10*
%TO.C,C3*%
X129490000Y-20837500D03*
X130450000Y-20837500D03*
%TD*%
D11*
%TO.C,C8*%
X155990000Y-51837500D03*
X155030000Y-51837500D03*
%TD*%
D12*
%TO.C,Q30*%
X151790000Y-38725000D03*
X152740000Y-38725000D03*
X153690000Y-38725000D03*
X153690000Y-36450000D03*
X152740000Y-36450000D03*
X151790000Y-36450000D03*
%TD*%
D13*
%TO.C,U9*%
X137602500Y-49362500D03*
X137602500Y-48712500D03*
X137602500Y-48062500D03*
X137602500Y-47412500D03*
X137602500Y-46762500D03*
X137602500Y-46112500D03*
X137602500Y-45462500D03*
X137602500Y-44812500D03*
X131877500Y-44812500D03*
X131877500Y-45462500D03*
X131877500Y-46112500D03*
X131877500Y-46762500D03*
X131877500Y-47412500D03*
X131877500Y-48062500D03*
X131877500Y-48712500D03*
X131877500Y-49362500D03*
%TD*%
D14*
%TO.C,R10*%
X103740000Y-22577500D03*
X103740000Y-23597500D03*
%TD*%
D15*
%TO.C,L5*%
X29420000Y-73820000D03*
X25242222Y-76012846D03*
%TD*%
D16*
%TO.C,Q5*%
X105690000Y-26950000D03*
X104740000Y-26950000D03*
X103790000Y-26950000D03*
X103790000Y-29225000D03*
X104740000Y-29225000D03*
X105690000Y-29225000D03*
%TD*%
D17*
%TO.C,R28*%
X121740000Y-43097500D03*
X121740000Y-42077500D03*
%TD*%
D16*
%TO.C,Q29*%
X153690000Y-26950000D03*
X152740000Y-26950000D03*
X151790000Y-26950000D03*
X151790000Y-29225000D03*
X152740000Y-29225000D03*
X153690000Y-29225000D03*
%TD*%
D18*
%TO.C,U13*%
X147877500Y-51812500D03*
X147877500Y-52462500D03*
X147877500Y-53112500D03*
X147877500Y-53762500D03*
X147877500Y-54412500D03*
X147877500Y-55062500D03*
X147877500Y-55712500D03*
X147877500Y-56362500D03*
X153602500Y-56362500D03*
X153602500Y-55712500D03*
X153602500Y-55062500D03*
X153602500Y-54412500D03*
X153602500Y-53762500D03*
X153602500Y-53112500D03*
X153602500Y-52462500D03*
X153602500Y-51812500D03*
%TD*%
D14*
%TO.C,R5*%
X95740000Y-42077500D03*
X95740000Y-43097500D03*
%TD*%
D17*
%TO.C,R12*%
X105710000Y-43097500D03*
X105710000Y-42077500D03*
%TD*%
D18*
%TO.C,U5*%
X27707500Y-27865000D03*
X27707500Y-28515000D03*
X27707500Y-29165000D03*
X27707500Y-29815000D03*
X27707500Y-30465000D03*
X27707500Y-31115000D03*
X27707500Y-31765000D03*
X27707500Y-32415000D03*
X27707500Y-33065000D03*
X27707500Y-33715000D03*
X27707500Y-34365000D03*
X27707500Y-35015000D03*
X33432500Y-35015000D03*
X33432500Y-34365000D03*
X33432500Y-33715000D03*
X33432500Y-33065000D03*
X33432500Y-32415000D03*
X33432500Y-31765000D03*
X33432500Y-31115000D03*
X33432500Y-30465000D03*
X33432500Y-29815000D03*
X33432500Y-29165000D03*
X33432500Y-28515000D03*
X33432500Y-27865000D03*
%TD*%
D11*
%TO.C,C9*%
X123990000Y-51837500D03*
X123030000Y-51837500D03*
%TD*%
D14*
%TO.C,R22*%
X115740000Y-22577500D03*
X115740000Y-23597500D03*
%TD*%
D19*
%TO.C,C1*%
X20920000Y-15460000D03*
X20920000Y-16420000D03*
%TD*%
D15*
%TO.C,L4*%
X24420000Y-70820000D03*
X20242222Y-73012846D03*
%TD*%
D19*
%TO.C,C4*%
X32670000Y-25810000D03*
X32670000Y-26770000D03*
%TD*%
D14*
%TO.C,R53*%
X143740000Y-42067500D03*
X143740000Y-43087500D03*
%TD*%
D12*
%TO.C,Q14*%
X119790000Y-38725000D03*
X120740000Y-38725000D03*
X121690000Y-38725000D03*
X121690000Y-36450000D03*
X120740000Y-36450000D03*
X119790000Y-36450000D03*
%TD*%
D20*
%TO.C,R3*%
X67472500Y-41440000D03*
X68492500Y-41440000D03*
%TD*%
D13*
%TO.C,U10*%
X153602500Y-49362500D03*
X153602500Y-48712500D03*
X153602500Y-48062500D03*
X153602500Y-47412500D03*
X153602500Y-46762500D03*
X153602500Y-46112500D03*
X153602500Y-45462500D03*
X153602500Y-44812500D03*
X147877500Y-44812500D03*
X147877500Y-45462500D03*
X147877500Y-46112500D03*
X147877500Y-46762500D03*
X147877500Y-47412500D03*
X147877500Y-48062500D03*
X147877500Y-48712500D03*
X147877500Y-49362500D03*
%TD*%
D17*
%TO.C,R55*%
X149740000Y-23597500D03*
X149740000Y-22577500D03*
%TD*%
D10*
%TO.C,C5*%
X113490000Y-49337500D03*
X114450000Y-49337500D03*
%TD*%
D14*
%TO.C,R26*%
X119740000Y-22577500D03*
X119740000Y-23597500D03*
%TD*%
%TO.C,R62*%
X155740000Y-22577500D03*
X155740000Y-23597500D03*
%TD*%
%TO.C,R25*%
X115740000Y-42077500D03*
X115740000Y-43097500D03*
%TD*%
D20*
%TO.C,R67*%
X107030000Y-53787500D03*
X108050000Y-53787500D03*
%TD*%
D13*
%TO.C,U8*%
X153602500Y-20862500D03*
X153602500Y-20212500D03*
X153602500Y-19562500D03*
X153602500Y-18912500D03*
X153602500Y-18262500D03*
X153602500Y-17612500D03*
X153602500Y-16962500D03*
X153602500Y-16312500D03*
X147877500Y-16312500D03*
X147877500Y-16962500D03*
X147877500Y-17612500D03*
X147877500Y-18262500D03*
X147877500Y-18912500D03*
X147877500Y-19562500D03*
X147877500Y-20212500D03*
X147877500Y-20862500D03*
%TD*%
D21*
%TO.C,C17*%
X126140000Y-48847500D03*
X126140000Y-47887500D03*
%TD*%
D14*
%TO.C,R37*%
X127740000Y-42077500D03*
X127740000Y-43097500D03*
%TD*%
D17*
%TO.C,R16*%
X109740000Y-43097500D03*
X109740000Y-42077500D03*
%TD*%
D12*
%TO.C,Q6*%
X103790000Y-38725000D03*
X104740000Y-38725000D03*
X105690000Y-38725000D03*
X105690000Y-36450000D03*
X104740000Y-36450000D03*
X103790000Y-36450000D03*
%TD*%
D13*
%TO.C,U7*%
X137602500Y-20862500D03*
X137602500Y-20212500D03*
X137602500Y-19562500D03*
X137602500Y-18912500D03*
X137602500Y-18262500D03*
X137602500Y-17612500D03*
X137602500Y-16962500D03*
X137602500Y-16312500D03*
X131877500Y-16312500D03*
X131877500Y-16962500D03*
X131877500Y-17612500D03*
X131877500Y-18262500D03*
X131877500Y-18912500D03*
X131877500Y-19562500D03*
X131877500Y-20212500D03*
X131877500Y-20862500D03*
%TD*%
D15*
%TO.C,L11*%
X29420000Y-85820000D03*
X25242222Y-88012846D03*
%TD*%
D12*
%TO.C,Q2*%
X95790000Y-38725000D03*
X96740000Y-38725000D03*
X97690000Y-38725000D03*
X97690000Y-36450000D03*
X96740000Y-36450000D03*
X95790000Y-36450000D03*
%TD*%
D14*
%TO.C,R34*%
X127740000Y-22577500D03*
X127740000Y-23597500D03*
%TD*%
D15*
%TO.C,L8*%
X29420000Y-79820000D03*
X25242222Y-82012846D03*
%TD*%
D14*
%TO.C,R46*%
X139740000Y-22577500D03*
X139740000Y-23597500D03*
%TD*%
%TO.C,R17*%
X107740000Y-42077500D03*
X107740000Y-43097500D03*
%TD*%
D20*
%TO.C,R68*%
X110130000Y-53787500D03*
X111150000Y-53787500D03*
%TD*%
D14*
%TO.C,R6*%
X99740000Y-22577500D03*
X99740000Y-23597500D03*
%TD*%
D17*
%TO.C,R31*%
X125740000Y-23597500D03*
X125740000Y-22577500D03*
%TD*%
D15*
%TO.C,L12*%
X24420000Y-64820000D03*
X20242222Y-67012846D03*
%TD*%
D16*
%TO.C,Q11*%
X117690000Y-26950000D03*
X116740000Y-26950000D03*
X115790000Y-26950000D03*
X115790000Y-29225000D03*
X116740000Y-29225000D03*
X117690000Y-29225000D03*
%TD*%
D14*
%TO.C,R54*%
X147740000Y-22577500D03*
X147740000Y-23597500D03*
%TD*%
%TO.C,R41*%
X131740000Y-42077500D03*
X131740000Y-43097500D03*
%TD*%
D11*
%TO.C,C3*%
X57950000Y-29690000D03*
X56990000Y-29690000D03*
%TD*%
D17*
%TO.C,R35*%
X129740000Y-23597500D03*
X129740000Y-22577500D03*
%TD*%
%TO.C,R20*%
X113740000Y-43097500D03*
X113740000Y-42077500D03*
%TD*%
%TO.C,R15*%
X109740000Y-23597500D03*
X109740000Y-22577500D03*
%TD*%
D22*
%TO.C,D1*%
X65820000Y-41440000D03*
X64245000Y-41440000D03*
%TD*%
D14*
%TO.C,R18*%
X111740000Y-22577500D03*
X111740000Y-23597500D03*
%TD*%
%TO.C,R45*%
X135740000Y-42067500D03*
X135740000Y-43087500D03*
%TD*%
D16*
%TO.C,Q25*%
X145690000Y-26950000D03*
X144740000Y-26950000D03*
X143790000Y-26950000D03*
X143790000Y-29225000D03*
X144740000Y-29225000D03*
X145690000Y-29225000D03*
%TD*%
D17*
%TO.C,R19*%
X113740000Y-23597500D03*
X113740000Y-22577500D03*
%TD*%
D15*
%TO.C,L1*%
X19420000Y-67820000D03*
X15242222Y-70012846D03*
%TD*%
D12*
%TO.C,Q16*%
X123790000Y-38725000D03*
X124740000Y-38725000D03*
X125690000Y-38725000D03*
X125690000Y-36450000D03*
X124740000Y-36450000D03*
X123790000Y-36450000D03*
%TD*%
D10*
%TO.C,C1*%
X97460000Y-20987500D03*
X98420000Y-20987500D03*
%TD*%
D16*
%TO.C,Q13*%
X121690000Y-26950000D03*
X120740000Y-26950000D03*
X119790000Y-26950000D03*
X119790000Y-29225000D03*
X120740000Y-29225000D03*
X121690000Y-29225000D03*
%TD*%
D14*
%TO.C,R29*%
X119740000Y-42077500D03*
X119740000Y-43097500D03*
%TD*%
D13*
%TO.C,U4*%
X105602500Y-49362500D03*
X105602500Y-48712500D03*
X105602500Y-48062500D03*
X105602500Y-47412500D03*
X105602500Y-46762500D03*
X105602500Y-46112500D03*
X105602500Y-45462500D03*
X105602500Y-44812500D03*
X99877500Y-44812500D03*
X99877500Y-45462500D03*
X99877500Y-46112500D03*
X99877500Y-46762500D03*
X99877500Y-47412500D03*
X99877500Y-48062500D03*
X99877500Y-48712500D03*
X99877500Y-49362500D03*
%TD*%
D12*
%TO.C,Q28*%
X147790000Y-38725000D03*
X148740000Y-38725000D03*
X149690000Y-38725000D03*
X149690000Y-36450000D03*
X148740000Y-36450000D03*
X147790000Y-36450000D03*
%TD*%
D11*
%TO.C,C5*%
X41750000Y-36090000D03*
X40790000Y-36090000D03*
%TD*%
D20*
%TO.C,R5*%
X67472500Y-46640000D03*
X68492500Y-46640000D03*
%TD*%
D14*
%TO.C,R42*%
X135740000Y-22577500D03*
X135740000Y-23597500D03*
%TD*%
D20*
%TO.C,R99*%
X157730000Y-63087500D03*
X158750000Y-63087500D03*
%TD*%
D17*
%TO.C,R39*%
X133740000Y-23597500D03*
X133740000Y-22577500D03*
%TD*%
D20*
%TO.C,R69*%
X110130000Y-51787500D03*
X111150000Y-51787500D03*
%TD*%
D23*
%TO.C,R1*%
X128240000Y-45375000D03*
X128240000Y-48300000D03*
%TD*%
D11*
%TO.C,C12*%
X107990000Y-51837500D03*
X107030000Y-51837500D03*
%TD*%
D22*
%TO.C,D3*%
X65820000Y-46620000D03*
X64245000Y-46620000D03*
%TD*%
D12*
%TO.C,Q4*%
X99790000Y-38725000D03*
X100740000Y-38725000D03*
X101690000Y-38725000D03*
X101690000Y-36450000D03*
X100740000Y-36450000D03*
X99790000Y-36450000D03*
%TD*%
D17*
%TO.C,R24*%
X117740000Y-43097500D03*
X117740000Y-42077500D03*
%TD*%
D14*
%TO.C,R14*%
X107740000Y-22577500D03*
X107740000Y-23597500D03*
%TD*%
D22*
%TO.C,D1*%
X156527500Y-60087500D03*
X154952500Y-60087500D03*
%TD*%
D17*
%TO.C,R59*%
X153740000Y-23587500D03*
X153740000Y-22567500D03*
%TD*%
D16*
%TO.C,Q27*%
X149690000Y-26950000D03*
X148740000Y-26950000D03*
X147790000Y-26950000D03*
X147790000Y-29225000D03*
X148740000Y-29225000D03*
X149690000Y-29225000D03*
%TD*%
D18*
%TO.C,U6*%
X115877500Y-51812500D03*
X115877500Y-52462500D03*
X115877500Y-53112500D03*
X115877500Y-53762500D03*
X115877500Y-54412500D03*
X115877500Y-55062500D03*
X115877500Y-55712500D03*
X115877500Y-56362500D03*
X121602500Y-56362500D03*
X121602500Y-55712500D03*
X121602500Y-55062500D03*
X121602500Y-54412500D03*
X121602500Y-53762500D03*
X121602500Y-53112500D03*
X121602500Y-52462500D03*
X121602500Y-51812500D03*
%TD*%
D15*
%TO.C,L7*%
X24420000Y-76820000D03*
X20242222Y-79012846D03*
%TD*%
D16*
%TO.C,Q7*%
X109690000Y-26950000D03*
X108740000Y-26950000D03*
X107790000Y-26950000D03*
X107790000Y-29225000D03*
X108740000Y-29225000D03*
X109690000Y-29225000D03*
%TD*%
D17*
%TO.C,R44*%
X137740000Y-43097500D03*
X137740000Y-42077500D03*
%TD*%
%TO.C,R23*%
X117740000Y-23597500D03*
X117740000Y-22577500D03*
%TD*%
%TO.C,R70*%
X113740000Y-51597500D03*
X113740000Y-50577500D03*
%TD*%
D14*
%TO.C,R13*%
X103740000Y-42077500D03*
X103740000Y-43097500D03*
%TD*%
D10*
%TO.C,C7*%
X145490000Y-49337500D03*
X146450000Y-49337500D03*
%TD*%
D20*
%TO.C,R71*%
X155630000Y-53787500D03*
X156650000Y-53787500D03*
%TD*%
D15*
%TO.C,L2*%
X29420000Y-67820000D03*
X25242222Y-70012846D03*
%TD*%
D17*
%TO.C,R36*%
X129740000Y-43097500D03*
X129740000Y-42077500D03*
%TD*%
D18*
%TO.C,U4*%
X51207500Y-30665000D03*
X51207500Y-31315000D03*
X51207500Y-31965000D03*
X51207500Y-32615000D03*
X51207500Y-33265000D03*
X51207500Y-33915000D03*
X51207500Y-34565000D03*
X51207500Y-35215000D03*
X56932500Y-35215000D03*
X56932500Y-34565000D03*
X56932500Y-33915000D03*
X56932500Y-33265000D03*
X56932500Y-32615000D03*
X56932500Y-31965000D03*
X56932500Y-31315000D03*
X56932500Y-30665000D03*
%TD*%
D14*
%TO.C,R2*%
X95740000Y-22577500D03*
X95740000Y-23597500D03*
%TD*%
D21*
%TO.C,C18*%
X130040000Y-48867500D03*
X130040000Y-47907500D03*
%TD*%
D24*
%TO.C,R72*%
X158550000Y-48287500D03*
X157530000Y-48287500D03*
%TD*%
D17*
%TO.C,R27*%
X121740000Y-23597500D03*
X121740000Y-22577500D03*
%TD*%
D14*
%TO.C,R33*%
X123740000Y-42077500D03*
X123740000Y-43097500D03*
%TD*%
D10*
%TO.C,C2*%
X113490000Y-20837500D03*
X114450000Y-20837500D03*
%TD*%
D17*
%TO.C,R48*%
X141740000Y-43097500D03*
X141740000Y-42077500D03*
%TD*%
%TO.C,R51*%
X145740000Y-23597500D03*
X145740000Y-22577500D03*
%TD*%
D16*
%TO.C,Q9*%
X113690000Y-26950000D03*
X112740000Y-26950000D03*
X111790000Y-26950000D03*
X111790000Y-29225000D03*
X112740000Y-29225000D03*
X113690000Y-29225000D03*
%TD*%
D17*
%TO.C,R66*%
X141940000Y-62287500D03*
X141940000Y-61267500D03*
%TD*%
%TO.C,R60*%
X153740000Y-43097500D03*
X153740000Y-42077500D03*
%TD*%
D16*
%TO.C,Q31*%
X157690000Y-26950000D03*
X156740000Y-26950000D03*
X155790000Y-26950000D03*
X155790000Y-29225000D03*
X156740000Y-29225000D03*
X157690000Y-29225000D03*
%TD*%
D18*
%TO.C,U11*%
X131877500Y-51812500D03*
X131877500Y-52462500D03*
X131877500Y-53112500D03*
X131877500Y-53762500D03*
X131877500Y-54412500D03*
X131877500Y-55062500D03*
X131877500Y-55712500D03*
X131877500Y-56362500D03*
X137602500Y-56362500D03*
X137602500Y-55712500D03*
X137602500Y-55062500D03*
X137602500Y-54412500D03*
X137602500Y-53762500D03*
X137602500Y-53112500D03*
X137602500Y-52462500D03*
X137602500Y-51812500D03*
%TD*%
D22*
%TO.C,D2*%
X156527500Y-63087500D03*
X154952500Y-63087500D03*
%TD*%
D17*
%TO.C,R63*%
X157740000Y-23597500D03*
X157740000Y-22577500D03*
%TD*%
D18*
%TO.C,U12*%
X99877500Y-51812500D03*
X99877500Y-52462500D03*
X99877500Y-53112500D03*
X99877500Y-53762500D03*
X99877500Y-54412500D03*
X99877500Y-55062500D03*
X99877500Y-55712500D03*
X99877500Y-56362500D03*
X105602500Y-56362500D03*
X105602500Y-55712500D03*
X105602500Y-55062500D03*
X105602500Y-54412500D03*
X105602500Y-53762500D03*
X105602500Y-53112500D03*
X105602500Y-52462500D03*
X105602500Y-51812500D03*
%TD*%
D13*
%TO.C,U2*%
X105602500Y-20862500D03*
X105602500Y-20212500D03*
X105602500Y-19562500D03*
X105602500Y-18912500D03*
X105602500Y-18262500D03*
X105602500Y-17612500D03*
X105602500Y-16962500D03*
X105602500Y-16312500D03*
X99877500Y-16312500D03*
X99877500Y-16962500D03*
X99877500Y-17612500D03*
X99877500Y-18262500D03*
X99877500Y-18912500D03*
X99877500Y-19562500D03*
X99877500Y-20212500D03*
X99877500Y-20862500D03*
%TD*%
D14*
%TO.C,R65*%
X155740000Y-42077500D03*
X155740000Y-43097500D03*
%TD*%
D17*
%TO.C,R2*%
X25570000Y-27750000D03*
X25570000Y-26730000D03*
%TD*%
%TO.C,R32*%
X125740000Y-43097500D03*
X125740000Y-42077500D03*
%TD*%
D14*
%TO.C,R50*%
X143740000Y-22577500D03*
X143740000Y-23597500D03*
%TD*%
D25*
%TO.C,U1*%
X124840000Y-46787500D03*
X125490000Y-46787500D03*
X126140000Y-46787500D03*
X126140000Y-44887500D03*
X125490000Y-44887500D03*
X124840000Y-44887500D03*
%TD*%
D15*
%TO.C,L10*%
X24420000Y-82820000D03*
X20242222Y-85012846D03*
%TD*%
D14*
%TO.C,R49*%
X139740000Y-42067500D03*
X139740000Y-43087500D03*
%TD*%
D12*
%TO.C,Q26*%
X143790000Y-38725000D03*
X144740000Y-38725000D03*
X145690000Y-38725000D03*
X145690000Y-36450000D03*
X144740000Y-36450000D03*
X143790000Y-36450000D03*
%TD*%
D14*
%TO.C,R61*%
X151740000Y-42077500D03*
X151740000Y-43097500D03*
%TD*%
D17*
%TO.C,R7*%
X101740000Y-23597500D03*
X101740000Y-22577500D03*
%TD*%
D20*
%TO.C,R4*%
X67472500Y-44040000D03*
X68492500Y-44040000D03*
%TD*%
D17*
%TO.C,R4*%
X97740000Y-43097500D03*
X97740000Y-42077500D03*
%TD*%
D26*
%TO.C,U2*%
X22220000Y-15790000D03*
X22220000Y-16440000D03*
X22220000Y-17090000D03*
X24120000Y-17090000D03*
X24120000Y-15790000D03*
%TD*%
D22*
%TO.C,D2*%
X65820000Y-44030000D03*
X64245000Y-44030000D03*
%TD*%
D20*
%TO.C,R100*%
X157730000Y-66087500D03*
X158750000Y-66087500D03*
%TD*%
D16*
%TO.C,Q3*%
X101690000Y-26950000D03*
X100740000Y-26950000D03*
X99790000Y-26950000D03*
X99790000Y-29225000D03*
X100740000Y-29225000D03*
X101690000Y-29225000D03*
%TD*%
D17*
%TO.C,R8*%
X101740000Y-43097500D03*
X101740000Y-42077500D03*
%TD*%
D14*
%TO.C,R9*%
X99740000Y-42077500D03*
X99740000Y-43097500D03*
%TD*%
D12*
%TO.C,Q32*%
X155790000Y-38725000D03*
X156740000Y-38725000D03*
X157690000Y-38725000D03*
X157690000Y-36450000D03*
X156740000Y-36450000D03*
X155790000Y-36450000D03*
%TD*%
D16*
%TO.C,Q23*%
X141690000Y-26950000D03*
X140740000Y-26950000D03*
X139790000Y-26950000D03*
X139790000Y-29225000D03*
X140740000Y-29225000D03*
X141690000Y-29225000D03*
%TD*%
D15*
%TO.C,L6*%
X19420000Y-79820000D03*
X15242222Y-82012846D03*
%TD*%
D17*
%TO.C,R43*%
X137740000Y-23597500D03*
X137740000Y-22577500D03*
%TD*%
D13*
%TO.C,U3*%
X121602500Y-20862500D03*
X121602500Y-20212500D03*
X121602500Y-19562500D03*
X121602500Y-18912500D03*
X121602500Y-18262500D03*
X121602500Y-17612500D03*
X121602500Y-16962500D03*
X121602500Y-16312500D03*
X115877500Y-16312500D03*
X115877500Y-16962500D03*
X115877500Y-17612500D03*
X115877500Y-18262500D03*
X115877500Y-18912500D03*
X115877500Y-19562500D03*
X115877500Y-20212500D03*
X115877500Y-20862500D03*
%TD*%
D10*
%TO.C,C4*%
X145490000Y-20837500D03*
X146450000Y-20837500D03*
%TD*%
D21*
%TO.C,C11*%
X130340000Y-50947500D03*
X130340000Y-49987500D03*
%TD*%
D17*
%TO.C,R3*%
X97740000Y-23597500D03*
X97740000Y-22577500D03*
%TD*%
%TO.C,R1*%
X15570000Y-35960000D03*
X15570000Y-34940000D03*
%TD*%
D12*
%TO.C,Q18*%
X127790000Y-38725000D03*
X128740000Y-38725000D03*
X129690000Y-38725000D03*
X129690000Y-36450000D03*
X128740000Y-36450000D03*
X127790000Y-36450000D03*
%TD*%
D14*
%TO.C,R57*%
X147740000Y-42077500D03*
X147740000Y-43097500D03*
%TD*%
D15*
%TO.C,L3*%
X19420000Y-73820000D03*
X15242222Y-76012846D03*
%TD*%
D17*
%TO.C,R11*%
X105710000Y-23597500D03*
X105710000Y-22577500D03*
%TD*%
D16*
%TO.C,Q15*%
X125690000Y-26950000D03*
X124740000Y-26950000D03*
X123790000Y-26950000D03*
X123790000Y-29225000D03*
X124740000Y-29225000D03*
X125690000Y-29225000D03*
%TD*%
%TO.C,Q17*%
X129690000Y-26950000D03*
X128740000Y-26950000D03*
X127790000Y-26950000D03*
X127790000Y-29225000D03*
X128740000Y-29225000D03*
X129690000Y-29225000D03*
%TD*%
D12*
%TO.C,Q24*%
X139790000Y-38725000D03*
X140740000Y-38725000D03*
X141690000Y-38725000D03*
X141690000Y-36450000D03*
X140740000Y-36450000D03*
X139790000Y-36450000D03*
%TD*%
D19*
%TO.C,C2*%
X25420000Y-15460000D03*
X25420000Y-16420000D03*
%TD*%
D15*
%TO.C,L9*%
X19420000Y-85820000D03*
X15242222Y-88012846D03*
%TD*%
D14*
%TO.C,R58*%
X151740000Y-22577500D03*
X151740000Y-23597500D03*
%TD*%
D17*
%TO.C,R47*%
X141740000Y-23597500D03*
X141740000Y-22577500D03*
%TD*%
%TO.C,R40*%
X133740000Y-43097500D03*
X133740000Y-42077500D03*
%TD*%
D22*
%TO.C,D3*%
X156527500Y-66087500D03*
X154952500Y-66087500D03*
%TD*%
D16*
%TO.C,Q21*%
X137690000Y-26950000D03*
X136740000Y-26950000D03*
X135790000Y-26950000D03*
X135790000Y-29225000D03*
X136740000Y-29225000D03*
X137690000Y-29225000D03*
%TD*%
D13*
%TO.C,U5*%
X121602500Y-49362500D03*
X121602500Y-48712500D03*
X121602500Y-48062500D03*
X121602500Y-47412500D03*
X121602500Y-46762500D03*
X121602500Y-46112500D03*
X121602500Y-45462500D03*
X121602500Y-44812500D03*
X115877500Y-44812500D03*
X115877500Y-45462500D03*
X115877500Y-46112500D03*
X115877500Y-46762500D03*
X115877500Y-47412500D03*
X115877500Y-48062500D03*
X115877500Y-48712500D03*
X115877500Y-49362500D03*
%TD*%
D11*
%TO.C,C10*%
X139990000Y-51837500D03*
X139030000Y-51837500D03*
%TD*%
D17*
%TO.C,R52*%
X145740000Y-43097500D03*
X145740000Y-42077500D03*
%TD*%
%TO.C,R56*%
X149740000Y-43097500D03*
X149740000Y-42077500D03*
%TD*%
D20*
%TO.C,R74*%
X155630000Y-55487500D03*
X156650000Y-55487500D03*
%TD*%
D14*
%TO.C,R73*%
X142740000Y-50577500D03*
X142740000Y-51597500D03*
%TD*%
D20*
%TO.C,R98*%
X157730000Y-60087500D03*
X158750000Y-60087500D03*
%TD*%
D13*
%TO.C,U6*%
X45932500Y-35015000D03*
X45932500Y-34365000D03*
X45932500Y-33715000D03*
X45932500Y-33065000D03*
X45932500Y-32415000D03*
X45932500Y-31765000D03*
X45932500Y-31115000D03*
X45932500Y-30465000D03*
X45932500Y-29815000D03*
X45932500Y-29165000D03*
X45932500Y-28515000D03*
X45932500Y-27865000D03*
X40207500Y-27865000D03*
X40207500Y-28515000D03*
X40207500Y-29165000D03*
X40207500Y-29815000D03*
X40207500Y-30465000D03*
X40207500Y-31115000D03*
X40207500Y-31765000D03*
X40207500Y-32415000D03*
X40207500Y-33065000D03*
X40207500Y-33715000D03*
X40207500Y-34365000D03*
X40207500Y-35015000D03*
%TD*%
D14*
%TO.C,R38*%
X131740000Y-22577500D03*
X131740000Y-23597500D03*
%TD*%
D12*
%TO.C,Q12*%
X115790000Y-38725000D03*
X116740000Y-38725000D03*
X117690000Y-38725000D03*
X117690000Y-36450000D03*
X116740000Y-36450000D03*
X115790000Y-36450000D03*
%TD*%
%TO.C,Q20*%
X131790000Y-38725000D03*
X132740000Y-38725000D03*
X133690000Y-38725000D03*
X133690000Y-36450000D03*
X132740000Y-36450000D03*
X131790000Y-36450000D03*
%TD*%
D14*
%TO.C,R21*%
X111740000Y-42077500D03*
X111740000Y-43097500D03*
%TD*%
D12*
%TO.C,Q22*%
X135790000Y-38725000D03*
X136740000Y-38725000D03*
X137690000Y-38725000D03*
X137690000Y-36450000D03*
X136740000Y-36450000D03*
X135790000Y-36450000D03*
%TD*%
%TO.C,Q8*%
X107790000Y-38725000D03*
X108740000Y-38725000D03*
X109690000Y-38725000D03*
X109690000Y-36450000D03*
X108740000Y-36450000D03*
X107790000Y-36450000D03*
%TD*%
D16*
%TO.C,Q1*%
X97690000Y-26950000D03*
X96740000Y-26950000D03*
X95790000Y-26950000D03*
X95790000Y-29225000D03*
X96740000Y-29225000D03*
X97690000Y-29225000D03*
%TD*%
%TO.C,Q19*%
X133690000Y-26950000D03*
X132740000Y-26950000D03*
X131790000Y-26950000D03*
X131790000Y-29225000D03*
X132740000Y-29225000D03*
X133690000Y-29225000D03*
%TD*%
D17*
%TO.C,R64*%
X157740000Y-43097500D03*
X157740000Y-42077500D03*
%TD*%
D12*
%TO.C,Q10*%
X111790000Y-38725000D03*
X112740000Y-38725000D03*
X113690000Y-38725000D03*
X113690000Y-36450000D03*
X112740000Y-36450000D03*
X111790000Y-36450000D03*
%TD*%
D14*
%TO.C,R30*%
X123740000Y-22577500D03*
X123740000Y-23597500D03*
%TD*%
D10*
%TO.C,C6*%
X97490000Y-49337500D03*
X98450000Y-49337500D03*
%TD*%
D27*
%TO.C,D2*%
X59750000Y-69280000D03*
X63750000Y-69280000D03*
%TD*%
%TO.C,D5*%
X59750000Y-75280000D03*
X63750000Y-75280000D03*
%TD*%
%TO.C,D9*%
X69750000Y-87280000D03*
X73750000Y-87280000D03*
%TD*%
%TO.C,D10*%
X64750000Y-84280000D03*
X68750000Y-84280000D03*
%TD*%
%TO.C,D1*%
X69750000Y-69280000D03*
X73750000Y-69280000D03*
%TD*%
%TO.C,D11*%
X59750000Y-87280000D03*
X63750000Y-87280000D03*
%TD*%
%TO.C,D6*%
X69750000Y-81280000D03*
X73750000Y-81280000D03*
%TD*%
%TO.C,D4*%
X64750000Y-72280000D03*
X68750000Y-72280000D03*
%TD*%
%TO.C,D3*%
X69750000Y-75280000D03*
X73750000Y-75280000D03*
%TD*%
%TO.C,D8*%
X59750000Y-81280000D03*
X63750000Y-81280000D03*
%TD*%
%TO.C,D7*%
X64750000Y-78280000D03*
X68750000Y-78280000D03*
%TD*%
M02*
