%TF.GenerationSoftware,KiCad,Pcbnew,7.0.1*%
%TF.CreationDate,2025-01-22T12:30:56-05:00*%
%TF.ProjectId,TrackRingA-panel,54726163-6b52-4696-9e67-412d70616e65,rev?*%
%TF.SameCoordinates,Original*%
%TF.FileFunction,Profile,NP*%
%FSLAX46Y46*%
G04 Gerber Fmt 4.6, Leading zero omitted, Abs format (unit mm)*
G04 Created by KiCad (PCBNEW 7.0.1) date 2025-01-22 12:30:56*
%MOMM*%
%LPD*%
G01*
G04 APERTURE LIST*
%TA.AperFunction,Profile*%
%ADD10C,0.100000*%
%TD*%
%TA.AperFunction,Profile*%
%ADD11C,0.300000*%
%TD*%
%ADD12C,0.300000*%
G04 APERTURE END LIST*
D10*
X185998754Y-20000270D02*
X185987752Y-20000000D01*
X111001245Y-94999729D02*
X111012247Y-94999999D01*
X111012272Y-95000000D02*
X185987727Y-95000000D01*
X186000000Y-94987727D02*
X186000000Y-20012272D01*
D11*
X108000000Y-65000000D02*
X189000000Y-65000000D01*
D10*
X185987752Y-94999999D02*
X185998754Y-94999729D01*
X111000270Y-20001245D02*
X111000000Y-20012247D01*
D11*
X108000000Y-35000000D02*
X189000000Y-35000000D01*
D10*
X111000000Y-20012272D02*
X111000000Y-94987727D01*
X185999729Y-94998754D02*
X185999999Y-94987752D01*
D11*
X141000000Y-17000000D02*
X141000000Y-98000000D01*
X171000000Y-17000000D02*
X171000000Y-98000000D01*
X108000000Y-50000000D02*
X189000000Y-50000000D01*
X156000000Y-17000000D02*
X156000000Y-98000000D01*
X108000000Y-80000000D02*
X189000000Y-80000000D01*
D10*
X185999999Y-20012247D02*
X185999729Y-20001245D01*
X111000000Y-94987752D02*
X111000270Y-94998754D01*
X111012247Y-20000000D02*
X111001245Y-20000270D01*
D11*
X126000000Y-17000000D02*
X126000000Y-98000000D01*
D10*
X185987727Y-20000000D02*
X111012272Y-20000000D01*
D12*
X154925238Y-13809523D02*
X156925238Y-13142857D01*
X156925238Y-13142857D02*
X154925238Y-12476190D01*
X156163333Y-11809523D02*
X156163333Y-10285714D01*
X156734761Y-8190476D02*
X156830000Y-8285714D01*
X156830000Y-8285714D02*
X156925238Y-8571428D01*
X156925238Y-8571428D02*
X156925238Y-8761904D01*
X156925238Y-8761904D02*
X156830000Y-9047619D01*
X156830000Y-9047619D02*
X156639523Y-9238095D01*
X156639523Y-9238095D02*
X156449047Y-9333333D01*
X156449047Y-9333333D02*
X156068095Y-9428571D01*
X156068095Y-9428571D02*
X155782380Y-9428571D01*
X155782380Y-9428571D02*
X155401428Y-9333333D01*
X155401428Y-9333333D02*
X155210952Y-9238095D01*
X155210952Y-9238095D02*
X155020476Y-9047619D01*
X155020476Y-9047619D02*
X154925238Y-8761904D01*
X154925238Y-8761904D02*
X154925238Y-8571428D01*
X154925238Y-8571428D02*
X155020476Y-8285714D01*
X155020476Y-8285714D02*
X155115714Y-8190476D01*
X154925238Y-7333333D02*
X156544285Y-7333333D01*
X156544285Y-7333333D02*
X156734761Y-7238095D01*
X156734761Y-7238095D02*
X156830000Y-7142857D01*
X156830000Y-7142857D02*
X156925238Y-6952381D01*
X156925238Y-6952381D02*
X156925238Y-6571428D01*
X156925238Y-6571428D02*
X156830000Y-6380952D01*
X156830000Y-6380952D02*
X156734761Y-6285714D01*
X156734761Y-6285714D02*
X156544285Y-6190476D01*
X156544285Y-6190476D02*
X154925238Y-6190476D01*
X154925238Y-5523809D02*
X154925238Y-4380952D01*
X156925238Y-4952381D02*
X154925238Y-4952381D01*
X169925238Y-13809523D02*
X171925238Y-13142857D01*
X171925238Y-13142857D02*
X169925238Y-12476190D01*
X171163333Y-11809523D02*
X171163333Y-10285714D01*
X171734761Y-8190476D02*
X171830000Y-8285714D01*
X171830000Y-8285714D02*
X171925238Y-8571428D01*
X171925238Y-8571428D02*
X171925238Y-8761904D01*
X171925238Y-8761904D02*
X171830000Y-9047619D01*
X171830000Y-9047619D02*
X171639523Y-9238095D01*
X171639523Y-9238095D02*
X171449047Y-9333333D01*
X171449047Y-9333333D02*
X171068095Y-9428571D01*
X171068095Y-9428571D02*
X170782380Y-9428571D01*
X170782380Y-9428571D02*
X170401428Y-9333333D01*
X170401428Y-9333333D02*
X170210952Y-9238095D01*
X170210952Y-9238095D02*
X170020476Y-9047619D01*
X170020476Y-9047619D02*
X169925238Y-8761904D01*
X169925238Y-8761904D02*
X169925238Y-8571428D01*
X169925238Y-8571428D02*
X170020476Y-8285714D01*
X170020476Y-8285714D02*
X170115714Y-8190476D01*
X169925238Y-7333333D02*
X171544285Y-7333333D01*
X171544285Y-7333333D02*
X171734761Y-7238095D01*
X171734761Y-7238095D02*
X171830000Y-7142857D01*
X171830000Y-7142857D02*
X171925238Y-6952381D01*
X171925238Y-6952381D02*
X171925238Y-6571428D01*
X171925238Y-6571428D02*
X171830000Y-6380952D01*
X171830000Y-6380952D02*
X171734761Y-6285714D01*
X171734761Y-6285714D02*
X171544285Y-6190476D01*
X171544285Y-6190476D02*
X169925238Y-6190476D01*
X169925238Y-5523809D02*
X169925238Y-4380952D01*
X171925238Y-4952381D02*
X169925238Y-4952381D01*
X139925238Y-13809523D02*
X141925238Y-13142857D01*
X141925238Y-13142857D02*
X139925238Y-12476190D01*
X141163333Y-11809523D02*
X141163333Y-10285714D01*
X141734761Y-8190476D02*
X141830000Y-8285714D01*
X141830000Y-8285714D02*
X141925238Y-8571428D01*
X141925238Y-8571428D02*
X141925238Y-8761904D01*
X141925238Y-8761904D02*
X141830000Y-9047619D01*
X141830000Y-9047619D02*
X141639523Y-9238095D01*
X141639523Y-9238095D02*
X141449047Y-9333333D01*
X141449047Y-9333333D02*
X141068095Y-9428571D01*
X141068095Y-9428571D02*
X140782380Y-9428571D01*
X140782380Y-9428571D02*
X140401428Y-9333333D01*
X140401428Y-9333333D02*
X140210952Y-9238095D01*
X140210952Y-9238095D02*
X140020476Y-9047619D01*
X140020476Y-9047619D02*
X139925238Y-8761904D01*
X139925238Y-8761904D02*
X139925238Y-8571428D01*
X139925238Y-8571428D02*
X140020476Y-8285714D01*
X140020476Y-8285714D02*
X140115714Y-8190476D01*
X139925238Y-7333333D02*
X141544285Y-7333333D01*
X141544285Y-7333333D02*
X141734761Y-7238095D01*
X141734761Y-7238095D02*
X141830000Y-7142857D01*
X141830000Y-7142857D02*
X141925238Y-6952381D01*
X141925238Y-6952381D02*
X141925238Y-6571428D01*
X141925238Y-6571428D02*
X141830000Y-6380952D01*
X141830000Y-6380952D02*
X141734761Y-6285714D01*
X141734761Y-6285714D02*
X141544285Y-6190476D01*
X141544285Y-6190476D02*
X139925238Y-6190476D01*
X139925238Y-5523809D02*
X139925238Y-4380952D01*
X141925238Y-4952381D02*
X139925238Y-4952381D01*
X192190476Y-48925238D02*
X192857142Y-50925238D01*
X192857142Y-50925238D02*
X193523809Y-48925238D01*
X194190476Y-50163333D02*
X195714286Y-50163333D01*
X197809523Y-50734761D02*
X197714285Y-50830000D01*
X197714285Y-50830000D02*
X197428571Y-50925238D01*
X197428571Y-50925238D02*
X197238095Y-50925238D01*
X197238095Y-50925238D02*
X196952380Y-50830000D01*
X196952380Y-50830000D02*
X196761904Y-50639523D01*
X196761904Y-50639523D02*
X196666666Y-50449047D01*
X196666666Y-50449047D02*
X196571428Y-50068095D01*
X196571428Y-50068095D02*
X196571428Y-49782380D01*
X196571428Y-49782380D02*
X196666666Y-49401428D01*
X196666666Y-49401428D02*
X196761904Y-49210952D01*
X196761904Y-49210952D02*
X196952380Y-49020476D01*
X196952380Y-49020476D02*
X197238095Y-48925238D01*
X197238095Y-48925238D02*
X197428571Y-48925238D01*
X197428571Y-48925238D02*
X197714285Y-49020476D01*
X197714285Y-49020476D02*
X197809523Y-49115714D01*
X198666666Y-48925238D02*
X198666666Y-50544285D01*
X198666666Y-50544285D02*
X198761904Y-50734761D01*
X198761904Y-50734761D02*
X198857142Y-50830000D01*
X198857142Y-50830000D02*
X199047618Y-50925238D01*
X199047618Y-50925238D02*
X199428571Y-50925238D01*
X199428571Y-50925238D02*
X199619047Y-50830000D01*
X199619047Y-50830000D02*
X199714285Y-50734761D01*
X199714285Y-50734761D02*
X199809523Y-50544285D01*
X199809523Y-50544285D02*
X199809523Y-48925238D01*
X200476190Y-48925238D02*
X201619047Y-48925238D01*
X201047618Y-50925238D02*
X201047618Y-48925238D01*
X192190476Y-63925238D02*
X192857142Y-65925238D01*
X192857142Y-65925238D02*
X193523809Y-63925238D01*
X194190476Y-65163333D02*
X195714286Y-65163333D01*
X197809523Y-65734761D02*
X197714285Y-65830000D01*
X197714285Y-65830000D02*
X197428571Y-65925238D01*
X197428571Y-65925238D02*
X197238095Y-65925238D01*
X197238095Y-65925238D02*
X196952380Y-65830000D01*
X196952380Y-65830000D02*
X196761904Y-65639523D01*
X196761904Y-65639523D02*
X196666666Y-65449047D01*
X196666666Y-65449047D02*
X196571428Y-65068095D01*
X196571428Y-65068095D02*
X196571428Y-64782380D01*
X196571428Y-64782380D02*
X196666666Y-64401428D01*
X196666666Y-64401428D02*
X196761904Y-64210952D01*
X196761904Y-64210952D02*
X196952380Y-64020476D01*
X196952380Y-64020476D02*
X197238095Y-63925238D01*
X197238095Y-63925238D02*
X197428571Y-63925238D01*
X197428571Y-63925238D02*
X197714285Y-64020476D01*
X197714285Y-64020476D02*
X197809523Y-64115714D01*
X198666666Y-63925238D02*
X198666666Y-65544285D01*
X198666666Y-65544285D02*
X198761904Y-65734761D01*
X198761904Y-65734761D02*
X198857142Y-65830000D01*
X198857142Y-65830000D02*
X199047618Y-65925238D01*
X199047618Y-65925238D02*
X199428571Y-65925238D01*
X199428571Y-65925238D02*
X199619047Y-65830000D01*
X199619047Y-65830000D02*
X199714285Y-65734761D01*
X199714285Y-65734761D02*
X199809523Y-65544285D01*
X199809523Y-65544285D02*
X199809523Y-63925238D01*
X200476190Y-63925238D02*
X201619047Y-63925238D01*
X201047618Y-65925238D02*
X201047618Y-63925238D01*
X124925238Y-13809523D02*
X126925238Y-13142857D01*
X126925238Y-13142857D02*
X124925238Y-12476190D01*
X126163333Y-11809523D02*
X126163333Y-10285714D01*
X126734761Y-8190476D02*
X126830000Y-8285714D01*
X126830000Y-8285714D02*
X126925238Y-8571428D01*
X126925238Y-8571428D02*
X126925238Y-8761904D01*
X126925238Y-8761904D02*
X126830000Y-9047619D01*
X126830000Y-9047619D02*
X126639523Y-9238095D01*
X126639523Y-9238095D02*
X126449047Y-9333333D01*
X126449047Y-9333333D02*
X126068095Y-9428571D01*
X126068095Y-9428571D02*
X125782380Y-9428571D01*
X125782380Y-9428571D02*
X125401428Y-9333333D01*
X125401428Y-9333333D02*
X125210952Y-9238095D01*
X125210952Y-9238095D02*
X125020476Y-9047619D01*
X125020476Y-9047619D02*
X124925238Y-8761904D01*
X124925238Y-8761904D02*
X124925238Y-8571428D01*
X124925238Y-8571428D02*
X125020476Y-8285714D01*
X125020476Y-8285714D02*
X125115714Y-8190476D01*
X124925238Y-7333333D02*
X126544285Y-7333333D01*
X126544285Y-7333333D02*
X126734761Y-7238095D01*
X126734761Y-7238095D02*
X126830000Y-7142857D01*
X126830000Y-7142857D02*
X126925238Y-6952381D01*
X126925238Y-6952381D02*
X126925238Y-6571428D01*
X126925238Y-6571428D02*
X126830000Y-6380952D01*
X126830000Y-6380952D02*
X126734761Y-6285714D01*
X126734761Y-6285714D02*
X126544285Y-6190476D01*
X126544285Y-6190476D02*
X124925238Y-6190476D01*
X124925238Y-5523809D02*
X124925238Y-4380952D01*
X126925238Y-4952381D02*
X124925238Y-4952381D01*
X192190476Y-78925238D02*
X192857142Y-80925238D01*
X192857142Y-80925238D02*
X193523809Y-78925238D01*
X194190476Y-80163333D02*
X195714286Y-80163333D01*
X197809523Y-80734761D02*
X197714285Y-80830000D01*
X197714285Y-80830000D02*
X197428571Y-80925238D01*
X197428571Y-80925238D02*
X197238095Y-80925238D01*
X197238095Y-80925238D02*
X196952380Y-80830000D01*
X196952380Y-80830000D02*
X196761904Y-80639523D01*
X196761904Y-80639523D02*
X196666666Y-80449047D01*
X196666666Y-80449047D02*
X196571428Y-80068095D01*
X196571428Y-80068095D02*
X196571428Y-79782380D01*
X196571428Y-79782380D02*
X196666666Y-79401428D01*
X196666666Y-79401428D02*
X196761904Y-79210952D01*
X196761904Y-79210952D02*
X196952380Y-79020476D01*
X196952380Y-79020476D02*
X197238095Y-78925238D01*
X197238095Y-78925238D02*
X197428571Y-78925238D01*
X197428571Y-78925238D02*
X197714285Y-79020476D01*
X197714285Y-79020476D02*
X197809523Y-79115714D01*
X198666666Y-78925238D02*
X198666666Y-80544285D01*
X198666666Y-80544285D02*
X198761904Y-80734761D01*
X198761904Y-80734761D02*
X198857142Y-80830000D01*
X198857142Y-80830000D02*
X199047618Y-80925238D01*
X199047618Y-80925238D02*
X199428571Y-80925238D01*
X199428571Y-80925238D02*
X199619047Y-80830000D01*
X199619047Y-80830000D02*
X199714285Y-80734761D01*
X199714285Y-80734761D02*
X199809523Y-80544285D01*
X199809523Y-80544285D02*
X199809523Y-78925238D01*
X200476190Y-78925238D02*
X201619047Y-78925238D01*
X201047618Y-80925238D02*
X201047618Y-78925238D01*
X192190476Y-33925238D02*
X192857142Y-35925238D01*
X192857142Y-35925238D02*
X193523809Y-33925238D01*
X194190476Y-35163333D02*
X195714286Y-35163333D01*
X197809523Y-35734761D02*
X197714285Y-35830000D01*
X197714285Y-35830000D02*
X197428571Y-35925238D01*
X197428571Y-35925238D02*
X197238095Y-35925238D01*
X197238095Y-35925238D02*
X196952380Y-35830000D01*
X196952380Y-35830000D02*
X196761904Y-35639523D01*
X196761904Y-35639523D02*
X196666666Y-35449047D01*
X196666666Y-35449047D02*
X196571428Y-35068095D01*
X196571428Y-35068095D02*
X196571428Y-34782380D01*
X196571428Y-34782380D02*
X196666666Y-34401428D01*
X196666666Y-34401428D02*
X196761904Y-34210952D01*
X196761904Y-34210952D02*
X196952380Y-34020476D01*
X196952380Y-34020476D02*
X197238095Y-33925238D01*
X197238095Y-33925238D02*
X197428571Y-33925238D01*
X197428571Y-33925238D02*
X197714285Y-34020476D01*
X197714285Y-34020476D02*
X197809523Y-34115714D01*
X198666666Y-33925238D02*
X198666666Y-35544285D01*
X198666666Y-35544285D02*
X198761904Y-35734761D01*
X198761904Y-35734761D02*
X198857142Y-35830000D01*
X198857142Y-35830000D02*
X199047618Y-35925238D01*
X199047618Y-35925238D02*
X199428571Y-35925238D01*
X199428571Y-35925238D02*
X199619047Y-35830000D01*
X199619047Y-35830000D02*
X199714285Y-35734761D01*
X199714285Y-35734761D02*
X199809523Y-35544285D01*
X199809523Y-35544285D02*
X199809523Y-33925238D01*
X200476190Y-33925238D02*
X201619047Y-33925238D01*
X201047618Y-35925238D02*
X201047618Y-33925238D01*
M02*
