%TF.GenerationSoftware,KiCad,Pcbnew,7.0.1*%
%TF.CreationDate,2025-01-22T12:30:56-05:00*%
%TF.ProjectId,TrackRingA-panel,54726163-6b52-4696-9e67-412d70616e65,rev?*%
%TF.SameCoordinates,Original*%
%TF.FileFunction,Copper,L2,Bot*%
%TF.FilePolarity,Positive*%
%FSLAX46Y46*%
G04 Gerber Fmt 4.6, Leading zero omitted, Abs format (unit mm)*
G04 Created by KiCad (PCBNEW 7.0.1) date 2025-01-22 12:30:56*
%MOMM*%
%LPD*%
G01*
G04 APERTURE LIST*
%TA.AperFunction,ComponentPad*%
%ADD10R,1.700000X1.700000*%
%TD*%
%TA.AperFunction,ComponentPad*%
%ADD11O,1.700000X1.700000*%
%TD*%
%TA.AperFunction,ViaPad*%
%ADD12C,0.800000*%
%TD*%
%TA.AperFunction,Conductor*%
%ADD13C,0.250000*%
%TD*%
G04 APERTURE END LIST*
D10*
%TO.P,J1,1,Pin_1*%
%TO.N,Board_14-/SCL*%
X174730000Y-58650000D03*
D11*
%TO.P,J1,2,Pin_2*%
%TO.N,Board_14-/SDA*%
X177270000Y-58650000D03*
%TO.P,J1,3,Pin_3*%
%TO.N,Board_14-GND*%
X179810000Y-58650000D03*
%TO.P,J1,4,Pin_4*%
%TO.N,Board_14-/VCC*%
X182350000Y-58650000D03*
%TD*%
D10*
%TO.P,J1,1,Pin_1*%
%TO.N,Board_3-/SCL*%
X159730000Y-28650000D03*
D11*
%TO.P,J1,2,Pin_2*%
%TO.N,Board_3-/SDA*%
X162270000Y-28650000D03*
%TO.P,J1,3,Pin_3*%
%TO.N,Board_3-GND*%
X164810000Y-28650000D03*
%TO.P,J1,4,Pin_4*%
%TO.N,Board_3-/VCC*%
X167350000Y-28650000D03*
%TD*%
D10*
%TO.P,J1,1,Pin_1*%
%TO.N,Board_13-/SCL*%
X159730000Y-58650000D03*
D11*
%TO.P,J1,2,Pin_2*%
%TO.N,Board_13-/SDA*%
X162270000Y-58650000D03*
%TO.P,J1,3,Pin_3*%
%TO.N,Board_13-GND*%
X164810000Y-58650000D03*
%TO.P,J1,4,Pin_4*%
%TO.N,Board_13-/VCC*%
X167350000Y-58650000D03*
%TD*%
D10*
%TO.P,J1,1,Pin_1*%
%TO.N,Board_11-/SCL*%
X129730000Y-58650000D03*
D11*
%TO.P,J1,2,Pin_2*%
%TO.N,Board_11-/SDA*%
X132270000Y-58650000D03*
%TO.P,J1,3,Pin_3*%
%TO.N,Board_11-GND*%
X134810000Y-58650000D03*
%TO.P,J1,4,Pin_4*%
%TO.N,Board_11-/VCC*%
X137350000Y-58650000D03*
%TD*%
D10*
%TO.P,J1,1,Pin_1*%
%TO.N,Board_15-/SCL*%
X114730000Y-73650000D03*
D11*
%TO.P,J1,2,Pin_2*%
%TO.N,Board_15-/SDA*%
X117270000Y-73650000D03*
%TO.P,J1,3,Pin_3*%
%TO.N,Board_15-GND*%
X119810000Y-73650000D03*
%TO.P,J1,4,Pin_4*%
%TO.N,Board_15-/VCC*%
X122350000Y-73650000D03*
%TD*%
D10*
%TO.P,J1,1,Pin_1*%
%TO.N,Board_19-/SCL*%
X174730000Y-73650000D03*
D11*
%TO.P,J1,2,Pin_2*%
%TO.N,Board_19-/SDA*%
X177270000Y-73650000D03*
%TO.P,J1,3,Pin_3*%
%TO.N,Board_19-GND*%
X179810000Y-73650000D03*
%TO.P,J1,4,Pin_4*%
%TO.N,Board_19-/VCC*%
X182350000Y-73650000D03*
%TD*%
D10*
%TO.P,J1,1,Pin_1*%
%TO.N,Board_6-/SCL*%
X129730000Y-43650000D03*
D11*
%TO.P,J1,2,Pin_2*%
%TO.N,Board_6-/SDA*%
X132270000Y-43650000D03*
%TO.P,J1,3,Pin_3*%
%TO.N,Board_6-GND*%
X134810000Y-43650000D03*
%TO.P,J1,4,Pin_4*%
%TO.N,Board_6-/VCC*%
X137350000Y-43650000D03*
%TD*%
D10*
%TO.P,J1,1,Pin_1*%
%TO.N,Board_21-/SCL*%
X129730000Y-88650000D03*
D11*
%TO.P,J1,2,Pin_2*%
%TO.N,Board_21-/SDA*%
X132270000Y-88650000D03*
%TO.P,J1,3,Pin_3*%
%TO.N,Board_21-GND*%
X134810000Y-88650000D03*
%TO.P,J1,4,Pin_4*%
%TO.N,Board_21-/VCC*%
X137350000Y-88650000D03*
%TD*%
D10*
%TO.P,J1,1,Pin_1*%
%TO.N,Board_4-/SCL*%
X174730000Y-28650000D03*
D11*
%TO.P,J1,2,Pin_2*%
%TO.N,Board_4-/SDA*%
X177270000Y-28650000D03*
%TO.P,J1,3,Pin_3*%
%TO.N,Board_4-GND*%
X179810000Y-28650000D03*
%TO.P,J1,4,Pin_4*%
%TO.N,Board_4-/VCC*%
X182350000Y-28650000D03*
%TD*%
D10*
%TO.P,J1,1,Pin_1*%
%TO.N,Board_7-/SCL*%
X144730000Y-43650000D03*
D11*
%TO.P,J1,2,Pin_2*%
%TO.N,Board_7-/SDA*%
X147270000Y-43650000D03*
%TO.P,J1,3,Pin_3*%
%TO.N,Board_7-GND*%
X149810000Y-43650000D03*
%TO.P,J1,4,Pin_4*%
%TO.N,Board_7-/VCC*%
X152350000Y-43650000D03*
%TD*%
D10*
%TO.P,J1,1,Pin_1*%
%TO.N,Board_2-/SCL*%
X144730000Y-28650000D03*
D11*
%TO.P,J1,2,Pin_2*%
%TO.N,Board_2-/SDA*%
X147270000Y-28650000D03*
%TO.P,J1,3,Pin_3*%
%TO.N,Board_2-GND*%
X149810000Y-28650000D03*
%TO.P,J1,4,Pin_4*%
%TO.N,Board_2-/VCC*%
X152350000Y-28650000D03*
%TD*%
D10*
%TO.P,J1,1,Pin_1*%
%TO.N,Board_16-/SCL*%
X129730000Y-73650000D03*
D11*
%TO.P,J1,2,Pin_2*%
%TO.N,Board_16-/SDA*%
X132270000Y-73650000D03*
%TO.P,J1,3,Pin_3*%
%TO.N,Board_16-GND*%
X134810000Y-73650000D03*
%TO.P,J1,4,Pin_4*%
%TO.N,Board_16-/VCC*%
X137350000Y-73650000D03*
%TD*%
D10*
%TO.P,J1,1,Pin_1*%
%TO.N,Board_8-/SCL*%
X159730000Y-43650000D03*
D11*
%TO.P,J1,2,Pin_2*%
%TO.N,Board_8-/SDA*%
X162270000Y-43650000D03*
%TO.P,J1,3,Pin_3*%
%TO.N,Board_8-GND*%
X164810000Y-43650000D03*
%TO.P,J1,4,Pin_4*%
%TO.N,Board_8-/VCC*%
X167350000Y-43650000D03*
%TD*%
D10*
%TO.P,J1,1,Pin_1*%
%TO.N,Board_20-/SCL*%
X114730000Y-88650000D03*
D11*
%TO.P,J1,2,Pin_2*%
%TO.N,Board_20-/SDA*%
X117270000Y-88650000D03*
%TO.P,J1,3,Pin_3*%
%TO.N,Board_20-GND*%
X119810000Y-88650000D03*
%TO.P,J1,4,Pin_4*%
%TO.N,Board_20-/VCC*%
X122350000Y-88650000D03*
%TD*%
D10*
%TO.P,J1,1,Pin_1*%
%TO.N,Board_24-/SCL*%
X174730000Y-88650000D03*
D11*
%TO.P,J1,2,Pin_2*%
%TO.N,Board_24-/SDA*%
X177270000Y-88650000D03*
%TO.P,J1,3,Pin_3*%
%TO.N,Board_24-GND*%
X179810000Y-88650000D03*
%TO.P,J1,4,Pin_4*%
%TO.N,Board_24-/VCC*%
X182350000Y-88650000D03*
%TD*%
D10*
%TO.P,J1,1,Pin_1*%
%TO.N,Board_9-/SCL*%
X174730000Y-43650000D03*
D11*
%TO.P,J1,2,Pin_2*%
%TO.N,Board_9-/SDA*%
X177270000Y-43650000D03*
%TO.P,J1,3,Pin_3*%
%TO.N,Board_9-GND*%
X179810000Y-43650000D03*
%TO.P,J1,4,Pin_4*%
%TO.N,Board_9-/VCC*%
X182350000Y-43650000D03*
%TD*%
D10*
%TO.P,J1,1,Pin_1*%
%TO.N,Board_22-/SCL*%
X144730000Y-88650000D03*
D11*
%TO.P,J1,2,Pin_2*%
%TO.N,Board_22-/SDA*%
X147270000Y-88650000D03*
%TO.P,J1,3,Pin_3*%
%TO.N,Board_22-GND*%
X149810000Y-88650000D03*
%TO.P,J1,4,Pin_4*%
%TO.N,Board_22-/VCC*%
X152350000Y-88650000D03*
%TD*%
D10*
%TO.P,J1,1,Pin_1*%
%TO.N,Board_23-/SCL*%
X159730000Y-88650000D03*
D11*
%TO.P,J1,2,Pin_2*%
%TO.N,Board_23-/SDA*%
X162270000Y-88650000D03*
%TO.P,J1,3,Pin_3*%
%TO.N,Board_23-GND*%
X164810000Y-88650000D03*
%TO.P,J1,4,Pin_4*%
%TO.N,Board_23-/VCC*%
X167350000Y-88650000D03*
%TD*%
D10*
%TO.P,J1,1,Pin_1*%
%TO.N,Board_17-/SCL*%
X144730000Y-73650000D03*
D11*
%TO.P,J1,2,Pin_2*%
%TO.N,Board_17-/SDA*%
X147270000Y-73650000D03*
%TO.P,J1,3,Pin_3*%
%TO.N,Board_17-GND*%
X149810000Y-73650000D03*
%TO.P,J1,4,Pin_4*%
%TO.N,Board_17-/VCC*%
X152350000Y-73650000D03*
%TD*%
D10*
%TO.P,J1,1,Pin_1*%
%TO.N,Board_1-/SCL*%
X129730000Y-28650000D03*
D11*
%TO.P,J1,2,Pin_2*%
%TO.N,Board_1-/SDA*%
X132270000Y-28650000D03*
%TO.P,J1,3,Pin_3*%
%TO.N,Board_1-GND*%
X134810000Y-28650000D03*
%TO.P,J1,4,Pin_4*%
%TO.N,Board_1-/VCC*%
X137350000Y-28650000D03*
%TD*%
D10*
%TO.P,J1,1,Pin_1*%
%TO.N,Board_0-/SCL*%
X114730000Y-28650000D03*
D11*
%TO.P,J1,2,Pin_2*%
%TO.N,Board_0-/SDA*%
X117270000Y-28650000D03*
%TO.P,J1,3,Pin_3*%
%TO.N,Board_0-GND*%
X119810000Y-28650000D03*
%TO.P,J1,4,Pin_4*%
%TO.N,Board_0-/VCC*%
X122350000Y-28650000D03*
%TD*%
D10*
%TO.P,J1,1,Pin_1*%
%TO.N,Board_18-/SCL*%
X159730000Y-73650000D03*
D11*
%TO.P,J1,2,Pin_2*%
%TO.N,Board_18-/SDA*%
X162270000Y-73650000D03*
%TO.P,J1,3,Pin_3*%
%TO.N,Board_18-GND*%
X164810000Y-73650000D03*
%TO.P,J1,4,Pin_4*%
%TO.N,Board_18-/VCC*%
X167350000Y-73650000D03*
%TD*%
D10*
%TO.P,J1,1,Pin_1*%
%TO.N,Board_12-/SCL*%
X144730000Y-58650000D03*
D11*
%TO.P,J1,2,Pin_2*%
%TO.N,Board_12-/SDA*%
X147270000Y-58650000D03*
%TO.P,J1,3,Pin_3*%
%TO.N,Board_12-GND*%
X149810000Y-58650000D03*
%TO.P,J1,4,Pin_4*%
%TO.N,Board_12-/VCC*%
X152350000Y-58650000D03*
%TD*%
D10*
%TO.P,J1,1,Pin_1*%
%TO.N,Board_5-/SCL*%
X114730000Y-43650000D03*
D11*
%TO.P,J1,2,Pin_2*%
%TO.N,Board_5-/SDA*%
X117270000Y-43650000D03*
%TO.P,J1,3,Pin_3*%
%TO.N,Board_5-GND*%
X119810000Y-43650000D03*
%TO.P,J1,4,Pin_4*%
%TO.N,Board_5-/VCC*%
X122350000Y-43650000D03*
%TD*%
D10*
%TO.P,J1,1,Pin_1*%
%TO.N,Board_10-/SCL*%
X114730000Y-58650000D03*
D11*
%TO.P,J1,2,Pin_2*%
%TO.N,Board_10-/SDA*%
X117270000Y-58650000D03*
%TO.P,J1,3,Pin_3*%
%TO.N,Board_10-GND*%
X119810000Y-58650000D03*
%TO.P,J1,4,Pin_4*%
%TO.N,Board_10-/VCC*%
X122350000Y-58650000D03*
%TD*%
D12*
%TO.N,Board_0-/VCC*%
X115000000Y-34000000D03*
X118710500Y-32859098D03*
%TO.N,Board_0-GND*%
X118477701Y-33997299D03*
X120905523Y-32940121D03*
X123800000Y-31000000D03*
X118487182Y-31801780D03*
X122250000Y-23000000D03*
X123250000Y-34175000D03*
%TO.N,Board_1-/VCC*%
X133710500Y-32859098D03*
X130000000Y-34000000D03*
%TO.N,Board_1-GND*%
X138250000Y-34175000D03*
X137250000Y-23000000D03*
X135905523Y-32940121D03*
X133477701Y-33997299D03*
X138800000Y-31000000D03*
X133487182Y-31801780D03*
%TO.N,Board_2-/VCC*%
X148710500Y-32859098D03*
X145000000Y-34000000D03*
%TO.N,Board_2-GND*%
X153250000Y-34175000D03*
X148487182Y-31801780D03*
X152250000Y-23000000D03*
X148477701Y-33997299D03*
X153800000Y-31000000D03*
X150905523Y-32940121D03*
%TO.N,Board_3-/VCC*%
X160000000Y-34000000D03*
X163710500Y-32859098D03*
%TO.N,Board_3-GND*%
X168250000Y-34175000D03*
X163487182Y-31801780D03*
X163477701Y-33997299D03*
X168800000Y-31000000D03*
X165905523Y-32940121D03*
X167250000Y-23000000D03*
%TO.N,Board_4-/VCC*%
X175000000Y-34000000D03*
X178710500Y-32859098D03*
%TO.N,Board_4-GND*%
X183250000Y-34175000D03*
X178487182Y-31801780D03*
X178477701Y-33997299D03*
X180905523Y-32940121D03*
X183800000Y-31000000D03*
X182250000Y-23000000D03*
%TO.N,Board_5-/VCC*%
X115000000Y-49000000D03*
X118710500Y-47859098D03*
%TO.N,Board_5-GND*%
X123250000Y-49175000D03*
X118487182Y-46801780D03*
X122250000Y-38000000D03*
X118477701Y-48997299D03*
X120905523Y-47940121D03*
X123800000Y-46000000D03*
%TO.N,Board_6-/VCC*%
X133710500Y-47859098D03*
X130000000Y-49000000D03*
%TO.N,Board_6-GND*%
X137250000Y-38000000D03*
X133487182Y-46801780D03*
X135905523Y-47940121D03*
X138250000Y-49175000D03*
X138800000Y-46000000D03*
X133477701Y-48997299D03*
%TO.N,Board_7-/VCC*%
X148710500Y-47859098D03*
X145000000Y-49000000D03*
%TO.N,Board_7-GND*%
X148477701Y-48997299D03*
X153250000Y-49175000D03*
X153800000Y-46000000D03*
X148487182Y-46801780D03*
X150905523Y-47940121D03*
X152250000Y-38000000D03*
%TO.N,Board_8-/VCC*%
X163710500Y-47859098D03*
X160000000Y-49000000D03*
%TO.N,Board_8-GND*%
X168800000Y-46000000D03*
X167250000Y-38000000D03*
X163477701Y-48997299D03*
X163487182Y-46801780D03*
X168250000Y-49175000D03*
X165905523Y-47940121D03*
%TO.N,Board_9-/VCC*%
X178710500Y-47859098D03*
X175000000Y-49000000D03*
%TO.N,Board_9-GND*%
X183800000Y-46000000D03*
X180905523Y-47940121D03*
X182250000Y-38000000D03*
X178477701Y-48997299D03*
X183250000Y-49175000D03*
X178487182Y-46801780D03*
%TO.N,Board_10-/VCC*%
X118710500Y-62859098D03*
X115000000Y-64000000D03*
%TO.N,Board_10-GND*%
X118487182Y-61801780D03*
X123250000Y-64175000D03*
X123800000Y-61000000D03*
X122250000Y-53000000D03*
X120905523Y-62940121D03*
X118477701Y-63997299D03*
%TO.N,Board_11-/VCC*%
X130000000Y-64000000D03*
X133710500Y-62859098D03*
%TO.N,Board_11-GND*%
X133487182Y-61801780D03*
X138250000Y-64175000D03*
X137250000Y-53000000D03*
X135905523Y-62940121D03*
X133477701Y-63997299D03*
X138800000Y-61000000D03*
%TO.N,Board_12-/VCC*%
X148710500Y-62859098D03*
X145000000Y-64000000D03*
%TO.N,Board_12-GND*%
X153800000Y-61000000D03*
X153250000Y-64175000D03*
X148487182Y-61801780D03*
X152250000Y-53000000D03*
X148477701Y-63997299D03*
X150905523Y-62940121D03*
%TO.N,Board_13-/VCC*%
X160000000Y-64000000D03*
X163710500Y-62859098D03*
%TO.N,Board_13-GND*%
X165905523Y-62940121D03*
X168800000Y-61000000D03*
X167250000Y-53000000D03*
X163487182Y-61801780D03*
X168250000Y-64175000D03*
X163477701Y-63997299D03*
%TO.N,Board_14-/VCC*%
X175000000Y-64000000D03*
X178710500Y-62859098D03*
%TO.N,Board_14-GND*%
X183250000Y-64175000D03*
X183800000Y-61000000D03*
X182250000Y-53000000D03*
X180905523Y-62940121D03*
X178477701Y-63997299D03*
X178487182Y-61801780D03*
%TO.N,Board_15-/VCC*%
X118710500Y-77859098D03*
X115000000Y-79000000D03*
%TO.N,Board_15-GND*%
X120905523Y-77940121D03*
X118477701Y-78997299D03*
X118487182Y-76801780D03*
X122250000Y-68000000D03*
X123800000Y-76000000D03*
X123250000Y-79175000D03*
%TO.N,Board_16-/VCC*%
X133710500Y-77859098D03*
X130000000Y-79000000D03*
%TO.N,Board_16-GND*%
X133477701Y-78997299D03*
X138250000Y-79175000D03*
X135905523Y-77940121D03*
X138800000Y-76000000D03*
X137250000Y-68000000D03*
X133487182Y-76801780D03*
%TO.N,Board_17-/VCC*%
X145000000Y-79000000D03*
X148710500Y-77859098D03*
%TO.N,Board_17-GND*%
X153800000Y-76000000D03*
X148477701Y-78997299D03*
X150905523Y-77940121D03*
X153250000Y-79175000D03*
X152250000Y-68000000D03*
X148487182Y-76801780D03*
%TO.N,Board_18-/VCC*%
X163710500Y-77859098D03*
X160000000Y-79000000D03*
%TO.N,Board_18-GND*%
X168250000Y-79175000D03*
X165905523Y-77940121D03*
X163487182Y-76801780D03*
X168800000Y-76000000D03*
X163477701Y-78997299D03*
X167250000Y-68000000D03*
%TO.N,Board_19-/VCC*%
X175000000Y-79000000D03*
X178710500Y-77859098D03*
%TO.N,Board_19-GND*%
X182250000Y-68000000D03*
X183800000Y-76000000D03*
X178487182Y-76801780D03*
X183250000Y-79175000D03*
X180905523Y-77940121D03*
X178477701Y-78997299D03*
%TO.N,Board_20-/VCC*%
X115000000Y-94000000D03*
X118710500Y-92859098D03*
%TO.N,Board_20-GND*%
X123250000Y-94175000D03*
X118487182Y-91801780D03*
X122250000Y-83000000D03*
X123800000Y-91000000D03*
X120905523Y-92940121D03*
X118477701Y-93997299D03*
%TO.N,Board_21-/VCC*%
X130000000Y-94000000D03*
X133710500Y-92859098D03*
%TO.N,Board_21-GND*%
X138250000Y-94175000D03*
X135905523Y-92940121D03*
X133487182Y-91801780D03*
X133477701Y-93997299D03*
X137250000Y-83000000D03*
X138800000Y-91000000D03*
%TO.N,Board_22-/VCC*%
X148710500Y-92859098D03*
X145000000Y-94000000D03*
%TO.N,Board_22-GND*%
X153800000Y-91000000D03*
X153250000Y-94175000D03*
X148477701Y-93997299D03*
X152250000Y-83000000D03*
X150905523Y-92940121D03*
X148487182Y-91801780D03*
%TO.N,Board_23-/VCC*%
X160000000Y-94000000D03*
X163710500Y-92859098D03*
%TO.N,Board_23-GND*%
X168800000Y-91000000D03*
X167250000Y-83000000D03*
X168250000Y-94175000D03*
X165905523Y-92940121D03*
X163487182Y-91801780D03*
X163477701Y-93997299D03*
%TO.N,Board_24-/VCC*%
X175000000Y-94000000D03*
X178710500Y-92859098D03*
%TO.N,Board_24-GND*%
X178487182Y-91801780D03*
X183800000Y-91000000D03*
X182250000Y-83000000D03*
X178477701Y-93997299D03*
X183250000Y-94175000D03*
X180905523Y-92940121D03*
%TD*%
D13*
%TO.N,Board_0-/VCC*%
X116140902Y-32859098D02*
X118710500Y-32859098D01*
X115000000Y-34000000D02*
X116140902Y-32859098D01*
%TO.N,Board_1-/VCC*%
X130000000Y-34000000D02*
X131140902Y-32859098D01*
X131140902Y-32859098D02*
X133710500Y-32859098D01*
%TO.N,Board_2-/VCC*%
X145000000Y-34000000D02*
X146140902Y-32859098D01*
X146140902Y-32859098D02*
X148710500Y-32859098D01*
%TO.N,Board_3-/VCC*%
X160000000Y-34000000D02*
X161140902Y-32859098D01*
X161140902Y-32859098D02*
X163710500Y-32859098D01*
%TO.N,Board_4-/VCC*%
X175000000Y-34000000D02*
X176140902Y-32859098D01*
X176140902Y-32859098D02*
X178710500Y-32859098D01*
%TO.N,Board_5-/VCC*%
X116140902Y-47859098D02*
X118710500Y-47859098D01*
X115000000Y-49000000D02*
X116140902Y-47859098D01*
%TO.N,Board_6-/VCC*%
X131140902Y-47859098D02*
X133710500Y-47859098D01*
X130000000Y-49000000D02*
X131140902Y-47859098D01*
%TO.N,Board_7-/VCC*%
X145000000Y-49000000D02*
X146140902Y-47859098D01*
X146140902Y-47859098D02*
X148710500Y-47859098D01*
%TO.N,Board_8-/VCC*%
X160000000Y-49000000D02*
X161140902Y-47859098D01*
X161140902Y-47859098D02*
X163710500Y-47859098D01*
%TO.N,Board_9-/VCC*%
X176140902Y-47859098D02*
X178710500Y-47859098D01*
X175000000Y-49000000D02*
X176140902Y-47859098D01*
%TO.N,Board_10-/VCC*%
X116140902Y-62859098D02*
X118710500Y-62859098D01*
X115000000Y-64000000D02*
X116140902Y-62859098D01*
%TO.N,Board_11-/VCC*%
X131140902Y-62859098D02*
X133710500Y-62859098D01*
X130000000Y-64000000D02*
X131140902Y-62859098D01*
%TO.N,Board_12-/VCC*%
X146140902Y-62859098D02*
X148710500Y-62859098D01*
X145000000Y-64000000D02*
X146140902Y-62859098D01*
%TO.N,Board_13-/VCC*%
X160000000Y-64000000D02*
X161140902Y-62859098D01*
X161140902Y-62859098D02*
X163710500Y-62859098D01*
%TO.N,Board_14-/VCC*%
X175000000Y-64000000D02*
X176140902Y-62859098D01*
X176140902Y-62859098D02*
X178710500Y-62859098D01*
%TO.N,Board_15-/VCC*%
X115000000Y-79000000D02*
X116140902Y-77859098D01*
X116140902Y-77859098D02*
X118710500Y-77859098D01*
%TO.N,Board_16-/VCC*%
X130000000Y-79000000D02*
X131140902Y-77859098D01*
X131140902Y-77859098D02*
X133710500Y-77859098D01*
%TO.N,Board_17-/VCC*%
X146140902Y-77859098D02*
X148710500Y-77859098D01*
X145000000Y-79000000D02*
X146140902Y-77859098D01*
%TO.N,Board_18-/VCC*%
X160000000Y-79000000D02*
X161140902Y-77859098D01*
X161140902Y-77859098D02*
X163710500Y-77859098D01*
%TO.N,Board_19-/VCC*%
X176140902Y-77859098D02*
X178710500Y-77859098D01*
X175000000Y-79000000D02*
X176140902Y-77859098D01*
%TO.N,Board_20-/VCC*%
X115000000Y-94000000D02*
X116140902Y-92859098D01*
X116140902Y-92859098D02*
X118710500Y-92859098D01*
%TO.N,Board_21-/VCC*%
X130000000Y-94000000D02*
X131140902Y-92859098D01*
X131140902Y-92859098D02*
X133710500Y-92859098D01*
%TO.N,Board_22-/VCC*%
X146140902Y-92859098D02*
X148710500Y-92859098D01*
X145000000Y-94000000D02*
X146140902Y-92859098D01*
%TO.N,Board_23-/VCC*%
X160000000Y-94000000D02*
X161140902Y-92859098D01*
X161140902Y-92859098D02*
X163710500Y-92859098D01*
%TO.N,Board_24-/VCC*%
X175000000Y-94000000D02*
X176140902Y-92859098D01*
X176140902Y-92859098D02*
X178710500Y-92859098D01*
%TD*%
%TA.AperFunction,Conductor*%
%TO.N,Board_20-GND*%
G36*
X125937500Y-80017113D02*
G01*
X125982887Y-80062500D01*
X125999500Y-80124500D01*
X125999500Y-94875500D01*
X125982887Y-94937500D01*
X125937500Y-94982887D01*
X125875500Y-94999500D01*
X111124500Y-94999500D01*
X111062500Y-94982887D01*
X111017113Y-94937500D01*
X111000500Y-94875500D01*
X111000500Y-94000000D01*
X114344721Y-94000000D01*
X114363763Y-94156818D01*
X114419780Y-94304523D01*
X114509515Y-94434528D01*
X114509516Y-94434529D01*
X114509517Y-94434530D01*
X114627760Y-94539283D01*
X114767635Y-94612696D01*
X114921015Y-94650500D01*
X115078985Y-94650500D01*
X115232365Y-94612696D01*
X115372240Y-94539283D01*
X115490483Y-94434530D01*
X115580220Y-94304523D01*
X115636237Y-94156818D01*
X115655278Y-94000000D01*
X115649102Y-93949143D01*
X115654980Y-93893751D01*
X115684515Y-93846520D01*
X116260119Y-93270917D01*
X116300348Y-93244037D01*
X116347801Y-93234598D01*
X118114192Y-93234598D01*
X118171819Y-93248802D01*
X118216243Y-93288160D01*
X118220015Y-93293626D01*
X118220016Y-93293627D01*
X118220017Y-93293628D01*
X118338260Y-93398381D01*
X118478135Y-93471794D01*
X118631515Y-93509598D01*
X118789485Y-93509598D01*
X118942865Y-93471794D01*
X119082740Y-93398381D01*
X119200983Y-93293628D01*
X119290720Y-93163621D01*
X119346737Y-93015916D01*
X119365778Y-92859098D01*
X119346737Y-92702280D01*
X119290720Y-92554575D01*
X119231924Y-92469394D01*
X119200984Y-92424569D01*
X119200983Y-92424568D01*
X119082740Y-92319815D01*
X119069494Y-92312862D01*
X118942864Y-92246401D01*
X118789485Y-92208598D01*
X118631515Y-92208598D01*
X118478135Y-92246401D01*
X118338261Y-92319814D01*
X118220015Y-92424569D01*
X118216243Y-92430036D01*
X118171819Y-92469394D01*
X118114192Y-92483598D01*
X116192707Y-92483598D01*
X116167261Y-92480959D01*
X116156635Y-92478731D01*
X116156634Y-92478731D01*
X116138760Y-92480959D01*
X116125225Y-92482646D01*
X116109888Y-92483598D01*
X116109786Y-92483598D01*
X116089301Y-92487016D01*
X116084234Y-92487755D01*
X116024469Y-92495205D01*
X116024214Y-92495287D01*
X115971272Y-92523936D01*
X115966722Y-92526278D01*
X115912617Y-92552730D01*
X115912407Y-92552886D01*
X115871621Y-92597191D01*
X115868074Y-92600887D01*
X115155780Y-93313181D01*
X115115552Y-93340061D01*
X115068099Y-93349500D01*
X114921015Y-93349500D01*
X114767635Y-93387303D01*
X114627761Y-93460716D01*
X114509515Y-93565471D01*
X114419780Y-93695476D01*
X114363763Y-93843181D01*
X114344721Y-94000000D01*
X111000500Y-94000000D01*
X111000500Y-89524675D01*
X113629500Y-89524675D01*
X113644033Y-89597738D01*
X113644033Y-89597739D01*
X113644034Y-89597740D01*
X113699399Y-89680601D01*
X113782260Y-89735966D01*
X113818793Y-89743233D01*
X113855325Y-89750500D01*
X113855326Y-89750500D01*
X115604674Y-89750500D01*
X115604675Y-89750500D01*
X115629029Y-89745655D01*
X115677740Y-89735966D01*
X115760601Y-89680601D01*
X115815966Y-89597740D01*
X115830500Y-89524674D01*
X115830500Y-88650000D01*
X116164785Y-88650000D01*
X116183602Y-88853083D01*
X116239418Y-89049251D01*
X116330324Y-89231818D01*
X116453236Y-89394580D01*
X116603958Y-89531981D01*
X116777361Y-89639347D01*
X116777363Y-89639348D01*
X116967544Y-89713024D01*
X117168024Y-89750500D01*
X117371974Y-89750500D01*
X117371976Y-89750500D01*
X117572456Y-89713024D01*
X117762637Y-89639348D01*
X117936041Y-89531981D01*
X118086764Y-89394579D01*
X118209673Y-89231821D01*
X118209673Y-89231819D01*
X118209675Y-89231818D01*
X118255313Y-89140161D01*
X118300582Y-89049250D01*
X118343048Y-88900000D01*
X118737472Y-88900000D01*
X118779886Y-89049069D01*
X118870751Y-89231553D01*
X118993607Y-89394241D01*
X119144259Y-89531578D01*
X119317588Y-89638899D01*
X119507679Y-89712539D01*
X119560000Y-89722320D01*
X119560000Y-88900000D01*
X120060000Y-88900000D01*
X120060000Y-89722320D01*
X120112320Y-89712539D01*
X120302411Y-89638899D01*
X120475740Y-89531578D01*
X120626392Y-89394241D01*
X120749248Y-89231553D01*
X120840113Y-89049069D01*
X120882528Y-88900000D01*
X120060000Y-88900000D01*
X119560000Y-88900000D01*
X118737472Y-88900000D01*
X118343048Y-88900000D01*
X118356397Y-88853083D01*
X118375215Y-88650000D01*
X121244785Y-88650000D01*
X121263602Y-88853083D01*
X121319418Y-89049251D01*
X121410324Y-89231818D01*
X121533236Y-89394580D01*
X121683958Y-89531981D01*
X121857361Y-89639347D01*
X121857363Y-89639348D01*
X122047544Y-89713024D01*
X122248024Y-89750500D01*
X122451974Y-89750500D01*
X122451976Y-89750500D01*
X122652456Y-89713024D01*
X122842637Y-89639348D01*
X123016041Y-89531981D01*
X123166764Y-89394579D01*
X123289673Y-89231821D01*
X123289673Y-89231819D01*
X123289675Y-89231818D01*
X123335313Y-89140161D01*
X123380582Y-89049250D01*
X123436397Y-88853083D01*
X123455215Y-88650000D01*
X123436397Y-88446917D01*
X123380582Y-88250750D01*
X123380209Y-88250001D01*
X123289675Y-88068181D01*
X123166763Y-87905419D01*
X123016041Y-87768018D01*
X122842638Y-87660652D01*
X122652457Y-87586976D01*
X122529726Y-87564034D01*
X122451976Y-87549500D01*
X122248024Y-87549500D01*
X122170279Y-87564033D01*
X122047542Y-87586976D01*
X121857361Y-87660652D01*
X121683958Y-87768018D01*
X121533236Y-87905419D01*
X121410324Y-88068181D01*
X121319418Y-88250748D01*
X121263602Y-88446916D01*
X121244785Y-88650000D01*
X118375215Y-88650000D01*
X118356397Y-88446917D01*
X118343048Y-88399999D01*
X118737471Y-88399999D01*
X118737472Y-88400000D01*
X119560000Y-88400000D01*
X119560000Y-87577680D01*
X120060000Y-87577680D01*
X120060000Y-88400000D01*
X120882528Y-88400000D01*
X120882528Y-88399999D01*
X120840113Y-88250930D01*
X120749248Y-88068446D01*
X120626392Y-87905758D01*
X120475740Y-87768421D01*
X120302411Y-87661100D01*
X120112320Y-87587460D01*
X120060000Y-87577680D01*
X119560000Y-87577680D01*
X119507679Y-87587460D01*
X119317588Y-87661100D01*
X119144259Y-87768421D01*
X118993607Y-87905758D01*
X118870751Y-88068446D01*
X118779886Y-88250930D01*
X118737471Y-88399999D01*
X118343048Y-88399999D01*
X118300582Y-88250750D01*
X118300209Y-88250001D01*
X118209675Y-88068181D01*
X118086763Y-87905419D01*
X117936041Y-87768018D01*
X117762638Y-87660652D01*
X117572457Y-87586976D01*
X117449726Y-87564034D01*
X117371976Y-87549500D01*
X117168024Y-87549500D01*
X117090279Y-87564033D01*
X116967542Y-87586976D01*
X116777361Y-87660652D01*
X116603958Y-87768018D01*
X116453236Y-87905419D01*
X116330324Y-88068181D01*
X116239418Y-88250748D01*
X116183602Y-88446916D01*
X116164785Y-88650000D01*
X115830500Y-88650000D01*
X115830500Y-87775326D01*
X115829126Y-87768421D01*
X115815966Y-87702261D01*
X115815966Y-87702260D01*
X115760601Y-87619399D01*
X115677740Y-87564034D01*
X115677739Y-87564033D01*
X115677738Y-87564033D01*
X115604675Y-87549500D01*
X115604674Y-87549500D01*
X113855326Y-87549500D01*
X113855325Y-87549500D01*
X113782261Y-87564033D01*
X113699399Y-87619399D01*
X113644033Y-87702261D01*
X113629500Y-87775325D01*
X113629500Y-89524675D01*
X111000500Y-89524675D01*
X111000500Y-80124500D01*
X111017113Y-80062500D01*
X111062500Y-80017113D01*
X111124500Y-80000500D01*
X125875500Y-80000500D01*
X125937500Y-80017113D01*
G37*
%TD.AperFunction*%
%TD*%
%TA.AperFunction,Conductor*%
%TO.N,Board_8-GND*%
G36*
X170937500Y-35017113D02*
G01*
X170982887Y-35062500D01*
X170999500Y-35124500D01*
X170999500Y-49875500D01*
X170982887Y-49937500D01*
X170937500Y-49982887D01*
X170875500Y-49999500D01*
X156124500Y-49999500D01*
X156062500Y-49982887D01*
X156017113Y-49937500D01*
X156000500Y-49875500D01*
X156000500Y-49000000D01*
X159344721Y-49000000D01*
X159363763Y-49156818D01*
X159419780Y-49304523D01*
X159509515Y-49434528D01*
X159509516Y-49434529D01*
X159509517Y-49434530D01*
X159627760Y-49539283D01*
X159767635Y-49612696D01*
X159921015Y-49650500D01*
X160078985Y-49650500D01*
X160232365Y-49612696D01*
X160372240Y-49539283D01*
X160490483Y-49434530D01*
X160580220Y-49304523D01*
X160636237Y-49156818D01*
X160655278Y-49000000D01*
X160649102Y-48949143D01*
X160654980Y-48893751D01*
X160684515Y-48846520D01*
X161260119Y-48270917D01*
X161300348Y-48244037D01*
X161347801Y-48234598D01*
X163114192Y-48234598D01*
X163171819Y-48248802D01*
X163216243Y-48288160D01*
X163220015Y-48293626D01*
X163220016Y-48293627D01*
X163220017Y-48293628D01*
X163338260Y-48398381D01*
X163478135Y-48471794D01*
X163631515Y-48509598D01*
X163789485Y-48509598D01*
X163942865Y-48471794D01*
X164082740Y-48398381D01*
X164200983Y-48293628D01*
X164290720Y-48163621D01*
X164346737Y-48015916D01*
X164365778Y-47859098D01*
X164346737Y-47702280D01*
X164290720Y-47554575D01*
X164231924Y-47469394D01*
X164200984Y-47424569D01*
X164200983Y-47424568D01*
X164082740Y-47319815D01*
X164069494Y-47312862D01*
X163942864Y-47246401D01*
X163789485Y-47208598D01*
X163631515Y-47208598D01*
X163478135Y-47246401D01*
X163338261Y-47319814D01*
X163220015Y-47424569D01*
X163216243Y-47430036D01*
X163171819Y-47469394D01*
X163114192Y-47483598D01*
X161192707Y-47483598D01*
X161167261Y-47480959D01*
X161156635Y-47478731D01*
X161156634Y-47478731D01*
X161138760Y-47480959D01*
X161125225Y-47482646D01*
X161109888Y-47483598D01*
X161109786Y-47483598D01*
X161089301Y-47487016D01*
X161084234Y-47487755D01*
X161024469Y-47495205D01*
X161024214Y-47495287D01*
X160971272Y-47523936D01*
X160966722Y-47526278D01*
X160912617Y-47552730D01*
X160912407Y-47552886D01*
X160871621Y-47597191D01*
X160868074Y-47600887D01*
X160155780Y-48313181D01*
X160115552Y-48340061D01*
X160068099Y-48349500D01*
X159921015Y-48349500D01*
X159767635Y-48387303D01*
X159627761Y-48460716D01*
X159509515Y-48565471D01*
X159419780Y-48695476D01*
X159363763Y-48843181D01*
X159344721Y-49000000D01*
X156000500Y-49000000D01*
X156000500Y-44524675D01*
X158629500Y-44524675D01*
X158644033Y-44597738D01*
X158644033Y-44597739D01*
X158644034Y-44597740D01*
X158699399Y-44680601D01*
X158782260Y-44735966D01*
X158818793Y-44743233D01*
X158855325Y-44750500D01*
X158855326Y-44750500D01*
X160604674Y-44750500D01*
X160604675Y-44750500D01*
X160629029Y-44745655D01*
X160677740Y-44735966D01*
X160760601Y-44680601D01*
X160815966Y-44597740D01*
X160830500Y-44524674D01*
X160830500Y-43650000D01*
X161164785Y-43650000D01*
X161183602Y-43853083D01*
X161239418Y-44049251D01*
X161330324Y-44231818D01*
X161453236Y-44394580D01*
X161603958Y-44531981D01*
X161777361Y-44639347D01*
X161777363Y-44639348D01*
X161967544Y-44713024D01*
X162168024Y-44750500D01*
X162371974Y-44750500D01*
X162371976Y-44750500D01*
X162572456Y-44713024D01*
X162762637Y-44639348D01*
X162936041Y-44531981D01*
X163086764Y-44394579D01*
X163209673Y-44231821D01*
X163209673Y-44231819D01*
X163209675Y-44231818D01*
X163255313Y-44140161D01*
X163300582Y-44049250D01*
X163343048Y-43900000D01*
X163737472Y-43900000D01*
X163779886Y-44049069D01*
X163870751Y-44231553D01*
X163993607Y-44394241D01*
X164144259Y-44531578D01*
X164317588Y-44638899D01*
X164507679Y-44712539D01*
X164560000Y-44722320D01*
X164560000Y-43900000D01*
X165060000Y-43900000D01*
X165060000Y-44722320D01*
X165112320Y-44712539D01*
X165302411Y-44638899D01*
X165475740Y-44531578D01*
X165626392Y-44394241D01*
X165749248Y-44231553D01*
X165840113Y-44049069D01*
X165882528Y-43900000D01*
X165060000Y-43900000D01*
X164560000Y-43900000D01*
X163737472Y-43900000D01*
X163343048Y-43900000D01*
X163356397Y-43853083D01*
X163375215Y-43650000D01*
X166244785Y-43650000D01*
X166263602Y-43853083D01*
X166319418Y-44049251D01*
X166410324Y-44231818D01*
X166533236Y-44394580D01*
X166683958Y-44531981D01*
X166857361Y-44639347D01*
X166857363Y-44639348D01*
X167047544Y-44713024D01*
X167248024Y-44750500D01*
X167451974Y-44750500D01*
X167451976Y-44750500D01*
X167652456Y-44713024D01*
X167842637Y-44639348D01*
X168016041Y-44531981D01*
X168166764Y-44394579D01*
X168289673Y-44231821D01*
X168289673Y-44231819D01*
X168289675Y-44231818D01*
X168335313Y-44140161D01*
X168380582Y-44049250D01*
X168436397Y-43853083D01*
X168455215Y-43650000D01*
X168436397Y-43446917D01*
X168380582Y-43250750D01*
X168380209Y-43250001D01*
X168289675Y-43068181D01*
X168166763Y-42905419D01*
X168016041Y-42768018D01*
X167842638Y-42660652D01*
X167652457Y-42586976D01*
X167529726Y-42564034D01*
X167451976Y-42549500D01*
X167248024Y-42549500D01*
X167170279Y-42564033D01*
X167047542Y-42586976D01*
X166857361Y-42660652D01*
X166683958Y-42768018D01*
X166533236Y-42905419D01*
X166410324Y-43068181D01*
X166319418Y-43250748D01*
X166263602Y-43446916D01*
X166244785Y-43650000D01*
X163375215Y-43650000D01*
X163356397Y-43446917D01*
X163343048Y-43399999D01*
X163737471Y-43399999D01*
X163737472Y-43400000D01*
X164560000Y-43400000D01*
X164560000Y-42577680D01*
X165060000Y-42577680D01*
X165060000Y-43400000D01*
X165882528Y-43400000D01*
X165882528Y-43399999D01*
X165840113Y-43250930D01*
X165749248Y-43068446D01*
X165626392Y-42905758D01*
X165475740Y-42768421D01*
X165302411Y-42661100D01*
X165112320Y-42587460D01*
X165060000Y-42577680D01*
X164560000Y-42577680D01*
X164507679Y-42587460D01*
X164317588Y-42661100D01*
X164144259Y-42768421D01*
X163993607Y-42905758D01*
X163870751Y-43068446D01*
X163779886Y-43250930D01*
X163737471Y-43399999D01*
X163343048Y-43399999D01*
X163300582Y-43250750D01*
X163300209Y-43250001D01*
X163209675Y-43068181D01*
X163086763Y-42905419D01*
X162936041Y-42768018D01*
X162762638Y-42660652D01*
X162572457Y-42586976D01*
X162449726Y-42564034D01*
X162371976Y-42549500D01*
X162168024Y-42549500D01*
X162090279Y-42564033D01*
X161967542Y-42586976D01*
X161777361Y-42660652D01*
X161603958Y-42768018D01*
X161453236Y-42905419D01*
X161330324Y-43068181D01*
X161239418Y-43250748D01*
X161183602Y-43446916D01*
X161164785Y-43650000D01*
X160830500Y-43650000D01*
X160830500Y-42775326D01*
X160829126Y-42768421D01*
X160815966Y-42702261D01*
X160815966Y-42702260D01*
X160760601Y-42619399D01*
X160677740Y-42564034D01*
X160677739Y-42564033D01*
X160677738Y-42564033D01*
X160604675Y-42549500D01*
X160604674Y-42549500D01*
X158855326Y-42549500D01*
X158855325Y-42549500D01*
X158782261Y-42564033D01*
X158699399Y-42619399D01*
X158644033Y-42702261D01*
X158629500Y-42775325D01*
X158629500Y-44524675D01*
X156000500Y-44524675D01*
X156000500Y-35124500D01*
X156017113Y-35062500D01*
X156062500Y-35017113D01*
X156124500Y-35000500D01*
X170875500Y-35000500D01*
X170937500Y-35017113D01*
G37*
%TD.AperFunction*%
%TD*%
%TA.AperFunction,Conductor*%
%TO.N,Board_22-GND*%
G36*
X155937500Y-80017113D02*
G01*
X155982887Y-80062500D01*
X155999500Y-80124500D01*
X155999500Y-94875500D01*
X155982887Y-94937500D01*
X155937500Y-94982887D01*
X155875500Y-94999500D01*
X141124500Y-94999500D01*
X141062500Y-94982887D01*
X141017113Y-94937500D01*
X141000500Y-94875500D01*
X141000500Y-94000000D01*
X144344721Y-94000000D01*
X144363763Y-94156818D01*
X144419780Y-94304523D01*
X144509515Y-94434528D01*
X144509516Y-94434529D01*
X144509517Y-94434530D01*
X144627760Y-94539283D01*
X144767635Y-94612696D01*
X144921015Y-94650500D01*
X145078985Y-94650500D01*
X145232365Y-94612696D01*
X145372240Y-94539283D01*
X145490483Y-94434530D01*
X145580220Y-94304523D01*
X145636237Y-94156818D01*
X145655278Y-94000000D01*
X145649102Y-93949143D01*
X145654980Y-93893751D01*
X145684515Y-93846520D01*
X146260119Y-93270917D01*
X146300348Y-93244037D01*
X146347801Y-93234598D01*
X148114192Y-93234598D01*
X148171819Y-93248802D01*
X148216243Y-93288160D01*
X148220015Y-93293626D01*
X148220016Y-93293627D01*
X148220017Y-93293628D01*
X148338260Y-93398381D01*
X148478135Y-93471794D01*
X148631515Y-93509598D01*
X148789485Y-93509598D01*
X148942865Y-93471794D01*
X149082740Y-93398381D01*
X149200983Y-93293628D01*
X149290720Y-93163621D01*
X149346737Y-93015916D01*
X149365778Y-92859098D01*
X149346737Y-92702280D01*
X149290720Y-92554575D01*
X149231924Y-92469394D01*
X149200984Y-92424569D01*
X149200983Y-92424568D01*
X149082740Y-92319815D01*
X149069494Y-92312862D01*
X148942864Y-92246401D01*
X148789485Y-92208598D01*
X148631515Y-92208598D01*
X148478135Y-92246401D01*
X148338261Y-92319814D01*
X148220015Y-92424569D01*
X148216243Y-92430036D01*
X148171819Y-92469394D01*
X148114192Y-92483598D01*
X146192707Y-92483598D01*
X146167261Y-92480959D01*
X146156635Y-92478731D01*
X146156634Y-92478731D01*
X146138760Y-92480959D01*
X146125225Y-92482646D01*
X146109888Y-92483598D01*
X146109786Y-92483598D01*
X146089301Y-92487016D01*
X146084234Y-92487755D01*
X146024469Y-92495205D01*
X146024214Y-92495287D01*
X145971272Y-92523936D01*
X145966722Y-92526278D01*
X145912617Y-92552730D01*
X145912407Y-92552886D01*
X145871621Y-92597191D01*
X145868074Y-92600887D01*
X145155780Y-93313181D01*
X145115552Y-93340061D01*
X145068099Y-93349500D01*
X144921015Y-93349500D01*
X144767635Y-93387303D01*
X144627761Y-93460716D01*
X144509515Y-93565471D01*
X144419780Y-93695476D01*
X144363763Y-93843181D01*
X144344721Y-94000000D01*
X141000500Y-94000000D01*
X141000500Y-89524675D01*
X143629500Y-89524675D01*
X143644033Y-89597738D01*
X143644033Y-89597739D01*
X143644034Y-89597740D01*
X143699399Y-89680601D01*
X143782260Y-89735966D01*
X143818793Y-89743233D01*
X143855325Y-89750500D01*
X143855326Y-89750500D01*
X145604674Y-89750500D01*
X145604675Y-89750500D01*
X145629029Y-89745655D01*
X145677740Y-89735966D01*
X145760601Y-89680601D01*
X145815966Y-89597740D01*
X145830500Y-89524674D01*
X145830500Y-88650000D01*
X146164785Y-88650000D01*
X146183602Y-88853083D01*
X146239418Y-89049251D01*
X146330324Y-89231818D01*
X146453236Y-89394580D01*
X146603958Y-89531981D01*
X146777361Y-89639347D01*
X146777363Y-89639348D01*
X146967544Y-89713024D01*
X147168024Y-89750500D01*
X147371974Y-89750500D01*
X147371976Y-89750500D01*
X147572456Y-89713024D01*
X147762637Y-89639348D01*
X147936041Y-89531981D01*
X148086764Y-89394579D01*
X148209673Y-89231821D01*
X148209673Y-89231819D01*
X148209675Y-89231818D01*
X148255313Y-89140161D01*
X148300582Y-89049250D01*
X148343048Y-88900000D01*
X148737472Y-88900000D01*
X148779886Y-89049069D01*
X148870751Y-89231553D01*
X148993607Y-89394241D01*
X149144259Y-89531578D01*
X149317588Y-89638899D01*
X149507679Y-89712539D01*
X149560000Y-89722320D01*
X149560000Y-88900000D01*
X150060000Y-88900000D01*
X150060000Y-89722320D01*
X150112320Y-89712539D01*
X150302411Y-89638899D01*
X150475740Y-89531578D01*
X150626392Y-89394241D01*
X150749248Y-89231553D01*
X150840113Y-89049069D01*
X150882528Y-88900000D01*
X150060000Y-88900000D01*
X149560000Y-88900000D01*
X148737472Y-88900000D01*
X148343048Y-88900000D01*
X148356397Y-88853083D01*
X148375215Y-88650000D01*
X151244785Y-88650000D01*
X151263602Y-88853083D01*
X151319418Y-89049251D01*
X151410324Y-89231818D01*
X151533236Y-89394580D01*
X151683958Y-89531981D01*
X151857361Y-89639347D01*
X151857363Y-89639348D01*
X152047544Y-89713024D01*
X152248024Y-89750500D01*
X152451974Y-89750500D01*
X152451976Y-89750500D01*
X152652456Y-89713024D01*
X152842637Y-89639348D01*
X153016041Y-89531981D01*
X153166764Y-89394579D01*
X153289673Y-89231821D01*
X153289673Y-89231819D01*
X153289675Y-89231818D01*
X153335313Y-89140161D01*
X153380582Y-89049250D01*
X153436397Y-88853083D01*
X153455215Y-88650000D01*
X153436397Y-88446917D01*
X153380582Y-88250750D01*
X153380209Y-88250001D01*
X153289675Y-88068181D01*
X153166763Y-87905419D01*
X153016041Y-87768018D01*
X152842638Y-87660652D01*
X152652457Y-87586976D01*
X152529726Y-87564034D01*
X152451976Y-87549500D01*
X152248024Y-87549500D01*
X152170279Y-87564033D01*
X152047542Y-87586976D01*
X151857361Y-87660652D01*
X151683958Y-87768018D01*
X151533236Y-87905419D01*
X151410324Y-88068181D01*
X151319418Y-88250748D01*
X151263602Y-88446916D01*
X151244785Y-88650000D01*
X148375215Y-88650000D01*
X148356397Y-88446917D01*
X148343048Y-88399999D01*
X148737471Y-88399999D01*
X148737472Y-88400000D01*
X149560000Y-88400000D01*
X149560000Y-87577680D01*
X150060000Y-87577680D01*
X150060000Y-88400000D01*
X150882528Y-88400000D01*
X150882528Y-88399999D01*
X150840113Y-88250930D01*
X150749248Y-88068446D01*
X150626392Y-87905758D01*
X150475740Y-87768421D01*
X150302411Y-87661100D01*
X150112320Y-87587460D01*
X150060000Y-87577680D01*
X149560000Y-87577680D01*
X149507679Y-87587460D01*
X149317588Y-87661100D01*
X149144259Y-87768421D01*
X148993607Y-87905758D01*
X148870751Y-88068446D01*
X148779886Y-88250930D01*
X148737471Y-88399999D01*
X148343048Y-88399999D01*
X148300582Y-88250750D01*
X148300209Y-88250001D01*
X148209675Y-88068181D01*
X148086763Y-87905419D01*
X147936041Y-87768018D01*
X147762638Y-87660652D01*
X147572457Y-87586976D01*
X147449726Y-87564034D01*
X147371976Y-87549500D01*
X147168024Y-87549500D01*
X147090279Y-87564033D01*
X146967542Y-87586976D01*
X146777361Y-87660652D01*
X146603958Y-87768018D01*
X146453236Y-87905419D01*
X146330324Y-88068181D01*
X146239418Y-88250748D01*
X146183602Y-88446916D01*
X146164785Y-88650000D01*
X145830500Y-88650000D01*
X145830500Y-87775326D01*
X145829126Y-87768421D01*
X145815966Y-87702261D01*
X145815966Y-87702260D01*
X145760601Y-87619399D01*
X145677740Y-87564034D01*
X145677739Y-87564033D01*
X145677738Y-87564033D01*
X145604675Y-87549500D01*
X145604674Y-87549500D01*
X143855326Y-87549500D01*
X143855325Y-87549500D01*
X143782261Y-87564033D01*
X143699399Y-87619399D01*
X143644033Y-87702261D01*
X143629500Y-87775325D01*
X143629500Y-89524675D01*
X141000500Y-89524675D01*
X141000500Y-80124500D01*
X141017113Y-80062500D01*
X141062500Y-80017113D01*
X141124500Y-80000500D01*
X155875500Y-80000500D01*
X155937500Y-80017113D01*
G37*
%TD.AperFunction*%
%TD*%
%TA.AperFunction,Conductor*%
%TO.N,Board_14-GND*%
G36*
X185937500Y-50017113D02*
G01*
X185982887Y-50062500D01*
X185999500Y-50124500D01*
X185999500Y-64875500D01*
X185982887Y-64937500D01*
X185937500Y-64982887D01*
X185875500Y-64999500D01*
X171124500Y-64999500D01*
X171062500Y-64982887D01*
X171017113Y-64937500D01*
X171000500Y-64875500D01*
X171000500Y-64000000D01*
X174344721Y-64000000D01*
X174363763Y-64156818D01*
X174419780Y-64304523D01*
X174509515Y-64434528D01*
X174509516Y-64434529D01*
X174509517Y-64434530D01*
X174627760Y-64539283D01*
X174767635Y-64612696D01*
X174921015Y-64650500D01*
X175078985Y-64650500D01*
X175232365Y-64612696D01*
X175372240Y-64539283D01*
X175490483Y-64434530D01*
X175580220Y-64304523D01*
X175636237Y-64156818D01*
X175655278Y-64000000D01*
X175649102Y-63949143D01*
X175654980Y-63893751D01*
X175684515Y-63846520D01*
X176260119Y-63270917D01*
X176300348Y-63244037D01*
X176347801Y-63234598D01*
X178114192Y-63234598D01*
X178171819Y-63248802D01*
X178216243Y-63288160D01*
X178220015Y-63293626D01*
X178220016Y-63293627D01*
X178220017Y-63293628D01*
X178338260Y-63398381D01*
X178478135Y-63471794D01*
X178631515Y-63509598D01*
X178789485Y-63509598D01*
X178942865Y-63471794D01*
X179082740Y-63398381D01*
X179200983Y-63293628D01*
X179290720Y-63163621D01*
X179346737Y-63015916D01*
X179365778Y-62859098D01*
X179346737Y-62702280D01*
X179290720Y-62554575D01*
X179231924Y-62469394D01*
X179200984Y-62424569D01*
X179200983Y-62424568D01*
X179082740Y-62319815D01*
X179069494Y-62312862D01*
X178942864Y-62246401D01*
X178789485Y-62208598D01*
X178631515Y-62208598D01*
X178478135Y-62246401D01*
X178338261Y-62319814D01*
X178220015Y-62424569D01*
X178216243Y-62430036D01*
X178171819Y-62469394D01*
X178114192Y-62483598D01*
X176192707Y-62483598D01*
X176167261Y-62480959D01*
X176156635Y-62478731D01*
X176156634Y-62478731D01*
X176138760Y-62480959D01*
X176125225Y-62482646D01*
X176109888Y-62483598D01*
X176109786Y-62483598D01*
X176089301Y-62487016D01*
X176084234Y-62487755D01*
X176024469Y-62495205D01*
X176024214Y-62495287D01*
X175971272Y-62523936D01*
X175966722Y-62526278D01*
X175912617Y-62552730D01*
X175912407Y-62552886D01*
X175871621Y-62597191D01*
X175868074Y-62600887D01*
X175155780Y-63313181D01*
X175115552Y-63340061D01*
X175068099Y-63349500D01*
X174921015Y-63349500D01*
X174767635Y-63387303D01*
X174627761Y-63460716D01*
X174509515Y-63565471D01*
X174419780Y-63695476D01*
X174363763Y-63843181D01*
X174344721Y-64000000D01*
X171000500Y-64000000D01*
X171000500Y-59524675D01*
X173629500Y-59524675D01*
X173644033Y-59597738D01*
X173644033Y-59597739D01*
X173644034Y-59597740D01*
X173699399Y-59680601D01*
X173782260Y-59735966D01*
X173818793Y-59743233D01*
X173855325Y-59750500D01*
X173855326Y-59750500D01*
X175604674Y-59750500D01*
X175604675Y-59750500D01*
X175629029Y-59745655D01*
X175677740Y-59735966D01*
X175760601Y-59680601D01*
X175815966Y-59597740D01*
X175830500Y-59524674D01*
X175830500Y-58650000D01*
X176164785Y-58650000D01*
X176183602Y-58853083D01*
X176239418Y-59049251D01*
X176330324Y-59231818D01*
X176453236Y-59394580D01*
X176603958Y-59531981D01*
X176777361Y-59639347D01*
X176777363Y-59639348D01*
X176967544Y-59713024D01*
X177168024Y-59750500D01*
X177371974Y-59750500D01*
X177371976Y-59750500D01*
X177572456Y-59713024D01*
X177762637Y-59639348D01*
X177936041Y-59531981D01*
X178086764Y-59394579D01*
X178209673Y-59231821D01*
X178209673Y-59231819D01*
X178209675Y-59231818D01*
X178255313Y-59140161D01*
X178300582Y-59049250D01*
X178343048Y-58900000D01*
X178737472Y-58900000D01*
X178779886Y-59049069D01*
X178870751Y-59231553D01*
X178993607Y-59394241D01*
X179144259Y-59531578D01*
X179317588Y-59638899D01*
X179507679Y-59712539D01*
X179560000Y-59722320D01*
X179560000Y-58900000D01*
X180060000Y-58900000D01*
X180060000Y-59722320D01*
X180112320Y-59712539D01*
X180302411Y-59638899D01*
X180475740Y-59531578D01*
X180626392Y-59394241D01*
X180749248Y-59231553D01*
X180840113Y-59049069D01*
X180882528Y-58900000D01*
X180060000Y-58900000D01*
X179560000Y-58900000D01*
X178737472Y-58900000D01*
X178343048Y-58900000D01*
X178356397Y-58853083D01*
X178375215Y-58650000D01*
X181244785Y-58650000D01*
X181263602Y-58853083D01*
X181319418Y-59049251D01*
X181410324Y-59231818D01*
X181533236Y-59394580D01*
X181683958Y-59531981D01*
X181857361Y-59639347D01*
X181857363Y-59639348D01*
X182047544Y-59713024D01*
X182248024Y-59750500D01*
X182451974Y-59750500D01*
X182451976Y-59750500D01*
X182652456Y-59713024D01*
X182842637Y-59639348D01*
X183016041Y-59531981D01*
X183166764Y-59394579D01*
X183289673Y-59231821D01*
X183289673Y-59231819D01*
X183289675Y-59231818D01*
X183335313Y-59140161D01*
X183380582Y-59049250D01*
X183436397Y-58853083D01*
X183455215Y-58650000D01*
X183436397Y-58446917D01*
X183380582Y-58250750D01*
X183380209Y-58250001D01*
X183289675Y-58068181D01*
X183166763Y-57905419D01*
X183016041Y-57768018D01*
X182842638Y-57660652D01*
X182652457Y-57586976D01*
X182529726Y-57564034D01*
X182451976Y-57549500D01*
X182248024Y-57549500D01*
X182170279Y-57564033D01*
X182047542Y-57586976D01*
X181857361Y-57660652D01*
X181683958Y-57768018D01*
X181533236Y-57905419D01*
X181410324Y-58068181D01*
X181319418Y-58250748D01*
X181263602Y-58446916D01*
X181244785Y-58650000D01*
X178375215Y-58650000D01*
X178356397Y-58446917D01*
X178343048Y-58399999D01*
X178737471Y-58399999D01*
X178737472Y-58400000D01*
X179560000Y-58400000D01*
X179560000Y-57577680D01*
X180060000Y-57577680D01*
X180060000Y-58400000D01*
X180882528Y-58400000D01*
X180882528Y-58399999D01*
X180840113Y-58250930D01*
X180749248Y-58068446D01*
X180626392Y-57905758D01*
X180475740Y-57768421D01*
X180302411Y-57661100D01*
X180112320Y-57587460D01*
X180060000Y-57577680D01*
X179560000Y-57577680D01*
X179507679Y-57587460D01*
X179317588Y-57661100D01*
X179144259Y-57768421D01*
X178993607Y-57905758D01*
X178870751Y-58068446D01*
X178779886Y-58250930D01*
X178737471Y-58399999D01*
X178343048Y-58399999D01*
X178300582Y-58250750D01*
X178300209Y-58250001D01*
X178209675Y-58068181D01*
X178086763Y-57905419D01*
X177936041Y-57768018D01*
X177762638Y-57660652D01*
X177572457Y-57586976D01*
X177449726Y-57564034D01*
X177371976Y-57549500D01*
X177168024Y-57549500D01*
X177090279Y-57564033D01*
X176967542Y-57586976D01*
X176777361Y-57660652D01*
X176603958Y-57768018D01*
X176453236Y-57905419D01*
X176330324Y-58068181D01*
X176239418Y-58250748D01*
X176183602Y-58446916D01*
X176164785Y-58650000D01*
X175830500Y-58650000D01*
X175830500Y-57775326D01*
X175829126Y-57768421D01*
X175815966Y-57702261D01*
X175815966Y-57702260D01*
X175760601Y-57619399D01*
X175677740Y-57564034D01*
X175677739Y-57564033D01*
X175677738Y-57564033D01*
X175604675Y-57549500D01*
X175604674Y-57549500D01*
X173855326Y-57549500D01*
X173855325Y-57549500D01*
X173782261Y-57564033D01*
X173699399Y-57619399D01*
X173644033Y-57702261D01*
X173629500Y-57775325D01*
X173629500Y-59524675D01*
X171000500Y-59524675D01*
X171000500Y-50124500D01*
X171017113Y-50062500D01*
X171062500Y-50017113D01*
X171124500Y-50000500D01*
X185875500Y-50000500D01*
X185937500Y-50017113D01*
G37*
%TD.AperFunction*%
%TD*%
%TA.AperFunction,Conductor*%
%TO.N,Board_12-GND*%
G36*
X155937500Y-50017113D02*
G01*
X155982887Y-50062500D01*
X155999500Y-50124500D01*
X155999500Y-64875500D01*
X155982887Y-64937500D01*
X155937500Y-64982887D01*
X155875500Y-64999500D01*
X141124500Y-64999500D01*
X141062500Y-64982887D01*
X141017113Y-64937500D01*
X141000500Y-64875500D01*
X141000500Y-64000000D01*
X144344721Y-64000000D01*
X144363763Y-64156818D01*
X144419780Y-64304523D01*
X144509515Y-64434528D01*
X144509516Y-64434529D01*
X144509517Y-64434530D01*
X144627760Y-64539283D01*
X144767635Y-64612696D01*
X144921015Y-64650500D01*
X145078985Y-64650500D01*
X145232365Y-64612696D01*
X145372240Y-64539283D01*
X145490483Y-64434530D01*
X145580220Y-64304523D01*
X145636237Y-64156818D01*
X145655278Y-64000000D01*
X145649102Y-63949143D01*
X145654980Y-63893751D01*
X145684515Y-63846520D01*
X146260119Y-63270917D01*
X146300348Y-63244037D01*
X146347801Y-63234598D01*
X148114192Y-63234598D01*
X148171819Y-63248802D01*
X148216243Y-63288160D01*
X148220015Y-63293626D01*
X148220016Y-63293627D01*
X148220017Y-63293628D01*
X148338260Y-63398381D01*
X148478135Y-63471794D01*
X148631515Y-63509598D01*
X148789485Y-63509598D01*
X148942865Y-63471794D01*
X149082740Y-63398381D01*
X149200983Y-63293628D01*
X149290720Y-63163621D01*
X149346737Y-63015916D01*
X149365778Y-62859098D01*
X149346737Y-62702280D01*
X149290720Y-62554575D01*
X149231924Y-62469394D01*
X149200984Y-62424569D01*
X149200983Y-62424568D01*
X149082740Y-62319815D01*
X149069494Y-62312862D01*
X148942864Y-62246401D01*
X148789485Y-62208598D01*
X148631515Y-62208598D01*
X148478135Y-62246401D01*
X148338261Y-62319814D01*
X148220015Y-62424569D01*
X148216243Y-62430036D01*
X148171819Y-62469394D01*
X148114192Y-62483598D01*
X146192707Y-62483598D01*
X146167261Y-62480959D01*
X146156635Y-62478731D01*
X146156634Y-62478731D01*
X146138760Y-62480959D01*
X146125225Y-62482646D01*
X146109888Y-62483598D01*
X146109786Y-62483598D01*
X146089301Y-62487016D01*
X146084234Y-62487755D01*
X146024469Y-62495205D01*
X146024214Y-62495287D01*
X145971272Y-62523936D01*
X145966722Y-62526278D01*
X145912617Y-62552730D01*
X145912407Y-62552886D01*
X145871621Y-62597191D01*
X145868074Y-62600887D01*
X145155780Y-63313181D01*
X145115552Y-63340061D01*
X145068099Y-63349500D01*
X144921015Y-63349500D01*
X144767635Y-63387303D01*
X144627761Y-63460716D01*
X144509515Y-63565471D01*
X144419780Y-63695476D01*
X144363763Y-63843181D01*
X144344721Y-64000000D01*
X141000500Y-64000000D01*
X141000500Y-59524675D01*
X143629500Y-59524675D01*
X143644033Y-59597738D01*
X143644033Y-59597739D01*
X143644034Y-59597740D01*
X143699399Y-59680601D01*
X143782260Y-59735966D01*
X143818793Y-59743233D01*
X143855325Y-59750500D01*
X143855326Y-59750500D01*
X145604674Y-59750500D01*
X145604675Y-59750500D01*
X145629029Y-59745655D01*
X145677740Y-59735966D01*
X145760601Y-59680601D01*
X145815966Y-59597740D01*
X145830500Y-59524674D01*
X145830500Y-58650000D01*
X146164785Y-58650000D01*
X146183602Y-58853083D01*
X146239418Y-59049251D01*
X146330324Y-59231818D01*
X146453236Y-59394580D01*
X146603958Y-59531981D01*
X146777361Y-59639347D01*
X146777363Y-59639348D01*
X146967544Y-59713024D01*
X147168024Y-59750500D01*
X147371974Y-59750500D01*
X147371976Y-59750500D01*
X147572456Y-59713024D01*
X147762637Y-59639348D01*
X147936041Y-59531981D01*
X148086764Y-59394579D01*
X148209673Y-59231821D01*
X148209673Y-59231819D01*
X148209675Y-59231818D01*
X148255313Y-59140161D01*
X148300582Y-59049250D01*
X148343048Y-58900000D01*
X148737472Y-58900000D01*
X148779886Y-59049069D01*
X148870751Y-59231553D01*
X148993607Y-59394241D01*
X149144259Y-59531578D01*
X149317588Y-59638899D01*
X149507679Y-59712539D01*
X149560000Y-59722320D01*
X149560000Y-58900000D01*
X150060000Y-58900000D01*
X150060000Y-59722320D01*
X150112320Y-59712539D01*
X150302411Y-59638899D01*
X150475740Y-59531578D01*
X150626392Y-59394241D01*
X150749248Y-59231553D01*
X150840113Y-59049069D01*
X150882528Y-58900000D01*
X150060000Y-58900000D01*
X149560000Y-58900000D01*
X148737472Y-58900000D01*
X148343048Y-58900000D01*
X148356397Y-58853083D01*
X148375215Y-58650000D01*
X151244785Y-58650000D01*
X151263602Y-58853083D01*
X151319418Y-59049251D01*
X151410324Y-59231818D01*
X151533236Y-59394580D01*
X151683958Y-59531981D01*
X151857361Y-59639347D01*
X151857363Y-59639348D01*
X152047544Y-59713024D01*
X152248024Y-59750500D01*
X152451974Y-59750500D01*
X152451976Y-59750500D01*
X152652456Y-59713024D01*
X152842637Y-59639348D01*
X153016041Y-59531981D01*
X153166764Y-59394579D01*
X153289673Y-59231821D01*
X153289673Y-59231819D01*
X153289675Y-59231818D01*
X153335313Y-59140161D01*
X153380582Y-59049250D01*
X153436397Y-58853083D01*
X153455215Y-58650000D01*
X153436397Y-58446917D01*
X153380582Y-58250750D01*
X153380209Y-58250001D01*
X153289675Y-58068181D01*
X153166763Y-57905419D01*
X153016041Y-57768018D01*
X152842638Y-57660652D01*
X152652457Y-57586976D01*
X152529726Y-57564034D01*
X152451976Y-57549500D01*
X152248024Y-57549500D01*
X152170279Y-57564033D01*
X152047542Y-57586976D01*
X151857361Y-57660652D01*
X151683958Y-57768018D01*
X151533236Y-57905419D01*
X151410324Y-58068181D01*
X151319418Y-58250748D01*
X151263602Y-58446916D01*
X151244785Y-58650000D01*
X148375215Y-58650000D01*
X148356397Y-58446917D01*
X148343048Y-58399999D01*
X148737471Y-58399999D01*
X148737472Y-58400000D01*
X149560000Y-58400000D01*
X149560000Y-57577680D01*
X150060000Y-57577680D01*
X150060000Y-58400000D01*
X150882528Y-58400000D01*
X150882528Y-58399999D01*
X150840113Y-58250930D01*
X150749248Y-58068446D01*
X150626392Y-57905758D01*
X150475740Y-57768421D01*
X150302411Y-57661100D01*
X150112320Y-57587460D01*
X150060000Y-57577680D01*
X149560000Y-57577680D01*
X149507679Y-57587460D01*
X149317588Y-57661100D01*
X149144259Y-57768421D01*
X148993607Y-57905758D01*
X148870751Y-58068446D01*
X148779886Y-58250930D01*
X148737471Y-58399999D01*
X148343048Y-58399999D01*
X148300582Y-58250750D01*
X148300209Y-58250001D01*
X148209675Y-58068181D01*
X148086763Y-57905419D01*
X147936041Y-57768018D01*
X147762638Y-57660652D01*
X147572457Y-57586976D01*
X147449726Y-57564034D01*
X147371976Y-57549500D01*
X147168024Y-57549500D01*
X147090279Y-57564033D01*
X146967542Y-57586976D01*
X146777361Y-57660652D01*
X146603958Y-57768018D01*
X146453236Y-57905419D01*
X146330324Y-58068181D01*
X146239418Y-58250748D01*
X146183602Y-58446916D01*
X146164785Y-58650000D01*
X145830500Y-58650000D01*
X145830500Y-57775326D01*
X145829126Y-57768421D01*
X145815966Y-57702261D01*
X145815966Y-57702260D01*
X145760601Y-57619399D01*
X145677740Y-57564034D01*
X145677739Y-57564033D01*
X145677738Y-57564033D01*
X145604675Y-57549500D01*
X145604674Y-57549500D01*
X143855326Y-57549500D01*
X143855325Y-57549500D01*
X143782261Y-57564033D01*
X143699399Y-57619399D01*
X143644033Y-57702261D01*
X143629500Y-57775325D01*
X143629500Y-59524675D01*
X141000500Y-59524675D01*
X141000500Y-50124500D01*
X141017113Y-50062500D01*
X141062500Y-50017113D01*
X141124500Y-50000500D01*
X155875500Y-50000500D01*
X155937500Y-50017113D01*
G37*
%TD.AperFunction*%
%TD*%
%TA.AperFunction,Conductor*%
%TO.N,Board_9-GND*%
G36*
X185937500Y-35017113D02*
G01*
X185982887Y-35062500D01*
X185999500Y-35124500D01*
X185999500Y-49875500D01*
X185982887Y-49937500D01*
X185937500Y-49982887D01*
X185875500Y-49999500D01*
X171124500Y-49999500D01*
X171062500Y-49982887D01*
X171017113Y-49937500D01*
X171000500Y-49875500D01*
X171000500Y-49000000D01*
X174344721Y-49000000D01*
X174363763Y-49156818D01*
X174419780Y-49304523D01*
X174509515Y-49434528D01*
X174509516Y-49434529D01*
X174509517Y-49434530D01*
X174627760Y-49539283D01*
X174767635Y-49612696D01*
X174921015Y-49650500D01*
X175078985Y-49650500D01*
X175232365Y-49612696D01*
X175372240Y-49539283D01*
X175490483Y-49434530D01*
X175580220Y-49304523D01*
X175636237Y-49156818D01*
X175655278Y-49000000D01*
X175649102Y-48949143D01*
X175654980Y-48893751D01*
X175684515Y-48846520D01*
X176260119Y-48270917D01*
X176300348Y-48244037D01*
X176347801Y-48234598D01*
X178114192Y-48234598D01*
X178171819Y-48248802D01*
X178216243Y-48288160D01*
X178220015Y-48293626D01*
X178220016Y-48293627D01*
X178220017Y-48293628D01*
X178338260Y-48398381D01*
X178478135Y-48471794D01*
X178631515Y-48509598D01*
X178789485Y-48509598D01*
X178942865Y-48471794D01*
X179082740Y-48398381D01*
X179200983Y-48293628D01*
X179290720Y-48163621D01*
X179346737Y-48015916D01*
X179365778Y-47859098D01*
X179346737Y-47702280D01*
X179290720Y-47554575D01*
X179231924Y-47469394D01*
X179200984Y-47424569D01*
X179200983Y-47424568D01*
X179082740Y-47319815D01*
X179069494Y-47312862D01*
X178942864Y-47246401D01*
X178789485Y-47208598D01*
X178631515Y-47208598D01*
X178478135Y-47246401D01*
X178338261Y-47319814D01*
X178220015Y-47424569D01*
X178216243Y-47430036D01*
X178171819Y-47469394D01*
X178114192Y-47483598D01*
X176192707Y-47483598D01*
X176167261Y-47480959D01*
X176156635Y-47478731D01*
X176156634Y-47478731D01*
X176138760Y-47480959D01*
X176125225Y-47482646D01*
X176109888Y-47483598D01*
X176109786Y-47483598D01*
X176089301Y-47487016D01*
X176084234Y-47487755D01*
X176024469Y-47495205D01*
X176024214Y-47495287D01*
X175971272Y-47523936D01*
X175966722Y-47526278D01*
X175912617Y-47552730D01*
X175912407Y-47552886D01*
X175871621Y-47597191D01*
X175868074Y-47600887D01*
X175155780Y-48313181D01*
X175115552Y-48340061D01*
X175068099Y-48349500D01*
X174921015Y-48349500D01*
X174767635Y-48387303D01*
X174627761Y-48460716D01*
X174509515Y-48565471D01*
X174419780Y-48695476D01*
X174363763Y-48843181D01*
X174344721Y-49000000D01*
X171000500Y-49000000D01*
X171000500Y-44524675D01*
X173629500Y-44524675D01*
X173644033Y-44597738D01*
X173644033Y-44597739D01*
X173644034Y-44597740D01*
X173699399Y-44680601D01*
X173782260Y-44735966D01*
X173818793Y-44743233D01*
X173855325Y-44750500D01*
X173855326Y-44750500D01*
X175604674Y-44750500D01*
X175604675Y-44750500D01*
X175629029Y-44745655D01*
X175677740Y-44735966D01*
X175760601Y-44680601D01*
X175815966Y-44597740D01*
X175830500Y-44524674D01*
X175830500Y-43650000D01*
X176164785Y-43650000D01*
X176183602Y-43853083D01*
X176239418Y-44049251D01*
X176330324Y-44231818D01*
X176453236Y-44394580D01*
X176603958Y-44531981D01*
X176777361Y-44639347D01*
X176777363Y-44639348D01*
X176967544Y-44713024D01*
X177168024Y-44750500D01*
X177371974Y-44750500D01*
X177371976Y-44750500D01*
X177572456Y-44713024D01*
X177762637Y-44639348D01*
X177936041Y-44531981D01*
X178086764Y-44394579D01*
X178209673Y-44231821D01*
X178209673Y-44231819D01*
X178209675Y-44231818D01*
X178255313Y-44140161D01*
X178300582Y-44049250D01*
X178343048Y-43900000D01*
X178737472Y-43900000D01*
X178779886Y-44049069D01*
X178870751Y-44231553D01*
X178993607Y-44394241D01*
X179144259Y-44531578D01*
X179317588Y-44638899D01*
X179507679Y-44712539D01*
X179560000Y-44722320D01*
X179560000Y-43900000D01*
X180060000Y-43900000D01*
X180060000Y-44722320D01*
X180112320Y-44712539D01*
X180302411Y-44638899D01*
X180475740Y-44531578D01*
X180626392Y-44394241D01*
X180749248Y-44231553D01*
X180840113Y-44049069D01*
X180882528Y-43900000D01*
X180060000Y-43900000D01*
X179560000Y-43900000D01*
X178737472Y-43900000D01*
X178343048Y-43900000D01*
X178356397Y-43853083D01*
X178375215Y-43650000D01*
X181244785Y-43650000D01*
X181263602Y-43853083D01*
X181319418Y-44049251D01*
X181410324Y-44231818D01*
X181533236Y-44394580D01*
X181683958Y-44531981D01*
X181857361Y-44639347D01*
X181857363Y-44639348D01*
X182047544Y-44713024D01*
X182248024Y-44750500D01*
X182451974Y-44750500D01*
X182451976Y-44750500D01*
X182652456Y-44713024D01*
X182842637Y-44639348D01*
X183016041Y-44531981D01*
X183166764Y-44394579D01*
X183289673Y-44231821D01*
X183289673Y-44231819D01*
X183289675Y-44231818D01*
X183335313Y-44140161D01*
X183380582Y-44049250D01*
X183436397Y-43853083D01*
X183455215Y-43650000D01*
X183436397Y-43446917D01*
X183380582Y-43250750D01*
X183380209Y-43250001D01*
X183289675Y-43068181D01*
X183166763Y-42905419D01*
X183016041Y-42768018D01*
X182842638Y-42660652D01*
X182652457Y-42586976D01*
X182529726Y-42564034D01*
X182451976Y-42549500D01*
X182248024Y-42549500D01*
X182170279Y-42564033D01*
X182047542Y-42586976D01*
X181857361Y-42660652D01*
X181683958Y-42768018D01*
X181533236Y-42905419D01*
X181410324Y-43068181D01*
X181319418Y-43250748D01*
X181263602Y-43446916D01*
X181244785Y-43650000D01*
X178375215Y-43650000D01*
X178356397Y-43446917D01*
X178343048Y-43399999D01*
X178737471Y-43399999D01*
X178737472Y-43400000D01*
X179560000Y-43400000D01*
X179560000Y-42577680D01*
X180060000Y-42577680D01*
X180060000Y-43400000D01*
X180882528Y-43400000D01*
X180882528Y-43399999D01*
X180840113Y-43250930D01*
X180749248Y-43068446D01*
X180626392Y-42905758D01*
X180475740Y-42768421D01*
X180302411Y-42661100D01*
X180112320Y-42587460D01*
X180060000Y-42577680D01*
X179560000Y-42577680D01*
X179507679Y-42587460D01*
X179317588Y-42661100D01*
X179144259Y-42768421D01*
X178993607Y-42905758D01*
X178870751Y-43068446D01*
X178779886Y-43250930D01*
X178737471Y-43399999D01*
X178343048Y-43399999D01*
X178300582Y-43250750D01*
X178300209Y-43250001D01*
X178209675Y-43068181D01*
X178086763Y-42905419D01*
X177936041Y-42768018D01*
X177762638Y-42660652D01*
X177572457Y-42586976D01*
X177449726Y-42564034D01*
X177371976Y-42549500D01*
X177168024Y-42549500D01*
X177090279Y-42564033D01*
X176967542Y-42586976D01*
X176777361Y-42660652D01*
X176603958Y-42768018D01*
X176453236Y-42905419D01*
X176330324Y-43068181D01*
X176239418Y-43250748D01*
X176183602Y-43446916D01*
X176164785Y-43650000D01*
X175830500Y-43650000D01*
X175830500Y-42775326D01*
X175829126Y-42768421D01*
X175815966Y-42702261D01*
X175815966Y-42702260D01*
X175760601Y-42619399D01*
X175677740Y-42564034D01*
X175677739Y-42564033D01*
X175677738Y-42564033D01*
X175604675Y-42549500D01*
X175604674Y-42549500D01*
X173855326Y-42549500D01*
X173855325Y-42549500D01*
X173782261Y-42564033D01*
X173699399Y-42619399D01*
X173644033Y-42702261D01*
X173629500Y-42775325D01*
X173629500Y-44524675D01*
X171000500Y-44524675D01*
X171000500Y-35124500D01*
X171017113Y-35062500D01*
X171062500Y-35017113D01*
X171124500Y-35000500D01*
X185875500Y-35000500D01*
X185937500Y-35017113D01*
G37*
%TD.AperFunction*%
%TD*%
%TA.AperFunction,Conductor*%
%TO.N,Board_21-GND*%
G36*
X140937500Y-80017113D02*
G01*
X140982887Y-80062500D01*
X140999500Y-80124500D01*
X140999500Y-94875500D01*
X140982887Y-94937500D01*
X140937500Y-94982887D01*
X140875500Y-94999500D01*
X126124500Y-94999500D01*
X126062500Y-94982887D01*
X126017113Y-94937500D01*
X126000500Y-94875500D01*
X126000500Y-94000000D01*
X129344721Y-94000000D01*
X129363763Y-94156818D01*
X129419780Y-94304523D01*
X129509515Y-94434528D01*
X129509516Y-94434529D01*
X129509517Y-94434530D01*
X129627760Y-94539283D01*
X129767635Y-94612696D01*
X129921015Y-94650500D01*
X130078985Y-94650500D01*
X130232365Y-94612696D01*
X130372240Y-94539283D01*
X130490483Y-94434530D01*
X130580220Y-94304523D01*
X130636237Y-94156818D01*
X130655278Y-94000000D01*
X130649102Y-93949143D01*
X130654980Y-93893751D01*
X130684515Y-93846520D01*
X131260119Y-93270917D01*
X131300348Y-93244037D01*
X131347801Y-93234598D01*
X133114192Y-93234598D01*
X133171819Y-93248802D01*
X133216243Y-93288160D01*
X133220015Y-93293626D01*
X133220016Y-93293627D01*
X133220017Y-93293628D01*
X133338260Y-93398381D01*
X133478135Y-93471794D01*
X133631515Y-93509598D01*
X133789485Y-93509598D01*
X133942865Y-93471794D01*
X134082740Y-93398381D01*
X134200983Y-93293628D01*
X134290720Y-93163621D01*
X134346737Y-93015916D01*
X134365778Y-92859098D01*
X134346737Y-92702280D01*
X134290720Y-92554575D01*
X134231924Y-92469394D01*
X134200984Y-92424569D01*
X134200983Y-92424568D01*
X134082740Y-92319815D01*
X134069494Y-92312862D01*
X133942864Y-92246401D01*
X133789485Y-92208598D01*
X133631515Y-92208598D01*
X133478135Y-92246401D01*
X133338261Y-92319814D01*
X133220015Y-92424569D01*
X133216243Y-92430036D01*
X133171819Y-92469394D01*
X133114192Y-92483598D01*
X131192707Y-92483598D01*
X131167261Y-92480959D01*
X131156635Y-92478731D01*
X131156634Y-92478731D01*
X131138760Y-92480959D01*
X131125225Y-92482646D01*
X131109888Y-92483598D01*
X131109786Y-92483598D01*
X131089301Y-92487016D01*
X131084234Y-92487755D01*
X131024469Y-92495205D01*
X131024214Y-92495287D01*
X130971272Y-92523936D01*
X130966722Y-92526278D01*
X130912617Y-92552730D01*
X130912407Y-92552886D01*
X130871621Y-92597191D01*
X130868074Y-92600887D01*
X130155780Y-93313181D01*
X130115552Y-93340061D01*
X130068099Y-93349500D01*
X129921015Y-93349500D01*
X129767635Y-93387303D01*
X129627761Y-93460716D01*
X129509515Y-93565471D01*
X129419780Y-93695476D01*
X129363763Y-93843181D01*
X129344721Y-94000000D01*
X126000500Y-94000000D01*
X126000500Y-89524675D01*
X128629500Y-89524675D01*
X128644033Y-89597738D01*
X128644033Y-89597739D01*
X128644034Y-89597740D01*
X128699399Y-89680601D01*
X128782260Y-89735966D01*
X128818793Y-89743233D01*
X128855325Y-89750500D01*
X128855326Y-89750500D01*
X130604674Y-89750500D01*
X130604675Y-89750500D01*
X130629029Y-89745655D01*
X130677740Y-89735966D01*
X130760601Y-89680601D01*
X130815966Y-89597740D01*
X130830500Y-89524674D01*
X130830500Y-88650000D01*
X131164785Y-88650000D01*
X131183602Y-88853083D01*
X131239418Y-89049251D01*
X131330324Y-89231818D01*
X131453236Y-89394580D01*
X131603958Y-89531981D01*
X131777361Y-89639347D01*
X131777363Y-89639348D01*
X131967544Y-89713024D01*
X132168024Y-89750500D01*
X132371974Y-89750500D01*
X132371976Y-89750500D01*
X132572456Y-89713024D01*
X132762637Y-89639348D01*
X132936041Y-89531981D01*
X133086764Y-89394579D01*
X133209673Y-89231821D01*
X133209673Y-89231819D01*
X133209675Y-89231818D01*
X133255313Y-89140161D01*
X133300582Y-89049250D01*
X133343048Y-88900000D01*
X133737472Y-88900000D01*
X133779886Y-89049069D01*
X133870751Y-89231553D01*
X133993607Y-89394241D01*
X134144259Y-89531578D01*
X134317588Y-89638899D01*
X134507679Y-89712539D01*
X134560000Y-89722320D01*
X134560000Y-88900000D01*
X135060000Y-88900000D01*
X135060000Y-89722320D01*
X135112320Y-89712539D01*
X135302411Y-89638899D01*
X135475740Y-89531578D01*
X135626392Y-89394241D01*
X135749248Y-89231553D01*
X135840113Y-89049069D01*
X135882528Y-88900000D01*
X135060000Y-88900000D01*
X134560000Y-88900000D01*
X133737472Y-88900000D01*
X133343048Y-88900000D01*
X133356397Y-88853083D01*
X133375215Y-88650000D01*
X136244785Y-88650000D01*
X136263602Y-88853083D01*
X136319418Y-89049251D01*
X136410324Y-89231818D01*
X136533236Y-89394580D01*
X136683958Y-89531981D01*
X136857361Y-89639347D01*
X136857363Y-89639348D01*
X137047544Y-89713024D01*
X137248024Y-89750500D01*
X137451974Y-89750500D01*
X137451976Y-89750500D01*
X137652456Y-89713024D01*
X137842637Y-89639348D01*
X138016041Y-89531981D01*
X138166764Y-89394579D01*
X138289673Y-89231821D01*
X138289673Y-89231819D01*
X138289675Y-89231818D01*
X138335313Y-89140161D01*
X138380582Y-89049250D01*
X138436397Y-88853083D01*
X138455215Y-88650000D01*
X138436397Y-88446917D01*
X138380582Y-88250750D01*
X138380209Y-88250001D01*
X138289675Y-88068181D01*
X138166763Y-87905419D01*
X138016041Y-87768018D01*
X137842638Y-87660652D01*
X137652457Y-87586976D01*
X137529726Y-87564034D01*
X137451976Y-87549500D01*
X137248024Y-87549500D01*
X137170279Y-87564033D01*
X137047542Y-87586976D01*
X136857361Y-87660652D01*
X136683958Y-87768018D01*
X136533236Y-87905419D01*
X136410324Y-88068181D01*
X136319418Y-88250748D01*
X136263602Y-88446916D01*
X136244785Y-88650000D01*
X133375215Y-88650000D01*
X133356397Y-88446917D01*
X133343048Y-88399999D01*
X133737471Y-88399999D01*
X133737472Y-88400000D01*
X134560000Y-88400000D01*
X134560000Y-87577680D01*
X135060000Y-87577680D01*
X135060000Y-88400000D01*
X135882528Y-88400000D01*
X135882528Y-88399999D01*
X135840113Y-88250930D01*
X135749248Y-88068446D01*
X135626392Y-87905758D01*
X135475740Y-87768421D01*
X135302411Y-87661100D01*
X135112320Y-87587460D01*
X135060000Y-87577680D01*
X134560000Y-87577680D01*
X134507679Y-87587460D01*
X134317588Y-87661100D01*
X134144259Y-87768421D01*
X133993607Y-87905758D01*
X133870751Y-88068446D01*
X133779886Y-88250930D01*
X133737471Y-88399999D01*
X133343048Y-88399999D01*
X133300582Y-88250750D01*
X133300209Y-88250001D01*
X133209675Y-88068181D01*
X133086763Y-87905419D01*
X132936041Y-87768018D01*
X132762638Y-87660652D01*
X132572457Y-87586976D01*
X132449726Y-87564034D01*
X132371976Y-87549500D01*
X132168024Y-87549500D01*
X132090279Y-87564033D01*
X131967542Y-87586976D01*
X131777361Y-87660652D01*
X131603958Y-87768018D01*
X131453236Y-87905419D01*
X131330324Y-88068181D01*
X131239418Y-88250748D01*
X131183602Y-88446916D01*
X131164785Y-88650000D01*
X130830500Y-88650000D01*
X130830500Y-87775326D01*
X130829126Y-87768421D01*
X130815966Y-87702261D01*
X130815966Y-87702260D01*
X130760601Y-87619399D01*
X130677740Y-87564034D01*
X130677739Y-87564033D01*
X130677738Y-87564033D01*
X130604675Y-87549500D01*
X130604674Y-87549500D01*
X128855326Y-87549500D01*
X128855325Y-87549500D01*
X128782261Y-87564033D01*
X128699399Y-87619399D01*
X128644033Y-87702261D01*
X128629500Y-87775325D01*
X128629500Y-89524675D01*
X126000500Y-89524675D01*
X126000500Y-80124500D01*
X126017113Y-80062500D01*
X126062500Y-80017113D01*
X126124500Y-80000500D01*
X140875500Y-80000500D01*
X140937500Y-80017113D01*
G37*
%TD.AperFunction*%
%TD*%
%TA.AperFunction,Conductor*%
%TO.N,Board_2-GND*%
G36*
X155937500Y-20017113D02*
G01*
X155982887Y-20062500D01*
X155999500Y-20124500D01*
X155999500Y-34875500D01*
X155982887Y-34937500D01*
X155937500Y-34982887D01*
X155875500Y-34999500D01*
X141124500Y-34999500D01*
X141062500Y-34982887D01*
X141017113Y-34937500D01*
X141000500Y-34875500D01*
X141000500Y-34000000D01*
X144344721Y-34000000D01*
X144363763Y-34156818D01*
X144419780Y-34304523D01*
X144509515Y-34434528D01*
X144509516Y-34434529D01*
X144509517Y-34434530D01*
X144627760Y-34539283D01*
X144767635Y-34612696D01*
X144921015Y-34650500D01*
X145078985Y-34650500D01*
X145232365Y-34612696D01*
X145372240Y-34539283D01*
X145490483Y-34434530D01*
X145580220Y-34304523D01*
X145636237Y-34156818D01*
X145655278Y-34000000D01*
X145649102Y-33949143D01*
X145654980Y-33893751D01*
X145684515Y-33846520D01*
X146260119Y-33270917D01*
X146300348Y-33244037D01*
X146347801Y-33234598D01*
X148114192Y-33234598D01*
X148171819Y-33248802D01*
X148216243Y-33288160D01*
X148220015Y-33293626D01*
X148220016Y-33293627D01*
X148220017Y-33293628D01*
X148338260Y-33398381D01*
X148478135Y-33471794D01*
X148631515Y-33509598D01*
X148789485Y-33509598D01*
X148942865Y-33471794D01*
X149082740Y-33398381D01*
X149200983Y-33293628D01*
X149290720Y-33163621D01*
X149346737Y-33015916D01*
X149365778Y-32859098D01*
X149346737Y-32702280D01*
X149290720Y-32554575D01*
X149231924Y-32469394D01*
X149200984Y-32424569D01*
X149200983Y-32424568D01*
X149082740Y-32319815D01*
X149069494Y-32312862D01*
X148942864Y-32246401D01*
X148789485Y-32208598D01*
X148631515Y-32208598D01*
X148478135Y-32246401D01*
X148338261Y-32319814D01*
X148220015Y-32424569D01*
X148216243Y-32430036D01*
X148171819Y-32469394D01*
X148114192Y-32483598D01*
X146192707Y-32483598D01*
X146167261Y-32480959D01*
X146156635Y-32478731D01*
X146156634Y-32478731D01*
X146138760Y-32480959D01*
X146125225Y-32482646D01*
X146109888Y-32483598D01*
X146109786Y-32483598D01*
X146089301Y-32487016D01*
X146084234Y-32487755D01*
X146024469Y-32495205D01*
X146024214Y-32495287D01*
X145971272Y-32523936D01*
X145966722Y-32526278D01*
X145912617Y-32552730D01*
X145912407Y-32552886D01*
X145871621Y-32597191D01*
X145868074Y-32600887D01*
X145155780Y-33313181D01*
X145115552Y-33340061D01*
X145068099Y-33349500D01*
X144921015Y-33349500D01*
X144767635Y-33387303D01*
X144627761Y-33460716D01*
X144509515Y-33565471D01*
X144419780Y-33695476D01*
X144363763Y-33843181D01*
X144344721Y-34000000D01*
X141000500Y-34000000D01*
X141000500Y-29524675D01*
X143629500Y-29524675D01*
X143644033Y-29597738D01*
X143644033Y-29597739D01*
X143644034Y-29597740D01*
X143699399Y-29680601D01*
X143782260Y-29735966D01*
X143818793Y-29743233D01*
X143855325Y-29750500D01*
X143855326Y-29750500D01*
X145604674Y-29750500D01*
X145604675Y-29750500D01*
X145629029Y-29745655D01*
X145677740Y-29735966D01*
X145760601Y-29680601D01*
X145815966Y-29597740D01*
X145830500Y-29524674D01*
X145830500Y-28650000D01*
X146164785Y-28650000D01*
X146183602Y-28853083D01*
X146239418Y-29049251D01*
X146330324Y-29231818D01*
X146453236Y-29394580D01*
X146603958Y-29531981D01*
X146777361Y-29639347D01*
X146777363Y-29639348D01*
X146967544Y-29713024D01*
X147168024Y-29750500D01*
X147371974Y-29750500D01*
X147371976Y-29750500D01*
X147572456Y-29713024D01*
X147762637Y-29639348D01*
X147936041Y-29531981D01*
X148086764Y-29394579D01*
X148209673Y-29231821D01*
X148209673Y-29231819D01*
X148209675Y-29231818D01*
X148255313Y-29140161D01*
X148300582Y-29049250D01*
X148343048Y-28900000D01*
X148737472Y-28900000D01*
X148779886Y-29049069D01*
X148870751Y-29231553D01*
X148993607Y-29394241D01*
X149144259Y-29531578D01*
X149317588Y-29638899D01*
X149507679Y-29712539D01*
X149560000Y-29722320D01*
X149560000Y-28900000D01*
X150060000Y-28900000D01*
X150060000Y-29722320D01*
X150112320Y-29712539D01*
X150302411Y-29638899D01*
X150475740Y-29531578D01*
X150626392Y-29394241D01*
X150749248Y-29231553D01*
X150840113Y-29049069D01*
X150882528Y-28900000D01*
X150060000Y-28900000D01*
X149560000Y-28900000D01*
X148737472Y-28900000D01*
X148343048Y-28900000D01*
X148356397Y-28853083D01*
X148375215Y-28650000D01*
X151244785Y-28650000D01*
X151263602Y-28853083D01*
X151319418Y-29049251D01*
X151410324Y-29231818D01*
X151533236Y-29394580D01*
X151683958Y-29531981D01*
X151857361Y-29639347D01*
X151857363Y-29639348D01*
X152047544Y-29713024D01*
X152248024Y-29750500D01*
X152451974Y-29750500D01*
X152451976Y-29750500D01*
X152652456Y-29713024D01*
X152842637Y-29639348D01*
X153016041Y-29531981D01*
X153166764Y-29394579D01*
X153289673Y-29231821D01*
X153289673Y-29231819D01*
X153289675Y-29231818D01*
X153335313Y-29140161D01*
X153380582Y-29049250D01*
X153436397Y-28853083D01*
X153455215Y-28650000D01*
X153436397Y-28446917D01*
X153380582Y-28250750D01*
X153380209Y-28250001D01*
X153289675Y-28068181D01*
X153166763Y-27905419D01*
X153016041Y-27768018D01*
X152842638Y-27660652D01*
X152652457Y-27586976D01*
X152529726Y-27564034D01*
X152451976Y-27549500D01*
X152248024Y-27549500D01*
X152170279Y-27564033D01*
X152047542Y-27586976D01*
X151857361Y-27660652D01*
X151683958Y-27768018D01*
X151533236Y-27905419D01*
X151410324Y-28068181D01*
X151319418Y-28250748D01*
X151263602Y-28446916D01*
X151244785Y-28650000D01*
X148375215Y-28650000D01*
X148356397Y-28446917D01*
X148343048Y-28399999D01*
X148737471Y-28399999D01*
X148737472Y-28400000D01*
X149560000Y-28400000D01*
X149560000Y-27577680D01*
X150060000Y-27577680D01*
X150060000Y-28400000D01*
X150882528Y-28400000D01*
X150882528Y-28399999D01*
X150840113Y-28250930D01*
X150749248Y-28068446D01*
X150626392Y-27905758D01*
X150475740Y-27768421D01*
X150302411Y-27661100D01*
X150112320Y-27587460D01*
X150060000Y-27577680D01*
X149560000Y-27577680D01*
X149507679Y-27587460D01*
X149317588Y-27661100D01*
X149144259Y-27768421D01*
X148993607Y-27905758D01*
X148870751Y-28068446D01*
X148779886Y-28250930D01*
X148737471Y-28399999D01*
X148343048Y-28399999D01*
X148300582Y-28250750D01*
X148300209Y-28250001D01*
X148209675Y-28068181D01*
X148086763Y-27905419D01*
X147936041Y-27768018D01*
X147762638Y-27660652D01*
X147572457Y-27586976D01*
X147449726Y-27564034D01*
X147371976Y-27549500D01*
X147168024Y-27549500D01*
X147090279Y-27564033D01*
X146967542Y-27586976D01*
X146777361Y-27660652D01*
X146603958Y-27768018D01*
X146453236Y-27905419D01*
X146330324Y-28068181D01*
X146239418Y-28250748D01*
X146183602Y-28446916D01*
X146164785Y-28650000D01*
X145830500Y-28650000D01*
X145830500Y-27775326D01*
X145829126Y-27768421D01*
X145815966Y-27702261D01*
X145815966Y-27702260D01*
X145760601Y-27619399D01*
X145677740Y-27564034D01*
X145677739Y-27564033D01*
X145677738Y-27564033D01*
X145604675Y-27549500D01*
X145604674Y-27549500D01*
X143855326Y-27549500D01*
X143855325Y-27549500D01*
X143782261Y-27564033D01*
X143699399Y-27619399D01*
X143644033Y-27702261D01*
X143629500Y-27775325D01*
X143629500Y-29524675D01*
X141000500Y-29524675D01*
X141000500Y-20124500D01*
X141017113Y-20062500D01*
X141062500Y-20017113D01*
X141124500Y-20000500D01*
X155875500Y-20000500D01*
X155937500Y-20017113D01*
G37*
%TD.AperFunction*%
%TD*%
%TA.AperFunction,Conductor*%
%TO.N,Board_11-GND*%
G36*
X140937500Y-50017113D02*
G01*
X140982887Y-50062500D01*
X140999500Y-50124500D01*
X140999500Y-64875500D01*
X140982887Y-64937500D01*
X140937500Y-64982887D01*
X140875500Y-64999500D01*
X126124500Y-64999500D01*
X126062500Y-64982887D01*
X126017113Y-64937500D01*
X126000500Y-64875500D01*
X126000500Y-64000000D01*
X129344721Y-64000000D01*
X129363763Y-64156818D01*
X129419780Y-64304523D01*
X129509515Y-64434528D01*
X129509516Y-64434529D01*
X129509517Y-64434530D01*
X129627760Y-64539283D01*
X129767635Y-64612696D01*
X129921015Y-64650500D01*
X130078985Y-64650500D01*
X130232365Y-64612696D01*
X130372240Y-64539283D01*
X130490483Y-64434530D01*
X130580220Y-64304523D01*
X130636237Y-64156818D01*
X130655278Y-64000000D01*
X130649102Y-63949143D01*
X130654980Y-63893751D01*
X130684515Y-63846520D01*
X131260119Y-63270917D01*
X131300348Y-63244037D01*
X131347801Y-63234598D01*
X133114192Y-63234598D01*
X133171819Y-63248802D01*
X133216243Y-63288160D01*
X133220015Y-63293626D01*
X133220016Y-63293627D01*
X133220017Y-63293628D01*
X133338260Y-63398381D01*
X133478135Y-63471794D01*
X133631515Y-63509598D01*
X133789485Y-63509598D01*
X133942865Y-63471794D01*
X134082740Y-63398381D01*
X134200983Y-63293628D01*
X134290720Y-63163621D01*
X134346737Y-63015916D01*
X134365778Y-62859098D01*
X134346737Y-62702280D01*
X134290720Y-62554575D01*
X134231924Y-62469394D01*
X134200984Y-62424569D01*
X134200983Y-62424568D01*
X134082740Y-62319815D01*
X134069494Y-62312862D01*
X133942864Y-62246401D01*
X133789485Y-62208598D01*
X133631515Y-62208598D01*
X133478135Y-62246401D01*
X133338261Y-62319814D01*
X133220015Y-62424569D01*
X133216243Y-62430036D01*
X133171819Y-62469394D01*
X133114192Y-62483598D01*
X131192707Y-62483598D01*
X131167261Y-62480959D01*
X131156635Y-62478731D01*
X131156634Y-62478731D01*
X131138760Y-62480959D01*
X131125225Y-62482646D01*
X131109888Y-62483598D01*
X131109786Y-62483598D01*
X131089301Y-62487016D01*
X131084234Y-62487755D01*
X131024469Y-62495205D01*
X131024214Y-62495287D01*
X130971272Y-62523936D01*
X130966722Y-62526278D01*
X130912617Y-62552730D01*
X130912407Y-62552886D01*
X130871621Y-62597191D01*
X130868074Y-62600887D01*
X130155780Y-63313181D01*
X130115552Y-63340061D01*
X130068099Y-63349500D01*
X129921015Y-63349500D01*
X129767635Y-63387303D01*
X129627761Y-63460716D01*
X129509515Y-63565471D01*
X129419780Y-63695476D01*
X129363763Y-63843181D01*
X129344721Y-64000000D01*
X126000500Y-64000000D01*
X126000500Y-59524675D01*
X128629500Y-59524675D01*
X128644033Y-59597738D01*
X128644033Y-59597739D01*
X128644034Y-59597740D01*
X128699399Y-59680601D01*
X128782260Y-59735966D01*
X128818793Y-59743233D01*
X128855325Y-59750500D01*
X128855326Y-59750500D01*
X130604674Y-59750500D01*
X130604675Y-59750500D01*
X130629029Y-59745655D01*
X130677740Y-59735966D01*
X130760601Y-59680601D01*
X130815966Y-59597740D01*
X130830500Y-59524674D01*
X130830500Y-58650000D01*
X131164785Y-58650000D01*
X131183602Y-58853083D01*
X131239418Y-59049251D01*
X131330324Y-59231818D01*
X131453236Y-59394580D01*
X131603958Y-59531981D01*
X131777361Y-59639347D01*
X131777363Y-59639348D01*
X131967544Y-59713024D01*
X132168024Y-59750500D01*
X132371974Y-59750500D01*
X132371976Y-59750500D01*
X132572456Y-59713024D01*
X132762637Y-59639348D01*
X132936041Y-59531981D01*
X133086764Y-59394579D01*
X133209673Y-59231821D01*
X133209673Y-59231819D01*
X133209675Y-59231818D01*
X133255313Y-59140161D01*
X133300582Y-59049250D01*
X133343048Y-58900000D01*
X133737472Y-58900000D01*
X133779886Y-59049069D01*
X133870751Y-59231553D01*
X133993607Y-59394241D01*
X134144259Y-59531578D01*
X134317588Y-59638899D01*
X134507679Y-59712539D01*
X134560000Y-59722320D01*
X134560000Y-58900000D01*
X135060000Y-58900000D01*
X135060000Y-59722320D01*
X135112320Y-59712539D01*
X135302411Y-59638899D01*
X135475740Y-59531578D01*
X135626392Y-59394241D01*
X135749248Y-59231553D01*
X135840113Y-59049069D01*
X135882528Y-58900000D01*
X135060000Y-58900000D01*
X134560000Y-58900000D01*
X133737472Y-58900000D01*
X133343048Y-58900000D01*
X133356397Y-58853083D01*
X133375215Y-58650000D01*
X136244785Y-58650000D01*
X136263602Y-58853083D01*
X136319418Y-59049251D01*
X136410324Y-59231818D01*
X136533236Y-59394580D01*
X136683958Y-59531981D01*
X136857361Y-59639347D01*
X136857363Y-59639348D01*
X137047544Y-59713024D01*
X137248024Y-59750500D01*
X137451974Y-59750500D01*
X137451976Y-59750500D01*
X137652456Y-59713024D01*
X137842637Y-59639348D01*
X138016041Y-59531981D01*
X138166764Y-59394579D01*
X138289673Y-59231821D01*
X138289673Y-59231819D01*
X138289675Y-59231818D01*
X138335313Y-59140161D01*
X138380582Y-59049250D01*
X138436397Y-58853083D01*
X138455215Y-58650000D01*
X138436397Y-58446917D01*
X138380582Y-58250750D01*
X138380209Y-58250001D01*
X138289675Y-58068181D01*
X138166763Y-57905419D01*
X138016041Y-57768018D01*
X137842638Y-57660652D01*
X137652457Y-57586976D01*
X137529726Y-57564034D01*
X137451976Y-57549500D01*
X137248024Y-57549500D01*
X137170279Y-57564033D01*
X137047542Y-57586976D01*
X136857361Y-57660652D01*
X136683958Y-57768018D01*
X136533236Y-57905419D01*
X136410324Y-58068181D01*
X136319418Y-58250748D01*
X136263602Y-58446916D01*
X136244785Y-58650000D01*
X133375215Y-58650000D01*
X133356397Y-58446917D01*
X133343048Y-58399999D01*
X133737471Y-58399999D01*
X133737472Y-58400000D01*
X134560000Y-58400000D01*
X134560000Y-57577680D01*
X135060000Y-57577680D01*
X135060000Y-58400000D01*
X135882528Y-58400000D01*
X135882528Y-58399999D01*
X135840113Y-58250930D01*
X135749248Y-58068446D01*
X135626392Y-57905758D01*
X135475740Y-57768421D01*
X135302411Y-57661100D01*
X135112320Y-57587460D01*
X135060000Y-57577680D01*
X134560000Y-57577680D01*
X134507679Y-57587460D01*
X134317588Y-57661100D01*
X134144259Y-57768421D01*
X133993607Y-57905758D01*
X133870751Y-58068446D01*
X133779886Y-58250930D01*
X133737471Y-58399999D01*
X133343048Y-58399999D01*
X133300582Y-58250750D01*
X133300209Y-58250001D01*
X133209675Y-58068181D01*
X133086763Y-57905419D01*
X132936041Y-57768018D01*
X132762638Y-57660652D01*
X132572457Y-57586976D01*
X132449726Y-57564034D01*
X132371976Y-57549500D01*
X132168024Y-57549500D01*
X132090279Y-57564033D01*
X131967542Y-57586976D01*
X131777361Y-57660652D01*
X131603958Y-57768018D01*
X131453236Y-57905419D01*
X131330324Y-58068181D01*
X131239418Y-58250748D01*
X131183602Y-58446916D01*
X131164785Y-58650000D01*
X130830500Y-58650000D01*
X130830500Y-57775326D01*
X130829126Y-57768421D01*
X130815966Y-57702261D01*
X130815966Y-57702260D01*
X130760601Y-57619399D01*
X130677740Y-57564034D01*
X130677739Y-57564033D01*
X130677738Y-57564033D01*
X130604675Y-57549500D01*
X130604674Y-57549500D01*
X128855326Y-57549500D01*
X128855325Y-57549500D01*
X128782261Y-57564033D01*
X128699399Y-57619399D01*
X128644033Y-57702261D01*
X128629500Y-57775325D01*
X128629500Y-59524675D01*
X126000500Y-59524675D01*
X126000500Y-50124500D01*
X126017113Y-50062500D01*
X126062500Y-50017113D01*
X126124500Y-50000500D01*
X140875500Y-50000500D01*
X140937500Y-50017113D01*
G37*
%TD.AperFunction*%
%TD*%
%TA.AperFunction,Conductor*%
%TO.N,Board_19-GND*%
G36*
X185937500Y-65017113D02*
G01*
X185982887Y-65062500D01*
X185999500Y-65124500D01*
X185999500Y-79875500D01*
X185982887Y-79937500D01*
X185937500Y-79982887D01*
X185875500Y-79999500D01*
X171124500Y-79999500D01*
X171062500Y-79982887D01*
X171017113Y-79937500D01*
X171000500Y-79875500D01*
X171000500Y-79000000D01*
X174344721Y-79000000D01*
X174363763Y-79156818D01*
X174419780Y-79304523D01*
X174509515Y-79434528D01*
X174509516Y-79434529D01*
X174509517Y-79434530D01*
X174627760Y-79539283D01*
X174767635Y-79612696D01*
X174921015Y-79650500D01*
X175078985Y-79650500D01*
X175232365Y-79612696D01*
X175372240Y-79539283D01*
X175490483Y-79434530D01*
X175580220Y-79304523D01*
X175636237Y-79156818D01*
X175655278Y-79000000D01*
X175649102Y-78949143D01*
X175654980Y-78893751D01*
X175684515Y-78846520D01*
X176260119Y-78270917D01*
X176300348Y-78244037D01*
X176347801Y-78234598D01*
X178114192Y-78234598D01*
X178171819Y-78248802D01*
X178216243Y-78288160D01*
X178220015Y-78293626D01*
X178220016Y-78293627D01*
X178220017Y-78293628D01*
X178338260Y-78398381D01*
X178478135Y-78471794D01*
X178631515Y-78509598D01*
X178789485Y-78509598D01*
X178942865Y-78471794D01*
X179082740Y-78398381D01*
X179200983Y-78293628D01*
X179290720Y-78163621D01*
X179346737Y-78015916D01*
X179365778Y-77859098D01*
X179346737Y-77702280D01*
X179290720Y-77554575D01*
X179231924Y-77469394D01*
X179200984Y-77424569D01*
X179200983Y-77424568D01*
X179082740Y-77319815D01*
X179069494Y-77312862D01*
X178942864Y-77246401D01*
X178789485Y-77208598D01*
X178631515Y-77208598D01*
X178478135Y-77246401D01*
X178338261Y-77319814D01*
X178220015Y-77424569D01*
X178216243Y-77430036D01*
X178171819Y-77469394D01*
X178114192Y-77483598D01*
X176192707Y-77483598D01*
X176167261Y-77480959D01*
X176156635Y-77478731D01*
X176156634Y-77478731D01*
X176138760Y-77480959D01*
X176125225Y-77482646D01*
X176109888Y-77483598D01*
X176109786Y-77483598D01*
X176089301Y-77487016D01*
X176084234Y-77487755D01*
X176024469Y-77495205D01*
X176024214Y-77495287D01*
X175971272Y-77523936D01*
X175966722Y-77526278D01*
X175912617Y-77552730D01*
X175912407Y-77552886D01*
X175871621Y-77597191D01*
X175868074Y-77600887D01*
X175155780Y-78313181D01*
X175115552Y-78340061D01*
X175068099Y-78349500D01*
X174921015Y-78349500D01*
X174767635Y-78387303D01*
X174627761Y-78460716D01*
X174509515Y-78565471D01*
X174419780Y-78695476D01*
X174363763Y-78843181D01*
X174344721Y-79000000D01*
X171000500Y-79000000D01*
X171000500Y-74524675D01*
X173629500Y-74524675D01*
X173644033Y-74597738D01*
X173644033Y-74597739D01*
X173644034Y-74597740D01*
X173699399Y-74680601D01*
X173782260Y-74735966D01*
X173818793Y-74743233D01*
X173855325Y-74750500D01*
X173855326Y-74750500D01*
X175604674Y-74750500D01*
X175604675Y-74750500D01*
X175629029Y-74745655D01*
X175677740Y-74735966D01*
X175760601Y-74680601D01*
X175815966Y-74597740D01*
X175830500Y-74524674D01*
X175830500Y-73650000D01*
X176164785Y-73650000D01*
X176183602Y-73853083D01*
X176239418Y-74049251D01*
X176330324Y-74231818D01*
X176453236Y-74394580D01*
X176603958Y-74531981D01*
X176777361Y-74639347D01*
X176777363Y-74639348D01*
X176967544Y-74713024D01*
X177168024Y-74750500D01*
X177371974Y-74750500D01*
X177371976Y-74750500D01*
X177572456Y-74713024D01*
X177762637Y-74639348D01*
X177936041Y-74531981D01*
X178086764Y-74394579D01*
X178209673Y-74231821D01*
X178209673Y-74231819D01*
X178209675Y-74231818D01*
X178255313Y-74140161D01*
X178300582Y-74049250D01*
X178343048Y-73900000D01*
X178737472Y-73900000D01*
X178779886Y-74049069D01*
X178870751Y-74231553D01*
X178993607Y-74394241D01*
X179144259Y-74531578D01*
X179317588Y-74638899D01*
X179507679Y-74712539D01*
X179560000Y-74722320D01*
X179560000Y-73900000D01*
X180060000Y-73900000D01*
X180060000Y-74722320D01*
X180112320Y-74712539D01*
X180302411Y-74638899D01*
X180475740Y-74531578D01*
X180626392Y-74394241D01*
X180749248Y-74231553D01*
X180840113Y-74049069D01*
X180882528Y-73900000D01*
X180060000Y-73900000D01*
X179560000Y-73900000D01*
X178737472Y-73900000D01*
X178343048Y-73900000D01*
X178356397Y-73853083D01*
X178375215Y-73650000D01*
X181244785Y-73650000D01*
X181263602Y-73853083D01*
X181319418Y-74049251D01*
X181410324Y-74231818D01*
X181533236Y-74394580D01*
X181683958Y-74531981D01*
X181857361Y-74639347D01*
X181857363Y-74639348D01*
X182047544Y-74713024D01*
X182248024Y-74750500D01*
X182451974Y-74750500D01*
X182451976Y-74750500D01*
X182652456Y-74713024D01*
X182842637Y-74639348D01*
X183016041Y-74531981D01*
X183166764Y-74394579D01*
X183289673Y-74231821D01*
X183289673Y-74231819D01*
X183289675Y-74231818D01*
X183335313Y-74140161D01*
X183380582Y-74049250D01*
X183436397Y-73853083D01*
X183455215Y-73650000D01*
X183436397Y-73446917D01*
X183380582Y-73250750D01*
X183380209Y-73250001D01*
X183289675Y-73068181D01*
X183166763Y-72905419D01*
X183016041Y-72768018D01*
X182842638Y-72660652D01*
X182652457Y-72586976D01*
X182529726Y-72564034D01*
X182451976Y-72549500D01*
X182248024Y-72549500D01*
X182170279Y-72564033D01*
X182047542Y-72586976D01*
X181857361Y-72660652D01*
X181683958Y-72768018D01*
X181533236Y-72905419D01*
X181410324Y-73068181D01*
X181319418Y-73250748D01*
X181263602Y-73446916D01*
X181244785Y-73650000D01*
X178375215Y-73650000D01*
X178356397Y-73446917D01*
X178343048Y-73399999D01*
X178737471Y-73399999D01*
X178737472Y-73400000D01*
X179560000Y-73400000D01*
X179560000Y-72577680D01*
X180060000Y-72577680D01*
X180060000Y-73400000D01*
X180882528Y-73400000D01*
X180882528Y-73399999D01*
X180840113Y-73250930D01*
X180749248Y-73068446D01*
X180626392Y-72905758D01*
X180475740Y-72768421D01*
X180302411Y-72661100D01*
X180112320Y-72587460D01*
X180060000Y-72577680D01*
X179560000Y-72577680D01*
X179507679Y-72587460D01*
X179317588Y-72661100D01*
X179144259Y-72768421D01*
X178993607Y-72905758D01*
X178870751Y-73068446D01*
X178779886Y-73250930D01*
X178737471Y-73399999D01*
X178343048Y-73399999D01*
X178300582Y-73250750D01*
X178300209Y-73250001D01*
X178209675Y-73068181D01*
X178086763Y-72905419D01*
X177936041Y-72768018D01*
X177762638Y-72660652D01*
X177572457Y-72586976D01*
X177449726Y-72564034D01*
X177371976Y-72549500D01*
X177168024Y-72549500D01*
X177090279Y-72564033D01*
X176967542Y-72586976D01*
X176777361Y-72660652D01*
X176603958Y-72768018D01*
X176453236Y-72905419D01*
X176330324Y-73068181D01*
X176239418Y-73250748D01*
X176183602Y-73446916D01*
X176164785Y-73650000D01*
X175830500Y-73650000D01*
X175830500Y-72775326D01*
X175829126Y-72768421D01*
X175815966Y-72702261D01*
X175815966Y-72702260D01*
X175760601Y-72619399D01*
X175677740Y-72564034D01*
X175677739Y-72564033D01*
X175677738Y-72564033D01*
X175604675Y-72549500D01*
X175604674Y-72549500D01*
X173855326Y-72549500D01*
X173855325Y-72549500D01*
X173782261Y-72564033D01*
X173699399Y-72619399D01*
X173644033Y-72702261D01*
X173629500Y-72775325D01*
X173629500Y-74524675D01*
X171000500Y-74524675D01*
X171000500Y-65124500D01*
X171017113Y-65062500D01*
X171062500Y-65017113D01*
X171124500Y-65000500D01*
X185875500Y-65000500D01*
X185937500Y-65017113D01*
G37*
%TD.AperFunction*%
%TD*%
%TA.AperFunction,Conductor*%
%TO.N,Board_13-GND*%
G36*
X170937500Y-50017113D02*
G01*
X170982887Y-50062500D01*
X170999500Y-50124500D01*
X170999500Y-64875500D01*
X170982887Y-64937500D01*
X170937500Y-64982887D01*
X170875500Y-64999500D01*
X156124500Y-64999500D01*
X156062500Y-64982887D01*
X156017113Y-64937500D01*
X156000500Y-64875500D01*
X156000500Y-64000000D01*
X159344721Y-64000000D01*
X159363763Y-64156818D01*
X159419780Y-64304523D01*
X159509515Y-64434528D01*
X159509516Y-64434529D01*
X159509517Y-64434530D01*
X159627760Y-64539283D01*
X159767635Y-64612696D01*
X159921015Y-64650500D01*
X160078985Y-64650500D01*
X160232365Y-64612696D01*
X160372240Y-64539283D01*
X160490483Y-64434530D01*
X160580220Y-64304523D01*
X160636237Y-64156818D01*
X160655278Y-64000000D01*
X160649102Y-63949143D01*
X160654980Y-63893751D01*
X160684515Y-63846520D01*
X161260119Y-63270917D01*
X161300348Y-63244037D01*
X161347801Y-63234598D01*
X163114192Y-63234598D01*
X163171819Y-63248802D01*
X163216243Y-63288160D01*
X163220015Y-63293626D01*
X163220016Y-63293627D01*
X163220017Y-63293628D01*
X163338260Y-63398381D01*
X163478135Y-63471794D01*
X163631515Y-63509598D01*
X163789485Y-63509598D01*
X163942865Y-63471794D01*
X164082740Y-63398381D01*
X164200983Y-63293628D01*
X164290720Y-63163621D01*
X164346737Y-63015916D01*
X164365778Y-62859098D01*
X164346737Y-62702280D01*
X164290720Y-62554575D01*
X164231924Y-62469394D01*
X164200984Y-62424569D01*
X164200983Y-62424568D01*
X164082740Y-62319815D01*
X164069494Y-62312862D01*
X163942864Y-62246401D01*
X163789485Y-62208598D01*
X163631515Y-62208598D01*
X163478135Y-62246401D01*
X163338261Y-62319814D01*
X163220015Y-62424569D01*
X163216243Y-62430036D01*
X163171819Y-62469394D01*
X163114192Y-62483598D01*
X161192707Y-62483598D01*
X161167261Y-62480959D01*
X161156635Y-62478731D01*
X161156634Y-62478731D01*
X161138760Y-62480959D01*
X161125225Y-62482646D01*
X161109888Y-62483598D01*
X161109786Y-62483598D01*
X161089301Y-62487016D01*
X161084234Y-62487755D01*
X161024469Y-62495205D01*
X161024214Y-62495287D01*
X160971272Y-62523936D01*
X160966722Y-62526278D01*
X160912617Y-62552730D01*
X160912407Y-62552886D01*
X160871621Y-62597191D01*
X160868074Y-62600887D01*
X160155780Y-63313181D01*
X160115552Y-63340061D01*
X160068099Y-63349500D01*
X159921015Y-63349500D01*
X159767635Y-63387303D01*
X159627761Y-63460716D01*
X159509515Y-63565471D01*
X159419780Y-63695476D01*
X159363763Y-63843181D01*
X159344721Y-64000000D01*
X156000500Y-64000000D01*
X156000500Y-59524675D01*
X158629500Y-59524675D01*
X158644033Y-59597738D01*
X158644033Y-59597739D01*
X158644034Y-59597740D01*
X158699399Y-59680601D01*
X158782260Y-59735966D01*
X158818793Y-59743233D01*
X158855325Y-59750500D01*
X158855326Y-59750500D01*
X160604674Y-59750500D01*
X160604675Y-59750500D01*
X160629029Y-59745655D01*
X160677740Y-59735966D01*
X160760601Y-59680601D01*
X160815966Y-59597740D01*
X160830500Y-59524674D01*
X160830500Y-58650000D01*
X161164785Y-58650000D01*
X161183602Y-58853083D01*
X161239418Y-59049251D01*
X161330324Y-59231818D01*
X161453236Y-59394580D01*
X161603958Y-59531981D01*
X161777361Y-59639347D01*
X161777363Y-59639348D01*
X161967544Y-59713024D01*
X162168024Y-59750500D01*
X162371974Y-59750500D01*
X162371976Y-59750500D01*
X162572456Y-59713024D01*
X162762637Y-59639348D01*
X162936041Y-59531981D01*
X163086764Y-59394579D01*
X163209673Y-59231821D01*
X163209673Y-59231819D01*
X163209675Y-59231818D01*
X163255313Y-59140161D01*
X163300582Y-59049250D01*
X163343048Y-58900000D01*
X163737472Y-58900000D01*
X163779886Y-59049069D01*
X163870751Y-59231553D01*
X163993607Y-59394241D01*
X164144259Y-59531578D01*
X164317588Y-59638899D01*
X164507679Y-59712539D01*
X164560000Y-59722320D01*
X164560000Y-58900000D01*
X165060000Y-58900000D01*
X165060000Y-59722320D01*
X165112320Y-59712539D01*
X165302411Y-59638899D01*
X165475740Y-59531578D01*
X165626392Y-59394241D01*
X165749248Y-59231553D01*
X165840113Y-59049069D01*
X165882528Y-58900000D01*
X165060000Y-58900000D01*
X164560000Y-58900000D01*
X163737472Y-58900000D01*
X163343048Y-58900000D01*
X163356397Y-58853083D01*
X163375215Y-58650000D01*
X166244785Y-58650000D01*
X166263602Y-58853083D01*
X166319418Y-59049251D01*
X166410324Y-59231818D01*
X166533236Y-59394580D01*
X166683958Y-59531981D01*
X166857361Y-59639347D01*
X166857363Y-59639348D01*
X167047544Y-59713024D01*
X167248024Y-59750500D01*
X167451974Y-59750500D01*
X167451976Y-59750500D01*
X167652456Y-59713024D01*
X167842637Y-59639348D01*
X168016041Y-59531981D01*
X168166764Y-59394579D01*
X168289673Y-59231821D01*
X168289673Y-59231819D01*
X168289675Y-59231818D01*
X168335313Y-59140161D01*
X168380582Y-59049250D01*
X168436397Y-58853083D01*
X168455215Y-58650000D01*
X168436397Y-58446917D01*
X168380582Y-58250750D01*
X168380209Y-58250001D01*
X168289675Y-58068181D01*
X168166763Y-57905419D01*
X168016041Y-57768018D01*
X167842638Y-57660652D01*
X167652457Y-57586976D01*
X167529726Y-57564034D01*
X167451976Y-57549500D01*
X167248024Y-57549500D01*
X167170279Y-57564033D01*
X167047542Y-57586976D01*
X166857361Y-57660652D01*
X166683958Y-57768018D01*
X166533236Y-57905419D01*
X166410324Y-58068181D01*
X166319418Y-58250748D01*
X166263602Y-58446916D01*
X166244785Y-58650000D01*
X163375215Y-58650000D01*
X163356397Y-58446917D01*
X163343048Y-58399999D01*
X163737471Y-58399999D01*
X163737472Y-58400000D01*
X164560000Y-58400000D01*
X164560000Y-57577680D01*
X165060000Y-57577680D01*
X165060000Y-58400000D01*
X165882528Y-58400000D01*
X165882528Y-58399999D01*
X165840113Y-58250930D01*
X165749248Y-58068446D01*
X165626392Y-57905758D01*
X165475740Y-57768421D01*
X165302411Y-57661100D01*
X165112320Y-57587460D01*
X165060000Y-57577680D01*
X164560000Y-57577680D01*
X164507679Y-57587460D01*
X164317588Y-57661100D01*
X164144259Y-57768421D01*
X163993607Y-57905758D01*
X163870751Y-58068446D01*
X163779886Y-58250930D01*
X163737471Y-58399999D01*
X163343048Y-58399999D01*
X163300582Y-58250750D01*
X163300209Y-58250001D01*
X163209675Y-58068181D01*
X163086763Y-57905419D01*
X162936041Y-57768018D01*
X162762638Y-57660652D01*
X162572457Y-57586976D01*
X162449726Y-57564034D01*
X162371976Y-57549500D01*
X162168024Y-57549500D01*
X162090279Y-57564033D01*
X161967542Y-57586976D01*
X161777361Y-57660652D01*
X161603958Y-57768018D01*
X161453236Y-57905419D01*
X161330324Y-58068181D01*
X161239418Y-58250748D01*
X161183602Y-58446916D01*
X161164785Y-58650000D01*
X160830500Y-58650000D01*
X160830500Y-57775326D01*
X160829126Y-57768421D01*
X160815966Y-57702261D01*
X160815966Y-57702260D01*
X160760601Y-57619399D01*
X160677740Y-57564034D01*
X160677739Y-57564033D01*
X160677738Y-57564033D01*
X160604675Y-57549500D01*
X160604674Y-57549500D01*
X158855326Y-57549500D01*
X158855325Y-57549500D01*
X158782261Y-57564033D01*
X158699399Y-57619399D01*
X158644033Y-57702261D01*
X158629500Y-57775325D01*
X158629500Y-59524675D01*
X156000500Y-59524675D01*
X156000500Y-50124500D01*
X156017113Y-50062500D01*
X156062500Y-50017113D01*
X156124500Y-50000500D01*
X170875500Y-50000500D01*
X170937500Y-50017113D01*
G37*
%TD.AperFunction*%
%TD*%
%TA.AperFunction,Conductor*%
%TO.N,Board_6-GND*%
G36*
X140937500Y-35017113D02*
G01*
X140982887Y-35062500D01*
X140999500Y-35124500D01*
X140999500Y-49875500D01*
X140982887Y-49937500D01*
X140937500Y-49982887D01*
X140875500Y-49999500D01*
X126124500Y-49999500D01*
X126062500Y-49982887D01*
X126017113Y-49937500D01*
X126000500Y-49875500D01*
X126000500Y-49000000D01*
X129344721Y-49000000D01*
X129363763Y-49156818D01*
X129419780Y-49304523D01*
X129509515Y-49434528D01*
X129509516Y-49434529D01*
X129509517Y-49434530D01*
X129627760Y-49539283D01*
X129767635Y-49612696D01*
X129921015Y-49650500D01*
X130078985Y-49650500D01*
X130232365Y-49612696D01*
X130372240Y-49539283D01*
X130490483Y-49434530D01*
X130580220Y-49304523D01*
X130636237Y-49156818D01*
X130655278Y-49000000D01*
X130649102Y-48949143D01*
X130654980Y-48893751D01*
X130684515Y-48846520D01*
X131260119Y-48270917D01*
X131300348Y-48244037D01*
X131347801Y-48234598D01*
X133114192Y-48234598D01*
X133171819Y-48248802D01*
X133216243Y-48288160D01*
X133220015Y-48293626D01*
X133220016Y-48293627D01*
X133220017Y-48293628D01*
X133338260Y-48398381D01*
X133478135Y-48471794D01*
X133631515Y-48509598D01*
X133789485Y-48509598D01*
X133942865Y-48471794D01*
X134082740Y-48398381D01*
X134200983Y-48293628D01*
X134290720Y-48163621D01*
X134346737Y-48015916D01*
X134365778Y-47859098D01*
X134346737Y-47702280D01*
X134290720Y-47554575D01*
X134231924Y-47469394D01*
X134200984Y-47424569D01*
X134200983Y-47424568D01*
X134082740Y-47319815D01*
X134069494Y-47312862D01*
X133942864Y-47246401D01*
X133789485Y-47208598D01*
X133631515Y-47208598D01*
X133478135Y-47246401D01*
X133338261Y-47319814D01*
X133220015Y-47424569D01*
X133216243Y-47430036D01*
X133171819Y-47469394D01*
X133114192Y-47483598D01*
X131192707Y-47483598D01*
X131167261Y-47480959D01*
X131156635Y-47478731D01*
X131156634Y-47478731D01*
X131138760Y-47480959D01*
X131125225Y-47482646D01*
X131109888Y-47483598D01*
X131109786Y-47483598D01*
X131089301Y-47487016D01*
X131084234Y-47487755D01*
X131024469Y-47495205D01*
X131024214Y-47495287D01*
X130971272Y-47523936D01*
X130966722Y-47526278D01*
X130912617Y-47552730D01*
X130912407Y-47552886D01*
X130871621Y-47597191D01*
X130868074Y-47600887D01*
X130155780Y-48313181D01*
X130115552Y-48340061D01*
X130068099Y-48349500D01*
X129921015Y-48349500D01*
X129767635Y-48387303D01*
X129627761Y-48460716D01*
X129509515Y-48565471D01*
X129419780Y-48695476D01*
X129363763Y-48843181D01*
X129344721Y-49000000D01*
X126000500Y-49000000D01*
X126000500Y-44524675D01*
X128629500Y-44524675D01*
X128644033Y-44597738D01*
X128644033Y-44597739D01*
X128644034Y-44597740D01*
X128699399Y-44680601D01*
X128782260Y-44735966D01*
X128818793Y-44743233D01*
X128855325Y-44750500D01*
X128855326Y-44750500D01*
X130604674Y-44750500D01*
X130604675Y-44750500D01*
X130629029Y-44745655D01*
X130677740Y-44735966D01*
X130760601Y-44680601D01*
X130815966Y-44597740D01*
X130830500Y-44524674D01*
X130830500Y-43650000D01*
X131164785Y-43650000D01*
X131183602Y-43853083D01*
X131239418Y-44049251D01*
X131330324Y-44231818D01*
X131453236Y-44394580D01*
X131603958Y-44531981D01*
X131777361Y-44639347D01*
X131777363Y-44639348D01*
X131967544Y-44713024D01*
X132168024Y-44750500D01*
X132371974Y-44750500D01*
X132371976Y-44750500D01*
X132572456Y-44713024D01*
X132762637Y-44639348D01*
X132936041Y-44531981D01*
X133086764Y-44394579D01*
X133209673Y-44231821D01*
X133209673Y-44231819D01*
X133209675Y-44231818D01*
X133255313Y-44140161D01*
X133300582Y-44049250D01*
X133343048Y-43900000D01*
X133737472Y-43900000D01*
X133779886Y-44049069D01*
X133870751Y-44231553D01*
X133993607Y-44394241D01*
X134144259Y-44531578D01*
X134317588Y-44638899D01*
X134507679Y-44712539D01*
X134560000Y-44722320D01*
X134560000Y-43900000D01*
X135060000Y-43900000D01*
X135060000Y-44722320D01*
X135112320Y-44712539D01*
X135302411Y-44638899D01*
X135475740Y-44531578D01*
X135626392Y-44394241D01*
X135749248Y-44231553D01*
X135840113Y-44049069D01*
X135882528Y-43900000D01*
X135060000Y-43900000D01*
X134560000Y-43900000D01*
X133737472Y-43900000D01*
X133343048Y-43900000D01*
X133356397Y-43853083D01*
X133375215Y-43650000D01*
X136244785Y-43650000D01*
X136263602Y-43853083D01*
X136319418Y-44049251D01*
X136410324Y-44231818D01*
X136533236Y-44394580D01*
X136683958Y-44531981D01*
X136857361Y-44639347D01*
X136857363Y-44639348D01*
X137047544Y-44713024D01*
X137248024Y-44750500D01*
X137451974Y-44750500D01*
X137451976Y-44750500D01*
X137652456Y-44713024D01*
X137842637Y-44639348D01*
X138016041Y-44531981D01*
X138166764Y-44394579D01*
X138289673Y-44231821D01*
X138289673Y-44231819D01*
X138289675Y-44231818D01*
X138335313Y-44140161D01*
X138380582Y-44049250D01*
X138436397Y-43853083D01*
X138455215Y-43650000D01*
X138436397Y-43446917D01*
X138380582Y-43250750D01*
X138380209Y-43250001D01*
X138289675Y-43068181D01*
X138166763Y-42905419D01*
X138016041Y-42768018D01*
X137842638Y-42660652D01*
X137652457Y-42586976D01*
X137529726Y-42564034D01*
X137451976Y-42549500D01*
X137248024Y-42549500D01*
X137170279Y-42564033D01*
X137047542Y-42586976D01*
X136857361Y-42660652D01*
X136683958Y-42768018D01*
X136533236Y-42905419D01*
X136410324Y-43068181D01*
X136319418Y-43250748D01*
X136263602Y-43446916D01*
X136244785Y-43650000D01*
X133375215Y-43650000D01*
X133356397Y-43446917D01*
X133343048Y-43399999D01*
X133737471Y-43399999D01*
X133737472Y-43400000D01*
X134560000Y-43400000D01*
X134560000Y-42577680D01*
X135060000Y-42577680D01*
X135060000Y-43400000D01*
X135882528Y-43400000D01*
X135882528Y-43399999D01*
X135840113Y-43250930D01*
X135749248Y-43068446D01*
X135626392Y-42905758D01*
X135475740Y-42768421D01*
X135302411Y-42661100D01*
X135112320Y-42587460D01*
X135060000Y-42577680D01*
X134560000Y-42577680D01*
X134507679Y-42587460D01*
X134317588Y-42661100D01*
X134144259Y-42768421D01*
X133993607Y-42905758D01*
X133870751Y-43068446D01*
X133779886Y-43250930D01*
X133737471Y-43399999D01*
X133343048Y-43399999D01*
X133300582Y-43250750D01*
X133300209Y-43250001D01*
X133209675Y-43068181D01*
X133086763Y-42905419D01*
X132936041Y-42768018D01*
X132762638Y-42660652D01*
X132572457Y-42586976D01*
X132449726Y-42564034D01*
X132371976Y-42549500D01*
X132168024Y-42549500D01*
X132090279Y-42564033D01*
X131967542Y-42586976D01*
X131777361Y-42660652D01*
X131603958Y-42768018D01*
X131453236Y-42905419D01*
X131330324Y-43068181D01*
X131239418Y-43250748D01*
X131183602Y-43446916D01*
X131164785Y-43650000D01*
X130830500Y-43650000D01*
X130830500Y-42775326D01*
X130829126Y-42768421D01*
X130815966Y-42702261D01*
X130815966Y-42702260D01*
X130760601Y-42619399D01*
X130677740Y-42564034D01*
X130677739Y-42564033D01*
X130677738Y-42564033D01*
X130604675Y-42549500D01*
X130604674Y-42549500D01*
X128855326Y-42549500D01*
X128855325Y-42549500D01*
X128782261Y-42564033D01*
X128699399Y-42619399D01*
X128644033Y-42702261D01*
X128629500Y-42775325D01*
X128629500Y-44524675D01*
X126000500Y-44524675D01*
X126000500Y-35124500D01*
X126017113Y-35062500D01*
X126062500Y-35017113D01*
X126124500Y-35000500D01*
X140875500Y-35000500D01*
X140937500Y-35017113D01*
G37*
%TD.AperFunction*%
%TD*%
%TA.AperFunction,Conductor*%
%TO.N,Board_5-GND*%
G36*
X125937500Y-35017113D02*
G01*
X125982887Y-35062500D01*
X125999500Y-35124500D01*
X125999500Y-49875500D01*
X125982887Y-49937500D01*
X125937500Y-49982887D01*
X125875500Y-49999500D01*
X111124500Y-49999500D01*
X111062500Y-49982887D01*
X111017113Y-49937500D01*
X111000500Y-49875500D01*
X111000500Y-49000000D01*
X114344721Y-49000000D01*
X114363763Y-49156818D01*
X114419780Y-49304523D01*
X114509515Y-49434528D01*
X114509516Y-49434529D01*
X114509517Y-49434530D01*
X114627760Y-49539283D01*
X114767635Y-49612696D01*
X114921015Y-49650500D01*
X115078985Y-49650500D01*
X115232365Y-49612696D01*
X115372240Y-49539283D01*
X115490483Y-49434530D01*
X115580220Y-49304523D01*
X115636237Y-49156818D01*
X115655278Y-49000000D01*
X115649102Y-48949143D01*
X115654980Y-48893751D01*
X115684515Y-48846520D01*
X116260119Y-48270917D01*
X116300348Y-48244037D01*
X116347801Y-48234598D01*
X118114192Y-48234598D01*
X118171819Y-48248802D01*
X118216243Y-48288160D01*
X118220015Y-48293626D01*
X118220016Y-48293627D01*
X118220017Y-48293628D01*
X118338260Y-48398381D01*
X118478135Y-48471794D01*
X118631515Y-48509598D01*
X118789485Y-48509598D01*
X118942865Y-48471794D01*
X119082740Y-48398381D01*
X119200983Y-48293628D01*
X119290720Y-48163621D01*
X119346737Y-48015916D01*
X119365778Y-47859098D01*
X119346737Y-47702280D01*
X119290720Y-47554575D01*
X119231924Y-47469394D01*
X119200984Y-47424569D01*
X119200983Y-47424568D01*
X119082740Y-47319815D01*
X119069494Y-47312862D01*
X118942864Y-47246401D01*
X118789485Y-47208598D01*
X118631515Y-47208598D01*
X118478135Y-47246401D01*
X118338261Y-47319814D01*
X118220015Y-47424569D01*
X118216243Y-47430036D01*
X118171819Y-47469394D01*
X118114192Y-47483598D01*
X116192707Y-47483598D01*
X116167261Y-47480959D01*
X116156635Y-47478731D01*
X116156634Y-47478731D01*
X116138760Y-47480959D01*
X116125225Y-47482646D01*
X116109888Y-47483598D01*
X116109786Y-47483598D01*
X116089301Y-47487016D01*
X116084234Y-47487755D01*
X116024469Y-47495205D01*
X116024214Y-47495287D01*
X115971272Y-47523936D01*
X115966722Y-47526278D01*
X115912617Y-47552730D01*
X115912407Y-47552886D01*
X115871621Y-47597191D01*
X115868074Y-47600887D01*
X115155780Y-48313181D01*
X115115552Y-48340061D01*
X115068099Y-48349500D01*
X114921015Y-48349500D01*
X114767635Y-48387303D01*
X114627761Y-48460716D01*
X114509515Y-48565471D01*
X114419780Y-48695476D01*
X114363763Y-48843181D01*
X114344721Y-49000000D01*
X111000500Y-49000000D01*
X111000500Y-44524675D01*
X113629500Y-44524675D01*
X113644033Y-44597738D01*
X113644033Y-44597739D01*
X113644034Y-44597740D01*
X113699399Y-44680601D01*
X113782260Y-44735966D01*
X113818793Y-44743233D01*
X113855325Y-44750500D01*
X113855326Y-44750500D01*
X115604674Y-44750500D01*
X115604675Y-44750500D01*
X115629029Y-44745655D01*
X115677740Y-44735966D01*
X115760601Y-44680601D01*
X115815966Y-44597740D01*
X115830500Y-44524674D01*
X115830500Y-43650000D01*
X116164785Y-43650000D01*
X116183602Y-43853083D01*
X116239418Y-44049251D01*
X116330324Y-44231818D01*
X116453236Y-44394580D01*
X116603958Y-44531981D01*
X116777361Y-44639347D01*
X116777363Y-44639348D01*
X116967544Y-44713024D01*
X117168024Y-44750500D01*
X117371974Y-44750500D01*
X117371976Y-44750500D01*
X117572456Y-44713024D01*
X117762637Y-44639348D01*
X117936041Y-44531981D01*
X118086764Y-44394579D01*
X118209673Y-44231821D01*
X118209673Y-44231819D01*
X118209675Y-44231818D01*
X118255313Y-44140161D01*
X118300582Y-44049250D01*
X118343048Y-43900000D01*
X118737472Y-43900000D01*
X118779886Y-44049069D01*
X118870751Y-44231553D01*
X118993607Y-44394241D01*
X119144259Y-44531578D01*
X119317588Y-44638899D01*
X119507679Y-44712539D01*
X119560000Y-44722320D01*
X119560000Y-43900000D01*
X120060000Y-43900000D01*
X120060000Y-44722320D01*
X120112320Y-44712539D01*
X120302411Y-44638899D01*
X120475740Y-44531578D01*
X120626392Y-44394241D01*
X120749248Y-44231553D01*
X120840113Y-44049069D01*
X120882528Y-43900000D01*
X120060000Y-43900000D01*
X119560000Y-43900000D01*
X118737472Y-43900000D01*
X118343048Y-43900000D01*
X118356397Y-43853083D01*
X118375215Y-43650000D01*
X121244785Y-43650000D01*
X121263602Y-43853083D01*
X121319418Y-44049251D01*
X121410324Y-44231818D01*
X121533236Y-44394580D01*
X121683958Y-44531981D01*
X121857361Y-44639347D01*
X121857363Y-44639348D01*
X122047544Y-44713024D01*
X122248024Y-44750500D01*
X122451974Y-44750500D01*
X122451976Y-44750500D01*
X122652456Y-44713024D01*
X122842637Y-44639348D01*
X123016041Y-44531981D01*
X123166764Y-44394579D01*
X123289673Y-44231821D01*
X123289673Y-44231819D01*
X123289675Y-44231818D01*
X123335313Y-44140161D01*
X123380582Y-44049250D01*
X123436397Y-43853083D01*
X123455215Y-43650000D01*
X123436397Y-43446917D01*
X123380582Y-43250750D01*
X123380209Y-43250001D01*
X123289675Y-43068181D01*
X123166763Y-42905419D01*
X123016041Y-42768018D01*
X122842638Y-42660652D01*
X122652457Y-42586976D01*
X122529726Y-42564034D01*
X122451976Y-42549500D01*
X122248024Y-42549500D01*
X122170279Y-42564033D01*
X122047542Y-42586976D01*
X121857361Y-42660652D01*
X121683958Y-42768018D01*
X121533236Y-42905419D01*
X121410324Y-43068181D01*
X121319418Y-43250748D01*
X121263602Y-43446916D01*
X121244785Y-43650000D01*
X118375215Y-43650000D01*
X118356397Y-43446917D01*
X118343048Y-43399999D01*
X118737471Y-43399999D01*
X118737472Y-43400000D01*
X119560000Y-43400000D01*
X119560000Y-42577680D01*
X120060000Y-42577680D01*
X120060000Y-43400000D01*
X120882528Y-43400000D01*
X120882528Y-43399999D01*
X120840113Y-43250930D01*
X120749248Y-43068446D01*
X120626392Y-42905758D01*
X120475740Y-42768421D01*
X120302411Y-42661100D01*
X120112320Y-42587460D01*
X120060000Y-42577680D01*
X119560000Y-42577680D01*
X119507679Y-42587460D01*
X119317588Y-42661100D01*
X119144259Y-42768421D01*
X118993607Y-42905758D01*
X118870751Y-43068446D01*
X118779886Y-43250930D01*
X118737471Y-43399999D01*
X118343048Y-43399999D01*
X118300582Y-43250750D01*
X118300209Y-43250001D01*
X118209675Y-43068181D01*
X118086763Y-42905419D01*
X117936041Y-42768018D01*
X117762638Y-42660652D01*
X117572457Y-42586976D01*
X117449726Y-42564034D01*
X117371976Y-42549500D01*
X117168024Y-42549500D01*
X117090279Y-42564033D01*
X116967542Y-42586976D01*
X116777361Y-42660652D01*
X116603958Y-42768018D01*
X116453236Y-42905419D01*
X116330324Y-43068181D01*
X116239418Y-43250748D01*
X116183602Y-43446916D01*
X116164785Y-43650000D01*
X115830500Y-43650000D01*
X115830500Y-42775326D01*
X115829126Y-42768421D01*
X115815966Y-42702261D01*
X115815966Y-42702260D01*
X115760601Y-42619399D01*
X115677740Y-42564034D01*
X115677739Y-42564033D01*
X115677738Y-42564033D01*
X115604675Y-42549500D01*
X115604674Y-42549500D01*
X113855326Y-42549500D01*
X113855325Y-42549500D01*
X113782261Y-42564033D01*
X113699399Y-42619399D01*
X113644033Y-42702261D01*
X113629500Y-42775325D01*
X113629500Y-44524675D01*
X111000500Y-44524675D01*
X111000500Y-35124500D01*
X111017113Y-35062500D01*
X111062500Y-35017113D01*
X111124500Y-35000500D01*
X125875500Y-35000500D01*
X125937500Y-35017113D01*
G37*
%TD.AperFunction*%
%TD*%
%TA.AperFunction,Conductor*%
%TO.N,Board_10-GND*%
G36*
X125937500Y-50017113D02*
G01*
X125982887Y-50062500D01*
X125999500Y-50124500D01*
X125999500Y-64875500D01*
X125982887Y-64937500D01*
X125937500Y-64982887D01*
X125875500Y-64999500D01*
X111124500Y-64999500D01*
X111062500Y-64982887D01*
X111017113Y-64937500D01*
X111000500Y-64875500D01*
X111000500Y-64000000D01*
X114344721Y-64000000D01*
X114363763Y-64156818D01*
X114419780Y-64304523D01*
X114509515Y-64434528D01*
X114509516Y-64434529D01*
X114509517Y-64434530D01*
X114627760Y-64539283D01*
X114767635Y-64612696D01*
X114921015Y-64650500D01*
X115078985Y-64650500D01*
X115232365Y-64612696D01*
X115372240Y-64539283D01*
X115490483Y-64434530D01*
X115580220Y-64304523D01*
X115636237Y-64156818D01*
X115655278Y-64000000D01*
X115649102Y-63949143D01*
X115654980Y-63893751D01*
X115684515Y-63846520D01*
X116260119Y-63270917D01*
X116300348Y-63244037D01*
X116347801Y-63234598D01*
X118114192Y-63234598D01*
X118171819Y-63248802D01*
X118216243Y-63288160D01*
X118220015Y-63293626D01*
X118220016Y-63293627D01*
X118220017Y-63293628D01*
X118338260Y-63398381D01*
X118478135Y-63471794D01*
X118631515Y-63509598D01*
X118789485Y-63509598D01*
X118942865Y-63471794D01*
X119082740Y-63398381D01*
X119200983Y-63293628D01*
X119290720Y-63163621D01*
X119346737Y-63015916D01*
X119365778Y-62859098D01*
X119346737Y-62702280D01*
X119290720Y-62554575D01*
X119231924Y-62469394D01*
X119200984Y-62424569D01*
X119200983Y-62424568D01*
X119082740Y-62319815D01*
X119069494Y-62312862D01*
X118942864Y-62246401D01*
X118789485Y-62208598D01*
X118631515Y-62208598D01*
X118478135Y-62246401D01*
X118338261Y-62319814D01*
X118220015Y-62424569D01*
X118216243Y-62430036D01*
X118171819Y-62469394D01*
X118114192Y-62483598D01*
X116192707Y-62483598D01*
X116167261Y-62480959D01*
X116156635Y-62478731D01*
X116156634Y-62478731D01*
X116138760Y-62480959D01*
X116125225Y-62482646D01*
X116109888Y-62483598D01*
X116109786Y-62483598D01*
X116089301Y-62487016D01*
X116084234Y-62487755D01*
X116024469Y-62495205D01*
X116024214Y-62495287D01*
X115971272Y-62523936D01*
X115966722Y-62526278D01*
X115912617Y-62552730D01*
X115912407Y-62552886D01*
X115871621Y-62597191D01*
X115868074Y-62600887D01*
X115155780Y-63313181D01*
X115115552Y-63340061D01*
X115068099Y-63349500D01*
X114921015Y-63349500D01*
X114767635Y-63387303D01*
X114627761Y-63460716D01*
X114509515Y-63565471D01*
X114419780Y-63695476D01*
X114363763Y-63843181D01*
X114344721Y-64000000D01*
X111000500Y-64000000D01*
X111000500Y-59524675D01*
X113629500Y-59524675D01*
X113644033Y-59597738D01*
X113644033Y-59597739D01*
X113644034Y-59597740D01*
X113699399Y-59680601D01*
X113782260Y-59735966D01*
X113818793Y-59743233D01*
X113855325Y-59750500D01*
X113855326Y-59750500D01*
X115604674Y-59750500D01*
X115604675Y-59750500D01*
X115629029Y-59745655D01*
X115677740Y-59735966D01*
X115760601Y-59680601D01*
X115815966Y-59597740D01*
X115830500Y-59524674D01*
X115830500Y-58650000D01*
X116164785Y-58650000D01*
X116183602Y-58853083D01*
X116239418Y-59049251D01*
X116330324Y-59231818D01*
X116453236Y-59394580D01*
X116603958Y-59531981D01*
X116777361Y-59639347D01*
X116777363Y-59639348D01*
X116967544Y-59713024D01*
X117168024Y-59750500D01*
X117371974Y-59750500D01*
X117371976Y-59750500D01*
X117572456Y-59713024D01*
X117762637Y-59639348D01*
X117936041Y-59531981D01*
X118086764Y-59394579D01*
X118209673Y-59231821D01*
X118209673Y-59231819D01*
X118209675Y-59231818D01*
X118255313Y-59140161D01*
X118300582Y-59049250D01*
X118343048Y-58900000D01*
X118737472Y-58900000D01*
X118779886Y-59049069D01*
X118870751Y-59231553D01*
X118993607Y-59394241D01*
X119144259Y-59531578D01*
X119317588Y-59638899D01*
X119507679Y-59712539D01*
X119560000Y-59722320D01*
X119560000Y-58900000D01*
X120060000Y-58900000D01*
X120060000Y-59722320D01*
X120112320Y-59712539D01*
X120302411Y-59638899D01*
X120475740Y-59531578D01*
X120626392Y-59394241D01*
X120749248Y-59231553D01*
X120840113Y-59049069D01*
X120882528Y-58900000D01*
X120060000Y-58900000D01*
X119560000Y-58900000D01*
X118737472Y-58900000D01*
X118343048Y-58900000D01*
X118356397Y-58853083D01*
X118375215Y-58650000D01*
X121244785Y-58650000D01*
X121263602Y-58853083D01*
X121319418Y-59049251D01*
X121410324Y-59231818D01*
X121533236Y-59394580D01*
X121683958Y-59531981D01*
X121857361Y-59639347D01*
X121857363Y-59639348D01*
X122047544Y-59713024D01*
X122248024Y-59750500D01*
X122451974Y-59750500D01*
X122451976Y-59750500D01*
X122652456Y-59713024D01*
X122842637Y-59639348D01*
X123016041Y-59531981D01*
X123166764Y-59394579D01*
X123289673Y-59231821D01*
X123289673Y-59231819D01*
X123289675Y-59231818D01*
X123335313Y-59140161D01*
X123380582Y-59049250D01*
X123436397Y-58853083D01*
X123455215Y-58650000D01*
X123436397Y-58446917D01*
X123380582Y-58250750D01*
X123380209Y-58250001D01*
X123289675Y-58068181D01*
X123166763Y-57905419D01*
X123016041Y-57768018D01*
X122842638Y-57660652D01*
X122652457Y-57586976D01*
X122529726Y-57564034D01*
X122451976Y-57549500D01*
X122248024Y-57549500D01*
X122170279Y-57564033D01*
X122047542Y-57586976D01*
X121857361Y-57660652D01*
X121683958Y-57768018D01*
X121533236Y-57905419D01*
X121410324Y-58068181D01*
X121319418Y-58250748D01*
X121263602Y-58446916D01*
X121244785Y-58650000D01*
X118375215Y-58650000D01*
X118356397Y-58446917D01*
X118343048Y-58399999D01*
X118737471Y-58399999D01*
X118737472Y-58400000D01*
X119560000Y-58400000D01*
X119560000Y-57577680D01*
X120060000Y-57577680D01*
X120060000Y-58400000D01*
X120882528Y-58400000D01*
X120882528Y-58399999D01*
X120840113Y-58250930D01*
X120749248Y-58068446D01*
X120626392Y-57905758D01*
X120475740Y-57768421D01*
X120302411Y-57661100D01*
X120112320Y-57587460D01*
X120060000Y-57577680D01*
X119560000Y-57577680D01*
X119507679Y-57587460D01*
X119317588Y-57661100D01*
X119144259Y-57768421D01*
X118993607Y-57905758D01*
X118870751Y-58068446D01*
X118779886Y-58250930D01*
X118737471Y-58399999D01*
X118343048Y-58399999D01*
X118300582Y-58250750D01*
X118300209Y-58250001D01*
X118209675Y-58068181D01*
X118086763Y-57905419D01*
X117936041Y-57768018D01*
X117762638Y-57660652D01*
X117572457Y-57586976D01*
X117449726Y-57564034D01*
X117371976Y-57549500D01*
X117168024Y-57549500D01*
X117090279Y-57564033D01*
X116967542Y-57586976D01*
X116777361Y-57660652D01*
X116603958Y-57768018D01*
X116453236Y-57905419D01*
X116330324Y-58068181D01*
X116239418Y-58250748D01*
X116183602Y-58446916D01*
X116164785Y-58650000D01*
X115830500Y-58650000D01*
X115830500Y-57775326D01*
X115829126Y-57768421D01*
X115815966Y-57702261D01*
X115815966Y-57702260D01*
X115760601Y-57619399D01*
X115677740Y-57564034D01*
X115677739Y-57564033D01*
X115677738Y-57564033D01*
X115604675Y-57549500D01*
X115604674Y-57549500D01*
X113855326Y-57549500D01*
X113855325Y-57549500D01*
X113782261Y-57564033D01*
X113699399Y-57619399D01*
X113644033Y-57702261D01*
X113629500Y-57775325D01*
X113629500Y-59524675D01*
X111000500Y-59524675D01*
X111000500Y-50124500D01*
X111017113Y-50062500D01*
X111062500Y-50017113D01*
X111124500Y-50000500D01*
X125875500Y-50000500D01*
X125937500Y-50017113D01*
G37*
%TD.AperFunction*%
%TD*%
%TA.AperFunction,Conductor*%
%TO.N,Board_4-GND*%
G36*
X185937500Y-20017113D02*
G01*
X185982887Y-20062500D01*
X185999500Y-20124500D01*
X185999500Y-34875500D01*
X185982887Y-34937500D01*
X185937500Y-34982887D01*
X185875500Y-34999500D01*
X171124500Y-34999500D01*
X171062500Y-34982887D01*
X171017113Y-34937500D01*
X171000500Y-34875500D01*
X171000500Y-34000000D01*
X174344721Y-34000000D01*
X174363763Y-34156818D01*
X174419780Y-34304523D01*
X174509515Y-34434528D01*
X174509516Y-34434529D01*
X174509517Y-34434530D01*
X174627760Y-34539283D01*
X174767635Y-34612696D01*
X174921015Y-34650500D01*
X175078985Y-34650500D01*
X175232365Y-34612696D01*
X175372240Y-34539283D01*
X175490483Y-34434530D01*
X175580220Y-34304523D01*
X175636237Y-34156818D01*
X175655278Y-34000000D01*
X175649102Y-33949143D01*
X175654980Y-33893751D01*
X175684515Y-33846520D01*
X176260119Y-33270917D01*
X176300348Y-33244037D01*
X176347801Y-33234598D01*
X178114192Y-33234598D01*
X178171819Y-33248802D01*
X178216243Y-33288160D01*
X178220015Y-33293626D01*
X178220016Y-33293627D01*
X178220017Y-33293628D01*
X178338260Y-33398381D01*
X178478135Y-33471794D01*
X178631515Y-33509598D01*
X178789485Y-33509598D01*
X178942865Y-33471794D01*
X179082740Y-33398381D01*
X179200983Y-33293628D01*
X179290720Y-33163621D01*
X179346737Y-33015916D01*
X179365778Y-32859098D01*
X179346737Y-32702280D01*
X179290720Y-32554575D01*
X179231924Y-32469394D01*
X179200984Y-32424569D01*
X179200983Y-32424568D01*
X179082740Y-32319815D01*
X179069494Y-32312862D01*
X178942864Y-32246401D01*
X178789485Y-32208598D01*
X178631515Y-32208598D01*
X178478135Y-32246401D01*
X178338261Y-32319814D01*
X178220015Y-32424569D01*
X178216243Y-32430036D01*
X178171819Y-32469394D01*
X178114192Y-32483598D01*
X176192707Y-32483598D01*
X176167261Y-32480959D01*
X176156635Y-32478731D01*
X176156634Y-32478731D01*
X176138760Y-32480959D01*
X176125225Y-32482646D01*
X176109888Y-32483598D01*
X176109786Y-32483598D01*
X176089301Y-32487016D01*
X176084234Y-32487755D01*
X176024469Y-32495205D01*
X176024214Y-32495287D01*
X175971272Y-32523936D01*
X175966722Y-32526278D01*
X175912617Y-32552730D01*
X175912407Y-32552886D01*
X175871621Y-32597191D01*
X175868074Y-32600887D01*
X175155780Y-33313181D01*
X175115552Y-33340061D01*
X175068099Y-33349500D01*
X174921015Y-33349500D01*
X174767635Y-33387303D01*
X174627761Y-33460716D01*
X174509515Y-33565471D01*
X174419780Y-33695476D01*
X174363763Y-33843181D01*
X174344721Y-34000000D01*
X171000500Y-34000000D01*
X171000500Y-29524675D01*
X173629500Y-29524675D01*
X173644033Y-29597738D01*
X173644033Y-29597739D01*
X173644034Y-29597740D01*
X173699399Y-29680601D01*
X173782260Y-29735966D01*
X173818793Y-29743233D01*
X173855325Y-29750500D01*
X173855326Y-29750500D01*
X175604674Y-29750500D01*
X175604675Y-29750500D01*
X175629029Y-29745655D01*
X175677740Y-29735966D01*
X175760601Y-29680601D01*
X175815966Y-29597740D01*
X175830500Y-29524674D01*
X175830500Y-28650000D01*
X176164785Y-28650000D01*
X176183602Y-28853083D01*
X176239418Y-29049251D01*
X176330324Y-29231818D01*
X176453236Y-29394580D01*
X176603958Y-29531981D01*
X176777361Y-29639347D01*
X176777363Y-29639348D01*
X176967544Y-29713024D01*
X177168024Y-29750500D01*
X177371974Y-29750500D01*
X177371976Y-29750500D01*
X177572456Y-29713024D01*
X177762637Y-29639348D01*
X177936041Y-29531981D01*
X178086764Y-29394579D01*
X178209673Y-29231821D01*
X178209673Y-29231819D01*
X178209675Y-29231818D01*
X178255313Y-29140161D01*
X178300582Y-29049250D01*
X178343048Y-28900000D01*
X178737472Y-28900000D01*
X178779886Y-29049069D01*
X178870751Y-29231553D01*
X178993607Y-29394241D01*
X179144259Y-29531578D01*
X179317588Y-29638899D01*
X179507679Y-29712539D01*
X179560000Y-29722320D01*
X179560000Y-28900000D01*
X180060000Y-28900000D01*
X180060000Y-29722320D01*
X180112320Y-29712539D01*
X180302411Y-29638899D01*
X180475740Y-29531578D01*
X180626392Y-29394241D01*
X180749248Y-29231553D01*
X180840113Y-29049069D01*
X180882528Y-28900000D01*
X180060000Y-28900000D01*
X179560000Y-28900000D01*
X178737472Y-28900000D01*
X178343048Y-28900000D01*
X178356397Y-28853083D01*
X178375215Y-28650000D01*
X181244785Y-28650000D01*
X181263602Y-28853083D01*
X181319418Y-29049251D01*
X181410324Y-29231818D01*
X181533236Y-29394580D01*
X181683958Y-29531981D01*
X181857361Y-29639347D01*
X181857363Y-29639348D01*
X182047544Y-29713024D01*
X182248024Y-29750500D01*
X182451974Y-29750500D01*
X182451976Y-29750500D01*
X182652456Y-29713024D01*
X182842637Y-29639348D01*
X183016041Y-29531981D01*
X183166764Y-29394579D01*
X183289673Y-29231821D01*
X183289673Y-29231819D01*
X183289675Y-29231818D01*
X183335313Y-29140161D01*
X183380582Y-29049250D01*
X183436397Y-28853083D01*
X183455215Y-28650000D01*
X183436397Y-28446917D01*
X183380582Y-28250750D01*
X183380209Y-28250001D01*
X183289675Y-28068181D01*
X183166763Y-27905419D01*
X183016041Y-27768018D01*
X182842638Y-27660652D01*
X182652457Y-27586976D01*
X182529726Y-27564034D01*
X182451976Y-27549500D01*
X182248024Y-27549500D01*
X182170279Y-27564033D01*
X182047542Y-27586976D01*
X181857361Y-27660652D01*
X181683958Y-27768018D01*
X181533236Y-27905419D01*
X181410324Y-28068181D01*
X181319418Y-28250748D01*
X181263602Y-28446916D01*
X181244785Y-28650000D01*
X178375215Y-28650000D01*
X178356397Y-28446917D01*
X178343048Y-28399999D01*
X178737471Y-28399999D01*
X178737472Y-28400000D01*
X179560000Y-28400000D01*
X179560000Y-27577680D01*
X180060000Y-27577680D01*
X180060000Y-28400000D01*
X180882528Y-28400000D01*
X180882528Y-28399999D01*
X180840113Y-28250930D01*
X180749248Y-28068446D01*
X180626392Y-27905758D01*
X180475740Y-27768421D01*
X180302411Y-27661100D01*
X180112320Y-27587460D01*
X180060000Y-27577680D01*
X179560000Y-27577680D01*
X179507679Y-27587460D01*
X179317588Y-27661100D01*
X179144259Y-27768421D01*
X178993607Y-27905758D01*
X178870751Y-28068446D01*
X178779886Y-28250930D01*
X178737471Y-28399999D01*
X178343048Y-28399999D01*
X178300582Y-28250750D01*
X178300209Y-28250001D01*
X178209675Y-28068181D01*
X178086763Y-27905419D01*
X177936041Y-27768018D01*
X177762638Y-27660652D01*
X177572457Y-27586976D01*
X177449726Y-27564034D01*
X177371976Y-27549500D01*
X177168024Y-27549500D01*
X177090279Y-27564033D01*
X176967542Y-27586976D01*
X176777361Y-27660652D01*
X176603958Y-27768018D01*
X176453236Y-27905419D01*
X176330324Y-28068181D01*
X176239418Y-28250748D01*
X176183602Y-28446916D01*
X176164785Y-28650000D01*
X175830500Y-28650000D01*
X175830500Y-27775326D01*
X175829126Y-27768421D01*
X175815966Y-27702261D01*
X175815966Y-27702260D01*
X175760601Y-27619399D01*
X175677740Y-27564034D01*
X175677739Y-27564033D01*
X175677738Y-27564033D01*
X175604675Y-27549500D01*
X175604674Y-27549500D01*
X173855326Y-27549500D01*
X173855325Y-27549500D01*
X173782261Y-27564033D01*
X173699399Y-27619399D01*
X173644033Y-27702261D01*
X173629500Y-27775325D01*
X173629500Y-29524675D01*
X171000500Y-29524675D01*
X171000500Y-20124500D01*
X171017113Y-20062500D01*
X171062500Y-20017113D01*
X171124500Y-20000500D01*
X185875500Y-20000500D01*
X185937500Y-20017113D01*
G37*
%TD.AperFunction*%
%TD*%
%TA.AperFunction,Conductor*%
%TO.N,Board_17-GND*%
G36*
X155937500Y-65017113D02*
G01*
X155982887Y-65062500D01*
X155999500Y-65124500D01*
X155999500Y-79875500D01*
X155982887Y-79937500D01*
X155937500Y-79982887D01*
X155875500Y-79999500D01*
X141124500Y-79999500D01*
X141062500Y-79982887D01*
X141017113Y-79937500D01*
X141000500Y-79875500D01*
X141000500Y-79000000D01*
X144344721Y-79000000D01*
X144363763Y-79156818D01*
X144419780Y-79304523D01*
X144509515Y-79434528D01*
X144509516Y-79434529D01*
X144509517Y-79434530D01*
X144627760Y-79539283D01*
X144767635Y-79612696D01*
X144921015Y-79650500D01*
X145078985Y-79650500D01*
X145232365Y-79612696D01*
X145372240Y-79539283D01*
X145490483Y-79434530D01*
X145580220Y-79304523D01*
X145636237Y-79156818D01*
X145655278Y-79000000D01*
X145649102Y-78949143D01*
X145654980Y-78893751D01*
X145684515Y-78846520D01*
X146260119Y-78270917D01*
X146300348Y-78244037D01*
X146347801Y-78234598D01*
X148114192Y-78234598D01*
X148171819Y-78248802D01*
X148216243Y-78288160D01*
X148220015Y-78293626D01*
X148220016Y-78293627D01*
X148220017Y-78293628D01*
X148338260Y-78398381D01*
X148478135Y-78471794D01*
X148631515Y-78509598D01*
X148789485Y-78509598D01*
X148942865Y-78471794D01*
X149082740Y-78398381D01*
X149200983Y-78293628D01*
X149290720Y-78163621D01*
X149346737Y-78015916D01*
X149365778Y-77859098D01*
X149346737Y-77702280D01*
X149290720Y-77554575D01*
X149231924Y-77469394D01*
X149200984Y-77424569D01*
X149200983Y-77424568D01*
X149082740Y-77319815D01*
X149069494Y-77312862D01*
X148942864Y-77246401D01*
X148789485Y-77208598D01*
X148631515Y-77208598D01*
X148478135Y-77246401D01*
X148338261Y-77319814D01*
X148220015Y-77424569D01*
X148216243Y-77430036D01*
X148171819Y-77469394D01*
X148114192Y-77483598D01*
X146192707Y-77483598D01*
X146167261Y-77480959D01*
X146156635Y-77478731D01*
X146156634Y-77478731D01*
X146138760Y-77480959D01*
X146125225Y-77482646D01*
X146109888Y-77483598D01*
X146109786Y-77483598D01*
X146089301Y-77487016D01*
X146084234Y-77487755D01*
X146024469Y-77495205D01*
X146024214Y-77495287D01*
X145971272Y-77523936D01*
X145966722Y-77526278D01*
X145912617Y-77552730D01*
X145912407Y-77552886D01*
X145871621Y-77597191D01*
X145868074Y-77600887D01*
X145155780Y-78313181D01*
X145115552Y-78340061D01*
X145068099Y-78349500D01*
X144921015Y-78349500D01*
X144767635Y-78387303D01*
X144627761Y-78460716D01*
X144509515Y-78565471D01*
X144419780Y-78695476D01*
X144363763Y-78843181D01*
X144344721Y-79000000D01*
X141000500Y-79000000D01*
X141000500Y-74524675D01*
X143629500Y-74524675D01*
X143644033Y-74597738D01*
X143644033Y-74597739D01*
X143644034Y-74597740D01*
X143699399Y-74680601D01*
X143782260Y-74735966D01*
X143818793Y-74743233D01*
X143855325Y-74750500D01*
X143855326Y-74750500D01*
X145604674Y-74750500D01*
X145604675Y-74750500D01*
X145629029Y-74745655D01*
X145677740Y-74735966D01*
X145760601Y-74680601D01*
X145815966Y-74597740D01*
X145830500Y-74524674D01*
X145830500Y-73650000D01*
X146164785Y-73650000D01*
X146183602Y-73853083D01*
X146239418Y-74049251D01*
X146330324Y-74231818D01*
X146453236Y-74394580D01*
X146603958Y-74531981D01*
X146777361Y-74639347D01*
X146777363Y-74639348D01*
X146967544Y-74713024D01*
X147168024Y-74750500D01*
X147371974Y-74750500D01*
X147371976Y-74750500D01*
X147572456Y-74713024D01*
X147762637Y-74639348D01*
X147936041Y-74531981D01*
X148086764Y-74394579D01*
X148209673Y-74231821D01*
X148209673Y-74231819D01*
X148209675Y-74231818D01*
X148255313Y-74140161D01*
X148300582Y-74049250D01*
X148343048Y-73900000D01*
X148737472Y-73900000D01*
X148779886Y-74049069D01*
X148870751Y-74231553D01*
X148993607Y-74394241D01*
X149144259Y-74531578D01*
X149317588Y-74638899D01*
X149507679Y-74712539D01*
X149560000Y-74722320D01*
X149560000Y-73900000D01*
X150060000Y-73900000D01*
X150060000Y-74722320D01*
X150112320Y-74712539D01*
X150302411Y-74638899D01*
X150475740Y-74531578D01*
X150626392Y-74394241D01*
X150749248Y-74231553D01*
X150840113Y-74049069D01*
X150882528Y-73900000D01*
X150060000Y-73900000D01*
X149560000Y-73900000D01*
X148737472Y-73900000D01*
X148343048Y-73900000D01*
X148356397Y-73853083D01*
X148375215Y-73650000D01*
X151244785Y-73650000D01*
X151263602Y-73853083D01*
X151319418Y-74049251D01*
X151410324Y-74231818D01*
X151533236Y-74394580D01*
X151683958Y-74531981D01*
X151857361Y-74639347D01*
X151857363Y-74639348D01*
X152047544Y-74713024D01*
X152248024Y-74750500D01*
X152451974Y-74750500D01*
X152451976Y-74750500D01*
X152652456Y-74713024D01*
X152842637Y-74639348D01*
X153016041Y-74531981D01*
X153166764Y-74394579D01*
X153289673Y-74231821D01*
X153289673Y-74231819D01*
X153289675Y-74231818D01*
X153335313Y-74140161D01*
X153380582Y-74049250D01*
X153436397Y-73853083D01*
X153455215Y-73650000D01*
X153436397Y-73446917D01*
X153380582Y-73250750D01*
X153380209Y-73250001D01*
X153289675Y-73068181D01*
X153166763Y-72905419D01*
X153016041Y-72768018D01*
X152842638Y-72660652D01*
X152652457Y-72586976D01*
X152529726Y-72564034D01*
X152451976Y-72549500D01*
X152248024Y-72549500D01*
X152170279Y-72564033D01*
X152047542Y-72586976D01*
X151857361Y-72660652D01*
X151683958Y-72768018D01*
X151533236Y-72905419D01*
X151410324Y-73068181D01*
X151319418Y-73250748D01*
X151263602Y-73446916D01*
X151244785Y-73650000D01*
X148375215Y-73650000D01*
X148356397Y-73446917D01*
X148343048Y-73399999D01*
X148737471Y-73399999D01*
X148737472Y-73400000D01*
X149560000Y-73400000D01*
X149560000Y-72577680D01*
X150060000Y-72577680D01*
X150060000Y-73400000D01*
X150882528Y-73400000D01*
X150882528Y-73399999D01*
X150840113Y-73250930D01*
X150749248Y-73068446D01*
X150626392Y-72905758D01*
X150475740Y-72768421D01*
X150302411Y-72661100D01*
X150112320Y-72587460D01*
X150060000Y-72577680D01*
X149560000Y-72577680D01*
X149507679Y-72587460D01*
X149317588Y-72661100D01*
X149144259Y-72768421D01*
X148993607Y-72905758D01*
X148870751Y-73068446D01*
X148779886Y-73250930D01*
X148737471Y-73399999D01*
X148343048Y-73399999D01*
X148300582Y-73250750D01*
X148300209Y-73250001D01*
X148209675Y-73068181D01*
X148086763Y-72905419D01*
X147936041Y-72768018D01*
X147762638Y-72660652D01*
X147572457Y-72586976D01*
X147449726Y-72564034D01*
X147371976Y-72549500D01*
X147168024Y-72549500D01*
X147090279Y-72564033D01*
X146967542Y-72586976D01*
X146777361Y-72660652D01*
X146603958Y-72768018D01*
X146453236Y-72905419D01*
X146330324Y-73068181D01*
X146239418Y-73250748D01*
X146183602Y-73446916D01*
X146164785Y-73650000D01*
X145830500Y-73650000D01*
X145830500Y-72775326D01*
X145829126Y-72768421D01*
X145815966Y-72702261D01*
X145815966Y-72702260D01*
X145760601Y-72619399D01*
X145677740Y-72564034D01*
X145677739Y-72564033D01*
X145677738Y-72564033D01*
X145604675Y-72549500D01*
X145604674Y-72549500D01*
X143855326Y-72549500D01*
X143855325Y-72549500D01*
X143782261Y-72564033D01*
X143699399Y-72619399D01*
X143644033Y-72702261D01*
X143629500Y-72775325D01*
X143629500Y-74524675D01*
X141000500Y-74524675D01*
X141000500Y-65124500D01*
X141017113Y-65062500D01*
X141062500Y-65017113D01*
X141124500Y-65000500D01*
X155875500Y-65000500D01*
X155937500Y-65017113D01*
G37*
%TD.AperFunction*%
%TD*%
%TA.AperFunction,Conductor*%
%TO.N,Board_7-GND*%
G36*
X155937500Y-35017113D02*
G01*
X155982887Y-35062500D01*
X155999500Y-35124500D01*
X155999500Y-49875500D01*
X155982887Y-49937500D01*
X155937500Y-49982887D01*
X155875500Y-49999500D01*
X141124500Y-49999500D01*
X141062500Y-49982887D01*
X141017113Y-49937500D01*
X141000500Y-49875500D01*
X141000500Y-49000000D01*
X144344721Y-49000000D01*
X144363763Y-49156818D01*
X144419780Y-49304523D01*
X144509515Y-49434528D01*
X144509516Y-49434529D01*
X144509517Y-49434530D01*
X144627760Y-49539283D01*
X144767635Y-49612696D01*
X144921015Y-49650500D01*
X145078985Y-49650500D01*
X145232365Y-49612696D01*
X145372240Y-49539283D01*
X145490483Y-49434530D01*
X145580220Y-49304523D01*
X145636237Y-49156818D01*
X145655278Y-49000000D01*
X145649102Y-48949143D01*
X145654980Y-48893751D01*
X145684515Y-48846520D01*
X146260119Y-48270917D01*
X146300348Y-48244037D01*
X146347801Y-48234598D01*
X148114192Y-48234598D01*
X148171819Y-48248802D01*
X148216243Y-48288160D01*
X148220015Y-48293626D01*
X148220016Y-48293627D01*
X148220017Y-48293628D01*
X148338260Y-48398381D01*
X148478135Y-48471794D01*
X148631515Y-48509598D01*
X148789485Y-48509598D01*
X148942865Y-48471794D01*
X149082740Y-48398381D01*
X149200983Y-48293628D01*
X149290720Y-48163621D01*
X149346737Y-48015916D01*
X149365778Y-47859098D01*
X149346737Y-47702280D01*
X149290720Y-47554575D01*
X149231924Y-47469394D01*
X149200984Y-47424569D01*
X149200983Y-47424568D01*
X149082740Y-47319815D01*
X149069494Y-47312862D01*
X148942864Y-47246401D01*
X148789485Y-47208598D01*
X148631515Y-47208598D01*
X148478135Y-47246401D01*
X148338261Y-47319814D01*
X148220015Y-47424569D01*
X148216243Y-47430036D01*
X148171819Y-47469394D01*
X148114192Y-47483598D01*
X146192707Y-47483598D01*
X146167261Y-47480959D01*
X146156635Y-47478731D01*
X146156634Y-47478731D01*
X146138760Y-47480959D01*
X146125225Y-47482646D01*
X146109888Y-47483598D01*
X146109786Y-47483598D01*
X146089301Y-47487016D01*
X146084234Y-47487755D01*
X146024469Y-47495205D01*
X146024214Y-47495287D01*
X145971272Y-47523936D01*
X145966722Y-47526278D01*
X145912617Y-47552730D01*
X145912407Y-47552886D01*
X145871621Y-47597191D01*
X145868074Y-47600887D01*
X145155780Y-48313181D01*
X145115552Y-48340061D01*
X145068099Y-48349500D01*
X144921015Y-48349500D01*
X144767635Y-48387303D01*
X144627761Y-48460716D01*
X144509515Y-48565471D01*
X144419780Y-48695476D01*
X144363763Y-48843181D01*
X144344721Y-49000000D01*
X141000500Y-49000000D01*
X141000500Y-44524675D01*
X143629500Y-44524675D01*
X143644033Y-44597738D01*
X143644033Y-44597739D01*
X143644034Y-44597740D01*
X143699399Y-44680601D01*
X143782260Y-44735966D01*
X143818793Y-44743233D01*
X143855325Y-44750500D01*
X143855326Y-44750500D01*
X145604674Y-44750500D01*
X145604675Y-44750500D01*
X145629029Y-44745655D01*
X145677740Y-44735966D01*
X145760601Y-44680601D01*
X145815966Y-44597740D01*
X145830500Y-44524674D01*
X145830500Y-43650000D01*
X146164785Y-43650000D01*
X146183602Y-43853083D01*
X146239418Y-44049251D01*
X146330324Y-44231818D01*
X146453236Y-44394580D01*
X146603958Y-44531981D01*
X146777361Y-44639347D01*
X146777363Y-44639348D01*
X146967544Y-44713024D01*
X147168024Y-44750500D01*
X147371974Y-44750500D01*
X147371976Y-44750500D01*
X147572456Y-44713024D01*
X147762637Y-44639348D01*
X147936041Y-44531981D01*
X148086764Y-44394579D01*
X148209673Y-44231821D01*
X148209673Y-44231819D01*
X148209675Y-44231818D01*
X148255313Y-44140161D01*
X148300582Y-44049250D01*
X148343048Y-43900000D01*
X148737472Y-43900000D01*
X148779886Y-44049069D01*
X148870751Y-44231553D01*
X148993607Y-44394241D01*
X149144259Y-44531578D01*
X149317588Y-44638899D01*
X149507679Y-44712539D01*
X149560000Y-44722320D01*
X149560000Y-43900000D01*
X150060000Y-43900000D01*
X150060000Y-44722320D01*
X150112320Y-44712539D01*
X150302411Y-44638899D01*
X150475740Y-44531578D01*
X150626392Y-44394241D01*
X150749248Y-44231553D01*
X150840113Y-44049069D01*
X150882528Y-43900000D01*
X150060000Y-43900000D01*
X149560000Y-43900000D01*
X148737472Y-43900000D01*
X148343048Y-43900000D01*
X148356397Y-43853083D01*
X148375215Y-43650000D01*
X151244785Y-43650000D01*
X151263602Y-43853083D01*
X151319418Y-44049251D01*
X151410324Y-44231818D01*
X151533236Y-44394580D01*
X151683958Y-44531981D01*
X151857361Y-44639347D01*
X151857363Y-44639348D01*
X152047544Y-44713024D01*
X152248024Y-44750500D01*
X152451974Y-44750500D01*
X152451976Y-44750500D01*
X152652456Y-44713024D01*
X152842637Y-44639348D01*
X153016041Y-44531981D01*
X153166764Y-44394579D01*
X153289673Y-44231821D01*
X153289673Y-44231819D01*
X153289675Y-44231818D01*
X153335313Y-44140161D01*
X153380582Y-44049250D01*
X153436397Y-43853083D01*
X153455215Y-43650000D01*
X153436397Y-43446917D01*
X153380582Y-43250750D01*
X153380209Y-43250001D01*
X153289675Y-43068181D01*
X153166763Y-42905419D01*
X153016041Y-42768018D01*
X152842638Y-42660652D01*
X152652457Y-42586976D01*
X152529726Y-42564034D01*
X152451976Y-42549500D01*
X152248024Y-42549500D01*
X152170279Y-42564033D01*
X152047542Y-42586976D01*
X151857361Y-42660652D01*
X151683958Y-42768018D01*
X151533236Y-42905419D01*
X151410324Y-43068181D01*
X151319418Y-43250748D01*
X151263602Y-43446916D01*
X151244785Y-43650000D01*
X148375215Y-43650000D01*
X148356397Y-43446917D01*
X148343048Y-43399999D01*
X148737471Y-43399999D01*
X148737472Y-43400000D01*
X149560000Y-43400000D01*
X149560000Y-42577680D01*
X150060000Y-42577680D01*
X150060000Y-43400000D01*
X150882528Y-43400000D01*
X150882528Y-43399999D01*
X150840113Y-43250930D01*
X150749248Y-43068446D01*
X150626392Y-42905758D01*
X150475740Y-42768421D01*
X150302411Y-42661100D01*
X150112320Y-42587460D01*
X150060000Y-42577680D01*
X149560000Y-42577680D01*
X149507679Y-42587460D01*
X149317588Y-42661100D01*
X149144259Y-42768421D01*
X148993607Y-42905758D01*
X148870751Y-43068446D01*
X148779886Y-43250930D01*
X148737471Y-43399999D01*
X148343048Y-43399999D01*
X148300582Y-43250750D01*
X148300209Y-43250001D01*
X148209675Y-43068181D01*
X148086763Y-42905419D01*
X147936041Y-42768018D01*
X147762638Y-42660652D01*
X147572457Y-42586976D01*
X147449726Y-42564034D01*
X147371976Y-42549500D01*
X147168024Y-42549500D01*
X147090279Y-42564033D01*
X146967542Y-42586976D01*
X146777361Y-42660652D01*
X146603958Y-42768018D01*
X146453236Y-42905419D01*
X146330324Y-43068181D01*
X146239418Y-43250748D01*
X146183602Y-43446916D01*
X146164785Y-43650000D01*
X145830500Y-43650000D01*
X145830500Y-42775326D01*
X145829126Y-42768421D01*
X145815966Y-42702261D01*
X145815966Y-42702260D01*
X145760601Y-42619399D01*
X145677740Y-42564034D01*
X145677739Y-42564033D01*
X145677738Y-42564033D01*
X145604675Y-42549500D01*
X145604674Y-42549500D01*
X143855326Y-42549500D01*
X143855325Y-42549500D01*
X143782261Y-42564033D01*
X143699399Y-42619399D01*
X143644033Y-42702261D01*
X143629500Y-42775325D01*
X143629500Y-44524675D01*
X141000500Y-44524675D01*
X141000500Y-35124500D01*
X141017113Y-35062500D01*
X141062500Y-35017113D01*
X141124500Y-35000500D01*
X155875500Y-35000500D01*
X155937500Y-35017113D01*
G37*
%TD.AperFunction*%
%TD*%
%TA.AperFunction,Conductor*%
%TO.N,Board_1-GND*%
G36*
X140937500Y-20017113D02*
G01*
X140982887Y-20062500D01*
X140999500Y-20124500D01*
X140999500Y-34875500D01*
X140982887Y-34937500D01*
X140937500Y-34982887D01*
X140875500Y-34999500D01*
X126124500Y-34999500D01*
X126062500Y-34982887D01*
X126017113Y-34937500D01*
X126000500Y-34875500D01*
X126000500Y-34000000D01*
X129344721Y-34000000D01*
X129363763Y-34156818D01*
X129419780Y-34304523D01*
X129509515Y-34434528D01*
X129509516Y-34434529D01*
X129509517Y-34434530D01*
X129627760Y-34539283D01*
X129767635Y-34612696D01*
X129921015Y-34650500D01*
X130078985Y-34650500D01*
X130232365Y-34612696D01*
X130372240Y-34539283D01*
X130490483Y-34434530D01*
X130580220Y-34304523D01*
X130636237Y-34156818D01*
X130655278Y-34000000D01*
X130649102Y-33949143D01*
X130654980Y-33893751D01*
X130684515Y-33846520D01*
X131260119Y-33270917D01*
X131300348Y-33244037D01*
X131347801Y-33234598D01*
X133114192Y-33234598D01*
X133171819Y-33248802D01*
X133216243Y-33288160D01*
X133220015Y-33293626D01*
X133220016Y-33293627D01*
X133220017Y-33293628D01*
X133338260Y-33398381D01*
X133478135Y-33471794D01*
X133631515Y-33509598D01*
X133789485Y-33509598D01*
X133942865Y-33471794D01*
X134082740Y-33398381D01*
X134200983Y-33293628D01*
X134290720Y-33163621D01*
X134346737Y-33015916D01*
X134365778Y-32859098D01*
X134346737Y-32702280D01*
X134290720Y-32554575D01*
X134231924Y-32469394D01*
X134200984Y-32424569D01*
X134200983Y-32424568D01*
X134082740Y-32319815D01*
X134069494Y-32312862D01*
X133942864Y-32246401D01*
X133789485Y-32208598D01*
X133631515Y-32208598D01*
X133478135Y-32246401D01*
X133338261Y-32319814D01*
X133220015Y-32424569D01*
X133216243Y-32430036D01*
X133171819Y-32469394D01*
X133114192Y-32483598D01*
X131192707Y-32483598D01*
X131167261Y-32480959D01*
X131156635Y-32478731D01*
X131156634Y-32478731D01*
X131138760Y-32480959D01*
X131125225Y-32482646D01*
X131109888Y-32483598D01*
X131109786Y-32483598D01*
X131089301Y-32487016D01*
X131084234Y-32487755D01*
X131024469Y-32495205D01*
X131024214Y-32495287D01*
X130971272Y-32523936D01*
X130966722Y-32526278D01*
X130912617Y-32552730D01*
X130912407Y-32552886D01*
X130871621Y-32597191D01*
X130868074Y-32600887D01*
X130155780Y-33313181D01*
X130115552Y-33340061D01*
X130068099Y-33349500D01*
X129921015Y-33349500D01*
X129767635Y-33387303D01*
X129627761Y-33460716D01*
X129509515Y-33565471D01*
X129419780Y-33695476D01*
X129363763Y-33843181D01*
X129344721Y-34000000D01*
X126000500Y-34000000D01*
X126000500Y-29524675D01*
X128629500Y-29524675D01*
X128644033Y-29597738D01*
X128644033Y-29597739D01*
X128644034Y-29597740D01*
X128699399Y-29680601D01*
X128782260Y-29735966D01*
X128818793Y-29743233D01*
X128855325Y-29750500D01*
X128855326Y-29750500D01*
X130604674Y-29750500D01*
X130604675Y-29750500D01*
X130629029Y-29745655D01*
X130677740Y-29735966D01*
X130760601Y-29680601D01*
X130815966Y-29597740D01*
X130830500Y-29524674D01*
X130830500Y-28650000D01*
X131164785Y-28650000D01*
X131183602Y-28853083D01*
X131239418Y-29049251D01*
X131330324Y-29231818D01*
X131453236Y-29394580D01*
X131603958Y-29531981D01*
X131777361Y-29639347D01*
X131777363Y-29639348D01*
X131967544Y-29713024D01*
X132168024Y-29750500D01*
X132371974Y-29750500D01*
X132371976Y-29750500D01*
X132572456Y-29713024D01*
X132762637Y-29639348D01*
X132936041Y-29531981D01*
X133086764Y-29394579D01*
X133209673Y-29231821D01*
X133209673Y-29231819D01*
X133209675Y-29231818D01*
X133255313Y-29140161D01*
X133300582Y-29049250D01*
X133343048Y-28900000D01*
X133737472Y-28900000D01*
X133779886Y-29049069D01*
X133870751Y-29231553D01*
X133993607Y-29394241D01*
X134144259Y-29531578D01*
X134317588Y-29638899D01*
X134507679Y-29712539D01*
X134560000Y-29722320D01*
X134560000Y-28900000D01*
X135060000Y-28900000D01*
X135060000Y-29722320D01*
X135112320Y-29712539D01*
X135302411Y-29638899D01*
X135475740Y-29531578D01*
X135626392Y-29394241D01*
X135749248Y-29231553D01*
X135840113Y-29049069D01*
X135882528Y-28900000D01*
X135060000Y-28900000D01*
X134560000Y-28900000D01*
X133737472Y-28900000D01*
X133343048Y-28900000D01*
X133356397Y-28853083D01*
X133375215Y-28650000D01*
X136244785Y-28650000D01*
X136263602Y-28853083D01*
X136319418Y-29049251D01*
X136410324Y-29231818D01*
X136533236Y-29394580D01*
X136683958Y-29531981D01*
X136857361Y-29639347D01*
X136857363Y-29639348D01*
X137047544Y-29713024D01*
X137248024Y-29750500D01*
X137451974Y-29750500D01*
X137451976Y-29750500D01*
X137652456Y-29713024D01*
X137842637Y-29639348D01*
X138016041Y-29531981D01*
X138166764Y-29394579D01*
X138289673Y-29231821D01*
X138289673Y-29231819D01*
X138289675Y-29231818D01*
X138335313Y-29140161D01*
X138380582Y-29049250D01*
X138436397Y-28853083D01*
X138455215Y-28650000D01*
X138436397Y-28446917D01*
X138380582Y-28250750D01*
X138380209Y-28250001D01*
X138289675Y-28068181D01*
X138166763Y-27905419D01*
X138016041Y-27768018D01*
X137842638Y-27660652D01*
X137652457Y-27586976D01*
X137529726Y-27564034D01*
X137451976Y-27549500D01*
X137248024Y-27549500D01*
X137170279Y-27564033D01*
X137047542Y-27586976D01*
X136857361Y-27660652D01*
X136683958Y-27768018D01*
X136533236Y-27905419D01*
X136410324Y-28068181D01*
X136319418Y-28250748D01*
X136263602Y-28446916D01*
X136244785Y-28650000D01*
X133375215Y-28650000D01*
X133356397Y-28446917D01*
X133343048Y-28399999D01*
X133737471Y-28399999D01*
X133737472Y-28400000D01*
X134560000Y-28400000D01*
X134560000Y-27577680D01*
X135060000Y-27577680D01*
X135060000Y-28400000D01*
X135882528Y-28400000D01*
X135882528Y-28399999D01*
X135840113Y-28250930D01*
X135749248Y-28068446D01*
X135626392Y-27905758D01*
X135475740Y-27768421D01*
X135302411Y-27661100D01*
X135112320Y-27587460D01*
X135060000Y-27577680D01*
X134560000Y-27577680D01*
X134507679Y-27587460D01*
X134317588Y-27661100D01*
X134144259Y-27768421D01*
X133993607Y-27905758D01*
X133870751Y-28068446D01*
X133779886Y-28250930D01*
X133737471Y-28399999D01*
X133343048Y-28399999D01*
X133300582Y-28250750D01*
X133300209Y-28250001D01*
X133209675Y-28068181D01*
X133086763Y-27905419D01*
X132936041Y-27768018D01*
X132762638Y-27660652D01*
X132572457Y-27586976D01*
X132449726Y-27564034D01*
X132371976Y-27549500D01*
X132168024Y-27549500D01*
X132090279Y-27564033D01*
X131967542Y-27586976D01*
X131777361Y-27660652D01*
X131603958Y-27768018D01*
X131453236Y-27905419D01*
X131330324Y-28068181D01*
X131239418Y-28250748D01*
X131183602Y-28446916D01*
X131164785Y-28650000D01*
X130830500Y-28650000D01*
X130830500Y-27775326D01*
X130829126Y-27768421D01*
X130815966Y-27702261D01*
X130815966Y-27702260D01*
X130760601Y-27619399D01*
X130677740Y-27564034D01*
X130677739Y-27564033D01*
X130677738Y-27564033D01*
X130604675Y-27549500D01*
X130604674Y-27549500D01*
X128855326Y-27549500D01*
X128855325Y-27549500D01*
X128782261Y-27564033D01*
X128699399Y-27619399D01*
X128644033Y-27702261D01*
X128629500Y-27775325D01*
X128629500Y-29524675D01*
X126000500Y-29524675D01*
X126000500Y-20124500D01*
X126017113Y-20062500D01*
X126062500Y-20017113D01*
X126124500Y-20000500D01*
X140875500Y-20000500D01*
X140937500Y-20017113D01*
G37*
%TD.AperFunction*%
%TD*%
%TA.AperFunction,Conductor*%
%TO.N,Board_3-GND*%
G36*
X170937500Y-20017113D02*
G01*
X170982887Y-20062500D01*
X170999500Y-20124500D01*
X170999500Y-34875500D01*
X170982887Y-34937500D01*
X170937500Y-34982887D01*
X170875500Y-34999500D01*
X156124500Y-34999500D01*
X156062500Y-34982887D01*
X156017113Y-34937500D01*
X156000500Y-34875500D01*
X156000500Y-34000000D01*
X159344721Y-34000000D01*
X159363763Y-34156818D01*
X159419780Y-34304523D01*
X159509515Y-34434528D01*
X159509516Y-34434529D01*
X159509517Y-34434530D01*
X159627760Y-34539283D01*
X159767635Y-34612696D01*
X159921015Y-34650500D01*
X160078985Y-34650500D01*
X160232365Y-34612696D01*
X160372240Y-34539283D01*
X160490483Y-34434530D01*
X160580220Y-34304523D01*
X160636237Y-34156818D01*
X160655278Y-34000000D01*
X160649102Y-33949143D01*
X160654980Y-33893751D01*
X160684515Y-33846520D01*
X161260119Y-33270917D01*
X161300348Y-33244037D01*
X161347801Y-33234598D01*
X163114192Y-33234598D01*
X163171819Y-33248802D01*
X163216243Y-33288160D01*
X163220015Y-33293626D01*
X163220016Y-33293627D01*
X163220017Y-33293628D01*
X163338260Y-33398381D01*
X163478135Y-33471794D01*
X163631515Y-33509598D01*
X163789485Y-33509598D01*
X163942865Y-33471794D01*
X164082740Y-33398381D01*
X164200983Y-33293628D01*
X164290720Y-33163621D01*
X164346737Y-33015916D01*
X164365778Y-32859098D01*
X164346737Y-32702280D01*
X164290720Y-32554575D01*
X164231924Y-32469394D01*
X164200984Y-32424569D01*
X164200983Y-32424568D01*
X164082740Y-32319815D01*
X164069494Y-32312862D01*
X163942864Y-32246401D01*
X163789485Y-32208598D01*
X163631515Y-32208598D01*
X163478135Y-32246401D01*
X163338261Y-32319814D01*
X163220015Y-32424569D01*
X163216243Y-32430036D01*
X163171819Y-32469394D01*
X163114192Y-32483598D01*
X161192707Y-32483598D01*
X161167261Y-32480959D01*
X161156635Y-32478731D01*
X161156634Y-32478731D01*
X161138760Y-32480959D01*
X161125225Y-32482646D01*
X161109888Y-32483598D01*
X161109786Y-32483598D01*
X161089301Y-32487016D01*
X161084234Y-32487755D01*
X161024469Y-32495205D01*
X161024214Y-32495287D01*
X160971272Y-32523936D01*
X160966722Y-32526278D01*
X160912617Y-32552730D01*
X160912407Y-32552886D01*
X160871621Y-32597191D01*
X160868074Y-32600887D01*
X160155780Y-33313181D01*
X160115552Y-33340061D01*
X160068099Y-33349500D01*
X159921015Y-33349500D01*
X159767635Y-33387303D01*
X159627761Y-33460716D01*
X159509515Y-33565471D01*
X159419780Y-33695476D01*
X159363763Y-33843181D01*
X159344721Y-34000000D01*
X156000500Y-34000000D01*
X156000500Y-29524675D01*
X158629500Y-29524675D01*
X158644033Y-29597738D01*
X158644033Y-29597739D01*
X158644034Y-29597740D01*
X158699399Y-29680601D01*
X158782260Y-29735966D01*
X158818793Y-29743233D01*
X158855325Y-29750500D01*
X158855326Y-29750500D01*
X160604674Y-29750500D01*
X160604675Y-29750500D01*
X160629029Y-29745655D01*
X160677740Y-29735966D01*
X160760601Y-29680601D01*
X160815966Y-29597740D01*
X160830500Y-29524674D01*
X160830500Y-28650000D01*
X161164785Y-28650000D01*
X161183602Y-28853083D01*
X161239418Y-29049251D01*
X161330324Y-29231818D01*
X161453236Y-29394580D01*
X161603958Y-29531981D01*
X161777361Y-29639347D01*
X161777363Y-29639348D01*
X161967544Y-29713024D01*
X162168024Y-29750500D01*
X162371974Y-29750500D01*
X162371976Y-29750500D01*
X162572456Y-29713024D01*
X162762637Y-29639348D01*
X162936041Y-29531981D01*
X163086764Y-29394579D01*
X163209673Y-29231821D01*
X163209673Y-29231819D01*
X163209675Y-29231818D01*
X163255313Y-29140161D01*
X163300582Y-29049250D01*
X163343048Y-28900000D01*
X163737472Y-28900000D01*
X163779886Y-29049069D01*
X163870751Y-29231553D01*
X163993607Y-29394241D01*
X164144259Y-29531578D01*
X164317588Y-29638899D01*
X164507679Y-29712539D01*
X164560000Y-29722320D01*
X164560000Y-28900000D01*
X165060000Y-28900000D01*
X165060000Y-29722320D01*
X165112320Y-29712539D01*
X165302411Y-29638899D01*
X165475740Y-29531578D01*
X165626392Y-29394241D01*
X165749248Y-29231553D01*
X165840113Y-29049069D01*
X165882528Y-28900000D01*
X165060000Y-28900000D01*
X164560000Y-28900000D01*
X163737472Y-28900000D01*
X163343048Y-28900000D01*
X163356397Y-28853083D01*
X163375215Y-28650000D01*
X166244785Y-28650000D01*
X166263602Y-28853083D01*
X166319418Y-29049251D01*
X166410324Y-29231818D01*
X166533236Y-29394580D01*
X166683958Y-29531981D01*
X166857361Y-29639347D01*
X166857363Y-29639348D01*
X167047544Y-29713024D01*
X167248024Y-29750500D01*
X167451974Y-29750500D01*
X167451976Y-29750500D01*
X167652456Y-29713024D01*
X167842637Y-29639348D01*
X168016041Y-29531981D01*
X168166764Y-29394579D01*
X168289673Y-29231821D01*
X168289673Y-29231819D01*
X168289675Y-29231818D01*
X168335313Y-29140161D01*
X168380582Y-29049250D01*
X168436397Y-28853083D01*
X168455215Y-28650000D01*
X168436397Y-28446917D01*
X168380582Y-28250750D01*
X168380209Y-28250001D01*
X168289675Y-28068181D01*
X168166763Y-27905419D01*
X168016041Y-27768018D01*
X167842638Y-27660652D01*
X167652457Y-27586976D01*
X167529726Y-27564034D01*
X167451976Y-27549500D01*
X167248024Y-27549500D01*
X167170279Y-27564033D01*
X167047542Y-27586976D01*
X166857361Y-27660652D01*
X166683958Y-27768018D01*
X166533236Y-27905419D01*
X166410324Y-28068181D01*
X166319418Y-28250748D01*
X166263602Y-28446916D01*
X166244785Y-28650000D01*
X163375215Y-28650000D01*
X163356397Y-28446917D01*
X163343048Y-28399999D01*
X163737471Y-28399999D01*
X163737472Y-28400000D01*
X164560000Y-28400000D01*
X164560000Y-27577680D01*
X165060000Y-27577680D01*
X165060000Y-28400000D01*
X165882528Y-28400000D01*
X165882528Y-28399999D01*
X165840113Y-28250930D01*
X165749248Y-28068446D01*
X165626392Y-27905758D01*
X165475740Y-27768421D01*
X165302411Y-27661100D01*
X165112320Y-27587460D01*
X165060000Y-27577680D01*
X164560000Y-27577680D01*
X164507679Y-27587460D01*
X164317588Y-27661100D01*
X164144259Y-27768421D01*
X163993607Y-27905758D01*
X163870751Y-28068446D01*
X163779886Y-28250930D01*
X163737471Y-28399999D01*
X163343048Y-28399999D01*
X163300582Y-28250750D01*
X163300209Y-28250001D01*
X163209675Y-28068181D01*
X163086763Y-27905419D01*
X162936041Y-27768018D01*
X162762638Y-27660652D01*
X162572457Y-27586976D01*
X162449726Y-27564034D01*
X162371976Y-27549500D01*
X162168024Y-27549500D01*
X162090279Y-27564033D01*
X161967542Y-27586976D01*
X161777361Y-27660652D01*
X161603958Y-27768018D01*
X161453236Y-27905419D01*
X161330324Y-28068181D01*
X161239418Y-28250748D01*
X161183602Y-28446916D01*
X161164785Y-28650000D01*
X160830500Y-28650000D01*
X160830500Y-27775326D01*
X160829126Y-27768421D01*
X160815966Y-27702261D01*
X160815966Y-27702260D01*
X160760601Y-27619399D01*
X160677740Y-27564034D01*
X160677739Y-27564033D01*
X160677738Y-27564033D01*
X160604675Y-27549500D01*
X160604674Y-27549500D01*
X158855326Y-27549500D01*
X158855325Y-27549500D01*
X158782261Y-27564033D01*
X158699399Y-27619399D01*
X158644033Y-27702261D01*
X158629500Y-27775325D01*
X158629500Y-29524675D01*
X156000500Y-29524675D01*
X156000500Y-20124500D01*
X156017113Y-20062500D01*
X156062500Y-20017113D01*
X156124500Y-20000500D01*
X170875500Y-20000500D01*
X170937500Y-20017113D01*
G37*
%TD.AperFunction*%
%TD*%
%TA.AperFunction,Conductor*%
%TO.N,Board_0-GND*%
G36*
X125937500Y-20017113D02*
G01*
X125982887Y-20062500D01*
X125999500Y-20124500D01*
X125999500Y-34875500D01*
X125982887Y-34937500D01*
X125937500Y-34982887D01*
X125875500Y-34999500D01*
X111124500Y-34999500D01*
X111062500Y-34982887D01*
X111017113Y-34937500D01*
X111000500Y-34875500D01*
X111000500Y-34000000D01*
X114344721Y-34000000D01*
X114363763Y-34156818D01*
X114419780Y-34304523D01*
X114509515Y-34434528D01*
X114509516Y-34434529D01*
X114509517Y-34434530D01*
X114627760Y-34539283D01*
X114767635Y-34612696D01*
X114921015Y-34650500D01*
X115078985Y-34650500D01*
X115232365Y-34612696D01*
X115372240Y-34539283D01*
X115490483Y-34434530D01*
X115580220Y-34304523D01*
X115636237Y-34156818D01*
X115655278Y-34000000D01*
X115649102Y-33949143D01*
X115654980Y-33893751D01*
X115684515Y-33846520D01*
X116260119Y-33270917D01*
X116300348Y-33244037D01*
X116347801Y-33234598D01*
X118114192Y-33234598D01*
X118171819Y-33248802D01*
X118216243Y-33288160D01*
X118220015Y-33293626D01*
X118220016Y-33293627D01*
X118220017Y-33293628D01*
X118338260Y-33398381D01*
X118478135Y-33471794D01*
X118631515Y-33509598D01*
X118789485Y-33509598D01*
X118942865Y-33471794D01*
X119082740Y-33398381D01*
X119200983Y-33293628D01*
X119290720Y-33163621D01*
X119346737Y-33015916D01*
X119365778Y-32859098D01*
X119346737Y-32702280D01*
X119290720Y-32554575D01*
X119231924Y-32469394D01*
X119200984Y-32424569D01*
X119200983Y-32424568D01*
X119082740Y-32319815D01*
X119069494Y-32312862D01*
X118942864Y-32246401D01*
X118789485Y-32208598D01*
X118631515Y-32208598D01*
X118478135Y-32246401D01*
X118338261Y-32319814D01*
X118220015Y-32424569D01*
X118216243Y-32430036D01*
X118171819Y-32469394D01*
X118114192Y-32483598D01*
X116192707Y-32483598D01*
X116167261Y-32480959D01*
X116156635Y-32478731D01*
X116156634Y-32478731D01*
X116138760Y-32480959D01*
X116125225Y-32482646D01*
X116109888Y-32483598D01*
X116109786Y-32483598D01*
X116089301Y-32487016D01*
X116084234Y-32487755D01*
X116024469Y-32495205D01*
X116024214Y-32495287D01*
X115971272Y-32523936D01*
X115966722Y-32526278D01*
X115912617Y-32552730D01*
X115912407Y-32552886D01*
X115871621Y-32597191D01*
X115868074Y-32600887D01*
X115155780Y-33313181D01*
X115115552Y-33340061D01*
X115068099Y-33349500D01*
X114921015Y-33349500D01*
X114767635Y-33387303D01*
X114627761Y-33460716D01*
X114509515Y-33565471D01*
X114419780Y-33695476D01*
X114363763Y-33843181D01*
X114344721Y-34000000D01*
X111000500Y-34000000D01*
X111000500Y-29524675D01*
X113629500Y-29524675D01*
X113644033Y-29597738D01*
X113644033Y-29597739D01*
X113644034Y-29597740D01*
X113699399Y-29680601D01*
X113782260Y-29735966D01*
X113818793Y-29743233D01*
X113855325Y-29750500D01*
X113855326Y-29750500D01*
X115604674Y-29750500D01*
X115604675Y-29750500D01*
X115629029Y-29745655D01*
X115677740Y-29735966D01*
X115760601Y-29680601D01*
X115815966Y-29597740D01*
X115830500Y-29524674D01*
X115830500Y-28650000D01*
X116164785Y-28650000D01*
X116183602Y-28853083D01*
X116239418Y-29049251D01*
X116330324Y-29231818D01*
X116453236Y-29394580D01*
X116603958Y-29531981D01*
X116777361Y-29639347D01*
X116777363Y-29639348D01*
X116967544Y-29713024D01*
X117168024Y-29750500D01*
X117371974Y-29750500D01*
X117371976Y-29750500D01*
X117572456Y-29713024D01*
X117762637Y-29639348D01*
X117936041Y-29531981D01*
X118086764Y-29394579D01*
X118209673Y-29231821D01*
X118209673Y-29231819D01*
X118209675Y-29231818D01*
X118255313Y-29140161D01*
X118300582Y-29049250D01*
X118343048Y-28900000D01*
X118737472Y-28900000D01*
X118779886Y-29049069D01*
X118870751Y-29231553D01*
X118993607Y-29394241D01*
X119144259Y-29531578D01*
X119317588Y-29638899D01*
X119507679Y-29712539D01*
X119560000Y-29722320D01*
X119560000Y-28900000D01*
X120060000Y-28900000D01*
X120060000Y-29722320D01*
X120112320Y-29712539D01*
X120302411Y-29638899D01*
X120475740Y-29531578D01*
X120626392Y-29394241D01*
X120749248Y-29231553D01*
X120840113Y-29049069D01*
X120882528Y-28900000D01*
X120060000Y-28900000D01*
X119560000Y-28900000D01*
X118737472Y-28900000D01*
X118343048Y-28900000D01*
X118356397Y-28853083D01*
X118375215Y-28650000D01*
X121244785Y-28650000D01*
X121263602Y-28853083D01*
X121319418Y-29049251D01*
X121410324Y-29231818D01*
X121533236Y-29394580D01*
X121683958Y-29531981D01*
X121857361Y-29639347D01*
X121857363Y-29639348D01*
X122047544Y-29713024D01*
X122248024Y-29750500D01*
X122451974Y-29750500D01*
X122451976Y-29750500D01*
X122652456Y-29713024D01*
X122842637Y-29639348D01*
X123016041Y-29531981D01*
X123166764Y-29394579D01*
X123289673Y-29231821D01*
X123289673Y-29231819D01*
X123289675Y-29231818D01*
X123335313Y-29140161D01*
X123380582Y-29049250D01*
X123436397Y-28853083D01*
X123455215Y-28650000D01*
X123436397Y-28446917D01*
X123380582Y-28250750D01*
X123380209Y-28250001D01*
X123289675Y-28068181D01*
X123166763Y-27905419D01*
X123016041Y-27768018D01*
X122842638Y-27660652D01*
X122652457Y-27586976D01*
X122529726Y-27564034D01*
X122451976Y-27549500D01*
X122248024Y-27549500D01*
X122170279Y-27564033D01*
X122047542Y-27586976D01*
X121857361Y-27660652D01*
X121683958Y-27768018D01*
X121533236Y-27905419D01*
X121410324Y-28068181D01*
X121319418Y-28250748D01*
X121263602Y-28446916D01*
X121244785Y-28650000D01*
X118375215Y-28650000D01*
X118356397Y-28446917D01*
X118343048Y-28399999D01*
X118737471Y-28399999D01*
X118737472Y-28400000D01*
X119560000Y-28400000D01*
X119560000Y-27577680D01*
X120060000Y-27577680D01*
X120060000Y-28400000D01*
X120882528Y-28400000D01*
X120882528Y-28399999D01*
X120840113Y-28250930D01*
X120749248Y-28068446D01*
X120626392Y-27905758D01*
X120475740Y-27768421D01*
X120302411Y-27661100D01*
X120112320Y-27587460D01*
X120060000Y-27577680D01*
X119560000Y-27577680D01*
X119507679Y-27587460D01*
X119317588Y-27661100D01*
X119144259Y-27768421D01*
X118993607Y-27905758D01*
X118870751Y-28068446D01*
X118779886Y-28250930D01*
X118737471Y-28399999D01*
X118343048Y-28399999D01*
X118300582Y-28250750D01*
X118300209Y-28250001D01*
X118209675Y-28068181D01*
X118086763Y-27905419D01*
X117936041Y-27768018D01*
X117762638Y-27660652D01*
X117572457Y-27586976D01*
X117449726Y-27564034D01*
X117371976Y-27549500D01*
X117168024Y-27549500D01*
X117090279Y-27564033D01*
X116967542Y-27586976D01*
X116777361Y-27660652D01*
X116603958Y-27768018D01*
X116453236Y-27905419D01*
X116330324Y-28068181D01*
X116239418Y-28250748D01*
X116183602Y-28446916D01*
X116164785Y-28650000D01*
X115830500Y-28650000D01*
X115830500Y-27775326D01*
X115829126Y-27768421D01*
X115815966Y-27702261D01*
X115815966Y-27702260D01*
X115760601Y-27619399D01*
X115677740Y-27564034D01*
X115677739Y-27564033D01*
X115677738Y-27564033D01*
X115604675Y-27549500D01*
X115604674Y-27549500D01*
X113855326Y-27549500D01*
X113855325Y-27549500D01*
X113782261Y-27564033D01*
X113699399Y-27619399D01*
X113644033Y-27702261D01*
X113629500Y-27775325D01*
X113629500Y-29524675D01*
X111000500Y-29524675D01*
X111000500Y-20124500D01*
X111017113Y-20062500D01*
X111062500Y-20017113D01*
X111124500Y-20000500D01*
X125875500Y-20000500D01*
X125937500Y-20017113D01*
G37*
%TD.AperFunction*%
%TD*%
%TA.AperFunction,Conductor*%
%TO.N,Board_23-GND*%
G36*
X170937500Y-80017113D02*
G01*
X170982887Y-80062500D01*
X170999500Y-80124500D01*
X170999500Y-94875500D01*
X170982887Y-94937500D01*
X170937500Y-94982887D01*
X170875500Y-94999500D01*
X156124500Y-94999500D01*
X156062500Y-94982887D01*
X156017113Y-94937500D01*
X156000500Y-94875500D01*
X156000500Y-94000000D01*
X159344721Y-94000000D01*
X159363763Y-94156818D01*
X159419780Y-94304523D01*
X159509515Y-94434528D01*
X159509516Y-94434529D01*
X159509517Y-94434530D01*
X159627760Y-94539283D01*
X159767635Y-94612696D01*
X159921015Y-94650500D01*
X160078985Y-94650500D01*
X160232365Y-94612696D01*
X160372240Y-94539283D01*
X160490483Y-94434530D01*
X160580220Y-94304523D01*
X160636237Y-94156818D01*
X160655278Y-94000000D01*
X160649102Y-93949143D01*
X160654980Y-93893751D01*
X160684515Y-93846520D01*
X161260119Y-93270917D01*
X161300348Y-93244037D01*
X161347801Y-93234598D01*
X163114192Y-93234598D01*
X163171819Y-93248802D01*
X163216243Y-93288160D01*
X163220015Y-93293626D01*
X163220016Y-93293627D01*
X163220017Y-93293628D01*
X163338260Y-93398381D01*
X163478135Y-93471794D01*
X163631515Y-93509598D01*
X163789485Y-93509598D01*
X163942865Y-93471794D01*
X164082740Y-93398381D01*
X164200983Y-93293628D01*
X164290720Y-93163621D01*
X164346737Y-93015916D01*
X164365778Y-92859098D01*
X164346737Y-92702280D01*
X164290720Y-92554575D01*
X164231924Y-92469394D01*
X164200984Y-92424569D01*
X164200983Y-92424568D01*
X164082740Y-92319815D01*
X164069494Y-92312862D01*
X163942864Y-92246401D01*
X163789485Y-92208598D01*
X163631515Y-92208598D01*
X163478135Y-92246401D01*
X163338261Y-92319814D01*
X163220015Y-92424569D01*
X163216243Y-92430036D01*
X163171819Y-92469394D01*
X163114192Y-92483598D01*
X161192707Y-92483598D01*
X161167261Y-92480959D01*
X161156635Y-92478731D01*
X161156634Y-92478731D01*
X161138760Y-92480959D01*
X161125225Y-92482646D01*
X161109888Y-92483598D01*
X161109786Y-92483598D01*
X161089301Y-92487016D01*
X161084234Y-92487755D01*
X161024469Y-92495205D01*
X161024214Y-92495287D01*
X160971272Y-92523936D01*
X160966722Y-92526278D01*
X160912617Y-92552730D01*
X160912407Y-92552886D01*
X160871621Y-92597191D01*
X160868074Y-92600887D01*
X160155780Y-93313181D01*
X160115552Y-93340061D01*
X160068099Y-93349500D01*
X159921015Y-93349500D01*
X159767635Y-93387303D01*
X159627761Y-93460716D01*
X159509515Y-93565471D01*
X159419780Y-93695476D01*
X159363763Y-93843181D01*
X159344721Y-94000000D01*
X156000500Y-94000000D01*
X156000500Y-89524675D01*
X158629500Y-89524675D01*
X158644033Y-89597738D01*
X158644033Y-89597739D01*
X158644034Y-89597740D01*
X158699399Y-89680601D01*
X158782260Y-89735966D01*
X158818793Y-89743233D01*
X158855325Y-89750500D01*
X158855326Y-89750500D01*
X160604674Y-89750500D01*
X160604675Y-89750500D01*
X160629029Y-89745655D01*
X160677740Y-89735966D01*
X160760601Y-89680601D01*
X160815966Y-89597740D01*
X160830500Y-89524674D01*
X160830500Y-88650000D01*
X161164785Y-88650000D01*
X161183602Y-88853083D01*
X161239418Y-89049251D01*
X161330324Y-89231818D01*
X161453236Y-89394580D01*
X161603958Y-89531981D01*
X161777361Y-89639347D01*
X161777363Y-89639348D01*
X161967544Y-89713024D01*
X162168024Y-89750500D01*
X162371974Y-89750500D01*
X162371976Y-89750500D01*
X162572456Y-89713024D01*
X162762637Y-89639348D01*
X162936041Y-89531981D01*
X163086764Y-89394579D01*
X163209673Y-89231821D01*
X163209673Y-89231819D01*
X163209675Y-89231818D01*
X163255313Y-89140161D01*
X163300582Y-89049250D01*
X163343048Y-88900000D01*
X163737472Y-88900000D01*
X163779886Y-89049069D01*
X163870751Y-89231553D01*
X163993607Y-89394241D01*
X164144259Y-89531578D01*
X164317588Y-89638899D01*
X164507679Y-89712539D01*
X164560000Y-89722320D01*
X164560000Y-88900000D01*
X165060000Y-88900000D01*
X165060000Y-89722320D01*
X165112320Y-89712539D01*
X165302411Y-89638899D01*
X165475740Y-89531578D01*
X165626392Y-89394241D01*
X165749248Y-89231553D01*
X165840113Y-89049069D01*
X165882528Y-88900000D01*
X165060000Y-88900000D01*
X164560000Y-88900000D01*
X163737472Y-88900000D01*
X163343048Y-88900000D01*
X163356397Y-88853083D01*
X163375215Y-88650000D01*
X166244785Y-88650000D01*
X166263602Y-88853083D01*
X166319418Y-89049251D01*
X166410324Y-89231818D01*
X166533236Y-89394580D01*
X166683958Y-89531981D01*
X166857361Y-89639347D01*
X166857363Y-89639348D01*
X167047544Y-89713024D01*
X167248024Y-89750500D01*
X167451974Y-89750500D01*
X167451976Y-89750500D01*
X167652456Y-89713024D01*
X167842637Y-89639348D01*
X168016041Y-89531981D01*
X168166764Y-89394579D01*
X168289673Y-89231821D01*
X168289673Y-89231819D01*
X168289675Y-89231818D01*
X168335313Y-89140161D01*
X168380582Y-89049250D01*
X168436397Y-88853083D01*
X168455215Y-88650000D01*
X168436397Y-88446917D01*
X168380582Y-88250750D01*
X168380209Y-88250001D01*
X168289675Y-88068181D01*
X168166763Y-87905419D01*
X168016041Y-87768018D01*
X167842638Y-87660652D01*
X167652457Y-87586976D01*
X167529726Y-87564034D01*
X167451976Y-87549500D01*
X167248024Y-87549500D01*
X167170279Y-87564033D01*
X167047542Y-87586976D01*
X166857361Y-87660652D01*
X166683958Y-87768018D01*
X166533236Y-87905419D01*
X166410324Y-88068181D01*
X166319418Y-88250748D01*
X166263602Y-88446916D01*
X166244785Y-88650000D01*
X163375215Y-88650000D01*
X163356397Y-88446917D01*
X163343048Y-88399999D01*
X163737471Y-88399999D01*
X163737472Y-88400000D01*
X164560000Y-88400000D01*
X164560000Y-87577680D01*
X165060000Y-87577680D01*
X165060000Y-88400000D01*
X165882528Y-88400000D01*
X165882528Y-88399999D01*
X165840113Y-88250930D01*
X165749248Y-88068446D01*
X165626392Y-87905758D01*
X165475740Y-87768421D01*
X165302411Y-87661100D01*
X165112320Y-87587460D01*
X165060000Y-87577680D01*
X164560000Y-87577680D01*
X164507679Y-87587460D01*
X164317588Y-87661100D01*
X164144259Y-87768421D01*
X163993607Y-87905758D01*
X163870751Y-88068446D01*
X163779886Y-88250930D01*
X163737471Y-88399999D01*
X163343048Y-88399999D01*
X163300582Y-88250750D01*
X163300209Y-88250001D01*
X163209675Y-88068181D01*
X163086763Y-87905419D01*
X162936041Y-87768018D01*
X162762638Y-87660652D01*
X162572457Y-87586976D01*
X162449726Y-87564034D01*
X162371976Y-87549500D01*
X162168024Y-87549500D01*
X162090279Y-87564033D01*
X161967542Y-87586976D01*
X161777361Y-87660652D01*
X161603958Y-87768018D01*
X161453236Y-87905419D01*
X161330324Y-88068181D01*
X161239418Y-88250748D01*
X161183602Y-88446916D01*
X161164785Y-88650000D01*
X160830500Y-88650000D01*
X160830500Y-87775326D01*
X160829126Y-87768421D01*
X160815966Y-87702261D01*
X160815966Y-87702260D01*
X160760601Y-87619399D01*
X160677740Y-87564034D01*
X160677739Y-87564033D01*
X160677738Y-87564033D01*
X160604675Y-87549500D01*
X160604674Y-87549500D01*
X158855326Y-87549500D01*
X158855325Y-87549500D01*
X158782261Y-87564033D01*
X158699399Y-87619399D01*
X158644033Y-87702261D01*
X158629500Y-87775325D01*
X158629500Y-89524675D01*
X156000500Y-89524675D01*
X156000500Y-80124500D01*
X156017113Y-80062500D01*
X156062500Y-80017113D01*
X156124500Y-80000500D01*
X170875500Y-80000500D01*
X170937500Y-80017113D01*
G37*
%TD.AperFunction*%
%TD*%
%TA.AperFunction,Conductor*%
%TO.N,Board_24-GND*%
G36*
X185937500Y-80017113D02*
G01*
X185982887Y-80062500D01*
X185999500Y-80124500D01*
X185999500Y-94875500D01*
X185982887Y-94937500D01*
X185937500Y-94982887D01*
X185875500Y-94999500D01*
X171124500Y-94999500D01*
X171062500Y-94982887D01*
X171017113Y-94937500D01*
X171000500Y-94875500D01*
X171000500Y-94000000D01*
X174344721Y-94000000D01*
X174363763Y-94156818D01*
X174419780Y-94304523D01*
X174509515Y-94434528D01*
X174509516Y-94434529D01*
X174509517Y-94434530D01*
X174627760Y-94539283D01*
X174767635Y-94612696D01*
X174921015Y-94650500D01*
X175078985Y-94650500D01*
X175232365Y-94612696D01*
X175372240Y-94539283D01*
X175490483Y-94434530D01*
X175580220Y-94304523D01*
X175636237Y-94156818D01*
X175655278Y-94000000D01*
X175649102Y-93949143D01*
X175654980Y-93893751D01*
X175684515Y-93846520D01*
X176260119Y-93270917D01*
X176300348Y-93244037D01*
X176347801Y-93234598D01*
X178114192Y-93234598D01*
X178171819Y-93248802D01*
X178216243Y-93288160D01*
X178220015Y-93293626D01*
X178220016Y-93293627D01*
X178220017Y-93293628D01*
X178338260Y-93398381D01*
X178478135Y-93471794D01*
X178631515Y-93509598D01*
X178789485Y-93509598D01*
X178942865Y-93471794D01*
X179082740Y-93398381D01*
X179200983Y-93293628D01*
X179290720Y-93163621D01*
X179346737Y-93015916D01*
X179365778Y-92859098D01*
X179346737Y-92702280D01*
X179290720Y-92554575D01*
X179231924Y-92469394D01*
X179200984Y-92424569D01*
X179200983Y-92424568D01*
X179082740Y-92319815D01*
X179069494Y-92312862D01*
X178942864Y-92246401D01*
X178789485Y-92208598D01*
X178631515Y-92208598D01*
X178478135Y-92246401D01*
X178338261Y-92319814D01*
X178220015Y-92424569D01*
X178216243Y-92430036D01*
X178171819Y-92469394D01*
X178114192Y-92483598D01*
X176192707Y-92483598D01*
X176167261Y-92480959D01*
X176156635Y-92478731D01*
X176156634Y-92478731D01*
X176138760Y-92480959D01*
X176125225Y-92482646D01*
X176109888Y-92483598D01*
X176109786Y-92483598D01*
X176089301Y-92487016D01*
X176084234Y-92487755D01*
X176024469Y-92495205D01*
X176024214Y-92495287D01*
X175971272Y-92523936D01*
X175966722Y-92526278D01*
X175912617Y-92552730D01*
X175912407Y-92552886D01*
X175871621Y-92597191D01*
X175868074Y-92600887D01*
X175155780Y-93313181D01*
X175115552Y-93340061D01*
X175068099Y-93349500D01*
X174921015Y-93349500D01*
X174767635Y-93387303D01*
X174627761Y-93460716D01*
X174509515Y-93565471D01*
X174419780Y-93695476D01*
X174363763Y-93843181D01*
X174344721Y-94000000D01*
X171000500Y-94000000D01*
X171000500Y-89524675D01*
X173629500Y-89524675D01*
X173644033Y-89597738D01*
X173644033Y-89597739D01*
X173644034Y-89597740D01*
X173699399Y-89680601D01*
X173782260Y-89735966D01*
X173818793Y-89743233D01*
X173855325Y-89750500D01*
X173855326Y-89750500D01*
X175604674Y-89750500D01*
X175604675Y-89750500D01*
X175629029Y-89745655D01*
X175677740Y-89735966D01*
X175760601Y-89680601D01*
X175815966Y-89597740D01*
X175830500Y-89524674D01*
X175830500Y-88650000D01*
X176164785Y-88650000D01*
X176183602Y-88853083D01*
X176239418Y-89049251D01*
X176330324Y-89231818D01*
X176453236Y-89394580D01*
X176603958Y-89531981D01*
X176777361Y-89639347D01*
X176777363Y-89639348D01*
X176967544Y-89713024D01*
X177168024Y-89750500D01*
X177371974Y-89750500D01*
X177371976Y-89750500D01*
X177572456Y-89713024D01*
X177762637Y-89639348D01*
X177936041Y-89531981D01*
X178086764Y-89394579D01*
X178209673Y-89231821D01*
X178209673Y-89231819D01*
X178209675Y-89231818D01*
X178255313Y-89140161D01*
X178300582Y-89049250D01*
X178343048Y-88900000D01*
X178737472Y-88900000D01*
X178779886Y-89049069D01*
X178870751Y-89231553D01*
X178993607Y-89394241D01*
X179144259Y-89531578D01*
X179317588Y-89638899D01*
X179507679Y-89712539D01*
X179560000Y-89722320D01*
X179560000Y-88900000D01*
X180060000Y-88900000D01*
X180060000Y-89722320D01*
X180112320Y-89712539D01*
X180302411Y-89638899D01*
X180475740Y-89531578D01*
X180626392Y-89394241D01*
X180749248Y-89231553D01*
X180840113Y-89049069D01*
X180882528Y-88900000D01*
X180060000Y-88900000D01*
X179560000Y-88900000D01*
X178737472Y-88900000D01*
X178343048Y-88900000D01*
X178356397Y-88853083D01*
X178375215Y-88650000D01*
X181244785Y-88650000D01*
X181263602Y-88853083D01*
X181319418Y-89049251D01*
X181410324Y-89231818D01*
X181533236Y-89394580D01*
X181683958Y-89531981D01*
X181857361Y-89639347D01*
X181857363Y-89639348D01*
X182047544Y-89713024D01*
X182248024Y-89750500D01*
X182451974Y-89750500D01*
X182451976Y-89750500D01*
X182652456Y-89713024D01*
X182842637Y-89639348D01*
X183016041Y-89531981D01*
X183166764Y-89394579D01*
X183289673Y-89231821D01*
X183289673Y-89231819D01*
X183289675Y-89231818D01*
X183335313Y-89140161D01*
X183380582Y-89049250D01*
X183436397Y-88853083D01*
X183455215Y-88650000D01*
X183436397Y-88446917D01*
X183380582Y-88250750D01*
X183380209Y-88250001D01*
X183289675Y-88068181D01*
X183166763Y-87905419D01*
X183016041Y-87768018D01*
X182842638Y-87660652D01*
X182652457Y-87586976D01*
X182529726Y-87564034D01*
X182451976Y-87549500D01*
X182248024Y-87549500D01*
X182170279Y-87564033D01*
X182047542Y-87586976D01*
X181857361Y-87660652D01*
X181683958Y-87768018D01*
X181533236Y-87905419D01*
X181410324Y-88068181D01*
X181319418Y-88250748D01*
X181263602Y-88446916D01*
X181244785Y-88650000D01*
X178375215Y-88650000D01*
X178356397Y-88446917D01*
X178343048Y-88399999D01*
X178737471Y-88399999D01*
X178737472Y-88400000D01*
X179560000Y-88400000D01*
X179560000Y-87577680D01*
X180060000Y-87577680D01*
X180060000Y-88400000D01*
X180882528Y-88400000D01*
X180882528Y-88399999D01*
X180840113Y-88250930D01*
X180749248Y-88068446D01*
X180626392Y-87905758D01*
X180475740Y-87768421D01*
X180302411Y-87661100D01*
X180112320Y-87587460D01*
X180060000Y-87577680D01*
X179560000Y-87577680D01*
X179507679Y-87587460D01*
X179317588Y-87661100D01*
X179144259Y-87768421D01*
X178993607Y-87905758D01*
X178870751Y-88068446D01*
X178779886Y-88250930D01*
X178737471Y-88399999D01*
X178343048Y-88399999D01*
X178300582Y-88250750D01*
X178300209Y-88250001D01*
X178209675Y-88068181D01*
X178086763Y-87905419D01*
X177936041Y-87768018D01*
X177762638Y-87660652D01*
X177572457Y-87586976D01*
X177449726Y-87564034D01*
X177371976Y-87549500D01*
X177168024Y-87549500D01*
X177090279Y-87564033D01*
X176967542Y-87586976D01*
X176777361Y-87660652D01*
X176603958Y-87768018D01*
X176453236Y-87905419D01*
X176330324Y-88068181D01*
X176239418Y-88250748D01*
X176183602Y-88446916D01*
X176164785Y-88650000D01*
X175830500Y-88650000D01*
X175830500Y-87775326D01*
X175829126Y-87768421D01*
X175815966Y-87702261D01*
X175815966Y-87702260D01*
X175760601Y-87619399D01*
X175677740Y-87564034D01*
X175677739Y-87564033D01*
X175677738Y-87564033D01*
X175604675Y-87549500D01*
X175604674Y-87549500D01*
X173855326Y-87549500D01*
X173855325Y-87549500D01*
X173782261Y-87564033D01*
X173699399Y-87619399D01*
X173644033Y-87702261D01*
X173629500Y-87775325D01*
X173629500Y-89524675D01*
X171000500Y-89524675D01*
X171000500Y-80124500D01*
X171017113Y-80062500D01*
X171062500Y-80017113D01*
X171124500Y-80000500D01*
X185875500Y-80000500D01*
X185937500Y-80017113D01*
G37*
%TD.AperFunction*%
%TD*%
%TA.AperFunction,Conductor*%
%TO.N,Board_18-GND*%
G36*
X170937500Y-65017113D02*
G01*
X170982887Y-65062500D01*
X170999500Y-65124500D01*
X170999500Y-79875500D01*
X170982887Y-79937500D01*
X170937500Y-79982887D01*
X170875500Y-79999500D01*
X156124500Y-79999500D01*
X156062500Y-79982887D01*
X156017113Y-79937500D01*
X156000500Y-79875500D01*
X156000500Y-79000000D01*
X159344721Y-79000000D01*
X159363763Y-79156818D01*
X159419780Y-79304523D01*
X159509515Y-79434528D01*
X159509516Y-79434529D01*
X159509517Y-79434530D01*
X159627760Y-79539283D01*
X159767635Y-79612696D01*
X159921015Y-79650500D01*
X160078985Y-79650500D01*
X160232365Y-79612696D01*
X160372240Y-79539283D01*
X160490483Y-79434530D01*
X160580220Y-79304523D01*
X160636237Y-79156818D01*
X160655278Y-79000000D01*
X160649102Y-78949143D01*
X160654980Y-78893751D01*
X160684515Y-78846520D01*
X161260119Y-78270917D01*
X161300348Y-78244037D01*
X161347801Y-78234598D01*
X163114192Y-78234598D01*
X163171819Y-78248802D01*
X163216243Y-78288160D01*
X163220015Y-78293626D01*
X163220016Y-78293627D01*
X163220017Y-78293628D01*
X163338260Y-78398381D01*
X163478135Y-78471794D01*
X163631515Y-78509598D01*
X163789485Y-78509598D01*
X163942865Y-78471794D01*
X164082740Y-78398381D01*
X164200983Y-78293628D01*
X164290720Y-78163621D01*
X164346737Y-78015916D01*
X164365778Y-77859098D01*
X164346737Y-77702280D01*
X164290720Y-77554575D01*
X164231924Y-77469394D01*
X164200984Y-77424569D01*
X164200983Y-77424568D01*
X164082740Y-77319815D01*
X164069494Y-77312862D01*
X163942864Y-77246401D01*
X163789485Y-77208598D01*
X163631515Y-77208598D01*
X163478135Y-77246401D01*
X163338261Y-77319814D01*
X163220015Y-77424569D01*
X163216243Y-77430036D01*
X163171819Y-77469394D01*
X163114192Y-77483598D01*
X161192707Y-77483598D01*
X161167261Y-77480959D01*
X161156635Y-77478731D01*
X161156634Y-77478731D01*
X161138760Y-77480959D01*
X161125225Y-77482646D01*
X161109888Y-77483598D01*
X161109786Y-77483598D01*
X161089301Y-77487016D01*
X161084234Y-77487755D01*
X161024469Y-77495205D01*
X161024214Y-77495287D01*
X160971272Y-77523936D01*
X160966722Y-77526278D01*
X160912617Y-77552730D01*
X160912407Y-77552886D01*
X160871621Y-77597191D01*
X160868074Y-77600887D01*
X160155780Y-78313181D01*
X160115552Y-78340061D01*
X160068099Y-78349500D01*
X159921015Y-78349500D01*
X159767635Y-78387303D01*
X159627761Y-78460716D01*
X159509515Y-78565471D01*
X159419780Y-78695476D01*
X159363763Y-78843181D01*
X159344721Y-79000000D01*
X156000500Y-79000000D01*
X156000500Y-74524675D01*
X158629500Y-74524675D01*
X158644033Y-74597738D01*
X158644033Y-74597739D01*
X158644034Y-74597740D01*
X158699399Y-74680601D01*
X158782260Y-74735966D01*
X158818793Y-74743233D01*
X158855325Y-74750500D01*
X158855326Y-74750500D01*
X160604674Y-74750500D01*
X160604675Y-74750500D01*
X160629029Y-74745655D01*
X160677740Y-74735966D01*
X160760601Y-74680601D01*
X160815966Y-74597740D01*
X160830500Y-74524674D01*
X160830500Y-73650000D01*
X161164785Y-73650000D01*
X161183602Y-73853083D01*
X161239418Y-74049251D01*
X161330324Y-74231818D01*
X161453236Y-74394580D01*
X161603958Y-74531981D01*
X161777361Y-74639347D01*
X161777363Y-74639348D01*
X161967544Y-74713024D01*
X162168024Y-74750500D01*
X162371974Y-74750500D01*
X162371976Y-74750500D01*
X162572456Y-74713024D01*
X162762637Y-74639348D01*
X162936041Y-74531981D01*
X163086764Y-74394579D01*
X163209673Y-74231821D01*
X163209673Y-74231819D01*
X163209675Y-74231818D01*
X163255313Y-74140161D01*
X163300582Y-74049250D01*
X163343048Y-73900000D01*
X163737472Y-73900000D01*
X163779886Y-74049069D01*
X163870751Y-74231553D01*
X163993607Y-74394241D01*
X164144259Y-74531578D01*
X164317588Y-74638899D01*
X164507679Y-74712539D01*
X164560000Y-74722320D01*
X164560000Y-73900000D01*
X165060000Y-73900000D01*
X165060000Y-74722320D01*
X165112320Y-74712539D01*
X165302411Y-74638899D01*
X165475740Y-74531578D01*
X165626392Y-74394241D01*
X165749248Y-74231553D01*
X165840113Y-74049069D01*
X165882528Y-73900000D01*
X165060000Y-73900000D01*
X164560000Y-73900000D01*
X163737472Y-73900000D01*
X163343048Y-73900000D01*
X163356397Y-73853083D01*
X163375215Y-73650000D01*
X166244785Y-73650000D01*
X166263602Y-73853083D01*
X166319418Y-74049251D01*
X166410324Y-74231818D01*
X166533236Y-74394580D01*
X166683958Y-74531981D01*
X166857361Y-74639347D01*
X166857363Y-74639348D01*
X167047544Y-74713024D01*
X167248024Y-74750500D01*
X167451974Y-74750500D01*
X167451976Y-74750500D01*
X167652456Y-74713024D01*
X167842637Y-74639348D01*
X168016041Y-74531981D01*
X168166764Y-74394579D01*
X168289673Y-74231821D01*
X168289673Y-74231819D01*
X168289675Y-74231818D01*
X168335313Y-74140161D01*
X168380582Y-74049250D01*
X168436397Y-73853083D01*
X168455215Y-73650000D01*
X168436397Y-73446917D01*
X168380582Y-73250750D01*
X168380209Y-73250001D01*
X168289675Y-73068181D01*
X168166763Y-72905419D01*
X168016041Y-72768018D01*
X167842638Y-72660652D01*
X167652457Y-72586976D01*
X167529726Y-72564034D01*
X167451976Y-72549500D01*
X167248024Y-72549500D01*
X167170279Y-72564033D01*
X167047542Y-72586976D01*
X166857361Y-72660652D01*
X166683958Y-72768018D01*
X166533236Y-72905419D01*
X166410324Y-73068181D01*
X166319418Y-73250748D01*
X166263602Y-73446916D01*
X166244785Y-73650000D01*
X163375215Y-73650000D01*
X163356397Y-73446917D01*
X163343048Y-73399999D01*
X163737471Y-73399999D01*
X163737472Y-73400000D01*
X164560000Y-73400000D01*
X164560000Y-72577680D01*
X165060000Y-72577680D01*
X165060000Y-73400000D01*
X165882528Y-73400000D01*
X165882528Y-73399999D01*
X165840113Y-73250930D01*
X165749248Y-73068446D01*
X165626392Y-72905758D01*
X165475740Y-72768421D01*
X165302411Y-72661100D01*
X165112320Y-72587460D01*
X165060000Y-72577680D01*
X164560000Y-72577680D01*
X164507679Y-72587460D01*
X164317588Y-72661100D01*
X164144259Y-72768421D01*
X163993607Y-72905758D01*
X163870751Y-73068446D01*
X163779886Y-73250930D01*
X163737471Y-73399999D01*
X163343048Y-73399999D01*
X163300582Y-73250750D01*
X163300209Y-73250001D01*
X163209675Y-73068181D01*
X163086763Y-72905419D01*
X162936041Y-72768018D01*
X162762638Y-72660652D01*
X162572457Y-72586976D01*
X162449726Y-72564034D01*
X162371976Y-72549500D01*
X162168024Y-72549500D01*
X162090279Y-72564033D01*
X161967542Y-72586976D01*
X161777361Y-72660652D01*
X161603958Y-72768018D01*
X161453236Y-72905419D01*
X161330324Y-73068181D01*
X161239418Y-73250748D01*
X161183602Y-73446916D01*
X161164785Y-73650000D01*
X160830500Y-73650000D01*
X160830500Y-72775326D01*
X160829126Y-72768421D01*
X160815966Y-72702261D01*
X160815966Y-72702260D01*
X160760601Y-72619399D01*
X160677740Y-72564034D01*
X160677739Y-72564033D01*
X160677738Y-72564033D01*
X160604675Y-72549500D01*
X160604674Y-72549500D01*
X158855326Y-72549500D01*
X158855325Y-72549500D01*
X158782261Y-72564033D01*
X158699399Y-72619399D01*
X158644033Y-72702261D01*
X158629500Y-72775325D01*
X158629500Y-74524675D01*
X156000500Y-74524675D01*
X156000500Y-65124500D01*
X156017113Y-65062500D01*
X156062500Y-65017113D01*
X156124500Y-65000500D01*
X170875500Y-65000500D01*
X170937500Y-65017113D01*
G37*
%TD.AperFunction*%
%TD*%
%TA.AperFunction,Conductor*%
%TO.N,Board_15-GND*%
G36*
X125937500Y-65017113D02*
G01*
X125982887Y-65062500D01*
X125999500Y-65124500D01*
X125999500Y-79875500D01*
X125982887Y-79937500D01*
X125937500Y-79982887D01*
X125875500Y-79999500D01*
X111124500Y-79999500D01*
X111062500Y-79982887D01*
X111017113Y-79937500D01*
X111000500Y-79875500D01*
X111000500Y-79000000D01*
X114344721Y-79000000D01*
X114363763Y-79156818D01*
X114419780Y-79304523D01*
X114509515Y-79434528D01*
X114509516Y-79434529D01*
X114509517Y-79434530D01*
X114627760Y-79539283D01*
X114767635Y-79612696D01*
X114921015Y-79650500D01*
X115078985Y-79650500D01*
X115232365Y-79612696D01*
X115372240Y-79539283D01*
X115490483Y-79434530D01*
X115580220Y-79304523D01*
X115636237Y-79156818D01*
X115655278Y-79000000D01*
X115649102Y-78949143D01*
X115654980Y-78893751D01*
X115684515Y-78846520D01*
X116260119Y-78270917D01*
X116300348Y-78244037D01*
X116347801Y-78234598D01*
X118114192Y-78234598D01*
X118171819Y-78248802D01*
X118216243Y-78288160D01*
X118220015Y-78293626D01*
X118220016Y-78293627D01*
X118220017Y-78293628D01*
X118338260Y-78398381D01*
X118478135Y-78471794D01*
X118631515Y-78509598D01*
X118789485Y-78509598D01*
X118942865Y-78471794D01*
X119082740Y-78398381D01*
X119200983Y-78293628D01*
X119290720Y-78163621D01*
X119346737Y-78015916D01*
X119365778Y-77859098D01*
X119346737Y-77702280D01*
X119290720Y-77554575D01*
X119231924Y-77469394D01*
X119200984Y-77424569D01*
X119200983Y-77424568D01*
X119082740Y-77319815D01*
X119069494Y-77312862D01*
X118942864Y-77246401D01*
X118789485Y-77208598D01*
X118631515Y-77208598D01*
X118478135Y-77246401D01*
X118338261Y-77319814D01*
X118220015Y-77424569D01*
X118216243Y-77430036D01*
X118171819Y-77469394D01*
X118114192Y-77483598D01*
X116192707Y-77483598D01*
X116167261Y-77480959D01*
X116156635Y-77478731D01*
X116156634Y-77478731D01*
X116138760Y-77480959D01*
X116125225Y-77482646D01*
X116109888Y-77483598D01*
X116109786Y-77483598D01*
X116089301Y-77487016D01*
X116084234Y-77487755D01*
X116024469Y-77495205D01*
X116024214Y-77495287D01*
X115971272Y-77523936D01*
X115966722Y-77526278D01*
X115912617Y-77552730D01*
X115912407Y-77552886D01*
X115871621Y-77597191D01*
X115868074Y-77600887D01*
X115155780Y-78313181D01*
X115115552Y-78340061D01*
X115068099Y-78349500D01*
X114921015Y-78349500D01*
X114767635Y-78387303D01*
X114627761Y-78460716D01*
X114509515Y-78565471D01*
X114419780Y-78695476D01*
X114363763Y-78843181D01*
X114344721Y-79000000D01*
X111000500Y-79000000D01*
X111000500Y-74524675D01*
X113629500Y-74524675D01*
X113644033Y-74597738D01*
X113644033Y-74597739D01*
X113644034Y-74597740D01*
X113699399Y-74680601D01*
X113782260Y-74735966D01*
X113818793Y-74743233D01*
X113855325Y-74750500D01*
X113855326Y-74750500D01*
X115604674Y-74750500D01*
X115604675Y-74750500D01*
X115629029Y-74745655D01*
X115677740Y-74735966D01*
X115760601Y-74680601D01*
X115815966Y-74597740D01*
X115830500Y-74524674D01*
X115830500Y-73650000D01*
X116164785Y-73650000D01*
X116183602Y-73853083D01*
X116239418Y-74049251D01*
X116330324Y-74231818D01*
X116453236Y-74394580D01*
X116603958Y-74531981D01*
X116777361Y-74639347D01*
X116777363Y-74639348D01*
X116967544Y-74713024D01*
X117168024Y-74750500D01*
X117371974Y-74750500D01*
X117371976Y-74750500D01*
X117572456Y-74713024D01*
X117762637Y-74639348D01*
X117936041Y-74531981D01*
X118086764Y-74394579D01*
X118209673Y-74231821D01*
X118209673Y-74231819D01*
X118209675Y-74231818D01*
X118255313Y-74140161D01*
X118300582Y-74049250D01*
X118343048Y-73900000D01*
X118737472Y-73900000D01*
X118779886Y-74049069D01*
X118870751Y-74231553D01*
X118993607Y-74394241D01*
X119144259Y-74531578D01*
X119317588Y-74638899D01*
X119507679Y-74712539D01*
X119560000Y-74722320D01*
X119560000Y-73900000D01*
X120060000Y-73900000D01*
X120060000Y-74722320D01*
X120112320Y-74712539D01*
X120302411Y-74638899D01*
X120475740Y-74531578D01*
X120626392Y-74394241D01*
X120749248Y-74231553D01*
X120840113Y-74049069D01*
X120882528Y-73900000D01*
X120060000Y-73900000D01*
X119560000Y-73900000D01*
X118737472Y-73900000D01*
X118343048Y-73900000D01*
X118356397Y-73853083D01*
X118375215Y-73650000D01*
X121244785Y-73650000D01*
X121263602Y-73853083D01*
X121319418Y-74049251D01*
X121410324Y-74231818D01*
X121533236Y-74394580D01*
X121683958Y-74531981D01*
X121857361Y-74639347D01*
X121857363Y-74639348D01*
X122047544Y-74713024D01*
X122248024Y-74750500D01*
X122451974Y-74750500D01*
X122451976Y-74750500D01*
X122652456Y-74713024D01*
X122842637Y-74639348D01*
X123016041Y-74531981D01*
X123166764Y-74394579D01*
X123289673Y-74231821D01*
X123289673Y-74231819D01*
X123289675Y-74231818D01*
X123335313Y-74140161D01*
X123380582Y-74049250D01*
X123436397Y-73853083D01*
X123455215Y-73650000D01*
X123436397Y-73446917D01*
X123380582Y-73250750D01*
X123380209Y-73250001D01*
X123289675Y-73068181D01*
X123166763Y-72905419D01*
X123016041Y-72768018D01*
X122842638Y-72660652D01*
X122652457Y-72586976D01*
X122529726Y-72564034D01*
X122451976Y-72549500D01*
X122248024Y-72549500D01*
X122170279Y-72564033D01*
X122047542Y-72586976D01*
X121857361Y-72660652D01*
X121683958Y-72768018D01*
X121533236Y-72905419D01*
X121410324Y-73068181D01*
X121319418Y-73250748D01*
X121263602Y-73446916D01*
X121244785Y-73650000D01*
X118375215Y-73650000D01*
X118356397Y-73446917D01*
X118343048Y-73399999D01*
X118737471Y-73399999D01*
X118737472Y-73400000D01*
X119560000Y-73400000D01*
X119560000Y-72577680D01*
X120060000Y-72577680D01*
X120060000Y-73400000D01*
X120882528Y-73400000D01*
X120882528Y-73399999D01*
X120840113Y-73250930D01*
X120749248Y-73068446D01*
X120626392Y-72905758D01*
X120475740Y-72768421D01*
X120302411Y-72661100D01*
X120112320Y-72587460D01*
X120060000Y-72577680D01*
X119560000Y-72577680D01*
X119507679Y-72587460D01*
X119317588Y-72661100D01*
X119144259Y-72768421D01*
X118993607Y-72905758D01*
X118870751Y-73068446D01*
X118779886Y-73250930D01*
X118737471Y-73399999D01*
X118343048Y-73399999D01*
X118300582Y-73250750D01*
X118300209Y-73250001D01*
X118209675Y-73068181D01*
X118086763Y-72905419D01*
X117936041Y-72768018D01*
X117762638Y-72660652D01*
X117572457Y-72586976D01*
X117449726Y-72564034D01*
X117371976Y-72549500D01*
X117168024Y-72549500D01*
X117090279Y-72564033D01*
X116967542Y-72586976D01*
X116777361Y-72660652D01*
X116603958Y-72768018D01*
X116453236Y-72905419D01*
X116330324Y-73068181D01*
X116239418Y-73250748D01*
X116183602Y-73446916D01*
X116164785Y-73650000D01*
X115830500Y-73650000D01*
X115830500Y-72775326D01*
X115829126Y-72768421D01*
X115815966Y-72702261D01*
X115815966Y-72702260D01*
X115760601Y-72619399D01*
X115677740Y-72564034D01*
X115677739Y-72564033D01*
X115677738Y-72564033D01*
X115604675Y-72549500D01*
X115604674Y-72549500D01*
X113855326Y-72549500D01*
X113855325Y-72549500D01*
X113782261Y-72564033D01*
X113699399Y-72619399D01*
X113644033Y-72702261D01*
X113629500Y-72775325D01*
X113629500Y-74524675D01*
X111000500Y-74524675D01*
X111000500Y-65124500D01*
X111017113Y-65062500D01*
X111062500Y-65017113D01*
X111124500Y-65000500D01*
X125875500Y-65000500D01*
X125937500Y-65017113D01*
G37*
%TD.AperFunction*%
%TD*%
%TA.AperFunction,Conductor*%
%TO.N,Board_16-GND*%
G36*
X140937500Y-65017113D02*
G01*
X140982887Y-65062500D01*
X140999500Y-65124500D01*
X140999500Y-79875500D01*
X140982887Y-79937500D01*
X140937500Y-79982887D01*
X140875500Y-79999500D01*
X126124500Y-79999500D01*
X126062500Y-79982887D01*
X126017113Y-79937500D01*
X126000500Y-79875500D01*
X126000500Y-79000000D01*
X129344721Y-79000000D01*
X129363763Y-79156818D01*
X129419780Y-79304523D01*
X129509515Y-79434528D01*
X129509516Y-79434529D01*
X129509517Y-79434530D01*
X129627760Y-79539283D01*
X129767635Y-79612696D01*
X129921015Y-79650500D01*
X130078985Y-79650500D01*
X130232365Y-79612696D01*
X130372240Y-79539283D01*
X130490483Y-79434530D01*
X130580220Y-79304523D01*
X130636237Y-79156818D01*
X130655278Y-79000000D01*
X130649102Y-78949143D01*
X130654980Y-78893751D01*
X130684515Y-78846520D01*
X131260119Y-78270917D01*
X131300348Y-78244037D01*
X131347801Y-78234598D01*
X133114192Y-78234598D01*
X133171819Y-78248802D01*
X133216243Y-78288160D01*
X133220015Y-78293626D01*
X133220016Y-78293627D01*
X133220017Y-78293628D01*
X133338260Y-78398381D01*
X133478135Y-78471794D01*
X133631515Y-78509598D01*
X133789485Y-78509598D01*
X133942865Y-78471794D01*
X134082740Y-78398381D01*
X134200983Y-78293628D01*
X134290720Y-78163621D01*
X134346737Y-78015916D01*
X134365778Y-77859098D01*
X134346737Y-77702280D01*
X134290720Y-77554575D01*
X134231924Y-77469394D01*
X134200984Y-77424569D01*
X134200983Y-77424568D01*
X134082740Y-77319815D01*
X134069494Y-77312862D01*
X133942864Y-77246401D01*
X133789485Y-77208598D01*
X133631515Y-77208598D01*
X133478135Y-77246401D01*
X133338261Y-77319814D01*
X133220015Y-77424569D01*
X133216243Y-77430036D01*
X133171819Y-77469394D01*
X133114192Y-77483598D01*
X131192707Y-77483598D01*
X131167261Y-77480959D01*
X131156635Y-77478731D01*
X131156634Y-77478731D01*
X131138760Y-77480959D01*
X131125225Y-77482646D01*
X131109888Y-77483598D01*
X131109786Y-77483598D01*
X131089301Y-77487016D01*
X131084234Y-77487755D01*
X131024469Y-77495205D01*
X131024214Y-77495287D01*
X130971272Y-77523936D01*
X130966722Y-77526278D01*
X130912617Y-77552730D01*
X130912407Y-77552886D01*
X130871621Y-77597191D01*
X130868074Y-77600887D01*
X130155780Y-78313181D01*
X130115552Y-78340061D01*
X130068099Y-78349500D01*
X129921015Y-78349500D01*
X129767635Y-78387303D01*
X129627761Y-78460716D01*
X129509515Y-78565471D01*
X129419780Y-78695476D01*
X129363763Y-78843181D01*
X129344721Y-79000000D01*
X126000500Y-79000000D01*
X126000500Y-74524675D01*
X128629500Y-74524675D01*
X128644033Y-74597738D01*
X128644033Y-74597739D01*
X128644034Y-74597740D01*
X128699399Y-74680601D01*
X128782260Y-74735966D01*
X128818793Y-74743233D01*
X128855325Y-74750500D01*
X128855326Y-74750500D01*
X130604674Y-74750500D01*
X130604675Y-74750500D01*
X130629029Y-74745655D01*
X130677740Y-74735966D01*
X130760601Y-74680601D01*
X130815966Y-74597740D01*
X130830500Y-74524674D01*
X130830500Y-73650000D01*
X131164785Y-73650000D01*
X131183602Y-73853083D01*
X131239418Y-74049251D01*
X131330324Y-74231818D01*
X131453236Y-74394580D01*
X131603958Y-74531981D01*
X131777361Y-74639347D01*
X131777363Y-74639348D01*
X131967544Y-74713024D01*
X132168024Y-74750500D01*
X132371974Y-74750500D01*
X132371976Y-74750500D01*
X132572456Y-74713024D01*
X132762637Y-74639348D01*
X132936041Y-74531981D01*
X133086764Y-74394579D01*
X133209673Y-74231821D01*
X133209673Y-74231819D01*
X133209675Y-74231818D01*
X133255313Y-74140161D01*
X133300582Y-74049250D01*
X133343048Y-73900000D01*
X133737472Y-73900000D01*
X133779886Y-74049069D01*
X133870751Y-74231553D01*
X133993607Y-74394241D01*
X134144259Y-74531578D01*
X134317588Y-74638899D01*
X134507679Y-74712539D01*
X134560000Y-74722320D01*
X134560000Y-73900000D01*
X135060000Y-73900000D01*
X135060000Y-74722320D01*
X135112320Y-74712539D01*
X135302411Y-74638899D01*
X135475740Y-74531578D01*
X135626392Y-74394241D01*
X135749248Y-74231553D01*
X135840113Y-74049069D01*
X135882528Y-73900000D01*
X135060000Y-73900000D01*
X134560000Y-73900000D01*
X133737472Y-73900000D01*
X133343048Y-73900000D01*
X133356397Y-73853083D01*
X133375215Y-73650000D01*
X136244785Y-73650000D01*
X136263602Y-73853083D01*
X136319418Y-74049251D01*
X136410324Y-74231818D01*
X136533236Y-74394580D01*
X136683958Y-74531981D01*
X136857361Y-74639347D01*
X136857363Y-74639348D01*
X137047544Y-74713024D01*
X137248024Y-74750500D01*
X137451974Y-74750500D01*
X137451976Y-74750500D01*
X137652456Y-74713024D01*
X137842637Y-74639348D01*
X138016041Y-74531981D01*
X138166764Y-74394579D01*
X138289673Y-74231821D01*
X138289673Y-74231819D01*
X138289675Y-74231818D01*
X138335313Y-74140161D01*
X138380582Y-74049250D01*
X138436397Y-73853083D01*
X138455215Y-73650000D01*
X138436397Y-73446917D01*
X138380582Y-73250750D01*
X138380209Y-73250001D01*
X138289675Y-73068181D01*
X138166763Y-72905419D01*
X138016041Y-72768018D01*
X137842638Y-72660652D01*
X137652457Y-72586976D01*
X137529726Y-72564034D01*
X137451976Y-72549500D01*
X137248024Y-72549500D01*
X137170279Y-72564033D01*
X137047542Y-72586976D01*
X136857361Y-72660652D01*
X136683958Y-72768018D01*
X136533236Y-72905419D01*
X136410324Y-73068181D01*
X136319418Y-73250748D01*
X136263602Y-73446916D01*
X136244785Y-73650000D01*
X133375215Y-73650000D01*
X133356397Y-73446917D01*
X133343048Y-73399999D01*
X133737471Y-73399999D01*
X133737472Y-73400000D01*
X134560000Y-73400000D01*
X134560000Y-72577680D01*
X135060000Y-72577680D01*
X135060000Y-73400000D01*
X135882528Y-73400000D01*
X135882528Y-73399999D01*
X135840113Y-73250930D01*
X135749248Y-73068446D01*
X135626392Y-72905758D01*
X135475740Y-72768421D01*
X135302411Y-72661100D01*
X135112320Y-72587460D01*
X135060000Y-72577680D01*
X134560000Y-72577680D01*
X134507679Y-72587460D01*
X134317588Y-72661100D01*
X134144259Y-72768421D01*
X133993607Y-72905758D01*
X133870751Y-73068446D01*
X133779886Y-73250930D01*
X133737471Y-73399999D01*
X133343048Y-73399999D01*
X133300582Y-73250750D01*
X133300209Y-73250001D01*
X133209675Y-73068181D01*
X133086763Y-72905419D01*
X132936041Y-72768018D01*
X132762638Y-72660652D01*
X132572457Y-72586976D01*
X132449726Y-72564034D01*
X132371976Y-72549500D01*
X132168024Y-72549500D01*
X132090279Y-72564033D01*
X131967542Y-72586976D01*
X131777361Y-72660652D01*
X131603958Y-72768018D01*
X131453236Y-72905419D01*
X131330324Y-73068181D01*
X131239418Y-73250748D01*
X131183602Y-73446916D01*
X131164785Y-73650000D01*
X130830500Y-73650000D01*
X130830500Y-72775326D01*
X130829126Y-72768421D01*
X130815966Y-72702261D01*
X130815966Y-72702260D01*
X130760601Y-72619399D01*
X130677740Y-72564034D01*
X130677739Y-72564033D01*
X130677738Y-72564033D01*
X130604675Y-72549500D01*
X130604674Y-72549500D01*
X128855326Y-72549500D01*
X128855325Y-72549500D01*
X128782261Y-72564033D01*
X128699399Y-72619399D01*
X128644033Y-72702261D01*
X128629500Y-72775325D01*
X128629500Y-74524675D01*
X126000500Y-74524675D01*
X126000500Y-65124500D01*
X126017113Y-65062500D01*
X126062500Y-65017113D01*
X126124500Y-65000500D01*
X140875500Y-65000500D01*
X140937500Y-65017113D01*
G37*
%TD.AperFunction*%
%TD*%
M02*
