%TF.GenerationSoftware,KiCad,Pcbnew,7.0.1*%
%TF.CreationDate,2025-01-22T12:30:56-05:00*%
%TF.ProjectId,TrackRingA-panel,54726163-6b52-4696-9e67-412d70616e65,rev?*%
%TF.SameCoordinates,Original*%
%TF.FileFunction,Paste,Top*%
%TF.FilePolarity,Positive*%
%FSLAX46Y46*%
G04 Gerber Fmt 4.6, Leading zero omitted, Abs format (unit mm)*
G04 Created by KiCad (PCBNEW 7.0.1) date 2025-01-22 12:30:56*
%MOMM*%
%LPD*%
G01*
G04 APERTURE LIST*
G04 Aperture macros list*
%AMRoundRect*
0 Rectangle with rounded corners*
0 $1 Rounding radius*
0 $2 $3 $4 $5 $6 $7 $8 $9 X,Y pos of 4 corners*
0 Add a 4 corners polygon primitive as box body*
4,1,4,$2,$3,$4,$5,$6,$7,$8,$9,$2,$3,0*
0 Add four circle primitives for the rounded corners*
1,1,$1+$1,$2,$3*
1,1,$1+$1,$4,$5*
1,1,$1+$1,$6,$7*
1,1,$1+$1,$8,$9*
0 Add four rect primitives between the rounded corners*
20,1,$1+$1,$2,$3,$4,$5,0*
20,1,$1+$1,$4,$5,$6,$7,0*
20,1,$1+$1,$6,$7,$8,$9,0*
20,1,$1+$1,$8,$9,$2,$3,0*%
G04 Aperture macros list end*
%ADD10R,0.375000X0.350000*%
%ADD11R,0.350000X0.375000*%
%ADD12RoundRect,0.140000X0.140000X0.170000X-0.140000X0.170000X-0.140000X-0.170000X0.140000X-0.170000X0*%
%ADD13RoundRect,0.135000X0.185000X-0.135000X0.185000X0.135000X-0.185000X0.135000X-0.185000X-0.135000X0*%
%ADD14RoundRect,0.218750X0.256250X-0.218750X0.256250X0.218750X-0.256250X0.218750X-0.256250X-0.218750X0*%
%ADD15RoundRect,0.135000X-0.185000X0.135000X-0.185000X-0.135000X0.185000X-0.135000X0.185000X0.135000X0*%
%ADD16R,0.700000X0.510000*%
G04 APERTURE END LIST*
D10*
%TO.C,U2*%
X117737500Y-83000000D03*
X117737500Y-83500000D03*
X117737500Y-84000000D03*
X117737500Y-84500000D03*
D11*
X118250000Y-84512500D03*
X118750000Y-84512500D03*
D10*
X119262500Y-84500000D03*
X119262500Y-84000000D03*
X119262500Y-83500000D03*
X119262500Y-83000000D03*
D11*
X118750000Y-82987500D03*
X118250000Y-82987500D03*
%TD*%
D12*
%TO.C,C2*%
X121480000Y-53000000D03*
X120520000Y-53000000D03*
%TD*%
D13*
%TO.C,R5*%
X153800000Y-78010000D03*
X153800000Y-76990000D03*
%TD*%
%TO.C,R3*%
X151000000Y-77010000D03*
X151000000Y-75990000D03*
%TD*%
%TO.C,R4*%
X144010000Y-64010000D03*
X144010000Y-62990000D03*
%TD*%
%TO.C,R5*%
X183800000Y-33010000D03*
X183800000Y-31990000D03*
%TD*%
D14*
%TO.C,D1*%
X182500000Y-32787500D03*
X182500000Y-31212500D03*
%TD*%
D15*
%TO.C,R1*%
X145750000Y-30990000D03*
X145750000Y-32010000D03*
%TD*%
D13*
%TO.C,R7*%
X131000000Y-86760000D03*
X131000000Y-85740000D03*
%TD*%
D15*
%TO.C,R2*%
X129000000Y-45990000D03*
X129000000Y-47010000D03*
%TD*%
D13*
%TO.C,R6*%
X177750000Y-26760000D03*
X177750000Y-25740000D03*
%TD*%
D15*
%TO.C,R2*%
X129000000Y-30990000D03*
X129000000Y-32010000D03*
%TD*%
D14*
%TO.C,D1*%
X122500000Y-62787500D03*
X122500000Y-61212500D03*
%TD*%
D13*
%TO.C,R3*%
X181000000Y-92010000D03*
X181000000Y-90990000D03*
%TD*%
D12*
%TO.C,C1*%
X167230000Y-79175000D03*
X166270000Y-79175000D03*
%TD*%
D15*
%TO.C,R2*%
X174000000Y-75990000D03*
X174000000Y-77010000D03*
%TD*%
D12*
%TO.C,C3*%
X181480000Y-22000000D03*
X180520000Y-22000000D03*
%TD*%
D13*
%TO.C,R6*%
X132750000Y-86760000D03*
X132750000Y-85740000D03*
%TD*%
D12*
%TO.C,C3*%
X121480000Y-82000000D03*
X120520000Y-82000000D03*
%TD*%
%TO.C,C1*%
X122230000Y-49175000D03*
X121270000Y-49175000D03*
%TD*%
D15*
%TO.C,R2*%
X159000000Y-45990000D03*
X159000000Y-47010000D03*
%TD*%
D13*
%TO.C,R7*%
X131000000Y-41760000D03*
X131000000Y-40740000D03*
%TD*%
%TO.C,R6*%
X117750000Y-86760000D03*
X117750000Y-85740000D03*
%TD*%
D16*
%TO.C,U1*%
X177340000Y-91950000D03*
X177340000Y-92900000D03*
X177340000Y-93850000D03*
X179660000Y-93850000D03*
X179660000Y-92900000D03*
X179660000Y-91950000D03*
%TD*%
%TO.C,U1*%
X117340000Y-46950000D03*
X117340000Y-47900000D03*
X117340000Y-48850000D03*
X119660000Y-48850000D03*
X119660000Y-47900000D03*
X119660000Y-46950000D03*
%TD*%
D13*
%TO.C,R7*%
X146000000Y-41760000D03*
X146000000Y-40740000D03*
%TD*%
%TO.C,R3*%
X181000000Y-77010000D03*
X181000000Y-75990000D03*
%TD*%
%TO.C,R7*%
X146000000Y-71760000D03*
X146000000Y-70740000D03*
%TD*%
D10*
%TO.C,U2*%
X117737500Y-53000000D03*
X117737500Y-53500000D03*
X117737500Y-54000000D03*
X117737500Y-54500000D03*
D11*
X118250000Y-54512500D03*
X118750000Y-54512500D03*
D10*
X119262500Y-54500000D03*
X119262500Y-54000000D03*
X119262500Y-53500000D03*
X119262500Y-53000000D03*
D11*
X118750000Y-52987500D03*
X118250000Y-52987500D03*
%TD*%
D12*
%TO.C,C2*%
X181480000Y-23000000D03*
X180520000Y-23000000D03*
%TD*%
D10*
%TO.C,U2*%
X177737500Y-38000000D03*
X177737500Y-38500000D03*
X177737500Y-39000000D03*
X177737500Y-39500000D03*
D11*
X178250000Y-39512500D03*
X178750000Y-39512500D03*
D10*
X179262500Y-39500000D03*
X179262500Y-39000000D03*
X179262500Y-38500000D03*
X179262500Y-38000000D03*
D11*
X178750000Y-37987500D03*
X178250000Y-37987500D03*
%TD*%
D16*
%TO.C,U1*%
X132340000Y-76950000D03*
X132340000Y-77900000D03*
X132340000Y-78850000D03*
X134660000Y-78850000D03*
X134660000Y-77900000D03*
X134660000Y-76950000D03*
%TD*%
D10*
%TO.C,U2*%
X147737500Y-68000000D03*
X147737500Y-68500000D03*
X147737500Y-69000000D03*
X147737500Y-69500000D03*
D11*
X148250000Y-69512500D03*
X148750000Y-69512500D03*
D10*
X149262500Y-69500000D03*
X149262500Y-69000000D03*
X149262500Y-68500000D03*
X149262500Y-68000000D03*
D11*
X148750000Y-67987500D03*
X148250000Y-67987500D03*
%TD*%
D12*
%TO.C,C2*%
X166480000Y-23000000D03*
X165520000Y-23000000D03*
%TD*%
%TO.C,C2*%
X181480000Y-83000000D03*
X180520000Y-83000000D03*
%TD*%
D15*
%TO.C,R1*%
X130750000Y-60990000D03*
X130750000Y-62010000D03*
%TD*%
D13*
%TO.C,R5*%
X123800000Y-63010000D03*
X123800000Y-61990000D03*
%TD*%
%TO.C,R3*%
X166000000Y-62010000D03*
X166000000Y-60990000D03*
%TD*%
%TO.C,R3*%
X121000000Y-92010000D03*
X121000000Y-90990000D03*
%TD*%
D14*
%TO.C,D1*%
X167500000Y-77787500D03*
X167500000Y-76212500D03*
%TD*%
D15*
%TO.C,R1*%
X115750000Y-75990000D03*
X115750000Y-77010000D03*
%TD*%
D16*
%TO.C,U1*%
X162340000Y-61950000D03*
X162340000Y-62900000D03*
X162340000Y-63850000D03*
X164660000Y-63850000D03*
X164660000Y-62900000D03*
X164660000Y-61950000D03*
%TD*%
D13*
%TO.C,R7*%
X116000000Y-41760000D03*
X116000000Y-40740000D03*
%TD*%
D10*
%TO.C,U2*%
X177737500Y-83000000D03*
X177737500Y-83500000D03*
X177737500Y-84000000D03*
X177737500Y-84500000D03*
D11*
X178250000Y-84512500D03*
X178750000Y-84512500D03*
D10*
X179262500Y-84500000D03*
X179262500Y-84000000D03*
X179262500Y-83500000D03*
X179262500Y-83000000D03*
D11*
X178750000Y-82987500D03*
X178250000Y-82987500D03*
%TD*%
D13*
%TO.C,R3*%
X136000000Y-62010000D03*
X136000000Y-60990000D03*
%TD*%
D12*
%TO.C,C1*%
X152230000Y-34175000D03*
X151270000Y-34175000D03*
%TD*%
D13*
%TO.C,R4*%
X114010000Y-34010000D03*
X114010000Y-32990000D03*
%TD*%
D10*
%TO.C,U2*%
X132737500Y-68000000D03*
X132737500Y-68500000D03*
X132737500Y-69000000D03*
X132737500Y-69500000D03*
D11*
X133250000Y-69512500D03*
X133750000Y-69512500D03*
D10*
X134262500Y-69500000D03*
X134262500Y-69000000D03*
X134262500Y-68500000D03*
X134262500Y-68000000D03*
D11*
X133750000Y-67987500D03*
X133250000Y-67987500D03*
%TD*%
D13*
%TO.C,R5*%
X153800000Y-33010000D03*
X153800000Y-31990000D03*
%TD*%
D12*
%TO.C,C1*%
X137230000Y-94175000D03*
X136270000Y-94175000D03*
%TD*%
D13*
%TO.C,R4*%
X159010000Y-79010000D03*
X159010000Y-77990000D03*
%TD*%
D12*
%TO.C,C2*%
X136480000Y-68000000D03*
X135520000Y-68000000D03*
%TD*%
D13*
%TO.C,R5*%
X123800000Y-48010000D03*
X123800000Y-46990000D03*
%TD*%
D14*
%TO.C,D1*%
X152500000Y-47787500D03*
X152500000Y-46212500D03*
%TD*%
D12*
%TO.C,C3*%
X181480000Y-37000000D03*
X180520000Y-37000000D03*
%TD*%
D13*
%TO.C,R7*%
X116000000Y-56760000D03*
X116000000Y-55740000D03*
%TD*%
D16*
%TO.C,U1*%
X162340000Y-46950000D03*
X162340000Y-47900000D03*
X162340000Y-48850000D03*
X164660000Y-48850000D03*
X164660000Y-47900000D03*
X164660000Y-46950000D03*
%TD*%
D10*
%TO.C,U2*%
X162737500Y-53000000D03*
X162737500Y-53500000D03*
X162737500Y-54000000D03*
X162737500Y-54500000D03*
D11*
X163250000Y-54512500D03*
X163750000Y-54512500D03*
D10*
X164262500Y-54500000D03*
X164262500Y-54000000D03*
X164262500Y-53500000D03*
X164262500Y-53000000D03*
D11*
X163750000Y-52987500D03*
X163250000Y-52987500D03*
%TD*%
D13*
%TO.C,R3*%
X121000000Y-77010000D03*
X121000000Y-75990000D03*
%TD*%
%TO.C,R6*%
X177750000Y-41760000D03*
X177750000Y-40740000D03*
%TD*%
%TO.C,R4*%
X144010000Y-34010000D03*
X144010000Y-32990000D03*
%TD*%
D12*
%TO.C,C1*%
X167230000Y-64175000D03*
X166270000Y-64175000D03*
%TD*%
%TO.C,C2*%
X151480000Y-38000000D03*
X150520000Y-38000000D03*
%TD*%
%TO.C,C2*%
X121480000Y-83000000D03*
X120520000Y-83000000D03*
%TD*%
D13*
%TO.C,R3*%
X181000000Y-62010000D03*
X181000000Y-60990000D03*
%TD*%
D12*
%TO.C,C3*%
X151480000Y-52000000D03*
X150520000Y-52000000D03*
%TD*%
%TO.C,C1*%
X137230000Y-34175000D03*
X136270000Y-34175000D03*
%TD*%
D15*
%TO.C,R2*%
X114000000Y-30990000D03*
X114000000Y-32010000D03*
%TD*%
D13*
%TO.C,R6*%
X147750000Y-41760000D03*
X147750000Y-40740000D03*
%TD*%
D15*
%TO.C,R2*%
X129000000Y-90990000D03*
X129000000Y-92010000D03*
%TD*%
D13*
%TO.C,R7*%
X146000000Y-26760000D03*
X146000000Y-25740000D03*
%TD*%
D15*
%TO.C,R1*%
X115750000Y-45990000D03*
X115750000Y-47010000D03*
%TD*%
D10*
%TO.C,U2*%
X177737500Y-53000000D03*
X177737500Y-53500000D03*
X177737500Y-54000000D03*
X177737500Y-54500000D03*
D11*
X178250000Y-54512500D03*
X178750000Y-54512500D03*
D10*
X179262500Y-54500000D03*
X179262500Y-54000000D03*
X179262500Y-53500000D03*
X179262500Y-53000000D03*
D11*
X178750000Y-52987500D03*
X178250000Y-52987500D03*
%TD*%
D14*
%TO.C,D1*%
X137500000Y-62787500D03*
X137500000Y-61212500D03*
%TD*%
D12*
%TO.C,C3*%
X181480000Y-52000000D03*
X180520000Y-52000000D03*
%TD*%
%TO.C,C1*%
X122230000Y-64175000D03*
X121270000Y-64175000D03*
%TD*%
D13*
%TO.C,R7*%
X161000000Y-71760000D03*
X161000000Y-70740000D03*
%TD*%
D10*
%TO.C,U2*%
X132737500Y-23000000D03*
X132737500Y-23500000D03*
X132737500Y-24000000D03*
X132737500Y-24500000D03*
D11*
X133250000Y-24512500D03*
X133750000Y-24512500D03*
D10*
X134262500Y-24500000D03*
X134262500Y-24000000D03*
X134262500Y-23500000D03*
X134262500Y-23000000D03*
D11*
X133750000Y-22987500D03*
X133250000Y-22987500D03*
%TD*%
D12*
%TO.C,C2*%
X121480000Y-23000000D03*
X120520000Y-23000000D03*
%TD*%
D13*
%TO.C,R6*%
X117750000Y-26760000D03*
X117750000Y-25740000D03*
%TD*%
D16*
%TO.C,U1*%
X177340000Y-31950000D03*
X177340000Y-32900000D03*
X177340000Y-33850000D03*
X179660000Y-33850000D03*
X179660000Y-32900000D03*
X179660000Y-31950000D03*
%TD*%
D13*
%TO.C,R4*%
X114010000Y-79010000D03*
X114010000Y-77990000D03*
%TD*%
%TO.C,R4*%
X129010000Y-49010000D03*
X129010000Y-47990000D03*
%TD*%
%TO.C,R5*%
X183800000Y-93010000D03*
X183800000Y-91990000D03*
%TD*%
%TO.C,R4*%
X114010000Y-64010000D03*
X114010000Y-62990000D03*
%TD*%
D15*
%TO.C,R2*%
X144000000Y-60990000D03*
X144000000Y-62010000D03*
%TD*%
D14*
%TO.C,D1*%
X152500000Y-32787500D03*
X152500000Y-31212500D03*
%TD*%
D15*
%TO.C,R1*%
X160750000Y-90990000D03*
X160750000Y-92010000D03*
%TD*%
D13*
%TO.C,R7*%
X176000000Y-26760000D03*
X176000000Y-25740000D03*
%TD*%
D12*
%TO.C,C3*%
X166480000Y-67000000D03*
X165520000Y-67000000D03*
%TD*%
D14*
%TO.C,D1*%
X182500000Y-47787500D03*
X182500000Y-46212500D03*
%TD*%
D16*
%TO.C,U1*%
X147340000Y-46950000D03*
X147340000Y-47900000D03*
X147340000Y-48850000D03*
X149660000Y-48850000D03*
X149660000Y-47900000D03*
X149660000Y-46950000D03*
%TD*%
D15*
%TO.C,R2*%
X129000000Y-60990000D03*
X129000000Y-62010000D03*
%TD*%
D13*
%TO.C,R5*%
X123800000Y-78010000D03*
X123800000Y-76990000D03*
%TD*%
D12*
%TO.C,C1*%
X152230000Y-64175000D03*
X151270000Y-64175000D03*
%TD*%
D16*
%TO.C,U1*%
X177340000Y-76950000D03*
X177340000Y-77900000D03*
X177340000Y-78850000D03*
X179660000Y-78850000D03*
X179660000Y-77900000D03*
X179660000Y-76950000D03*
%TD*%
D13*
%TO.C,R7*%
X176000000Y-71760000D03*
X176000000Y-70740000D03*
%TD*%
D16*
%TO.C,U1*%
X177340000Y-46950000D03*
X177340000Y-47900000D03*
X177340000Y-48850000D03*
X179660000Y-48850000D03*
X179660000Y-47900000D03*
X179660000Y-46950000D03*
%TD*%
D14*
%TO.C,D1*%
X137500000Y-77787500D03*
X137500000Y-76212500D03*
%TD*%
D13*
%TO.C,R6*%
X177750000Y-56760000D03*
X177750000Y-55740000D03*
%TD*%
%TO.C,R5*%
X183800000Y-63010000D03*
X183800000Y-61990000D03*
%TD*%
%TO.C,R6*%
X117750000Y-41760000D03*
X117750000Y-40740000D03*
%TD*%
D15*
%TO.C,R1*%
X115750000Y-60990000D03*
X115750000Y-62010000D03*
%TD*%
D12*
%TO.C,C3*%
X136480000Y-37000000D03*
X135520000Y-37000000D03*
%TD*%
D15*
%TO.C,R1*%
X160750000Y-60990000D03*
X160750000Y-62010000D03*
%TD*%
%TO.C,R2*%
X114000000Y-45990000D03*
X114000000Y-47010000D03*
%TD*%
D13*
%TO.C,R4*%
X129010000Y-34010000D03*
X129010000Y-32990000D03*
%TD*%
%TO.C,R5*%
X168800000Y-48010000D03*
X168800000Y-46990000D03*
%TD*%
%TO.C,R6*%
X162750000Y-41760000D03*
X162750000Y-40740000D03*
%TD*%
D12*
%TO.C,C3*%
X151480000Y-67000000D03*
X150520000Y-67000000D03*
%TD*%
D15*
%TO.C,R2*%
X144000000Y-75990000D03*
X144000000Y-77010000D03*
%TD*%
D14*
%TO.C,D1*%
X137500000Y-32787500D03*
X137500000Y-31212500D03*
%TD*%
D13*
%TO.C,R5*%
X168800000Y-33010000D03*
X168800000Y-31990000D03*
%TD*%
%TO.C,R4*%
X129010000Y-94010000D03*
X129010000Y-92990000D03*
%TD*%
D10*
%TO.C,U2*%
X117737500Y-23000000D03*
X117737500Y-23500000D03*
X117737500Y-24000000D03*
X117737500Y-24500000D03*
D11*
X118250000Y-24512500D03*
X118750000Y-24512500D03*
D10*
X119262500Y-24500000D03*
X119262500Y-24000000D03*
X119262500Y-23500000D03*
X119262500Y-23000000D03*
D11*
X118750000Y-22987500D03*
X118250000Y-22987500D03*
%TD*%
D13*
%TO.C,R4*%
X174010000Y-79010000D03*
X174010000Y-77990000D03*
%TD*%
%TO.C,R4*%
X129010000Y-64010000D03*
X129010000Y-62990000D03*
%TD*%
D15*
%TO.C,R1*%
X145750000Y-75990000D03*
X145750000Y-77010000D03*
%TD*%
D14*
%TO.C,D1*%
X122500000Y-77787500D03*
X122500000Y-76212500D03*
%TD*%
D16*
%TO.C,U1*%
X162340000Y-76950000D03*
X162340000Y-77900000D03*
X162340000Y-78850000D03*
X164660000Y-78850000D03*
X164660000Y-77900000D03*
X164660000Y-76950000D03*
%TD*%
D15*
%TO.C,R2*%
X159000000Y-30990000D03*
X159000000Y-32010000D03*
%TD*%
D12*
%TO.C,C1*%
X152230000Y-94175000D03*
X151270000Y-94175000D03*
%TD*%
D10*
%TO.C,U2*%
X162737500Y-68000000D03*
X162737500Y-68500000D03*
X162737500Y-69000000D03*
X162737500Y-69500000D03*
D11*
X163250000Y-69512500D03*
X163750000Y-69512500D03*
D10*
X164262500Y-69500000D03*
X164262500Y-69000000D03*
X164262500Y-68500000D03*
X164262500Y-68000000D03*
D11*
X163750000Y-67987500D03*
X163250000Y-67987500D03*
%TD*%
D13*
%TO.C,R4*%
X174010000Y-64010000D03*
X174010000Y-62990000D03*
%TD*%
D12*
%TO.C,C2*%
X181480000Y-53000000D03*
X180520000Y-53000000D03*
%TD*%
D16*
%TO.C,U1*%
X117340000Y-61950000D03*
X117340000Y-62900000D03*
X117340000Y-63850000D03*
X119660000Y-63850000D03*
X119660000Y-62900000D03*
X119660000Y-61950000D03*
%TD*%
%TO.C,U1*%
X117340000Y-91950000D03*
X117340000Y-92900000D03*
X117340000Y-93850000D03*
X119660000Y-93850000D03*
X119660000Y-92900000D03*
X119660000Y-91950000D03*
%TD*%
D15*
%TO.C,R2*%
X159000000Y-90990000D03*
X159000000Y-92010000D03*
%TD*%
D16*
%TO.C,U1*%
X147340000Y-31950000D03*
X147340000Y-32900000D03*
X147340000Y-33850000D03*
X149660000Y-33850000D03*
X149660000Y-32900000D03*
X149660000Y-31950000D03*
%TD*%
D15*
%TO.C,R2*%
X174000000Y-60990000D03*
X174000000Y-62010000D03*
%TD*%
D12*
%TO.C,C2*%
X166480000Y-53000000D03*
X165520000Y-53000000D03*
%TD*%
D15*
%TO.C,R2*%
X174000000Y-45990000D03*
X174000000Y-47010000D03*
%TD*%
D16*
%TO.C,U1*%
X132340000Y-91950000D03*
X132340000Y-92900000D03*
X132340000Y-93850000D03*
X134660000Y-93850000D03*
X134660000Y-92900000D03*
X134660000Y-91950000D03*
%TD*%
D12*
%TO.C,C1*%
X122230000Y-94175000D03*
X121270000Y-94175000D03*
%TD*%
D16*
%TO.C,U1*%
X117340000Y-76950000D03*
X117340000Y-77900000D03*
X117340000Y-78850000D03*
X119660000Y-78850000D03*
X119660000Y-77900000D03*
X119660000Y-76950000D03*
%TD*%
D13*
%TO.C,R5*%
X123800000Y-93010000D03*
X123800000Y-91990000D03*
%TD*%
D15*
%TO.C,R1*%
X145750000Y-90990000D03*
X145750000Y-92010000D03*
%TD*%
%TO.C,R1*%
X130750000Y-45990000D03*
X130750000Y-47010000D03*
%TD*%
%TO.C,R1*%
X130750000Y-90990000D03*
X130750000Y-92010000D03*
%TD*%
D12*
%TO.C,C3*%
X136480000Y-22000000D03*
X135520000Y-22000000D03*
%TD*%
D13*
%TO.C,R3*%
X151000000Y-47010000D03*
X151000000Y-45990000D03*
%TD*%
D14*
%TO.C,D1*%
X152500000Y-62787500D03*
X152500000Y-61212500D03*
%TD*%
D10*
%TO.C,U2*%
X132737500Y-83000000D03*
X132737500Y-83500000D03*
X132737500Y-84000000D03*
X132737500Y-84500000D03*
D11*
X133250000Y-84512500D03*
X133750000Y-84512500D03*
D10*
X134262500Y-84500000D03*
X134262500Y-84000000D03*
X134262500Y-83500000D03*
X134262500Y-83000000D03*
D11*
X133750000Y-82987500D03*
X133250000Y-82987500D03*
%TD*%
D13*
%TO.C,R4*%
X159010000Y-49010000D03*
X159010000Y-47990000D03*
%TD*%
D14*
%TO.C,D1*%
X137500000Y-92787500D03*
X137500000Y-91212500D03*
%TD*%
D12*
%TO.C,C3*%
X166480000Y-37000000D03*
X165520000Y-37000000D03*
%TD*%
D13*
%TO.C,R6*%
X162750000Y-86760000D03*
X162750000Y-85740000D03*
%TD*%
%TO.C,R5*%
X183800000Y-78010000D03*
X183800000Y-76990000D03*
%TD*%
%TO.C,R4*%
X114010000Y-94010000D03*
X114010000Y-92990000D03*
%TD*%
%TO.C,R7*%
X176000000Y-41760000D03*
X176000000Y-40740000D03*
%TD*%
D12*
%TO.C,C1*%
X182230000Y-79175000D03*
X181270000Y-79175000D03*
%TD*%
D13*
%TO.C,R7*%
X131000000Y-71760000D03*
X131000000Y-70740000D03*
%TD*%
%TO.C,R6*%
X117750000Y-71760000D03*
X117750000Y-70740000D03*
%TD*%
D15*
%TO.C,R2*%
X114000000Y-60990000D03*
X114000000Y-62010000D03*
%TD*%
D13*
%TO.C,R4*%
X144010000Y-94010000D03*
X144010000Y-92990000D03*
%TD*%
D15*
%TO.C,R2*%
X114000000Y-75990000D03*
X114000000Y-77010000D03*
%TD*%
D10*
%TO.C,U2*%
X162737500Y-38000000D03*
X162737500Y-38500000D03*
X162737500Y-39000000D03*
X162737500Y-39500000D03*
D11*
X163250000Y-39512500D03*
X163750000Y-39512500D03*
D10*
X164262500Y-39500000D03*
X164262500Y-39000000D03*
X164262500Y-38500000D03*
X164262500Y-38000000D03*
D11*
X163750000Y-37987500D03*
X163250000Y-37987500D03*
%TD*%
D12*
%TO.C,C2*%
X136480000Y-23000000D03*
X135520000Y-23000000D03*
%TD*%
D13*
%TO.C,R4*%
X159010000Y-94010000D03*
X159010000Y-92990000D03*
%TD*%
D12*
%TO.C,C3*%
X166480000Y-22000000D03*
X165520000Y-22000000D03*
%TD*%
D15*
%TO.C,R1*%
X175750000Y-75990000D03*
X175750000Y-77010000D03*
%TD*%
D16*
%TO.C,U1*%
X147340000Y-61950000D03*
X147340000Y-62900000D03*
X147340000Y-63850000D03*
X149660000Y-63850000D03*
X149660000Y-62900000D03*
X149660000Y-61950000D03*
%TD*%
D13*
%TO.C,R6*%
X132750000Y-71760000D03*
X132750000Y-70740000D03*
%TD*%
%TO.C,R4*%
X159010000Y-34010000D03*
X159010000Y-32990000D03*
%TD*%
D14*
%TO.C,D1*%
X182500000Y-62787500D03*
X182500000Y-61212500D03*
%TD*%
D12*
%TO.C,C1*%
X182230000Y-94175000D03*
X181270000Y-94175000D03*
%TD*%
%TO.C,C2*%
X166480000Y-68000000D03*
X165520000Y-68000000D03*
%TD*%
%TO.C,C1*%
X137230000Y-49175000D03*
X136270000Y-49175000D03*
%TD*%
D15*
%TO.C,R1*%
X145750000Y-45990000D03*
X145750000Y-47010000D03*
%TD*%
D12*
%TO.C,C1*%
X122230000Y-79175000D03*
X121270000Y-79175000D03*
%TD*%
D13*
%TO.C,R6*%
X162750000Y-71760000D03*
X162750000Y-70740000D03*
%TD*%
%TO.C,R3*%
X121000000Y-47010000D03*
X121000000Y-45990000D03*
%TD*%
%TO.C,R7*%
X161000000Y-86760000D03*
X161000000Y-85740000D03*
%TD*%
D10*
%TO.C,U2*%
X147737500Y-38000000D03*
X147737500Y-38500000D03*
X147737500Y-39000000D03*
X147737500Y-39500000D03*
D11*
X148250000Y-39512500D03*
X148750000Y-39512500D03*
D10*
X149262500Y-39500000D03*
X149262500Y-39000000D03*
X149262500Y-38500000D03*
X149262500Y-38000000D03*
D11*
X148750000Y-37987500D03*
X148250000Y-37987500D03*
%TD*%
D13*
%TO.C,R7*%
X161000000Y-26760000D03*
X161000000Y-25740000D03*
%TD*%
D12*
%TO.C,C2*%
X181480000Y-68000000D03*
X180520000Y-68000000D03*
%TD*%
D13*
%TO.C,R5*%
X153800000Y-48010000D03*
X153800000Y-46990000D03*
%TD*%
D12*
%TO.C,C2*%
X136480000Y-53000000D03*
X135520000Y-53000000D03*
%TD*%
D15*
%TO.C,R1*%
X175750000Y-60990000D03*
X175750000Y-62010000D03*
%TD*%
D13*
%TO.C,R4*%
X144010000Y-49010000D03*
X144010000Y-47990000D03*
%TD*%
D15*
%TO.C,R1*%
X115750000Y-90990000D03*
X115750000Y-92010000D03*
%TD*%
D16*
%TO.C,U1*%
X132340000Y-31950000D03*
X132340000Y-32900000D03*
X132340000Y-33850000D03*
X134660000Y-33850000D03*
X134660000Y-32900000D03*
X134660000Y-31950000D03*
%TD*%
D12*
%TO.C,C3*%
X121480000Y-67000000D03*
X120520000Y-67000000D03*
%TD*%
%TO.C,C2*%
X151480000Y-23000000D03*
X150520000Y-23000000D03*
%TD*%
D15*
%TO.C,R2*%
X159000000Y-75990000D03*
X159000000Y-77010000D03*
%TD*%
D13*
%TO.C,R3*%
X151000000Y-92010000D03*
X151000000Y-90990000D03*
%TD*%
%TO.C,R3*%
X151000000Y-62010000D03*
X151000000Y-60990000D03*
%TD*%
D12*
%TO.C,C3*%
X136480000Y-82000000D03*
X135520000Y-82000000D03*
%TD*%
%TO.C,C1*%
X167230000Y-49175000D03*
X166270000Y-49175000D03*
%TD*%
D13*
%TO.C,R6*%
X147750000Y-86760000D03*
X147750000Y-85740000D03*
%TD*%
D12*
%TO.C,C3*%
X181480000Y-67000000D03*
X180520000Y-67000000D03*
%TD*%
D10*
%TO.C,U2*%
X162737500Y-23000000D03*
X162737500Y-23500000D03*
X162737500Y-24000000D03*
X162737500Y-24500000D03*
D11*
X163250000Y-24512500D03*
X163750000Y-24512500D03*
D10*
X164262500Y-24500000D03*
X164262500Y-24000000D03*
X164262500Y-23500000D03*
X164262500Y-23000000D03*
D11*
X163750000Y-22987500D03*
X163250000Y-22987500D03*
%TD*%
D10*
%TO.C,U2*%
X132737500Y-38000000D03*
X132737500Y-38500000D03*
X132737500Y-39000000D03*
X132737500Y-39500000D03*
D11*
X133250000Y-39512500D03*
X133750000Y-39512500D03*
D10*
X134262500Y-39500000D03*
X134262500Y-39000000D03*
X134262500Y-38500000D03*
X134262500Y-38000000D03*
D11*
X133750000Y-37987500D03*
X133250000Y-37987500D03*
%TD*%
D14*
%TO.C,D1*%
X167500000Y-47787500D03*
X167500000Y-46212500D03*
%TD*%
D13*
%TO.C,R4*%
X174010000Y-34010000D03*
X174010000Y-32990000D03*
%TD*%
D10*
%TO.C,U2*%
X117737500Y-68000000D03*
X117737500Y-68500000D03*
X117737500Y-69000000D03*
X117737500Y-69500000D03*
D11*
X118250000Y-69512500D03*
X118750000Y-69512500D03*
D10*
X119262500Y-69500000D03*
X119262500Y-69000000D03*
X119262500Y-68500000D03*
X119262500Y-68000000D03*
D11*
X118750000Y-67987500D03*
X118250000Y-67987500D03*
%TD*%
D12*
%TO.C,C2*%
X166480000Y-38000000D03*
X165520000Y-38000000D03*
%TD*%
D13*
%TO.C,R5*%
X168800000Y-78010000D03*
X168800000Y-76990000D03*
%TD*%
D10*
%TO.C,U2*%
X147737500Y-83000000D03*
X147737500Y-83500000D03*
X147737500Y-84000000D03*
X147737500Y-84500000D03*
D11*
X148250000Y-84512500D03*
X148750000Y-84512500D03*
D10*
X149262500Y-84500000D03*
X149262500Y-84000000D03*
X149262500Y-83500000D03*
X149262500Y-83000000D03*
D11*
X148750000Y-82987500D03*
X148250000Y-82987500D03*
%TD*%
D12*
%TO.C,C3*%
X136480000Y-52000000D03*
X135520000Y-52000000D03*
%TD*%
%TO.C,C2*%
X166480000Y-83000000D03*
X165520000Y-83000000D03*
%TD*%
D15*
%TO.C,R2*%
X174000000Y-30990000D03*
X174000000Y-32010000D03*
%TD*%
D13*
%TO.C,R4*%
X174010000Y-94010000D03*
X174010000Y-92990000D03*
%TD*%
%TO.C,R5*%
X138800000Y-93010000D03*
X138800000Y-91990000D03*
%TD*%
D14*
%TO.C,D1*%
X122500000Y-32787500D03*
X122500000Y-31212500D03*
%TD*%
D13*
%TO.C,R5*%
X153800000Y-63010000D03*
X153800000Y-61990000D03*
%TD*%
D12*
%TO.C,C2*%
X151480000Y-68000000D03*
X150520000Y-68000000D03*
%TD*%
%TO.C,C2*%
X181480000Y-38000000D03*
X180520000Y-38000000D03*
%TD*%
D16*
%TO.C,U1*%
X132340000Y-61950000D03*
X132340000Y-62900000D03*
X132340000Y-63850000D03*
X134660000Y-63850000D03*
X134660000Y-62900000D03*
X134660000Y-61950000D03*
%TD*%
D13*
%TO.C,R5*%
X153800000Y-93010000D03*
X153800000Y-91990000D03*
%TD*%
%TO.C,R7*%
X161000000Y-56760000D03*
X161000000Y-55740000D03*
%TD*%
%TO.C,R3*%
X136000000Y-92010000D03*
X136000000Y-90990000D03*
%TD*%
D12*
%TO.C,C2*%
X121480000Y-38000000D03*
X120520000Y-38000000D03*
%TD*%
D15*
%TO.C,R2*%
X129000000Y-75990000D03*
X129000000Y-77010000D03*
%TD*%
D14*
%TO.C,D1*%
X182500000Y-77787500D03*
X182500000Y-76212500D03*
%TD*%
D13*
%TO.C,R5*%
X168800000Y-63010000D03*
X168800000Y-61990000D03*
%TD*%
D16*
%TO.C,U1*%
X147340000Y-91950000D03*
X147340000Y-92900000D03*
X147340000Y-93850000D03*
X149660000Y-93850000D03*
X149660000Y-92900000D03*
X149660000Y-91950000D03*
%TD*%
%TO.C,U1*%
X162340000Y-91950000D03*
X162340000Y-92900000D03*
X162340000Y-93850000D03*
X164660000Y-93850000D03*
X164660000Y-92900000D03*
X164660000Y-91950000D03*
%TD*%
D13*
%TO.C,R4*%
X174010000Y-49010000D03*
X174010000Y-47990000D03*
%TD*%
%TO.C,R7*%
X116000000Y-26760000D03*
X116000000Y-25740000D03*
%TD*%
%TO.C,R5*%
X123800000Y-33010000D03*
X123800000Y-31990000D03*
%TD*%
D16*
%TO.C,U1*%
X147340000Y-76950000D03*
X147340000Y-77900000D03*
X147340000Y-78850000D03*
X149660000Y-78850000D03*
X149660000Y-77900000D03*
X149660000Y-76950000D03*
%TD*%
D14*
%TO.C,D1*%
X167500000Y-92787500D03*
X167500000Y-91212500D03*
%TD*%
D12*
%TO.C,C1*%
X182230000Y-64175000D03*
X181270000Y-64175000D03*
%TD*%
D14*
%TO.C,D1*%
X122500000Y-92787500D03*
X122500000Y-91212500D03*
%TD*%
D10*
%TO.C,U2*%
X117737500Y-38000000D03*
X117737500Y-38500000D03*
X117737500Y-39000000D03*
X117737500Y-39500000D03*
D11*
X118250000Y-39512500D03*
X118750000Y-39512500D03*
D10*
X119262500Y-39500000D03*
X119262500Y-39000000D03*
X119262500Y-38500000D03*
X119262500Y-38000000D03*
D11*
X118750000Y-37987500D03*
X118250000Y-37987500D03*
%TD*%
D14*
%TO.C,D1*%
X167500000Y-32787500D03*
X167500000Y-31212500D03*
%TD*%
%TO.C,D1*%
X137500000Y-47787500D03*
X137500000Y-46212500D03*
%TD*%
D13*
%TO.C,R6*%
X177750000Y-71760000D03*
X177750000Y-70740000D03*
%TD*%
%TO.C,R3*%
X136000000Y-47010000D03*
X136000000Y-45990000D03*
%TD*%
D15*
%TO.C,R1*%
X160750000Y-30990000D03*
X160750000Y-32010000D03*
%TD*%
D13*
%TO.C,R3*%
X121000000Y-32010000D03*
X121000000Y-30990000D03*
%TD*%
D12*
%TO.C,C2*%
X151480000Y-83000000D03*
X150520000Y-83000000D03*
%TD*%
D14*
%TO.C,D1*%
X152500000Y-92787500D03*
X152500000Y-91212500D03*
%TD*%
D15*
%TO.C,R1*%
X115750000Y-30990000D03*
X115750000Y-32010000D03*
%TD*%
D12*
%TO.C,C3*%
X121480000Y-22000000D03*
X120520000Y-22000000D03*
%TD*%
D16*
%TO.C,U1*%
X162340000Y-31950000D03*
X162340000Y-32900000D03*
X162340000Y-33850000D03*
X164660000Y-33850000D03*
X164660000Y-32900000D03*
X164660000Y-31950000D03*
%TD*%
D13*
%TO.C,R4*%
X129010000Y-79010000D03*
X129010000Y-77990000D03*
%TD*%
D15*
%TO.C,R2*%
X159000000Y-60990000D03*
X159000000Y-62010000D03*
%TD*%
D10*
%TO.C,U2*%
X162737500Y-83000000D03*
X162737500Y-83500000D03*
X162737500Y-84000000D03*
X162737500Y-84500000D03*
D11*
X163250000Y-84512500D03*
X163750000Y-84512500D03*
D10*
X164262500Y-84500000D03*
X164262500Y-84000000D03*
X164262500Y-83500000D03*
X164262500Y-83000000D03*
D11*
X163750000Y-82987500D03*
X163250000Y-82987500D03*
%TD*%
D13*
%TO.C,R4*%
X159010000Y-64010000D03*
X159010000Y-62990000D03*
%TD*%
%TO.C,R7*%
X146000000Y-56760000D03*
X146000000Y-55740000D03*
%TD*%
D15*
%TO.C,R2*%
X144000000Y-45990000D03*
X144000000Y-47010000D03*
%TD*%
%TO.C,R2*%
X144000000Y-90990000D03*
X144000000Y-92010000D03*
%TD*%
D14*
%TO.C,D1*%
X122500000Y-47787500D03*
X122500000Y-46212500D03*
%TD*%
D13*
%TO.C,R6*%
X147750000Y-26760000D03*
X147750000Y-25740000D03*
%TD*%
%TO.C,R5*%
X138800000Y-33010000D03*
X138800000Y-31990000D03*
%TD*%
D12*
%TO.C,C3*%
X136480000Y-67000000D03*
X135520000Y-67000000D03*
%TD*%
D13*
%TO.C,R4*%
X114010000Y-49010000D03*
X114010000Y-47990000D03*
%TD*%
%TO.C,R7*%
X146000000Y-86760000D03*
X146000000Y-85740000D03*
%TD*%
%TO.C,R4*%
X144010000Y-79010000D03*
X144010000Y-77990000D03*
%TD*%
%TO.C,R3*%
X151000000Y-32010000D03*
X151000000Y-30990000D03*
%TD*%
%TO.C,R7*%
X131000000Y-26760000D03*
X131000000Y-25740000D03*
%TD*%
D15*
%TO.C,R1*%
X130750000Y-75990000D03*
X130750000Y-77010000D03*
%TD*%
D13*
%TO.C,R3*%
X121000000Y-62010000D03*
X121000000Y-60990000D03*
%TD*%
D12*
%TO.C,C1*%
X137230000Y-79175000D03*
X136270000Y-79175000D03*
%TD*%
D10*
%TO.C,U2*%
X132737500Y-53000000D03*
X132737500Y-53500000D03*
X132737500Y-54000000D03*
X132737500Y-54500000D03*
D11*
X133250000Y-54512500D03*
X133750000Y-54512500D03*
D10*
X134262500Y-54500000D03*
X134262500Y-54000000D03*
X134262500Y-53500000D03*
X134262500Y-53000000D03*
D11*
X133750000Y-52987500D03*
X133250000Y-52987500D03*
%TD*%
D13*
%TO.C,R7*%
X176000000Y-86760000D03*
X176000000Y-85740000D03*
%TD*%
D16*
%TO.C,U1*%
X132340000Y-46950000D03*
X132340000Y-47900000D03*
X132340000Y-48850000D03*
X134660000Y-48850000D03*
X134660000Y-47900000D03*
X134660000Y-46950000D03*
%TD*%
%TO.C,U1*%
X177340000Y-61950000D03*
X177340000Y-62900000D03*
X177340000Y-63850000D03*
X179660000Y-63850000D03*
X179660000Y-62900000D03*
X179660000Y-61950000D03*
%TD*%
D13*
%TO.C,R5*%
X138800000Y-78010000D03*
X138800000Y-76990000D03*
%TD*%
D15*
%TO.C,R2*%
X144000000Y-30990000D03*
X144000000Y-32010000D03*
%TD*%
D13*
%TO.C,R7*%
X131000000Y-56760000D03*
X131000000Y-55740000D03*
%TD*%
%TO.C,R7*%
X161000000Y-41760000D03*
X161000000Y-40740000D03*
%TD*%
D12*
%TO.C,C1*%
X137230000Y-64175000D03*
X136270000Y-64175000D03*
%TD*%
D13*
%TO.C,R6*%
X132750000Y-26760000D03*
X132750000Y-25740000D03*
%TD*%
%TO.C,R6*%
X132750000Y-41760000D03*
X132750000Y-40740000D03*
%TD*%
%TO.C,R6*%
X147750000Y-71760000D03*
X147750000Y-70740000D03*
%TD*%
D12*
%TO.C,C2*%
X136480000Y-38000000D03*
X135520000Y-38000000D03*
%TD*%
%TO.C,C2*%
X121480000Y-68000000D03*
X120520000Y-68000000D03*
%TD*%
D10*
%TO.C,U2*%
X147737500Y-53000000D03*
X147737500Y-53500000D03*
X147737500Y-54000000D03*
X147737500Y-54500000D03*
D11*
X148250000Y-54512500D03*
X148750000Y-54512500D03*
D10*
X149262500Y-54500000D03*
X149262500Y-54000000D03*
X149262500Y-53500000D03*
X149262500Y-53000000D03*
D11*
X148750000Y-52987500D03*
X148250000Y-52987500D03*
%TD*%
D15*
%TO.C,R1*%
X130750000Y-30990000D03*
X130750000Y-32010000D03*
%TD*%
D12*
%TO.C,C3*%
X151480000Y-37000000D03*
X150520000Y-37000000D03*
%TD*%
D13*
%TO.C,R7*%
X176000000Y-56760000D03*
X176000000Y-55740000D03*
%TD*%
D15*
%TO.C,R2*%
X174000000Y-90990000D03*
X174000000Y-92010000D03*
%TD*%
D13*
%TO.C,R3*%
X166000000Y-92010000D03*
X166000000Y-90990000D03*
%TD*%
%TO.C,R3*%
X136000000Y-77010000D03*
X136000000Y-75990000D03*
%TD*%
D14*
%TO.C,D1*%
X152500000Y-77787500D03*
X152500000Y-76212500D03*
%TD*%
D13*
%TO.C,R5*%
X138800000Y-63010000D03*
X138800000Y-61990000D03*
%TD*%
D12*
%TO.C,C1*%
X182230000Y-34175000D03*
X181270000Y-34175000D03*
%TD*%
D13*
%TO.C,R6*%
X132750000Y-56760000D03*
X132750000Y-55740000D03*
%TD*%
%TO.C,R3*%
X136000000Y-32010000D03*
X136000000Y-30990000D03*
%TD*%
D16*
%TO.C,U1*%
X117340000Y-31950000D03*
X117340000Y-32900000D03*
X117340000Y-33850000D03*
X119660000Y-33850000D03*
X119660000Y-32900000D03*
X119660000Y-31950000D03*
%TD*%
D12*
%TO.C,C1*%
X167230000Y-94175000D03*
X166270000Y-94175000D03*
%TD*%
D13*
%TO.C,R6*%
X177750000Y-86760000D03*
X177750000Y-85740000D03*
%TD*%
D12*
%TO.C,C3*%
X151480000Y-82000000D03*
X150520000Y-82000000D03*
%TD*%
%TO.C,C3*%
X181480000Y-82000000D03*
X180520000Y-82000000D03*
%TD*%
%TO.C,C2*%
X136480000Y-83000000D03*
X135520000Y-83000000D03*
%TD*%
%TO.C,C3*%
X121480000Y-37000000D03*
X120520000Y-37000000D03*
%TD*%
D15*
%TO.C,R1*%
X145750000Y-60990000D03*
X145750000Y-62010000D03*
%TD*%
%TO.C,R1*%
X160750000Y-45990000D03*
X160750000Y-47010000D03*
%TD*%
D12*
%TO.C,C1*%
X152230000Y-79175000D03*
X151270000Y-79175000D03*
%TD*%
D13*
%TO.C,R6*%
X147750000Y-56760000D03*
X147750000Y-55740000D03*
%TD*%
D10*
%TO.C,U2*%
X177737500Y-23000000D03*
X177737500Y-23500000D03*
X177737500Y-24000000D03*
X177737500Y-24500000D03*
D11*
X178250000Y-24512500D03*
X178750000Y-24512500D03*
D10*
X179262500Y-24500000D03*
X179262500Y-24000000D03*
X179262500Y-23500000D03*
X179262500Y-23000000D03*
D11*
X178750000Y-22987500D03*
X178250000Y-22987500D03*
%TD*%
D13*
%TO.C,R3*%
X166000000Y-32010000D03*
X166000000Y-30990000D03*
%TD*%
%TO.C,R6*%
X162750000Y-26760000D03*
X162750000Y-25740000D03*
%TD*%
D12*
%TO.C,C3*%
X151480000Y-22000000D03*
X150520000Y-22000000D03*
%TD*%
D10*
%TO.C,U2*%
X177737500Y-68000000D03*
X177737500Y-68500000D03*
X177737500Y-69000000D03*
X177737500Y-69500000D03*
D11*
X178250000Y-69512500D03*
X178750000Y-69512500D03*
D10*
X179262500Y-69500000D03*
X179262500Y-69000000D03*
X179262500Y-68500000D03*
X179262500Y-68000000D03*
D11*
X178750000Y-67987500D03*
X178250000Y-67987500D03*
%TD*%
D15*
%TO.C,R1*%
X175750000Y-90990000D03*
X175750000Y-92010000D03*
%TD*%
D13*
%TO.C,R6*%
X162750000Y-56760000D03*
X162750000Y-55740000D03*
%TD*%
D12*
%TO.C,C1*%
X122230000Y-34175000D03*
X121270000Y-34175000D03*
%TD*%
%TO.C,C1*%
X152230000Y-49175000D03*
X151270000Y-49175000D03*
%TD*%
D13*
%TO.C,R5*%
X138800000Y-48010000D03*
X138800000Y-46990000D03*
%TD*%
D10*
%TO.C,U2*%
X147737500Y-23000000D03*
X147737500Y-23500000D03*
X147737500Y-24000000D03*
X147737500Y-24500000D03*
D11*
X148250000Y-24512500D03*
X148750000Y-24512500D03*
D10*
X149262500Y-24500000D03*
X149262500Y-24000000D03*
X149262500Y-23500000D03*
X149262500Y-23000000D03*
D11*
X148750000Y-22987500D03*
X148250000Y-22987500D03*
%TD*%
D13*
%TO.C,R3*%
X181000000Y-32010000D03*
X181000000Y-30990000D03*
%TD*%
%TO.C,R3*%
X181000000Y-47010000D03*
X181000000Y-45990000D03*
%TD*%
%TO.C,R7*%
X116000000Y-86760000D03*
X116000000Y-85740000D03*
%TD*%
%TO.C,R5*%
X168800000Y-93010000D03*
X168800000Y-91990000D03*
%TD*%
D12*
%TO.C,C1*%
X182230000Y-49175000D03*
X181270000Y-49175000D03*
%TD*%
%TO.C,C3*%
X166480000Y-52000000D03*
X165520000Y-52000000D03*
%TD*%
%TO.C,C1*%
X167230000Y-34175000D03*
X166270000Y-34175000D03*
%TD*%
%TO.C,C3*%
X121480000Y-52000000D03*
X120520000Y-52000000D03*
%TD*%
D14*
%TO.C,D1*%
X182500000Y-92787500D03*
X182500000Y-91212500D03*
%TD*%
D13*
%TO.C,R3*%
X166000000Y-47010000D03*
X166000000Y-45990000D03*
%TD*%
D15*
%TO.C,R1*%
X175750000Y-45990000D03*
X175750000Y-47010000D03*
%TD*%
%TO.C,R1*%
X160750000Y-75990000D03*
X160750000Y-77010000D03*
%TD*%
D12*
%TO.C,C2*%
X151480000Y-53000000D03*
X150520000Y-53000000D03*
%TD*%
D14*
%TO.C,D1*%
X167500000Y-62787500D03*
X167500000Y-61212500D03*
%TD*%
D15*
%TO.C,R2*%
X114000000Y-90990000D03*
X114000000Y-92010000D03*
%TD*%
D13*
%TO.C,R6*%
X117750000Y-56760000D03*
X117750000Y-55740000D03*
%TD*%
D15*
%TO.C,R1*%
X175750000Y-30990000D03*
X175750000Y-32010000D03*
%TD*%
D13*
%TO.C,R5*%
X183800000Y-48010000D03*
X183800000Y-46990000D03*
%TD*%
D12*
%TO.C,C3*%
X166480000Y-82000000D03*
X165520000Y-82000000D03*
%TD*%
D13*
%TO.C,R3*%
X166000000Y-77010000D03*
X166000000Y-75990000D03*
%TD*%
%TO.C,R7*%
X116000000Y-71760000D03*
X116000000Y-70740000D03*
%TD*%
M02*
