%TF.GenerationSoftware,KiCad,Pcbnew,7.0.1*%
%TF.CreationDate,2025-01-22T18:11:29-05:00*%
%TF.ProjectId,TrackRingA-panel,54726163-6b52-4696-9e67-412d70616e65,rev?*%
%TF.SameCoordinates,Original*%
%TF.FileFunction,Soldermask,Bot*%
%TF.FilePolarity,Negative*%
%FSLAX46Y46*%
G04 Gerber Fmt 4.6, Leading zero omitted, Abs format (unit mm)*
G04 Created by KiCad (PCBNEW 7.0.1) date 2025-01-22 18:11:29*
%MOMM*%
%LPD*%
G01*
G04 APERTURE LIST*
%ADD10R,1.700000X1.700000*%
%ADD11O,1.700000X1.700000*%
G04 APERTURE END LIST*
D10*
%TO.C,J2*%
X119790000Y-25000000D03*
D11*
X122330000Y-25000000D03*
%TD*%
D10*
%TO.C,J2*%
X134790000Y-25000000D03*
D11*
X137330000Y-25000000D03*
%TD*%
D10*
%TO.C,J2*%
X134790000Y-40000000D03*
D11*
X137330000Y-40000000D03*
%TD*%
D10*
%TO.C,J2*%
X179790000Y-70000000D03*
D11*
X182330000Y-70000000D03*
%TD*%
D10*
%TO.C,J2*%
X164790000Y-40000000D03*
D11*
X167330000Y-40000000D03*
%TD*%
D10*
%TO.C,J2*%
X164790000Y-25000000D03*
D11*
X167330000Y-25000000D03*
%TD*%
D10*
%TO.C,J2*%
X119790000Y-40000000D03*
D11*
X122330000Y-40000000D03*
%TD*%
D10*
%TO.C,J2*%
X149790000Y-40000000D03*
D11*
X152330000Y-40000000D03*
%TD*%
D10*
%TO.C,J2*%
X179790000Y-25000000D03*
D11*
X182330000Y-25000000D03*
%TD*%
D10*
%TO.C,J2*%
X179790000Y-40000000D03*
D11*
X182330000Y-40000000D03*
%TD*%
D10*
%TO.C,J2*%
X164790000Y-70000000D03*
D11*
X167330000Y-70000000D03*
%TD*%
D10*
%TO.C,J2*%
X179790000Y-55000000D03*
D11*
X182330000Y-55000000D03*
%TD*%
D10*
%TO.C,J2*%
X119790000Y-85000000D03*
D11*
X122330000Y-85000000D03*
%TD*%
D10*
%TO.C,J2*%
X119790000Y-70000000D03*
D11*
X122330000Y-70000000D03*
%TD*%
D10*
%TO.C,J2*%
X149790000Y-25000000D03*
D11*
X152330000Y-25000000D03*
%TD*%
D10*
%TO.C,J2*%
X164790000Y-55000000D03*
D11*
X167330000Y-55000000D03*
%TD*%
D10*
%TO.C,J2*%
X149790000Y-55000000D03*
D11*
X152330000Y-55000000D03*
%TD*%
D10*
%TO.C,J2*%
X134790000Y-55000000D03*
D11*
X137330000Y-55000000D03*
%TD*%
D10*
%TO.C,J2*%
X134790000Y-70000000D03*
D11*
X137330000Y-70000000D03*
%TD*%
D10*
%TO.C,J2*%
X149790000Y-70000000D03*
D11*
X152330000Y-70000000D03*
%TD*%
D10*
%TO.C,J2*%
X164790000Y-85000000D03*
D11*
X167330000Y-85000000D03*
%TD*%
D10*
%TO.C,J2*%
X119790000Y-55000000D03*
D11*
X122330000Y-55000000D03*
%TD*%
D10*
%TO.C,J2*%
X179790000Y-85000000D03*
D11*
X182330000Y-85000000D03*
%TD*%
D10*
%TO.C,J2*%
X134790000Y-85000000D03*
D11*
X137330000Y-85000000D03*
%TD*%
D10*
%TO.C,J2*%
X149790000Y-85000000D03*
D11*
X152330000Y-85000000D03*
%TD*%
D10*
%TO.C,J1*%
X182350000Y-28650000D03*
D11*
X179810000Y-28650000D03*
X177270000Y-28650000D03*
X174730000Y-28650000D03*
%TD*%
D10*
%TO.C,J1*%
X122350000Y-28650000D03*
D11*
X119810000Y-28650000D03*
X117270000Y-28650000D03*
X114730000Y-28650000D03*
%TD*%
D10*
%TO.C,J1*%
X167350000Y-43650000D03*
D11*
X164810000Y-43650000D03*
X162270000Y-43650000D03*
X159730000Y-43650000D03*
%TD*%
D10*
%TO.C,J1*%
X137350000Y-28650000D03*
D11*
X134810000Y-28650000D03*
X132270000Y-28650000D03*
X129730000Y-28650000D03*
%TD*%
D10*
%TO.C,J1*%
X152350000Y-43650000D03*
D11*
X149810000Y-43650000D03*
X147270000Y-43650000D03*
X144730000Y-43650000D03*
%TD*%
D10*
%TO.C,J1*%
X167350000Y-28650000D03*
D11*
X164810000Y-28650000D03*
X162270000Y-28650000D03*
X159730000Y-28650000D03*
%TD*%
D10*
%TO.C,J1*%
X182350000Y-43650000D03*
D11*
X179810000Y-43650000D03*
X177270000Y-43650000D03*
X174730000Y-43650000D03*
%TD*%
D10*
%TO.C,J1*%
X167350000Y-73650000D03*
D11*
X164810000Y-73650000D03*
X162270000Y-73650000D03*
X159730000Y-73650000D03*
%TD*%
D10*
%TO.C,J1*%
X122350000Y-43650000D03*
D11*
X119810000Y-43650000D03*
X117270000Y-43650000D03*
X114730000Y-43650000D03*
%TD*%
D10*
%TO.C,J1*%
X167350000Y-58650000D03*
D11*
X164810000Y-58650000D03*
X162270000Y-58650000D03*
X159730000Y-58650000D03*
%TD*%
D10*
%TO.C,J1*%
X137350000Y-73650000D03*
D11*
X134810000Y-73650000D03*
X132270000Y-73650000D03*
X129730000Y-73650000D03*
%TD*%
D10*
%TO.C,J1*%
X122350000Y-73650000D03*
D11*
X119810000Y-73650000D03*
X117270000Y-73650000D03*
X114730000Y-73650000D03*
%TD*%
D10*
%TO.C,J1*%
X137350000Y-43650000D03*
D11*
X134810000Y-43650000D03*
X132270000Y-43650000D03*
X129730000Y-43650000D03*
%TD*%
D10*
%TO.C,J1*%
X182350000Y-58650000D03*
D11*
X179810000Y-58650000D03*
X177270000Y-58650000D03*
X174730000Y-58650000D03*
%TD*%
D10*
%TO.C,J1*%
X167350000Y-88650000D03*
D11*
X164810000Y-88650000D03*
X162270000Y-88650000D03*
X159730000Y-88650000D03*
%TD*%
D10*
%TO.C,J1*%
X182350000Y-73650000D03*
D11*
X179810000Y-73650000D03*
X177270000Y-73650000D03*
X174730000Y-73650000D03*
%TD*%
D10*
%TO.C,J1*%
X152350000Y-73650000D03*
D11*
X149810000Y-73650000D03*
X147270000Y-73650000D03*
X144730000Y-73650000D03*
%TD*%
D10*
%TO.C,J1*%
X122350000Y-58650000D03*
D11*
X119810000Y-58650000D03*
X117270000Y-58650000D03*
X114730000Y-58650000D03*
%TD*%
D10*
%TO.C,J1*%
X137350000Y-58650000D03*
D11*
X134810000Y-58650000D03*
X132270000Y-58650000D03*
X129730000Y-58650000D03*
%TD*%
D10*
%TO.C,J1*%
X152350000Y-58650000D03*
D11*
X149810000Y-58650000D03*
X147270000Y-58650000D03*
X144730000Y-58650000D03*
%TD*%
D10*
%TO.C,J1*%
X182350000Y-88650000D03*
D11*
X179810000Y-88650000D03*
X177270000Y-88650000D03*
X174730000Y-88650000D03*
%TD*%
D10*
%TO.C,J1*%
X137350000Y-88650000D03*
D11*
X134810000Y-88650000D03*
X132270000Y-88650000D03*
X129730000Y-88650000D03*
%TD*%
D10*
%TO.C,J1*%
X152350000Y-28650000D03*
D11*
X149810000Y-28650000D03*
X147270000Y-28650000D03*
X144730000Y-28650000D03*
%TD*%
D10*
%TO.C,J1*%
X122350000Y-88650000D03*
D11*
X119810000Y-88650000D03*
X117270000Y-88650000D03*
X114730000Y-88650000D03*
%TD*%
D10*
%TO.C,J1*%
X152350000Y-88650000D03*
D11*
X149810000Y-88650000D03*
X147270000Y-88650000D03*
X144730000Y-88650000D03*
%TD*%
M02*
