M48
; DRILL file {KiCad 7.0.1} date Thu Jan 23 23:43:00 2025
; FORMAT={-:-/ absolute / inch / decimal}
; #@! TF.CreationDate,2025-01-23T23:43:00-05:00
; #@! TF.GenerationSoftware,Kicad,Pcbnew,7.0.1
; #@! TF.FileFunction,Plated,1,2,PTH
FMAT,2
INCH
; #@! TA.AperFunction,Plated,PTH,ViaDrill
T1C0.0157
; #@! TA.AperFunction,Plated,PTH,ComponentDrill
T2C0.0394
%
G90
G05
T1
X1.2697Y-1.7421
X1.2697Y-2.3327
X1.2697Y-2.9232
X1.2697Y-3.5138
X1.2697Y-4.1043
X1.4066Y-1.742
X1.4066Y-2.3326
X1.4066Y-2.9231
X1.4066Y-3.5137
X1.4066Y-4.1042
X1.407Y-1.6556
X1.407Y-2.2461
X1.407Y-2.8367
X1.407Y-3.4272
X1.407Y-4.0178
X1.4158Y-1.6972
X1.4158Y-2.2878
X1.4158Y-2.8783
X1.4158Y-3.4689
X1.4158Y-4.0594
X1.4469Y-1.2854
X1.4469Y-1.876
X1.4469Y-2.4665
X1.4469Y-3.0571
X1.4469Y-3.6476
X1.5022Y-1.7004
X1.5022Y-2.2909
X1.5022Y-2.8815
X1.5022Y-3.4721
X1.5022Y-4.0626
X1.5945Y-1.749
X1.5945Y-2.3396
X1.5945Y-2.9301
X1.5945Y-3.5207
X1.5945Y-4.1112
X1.6161Y-1.624
X1.6161Y-2.2146
X1.6161Y-2.8051
X1.6161Y-3.3957
X1.6161Y-3.9862
X1.8602Y-1.7421
X1.8602Y-2.3327
X1.8602Y-2.9232
X1.8602Y-3.5138
X1.8602Y-4.1043
X1.9972Y-1.742
X1.9972Y-2.3326
X1.9972Y-2.9231
X1.9972Y-3.5137
X1.9972Y-4.1042
X1.9975Y-1.6556
X1.9975Y-2.2461
X1.9975Y-2.8367
X1.9975Y-3.4272
X1.9975Y-4.0178
X2.0063Y-1.6972
X2.0063Y-2.2878
X2.0063Y-2.8783
X2.0063Y-3.4689
X2.0063Y-4.0594
X2.0374Y-1.2854
X2.0374Y-1.876
X2.0374Y-2.4665
X2.0374Y-3.0571
X2.0374Y-3.6476
X2.0927Y-1.7004
X2.0927Y-2.2909
X2.0927Y-2.8815
X2.0927Y-3.4721
X2.0927Y-4.0626
X2.185Y-1.749
X2.185Y-2.3396
X2.185Y-2.9301
X2.185Y-3.5207
X2.185Y-4.1112
X2.2067Y-1.624
X2.2067Y-2.2146
X2.2067Y-2.8051
X2.2067Y-3.3957
X2.2067Y-3.9862
X2.4508Y-1.7421
X2.4508Y-2.3327
X2.4508Y-2.9232
X2.4508Y-3.5138
X2.4508Y-4.1043
X2.5877Y-1.742
X2.5877Y-2.3326
X2.5877Y-2.9231
X2.5877Y-3.5137
X2.5877Y-4.1042
X2.5881Y-1.6556
X2.5881Y-2.2461
X2.5881Y-2.8367
X2.5881Y-3.4272
X2.5881Y-4.0178
X2.5969Y-1.6972
X2.5969Y-2.2878
X2.5969Y-2.8783
X2.5969Y-3.4689
X2.5969Y-4.0594
X2.628Y-1.2854
X2.628Y-1.876
X2.628Y-2.4665
X2.628Y-3.0571
X2.628Y-3.6476
X2.6833Y-1.7004
X2.6833Y-2.2909
X2.6833Y-2.8815
X2.6833Y-3.4721
X2.6833Y-4.0626
X2.7756Y-1.749
X2.7756Y-2.3396
X2.7756Y-2.9301
X2.7756Y-3.5207
X2.7756Y-4.1112
X2.7972Y-1.624
X2.7972Y-2.2146
X2.7972Y-2.8051
X2.7972Y-3.3957
X2.7972Y-3.9862
X3.0413Y-1.7421
X3.0413Y-2.3327
X3.0413Y-2.9232
X3.0413Y-3.5138
X3.0413Y-4.1043
X3.1783Y-1.742
X3.1783Y-2.3326
X3.1783Y-2.9231
X3.1783Y-3.5137
X3.1783Y-4.1042
X3.1786Y-1.6556
X3.1786Y-2.2461
X3.1786Y-2.8367
X3.1786Y-3.4272
X3.1786Y-4.0178
X3.1874Y-1.6972
X3.1874Y-2.2878
X3.1874Y-2.8783
X3.1874Y-3.4689
X3.1874Y-4.0594
X3.2185Y-1.2854
X3.2185Y-1.876
X3.2185Y-2.4665
X3.2185Y-3.0571
X3.2185Y-3.6476
X3.2738Y-1.7004
X3.2738Y-2.2909
X3.2738Y-2.8815
X3.2738Y-3.4721
X3.2738Y-4.0626
X3.3661Y-1.749
X3.3661Y-2.3396
X3.3661Y-2.9301
X3.3661Y-3.5207
X3.3661Y-4.1112
X3.3878Y-1.624
X3.3878Y-2.2146
X3.3878Y-2.8051
X3.3878Y-3.3957
X3.3878Y-3.9862
X3.6319Y-1.7421
X3.6319Y-2.3327
X3.6319Y-2.9232
X3.6319Y-3.5138
X3.6319Y-4.1043
X3.7688Y-1.742
X3.7688Y-2.3326
X3.7688Y-2.9231
X3.7688Y-3.5137
X3.7688Y-4.1042
X3.7692Y-1.6556
X3.7692Y-2.2461
X3.7692Y-2.8367
X3.7692Y-3.4272
X3.7692Y-4.0178
X3.778Y-1.6972
X3.778Y-2.2878
X3.778Y-2.8783
X3.778Y-3.4689
X3.778Y-4.0594
X3.8091Y-1.2854
X3.8091Y-1.876
X3.8091Y-2.4665
X3.8091Y-3.0571
X3.8091Y-3.6476
X3.8644Y-1.7004
X3.8644Y-2.2909
X3.8644Y-2.8815
X3.8644Y-3.4721
X3.8644Y-4.0626
X3.9567Y-1.749
X3.9567Y-2.3396
X3.9567Y-2.9301
X3.9567Y-3.5207
X3.9567Y-4.1112
X3.9783Y-1.624
X3.9783Y-2.2146
X3.9783Y-2.8051
X3.9783Y-3.3957
X3.9783Y-3.9862
X5.2354Y-2.5453
X5.2906Y-2.6331
X5.3594Y-2.6232
X5.3604Y-2.6626
X5.5608Y-2.751
X5.568Y-2.6298
X5.6233Y-2.813
X5.6241Y-2.6544
X5.6353Y-2.7416
X5.7217Y-1.7776
X5.7768Y-3.4213
X5.7768Y-3.5984
T2
X1.2591Y-1.5315
X1.2591Y-2.122
X1.2591Y-2.7126
X1.2591Y-3.3031
X1.2591Y-3.8937
X1.3591Y-1.5315
X1.3591Y-2.122
X1.3591Y-2.7126
X1.3591Y-3.3031
X1.3591Y-3.8937
X1.4583Y-1.3878
X1.4583Y-1.9783
X1.4583Y-2.5689
X1.4583Y-3.1594
X1.4583Y-3.75
X1.4591Y-1.5315
X1.4591Y-2.122
X1.4591Y-2.7126
X1.4591Y-3.3031
X1.4591Y-3.8937
X1.5583Y-1.3878
X1.5583Y-1.9783
X1.5583Y-2.5689
X1.5583Y-3.1594
X1.5583Y-3.75
X1.5591Y-1.5315
X1.5591Y-2.122
X1.5591Y-2.7126
X1.5591Y-3.3031
X1.5591Y-3.8937
X1.8496Y-1.5315
X1.8496Y-2.122
X1.8496Y-2.7126
X1.8496Y-3.3031
X1.8496Y-3.8937
X1.9496Y-1.5315
X1.9496Y-2.122
X1.9496Y-2.7126
X1.9496Y-3.3031
X1.9496Y-3.8937
X2.0488Y-1.3878
X2.0488Y-1.9783
X2.0488Y-2.5689
X2.0488Y-3.1594
X2.0488Y-3.75
X2.0496Y-1.5315
X2.0496Y-2.122
X2.0496Y-2.7126
X2.0496Y-3.3031
X2.0496Y-3.8937
X2.1488Y-1.3878
X2.1488Y-1.9783
X2.1488Y-2.5689
X2.1488Y-3.1594
X2.1488Y-3.75
X2.1496Y-1.5315
X2.1496Y-2.122
X2.1496Y-2.7126
X2.1496Y-3.3031
X2.1496Y-3.8937
X2.4402Y-1.5315
X2.4402Y-2.122
X2.4402Y-2.7126
X2.4402Y-3.3031
X2.4402Y-3.8937
X2.5402Y-1.5315
X2.5402Y-2.122
X2.5402Y-2.7126
X2.5402Y-3.3031
X2.5402Y-3.8937
X2.6394Y-1.3878
X2.6394Y-1.9783
X2.6394Y-2.5689
X2.6394Y-3.1594
X2.6394Y-3.75
X2.6402Y-1.5315
X2.6402Y-2.122
X2.6402Y-2.7126
X2.6402Y-3.3031
X2.6402Y-3.8937
X2.7394Y-1.3878
X2.7394Y-1.9783
X2.7394Y-2.5689
X2.7394Y-3.1594
X2.7394Y-3.75
X2.7402Y-1.5315
X2.7402Y-2.122
X2.7402Y-2.7126
X2.7402Y-3.3031
X2.7402Y-3.8937
X3.0307Y-1.5315
X3.0307Y-2.122
X3.0307Y-2.7126
X3.0307Y-3.3031
X3.0307Y-3.8937
X3.1307Y-1.5315
X3.1307Y-2.122
X3.1307Y-2.7126
X3.1307Y-3.3031
X3.1307Y-3.8937
X3.2299Y-1.3878
X3.2299Y-1.9783
X3.2299Y-2.5689
X3.2299Y-3.1594
X3.2299Y-3.75
X3.2307Y-1.5315
X3.2307Y-2.122
X3.2307Y-2.7126
X3.2307Y-3.3031
X3.2307Y-3.8937
X3.3299Y-1.3878
X3.3299Y-1.9783
X3.3299Y-2.5689
X3.3299Y-3.1594
X3.3299Y-3.75
X3.3307Y-1.5315
X3.3307Y-2.122
X3.3307Y-2.7126
X3.3307Y-3.3031
X3.3307Y-3.8937
X3.6213Y-1.5315
X3.6213Y-2.122
X3.6213Y-2.7126
X3.6213Y-3.3031
X3.6213Y-3.8937
X3.7213Y-1.5315
X3.7213Y-2.122
X3.7213Y-2.7126
X3.7213Y-3.3031
X3.7213Y-3.8937
X3.8205Y-1.3878
X3.8205Y-1.9783
X3.8205Y-2.5689
X3.8205Y-3.1594
X3.8205Y-3.75
X3.8213Y-1.5315
X3.8213Y-2.122
X3.8213Y-2.7126
X3.8213Y-3.3031
X3.8213Y-3.8937
X3.9205Y-1.3878
X3.9205Y-1.9783
X3.9205Y-2.5689
X3.9205Y-3.1594
X3.9205Y-3.75
X3.9213Y-1.5315
X3.9213Y-2.122
X3.9213Y-2.7126
X3.9213Y-3.3031
X3.9213Y-3.8937
X5.2906Y-2.003
X5.2906Y-2.1555
X5.2906Y-2.2555
X5.2906Y-2.3555
X5.2906Y-2.4555
X5.2906Y-2.9185
X5.2906Y-3.0185
X5.2906Y-3.1185
X5.2906Y-3.2185
X5.2906Y-3.3661
X5.3906Y-2.003
X5.3906Y-3.3661
X5.4382Y-2.1555
X5.4382Y-2.2555
X5.4382Y-2.3555
X5.4382Y-2.4555
X5.4382Y-2.9185
X5.4382Y-3.0185
X5.4382Y-3.1185
X5.4382Y-3.2185
X5.4906Y-2.003
X5.4906Y-3.3661
X5.5858Y-2.1555
X5.5858Y-2.2555
X5.5858Y-2.3555
X5.5858Y-2.4555
X5.5858Y-2.9185
X5.5858Y-3.0185
X5.5858Y-3.1185
X5.5858Y-3.2185
X5.5906Y-2.003
X5.5906Y-3.3661
X5.7335Y-2.1555
X5.7335Y-2.2555
X5.7335Y-2.3555
X5.7335Y-2.4555
X5.7335Y-2.9185
X5.7335Y-3.0185
X5.7335Y-3.1185
X5.7335Y-3.2185
T0
M30
