%TF.GenerationSoftware,KiCad,Pcbnew,7.0.1*%
%TF.CreationDate,2025-01-23T23:42:58-05:00*%
%TF.ProjectId,Combined_Stencil2,436f6d62-696e-4656-945f-5374656e6369,rev?*%
%TF.SameCoordinates,Original*%
%TF.FileFunction,Copper,L1,Top*%
%TF.FilePolarity,Positive*%
%FSLAX46Y46*%
G04 Gerber Fmt 4.6, Leading zero omitted, Abs format (unit mm)*
G04 Created by KiCad (PCBNEW 7.0.1) date 2025-01-23 23:42:58*
%MOMM*%
%LPD*%
G01*
G04 APERTURE LIST*
G04 Aperture macros list*
%AMRoundRect*
0 Rectangle with rounded corners*
0 $1 Rounding radius*
0 $2 $3 $4 $5 $6 $7 $8 $9 X,Y pos of 4 corners*
0 Add a 4 corners polygon primitive as box body*
4,1,4,$2,$3,$4,$5,$6,$7,$8,$9,$2,$3,0*
0 Add four circle primitives for the rounded corners*
1,1,$1+$1,$2,$3*
1,1,$1+$1,$4,$5*
1,1,$1+$1,$6,$7*
1,1,$1+$1,$8,$9*
0 Add four rect primitives between the rounded corners*
20,1,$1+$1,$2,$3,$4,$5,0*
20,1,$1+$1,$4,$5,$6,$7,0*
20,1,$1+$1,$6,$7,$8,$9,0*
20,1,$1+$1,$8,$9,$2,$3,0*%
%AMFreePoly0*
4,1,19,0.500000,-0.750000,0.000000,-0.750000,0.000000,-0.744911,-0.071157,-0.744911,-0.207708,-0.704816,-0.327430,-0.627875,-0.420627,-0.520320,-0.479746,-0.390866,-0.500000,-0.250000,-0.500000,0.250000,-0.479746,0.390866,-0.420627,0.520320,-0.327430,0.627875,-0.207708,0.704816,-0.071157,0.744911,0.000000,0.744911,0.000000,0.750000,0.500000,0.750000,0.500000,-0.750000,0.500000,-0.750000,
$1*%
%AMFreePoly1*
4,1,19,0.000000,0.744911,0.071157,0.744911,0.207708,0.704816,0.327430,0.627875,0.420627,0.520320,0.479746,0.390866,0.500000,0.250000,0.500000,-0.250000,0.479746,-0.390866,0.420627,-0.520320,0.327430,-0.627875,0.207708,-0.704816,0.071157,-0.744911,0.000000,-0.744911,0.000000,-0.750000,-0.500000,-0.750000,-0.500000,0.750000,0.000000,0.750000,0.000000,0.744911,0.000000,0.744911,
$1*%
G04 Aperture macros list end*
%TA.AperFunction,ComponentPad*%
%ADD10R,1.700000X1.700000*%
%TD*%
%TA.AperFunction,ComponentPad*%
%ADD11O,1.700000X1.700000*%
%TD*%
%TA.AperFunction,SMDPad,CuDef*%
%ADD12FreePoly0,180.000000*%
%TD*%
%TA.AperFunction,SMDPad,CuDef*%
%ADD13FreePoly1,180.000000*%
%TD*%
%TA.AperFunction,SMDPad,CuDef*%
%ADD14RoundRect,0.135000X-0.135000X-0.185000X0.135000X-0.185000X0.135000X0.185000X-0.135000X0.185000X0*%
%TD*%
%TA.AperFunction,SMDPad,CuDef*%
%ADD15RoundRect,0.140000X-0.140000X-0.170000X0.140000X-0.170000X0.140000X0.170000X-0.140000X0.170000X0*%
%TD*%
%TA.AperFunction,SMDPad,CuDef*%
%ADD16RoundRect,0.135000X0.135000X0.185000X-0.135000X0.185000X-0.135000X-0.185000X0.135000X-0.185000X0*%
%TD*%
%TA.AperFunction,SMDPad,CuDef*%
%ADD17RoundRect,0.218750X-0.256250X0.218750X-0.256250X-0.218750X0.256250X-0.218750X0.256250X0.218750X0*%
%TD*%
%TA.AperFunction,SMDPad,CuDef*%
%ADD18RoundRect,0.100000X0.100000X-0.637500X0.100000X0.637500X-0.100000X0.637500X-0.100000X-0.637500X0*%
%TD*%
%TA.AperFunction,SMDPad,CuDef*%
%ADD19RoundRect,0.140000X-0.170000X0.140000X-0.170000X-0.140000X0.170000X-0.140000X0.170000X0.140000X0*%
%TD*%
%TA.AperFunction,SMDPad,CuDef*%
%ADD20R,0.400000X0.650000*%
%TD*%
%TA.AperFunction,SMDPad,CuDef*%
%ADD21RoundRect,0.135000X0.185000X-0.135000X0.185000X0.135000X-0.185000X0.135000X-0.185000X-0.135000X0*%
%TD*%
%TA.AperFunction,SMDPad,CuDef*%
%ADD22RoundRect,0.140000X0.140000X0.170000X-0.140000X0.170000X-0.140000X-0.170000X0.140000X-0.170000X0*%
%TD*%
%TA.AperFunction,SMDPad,CuDef*%
%ADD23RoundRect,0.135000X-0.185000X0.135000X-0.185000X-0.135000X0.185000X-0.135000X0.185000X0.135000X0*%
%TD*%
%TA.AperFunction,SMDPad,CuDef*%
%ADD24R,0.375000X0.350000*%
%TD*%
%TA.AperFunction,SMDPad,CuDef*%
%ADD25R,0.350000X0.375000*%
%TD*%
%TA.AperFunction,SMDPad,CuDef*%
%ADD26R,0.700000X0.510000*%
%TD*%
%TA.AperFunction,SMDPad,CuDef*%
%ADD27RoundRect,0.218750X0.256250X-0.218750X0.256250X0.218750X-0.256250X0.218750X-0.256250X-0.218750X0*%
%TD*%
%TA.AperFunction,ViaPad*%
%ADD28C,0.800000*%
%TD*%
%TA.AperFunction,Conductor*%
%ADD29C,0.250000*%
%TD*%
G04 APERTURE END LIST*
D10*
%TO.P,J4,1,Pin_1*%
%TO.N,N/C*%
X141880000Y-81750000D03*
D11*
%TO.P,J4,2,Pin_2*%
X141880000Y-79210000D03*
%TO.P,J4,3,Pin_3*%
X141880000Y-76670000D03*
%TO.P,J4,4,Pin_4*%
X141880000Y-74130000D03*
%TD*%
D12*
%TO.P,JP1,1,A*%
%TO.N,N/C*%
X146380000Y-70750000D03*
D13*
%TO.P,JP1,2,B*%
X145080000Y-70750000D03*
%TD*%
D14*
%TO.P,R7,1*%
%TO.N,N/C*%
X142470000Y-70750000D03*
%TO.P,R7,2*%
X143490000Y-70750000D03*
%TD*%
%TO.P,R6,1*%
%TO.N,N/C*%
X142480000Y-68250000D03*
%TO.P,R6,2*%
X143500000Y-68250000D03*
%TD*%
D15*
%TO.P,C2,1*%
%TO.N,N/C*%
X144900000Y-86880000D03*
%TO.P,C2,2*%
X145860000Y-86880000D03*
%TD*%
D10*
%TO.P,J10,1,Pin_1*%
%TO.N,N/C*%
X134380000Y-50875000D03*
D11*
%TO.P,J10,2,Pin_2*%
X136920000Y-50875000D03*
%TO.P,J10,3,Pin_3*%
X139460000Y-50875000D03*
%TO.P,J10,4,Pin_4*%
X142000000Y-50875000D03*
%TD*%
D10*
%TO.P,J6,1,Pin_1*%
%TO.N,N/C*%
X145630000Y-54750000D03*
D11*
%TO.P,J6,2,Pin_2*%
X145630000Y-57290000D03*
%TO.P,J6,3,Pin_3*%
X145630000Y-59830000D03*
%TO.P,J6,4,Pin_4*%
X145630000Y-62370000D03*
%TD*%
D10*
%TO.P,J9,1,Pin_1*%
%TO.N,N/C*%
X134380000Y-54750000D03*
D11*
%TO.P,J9,2,Pin_2*%
X134380000Y-57290000D03*
%TO.P,J9,3,Pin_3*%
X134380000Y-59830000D03*
%TO.P,J9,4,Pin_4*%
X134380000Y-62370000D03*
%TD*%
D16*
%TO.P,R1,1*%
%TO.N,N/C*%
X145900000Y-85630000D03*
%TO.P,R1,2*%
X144880000Y-85630000D03*
%TD*%
D10*
%TO.P,J1,1,Pin_1*%
%TO.N,N/C*%
X134380000Y-85500000D03*
D11*
%TO.P,J1,2,Pin_2*%
X136920000Y-85500000D03*
%TO.P,J1,3,Pin_3*%
X139460000Y-85500000D03*
%TO.P,J1,4,Pin_4*%
X142000000Y-85500000D03*
%TD*%
D12*
%TO.P,JP3,1,A*%
%TO.N,N/C*%
X146380000Y-65750000D03*
D13*
%TO.P,JP3,2,B*%
X145080000Y-65750000D03*
%TD*%
D12*
%TO.P,JP2,1,A*%
%TO.N,N/C*%
X146380000Y-68250000D03*
D13*
%TO.P,JP2,2,B*%
X145080000Y-68250000D03*
%TD*%
D17*
%TO.P,D1,1,K*%
%TO.N,N/C*%
X145480000Y-48342500D03*
%TO.P,D1,2,A*%
X145480000Y-49917500D03*
%TD*%
D18*
%TO.P,U6,1,A0*%
%TO.N,N/C*%
X134155000Y-71112500D03*
%TO.P,U6,2,A1*%
X134805000Y-71112500D03*
%TO.P,U6,3,~{RESET}*%
X135455000Y-71112500D03*
%TO.P,U6,4,SD0*%
X136105000Y-71112500D03*
%TO.P,U6,5,SC0*%
X136755000Y-71112500D03*
%TO.P,U6,6,SD1*%
X137405000Y-71112500D03*
%TO.P,U6,7,SC1*%
X138055000Y-71112500D03*
%TO.P,U6,8,SD2*%
X138705000Y-71112500D03*
%TO.P,U6,9,SC2*%
X139355000Y-71112500D03*
%TO.P,U6,10,SD3*%
X140005000Y-71112500D03*
%TO.P,U6,11,SC3*%
X140655000Y-71112500D03*
%TO.P,U6,12,GND*%
X141305000Y-71112500D03*
%TO.P,U6,13,SD4*%
X141305000Y-65387500D03*
%TO.P,U6,14,SC4*%
X140655000Y-65387500D03*
%TO.P,U6,15,SD5*%
X140005000Y-65387500D03*
%TO.P,U6,16,SC5*%
X139355000Y-65387500D03*
%TO.P,U6,17,SD6*%
X138705000Y-65387500D03*
%TO.P,U6,18,SC6*%
X138055000Y-65387500D03*
%TO.P,U6,19,SD7*%
X137405000Y-65387500D03*
%TO.P,U6,20,SC7*%
X136755000Y-65387500D03*
%TO.P,U6,21,A2*%
X136105000Y-65387500D03*
%TO.P,U6,22,SCL*%
X135455000Y-65387500D03*
%TO.P,U6,23,SDA*%
X134805000Y-65387500D03*
%TO.P,U6,24,VCC*%
X134155000Y-65387500D03*
%TD*%
D10*
%TO.P,J3,1,Pin_1*%
%TO.N,N/C*%
X138130000Y-81750000D03*
D11*
%TO.P,J3,2,Pin_2*%
X138130000Y-79210000D03*
%TO.P,J3,3,Pin_3*%
X138130000Y-76670000D03*
%TO.P,J3,4,Pin_4*%
X138130000Y-74130000D03*
%TD*%
D15*
%TO.P,C1,1*%
%TO.N,N/C*%
X144920000Y-91380000D03*
%TO.P,C1,2*%
X145880000Y-91380000D03*
%TD*%
D10*
%TO.P,J2,1,Pin_1*%
%TO.N,N/C*%
X134380000Y-81750000D03*
D11*
%TO.P,J2,2,Pin_2*%
X134380000Y-79210000D03*
%TO.P,J2,3,Pin_3*%
X134380000Y-76670000D03*
%TO.P,J2,4,Pin_4*%
X134380000Y-74130000D03*
%TD*%
D14*
%TO.P,R5,1*%
%TO.N,N/C*%
X142480000Y-65750000D03*
%TO.P,R5,2*%
X143500000Y-65750000D03*
%TD*%
D19*
%TO.P,C5,1*%
%TO.N,N/C*%
X132880000Y-65400000D03*
%TO.P,C5,2*%
X132880000Y-66360000D03*
%TD*%
D10*
%TO.P,J7,1,Pin_1*%
%TO.N,N/C*%
X141880000Y-54750000D03*
D11*
%TO.P,J7,2,Pin_2*%
X141880000Y-57290000D03*
%TO.P,J7,3,Pin_3*%
X141880000Y-59830000D03*
%TO.P,J7,4,Pin_4*%
X141880000Y-62370000D03*
%TD*%
D16*
%TO.P,R2,1*%
%TO.N,N/C*%
X145900000Y-84380000D03*
%TO.P,R2,2*%
X144880000Y-84380000D03*
%TD*%
D10*
%TO.P,J5,1,Pin_1*%
%TO.N,N/C*%
X145630000Y-81750000D03*
D11*
%TO.P,J5,2,Pin_2*%
X145630000Y-79210000D03*
%TO.P,J5,3,Pin_3*%
X145630000Y-76670000D03*
%TO.P,J5,4,Pin_4*%
X145630000Y-74130000D03*
%TD*%
D20*
%TO.P,U2,1,VIN*%
%TO.N,N/C*%
X145230000Y-90080000D03*
%TO.P,U2,2,GND*%
X145880000Y-90080000D03*
%TO.P,U2,3,EN*%
X146530000Y-90080000D03*
%TO.P,U2,4,NC*%
X146530000Y-88180000D03*
%TO.P,U2,5,VOUT*%
X145230000Y-88180000D03*
%TD*%
D10*
%TO.P,J8,1,Pin_1*%
%TO.N,N/C*%
X138130000Y-54750000D03*
D11*
%TO.P,J8,2,Pin_2*%
X138130000Y-57290000D03*
%TO.P,J8,3,Pin_3*%
X138130000Y-59830000D03*
%TO.P,J8,4,Pin_4*%
X138130000Y-62370000D03*
%TD*%
D21*
%TO.P,R3,1*%
%TO.N,N/C*%
X145480000Y-46910000D03*
%TO.P,R3,2*%
X145480000Y-45890000D03*
%TD*%
D10*
%TO.P,J1,1,Pin_1*%
%TO.N,N/C*%
X54600000Y-53900000D03*
D11*
%TO.P,J1,2,Pin_2*%
X52060000Y-53900000D03*
%TO.P,J1,3,Pin_3*%
X49520000Y-53900000D03*
%TO.P,J1,4,Pin_4*%
X46980000Y-53900000D03*
%TD*%
D10*
%TO.P,J1,1,Pin_1*%
%TO.N,N/C*%
X69600000Y-98900000D03*
D11*
%TO.P,J1,2,Pin_2*%
X67060000Y-98900000D03*
%TO.P,J1,3,Pin_3*%
X64520000Y-98900000D03*
%TO.P,J1,4,Pin_4*%
X61980000Y-98900000D03*
%TD*%
D10*
%TO.P,J1,1,Pin_1*%
%TO.N,N/C*%
X99600000Y-53900000D03*
D11*
%TO.P,J1,2,Pin_2*%
X97060000Y-53900000D03*
%TO.P,J1,3,Pin_3*%
X94520000Y-53900000D03*
%TO.P,J1,4,Pin_4*%
X91980000Y-53900000D03*
%TD*%
D21*
%TO.P,R4,1*%
%TO.N,N/C*%
X61260000Y-89260000D03*
%TO.P,R4,2*%
X61260000Y-88240000D03*
%TD*%
D22*
%TO.P,C2,1*%
%TO.N,N/C*%
X96030000Y-92650000D03*
%TO.P,C2,2*%
X95070000Y-92650000D03*
%TD*%
D10*
%TO.P,J1,1,Pin_1*%
%TO.N,N/C*%
X39600000Y-53900000D03*
D11*
%TO.P,J1,2,Pin_2*%
X37060000Y-53900000D03*
%TO.P,J1,3,Pin_3*%
X34520000Y-53900000D03*
%TO.P,J1,4,Pin_4*%
X31980000Y-53900000D03*
%TD*%
D10*
%TO.P,J1,1,Pin_1*%
%TO.N,N/C*%
X69600000Y-83900000D03*
D11*
%TO.P,J1,2,Pin_2*%
X67060000Y-83900000D03*
%TO.P,J1,3,Pin_3*%
X64520000Y-83900000D03*
%TO.P,J1,4,Pin_4*%
X61980000Y-83900000D03*
%TD*%
D21*
%TO.P,R4,1*%
%TO.N,N/C*%
X46260000Y-89260000D03*
%TO.P,R4,2*%
X46260000Y-88240000D03*
%TD*%
D10*
%TO.P,J1,1,Pin_1*%
%TO.N,N/C*%
X39600000Y-83900000D03*
D11*
%TO.P,J1,2,Pin_2*%
X37060000Y-83900000D03*
%TO.P,J1,3,Pin_3*%
X34520000Y-83900000D03*
%TO.P,J1,4,Pin_4*%
X31980000Y-83900000D03*
%TD*%
D23*
%TO.P,R2,1*%
%TO.N,N/C*%
X91250000Y-101240000D03*
%TO.P,R2,2*%
X91250000Y-102260000D03*
%TD*%
D21*
%TO.P,R6,1*%
%TO.N,N/C*%
X64500000Y-81510000D03*
%TO.P,R6,2*%
X64500000Y-80490000D03*
%TD*%
D23*
%TO.P,R2,1*%
%TO.N,N/C*%
X61250000Y-56240000D03*
%TO.P,R2,2*%
X61250000Y-57260000D03*
%TD*%
D24*
%TO.P,U2,1,SCL/SPC*%
%TO.N,N/C*%
X32487500Y-62250000D03*
%TO.P,U2,2,~{CS}*%
X32487500Y-62750000D03*
%TO.P,U2,3,SDO/SA0*%
X32487500Y-63250000D03*
%TO.P,U2,4,SDA/SDI/SDO*%
X32487500Y-63750000D03*
D25*
%TO.P,U2,5,NC*%
X33000000Y-63762500D03*
%TO.P,U2,6,GND*%
X33500000Y-63762500D03*
D24*
%TO.P,U2,7,RES*%
X34012500Y-63750000D03*
%TO.P,U2,8,GND*%
X34012500Y-63250000D03*
%TO.P,U2,9,Vdd*%
X34012500Y-62750000D03*
%TO.P,U2,10,Vdd_IO*%
X34012500Y-62250000D03*
D25*
%TO.P,U2,11,INT2*%
X33500000Y-62237500D03*
%TO.P,U2,12,INT1*%
X33000000Y-62237500D03*
%TD*%
D22*
%TO.P,C1,1*%
%TO.N,N/C*%
X54480000Y-104425000D03*
%TO.P,C1,2*%
X53520000Y-104425000D03*
%TD*%
D24*
%TO.P,U2,1,SCL/SPC*%
%TO.N,N/C*%
X32487500Y-32250000D03*
%TO.P,U2,2,~{CS}*%
X32487500Y-32750000D03*
%TO.P,U2,3,SDO/SA0*%
X32487500Y-33250000D03*
%TO.P,U2,4,SDA/SDI/SDO*%
X32487500Y-33750000D03*
D25*
%TO.P,U2,5,NC*%
X33000000Y-33762500D03*
%TO.P,U2,6,GND*%
X33500000Y-33762500D03*
D24*
%TO.P,U2,7,RES*%
X34012500Y-33750000D03*
%TO.P,U2,8,GND*%
X34012500Y-33250000D03*
%TO.P,U2,9,Vdd*%
X34012500Y-32750000D03*
%TO.P,U2,10,Vdd_IO*%
X34012500Y-32250000D03*
D25*
%TO.P,U2,11,INT2*%
X33500000Y-32237500D03*
%TO.P,U2,12,INT1*%
X33000000Y-32237500D03*
%TD*%
D22*
%TO.P,C2,1*%
%TO.N,N/C*%
X66030000Y-92650000D03*
%TO.P,C2,2*%
X65070000Y-92650000D03*
%TD*%
D21*
%TO.P,R5,1*%
%TO.N,N/C*%
X86050000Y-43260000D03*
%TO.P,R5,2*%
X86050000Y-42240000D03*
%TD*%
D24*
%TO.P,U2,1,SCL/SPC*%
%TO.N,N/C*%
X32487500Y-47250000D03*
%TO.P,U2,2,~{CS}*%
X32487500Y-47750000D03*
%TO.P,U2,3,SDO/SA0*%
X32487500Y-48250000D03*
%TO.P,U2,4,SDA/SDI/SDO*%
X32487500Y-48750000D03*
D25*
%TO.P,U2,5,NC*%
X33000000Y-48762500D03*
%TO.P,U2,6,GND*%
X33500000Y-48762500D03*
D24*
%TO.P,U2,7,RES*%
X34012500Y-48750000D03*
%TO.P,U2,8,GND*%
X34012500Y-48250000D03*
%TO.P,U2,9,Vdd*%
X34012500Y-47750000D03*
%TO.P,U2,10,Vdd_IO*%
X34012500Y-47250000D03*
D25*
%TO.P,U2,11,INT2*%
X33500000Y-47237500D03*
%TO.P,U2,12,INT1*%
X33000000Y-47237500D03*
%TD*%
D21*
%TO.P,R4,1*%
%TO.N,N/C*%
X46260000Y-59260000D03*
%TO.P,R4,2*%
X46260000Y-58240000D03*
%TD*%
%TO.P,R3,1*%
%TO.N,N/C*%
X98250000Y-42260000D03*
%TO.P,R3,2*%
X98250000Y-41240000D03*
%TD*%
%TO.P,R3,1*%
%TO.N,N/C*%
X98250000Y-102260000D03*
%TO.P,R3,2*%
X98250000Y-101240000D03*
%TD*%
D22*
%TO.P,C2,1*%
%TO.N,N/C*%
X51030000Y-32650000D03*
%TO.P,C2,2*%
X50070000Y-32650000D03*
%TD*%
D23*
%TO.P,R1,1*%
%TO.N,N/C*%
X63000000Y-71240000D03*
%TO.P,R1,2*%
X63000000Y-72260000D03*
%TD*%
D22*
%TO.P,C3,1*%
%TO.N,N/C*%
X81030000Y-46650000D03*
%TO.P,C3,2*%
X80070000Y-46650000D03*
%TD*%
D26*
%TO.P,U1,1,SCL*%
%TO.N,N/C*%
X94590000Y-72200000D03*
%TO.P,U1,2,GND*%
X94590000Y-73150000D03*
%TO.P,U1,3,GND*%
X94590000Y-74100000D03*
%TO.P,U1,4,VCC*%
X96910000Y-74100000D03*
%TO.P,U1,5,GND*%
X96910000Y-73150000D03*
%TO.P,U1,6,SDA*%
X96910000Y-72200000D03*
%TD*%
%TO.P,U1,1,SCL*%
%TO.N,N/C*%
X34590000Y-87200000D03*
%TO.P,U1,2,GND*%
X34590000Y-88150000D03*
%TO.P,U1,3,GND*%
X34590000Y-89100000D03*
%TO.P,U1,4,VCC*%
X36910000Y-89100000D03*
%TO.P,U1,5,GND*%
X36910000Y-88150000D03*
%TO.P,U1,6,SDA*%
X36910000Y-87200000D03*
%TD*%
D24*
%TO.P,U2,1,SCL/SPC*%
%TO.N,N/C*%
X32487500Y-77250000D03*
%TO.P,U2,2,~{CS}*%
X32487500Y-77750000D03*
%TO.P,U2,3,SDO/SA0*%
X32487500Y-78250000D03*
%TO.P,U2,4,SDA/SDI/SDO*%
X32487500Y-78750000D03*
D25*
%TO.P,U2,5,NC*%
X33000000Y-78762500D03*
%TO.P,U2,6,GND*%
X33500000Y-78762500D03*
D24*
%TO.P,U2,7,RES*%
X34012500Y-78750000D03*
%TO.P,U2,8,GND*%
X34012500Y-78250000D03*
%TO.P,U2,9,Vdd*%
X34012500Y-77750000D03*
%TO.P,U2,10,Vdd_IO*%
X34012500Y-77250000D03*
D25*
%TO.P,U2,11,INT2*%
X33500000Y-77237500D03*
%TO.P,U2,12,INT1*%
X33000000Y-77237500D03*
%TD*%
D21*
%TO.P,R7,1*%
%TO.N,N/C*%
X32000000Y-66510000D03*
%TO.P,R7,2*%
X32000000Y-65490000D03*
%TD*%
D24*
%TO.P,U2,1,SCL/SPC*%
%TO.N,N/C*%
X92487500Y-92250000D03*
%TO.P,U2,2,~{CS}*%
X92487500Y-92750000D03*
%TO.P,U2,3,SDO/SA0*%
X92487500Y-93250000D03*
%TO.P,U2,4,SDA/SDI/SDO*%
X92487500Y-93750000D03*
D25*
%TO.P,U2,5,NC*%
X93000000Y-93762500D03*
%TO.P,U2,6,GND*%
X93500000Y-93762500D03*
D24*
%TO.P,U2,7,RES*%
X94012500Y-93750000D03*
%TO.P,U2,8,GND*%
X94012500Y-93250000D03*
%TO.P,U2,9,Vdd*%
X94012500Y-92750000D03*
%TO.P,U2,10,Vdd_IO*%
X94012500Y-92250000D03*
D25*
%TO.P,U2,11,INT2*%
X93500000Y-92237500D03*
%TO.P,U2,12,INT1*%
X93000000Y-92237500D03*
%TD*%
D23*
%TO.P,R2,1*%
%TO.N,N/C*%
X61250000Y-86240000D03*
%TO.P,R2,2*%
X61250000Y-87260000D03*
%TD*%
%TO.P,R2,1*%
%TO.N,N/C*%
X76250000Y-56240000D03*
%TO.P,R2,2*%
X76250000Y-57260000D03*
%TD*%
D10*
%TO.P,J2,1,Pin_1*%
%TO.N,N/C*%
X37040000Y-35250000D03*
D11*
%TO.P,J2,2,Pin_2*%
X39580000Y-35250000D03*
%TD*%
D21*
%TO.P,R4,1*%
%TO.N,N/C*%
X31260000Y-44260000D03*
%TO.P,R4,2*%
X31260000Y-43240000D03*
%TD*%
%TO.P,R4,1*%
%TO.N,N/C*%
X91260000Y-89260000D03*
%TO.P,R4,2*%
X91260000Y-88240000D03*
%TD*%
D27*
%TO.P,D1,1,K*%
%TO.N,N/C*%
X54750000Y-58037500D03*
%TO.P,D1,2,A*%
X54750000Y-56462500D03*
%TD*%
D21*
%TO.P,R6,1*%
%TO.N,N/C*%
X94500000Y-81510000D03*
%TO.P,R6,2*%
X94500000Y-80490000D03*
%TD*%
D23*
%TO.P,R1,1*%
%TO.N,N/C*%
X78000000Y-56240000D03*
%TO.P,R1,2*%
X78000000Y-57260000D03*
%TD*%
D10*
%TO.P,J2,1,Pin_1*%
%TO.N,N/C*%
X97040000Y-35250000D03*
D11*
%TO.P,J2,2,Pin_2*%
X99580000Y-35250000D03*
%TD*%
D10*
%TO.P,J2,1,Pin_1*%
%TO.N,N/C*%
X67040000Y-80250000D03*
D11*
%TO.P,J2,2,Pin_2*%
X69580000Y-80250000D03*
%TD*%
D21*
%TO.P,R4,1*%
%TO.N,N/C*%
X46260000Y-44260000D03*
%TO.P,R4,2*%
X46260000Y-43240000D03*
%TD*%
D23*
%TO.P,R1,1*%
%TO.N,N/C*%
X78000000Y-41240000D03*
%TO.P,R1,2*%
X78000000Y-42260000D03*
%TD*%
D21*
%TO.P,R5,1*%
%TO.N,N/C*%
X71050000Y-58260000D03*
%TO.P,R5,2*%
X71050000Y-57240000D03*
%TD*%
D22*
%TO.P,C1,1*%
%TO.N,N/C*%
X39480000Y-44425000D03*
%TO.P,C1,2*%
X38520000Y-44425000D03*
%TD*%
D21*
%TO.P,R6,1*%
%TO.N,N/C*%
X79500000Y-96510000D03*
%TO.P,R6,2*%
X79500000Y-95490000D03*
%TD*%
D10*
%TO.P,J2,1,Pin_1*%
%TO.N,N/C*%
X82040000Y-95250000D03*
D11*
%TO.P,J2,2,Pin_2*%
X84580000Y-95250000D03*
%TD*%
D22*
%TO.P,C3,1*%
%TO.N,N/C*%
X36030000Y-61650000D03*
%TO.P,C3,2*%
X35070000Y-61650000D03*
%TD*%
D21*
%TO.P,R4,1*%
%TO.N,N/C*%
X76260000Y-104260000D03*
%TO.P,R4,2*%
X76260000Y-103240000D03*
%TD*%
D22*
%TO.P,C3,1*%
%TO.N,N/C*%
X36030000Y-91650000D03*
%TO.P,C3,2*%
X35070000Y-91650000D03*
%TD*%
%TO.P,C2,1*%
%TO.N,N/C*%
X51030000Y-92650000D03*
%TO.P,C2,2*%
X50070000Y-92650000D03*
%TD*%
%TO.P,C3,1*%
%TO.N,N/C*%
X96030000Y-76650000D03*
%TO.P,C3,2*%
X95070000Y-76650000D03*
%TD*%
%TO.P,C2,1*%
%TO.N,N/C*%
X36030000Y-62650000D03*
%TO.P,C2,2*%
X35070000Y-62650000D03*
%TD*%
%TO.P,C1,1*%
%TO.N,N/C*%
X84480000Y-89425000D03*
%TO.P,C1,2*%
X83520000Y-89425000D03*
%TD*%
D21*
%TO.P,R4,1*%
%TO.N,N/C*%
X31260000Y-74260000D03*
%TO.P,R4,2*%
X31260000Y-73240000D03*
%TD*%
D27*
%TO.P,D1,1,K*%
%TO.N,N/C*%
X99750000Y-73037500D03*
%TO.P,D1,2,A*%
X99750000Y-71462500D03*
%TD*%
D26*
%TO.P,U1,1,SCL*%
%TO.N,N/C*%
X34590000Y-57200000D03*
%TO.P,U1,2,GND*%
X34590000Y-58150000D03*
%TO.P,U1,3,GND*%
X34590000Y-59100000D03*
%TO.P,U1,4,VCC*%
X36910000Y-59100000D03*
%TO.P,U1,5,GND*%
X36910000Y-58150000D03*
%TO.P,U1,6,SDA*%
X36910000Y-57200000D03*
%TD*%
D22*
%TO.P,C2,1*%
%TO.N,N/C*%
X81030000Y-62650000D03*
%TO.P,C2,2*%
X80070000Y-62650000D03*
%TD*%
D21*
%TO.P,R4,1*%
%TO.N,N/C*%
X31260000Y-59260000D03*
%TO.P,R4,2*%
X31260000Y-58240000D03*
%TD*%
D27*
%TO.P,D1,1,K*%
%TO.N,N/C*%
X69750000Y-73037500D03*
%TO.P,D1,2,A*%
X69750000Y-71462500D03*
%TD*%
D23*
%TO.P,R2,1*%
%TO.N,N/C*%
X91250000Y-86240000D03*
%TO.P,R2,2*%
X91250000Y-87260000D03*
%TD*%
D24*
%TO.P,U2,1,SCL/SPC*%
%TO.N,N/C*%
X77487500Y-47250000D03*
%TO.P,U2,2,~{CS}*%
X77487500Y-47750000D03*
%TO.P,U2,3,SDO/SA0*%
X77487500Y-48250000D03*
%TO.P,U2,4,SDA/SDI/SDO*%
X77487500Y-48750000D03*
D25*
%TO.P,U2,5,NC*%
X78000000Y-48762500D03*
%TO.P,U2,6,GND*%
X78500000Y-48762500D03*
D24*
%TO.P,U2,7,RES*%
X79012500Y-48750000D03*
%TO.P,U2,8,GND*%
X79012500Y-48250000D03*
%TO.P,U2,9,Vdd*%
X79012500Y-47750000D03*
%TO.P,U2,10,Vdd_IO*%
X79012500Y-47250000D03*
D25*
%TO.P,U2,11,INT2*%
X78500000Y-47237500D03*
%TO.P,U2,12,INT1*%
X78000000Y-47237500D03*
%TD*%
D21*
%TO.P,R6,1*%
%TO.N,N/C*%
X49500000Y-36510000D03*
%TO.P,R6,2*%
X49500000Y-35490000D03*
%TD*%
%TO.P,R4,1*%
%TO.N,N/C*%
X46260000Y-74260000D03*
%TO.P,R4,2*%
X46260000Y-73240000D03*
%TD*%
D22*
%TO.P,C3,1*%
%TO.N,N/C*%
X66030000Y-31650000D03*
%TO.P,C3,2*%
X65070000Y-31650000D03*
%TD*%
D24*
%TO.P,U2,1,SCL/SPC*%
%TO.N,N/C*%
X47487500Y-77250000D03*
%TO.P,U2,2,~{CS}*%
X47487500Y-77750000D03*
%TO.P,U2,3,SDO/SA0*%
X47487500Y-78250000D03*
%TO.P,U2,4,SDA/SDI/SDO*%
X47487500Y-78750000D03*
D25*
%TO.P,U2,5,NC*%
X48000000Y-78762500D03*
%TO.P,U2,6,GND*%
X48500000Y-78762500D03*
D24*
%TO.P,U2,7,RES*%
X49012500Y-78750000D03*
%TO.P,U2,8,GND*%
X49012500Y-78250000D03*
%TO.P,U2,9,Vdd*%
X49012500Y-77750000D03*
%TO.P,U2,10,Vdd_IO*%
X49012500Y-77250000D03*
D25*
%TO.P,U2,11,INT2*%
X48500000Y-77237500D03*
%TO.P,U2,12,INT1*%
X48000000Y-77237500D03*
%TD*%
D21*
%TO.P,R6,1*%
%TO.N,N/C*%
X94500000Y-36510000D03*
%TO.P,R6,2*%
X94500000Y-35490000D03*
%TD*%
D22*
%TO.P,C3,1*%
%TO.N,N/C*%
X81030000Y-31650000D03*
%TO.P,C3,2*%
X80070000Y-31650000D03*
%TD*%
D21*
%TO.P,R3,1*%
%TO.N,N/C*%
X83250000Y-102260000D03*
%TO.P,R3,2*%
X83250000Y-101240000D03*
%TD*%
%TO.P,R6,1*%
%TO.N,N/C*%
X49500000Y-51510000D03*
%TO.P,R6,2*%
X49500000Y-50490000D03*
%TD*%
D24*
%TO.P,U2,1,SCL/SPC*%
%TO.N,N/C*%
X92487500Y-77250000D03*
%TO.P,U2,2,~{CS}*%
X92487500Y-77750000D03*
%TO.P,U2,3,SDO/SA0*%
X92487500Y-78250000D03*
%TO.P,U2,4,SDA/SDI/SDO*%
X92487500Y-78750000D03*
D25*
%TO.P,U2,5,NC*%
X93000000Y-78762500D03*
%TO.P,U2,6,GND*%
X93500000Y-78762500D03*
D24*
%TO.P,U2,7,RES*%
X94012500Y-78750000D03*
%TO.P,U2,8,GND*%
X94012500Y-78250000D03*
%TO.P,U2,9,Vdd*%
X94012500Y-77750000D03*
%TO.P,U2,10,Vdd_IO*%
X94012500Y-77250000D03*
D25*
%TO.P,U2,11,INT2*%
X93500000Y-77237500D03*
%TO.P,U2,12,INT1*%
X93000000Y-77237500D03*
%TD*%
D23*
%TO.P,R2,1*%
%TO.N,N/C*%
X91250000Y-56240000D03*
%TO.P,R2,2*%
X91250000Y-57260000D03*
%TD*%
D10*
%TO.P,J2,1,Pin_1*%
%TO.N,N/C*%
X37040000Y-80250000D03*
D11*
%TO.P,J2,2,Pin_2*%
X39580000Y-80250000D03*
%TD*%
D22*
%TO.P,C1,1*%
%TO.N,N/C*%
X54480000Y-89425000D03*
%TO.P,C1,2*%
X53520000Y-89425000D03*
%TD*%
D21*
%TO.P,R4,1*%
%TO.N,N/C*%
X31260000Y-89260000D03*
%TO.P,R4,2*%
X31260000Y-88240000D03*
%TD*%
D22*
%TO.P,C3,1*%
%TO.N,N/C*%
X96030000Y-91650000D03*
%TO.P,C3,2*%
X95070000Y-91650000D03*
%TD*%
D26*
%TO.P,U1,1,SCL*%
%TO.N,N/C*%
X49590000Y-42200000D03*
%TO.P,U1,2,GND*%
X49590000Y-43150000D03*
%TO.P,U1,3,GND*%
X49590000Y-44100000D03*
%TO.P,U1,4,VCC*%
X51910000Y-44100000D03*
%TO.P,U1,5,GND*%
X51910000Y-43150000D03*
%TO.P,U1,6,SDA*%
X51910000Y-42200000D03*
%TD*%
D21*
%TO.P,R5,1*%
%TO.N,N/C*%
X41050000Y-73260000D03*
%TO.P,R5,2*%
X41050000Y-72240000D03*
%TD*%
D10*
%TO.P,J2,1,Pin_1*%
%TO.N,N/C*%
X67040000Y-50250000D03*
D11*
%TO.P,J2,2,Pin_2*%
X69580000Y-50250000D03*
%TD*%
D22*
%TO.P,C2,1*%
%TO.N,N/C*%
X81030000Y-47650000D03*
%TO.P,C2,2*%
X80070000Y-47650000D03*
%TD*%
D21*
%TO.P,R7,1*%
%TO.N,N/C*%
X77000000Y-36510000D03*
%TO.P,R7,2*%
X77000000Y-35490000D03*
%TD*%
D27*
%TO.P,D1,1,K*%
%TO.N,N/C*%
X54750000Y-103037500D03*
%TO.P,D1,2,A*%
X54750000Y-101462500D03*
%TD*%
D21*
%TO.P,R3,1*%
%TO.N,N/C*%
X68250000Y-87260000D03*
%TO.P,R3,2*%
X68250000Y-86240000D03*
%TD*%
D23*
%TO.P,R2,1*%
%TO.N,N/C*%
X46250000Y-86240000D03*
%TO.P,R2,2*%
X46250000Y-87260000D03*
%TD*%
D22*
%TO.P,C1,1*%
%TO.N,N/C*%
X39480000Y-104425000D03*
%TO.P,C1,2*%
X38520000Y-104425000D03*
%TD*%
D10*
%TO.P,J1,1,Pin_1*%
%TO.N,N/C*%
X54600000Y-38900000D03*
D11*
%TO.P,J1,2,Pin_2*%
X52060000Y-38900000D03*
%TO.P,J1,3,Pin_3*%
X49520000Y-38900000D03*
%TO.P,J1,4,Pin_4*%
X46980000Y-38900000D03*
%TD*%
D10*
%TO.P,J1,1,Pin_1*%
%TO.N,N/C*%
X99600000Y-98900000D03*
D11*
%TO.P,J1,2,Pin_2*%
X97060000Y-98900000D03*
%TO.P,J1,3,Pin_3*%
X94520000Y-98900000D03*
%TO.P,J1,4,Pin_4*%
X91980000Y-98900000D03*
%TD*%
D10*
%TO.P,J1,1,Pin_1*%
%TO.N,N/C*%
X84600000Y-83900000D03*
D11*
%TO.P,J1,2,Pin_2*%
X82060000Y-83900000D03*
%TO.P,J1,3,Pin_3*%
X79520000Y-83900000D03*
%TO.P,J1,4,Pin_4*%
X76980000Y-83900000D03*
%TD*%
D10*
%TO.P,J1,1,Pin_1*%
%TO.N,N/C*%
X84600000Y-38900000D03*
D11*
%TO.P,J1,2,Pin_2*%
X82060000Y-38900000D03*
%TO.P,J1,3,Pin_3*%
X79520000Y-38900000D03*
%TO.P,J1,4,Pin_4*%
X76980000Y-38900000D03*
%TD*%
D10*
%TO.P,J1,1,Pin_1*%
%TO.N,N/C*%
X54600000Y-68900000D03*
D11*
%TO.P,J1,2,Pin_2*%
X52060000Y-68900000D03*
%TO.P,J1,3,Pin_3*%
X49520000Y-68900000D03*
%TO.P,J1,4,Pin_4*%
X46980000Y-68900000D03*
%TD*%
D10*
%TO.P,J1,1,Pin_1*%
%TO.N,N/C*%
X54600000Y-83900000D03*
D11*
%TO.P,J1,2,Pin_2*%
X52060000Y-83900000D03*
%TO.P,J1,3,Pin_3*%
X49520000Y-83900000D03*
%TO.P,J1,4,Pin_4*%
X46980000Y-83900000D03*
%TD*%
D10*
%TO.P,J1,1,Pin_1*%
%TO.N,N/C*%
X84600000Y-98900000D03*
D11*
%TO.P,J1,2,Pin_2*%
X82060000Y-98900000D03*
%TO.P,J1,3,Pin_3*%
X79520000Y-98900000D03*
%TO.P,J1,4,Pin_4*%
X76980000Y-98900000D03*
%TD*%
D10*
%TO.P,J1,1,Pin_1*%
%TO.N,N/C*%
X39600000Y-68900000D03*
D11*
%TO.P,J1,2,Pin_2*%
X37060000Y-68900000D03*
%TO.P,J1,3,Pin_3*%
X34520000Y-68900000D03*
%TO.P,J1,4,Pin_4*%
X31980000Y-68900000D03*
%TD*%
D10*
%TO.P,J1,1,Pin_1*%
%TO.N,N/C*%
X54600000Y-98900000D03*
D11*
%TO.P,J1,2,Pin_2*%
X52060000Y-98900000D03*
%TO.P,J1,3,Pin_3*%
X49520000Y-98900000D03*
%TO.P,J1,4,Pin_4*%
X46980000Y-98900000D03*
%TD*%
D10*
%TO.P,J1,1,Pin_1*%
%TO.N,N/C*%
X69600000Y-53900000D03*
D11*
%TO.P,J1,2,Pin_2*%
X67060000Y-53900000D03*
%TO.P,J1,3,Pin_3*%
X64520000Y-53900000D03*
%TO.P,J1,4,Pin_4*%
X61980000Y-53900000D03*
%TD*%
D10*
%TO.P,J1,1,Pin_1*%
%TO.N,N/C*%
X99600000Y-68900000D03*
D11*
%TO.P,J1,2,Pin_2*%
X97060000Y-68900000D03*
%TO.P,J1,3,Pin_3*%
X94520000Y-68900000D03*
%TO.P,J1,4,Pin_4*%
X91980000Y-68900000D03*
%TD*%
D10*
%TO.P,J1,1,Pin_1*%
%TO.N,N/C*%
X39600000Y-38900000D03*
D11*
%TO.P,J1,2,Pin_2*%
X37060000Y-38900000D03*
%TO.P,J1,3,Pin_3*%
X34520000Y-38900000D03*
%TO.P,J1,4,Pin_4*%
X31980000Y-38900000D03*
%TD*%
D10*
%TO.P,J1,1,Pin_1*%
%TO.N,N/C*%
X69600000Y-68900000D03*
D11*
%TO.P,J1,2,Pin_2*%
X67060000Y-68900000D03*
%TO.P,J1,3,Pin_3*%
X64520000Y-68900000D03*
%TO.P,J1,4,Pin_4*%
X61980000Y-68900000D03*
%TD*%
D10*
%TO.P,J1,1,Pin_1*%
%TO.N,N/C*%
X84600000Y-53900000D03*
D11*
%TO.P,J1,2,Pin_2*%
X82060000Y-53900000D03*
%TO.P,J1,3,Pin_3*%
X79520000Y-53900000D03*
%TO.P,J1,4,Pin_4*%
X76980000Y-53900000D03*
%TD*%
D10*
%TO.P,J1,1,Pin_1*%
%TO.N,N/C*%
X99600000Y-83900000D03*
D11*
%TO.P,J1,2,Pin_2*%
X97060000Y-83900000D03*
%TO.P,J1,3,Pin_3*%
X94520000Y-83900000D03*
%TO.P,J1,4,Pin_4*%
X91980000Y-83900000D03*
%TD*%
D10*
%TO.P,J1,1,Pin_1*%
%TO.N,N/C*%
X84600000Y-68900000D03*
D11*
%TO.P,J1,2,Pin_2*%
X82060000Y-68900000D03*
%TO.P,J1,3,Pin_3*%
X79520000Y-68900000D03*
%TO.P,J1,4,Pin_4*%
X76980000Y-68900000D03*
%TD*%
D10*
%TO.P,J1,1,Pin_1*%
%TO.N,N/C*%
X99600000Y-38900000D03*
D11*
%TO.P,J1,2,Pin_2*%
X97060000Y-38900000D03*
%TO.P,J1,3,Pin_3*%
X94520000Y-38900000D03*
%TO.P,J1,4,Pin_4*%
X91980000Y-38900000D03*
%TD*%
D10*
%TO.P,J1,1,Pin_1*%
%TO.N,N/C*%
X39600000Y-98900000D03*
D11*
%TO.P,J1,2,Pin_2*%
X37060000Y-98900000D03*
%TO.P,J1,3,Pin_3*%
X34520000Y-98900000D03*
%TO.P,J1,4,Pin_4*%
X31980000Y-98900000D03*
%TD*%
D10*
%TO.P,J1,1,Pin_1*%
%TO.N,N/C*%
X69600000Y-38900000D03*
D11*
%TO.P,J1,2,Pin_2*%
X67060000Y-38900000D03*
%TO.P,J1,3,Pin_3*%
X64520000Y-38900000D03*
%TO.P,J1,4,Pin_4*%
X61980000Y-38900000D03*
%TD*%
D22*
%TO.P,C2,1*%
%TO.N,N/C*%
X96030000Y-62650000D03*
%TO.P,C2,2*%
X95070000Y-62650000D03*
%TD*%
D23*
%TO.P,R1,1*%
%TO.N,N/C*%
X63000000Y-101240000D03*
%TO.P,R1,2*%
X63000000Y-102260000D03*
%TD*%
%TO.P,R2,1*%
%TO.N,N/C*%
X76250000Y-101240000D03*
%TO.P,R2,2*%
X76250000Y-102260000D03*
%TD*%
%TO.P,R1,1*%
%TO.N,N/C*%
X93000000Y-71240000D03*
%TO.P,R1,2*%
X93000000Y-72260000D03*
%TD*%
D21*
%TO.P,R6,1*%
%TO.N,N/C*%
X79500000Y-81510000D03*
%TO.P,R6,2*%
X79500000Y-80490000D03*
%TD*%
%TO.P,R3,1*%
%TO.N,N/C*%
X53250000Y-42260000D03*
%TO.P,R3,2*%
X53250000Y-41240000D03*
%TD*%
%TO.P,R5,1*%
%TO.N,N/C*%
X101050000Y-73260000D03*
%TO.P,R5,2*%
X101050000Y-72240000D03*
%TD*%
D27*
%TO.P,D1,1,K*%
%TO.N,N/C*%
X69750000Y-103037500D03*
%TO.P,D1,2,A*%
X69750000Y-101462500D03*
%TD*%
D21*
%TO.P,R6,1*%
%TO.N,N/C*%
X34500000Y-66510000D03*
%TO.P,R6,2*%
X34500000Y-65490000D03*
%TD*%
%TO.P,R6,1*%
%TO.N,N/C*%
X79500000Y-51510000D03*
%TO.P,R6,2*%
X79500000Y-50490000D03*
%TD*%
D23*
%TO.P,R2,1*%
%TO.N,N/C*%
X61250000Y-41240000D03*
%TO.P,R2,2*%
X61250000Y-42260000D03*
%TD*%
D21*
%TO.P,R3,1*%
%TO.N,N/C*%
X53250000Y-102260000D03*
%TO.P,R3,2*%
X53250000Y-101240000D03*
%TD*%
D26*
%TO.P,U1,1,SCL*%
%TO.N,N/C*%
X64590000Y-57200000D03*
%TO.P,U1,2,GND*%
X64590000Y-58150000D03*
%TO.P,U1,3,GND*%
X64590000Y-59100000D03*
%TO.P,U1,4,VCC*%
X66910000Y-59100000D03*
%TO.P,U1,5,GND*%
X66910000Y-58150000D03*
%TO.P,U1,6,SDA*%
X66910000Y-57200000D03*
%TD*%
D10*
%TO.P,J2,1,Pin_1*%
%TO.N,N/C*%
X52040000Y-35250000D03*
D11*
%TO.P,J2,2,Pin_2*%
X54580000Y-35250000D03*
%TD*%
D21*
%TO.P,R3,1*%
%TO.N,N/C*%
X68250000Y-42260000D03*
%TO.P,R3,2*%
X68250000Y-41240000D03*
%TD*%
D22*
%TO.P,C3,1*%
%TO.N,N/C*%
X96030000Y-31650000D03*
%TO.P,C3,2*%
X95070000Y-31650000D03*
%TD*%
D10*
%TO.P,J2,1,Pin_1*%
%TO.N,N/C*%
X97040000Y-50250000D03*
D11*
%TO.P,J2,2,Pin_2*%
X99580000Y-50250000D03*
%TD*%
D21*
%TO.P,R7,1*%
%TO.N,N/C*%
X92000000Y-36510000D03*
%TO.P,R7,2*%
X92000000Y-35490000D03*
%TD*%
%TO.P,R5,1*%
%TO.N,N/C*%
X56050000Y-43260000D03*
%TO.P,R5,2*%
X56050000Y-42240000D03*
%TD*%
D22*
%TO.P,C3,1*%
%TO.N,N/C*%
X96030000Y-61650000D03*
%TO.P,C3,2*%
X95070000Y-61650000D03*
%TD*%
D26*
%TO.P,U1,1,SCL*%
%TO.N,N/C*%
X79590000Y-72200000D03*
%TO.P,U1,2,GND*%
X79590000Y-73150000D03*
%TO.P,U1,3,GND*%
X79590000Y-74100000D03*
%TO.P,U1,4,VCC*%
X81910000Y-74100000D03*
%TO.P,U1,5,GND*%
X81910000Y-73150000D03*
%TO.P,U1,6,SDA*%
X81910000Y-72200000D03*
%TD*%
D22*
%TO.P,C3,1*%
%TO.N,N/C*%
X66030000Y-76650000D03*
%TO.P,C3,2*%
X65070000Y-76650000D03*
%TD*%
D21*
%TO.P,R7,1*%
%TO.N,N/C*%
X77000000Y-96510000D03*
%TO.P,R7,2*%
X77000000Y-95490000D03*
%TD*%
D10*
%TO.P,J2,1,Pin_1*%
%TO.N,N/C*%
X52040000Y-80250000D03*
D11*
%TO.P,J2,2,Pin_2*%
X54580000Y-80250000D03*
%TD*%
D23*
%TO.P,R1,1*%
%TO.N,N/C*%
X63000000Y-56240000D03*
%TO.P,R1,2*%
X63000000Y-57260000D03*
%TD*%
D21*
%TO.P,R6,1*%
%TO.N,N/C*%
X34500000Y-96510000D03*
%TO.P,R6,2*%
X34500000Y-95490000D03*
%TD*%
D22*
%TO.P,C1,1*%
%TO.N,N/C*%
X39480000Y-89425000D03*
%TO.P,C1,2*%
X38520000Y-89425000D03*
%TD*%
D21*
%TO.P,R6,1*%
%TO.N,N/C*%
X64500000Y-51510000D03*
%TO.P,R6,2*%
X64500000Y-50490000D03*
%TD*%
%TO.P,R3,1*%
%TO.N,N/C*%
X98250000Y-57260000D03*
%TO.P,R3,2*%
X98250000Y-56240000D03*
%TD*%
D23*
%TO.P,R2,1*%
%TO.N,N/C*%
X46250000Y-56240000D03*
%TO.P,R2,2*%
X46250000Y-57260000D03*
%TD*%
D21*
%TO.P,R5,1*%
%TO.N,N/C*%
X86050000Y-58260000D03*
%TO.P,R5,2*%
X86050000Y-57240000D03*
%TD*%
D23*
%TO.P,R1,1*%
%TO.N,N/C*%
X33000000Y-41240000D03*
%TO.P,R1,2*%
X33000000Y-42260000D03*
%TD*%
D21*
%TO.P,R7,1*%
%TO.N,N/C*%
X32000000Y-51510000D03*
%TO.P,R7,2*%
X32000000Y-50490000D03*
%TD*%
%TO.P,R3,1*%
%TO.N,N/C*%
X83250000Y-57260000D03*
%TO.P,R3,2*%
X83250000Y-56240000D03*
%TD*%
D22*
%TO.P,C2,1*%
%TO.N,N/C*%
X96030000Y-47650000D03*
%TO.P,C2,2*%
X95070000Y-47650000D03*
%TD*%
%TO.P,C1,1*%
%TO.N,N/C*%
X99480000Y-89425000D03*
%TO.P,C1,2*%
X98520000Y-89425000D03*
%TD*%
D26*
%TO.P,U1,1,SCL*%
%TO.N,N/C*%
X34590000Y-102200000D03*
%TO.P,U1,2,GND*%
X34590000Y-103150000D03*
%TO.P,U1,3,GND*%
X34590000Y-104100000D03*
%TO.P,U1,4,VCC*%
X36910000Y-104100000D03*
%TO.P,U1,5,GND*%
X36910000Y-103150000D03*
%TO.P,U1,6,SDA*%
X36910000Y-102200000D03*
%TD*%
D21*
%TO.P,R4,1*%
%TO.N,N/C*%
X61260000Y-74260000D03*
%TO.P,R4,2*%
X61260000Y-73240000D03*
%TD*%
D24*
%TO.P,U2,1,SCL/SPC*%
%TO.N,N/C*%
X92487500Y-62250000D03*
%TO.P,U2,2,~{CS}*%
X92487500Y-62750000D03*
%TO.P,U2,3,SDO/SA0*%
X92487500Y-63250000D03*
%TO.P,U2,4,SDA/SDI/SDO*%
X92487500Y-63750000D03*
D25*
%TO.P,U2,5,NC*%
X93000000Y-63762500D03*
%TO.P,U2,6,GND*%
X93500000Y-63762500D03*
D24*
%TO.P,U2,7,RES*%
X94012500Y-63750000D03*
%TO.P,U2,8,GND*%
X94012500Y-63250000D03*
%TO.P,U2,9,Vdd*%
X94012500Y-62750000D03*
%TO.P,U2,10,Vdd_IO*%
X94012500Y-62250000D03*
D25*
%TO.P,U2,11,INT2*%
X93500000Y-62237500D03*
%TO.P,U2,12,INT1*%
X93000000Y-62237500D03*
%TD*%
D26*
%TO.P,U1,1,SCL*%
%TO.N,N/C*%
X64590000Y-102200000D03*
%TO.P,U1,2,GND*%
X64590000Y-103150000D03*
%TO.P,U1,3,GND*%
X64590000Y-104100000D03*
%TO.P,U1,4,VCC*%
X66910000Y-104100000D03*
%TO.P,U1,5,GND*%
X66910000Y-103150000D03*
%TO.P,U1,6,SDA*%
X66910000Y-102200000D03*
%TD*%
%TO.P,U1,1,SCL*%
%TO.N,N/C*%
X79590000Y-57200000D03*
%TO.P,U1,2,GND*%
X79590000Y-58150000D03*
%TO.P,U1,3,GND*%
X79590000Y-59100000D03*
%TO.P,U1,4,VCC*%
X81910000Y-59100000D03*
%TO.P,U1,5,GND*%
X81910000Y-58150000D03*
%TO.P,U1,6,SDA*%
X81910000Y-57200000D03*
%TD*%
D10*
%TO.P,J2,1,Pin_1*%
%TO.N,N/C*%
X82040000Y-35250000D03*
D11*
%TO.P,J2,2,Pin_2*%
X84580000Y-35250000D03*
%TD*%
D22*
%TO.P,C2,1*%
%TO.N,N/C*%
X96030000Y-32650000D03*
%TO.P,C2,2*%
X95070000Y-32650000D03*
%TD*%
D26*
%TO.P,U1,1,SCL*%
%TO.N,N/C*%
X94590000Y-42200000D03*
%TO.P,U1,2,GND*%
X94590000Y-43150000D03*
%TO.P,U1,3,GND*%
X94590000Y-44100000D03*
%TO.P,U1,4,VCC*%
X96910000Y-44100000D03*
%TO.P,U1,5,GND*%
X96910000Y-43150000D03*
%TO.P,U1,6,SDA*%
X96910000Y-42200000D03*
%TD*%
D22*
%TO.P,C1,1*%
%TO.N,N/C*%
X39480000Y-59425000D03*
%TO.P,C1,2*%
X38520000Y-59425000D03*
%TD*%
D26*
%TO.P,U1,1,SCL*%
%TO.N,N/C*%
X49590000Y-72200000D03*
%TO.P,U1,2,GND*%
X49590000Y-73150000D03*
%TO.P,U1,3,GND*%
X49590000Y-74100000D03*
%TO.P,U1,4,VCC*%
X51910000Y-74100000D03*
%TO.P,U1,5,GND*%
X51910000Y-73150000D03*
%TO.P,U1,6,SDA*%
X51910000Y-72200000D03*
%TD*%
D21*
%TO.P,R7,1*%
%TO.N,N/C*%
X92000000Y-51510000D03*
%TO.P,R7,2*%
X92000000Y-50490000D03*
%TD*%
%TO.P,R5,1*%
%TO.N,N/C*%
X101050000Y-43260000D03*
%TO.P,R5,2*%
X101050000Y-42240000D03*
%TD*%
D23*
%TO.P,R2,1*%
%TO.N,N/C*%
X61250000Y-101240000D03*
%TO.P,R2,2*%
X61250000Y-102260000D03*
%TD*%
D27*
%TO.P,D1,1,K*%
%TO.N,N/C*%
X84750000Y-103037500D03*
%TO.P,D1,2,A*%
X84750000Y-101462500D03*
%TD*%
D26*
%TO.P,U1,1,SCL*%
%TO.N,N/C*%
X94590000Y-102200000D03*
%TO.P,U1,2,GND*%
X94590000Y-103150000D03*
%TO.P,U1,3,GND*%
X94590000Y-104100000D03*
%TO.P,U1,4,VCC*%
X96910000Y-104100000D03*
%TO.P,U1,5,GND*%
X96910000Y-103150000D03*
%TO.P,U1,6,SDA*%
X96910000Y-102200000D03*
%TD*%
D21*
%TO.P,R4,1*%
%TO.N,N/C*%
X76260000Y-74260000D03*
%TO.P,R4,2*%
X76260000Y-73240000D03*
%TD*%
%TO.P,R6,1*%
%TO.N,N/C*%
X94500000Y-96510000D03*
%TO.P,R6,2*%
X94500000Y-95490000D03*
%TD*%
D23*
%TO.P,R1,1*%
%TO.N,N/C*%
X48000000Y-56240000D03*
%TO.P,R1,2*%
X48000000Y-57260000D03*
%TD*%
D21*
%TO.P,R3,1*%
%TO.N,N/C*%
X38250000Y-87260000D03*
%TO.P,R3,2*%
X38250000Y-86240000D03*
%TD*%
D22*
%TO.P,C3,1*%
%TO.N,N/C*%
X81030000Y-61650000D03*
%TO.P,C3,2*%
X80070000Y-61650000D03*
%TD*%
D21*
%TO.P,R5,1*%
%TO.N,N/C*%
X71050000Y-88260000D03*
%TO.P,R5,2*%
X71050000Y-87240000D03*
%TD*%
%TO.P,R4,1*%
%TO.N,N/C*%
X76260000Y-44260000D03*
%TO.P,R4,2*%
X76260000Y-43240000D03*
%TD*%
%TO.P,R5,1*%
%TO.N,N/C*%
X71050000Y-103260000D03*
%TO.P,R5,2*%
X71050000Y-102240000D03*
%TD*%
%TO.P,R3,1*%
%TO.N,N/C*%
X98250000Y-72260000D03*
%TO.P,R3,2*%
X98250000Y-71240000D03*
%TD*%
%TO.P,R6,1*%
%TO.N,N/C*%
X64500000Y-36510000D03*
%TO.P,R6,2*%
X64500000Y-35490000D03*
%TD*%
D27*
%TO.P,D1,1,K*%
%TO.N,N/C*%
X99750000Y-43037500D03*
%TO.P,D1,2,A*%
X99750000Y-41462500D03*
%TD*%
D23*
%TO.P,R2,1*%
%TO.N,N/C*%
X91250000Y-41240000D03*
%TO.P,R2,2*%
X91250000Y-42260000D03*
%TD*%
D22*
%TO.P,C3,1*%
%TO.N,N/C*%
X51030000Y-61650000D03*
%TO.P,C3,2*%
X50070000Y-61650000D03*
%TD*%
D21*
%TO.P,R7,1*%
%TO.N,N/C*%
X77000000Y-66510000D03*
%TO.P,R7,2*%
X77000000Y-65490000D03*
%TD*%
D22*
%TO.P,C3,1*%
%TO.N,N/C*%
X36030000Y-31650000D03*
%TO.P,C3,2*%
X35070000Y-31650000D03*
%TD*%
D10*
%TO.P,J2,1,Pin_1*%
%TO.N,N/C*%
X52040000Y-50250000D03*
D11*
%TO.P,J2,2,Pin_2*%
X54580000Y-50250000D03*
%TD*%
D21*
%TO.P,R3,1*%
%TO.N,N/C*%
X38250000Y-72260000D03*
%TO.P,R3,2*%
X38250000Y-71240000D03*
%TD*%
%TO.P,R5,1*%
%TO.N,N/C*%
X56050000Y-73260000D03*
%TO.P,R5,2*%
X56050000Y-72240000D03*
%TD*%
%TO.P,R7,1*%
%TO.N,N/C*%
X47000000Y-96510000D03*
%TO.P,R7,2*%
X47000000Y-95490000D03*
%TD*%
%TO.P,R5,1*%
%TO.N,N/C*%
X41050000Y-103260000D03*
%TO.P,R5,2*%
X41050000Y-102240000D03*
%TD*%
%TO.P,R6,1*%
%TO.N,N/C*%
X79500000Y-36510000D03*
%TO.P,R6,2*%
X79500000Y-35490000D03*
%TD*%
D27*
%TO.P,D1,1,K*%
%TO.N,N/C*%
X99750000Y-58037500D03*
%TO.P,D1,2,A*%
X99750000Y-56462500D03*
%TD*%
D23*
%TO.P,R1,1*%
%TO.N,N/C*%
X78000000Y-101240000D03*
%TO.P,R1,2*%
X78000000Y-102260000D03*
%TD*%
D22*
%TO.P,C2,1*%
%TO.N,N/C*%
X96030000Y-77650000D03*
%TO.P,C2,2*%
X95070000Y-77650000D03*
%TD*%
D21*
%TO.P,R3,1*%
%TO.N,N/C*%
X68250000Y-72260000D03*
%TO.P,R3,2*%
X68250000Y-71240000D03*
%TD*%
D22*
%TO.P,C1,1*%
%TO.N,N/C*%
X99480000Y-74425000D03*
%TO.P,C1,2*%
X98520000Y-74425000D03*
%TD*%
%TO.P,C1,1*%
%TO.N,N/C*%
X99480000Y-44425000D03*
%TO.P,C1,2*%
X98520000Y-44425000D03*
%TD*%
D21*
%TO.P,R7,1*%
%TO.N,N/C*%
X62000000Y-51510000D03*
%TO.P,R7,2*%
X62000000Y-50490000D03*
%TD*%
D10*
%TO.P,J2,1,Pin_1*%
%TO.N,N/C*%
X97040000Y-95250000D03*
D11*
%TO.P,J2,2,Pin_2*%
X99580000Y-95250000D03*
%TD*%
D21*
%TO.P,R4,1*%
%TO.N,N/C*%
X31260000Y-104260000D03*
%TO.P,R4,2*%
X31260000Y-103240000D03*
%TD*%
D10*
%TO.P,J2,1,Pin_1*%
%TO.N,N/C*%
X67040000Y-35250000D03*
D11*
%TO.P,J2,2,Pin_2*%
X69580000Y-35250000D03*
%TD*%
D22*
%TO.P,C1,1*%
%TO.N,N/C*%
X84480000Y-74425000D03*
%TO.P,C1,2*%
X83520000Y-74425000D03*
%TD*%
D24*
%TO.P,U2,1,SCL/SPC*%
%TO.N,N/C*%
X77487500Y-62250000D03*
%TO.P,U2,2,~{CS}*%
X77487500Y-62750000D03*
%TO.P,U2,3,SDO/SA0*%
X77487500Y-63250000D03*
%TO.P,U2,4,SDA/SDI/SDO*%
X77487500Y-63750000D03*
D25*
%TO.P,U2,5,NC*%
X78000000Y-63762500D03*
%TO.P,U2,6,GND*%
X78500000Y-63762500D03*
D24*
%TO.P,U2,7,RES*%
X79012500Y-63750000D03*
%TO.P,U2,8,GND*%
X79012500Y-63250000D03*
%TO.P,U2,9,Vdd*%
X79012500Y-62750000D03*
%TO.P,U2,10,Vdd_IO*%
X79012500Y-62250000D03*
D25*
%TO.P,U2,11,INT2*%
X78500000Y-62237500D03*
%TO.P,U2,12,INT1*%
X78000000Y-62237500D03*
%TD*%
D21*
%TO.P,R7,1*%
%TO.N,N/C*%
X32000000Y-81510000D03*
%TO.P,R7,2*%
X32000000Y-80490000D03*
%TD*%
D22*
%TO.P,C2,1*%
%TO.N,N/C*%
X66030000Y-77650000D03*
%TO.P,C2,2*%
X65070000Y-77650000D03*
%TD*%
D21*
%TO.P,R7,1*%
%TO.N,N/C*%
X62000000Y-66510000D03*
%TO.P,R7,2*%
X62000000Y-65490000D03*
%TD*%
%TO.P,R4,1*%
%TO.N,N/C*%
X91260000Y-104260000D03*
%TO.P,R4,2*%
X91260000Y-103240000D03*
%TD*%
D10*
%TO.P,J2,1,Pin_1*%
%TO.N,N/C*%
X67040000Y-95250000D03*
D11*
%TO.P,J2,2,Pin_2*%
X69580000Y-95250000D03*
%TD*%
D26*
%TO.P,U1,1,SCL*%
%TO.N,N/C*%
X94590000Y-87200000D03*
%TO.P,U1,2,GND*%
X94590000Y-88150000D03*
%TO.P,U1,3,GND*%
X94590000Y-89100000D03*
%TO.P,U1,4,VCC*%
X96910000Y-89100000D03*
%TO.P,U1,5,GND*%
X96910000Y-88150000D03*
%TO.P,U1,6,SDA*%
X96910000Y-87200000D03*
%TD*%
D21*
%TO.P,R4,1*%
%TO.N,N/C*%
X61260000Y-59260000D03*
%TO.P,R4,2*%
X61260000Y-58240000D03*
%TD*%
D22*
%TO.P,C1,1*%
%TO.N,N/C*%
X39480000Y-74425000D03*
%TO.P,C1,2*%
X38520000Y-74425000D03*
%TD*%
D24*
%TO.P,U2,1,SCL/SPC*%
%TO.N,N/C*%
X62487500Y-77250000D03*
%TO.P,U2,2,~{CS}*%
X62487500Y-77750000D03*
%TO.P,U2,3,SDO/SA0*%
X62487500Y-78250000D03*
%TO.P,U2,4,SDA/SDI/SDO*%
X62487500Y-78750000D03*
D25*
%TO.P,U2,5,NC*%
X63000000Y-78762500D03*
%TO.P,U2,6,GND*%
X63500000Y-78762500D03*
D24*
%TO.P,U2,7,RES*%
X64012500Y-78750000D03*
%TO.P,U2,8,GND*%
X64012500Y-78250000D03*
%TO.P,U2,9,Vdd*%
X64012500Y-77750000D03*
%TO.P,U2,10,Vdd_IO*%
X64012500Y-77250000D03*
D25*
%TO.P,U2,11,INT2*%
X63500000Y-77237500D03*
%TO.P,U2,12,INT1*%
X63000000Y-77237500D03*
%TD*%
D23*
%TO.P,R1,1*%
%TO.N,N/C*%
X78000000Y-71240000D03*
%TO.P,R1,2*%
X78000000Y-72260000D03*
%TD*%
%TO.P,R2,1*%
%TO.N,N/C*%
X31250000Y-101240000D03*
%TO.P,R2,2*%
X31250000Y-102260000D03*
%TD*%
D22*
%TO.P,C2,1*%
%TO.N,N/C*%
X81030000Y-77650000D03*
%TO.P,C2,2*%
X80070000Y-77650000D03*
%TD*%
D23*
%TO.P,R2,1*%
%TO.N,N/C*%
X46250000Y-101240000D03*
%TO.P,R2,2*%
X46250000Y-102260000D03*
%TD*%
D21*
%TO.P,R7,1*%
%TO.N,N/C*%
X77000000Y-81510000D03*
%TO.P,R7,2*%
X77000000Y-80490000D03*
%TD*%
D27*
%TO.P,D1,1,K*%
%TO.N,N/C*%
X39750000Y-73037500D03*
%TO.P,D1,2,A*%
X39750000Y-71462500D03*
%TD*%
D21*
%TO.P,R7,1*%
%TO.N,N/C*%
X47000000Y-51510000D03*
%TO.P,R7,2*%
X47000000Y-50490000D03*
%TD*%
D24*
%TO.P,U2,1,SCL/SPC*%
%TO.N,N/C*%
X32487500Y-92250000D03*
%TO.P,U2,2,~{CS}*%
X32487500Y-92750000D03*
%TO.P,U2,3,SDO/SA0*%
X32487500Y-93250000D03*
%TO.P,U2,4,SDA/SDI/SDO*%
X32487500Y-93750000D03*
D25*
%TO.P,U2,5,NC*%
X33000000Y-93762500D03*
%TO.P,U2,6,GND*%
X33500000Y-93762500D03*
D24*
%TO.P,U2,7,RES*%
X34012500Y-93750000D03*
%TO.P,U2,8,GND*%
X34012500Y-93250000D03*
%TO.P,U2,9,Vdd*%
X34012500Y-92750000D03*
%TO.P,U2,10,Vdd_IO*%
X34012500Y-92250000D03*
D25*
%TO.P,U2,11,INT2*%
X33500000Y-92237500D03*
%TO.P,U2,12,INT1*%
X33000000Y-92237500D03*
%TD*%
D21*
%TO.P,R7,1*%
%TO.N,N/C*%
X92000000Y-81510000D03*
%TO.P,R7,2*%
X92000000Y-80490000D03*
%TD*%
D26*
%TO.P,U1,1,SCL*%
%TO.N,N/C*%
X49590000Y-57200000D03*
%TO.P,U1,2,GND*%
X49590000Y-58150000D03*
%TO.P,U1,3,GND*%
X49590000Y-59100000D03*
%TO.P,U1,4,VCC*%
X51910000Y-59100000D03*
%TO.P,U1,5,GND*%
X51910000Y-58150000D03*
%TO.P,U1,6,SDA*%
X51910000Y-57200000D03*
%TD*%
D21*
%TO.P,R6,1*%
%TO.N,N/C*%
X94500000Y-66510000D03*
%TO.P,R6,2*%
X94500000Y-65490000D03*
%TD*%
D22*
%TO.P,C3,1*%
%TO.N,N/C*%
X51030000Y-46650000D03*
%TO.P,C3,2*%
X50070000Y-46650000D03*
%TD*%
D10*
%TO.P,J2,1,Pin_1*%
%TO.N,N/C*%
X37040000Y-65250000D03*
D11*
%TO.P,J2,2,Pin_2*%
X39580000Y-65250000D03*
%TD*%
D27*
%TO.P,D1,1,K*%
%TO.N,N/C*%
X69750000Y-43037500D03*
%TO.P,D1,2,A*%
X69750000Y-41462500D03*
%TD*%
D22*
%TO.P,C3,1*%
%TO.N,N/C*%
X96030000Y-46650000D03*
%TO.P,C3,2*%
X95070000Y-46650000D03*
%TD*%
D23*
%TO.P,R1,1*%
%TO.N,N/C*%
X93000000Y-56240000D03*
%TO.P,R1,2*%
X93000000Y-57260000D03*
%TD*%
D21*
%TO.P,R5,1*%
%TO.N,N/C*%
X86050000Y-73260000D03*
%TO.P,R5,2*%
X86050000Y-72240000D03*
%TD*%
%TO.P,R7,1*%
%TO.N,N/C*%
X62000000Y-36510000D03*
%TO.P,R7,2*%
X62000000Y-35490000D03*
%TD*%
D24*
%TO.P,U2,1,SCL/SPC*%
%TO.N,N/C*%
X77487500Y-32250000D03*
%TO.P,U2,2,~{CS}*%
X77487500Y-32750000D03*
%TO.P,U2,3,SDO/SA0*%
X77487500Y-33250000D03*
%TO.P,U2,4,SDA/SDI/SDO*%
X77487500Y-33750000D03*
D25*
%TO.P,U2,5,NC*%
X78000000Y-33762500D03*
%TO.P,U2,6,GND*%
X78500000Y-33762500D03*
D24*
%TO.P,U2,7,RES*%
X79012500Y-33750000D03*
%TO.P,U2,8,GND*%
X79012500Y-33250000D03*
%TO.P,U2,9,Vdd*%
X79012500Y-32750000D03*
%TO.P,U2,10,Vdd_IO*%
X79012500Y-32250000D03*
D25*
%TO.P,U2,11,INT2*%
X78500000Y-32237500D03*
%TO.P,U2,12,INT1*%
X78000000Y-32237500D03*
%TD*%
D23*
%TO.P,R2,1*%
%TO.N,N/C*%
X76250000Y-86240000D03*
%TO.P,R2,2*%
X76250000Y-87260000D03*
%TD*%
D21*
%TO.P,R5,1*%
%TO.N,N/C*%
X41050000Y-88260000D03*
%TO.P,R5,2*%
X41050000Y-87240000D03*
%TD*%
D23*
%TO.P,R1,1*%
%TO.N,N/C*%
X48000000Y-71240000D03*
%TO.P,R1,2*%
X48000000Y-72260000D03*
%TD*%
D21*
%TO.P,R4,1*%
%TO.N,N/C*%
X76260000Y-59260000D03*
%TO.P,R4,2*%
X76260000Y-58240000D03*
%TD*%
%TO.P,R3,1*%
%TO.N,N/C*%
X53250000Y-87260000D03*
%TO.P,R3,2*%
X53250000Y-86240000D03*
%TD*%
D27*
%TO.P,D1,1,K*%
%TO.N,N/C*%
X54750000Y-43037500D03*
%TO.P,D1,2,A*%
X54750000Y-41462500D03*
%TD*%
D21*
%TO.P,R7,1*%
%TO.N,N/C*%
X47000000Y-36510000D03*
%TO.P,R7,2*%
X47000000Y-35490000D03*
%TD*%
%TO.P,R3,1*%
%TO.N,N/C*%
X83250000Y-42260000D03*
%TO.P,R3,2*%
X83250000Y-41240000D03*
%TD*%
%TO.P,R6,1*%
%TO.N,N/C*%
X94500000Y-51510000D03*
%TO.P,R6,2*%
X94500000Y-50490000D03*
%TD*%
%TO.P,R5,1*%
%TO.N,N/C*%
X101050000Y-103260000D03*
%TO.P,R5,2*%
X101050000Y-102240000D03*
%TD*%
D27*
%TO.P,D1,1,K*%
%TO.N,N/C*%
X39750000Y-103037500D03*
%TO.P,D1,2,A*%
X39750000Y-101462500D03*
%TD*%
D23*
%TO.P,R1,1*%
%TO.N,N/C*%
X63000000Y-86240000D03*
%TO.P,R1,2*%
X63000000Y-87260000D03*
%TD*%
D27*
%TO.P,D1,1,K*%
%TO.N,N/C*%
X69750000Y-58037500D03*
%TO.P,D1,2,A*%
X69750000Y-56462500D03*
%TD*%
%TO.P,D1,1,K*%
%TO.N,N/C*%
X54750000Y-73037500D03*
%TO.P,D1,2,A*%
X54750000Y-71462500D03*
%TD*%
D21*
%TO.P,R7,1*%
%TO.N,N/C*%
X32000000Y-36510000D03*
%TO.P,R7,2*%
X32000000Y-35490000D03*
%TD*%
%TO.P,R3,1*%
%TO.N,N/C*%
X38250000Y-42260000D03*
%TO.P,R3,2*%
X38250000Y-41240000D03*
%TD*%
D22*
%TO.P,C1,1*%
%TO.N,N/C*%
X69480000Y-74425000D03*
%TO.P,C1,2*%
X68520000Y-74425000D03*
%TD*%
D10*
%TO.P,J2,1,Pin_1*%
%TO.N,N/C*%
X52040000Y-95250000D03*
D11*
%TO.P,J2,2,Pin_2*%
X54580000Y-95250000D03*
%TD*%
D22*
%TO.P,C2,1*%
%TO.N,N/C*%
X51030000Y-47650000D03*
%TO.P,C2,2*%
X50070000Y-47650000D03*
%TD*%
D23*
%TO.P,R1,1*%
%TO.N,N/C*%
X33000000Y-71240000D03*
%TO.P,R1,2*%
X33000000Y-72260000D03*
%TD*%
%TO.P,R1,1*%
%TO.N,N/C*%
X33000000Y-56240000D03*
%TO.P,R1,2*%
X33000000Y-57260000D03*
%TD*%
D10*
%TO.P,J2,1,Pin_1*%
%TO.N,N/C*%
X37040000Y-95250000D03*
D11*
%TO.P,J2,2,Pin_2*%
X39580000Y-95250000D03*
%TD*%
D21*
%TO.P,R4,1*%
%TO.N,N/C*%
X91260000Y-74260000D03*
%TO.P,R4,2*%
X91260000Y-73240000D03*
%TD*%
D26*
%TO.P,U1,1,SCL*%
%TO.N,N/C*%
X64590000Y-42200000D03*
%TO.P,U1,2,GND*%
X64590000Y-43150000D03*
%TO.P,U1,3,GND*%
X64590000Y-44100000D03*
%TO.P,U1,4,VCC*%
X66910000Y-44100000D03*
%TO.P,U1,5,GND*%
X66910000Y-43150000D03*
%TO.P,U1,6,SDA*%
X66910000Y-42200000D03*
%TD*%
D22*
%TO.P,C3,1*%
%TO.N,N/C*%
X36030000Y-46650000D03*
%TO.P,C3,2*%
X35070000Y-46650000D03*
%TD*%
D27*
%TO.P,D1,1,K*%
%TO.N,N/C*%
X84750000Y-88037500D03*
%TO.P,D1,2,A*%
X84750000Y-86462500D03*
%TD*%
D21*
%TO.P,R5,1*%
%TO.N,N/C*%
X41050000Y-43260000D03*
%TO.P,R5,2*%
X41050000Y-42240000D03*
%TD*%
D22*
%TO.P,C2,1*%
%TO.N,N/C*%
X66030000Y-47650000D03*
%TO.P,C2,2*%
X65070000Y-47650000D03*
%TD*%
D27*
%TO.P,D1,1,K*%
%TO.N,N/C*%
X84750000Y-43037500D03*
%TO.P,D1,2,A*%
X84750000Y-41462500D03*
%TD*%
D21*
%TO.P,R4,1*%
%TO.N,N/C*%
X91260000Y-59260000D03*
%TO.P,R4,2*%
X91260000Y-58240000D03*
%TD*%
D22*
%TO.P,C1,1*%
%TO.N,N/C*%
X54480000Y-74425000D03*
%TO.P,C1,2*%
X53520000Y-74425000D03*
%TD*%
D23*
%TO.P,R1,1*%
%TO.N,N/C*%
X33000000Y-86240000D03*
%TO.P,R1,2*%
X33000000Y-87260000D03*
%TD*%
D22*
%TO.P,C2,1*%
%TO.N,N/C*%
X81030000Y-92650000D03*
%TO.P,C2,2*%
X80070000Y-92650000D03*
%TD*%
D21*
%TO.P,R4,1*%
%TO.N,N/C*%
X76260000Y-89260000D03*
%TO.P,R4,2*%
X76260000Y-88240000D03*
%TD*%
%TO.P,R7,1*%
%TO.N,N/C*%
X62000000Y-96510000D03*
%TO.P,R7,2*%
X62000000Y-95490000D03*
%TD*%
D22*
%TO.P,C1,1*%
%TO.N,N/C*%
X99480000Y-59425000D03*
%TO.P,C1,2*%
X98520000Y-59425000D03*
%TD*%
D21*
%TO.P,R7,1*%
%TO.N,N/C*%
X92000000Y-66510000D03*
%TO.P,R7,2*%
X92000000Y-65490000D03*
%TD*%
D27*
%TO.P,D1,1,K*%
%TO.N,N/C*%
X39750000Y-43037500D03*
%TO.P,D1,2,A*%
X39750000Y-41462500D03*
%TD*%
D26*
%TO.P,U1,1,SCL*%
%TO.N,N/C*%
X79590000Y-42200000D03*
%TO.P,U1,2,GND*%
X79590000Y-43150000D03*
%TO.P,U1,3,GND*%
X79590000Y-44100000D03*
%TO.P,U1,4,VCC*%
X81910000Y-44100000D03*
%TO.P,U1,5,GND*%
X81910000Y-43150000D03*
%TO.P,U1,6,SDA*%
X81910000Y-42200000D03*
%TD*%
D21*
%TO.P,R4,1*%
%TO.N,N/C*%
X91260000Y-44260000D03*
%TO.P,R4,2*%
X91260000Y-43240000D03*
%TD*%
%TO.P,R5,1*%
%TO.N,N/C*%
X101050000Y-58260000D03*
%TO.P,R5,2*%
X101050000Y-57240000D03*
%TD*%
D23*
%TO.P,R2,1*%
%TO.N,N/C*%
X31250000Y-86240000D03*
%TO.P,R2,2*%
X31250000Y-87260000D03*
%TD*%
D26*
%TO.P,U1,1,SCL*%
%TO.N,N/C*%
X64590000Y-72200000D03*
%TO.P,U1,2,GND*%
X64590000Y-73150000D03*
%TO.P,U1,3,GND*%
X64590000Y-74100000D03*
%TO.P,U1,4,VCC*%
X66910000Y-74100000D03*
%TO.P,U1,5,GND*%
X66910000Y-73150000D03*
%TO.P,U1,6,SDA*%
X66910000Y-72200000D03*
%TD*%
D22*
%TO.P,C2,1*%
%TO.N,N/C*%
X36030000Y-92650000D03*
%TO.P,C2,2*%
X35070000Y-92650000D03*
%TD*%
D21*
%TO.P,R3,1*%
%TO.N,N/C*%
X68250000Y-102260000D03*
%TO.P,R3,2*%
X68250000Y-101240000D03*
%TD*%
D24*
%TO.P,U2,1,SCL/SPC*%
%TO.N,N/C*%
X62487500Y-32250000D03*
%TO.P,U2,2,~{CS}*%
X62487500Y-32750000D03*
%TO.P,U2,3,SDO/SA0*%
X62487500Y-33250000D03*
%TO.P,U2,4,SDA/SDI/SDO*%
X62487500Y-33750000D03*
D25*
%TO.P,U2,5,NC*%
X63000000Y-33762500D03*
%TO.P,U2,6,GND*%
X63500000Y-33762500D03*
D24*
%TO.P,U2,7,RES*%
X64012500Y-33750000D03*
%TO.P,U2,8,GND*%
X64012500Y-33250000D03*
%TO.P,U2,9,Vdd*%
X64012500Y-32750000D03*
%TO.P,U2,10,Vdd_IO*%
X64012500Y-32250000D03*
D25*
%TO.P,U2,11,INT2*%
X63500000Y-32237500D03*
%TO.P,U2,12,INT1*%
X63000000Y-32237500D03*
%TD*%
D23*
%TO.P,R1,1*%
%TO.N,N/C*%
X48000000Y-86240000D03*
%TO.P,R1,2*%
X48000000Y-87260000D03*
%TD*%
D26*
%TO.P,U1,1,SCL*%
%TO.N,N/C*%
X64590000Y-87200000D03*
%TO.P,U1,2,GND*%
X64590000Y-88150000D03*
%TO.P,U1,3,GND*%
X64590000Y-89100000D03*
%TO.P,U1,4,VCC*%
X66910000Y-89100000D03*
%TO.P,U1,5,GND*%
X66910000Y-88150000D03*
%TO.P,U1,6,SDA*%
X66910000Y-87200000D03*
%TD*%
D23*
%TO.P,R1,1*%
%TO.N,N/C*%
X48000000Y-101240000D03*
%TO.P,R1,2*%
X48000000Y-102260000D03*
%TD*%
D27*
%TO.P,D1,1,K*%
%TO.N,N/C*%
X99750000Y-103037500D03*
%TO.P,D1,2,A*%
X99750000Y-101462500D03*
%TD*%
D21*
%TO.P,R6,1*%
%TO.N,N/C*%
X49500000Y-66510000D03*
%TO.P,R6,2*%
X49500000Y-65490000D03*
%TD*%
%TO.P,R7,1*%
%TO.N,N/C*%
X32000000Y-96510000D03*
%TO.P,R7,2*%
X32000000Y-95490000D03*
%TD*%
D27*
%TO.P,D1,1,K*%
%TO.N,N/C*%
X69750000Y-88037500D03*
%TO.P,D1,2,A*%
X69750000Y-86462500D03*
%TD*%
D10*
%TO.P,J2,1,Pin_1*%
%TO.N,N/C*%
X82040000Y-80250000D03*
D11*
%TO.P,J2,2,Pin_2*%
X84580000Y-80250000D03*
%TD*%
D27*
%TO.P,D1,1,K*%
%TO.N,N/C*%
X84750000Y-73037500D03*
%TO.P,D1,2,A*%
X84750000Y-71462500D03*
%TD*%
D26*
%TO.P,U1,1,SCL*%
%TO.N,N/C*%
X79590000Y-87200000D03*
%TO.P,U1,2,GND*%
X79590000Y-88150000D03*
%TO.P,U1,3,GND*%
X79590000Y-89100000D03*
%TO.P,U1,4,VCC*%
X81910000Y-89100000D03*
%TO.P,U1,5,GND*%
X81910000Y-88150000D03*
%TO.P,U1,6,SDA*%
X81910000Y-87200000D03*
%TD*%
D21*
%TO.P,R5,1*%
%TO.N,N/C*%
X41050000Y-58260000D03*
%TO.P,R5,2*%
X41050000Y-57240000D03*
%TD*%
%TO.P,R5,1*%
%TO.N,N/C*%
X56050000Y-58260000D03*
%TO.P,R5,2*%
X56050000Y-57240000D03*
%TD*%
%TO.P,R6,1*%
%TO.N,N/C*%
X64500000Y-96510000D03*
%TO.P,R6,2*%
X64500000Y-95490000D03*
%TD*%
D10*
%TO.P,J2,1,Pin_1*%
%TO.N,N/C*%
X67040000Y-65250000D03*
D11*
%TO.P,J2,2,Pin_2*%
X69580000Y-65250000D03*
%TD*%
D22*
%TO.P,C2,1*%
%TO.N,N/C*%
X66030000Y-32650000D03*
%TO.P,C2,2*%
X65070000Y-32650000D03*
%TD*%
D23*
%TO.P,R2,1*%
%TO.N,N/C*%
X31250000Y-71240000D03*
%TO.P,R2,2*%
X31250000Y-72260000D03*
%TD*%
D21*
%TO.P,R7,1*%
%TO.N,N/C*%
X92000000Y-96510000D03*
%TO.P,R7,2*%
X92000000Y-95490000D03*
%TD*%
%TO.P,R6,1*%
%TO.N,N/C*%
X49500000Y-81510000D03*
%TO.P,R6,2*%
X49500000Y-80490000D03*
%TD*%
D24*
%TO.P,U2,1,SCL/SPC*%
%TO.N,N/C*%
X47487500Y-32250000D03*
%TO.P,U2,2,~{CS}*%
X47487500Y-32750000D03*
%TO.P,U2,3,SDO/SA0*%
X47487500Y-33250000D03*
%TO.P,U2,4,SDA/SDI/SDO*%
X47487500Y-33750000D03*
D25*
%TO.P,U2,5,NC*%
X48000000Y-33762500D03*
%TO.P,U2,6,GND*%
X48500000Y-33762500D03*
D24*
%TO.P,U2,7,RES*%
X49012500Y-33750000D03*
%TO.P,U2,8,GND*%
X49012500Y-33250000D03*
%TO.P,U2,9,Vdd*%
X49012500Y-32750000D03*
%TO.P,U2,10,Vdd_IO*%
X49012500Y-32250000D03*
D25*
%TO.P,U2,11,INT2*%
X48500000Y-32237500D03*
%TO.P,U2,12,INT1*%
X48000000Y-32237500D03*
%TD*%
D22*
%TO.P,C3,1*%
%TO.N,N/C*%
X81030000Y-91650000D03*
%TO.P,C3,2*%
X80070000Y-91650000D03*
%TD*%
D27*
%TO.P,D1,1,K*%
%TO.N,N/C*%
X54750000Y-88037500D03*
%TO.P,D1,2,A*%
X54750000Y-86462500D03*
%TD*%
D21*
%TO.P,R7,1*%
%TO.N,N/C*%
X77000000Y-51510000D03*
%TO.P,R7,2*%
X77000000Y-50490000D03*
%TD*%
%TO.P,R5,1*%
%TO.N,N/C*%
X86050000Y-88260000D03*
%TO.P,R5,2*%
X86050000Y-87240000D03*
%TD*%
%TO.P,R5,1*%
%TO.N,N/C*%
X56050000Y-103260000D03*
%TO.P,R5,2*%
X56050000Y-102240000D03*
%TD*%
%TO.P,R3,1*%
%TO.N,N/C*%
X83250000Y-72260000D03*
%TO.P,R3,2*%
X83250000Y-71240000D03*
%TD*%
D22*
%TO.P,C2,1*%
%TO.N,N/C*%
X36030000Y-47650000D03*
%TO.P,C2,2*%
X35070000Y-47650000D03*
%TD*%
D23*
%TO.P,R1,1*%
%TO.N,N/C*%
X33000000Y-101240000D03*
%TO.P,R1,2*%
X33000000Y-102260000D03*
%TD*%
D26*
%TO.P,U1,1,SCL*%
%TO.N,N/C*%
X79590000Y-102200000D03*
%TO.P,U1,2,GND*%
X79590000Y-103150000D03*
%TO.P,U1,3,GND*%
X79590000Y-104100000D03*
%TO.P,U1,4,VCC*%
X81910000Y-104100000D03*
%TO.P,U1,5,GND*%
X81910000Y-103150000D03*
%TO.P,U1,6,SDA*%
X81910000Y-102200000D03*
%TD*%
D24*
%TO.P,U2,1,SCL/SPC*%
%TO.N,N/C*%
X47487500Y-47250000D03*
%TO.P,U2,2,~{CS}*%
X47487500Y-47750000D03*
%TO.P,U2,3,SDO/SA0*%
X47487500Y-48250000D03*
%TO.P,U2,4,SDA/SDI/SDO*%
X47487500Y-48750000D03*
D25*
%TO.P,U2,5,NC*%
X48000000Y-48762500D03*
%TO.P,U2,6,GND*%
X48500000Y-48762500D03*
D24*
%TO.P,U2,7,RES*%
X49012500Y-48750000D03*
%TO.P,U2,8,GND*%
X49012500Y-48250000D03*
%TO.P,U2,9,Vdd*%
X49012500Y-47750000D03*
%TO.P,U2,10,Vdd_IO*%
X49012500Y-47250000D03*
D25*
%TO.P,U2,11,INT2*%
X48500000Y-47237500D03*
%TO.P,U2,12,INT1*%
X48000000Y-47237500D03*
%TD*%
D21*
%TO.P,R3,1*%
%TO.N,N/C*%
X53250000Y-72260000D03*
%TO.P,R3,2*%
X53250000Y-71240000D03*
%TD*%
%TO.P,R3,1*%
%TO.N,N/C*%
X83250000Y-87260000D03*
%TO.P,R3,2*%
X83250000Y-86240000D03*
%TD*%
D22*
%TO.P,C2,1*%
%TO.N,N/C*%
X66030000Y-62650000D03*
%TO.P,C2,2*%
X65070000Y-62650000D03*
%TD*%
D10*
%TO.P,J2,1,Pin_1*%
%TO.N,N/C*%
X37040000Y-50250000D03*
D11*
%TO.P,J2,2,Pin_2*%
X39580000Y-50250000D03*
%TD*%
D21*
%TO.P,R4,1*%
%TO.N,N/C*%
X61260000Y-44260000D03*
%TO.P,R4,2*%
X61260000Y-43240000D03*
%TD*%
D22*
%TO.P,C3,1*%
%TO.N,N/C*%
X51030000Y-76650000D03*
%TO.P,C3,2*%
X50070000Y-76650000D03*
%TD*%
D10*
%TO.P,J2,1,Pin_1*%
%TO.N,N/C*%
X97040000Y-65250000D03*
D11*
%TO.P,J2,2,Pin_2*%
X99580000Y-65250000D03*
%TD*%
D22*
%TO.P,C1,1*%
%TO.N,N/C*%
X84480000Y-59425000D03*
%TO.P,C1,2*%
X83520000Y-59425000D03*
%TD*%
D24*
%TO.P,U2,1,SCL/SPC*%
%TO.N,N/C*%
X62487500Y-62250000D03*
%TO.P,U2,2,~{CS}*%
X62487500Y-62750000D03*
%TO.P,U2,3,SDO/SA0*%
X62487500Y-63250000D03*
%TO.P,U2,4,SDA/SDI/SDO*%
X62487500Y-63750000D03*
D25*
%TO.P,U2,5,NC*%
X63000000Y-63762500D03*
%TO.P,U2,6,GND*%
X63500000Y-63762500D03*
D24*
%TO.P,U2,7,RES*%
X64012500Y-63750000D03*
%TO.P,U2,8,GND*%
X64012500Y-63250000D03*
%TO.P,U2,9,Vdd*%
X64012500Y-62750000D03*
%TO.P,U2,10,Vdd_IO*%
X64012500Y-62250000D03*
D25*
%TO.P,U2,11,INT2*%
X63500000Y-62237500D03*
%TO.P,U2,12,INT1*%
X63000000Y-62237500D03*
%TD*%
D27*
%TO.P,D1,1,K*%
%TO.N,N/C*%
X84750000Y-58037500D03*
%TO.P,D1,2,A*%
X84750000Y-56462500D03*
%TD*%
D22*
%TO.P,C3,1*%
%TO.N,N/C*%
X66030000Y-91650000D03*
%TO.P,C3,2*%
X65070000Y-91650000D03*
%TD*%
D27*
%TO.P,D1,1,K*%
%TO.N,N/C*%
X99750000Y-88037500D03*
%TO.P,D1,2,A*%
X99750000Y-86462500D03*
%TD*%
D22*
%TO.P,C3,1*%
%TO.N,N/C*%
X51030000Y-91650000D03*
%TO.P,C3,2*%
X50070000Y-91650000D03*
%TD*%
D23*
%TO.P,R2,1*%
%TO.N,N/C*%
X61250000Y-71240000D03*
%TO.P,R2,2*%
X61250000Y-72260000D03*
%TD*%
%TO.P,R2,1*%
%TO.N,N/C*%
X76250000Y-71240000D03*
%TO.P,R2,2*%
X76250000Y-72260000D03*
%TD*%
D24*
%TO.P,U2,1,SCL/SPC*%
%TO.N,N/C*%
X62487500Y-47250000D03*
%TO.P,U2,2,~{CS}*%
X62487500Y-47750000D03*
%TO.P,U2,3,SDO/SA0*%
X62487500Y-48250000D03*
%TO.P,U2,4,SDA/SDI/SDO*%
X62487500Y-48750000D03*
D25*
%TO.P,U2,5,NC*%
X63000000Y-48762500D03*
%TO.P,U2,6,GND*%
X63500000Y-48762500D03*
D24*
%TO.P,U2,7,RES*%
X64012500Y-48750000D03*
%TO.P,U2,8,GND*%
X64012500Y-48250000D03*
%TO.P,U2,9,Vdd*%
X64012500Y-47750000D03*
%TO.P,U2,10,Vdd_IO*%
X64012500Y-47250000D03*
D25*
%TO.P,U2,11,INT2*%
X63500000Y-47237500D03*
%TO.P,U2,12,INT1*%
X63000000Y-47237500D03*
%TD*%
D10*
%TO.P,J2,1,Pin_1*%
%TO.N,N/C*%
X97040000Y-80250000D03*
D11*
%TO.P,J2,2,Pin_2*%
X99580000Y-80250000D03*
%TD*%
D22*
%TO.P,C2,1*%
%TO.N,N/C*%
X51030000Y-77650000D03*
%TO.P,C2,2*%
X50070000Y-77650000D03*
%TD*%
D10*
%TO.P,J2,1,Pin_1*%
%TO.N,N/C*%
X82040000Y-65250000D03*
D11*
%TO.P,J2,2,Pin_2*%
X84580000Y-65250000D03*
%TD*%
D23*
%TO.P,R2,1*%
%TO.N,N/C*%
X31250000Y-41240000D03*
%TO.P,R2,2*%
X31250000Y-42260000D03*
%TD*%
D22*
%TO.P,C1,1*%
%TO.N,N/C*%
X54480000Y-44425000D03*
%TO.P,C1,2*%
X53520000Y-44425000D03*
%TD*%
D21*
%TO.P,R5,1*%
%TO.N,N/C*%
X71050000Y-73260000D03*
%TO.P,R5,2*%
X71050000Y-72240000D03*
%TD*%
D23*
%TO.P,R2,1*%
%TO.N,N/C*%
X31250000Y-56240000D03*
%TO.P,R2,2*%
X31250000Y-57260000D03*
%TD*%
D24*
%TO.P,U2,1,SCL/SPC*%
%TO.N,N/C*%
X92487500Y-47250000D03*
%TO.P,U2,2,~{CS}*%
X92487500Y-47750000D03*
%TO.P,U2,3,SDO/SA0*%
X92487500Y-48250000D03*
%TO.P,U2,4,SDA/SDI/SDO*%
X92487500Y-48750000D03*
D25*
%TO.P,U2,5,NC*%
X93000000Y-48762500D03*
%TO.P,U2,6,GND*%
X93500000Y-48762500D03*
D24*
%TO.P,U2,7,RES*%
X94012500Y-48750000D03*
%TO.P,U2,8,GND*%
X94012500Y-48250000D03*
%TO.P,U2,9,Vdd*%
X94012500Y-47750000D03*
%TO.P,U2,10,Vdd_IO*%
X94012500Y-47250000D03*
D25*
%TO.P,U2,11,INT2*%
X93500000Y-47237500D03*
%TO.P,U2,12,INT1*%
X93000000Y-47237500D03*
%TD*%
D23*
%TO.P,R1,1*%
%TO.N,N/C*%
X48000000Y-41240000D03*
%TO.P,R1,2*%
X48000000Y-42260000D03*
%TD*%
D21*
%TO.P,R3,1*%
%TO.N,N/C*%
X98250000Y-87260000D03*
%TO.P,R3,2*%
X98250000Y-86240000D03*
%TD*%
D23*
%TO.P,R1,1*%
%TO.N,N/C*%
X93000000Y-101240000D03*
%TO.P,R1,2*%
X93000000Y-102260000D03*
%TD*%
D21*
%TO.P,R6,1*%
%TO.N,N/C*%
X49500000Y-96510000D03*
%TO.P,R6,2*%
X49500000Y-95490000D03*
%TD*%
D23*
%TO.P,R2,1*%
%TO.N,N/C*%
X76250000Y-41240000D03*
%TO.P,R2,2*%
X76250000Y-42260000D03*
%TD*%
D21*
%TO.P,R3,1*%
%TO.N,N/C*%
X38250000Y-102260000D03*
%TO.P,R3,2*%
X38250000Y-101240000D03*
%TD*%
D26*
%TO.P,U1,1,SCL*%
%TO.N,N/C*%
X49590000Y-87200000D03*
%TO.P,U1,2,GND*%
X49590000Y-88150000D03*
%TO.P,U1,3,GND*%
X49590000Y-89100000D03*
%TO.P,U1,4,VCC*%
X51910000Y-89100000D03*
%TO.P,U1,5,GND*%
X51910000Y-88150000D03*
%TO.P,U1,6,SDA*%
X51910000Y-87200000D03*
%TD*%
D23*
%TO.P,R1,1*%
%TO.N,N/C*%
X63000000Y-41240000D03*
%TO.P,R1,2*%
X63000000Y-42260000D03*
%TD*%
D24*
%TO.P,U2,1,SCL/SPC*%
%TO.N,N/C*%
X92487500Y-32250000D03*
%TO.P,U2,2,~{CS}*%
X92487500Y-32750000D03*
%TO.P,U2,3,SDO/SA0*%
X92487500Y-33250000D03*
%TO.P,U2,4,SDA/SDI/SDO*%
X92487500Y-33750000D03*
D25*
%TO.P,U2,5,NC*%
X93000000Y-33762500D03*
%TO.P,U2,6,GND*%
X93500000Y-33762500D03*
D24*
%TO.P,U2,7,RES*%
X94012500Y-33750000D03*
%TO.P,U2,8,GND*%
X94012500Y-33250000D03*
%TO.P,U2,9,Vdd*%
X94012500Y-32750000D03*
%TO.P,U2,10,Vdd_IO*%
X94012500Y-32250000D03*
D25*
%TO.P,U2,11,INT2*%
X93500000Y-32237500D03*
%TO.P,U2,12,INT1*%
X93000000Y-32237500D03*
%TD*%
D21*
%TO.P,R7,1*%
%TO.N,N/C*%
X62000000Y-81510000D03*
%TO.P,R7,2*%
X62000000Y-80490000D03*
%TD*%
D23*
%TO.P,R1,1*%
%TO.N,N/C*%
X78000000Y-86240000D03*
%TO.P,R1,2*%
X78000000Y-87260000D03*
%TD*%
%TO.P,R2,1*%
%TO.N,N/C*%
X46250000Y-41240000D03*
%TO.P,R2,2*%
X46250000Y-42260000D03*
%TD*%
D26*
%TO.P,U1,1,SCL*%
%TO.N,N/C*%
X34590000Y-42200000D03*
%TO.P,U1,2,GND*%
X34590000Y-43150000D03*
%TO.P,U1,3,GND*%
X34590000Y-44100000D03*
%TO.P,U1,4,VCC*%
X36910000Y-44100000D03*
%TO.P,U1,5,GND*%
X36910000Y-43150000D03*
%TO.P,U1,6,SDA*%
X36910000Y-42200000D03*
%TD*%
D23*
%TO.P,R2,1*%
%TO.N,N/C*%
X91250000Y-71240000D03*
%TO.P,R2,2*%
X91250000Y-72260000D03*
%TD*%
%TO.P,R2,1*%
%TO.N,N/C*%
X46250000Y-71240000D03*
%TO.P,R2,2*%
X46250000Y-72260000D03*
%TD*%
D21*
%TO.P,R3,1*%
%TO.N,N/C*%
X53250000Y-57260000D03*
%TO.P,R3,2*%
X53250000Y-56240000D03*
%TD*%
%TO.P,R7,1*%
%TO.N,N/C*%
X47000000Y-81510000D03*
%TO.P,R7,2*%
X47000000Y-80490000D03*
%TD*%
%TO.P,R5,1*%
%TO.N,N/C*%
X56050000Y-88260000D03*
%TO.P,R5,2*%
X56050000Y-87240000D03*
%TD*%
%TO.P,R3,1*%
%TO.N,N/C*%
X68250000Y-57260000D03*
%TO.P,R3,2*%
X68250000Y-56240000D03*
%TD*%
D24*
%TO.P,U2,1,SCL/SPC*%
%TO.N,N/C*%
X47487500Y-62250000D03*
%TO.P,U2,2,~{CS}*%
X47487500Y-62750000D03*
%TO.P,U2,3,SDO/SA0*%
X47487500Y-63250000D03*
%TO.P,U2,4,SDA/SDI/SDO*%
X47487500Y-63750000D03*
D25*
%TO.P,U2,5,NC*%
X48000000Y-63762500D03*
%TO.P,U2,6,GND*%
X48500000Y-63762500D03*
D24*
%TO.P,U2,7,RES*%
X49012500Y-63750000D03*
%TO.P,U2,8,GND*%
X49012500Y-63250000D03*
%TO.P,U2,9,Vdd*%
X49012500Y-62750000D03*
%TO.P,U2,10,Vdd_IO*%
X49012500Y-62250000D03*
D25*
%TO.P,U2,11,INT2*%
X48500000Y-62237500D03*
%TO.P,U2,12,INT1*%
X48000000Y-62237500D03*
%TD*%
D21*
%TO.P,R6,1*%
%TO.N,N/C*%
X34500000Y-36510000D03*
%TO.P,R6,2*%
X34500000Y-35490000D03*
%TD*%
D22*
%TO.P,C2,1*%
%TO.N,N/C*%
X36030000Y-32650000D03*
%TO.P,C2,2*%
X35070000Y-32650000D03*
%TD*%
D21*
%TO.P,R4,1*%
%TO.N,N/C*%
X61260000Y-104260000D03*
%TO.P,R4,2*%
X61260000Y-103240000D03*
%TD*%
%TO.P,R7,1*%
%TO.N,N/C*%
X47000000Y-66510000D03*
%TO.P,R7,2*%
X47000000Y-65490000D03*
%TD*%
D10*
%TO.P,J2,1,Pin_1*%
%TO.N,N/C*%
X52040000Y-65250000D03*
D11*
%TO.P,J2,2,Pin_2*%
X54580000Y-65250000D03*
%TD*%
D24*
%TO.P,U2,1,SCL/SPC*%
%TO.N,N/C*%
X77487500Y-77250000D03*
%TO.P,U2,2,~{CS}*%
X77487500Y-77750000D03*
%TO.P,U2,3,SDO/SA0*%
X77487500Y-78250000D03*
%TO.P,U2,4,SDA/SDI/SDO*%
X77487500Y-78750000D03*
D25*
%TO.P,U2,5,NC*%
X78000000Y-78762500D03*
%TO.P,U2,6,GND*%
X78500000Y-78762500D03*
D24*
%TO.P,U2,7,RES*%
X79012500Y-78750000D03*
%TO.P,U2,8,GND*%
X79012500Y-78250000D03*
%TO.P,U2,9,Vdd*%
X79012500Y-77750000D03*
%TO.P,U2,10,Vdd_IO*%
X79012500Y-77250000D03*
D25*
%TO.P,U2,11,INT2*%
X78500000Y-77237500D03*
%TO.P,U2,12,INT1*%
X78000000Y-77237500D03*
%TD*%
D22*
%TO.P,C1,1*%
%TO.N,N/C*%
X69480000Y-104425000D03*
%TO.P,C1,2*%
X68520000Y-104425000D03*
%TD*%
D23*
%TO.P,R1,1*%
%TO.N,N/C*%
X93000000Y-86240000D03*
%TO.P,R1,2*%
X93000000Y-87260000D03*
%TD*%
D22*
%TO.P,C1,1*%
%TO.N,N/C*%
X99480000Y-104425000D03*
%TO.P,C1,2*%
X98520000Y-104425000D03*
%TD*%
D26*
%TO.P,U1,1,SCL*%
%TO.N,N/C*%
X94590000Y-57200000D03*
%TO.P,U1,2,GND*%
X94590000Y-58150000D03*
%TO.P,U1,3,GND*%
X94590000Y-59100000D03*
%TO.P,U1,4,VCC*%
X96910000Y-59100000D03*
%TO.P,U1,5,GND*%
X96910000Y-58150000D03*
%TO.P,U1,6,SDA*%
X96910000Y-57200000D03*
%TD*%
D21*
%TO.P,R3,1*%
%TO.N,N/C*%
X38250000Y-57260000D03*
%TO.P,R3,2*%
X38250000Y-56240000D03*
%TD*%
D22*
%TO.P,C1,1*%
%TO.N,N/C*%
X69480000Y-44425000D03*
%TO.P,C1,2*%
X68520000Y-44425000D03*
%TD*%
%TO.P,C2,1*%
%TO.N,N/C*%
X51030000Y-62650000D03*
%TO.P,C2,2*%
X50070000Y-62650000D03*
%TD*%
%TO.P,C3,1*%
%TO.N,N/C*%
X51030000Y-31650000D03*
%TO.P,C3,2*%
X50070000Y-31650000D03*
%TD*%
%TO.P,C3,1*%
%TO.N,N/C*%
X66030000Y-61650000D03*
%TO.P,C3,2*%
X65070000Y-61650000D03*
%TD*%
D21*
%TO.P,R5,1*%
%TO.N,N/C*%
X71050000Y-43260000D03*
%TO.P,R5,2*%
X71050000Y-42240000D03*
%TD*%
D26*
%TO.P,U1,1,SCL*%
%TO.N,N/C*%
X34590000Y-72200000D03*
%TO.P,U1,2,GND*%
X34590000Y-73150000D03*
%TO.P,U1,3,GND*%
X34590000Y-74100000D03*
%TO.P,U1,4,VCC*%
X36910000Y-74100000D03*
%TO.P,U1,5,GND*%
X36910000Y-73150000D03*
%TO.P,U1,6,SDA*%
X36910000Y-72200000D03*
%TD*%
D22*
%TO.P,C1,1*%
%TO.N,N/C*%
X54480000Y-59425000D03*
%TO.P,C1,2*%
X53520000Y-59425000D03*
%TD*%
%TO.P,C1,1*%
%TO.N,N/C*%
X84480000Y-104425000D03*
%TO.P,C1,2*%
X83520000Y-104425000D03*
%TD*%
D21*
%TO.P,R6,1*%
%TO.N,N/C*%
X64500000Y-66510000D03*
%TO.P,R6,2*%
X64500000Y-65490000D03*
%TD*%
D23*
%TO.P,R1,1*%
%TO.N,N/C*%
X93000000Y-41240000D03*
%TO.P,R1,2*%
X93000000Y-42260000D03*
%TD*%
D22*
%TO.P,C1,1*%
%TO.N,N/C*%
X69480000Y-89425000D03*
%TO.P,C1,2*%
X68520000Y-89425000D03*
%TD*%
%TO.P,C3,1*%
%TO.N,N/C*%
X66030000Y-46650000D03*
%TO.P,C3,2*%
X65070000Y-46650000D03*
%TD*%
D21*
%TO.P,R6,1*%
%TO.N,N/C*%
X34500000Y-51510000D03*
%TO.P,R6,2*%
X34500000Y-50490000D03*
%TD*%
D22*
%TO.P,C3,1*%
%TO.N,N/C*%
X36030000Y-76650000D03*
%TO.P,C3,2*%
X35070000Y-76650000D03*
%TD*%
%TO.P,C1,1*%
%TO.N,N/C*%
X69480000Y-59425000D03*
%TO.P,C1,2*%
X68520000Y-59425000D03*
%TD*%
D24*
%TO.P,U2,1,SCL/SPC*%
%TO.N,N/C*%
X62487500Y-92250000D03*
%TO.P,U2,2,~{CS}*%
X62487500Y-92750000D03*
%TO.P,U2,3,SDO/SA0*%
X62487500Y-93250000D03*
%TO.P,U2,4,SDA/SDI/SDO*%
X62487500Y-93750000D03*
D25*
%TO.P,U2,5,NC*%
X63000000Y-93762500D03*
%TO.P,U2,6,GND*%
X63500000Y-93762500D03*
D24*
%TO.P,U2,7,RES*%
X64012500Y-93750000D03*
%TO.P,U2,8,GND*%
X64012500Y-93250000D03*
%TO.P,U2,9,Vdd*%
X64012500Y-92750000D03*
%TO.P,U2,10,Vdd_IO*%
X64012500Y-92250000D03*
D25*
%TO.P,U2,11,INT2*%
X63500000Y-92237500D03*
%TO.P,U2,12,INT1*%
X63000000Y-92237500D03*
%TD*%
D27*
%TO.P,D1,1,K*%
%TO.N,N/C*%
X39750000Y-88037500D03*
%TO.P,D1,2,A*%
X39750000Y-86462500D03*
%TD*%
D22*
%TO.P,C2,1*%
%TO.N,N/C*%
X36030000Y-77650000D03*
%TO.P,C2,2*%
X35070000Y-77650000D03*
%TD*%
D24*
%TO.P,U2,1,SCL/SPC*%
%TO.N,N/C*%
X77487500Y-92250000D03*
%TO.P,U2,2,~{CS}*%
X77487500Y-92750000D03*
%TO.P,U2,3,SDO/SA0*%
X77487500Y-93250000D03*
%TO.P,U2,4,SDA/SDI/SDO*%
X77487500Y-93750000D03*
D25*
%TO.P,U2,5,NC*%
X78000000Y-93762500D03*
%TO.P,U2,6,GND*%
X78500000Y-93762500D03*
D24*
%TO.P,U2,7,RES*%
X79012500Y-93750000D03*
%TO.P,U2,8,GND*%
X79012500Y-93250000D03*
%TO.P,U2,9,Vdd*%
X79012500Y-92750000D03*
%TO.P,U2,10,Vdd_IO*%
X79012500Y-92250000D03*
D25*
%TO.P,U2,11,INT2*%
X78500000Y-92237500D03*
%TO.P,U2,12,INT1*%
X78000000Y-92237500D03*
%TD*%
D21*
%TO.P,R4,1*%
%TO.N,N/C*%
X46260000Y-104260000D03*
%TO.P,R4,2*%
X46260000Y-103240000D03*
%TD*%
%TO.P,R5,1*%
%TO.N,N/C*%
X101050000Y-88260000D03*
%TO.P,R5,2*%
X101050000Y-87240000D03*
%TD*%
D22*
%TO.P,C3,1*%
%TO.N,N/C*%
X81030000Y-76650000D03*
%TO.P,C3,2*%
X80070000Y-76650000D03*
%TD*%
%TO.P,C1,1*%
%TO.N,N/C*%
X84480000Y-44425000D03*
%TO.P,C1,2*%
X83520000Y-44425000D03*
%TD*%
D21*
%TO.P,R6,1*%
%TO.N,N/C*%
X79500000Y-66510000D03*
%TO.P,R6,2*%
X79500000Y-65490000D03*
%TD*%
D24*
%TO.P,U2,1,SCL/SPC*%
%TO.N,N/C*%
X47487500Y-92250000D03*
%TO.P,U2,2,~{CS}*%
X47487500Y-92750000D03*
%TO.P,U2,3,SDO/SA0*%
X47487500Y-93250000D03*
%TO.P,U2,4,SDA/SDI/SDO*%
X47487500Y-93750000D03*
D25*
%TO.P,U2,5,NC*%
X48000000Y-93762500D03*
%TO.P,U2,6,GND*%
X48500000Y-93762500D03*
D24*
%TO.P,U2,7,RES*%
X49012500Y-93750000D03*
%TO.P,U2,8,GND*%
X49012500Y-93250000D03*
%TO.P,U2,9,Vdd*%
X49012500Y-92750000D03*
%TO.P,U2,10,Vdd_IO*%
X49012500Y-92250000D03*
D25*
%TO.P,U2,11,INT2*%
X48500000Y-92237500D03*
%TO.P,U2,12,INT1*%
X48000000Y-92237500D03*
%TD*%
D27*
%TO.P,D1,1,K*%
%TO.N,N/C*%
X39750000Y-58037500D03*
%TO.P,D1,2,A*%
X39750000Y-56462500D03*
%TD*%
D22*
%TO.P,C2,1*%
%TO.N,N/C*%
X81030000Y-32650000D03*
%TO.P,C2,2*%
X80070000Y-32650000D03*
%TD*%
D26*
%TO.P,U1,1,SCL*%
%TO.N,N/C*%
X49590000Y-102200000D03*
%TO.P,U1,2,GND*%
X49590000Y-103150000D03*
%TO.P,U1,3,GND*%
X49590000Y-104100000D03*
%TO.P,U1,4,VCC*%
X51910000Y-104100000D03*
%TO.P,U1,5,GND*%
X51910000Y-103150000D03*
%TO.P,U1,6,SDA*%
X51910000Y-102200000D03*
%TD*%
D10*
%TO.P,J2,1,Pin_1*%
%TO.N,N/C*%
X82040000Y-50250000D03*
D11*
%TO.P,J2,2,Pin_2*%
X84580000Y-50250000D03*
%TD*%
D21*
%TO.P,R5,1*%
%TO.N,N/C*%
X86050000Y-103260000D03*
%TO.P,R5,2*%
X86050000Y-102240000D03*
%TD*%
%TO.P,R6,1*%
%TO.N,N/C*%
X34500000Y-81510000D03*
%TO.P,R6,2*%
X34500000Y-80490000D03*
%TD*%
D28*
%TO.N,*%
X134380000Y-66880000D03*
X136153815Y-67629217D03*
X136130000Y-66630000D03*
X143137299Y-69637299D03*
X142831788Y-71450500D03*
X141245497Y-69874500D03*
X146730000Y-86900000D03*
X146730000Y-91400000D03*
X142852299Y-67422299D03*
X132980000Y-64650000D03*
X145330000Y-45150000D03*
X141427700Y-66797700D03*
X80737182Y-87051780D03*
X80960500Y-88109098D03*
X55500000Y-104425000D03*
X85500000Y-89425000D03*
X53155523Y-103190121D03*
X77250000Y-89250000D03*
X50727701Y-104247299D03*
X86050000Y-86250000D03*
X56050000Y-101250000D03*
X50737182Y-102051780D03*
X98155523Y-88190121D03*
X50960500Y-103109098D03*
X38155523Y-103190121D03*
X35727701Y-104247299D03*
X41050000Y-101250000D03*
X35960500Y-103109098D03*
X32250000Y-104250000D03*
X101050000Y-86250000D03*
X70500000Y-89425000D03*
X95737182Y-87051780D03*
X96750000Y-77650000D03*
X95960500Y-88109098D03*
X83155523Y-88190121D03*
X100500000Y-89425000D03*
X81750000Y-77650000D03*
X65727701Y-89247299D03*
X66750000Y-77650000D03*
X36750000Y-92650000D03*
X95727701Y-89247299D03*
X80727701Y-89247299D03*
X92250000Y-89250000D03*
X40500000Y-104425000D03*
X47250000Y-104250000D03*
X35737182Y-102051780D03*
X65737182Y-87051780D03*
X68155523Y-88190121D03*
X71050000Y-86250000D03*
X65960500Y-88109098D03*
X62250000Y-89250000D03*
X51750000Y-77650000D03*
X50727701Y-89247299D03*
X55500000Y-89425000D03*
X56050000Y-86250000D03*
X53155523Y-88190121D03*
X47250000Y-89250000D03*
X38155523Y-88190121D03*
X35737182Y-87051780D03*
X40500000Y-89425000D03*
X100500000Y-74425000D03*
X41050000Y-86250000D03*
X98155523Y-73190121D03*
X80727701Y-74247299D03*
X83155523Y-73190121D03*
X65727701Y-74247299D03*
X35737182Y-72051780D03*
X35727701Y-74247299D03*
X53155523Y-73190121D03*
X47250000Y-74250000D03*
X100500000Y-59425000D03*
X36750000Y-62650000D03*
X65737182Y-72051780D03*
X101050000Y-56250000D03*
X40500000Y-74425000D03*
X50737182Y-72051780D03*
X35727701Y-89247299D03*
X41050000Y-71250000D03*
X35960500Y-73109098D03*
X36750000Y-77650000D03*
X35960500Y-88109098D03*
X95737182Y-72051780D03*
X71050000Y-71250000D03*
X92250000Y-74250000D03*
X80960500Y-73109098D03*
X56050000Y-71250000D03*
X51750000Y-62650000D03*
X66750000Y-62650000D03*
X50960500Y-73109098D03*
X32250000Y-89250000D03*
X50727701Y-74247299D03*
X101050000Y-71250000D03*
X86050000Y-71250000D03*
X95727701Y-74247299D03*
X70500000Y-74425000D03*
X77250000Y-74250000D03*
X32250000Y-74250000D03*
X50737182Y-87051780D03*
X65960500Y-73109098D03*
X62250000Y-74250000D03*
X38155523Y-73190121D03*
X68155523Y-73190121D03*
X50960500Y-88109098D03*
X95960500Y-73109098D03*
X81750000Y-62650000D03*
X85500000Y-74425000D03*
X96750000Y-47650000D03*
X98155523Y-58190121D03*
X96750000Y-62650000D03*
X55500000Y-74425000D03*
X80737182Y-72051780D03*
X95737182Y-57051780D03*
X95727701Y-59247299D03*
X95960500Y-58109098D03*
X92250000Y-59250000D03*
X86050000Y-56250000D03*
X83155523Y-58190121D03*
X85500000Y-59425000D03*
X80727701Y-59247299D03*
X81750000Y-47650000D03*
X80960500Y-58109098D03*
X77250000Y-59250000D03*
X66750000Y-47650000D03*
X71050000Y-56250000D03*
X65737182Y-57051780D03*
X68155523Y-58190121D03*
X65727701Y-59247299D03*
X70500000Y-59425000D03*
X50727701Y-59247299D03*
X101050000Y-41250000D03*
X51750000Y-47650000D03*
X56050000Y-56250000D03*
X32250000Y-59250000D03*
X50960500Y-58109098D03*
X80960500Y-43109098D03*
X95960500Y-43109098D03*
X65960500Y-43109098D03*
X50727701Y-44247299D03*
X83155523Y-43190121D03*
X55500000Y-59425000D03*
X95727701Y-44247299D03*
X36750000Y-47650000D03*
X96750000Y-32650000D03*
X98155523Y-43190121D03*
X41050000Y-56250000D03*
X38155523Y-58190121D03*
X62250000Y-44250000D03*
X53155523Y-43190121D03*
X95737182Y-42051780D03*
X85500000Y-44425000D03*
X53155523Y-58190121D03*
X86050000Y-41250000D03*
X81750000Y-32650000D03*
X47250000Y-59250000D03*
X40500000Y-59425000D03*
X62250000Y-59250000D03*
X100500000Y-44425000D03*
X77250000Y-44250000D03*
X65737182Y-42051780D03*
X65727701Y-44247299D03*
X70500000Y-44425000D03*
X80737182Y-57051780D03*
X92250000Y-44250000D03*
X71050000Y-41250000D03*
X80727701Y-44247299D03*
X66750000Y-32650000D03*
X50737182Y-42051780D03*
X35737182Y-57051780D03*
X35960500Y-58109098D03*
X68155523Y-43190121D03*
X51750000Y-32650000D03*
X80737182Y-42051780D03*
X35727701Y-59247299D03*
X65960500Y-58109098D03*
X50737182Y-57051780D03*
X95727701Y-104247299D03*
X92250000Y-104250000D03*
X81750000Y-92650000D03*
X62250000Y-104250000D03*
X98155523Y-103190121D03*
X80960500Y-103109098D03*
X80737182Y-102051780D03*
X77250000Y-104250000D03*
X71050000Y-101250000D03*
X65727701Y-104247299D03*
X65960500Y-103109098D03*
X51750000Y-92650000D03*
X66750000Y-92650000D03*
X95737182Y-102051780D03*
X100500000Y-104425000D03*
X68155523Y-103190121D03*
X86050000Y-101250000D03*
X101050000Y-101250000D03*
X70500000Y-104425000D03*
X96750000Y-92650000D03*
X80727701Y-104247299D03*
X65737182Y-102051780D03*
X83155523Y-103190121D03*
X95960500Y-103109098D03*
X85500000Y-104425000D03*
X38155523Y-43190121D03*
X56050000Y-41250000D03*
X55500000Y-44425000D03*
X35737182Y-42051780D03*
X47250000Y-44250000D03*
X50960500Y-43109098D03*
X40500000Y-44425000D03*
X36750000Y-32650000D03*
X41050000Y-41250000D03*
X35727701Y-44247299D03*
X35960500Y-43109098D03*
X32250000Y-44250000D03*
%TD*%
D29*
%TO.N,*%
X145480000Y-48342500D02*
X145480000Y-46910000D01*
X132755000Y-67755000D02*
X133655000Y-66855000D01*
X144880000Y-84380000D02*
X144825000Y-84325000D01*
X136103912Y-67629217D02*
X135330000Y-66855305D01*
X135455000Y-71805000D02*
X135030000Y-72230000D01*
X144880000Y-85630000D02*
X144750000Y-85500000D01*
X132755000Y-80125000D02*
X132755000Y-67755000D01*
X146805000Y-80575000D02*
X146805000Y-71175000D01*
X145900000Y-84380000D02*
X145630000Y-84110000D01*
X134805000Y-66455000D02*
X134805000Y-65387500D01*
X136153815Y-67629217D02*
X136103912Y-67629217D01*
X146380000Y-65750000D02*
X147255000Y-64875000D01*
X147255000Y-64875000D02*
X147255000Y-56375000D01*
X134380000Y-66880000D02*
X134805000Y-66455000D01*
X132755000Y-73456903D02*
X132755000Y-80125000D01*
X145900000Y-85630000D02*
X145900000Y-84380000D01*
X141880000Y-81750000D02*
X138130000Y-81750000D01*
X135330000Y-66855305D02*
X135330000Y-65512500D01*
X140635000Y-84325000D02*
X139460000Y-85500000D01*
X144750000Y-85500000D02*
X142000000Y-85500000D01*
X133655000Y-65887500D02*
X134155000Y-65387500D01*
X135330000Y-65512500D02*
X135455000Y-65387500D01*
X144825000Y-84325000D02*
X140635000Y-84325000D01*
X144920000Y-90390000D02*
X145230000Y-90080000D01*
X138705000Y-63456701D02*
X139380000Y-62781701D01*
X134155000Y-70423959D02*
X134155000Y-71112500D01*
X136755000Y-63542919D02*
X135582081Y-62370000D01*
X135582081Y-62370000D02*
X134380000Y-62370000D01*
X143500000Y-68250000D02*
X142600000Y-69150000D01*
X145080000Y-70750000D02*
X143490000Y-70750000D01*
X135455000Y-71112500D02*
X135455000Y-71805000D01*
X145305000Y-89430000D02*
X146455000Y-89430000D01*
X134380000Y-60281701D02*
X134380000Y-59830000D01*
X146455000Y-89430000D02*
X146530000Y-89505000D01*
X134380000Y-85500000D02*
X140260000Y-91380000D01*
X145230000Y-89505000D02*
X145305000Y-89430000D01*
X134805000Y-70423959D02*
X134805000Y-71112500D01*
X139380000Y-62781701D02*
X139380000Y-61080000D01*
X145080000Y-68250000D02*
X143500000Y-68250000D01*
X139650000Y-69600000D02*
X134978959Y-69600000D01*
X145480000Y-49917500D02*
X145630000Y-50067500D01*
X146380000Y-70750000D02*
X146380000Y-68250000D01*
X146805000Y-71175000D02*
X146380000Y-70750000D01*
X147255000Y-56375000D02*
X145630000Y-54750000D01*
X134978959Y-69600000D02*
X134155000Y-70423959D01*
X135178959Y-70050000D02*
X134805000Y-70423959D01*
X145630000Y-50067500D02*
X145630000Y-54750000D01*
X145230000Y-87210000D02*
X144900000Y-86880000D01*
X143500000Y-65750000D02*
X139650000Y-69600000D01*
X145630000Y-54750000D02*
X141880000Y-54750000D01*
X141880000Y-54750000D02*
X138130000Y-54750000D01*
X145080000Y-65750000D02*
X143500000Y-65750000D01*
X136130000Y-65412500D02*
X136105000Y-65387500D01*
X135030000Y-72230000D02*
X133981903Y-72230000D01*
X133981903Y-72230000D02*
X132755000Y-73456903D01*
X146380000Y-68250000D02*
X146380000Y-65750000D01*
X140260000Y-91380000D02*
X144920000Y-91380000D01*
X144920000Y-91380000D02*
X144920000Y-90390000D01*
X137405000Y-63306701D02*
X134380000Y-60281701D01*
X137405000Y-65387500D02*
X137405000Y-63306701D01*
X136130000Y-66630000D02*
X136130000Y-65412500D01*
X138705000Y-65387500D02*
X138705000Y-63456701D01*
X139836396Y-70050000D02*
X135178959Y-70050000D01*
X139380000Y-61080000D02*
X138130000Y-59830000D01*
X145230000Y-88180000D02*
X145230000Y-87210000D01*
X144900000Y-86880000D02*
X144900000Y-86630000D01*
X145230000Y-90080000D02*
X145230000Y-89505000D01*
X138130000Y-54750000D02*
X134380000Y-54750000D01*
X133182500Y-66360000D02*
X132880000Y-66360000D01*
X145630000Y-81750000D02*
X146805000Y-80575000D01*
X140736396Y-69150000D02*
X139836396Y-70050000D01*
X143490000Y-70750000D02*
X143490000Y-69990000D01*
X145630000Y-84110000D02*
X145630000Y-81750000D01*
X143490000Y-69990000D02*
X143137299Y-69637299D01*
X134380000Y-54750000D02*
X134380000Y-50875000D01*
X142600000Y-69150000D02*
X140736396Y-69150000D01*
X145630000Y-81750000D02*
X141880000Y-81750000D01*
X146530000Y-89505000D02*
X146530000Y-90080000D01*
X144900000Y-86630000D02*
X145900000Y-85630000D01*
X134380000Y-81750000D02*
X132755000Y-80125000D01*
X138130000Y-65312500D02*
X138130000Y-62370000D01*
X138130000Y-81750000D02*
X134380000Y-81750000D01*
X134155000Y-65387500D02*
X133182500Y-66360000D01*
X136755000Y-65387500D02*
X136755000Y-63542919D01*
X133655000Y-66855000D02*
X133655000Y-65887500D01*
X140655000Y-65387500D02*
X140655000Y-64698959D01*
X139355000Y-72807081D02*
X139355000Y-71112500D01*
X141880000Y-75968477D02*
X138705000Y-72793477D01*
X133205000Y-73643299D02*
X133893299Y-72955000D01*
X141880000Y-74130000D02*
X140677919Y-74130000D01*
X138130000Y-74130000D02*
X138130000Y-71187500D01*
X135980000Y-72030000D02*
X135980000Y-71237500D01*
X145880000Y-91380000D02*
X146710000Y-91380000D01*
X140005000Y-71801041D02*
X140005000Y-71112500D01*
X137405000Y-71801041D02*
X137405000Y-71112500D01*
X134380000Y-76670000D02*
X133205000Y-75495000D01*
X145630000Y-74130000D02*
X143675000Y-72175000D01*
X143675000Y-72175000D02*
X141028959Y-72175000D01*
X142480000Y-67794598D02*
X142852299Y-67422299D01*
X138130000Y-76670000D02*
X136955000Y-75495000D01*
X134426041Y-74130000D02*
X135426041Y-73130000D01*
X138705000Y-72793477D02*
X138705000Y-71112500D01*
X146116701Y-63545000D02*
X146805000Y-62856701D01*
X138055000Y-65387500D02*
X138130000Y-65312500D01*
X141028959Y-72175000D02*
X140655000Y-71801041D01*
X143055000Y-62856701D02*
X143055000Y-61005000D01*
X143055000Y-61005000D02*
X141880000Y-59830000D01*
X145715000Y-63545000D02*
X146116701Y-63545000D01*
X136955000Y-75495000D02*
X136955000Y-72251041D01*
X141607500Y-64325000D02*
X141662500Y-64380000D01*
X141028959Y-64325000D02*
X141607500Y-64325000D01*
X136955000Y-72251041D02*
X137405000Y-71801041D01*
X143620000Y-64380000D02*
X145630000Y-62370000D01*
X140828959Y-72625000D02*
X140005000Y-71801041D01*
X134380000Y-74130000D02*
X134426041Y-74130000D01*
X133893299Y-72955000D02*
X134805000Y-72955000D01*
X142366701Y-63545000D02*
X143055000Y-62856701D01*
X140005000Y-65387500D02*
X140005000Y-64698959D01*
X140005000Y-64698959D02*
X141158959Y-63545000D01*
X140677919Y-74130000D02*
X139355000Y-72807081D01*
X144155000Y-65105000D02*
X145715000Y-63545000D01*
X133205000Y-75495000D02*
X133205000Y-73643299D01*
X135330000Y-72680000D02*
X135980000Y-72030000D01*
X135080000Y-72680000D02*
X135330000Y-72680000D01*
X136130000Y-73130000D02*
X136505000Y-72755000D01*
X141158959Y-63545000D02*
X142366701Y-63545000D01*
X136505000Y-72755000D02*
X136505000Y-72064645D01*
X138130000Y-71187500D02*
X138055000Y-71112500D01*
X139355000Y-65387500D02*
X139355000Y-63692919D01*
X140677919Y-62370000D02*
X141880000Y-62370000D01*
X141880000Y-76670000D02*
X141880000Y-75968477D01*
X141662500Y-64380000D02*
X143620000Y-64380000D01*
X139355000Y-63692919D02*
X140677919Y-62370000D01*
X145630000Y-76218299D02*
X142036701Y-72625000D01*
X134805000Y-72955000D02*
X135080000Y-72680000D01*
X146805000Y-62856701D02*
X146805000Y-61005000D01*
X135980000Y-71237500D02*
X136105000Y-71112500D01*
X145880000Y-90080000D02*
X145880000Y-91380000D01*
X142036701Y-72625000D02*
X140828959Y-72625000D01*
X140655000Y-71801041D02*
X140655000Y-71112500D01*
X141305000Y-65387500D02*
X141587500Y-65105000D01*
X141587500Y-65105000D02*
X144155000Y-65105000D01*
X140655000Y-64698959D02*
X141028959Y-64325000D01*
X142470000Y-71088712D02*
X142831788Y-71450500D01*
X136505000Y-72064645D02*
X136755000Y-71814645D01*
X145630000Y-76670000D02*
X145630000Y-76218299D01*
X135426041Y-73130000D02*
X136130000Y-73130000D01*
X136755000Y-71814645D02*
X136755000Y-71112500D01*
X146805000Y-61005000D02*
X145630000Y-59830000D01*
X141305000Y-69934003D02*
X141245497Y-69874500D01*
X142480000Y-68250000D02*
X142480000Y-67794598D01*
X146710000Y-91380000D02*
X146730000Y-91400000D01*
X146710000Y-86880000D02*
X146730000Y-86900000D01*
X132880000Y-64750000D02*
X132980000Y-64650000D01*
X142470000Y-70750000D02*
X142470000Y-71088712D01*
X132880000Y-65400000D02*
X132880000Y-64750000D01*
X141305000Y-71112500D02*
X141305000Y-69934003D01*
X145860000Y-86880000D02*
X146710000Y-86880000D01*
X142480000Y-65750000D02*
X142475400Y-65750000D01*
X145480000Y-45887500D02*
X145480000Y-45300000D01*
X142475400Y-65750000D02*
X141427700Y-66797700D01*
X96605000Y-89100000D02*
X96910000Y-89100000D01*
X94012500Y-77250000D02*
X94670000Y-77250000D01*
X98250000Y-87260000D02*
X98880523Y-87890523D01*
X92240000Y-89260000D02*
X92250000Y-89250000D01*
X98880523Y-89064477D02*
X98520000Y-89425000D01*
X95070000Y-77657609D02*
X95697391Y-78285000D01*
X95960500Y-88455500D02*
X96605000Y-89100000D01*
X99047500Y-86462500D02*
X98250000Y-87260000D01*
X99580000Y-80250000D02*
X99580000Y-83880000D01*
X99600000Y-83900000D02*
X99600000Y-86312500D01*
X95960500Y-88109098D02*
X95960500Y-88455500D01*
X94470000Y-77250000D02*
X95070000Y-76650000D01*
X84600000Y-86312500D02*
X84750000Y-86462500D01*
X94670000Y-77250000D02*
X95070000Y-77650000D01*
X97175000Y-79075000D02*
X98405000Y-79075000D01*
X94500000Y-81510000D02*
X94500000Y-83880000D01*
X86050000Y-87240000D02*
X86050000Y-86250000D01*
X94012500Y-77750000D02*
X94012500Y-77250000D01*
X91980000Y-83900000D02*
X91980000Y-81530000D01*
X79030538Y-87200000D02*
X78375538Y-87855000D01*
X79590000Y-87200000D02*
X79030538Y-87200000D01*
X80580402Y-89100000D02*
X79590000Y-89100000D01*
X93390000Y-85850000D02*
X97860000Y-85850000D01*
X81030000Y-77650000D02*
X81750000Y-77650000D01*
X82175000Y-79075000D02*
X83405000Y-79075000D01*
X93000000Y-86240000D02*
X93000000Y-85420000D01*
X93000000Y-85420000D02*
X94520000Y-83900000D01*
X91250000Y-86240000D02*
X91980000Y-85510000D01*
X90605000Y-87585000D02*
X91260000Y-88240000D01*
X91980000Y-85510000D02*
X91980000Y-83900000D01*
X84580000Y-83880000D02*
X84600000Y-83900000D01*
X76975000Y-77325000D02*
X77050000Y-77250000D01*
X84750000Y-88037500D02*
X85827500Y-88037500D01*
X90605000Y-86885000D02*
X90605000Y-87585000D01*
X81010000Y-86300000D02*
X81910000Y-87200000D01*
X76845000Y-87855000D02*
X76250000Y-87260000D01*
X81030000Y-76650000D02*
X81030000Y-77650000D01*
X83250000Y-87260000D02*
X83880523Y-87890523D01*
X84480000Y-89425000D02*
X85500000Y-89425000D01*
X79012500Y-77250000D02*
X79670000Y-77250000D01*
X91980000Y-81530000D02*
X92000000Y-81510000D01*
X79500000Y-80490000D02*
X78715000Y-80490000D01*
X79670000Y-77250000D02*
X80070000Y-77650000D01*
X78715000Y-80490000D02*
X77487500Y-79262500D01*
X79000000Y-78762500D02*
X79012500Y-78750000D01*
X79895000Y-88150000D02*
X79590000Y-88150000D01*
X79012500Y-78250000D02*
X79012500Y-78750000D01*
X77487500Y-78250000D02*
X77487500Y-77750000D01*
X77050000Y-77250000D02*
X77487500Y-77250000D01*
X76975000Y-80465000D02*
X76975000Y-77325000D01*
X78960000Y-86300000D02*
X78000000Y-87260000D01*
X80727701Y-89247299D02*
X80580402Y-89100000D01*
X80737182Y-87307818D02*
X79895000Y-88150000D01*
X81950121Y-88190121D02*
X81910000Y-88150000D01*
X80960500Y-88455500D02*
X81605000Y-89100000D01*
X78375538Y-87855000D02*
X76845000Y-87855000D01*
X85827500Y-88037500D02*
X86050000Y-88260000D01*
X86027500Y-88037500D02*
X86250000Y-88260000D01*
X79012500Y-78750000D02*
X80540000Y-78750000D01*
X83155523Y-88190121D02*
X81950121Y-88190121D01*
X84047500Y-86462500D02*
X83250000Y-87260000D01*
X80540000Y-78750000D02*
X82040000Y-80250000D01*
X80737182Y-87051780D02*
X80737182Y-87307818D01*
X80960500Y-88109098D02*
X80960500Y-88455500D01*
X77000000Y-80490000D02*
X76975000Y-80465000D01*
X93000000Y-86240000D02*
X93390000Y-85850000D01*
X77487500Y-79262500D02*
X77487500Y-78750000D01*
X97860000Y-85850000D02*
X98250000Y-86240000D01*
X79012500Y-77750000D02*
X79012500Y-77250000D01*
X91250000Y-86240000D02*
X90605000Y-86885000D01*
X78960000Y-86300000D02*
X81010000Y-86300000D01*
X95697391Y-78285000D02*
X96385000Y-78285000D01*
X78000000Y-78762500D02*
X79000000Y-78762500D01*
X99750000Y-86462500D02*
X99047500Y-86462500D01*
X62050000Y-77250000D02*
X62487500Y-77250000D01*
X62487500Y-79262500D02*
X62487500Y-78750000D01*
X71050000Y-87240000D02*
X71050000Y-86250000D01*
X83880523Y-87890523D02*
X83880523Y-89064477D01*
X63375538Y-87855000D02*
X61845000Y-87855000D01*
X66030000Y-76650000D02*
X66030000Y-77650000D01*
X66030000Y-77650000D02*
X66750000Y-77650000D01*
X76250000Y-86240000D02*
X76980000Y-85510000D01*
X68155523Y-88190121D02*
X66950121Y-88190121D01*
X79470000Y-77250000D02*
X80070000Y-76650000D01*
X78000000Y-86240000D02*
X78000000Y-85420000D01*
X65727701Y-89247299D02*
X65580402Y-89100000D01*
X76980000Y-85510000D02*
X76980000Y-83900000D01*
X78390000Y-85850000D02*
X82860000Y-85850000D01*
X64590000Y-87200000D02*
X64030538Y-87200000D01*
X76250000Y-86240000D02*
X75605000Y-86885000D01*
X82860000Y-85850000D02*
X83250000Y-86240000D01*
X61975000Y-77325000D02*
X62050000Y-77250000D01*
X76260000Y-89260000D02*
X77240000Y-89260000D01*
X84750000Y-86462500D02*
X84047500Y-86462500D01*
X79012500Y-77250000D02*
X79470000Y-77250000D01*
X81605000Y-89100000D02*
X81910000Y-89100000D01*
X81910000Y-89100000D02*
X83195000Y-89100000D01*
X79500000Y-81510000D02*
X79500000Y-83880000D01*
X64000000Y-78762500D02*
X64012500Y-78750000D01*
X75605000Y-86885000D02*
X75605000Y-87585000D01*
X66950121Y-88190121D02*
X66910000Y-88150000D01*
X75605000Y-87585000D02*
X76260000Y-88240000D01*
X62000000Y-80490000D02*
X61975000Y-80465000D01*
X78000000Y-85420000D02*
X79520000Y-83900000D01*
X80070000Y-77650000D02*
X80070000Y-77657609D01*
X84580000Y-80250000D02*
X84580000Y-83880000D01*
X61975000Y-80465000D02*
X61975000Y-77325000D01*
X69750000Y-88037500D02*
X70827500Y-88037500D01*
X80070000Y-77657609D02*
X80697391Y-78285000D01*
X65540000Y-78750000D02*
X67040000Y-80250000D01*
X63960000Y-86300000D02*
X66010000Y-86300000D01*
X65580402Y-89100000D02*
X64590000Y-89100000D01*
X65737182Y-87051780D02*
X65737182Y-87307818D01*
X84600000Y-83900000D02*
X84600000Y-86312500D01*
X77240000Y-89260000D02*
X77250000Y-89250000D01*
X65737182Y-87307818D02*
X64895000Y-88150000D01*
X81385000Y-78285000D02*
X82175000Y-79075000D01*
X83405000Y-79075000D02*
X84580000Y-80250000D01*
X78000000Y-86240000D02*
X78390000Y-85850000D01*
X63715000Y-80490000D02*
X62487500Y-79262500D01*
X63960000Y-86300000D02*
X63000000Y-87260000D01*
X76980000Y-83900000D02*
X76980000Y-81530000D01*
X64030538Y-87200000D02*
X63375538Y-87855000D01*
X69480000Y-89425000D02*
X70500000Y-89425000D01*
X64895000Y-88150000D02*
X64590000Y-88150000D01*
X64500000Y-80490000D02*
X63715000Y-80490000D01*
X76980000Y-81530000D02*
X77000000Y-81510000D01*
X80697391Y-78285000D02*
X81385000Y-78285000D01*
X70827500Y-88037500D02*
X71050000Y-88260000D01*
X61845000Y-87855000D02*
X61250000Y-87260000D01*
X63000000Y-78762500D02*
X64000000Y-78762500D01*
X64012500Y-78250000D02*
X64012500Y-78750000D01*
X64012500Y-78750000D02*
X65540000Y-78750000D01*
X66010000Y-86300000D02*
X66910000Y-87200000D01*
X71027500Y-88037500D02*
X71250000Y-88260000D01*
X83195000Y-89100000D02*
X83520000Y-89425000D01*
X83880523Y-89064477D02*
X83520000Y-89425000D01*
X77487500Y-77750000D02*
X79012500Y-77750000D01*
X61980000Y-81530000D02*
X62000000Y-81510000D01*
X69750000Y-86462500D02*
X69047500Y-86462500D01*
X64012500Y-77750000D02*
X64012500Y-77250000D01*
X68880523Y-87890523D02*
X68880523Y-89064477D01*
X48960000Y-86300000D02*
X48000000Y-87260000D01*
X64670000Y-77250000D02*
X65070000Y-77650000D01*
X54750000Y-88037500D02*
X55827500Y-88037500D01*
X64012500Y-77250000D02*
X64470000Y-77250000D01*
X65960500Y-88109098D02*
X65960500Y-88455500D01*
X63000000Y-85420000D02*
X64520000Y-83900000D01*
X65070000Y-77650000D02*
X65070000Y-77657609D01*
X66385000Y-78285000D02*
X67175000Y-79075000D01*
X67175000Y-79075000D02*
X68405000Y-79075000D01*
X69580000Y-83880000D02*
X69600000Y-83900000D01*
X48960000Y-86300000D02*
X51010000Y-86300000D01*
X61980000Y-83900000D02*
X61980000Y-81530000D01*
X68195000Y-89100000D02*
X68520000Y-89425000D01*
X67860000Y-85850000D02*
X68250000Y-86240000D01*
X66605000Y-89100000D02*
X66910000Y-89100000D01*
X69600000Y-86312500D02*
X69750000Y-86462500D01*
X64470000Y-77250000D02*
X65070000Y-76650000D01*
X65070000Y-77657609D02*
X65697391Y-78285000D01*
X68405000Y-79075000D02*
X69580000Y-80250000D01*
X69580000Y-80250000D02*
X69580000Y-83880000D01*
X64500000Y-81510000D02*
X64500000Y-83880000D01*
X61980000Y-85510000D02*
X61980000Y-83900000D01*
X61250000Y-86240000D02*
X61980000Y-85510000D01*
X46975000Y-77325000D02*
X47050000Y-77250000D01*
X56027500Y-88037500D02*
X56250000Y-88260000D01*
X46845000Y-87855000D02*
X46250000Y-87260000D01*
X68250000Y-87260000D02*
X68880523Y-87890523D01*
X65960500Y-88455500D02*
X66605000Y-89100000D01*
X64012500Y-77250000D02*
X64670000Y-77250000D01*
X65697391Y-78285000D02*
X66385000Y-78285000D01*
X63000000Y-86240000D02*
X63000000Y-85420000D01*
X61250000Y-86240000D02*
X60605000Y-86885000D01*
X51010000Y-86300000D02*
X51910000Y-87200000D01*
X68880523Y-89064477D02*
X68520000Y-89425000D01*
X63000000Y-86240000D02*
X63390000Y-85850000D01*
X47050000Y-77250000D02*
X47487500Y-77250000D01*
X48375538Y-87855000D02*
X46845000Y-87855000D01*
X48000000Y-78762500D02*
X49000000Y-78762500D01*
X56050000Y-87240000D02*
X56050000Y-86250000D01*
X69047500Y-86462500D02*
X68250000Y-87260000D01*
X61260000Y-89260000D02*
X62240000Y-89260000D01*
X62240000Y-89260000D02*
X62250000Y-89250000D01*
X63390000Y-85850000D02*
X67860000Y-85850000D01*
X48715000Y-80490000D02*
X47487500Y-79262500D01*
X46975000Y-80465000D02*
X46975000Y-77325000D01*
X60605000Y-86885000D02*
X60605000Y-87585000D01*
X69600000Y-83900000D02*
X69600000Y-86312500D01*
X47487500Y-79262500D02*
X47487500Y-78750000D01*
X55827500Y-88037500D02*
X56050000Y-88260000D01*
X49000000Y-78762500D02*
X49012500Y-78750000D01*
X60605000Y-87585000D02*
X61260000Y-88240000D01*
X62487500Y-78250000D02*
X62487500Y-77750000D01*
X47000000Y-80490000D02*
X46975000Y-80465000D01*
X49590000Y-87200000D02*
X49030538Y-87200000D01*
X49030538Y-87200000D02*
X48375538Y-87855000D01*
X66910000Y-89100000D02*
X68195000Y-89100000D01*
X62487500Y-77750000D02*
X64012500Y-77750000D01*
X49500000Y-80490000D02*
X48715000Y-80490000D01*
X49012500Y-77250000D02*
X49670000Y-77250000D01*
X49670000Y-77250000D02*
X50070000Y-77650000D01*
X54750000Y-86462500D02*
X54047500Y-86462500D01*
X45605000Y-86885000D02*
X45605000Y-87585000D01*
X31975000Y-77325000D02*
X32050000Y-77250000D01*
X49500000Y-81510000D02*
X49500000Y-83880000D01*
X50070000Y-77657609D02*
X50697391Y-78285000D01*
X53250000Y-87260000D02*
X53880523Y-87890523D01*
X47240000Y-89260000D02*
X47250000Y-89250000D01*
X50070000Y-77650000D02*
X50070000Y-77657609D01*
X54580000Y-80250000D02*
X54580000Y-83880000D01*
X46980000Y-85510000D02*
X46980000Y-83900000D01*
X51030000Y-76650000D02*
X51030000Y-77650000D01*
X54480000Y-89425000D02*
X55500000Y-89425000D01*
X32000000Y-80490000D02*
X31975000Y-80465000D01*
X46250000Y-86240000D02*
X45605000Y-86885000D01*
X33715000Y-80490000D02*
X32487500Y-79262500D01*
X53880523Y-87890523D02*
X53880523Y-89064477D01*
X49012500Y-78250000D02*
X49012500Y-78750000D01*
X46250000Y-86240000D02*
X46980000Y-85510000D01*
X50580402Y-89100000D02*
X49590000Y-89100000D01*
X48390000Y-85850000D02*
X52860000Y-85850000D01*
X51030000Y-77650000D02*
X51750000Y-77650000D01*
X49012500Y-77750000D02*
X49012500Y-77250000D01*
X49012500Y-77250000D02*
X49470000Y-77250000D01*
X51605000Y-89100000D02*
X51910000Y-89100000D01*
X47487500Y-77750000D02*
X49012500Y-77750000D01*
X31975000Y-80465000D02*
X31975000Y-77325000D01*
X47487500Y-78250000D02*
X47487500Y-77750000D01*
X52860000Y-85850000D02*
X53250000Y-86240000D01*
X46260000Y-89260000D02*
X47240000Y-89260000D01*
X54047500Y-86462500D02*
X53250000Y-87260000D01*
X50960500Y-88455500D02*
X51605000Y-89100000D01*
X54600000Y-83900000D02*
X54600000Y-86312500D01*
X48000000Y-85420000D02*
X49520000Y-83900000D01*
X46980000Y-83900000D02*
X46980000Y-81530000D01*
X32487500Y-79262500D02*
X32487500Y-78750000D01*
X50960500Y-88109098D02*
X50960500Y-88455500D01*
X32050000Y-77250000D02*
X32487500Y-77250000D01*
X53195000Y-89100000D02*
X53520000Y-89425000D01*
X34500000Y-80490000D02*
X33715000Y-80490000D01*
X51910000Y-89100000D02*
X53195000Y-89100000D01*
X53155523Y-88190121D02*
X51950121Y-88190121D01*
X50737182Y-87307818D02*
X49895000Y-88150000D01*
X53405000Y-79075000D02*
X54580000Y-80250000D01*
X54580000Y-83880000D02*
X54600000Y-83900000D01*
X53880523Y-89064477D02*
X53520000Y-89425000D01*
X49470000Y-77250000D02*
X50070000Y-76650000D01*
X45605000Y-87585000D02*
X46260000Y-88240000D01*
X52175000Y-79075000D02*
X53405000Y-79075000D01*
X48000000Y-86240000D02*
X48390000Y-85850000D01*
X50727701Y-89247299D02*
X50580402Y-89100000D01*
X50737182Y-87051780D02*
X50737182Y-87307818D01*
X48000000Y-86240000D02*
X48000000Y-85420000D01*
X46980000Y-81530000D02*
X47000000Y-81510000D01*
X54600000Y-86312500D02*
X54750000Y-86462500D01*
X49012500Y-78750000D02*
X50540000Y-78750000D01*
X49895000Y-88150000D02*
X49590000Y-88150000D01*
X51385000Y-78285000D02*
X52175000Y-79075000D01*
X50540000Y-78750000D02*
X52040000Y-80250000D01*
X50697391Y-78285000D02*
X51385000Y-78285000D01*
X51950121Y-88190121D02*
X51910000Y-88150000D01*
X35737182Y-87307818D02*
X34895000Y-88150000D01*
X35580402Y-89100000D02*
X34590000Y-89100000D01*
X35070000Y-77650000D02*
X35070000Y-77657609D01*
X39580000Y-80250000D02*
X39580000Y-83880000D01*
X32487500Y-77750000D02*
X34012500Y-77750000D01*
X36910000Y-89100000D02*
X38195000Y-89100000D01*
X35960500Y-88455500D02*
X36605000Y-89100000D01*
X33960000Y-86300000D02*
X36010000Y-86300000D01*
X34012500Y-77250000D02*
X34470000Y-77250000D01*
X34030538Y-87200000D02*
X33375538Y-87855000D01*
X33375538Y-87855000D02*
X31845000Y-87855000D01*
X38195000Y-89100000D02*
X38520000Y-89425000D01*
X31845000Y-87855000D02*
X31250000Y-87260000D01*
X34590000Y-87200000D02*
X34030538Y-87200000D01*
X34012500Y-78750000D02*
X35540000Y-78750000D01*
X41027500Y-88037500D02*
X41250000Y-88260000D01*
X40827500Y-88037500D02*
X41050000Y-88260000D01*
X36030000Y-77650000D02*
X36750000Y-77650000D01*
X39750000Y-88037500D02*
X40827500Y-88037500D01*
X34012500Y-78250000D02*
X34012500Y-78750000D01*
X37175000Y-79075000D02*
X38405000Y-79075000D01*
X33000000Y-86240000D02*
X33390000Y-85850000D01*
X39600000Y-83900000D02*
X39600000Y-86312500D01*
X39047500Y-86462500D02*
X38250000Y-87260000D01*
X39750000Y-86462500D02*
X39047500Y-86462500D01*
X35727701Y-89247299D02*
X35580402Y-89100000D01*
X32487500Y-78250000D02*
X32487500Y-77750000D01*
X35540000Y-78750000D02*
X37040000Y-80250000D01*
X36385000Y-78285000D02*
X37175000Y-79075000D01*
X34012500Y-77250000D02*
X34670000Y-77250000D01*
X36030000Y-76650000D02*
X36030000Y-77650000D01*
X34000000Y-78762500D02*
X34012500Y-78750000D01*
X36605000Y-89100000D02*
X36910000Y-89100000D01*
X38405000Y-79075000D02*
X39580000Y-80250000D01*
X34012500Y-77750000D02*
X34012500Y-77250000D01*
X32240000Y-89260000D02*
X32250000Y-89250000D01*
X31260000Y-89260000D02*
X32240000Y-89260000D01*
X33000000Y-85420000D02*
X34520000Y-83900000D01*
X34470000Y-77250000D02*
X35070000Y-76650000D01*
X34500000Y-81510000D02*
X34500000Y-83880000D01*
X33000000Y-86240000D02*
X33000000Y-85420000D01*
X30605000Y-86885000D02*
X30605000Y-87585000D01*
X41050000Y-87240000D02*
X41050000Y-86250000D01*
X36950121Y-88190121D02*
X36910000Y-88150000D01*
X38155523Y-88190121D02*
X36950121Y-88190121D01*
X34895000Y-88150000D02*
X34590000Y-88150000D01*
X35737182Y-87051780D02*
X35737182Y-87307818D01*
X35697391Y-78285000D02*
X36385000Y-78285000D01*
X37860000Y-85850000D02*
X38250000Y-86240000D01*
X39600000Y-86312500D02*
X39750000Y-86462500D01*
X38880523Y-87890523D02*
X38880523Y-89064477D01*
X33390000Y-85850000D02*
X37860000Y-85850000D01*
X38880523Y-89064477D02*
X38520000Y-89425000D01*
X35960500Y-88109098D02*
X35960500Y-88455500D01*
X39580000Y-83880000D02*
X39600000Y-83900000D01*
X34670000Y-77250000D02*
X35070000Y-77650000D01*
X38250000Y-87260000D02*
X38880523Y-87890523D01*
X33000000Y-78762500D02*
X34000000Y-78762500D01*
X35070000Y-77657609D02*
X35697391Y-78285000D01*
X33960000Y-86300000D02*
X33000000Y-87260000D01*
X39480000Y-89425000D02*
X40500000Y-89425000D01*
X36010000Y-86300000D02*
X36910000Y-87200000D01*
X96030000Y-61650000D02*
X96030000Y-62650000D01*
X93960000Y-71300000D02*
X96010000Y-71300000D01*
X96010000Y-71300000D02*
X96910000Y-72200000D01*
X94012500Y-63250000D02*
X94012500Y-63750000D01*
X99580000Y-68880000D02*
X99600000Y-68900000D01*
X99600000Y-68900000D02*
X99600000Y-71312500D01*
X99750000Y-73037500D02*
X100827500Y-73037500D01*
X101027500Y-73037500D02*
X101250000Y-73260000D01*
X94012500Y-63750000D02*
X95540000Y-63750000D01*
X94895000Y-73150000D02*
X94590000Y-73150000D01*
X95070000Y-62657609D02*
X95697391Y-63285000D01*
X96910000Y-74100000D02*
X98195000Y-74100000D01*
X91975000Y-65465000D02*
X91975000Y-62325000D01*
X91260000Y-74260000D02*
X92240000Y-74260000D01*
X94012500Y-62250000D02*
X94670000Y-62250000D01*
X92487500Y-63250000D02*
X92487500Y-62750000D01*
X98880523Y-74064477D02*
X98520000Y-74425000D01*
X95737182Y-72051780D02*
X95737182Y-72307818D01*
X93715000Y-65490000D02*
X92487500Y-64262500D01*
X99047500Y-71462500D02*
X98250000Y-72260000D01*
X94500000Y-65490000D02*
X93715000Y-65490000D01*
X95070000Y-62650000D02*
X95070000Y-62657609D01*
X93375538Y-72855000D02*
X91845000Y-72855000D01*
X95737182Y-72307818D02*
X94895000Y-73150000D01*
X99580000Y-65250000D02*
X99580000Y-68880000D01*
X95960500Y-73455500D02*
X96605000Y-74100000D01*
X98155523Y-73190121D02*
X96950121Y-73190121D01*
X94012500Y-62750000D02*
X94012500Y-62250000D01*
X92050000Y-62250000D02*
X92487500Y-62250000D01*
X95580402Y-74100000D02*
X94590000Y-74100000D01*
X93960000Y-71300000D02*
X93000000Y-72260000D01*
X94030538Y-72200000D02*
X93375538Y-72855000D01*
X96950121Y-73190121D02*
X96910000Y-73150000D01*
X95727701Y-74247299D02*
X95580402Y-74100000D01*
X94012500Y-62250000D02*
X94470000Y-62250000D01*
X98405000Y-64075000D02*
X99580000Y-65250000D01*
X95960500Y-73109098D02*
X95960500Y-73455500D01*
X100827500Y-73037500D02*
X101050000Y-73260000D01*
X92487500Y-62750000D02*
X94012500Y-62750000D01*
X95540000Y-63750000D02*
X97040000Y-65250000D01*
X99750000Y-71462500D02*
X99047500Y-71462500D01*
X101050000Y-72240000D02*
X101050000Y-71250000D01*
X91975000Y-62325000D02*
X92050000Y-62250000D01*
X91845000Y-72855000D02*
X91250000Y-72260000D01*
X94590000Y-72200000D02*
X94030538Y-72200000D01*
X94470000Y-62250000D02*
X95070000Y-61650000D01*
X94000000Y-63762500D02*
X94012500Y-63750000D01*
X99480000Y-74425000D02*
X100500000Y-74425000D01*
X98250000Y-72260000D02*
X98880523Y-72890523D01*
X92240000Y-74260000D02*
X92250000Y-74250000D01*
X98195000Y-74100000D02*
X98520000Y-74425000D01*
X31250000Y-86240000D02*
X30605000Y-86885000D01*
X31980000Y-81530000D02*
X32000000Y-81510000D01*
X92000000Y-65490000D02*
X91975000Y-65465000D01*
X95697391Y-63285000D02*
X96385000Y-63285000D01*
X96030000Y-62650000D02*
X96750000Y-62650000D01*
X31980000Y-83900000D02*
X31980000Y-81530000D01*
X31250000Y-86240000D02*
X31980000Y-85510000D01*
X93000000Y-63762500D02*
X94000000Y-63762500D01*
X31980000Y-85510000D02*
X31980000Y-83900000D01*
X30605000Y-87585000D02*
X31260000Y-88240000D01*
X92487500Y-64262500D02*
X92487500Y-63750000D01*
X79012500Y-62750000D02*
X79012500Y-62250000D01*
X97175000Y-64075000D02*
X98405000Y-64075000D01*
X94500000Y-66510000D02*
X94500000Y-68880000D01*
X99600000Y-71312500D02*
X99750000Y-71462500D01*
X94670000Y-62250000D02*
X95070000Y-62650000D01*
X90605000Y-71885000D02*
X90605000Y-72585000D01*
X78375538Y-72855000D02*
X76845000Y-72855000D01*
X96605000Y-74100000D02*
X96910000Y-74100000D01*
X84750000Y-73037500D02*
X85827500Y-73037500D01*
X84600000Y-68900000D02*
X84600000Y-71312500D01*
X79012500Y-63250000D02*
X79012500Y-63750000D01*
X96385000Y-63285000D02*
X97175000Y-64075000D01*
X80580402Y-74100000D02*
X79590000Y-74100000D01*
X80697391Y-63285000D02*
X81385000Y-63285000D01*
X91980000Y-66530000D02*
X92000000Y-66510000D01*
X98880523Y-72890523D02*
X98880523Y-74064477D01*
X93390000Y-70850000D02*
X97860000Y-70850000D01*
X97860000Y-70850000D02*
X98250000Y-71240000D01*
X93000000Y-71240000D02*
X93000000Y-70420000D01*
X93000000Y-71240000D02*
X93390000Y-70850000D01*
X79000000Y-63762500D02*
X79012500Y-63750000D01*
X91980000Y-70510000D02*
X91980000Y-68900000D01*
X85827500Y-73037500D02*
X86050000Y-73260000D01*
X86050000Y-72240000D02*
X86050000Y-71250000D01*
X90605000Y-72585000D02*
X91260000Y-73240000D01*
X79030538Y-72200000D02*
X78375538Y-72855000D01*
X91980000Y-68900000D02*
X91980000Y-66530000D01*
X79500000Y-65490000D02*
X78715000Y-65490000D01*
X77050000Y-62250000D02*
X77487500Y-62250000D01*
X76975000Y-62325000D02*
X77050000Y-62250000D01*
X77000000Y-65490000D02*
X76975000Y-65465000D01*
X78960000Y-71300000D02*
X78000000Y-72260000D01*
X84480000Y-74425000D02*
X85500000Y-74425000D01*
X80737182Y-72307818D02*
X79895000Y-73150000D01*
X84600000Y-71312500D02*
X84750000Y-71462500D01*
X78960000Y-71300000D02*
X81010000Y-71300000D01*
X79590000Y-72200000D02*
X79030538Y-72200000D01*
X78000000Y-63762500D02*
X79000000Y-63762500D01*
X76845000Y-72855000D02*
X76250000Y-72260000D01*
X86027500Y-73037500D02*
X86250000Y-73260000D01*
X80727701Y-74247299D02*
X80580402Y-74100000D01*
X80737182Y-72051780D02*
X80737182Y-72307818D01*
X81030000Y-61650000D02*
X81030000Y-62650000D01*
X79012500Y-63750000D02*
X80540000Y-63750000D01*
X81950121Y-73190121D02*
X81910000Y-73150000D01*
X80960500Y-73455500D02*
X81605000Y-74100000D01*
X79895000Y-73150000D02*
X79590000Y-73150000D01*
X79012500Y-62250000D02*
X79670000Y-62250000D01*
X83155523Y-73190121D02*
X81950121Y-73190121D01*
X93000000Y-70420000D02*
X94520000Y-68900000D01*
X78715000Y-65490000D02*
X77487500Y-64262500D01*
X81010000Y-71300000D02*
X81910000Y-72200000D01*
X81030000Y-62650000D02*
X81750000Y-62650000D01*
X80070000Y-62657609D02*
X80697391Y-63285000D01*
X79012500Y-62250000D02*
X79470000Y-62250000D01*
X91250000Y-71240000D02*
X90605000Y-71885000D01*
X80540000Y-63750000D02*
X82040000Y-65250000D01*
X91250000Y-71240000D02*
X91980000Y-70510000D01*
X77487500Y-64262500D02*
X77487500Y-63750000D01*
X81910000Y-74100000D02*
X83195000Y-74100000D01*
X76975000Y-65465000D02*
X76975000Y-62325000D01*
X76260000Y-74260000D02*
X77240000Y-74260000D01*
X61845000Y-72855000D02*
X61250000Y-72260000D01*
X83880523Y-74064477D02*
X83520000Y-74425000D01*
X64012500Y-63250000D02*
X64012500Y-63750000D01*
X71027500Y-73037500D02*
X71250000Y-73260000D01*
X83405000Y-64075000D02*
X84580000Y-65250000D01*
X79470000Y-62250000D02*
X80070000Y-61650000D01*
X69480000Y-74425000D02*
X70500000Y-74425000D01*
X77487500Y-63250000D02*
X77487500Y-62750000D01*
X63960000Y-71300000D02*
X66010000Y-71300000D01*
X84580000Y-68880000D02*
X84600000Y-68900000D01*
X78000000Y-71240000D02*
X78390000Y-70850000D01*
X81605000Y-74100000D02*
X81910000Y-74100000D01*
X80070000Y-62650000D02*
X80070000Y-62657609D01*
X84047500Y-71462500D02*
X83250000Y-72260000D01*
X83195000Y-74100000D02*
X83520000Y-74425000D01*
X63960000Y-71300000D02*
X63000000Y-72260000D01*
X66010000Y-71300000D02*
X66910000Y-72200000D01*
X62050000Y-62250000D02*
X62487500Y-62250000D01*
X83880523Y-72890523D02*
X83880523Y-74064477D01*
X79500000Y-66510000D02*
X79500000Y-68880000D01*
X77487500Y-62750000D02*
X79012500Y-62750000D01*
X78390000Y-70850000D02*
X82860000Y-70850000D01*
X63715000Y-65490000D02*
X62487500Y-64262500D01*
X64000000Y-63762500D02*
X64012500Y-63750000D01*
X65580402Y-74100000D02*
X64590000Y-74100000D01*
X64590000Y-72200000D02*
X64030538Y-72200000D01*
X65737182Y-72051780D02*
X65737182Y-72307818D01*
X70827500Y-73037500D02*
X71050000Y-73260000D01*
X64500000Y-65490000D02*
X63715000Y-65490000D01*
X76980000Y-68900000D02*
X76980000Y-66530000D01*
X83250000Y-72260000D02*
X83880523Y-72890523D01*
X75605000Y-71885000D02*
X75605000Y-72585000D01*
X77240000Y-74260000D02*
X77250000Y-74250000D01*
X81385000Y-63285000D02*
X82175000Y-64075000D01*
X84580000Y-65250000D02*
X84580000Y-68880000D01*
X62487500Y-64262500D02*
X62487500Y-63750000D01*
X71050000Y-72240000D02*
X71050000Y-71250000D01*
X84750000Y-71462500D02*
X84047500Y-71462500D01*
X66030000Y-62650000D02*
X66750000Y-62650000D01*
X82175000Y-64075000D02*
X83405000Y-64075000D01*
X66030000Y-61650000D02*
X66030000Y-62650000D01*
X65727701Y-74247299D02*
X65580402Y-74100000D01*
X80960500Y-73109098D02*
X80960500Y-73455500D01*
X76980000Y-70510000D02*
X76980000Y-68900000D01*
X63000000Y-63762500D02*
X64000000Y-63762500D01*
X79670000Y-62250000D02*
X80070000Y-62650000D01*
X78000000Y-70420000D02*
X79520000Y-68900000D01*
X76250000Y-71240000D02*
X76980000Y-70510000D01*
X78000000Y-71240000D02*
X78000000Y-70420000D01*
X75605000Y-72585000D02*
X76260000Y-73240000D01*
X82860000Y-70850000D02*
X83250000Y-71240000D01*
X76250000Y-71240000D02*
X75605000Y-71885000D01*
X76980000Y-66530000D02*
X77000000Y-66510000D01*
X65737182Y-72307818D02*
X64895000Y-73150000D01*
X61975000Y-62325000D02*
X62050000Y-62250000D01*
X62000000Y-65490000D02*
X61975000Y-65465000D01*
X61975000Y-65465000D02*
X61975000Y-62325000D01*
X65540000Y-63750000D02*
X67040000Y-65250000D01*
X64030538Y-72200000D02*
X63375538Y-72855000D01*
X64895000Y-73150000D02*
X64590000Y-73150000D01*
X64012500Y-63750000D02*
X65540000Y-63750000D01*
X63375538Y-72855000D02*
X61845000Y-72855000D01*
X69750000Y-73037500D02*
X70827500Y-73037500D01*
X66950121Y-73190121D02*
X66910000Y-73150000D01*
X69750000Y-71462500D02*
X69047500Y-71462500D01*
X64012500Y-62250000D02*
X64670000Y-62250000D01*
X69600000Y-71312500D02*
X69750000Y-71462500D01*
X66605000Y-74100000D02*
X66910000Y-74100000D01*
X69580000Y-65250000D02*
X69580000Y-68880000D01*
X64670000Y-62250000D02*
X65070000Y-62650000D01*
X65070000Y-62657609D02*
X65697391Y-63285000D01*
X65697391Y-63285000D02*
X66385000Y-63285000D01*
X61260000Y-74260000D02*
X62240000Y-74260000D01*
X63000000Y-71240000D02*
X63000000Y-70420000D01*
X48960000Y-71300000D02*
X51010000Y-71300000D01*
X67860000Y-70850000D02*
X68250000Y-71240000D01*
X47487500Y-64262500D02*
X47487500Y-63750000D01*
X68880523Y-72890523D02*
X68880523Y-74064477D01*
X64012500Y-62250000D02*
X64470000Y-62250000D01*
X47050000Y-62250000D02*
X47487500Y-62250000D01*
X48960000Y-71300000D02*
X48000000Y-72260000D01*
X49590000Y-72200000D02*
X49030538Y-72200000D01*
X62487500Y-62750000D02*
X64012500Y-62750000D01*
X60605000Y-71885000D02*
X60605000Y-72585000D01*
X46975000Y-65465000D02*
X46975000Y-62325000D01*
X47000000Y-65490000D02*
X46975000Y-65465000D01*
X66910000Y-74100000D02*
X68195000Y-74100000D01*
X46975000Y-62325000D02*
X47050000Y-62250000D01*
X49500000Y-65490000D02*
X48715000Y-65490000D01*
X64500000Y-66510000D02*
X64500000Y-68880000D01*
X65960500Y-73109098D02*
X65960500Y-73455500D01*
X60605000Y-72585000D02*
X61260000Y-73240000D01*
X61980000Y-66530000D02*
X62000000Y-66510000D01*
X61980000Y-68900000D02*
X61980000Y-66530000D01*
X48715000Y-65490000D02*
X47487500Y-64262500D01*
X63000000Y-70420000D02*
X64520000Y-68900000D01*
X61980000Y-70510000D02*
X61980000Y-68900000D01*
X69580000Y-68880000D02*
X69600000Y-68900000D01*
X68250000Y-72260000D02*
X68880523Y-72890523D01*
X62487500Y-63250000D02*
X62487500Y-62750000D01*
X61250000Y-71240000D02*
X60605000Y-71885000D01*
X69047500Y-71462500D02*
X68250000Y-72260000D01*
X68405000Y-64075000D02*
X69580000Y-65250000D01*
X62240000Y-74260000D02*
X62250000Y-74250000D01*
X64470000Y-62250000D02*
X65070000Y-61650000D01*
X67175000Y-64075000D02*
X68405000Y-64075000D01*
X65070000Y-62650000D02*
X65070000Y-62657609D01*
X48375538Y-72855000D02*
X46845000Y-72855000D01*
X69600000Y-68900000D02*
X69600000Y-71312500D01*
X63000000Y-71240000D02*
X63390000Y-70850000D01*
X68195000Y-74100000D02*
X68520000Y-74425000D01*
X66385000Y-63285000D02*
X67175000Y-64075000D01*
X64012500Y-62750000D02*
X64012500Y-62250000D01*
X65960500Y-73455500D02*
X66605000Y-74100000D01*
X63390000Y-70850000D02*
X67860000Y-70850000D01*
X61250000Y-71240000D02*
X61980000Y-70510000D01*
X68155523Y-73190121D02*
X66950121Y-73190121D01*
X68880523Y-74064477D02*
X68520000Y-74425000D01*
X49895000Y-73150000D02*
X49590000Y-73150000D01*
X50737182Y-72051780D02*
X50737182Y-72307818D01*
X56050000Y-72240000D02*
X56050000Y-71250000D01*
X47240000Y-74260000D02*
X47250000Y-74250000D01*
X51910000Y-74100000D02*
X53195000Y-74100000D01*
X53880523Y-72890523D02*
X53880523Y-74064477D01*
X50070000Y-62657609D02*
X50697391Y-63285000D01*
X51950121Y-73190121D02*
X51910000Y-73150000D01*
X47487500Y-63250000D02*
X47487500Y-62750000D01*
X54480000Y-74425000D02*
X55500000Y-74425000D01*
X54580000Y-65250000D02*
X54580000Y-68880000D01*
X46260000Y-74260000D02*
X47240000Y-74260000D01*
X54600000Y-71312500D02*
X54750000Y-71462500D01*
X46845000Y-72855000D02*
X46250000Y-72260000D01*
X51385000Y-63285000D02*
X52175000Y-64075000D01*
X49030538Y-72200000D02*
X48375538Y-72855000D01*
X49012500Y-63750000D02*
X50540000Y-63750000D01*
X55827500Y-73037500D02*
X56050000Y-73260000D01*
X54750000Y-73037500D02*
X55827500Y-73037500D01*
X51010000Y-71300000D02*
X51910000Y-72200000D01*
X48000000Y-70420000D02*
X49520000Y-68900000D01*
X47487500Y-62750000D02*
X49012500Y-62750000D01*
X50727701Y-74247299D02*
X50580402Y-74100000D01*
X52175000Y-64075000D02*
X53405000Y-64075000D01*
X45605000Y-72585000D02*
X46260000Y-73240000D01*
X49012500Y-62250000D02*
X49670000Y-62250000D01*
X53405000Y-64075000D02*
X54580000Y-65250000D01*
X54600000Y-68900000D02*
X54600000Y-71312500D01*
X46980000Y-68900000D02*
X46980000Y-66530000D01*
X51605000Y-74100000D02*
X51910000Y-74100000D01*
X50070000Y-62650000D02*
X50070000Y-62657609D01*
X52860000Y-70850000D02*
X53250000Y-71240000D01*
X54047500Y-71462500D02*
X53250000Y-72260000D01*
X49500000Y-66510000D02*
X49500000Y-68880000D01*
X51030000Y-61650000D02*
X51030000Y-62650000D01*
X49470000Y-62250000D02*
X50070000Y-61650000D01*
X48000000Y-71240000D02*
X48000000Y-70420000D01*
X50960500Y-73109098D02*
X50960500Y-73455500D01*
X53155523Y-73190121D02*
X51950121Y-73190121D01*
X49670000Y-62250000D02*
X50070000Y-62650000D01*
X50540000Y-63750000D02*
X52040000Y-65250000D01*
X49012500Y-63250000D02*
X49012500Y-63750000D01*
X51030000Y-62650000D02*
X51750000Y-62650000D01*
X50580402Y-74100000D02*
X49590000Y-74100000D01*
X48000000Y-71240000D02*
X48390000Y-70850000D01*
X49012500Y-62250000D02*
X49470000Y-62250000D01*
X49000000Y-63762500D02*
X49012500Y-63750000D01*
X53250000Y-72260000D02*
X53880523Y-72890523D01*
X48390000Y-70850000D02*
X52860000Y-70850000D01*
X50737182Y-72307818D02*
X49895000Y-73150000D01*
X49012500Y-62750000D02*
X49012500Y-62250000D01*
X54580000Y-68880000D02*
X54600000Y-68900000D01*
X50960500Y-73455500D02*
X51605000Y-74100000D01*
X54750000Y-71462500D02*
X54047500Y-71462500D01*
X53880523Y-74064477D02*
X53520000Y-74425000D01*
X50697391Y-63285000D02*
X51385000Y-63285000D01*
X53195000Y-74100000D02*
X53520000Y-74425000D01*
X48000000Y-63762500D02*
X49000000Y-63762500D01*
X56027500Y-73037500D02*
X56250000Y-73260000D01*
X39600000Y-71312500D02*
X39750000Y-71462500D01*
X39750000Y-73037500D02*
X40827500Y-73037500D01*
X46980000Y-66530000D02*
X47000000Y-66510000D01*
X33960000Y-71300000D02*
X36010000Y-71300000D01*
X36950121Y-73190121D02*
X36910000Y-73150000D01*
X39750000Y-71462500D02*
X39047500Y-71462500D01*
X38880523Y-72890523D02*
X38880523Y-74064477D01*
X34030538Y-72200000D02*
X33375538Y-72855000D01*
X35540000Y-63750000D02*
X37040000Y-65250000D01*
X35727701Y-74247299D02*
X35580402Y-74100000D01*
X41050000Y-72240000D02*
X41050000Y-71250000D01*
X33375538Y-72855000D02*
X31845000Y-72855000D01*
X31975000Y-62325000D02*
X32050000Y-62250000D01*
X35960500Y-73109098D02*
X35960500Y-73455500D01*
X34470000Y-62250000D02*
X35070000Y-61650000D01*
X35960500Y-73455500D02*
X36605000Y-74100000D01*
X32487500Y-64262500D02*
X32487500Y-63750000D01*
X36010000Y-71300000D02*
X36910000Y-72200000D01*
X35737182Y-72307818D02*
X34895000Y-73150000D01*
X34012500Y-62250000D02*
X34670000Y-62250000D01*
X31260000Y-74260000D02*
X32240000Y-74260000D01*
X34590000Y-72200000D02*
X34030538Y-72200000D01*
X34000000Y-63762500D02*
X34012500Y-63750000D01*
X33000000Y-63762500D02*
X34000000Y-63762500D01*
X39047500Y-71462500D02*
X38250000Y-72260000D01*
X34012500Y-62250000D02*
X34470000Y-62250000D01*
X32487500Y-63250000D02*
X32487500Y-62750000D01*
X38405000Y-64075000D02*
X39580000Y-65250000D01*
X35737182Y-72051780D02*
X35737182Y-72307818D01*
X46250000Y-71240000D02*
X46980000Y-70510000D01*
X45605000Y-71885000D02*
X45605000Y-72585000D01*
X33715000Y-65490000D02*
X32487500Y-64262500D01*
X46980000Y-70510000D02*
X46980000Y-68900000D01*
X37175000Y-64075000D02*
X38405000Y-64075000D01*
X32000000Y-65490000D02*
X31975000Y-65465000D01*
X36910000Y-74100000D02*
X38195000Y-74100000D01*
X41027500Y-73037500D02*
X41250000Y-73260000D01*
X39480000Y-74425000D02*
X40500000Y-74425000D01*
X34012500Y-63750000D02*
X35540000Y-63750000D01*
X34500000Y-65490000D02*
X33715000Y-65490000D01*
X31975000Y-65465000D02*
X31975000Y-62325000D01*
X39580000Y-68880000D02*
X39600000Y-68900000D01*
X32050000Y-62250000D02*
X32487500Y-62250000D01*
X36030000Y-62650000D02*
X36750000Y-62650000D01*
X36385000Y-63285000D02*
X37175000Y-64075000D01*
X36030000Y-61650000D02*
X36030000Y-62650000D01*
X35580402Y-74100000D02*
X34590000Y-74100000D01*
X38155523Y-73190121D02*
X36950121Y-73190121D01*
X35070000Y-62650000D02*
X35070000Y-62657609D01*
X31845000Y-72855000D02*
X31250000Y-72260000D01*
X34012500Y-62750000D02*
X34012500Y-62250000D01*
X34012500Y-63250000D02*
X34012500Y-63750000D01*
X33960000Y-71300000D02*
X33000000Y-72260000D01*
X40827500Y-73037500D02*
X41050000Y-73260000D01*
X34895000Y-73150000D02*
X34590000Y-73150000D01*
X39600000Y-68900000D02*
X39600000Y-71312500D01*
X46250000Y-71240000D02*
X45605000Y-71885000D01*
X39580000Y-65250000D02*
X39580000Y-68880000D01*
X34670000Y-62250000D02*
X35070000Y-62650000D01*
X36605000Y-74100000D02*
X36910000Y-74100000D01*
X33000000Y-70420000D02*
X34520000Y-68900000D01*
X31980000Y-68900000D02*
X31980000Y-66530000D01*
X93375538Y-57855000D02*
X91845000Y-57855000D01*
X92050000Y-47250000D02*
X92487500Y-47250000D01*
X99750000Y-58037500D02*
X100827500Y-58037500D01*
X96030000Y-46650000D02*
X96030000Y-47650000D01*
X38250000Y-72260000D02*
X38880523Y-72890523D01*
X38880523Y-74064477D02*
X38520000Y-74425000D01*
X94000000Y-48762500D02*
X94012500Y-48750000D01*
X30605000Y-72585000D02*
X31260000Y-73240000D01*
X35070000Y-62657609D02*
X35697391Y-63285000D01*
X33000000Y-71240000D02*
X33000000Y-70420000D01*
X32240000Y-74260000D02*
X32250000Y-74250000D01*
X35697391Y-63285000D02*
X36385000Y-63285000D01*
X95737182Y-57051780D02*
X95737182Y-57307818D01*
X33000000Y-71240000D02*
X33390000Y-70850000D01*
X100827500Y-58037500D02*
X101050000Y-58260000D01*
X94012500Y-48750000D02*
X95540000Y-48750000D01*
X31250000Y-71240000D02*
X31980000Y-70510000D01*
X91845000Y-57855000D02*
X91250000Y-57260000D01*
X92000000Y-50490000D02*
X91975000Y-50465000D01*
X37860000Y-70850000D02*
X38250000Y-71240000D01*
X31250000Y-71240000D02*
X30605000Y-71885000D01*
X96010000Y-56300000D02*
X96910000Y-57200000D01*
X31980000Y-70510000D02*
X31980000Y-68900000D01*
X93960000Y-56300000D02*
X96010000Y-56300000D01*
X92487500Y-49262500D02*
X92487500Y-48750000D01*
X93960000Y-56300000D02*
X93000000Y-57260000D01*
X95727701Y-59247299D02*
X95580402Y-59100000D01*
X95580402Y-59100000D02*
X94590000Y-59100000D01*
X94030538Y-57200000D02*
X93375538Y-57855000D01*
X30605000Y-71885000D02*
X30605000Y-72585000D01*
X31980000Y-66530000D02*
X32000000Y-66510000D01*
X91975000Y-47325000D02*
X92050000Y-47250000D01*
X99480000Y-59425000D02*
X100500000Y-59425000D01*
X94590000Y-57200000D02*
X94030538Y-57200000D01*
X94012500Y-48250000D02*
X94012500Y-48750000D01*
X101027500Y-58037500D02*
X101250000Y-58260000D01*
X94895000Y-58150000D02*
X94590000Y-58150000D01*
X96950121Y-58190121D02*
X96910000Y-58150000D01*
X98155523Y-58190121D02*
X96950121Y-58190121D01*
X101050000Y-57240000D02*
X101050000Y-56250000D01*
X32487500Y-62750000D02*
X34012500Y-62750000D01*
X94500000Y-50490000D02*
X93715000Y-50490000D01*
X33390000Y-70850000D02*
X37860000Y-70850000D01*
X93000000Y-48762500D02*
X94000000Y-48762500D01*
X96030000Y-47650000D02*
X96750000Y-47650000D01*
X93715000Y-50490000D02*
X92487500Y-49262500D01*
X91975000Y-50465000D02*
X91975000Y-47325000D01*
X38195000Y-74100000D02*
X38520000Y-74425000D01*
X34500000Y-66510000D02*
X34500000Y-68880000D01*
X36010000Y-101300000D02*
X36910000Y-102200000D01*
X31975000Y-92325000D02*
X32050000Y-92250000D01*
X34500000Y-95490000D02*
X33715000Y-95490000D01*
X41027500Y-103037500D02*
X41250000Y-103260000D01*
X38155523Y-103190121D02*
X36950121Y-103190121D01*
X33000000Y-93762500D02*
X34000000Y-93762500D01*
X36910000Y-104100000D02*
X38195000Y-104100000D01*
X41050000Y-102240000D02*
X41050000Y-101250000D01*
X32240000Y-104260000D02*
X32250000Y-104250000D01*
X35697391Y-93285000D02*
X36385000Y-93285000D01*
X36950121Y-103190121D02*
X36910000Y-103150000D01*
X46250000Y-101240000D02*
X45605000Y-101885000D01*
X32487500Y-93250000D02*
X32487500Y-92750000D01*
X40827500Y-103037500D02*
X41050000Y-103260000D01*
X33715000Y-95490000D02*
X32487500Y-94262500D01*
X32487500Y-94262500D02*
X32487500Y-93750000D01*
X33960000Y-101300000D02*
X33000000Y-102260000D01*
X31975000Y-95465000D02*
X31975000Y-92325000D01*
X32000000Y-95490000D02*
X31975000Y-95465000D01*
X34012500Y-92750000D02*
X34012500Y-92250000D01*
X32050000Y-92250000D02*
X32487500Y-92250000D01*
X35960500Y-103109098D02*
X35960500Y-103455500D01*
X34012500Y-93250000D02*
X34012500Y-93750000D01*
X38880523Y-104064477D02*
X38520000Y-104425000D01*
X33960000Y-101300000D02*
X36010000Y-101300000D01*
X35737182Y-102307818D02*
X34895000Y-103150000D01*
X36605000Y-104100000D02*
X36910000Y-104100000D01*
X39600000Y-98900000D02*
X39600000Y-101312500D01*
X34012500Y-92250000D02*
X34470000Y-92250000D01*
X34590000Y-102200000D02*
X34030538Y-102200000D01*
X34030538Y-102200000D02*
X33375538Y-102855000D01*
X33375538Y-102855000D02*
X31845000Y-102855000D01*
X35737182Y-102051780D02*
X35737182Y-102307818D01*
X36030000Y-91650000D02*
X36030000Y-92650000D01*
X35540000Y-93750000D02*
X37040000Y-95250000D01*
X34895000Y-103150000D02*
X34590000Y-103150000D01*
X34012500Y-93750000D02*
X35540000Y-93750000D01*
X39480000Y-104425000D02*
X40500000Y-104425000D01*
X38405000Y-94075000D02*
X39580000Y-95250000D01*
X34000000Y-93762500D02*
X34012500Y-93750000D01*
X38880523Y-102890523D02*
X38880523Y-104064477D01*
X35960500Y-103455500D02*
X36605000Y-104100000D01*
X35070000Y-92657609D02*
X35697391Y-93285000D01*
X34470000Y-92250000D02*
X35070000Y-91650000D01*
X34670000Y-92250000D02*
X35070000Y-92650000D01*
X39750000Y-101462500D02*
X39047500Y-101462500D01*
X39600000Y-101312500D02*
X39750000Y-101462500D01*
X36385000Y-93285000D02*
X37175000Y-94075000D01*
X34012500Y-92250000D02*
X34670000Y-92250000D01*
X31260000Y-104260000D02*
X32240000Y-104260000D01*
X39750000Y-103037500D02*
X40827500Y-103037500D01*
X35580402Y-104100000D02*
X34590000Y-104100000D01*
X36030000Y-92650000D02*
X36750000Y-92650000D01*
X37175000Y-94075000D02*
X38405000Y-94075000D01*
X39580000Y-98880000D02*
X39600000Y-98900000D01*
X38250000Y-102260000D02*
X38880523Y-102890523D01*
X35727701Y-104247299D02*
X35580402Y-104100000D01*
X31845000Y-102855000D02*
X31250000Y-102260000D01*
X45605000Y-101885000D02*
X45605000Y-102585000D01*
X46980000Y-96530000D02*
X47000000Y-96510000D01*
X45605000Y-102585000D02*
X46260000Y-103240000D01*
X38195000Y-104100000D02*
X38520000Y-104425000D01*
X35070000Y-92650000D02*
X35070000Y-92657609D01*
X33000000Y-101240000D02*
X33000000Y-100420000D01*
X31980000Y-100510000D02*
X31980000Y-98900000D01*
X94000000Y-78762500D02*
X94012500Y-78750000D01*
X99600000Y-86312500D02*
X99750000Y-86462500D01*
X96950121Y-88190121D02*
X96910000Y-88150000D01*
X39047500Y-101462500D02*
X38250000Y-102260000D01*
X100827500Y-88037500D02*
X101050000Y-88260000D01*
X101027500Y-88037500D02*
X101250000Y-88260000D01*
X96030000Y-77650000D02*
X96750000Y-77650000D01*
X96910000Y-89100000D02*
X98195000Y-89100000D01*
X91260000Y-89260000D02*
X92240000Y-89260000D01*
X94895000Y-88150000D02*
X94590000Y-88150000D01*
X33000000Y-101240000D02*
X33390000Y-100850000D01*
X95540000Y-78750000D02*
X97040000Y-80250000D01*
X34500000Y-96510000D02*
X34500000Y-98880000D01*
X33000000Y-100420000D02*
X34520000Y-98900000D01*
X33390000Y-100850000D02*
X37860000Y-100850000D01*
X31250000Y-101240000D02*
X31980000Y-100510000D01*
X93715000Y-80490000D02*
X92487500Y-79262500D01*
X96010000Y-86300000D02*
X96910000Y-87200000D01*
X94500000Y-80490000D02*
X93715000Y-80490000D01*
X91975000Y-80465000D02*
X91975000Y-77325000D01*
X93375538Y-87855000D02*
X91845000Y-87855000D01*
X98195000Y-89100000D02*
X98520000Y-89425000D01*
X92487500Y-78250000D02*
X92487500Y-77750000D01*
X94012500Y-78250000D02*
X94012500Y-78750000D01*
X98405000Y-79075000D02*
X99580000Y-80250000D01*
X99580000Y-83880000D02*
X99600000Y-83900000D01*
X31980000Y-96530000D02*
X32000000Y-96510000D01*
X30605000Y-102585000D02*
X31260000Y-103240000D01*
X99750000Y-88037500D02*
X100827500Y-88037500D01*
X95737182Y-87051780D02*
X95737182Y-87307818D01*
X96385000Y-78285000D02*
X97175000Y-79075000D01*
X92487500Y-79262500D02*
X92487500Y-78750000D01*
X93960000Y-86300000D02*
X93000000Y-87260000D01*
X92000000Y-80490000D02*
X91975000Y-80465000D01*
X94030538Y-87200000D02*
X93375538Y-87855000D01*
X92050000Y-77250000D02*
X92487500Y-77250000D01*
X94590000Y-87200000D02*
X94030538Y-87200000D01*
X95580402Y-89100000D02*
X94590000Y-89100000D01*
X95070000Y-77650000D02*
X95070000Y-77657609D01*
X92487500Y-77750000D02*
X94012500Y-77750000D01*
X96030000Y-76650000D02*
X96030000Y-77650000D01*
X95737182Y-87307818D02*
X94895000Y-88150000D01*
X93000000Y-78762500D02*
X94000000Y-78762500D01*
X91845000Y-87855000D02*
X91250000Y-87260000D01*
X101050000Y-87240000D02*
X101050000Y-86250000D01*
X94012500Y-77250000D02*
X94470000Y-77250000D01*
X98155523Y-88190121D02*
X96950121Y-88190121D01*
X99480000Y-89425000D02*
X100500000Y-89425000D01*
X95727701Y-89247299D02*
X95580402Y-89100000D01*
X37860000Y-100850000D02*
X38250000Y-101240000D01*
X31980000Y-98900000D02*
X31980000Y-96530000D01*
X91975000Y-77325000D02*
X92050000Y-77250000D01*
X31250000Y-101240000D02*
X30605000Y-101885000D01*
X98880523Y-87890523D02*
X98880523Y-89064477D01*
X39580000Y-95250000D02*
X39580000Y-98880000D01*
X30605000Y-101885000D02*
X30605000Y-102585000D01*
X32487500Y-92750000D02*
X34012500Y-92750000D01*
X94012500Y-78750000D02*
X95540000Y-78750000D01*
X93960000Y-86300000D02*
X96010000Y-86300000D01*
X99580000Y-95250000D02*
X99580000Y-98880000D01*
X93960000Y-101300000D02*
X96010000Y-101300000D01*
X93375538Y-102855000D02*
X91845000Y-102855000D01*
X96385000Y-93285000D02*
X97175000Y-94075000D01*
X94590000Y-102200000D02*
X94030538Y-102200000D01*
X98880523Y-104064477D02*
X98520000Y-104425000D01*
X96950121Y-103190121D02*
X96910000Y-103150000D01*
X91845000Y-102855000D02*
X91250000Y-102260000D01*
X94012500Y-93250000D02*
X94012500Y-93750000D01*
X92487500Y-94262500D02*
X92487500Y-93750000D01*
X93715000Y-95490000D02*
X92487500Y-94262500D01*
X96010000Y-101300000D02*
X96910000Y-102200000D01*
X101050000Y-102240000D02*
X101050000Y-101250000D01*
X92240000Y-104260000D02*
X92250000Y-104250000D01*
X96605000Y-104100000D02*
X96910000Y-104100000D01*
X99580000Y-98880000D02*
X99600000Y-98900000D01*
X95737182Y-102307818D02*
X94895000Y-103150000D01*
X93960000Y-101300000D02*
X93000000Y-102260000D01*
X94895000Y-103150000D02*
X94590000Y-103150000D01*
X96030000Y-92650000D02*
X96750000Y-92650000D01*
X95070000Y-92657609D02*
X95697391Y-93285000D01*
X94670000Y-92250000D02*
X95070000Y-92650000D01*
X94500000Y-95490000D02*
X93715000Y-95490000D01*
X91975000Y-92325000D02*
X92050000Y-92250000D01*
X92487500Y-93250000D02*
X92487500Y-92750000D01*
X92000000Y-95490000D02*
X91975000Y-95465000D01*
X92050000Y-92250000D02*
X92487500Y-92250000D01*
X94030538Y-102200000D02*
X93375538Y-102855000D01*
X99750000Y-103037500D02*
X100827500Y-103037500D01*
X95540000Y-93750000D02*
X97040000Y-95250000D01*
X95580402Y-104100000D02*
X94590000Y-104100000D01*
X99480000Y-104425000D02*
X100500000Y-104425000D01*
X96030000Y-91650000D02*
X96030000Y-92650000D01*
X94000000Y-93762500D02*
X94012500Y-93750000D01*
X95737182Y-102051780D02*
X95737182Y-102307818D01*
X98155523Y-103190121D02*
X96950121Y-103190121D01*
X94012500Y-93750000D02*
X95540000Y-93750000D01*
X98195000Y-104100000D02*
X98520000Y-104425000D01*
X91260000Y-104260000D02*
X92240000Y-104260000D01*
X99600000Y-98900000D02*
X99600000Y-101312500D01*
X94012500Y-92250000D02*
X94470000Y-92250000D01*
X95070000Y-92650000D02*
X95070000Y-92657609D01*
X91975000Y-95465000D02*
X91975000Y-92325000D01*
X93000000Y-93762500D02*
X94000000Y-93762500D01*
X95727701Y-104247299D02*
X95580402Y-104100000D01*
X95960500Y-103109098D02*
X95960500Y-103455500D01*
X94012500Y-92750000D02*
X94012500Y-92250000D01*
X101027500Y-103037500D02*
X101250000Y-103260000D01*
X100827500Y-103037500D02*
X101050000Y-103260000D01*
X99750000Y-101462500D02*
X99047500Y-101462500D01*
X98405000Y-94075000D02*
X99580000Y-95250000D01*
X98880523Y-102890523D02*
X98880523Y-104064477D01*
X77050000Y-92250000D02*
X77487500Y-92250000D01*
X84480000Y-104425000D02*
X85500000Y-104425000D01*
X76845000Y-102855000D02*
X76250000Y-102260000D01*
X79895000Y-103150000D02*
X79590000Y-103150000D01*
X94500000Y-96510000D02*
X94500000Y-98880000D01*
X91980000Y-96530000D02*
X92000000Y-96510000D01*
X79030538Y-102200000D02*
X78375538Y-102855000D01*
X84600000Y-101312500D02*
X84750000Y-101462500D01*
X81950121Y-103190121D02*
X81910000Y-103150000D01*
X84750000Y-103037500D02*
X85827500Y-103037500D01*
X97175000Y-94075000D02*
X98405000Y-94075000D01*
X77487500Y-94262500D02*
X77487500Y-93750000D01*
X95697391Y-93285000D02*
X96385000Y-93285000D01*
X83880523Y-102890523D02*
X83880523Y-104064477D01*
X92487500Y-92750000D02*
X94012500Y-92750000D01*
X80727701Y-104247299D02*
X80580402Y-104100000D01*
X94470000Y-92250000D02*
X95070000Y-91650000D01*
X91250000Y-101240000D02*
X91980000Y-100510000D01*
X93390000Y-100850000D02*
X97860000Y-100850000D01*
X93000000Y-100420000D02*
X94520000Y-98900000D01*
X76975000Y-92325000D02*
X77050000Y-92250000D01*
X80580402Y-104100000D02*
X79590000Y-104100000D01*
X79000000Y-93762500D02*
X79012500Y-93750000D01*
X80540000Y-93750000D02*
X82040000Y-95250000D01*
X79012500Y-93750000D02*
X80540000Y-93750000D01*
X79012500Y-93250000D02*
X79012500Y-93750000D01*
X93000000Y-101240000D02*
X93390000Y-100850000D01*
X97860000Y-100850000D02*
X98250000Y-101240000D01*
X90605000Y-101885000D02*
X90605000Y-102585000D01*
X85827500Y-103037500D02*
X86050000Y-103260000D01*
X83155523Y-103190121D02*
X81950121Y-103190121D01*
X91980000Y-98900000D02*
X91980000Y-96530000D01*
X93000000Y-101240000D02*
X93000000Y-100420000D01*
X91980000Y-100510000D02*
X91980000Y-98900000D01*
X91250000Y-101240000D02*
X90605000Y-101885000D01*
X78000000Y-93762500D02*
X79000000Y-93762500D01*
X78715000Y-95490000D02*
X77487500Y-94262500D01*
X79590000Y-102200000D02*
X79030538Y-102200000D01*
X80737182Y-102051780D02*
X80737182Y-102307818D01*
X81030000Y-92650000D02*
X81750000Y-92650000D01*
X81010000Y-101300000D02*
X81910000Y-102200000D01*
X79500000Y-95490000D02*
X78715000Y-95490000D01*
X78375538Y-102855000D02*
X76845000Y-102855000D01*
X77000000Y-95490000D02*
X76975000Y-95465000D01*
X78960000Y-101300000D02*
X78000000Y-102260000D01*
X81030000Y-91650000D02*
X81030000Y-92650000D01*
X78960000Y-101300000D02*
X81010000Y-101300000D01*
X86027500Y-103037500D02*
X86250000Y-103260000D01*
X94012500Y-92250000D02*
X94670000Y-92250000D01*
X90605000Y-102585000D02*
X91260000Y-103240000D01*
X80737182Y-102307818D02*
X79895000Y-103150000D01*
X76260000Y-104260000D02*
X77240000Y-104260000D01*
X99047500Y-101462500D02*
X98250000Y-102260000D01*
X95960500Y-103455500D02*
X96605000Y-104100000D01*
X98250000Y-102260000D02*
X98880523Y-102890523D01*
X86050000Y-102240000D02*
X86050000Y-101250000D01*
X99600000Y-101312500D02*
X99750000Y-101462500D01*
X76975000Y-95465000D02*
X76975000Y-92325000D01*
X96910000Y-104100000D02*
X98195000Y-104100000D01*
X63375538Y-102855000D02*
X61845000Y-102855000D01*
X84580000Y-98880000D02*
X84600000Y-98900000D01*
X77487500Y-93250000D02*
X77487500Y-92750000D01*
X76980000Y-100510000D02*
X76980000Y-98900000D01*
X61975000Y-92325000D02*
X62050000Y-92250000D01*
X64012500Y-93250000D02*
X64012500Y-93750000D01*
X70827500Y-103037500D02*
X71050000Y-103260000D01*
X80697391Y-93285000D02*
X81385000Y-93285000D01*
X78390000Y-100850000D02*
X82860000Y-100850000D01*
X78000000Y-101240000D02*
X78000000Y-100420000D01*
X64500000Y-95490000D02*
X63715000Y-95490000D01*
X61975000Y-95465000D02*
X61975000Y-92325000D01*
X69750000Y-103037500D02*
X70827500Y-103037500D01*
X64895000Y-103150000D02*
X64590000Y-103150000D01*
X84047500Y-101462500D02*
X83250000Y-102260000D01*
X80070000Y-92650000D02*
X80070000Y-92657609D01*
X82175000Y-94075000D02*
X83405000Y-94075000D01*
X65540000Y-93750000D02*
X67040000Y-95250000D01*
X69480000Y-104425000D02*
X70500000Y-104425000D01*
X71027500Y-103037500D02*
X71250000Y-103260000D01*
X80960500Y-103455500D02*
X81605000Y-104100000D01*
X80960500Y-103109098D02*
X80960500Y-103455500D01*
X83880523Y-104064477D02*
X83520000Y-104425000D01*
X79012500Y-92250000D02*
X79470000Y-92250000D01*
X81910000Y-104100000D02*
X83195000Y-104100000D01*
X75605000Y-102585000D02*
X76260000Y-103240000D01*
X64590000Y-102200000D02*
X64030538Y-102200000D01*
X78000000Y-100420000D02*
X79520000Y-98900000D01*
X61845000Y-102855000D02*
X61250000Y-102260000D01*
X83250000Y-102260000D02*
X83880523Y-102890523D01*
X77487500Y-92750000D02*
X79012500Y-92750000D01*
X66010000Y-101300000D02*
X66910000Y-102200000D01*
X79012500Y-92750000D02*
X79012500Y-92250000D01*
X79500000Y-96510000D02*
X79500000Y-98880000D01*
X76250000Y-101240000D02*
X76980000Y-100510000D01*
X76980000Y-98900000D02*
X76980000Y-96530000D01*
X64030538Y-102200000D02*
X63375538Y-102855000D01*
X64000000Y-93762500D02*
X64012500Y-93750000D01*
X65737182Y-102051780D02*
X65737182Y-102307818D01*
X84580000Y-95250000D02*
X84580000Y-98880000D01*
X84600000Y-98900000D02*
X84600000Y-101312500D01*
X78000000Y-101240000D02*
X78390000Y-100850000D01*
X62487500Y-94262500D02*
X62487500Y-93750000D01*
X62000000Y-95490000D02*
X61975000Y-95465000D01*
X80070000Y-92657609D02*
X80697391Y-93285000D01*
X77240000Y-104260000D02*
X77250000Y-104250000D01*
X79012500Y-92250000D02*
X79670000Y-92250000D01*
X82860000Y-100850000D02*
X83250000Y-101240000D01*
X75605000Y-101885000D02*
X75605000Y-102585000D01*
X63960000Y-101300000D02*
X63000000Y-102260000D01*
X63000000Y-93762500D02*
X64000000Y-93762500D01*
X76980000Y-96530000D02*
X77000000Y-96510000D01*
X63960000Y-101300000D02*
X66010000Y-101300000D01*
X83195000Y-104100000D02*
X83520000Y-104425000D01*
X84750000Y-101462500D02*
X84047500Y-101462500D01*
X83405000Y-94075000D02*
X84580000Y-95250000D01*
X65737182Y-102307818D02*
X64895000Y-103150000D01*
X62050000Y-92250000D02*
X62487500Y-92250000D01*
X81385000Y-93285000D02*
X82175000Y-94075000D01*
X79670000Y-92250000D02*
X80070000Y-92650000D01*
X63715000Y-95490000D02*
X62487500Y-94262500D01*
X81605000Y-104100000D02*
X81910000Y-104100000D01*
X76250000Y-101240000D02*
X75605000Y-101885000D01*
X79470000Y-92250000D02*
X80070000Y-91650000D01*
X65070000Y-92650000D02*
X65070000Y-92657609D01*
X66910000Y-104100000D02*
X68195000Y-104100000D01*
X61250000Y-101240000D02*
X60605000Y-101885000D01*
X64012500Y-93750000D02*
X65540000Y-93750000D01*
X64012500Y-92250000D02*
X64470000Y-92250000D01*
X63390000Y-100850000D02*
X67860000Y-100850000D01*
X61980000Y-100510000D02*
X61980000Y-98900000D01*
X66385000Y-93285000D02*
X67175000Y-94075000D01*
X64500000Y-96510000D02*
X64500000Y-98880000D01*
X66030000Y-91650000D02*
X66030000Y-92650000D01*
X51010000Y-101300000D02*
X51910000Y-102200000D01*
X61980000Y-98900000D02*
X61980000Y-96530000D01*
X48375538Y-102855000D02*
X46845000Y-102855000D01*
X62240000Y-104260000D02*
X62250000Y-104250000D01*
X69047500Y-101462500D02*
X68250000Y-102260000D01*
X65580402Y-104100000D02*
X64590000Y-104100000D01*
X62487500Y-92750000D02*
X64012500Y-92750000D01*
X71050000Y-102240000D02*
X71050000Y-101250000D01*
X65727701Y-104247299D02*
X65580402Y-104100000D01*
X48715000Y-95490000D02*
X47487500Y-94262500D01*
X68155523Y-103190121D02*
X66950121Y-103190121D01*
X63000000Y-100420000D02*
X64520000Y-98900000D01*
X47000000Y-95490000D02*
X46975000Y-95465000D01*
X68880523Y-102890523D02*
X68880523Y-104064477D01*
X63000000Y-101240000D02*
X63000000Y-100420000D01*
X67175000Y-94075000D02*
X68405000Y-94075000D01*
X65960500Y-103109098D02*
X65960500Y-103455500D01*
X64670000Y-92250000D02*
X65070000Y-92650000D01*
X65697391Y-93285000D02*
X66385000Y-93285000D01*
X69750000Y-101462500D02*
X69047500Y-101462500D01*
X64470000Y-92250000D02*
X65070000Y-91650000D01*
X69600000Y-98900000D02*
X69600000Y-101312500D01*
X65960500Y-103455500D02*
X66605000Y-104100000D01*
X49500000Y-95490000D02*
X48715000Y-95490000D01*
X47487500Y-94262500D02*
X47487500Y-93750000D01*
X69580000Y-98880000D02*
X69600000Y-98900000D01*
X63000000Y-101240000D02*
X63390000Y-100850000D01*
X68250000Y-102260000D02*
X68880523Y-102890523D01*
X64012500Y-92750000D02*
X64012500Y-92250000D01*
X61250000Y-101240000D02*
X61980000Y-100510000D01*
X47050000Y-92250000D02*
X47487500Y-92250000D01*
X69580000Y-95250000D02*
X69580000Y-98880000D01*
X48960000Y-101300000D02*
X51010000Y-101300000D01*
X68195000Y-104100000D02*
X68520000Y-104425000D01*
X64012500Y-92250000D02*
X64670000Y-92250000D01*
X48960000Y-101300000D02*
X48000000Y-102260000D01*
X67860000Y-100850000D02*
X68250000Y-101240000D01*
X46975000Y-92325000D02*
X47050000Y-92250000D01*
X46975000Y-95465000D02*
X46975000Y-92325000D01*
X65070000Y-92657609D02*
X65697391Y-93285000D01*
X66605000Y-104100000D02*
X66910000Y-104100000D01*
X62487500Y-93250000D02*
X62487500Y-92750000D01*
X61260000Y-104260000D02*
X62240000Y-104260000D01*
X60605000Y-102585000D02*
X61260000Y-103240000D01*
X49590000Y-102200000D02*
X49030538Y-102200000D01*
X61980000Y-96530000D02*
X62000000Y-96510000D01*
X60605000Y-101885000D02*
X60605000Y-102585000D01*
X69600000Y-101312500D02*
X69750000Y-101462500D01*
X68880523Y-104064477D02*
X68520000Y-104425000D01*
X66030000Y-92650000D02*
X66750000Y-92650000D01*
X68405000Y-94075000D02*
X69580000Y-95250000D01*
X66950121Y-103190121D02*
X66910000Y-103150000D01*
X55827500Y-103037500D02*
X56050000Y-103260000D01*
X56027500Y-103037500D02*
X56250000Y-103260000D01*
X54750000Y-103037500D02*
X55827500Y-103037500D01*
X51030000Y-91650000D02*
X51030000Y-92650000D01*
X53880523Y-104064477D02*
X53520000Y-104425000D01*
X52860000Y-100850000D02*
X53250000Y-101240000D01*
X51950121Y-103190121D02*
X51910000Y-103150000D01*
X49012500Y-93250000D02*
X49012500Y-93750000D01*
X49670000Y-92250000D02*
X50070000Y-92650000D01*
X49895000Y-103150000D02*
X49590000Y-103150000D01*
X56050000Y-102240000D02*
X56050000Y-101250000D01*
X50540000Y-93750000D02*
X52040000Y-95250000D01*
X46980000Y-100510000D02*
X46980000Y-98900000D01*
X54600000Y-101312500D02*
X54750000Y-101462500D01*
X54480000Y-104425000D02*
X55500000Y-104425000D01*
X46980000Y-98900000D02*
X46980000Y-96530000D01*
X48390000Y-100850000D02*
X52860000Y-100850000D01*
X53250000Y-102260000D02*
X53880523Y-102890523D01*
X54750000Y-101462500D02*
X54047500Y-101462500D01*
X53155523Y-103190121D02*
X51950121Y-103190121D01*
X51910000Y-104100000D02*
X53195000Y-104100000D01*
X47487500Y-92750000D02*
X49012500Y-92750000D01*
X53880523Y-102890523D02*
X53880523Y-104064477D01*
X47487500Y-93250000D02*
X47487500Y-92750000D01*
X47240000Y-104260000D02*
X47250000Y-104250000D01*
X54580000Y-98880000D02*
X54600000Y-98900000D01*
X50960500Y-103109098D02*
X50960500Y-103455500D01*
X49500000Y-96510000D02*
X49500000Y-98880000D01*
X48000000Y-100420000D02*
X49520000Y-98900000D01*
X48000000Y-93762500D02*
X49000000Y-93762500D01*
X50727701Y-104247299D02*
X50580402Y-104100000D01*
X49012500Y-93750000D02*
X50540000Y-93750000D01*
X50737182Y-102051780D02*
X50737182Y-102307818D01*
X50070000Y-92650000D02*
X50070000Y-92657609D01*
X51605000Y-104100000D02*
X51910000Y-104100000D01*
X49012500Y-92750000D02*
X49012500Y-92250000D01*
X49012500Y-92250000D02*
X49470000Y-92250000D01*
X46260000Y-104260000D02*
X47240000Y-104260000D01*
X95737182Y-57307818D02*
X94895000Y-58150000D01*
X48000000Y-101240000D02*
X48000000Y-100420000D01*
X50960500Y-103455500D02*
X51605000Y-104100000D01*
X48000000Y-101240000D02*
X48390000Y-100850000D01*
X50070000Y-92657609D02*
X50697391Y-93285000D01*
X95540000Y-48750000D02*
X97040000Y-50250000D01*
X51030000Y-92650000D02*
X51750000Y-92650000D01*
X53195000Y-104100000D02*
X53520000Y-104425000D01*
X46250000Y-101240000D02*
X46980000Y-100510000D01*
X50580402Y-104100000D02*
X49590000Y-104100000D01*
X54047500Y-101462500D02*
X53250000Y-102260000D01*
X52175000Y-94075000D02*
X53405000Y-94075000D01*
X53405000Y-94075000D02*
X54580000Y-95250000D01*
X54600000Y-98900000D02*
X54600000Y-101312500D01*
X51385000Y-93285000D02*
X52175000Y-94075000D01*
X50697391Y-93285000D02*
X51385000Y-93285000D01*
X54580000Y-95250000D02*
X54580000Y-98880000D01*
X49470000Y-92250000D02*
X50070000Y-91650000D01*
X49030538Y-102200000D02*
X48375538Y-102855000D01*
X46845000Y-102855000D02*
X46250000Y-102260000D01*
X50737182Y-102307818D02*
X49895000Y-103150000D01*
X49000000Y-93762500D02*
X49012500Y-93750000D01*
X49012500Y-92250000D02*
X49670000Y-92250000D01*
X94012500Y-47250000D02*
X94670000Y-47250000D01*
X95070000Y-47657609D02*
X95697391Y-48285000D01*
X91260000Y-59260000D02*
X92240000Y-59260000D01*
X84480000Y-59425000D02*
X85500000Y-59425000D01*
X81030000Y-47650000D02*
X81750000Y-47650000D01*
X81605000Y-59100000D02*
X81910000Y-59100000D01*
X79012500Y-47250000D02*
X79670000Y-47250000D01*
X80960500Y-58455500D02*
X81605000Y-59100000D01*
X77487500Y-48250000D02*
X77487500Y-47750000D01*
X80960500Y-58109098D02*
X80960500Y-58455500D01*
X84750000Y-56462500D02*
X84047500Y-56462500D01*
X81950121Y-58190121D02*
X81910000Y-58150000D01*
X79012500Y-48750000D02*
X80540000Y-48750000D01*
X84580000Y-50250000D02*
X84580000Y-53880000D01*
X65737182Y-57051780D02*
X65737182Y-57307818D01*
X78000000Y-56240000D02*
X78390000Y-55850000D01*
X80070000Y-47650000D02*
X80070000Y-47657609D01*
X83880523Y-59064477D02*
X83520000Y-59425000D01*
X79470000Y-47250000D02*
X80070000Y-46650000D01*
X77487500Y-47750000D02*
X79012500Y-47750000D01*
X77240000Y-59260000D02*
X77250000Y-59250000D01*
X79012500Y-47750000D02*
X79012500Y-47250000D01*
X83250000Y-57260000D02*
X83880523Y-57890523D01*
X63960000Y-56300000D02*
X63000000Y-57260000D01*
X63375538Y-57855000D02*
X61845000Y-57855000D01*
X65737182Y-57307818D02*
X64895000Y-58150000D01*
X64012500Y-48750000D02*
X65540000Y-48750000D01*
X84600000Y-56312500D02*
X84750000Y-56462500D01*
X83880523Y-57890523D02*
X83880523Y-59064477D01*
X71050000Y-57240000D02*
X71050000Y-56250000D01*
X83405000Y-49075000D02*
X84580000Y-50250000D01*
X69750000Y-58037500D02*
X70827500Y-58037500D01*
X78000000Y-56240000D02*
X78000000Y-55420000D01*
X62000000Y-50490000D02*
X61975000Y-50465000D01*
X62487500Y-49262500D02*
X62487500Y-48750000D01*
X64590000Y-57200000D02*
X64030538Y-57200000D01*
X76980000Y-55510000D02*
X76980000Y-53900000D01*
X76260000Y-59260000D02*
X77240000Y-59260000D01*
X78390000Y-55850000D02*
X82860000Y-55850000D01*
X75605000Y-57585000D02*
X76260000Y-58240000D01*
X76250000Y-56240000D02*
X75605000Y-56885000D01*
X61975000Y-50465000D02*
X61975000Y-47325000D01*
X66010000Y-56300000D02*
X66910000Y-57200000D01*
X80070000Y-47657609D02*
X80697391Y-48285000D01*
X79500000Y-51510000D02*
X79500000Y-53880000D01*
X61975000Y-47325000D02*
X62050000Y-47250000D01*
X62050000Y-47250000D02*
X62487500Y-47250000D01*
X61845000Y-57855000D02*
X61250000Y-57260000D01*
X66950121Y-58190121D02*
X66910000Y-58150000D01*
X66030000Y-46650000D02*
X66030000Y-47650000D01*
X83195000Y-59100000D02*
X83520000Y-59425000D01*
X79012500Y-47250000D02*
X79470000Y-47250000D01*
X81910000Y-59100000D02*
X83195000Y-59100000D01*
X84580000Y-53880000D02*
X84600000Y-53900000D01*
X79670000Y-47250000D02*
X80070000Y-47650000D01*
X66030000Y-47650000D02*
X66750000Y-47650000D01*
X82175000Y-49075000D02*
X83405000Y-49075000D01*
X76250000Y-56240000D02*
X76980000Y-55510000D01*
X81385000Y-48285000D02*
X82175000Y-49075000D01*
X78000000Y-55420000D02*
X79520000Y-53900000D01*
X76980000Y-51530000D02*
X77000000Y-51510000D01*
X64500000Y-50490000D02*
X63715000Y-50490000D01*
X71027500Y-58037500D02*
X71250000Y-58260000D01*
X64030538Y-57200000D02*
X63375538Y-57855000D01*
X64895000Y-58150000D02*
X64590000Y-58150000D01*
X65727701Y-59247299D02*
X65580402Y-59100000D01*
X76980000Y-53900000D02*
X76980000Y-51530000D01*
X63960000Y-56300000D02*
X66010000Y-56300000D01*
X70827500Y-58037500D02*
X71050000Y-58260000D01*
X64012500Y-48250000D02*
X64012500Y-48750000D01*
X75605000Y-56885000D02*
X75605000Y-57585000D01*
X82860000Y-55850000D02*
X83250000Y-56240000D01*
X68155523Y-58190121D02*
X66950121Y-58190121D01*
X84600000Y-53900000D02*
X84600000Y-56312500D01*
X84047500Y-56462500D02*
X83250000Y-57260000D01*
X80697391Y-48285000D02*
X81385000Y-48285000D01*
X63715000Y-50490000D02*
X62487500Y-49262500D01*
X65070000Y-47650000D02*
X65070000Y-47657609D01*
X61250000Y-56240000D02*
X61980000Y-55510000D01*
X48715000Y-50490000D02*
X47487500Y-49262500D01*
X65697391Y-48285000D02*
X66385000Y-48285000D01*
X67860000Y-55850000D02*
X68250000Y-56240000D01*
X61260000Y-59260000D02*
X62240000Y-59260000D01*
X67175000Y-49075000D02*
X68405000Y-49075000D01*
X47050000Y-47250000D02*
X47487500Y-47250000D01*
X66385000Y-48285000D02*
X67175000Y-49075000D01*
X46975000Y-50465000D02*
X46975000Y-47325000D01*
X48960000Y-56300000D02*
X51010000Y-56300000D01*
X56027500Y-58037500D02*
X56250000Y-58260000D01*
X62240000Y-59260000D02*
X62250000Y-59250000D01*
X68250000Y-57260000D02*
X68880523Y-57890523D01*
X65960500Y-58455500D02*
X66605000Y-59100000D01*
X64500000Y-51510000D02*
X64500000Y-53880000D01*
X63000000Y-55420000D02*
X64520000Y-53900000D01*
X65580402Y-59100000D02*
X64590000Y-59100000D01*
X64000000Y-48762500D02*
X64012500Y-48750000D01*
X63000000Y-48762500D02*
X64000000Y-48762500D01*
X65540000Y-48750000D02*
X67040000Y-50250000D01*
X64670000Y-47250000D02*
X65070000Y-47650000D01*
X69480000Y-59425000D02*
X70500000Y-59425000D01*
X66605000Y-59100000D02*
X66910000Y-59100000D01*
X69600000Y-53900000D02*
X69600000Y-56312500D01*
X49030538Y-57200000D02*
X48375538Y-57855000D01*
X69750000Y-56462500D02*
X69047500Y-56462500D01*
X69580000Y-50250000D02*
X69580000Y-53880000D01*
X69580000Y-53880000D02*
X69600000Y-53900000D01*
X46845000Y-57855000D02*
X46250000Y-57260000D01*
X68880523Y-59064477D02*
X68520000Y-59425000D01*
X65960500Y-58109098D02*
X65960500Y-58455500D01*
X51010000Y-56300000D02*
X51910000Y-57200000D01*
X61980000Y-55510000D02*
X61980000Y-53900000D01*
X61250000Y-56240000D02*
X60605000Y-56885000D01*
X65070000Y-47657609D02*
X65697391Y-48285000D01*
X69047500Y-56462500D02*
X68250000Y-57260000D01*
X68405000Y-49075000D02*
X69580000Y-50250000D01*
X60605000Y-56885000D02*
X60605000Y-57585000D01*
X47487500Y-49262500D02*
X47487500Y-48750000D01*
X49590000Y-57200000D02*
X49030538Y-57200000D01*
X68880523Y-57890523D02*
X68880523Y-59064477D01*
X66910000Y-59100000D02*
X68195000Y-59100000D01*
X63000000Y-56240000D02*
X63000000Y-55420000D01*
X62487500Y-47750000D02*
X64012500Y-47750000D01*
X64012500Y-47250000D02*
X64470000Y-47250000D01*
X61980000Y-51530000D02*
X62000000Y-51510000D01*
X62487500Y-48250000D02*
X62487500Y-47750000D01*
X69600000Y-56312500D02*
X69750000Y-56462500D01*
X61980000Y-53900000D02*
X61980000Y-51530000D01*
X48375538Y-57855000D02*
X46845000Y-57855000D01*
X68195000Y-59100000D02*
X68520000Y-59425000D01*
X60605000Y-57585000D02*
X61260000Y-58240000D01*
X49500000Y-50490000D02*
X48715000Y-50490000D01*
X46975000Y-47325000D02*
X47050000Y-47250000D01*
X48960000Y-56300000D02*
X48000000Y-57260000D01*
X64470000Y-47250000D02*
X65070000Y-46650000D01*
X63390000Y-55850000D02*
X67860000Y-55850000D01*
X47000000Y-50490000D02*
X46975000Y-50465000D01*
X64012500Y-47750000D02*
X64012500Y-47250000D01*
X63000000Y-56240000D02*
X63390000Y-55850000D01*
X64012500Y-47250000D02*
X64670000Y-47250000D01*
X56050000Y-57240000D02*
X56050000Y-56250000D01*
X53880523Y-59064477D02*
X53520000Y-59425000D01*
X47240000Y-59260000D02*
X47250000Y-59250000D01*
X49470000Y-47250000D02*
X50070000Y-46650000D01*
X49670000Y-47250000D02*
X50070000Y-47650000D01*
X50070000Y-47650000D02*
X50070000Y-47657609D01*
X46260000Y-59260000D02*
X47240000Y-59260000D01*
X45605000Y-57585000D02*
X46260000Y-58240000D01*
X54750000Y-56462500D02*
X54047500Y-56462500D01*
X46980000Y-53900000D02*
X46980000Y-51530000D01*
X46250000Y-56240000D02*
X46980000Y-55510000D01*
X50960500Y-58455500D02*
X51605000Y-59100000D01*
X48000000Y-48762500D02*
X49000000Y-48762500D01*
X51950121Y-58190121D02*
X51910000Y-58150000D01*
X53405000Y-49075000D02*
X54580000Y-50250000D01*
X51030000Y-46650000D02*
X51030000Y-47650000D01*
X54750000Y-58037500D02*
X55827500Y-58037500D01*
X53880523Y-57890523D02*
X53880523Y-59064477D01*
X55827500Y-58037500D02*
X56050000Y-58260000D01*
X53155523Y-58190121D02*
X51950121Y-58190121D01*
X54047500Y-56462500D02*
X53250000Y-57260000D01*
X50960500Y-58109098D02*
X50960500Y-58455500D01*
X46980000Y-55510000D02*
X46980000Y-53900000D01*
X45605000Y-56885000D02*
X45605000Y-57585000D01*
X52860000Y-55850000D02*
X53250000Y-56240000D01*
X46980000Y-51530000D02*
X47000000Y-51510000D01*
X49012500Y-47250000D02*
X49670000Y-47250000D01*
X49895000Y-58150000D02*
X49590000Y-58150000D01*
X50580402Y-59100000D02*
X49590000Y-59100000D01*
X50070000Y-47657609D02*
X50697391Y-48285000D01*
X48000000Y-56240000D02*
X48390000Y-55850000D01*
X48000000Y-55420000D02*
X49520000Y-53900000D01*
X54600000Y-56312500D02*
X54750000Y-56462500D01*
X50727701Y-59247299D02*
X50580402Y-59100000D01*
X54580000Y-53880000D02*
X54600000Y-53900000D01*
X49000000Y-48762500D02*
X49012500Y-48750000D01*
X53250000Y-57260000D02*
X53880523Y-57890523D01*
X49012500Y-48250000D02*
X49012500Y-48750000D01*
X49012500Y-48750000D02*
X50540000Y-48750000D01*
X49012500Y-47250000D02*
X49470000Y-47250000D01*
X50540000Y-48750000D02*
X52040000Y-50250000D01*
X54580000Y-50250000D02*
X54580000Y-53880000D01*
X48390000Y-55850000D02*
X52860000Y-55850000D01*
X52175000Y-49075000D02*
X53405000Y-49075000D01*
X51910000Y-59100000D02*
X53195000Y-59100000D01*
X49012500Y-47750000D02*
X49012500Y-47250000D01*
X47487500Y-48250000D02*
X47487500Y-47750000D01*
X51605000Y-59100000D02*
X51910000Y-59100000D01*
X48000000Y-56240000D02*
X48000000Y-55420000D01*
X50737182Y-57051780D02*
X50737182Y-57307818D01*
X50697391Y-48285000D02*
X51385000Y-48285000D01*
X53195000Y-59100000D02*
X53520000Y-59425000D01*
X51385000Y-48285000D02*
X52175000Y-49075000D01*
X54600000Y-53900000D02*
X54600000Y-56312500D01*
X84750000Y-58037500D02*
X85827500Y-58037500D01*
X49500000Y-51510000D02*
X49500000Y-53880000D01*
X46250000Y-56240000D02*
X45605000Y-56885000D01*
X50737182Y-57307818D02*
X49895000Y-58150000D01*
X47487500Y-47750000D02*
X49012500Y-47750000D01*
X54480000Y-59425000D02*
X55500000Y-59425000D01*
X51030000Y-47650000D02*
X51750000Y-47650000D01*
X36030000Y-46650000D02*
X36030000Y-47650000D01*
X39580000Y-50250000D02*
X39580000Y-53880000D01*
X39580000Y-53880000D02*
X39600000Y-53900000D01*
X34012500Y-47250000D02*
X34470000Y-47250000D01*
X35960500Y-58109098D02*
X35960500Y-58455500D01*
X35070000Y-47650000D02*
X35070000Y-47657609D01*
X39480000Y-59425000D02*
X40500000Y-59425000D01*
X34670000Y-47250000D02*
X35070000Y-47650000D01*
X33375538Y-57855000D02*
X31845000Y-57855000D01*
X34000000Y-48762500D02*
X34012500Y-48750000D01*
X38405000Y-49075000D02*
X39580000Y-50250000D01*
X33000000Y-48762500D02*
X34000000Y-48762500D01*
X39047500Y-56462500D02*
X38250000Y-57260000D01*
X36385000Y-48285000D02*
X37175000Y-49075000D01*
X33715000Y-50490000D02*
X32487500Y-49262500D01*
X32487500Y-49262500D02*
X32487500Y-48750000D01*
X36030000Y-47650000D02*
X36750000Y-47650000D01*
X33960000Y-56300000D02*
X33000000Y-57260000D01*
X40827500Y-58037500D02*
X41050000Y-58260000D01*
X34470000Y-47250000D02*
X35070000Y-46650000D01*
X34500000Y-50490000D02*
X33715000Y-50490000D01*
X39600000Y-56312500D02*
X39750000Y-56462500D01*
X38880523Y-57890523D02*
X38880523Y-59064477D01*
X34012500Y-48250000D02*
X34012500Y-48750000D01*
X35960500Y-58455500D02*
X36605000Y-59100000D01*
X38880523Y-59064477D02*
X38520000Y-59425000D01*
X33960000Y-56300000D02*
X36010000Y-56300000D01*
X31975000Y-50465000D02*
X31975000Y-47325000D01*
X32050000Y-47250000D02*
X32487500Y-47250000D01*
X31845000Y-57855000D02*
X31250000Y-57260000D01*
X39750000Y-58037500D02*
X40827500Y-58037500D01*
X38195000Y-59100000D02*
X38520000Y-59425000D01*
X35540000Y-48750000D02*
X37040000Y-50250000D01*
X32000000Y-50490000D02*
X31975000Y-50465000D01*
X35070000Y-47657609D02*
X35697391Y-48285000D01*
X32487500Y-47750000D02*
X34012500Y-47750000D01*
X31260000Y-59260000D02*
X32240000Y-59260000D01*
X35737182Y-57307818D02*
X34895000Y-58150000D01*
X32240000Y-59260000D02*
X32250000Y-59250000D01*
X36605000Y-59100000D02*
X36910000Y-59100000D01*
X31975000Y-47325000D02*
X32050000Y-47250000D01*
X41027500Y-58037500D02*
X41250000Y-58260000D01*
X34012500Y-47250000D02*
X34670000Y-47250000D01*
X35737182Y-57051780D02*
X35737182Y-57307818D01*
X36910000Y-59100000D02*
X38195000Y-59100000D01*
X34590000Y-57200000D02*
X34030538Y-57200000D01*
X36010000Y-56300000D02*
X36910000Y-57200000D01*
X34030538Y-57200000D02*
X33375538Y-57855000D01*
X34895000Y-58150000D02*
X34590000Y-58150000D01*
X39600000Y-53900000D02*
X39600000Y-56312500D01*
X34012500Y-48750000D02*
X35540000Y-48750000D01*
X38250000Y-57260000D02*
X38880523Y-57890523D01*
X41050000Y-57240000D02*
X41050000Y-56250000D01*
X38155523Y-58190121D02*
X36950121Y-58190121D01*
X36950121Y-58190121D02*
X36910000Y-58150000D01*
X39750000Y-56462500D02*
X39047500Y-56462500D01*
X35580402Y-59100000D02*
X34590000Y-59100000D01*
X35727701Y-59247299D02*
X35580402Y-59100000D01*
X34012500Y-47750000D02*
X34012500Y-47250000D01*
X37175000Y-49075000D02*
X38405000Y-49075000D01*
X35697391Y-48285000D02*
X36385000Y-48285000D01*
X32487500Y-48250000D02*
X32487500Y-47750000D01*
X93960000Y-41300000D02*
X96010000Y-41300000D01*
X96010000Y-41300000D02*
X96910000Y-42200000D01*
X95737182Y-42307818D02*
X94895000Y-43150000D01*
X99580000Y-35250000D02*
X99580000Y-38880000D01*
X94030538Y-42200000D02*
X93375538Y-42855000D01*
X101027500Y-43037500D02*
X101250000Y-43260000D01*
X93000000Y-33762500D02*
X94000000Y-33762500D01*
X94012500Y-33750000D02*
X95540000Y-33750000D01*
X94000000Y-33762500D02*
X94012500Y-33750000D01*
X91260000Y-44260000D02*
X92240000Y-44260000D01*
X99047500Y-41462500D02*
X98250000Y-42260000D01*
X92240000Y-44260000D02*
X92250000Y-44250000D01*
X94590000Y-42200000D02*
X94030538Y-42200000D01*
X94012500Y-32750000D02*
X94012500Y-32250000D01*
X94895000Y-43150000D02*
X94590000Y-43150000D01*
X93375538Y-42855000D02*
X91845000Y-42855000D01*
X98405000Y-34075000D02*
X99580000Y-35250000D01*
X34500000Y-51510000D02*
X34500000Y-53880000D01*
X31250000Y-56240000D02*
X31980000Y-55510000D01*
X95737182Y-42051780D02*
X95737182Y-42307818D01*
X91975000Y-32325000D02*
X92050000Y-32250000D01*
X30605000Y-57585000D02*
X31260000Y-58240000D01*
X95960500Y-43109098D02*
X95960500Y-43455500D01*
X97175000Y-34075000D02*
X98405000Y-34075000D01*
X96605000Y-44100000D02*
X96910000Y-44100000D01*
X94012500Y-32250000D02*
X94670000Y-32250000D01*
X31980000Y-55510000D02*
X31980000Y-53900000D01*
X33000000Y-56240000D02*
X33390000Y-55850000D01*
X99580000Y-38880000D02*
X99600000Y-38900000D01*
X100827500Y-43037500D02*
X101050000Y-43260000D01*
X92000000Y-35490000D02*
X91975000Y-35465000D01*
X95960500Y-43455500D02*
X96605000Y-44100000D01*
X92050000Y-32250000D02*
X92487500Y-32250000D01*
X91845000Y-42855000D02*
X91250000Y-42260000D01*
X96030000Y-32650000D02*
X96750000Y-32650000D01*
X98880523Y-44064477D02*
X98520000Y-44425000D01*
X91975000Y-35465000D02*
X91975000Y-32325000D01*
X31250000Y-56240000D02*
X30605000Y-56885000D01*
X33000000Y-55420000D02*
X34520000Y-53900000D01*
X93715000Y-35490000D02*
X92487500Y-34262500D01*
X95580402Y-44100000D02*
X94590000Y-44100000D01*
X92487500Y-33250000D02*
X92487500Y-32750000D01*
X33390000Y-55850000D02*
X37860000Y-55850000D01*
X30605000Y-56885000D02*
X30605000Y-57585000D01*
X37860000Y-55850000D02*
X38250000Y-56240000D01*
X31980000Y-51530000D02*
X32000000Y-51510000D01*
X92487500Y-34262500D02*
X92487500Y-33750000D01*
X98155523Y-43190121D02*
X96950121Y-43190121D01*
X93960000Y-41300000D02*
X93000000Y-42260000D01*
X95070000Y-32657609D02*
X95697391Y-33285000D01*
X99750000Y-43037500D02*
X100827500Y-43037500D01*
X96030000Y-31650000D02*
X96030000Y-32650000D01*
X99480000Y-44425000D02*
X100500000Y-44425000D01*
X95697391Y-33285000D02*
X96385000Y-33285000D01*
X94012500Y-33250000D02*
X94012500Y-33750000D01*
X95540000Y-33750000D02*
X97040000Y-35250000D01*
X33000000Y-56240000D02*
X33000000Y-55420000D01*
X101050000Y-42240000D02*
X101050000Y-41250000D01*
X95727701Y-44247299D02*
X95580402Y-44100000D01*
X31980000Y-53900000D02*
X31980000Y-51530000D01*
X94500000Y-35490000D02*
X93715000Y-35490000D01*
X96950121Y-43190121D02*
X96910000Y-43150000D01*
X99600000Y-38900000D02*
X99600000Y-41312500D01*
X93000000Y-41240000D02*
X93390000Y-40850000D01*
X80737182Y-42051780D02*
X80737182Y-42307818D01*
X99600000Y-41312500D02*
X99750000Y-41462500D01*
X99750000Y-41462500D02*
X99047500Y-41462500D01*
X91250000Y-41240000D02*
X90605000Y-41885000D01*
X81010000Y-41300000D02*
X81910000Y-42200000D01*
X94500000Y-36510000D02*
X94500000Y-38880000D01*
X78000000Y-33762500D02*
X79000000Y-33762500D01*
X90605000Y-42585000D02*
X91260000Y-43240000D01*
X80737182Y-42307818D02*
X79895000Y-43150000D01*
X79000000Y-33762500D02*
X79012500Y-33750000D01*
X84750000Y-43037500D02*
X85827500Y-43037500D01*
X96385000Y-33285000D02*
X97175000Y-34075000D01*
X98250000Y-42260000D02*
X98880523Y-42890523D01*
X90605000Y-41885000D02*
X90605000Y-42585000D01*
X93000000Y-41240000D02*
X93000000Y-40420000D01*
X98880523Y-42890523D02*
X98880523Y-44064477D01*
X79500000Y-35490000D02*
X78715000Y-35490000D01*
X79895000Y-43150000D02*
X79590000Y-43150000D01*
X78715000Y-35490000D02*
X77487500Y-34262500D01*
X84480000Y-44425000D02*
X85500000Y-44425000D01*
X81030000Y-31650000D02*
X81030000Y-32650000D01*
X80540000Y-33750000D02*
X82040000Y-35250000D01*
X79012500Y-33750000D02*
X80540000Y-33750000D01*
X96910000Y-44100000D02*
X98195000Y-44100000D01*
X78960000Y-41300000D02*
X78000000Y-42260000D01*
X79590000Y-42200000D02*
X79030538Y-42200000D01*
X78960000Y-41300000D02*
X81010000Y-41300000D01*
X92487500Y-32750000D02*
X94012500Y-32750000D01*
X94012500Y-32250000D02*
X94470000Y-32250000D01*
X77487500Y-34262500D02*
X77487500Y-33750000D01*
X81030000Y-32650000D02*
X81750000Y-32650000D01*
X83155523Y-43190121D02*
X81950121Y-43190121D01*
X77050000Y-32250000D02*
X77487500Y-32250000D01*
X76845000Y-42855000D02*
X76250000Y-42260000D01*
X80727701Y-44247299D02*
X80580402Y-44100000D01*
X98195000Y-44100000D02*
X98520000Y-44425000D01*
X77000000Y-35490000D02*
X76975000Y-35465000D01*
X93390000Y-40850000D02*
X97860000Y-40850000D01*
X91980000Y-36530000D02*
X92000000Y-36510000D01*
X79012500Y-32250000D02*
X79470000Y-32250000D01*
X86050000Y-42240000D02*
X86050000Y-41250000D01*
X77487500Y-33250000D02*
X77487500Y-32750000D01*
X91980000Y-38900000D02*
X91980000Y-36530000D01*
X81950121Y-43190121D02*
X81910000Y-43150000D01*
X94470000Y-32250000D02*
X95070000Y-31650000D01*
X91980000Y-40510000D02*
X91980000Y-38900000D01*
X85827500Y-43037500D02*
X86050000Y-43260000D01*
X94670000Y-32250000D02*
X95070000Y-32650000D01*
X95070000Y-32650000D02*
X95070000Y-32657609D01*
X78375538Y-42855000D02*
X76845000Y-42855000D01*
X97860000Y-40850000D02*
X98250000Y-41240000D01*
X76975000Y-35465000D02*
X76975000Y-32325000D01*
X91250000Y-41240000D02*
X91980000Y-40510000D01*
X79012500Y-33250000D02*
X79012500Y-33750000D01*
X76975000Y-32325000D02*
X77050000Y-32250000D01*
X80580402Y-44100000D02*
X79590000Y-44100000D01*
X86027500Y-43037500D02*
X86250000Y-43260000D01*
X79030538Y-42200000D02*
X78375538Y-42855000D01*
X93000000Y-40420000D02*
X94520000Y-38900000D01*
X80070000Y-32650000D02*
X80070000Y-32657609D01*
X82175000Y-34075000D02*
X83405000Y-34075000D01*
X77240000Y-44260000D02*
X77250000Y-44250000D01*
X77487500Y-32750000D02*
X79012500Y-32750000D01*
X84600000Y-41312500D02*
X84750000Y-41462500D01*
X83250000Y-42260000D02*
X83880523Y-42890523D01*
X62487500Y-34262500D02*
X62487500Y-33750000D01*
X61975000Y-35465000D02*
X61975000Y-32325000D01*
X80070000Y-32657609D02*
X80697391Y-33285000D01*
X83405000Y-34075000D02*
X84580000Y-35250000D01*
X84750000Y-41462500D02*
X84047500Y-41462500D01*
X63715000Y-35490000D02*
X62487500Y-34262500D01*
X76250000Y-41240000D02*
X75605000Y-41885000D01*
X76980000Y-36530000D02*
X77000000Y-36510000D01*
X83880523Y-42890523D02*
X83880523Y-44064477D01*
X84600000Y-38900000D02*
X84600000Y-41312500D01*
X79012500Y-32750000D02*
X79012500Y-32250000D01*
X71027500Y-43037500D02*
X71250000Y-43260000D01*
X71050000Y-42240000D02*
X71050000Y-41250000D01*
X69480000Y-44425000D02*
X70500000Y-44425000D01*
X65737182Y-42051780D02*
X65737182Y-42307818D01*
X84580000Y-35250000D02*
X84580000Y-38880000D01*
X80960500Y-43109098D02*
X80960500Y-43455500D01*
X84047500Y-41462500D02*
X83250000Y-42260000D01*
X81910000Y-44100000D02*
X83195000Y-44100000D01*
X61975000Y-32325000D02*
X62050000Y-32250000D01*
X81605000Y-44100000D02*
X81910000Y-44100000D01*
X62050000Y-32250000D02*
X62487500Y-32250000D01*
X76980000Y-40510000D02*
X76980000Y-38900000D01*
X81385000Y-33285000D02*
X82175000Y-34075000D01*
X78000000Y-40420000D02*
X79520000Y-38900000D01*
X75605000Y-41885000D02*
X75605000Y-42585000D01*
X76250000Y-41240000D02*
X76980000Y-40510000D01*
X66950121Y-43190121D02*
X66910000Y-43150000D01*
X68155523Y-43190121D02*
X66950121Y-43190121D01*
X64000000Y-33762500D02*
X64012500Y-33750000D01*
X61845000Y-42855000D02*
X61250000Y-42260000D01*
X63375538Y-42855000D02*
X61845000Y-42855000D01*
X78000000Y-41240000D02*
X78390000Y-40850000D01*
X69750000Y-43037500D02*
X70827500Y-43037500D01*
X83195000Y-44100000D02*
X83520000Y-44425000D01*
X80960500Y-43455500D02*
X81605000Y-44100000D01*
X63960000Y-41300000D02*
X63000000Y-42260000D01*
X76260000Y-44260000D02*
X77240000Y-44260000D01*
X64895000Y-43150000D02*
X64590000Y-43150000D01*
X64500000Y-35490000D02*
X63715000Y-35490000D01*
X79470000Y-32250000D02*
X80070000Y-31650000D01*
X79500000Y-36510000D02*
X79500000Y-38880000D01*
X64030538Y-42200000D02*
X63375538Y-42855000D01*
X75605000Y-42585000D02*
X76260000Y-43240000D01*
X70827500Y-43037500D02*
X71050000Y-43260000D01*
X62000000Y-35490000D02*
X61975000Y-35465000D01*
X79012500Y-32250000D02*
X79670000Y-32250000D01*
X83880523Y-44064477D02*
X83520000Y-44425000D01*
X78390000Y-40850000D02*
X82860000Y-40850000D01*
X79670000Y-32250000D02*
X80070000Y-32650000D01*
X78000000Y-41240000D02*
X78000000Y-40420000D01*
X76980000Y-38900000D02*
X76980000Y-36530000D01*
X66010000Y-41300000D02*
X66910000Y-42200000D01*
X64590000Y-42200000D02*
X64030538Y-42200000D01*
X63960000Y-41300000D02*
X66010000Y-41300000D01*
X65580402Y-44100000D02*
X64590000Y-44100000D01*
X82860000Y-40850000D02*
X83250000Y-41240000D01*
X80697391Y-33285000D02*
X81385000Y-33285000D01*
X84580000Y-38880000D02*
X84600000Y-38900000D01*
X69580000Y-35250000D02*
X69580000Y-38880000D01*
X61250000Y-41240000D02*
X61980000Y-40510000D01*
X49030538Y-42200000D02*
X48375538Y-42855000D01*
X64012500Y-32750000D02*
X64012500Y-32250000D01*
X65737182Y-42307818D02*
X64895000Y-43150000D01*
X64670000Y-32250000D02*
X65070000Y-32650000D01*
X66910000Y-44100000D02*
X68195000Y-44100000D01*
X47050000Y-32250000D02*
X47487500Y-32250000D01*
X64012500Y-32250000D02*
X64670000Y-32250000D01*
X67860000Y-40850000D02*
X68250000Y-41240000D01*
X65070000Y-32657609D02*
X65697391Y-33285000D01*
X65697391Y-33285000D02*
X66385000Y-33285000D01*
X63000000Y-40420000D02*
X64520000Y-38900000D01*
X47487500Y-34262500D02*
X47487500Y-33750000D01*
X63000000Y-41240000D02*
X63000000Y-40420000D01*
X66030000Y-32650000D02*
X66750000Y-32650000D01*
X68405000Y-34075000D02*
X69580000Y-35250000D01*
X64012500Y-33750000D02*
X65540000Y-33750000D01*
X48715000Y-35490000D02*
X47487500Y-34262500D01*
X62240000Y-44260000D02*
X62250000Y-44250000D01*
X63000000Y-33762500D02*
X64000000Y-33762500D01*
X67175000Y-34075000D02*
X68405000Y-34075000D01*
X69580000Y-38880000D02*
X69600000Y-38900000D01*
X68880523Y-42890523D02*
X68880523Y-44064477D01*
X65727701Y-44247299D02*
X65580402Y-44100000D01*
X68250000Y-42260000D02*
X68880523Y-42890523D01*
X66030000Y-31650000D02*
X66030000Y-32650000D01*
X61250000Y-41240000D02*
X60605000Y-41885000D01*
X64012500Y-33250000D02*
X64012500Y-33750000D01*
X62487500Y-33250000D02*
X62487500Y-32750000D01*
X64500000Y-36510000D02*
X64500000Y-38880000D01*
X68880523Y-44064477D02*
X68520000Y-44425000D01*
X63000000Y-41240000D02*
X63390000Y-40850000D01*
X48960000Y-41300000D02*
X51010000Y-41300000D01*
X69600000Y-38900000D02*
X69600000Y-41312500D01*
X66385000Y-33285000D02*
X67175000Y-34075000D01*
X60605000Y-41885000D02*
X60605000Y-42585000D01*
X65540000Y-33750000D02*
X67040000Y-35250000D01*
X69047500Y-41462500D02*
X68250000Y-42260000D01*
X61980000Y-38900000D02*
X61980000Y-36530000D01*
X48375538Y-42855000D02*
X46845000Y-42855000D01*
X69750000Y-41462500D02*
X69047500Y-41462500D01*
X65070000Y-32650000D02*
X65070000Y-32657609D01*
X65960500Y-43455500D02*
X66605000Y-44100000D01*
X64012500Y-32250000D02*
X64470000Y-32250000D01*
X66605000Y-44100000D02*
X66910000Y-44100000D01*
X48960000Y-41300000D02*
X48000000Y-42260000D01*
X61980000Y-40510000D02*
X61980000Y-38900000D01*
X49500000Y-35490000D02*
X48715000Y-35490000D01*
X61260000Y-44260000D02*
X62240000Y-44260000D01*
X46975000Y-35465000D02*
X46975000Y-32325000D01*
X62487500Y-32750000D02*
X64012500Y-32750000D01*
X68195000Y-44100000D02*
X68520000Y-44425000D01*
X51010000Y-41300000D02*
X51910000Y-42200000D01*
X47000000Y-35490000D02*
X46975000Y-35465000D01*
X69600000Y-41312500D02*
X69750000Y-41462500D01*
X63390000Y-40850000D02*
X67860000Y-40850000D01*
X65960500Y-43109098D02*
X65960500Y-43455500D01*
X61980000Y-36530000D02*
X62000000Y-36510000D01*
X64470000Y-32250000D02*
X65070000Y-31650000D01*
X60605000Y-42585000D02*
X61260000Y-43240000D01*
X46975000Y-32325000D02*
X47050000Y-32250000D01*
X51030000Y-31650000D02*
X51030000Y-32650000D01*
X50580402Y-44100000D02*
X49590000Y-44100000D01*
X51950121Y-43190121D02*
X51910000Y-43150000D01*
X47240000Y-44260000D02*
X47250000Y-44250000D01*
X46980000Y-36530000D02*
X47000000Y-36510000D01*
X46260000Y-44260000D02*
X47240000Y-44260000D01*
X50070000Y-32657609D02*
X50697391Y-33285000D01*
X49012500Y-32250000D02*
X49470000Y-32250000D01*
X52175000Y-34075000D02*
X53405000Y-34075000D01*
X48000000Y-33762500D02*
X49000000Y-33762500D01*
X50727701Y-44247299D02*
X50580402Y-44100000D01*
X50737182Y-42051780D02*
X50737182Y-42307818D01*
X50737182Y-42307818D02*
X49895000Y-43150000D01*
X49895000Y-43150000D02*
X49590000Y-43150000D01*
X49470000Y-32250000D02*
X50070000Y-31650000D01*
X47487500Y-32750000D02*
X49012500Y-32750000D01*
X49012500Y-32250000D02*
X49670000Y-32250000D01*
X53405000Y-34075000D02*
X54580000Y-35250000D01*
X49500000Y-36510000D02*
X49500000Y-38880000D01*
X52860000Y-40850000D02*
X53250000Y-41240000D01*
X48390000Y-40850000D02*
X52860000Y-40850000D01*
X46250000Y-41240000D02*
X45605000Y-41885000D01*
X54480000Y-44425000D02*
X55500000Y-44425000D01*
X51030000Y-32650000D02*
X51750000Y-32650000D01*
X54600000Y-41312500D02*
X54750000Y-41462500D01*
X48000000Y-41240000D02*
X48390000Y-40850000D01*
X50070000Y-32650000D02*
X50070000Y-32657609D01*
X46980000Y-40510000D02*
X46980000Y-38900000D01*
X47487500Y-33250000D02*
X47487500Y-32750000D01*
X46845000Y-42855000D02*
X46250000Y-42260000D01*
X49590000Y-42200000D02*
X49030538Y-42200000D01*
X56027500Y-43037500D02*
X56250000Y-43260000D01*
X54600000Y-38900000D02*
X54600000Y-41312500D01*
X50540000Y-33750000D02*
X52040000Y-35250000D01*
X54750000Y-43037500D02*
X55827500Y-43037500D01*
X55827500Y-43037500D02*
X56050000Y-43260000D01*
X53195000Y-44100000D02*
X53520000Y-44425000D01*
X49012500Y-32750000D02*
X49012500Y-32250000D01*
X48000000Y-40420000D02*
X49520000Y-38900000D01*
X46250000Y-41240000D02*
X46980000Y-40510000D01*
X49012500Y-33750000D02*
X50540000Y-33750000D01*
X54580000Y-38880000D02*
X54600000Y-38900000D01*
X49000000Y-33762500D02*
X49012500Y-33750000D01*
X50960500Y-43109098D02*
X50960500Y-43455500D01*
X53880523Y-42890523D02*
X53880523Y-44064477D01*
X54750000Y-41462500D02*
X54047500Y-41462500D01*
X51605000Y-44100000D02*
X51910000Y-44100000D01*
X45605000Y-42585000D02*
X46260000Y-43240000D01*
X54580000Y-35250000D02*
X54580000Y-38880000D01*
X49670000Y-32250000D02*
X50070000Y-32650000D01*
X49012500Y-33250000D02*
X49012500Y-33750000D01*
X53155523Y-43190121D02*
X51950121Y-43190121D01*
X56050000Y-42240000D02*
X56050000Y-41250000D01*
X50697391Y-33285000D02*
X51385000Y-33285000D01*
X51910000Y-44100000D02*
X53195000Y-44100000D01*
X46980000Y-38900000D02*
X46980000Y-36530000D01*
X51385000Y-33285000D02*
X52175000Y-34075000D01*
X53880523Y-44064477D02*
X53520000Y-44425000D01*
X54047500Y-41462500D02*
X53250000Y-42260000D01*
X48000000Y-41240000D02*
X48000000Y-40420000D01*
X53250000Y-42260000D02*
X53880523Y-42890523D01*
X50960500Y-43455500D02*
X51605000Y-44100000D01*
X34590000Y-42200000D02*
X34030538Y-42200000D01*
X37175000Y-34075000D02*
X38405000Y-34075000D01*
X38880523Y-42890523D02*
X38880523Y-44064477D01*
X35580402Y-44100000D02*
X34590000Y-44100000D01*
X34012500Y-33250000D02*
X34012500Y-33750000D01*
X36950121Y-43190121D02*
X36910000Y-43150000D01*
X36910000Y-44100000D02*
X38195000Y-44100000D01*
X31260000Y-44260000D02*
X32240000Y-44260000D01*
X36385000Y-33285000D02*
X37175000Y-34075000D01*
X35960500Y-43109098D02*
X35960500Y-43455500D01*
X36605000Y-44100000D02*
X36910000Y-44100000D01*
X34012500Y-32250000D02*
X34670000Y-32250000D01*
X33375538Y-42855000D02*
X31845000Y-42855000D01*
X39750000Y-43037500D02*
X40827500Y-43037500D01*
X35737182Y-42051780D02*
X35737182Y-42307818D01*
X34000000Y-33762500D02*
X34012500Y-33750000D01*
X36030000Y-32650000D02*
X36750000Y-32650000D01*
X41050000Y-42240000D02*
X41050000Y-41250000D01*
X35070000Y-32657609D02*
X35697391Y-33285000D01*
X38195000Y-44100000D02*
X38520000Y-44425000D01*
X38155523Y-43190121D02*
X36950121Y-43190121D01*
X34012500Y-32750000D02*
X34012500Y-32250000D01*
X35540000Y-33750000D02*
X37040000Y-35250000D01*
X35727701Y-44247299D02*
X35580402Y-44100000D01*
X41027500Y-43037500D02*
X41250000Y-43260000D01*
X32240000Y-44260000D02*
X32250000Y-44250000D01*
X32487500Y-32750000D02*
X34012500Y-32750000D01*
X34670000Y-32250000D02*
X35070000Y-32650000D01*
X33000000Y-33762500D02*
X34000000Y-33762500D01*
X34470000Y-32250000D02*
X35070000Y-31650000D01*
X45605000Y-41885000D02*
X45605000Y-42585000D01*
X39480000Y-44425000D02*
X40500000Y-44425000D01*
X34500000Y-35490000D02*
X33715000Y-35490000D01*
X39600000Y-41312500D02*
X39750000Y-41462500D01*
X32487500Y-34262500D02*
X32487500Y-33750000D01*
X33715000Y-35490000D02*
X32487500Y-34262500D01*
X32050000Y-32250000D02*
X32487500Y-32250000D01*
X31975000Y-32325000D02*
X32050000Y-32250000D01*
X35960500Y-43455500D02*
X36605000Y-44100000D01*
X32000000Y-35490000D02*
X31975000Y-35465000D01*
X31975000Y-35465000D02*
X31975000Y-32325000D01*
X35737182Y-42307818D02*
X34895000Y-43150000D01*
X34030538Y-42200000D02*
X33375538Y-42855000D01*
X36010000Y-41300000D02*
X36910000Y-42200000D01*
X31845000Y-42855000D02*
X31250000Y-42260000D01*
X40827500Y-43037500D02*
X41050000Y-43260000D01*
X34012500Y-33750000D02*
X35540000Y-33750000D01*
X39580000Y-35250000D02*
X39580000Y-38880000D01*
X34895000Y-43150000D02*
X34590000Y-43150000D01*
X36030000Y-31650000D02*
X36030000Y-32650000D01*
X34012500Y-32250000D02*
X34470000Y-32250000D01*
X32487500Y-33250000D02*
X32487500Y-32750000D01*
X35697391Y-33285000D02*
X36385000Y-33285000D01*
X38880523Y-44064477D02*
X38520000Y-44425000D01*
X39750000Y-41462500D02*
X39047500Y-41462500D01*
X38405000Y-34075000D02*
X39580000Y-35250000D01*
X39600000Y-38900000D02*
X39600000Y-41312500D01*
X33960000Y-41300000D02*
X36010000Y-41300000D01*
X39580000Y-38880000D02*
X39600000Y-38900000D01*
X38250000Y-42260000D02*
X38880523Y-42890523D01*
X33960000Y-41300000D02*
X33000000Y-42260000D01*
X35070000Y-32650000D02*
X35070000Y-32657609D01*
X31980000Y-38900000D02*
X31980000Y-36530000D01*
X31980000Y-40510000D02*
X31980000Y-38900000D01*
X39047500Y-41462500D02*
X38250000Y-42260000D01*
X33000000Y-41240000D02*
X33000000Y-40420000D01*
X33000000Y-40420000D02*
X34520000Y-38900000D01*
X34500000Y-36510000D02*
X34500000Y-38880000D01*
X33000000Y-41240000D02*
X33390000Y-40850000D01*
X33390000Y-40850000D02*
X37860000Y-40850000D01*
X37860000Y-40850000D02*
X38250000Y-41240000D01*
X30605000Y-42585000D02*
X31260000Y-43240000D01*
X30605000Y-41885000D02*
X30605000Y-42585000D01*
X31250000Y-41240000D02*
X30605000Y-41885000D01*
X31980000Y-36530000D02*
X32000000Y-36510000D01*
X31250000Y-41240000D02*
X31980000Y-40510000D01*
X98880523Y-57890523D02*
X98880523Y-59064477D01*
X97175000Y-49075000D02*
X98405000Y-49075000D01*
X94470000Y-47250000D02*
X95070000Y-46650000D01*
X94670000Y-47250000D02*
X95070000Y-47650000D01*
X91250000Y-56240000D02*
X90605000Y-56885000D01*
X80737182Y-57051780D02*
X80737182Y-57307818D01*
X91980000Y-55510000D02*
X91980000Y-53900000D01*
X81010000Y-56300000D02*
X81910000Y-57200000D01*
X81030000Y-46650000D02*
X81030000Y-47650000D01*
X83155523Y-58190121D02*
X81950121Y-58190121D01*
X86027500Y-58037500D02*
X86250000Y-58260000D01*
X79000000Y-48762500D02*
X79012500Y-48750000D01*
X99047500Y-56462500D02*
X98250000Y-57260000D01*
X93390000Y-55850000D02*
X97860000Y-55850000D01*
X80727701Y-59247299D02*
X80580402Y-59100000D01*
X94500000Y-51510000D02*
X94500000Y-53880000D01*
X93000000Y-56240000D02*
X93000000Y-55420000D01*
X79030538Y-57200000D02*
X78375538Y-57855000D01*
X90605000Y-57585000D02*
X91260000Y-58240000D01*
X98405000Y-49075000D02*
X99580000Y-50250000D01*
X98195000Y-59100000D02*
X98520000Y-59425000D01*
X77487500Y-49262500D02*
X77487500Y-48750000D01*
X79500000Y-50490000D02*
X78715000Y-50490000D01*
X95960500Y-58109098D02*
X95960500Y-58455500D01*
X95697391Y-48285000D02*
X96385000Y-48285000D01*
X99580000Y-53880000D02*
X99600000Y-53900000D01*
X98880523Y-59064477D02*
X98520000Y-59425000D01*
X80540000Y-48750000D02*
X82040000Y-50250000D01*
X99600000Y-56312500D02*
X99750000Y-56462500D01*
X80737182Y-57307818D02*
X79895000Y-58150000D01*
X93000000Y-56240000D02*
X93390000Y-55850000D01*
X91980000Y-51530000D02*
X92000000Y-51510000D01*
X92487500Y-47750000D02*
X94012500Y-47750000D01*
X78960000Y-56300000D02*
X78000000Y-57260000D01*
X95960500Y-58455500D02*
X96605000Y-59100000D01*
X78960000Y-56300000D02*
X81010000Y-56300000D01*
X76845000Y-57855000D02*
X76250000Y-57260000D01*
X99600000Y-53900000D02*
X99600000Y-56312500D01*
X94012500Y-47750000D02*
X94012500Y-47250000D01*
X77000000Y-50490000D02*
X76975000Y-50465000D01*
X95070000Y-47650000D02*
X95070000Y-47657609D01*
X96605000Y-59100000D02*
X96910000Y-59100000D01*
X77050000Y-47250000D02*
X77487500Y-47250000D01*
X76975000Y-50465000D02*
X76975000Y-47325000D01*
X86050000Y-57240000D02*
X86050000Y-56250000D01*
X98250000Y-57260000D02*
X98880523Y-57890523D01*
X99580000Y-50250000D02*
X99580000Y-53880000D01*
X96910000Y-59100000D02*
X98195000Y-59100000D01*
X97860000Y-55850000D02*
X98250000Y-56240000D01*
X91980000Y-53900000D02*
X91980000Y-51530000D01*
X91250000Y-56240000D02*
X91980000Y-55510000D01*
X78715000Y-50490000D02*
X77487500Y-49262500D01*
X85827500Y-58037500D02*
X86050000Y-58260000D01*
X80580402Y-59100000D02*
X79590000Y-59100000D01*
X92240000Y-59260000D02*
X92250000Y-59250000D01*
X93000000Y-55420000D02*
X94520000Y-53900000D01*
X99750000Y-56462500D02*
X99047500Y-56462500D01*
X78375538Y-57855000D02*
X76845000Y-57855000D01*
X90605000Y-56885000D02*
X90605000Y-57585000D01*
X79895000Y-58150000D02*
X79590000Y-58150000D01*
X78000000Y-48762500D02*
X79000000Y-48762500D01*
X79012500Y-48250000D02*
X79012500Y-48750000D01*
X76975000Y-47325000D02*
X77050000Y-47250000D01*
X79590000Y-57200000D02*
X79030538Y-57200000D01*
X96385000Y-48285000D02*
X97175000Y-49075000D01*
X94012500Y-47250000D02*
X94470000Y-47250000D01*
X92487500Y-48250000D02*
X92487500Y-47750000D01*
%TD*%
M02*
