%TF.GenerationSoftware,KiCad,Pcbnew,7.0.1*%
%TF.CreationDate,2025-01-23T23:42:59-05:00*%
%TF.ProjectId,Combined_Stencil2,436f6d62-696e-4656-945f-5374656e6369,rev?*%
%TF.SameCoordinates,Original*%
%TF.FileFunction,Soldermask,Top*%
%TF.FilePolarity,Negative*%
%FSLAX46Y46*%
G04 Gerber Fmt 4.6, Leading zero omitted, Abs format (unit mm)*
G04 Created by KiCad (PCBNEW 7.0.1) date 2025-01-23 23:42:59*
%MOMM*%
%LPD*%
G01*
G04 APERTURE LIST*
G04 Aperture macros list*
%AMRoundRect*
0 Rectangle with rounded corners*
0 $1 Rounding radius*
0 $2 $3 $4 $5 $6 $7 $8 $9 X,Y pos of 4 corners*
0 Add a 4 corners polygon primitive as box body*
4,1,4,$2,$3,$4,$5,$6,$7,$8,$9,$2,$3,0*
0 Add four circle primitives for the rounded corners*
1,1,$1+$1,$2,$3*
1,1,$1+$1,$4,$5*
1,1,$1+$1,$6,$7*
1,1,$1+$1,$8,$9*
0 Add four rect primitives between the rounded corners*
20,1,$1+$1,$2,$3,$4,$5,0*
20,1,$1+$1,$4,$5,$6,$7,0*
20,1,$1+$1,$6,$7,$8,$9,0*
20,1,$1+$1,$8,$9,$2,$3,0*%
%AMFreePoly0*
4,1,19,0.500000,-0.750000,0.000000,-0.750000,0.000000,-0.744911,-0.071157,-0.744911,-0.207708,-0.704816,-0.327430,-0.627875,-0.420627,-0.520320,-0.479746,-0.390866,-0.500000,-0.250000,-0.500000,0.250000,-0.479746,0.390866,-0.420627,0.520320,-0.327430,0.627875,-0.207708,0.704816,-0.071157,0.744911,0.000000,0.744911,0.000000,0.750000,0.500000,0.750000,0.500000,-0.750000,0.500000,-0.750000,
$1*%
%AMFreePoly1*
4,1,19,0.000000,0.744911,0.071157,0.744911,0.207708,0.704816,0.327430,0.627875,0.420627,0.520320,0.479746,0.390866,0.500000,0.250000,0.500000,-0.250000,0.479746,-0.390866,0.420627,-0.520320,0.327430,-0.627875,0.207708,-0.704816,0.071157,-0.744911,0.000000,-0.744911,0.000000,-0.750000,-0.500000,-0.750000,-0.500000,0.750000,0.000000,0.750000,0.000000,0.744911,0.000000,0.744911,
$1*%
G04 Aperture macros list end*
%ADD10R,1.700000X1.700000*%
%ADD11O,1.700000X1.700000*%
%ADD12FreePoly0,180.000000*%
%ADD13FreePoly1,180.000000*%
%ADD14RoundRect,0.135000X-0.135000X-0.185000X0.135000X-0.185000X0.135000X0.185000X-0.135000X0.185000X0*%
%ADD15RoundRect,0.140000X-0.140000X-0.170000X0.140000X-0.170000X0.140000X0.170000X-0.140000X0.170000X0*%
%ADD16RoundRect,0.135000X0.135000X0.185000X-0.135000X0.185000X-0.135000X-0.185000X0.135000X-0.185000X0*%
%ADD17RoundRect,0.218750X-0.256250X0.218750X-0.256250X-0.218750X0.256250X-0.218750X0.256250X0.218750X0*%
%ADD18RoundRect,0.100000X0.100000X-0.637500X0.100000X0.637500X-0.100000X0.637500X-0.100000X-0.637500X0*%
%ADD19RoundRect,0.140000X-0.170000X0.140000X-0.170000X-0.140000X0.170000X-0.140000X0.170000X0.140000X0*%
%ADD20R,0.400000X0.650000*%
%ADD21RoundRect,0.135000X0.185000X-0.135000X0.185000X0.135000X-0.185000X0.135000X-0.185000X-0.135000X0*%
%ADD22RoundRect,0.140000X0.140000X0.170000X-0.140000X0.170000X-0.140000X-0.170000X0.140000X-0.170000X0*%
%ADD23RoundRect,0.135000X-0.185000X0.135000X-0.185000X-0.135000X0.185000X-0.135000X0.185000X0.135000X0*%
%ADD24R,0.375000X0.350000*%
%ADD25R,0.350000X0.375000*%
%ADD26R,0.700000X0.510000*%
%ADD27RoundRect,0.218750X0.256250X-0.218750X0.256250X0.218750X-0.256250X0.218750X-0.256250X-0.218750X0*%
G04 APERTURE END LIST*
D10*
%TO.C,J4*%
X141880000Y-81750000D03*
D11*
X141880000Y-79210000D03*
X141880000Y-76670000D03*
X141880000Y-74130000D03*
%TD*%
D12*
%TO.C,JP1*%
X146380000Y-70750000D03*
D13*
X145080000Y-70750000D03*
%TD*%
D14*
%TO.C,R7*%
X142470000Y-70750000D03*
X143490000Y-70750000D03*
%TD*%
%TO.C,R6*%
X142480000Y-68250000D03*
X143500000Y-68250000D03*
%TD*%
D15*
%TO.C,C2*%
X144900000Y-86880000D03*
X145860000Y-86880000D03*
%TD*%
D10*
%TO.C,J10*%
X134380000Y-50875000D03*
D11*
X136920000Y-50875000D03*
X139460000Y-50875000D03*
X142000000Y-50875000D03*
%TD*%
D10*
%TO.C,J6*%
X145630000Y-54750000D03*
D11*
X145630000Y-57290000D03*
X145630000Y-59830000D03*
X145630000Y-62370000D03*
%TD*%
D10*
%TO.C,J9*%
X134380000Y-54750000D03*
D11*
X134380000Y-57290000D03*
X134380000Y-59830000D03*
X134380000Y-62370000D03*
%TD*%
D16*
%TO.C,R1*%
X145900000Y-85630000D03*
X144880000Y-85630000D03*
%TD*%
D10*
%TO.C,J1*%
X134380000Y-85500000D03*
D11*
X136920000Y-85500000D03*
X139460000Y-85500000D03*
X142000000Y-85500000D03*
%TD*%
D12*
%TO.C,JP3*%
X146380000Y-65750000D03*
D13*
X145080000Y-65750000D03*
%TD*%
D12*
%TO.C,JP2*%
X146380000Y-68250000D03*
D13*
X145080000Y-68250000D03*
%TD*%
D17*
%TO.C,D1*%
X145480000Y-48342500D03*
X145480000Y-49917500D03*
%TD*%
D18*
%TO.C,U6*%
X134155000Y-71112500D03*
X134805000Y-71112500D03*
X135455000Y-71112500D03*
X136105000Y-71112500D03*
X136755000Y-71112500D03*
X137405000Y-71112500D03*
X138055000Y-71112500D03*
X138705000Y-71112500D03*
X139355000Y-71112500D03*
X140005000Y-71112500D03*
X140655000Y-71112500D03*
X141305000Y-71112500D03*
X141305000Y-65387500D03*
X140655000Y-65387500D03*
X140005000Y-65387500D03*
X139355000Y-65387500D03*
X138705000Y-65387500D03*
X138055000Y-65387500D03*
X137405000Y-65387500D03*
X136755000Y-65387500D03*
X136105000Y-65387500D03*
X135455000Y-65387500D03*
X134805000Y-65387500D03*
X134155000Y-65387500D03*
%TD*%
D10*
%TO.C,J3*%
X138130000Y-81750000D03*
D11*
X138130000Y-79210000D03*
X138130000Y-76670000D03*
X138130000Y-74130000D03*
%TD*%
D15*
%TO.C,C1*%
X144920000Y-91380000D03*
X145880000Y-91380000D03*
%TD*%
D10*
%TO.C,J2*%
X134380000Y-81750000D03*
D11*
X134380000Y-79210000D03*
X134380000Y-76670000D03*
X134380000Y-74130000D03*
%TD*%
D14*
%TO.C,R5*%
X142480000Y-65750000D03*
X143500000Y-65750000D03*
%TD*%
D19*
%TO.C,C5*%
X132880000Y-65400000D03*
X132880000Y-66360000D03*
%TD*%
D10*
%TO.C,J7*%
X141880000Y-54750000D03*
D11*
X141880000Y-57290000D03*
X141880000Y-59830000D03*
X141880000Y-62370000D03*
%TD*%
D16*
%TO.C,R2*%
X145900000Y-84380000D03*
X144880000Y-84380000D03*
%TD*%
D10*
%TO.C,J5*%
X145630000Y-81750000D03*
D11*
X145630000Y-79210000D03*
X145630000Y-76670000D03*
X145630000Y-74130000D03*
%TD*%
D20*
%TO.C,U2*%
X145230000Y-90080000D03*
X145880000Y-90080000D03*
X146530000Y-90080000D03*
X146530000Y-88180000D03*
X145230000Y-88180000D03*
%TD*%
D10*
%TO.C,J8*%
X138130000Y-54750000D03*
D11*
X138130000Y-57290000D03*
X138130000Y-59830000D03*
X138130000Y-62370000D03*
%TD*%
D21*
%TO.C,R3*%
X145480000Y-46910000D03*
X145480000Y-45890000D03*
%TD*%
D10*
%TO.C,J1*%
X54600000Y-53900000D03*
D11*
X52060000Y-53900000D03*
X49520000Y-53900000D03*
X46980000Y-53900000D03*
%TD*%
D10*
%TO.C,J1*%
X69600000Y-98900000D03*
D11*
X67060000Y-98900000D03*
X64520000Y-98900000D03*
X61980000Y-98900000D03*
%TD*%
D10*
%TO.C,J1*%
X99600000Y-53900000D03*
D11*
X97060000Y-53900000D03*
X94520000Y-53900000D03*
X91980000Y-53900000D03*
%TD*%
D21*
%TO.C,R4*%
X61260000Y-89260000D03*
X61260000Y-88240000D03*
%TD*%
D22*
%TO.C,C2*%
X96030000Y-92650000D03*
X95070000Y-92650000D03*
%TD*%
D10*
%TO.C,J1*%
X39600000Y-53900000D03*
D11*
X37060000Y-53900000D03*
X34520000Y-53900000D03*
X31980000Y-53900000D03*
%TD*%
D10*
%TO.C,J1*%
X69600000Y-83900000D03*
D11*
X67060000Y-83900000D03*
X64520000Y-83900000D03*
X61980000Y-83900000D03*
%TD*%
D21*
%TO.C,R4*%
X46260000Y-89260000D03*
X46260000Y-88240000D03*
%TD*%
D10*
%TO.C,J1*%
X39600000Y-83900000D03*
D11*
X37060000Y-83900000D03*
X34520000Y-83900000D03*
X31980000Y-83900000D03*
%TD*%
D23*
%TO.C,R2*%
X91250000Y-101240000D03*
X91250000Y-102260000D03*
%TD*%
D21*
%TO.C,R6*%
X64500000Y-81510000D03*
X64500000Y-80490000D03*
%TD*%
D23*
%TO.C,R2*%
X61250000Y-56240000D03*
X61250000Y-57260000D03*
%TD*%
D24*
%TO.C,U2*%
X32487500Y-62250000D03*
X32487500Y-62750000D03*
X32487500Y-63250000D03*
X32487500Y-63750000D03*
D25*
X33000000Y-63762500D03*
X33500000Y-63762500D03*
D24*
X34012500Y-63750000D03*
X34012500Y-63250000D03*
X34012500Y-62750000D03*
X34012500Y-62250000D03*
D25*
X33500000Y-62237500D03*
X33000000Y-62237500D03*
%TD*%
D22*
%TO.C,C1*%
X54480000Y-104425000D03*
X53520000Y-104425000D03*
%TD*%
D24*
%TO.C,U2*%
X32487500Y-32250000D03*
X32487500Y-32750000D03*
X32487500Y-33250000D03*
X32487500Y-33750000D03*
D25*
X33000000Y-33762500D03*
X33500000Y-33762500D03*
D24*
X34012500Y-33750000D03*
X34012500Y-33250000D03*
X34012500Y-32750000D03*
X34012500Y-32250000D03*
D25*
X33500000Y-32237500D03*
X33000000Y-32237500D03*
%TD*%
D22*
%TO.C,C2*%
X66030000Y-92650000D03*
X65070000Y-92650000D03*
%TD*%
D21*
%TO.C,R5*%
X86050000Y-43260000D03*
X86050000Y-42240000D03*
%TD*%
D24*
%TO.C,U2*%
X32487500Y-47250000D03*
X32487500Y-47750000D03*
X32487500Y-48250000D03*
X32487500Y-48750000D03*
D25*
X33000000Y-48762500D03*
X33500000Y-48762500D03*
D24*
X34012500Y-48750000D03*
X34012500Y-48250000D03*
X34012500Y-47750000D03*
X34012500Y-47250000D03*
D25*
X33500000Y-47237500D03*
X33000000Y-47237500D03*
%TD*%
D21*
%TO.C,R4*%
X46260000Y-59260000D03*
X46260000Y-58240000D03*
%TD*%
%TO.C,R3*%
X98250000Y-42260000D03*
X98250000Y-41240000D03*
%TD*%
%TO.C,R3*%
X98250000Y-102260000D03*
X98250000Y-101240000D03*
%TD*%
D22*
%TO.C,C2*%
X51030000Y-32650000D03*
X50070000Y-32650000D03*
%TD*%
D23*
%TO.C,R1*%
X63000000Y-71240000D03*
X63000000Y-72260000D03*
%TD*%
D22*
%TO.C,C3*%
X81030000Y-46650000D03*
X80070000Y-46650000D03*
%TD*%
D26*
%TO.C,U1*%
X94590000Y-72200000D03*
X94590000Y-73150000D03*
X94590000Y-74100000D03*
X96910000Y-74100000D03*
X96910000Y-73150000D03*
X96910000Y-72200000D03*
%TD*%
%TO.C,U1*%
X34590000Y-87200000D03*
X34590000Y-88150000D03*
X34590000Y-89100000D03*
X36910000Y-89100000D03*
X36910000Y-88150000D03*
X36910000Y-87200000D03*
%TD*%
D24*
%TO.C,U2*%
X32487500Y-77250000D03*
X32487500Y-77750000D03*
X32487500Y-78250000D03*
X32487500Y-78750000D03*
D25*
X33000000Y-78762500D03*
X33500000Y-78762500D03*
D24*
X34012500Y-78750000D03*
X34012500Y-78250000D03*
X34012500Y-77750000D03*
X34012500Y-77250000D03*
D25*
X33500000Y-77237500D03*
X33000000Y-77237500D03*
%TD*%
D21*
%TO.C,R7*%
X32000000Y-66510000D03*
X32000000Y-65490000D03*
%TD*%
D24*
%TO.C,U2*%
X92487500Y-92250000D03*
X92487500Y-92750000D03*
X92487500Y-93250000D03*
X92487500Y-93750000D03*
D25*
X93000000Y-93762500D03*
X93500000Y-93762500D03*
D24*
X94012500Y-93750000D03*
X94012500Y-93250000D03*
X94012500Y-92750000D03*
X94012500Y-92250000D03*
D25*
X93500000Y-92237500D03*
X93000000Y-92237500D03*
%TD*%
D23*
%TO.C,R2*%
X61250000Y-86240000D03*
X61250000Y-87260000D03*
%TD*%
%TO.C,R2*%
X76250000Y-56240000D03*
X76250000Y-57260000D03*
%TD*%
D10*
%TO.C,J2*%
X37040000Y-35250000D03*
D11*
X39580000Y-35250000D03*
%TD*%
D21*
%TO.C,R4*%
X31260000Y-44260000D03*
X31260000Y-43240000D03*
%TD*%
%TO.C,R4*%
X91260000Y-89260000D03*
X91260000Y-88240000D03*
%TD*%
D27*
%TO.C,D1*%
X54750000Y-58037500D03*
X54750000Y-56462500D03*
%TD*%
D21*
%TO.C,R6*%
X94500000Y-81510000D03*
X94500000Y-80490000D03*
%TD*%
D23*
%TO.C,R1*%
X78000000Y-56240000D03*
X78000000Y-57260000D03*
%TD*%
D10*
%TO.C,J2*%
X97040000Y-35250000D03*
D11*
X99580000Y-35250000D03*
%TD*%
D10*
%TO.C,J2*%
X67040000Y-80250000D03*
D11*
X69580000Y-80250000D03*
%TD*%
D21*
%TO.C,R4*%
X46260000Y-44260000D03*
X46260000Y-43240000D03*
%TD*%
D23*
%TO.C,R1*%
X78000000Y-41240000D03*
X78000000Y-42260000D03*
%TD*%
D21*
%TO.C,R5*%
X71050000Y-58260000D03*
X71050000Y-57240000D03*
%TD*%
D22*
%TO.C,C1*%
X39480000Y-44425000D03*
X38520000Y-44425000D03*
%TD*%
D21*
%TO.C,R6*%
X79500000Y-96510000D03*
X79500000Y-95490000D03*
%TD*%
D10*
%TO.C,J2*%
X82040000Y-95250000D03*
D11*
X84580000Y-95250000D03*
%TD*%
D22*
%TO.C,C3*%
X36030000Y-61650000D03*
X35070000Y-61650000D03*
%TD*%
D21*
%TO.C,R4*%
X76260000Y-104260000D03*
X76260000Y-103240000D03*
%TD*%
D22*
%TO.C,C3*%
X36030000Y-91650000D03*
X35070000Y-91650000D03*
%TD*%
%TO.C,C2*%
X51030000Y-92650000D03*
X50070000Y-92650000D03*
%TD*%
%TO.C,C3*%
X96030000Y-76650000D03*
X95070000Y-76650000D03*
%TD*%
%TO.C,C2*%
X36030000Y-62650000D03*
X35070000Y-62650000D03*
%TD*%
%TO.C,C1*%
X84480000Y-89425000D03*
X83520000Y-89425000D03*
%TD*%
D21*
%TO.C,R4*%
X31260000Y-74260000D03*
X31260000Y-73240000D03*
%TD*%
D27*
%TO.C,D1*%
X99750000Y-73037500D03*
X99750000Y-71462500D03*
%TD*%
D26*
%TO.C,U1*%
X34590000Y-57200000D03*
X34590000Y-58150000D03*
X34590000Y-59100000D03*
X36910000Y-59100000D03*
X36910000Y-58150000D03*
X36910000Y-57200000D03*
%TD*%
D22*
%TO.C,C2*%
X81030000Y-62650000D03*
X80070000Y-62650000D03*
%TD*%
D21*
%TO.C,R4*%
X31260000Y-59260000D03*
X31260000Y-58240000D03*
%TD*%
D27*
%TO.C,D1*%
X69750000Y-73037500D03*
X69750000Y-71462500D03*
%TD*%
D23*
%TO.C,R2*%
X91250000Y-86240000D03*
X91250000Y-87260000D03*
%TD*%
D24*
%TO.C,U2*%
X77487500Y-47250000D03*
X77487500Y-47750000D03*
X77487500Y-48250000D03*
X77487500Y-48750000D03*
D25*
X78000000Y-48762500D03*
X78500000Y-48762500D03*
D24*
X79012500Y-48750000D03*
X79012500Y-48250000D03*
X79012500Y-47750000D03*
X79012500Y-47250000D03*
D25*
X78500000Y-47237500D03*
X78000000Y-47237500D03*
%TD*%
D21*
%TO.C,R6*%
X49500000Y-36510000D03*
X49500000Y-35490000D03*
%TD*%
%TO.C,R4*%
X46260000Y-74260000D03*
X46260000Y-73240000D03*
%TD*%
D22*
%TO.C,C3*%
X66030000Y-31650000D03*
X65070000Y-31650000D03*
%TD*%
D24*
%TO.C,U2*%
X47487500Y-77250000D03*
X47487500Y-77750000D03*
X47487500Y-78250000D03*
X47487500Y-78750000D03*
D25*
X48000000Y-78762500D03*
X48500000Y-78762500D03*
D24*
X49012500Y-78750000D03*
X49012500Y-78250000D03*
X49012500Y-77750000D03*
X49012500Y-77250000D03*
D25*
X48500000Y-77237500D03*
X48000000Y-77237500D03*
%TD*%
D21*
%TO.C,R6*%
X94500000Y-36510000D03*
X94500000Y-35490000D03*
%TD*%
D22*
%TO.C,C3*%
X81030000Y-31650000D03*
X80070000Y-31650000D03*
%TD*%
D21*
%TO.C,R3*%
X83250000Y-102260000D03*
X83250000Y-101240000D03*
%TD*%
%TO.C,R6*%
X49500000Y-51510000D03*
X49500000Y-50490000D03*
%TD*%
D24*
%TO.C,U2*%
X92487500Y-77250000D03*
X92487500Y-77750000D03*
X92487500Y-78250000D03*
X92487500Y-78750000D03*
D25*
X93000000Y-78762500D03*
X93500000Y-78762500D03*
D24*
X94012500Y-78750000D03*
X94012500Y-78250000D03*
X94012500Y-77750000D03*
X94012500Y-77250000D03*
D25*
X93500000Y-77237500D03*
X93000000Y-77237500D03*
%TD*%
D23*
%TO.C,R2*%
X91250000Y-56240000D03*
X91250000Y-57260000D03*
%TD*%
D10*
%TO.C,J2*%
X37040000Y-80250000D03*
D11*
X39580000Y-80250000D03*
%TD*%
D22*
%TO.C,C1*%
X54480000Y-89425000D03*
X53520000Y-89425000D03*
%TD*%
D21*
%TO.C,R4*%
X31260000Y-89260000D03*
X31260000Y-88240000D03*
%TD*%
D22*
%TO.C,C3*%
X96030000Y-91650000D03*
X95070000Y-91650000D03*
%TD*%
D26*
%TO.C,U1*%
X49590000Y-42200000D03*
X49590000Y-43150000D03*
X49590000Y-44100000D03*
X51910000Y-44100000D03*
X51910000Y-43150000D03*
X51910000Y-42200000D03*
%TD*%
D21*
%TO.C,R5*%
X41050000Y-73260000D03*
X41050000Y-72240000D03*
%TD*%
D10*
%TO.C,J2*%
X67040000Y-50250000D03*
D11*
X69580000Y-50250000D03*
%TD*%
D22*
%TO.C,C2*%
X81030000Y-47650000D03*
X80070000Y-47650000D03*
%TD*%
D21*
%TO.C,R7*%
X77000000Y-36510000D03*
X77000000Y-35490000D03*
%TD*%
D27*
%TO.C,D1*%
X54750000Y-103037500D03*
X54750000Y-101462500D03*
%TD*%
D21*
%TO.C,R3*%
X68250000Y-87260000D03*
X68250000Y-86240000D03*
%TD*%
D23*
%TO.C,R2*%
X46250000Y-86240000D03*
X46250000Y-87260000D03*
%TD*%
D22*
%TO.C,C1*%
X39480000Y-104425000D03*
X38520000Y-104425000D03*
%TD*%
D10*
%TO.C,J1*%
X54600000Y-38900000D03*
D11*
X52060000Y-38900000D03*
X49520000Y-38900000D03*
X46980000Y-38900000D03*
%TD*%
D10*
%TO.C,J1*%
X99600000Y-98900000D03*
D11*
X97060000Y-98900000D03*
X94520000Y-98900000D03*
X91980000Y-98900000D03*
%TD*%
D10*
%TO.C,J1*%
X84600000Y-83900000D03*
D11*
X82060000Y-83900000D03*
X79520000Y-83900000D03*
X76980000Y-83900000D03*
%TD*%
D10*
%TO.C,J1*%
X84600000Y-38900000D03*
D11*
X82060000Y-38900000D03*
X79520000Y-38900000D03*
X76980000Y-38900000D03*
%TD*%
D10*
%TO.C,J1*%
X54600000Y-68900000D03*
D11*
X52060000Y-68900000D03*
X49520000Y-68900000D03*
X46980000Y-68900000D03*
%TD*%
D10*
%TO.C,J1*%
X54600000Y-83900000D03*
D11*
X52060000Y-83900000D03*
X49520000Y-83900000D03*
X46980000Y-83900000D03*
%TD*%
D10*
%TO.C,J1*%
X84600000Y-98900000D03*
D11*
X82060000Y-98900000D03*
X79520000Y-98900000D03*
X76980000Y-98900000D03*
%TD*%
D10*
%TO.C,J1*%
X39600000Y-68900000D03*
D11*
X37060000Y-68900000D03*
X34520000Y-68900000D03*
X31980000Y-68900000D03*
%TD*%
D10*
%TO.C,J1*%
X54600000Y-98900000D03*
D11*
X52060000Y-98900000D03*
X49520000Y-98900000D03*
X46980000Y-98900000D03*
%TD*%
D10*
%TO.C,J1*%
X69600000Y-53900000D03*
D11*
X67060000Y-53900000D03*
X64520000Y-53900000D03*
X61980000Y-53900000D03*
%TD*%
D10*
%TO.C,J1*%
X99600000Y-68900000D03*
D11*
X97060000Y-68900000D03*
X94520000Y-68900000D03*
X91980000Y-68900000D03*
%TD*%
D10*
%TO.C,J1*%
X39600000Y-38900000D03*
D11*
X37060000Y-38900000D03*
X34520000Y-38900000D03*
X31980000Y-38900000D03*
%TD*%
D10*
%TO.C,J1*%
X69600000Y-68900000D03*
D11*
X67060000Y-68900000D03*
X64520000Y-68900000D03*
X61980000Y-68900000D03*
%TD*%
D10*
%TO.C,J1*%
X84600000Y-53900000D03*
D11*
X82060000Y-53900000D03*
X79520000Y-53900000D03*
X76980000Y-53900000D03*
%TD*%
D10*
%TO.C,J1*%
X99600000Y-83900000D03*
D11*
X97060000Y-83900000D03*
X94520000Y-83900000D03*
X91980000Y-83900000D03*
%TD*%
D10*
%TO.C,J1*%
X84600000Y-68900000D03*
D11*
X82060000Y-68900000D03*
X79520000Y-68900000D03*
X76980000Y-68900000D03*
%TD*%
D10*
%TO.C,J1*%
X99600000Y-38900000D03*
D11*
X97060000Y-38900000D03*
X94520000Y-38900000D03*
X91980000Y-38900000D03*
%TD*%
D10*
%TO.C,J1*%
X39600000Y-98900000D03*
D11*
X37060000Y-98900000D03*
X34520000Y-98900000D03*
X31980000Y-98900000D03*
%TD*%
D10*
%TO.C,J1*%
X69600000Y-38900000D03*
D11*
X67060000Y-38900000D03*
X64520000Y-38900000D03*
X61980000Y-38900000D03*
%TD*%
D22*
%TO.C,C2*%
X96030000Y-62650000D03*
X95070000Y-62650000D03*
%TD*%
D23*
%TO.C,R1*%
X63000000Y-101240000D03*
X63000000Y-102260000D03*
%TD*%
%TO.C,R2*%
X76250000Y-101240000D03*
X76250000Y-102260000D03*
%TD*%
%TO.C,R1*%
X93000000Y-71240000D03*
X93000000Y-72260000D03*
%TD*%
D21*
%TO.C,R6*%
X79500000Y-81510000D03*
X79500000Y-80490000D03*
%TD*%
%TO.C,R3*%
X53250000Y-42260000D03*
X53250000Y-41240000D03*
%TD*%
%TO.C,R5*%
X101050000Y-73260000D03*
X101050000Y-72240000D03*
%TD*%
D27*
%TO.C,D1*%
X69750000Y-103037500D03*
X69750000Y-101462500D03*
%TD*%
D21*
%TO.C,R6*%
X34500000Y-66510000D03*
X34500000Y-65490000D03*
%TD*%
%TO.C,R6*%
X79500000Y-51510000D03*
X79500000Y-50490000D03*
%TD*%
D23*
%TO.C,R2*%
X61250000Y-41240000D03*
X61250000Y-42260000D03*
%TD*%
D21*
%TO.C,R3*%
X53250000Y-102260000D03*
X53250000Y-101240000D03*
%TD*%
D26*
%TO.C,U1*%
X64590000Y-57200000D03*
X64590000Y-58150000D03*
X64590000Y-59100000D03*
X66910000Y-59100000D03*
X66910000Y-58150000D03*
X66910000Y-57200000D03*
%TD*%
D10*
%TO.C,J2*%
X52040000Y-35250000D03*
D11*
X54580000Y-35250000D03*
%TD*%
D21*
%TO.C,R3*%
X68250000Y-42260000D03*
X68250000Y-41240000D03*
%TD*%
D22*
%TO.C,C3*%
X96030000Y-31650000D03*
X95070000Y-31650000D03*
%TD*%
D10*
%TO.C,J2*%
X97040000Y-50250000D03*
D11*
X99580000Y-50250000D03*
%TD*%
D21*
%TO.C,R7*%
X92000000Y-36510000D03*
X92000000Y-35490000D03*
%TD*%
%TO.C,R5*%
X56050000Y-43260000D03*
X56050000Y-42240000D03*
%TD*%
D22*
%TO.C,C3*%
X96030000Y-61650000D03*
X95070000Y-61650000D03*
%TD*%
D26*
%TO.C,U1*%
X79590000Y-72200000D03*
X79590000Y-73150000D03*
X79590000Y-74100000D03*
X81910000Y-74100000D03*
X81910000Y-73150000D03*
X81910000Y-72200000D03*
%TD*%
D22*
%TO.C,C3*%
X66030000Y-76650000D03*
X65070000Y-76650000D03*
%TD*%
D21*
%TO.C,R7*%
X77000000Y-96510000D03*
X77000000Y-95490000D03*
%TD*%
D10*
%TO.C,J2*%
X52040000Y-80250000D03*
D11*
X54580000Y-80250000D03*
%TD*%
D23*
%TO.C,R1*%
X63000000Y-56240000D03*
X63000000Y-57260000D03*
%TD*%
D21*
%TO.C,R6*%
X34500000Y-96510000D03*
X34500000Y-95490000D03*
%TD*%
D22*
%TO.C,C1*%
X39480000Y-89425000D03*
X38520000Y-89425000D03*
%TD*%
D21*
%TO.C,R6*%
X64500000Y-51510000D03*
X64500000Y-50490000D03*
%TD*%
%TO.C,R3*%
X98250000Y-57260000D03*
X98250000Y-56240000D03*
%TD*%
D23*
%TO.C,R2*%
X46250000Y-56240000D03*
X46250000Y-57260000D03*
%TD*%
D21*
%TO.C,R5*%
X86050000Y-58260000D03*
X86050000Y-57240000D03*
%TD*%
D23*
%TO.C,R1*%
X33000000Y-41240000D03*
X33000000Y-42260000D03*
%TD*%
D21*
%TO.C,R7*%
X32000000Y-51510000D03*
X32000000Y-50490000D03*
%TD*%
%TO.C,R3*%
X83250000Y-57260000D03*
X83250000Y-56240000D03*
%TD*%
D22*
%TO.C,C2*%
X96030000Y-47650000D03*
X95070000Y-47650000D03*
%TD*%
%TO.C,C1*%
X99480000Y-89425000D03*
X98520000Y-89425000D03*
%TD*%
D26*
%TO.C,U1*%
X34590000Y-102200000D03*
X34590000Y-103150000D03*
X34590000Y-104100000D03*
X36910000Y-104100000D03*
X36910000Y-103150000D03*
X36910000Y-102200000D03*
%TD*%
D21*
%TO.C,R4*%
X61260000Y-74260000D03*
X61260000Y-73240000D03*
%TD*%
D24*
%TO.C,U2*%
X92487500Y-62250000D03*
X92487500Y-62750000D03*
X92487500Y-63250000D03*
X92487500Y-63750000D03*
D25*
X93000000Y-63762500D03*
X93500000Y-63762500D03*
D24*
X94012500Y-63750000D03*
X94012500Y-63250000D03*
X94012500Y-62750000D03*
X94012500Y-62250000D03*
D25*
X93500000Y-62237500D03*
X93000000Y-62237500D03*
%TD*%
D26*
%TO.C,U1*%
X64590000Y-102200000D03*
X64590000Y-103150000D03*
X64590000Y-104100000D03*
X66910000Y-104100000D03*
X66910000Y-103150000D03*
X66910000Y-102200000D03*
%TD*%
%TO.C,U1*%
X79590000Y-57200000D03*
X79590000Y-58150000D03*
X79590000Y-59100000D03*
X81910000Y-59100000D03*
X81910000Y-58150000D03*
X81910000Y-57200000D03*
%TD*%
D10*
%TO.C,J2*%
X82040000Y-35250000D03*
D11*
X84580000Y-35250000D03*
%TD*%
D22*
%TO.C,C2*%
X96030000Y-32650000D03*
X95070000Y-32650000D03*
%TD*%
D26*
%TO.C,U1*%
X94590000Y-42200000D03*
X94590000Y-43150000D03*
X94590000Y-44100000D03*
X96910000Y-44100000D03*
X96910000Y-43150000D03*
X96910000Y-42200000D03*
%TD*%
D22*
%TO.C,C1*%
X39480000Y-59425000D03*
X38520000Y-59425000D03*
%TD*%
D26*
%TO.C,U1*%
X49590000Y-72200000D03*
X49590000Y-73150000D03*
X49590000Y-74100000D03*
X51910000Y-74100000D03*
X51910000Y-73150000D03*
X51910000Y-72200000D03*
%TD*%
D21*
%TO.C,R7*%
X92000000Y-51510000D03*
X92000000Y-50490000D03*
%TD*%
%TO.C,R5*%
X101050000Y-43260000D03*
X101050000Y-42240000D03*
%TD*%
D23*
%TO.C,R2*%
X61250000Y-101240000D03*
X61250000Y-102260000D03*
%TD*%
D27*
%TO.C,D1*%
X84750000Y-103037500D03*
X84750000Y-101462500D03*
%TD*%
D26*
%TO.C,U1*%
X94590000Y-102200000D03*
X94590000Y-103150000D03*
X94590000Y-104100000D03*
X96910000Y-104100000D03*
X96910000Y-103150000D03*
X96910000Y-102200000D03*
%TD*%
D21*
%TO.C,R4*%
X76260000Y-74260000D03*
X76260000Y-73240000D03*
%TD*%
%TO.C,R6*%
X94500000Y-96510000D03*
X94500000Y-95490000D03*
%TD*%
D23*
%TO.C,R1*%
X48000000Y-56240000D03*
X48000000Y-57260000D03*
%TD*%
D21*
%TO.C,R3*%
X38250000Y-87260000D03*
X38250000Y-86240000D03*
%TD*%
D22*
%TO.C,C3*%
X81030000Y-61650000D03*
X80070000Y-61650000D03*
%TD*%
D21*
%TO.C,R5*%
X71050000Y-88260000D03*
X71050000Y-87240000D03*
%TD*%
%TO.C,R4*%
X76260000Y-44260000D03*
X76260000Y-43240000D03*
%TD*%
%TO.C,R5*%
X71050000Y-103260000D03*
X71050000Y-102240000D03*
%TD*%
%TO.C,R3*%
X98250000Y-72260000D03*
X98250000Y-71240000D03*
%TD*%
%TO.C,R6*%
X64500000Y-36510000D03*
X64500000Y-35490000D03*
%TD*%
D27*
%TO.C,D1*%
X99750000Y-43037500D03*
X99750000Y-41462500D03*
%TD*%
D23*
%TO.C,R2*%
X91250000Y-41240000D03*
X91250000Y-42260000D03*
%TD*%
D22*
%TO.C,C3*%
X51030000Y-61650000D03*
X50070000Y-61650000D03*
%TD*%
D21*
%TO.C,R7*%
X77000000Y-66510000D03*
X77000000Y-65490000D03*
%TD*%
D22*
%TO.C,C3*%
X36030000Y-31650000D03*
X35070000Y-31650000D03*
%TD*%
D10*
%TO.C,J2*%
X52040000Y-50250000D03*
D11*
X54580000Y-50250000D03*
%TD*%
D21*
%TO.C,R3*%
X38250000Y-72260000D03*
X38250000Y-71240000D03*
%TD*%
%TO.C,R5*%
X56050000Y-73260000D03*
X56050000Y-72240000D03*
%TD*%
%TO.C,R7*%
X47000000Y-96510000D03*
X47000000Y-95490000D03*
%TD*%
%TO.C,R5*%
X41050000Y-103260000D03*
X41050000Y-102240000D03*
%TD*%
%TO.C,R6*%
X79500000Y-36510000D03*
X79500000Y-35490000D03*
%TD*%
D27*
%TO.C,D1*%
X99750000Y-58037500D03*
X99750000Y-56462500D03*
%TD*%
D23*
%TO.C,R1*%
X78000000Y-101240000D03*
X78000000Y-102260000D03*
%TD*%
D22*
%TO.C,C2*%
X96030000Y-77650000D03*
X95070000Y-77650000D03*
%TD*%
D21*
%TO.C,R3*%
X68250000Y-72260000D03*
X68250000Y-71240000D03*
%TD*%
D22*
%TO.C,C1*%
X99480000Y-74425000D03*
X98520000Y-74425000D03*
%TD*%
%TO.C,C1*%
X99480000Y-44425000D03*
X98520000Y-44425000D03*
%TD*%
D21*
%TO.C,R7*%
X62000000Y-51510000D03*
X62000000Y-50490000D03*
%TD*%
D10*
%TO.C,J2*%
X97040000Y-95250000D03*
D11*
X99580000Y-95250000D03*
%TD*%
D21*
%TO.C,R4*%
X31260000Y-104260000D03*
X31260000Y-103240000D03*
%TD*%
D10*
%TO.C,J2*%
X67040000Y-35250000D03*
D11*
X69580000Y-35250000D03*
%TD*%
D22*
%TO.C,C1*%
X84480000Y-74425000D03*
X83520000Y-74425000D03*
%TD*%
D24*
%TO.C,U2*%
X77487500Y-62250000D03*
X77487500Y-62750000D03*
X77487500Y-63250000D03*
X77487500Y-63750000D03*
D25*
X78000000Y-63762500D03*
X78500000Y-63762500D03*
D24*
X79012500Y-63750000D03*
X79012500Y-63250000D03*
X79012500Y-62750000D03*
X79012500Y-62250000D03*
D25*
X78500000Y-62237500D03*
X78000000Y-62237500D03*
%TD*%
D21*
%TO.C,R7*%
X32000000Y-81510000D03*
X32000000Y-80490000D03*
%TD*%
D22*
%TO.C,C2*%
X66030000Y-77650000D03*
X65070000Y-77650000D03*
%TD*%
D21*
%TO.C,R7*%
X62000000Y-66510000D03*
X62000000Y-65490000D03*
%TD*%
%TO.C,R4*%
X91260000Y-104260000D03*
X91260000Y-103240000D03*
%TD*%
D10*
%TO.C,J2*%
X67040000Y-95250000D03*
D11*
X69580000Y-95250000D03*
%TD*%
D26*
%TO.C,U1*%
X94590000Y-87200000D03*
X94590000Y-88150000D03*
X94590000Y-89100000D03*
X96910000Y-89100000D03*
X96910000Y-88150000D03*
X96910000Y-87200000D03*
%TD*%
D21*
%TO.C,R4*%
X61260000Y-59260000D03*
X61260000Y-58240000D03*
%TD*%
D22*
%TO.C,C1*%
X39480000Y-74425000D03*
X38520000Y-74425000D03*
%TD*%
D24*
%TO.C,U2*%
X62487500Y-77250000D03*
X62487500Y-77750000D03*
X62487500Y-78250000D03*
X62487500Y-78750000D03*
D25*
X63000000Y-78762500D03*
X63500000Y-78762500D03*
D24*
X64012500Y-78750000D03*
X64012500Y-78250000D03*
X64012500Y-77750000D03*
X64012500Y-77250000D03*
D25*
X63500000Y-77237500D03*
X63000000Y-77237500D03*
%TD*%
D23*
%TO.C,R1*%
X78000000Y-71240000D03*
X78000000Y-72260000D03*
%TD*%
%TO.C,R2*%
X31250000Y-101240000D03*
X31250000Y-102260000D03*
%TD*%
D22*
%TO.C,C2*%
X81030000Y-77650000D03*
X80070000Y-77650000D03*
%TD*%
D23*
%TO.C,R2*%
X46250000Y-101240000D03*
X46250000Y-102260000D03*
%TD*%
D21*
%TO.C,R7*%
X77000000Y-81510000D03*
X77000000Y-80490000D03*
%TD*%
D27*
%TO.C,D1*%
X39750000Y-73037500D03*
X39750000Y-71462500D03*
%TD*%
D21*
%TO.C,R7*%
X47000000Y-51510000D03*
X47000000Y-50490000D03*
%TD*%
D24*
%TO.C,U2*%
X32487500Y-92250000D03*
X32487500Y-92750000D03*
X32487500Y-93250000D03*
X32487500Y-93750000D03*
D25*
X33000000Y-93762500D03*
X33500000Y-93762500D03*
D24*
X34012500Y-93750000D03*
X34012500Y-93250000D03*
X34012500Y-92750000D03*
X34012500Y-92250000D03*
D25*
X33500000Y-92237500D03*
X33000000Y-92237500D03*
%TD*%
D21*
%TO.C,R7*%
X92000000Y-81510000D03*
X92000000Y-80490000D03*
%TD*%
D26*
%TO.C,U1*%
X49590000Y-57200000D03*
X49590000Y-58150000D03*
X49590000Y-59100000D03*
X51910000Y-59100000D03*
X51910000Y-58150000D03*
X51910000Y-57200000D03*
%TD*%
D21*
%TO.C,R6*%
X94500000Y-66510000D03*
X94500000Y-65490000D03*
%TD*%
D22*
%TO.C,C3*%
X51030000Y-46650000D03*
X50070000Y-46650000D03*
%TD*%
D10*
%TO.C,J2*%
X37040000Y-65250000D03*
D11*
X39580000Y-65250000D03*
%TD*%
D27*
%TO.C,D1*%
X69750000Y-43037500D03*
X69750000Y-41462500D03*
%TD*%
D22*
%TO.C,C3*%
X96030000Y-46650000D03*
X95070000Y-46650000D03*
%TD*%
D23*
%TO.C,R1*%
X93000000Y-56240000D03*
X93000000Y-57260000D03*
%TD*%
D21*
%TO.C,R5*%
X86050000Y-73260000D03*
X86050000Y-72240000D03*
%TD*%
%TO.C,R7*%
X62000000Y-36510000D03*
X62000000Y-35490000D03*
%TD*%
D24*
%TO.C,U2*%
X77487500Y-32250000D03*
X77487500Y-32750000D03*
X77487500Y-33250000D03*
X77487500Y-33750000D03*
D25*
X78000000Y-33762500D03*
X78500000Y-33762500D03*
D24*
X79012500Y-33750000D03*
X79012500Y-33250000D03*
X79012500Y-32750000D03*
X79012500Y-32250000D03*
D25*
X78500000Y-32237500D03*
X78000000Y-32237500D03*
%TD*%
D23*
%TO.C,R2*%
X76250000Y-86240000D03*
X76250000Y-87260000D03*
%TD*%
D21*
%TO.C,R5*%
X41050000Y-88260000D03*
X41050000Y-87240000D03*
%TD*%
D23*
%TO.C,R1*%
X48000000Y-71240000D03*
X48000000Y-72260000D03*
%TD*%
D21*
%TO.C,R4*%
X76260000Y-59260000D03*
X76260000Y-58240000D03*
%TD*%
%TO.C,R3*%
X53250000Y-87260000D03*
X53250000Y-86240000D03*
%TD*%
D27*
%TO.C,D1*%
X54750000Y-43037500D03*
X54750000Y-41462500D03*
%TD*%
D21*
%TO.C,R7*%
X47000000Y-36510000D03*
X47000000Y-35490000D03*
%TD*%
%TO.C,R3*%
X83250000Y-42260000D03*
X83250000Y-41240000D03*
%TD*%
%TO.C,R6*%
X94500000Y-51510000D03*
X94500000Y-50490000D03*
%TD*%
%TO.C,R5*%
X101050000Y-103260000D03*
X101050000Y-102240000D03*
%TD*%
D27*
%TO.C,D1*%
X39750000Y-103037500D03*
X39750000Y-101462500D03*
%TD*%
D23*
%TO.C,R1*%
X63000000Y-86240000D03*
X63000000Y-87260000D03*
%TD*%
D27*
%TO.C,D1*%
X69750000Y-58037500D03*
X69750000Y-56462500D03*
%TD*%
%TO.C,D1*%
X54750000Y-73037500D03*
X54750000Y-71462500D03*
%TD*%
D21*
%TO.C,R7*%
X32000000Y-36510000D03*
X32000000Y-35490000D03*
%TD*%
%TO.C,R3*%
X38250000Y-42260000D03*
X38250000Y-41240000D03*
%TD*%
D22*
%TO.C,C1*%
X69480000Y-74425000D03*
X68520000Y-74425000D03*
%TD*%
D10*
%TO.C,J2*%
X52040000Y-95250000D03*
D11*
X54580000Y-95250000D03*
%TD*%
D22*
%TO.C,C2*%
X51030000Y-47650000D03*
X50070000Y-47650000D03*
%TD*%
D23*
%TO.C,R1*%
X33000000Y-71240000D03*
X33000000Y-72260000D03*
%TD*%
%TO.C,R1*%
X33000000Y-56240000D03*
X33000000Y-57260000D03*
%TD*%
D10*
%TO.C,J2*%
X37040000Y-95250000D03*
D11*
X39580000Y-95250000D03*
%TD*%
D21*
%TO.C,R4*%
X91260000Y-74260000D03*
X91260000Y-73240000D03*
%TD*%
D26*
%TO.C,U1*%
X64590000Y-42200000D03*
X64590000Y-43150000D03*
X64590000Y-44100000D03*
X66910000Y-44100000D03*
X66910000Y-43150000D03*
X66910000Y-42200000D03*
%TD*%
D22*
%TO.C,C3*%
X36030000Y-46650000D03*
X35070000Y-46650000D03*
%TD*%
D27*
%TO.C,D1*%
X84750000Y-88037500D03*
X84750000Y-86462500D03*
%TD*%
D21*
%TO.C,R5*%
X41050000Y-43260000D03*
X41050000Y-42240000D03*
%TD*%
D22*
%TO.C,C2*%
X66030000Y-47650000D03*
X65070000Y-47650000D03*
%TD*%
D27*
%TO.C,D1*%
X84750000Y-43037500D03*
X84750000Y-41462500D03*
%TD*%
D21*
%TO.C,R4*%
X91260000Y-59260000D03*
X91260000Y-58240000D03*
%TD*%
D22*
%TO.C,C1*%
X54480000Y-74425000D03*
X53520000Y-74425000D03*
%TD*%
D23*
%TO.C,R1*%
X33000000Y-86240000D03*
X33000000Y-87260000D03*
%TD*%
D22*
%TO.C,C2*%
X81030000Y-92650000D03*
X80070000Y-92650000D03*
%TD*%
D21*
%TO.C,R4*%
X76260000Y-89260000D03*
X76260000Y-88240000D03*
%TD*%
%TO.C,R7*%
X62000000Y-96510000D03*
X62000000Y-95490000D03*
%TD*%
D22*
%TO.C,C1*%
X99480000Y-59425000D03*
X98520000Y-59425000D03*
%TD*%
D21*
%TO.C,R7*%
X92000000Y-66510000D03*
X92000000Y-65490000D03*
%TD*%
D27*
%TO.C,D1*%
X39750000Y-43037500D03*
X39750000Y-41462500D03*
%TD*%
D26*
%TO.C,U1*%
X79590000Y-42200000D03*
X79590000Y-43150000D03*
X79590000Y-44100000D03*
X81910000Y-44100000D03*
X81910000Y-43150000D03*
X81910000Y-42200000D03*
%TD*%
D21*
%TO.C,R4*%
X91260000Y-44260000D03*
X91260000Y-43240000D03*
%TD*%
%TO.C,R5*%
X101050000Y-58260000D03*
X101050000Y-57240000D03*
%TD*%
D23*
%TO.C,R2*%
X31250000Y-86240000D03*
X31250000Y-87260000D03*
%TD*%
D26*
%TO.C,U1*%
X64590000Y-72200000D03*
X64590000Y-73150000D03*
X64590000Y-74100000D03*
X66910000Y-74100000D03*
X66910000Y-73150000D03*
X66910000Y-72200000D03*
%TD*%
D22*
%TO.C,C2*%
X36030000Y-92650000D03*
X35070000Y-92650000D03*
%TD*%
D21*
%TO.C,R3*%
X68250000Y-102260000D03*
X68250000Y-101240000D03*
%TD*%
D24*
%TO.C,U2*%
X62487500Y-32250000D03*
X62487500Y-32750000D03*
X62487500Y-33250000D03*
X62487500Y-33750000D03*
D25*
X63000000Y-33762500D03*
X63500000Y-33762500D03*
D24*
X64012500Y-33750000D03*
X64012500Y-33250000D03*
X64012500Y-32750000D03*
X64012500Y-32250000D03*
D25*
X63500000Y-32237500D03*
X63000000Y-32237500D03*
%TD*%
D23*
%TO.C,R1*%
X48000000Y-86240000D03*
X48000000Y-87260000D03*
%TD*%
D26*
%TO.C,U1*%
X64590000Y-87200000D03*
X64590000Y-88150000D03*
X64590000Y-89100000D03*
X66910000Y-89100000D03*
X66910000Y-88150000D03*
X66910000Y-87200000D03*
%TD*%
D23*
%TO.C,R1*%
X48000000Y-101240000D03*
X48000000Y-102260000D03*
%TD*%
D27*
%TO.C,D1*%
X99750000Y-103037500D03*
X99750000Y-101462500D03*
%TD*%
D21*
%TO.C,R6*%
X49500000Y-66510000D03*
X49500000Y-65490000D03*
%TD*%
%TO.C,R7*%
X32000000Y-96510000D03*
X32000000Y-95490000D03*
%TD*%
D27*
%TO.C,D1*%
X69750000Y-88037500D03*
X69750000Y-86462500D03*
%TD*%
D10*
%TO.C,J2*%
X82040000Y-80250000D03*
D11*
X84580000Y-80250000D03*
%TD*%
D27*
%TO.C,D1*%
X84750000Y-73037500D03*
X84750000Y-71462500D03*
%TD*%
D26*
%TO.C,U1*%
X79590000Y-87200000D03*
X79590000Y-88150000D03*
X79590000Y-89100000D03*
X81910000Y-89100000D03*
X81910000Y-88150000D03*
X81910000Y-87200000D03*
%TD*%
D21*
%TO.C,R5*%
X41050000Y-58260000D03*
X41050000Y-57240000D03*
%TD*%
%TO.C,R5*%
X56050000Y-58260000D03*
X56050000Y-57240000D03*
%TD*%
%TO.C,R6*%
X64500000Y-96510000D03*
X64500000Y-95490000D03*
%TD*%
D10*
%TO.C,J2*%
X67040000Y-65250000D03*
D11*
X69580000Y-65250000D03*
%TD*%
D22*
%TO.C,C2*%
X66030000Y-32650000D03*
X65070000Y-32650000D03*
%TD*%
D23*
%TO.C,R2*%
X31250000Y-71240000D03*
X31250000Y-72260000D03*
%TD*%
D21*
%TO.C,R7*%
X92000000Y-96510000D03*
X92000000Y-95490000D03*
%TD*%
%TO.C,R6*%
X49500000Y-81510000D03*
X49500000Y-80490000D03*
%TD*%
D24*
%TO.C,U2*%
X47487500Y-32250000D03*
X47487500Y-32750000D03*
X47487500Y-33250000D03*
X47487500Y-33750000D03*
D25*
X48000000Y-33762500D03*
X48500000Y-33762500D03*
D24*
X49012500Y-33750000D03*
X49012500Y-33250000D03*
X49012500Y-32750000D03*
X49012500Y-32250000D03*
D25*
X48500000Y-32237500D03*
X48000000Y-32237500D03*
%TD*%
D22*
%TO.C,C3*%
X81030000Y-91650000D03*
X80070000Y-91650000D03*
%TD*%
D27*
%TO.C,D1*%
X54750000Y-88037500D03*
X54750000Y-86462500D03*
%TD*%
D21*
%TO.C,R7*%
X77000000Y-51510000D03*
X77000000Y-50490000D03*
%TD*%
%TO.C,R5*%
X86050000Y-88260000D03*
X86050000Y-87240000D03*
%TD*%
%TO.C,R5*%
X56050000Y-103260000D03*
X56050000Y-102240000D03*
%TD*%
%TO.C,R3*%
X83250000Y-72260000D03*
X83250000Y-71240000D03*
%TD*%
D22*
%TO.C,C2*%
X36030000Y-47650000D03*
X35070000Y-47650000D03*
%TD*%
D23*
%TO.C,R1*%
X33000000Y-101240000D03*
X33000000Y-102260000D03*
%TD*%
D26*
%TO.C,U1*%
X79590000Y-102200000D03*
X79590000Y-103150000D03*
X79590000Y-104100000D03*
X81910000Y-104100000D03*
X81910000Y-103150000D03*
X81910000Y-102200000D03*
%TD*%
D24*
%TO.C,U2*%
X47487500Y-47250000D03*
X47487500Y-47750000D03*
X47487500Y-48250000D03*
X47487500Y-48750000D03*
D25*
X48000000Y-48762500D03*
X48500000Y-48762500D03*
D24*
X49012500Y-48750000D03*
X49012500Y-48250000D03*
X49012500Y-47750000D03*
X49012500Y-47250000D03*
D25*
X48500000Y-47237500D03*
X48000000Y-47237500D03*
%TD*%
D21*
%TO.C,R3*%
X53250000Y-72260000D03*
X53250000Y-71240000D03*
%TD*%
%TO.C,R3*%
X83250000Y-87260000D03*
X83250000Y-86240000D03*
%TD*%
D22*
%TO.C,C2*%
X66030000Y-62650000D03*
X65070000Y-62650000D03*
%TD*%
D10*
%TO.C,J2*%
X37040000Y-50250000D03*
D11*
X39580000Y-50250000D03*
%TD*%
D21*
%TO.C,R4*%
X61260000Y-44260000D03*
X61260000Y-43240000D03*
%TD*%
D22*
%TO.C,C3*%
X51030000Y-76650000D03*
X50070000Y-76650000D03*
%TD*%
D10*
%TO.C,J2*%
X97040000Y-65250000D03*
D11*
X99580000Y-65250000D03*
%TD*%
D22*
%TO.C,C1*%
X84480000Y-59425000D03*
X83520000Y-59425000D03*
%TD*%
D24*
%TO.C,U2*%
X62487500Y-62250000D03*
X62487500Y-62750000D03*
X62487500Y-63250000D03*
X62487500Y-63750000D03*
D25*
X63000000Y-63762500D03*
X63500000Y-63762500D03*
D24*
X64012500Y-63750000D03*
X64012500Y-63250000D03*
X64012500Y-62750000D03*
X64012500Y-62250000D03*
D25*
X63500000Y-62237500D03*
X63000000Y-62237500D03*
%TD*%
D27*
%TO.C,D1*%
X84750000Y-58037500D03*
X84750000Y-56462500D03*
%TD*%
D22*
%TO.C,C3*%
X66030000Y-91650000D03*
X65070000Y-91650000D03*
%TD*%
D27*
%TO.C,D1*%
X99750000Y-88037500D03*
X99750000Y-86462500D03*
%TD*%
D22*
%TO.C,C3*%
X51030000Y-91650000D03*
X50070000Y-91650000D03*
%TD*%
D23*
%TO.C,R2*%
X61250000Y-71240000D03*
X61250000Y-72260000D03*
%TD*%
%TO.C,R2*%
X76250000Y-71240000D03*
X76250000Y-72260000D03*
%TD*%
D24*
%TO.C,U2*%
X62487500Y-47250000D03*
X62487500Y-47750000D03*
X62487500Y-48250000D03*
X62487500Y-48750000D03*
D25*
X63000000Y-48762500D03*
X63500000Y-48762500D03*
D24*
X64012500Y-48750000D03*
X64012500Y-48250000D03*
X64012500Y-47750000D03*
X64012500Y-47250000D03*
D25*
X63500000Y-47237500D03*
X63000000Y-47237500D03*
%TD*%
D10*
%TO.C,J2*%
X97040000Y-80250000D03*
D11*
X99580000Y-80250000D03*
%TD*%
D22*
%TO.C,C2*%
X51030000Y-77650000D03*
X50070000Y-77650000D03*
%TD*%
D10*
%TO.C,J2*%
X82040000Y-65250000D03*
D11*
X84580000Y-65250000D03*
%TD*%
D23*
%TO.C,R2*%
X31250000Y-41240000D03*
X31250000Y-42260000D03*
%TD*%
D22*
%TO.C,C1*%
X54480000Y-44425000D03*
X53520000Y-44425000D03*
%TD*%
D21*
%TO.C,R5*%
X71050000Y-73260000D03*
X71050000Y-72240000D03*
%TD*%
D23*
%TO.C,R2*%
X31250000Y-56240000D03*
X31250000Y-57260000D03*
%TD*%
D24*
%TO.C,U2*%
X92487500Y-47250000D03*
X92487500Y-47750000D03*
X92487500Y-48250000D03*
X92487500Y-48750000D03*
D25*
X93000000Y-48762500D03*
X93500000Y-48762500D03*
D24*
X94012500Y-48750000D03*
X94012500Y-48250000D03*
X94012500Y-47750000D03*
X94012500Y-47250000D03*
D25*
X93500000Y-47237500D03*
X93000000Y-47237500D03*
%TD*%
D23*
%TO.C,R1*%
X48000000Y-41240000D03*
X48000000Y-42260000D03*
%TD*%
D21*
%TO.C,R3*%
X98250000Y-87260000D03*
X98250000Y-86240000D03*
%TD*%
D23*
%TO.C,R1*%
X93000000Y-101240000D03*
X93000000Y-102260000D03*
%TD*%
D21*
%TO.C,R6*%
X49500000Y-96510000D03*
X49500000Y-95490000D03*
%TD*%
D23*
%TO.C,R2*%
X76250000Y-41240000D03*
X76250000Y-42260000D03*
%TD*%
D21*
%TO.C,R3*%
X38250000Y-102260000D03*
X38250000Y-101240000D03*
%TD*%
D26*
%TO.C,U1*%
X49590000Y-87200000D03*
X49590000Y-88150000D03*
X49590000Y-89100000D03*
X51910000Y-89100000D03*
X51910000Y-88150000D03*
X51910000Y-87200000D03*
%TD*%
D23*
%TO.C,R1*%
X63000000Y-41240000D03*
X63000000Y-42260000D03*
%TD*%
D24*
%TO.C,U2*%
X92487500Y-32250000D03*
X92487500Y-32750000D03*
X92487500Y-33250000D03*
X92487500Y-33750000D03*
D25*
X93000000Y-33762500D03*
X93500000Y-33762500D03*
D24*
X94012500Y-33750000D03*
X94012500Y-33250000D03*
X94012500Y-32750000D03*
X94012500Y-32250000D03*
D25*
X93500000Y-32237500D03*
X93000000Y-32237500D03*
%TD*%
D21*
%TO.C,R7*%
X62000000Y-81510000D03*
X62000000Y-80490000D03*
%TD*%
D23*
%TO.C,R1*%
X78000000Y-86240000D03*
X78000000Y-87260000D03*
%TD*%
%TO.C,R2*%
X46250000Y-41240000D03*
X46250000Y-42260000D03*
%TD*%
D26*
%TO.C,U1*%
X34590000Y-42200000D03*
X34590000Y-43150000D03*
X34590000Y-44100000D03*
X36910000Y-44100000D03*
X36910000Y-43150000D03*
X36910000Y-42200000D03*
%TD*%
D23*
%TO.C,R2*%
X91250000Y-71240000D03*
X91250000Y-72260000D03*
%TD*%
%TO.C,R2*%
X46250000Y-71240000D03*
X46250000Y-72260000D03*
%TD*%
D21*
%TO.C,R3*%
X53250000Y-57260000D03*
X53250000Y-56240000D03*
%TD*%
%TO.C,R7*%
X47000000Y-81510000D03*
X47000000Y-80490000D03*
%TD*%
%TO.C,R5*%
X56050000Y-88260000D03*
X56050000Y-87240000D03*
%TD*%
%TO.C,R3*%
X68250000Y-57260000D03*
X68250000Y-56240000D03*
%TD*%
D24*
%TO.C,U2*%
X47487500Y-62250000D03*
X47487500Y-62750000D03*
X47487500Y-63250000D03*
X47487500Y-63750000D03*
D25*
X48000000Y-63762500D03*
X48500000Y-63762500D03*
D24*
X49012500Y-63750000D03*
X49012500Y-63250000D03*
X49012500Y-62750000D03*
X49012500Y-62250000D03*
D25*
X48500000Y-62237500D03*
X48000000Y-62237500D03*
%TD*%
D21*
%TO.C,R6*%
X34500000Y-36510000D03*
X34500000Y-35490000D03*
%TD*%
D22*
%TO.C,C2*%
X36030000Y-32650000D03*
X35070000Y-32650000D03*
%TD*%
D21*
%TO.C,R4*%
X61260000Y-104260000D03*
X61260000Y-103240000D03*
%TD*%
%TO.C,R7*%
X47000000Y-66510000D03*
X47000000Y-65490000D03*
%TD*%
D10*
%TO.C,J2*%
X52040000Y-65250000D03*
D11*
X54580000Y-65250000D03*
%TD*%
D24*
%TO.C,U2*%
X77487500Y-77250000D03*
X77487500Y-77750000D03*
X77487500Y-78250000D03*
X77487500Y-78750000D03*
D25*
X78000000Y-78762500D03*
X78500000Y-78762500D03*
D24*
X79012500Y-78750000D03*
X79012500Y-78250000D03*
X79012500Y-77750000D03*
X79012500Y-77250000D03*
D25*
X78500000Y-77237500D03*
X78000000Y-77237500D03*
%TD*%
D22*
%TO.C,C1*%
X69480000Y-104425000D03*
X68520000Y-104425000D03*
%TD*%
D23*
%TO.C,R1*%
X93000000Y-86240000D03*
X93000000Y-87260000D03*
%TD*%
D22*
%TO.C,C1*%
X99480000Y-104425000D03*
X98520000Y-104425000D03*
%TD*%
D26*
%TO.C,U1*%
X94590000Y-57200000D03*
X94590000Y-58150000D03*
X94590000Y-59100000D03*
X96910000Y-59100000D03*
X96910000Y-58150000D03*
X96910000Y-57200000D03*
%TD*%
D21*
%TO.C,R3*%
X38250000Y-57260000D03*
X38250000Y-56240000D03*
%TD*%
D22*
%TO.C,C1*%
X69480000Y-44425000D03*
X68520000Y-44425000D03*
%TD*%
%TO.C,C2*%
X51030000Y-62650000D03*
X50070000Y-62650000D03*
%TD*%
%TO.C,C3*%
X51030000Y-31650000D03*
X50070000Y-31650000D03*
%TD*%
%TO.C,C3*%
X66030000Y-61650000D03*
X65070000Y-61650000D03*
%TD*%
D21*
%TO.C,R5*%
X71050000Y-43260000D03*
X71050000Y-42240000D03*
%TD*%
D26*
%TO.C,U1*%
X34590000Y-72200000D03*
X34590000Y-73150000D03*
X34590000Y-74100000D03*
X36910000Y-74100000D03*
X36910000Y-73150000D03*
X36910000Y-72200000D03*
%TD*%
D22*
%TO.C,C1*%
X54480000Y-59425000D03*
X53520000Y-59425000D03*
%TD*%
%TO.C,C1*%
X84480000Y-104425000D03*
X83520000Y-104425000D03*
%TD*%
D21*
%TO.C,R6*%
X64500000Y-66510000D03*
X64500000Y-65490000D03*
%TD*%
D23*
%TO.C,R1*%
X93000000Y-41240000D03*
X93000000Y-42260000D03*
%TD*%
D22*
%TO.C,C1*%
X69480000Y-89425000D03*
X68520000Y-89425000D03*
%TD*%
%TO.C,C3*%
X66030000Y-46650000D03*
X65070000Y-46650000D03*
%TD*%
D21*
%TO.C,R6*%
X34500000Y-51510000D03*
X34500000Y-50490000D03*
%TD*%
D22*
%TO.C,C3*%
X36030000Y-76650000D03*
X35070000Y-76650000D03*
%TD*%
%TO.C,C1*%
X69480000Y-59425000D03*
X68520000Y-59425000D03*
%TD*%
D24*
%TO.C,U2*%
X62487500Y-92250000D03*
X62487500Y-92750000D03*
X62487500Y-93250000D03*
X62487500Y-93750000D03*
D25*
X63000000Y-93762500D03*
X63500000Y-93762500D03*
D24*
X64012500Y-93750000D03*
X64012500Y-93250000D03*
X64012500Y-92750000D03*
X64012500Y-92250000D03*
D25*
X63500000Y-92237500D03*
X63000000Y-92237500D03*
%TD*%
D27*
%TO.C,D1*%
X39750000Y-88037500D03*
X39750000Y-86462500D03*
%TD*%
D22*
%TO.C,C2*%
X36030000Y-77650000D03*
X35070000Y-77650000D03*
%TD*%
D24*
%TO.C,U2*%
X77487500Y-92250000D03*
X77487500Y-92750000D03*
X77487500Y-93250000D03*
X77487500Y-93750000D03*
D25*
X78000000Y-93762500D03*
X78500000Y-93762500D03*
D24*
X79012500Y-93750000D03*
X79012500Y-93250000D03*
X79012500Y-92750000D03*
X79012500Y-92250000D03*
D25*
X78500000Y-92237500D03*
X78000000Y-92237500D03*
%TD*%
D21*
%TO.C,R4*%
X46260000Y-104260000D03*
X46260000Y-103240000D03*
%TD*%
%TO.C,R5*%
X101050000Y-88260000D03*
X101050000Y-87240000D03*
%TD*%
D22*
%TO.C,C3*%
X81030000Y-76650000D03*
X80070000Y-76650000D03*
%TD*%
%TO.C,C1*%
X84480000Y-44425000D03*
X83520000Y-44425000D03*
%TD*%
D21*
%TO.C,R6*%
X79500000Y-66510000D03*
X79500000Y-65490000D03*
%TD*%
D24*
%TO.C,U2*%
X47487500Y-92250000D03*
X47487500Y-92750000D03*
X47487500Y-93250000D03*
X47487500Y-93750000D03*
D25*
X48000000Y-93762500D03*
X48500000Y-93762500D03*
D24*
X49012500Y-93750000D03*
X49012500Y-93250000D03*
X49012500Y-92750000D03*
X49012500Y-92250000D03*
D25*
X48500000Y-92237500D03*
X48000000Y-92237500D03*
%TD*%
D27*
%TO.C,D1*%
X39750000Y-58037500D03*
X39750000Y-56462500D03*
%TD*%
D22*
%TO.C,C2*%
X81030000Y-32650000D03*
X80070000Y-32650000D03*
%TD*%
D26*
%TO.C,U1*%
X49590000Y-102200000D03*
X49590000Y-103150000D03*
X49590000Y-104100000D03*
X51910000Y-104100000D03*
X51910000Y-103150000D03*
X51910000Y-102200000D03*
%TD*%
D10*
%TO.C,J2*%
X82040000Y-50250000D03*
D11*
X84580000Y-50250000D03*
%TD*%
D21*
%TO.C,R5*%
X86050000Y-103260000D03*
X86050000Y-102240000D03*
%TD*%
%TO.C,R6*%
X34500000Y-81510000D03*
X34500000Y-80490000D03*
%TD*%
M02*
