%TF.GenerationSoftware,KiCad,Pcbnew,7.0.1*%
%TF.CreationDate,2024-10-11T23:10:47-04:00*%
%TF.ProjectId,PEST-panel,50455354-2d70-4616-9e65-6c2e6b696361,rev?*%
%TF.SameCoordinates,Original*%
%TF.FileFunction,Paste,Bot*%
%TF.FilePolarity,Positive*%
%FSLAX46Y46*%
G04 Gerber Fmt 4.6, Leading zero omitted, Abs format (unit mm)*
G04 Created by KiCad (PCBNEW 7.0.1) date 2024-10-11 23:10:47*
%MOMM*%
%LPD*%
G01*
G04 APERTURE LIST*
G04 Aperture macros list*
%AMRoundRect*
0 Rectangle with rounded corners*
0 $1 Rounding radius*
0 $2 $3 $4 $5 $6 $7 $8 $9 X,Y pos of 4 corners*
0 Add a 4 corners polygon primitive as box body*
4,1,4,$2,$3,$4,$5,$6,$7,$8,$9,$2,$3,0*
0 Add four circle primitives for the rounded corners*
1,1,$1+$1,$2,$3*
1,1,$1+$1,$4,$5*
1,1,$1+$1,$6,$7*
1,1,$1+$1,$8,$9*
0 Add four rect primitives between the rounded corners*
20,1,$1+$1,$2,$3,$4,$5,0*
20,1,$1+$1,$4,$5,$6,$7,0*
20,1,$1+$1,$6,$7,$8,$9,0*
20,1,$1+$1,$8,$9,$2,$3,0*%
G04 Aperture macros list end*
%ADD10RoundRect,0.100000X-0.598134X0.679879X0.434304X-0.794594X0.598134X-0.679879X-0.434304X0.794594X0*%
G04 APERTURE END LIST*
D10*
%TO.C,REF\u002A\u002A197*%
X76277455Y-56449577D03*
X72099677Y-58642423D03*
%TD*%
%TO.C,REF\u002A\u002A195*%
X68034281Y-56449577D03*
X63856503Y-58642423D03*
%TD*%
%TO.C,REF\u002A\u002A193*%
X59791107Y-56449577D03*
X55613329Y-58642423D03*
%TD*%
%TO.C,REF\u002A\u002A192*%
X51547933Y-56449577D03*
X47370155Y-58642423D03*
%TD*%
%TO.C,REF\u002A\u002A189*%
X43304759Y-56449577D03*
X39126981Y-58642423D03*
%TD*%
%TO.C,REF\u002A\u002A188*%
X35061585Y-56449577D03*
X30883807Y-58642423D03*
%TD*%
%TO.C,REF\u002A\u002A186*%
X26818411Y-56449577D03*
X22640633Y-58642423D03*
%TD*%
%TO.C,REF\u002A\u002A184*%
X18575237Y-56449577D03*
X14397459Y-58642423D03*
%TD*%
%TO.C,REF\u002A\u002A182*%
X10332063Y-56449577D03*
X6154285Y-58642423D03*
%TD*%
%TO.C,REF\u002A\u002A180*%
X2088889Y-56449577D03*
X-2088889Y-58642423D03*
%TD*%
%TO.C,REF\u002A\u002A177*%
X76277455Y-50055577D03*
X72099677Y-52248423D03*
%TD*%
%TO.C,REF\u002A\u002A175*%
X68034281Y-50055577D03*
X63856503Y-52248423D03*
%TD*%
%TO.C,REF\u002A\u002A174*%
X59791107Y-50055577D03*
X55613329Y-52248423D03*
%TD*%
%TO.C,REF\u002A\u002A172*%
X51547933Y-50055577D03*
X47370155Y-52248423D03*
%TD*%
%TO.C,REF\u002A\u002A170*%
X43304759Y-50055577D03*
X39126981Y-52248423D03*
%TD*%
%TO.C,REF\u002A\u002A167*%
X35061585Y-50055577D03*
X30883807Y-52248423D03*
%TD*%
%TO.C,REF\u002A\u002A165*%
X26818411Y-50055577D03*
X22640633Y-52248423D03*
%TD*%
%TO.C,REF\u002A\u002A163*%
X18575237Y-50055577D03*
X14397459Y-52248423D03*
%TD*%
%TO.C,REF\u002A\u002A161*%
X10332063Y-50055577D03*
X6154285Y-52248423D03*
%TD*%
%TO.C,REF\u002A\u002A160*%
X2088889Y-50055577D03*
X-2088889Y-52248423D03*
%TD*%
%TO.C,REF\u002A\u002A158*%
X76277455Y-43661577D03*
X72099677Y-45854423D03*
%TD*%
%TO.C,REF\u002A\u002A155*%
X68034281Y-43661577D03*
X63856503Y-45854423D03*
%TD*%
%TO.C,REF\u002A\u002A154*%
X59791107Y-43661577D03*
X55613329Y-45854423D03*
%TD*%
%TO.C,REF\u002A\u002A151*%
X51547933Y-43661577D03*
X47370155Y-45854423D03*
%TD*%
%TO.C,REF\u002A\u002A149*%
X43304759Y-43661577D03*
X39126981Y-45854423D03*
%TD*%
%TO.C,REF\u002A\u002A147*%
X35061585Y-43661577D03*
X30883807Y-45854423D03*
%TD*%
%TO.C,REF\u002A\u002A145*%
X26818411Y-43661577D03*
X22640633Y-45854423D03*
%TD*%
%TO.C,REF\u002A\u002A144*%
X18575237Y-43661577D03*
X14397459Y-45854423D03*
%TD*%
%TO.C,REF\u002A\u002A141*%
X10332063Y-43661577D03*
X6154285Y-45854423D03*
%TD*%
%TO.C,REF\u002A\u002A140*%
X2088889Y-43661577D03*
X-2088889Y-45854423D03*
%TD*%
%TO.C,REF\u002A\u002A138*%
X76277455Y-37267577D03*
X72099677Y-39460423D03*
%TD*%
%TO.C,REF\u002A\u002A136*%
X68034281Y-37267577D03*
X63856503Y-39460423D03*
%TD*%
%TO.C,REF\u002A\u002A134*%
X59791107Y-37267577D03*
X55613329Y-39460423D03*
%TD*%
%TO.C,REF\u002A\u002A132*%
X51547933Y-37267577D03*
X47370155Y-39460423D03*
%TD*%
%TO.C,REF\u002A\u002A130*%
X43304759Y-37267577D03*
X39126981Y-39460423D03*
%TD*%
%TO.C,REF\u002A\u002A128*%
X35061585Y-37267577D03*
X30883807Y-39460423D03*
%TD*%
%TO.C,REF\u002A\u002A125*%
X26818411Y-37267577D03*
X22640633Y-39460423D03*
%TD*%
%TO.C,REF\u002A\u002A123*%
X18575237Y-37267577D03*
X14397459Y-39460423D03*
%TD*%
%TO.C,REF\u002A\u002A121*%
X10332063Y-37267577D03*
X6154285Y-39460423D03*
%TD*%
%TO.C,REF\u002A\u002A120*%
X2088889Y-37267577D03*
X-2088889Y-39460423D03*
%TD*%
%TO.C,REF\u002A\u002A118*%
X76277455Y-30873577D03*
X72099677Y-33066423D03*
%TD*%
%TO.C,REF\u002A\u002A116*%
X68034281Y-30873577D03*
X63856503Y-33066423D03*
%TD*%
%TO.C,REF\u002A\u002A114*%
X59791107Y-30873577D03*
X55613329Y-33066423D03*
%TD*%
%TO.C,REF\u002A\u002A112*%
X51547933Y-30873577D03*
X47370155Y-33066423D03*
%TD*%
%TO.C,REF\u002A\u002A110*%
X43304759Y-30873577D03*
X39126981Y-33066423D03*
%TD*%
%TO.C,REF\u002A\u002A107*%
X35061585Y-30873577D03*
X30883807Y-33066423D03*
%TD*%
%TO.C,REF\u002A\u002A106*%
X26818411Y-30873577D03*
X22640633Y-33066423D03*
%TD*%
%TO.C,REF\u002A\u002A103*%
X18575237Y-30873577D03*
X14397459Y-33066423D03*
%TD*%
%TO.C,REF\u002A\u002A101*%
X10332063Y-30873577D03*
X6154285Y-33066423D03*
%TD*%
%TO.C,REF\u002A\u002A99*%
X2088889Y-30873577D03*
X-2088889Y-33066423D03*
%TD*%
%TO.C,REF\u002A\u002A98*%
X76277455Y-24479577D03*
X72099677Y-26672423D03*
%TD*%
%TO.C,REF\u002A\u002A95*%
X68034281Y-24479577D03*
X63856503Y-26672423D03*
%TD*%
%TO.C,REF\u002A\u002A94*%
X59791107Y-24479577D03*
X55613329Y-26672423D03*
%TD*%
%TO.C,REF\u002A\u002A91*%
X51547933Y-24479577D03*
X47370155Y-26672423D03*
%TD*%
%TO.C,REF\u002A\u002A89*%
X43304759Y-24479577D03*
X39126981Y-26672423D03*
%TD*%
%TO.C,REF\u002A\u002A88*%
X35061585Y-24479577D03*
X30883807Y-26672423D03*
%TD*%
%TO.C,REF\u002A\u002A85*%
X26818411Y-24479577D03*
X22640633Y-26672423D03*
%TD*%
%TO.C,REF\u002A\u002A84*%
X18575237Y-24479577D03*
X14397459Y-26672423D03*
%TD*%
%TO.C,REF\u002A\u002A81*%
X10332063Y-24479577D03*
X6154285Y-26672423D03*
%TD*%
%TO.C,REF\u002A\u002A79*%
X2088889Y-24479577D03*
X-2088889Y-26672423D03*
%TD*%
%TO.C,REF\u002A\u002A77*%
X76277455Y-18085577D03*
X72099677Y-20278423D03*
%TD*%
%TO.C,REF\u002A\u002A75*%
X68034281Y-18085577D03*
X63856503Y-20278423D03*
%TD*%
%TO.C,REF\u002A\u002A74*%
X59791107Y-18085577D03*
X55613329Y-20278423D03*
%TD*%
%TO.C,REF\u002A\u002A72*%
X51547933Y-18085577D03*
X47370155Y-20278423D03*
%TD*%
%TO.C,REF\u002A\u002A69*%
X43304759Y-18085577D03*
X39126981Y-20278423D03*
%TD*%
%TO.C,REF\u002A\u002A67*%
X35061585Y-18085577D03*
X30883807Y-20278423D03*
%TD*%
%TO.C,REF\u002A\u002A66*%
X26818411Y-18085577D03*
X22640633Y-20278423D03*
%TD*%
%TO.C,REF\u002A\u002A64*%
X18575237Y-18085577D03*
X14397459Y-20278423D03*
%TD*%
%TO.C,REF\u002A\u002A61*%
X10332063Y-18085577D03*
X6154285Y-20278423D03*
%TD*%
%TO.C,REF\u002A\u002A59*%
X2088889Y-18085577D03*
X-2088889Y-20278423D03*
%TD*%
%TO.C,REF\u002A\u002A58*%
X76277455Y-11691577D03*
X72099677Y-13884423D03*
%TD*%
%TO.C,REF\u002A\u002A56*%
X68034281Y-11691577D03*
X63856503Y-13884423D03*
%TD*%
%TO.C,REF\u002A\u002A53*%
X59791107Y-11691577D03*
X55613329Y-13884423D03*
%TD*%
%TO.C,REF\u002A\u002A52*%
X51547933Y-11691577D03*
X47370155Y-13884423D03*
%TD*%
%TO.C,REF\u002A\u002A49*%
X43304759Y-11691577D03*
X39126981Y-13884423D03*
%TD*%
%TO.C,REF\u002A\u002A48*%
X35061585Y-11691577D03*
X30883807Y-13884423D03*
%TD*%
%TO.C,REF\u002A\u002A46*%
X26818411Y-11691577D03*
X22640633Y-13884423D03*
%TD*%
%TO.C,REF\u002A\u002A44*%
X18575237Y-11691577D03*
X14397459Y-13884423D03*
%TD*%
%TO.C,REF\u002A\u002A42*%
X10332063Y-11691577D03*
X6154285Y-13884423D03*
%TD*%
%TO.C,REF\u002A\u002A39*%
X2088889Y-11691577D03*
X-2088889Y-13884423D03*
%TD*%
%TO.C,REF\u002A\u002A37*%
X76277455Y-5297577D03*
X72099677Y-7490423D03*
%TD*%
%TO.C,REF\u002A\u002A36*%
X68034281Y-5297577D03*
X63856503Y-7490423D03*
%TD*%
%TO.C,REF\u002A\u002A34*%
X59791107Y-5297577D03*
X55613329Y-7490423D03*
%TD*%
%TO.C,REF\u002A\u002A31*%
X51547933Y-5297577D03*
X47370155Y-7490423D03*
%TD*%
%TO.C,REF\u002A\u002A30*%
X43304759Y-5297577D03*
X39126981Y-7490423D03*
%TD*%
%TO.C,REF\u002A\u002A28*%
X35061585Y-5297577D03*
X30883807Y-7490423D03*
%TD*%
%TO.C,REF\u002A\u002A25*%
X26818411Y-5297577D03*
X22640633Y-7490423D03*
%TD*%
%TO.C,REF\u002A\u002A23*%
X18575237Y-5297577D03*
X14397459Y-7490423D03*
%TD*%
%TO.C,REF\u002A\u002A22*%
X10332063Y-5297577D03*
X6154285Y-7490423D03*
%TD*%
%TO.C,REF\u002A\u002A20*%
X2088889Y-5297577D03*
X-2088889Y-7490423D03*
%TD*%
%TO.C,REF\u002A\u002A17*%
X76277455Y1096423D03*
X72099677Y-1096423D03*
%TD*%
%TO.C,REF\u002A\u002A15*%
X68034281Y1096423D03*
X63856503Y-1096423D03*
%TD*%
%TO.C,REF\u002A\u002A13*%
X59791107Y1096423D03*
X55613329Y-1096423D03*
%TD*%
%TO.C,REF\u002A\u002A12*%
X51547933Y1096423D03*
X47370155Y-1096423D03*
%TD*%
%TO.C,REF\u002A\u002A9*%
X43304759Y1096423D03*
X39126981Y-1096423D03*
%TD*%
%TO.C,REF\u002A\u002A7*%
X35061585Y1096423D03*
X30883807Y-1096423D03*
%TD*%
%TO.C,REF\u002A\u002A6*%
X26818411Y1096423D03*
X22640633Y-1096423D03*
%TD*%
%TO.C,REF\u002A\u002A3*%
X18575237Y1096423D03*
X14397459Y-1096423D03*
%TD*%
%TO.C,REF\u002A\u002A2*%
X10332063Y1096423D03*
X6154285Y-1096423D03*
%TD*%
%TO.C,REF\u002A\u002A*%
X-2088889Y-1096423D03*
X2088889Y1096423D03*
%TD*%
M02*
