%TF.GenerationSoftware,KiCad,Pcbnew,7.0.1*%
%TF.CreationDate,2024-10-11T23:10:47-04:00*%
%TF.ProjectId,PEST-panel,50455354-2d70-4616-9e65-6c2e6b696361,rev?*%
%TF.SameCoordinates,Original*%
%TF.FileFunction,Soldermask,Top*%
%TF.FilePolarity,Negative*%
%FSLAX46Y46*%
G04 Gerber Fmt 4.6, Leading zero omitted, Abs format (unit mm)*
G04 Created by KiCad (PCBNEW 7.0.1) date 2024-10-11 23:10:47*
%MOMM*%
%LPD*%
G01*
G04 APERTURE LIST*
%ADD10C,0.500000*%
G04 APERTURE END LIST*
D10*
%TO.C,REF\u002A\u002A*%
X-3621587Y-63243000D03*
X-5121587Y-63243000D03*
X-3621587Y-63993000D03*
X-5121587Y-63993000D03*
X-3621587Y-64743000D03*
X-5121587Y-64743000D03*
%TD*%
%TO.C,REF\u002A\u002A*%
X79310153Y-63243000D03*
X77810153Y-63243000D03*
X79310153Y-63993000D03*
X77810153Y-63993000D03*
X79310153Y-64743000D03*
X77810153Y-64743000D03*
%TD*%
%TO.C,REF\u002A\u002A*%
X77810153Y5697000D03*
X79310153Y5697000D03*
X77810153Y6447000D03*
X79310153Y6447000D03*
X77810153Y7197000D03*
X79310153Y7197000D03*
%TD*%
%TO.C,REF\u002A\u002A*%
X-5121587Y5697000D03*
X-3621587Y5697000D03*
X-5121587Y6447000D03*
X-3621587Y6447000D03*
X-5121587Y7197000D03*
X-3621587Y7197000D03*
%TD*%
%TO.C,REF\u002A\u002A198*%
X750000Y-61493000D03*
X750000Y-59993000D03*
X0Y-61493000D03*
X0Y-59993000D03*
X-750000Y-61493000D03*
X-750000Y-59993000D03*
%TD*%
%TO.C,REF\u002A\u002A196*%
X8993174Y-61493000D03*
X8993174Y-59993000D03*
X8243174Y-61493000D03*
X8243174Y-59993000D03*
X7493174Y-61493000D03*
X7493174Y-59993000D03*
%TD*%
%TO.C,REF\u002A\u002A191*%
X25479522Y-61493000D03*
X25479522Y-59993000D03*
X24729522Y-61493000D03*
X24729522Y-59993000D03*
X23979522Y-61493000D03*
X23979522Y-59993000D03*
%TD*%
%TO.C,REF\u002A\u002A194*%
X17236348Y-61493000D03*
X17236348Y-59993000D03*
X16486348Y-61493000D03*
X16486348Y-59993000D03*
X15736348Y-61493000D03*
X15736348Y-59993000D03*
%TD*%
%TO.C,REF\u002A\u002A183*%
X58452218Y-61493000D03*
X58452218Y-59993000D03*
X57702218Y-61493000D03*
X57702218Y-59993000D03*
X56952218Y-61493000D03*
X56952218Y-59993000D03*
%TD*%
%TO.C,REF\u002A\u002A190*%
X33722696Y-61493000D03*
X33722696Y-59993000D03*
X32972696Y-61493000D03*
X32972696Y-59993000D03*
X32222696Y-61493000D03*
X32222696Y-59993000D03*
%TD*%
%TO.C,REF\u002A\u002A187*%
X41965870Y-61493000D03*
X41965870Y-59993000D03*
X41215870Y-61493000D03*
X41215870Y-59993000D03*
X40465870Y-61493000D03*
X40465870Y-59993000D03*
%TD*%
%TO.C,REF\u002A\u002A185*%
X50209044Y-61493000D03*
X50209044Y-59993000D03*
X49459044Y-61493000D03*
X49459044Y-59993000D03*
X48709044Y-61493000D03*
X48709044Y-59993000D03*
%TD*%
%TO.C,REF\u002A\u002A181*%
X66695392Y-61493000D03*
X66695392Y-59993000D03*
X65945392Y-61493000D03*
X65945392Y-59993000D03*
X65195392Y-61493000D03*
X65195392Y-59993000D03*
%TD*%
%TO.C,REF\u002A\u002A179*%
X74938566Y-61493000D03*
X74938566Y-59993000D03*
X74188566Y-61493000D03*
X74188566Y-59993000D03*
X73438566Y-61493000D03*
X73438566Y-59993000D03*
%TD*%
%TO.C,REF\u002A\u002A198*%
X73438566Y-53599000D03*
X73438566Y-55099000D03*
X74188566Y-53599000D03*
X74188566Y-55099000D03*
X74938566Y-53599000D03*
X74938566Y-55099000D03*
%TD*%
%TO.C,REF\u002A\u002A196*%
X65195392Y-53599000D03*
X65195392Y-55099000D03*
X65945392Y-53599000D03*
X65945392Y-55099000D03*
X66695392Y-53599000D03*
X66695392Y-55099000D03*
%TD*%
%TO.C,REF\u002A\u002A194*%
X56952218Y-53599000D03*
X56952218Y-55099000D03*
X57702218Y-53599000D03*
X57702218Y-55099000D03*
X58452218Y-53599000D03*
X58452218Y-55099000D03*
%TD*%
%TO.C,REF\u002A\u002A191*%
X48709044Y-53599000D03*
X48709044Y-55099000D03*
X49459044Y-53599000D03*
X49459044Y-55099000D03*
X50209044Y-53599000D03*
X50209044Y-55099000D03*
%TD*%
%TO.C,REF\u002A\u002A190*%
X40465870Y-53599000D03*
X40465870Y-55099000D03*
X41215870Y-53599000D03*
X41215870Y-55099000D03*
X41965870Y-53599000D03*
X41965870Y-55099000D03*
%TD*%
%TO.C,REF\u002A\u002A187*%
X32222696Y-53599000D03*
X32222696Y-55099000D03*
X32972696Y-53599000D03*
X32972696Y-55099000D03*
X33722696Y-53599000D03*
X33722696Y-55099000D03*
%TD*%
%TO.C,REF\u002A\u002A185*%
X23979522Y-53599000D03*
X23979522Y-55099000D03*
X24729522Y-53599000D03*
X24729522Y-55099000D03*
X25479522Y-53599000D03*
X25479522Y-55099000D03*
%TD*%
%TO.C,REF\u002A\u002A183*%
X15736348Y-53599000D03*
X15736348Y-55099000D03*
X16486348Y-53599000D03*
X16486348Y-55099000D03*
X17236348Y-53599000D03*
X17236348Y-55099000D03*
%TD*%
%TO.C,REF\u002A\u002A181*%
X7493174Y-53599000D03*
X7493174Y-55099000D03*
X8243174Y-53599000D03*
X8243174Y-55099000D03*
X8993174Y-53599000D03*
X8993174Y-55099000D03*
%TD*%
%TO.C,REF\u002A\u002A179*%
X-750000Y-53599000D03*
X-750000Y-55099000D03*
X0Y-53599000D03*
X0Y-55099000D03*
X750000Y-53599000D03*
X750000Y-55099000D03*
%TD*%
%TO.C,REF\u002A\u002A178*%
X73438566Y-47205000D03*
X73438566Y-48705000D03*
X74188566Y-47205000D03*
X74188566Y-48705000D03*
X74938566Y-47205000D03*
X74938566Y-48705000D03*
%TD*%
%TO.C,REF\u002A\u002A176*%
X65195392Y-47205000D03*
X65195392Y-48705000D03*
X65945392Y-47205000D03*
X65945392Y-48705000D03*
X66695392Y-47205000D03*
X66695392Y-48705000D03*
%TD*%
%TO.C,REF\u002A\u002A173*%
X56952218Y-47205000D03*
X56952218Y-48705000D03*
X57702218Y-47205000D03*
X57702218Y-48705000D03*
X58452218Y-47205000D03*
X58452218Y-48705000D03*
%TD*%
%TO.C,REF\u002A\u002A171*%
X48709044Y-47205000D03*
X48709044Y-48705000D03*
X49459044Y-47205000D03*
X49459044Y-48705000D03*
X50209044Y-47205000D03*
X50209044Y-48705000D03*
%TD*%
%TO.C,REF\u002A\u002A169*%
X40465870Y-47205000D03*
X40465870Y-48705000D03*
X41215870Y-47205000D03*
X41215870Y-48705000D03*
X41965870Y-47205000D03*
X41965870Y-48705000D03*
%TD*%
%TO.C,REF\u002A\u002A168*%
X32222696Y-47205000D03*
X32222696Y-48705000D03*
X32972696Y-47205000D03*
X32972696Y-48705000D03*
X33722696Y-47205000D03*
X33722696Y-48705000D03*
%TD*%
%TO.C,REF\u002A\u002A166*%
X23979522Y-47205000D03*
X23979522Y-48705000D03*
X24729522Y-47205000D03*
X24729522Y-48705000D03*
X25479522Y-47205000D03*
X25479522Y-48705000D03*
%TD*%
%TO.C,REF\u002A\u002A164*%
X15736348Y-47205000D03*
X15736348Y-48705000D03*
X16486348Y-47205000D03*
X16486348Y-48705000D03*
X17236348Y-47205000D03*
X17236348Y-48705000D03*
%TD*%
%TO.C,REF\u002A\u002A162*%
X7493174Y-47205000D03*
X7493174Y-48705000D03*
X8243174Y-47205000D03*
X8243174Y-48705000D03*
X8993174Y-47205000D03*
X8993174Y-48705000D03*
%TD*%
%TO.C,REF\u002A\u002A159*%
X-750000Y-47205000D03*
X-750000Y-48705000D03*
X0Y-47205000D03*
X0Y-48705000D03*
X750000Y-47205000D03*
X750000Y-48705000D03*
%TD*%
%TO.C,REF\u002A\u002A157*%
X73438566Y-40811000D03*
X73438566Y-42311000D03*
X74188566Y-40811000D03*
X74188566Y-42311000D03*
X74938566Y-40811000D03*
X74938566Y-42311000D03*
%TD*%
%TO.C,REF\u002A\u002A156*%
X65195392Y-40811000D03*
X65195392Y-42311000D03*
X65945392Y-40811000D03*
X65945392Y-42311000D03*
X66695392Y-40811000D03*
X66695392Y-42311000D03*
%TD*%
%TO.C,REF\u002A\u002A153*%
X56952218Y-40811000D03*
X56952218Y-42311000D03*
X57702218Y-40811000D03*
X57702218Y-42311000D03*
X58452218Y-40811000D03*
X58452218Y-42311000D03*
%TD*%
%TO.C,REF\u002A\u002A152*%
X48709044Y-40811000D03*
X48709044Y-42311000D03*
X49459044Y-40811000D03*
X49459044Y-42311000D03*
X50209044Y-40811000D03*
X50209044Y-42311000D03*
%TD*%
%TO.C,REF\u002A\u002A150*%
X40465870Y-40811000D03*
X40465870Y-42311000D03*
X41215870Y-40811000D03*
X41215870Y-42311000D03*
X41965870Y-40811000D03*
X41965870Y-42311000D03*
%TD*%
%TO.C,REF\u002A\u002A148*%
X32222696Y-40811000D03*
X32222696Y-42311000D03*
X32972696Y-40811000D03*
X32972696Y-42311000D03*
X33722696Y-40811000D03*
X33722696Y-42311000D03*
%TD*%
%TO.C,REF\u002A\u002A146*%
X23979522Y-40811000D03*
X23979522Y-42311000D03*
X24729522Y-40811000D03*
X24729522Y-42311000D03*
X25479522Y-40811000D03*
X25479522Y-42311000D03*
%TD*%
%TO.C,REF\u002A\u002A143*%
X15736348Y-40811000D03*
X15736348Y-42311000D03*
X16486348Y-40811000D03*
X16486348Y-42311000D03*
X17236348Y-40811000D03*
X17236348Y-42311000D03*
%TD*%
%TO.C,REF\u002A\u002A142*%
X7493174Y-40811000D03*
X7493174Y-42311000D03*
X8243174Y-40811000D03*
X8243174Y-42311000D03*
X8993174Y-40811000D03*
X8993174Y-42311000D03*
%TD*%
%TO.C,REF\u002A\u002A139*%
X-750000Y-40811000D03*
X-750000Y-42311000D03*
X0Y-40811000D03*
X0Y-42311000D03*
X750000Y-40811000D03*
X750000Y-42311000D03*
%TD*%
%TO.C,REF\u002A\u002A137*%
X73438566Y-34417000D03*
X73438566Y-35917000D03*
X74188566Y-34417000D03*
X74188566Y-35917000D03*
X74938566Y-34417000D03*
X74938566Y-35917000D03*
%TD*%
%TO.C,REF\u002A\u002A135*%
X65195392Y-34417000D03*
X65195392Y-35917000D03*
X65945392Y-34417000D03*
X65945392Y-35917000D03*
X66695392Y-34417000D03*
X66695392Y-35917000D03*
%TD*%
%TO.C,REF\u002A\u002A133*%
X56952218Y-34417000D03*
X56952218Y-35917000D03*
X57702218Y-34417000D03*
X57702218Y-35917000D03*
X58452218Y-34417000D03*
X58452218Y-35917000D03*
%TD*%
%TO.C,REF\u002A\u002A131*%
X48709044Y-34417000D03*
X48709044Y-35917000D03*
X49459044Y-34417000D03*
X49459044Y-35917000D03*
X50209044Y-34417000D03*
X50209044Y-35917000D03*
%TD*%
%TO.C,REF\u002A\u002A129*%
X40465870Y-34417000D03*
X40465870Y-35917000D03*
X41215870Y-34417000D03*
X41215870Y-35917000D03*
X41965870Y-34417000D03*
X41965870Y-35917000D03*
%TD*%
%TO.C,REF\u002A\u002A127*%
X32222696Y-34417000D03*
X32222696Y-35917000D03*
X32972696Y-34417000D03*
X32972696Y-35917000D03*
X33722696Y-34417000D03*
X33722696Y-35917000D03*
%TD*%
%TO.C,REF\u002A\u002A126*%
X23979522Y-34417000D03*
X23979522Y-35917000D03*
X24729522Y-34417000D03*
X24729522Y-35917000D03*
X25479522Y-34417000D03*
X25479522Y-35917000D03*
%TD*%
%TO.C,REF\u002A\u002A124*%
X15736348Y-34417000D03*
X15736348Y-35917000D03*
X16486348Y-34417000D03*
X16486348Y-35917000D03*
X17236348Y-34417000D03*
X17236348Y-35917000D03*
%TD*%
%TO.C,REF\u002A\u002A122*%
X7493174Y-34417000D03*
X7493174Y-35917000D03*
X8243174Y-34417000D03*
X8243174Y-35917000D03*
X8993174Y-34417000D03*
X8993174Y-35917000D03*
%TD*%
%TO.C,REF\u002A\u002A119*%
X-750000Y-34417000D03*
X-750000Y-35917000D03*
X0Y-34417000D03*
X0Y-35917000D03*
X750000Y-34417000D03*
X750000Y-35917000D03*
%TD*%
%TO.C,REF\u002A\u002A117*%
X73438566Y-28023000D03*
X73438566Y-29523000D03*
X74188566Y-28023000D03*
X74188566Y-29523000D03*
X74938566Y-28023000D03*
X74938566Y-29523000D03*
%TD*%
%TO.C,REF\u002A\u002A115*%
X65195392Y-28023000D03*
X65195392Y-29523000D03*
X65945392Y-28023000D03*
X65945392Y-29523000D03*
X66695392Y-28023000D03*
X66695392Y-29523000D03*
%TD*%
%TO.C,REF\u002A\u002A113*%
X56952218Y-28023000D03*
X56952218Y-29523000D03*
X57702218Y-28023000D03*
X57702218Y-29523000D03*
X58452218Y-28023000D03*
X58452218Y-29523000D03*
%TD*%
%TO.C,REF\u002A\u002A111*%
X48709044Y-28023000D03*
X48709044Y-29523000D03*
X49459044Y-28023000D03*
X49459044Y-29523000D03*
X50209044Y-28023000D03*
X50209044Y-29523000D03*
%TD*%
%TO.C,REF\u002A\u002A109*%
X40465870Y-28023000D03*
X40465870Y-29523000D03*
X41215870Y-28023000D03*
X41215870Y-29523000D03*
X41965870Y-28023000D03*
X41965870Y-29523000D03*
%TD*%
%TO.C,REF\u002A\u002A108*%
X32222696Y-28023000D03*
X32222696Y-29523000D03*
X32972696Y-28023000D03*
X32972696Y-29523000D03*
X33722696Y-28023000D03*
X33722696Y-29523000D03*
%TD*%
%TO.C,REF\u002A\u002A105*%
X23979522Y-28023000D03*
X23979522Y-29523000D03*
X24729522Y-28023000D03*
X24729522Y-29523000D03*
X25479522Y-28023000D03*
X25479522Y-29523000D03*
%TD*%
%TO.C,REF\u002A\u002A104*%
X15736348Y-28023000D03*
X15736348Y-29523000D03*
X16486348Y-28023000D03*
X16486348Y-29523000D03*
X17236348Y-28023000D03*
X17236348Y-29523000D03*
%TD*%
%TO.C,REF\u002A\u002A102*%
X7493174Y-28023000D03*
X7493174Y-29523000D03*
X8243174Y-28023000D03*
X8243174Y-29523000D03*
X8993174Y-28023000D03*
X8993174Y-29523000D03*
%TD*%
%TO.C,REF\u002A\u002A100*%
X-750000Y-28023000D03*
X-750000Y-29523000D03*
X0Y-28023000D03*
X0Y-29523000D03*
X750000Y-28023000D03*
X750000Y-29523000D03*
%TD*%
%TO.C,REF\u002A\u002A97*%
X73438566Y-21629000D03*
X73438566Y-23129000D03*
X74188566Y-21629000D03*
X74188566Y-23129000D03*
X74938566Y-21629000D03*
X74938566Y-23129000D03*
%TD*%
%TO.C,REF\u002A\u002A96*%
X65195392Y-21629000D03*
X65195392Y-23129000D03*
X65945392Y-21629000D03*
X65945392Y-23129000D03*
X66695392Y-21629000D03*
X66695392Y-23129000D03*
%TD*%
%TO.C,REF\u002A\u002A93*%
X56952218Y-21629000D03*
X56952218Y-23129000D03*
X57702218Y-21629000D03*
X57702218Y-23129000D03*
X58452218Y-21629000D03*
X58452218Y-23129000D03*
%TD*%
%TO.C,REF\u002A\u002A92*%
X48709044Y-21629000D03*
X48709044Y-23129000D03*
X49459044Y-21629000D03*
X49459044Y-23129000D03*
X50209044Y-21629000D03*
X50209044Y-23129000D03*
%TD*%
%TO.C,REF\u002A\u002A90*%
X40465870Y-21629000D03*
X40465870Y-23129000D03*
X41215870Y-21629000D03*
X41215870Y-23129000D03*
X41965870Y-21629000D03*
X41965870Y-23129000D03*
%TD*%
%TO.C,REF\u002A\u002A87*%
X32222696Y-21629000D03*
X32222696Y-23129000D03*
X32972696Y-21629000D03*
X32972696Y-23129000D03*
X33722696Y-21629000D03*
X33722696Y-23129000D03*
%TD*%
%TO.C,REF\u002A\u002A86*%
X23979522Y-21629000D03*
X23979522Y-23129000D03*
X24729522Y-21629000D03*
X24729522Y-23129000D03*
X25479522Y-21629000D03*
X25479522Y-23129000D03*
%TD*%
%TO.C,REF\u002A\u002A83*%
X15736348Y-21629000D03*
X15736348Y-23129000D03*
X16486348Y-21629000D03*
X16486348Y-23129000D03*
X17236348Y-21629000D03*
X17236348Y-23129000D03*
%TD*%
%TO.C,REF\u002A\u002A82*%
X7493174Y-21629000D03*
X7493174Y-23129000D03*
X8243174Y-21629000D03*
X8243174Y-23129000D03*
X8993174Y-21629000D03*
X8993174Y-23129000D03*
%TD*%
%TO.C,REF\u002A\u002A80*%
X-750000Y-21629000D03*
X-750000Y-23129000D03*
X0Y-21629000D03*
X0Y-23129000D03*
X750000Y-21629000D03*
X750000Y-23129000D03*
%TD*%
%TO.C,REF\u002A\u002A78*%
X73438566Y-15235000D03*
X73438566Y-16735000D03*
X74188566Y-15235000D03*
X74188566Y-16735000D03*
X74938566Y-15235000D03*
X74938566Y-16735000D03*
%TD*%
%TO.C,REF\u002A\u002A76*%
X65195392Y-15235000D03*
X65195392Y-16735000D03*
X65945392Y-15235000D03*
X65945392Y-16735000D03*
X66695392Y-15235000D03*
X66695392Y-16735000D03*
%TD*%
%TO.C,REF\u002A\u002A73*%
X56952218Y-15235000D03*
X56952218Y-16735000D03*
X57702218Y-15235000D03*
X57702218Y-16735000D03*
X58452218Y-15235000D03*
X58452218Y-16735000D03*
%TD*%
%TO.C,REF\u002A\u002A71*%
X48709044Y-15235000D03*
X48709044Y-16735000D03*
X49459044Y-15235000D03*
X49459044Y-16735000D03*
X50209044Y-15235000D03*
X50209044Y-16735000D03*
%TD*%
%TO.C,REF\u002A\u002A70*%
X40465870Y-15235000D03*
X40465870Y-16735000D03*
X41215870Y-15235000D03*
X41215870Y-16735000D03*
X41965870Y-15235000D03*
X41965870Y-16735000D03*
%TD*%
%TO.C,REF\u002A\u002A68*%
X32222696Y-15235000D03*
X32222696Y-16735000D03*
X32972696Y-15235000D03*
X32972696Y-16735000D03*
X33722696Y-15235000D03*
X33722696Y-16735000D03*
%TD*%
%TO.C,REF\u002A\u002A65*%
X23979522Y-15235000D03*
X23979522Y-16735000D03*
X24729522Y-15235000D03*
X24729522Y-16735000D03*
X25479522Y-15235000D03*
X25479522Y-16735000D03*
%TD*%
%TO.C,REF\u002A\u002A63*%
X15736348Y-15235000D03*
X15736348Y-16735000D03*
X16486348Y-15235000D03*
X16486348Y-16735000D03*
X17236348Y-15235000D03*
X17236348Y-16735000D03*
%TD*%
%TO.C,REF\u002A\u002A62*%
X7493174Y-15235000D03*
X7493174Y-16735000D03*
X8243174Y-15235000D03*
X8243174Y-16735000D03*
X8993174Y-15235000D03*
X8993174Y-16735000D03*
%TD*%
%TO.C,REF\u002A\u002A60*%
X-750000Y-15235000D03*
X-750000Y-16735000D03*
X0Y-15235000D03*
X0Y-16735000D03*
X750000Y-15235000D03*
X750000Y-16735000D03*
%TD*%
%TO.C,REF\u002A\u002A57*%
X73438566Y-8841000D03*
X73438566Y-10341000D03*
X74188566Y-8841000D03*
X74188566Y-10341000D03*
X74938566Y-8841000D03*
X74938566Y-10341000D03*
%TD*%
%TO.C,REF\u002A\u002A55*%
X65195392Y-8841000D03*
X65195392Y-10341000D03*
X65945392Y-8841000D03*
X65945392Y-10341000D03*
X66695392Y-8841000D03*
X66695392Y-10341000D03*
%TD*%
%TO.C,REF\u002A\u002A54*%
X56952218Y-8841000D03*
X56952218Y-10341000D03*
X57702218Y-8841000D03*
X57702218Y-10341000D03*
X58452218Y-8841000D03*
X58452218Y-10341000D03*
%TD*%
%TO.C,REF\u002A\u002A51*%
X48709044Y-8841000D03*
X48709044Y-10341000D03*
X49459044Y-8841000D03*
X49459044Y-10341000D03*
X50209044Y-8841000D03*
X50209044Y-10341000D03*
%TD*%
%TO.C,REF\u002A\u002A50*%
X40465870Y-8841000D03*
X40465870Y-10341000D03*
X41215870Y-8841000D03*
X41215870Y-10341000D03*
X41965870Y-8841000D03*
X41965870Y-10341000D03*
%TD*%
%TO.C,REF\u002A\u002A47*%
X32222696Y-8841000D03*
X32222696Y-10341000D03*
X32972696Y-8841000D03*
X32972696Y-10341000D03*
X33722696Y-8841000D03*
X33722696Y-10341000D03*
%TD*%
%TO.C,REF\u002A\u002A45*%
X23979522Y-8841000D03*
X23979522Y-10341000D03*
X24729522Y-8841000D03*
X24729522Y-10341000D03*
X25479522Y-8841000D03*
X25479522Y-10341000D03*
%TD*%
%TO.C,REF\u002A\u002A43*%
X15736348Y-8841000D03*
X15736348Y-10341000D03*
X16486348Y-8841000D03*
X16486348Y-10341000D03*
X17236348Y-8841000D03*
X17236348Y-10341000D03*
%TD*%
%TO.C,REF\u002A\u002A41*%
X7493174Y-8841000D03*
X7493174Y-10341000D03*
X8243174Y-8841000D03*
X8243174Y-10341000D03*
X8993174Y-8841000D03*
X8993174Y-10341000D03*
%TD*%
%TO.C,REF\u002A\u002A40*%
X-750000Y-8841000D03*
X-750000Y-10341000D03*
X0Y-8841000D03*
X0Y-10341000D03*
X750000Y-8841000D03*
X750000Y-10341000D03*
%TD*%
%TO.C,REF\u002A\u002A38*%
X73438566Y-2447000D03*
X73438566Y-3947000D03*
X74188566Y-2447000D03*
X74188566Y-3947000D03*
X74938566Y-2447000D03*
X74938566Y-3947000D03*
%TD*%
%TO.C,REF\u002A\u002A35*%
X65195392Y-2447000D03*
X65195392Y-3947000D03*
X65945392Y-2447000D03*
X65945392Y-3947000D03*
X66695392Y-2447000D03*
X66695392Y-3947000D03*
%TD*%
%TO.C,REF\u002A\u002A33*%
X56952218Y-2447000D03*
X56952218Y-3947000D03*
X57702218Y-2447000D03*
X57702218Y-3947000D03*
X58452218Y-2447000D03*
X58452218Y-3947000D03*
%TD*%
%TO.C,REF\u002A\u002A32*%
X48709044Y-2447000D03*
X48709044Y-3947000D03*
X49459044Y-2447000D03*
X49459044Y-3947000D03*
X50209044Y-2447000D03*
X50209044Y-3947000D03*
%TD*%
%TO.C,REF\u002A\u002A29*%
X40465870Y-2447000D03*
X40465870Y-3947000D03*
X41215870Y-2447000D03*
X41215870Y-3947000D03*
X41965870Y-2447000D03*
X41965870Y-3947000D03*
%TD*%
%TO.C,REF\u002A\u002A27*%
X32222696Y-2447000D03*
X32222696Y-3947000D03*
X32972696Y-2447000D03*
X32972696Y-3947000D03*
X33722696Y-2447000D03*
X33722696Y-3947000D03*
%TD*%
%TO.C,REF\u002A\u002A26*%
X23979522Y-2447000D03*
X23979522Y-3947000D03*
X24729522Y-2447000D03*
X24729522Y-3947000D03*
X25479522Y-2447000D03*
X25479522Y-3947000D03*
%TD*%
%TO.C,REF\u002A\u002A24*%
X15736348Y-2447000D03*
X15736348Y-3947000D03*
X16486348Y-2447000D03*
X16486348Y-3947000D03*
X17236348Y-2447000D03*
X17236348Y-3947000D03*
%TD*%
%TO.C,REF\u002A\u002A21*%
X7493174Y-2447000D03*
X7493174Y-3947000D03*
X8243174Y-2447000D03*
X8243174Y-3947000D03*
X8993174Y-2447000D03*
X8993174Y-3947000D03*
%TD*%
%TO.C,REF\u002A\u002A19*%
X-750000Y-2447000D03*
X-750000Y-3947000D03*
X0Y-2447000D03*
X0Y-3947000D03*
X750000Y-2447000D03*
X750000Y-3947000D03*
%TD*%
%TO.C,REF\u002A\u002A18*%
X73438566Y3947000D03*
X73438566Y2447000D03*
X74188566Y3947000D03*
X74188566Y2447000D03*
X74938566Y3947000D03*
X74938566Y2447000D03*
%TD*%
%TO.C,REF\u002A\u002A16*%
X65195392Y3947000D03*
X65195392Y2447000D03*
X65945392Y3947000D03*
X65945392Y2447000D03*
X66695392Y3947000D03*
X66695392Y2447000D03*
%TD*%
%TO.C,REF\u002A\u002A14*%
X56952218Y3947000D03*
X56952218Y2447000D03*
X57702218Y3947000D03*
X57702218Y2447000D03*
X58452218Y3947000D03*
X58452218Y2447000D03*
%TD*%
%TO.C,REF\u002A\u002A11*%
X48709044Y3947000D03*
X48709044Y2447000D03*
X49459044Y3947000D03*
X49459044Y2447000D03*
X50209044Y3947000D03*
X50209044Y2447000D03*
%TD*%
%TO.C,REF\u002A\u002A10*%
X40465870Y3947000D03*
X40465870Y2447000D03*
X41215870Y3947000D03*
X41215870Y2447000D03*
X41965870Y3947000D03*
X41965870Y2447000D03*
%TD*%
%TO.C,REF\u002A\u002A8*%
X32222696Y3947000D03*
X32222696Y2447000D03*
X32972696Y3947000D03*
X32972696Y2447000D03*
X33722696Y3947000D03*
X33722696Y2447000D03*
%TD*%
%TO.C,REF\u002A\u002A5*%
X23979522Y3947000D03*
X23979522Y2447000D03*
X24729522Y3947000D03*
X24729522Y2447000D03*
X25479522Y3947000D03*
X25479522Y2447000D03*
%TD*%
%TO.C,REF\u002A\u002A4*%
X15736348Y3947000D03*
X15736348Y2447000D03*
X16486348Y3947000D03*
X16486348Y2447000D03*
X17236348Y3947000D03*
X17236348Y2447000D03*
%TD*%
%TO.C,REF\u002A\u002A1*%
X7493174Y3947000D03*
X7493174Y2447000D03*
X8243174Y3947000D03*
X8243174Y2447000D03*
X8993174Y3947000D03*
X8993174Y2447000D03*
%TD*%
%TO.C,REF\u002A\u002A*%
X750000Y2447000D03*
X750000Y3947000D03*
X0Y2447000D03*
X0Y3947000D03*
X-750000Y2447000D03*
X-750000Y3947000D03*
%TD*%
M02*
