%TF.GenerationSoftware,KiCad,Pcbnew,7.0.1*%
%TF.CreationDate,2024-10-11T19:24:37-04:00*%
%TF.ProjectId,PEST,50455354-2e6b-4696-9361-645f70636258,rev?*%
%TF.SameCoordinates,Original*%
%TF.FileFunction,Copper,L3,Inr*%
%TF.FilePolarity,Positive*%
%FSLAX46Y46*%
G04 Gerber Fmt 4.6, Leading zero omitted, Abs format (unit mm)*
G04 Created by KiCad (PCBNEW 7.0.1) date 2024-10-11 19:24:37*
%MOMM*%
%LPD*%
G01*
G04 APERTURE LIST*
%TA.AperFunction,ViaPad*%
%ADD10C,0.400000*%
%TD*%
%TA.AperFunction,Conductor*%
%ADD11C,0.127000*%
%TD*%
G04 APERTURE END LIST*
D10*
%TO.N,Net-(J1-Pin_1)*%
X-264000Y0D03*
X2690000Y0D03*
X1220000Y2120000D03*
X264000Y0D03*
%TD*%
D11*
%TO.N,Net-(J1-Pin_1)*%
X552408Y1407291D02*
X-664299Y1407291D01*
X-760556Y-286089D02*
X-497376Y-610007D01*
X-331772Y-1017580D02*
X445901Y-1017580D01*
X1903414Y269351D02*
X1026251Y1499348D01*
X586291Y292529D02*
X420392Y487266D01*
X-315386Y-242690D02*
X-264000Y0D01*
X-774858Y-1797003D02*
X885394Y-1797003D01*
X469734Y-360383D02*
X583691Y-229287D01*
X259007Y887676D02*
X-374247Y887676D01*
X1164407Y2020815D02*
X1220000Y2120000D01*
X405010Y1147484D02*
X-518246Y1147484D01*
X-543177Y482226D02*
X-758819Y220504D01*
X700581Y1667099D02*
X-811505Y1667099D01*
X-186928Y-757772D02*
X303593Y-757772D01*
X115904Y627868D02*
X-234467Y627868D01*
X-988534Y1241539D02*
X-1742858Y197439D01*
X-46604Y-497965D02*
X167846Y-497965D01*
X-690990Y731958D02*
X-1094195Y209152D01*
X-1743247Y-270516D02*
X-951045Y-1370902D01*
X2222617Y267497D02*
X1177907Y1754889D01*
X1212477Y-1627256D02*
X2222373Y-192663D01*
X929419Y281561D02*
X573613Y734704D01*
X-1137783Y1498492D02*
X-2062894Y194033D01*
X-626421Y-1537195D02*
X737792Y-1537195D01*
X914000Y-1113455D02*
X1582086Y-199593D01*
X-1421164Y-273568D02*
X-800460Y-1114865D01*
X-1095122Y-278206D02*
X-649442Y-860655D01*
X-478584Y-1277387D02*
X591088Y-1277387D01*
X1582555Y271899D02*
X875789Y1242716D01*
X-2063175Y-268356D02*
X-1101418Y-1627998D01*
X1063132Y-1369905D02*
X1903085Y-195608D01*
X1258819Y275620D02*
X725029Y987458D01*
X765201Y-858511D02*
X1258099Y-205286D01*
X-839548Y985738D02*
X-1420589Y202164D01*
X616960Y-606370D02*
X928180Y-214065D01*
X-234467Y627867D02*
G75*
G03*
X-543176Y482225I4J-400007D01*
G01*
X1164408Y2020814D02*
G75*
G03*
X1177908Y1754889I218082J-122234D01*
G01*
X-315386Y-242690D02*
G75*
G03*
X-192844Y-470273I195674J-41422D01*
G01*
X-2062894Y194033D02*
G75*
G03*
X-2063175Y-268356I326272J-231393D01*
G01*
X928180Y-214065D02*
G75*
G03*
X929419Y281561I-313365J248598D01*
G01*
X420395Y487268D02*
G75*
G03*
X115904Y627868I-304485J-259398D01*
G01*
X-800460Y-1114865D02*
G75*
G03*
X-478584Y-1277387I321867J237460D01*
G01*
X-1742858Y197439D02*
G75*
G03*
X-1743247Y-270516I324245J-234247D01*
G01*
X885394Y-1796996D02*
G75*
G03*
X1212477Y-1627256I6J399996D01*
G01*
X1026249Y1499347D02*
G75*
G03*
X700581Y1667099I-325669J-232247D01*
G01*
X573614Y734705D02*
G75*
G03*
X259007Y887676I-314604J-247025D01*
G01*
X-1101418Y-1627998D02*
G75*
G03*
X-774858Y-1797003I326555J230987D01*
G01*
X591088Y-1277382D02*
G75*
G03*
X913999Y-1113455I2J400002D01*
G01*
X2222373Y-192663D02*
G75*
G03*
X2222617Y267497I-327083J230253D01*
G01*
X737792Y-1537194D02*
G75*
G03*
X1063132Y-1369905I-2J400004D01*
G01*
X-649442Y-860655D02*
G75*
G03*
X-331772Y-1017580I317673J243080D01*
G01*
X-1094195Y209152D02*
G75*
G03*
X-1095122Y-278206I316744J-244282D01*
G01*
X167846Y-497965D02*
G75*
G03*
X469734Y-360383I-1J400000D01*
G01*
X1903086Y-195609D02*
G75*
G03*
X1903413Y269350I-325336J232709D01*
G01*
X875790Y1242717D02*
G75*
G03*
X552408Y1407291I-323380J-235427D01*
G01*
X-192844Y-470273D02*
G75*
G03*
X-46604Y-497965I146252J372358D01*
G01*
X1582086Y-199593D02*
G75*
G03*
X1582555Y271899I-322911J236067D01*
G01*
X445901Y-1017581D02*
G75*
G03*
X765201Y-858511I-1J400001D01*
G01*
X725031Y987459D02*
G75*
G03*
X405010Y1147484I-320021J-239979D01*
G01*
X303593Y-757773D02*
G75*
G03*
X616960Y-606370I-3J400003D01*
G01*
X-497376Y-610007D02*
G75*
G03*
X-186928Y-757772I310444J252229D01*
G01*
X-664299Y1407291D02*
G75*
G03*
X-988534Y1241539I-11J-399979D01*
G01*
X583690Y-229286D02*
G75*
G03*
X586290Y292529I-301887J262418D01*
G01*
X-518246Y1147484D02*
G75*
G03*
X-839548Y985738I-2J-399995D01*
G01*
X-951045Y-1370902D02*
G75*
G03*
X-626421Y-1537195I324627J233711D01*
G01*
X-1420589Y202164D02*
G75*
G03*
X-1421164Y-273568I321297J-238255D01*
G01*
X1258098Y-205286D02*
G75*
G03*
X1258819Y275620I-319300J240932D01*
G01*
X-758819Y220504D02*
G75*
G03*
X-760556Y-286089I308712J-254358D01*
G01*
X-374247Y887676D02*
G75*
G03*
X-690990Y731958I0J-399999D01*
G01*
X-811505Y1667099D02*
G75*
G03*
X-1137783Y1498492I-7J-399986D01*
G01*
%TD*%
M02*
