M48
; DRILL file {KiCad 7.0.1} date Fri Oct 11 23:10:49 2024
; FORMAT={-:-/ absolute / inch / decimal}
; #@! TF.CreationDate,2024-10-11T23:10:49-04:00
; #@! TF.GenerationSoftware,Kicad,Pcbnew,7.0.1
; #@! TF.FileFunction,Plated,1,4,PTH
FMAT,2
INCH
; #@! TA.AperFunction,Plated,PTH,ViaDrill
T1C0.0118
%
G90
G05
T1
X-0.0104Y0.0
X-0.0104Y-0.2517
X-0.0104Y-0.5035
X-0.0104Y-0.7552
X-0.0104Y-1.0069
X-0.0104Y-1.2587
X-0.0104Y-1.5104
X-0.0104Y-1.7621
X-0.0104Y-2.0139
X-0.0104Y-2.2656
X0.0104Y0.0
X0.0104Y-0.2517
X0.0104Y-0.5035
X0.0104Y-0.7552
X0.0104Y-1.0069
X0.0104Y-1.2587
X0.0104Y-1.5104
X0.0104Y-1.7621
X0.0104Y-2.0139
X0.0104Y-2.2656
X0.048Y0.0835
X0.048Y-0.1683
X0.048Y-0.42
X0.048Y-0.6717
X0.048Y-0.9235
X0.048Y-1.1752
X0.048Y-1.4269
X0.048Y-1.6787
X0.048Y-1.9304
X0.048Y-2.1821
X0.1059Y0.0
X0.1059Y-0.2517
X0.1059Y-0.5035
X0.1059Y-0.7552
X0.1059Y-1.0069
X0.1059Y-1.2587
X0.1059Y-1.5104
X0.1059Y-1.7621
X0.1059Y-2.0139
X0.1059Y-2.2656
X0.3141Y0.0
X0.3141Y-0.2517
X0.3141Y-0.5035
X0.3141Y-0.7552
X0.3141Y-1.0069
X0.3141Y-1.2587
X0.3141Y-1.5104
X0.3141Y-1.7621
X0.3141Y-2.0139
X0.3141Y-2.2656
X0.3349Y0.0
X0.3349Y-0.2517
X0.3349Y-0.5035
X0.3349Y-0.7552
X0.3349Y-1.0069
X0.3349Y-1.2587
X0.3349Y-1.5104
X0.3349Y-1.7621
X0.3349Y-2.0139
X0.3349Y-2.2656
X0.3726Y0.0835
X0.3726Y-0.1683
X0.3726Y-0.42
X0.3726Y-0.6717
X0.3726Y-0.9235
X0.3726Y-1.1752
X0.3726Y-1.4269
X0.3726Y-1.6787
X0.3726Y-1.9304
X0.3726Y-2.1821
X0.4304Y0.0
X0.4304Y-0.2517
X0.4304Y-0.5035
X0.4304Y-0.7552
X0.4304Y-1.0069
X0.4304Y-1.2587
X0.4304Y-1.5104
X0.4304Y-1.7621
X0.4304Y-2.0139
X0.4304Y-2.2656
X0.6387Y0.0
X0.6387Y-0.2517
X0.6387Y-0.5035
X0.6387Y-0.7552
X0.6387Y-1.0069
X0.6387Y-1.2587
X0.6387Y-1.5104
X0.6387Y-1.7621
X0.6387Y-2.0139
X0.6387Y-2.2656
X0.6595Y0.0
X0.6595Y-0.2517
X0.6595Y-0.5035
X0.6595Y-0.7552
X0.6595Y-1.0069
X0.6595Y-1.2587
X0.6595Y-1.5104
X0.6595Y-1.7621
X0.6595Y-2.0139
X0.6595Y-2.2656
X0.6971Y0.0835
X0.6971Y-0.1683
X0.6971Y-0.42
X0.6971Y-0.6717
X0.6971Y-0.9235
X0.6971Y-1.1752
X0.6971Y-1.4269
X0.6971Y-1.6787
X0.6971Y-1.9304
X0.6971Y-2.1821
X0.755Y0.0
X0.755Y-0.2517
X0.755Y-0.5035
X0.755Y-0.7552
X0.755Y-1.0069
X0.755Y-1.2587
X0.755Y-1.5104
X0.755Y-1.7621
X0.755Y-2.0139
X0.755Y-2.2656
X0.9632Y0.0
X0.9632Y-0.2517
X0.9632Y-0.5035
X0.9632Y-0.7552
X0.9632Y-1.0069
X0.9632Y-1.2587
X0.9632Y-1.5104
X0.9632Y-1.7621
X0.9632Y-2.0139
X0.9632Y-2.2656
X0.984Y0.0
X0.984Y-0.2517
X0.984Y-0.5035
X0.984Y-0.7552
X0.984Y-1.0069
X0.984Y-1.2587
X0.984Y-1.5104
X0.984Y-1.7621
X0.984Y-2.0139
X0.984Y-2.2656
X1.0216Y0.0835
X1.0216Y-0.1683
X1.0216Y-0.42
X1.0216Y-0.6717
X1.0216Y-0.9235
X1.0216Y-1.1752
X1.0216Y-1.4269
X1.0216Y-1.6787
X1.0216Y-1.9304
X1.0216Y-2.1821
X1.0795Y0.0
X1.0795Y-0.2517
X1.0795Y-0.5035
X1.0795Y-0.7552
X1.0795Y-1.0069
X1.0795Y-1.2587
X1.0795Y-1.5104
X1.0795Y-1.7621
X1.0795Y-2.0139
X1.0795Y-2.2656
X1.2877Y0.0
X1.2877Y-0.2517
X1.2877Y-0.5035
X1.2877Y-0.7552
X1.2877Y-1.0069
X1.2877Y-1.2587
X1.2877Y-1.5104
X1.2877Y-1.7621
X1.2877Y-2.0139
X1.2877Y-2.2656
X1.3085Y0.0
X1.3085Y-0.2517
X1.3085Y-0.5035
X1.3085Y-0.7552
X1.3085Y-1.0069
X1.3085Y-1.2587
X1.3085Y-1.5104
X1.3085Y-1.7621
X1.3085Y-2.0139
X1.3085Y-2.2656
X1.3462Y0.0835
X1.3462Y-0.1683
X1.3462Y-0.42
X1.3462Y-0.6717
X1.3462Y-0.9235
X1.3462Y-1.1752
X1.3462Y-1.4269
X1.3462Y-1.6787
X1.3462Y-1.9304
X1.3462Y-2.1821
X1.404Y0.0
X1.404Y-0.2517
X1.404Y-0.5035
X1.404Y-0.7552
X1.404Y-1.0069
X1.404Y-1.2587
X1.404Y-1.5104
X1.404Y-1.7621
X1.404Y-2.0139
X1.404Y-2.2656
X1.6123Y0.0
X1.6123Y-0.2517
X1.6123Y-0.5035
X1.6123Y-0.7552
X1.6123Y-1.0069
X1.6123Y-1.2587
X1.6123Y-1.5104
X1.6123Y-1.7621
X1.6123Y-2.0139
X1.6123Y-2.2656
X1.6331Y0.0
X1.6331Y-0.2517
X1.6331Y-0.5035
X1.6331Y-0.7552
X1.6331Y-1.0069
X1.6331Y-1.2587
X1.6331Y-1.5104
X1.6331Y-1.7621
X1.6331Y-2.0139
X1.6331Y-2.2656
X1.6707Y0.0835
X1.6707Y-0.1683
X1.6707Y-0.42
X1.6707Y-0.6717
X1.6707Y-0.9235
X1.6707Y-1.1752
X1.6707Y-1.4269
X1.6707Y-1.6787
X1.6707Y-1.9304
X1.6707Y-2.1821
X1.7286Y0.0
X1.7286Y-0.2517
X1.7286Y-0.5035
X1.7286Y-0.7552
X1.7286Y-1.0069
X1.7286Y-1.2587
X1.7286Y-1.5104
X1.7286Y-1.7621
X1.7286Y-2.0139
X1.7286Y-2.2656
X1.9368Y0.0
X1.9368Y-0.2517
X1.9368Y-0.5035
X1.9368Y-0.7552
X1.9368Y-1.0069
X1.9368Y-1.2587
X1.9368Y-1.5104
X1.9368Y-1.7621
X1.9368Y-2.0139
X1.9368Y-2.2656
X1.9576Y0.0
X1.9576Y-0.2517
X1.9576Y-0.5035
X1.9576Y-0.7552
X1.9576Y-1.0069
X1.9576Y-1.2587
X1.9576Y-1.5104
X1.9576Y-1.7621
X1.9576Y-2.0139
X1.9576Y-2.2656
X1.9952Y0.0835
X1.9952Y-0.1683
X1.9952Y-0.42
X1.9952Y-0.6717
X1.9952Y-0.9235
X1.9952Y-1.1752
X1.9952Y-1.4269
X1.9952Y-1.6787
X1.9952Y-1.9304
X1.9952Y-2.1821
X2.0531Y0.0
X2.0531Y-0.2517
X2.0531Y-0.5035
X2.0531Y-0.7552
X2.0531Y-1.0069
X2.0531Y-1.2587
X2.0531Y-1.5104
X2.0531Y-1.7621
X2.0531Y-2.0139
X2.0531Y-2.2656
X2.2613Y0.0
X2.2613Y-0.2517
X2.2613Y-0.5035
X2.2613Y-0.7552
X2.2613Y-1.0069
X2.2613Y-1.2587
X2.2613Y-1.5104
X2.2613Y-1.7621
X2.2613Y-2.0139
X2.2613Y-2.2656
X2.2821Y0.0
X2.2821Y-0.2517
X2.2821Y-0.5035
X2.2821Y-0.7552
X2.2821Y-1.0069
X2.2821Y-1.2587
X2.2821Y-1.5104
X2.2821Y-1.7621
X2.2821Y-2.0139
X2.2821Y-2.2656
X2.3198Y0.0835
X2.3198Y-0.1683
X2.3198Y-0.42
X2.3198Y-0.6717
X2.3198Y-0.9235
X2.3198Y-1.1752
X2.3198Y-1.4269
X2.3198Y-1.6787
X2.3198Y-1.9304
X2.3198Y-2.1821
X2.3776Y0.0
X2.3776Y-0.2517
X2.3776Y-0.5035
X2.3776Y-0.7552
X2.3776Y-1.0069
X2.3776Y-1.2587
X2.3776Y-1.5104
X2.3776Y-1.7621
X2.3776Y-2.0139
X2.3776Y-2.2656
X2.5859Y0.0
X2.5859Y-0.2517
X2.5859Y-0.5035
X2.5859Y-0.7552
X2.5859Y-1.0069
X2.5859Y-1.2587
X2.5859Y-1.5104
X2.5859Y-1.7621
X2.5859Y-2.0139
X2.5859Y-2.2656
X2.6067Y0.0
X2.6067Y-0.2517
X2.6067Y-0.5035
X2.6067Y-0.7552
X2.6067Y-1.0069
X2.6067Y-1.2587
X2.6067Y-1.5104
X2.6067Y-1.7621
X2.6067Y-2.0139
X2.6067Y-2.2656
X2.6443Y0.0835
X2.6443Y-0.1683
X2.6443Y-0.42
X2.6443Y-0.6717
X2.6443Y-0.9235
X2.6443Y-1.1752
X2.6443Y-1.4269
X2.6443Y-1.6787
X2.6443Y-1.9304
X2.6443Y-2.1821
X2.7022Y0.0
X2.7022Y-0.2517
X2.7022Y-0.5035
X2.7022Y-0.7552
X2.7022Y-1.0069
X2.7022Y-1.2587
X2.7022Y-1.5104
X2.7022Y-1.7621
X2.7022Y-2.0139
X2.7022Y-2.2656
X2.9104Y0.0
X2.9104Y-0.2517
X2.9104Y-0.5035
X2.9104Y-0.7552
X2.9104Y-1.0069
X2.9104Y-1.2587
X2.9104Y-1.5104
X2.9104Y-1.7621
X2.9104Y-2.0139
X2.9104Y-2.2656
X2.9312Y0.0
X2.9312Y-0.2517
X2.9312Y-0.5035
X2.9312Y-0.7552
X2.9312Y-1.0069
X2.9312Y-1.2587
X2.9312Y-1.5104
X2.9312Y-1.7621
X2.9312Y-2.0139
X2.9312Y-2.2656
X2.9688Y0.0835
X2.9688Y-0.1683
X2.9688Y-0.42
X2.9688Y-0.6717
X2.9688Y-0.9235
X2.9688Y-1.1752
X2.9688Y-1.4269
X2.9688Y-1.6787
X2.9688Y-1.9304
X2.9688Y-2.1821
X3.0267Y0.0
X3.0267Y-0.2517
X3.0267Y-0.5035
X3.0267Y-0.7552
X3.0267Y-1.0069
X3.0267Y-1.2587
X3.0267Y-1.5104
X3.0267Y-1.7621
X3.0267Y-2.0139
X3.0267Y-2.2656
T0
M30
