M48
; DRILL file {KiCad 7.0.1} date Fri Oct 11 23:10:49 2024
; FORMAT={-:-/ absolute / inch / decimal}
; #@! TF.CreationDate,2024-10-11T23:10:49-04:00
; #@! TF.GenerationSoftware,Kicad,Pcbnew,7.0.1
; #@! TF.FileFunction,NonPlated,1,4,NPTH
FMAT,2
INCH
; #@! TA.AperFunction,NonPlated,NPTH,ComponentDrill
T1C0.0197
%
G90
G05
T1
X-0.2016Y0.2833
X-0.2016Y0.2538
X-0.2016Y0.2243
X-0.2016Y-2.4899
X-0.2016Y-2.5194
X-0.2016Y-2.5489
X-0.1426Y0.2833
X-0.1426Y0.2538
X-0.1426Y0.2243
X-0.1426Y-2.4899
X-0.1426Y-2.5194
X-0.1426Y-2.5489
X-0.0295Y0.1554
X-0.0295Y0.0963
X-0.0295Y-0.0963
X-0.0295Y-0.1554
X-0.0295Y-0.3481
X-0.0295Y-0.4071
X-0.0295Y-0.5998
X-0.0295Y-0.6589
X-0.0295Y-0.8515
X-0.0295Y-0.9106
X-0.0295Y-1.1033
X-0.0295Y-1.1623
X-0.0295Y-1.355
X-0.0295Y-1.4141
X-0.0295Y-1.6067
X-0.0295Y-1.6658
X-0.0295Y-1.8585
X-0.0295Y-1.9175
X-0.0295Y-2.1102
X-0.0295Y-2.1693
X-0.0295Y-2.3619
X-0.0295Y-2.421
X0.0Y0.1554
X0.0Y0.0963
X0.0Y-0.0963
X0.0Y-0.1554
X0.0Y-0.3481
X0.0Y-0.4071
X0.0Y-0.5998
X0.0Y-0.6589
X0.0Y-0.8515
X0.0Y-0.9106
X0.0Y-1.1033
X0.0Y-1.1623
X0.0Y-1.355
X0.0Y-1.4141
X0.0Y-1.6067
X0.0Y-1.6658
X0.0Y-1.8585
X0.0Y-1.9175
X0.0Y-2.1102
X0.0Y-2.1693
X0.0Y-2.3619
X0.0Y-2.421
X0.0295Y0.1554
X0.0295Y0.0963
X0.0295Y-0.0963
X0.0295Y-0.1554
X0.0295Y-0.3481
X0.0295Y-0.4071
X0.0295Y-0.5998
X0.0295Y-0.6589
X0.0295Y-0.8515
X0.0295Y-0.9106
X0.0295Y-1.1033
X0.0295Y-1.1623
X0.0295Y-1.355
X0.0295Y-1.4141
X0.0295Y-1.6067
X0.0295Y-1.6658
X0.0295Y-1.8585
X0.0295Y-1.9175
X0.0295Y-2.1102
X0.0295Y-2.1693
X0.0295Y-2.3619
X0.0295Y-2.421
X0.295Y0.1554
X0.295Y0.0963
X0.295Y-0.0963
X0.295Y-0.1554
X0.295Y-0.3481
X0.295Y-0.4071
X0.295Y-0.5998
X0.295Y-0.6589
X0.295Y-0.8515
X0.295Y-0.9106
X0.295Y-1.1033
X0.295Y-1.1623
X0.295Y-1.355
X0.295Y-1.4141
X0.295Y-1.6067
X0.295Y-1.6658
X0.295Y-1.8585
X0.295Y-1.9175
X0.295Y-2.1102
X0.295Y-2.1693
X0.295Y-2.3619
X0.295Y-2.421
X0.3245Y0.1554
X0.3245Y0.0963
X0.3245Y-0.0963
X0.3245Y-0.1554
X0.3245Y-0.3481
X0.3245Y-0.4071
X0.3245Y-0.5998
X0.3245Y-0.6589
X0.3245Y-0.8515
X0.3245Y-0.9106
X0.3245Y-1.1033
X0.3245Y-1.1623
X0.3245Y-1.355
X0.3245Y-1.4141
X0.3245Y-1.6067
X0.3245Y-1.6658
X0.3245Y-1.8585
X0.3245Y-1.9175
X0.3245Y-2.1102
X0.3245Y-2.1693
X0.3245Y-2.3619
X0.3245Y-2.421
X0.3541Y0.1554
X0.3541Y0.0963
X0.3541Y-0.0963
X0.3541Y-0.1554
X0.3541Y-0.3481
X0.3541Y-0.4071
X0.3541Y-0.5998
X0.3541Y-0.6589
X0.3541Y-0.8515
X0.3541Y-0.9106
X0.3541Y-1.1033
X0.3541Y-1.1623
X0.3541Y-1.355
X0.3541Y-1.4141
X0.3541Y-1.6067
X0.3541Y-1.6658
X0.3541Y-1.8585
X0.3541Y-1.9175
X0.3541Y-2.1102
X0.3541Y-2.1693
X0.3541Y-2.3619
X0.3541Y-2.421
X0.6195Y0.1554
X0.6195Y0.0963
X0.6195Y-0.0963
X0.6195Y-0.1554
X0.6195Y-0.3481
X0.6195Y-0.4071
X0.6195Y-0.5998
X0.6195Y-0.6589
X0.6195Y-0.8515
X0.6195Y-0.9106
X0.6195Y-1.1033
X0.6195Y-1.1623
X0.6195Y-1.355
X0.6195Y-1.4141
X0.6195Y-1.6067
X0.6195Y-1.6658
X0.6195Y-1.8585
X0.6195Y-1.9175
X0.6195Y-2.1102
X0.6195Y-2.1693
X0.6195Y-2.3619
X0.6195Y-2.421
X0.6491Y0.1554
X0.6491Y0.0963
X0.6491Y-0.0963
X0.6491Y-0.1554
X0.6491Y-0.3481
X0.6491Y-0.4071
X0.6491Y-0.5998
X0.6491Y-0.6589
X0.6491Y-0.8515
X0.6491Y-0.9106
X0.6491Y-1.1033
X0.6491Y-1.1623
X0.6491Y-1.355
X0.6491Y-1.4141
X0.6491Y-1.6067
X0.6491Y-1.6658
X0.6491Y-1.8585
X0.6491Y-1.9175
X0.6491Y-2.1102
X0.6491Y-2.1693
X0.6491Y-2.3619
X0.6491Y-2.421
X0.6786Y0.1554
X0.6786Y0.0963
X0.6786Y-0.0963
X0.6786Y-0.1554
X0.6786Y-0.3481
X0.6786Y-0.4071
X0.6786Y-0.5998
X0.6786Y-0.6589
X0.6786Y-0.8515
X0.6786Y-0.9106
X0.6786Y-1.1033
X0.6786Y-1.1623
X0.6786Y-1.355
X0.6786Y-1.4141
X0.6786Y-1.6067
X0.6786Y-1.6658
X0.6786Y-1.8585
X0.6786Y-1.9175
X0.6786Y-2.1102
X0.6786Y-2.1693
X0.6786Y-2.3619
X0.6786Y-2.421
X0.9441Y0.1554
X0.9441Y0.0963
X0.9441Y-0.0963
X0.9441Y-0.1554
X0.9441Y-0.3481
X0.9441Y-0.4071
X0.9441Y-0.5998
X0.9441Y-0.6589
X0.9441Y-0.8515
X0.9441Y-0.9106
X0.9441Y-1.1033
X0.9441Y-1.1623
X0.9441Y-1.355
X0.9441Y-1.4141
X0.9441Y-1.6067
X0.9441Y-1.6658
X0.9441Y-1.8585
X0.9441Y-1.9175
X0.9441Y-2.1102
X0.9441Y-2.1693
X0.9441Y-2.3619
X0.9441Y-2.421
X0.9736Y0.1554
X0.9736Y0.0963
X0.9736Y-0.0963
X0.9736Y-0.1554
X0.9736Y-0.3481
X0.9736Y-0.4071
X0.9736Y-0.5998
X0.9736Y-0.6589
X0.9736Y-0.8515
X0.9736Y-0.9106
X0.9736Y-1.1033
X0.9736Y-1.1623
X0.9736Y-1.355
X0.9736Y-1.4141
X0.9736Y-1.6067
X0.9736Y-1.6658
X0.9736Y-1.8585
X0.9736Y-1.9175
X0.9736Y-2.1102
X0.9736Y-2.1693
X0.9736Y-2.3619
X0.9736Y-2.421
X1.0031Y0.1554
X1.0031Y0.0963
X1.0031Y-0.0963
X1.0031Y-0.1554
X1.0031Y-0.3481
X1.0031Y-0.4071
X1.0031Y-0.5998
X1.0031Y-0.6589
X1.0031Y-0.8515
X1.0031Y-0.9106
X1.0031Y-1.1033
X1.0031Y-1.1623
X1.0031Y-1.355
X1.0031Y-1.4141
X1.0031Y-1.6067
X1.0031Y-1.6658
X1.0031Y-1.8585
X1.0031Y-1.9175
X1.0031Y-2.1102
X1.0031Y-2.1693
X1.0031Y-2.3619
X1.0031Y-2.421
X1.2686Y0.1554
X1.2686Y0.0963
X1.2686Y-0.0963
X1.2686Y-0.1554
X1.2686Y-0.3481
X1.2686Y-0.4071
X1.2686Y-0.5998
X1.2686Y-0.6589
X1.2686Y-0.8515
X1.2686Y-0.9106
X1.2686Y-1.1033
X1.2686Y-1.1623
X1.2686Y-1.355
X1.2686Y-1.4141
X1.2686Y-1.6067
X1.2686Y-1.6658
X1.2686Y-1.8585
X1.2686Y-1.9175
X1.2686Y-2.1102
X1.2686Y-2.1693
X1.2686Y-2.3619
X1.2686Y-2.421
X1.2981Y0.1554
X1.2981Y0.0963
X1.2981Y-0.0963
X1.2981Y-0.1554
X1.2981Y-0.3481
X1.2981Y-0.4071
X1.2981Y-0.5998
X1.2981Y-0.6589
X1.2981Y-0.8515
X1.2981Y-0.9106
X1.2981Y-1.1033
X1.2981Y-1.1623
X1.2981Y-1.355
X1.2981Y-1.4141
X1.2981Y-1.6067
X1.2981Y-1.6658
X1.2981Y-1.8585
X1.2981Y-1.9175
X1.2981Y-2.1102
X1.2981Y-2.1693
X1.2981Y-2.3619
X1.2981Y-2.421
X1.3277Y0.1554
X1.3277Y0.0963
X1.3277Y-0.0963
X1.3277Y-0.1554
X1.3277Y-0.3481
X1.3277Y-0.4071
X1.3277Y-0.5998
X1.3277Y-0.6589
X1.3277Y-0.8515
X1.3277Y-0.9106
X1.3277Y-1.1033
X1.3277Y-1.1623
X1.3277Y-1.355
X1.3277Y-1.4141
X1.3277Y-1.6067
X1.3277Y-1.6658
X1.3277Y-1.8585
X1.3277Y-1.9175
X1.3277Y-2.1102
X1.3277Y-2.1693
X1.3277Y-2.3619
X1.3277Y-2.421
X1.5931Y0.1554
X1.5931Y0.0963
X1.5931Y-0.0963
X1.5931Y-0.1554
X1.5931Y-0.3481
X1.5931Y-0.4071
X1.5931Y-0.5998
X1.5931Y-0.6589
X1.5931Y-0.8515
X1.5931Y-0.9106
X1.5931Y-1.1033
X1.5931Y-1.1623
X1.5931Y-1.355
X1.5931Y-1.4141
X1.5931Y-1.6067
X1.5931Y-1.6658
X1.5931Y-1.8585
X1.5931Y-1.9175
X1.5931Y-2.1102
X1.5931Y-2.1693
X1.5931Y-2.3619
X1.5931Y-2.421
X1.6227Y0.1554
X1.6227Y0.0963
X1.6227Y-0.0963
X1.6227Y-0.1554
X1.6227Y-0.3481
X1.6227Y-0.4071
X1.6227Y-0.5998
X1.6227Y-0.6589
X1.6227Y-0.8515
X1.6227Y-0.9106
X1.6227Y-1.1033
X1.6227Y-1.1623
X1.6227Y-1.355
X1.6227Y-1.4141
X1.6227Y-1.6067
X1.6227Y-1.6658
X1.6227Y-1.8585
X1.6227Y-1.9175
X1.6227Y-2.1102
X1.6227Y-2.1693
X1.6227Y-2.3619
X1.6227Y-2.421
X1.6522Y0.1554
X1.6522Y0.0963
X1.6522Y-0.0963
X1.6522Y-0.1554
X1.6522Y-0.3481
X1.6522Y-0.4071
X1.6522Y-0.5998
X1.6522Y-0.6589
X1.6522Y-0.8515
X1.6522Y-0.9106
X1.6522Y-1.1033
X1.6522Y-1.1623
X1.6522Y-1.355
X1.6522Y-1.4141
X1.6522Y-1.6067
X1.6522Y-1.6658
X1.6522Y-1.8585
X1.6522Y-1.9175
X1.6522Y-2.1102
X1.6522Y-2.1693
X1.6522Y-2.3619
X1.6522Y-2.421
X1.9177Y0.1554
X1.9177Y0.0963
X1.9177Y-0.0963
X1.9177Y-0.1554
X1.9177Y-0.3481
X1.9177Y-0.4071
X1.9177Y-0.5998
X1.9177Y-0.6589
X1.9177Y-0.8515
X1.9177Y-0.9106
X1.9177Y-1.1033
X1.9177Y-1.1623
X1.9177Y-1.355
X1.9177Y-1.4141
X1.9177Y-1.6067
X1.9177Y-1.6658
X1.9177Y-1.8585
X1.9177Y-1.9175
X1.9177Y-2.1102
X1.9177Y-2.1693
X1.9177Y-2.3619
X1.9177Y-2.421
X1.9472Y0.1554
X1.9472Y0.0963
X1.9472Y-0.0963
X1.9472Y-0.1554
X1.9472Y-0.3481
X1.9472Y-0.4071
X1.9472Y-0.5998
X1.9472Y-0.6589
X1.9472Y-0.8515
X1.9472Y-0.9106
X1.9472Y-1.1033
X1.9472Y-1.1623
X1.9472Y-1.355
X1.9472Y-1.4141
X1.9472Y-1.6067
X1.9472Y-1.6658
X1.9472Y-1.8585
X1.9472Y-1.9175
X1.9472Y-2.1102
X1.9472Y-2.1693
X1.9472Y-2.3619
X1.9472Y-2.421
X1.9767Y0.1554
X1.9767Y0.0963
X1.9767Y-0.0963
X1.9767Y-0.1554
X1.9767Y-0.3481
X1.9767Y-0.4071
X1.9767Y-0.5998
X1.9767Y-0.6589
X1.9767Y-0.8515
X1.9767Y-0.9106
X1.9767Y-1.1033
X1.9767Y-1.1623
X1.9767Y-1.355
X1.9767Y-1.4141
X1.9767Y-1.6067
X1.9767Y-1.6658
X1.9767Y-1.8585
X1.9767Y-1.9175
X1.9767Y-2.1102
X1.9767Y-2.1693
X1.9767Y-2.3619
X1.9767Y-2.421
X2.2422Y0.1554
X2.2422Y0.0963
X2.2422Y-0.0963
X2.2422Y-0.1554
X2.2422Y-0.3481
X2.2422Y-0.4071
X2.2422Y-0.5998
X2.2422Y-0.6589
X2.2422Y-0.8515
X2.2422Y-0.9106
X2.2422Y-1.1033
X2.2422Y-1.1623
X2.2422Y-1.355
X2.2422Y-1.4141
X2.2422Y-1.6067
X2.2422Y-1.6658
X2.2422Y-1.8585
X2.2422Y-1.9175
X2.2422Y-2.1102
X2.2422Y-2.1693
X2.2422Y-2.3619
X2.2422Y-2.421
X2.2717Y0.1554
X2.2717Y0.0963
X2.2717Y-0.0963
X2.2717Y-0.1554
X2.2717Y-0.3481
X2.2717Y-0.4071
X2.2717Y-0.5998
X2.2717Y-0.6589
X2.2717Y-0.8515
X2.2717Y-0.9106
X2.2717Y-1.1033
X2.2717Y-1.1623
X2.2717Y-1.355
X2.2717Y-1.4141
X2.2717Y-1.6067
X2.2717Y-1.6658
X2.2717Y-1.8585
X2.2717Y-1.9175
X2.2717Y-2.1102
X2.2717Y-2.1693
X2.2717Y-2.3619
X2.2717Y-2.421
X2.3013Y0.1554
X2.3013Y0.0963
X2.3013Y-0.0963
X2.3013Y-0.1554
X2.3013Y-0.3481
X2.3013Y-0.4071
X2.3013Y-0.5998
X2.3013Y-0.6589
X2.3013Y-0.8515
X2.3013Y-0.9106
X2.3013Y-1.1033
X2.3013Y-1.1623
X2.3013Y-1.355
X2.3013Y-1.4141
X2.3013Y-1.6067
X2.3013Y-1.6658
X2.3013Y-1.8585
X2.3013Y-1.9175
X2.3013Y-2.1102
X2.3013Y-2.1693
X2.3013Y-2.3619
X2.3013Y-2.421
X2.5667Y0.1554
X2.5667Y0.0963
X2.5667Y-0.0963
X2.5667Y-0.1554
X2.5667Y-0.3481
X2.5667Y-0.4071
X2.5667Y-0.5998
X2.5667Y-0.6589
X2.5667Y-0.8515
X2.5667Y-0.9106
X2.5667Y-1.1033
X2.5667Y-1.1623
X2.5667Y-1.355
X2.5667Y-1.4141
X2.5667Y-1.6067
X2.5667Y-1.6658
X2.5667Y-1.8585
X2.5667Y-1.9175
X2.5667Y-2.1102
X2.5667Y-2.1693
X2.5667Y-2.3619
X2.5667Y-2.421
X2.5963Y0.1554
X2.5963Y0.0963
X2.5963Y-0.0963
X2.5963Y-0.1554
X2.5963Y-0.3481
X2.5963Y-0.4071
X2.5963Y-0.5998
X2.5963Y-0.6589
X2.5963Y-0.8515
X2.5963Y-0.9106
X2.5963Y-1.1033
X2.5963Y-1.1623
X2.5963Y-1.355
X2.5963Y-1.4141
X2.5963Y-1.6067
X2.5963Y-1.6658
X2.5963Y-1.8585
X2.5963Y-1.9175
X2.5963Y-2.1102
X2.5963Y-2.1693
X2.5963Y-2.3619
X2.5963Y-2.421
X2.6258Y0.1554
X2.6258Y0.0963
X2.6258Y-0.0963
X2.6258Y-0.1554
X2.6258Y-0.3481
X2.6258Y-0.4071
X2.6258Y-0.5998
X2.6258Y-0.6589
X2.6258Y-0.8515
X2.6258Y-0.9106
X2.6258Y-1.1033
X2.6258Y-1.1623
X2.6258Y-1.355
X2.6258Y-1.4141
X2.6258Y-1.6067
X2.6258Y-1.6658
X2.6258Y-1.8585
X2.6258Y-1.9175
X2.6258Y-2.1102
X2.6258Y-2.1693
X2.6258Y-2.3619
X2.6258Y-2.421
X2.8913Y0.1554
X2.8913Y0.0963
X2.8913Y-0.0963
X2.8913Y-0.1554
X2.8913Y-0.3481
X2.8913Y-0.4071
X2.8913Y-0.5998
X2.8913Y-0.6589
X2.8913Y-0.8515
X2.8913Y-0.9106
X2.8913Y-1.1033
X2.8913Y-1.1623
X2.8913Y-1.355
X2.8913Y-1.4141
X2.8913Y-1.6067
X2.8913Y-1.6658
X2.8913Y-1.8585
X2.8913Y-1.9175
X2.8913Y-2.1102
X2.8913Y-2.1693
X2.8913Y-2.3619
X2.8913Y-2.421
X2.9208Y0.1554
X2.9208Y0.0963
X2.9208Y-0.0963
X2.9208Y-0.1554
X2.9208Y-0.3481
X2.9208Y-0.4071
X2.9208Y-0.5998
X2.9208Y-0.6589
X2.9208Y-0.8515
X2.9208Y-0.9106
X2.9208Y-1.1033
X2.9208Y-1.1623
X2.9208Y-1.355
X2.9208Y-1.4141
X2.9208Y-1.6067
X2.9208Y-1.6658
X2.9208Y-1.8585
X2.9208Y-1.9175
X2.9208Y-2.1102
X2.9208Y-2.1693
X2.9208Y-2.3619
X2.9208Y-2.421
X2.9503Y0.1554
X2.9503Y0.0963
X2.9503Y-0.0963
X2.9503Y-0.1554
X2.9503Y-0.3481
X2.9503Y-0.4071
X2.9503Y-0.5998
X2.9503Y-0.6589
X2.9503Y-0.8515
X2.9503Y-0.9106
X2.9503Y-1.1033
X2.9503Y-1.1623
X2.9503Y-1.355
X2.9503Y-1.4141
X2.9503Y-1.6067
X2.9503Y-1.6658
X2.9503Y-1.8585
X2.9503Y-1.9175
X2.9503Y-2.1102
X2.9503Y-2.1693
X2.9503Y-2.3619
X2.9503Y-2.421
X3.0634Y0.2833
X3.0634Y0.2538
X3.0634Y0.2243
X3.0634Y-2.4899
X3.0634Y-2.5194
X3.0634Y-2.5489
X3.1224Y0.2833
X3.1224Y0.2538
X3.1224Y0.2243
X3.1224Y-2.4899
X3.1224Y-2.5194
X3.1224Y-2.5489
T0
M30
