%TF.GenerationSoftware,KiCad,Pcbnew,7.0.1*%
%TF.CreationDate,2024-10-11T19:24:37-04:00*%
%TF.ProjectId,PEST,50455354-2e6b-4696-9361-645f70636258,rev?*%
%TF.SameCoordinates,Original*%
%TF.FileFunction,Copper,L4,Bot*%
%TF.FilePolarity,Positive*%
%FSLAX46Y46*%
G04 Gerber Fmt 4.6, Leading zero omitted, Abs format (unit mm)*
G04 Created by KiCad (PCBNEW 7.0.1) date 2024-10-11 19:24:37*
%MOMM*%
%LPD*%
G01*
G04 APERTURE LIST*
G04 Aperture macros list*
%AMRoundRect*
0 Rectangle with rounded corners*
0 $1 Rounding radius*
0 $2 $3 $4 $5 $6 $7 $8 $9 X,Y pos of 4 corners*
0 Add a 4 corners polygon primitive as box body*
4,1,4,$2,$3,$4,$5,$6,$7,$8,$9,$2,$3,0*
0 Add four circle primitives for the rounded corners*
1,1,$1+$1,$2,$3*
1,1,$1+$1,$4,$5*
1,1,$1+$1,$6,$7*
1,1,$1+$1,$8,$9*
0 Add four rect primitives between the rounded corners*
20,1,$1+$1,$2,$3,$4,$5,0*
20,1,$1+$1,$4,$5,$6,$7,0*
20,1,$1+$1,$6,$7,$8,$9,0*
20,1,$1+$1,$8,$9,$2,$3,0*%
G04 Aperture macros list end*
%TA.AperFunction,SMDPad,CuDef*%
%ADD10RoundRect,0.100000X-0.598134X0.679879X0.434304X-0.794594X0.598134X-0.679879X-0.434304X0.794594X0*%
%TD*%
%TA.AperFunction,ViaPad*%
%ADD11C,0.400000*%
%TD*%
%TA.AperFunction,Conductor*%
%ADD12C,0.127000*%
%TD*%
G04 APERTURE END LIST*
D10*
%TO.P,REF\u002A\u002A,1*%
%TO.N,Net-(J1-Pin_1)*%
X2088889Y1096423D03*
%TO.P,REF\u002A\u002A,2*%
X-2088889Y-1096423D03*
%TD*%
D11*
%TO.N,Net-(J1-Pin_1)*%
X-264000Y0D03*
X2690000Y0D03*
X1220000Y2120000D03*
X264000Y0D03*
%TD*%
D12*
%TO.N,Net-(J1-Pin_1)*%
X1903414Y-269351D02*
X1026251Y-1499348D01*
X-2063175Y268356D02*
X-1101418Y1627998D01*
X1212477Y1627256D02*
X2222373Y192663D01*
X2690000Y284244D02*
X2164493Y1034746D01*
X115904Y-627868D02*
X-234467Y-627868D01*
X1063132Y1369905D02*
X1903085Y195608D01*
X-774858Y1797003D02*
X885394Y1797003D01*
X-839548Y-985738D02*
X-1420589Y-202164D01*
X2690000Y0D02*
X2690000Y284244D01*
X-478584Y1277388D02*
X591088Y1277388D01*
X1582555Y-271899D02*
X875789Y-1242716D01*
X-1743247Y270516D02*
X-951045Y1370902D01*
X914000Y1113455D02*
X1582086Y199593D01*
X-1137783Y-1498492D02*
X-2062894Y-194033D01*
X-1095122Y278206D02*
X-649442Y860655D01*
X-1273094Y-1926145D02*
X-2097080Y-1102159D01*
X2164493Y1034746D02*
X2097080Y1102159D01*
X-988534Y-1241539D02*
X-1742858Y-197439D01*
X929419Y-281561D02*
X573613Y-734704D01*
X-626421Y1537195D02*
X737792Y1537195D01*
X259007Y-887676D02*
X-374247Y-887676D01*
X-264000Y0D02*
X-315386Y242690D01*
X-760556Y286089D02*
X-497376Y610007D01*
X2222617Y-267497D02*
X1176556Y-1756813D01*
X-186928Y757772D02*
X303593Y757772D01*
X469734Y360383D02*
X583691Y229287D01*
X-1273094Y-1926906D02*
X-1273094Y-1926145D01*
X552408Y-1407291D02*
X-664299Y-1407291D01*
X-46604Y497965D02*
X167846Y497965D01*
X-331772Y1017580D02*
X445901Y1017580D01*
X1258819Y-275620D02*
X725029Y-987458D01*
X405010Y-1147484D02*
X-518246Y-1147484D01*
X765201Y858511D02*
X1258099Y205286D01*
X586291Y-292529D02*
X420392Y-487266D01*
X-690990Y-731958D02*
X-1094195Y-209152D01*
X616960Y606370D02*
X928180Y214065D01*
X700581Y-1667099D02*
X-811505Y-1667099D01*
X-543177Y-482226D02*
X-758819Y-220504D01*
X-1421164Y273568D02*
X-800460Y1114865D01*
X849229Y-1926906D02*
X-1273094Y-1926906D01*
X405010Y-1147482D02*
G75*
G03*
X725029Y-987458I-70J400142D01*
G01*
X115904Y-627868D02*
G75*
G03*
X420392Y-487266I-64J400138D01*
G01*
X-774858Y1797002D02*
G75*
G03*
X-1101418Y1627998I83J-400161D01*
G01*
X849229Y-1926904D02*
G75*
G03*
X1176555Y-1756813I61J399884D01*
G01*
X1212474Y1627254D02*
G75*
G03*
X885394Y1797003I-327004J-230094D01*
G01*
X-2063175Y268356D02*
G75*
G03*
X-2062894Y-194033I326613J-230996D01*
G01*
X-1137783Y-1498492D02*
G75*
G03*
X-811505Y-1667099I326311J231457D01*
G01*
X586289Y-292527D02*
G75*
G03*
X583690Y229286I-304429J259397D01*
G01*
X-478584Y1277387D02*
G75*
G03*
X-800459Y1114864I26J-400049D01*
G01*
X-839548Y-985738D02*
G75*
G03*
X-518246Y-1147484I321228J238107D01*
G01*
X929419Y-281561D02*
G75*
G03*
X928180Y214065I-314562J247028D01*
G01*
X469736Y360385D02*
G75*
G03*
X167846Y497965I-301926J-262505D01*
G01*
X2222616Y-267496D02*
G75*
G03*
X2222372Y192663I-327436J229906D01*
G01*
X-760556Y286089D02*
G75*
G03*
X-758819Y-220504I310476J-252235D01*
G01*
X-690990Y-731958D02*
G75*
G03*
X-374247Y-887676I316676J244144D01*
G01*
X700581Y-1667096D02*
G75*
G03*
X1026250Y-1499348I-1J400006D01*
G01*
X552408Y-1407292D02*
G75*
G03*
X875789Y-1242716I-88J400172D01*
G01*
X616957Y606368D02*
G75*
G03*
X303593Y757772I-313297J-248448D01*
G01*
X-331772Y1017580D02*
G75*
G03*
X-649442Y860655I36J-400071D01*
G01*
X1063131Y1369904D02*
G75*
G03*
X737792Y1537195I-325261J-232554D01*
G01*
X1258819Y-275620D02*
G75*
G03*
X1258098Y205286I-320001J239974D01*
G01*
X-988534Y-1241539D02*
G75*
G03*
X-664299Y-1407291I324261J234300D01*
G01*
X1582554Y-271898D02*
G75*
G03*
X1582085Y199593I-323421J235424D01*
G01*
X-186928Y757772D02*
G75*
G03*
X-497376Y610007I90J-400190D01*
G01*
X-1095121Y278206D02*
G75*
G03*
X-1094195Y-209152I317569J-243076D01*
G01*
X259007Y-887676D02*
G75*
G03*
X573613Y-734704I-67J400136D01*
G01*
X-543177Y-482226D02*
G75*
G03*
X-234467Y-627868I308686J254307D01*
G01*
X1903412Y-269350D02*
G75*
G03*
X1903085Y195608I-325552J232250D01*
G01*
X-192844Y470272D02*
G75*
G03*
X-315385Y242690I73045J-186113D01*
G01*
X-626421Y1537194D02*
G75*
G03*
X-951045Y1370902I2J-400003D01*
G01*
X913997Y1113453D02*
G75*
G03*
X591088Y1277388I-322827J-235893D01*
G01*
X-1421164Y273568D02*
G75*
G03*
X-1420589Y-202164I321995J-237477D01*
G01*
X765203Y858513D02*
G75*
G03*
X445901Y1017580I-319243J-240823D01*
G01*
X-46604Y497965D02*
G75*
G03*
X-192844Y470273I-95J-399487D01*
G01*
X-1743247Y270516D02*
G75*
G03*
X-1742858Y-197439I324523J-233708D01*
G01*
%TD*%
M02*
