%TF.GenerationSoftware,KiCad,Pcbnew,7.0.1*%
%TF.CreationDate,2024-10-11T23:10:47-04:00*%
%TF.ProjectId,PEST-panel,50455354-2d70-4616-9e65-6c2e6b696361,rev?*%
%TF.SameCoordinates,Original*%
%TF.FileFunction,Profile,NP*%
%FSLAX46Y46*%
G04 Gerber Fmt 4.6, Leading zero omitted, Abs format (unit mm)*
G04 Created by KiCad (PCBNEW 7.0.1) date 2024-10-11 23:10:47*
%MOMM*%
%LPD*%
G01*
G04 APERTURE LIST*
%TA.AperFunction,Profile*%
%ADD10C,0.100000*%
%TD*%
G04 APERTURE END LIST*
D10*
X84310153Y8947000D02*
X84310153Y-66493000D01*
X84310153Y-66493000D02*
X79310153Y-66493000D01*
X84310153Y8947000D02*
X79310153Y8947000D01*
X-5121587Y-62584820D02*
X-5121587Y5038820D01*
X-1408180Y-61493000D02*
X-3621587Y-61493000D01*
X6834994Y-61493000D02*
X1408180Y-61493000D01*
X15078168Y-61493000D02*
X9651354Y-61493000D01*
X23321342Y-61493000D02*
X17894528Y-61493000D01*
X31564516Y-61493000D02*
X26137702Y-61493000D01*
X39807690Y-61493000D02*
X34380876Y-61493000D01*
X48050864Y-61493000D02*
X42624050Y-61493000D01*
X56294038Y-61493000D02*
X50867224Y-61493000D01*
X64537212Y-61493000D02*
X59110398Y-61493000D01*
X72780386Y-61493000D02*
X67353572Y-61493000D01*
X77810153Y-61493000D02*
X75596746Y-61493000D01*
X79310153Y5038820D02*
X79310153Y-62584820D01*
X-3621587Y-61493000D02*
X-3621587Y-62584820D01*
X-3621587Y-66493000D02*
X-3621587Y-65401180D01*
X77810153Y-65401180D02*
X77810153Y-66493000D01*
X77810153Y-62584820D02*
X77810153Y-61493000D01*
X79310153Y-66493000D02*
X79310153Y-65401180D01*
X-5121587Y-66493000D02*
X-5121587Y-65401180D01*
X79310153Y8947000D02*
X79310153Y7855180D01*
X77810153Y-66493000D02*
X-3621587Y-66493000D01*
X77810153Y8947000D02*
X77810153Y7855180D01*
X77810153Y3947000D02*
X77810153Y5038820D01*
X75596746Y3947000D02*
X77810153Y3947000D01*
X67353572Y3947000D02*
X72780386Y3947000D01*
X59110398Y3947000D02*
X64537212Y3947000D01*
X50867224Y3947000D02*
X56294038Y3947000D01*
X42624050Y3947000D02*
X48050864Y3947000D01*
X34380876Y3947000D02*
X39807690Y3947000D01*
X26137702Y3947000D02*
X31564516Y3947000D01*
X17894528Y3947000D02*
X23321342Y3947000D01*
X9651354Y3947000D02*
X15078168Y3947000D01*
X1408180Y3947000D02*
X6834994Y3947000D01*
X-3621587Y3947000D02*
X-1408180Y3947000D01*
X-5121587Y8947000D02*
X-5121587Y7855180D01*
X-3621587Y5038820D02*
X-3621587Y3947000D01*
X-3621587Y7855180D02*
X-3621587Y8947000D01*
X-10121587Y8947000D02*
X-10121587Y-66493000D01*
X-5121587Y8947000D02*
X-10121587Y8947000D01*
X-5121587Y-66493000D02*
X-10121587Y-66493000D01*
X77810153Y8947000D02*
X-3621587Y8947000D01*
X77310153Y-57546000D02*
X75596745Y-59993000D01*
X71066979Y-57546000D02*
X72780387Y-55099000D01*
X75596745Y-55099000D02*
X77310153Y-57546000D01*
X72780387Y-59993000D02*
X71066979Y-57546000D01*
X69066979Y-57546000D02*
X67353571Y-59993000D01*
X62823805Y-57546000D02*
X64537213Y-55099000D01*
X67353571Y-55099000D02*
X69066979Y-57546000D01*
X64537213Y-59993000D02*
X62823805Y-57546000D01*
X60823805Y-57546000D02*
X59110397Y-59993000D01*
X54580631Y-57546000D02*
X56294039Y-55099000D01*
X59110397Y-55099000D02*
X60823805Y-57546000D01*
X56294039Y-59993000D02*
X54580631Y-57546000D01*
X52580631Y-57546000D02*
X50867223Y-59993000D01*
X46337457Y-57546000D02*
X48050865Y-55099000D01*
X50867223Y-55099000D02*
X52580631Y-57546000D01*
X48050865Y-59993000D02*
X46337457Y-57546000D01*
X44337457Y-57546000D02*
X42624049Y-59993000D01*
X38094283Y-57546000D02*
X39807691Y-55099000D01*
X42624049Y-55099000D02*
X44337457Y-57546000D01*
X39807691Y-59993000D02*
X38094283Y-57546000D01*
X36094283Y-57546000D02*
X34380875Y-59993000D01*
X29851109Y-57546000D02*
X31564517Y-55099000D01*
X34380875Y-55099000D02*
X36094283Y-57546000D01*
X31564517Y-59993000D02*
X29851109Y-57546000D01*
X27851109Y-57546000D02*
X26137701Y-59993000D01*
X21607935Y-57546000D02*
X23321343Y-55099000D01*
X26137701Y-55099000D02*
X27851109Y-57546000D01*
X23321343Y-59993000D02*
X21607935Y-57546000D01*
X19607935Y-57546000D02*
X17894527Y-59993000D01*
X13364761Y-57546000D02*
X15078169Y-55099000D01*
X17894527Y-55099000D02*
X19607935Y-57546000D01*
X15078169Y-59993000D02*
X13364761Y-57546000D01*
X11364761Y-57546000D02*
X9651353Y-59993000D01*
X5121587Y-57546000D02*
X6834995Y-55099000D01*
X9651353Y-55099000D02*
X11364761Y-57546000D01*
X6834995Y-59993000D02*
X5121587Y-57546000D01*
X3121587Y-57546000D02*
X1408179Y-59993000D01*
X-3121587Y-57546000D02*
X-1408179Y-55099000D01*
X1408179Y-55099000D02*
X3121587Y-57546000D01*
X-1408179Y-59993000D02*
X-3121587Y-57546000D01*
X77310153Y-51152000D02*
X75596745Y-53599000D01*
X71066979Y-51152000D02*
X72780387Y-48705000D01*
X75596745Y-48705000D02*
X77310153Y-51152000D01*
X72780387Y-53599000D02*
X71066979Y-51152000D01*
X69066979Y-51152000D02*
X67353571Y-53599000D01*
X62823805Y-51152000D02*
X64537213Y-48705000D01*
X67353571Y-48705000D02*
X69066979Y-51152000D01*
X64537213Y-53599000D02*
X62823805Y-51152000D01*
X60823805Y-51152000D02*
X59110397Y-53599000D01*
X54580631Y-51152000D02*
X56294039Y-48705000D01*
X59110397Y-48705000D02*
X60823805Y-51152000D01*
X56294039Y-53599000D02*
X54580631Y-51152000D01*
X52580631Y-51152000D02*
X50867223Y-53599000D01*
X46337457Y-51152000D02*
X48050865Y-48705000D01*
X50867223Y-48705000D02*
X52580631Y-51152000D01*
X48050865Y-53599000D02*
X46337457Y-51152000D01*
X44337457Y-51152000D02*
X42624049Y-53599000D01*
X38094283Y-51152000D02*
X39807691Y-48705000D01*
X42624049Y-48705000D02*
X44337457Y-51152000D01*
X39807691Y-53599000D02*
X38094283Y-51152000D01*
X36094283Y-51152000D02*
X34380875Y-53599000D01*
X29851109Y-51152000D02*
X31564517Y-48705000D01*
X34380875Y-48705000D02*
X36094283Y-51152000D01*
X31564517Y-53599000D02*
X29851109Y-51152000D01*
X27851109Y-51152000D02*
X26137701Y-53599000D01*
X21607935Y-51152000D02*
X23321343Y-48705000D01*
X26137701Y-48705000D02*
X27851109Y-51152000D01*
X23321343Y-53599000D02*
X21607935Y-51152000D01*
X19607935Y-51152000D02*
X17894527Y-53599000D01*
X13364761Y-51152000D02*
X15078169Y-48705000D01*
X17894527Y-48705000D02*
X19607935Y-51152000D01*
X15078169Y-53599000D02*
X13364761Y-51152000D01*
X11364761Y-51152000D02*
X9651353Y-53599000D01*
X5121587Y-51152000D02*
X6834995Y-48705000D01*
X9651353Y-48705000D02*
X11364761Y-51152000D01*
X6834995Y-53599000D02*
X5121587Y-51152000D01*
X3121587Y-51152000D02*
X1408179Y-53599000D01*
X-3121587Y-51152000D02*
X-1408179Y-48705000D01*
X1408179Y-48705000D02*
X3121587Y-51152000D01*
X-1408179Y-53599000D02*
X-3121587Y-51152000D01*
X77310153Y-44758000D02*
X75596745Y-47205000D01*
X71066979Y-44758000D02*
X72780387Y-42311000D01*
X75596745Y-42311000D02*
X77310153Y-44758000D01*
X72780387Y-47205000D02*
X71066979Y-44758000D01*
X69066979Y-44758000D02*
X67353571Y-47205000D01*
X62823805Y-44758000D02*
X64537213Y-42311000D01*
X67353571Y-42311000D02*
X69066979Y-44758000D01*
X64537213Y-47205000D02*
X62823805Y-44758000D01*
X60823805Y-44758000D02*
X59110397Y-47205000D01*
X54580631Y-44758000D02*
X56294039Y-42311000D01*
X59110397Y-42311000D02*
X60823805Y-44758000D01*
X56294039Y-47205000D02*
X54580631Y-44758000D01*
X52580631Y-44758000D02*
X50867223Y-47205000D01*
X46337457Y-44758000D02*
X48050865Y-42311000D01*
X50867223Y-42311000D02*
X52580631Y-44758000D01*
X48050865Y-47205000D02*
X46337457Y-44758000D01*
X44337457Y-44758000D02*
X42624049Y-47205000D01*
X38094283Y-44758000D02*
X39807691Y-42311000D01*
X42624049Y-42311000D02*
X44337457Y-44758000D01*
X39807691Y-47205000D02*
X38094283Y-44758000D01*
X36094283Y-44758000D02*
X34380875Y-47205000D01*
X29851109Y-44758000D02*
X31564517Y-42311000D01*
X34380875Y-42311000D02*
X36094283Y-44758000D01*
X31564517Y-47205000D02*
X29851109Y-44758000D01*
X27851109Y-44758000D02*
X26137701Y-47205000D01*
X21607935Y-44758000D02*
X23321343Y-42311000D01*
X26137701Y-42311000D02*
X27851109Y-44758000D01*
X23321343Y-47205000D02*
X21607935Y-44758000D01*
X19607935Y-44758000D02*
X17894527Y-47205000D01*
X13364761Y-44758000D02*
X15078169Y-42311000D01*
X17894527Y-42311000D02*
X19607935Y-44758000D01*
X15078169Y-47205000D02*
X13364761Y-44758000D01*
X11364761Y-44758000D02*
X9651353Y-47205000D01*
X5121587Y-44758000D02*
X6834995Y-42311000D01*
X9651353Y-42311000D02*
X11364761Y-44758000D01*
X6834995Y-47205000D02*
X5121587Y-44758000D01*
X3121587Y-44758000D02*
X1408179Y-47205000D01*
X-3121587Y-44758000D02*
X-1408179Y-42311000D01*
X1408179Y-42311000D02*
X3121587Y-44758000D01*
X-1408179Y-47205000D02*
X-3121587Y-44758000D01*
X77310153Y-38364000D02*
X75596745Y-40811000D01*
X71066979Y-38364000D02*
X72780387Y-35917000D01*
X75596745Y-35917000D02*
X77310153Y-38364000D01*
X72780387Y-40811000D02*
X71066979Y-38364000D01*
X69066979Y-38364000D02*
X67353571Y-40811000D01*
X62823805Y-38364000D02*
X64537213Y-35917000D01*
X67353571Y-35917000D02*
X69066979Y-38364000D01*
X64537213Y-40811000D02*
X62823805Y-38364000D01*
X60823805Y-38364000D02*
X59110397Y-40811000D01*
X54580631Y-38364000D02*
X56294039Y-35917000D01*
X59110397Y-35917000D02*
X60823805Y-38364000D01*
X56294039Y-40811000D02*
X54580631Y-38364000D01*
X52580631Y-38364000D02*
X50867223Y-40811000D01*
X46337457Y-38364000D02*
X48050865Y-35917000D01*
X50867223Y-35917000D02*
X52580631Y-38364000D01*
X48050865Y-40811000D02*
X46337457Y-38364000D01*
X44337457Y-38364000D02*
X42624049Y-40811000D01*
X38094283Y-38364000D02*
X39807691Y-35917000D01*
X42624049Y-35917000D02*
X44337457Y-38364000D01*
X39807691Y-40811000D02*
X38094283Y-38364000D01*
X36094283Y-38364000D02*
X34380875Y-40811000D01*
X29851109Y-38364000D02*
X31564517Y-35917000D01*
X34380875Y-35917000D02*
X36094283Y-38364000D01*
X31564517Y-40811000D02*
X29851109Y-38364000D01*
X27851109Y-38364000D02*
X26137701Y-40811000D01*
X21607935Y-38364000D02*
X23321343Y-35917000D01*
X26137701Y-35917000D02*
X27851109Y-38364000D01*
X23321343Y-40811000D02*
X21607935Y-38364000D01*
X19607935Y-38364000D02*
X17894527Y-40811000D01*
X13364761Y-38364000D02*
X15078169Y-35917000D01*
X17894527Y-35917000D02*
X19607935Y-38364000D01*
X15078169Y-40811000D02*
X13364761Y-38364000D01*
X11364761Y-38364000D02*
X9651353Y-40811000D01*
X5121587Y-38364000D02*
X6834995Y-35917000D01*
X9651353Y-35917000D02*
X11364761Y-38364000D01*
X6834995Y-40811000D02*
X5121587Y-38364000D01*
X3121587Y-38364000D02*
X1408179Y-40811000D01*
X-3121587Y-38364000D02*
X-1408179Y-35917000D01*
X1408179Y-35917000D02*
X3121587Y-38364000D01*
X-1408179Y-40811000D02*
X-3121587Y-38364000D01*
X77310153Y-31970000D02*
X75596745Y-34417000D01*
X71066979Y-31970000D02*
X72780387Y-29523000D01*
X75596745Y-29523000D02*
X77310153Y-31970000D01*
X72780387Y-34417000D02*
X71066979Y-31970000D01*
X69066979Y-31970000D02*
X67353571Y-34417000D01*
X62823805Y-31970000D02*
X64537213Y-29523000D01*
X67353571Y-29523000D02*
X69066979Y-31970000D01*
X64537213Y-34417000D02*
X62823805Y-31970000D01*
X60823805Y-31970000D02*
X59110397Y-34417000D01*
X54580631Y-31970000D02*
X56294039Y-29523000D01*
X59110397Y-29523000D02*
X60823805Y-31970000D01*
X56294039Y-34417000D02*
X54580631Y-31970000D01*
X52580631Y-31970000D02*
X50867223Y-34417000D01*
X46337457Y-31970000D02*
X48050865Y-29523000D01*
X50867223Y-29523000D02*
X52580631Y-31970000D01*
X48050865Y-34417000D02*
X46337457Y-31970000D01*
X44337457Y-31970000D02*
X42624049Y-34417000D01*
X38094283Y-31970000D02*
X39807691Y-29523000D01*
X42624049Y-29523000D02*
X44337457Y-31970000D01*
X39807691Y-34417000D02*
X38094283Y-31970000D01*
X36094283Y-31970000D02*
X34380875Y-34417000D01*
X29851109Y-31970000D02*
X31564517Y-29523000D01*
X34380875Y-29523000D02*
X36094283Y-31970000D01*
X31564517Y-34417000D02*
X29851109Y-31970000D01*
X27851109Y-31970000D02*
X26137701Y-34417000D01*
X21607935Y-31970000D02*
X23321343Y-29523000D01*
X26137701Y-29523000D02*
X27851109Y-31970000D01*
X23321343Y-34417000D02*
X21607935Y-31970000D01*
X19607935Y-31970000D02*
X17894527Y-34417000D01*
X13364761Y-31970000D02*
X15078169Y-29523000D01*
X17894527Y-29523000D02*
X19607935Y-31970000D01*
X15078169Y-34417000D02*
X13364761Y-31970000D01*
X11364761Y-31970000D02*
X9651353Y-34417000D01*
X5121587Y-31970000D02*
X6834995Y-29523000D01*
X9651353Y-29523000D02*
X11364761Y-31970000D01*
X6834995Y-34417000D02*
X5121587Y-31970000D01*
X3121587Y-31970000D02*
X1408179Y-34417000D01*
X-3121587Y-31970000D02*
X-1408179Y-29523000D01*
X1408179Y-29523000D02*
X3121587Y-31970000D01*
X-1408179Y-34417000D02*
X-3121587Y-31970000D01*
X77310153Y-25576000D02*
X75596745Y-28023000D01*
X71066979Y-25576000D02*
X72780387Y-23129000D01*
X75596745Y-23129000D02*
X77310153Y-25576000D01*
X72780387Y-28023000D02*
X71066979Y-25576000D01*
X69066979Y-25576000D02*
X67353571Y-28023000D01*
X62823805Y-25576000D02*
X64537213Y-23129000D01*
X67353571Y-23129000D02*
X69066979Y-25576000D01*
X64537213Y-28023000D02*
X62823805Y-25576000D01*
X60823805Y-25576000D02*
X59110397Y-28023000D01*
X54580631Y-25576000D02*
X56294039Y-23129000D01*
X59110397Y-23129000D02*
X60823805Y-25576000D01*
X56294039Y-28023000D02*
X54580631Y-25576000D01*
X52580631Y-25576000D02*
X50867223Y-28023000D01*
X46337457Y-25576000D02*
X48050865Y-23129000D01*
X50867223Y-23129000D02*
X52580631Y-25576000D01*
X48050865Y-28023000D02*
X46337457Y-25576000D01*
X44337457Y-25576000D02*
X42624049Y-28023000D01*
X38094283Y-25576000D02*
X39807691Y-23129000D01*
X42624049Y-23129000D02*
X44337457Y-25576000D01*
X39807691Y-28023000D02*
X38094283Y-25576000D01*
X36094283Y-25576000D02*
X34380875Y-28023000D01*
X29851109Y-25576000D02*
X31564517Y-23129000D01*
X34380875Y-23129000D02*
X36094283Y-25576000D01*
X31564517Y-28023000D02*
X29851109Y-25576000D01*
X27851109Y-25576000D02*
X26137701Y-28023000D01*
X21607935Y-25576000D02*
X23321343Y-23129000D01*
X26137701Y-23129000D02*
X27851109Y-25576000D01*
X23321343Y-28023000D02*
X21607935Y-25576000D01*
X19607935Y-25576000D02*
X17894527Y-28023000D01*
X13364761Y-25576000D02*
X15078169Y-23129000D01*
X17894527Y-23129000D02*
X19607935Y-25576000D01*
X15078169Y-28023000D02*
X13364761Y-25576000D01*
X11364761Y-25576000D02*
X9651353Y-28023000D01*
X5121587Y-25576000D02*
X6834995Y-23129000D01*
X9651353Y-23129000D02*
X11364761Y-25576000D01*
X6834995Y-28023000D02*
X5121587Y-25576000D01*
X3121587Y-25576000D02*
X1408179Y-28023000D01*
X-3121587Y-25576000D02*
X-1408179Y-23129000D01*
X1408179Y-23129000D02*
X3121587Y-25576000D01*
X-1408179Y-28023000D02*
X-3121587Y-25576000D01*
X77310153Y-19182000D02*
X75596745Y-21629000D01*
X71066979Y-19182000D02*
X72780387Y-16735000D01*
X75596745Y-16735000D02*
X77310153Y-19182000D01*
X72780387Y-21629000D02*
X71066979Y-19182000D01*
X69066979Y-19182000D02*
X67353571Y-21629000D01*
X62823805Y-19182000D02*
X64537213Y-16735000D01*
X67353571Y-16735000D02*
X69066979Y-19182000D01*
X64537213Y-21629000D02*
X62823805Y-19182000D01*
X60823805Y-19182000D02*
X59110397Y-21629000D01*
X54580631Y-19182000D02*
X56294039Y-16735000D01*
X59110397Y-16735000D02*
X60823805Y-19182000D01*
X56294039Y-21629000D02*
X54580631Y-19182000D01*
X52580631Y-19182000D02*
X50867223Y-21629000D01*
X46337457Y-19182000D02*
X48050865Y-16735000D01*
X50867223Y-16735000D02*
X52580631Y-19182000D01*
X48050865Y-21629000D02*
X46337457Y-19182000D01*
X44337457Y-19182000D02*
X42624049Y-21629000D01*
X38094283Y-19182000D02*
X39807691Y-16735000D01*
X42624049Y-16735000D02*
X44337457Y-19182000D01*
X39807691Y-21629000D02*
X38094283Y-19182000D01*
X36094283Y-19182000D02*
X34380875Y-21629000D01*
X29851109Y-19182000D02*
X31564517Y-16735000D01*
X34380875Y-16735000D02*
X36094283Y-19182000D01*
X31564517Y-21629000D02*
X29851109Y-19182000D01*
X27851109Y-19182000D02*
X26137701Y-21629000D01*
X21607935Y-19182000D02*
X23321343Y-16735000D01*
X26137701Y-16735000D02*
X27851109Y-19182000D01*
X23321343Y-21629000D02*
X21607935Y-19182000D01*
X19607935Y-19182000D02*
X17894527Y-21629000D01*
X13364761Y-19182000D02*
X15078169Y-16735000D01*
X17894527Y-16735000D02*
X19607935Y-19182000D01*
X15078169Y-21629000D02*
X13364761Y-19182000D01*
X11364761Y-19182000D02*
X9651353Y-21629000D01*
X5121587Y-19182000D02*
X6834995Y-16735000D01*
X9651353Y-16735000D02*
X11364761Y-19182000D01*
X6834995Y-21629000D02*
X5121587Y-19182000D01*
X3121587Y-19182000D02*
X1408179Y-21629000D01*
X-3121587Y-19182000D02*
X-1408179Y-16735000D01*
X1408179Y-16735000D02*
X3121587Y-19182000D01*
X-1408179Y-21629000D02*
X-3121587Y-19182000D01*
X77310153Y-12788000D02*
X75596745Y-15235000D01*
X71066979Y-12788000D02*
X72780387Y-10341000D01*
X75596745Y-10341000D02*
X77310153Y-12788000D01*
X72780387Y-15235000D02*
X71066979Y-12788000D01*
X69066979Y-12788000D02*
X67353571Y-15235000D01*
X62823805Y-12788000D02*
X64537213Y-10341000D01*
X67353571Y-10341000D02*
X69066979Y-12788000D01*
X64537213Y-15235000D02*
X62823805Y-12788000D01*
X60823805Y-12788000D02*
X59110397Y-15235000D01*
X54580631Y-12788000D02*
X56294039Y-10341000D01*
X59110397Y-10341000D02*
X60823805Y-12788000D01*
X56294039Y-15235000D02*
X54580631Y-12788000D01*
X52580631Y-12788000D02*
X50867223Y-15235000D01*
X46337457Y-12788000D02*
X48050865Y-10341000D01*
X50867223Y-10341000D02*
X52580631Y-12788000D01*
X48050865Y-15235000D02*
X46337457Y-12788000D01*
X44337457Y-12788000D02*
X42624049Y-15235000D01*
X38094283Y-12788000D02*
X39807691Y-10341000D01*
X42624049Y-10341000D02*
X44337457Y-12788000D01*
X39807691Y-15235000D02*
X38094283Y-12788000D01*
X36094283Y-12788000D02*
X34380875Y-15235000D01*
X29851109Y-12788000D02*
X31564517Y-10341000D01*
X34380875Y-10341000D02*
X36094283Y-12788000D01*
X31564517Y-15235000D02*
X29851109Y-12788000D01*
X27851109Y-12788000D02*
X26137701Y-15235000D01*
X21607935Y-12788000D02*
X23321343Y-10341000D01*
X26137701Y-10341000D02*
X27851109Y-12788000D01*
X23321343Y-15235000D02*
X21607935Y-12788000D01*
X19607935Y-12788000D02*
X17894527Y-15235000D01*
X13364761Y-12788000D02*
X15078169Y-10341000D01*
X17894527Y-10341000D02*
X19607935Y-12788000D01*
X15078169Y-15235000D02*
X13364761Y-12788000D01*
X11364761Y-12788000D02*
X9651353Y-15235000D01*
X5121587Y-12788000D02*
X6834995Y-10341000D01*
X9651353Y-10341000D02*
X11364761Y-12788000D01*
X6834995Y-15235000D02*
X5121587Y-12788000D01*
X3121587Y-12788000D02*
X1408179Y-15235000D01*
X-3121587Y-12788000D02*
X-1408179Y-10341000D01*
X1408179Y-10341000D02*
X3121587Y-12788000D01*
X-1408179Y-15235000D02*
X-3121587Y-12788000D01*
X77310153Y-6394000D02*
X75596745Y-8841000D01*
X71066979Y-6394000D02*
X72780387Y-3947000D01*
X75596745Y-3947000D02*
X77310153Y-6394000D01*
X72780387Y-8841000D02*
X71066979Y-6394000D01*
X69066979Y-6394000D02*
X67353571Y-8841000D01*
X62823805Y-6394000D02*
X64537213Y-3947000D01*
X67353571Y-3947000D02*
X69066979Y-6394000D01*
X64537213Y-8841000D02*
X62823805Y-6394000D01*
X60823805Y-6394000D02*
X59110397Y-8841000D01*
X54580631Y-6394000D02*
X56294039Y-3947000D01*
X59110397Y-3947000D02*
X60823805Y-6394000D01*
X56294039Y-8841000D02*
X54580631Y-6394000D01*
X52580631Y-6394000D02*
X50867223Y-8841000D01*
X46337457Y-6394000D02*
X48050865Y-3947000D01*
X50867223Y-3947000D02*
X52580631Y-6394000D01*
X48050865Y-8841000D02*
X46337457Y-6394000D01*
X44337457Y-6394000D02*
X42624049Y-8841000D01*
X38094283Y-6394000D02*
X39807691Y-3947000D01*
X42624049Y-3947000D02*
X44337457Y-6394000D01*
X39807691Y-8841000D02*
X38094283Y-6394000D01*
X36094283Y-6394000D02*
X34380875Y-8841000D01*
X29851109Y-6394000D02*
X31564517Y-3947000D01*
X34380875Y-3947000D02*
X36094283Y-6394000D01*
X31564517Y-8841000D02*
X29851109Y-6394000D01*
X27851109Y-6394000D02*
X26137701Y-8841000D01*
X21607935Y-6394000D02*
X23321343Y-3947000D01*
X26137701Y-3947000D02*
X27851109Y-6394000D01*
X23321343Y-8841000D02*
X21607935Y-6394000D01*
X19607935Y-6394000D02*
X17894527Y-8841000D01*
X13364761Y-6394000D02*
X15078169Y-3947000D01*
X17894527Y-3947000D02*
X19607935Y-6394000D01*
X15078169Y-8841000D02*
X13364761Y-6394000D01*
X11364761Y-6394000D02*
X9651353Y-8841000D01*
X5121587Y-6394000D02*
X6834995Y-3947000D01*
X9651353Y-3947000D02*
X11364761Y-6394000D01*
X6834995Y-8841000D02*
X5121587Y-6394000D01*
X3121587Y-6394000D02*
X1408179Y-8841000D01*
X-3121587Y-6394000D02*
X-1408179Y-3947000D01*
X1408179Y-3947000D02*
X3121587Y-6394000D01*
X-1408179Y-8841000D02*
X-3121587Y-6394000D01*
X77310153Y0D02*
X75596745Y-2447000D01*
X71066979Y0D02*
X72780387Y2447000D01*
X75596745Y2447000D02*
X77310153Y0D01*
X72780387Y-2447000D02*
X71066979Y0D01*
X69066979Y0D02*
X67353571Y-2447000D01*
X62823805Y0D02*
X64537213Y2447000D01*
X67353571Y2447000D02*
X69066979Y0D01*
X64537213Y-2447000D02*
X62823805Y0D01*
X60823805Y0D02*
X59110397Y-2447000D01*
X54580631Y0D02*
X56294039Y2447000D01*
X59110397Y2447000D02*
X60823805Y0D01*
X56294039Y-2447000D02*
X54580631Y0D01*
X52580631Y0D02*
X50867223Y-2447000D01*
X46337457Y0D02*
X48050865Y2447000D01*
X50867223Y2447000D02*
X52580631Y0D01*
X48050865Y-2447000D02*
X46337457Y0D01*
X44337457Y0D02*
X42624049Y-2447000D01*
X38094283Y0D02*
X39807691Y2447000D01*
X42624049Y2447000D02*
X44337457Y0D01*
X39807691Y-2447000D02*
X38094283Y0D01*
X36094283Y0D02*
X34380875Y-2447000D01*
X29851109Y0D02*
X31564517Y2447000D01*
X34380875Y2447000D02*
X36094283Y0D01*
X31564517Y-2447000D02*
X29851109Y0D01*
X27851109Y0D02*
X26137701Y-2447000D01*
X21607935Y0D02*
X23321343Y2447000D01*
X26137701Y2447000D02*
X27851109Y0D01*
X23321343Y-2447000D02*
X21607935Y0D01*
X19607935Y0D02*
X17894527Y-2447000D01*
X13364761Y0D02*
X15078169Y2447000D01*
X17894527Y2447000D02*
X19607935Y0D01*
X15078169Y-2447000D02*
X13364761Y0D01*
X11364761Y0D02*
X9651353Y-2447000D01*
X5121587Y0D02*
X6834995Y2447000D01*
X9651353Y2447000D02*
X11364761Y0D01*
X6834995Y-2447000D02*
X5121587Y0D01*
X-3121587Y0D02*
X-1408179Y2447000D01*
X-1408179Y-2447000D02*
X-3121587Y0D01*
X1408179Y2447000D02*
X3121587Y0D01*
X3121587Y0D02*
X1408179Y-2447000D01*
%TO.C,REF\u002A\u002A*%
X-5121586Y-62584819D02*
G75*
G03*
X-3621588Y-62584819I749999J1071819D01*
G01*
X-3621588Y-65401181D02*
G75*
G03*
X-5121586Y-65401181I-749999J-1071819D01*
G01*
X77810154Y-62584819D02*
G75*
G03*
X79310152Y-62584819I749999J1071819D01*
G01*
X79310152Y-65401181D02*
G75*
G03*
X77810154Y-65401181I-749999J-1071819D01*
G01*
X79310152Y5038819D02*
G75*
G03*
X77810154Y5038819I-749999J-1071819D01*
G01*
X77810154Y7855181D02*
G75*
G03*
X79310152Y7855181I749999J1071819D01*
G01*
X-3621588Y5038819D02*
G75*
G03*
X-5121586Y5038819I-749999J-1071819D01*
G01*
X-5121586Y7855181D02*
G75*
G03*
X-3621588Y7855181I749999J1071819D01*
G01*
%TO.C,REF\u002A\u002A198*%
X1408181Y-59993001D02*
G75*
G03*
X1408181Y-61492999I1071819J-749999D01*
G01*
X-1408181Y-61492999D02*
G75*
G03*
X-1408181Y-59993001I-1071819J749999D01*
G01*
%TO.C,REF\u002A\u002A196*%
X9651355Y-59993001D02*
G75*
G03*
X9651355Y-61492999I1071819J-749999D01*
G01*
X6834993Y-61492999D02*
G75*
G03*
X6834993Y-59993001I-1071819J749999D01*
G01*
%TO.C,REF\u002A\u002A191*%
X26137703Y-59993001D02*
G75*
G03*
X26137703Y-61492999I1071819J-749999D01*
G01*
X23321341Y-61492999D02*
G75*
G03*
X23321341Y-59993001I-1071819J749999D01*
G01*
%TO.C,REF\u002A\u002A194*%
X17894529Y-59993001D02*
G75*
G03*
X17894529Y-61492999I1071819J-749999D01*
G01*
X15078167Y-61492999D02*
G75*
G03*
X15078167Y-59993001I-1071819J749999D01*
G01*
%TO.C,REF\u002A\u002A183*%
X59110399Y-59993001D02*
G75*
G03*
X59110399Y-61492999I1071819J-749999D01*
G01*
X56294037Y-61492999D02*
G75*
G03*
X56294037Y-59993001I-1071819J749999D01*
G01*
%TO.C,REF\u002A\u002A190*%
X34380877Y-59993001D02*
G75*
G03*
X34380877Y-61492999I1071819J-749999D01*
G01*
X31564515Y-61492999D02*
G75*
G03*
X31564515Y-59993001I-1071819J749999D01*
G01*
%TO.C,REF\u002A\u002A187*%
X42624051Y-59993001D02*
G75*
G03*
X42624051Y-61492999I1071819J-749999D01*
G01*
X39807689Y-61492999D02*
G75*
G03*
X39807689Y-59993001I-1071819J749999D01*
G01*
%TO.C,REF\u002A\u002A185*%
X50867225Y-59993001D02*
G75*
G03*
X50867225Y-61492999I1071819J-749999D01*
G01*
X48050863Y-61492999D02*
G75*
G03*
X48050863Y-59993001I-1071819J749999D01*
G01*
%TO.C,REF\u002A\u002A181*%
X67353573Y-59993001D02*
G75*
G03*
X67353573Y-61492999I1071819J-749999D01*
G01*
X64537211Y-61492999D02*
G75*
G03*
X64537211Y-59993001I-1071819J749999D01*
G01*
%TO.C,REF\u002A\u002A179*%
X75596747Y-59993001D02*
G75*
G03*
X75596747Y-61492999I1071819J-749999D01*
G01*
X72780385Y-61492999D02*
G75*
G03*
X72780385Y-59993001I-1071819J749999D01*
G01*
%TO.C,REF\u002A\u002A198*%
X72780385Y-55098999D02*
G75*
G03*
X72780385Y-53599001I-1071819J749999D01*
G01*
X75596747Y-53599001D02*
G75*
G03*
X75596747Y-55098999I1071819J-749999D01*
G01*
%TO.C,REF\u002A\u002A196*%
X64537211Y-55098999D02*
G75*
G03*
X64537211Y-53599001I-1071819J749999D01*
G01*
X67353573Y-53599001D02*
G75*
G03*
X67353573Y-55098999I1071819J-749999D01*
G01*
%TO.C,REF\u002A\u002A194*%
X56294037Y-55098999D02*
G75*
G03*
X56294037Y-53599001I-1071819J749999D01*
G01*
X59110399Y-53599001D02*
G75*
G03*
X59110399Y-55098999I1071819J-749999D01*
G01*
%TO.C,REF\u002A\u002A191*%
X48050863Y-55098999D02*
G75*
G03*
X48050863Y-53599001I-1071819J749999D01*
G01*
X50867225Y-53599001D02*
G75*
G03*
X50867225Y-55098999I1071819J-749999D01*
G01*
%TO.C,REF\u002A\u002A190*%
X39807689Y-55098999D02*
G75*
G03*
X39807689Y-53599001I-1071819J749999D01*
G01*
X42624051Y-53599001D02*
G75*
G03*
X42624051Y-55098999I1071819J-749999D01*
G01*
%TO.C,REF\u002A\u002A187*%
X31564515Y-55098999D02*
G75*
G03*
X31564515Y-53599001I-1071819J749999D01*
G01*
X34380877Y-53599001D02*
G75*
G03*
X34380877Y-55098999I1071819J-749999D01*
G01*
%TO.C,REF\u002A\u002A185*%
X23321341Y-55098999D02*
G75*
G03*
X23321341Y-53599001I-1071819J749999D01*
G01*
X26137703Y-53599001D02*
G75*
G03*
X26137703Y-55098999I1071819J-749999D01*
G01*
%TO.C,REF\u002A\u002A183*%
X15078167Y-55098999D02*
G75*
G03*
X15078167Y-53599001I-1071819J749999D01*
G01*
X17894529Y-53599001D02*
G75*
G03*
X17894529Y-55098999I1071819J-749999D01*
G01*
%TO.C,REF\u002A\u002A181*%
X6834993Y-55098999D02*
G75*
G03*
X6834993Y-53599001I-1071819J749999D01*
G01*
X9651355Y-53599001D02*
G75*
G03*
X9651355Y-55098999I1071819J-749999D01*
G01*
%TO.C,REF\u002A\u002A179*%
X-1408181Y-55098999D02*
G75*
G03*
X-1408181Y-53599001I-1071819J749999D01*
G01*
X1408181Y-53599001D02*
G75*
G03*
X1408181Y-55098999I1071819J-749999D01*
G01*
%TO.C,REF\u002A\u002A178*%
X72780385Y-48704999D02*
G75*
G03*
X72780385Y-47205001I-1071819J749999D01*
G01*
X75596747Y-47205001D02*
G75*
G03*
X75596747Y-48704999I1071819J-749999D01*
G01*
%TO.C,REF\u002A\u002A176*%
X64537211Y-48704999D02*
G75*
G03*
X64537211Y-47205001I-1071819J749999D01*
G01*
X67353573Y-47205001D02*
G75*
G03*
X67353573Y-48704999I1071819J-749999D01*
G01*
%TO.C,REF\u002A\u002A173*%
X56294037Y-48704999D02*
G75*
G03*
X56294037Y-47205001I-1071819J749999D01*
G01*
X59110399Y-47205001D02*
G75*
G03*
X59110399Y-48704999I1071819J-749999D01*
G01*
%TO.C,REF\u002A\u002A171*%
X48050863Y-48704999D02*
G75*
G03*
X48050863Y-47205001I-1071819J749999D01*
G01*
X50867225Y-47205001D02*
G75*
G03*
X50867225Y-48704999I1071819J-749999D01*
G01*
%TO.C,REF\u002A\u002A169*%
X39807689Y-48704999D02*
G75*
G03*
X39807689Y-47205001I-1071819J749999D01*
G01*
X42624051Y-47205001D02*
G75*
G03*
X42624051Y-48704999I1071819J-749999D01*
G01*
%TO.C,REF\u002A\u002A168*%
X31564515Y-48704999D02*
G75*
G03*
X31564515Y-47205001I-1071819J749999D01*
G01*
X34380877Y-47205001D02*
G75*
G03*
X34380877Y-48704999I1071819J-749999D01*
G01*
%TO.C,REF\u002A\u002A166*%
X23321341Y-48704999D02*
G75*
G03*
X23321341Y-47205001I-1071819J749999D01*
G01*
X26137703Y-47205001D02*
G75*
G03*
X26137703Y-48704999I1071819J-749999D01*
G01*
%TO.C,REF\u002A\u002A164*%
X15078167Y-48704999D02*
G75*
G03*
X15078167Y-47205001I-1071819J749999D01*
G01*
X17894529Y-47205001D02*
G75*
G03*
X17894529Y-48704999I1071819J-749999D01*
G01*
%TO.C,REF\u002A\u002A162*%
X6834993Y-48704999D02*
G75*
G03*
X6834993Y-47205001I-1071819J749999D01*
G01*
X9651355Y-47205001D02*
G75*
G03*
X9651355Y-48704999I1071819J-749999D01*
G01*
%TO.C,REF\u002A\u002A159*%
X-1408181Y-48704999D02*
G75*
G03*
X-1408181Y-47205001I-1071819J749999D01*
G01*
X1408181Y-47205001D02*
G75*
G03*
X1408181Y-48704999I1071819J-749999D01*
G01*
%TO.C,REF\u002A\u002A157*%
X72780385Y-42310999D02*
G75*
G03*
X72780385Y-40811001I-1071819J749999D01*
G01*
X75596747Y-40811001D02*
G75*
G03*
X75596747Y-42310999I1071819J-749999D01*
G01*
%TO.C,REF\u002A\u002A156*%
X64537211Y-42310999D02*
G75*
G03*
X64537211Y-40811001I-1071819J749999D01*
G01*
X67353573Y-40811001D02*
G75*
G03*
X67353573Y-42310999I1071819J-749999D01*
G01*
%TO.C,REF\u002A\u002A153*%
X56294037Y-42310999D02*
G75*
G03*
X56294037Y-40811001I-1071819J749999D01*
G01*
X59110399Y-40811001D02*
G75*
G03*
X59110399Y-42310999I1071819J-749999D01*
G01*
%TO.C,REF\u002A\u002A152*%
X48050863Y-42310999D02*
G75*
G03*
X48050863Y-40811001I-1071819J749999D01*
G01*
X50867225Y-40811001D02*
G75*
G03*
X50867225Y-42310999I1071819J-749999D01*
G01*
%TO.C,REF\u002A\u002A150*%
X39807689Y-42310999D02*
G75*
G03*
X39807689Y-40811001I-1071819J749999D01*
G01*
X42624051Y-40811001D02*
G75*
G03*
X42624051Y-42310999I1071819J-749999D01*
G01*
%TO.C,REF\u002A\u002A148*%
X31564515Y-42310999D02*
G75*
G03*
X31564515Y-40811001I-1071819J749999D01*
G01*
X34380877Y-40811001D02*
G75*
G03*
X34380877Y-42310999I1071819J-749999D01*
G01*
%TO.C,REF\u002A\u002A146*%
X23321341Y-42310999D02*
G75*
G03*
X23321341Y-40811001I-1071819J749999D01*
G01*
X26137703Y-40811001D02*
G75*
G03*
X26137703Y-42310999I1071819J-749999D01*
G01*
%TO.C,REF\u002A\u002A143*%
X15078167Y-42310999D02*
G75*
G03*
X15078167Y-40811001I-1071819J749999D01*
G01*
X17894529Y-40811001D02*
G75*
G03*
X17894529Y-42310999I1071819J-749999D01*
G01*
%TO.C,REF\u002A\u002A142*%
X6834993Y-42310999D02*
G75*
G03*
X6834993Y-40811001I-1071819J749999D01*
G01*
X9651355Y-40811001D02*
G75*
G03*
X9651355Y-42310999I1071819J-749999D01*
G01*
%TO.C,REF\u002A\u002A139*%
X-1408181Y-42310999D02*
G75*
G03*
X-1408181Y-40811001I-1071819J749999D01*
G01*
X1408181Y-40811001D02*
G75*
G03*
X1408181Y-42310999I1071819J-749999D01*
G01*
%TO.C,REF\u002A\u002A137*%
X72780385Y-35916999D02*
G75*
G03*
X72780385Y-34417001I-1071819J749999D01*
G01*
X75596747Y-34417001D02*
G75*
G03*
X75596747Y-35916999I1071819J-749999D01*
G01*
%TO.C,REF\u002A\u002A135*%
X64537211Y-35916999D02*
G75*
G03*
X64537211Y-34417001I-1071819J749999D01*
G01*
X67353573Y-34417001D02*
G75*
G03*
X67353573Y-35916999I1071819J-749999D01*
G01*
%TO.C,REF\u002A\u002A133*%
X56294037Y-35916999D02*
G75*
G03*
X56294037Y-34417001I-1071819J749999D01*
G01*
X59110399Y-34417001D02*
G75*
G03*
X59110399Y-35916999I1071819J-749999D01*
G01*
%TO.C,REF\u002A\u002A131*%
X48050863Y-35916999D02*
G75*
G03*
X48050863Y-34417001I-1071819J749999D01*
G01*
X50867225Y-34417001D02*
G75*
G03*
X50867225Y-35916999I1071819J-749999D01*
G01*
%TO.C,REF\u002A\u002A129*%
X39807689Y-35916999D02*
G75*
G03*
X39807689Y-34417001I-1071819J749999D01*
G01*
X42624051Y-34417001D02*
G75*
G03*
X42624051Y-35916999I1071819J-749999D01*
G01*
%TO.C,REF\u002A\u002A127*%
X31564515Y-35916999D02*
G75*
G03*
X31564515Y-34417001I-1071819J749999D01*
G01*
X34380877Y-34417001D02*
G75*
G03*
X34380877Y-35916999I1071819J-749999D01*
G01*
%TO.C,REF\u002A\u002A126*%
X23321341Y-35916999D02*
G75*
G03*
X23321341Y-34417001I-1071819J749999D01*
G01*
X26137703Y-34417001D02*
G75*
G03*
X26137703Y-35916999I1071819J-749999D01*
G01*
%TO.C,REF\u002A\u002A124*%
X15078167Y-35916999D02*
G75*
G03*
X15078167Y-34417001I-1071819J749999D01*
G01*
X17894529Y-34417001D02*
G75*
G03*
X17894529Y-35916999I1071819J-749999D01*
G01*
%TO.C,REF\u002A\u002A122*%
X6834993Y-35916999D02*
G75*
G03*
X6834993Y-34417001I-1071819J749999D01*
G01*
X9651355Y-34417001D02*
G75*
G03*
X9651355Y-35916999I1071819J-749999D01*
G01*
%TO.C,REF\u002A\u002A119*%
X-1408181Y-35916999D02*
G75*
G03*
X-1408181Y-34417001I-1071819J749999D01*
G01*
X1408181Y-34417001D02*
G75*
G03*
X1408181Y-35916999I1071819J-749999D01*
G01*
%TO.C,REF\u002A\u002A117*%
X72780385Y-29522999D02*
G75*
G03*
X72780385Y-28023001I-1071819J749999D01*
G01*
X75596747Y-28023001D02*
G75*
G03*
X75596747Y-29522999I1071819J-749999D01*
G01*
%TO.C,REF\u002A\u002A115*%
X64537211Y-29522999D02*
G75*
G03*
X64537211Y-28023001I-1071819J749999D01*
G01*
X67353573Y-28023001D02*
G75*
G03*
X67353573Y-29522999I1071819J-749999D01*
G01*
%TO.C,REF\u002A\u002A113*%
X56294037Y-29522999D02*
G75*
G03*
X56294037Y-28023001I-1071819J749999D01*
G01*
X59110399Y-28023001D02*
G75*
G03*
X59110399Y-29522999I1071819J-749999D01*
G01*
%TO.C,REF\u002A\u002A111*%
X48050863Y-29522999D02*
G75*
G03*
X48050863Y-28023001I-1071819J749999D01*
G01*
X50867225Y-28023001D02*
G75*
G03*
X50867225Y-29522999I1071819J-749999D01*
G01*
%TO.C,REF\u002A\u002A109*%
X39807689Y-29522999D02*
G75*
G03*
X39807689Y-28023001I-1071819J749999D01*
G01*
X42624051Y-28023001D02*
G75*
G03*
X42624051Y-29522999I1071819J-749999D01*
G01*
%TO.C,REF\u002A\u002A108*%
X31564515Y-29522999D02*
G75*
G03*
X31564515Y-28023001I-1071819J749999D01*
G01*
X34380877Y-28023001D02*
G75*
G03*
X34380877Y-29522999I1071819J-749999D01*
G01*
%TO.C,REF\u002A\u002A105*%
X23321341Y-29522999D02*
G75*
G03*
X23321341Y-28023001I-1071819J749999D01*
G01*
X26137703Y-28023001D02*
G75*
G03*
X26137703Y-29522999I1071819J-749999D01*
G01*
%TO.C,REF\u002A\u002A104*%
X15078167Y-29522999D02*
G75*
G03*
X15078167Y-28023001I-1071819J749999D01*
G01*
X17894529Y-28023001D02*
G75*
G03*
X17894529Y-29522999I1071819J-749999D01*
G01*
%TO.C,REF\u002A\u002A102*%
X6834993Y-29522999D02*
G75*
G03*
X6834993Y-28023001I-1071819J749999D01*
G01*
X9651355Y-28023001D02*
G75*
G03*
X9651355Y-29522999I1071819J-749999D01*
G01*
%TO.C,REF\u002A\u002A100*%
X-1408181Y-29522999D02*
G75*
G03*
X-1408181Y-28023001I-1071819J749999D01*
G01*
X1408181Y-28023001D02*
G75*
G03*
X1408181Y-29522999I1071819J-749999D01*
G01*
%TO.C,REF\u002A\u002A97*%
X72780385Y-23128999D02*
G75*
G03*
X72780385Y-21629001I-1071819J749999D01*
G01*
X75596747Y-21629001D02*
G75*
G03*
X75596747Y-23128999I1071819J-749999D01*
G01*
%TO.C,REF\u002A\u002A96*%
X64537211Y-23128999D02*
G75*
G03*
X64537211Y-21629001I-1071819J749999D01*
G01*
X67353573Y-21629001D02*
G75*
G03*
X67353573Y-23128999I1071819J-749999D01*
G01*
%TO.C,REF\u002A\u002A93*%
X56294037Y-23128999D02*
G75*
G03*
X56294037Y-21629001I-1071819J749999D01*
G01*
X59110399Y-21629001D02*
G75*
G03*
X59110399Y-23128999I1071819J-749999D01*
G01*
%TO.C,REF\u002A\u002A92*%
X48050863Y-23128999D02*
G75*
G03*
X48050863Y-21629001I-1071819J749999D01*
G01*
X50867225Y-21629001D02*
G75*
G03*
X50867225Y-23128999I1071819J-749999D01*
G01*
%TO.C,REF\u002A\u002A90*%
X39807689Y-23128999D02*
G75*
G03*
X39807689Y-21629001I-1071819J749999D01*
G01*
X42624051Y-21629001D02*
G75*
G03*
X42624051Y-23128999I1071819J-749999D01*
G01*
%TO.C,REF\u002A\u002A87*%
X31564515Y-23128999D02*
G75*
G03*
X31564515Y-21629001I-1071819J749999D01*
G01*
X34380877Y-21629001D02*
G75*
G03*
X34380877Y-23128999I1071819J-749999D01*
G01*
%TO.C,REF\u002A\u002A86*%
X23321341Y-23128999D02*
G75*
G03*
X23321341Y-21629001I-1071819J749999D01*
G01*
X26137703Y-21629001D02*
G75*
G03*
X26137703Y-23128999I1071819J-749999D01*
G01*
%TO.C,REF\u002A\u002A83*%
X15078167Y-23128999D02*
G75*
G03*
X15078167Y-21629001I-1071819J749999D01*
G01*
X17894529Y-21629001D02*
G75*
G03*
X17894529Y-23128999I1071819J-749999D01*
G01*
%TO.C,REF\u002A\u002A82*%
X6834993Y-23128999D02*
G75*
G03*
X6834993Y-21629001I-1071819J749999D01*
G01*
X9651355Y-21629001D02*
G75*
G03*
X9651355Y-23128999I1071819J-749999D01*
G01*
%TO.C,REF\u002A\u002A80*%
X-1408181Y-23128999D02*
G75*
G03*
X-1408181Y-21629001I-1071819J749999D01*
G01*
X1408181Y-21629001D02*
G75*
G03*
X1408181Y-23128999I1071819J-749999D01*
G01*
%TO.C,REF\u002A\u002A78*%
X72780385Y-16734999D02*
G75*
G03*
X72780385Y-15235001I-1071819J749999D01*
G01*
X75596747Y-15235001D02*
G75*
G03*
X75596747Y-16734999I1071819J-749999D01*
G01*
%TO.C,REF\u002A\u002A76*%
X64537211Y-16734999D02*
G75*
G03*
X64537211Y-15235001I-1071819J749999D01*
G01*
X67353573Y-15235001D02*
G75*
G03*
X67353573Y-16734999I1071819J-749999D01*
G01*
%TO.C,REF\u002A\u002A73*%
X56294037Y-16734999D02*
G75*
G03*
X56294037Y-15235001I-1071819J749999D01*
G01*
X59110399Y-15235001D02*
G75*
G03*
X59110399Y-16734999I1071819J-749999D01*
G01*
%TO.C,REF\u002A\u002A71*%
X48050863Y-16734999D02*
G75*
G03*
X48050863Y-15235001I-1071819J749999D01*
G01*
X50867225Y-15235001D02*
G75*
G03*
X50867225Y-16734999I1071819J-749999D01*
G01*
%TO.C,REF\u002A\u002A70*%
X39807689Y-16734999D02*
G75*
G03*
X39807689Y-15235001I-1071819J749999D01*
G01*
X42624051Y-15235001D02*
G75*
G03*
X42624051Y-16734999I1071819J-749999D01*
G01*
%TO.C,REF\u002A\u002A68*%
X31564515Y-16734999D02*
G75*
G03*
X31564515Y-15235001I-1071819J749999D01*
G01*
X34380877Y-15235001D02*
G75*
G03*
X34380877Y-16734999I1071819J-749999D01*
G01*
%TO.C,REF\u002A\u002A65*%
X23321341Y-16734999D02*
G75*
G03*
X23321341Y-15235001I-1071819J749999D01*
G01*
X26137703Y-15235001D02*
G75*
G03*
X26137703Y-16734999I1071819J-749999D01*
G01*
%TO.C,REF\u002A\u002A63*%
X15078167Y-16734999D02*
G75*
G03*
X15078167Y-15235001I-1071819J749999D01*
G01*
X17894529Y-15235001D02*
G75*
G03*
X17894529Y-16734999I1071819J-749999D01*
G01*
%TO.C,REF\u002A\u002A62*%
X6834993Y-16734999D02*
G75*
G03*
X6834993Y-15235001I-1071819J749999D01*
G01*
X9651355Y-15235001D02*
G75*
G03*
X9651355Y-16734999I1071819J-749999D01*
G01*
%TO.C,REF\u002A\u002A60*%
X-1408181Y-16734999D02*
G75*
G03*
X-1408181Y-15235001I-1071819J749999D01*
G01*
X1408181Y-15235001D02*
G75*
G03*
X1408181Y-16734999I1071819J-749999D01*
G01*
%TO.C,REF\u002A\u002A57*%
X72780385Y-10340999D02*
G75*
G03*
X72780385Y-8841001I-1071819J749999D01*
G01*
X75596747Y-8841001D02*
G75*
G03*
X75596747Y-10340999I1071819J-749999D01*
G01*
%TO.C,REF\u002A\u002A55*%
X64537211Y-10340999D02*
G75*
G03*
X64537211Y-8841001I-1071819J749999D01*
G01*
X67353573Y-8841001D02*
G75*
G03*
X67353573Y-10340999I1071819J-749999D01*
G01*
%TO.C,REF\u002A\u002A54*%
X56294037Y-10340999D02*
G75*
G03*
X56294037Y-8841001I-1071819J749999D01*
G01*
X59110399Y-8841001D02*
G75*
G03*
X59110399Y-10340999I1071819J-749999D01*
G01*
%TO.C,REF\u002A\u002A51*%
X48050863Y-10340999D02*
G75*
G03*
X48050863Y-8841001I-1071819J749999D01*
G01*
X50867225Y-8841001D02*
G75*
G03*
X50867225Y-10340999I1071819J-749999D01*
G01*
%TO.C,REF\u002A\u002A50*%
X39807689Y-10340999D02*
G75*
G03*
X39807689Y-8841001I-1071819J749999D01*
G01*
X42624051Y-8841001D02*
G75*
G03*
X42624051Y-10340999I1071819J-749999D01*
G01*
%TO.C,REF\u002A\u002A47*%
X31564515Y-10340999D02*
G75*
G03*
X31564515Y-8841001I-1071819J749999D01*
G01*
X34380877Y-8841001D02*
G75*
G03*
X34380877Y-10340999I1071819J-749999D01*
G01*
%TO.C,REF\u002A\u002A45*%
X23321341Y-10340999D02*
G75*
G03*
X23321341Y-8841001I-1071819J749999D01*
G01*
X26137703Y-8841001D02*
G75*
G03*
X26137703Y-10340999I1071819J-749999D01*
G01*
%TO.C,REF\u002A\u002A43*%
X15078167Y-10340999D02*
G75*
G03*
X15078167Y-8841001I-1071819J749999D01*
G01*
X17894529Y-8841001D02*
G75*
G03*
X17894529Y-10340999I1071819J-749999D01*
G01*
%TO.C,REF\u002A\u002A41*%
X6834993Y-10340999D02*
G75*
G03*
X6834993Y-8841001I-1071819J749999D01*
G01*
X9651355Y-8841001D02*
G75*
G03*
X9651355Y-10340999I1071819J-749999D01*
G01*
%TO.C,REF\u002A\u002A40*%
X-1408181Y-10340999D02*
G75*
G03*
X-1408181Y-8841001I-1071819J749999D01*
G01*
X1408181Y-8841001D02*
G75*
G03*
X1408181Y-10340999I1071819J-749999D01*
G01*
%TO.C,REF\u002A\u002A38*%
X72780385Y-3946999D02*
G75*
G03*
X72780385Y-2447001I-1071819J749999D01*
G01*
X75596747Y-2447001D02*
G75*
G03*
X75596747Y-3946999I1071819J-749999D01*
G01*
%TO.C,REF\u002A\u002A35*%
X64537211Y-3946999D02*
G75*
G03*
X64537211Y-2447001I-1071819J749999D01*
G01*
X67353573Y-2447001D02*
G75*
G03*
X67353573Y-3946999I1071819J-749999D01*
G01*
%TO.C,REF\u002A\u002A33*%
X56294037Y-3946999D02*
G75*
G03*
X56294037Y-2447001I-1071819J749999D01*
G01*
X59110399Y-2447001D02*
G75*
G03*
X59110399Y-3946999I1071819J-749999D01*
G01*
%TO.C,REF\u002A\u002A32*%
X48050863Y-3946999D02*
G75*
G03*
X48050863Y-2447001I-1071819J749999D01*
G01*
X50867225Y-2447001D02*
G75*
G03*
X50867225Y-3946999I1071819J-749999D01*
G01*
%TO.C,REF\u002A\u002A29*%
X39807689Y-3946999D02*
G75*
G03*
X39807689Y-2447001I-1071819J749999D01*
G01*
X42624051Y-2447001D02*
G75*
G03*
X42624051Y-3946999I1071819J-749999D01*
G01*
%TO.C,REF\u002A\u002A27*%
X31564515Y-3946999D02*
G75*
G03*
X31564515Y-2447001I-1071819J749999D01*
G01*
X34380877Y-2447001D02*
G75*
G03*
X34380877Y-3946999I1071819J-749999D01*
G01*
%TO.C,REF\u002A\u002A26*%
X23321341Y-3946999D02*
G75*
G03*
X23321341Y-2447001I-1071819J749999D01*
G01*
X26137703Y-2447001D02*
G75*
G03*
X26137703Y-3946999I1071819J-749999D01*
G01*
%TO.C,REF\u002A\u002A24*%
X15078167Y-3946999D02*
G75*
G03*
X15078167Y-2447001I-1071819J749999D01*
G01*
X17894529Y-2447001D02*
G75*
G03*
X17894529Y-3946999I1071819J-749999D01*
G01*
%TO.C,REF\u002A\u002A21*%
X6834993Y-3946999D02*
G75*
G03*
X6834993Y-2447001I-1071819J749999D01*
G01*
X9651355Y-2447001D02*
G75*
G03*
X9651355Y-3946999I1071819J-749999D01*
G01*
%TO.C,REF\u002A\u002A19*%
X-1408181Y-3946999D02*
G75*
G03*
X-1408181Y-2447001I-1071819J749999D01*
G01*
X1408181Y-2447001D02*
G75*
G03*
X1408181Y-3946999I1071819J-749999D01*
G01*
%TO.C,REF\u002A\u002A18*%
X72780385Y2447001D02*
G75*
G03*
X72780385Y3946999I-1071819J749999D01*
G01*
X75596747Y3946999D02*
G75*
G03*
X75596747Y2447001I1071819J-749999D01*
G01*
%TO.C,REF\u002A\u002A16*%
X64537211Y2447001D02*
G75*
G03*
X64537211Y3946999I-1071819J749999D01*
G01*
X67353573Y3946999D02*
G75*
G03*
X67353573Y2447001I1071819J-749999D01*
G01*
%TO.C,REF\u002A\u002A14*%
X56294037Y2447001D02*
G75*
G03*
X56294037Y3946999I-1071819J749999D01*
G01*
X59110399Y3946999D02*
G75*
G03*
X59110399Y2447001I1071819J-749999D01*
G01*
%TO.C,REF\u002A\u002A11*%
X48050863Y2447001D02*
G75*
G03*
X48050863Y3946999I-1071819J749999D01*
G01*
X50867225Y3946999D02*
G75*
G03*
X50867225Y2447001I1071819J-749999D01*
G01*
%TO.C,REF\u002A\u002A10*%
X39807689Y2447001D02*
G75*
G03*
X39807689Y3946999I-1071819J749999D01*
G01*
X42624051Y3946999D02*
G75*
G03*
X42624051Y2447001I1071819J-749999D01*
G01*
%TO.C,REF\u002A\u002A8*%
X31564515Y2447001D02*
G75*
G03*
X31564515Y3946999I-1071819J749999D01*
G01*
X34380877Y3946999D02*
G75*
G03*
X34380877Y2447001I1071819J-749999D01*
G01*
%TO.C,REF\u002A\u002A5*%
X23321341Y2447001D02*
G75*
G03*
X23321341Y3946999I-1071819J749999D01*
G01*
X26137703Y3946999D02*
G75*
G03*
X26137703Y2447001I1071819J-749999D01*
G01*
%TO.C,REF\u002A\u002A4*%
X15078167Y2447001D02*
G75*
G03*
X15078167Y3946999I-1071819J749999D01*
G01*
X17894529Y3946999D02*
G75*
G03*
X17894529Y2447001I1071819J-749999D01*
G01*
%TO.C,REF\u002A\u002A1*%
X6834993Y2447001D02*
G75*
G03*
X6834993Y3946999I-1071819J749999D01*
G01*
X9651355Y3946999D02*
G75*
G03*
X9651355Y2447001I1071819J-749999D01*
G01*
%TO.C,REF\u002A\u002A*%
X1408181Y3946999D02*
G75*
G03*
X1408181Y2447001I1071819J-749999D01*
G01*
X-1408181Y2447001D02*
G75*
G03*
X-1408181Y3946999I-1071819J749999D01*
G01*
%TD*%
M02*
