%TF.GenerationSoftware,KiCad,Pcbnew,7.0.1*%
%TF.CreationDate,2024-10-11T19:23:26-04:00*%
%TF.ProjectId,PEST_Driver,50455354-5f44-4726-9976-65722e6b6963,rev?*%
%TF.SameCoordinates,Original*%
%TF.FileFunction,Copper,L1,Top*%
%TF.FilePolarity,Positive*%
%FSLAX46Y46*%
G04 Gerber Fmt 4.6, Leading zero omitted, Abs format (unit mm)*
G04 Created by KiCad (PCBNEW 7.0.1) date 2024-10-11 19:23:26*
%MOMM*%
%LPD*%
G01*
G04 APERTURE LIST*
G04 Aperture macros list*
%AMRoundRect*
0 Rectangle with rounded corners*
0 $1 Rounding radius*
0 $2 $3 $4 $5 $6 $7 $8 $9 X,Y pos of 4 corners*
0 Add a 4 corners polygon primitive as box body*
4,1,4,$2,$3,$4,$5,$6,$7,$8,$9,$2,$3,0*
0 Add four circle primitives for the rounded corners*
1,1,$1+$1,$2,$3*
1,1,$1+$1,$4,$5*
1,1,$1+$1,$6,$7*
1,1,$1+$1,$8,$9*
0 Add four rect primitives between the rounded corners*
20,1,$1+$1,$2,$3,$4,$5,0*
20,1,$1+$1,$4,$5,$6,$7,0*
20,1,$1+$1,$6,$7,$8,$9,0*
20,1,$1+$1,$8,$9,$2,$3,0*%
G04 Aperture macros list end*
%TA.AperFunction,ComponentPad*%
%ADD10C,2.000000*%
%TD*%
%TA.AperFunction,SMDPad,CuDef*%
%ADD11RoundRect,0.135000X0.185000X-0.135000X0.185000X0.135000X-0.185000X0.135000X-0.185000X-0.135000X0*%
%TD*%
%TA.AperFunction,SMDPad,CuDef*%
%ADD12RoundRect,0.135000X-0.185000X0.135000X-0.185000X-0.135000X0.185000X-0.135000X0.185000X0.135000X0*%
%TD*%
%TA.AperFunction,SMDPad,CuDef*%
%ADD13RoundRect,0.150000X-0.150000X0.512500X-0.150000X-0.512500X0.150000X-0.512500X0.150000X0.512500X0*%
%TD*%
%TA.AperFunction,SMDPad,CuDef*%
%ADD14RoundRect,0.140000X-0.140000X-0.170000X0.140000X-0.170000X0.140000X0.170000X-0.140000X0.170000X0*%
%TD*%
%TA.AperFunction,SMDPad,CuDef*%
%ADD15RoundRect,0.140000X0.140000X0.170000X-0.140000X0.170000X-0.140000X-0.170000X0.140000X-0.170000X0*%
%TD*%
%TA.AperFunction,SMDPad,CuDef*%
%ADD16RoundRect,0.100000X0.637500X0.100000X-0.637500X0.100000X-0.637500X-0.100000X0.637500X-0.100000X0*%
%TD*%
%TA.AperFunction,SMDPad,CuDef*%
%ADD17RoundRect,0.100000X-0.637500X-0.100000X0.637500X-0.100000X0.637500X0.100000X-0.637500X0.100000X0*%
%TD*%
%TA.AperFunction,SMDPad,CuDef*%
%ADD18R,0.400000X0.650000*%
%TD*%
%TA.AperFunction,SMDPad,CuDef*%
%ADD19RoundRect,0.218750X0.218750X0.256250X-0.218750X0.256250X-0.218750X-0.256250X0.218750X-0.256250X0*%
%TD*%
%TA.AperFunction,SMDPad,CuDef*%
%ADD20RoundRect,0.140000X0.170000X-0.140000X0.170000X0.140000X-0.170000X0.140000X-0.170000X-0.140000X0*%
%TD*%
%TA.AperFunction,SMDPad,CuDef*%
%ADD21RoundRect,0.150000X0.150000X-0.512500X0.150000X0.512500X-0.150000X0.512500X-0.150000X-0.512500X0*%
%TD*%
%TA.AperFunction,SMDPad,CuDef*%
%ADD22RoundRect,0.135000X-0.135000X-0.185000X0.135000X-0.185000X0.135000X0.185000X-0.135000X0.185000X0*%
%TD*%
%TA.AperFunction,SMDPad,CuDef*%
%ADD23RoundRect,0.250000X-0.625000X0.312500X-0.625000X-0.312500X0.625000X-0.312500X0.625000X0.312500X0*%
%TD*%
%TA.AperFunction,ComponentPad*%
%ADD24R,2.000000X2.000000*%
%TD*%
%TA.AperFunction,ComponentPad*%
%ADD25R,1.700000X1.700000*%
%TD*%
%TA.AperFunction,ComponentPad*%
%ADD26O,1.700000X1.700000*%
%TD*%
%TA.AperFunction,SMDPad,CuDef*%
%ADD27RoundRect,0.135000X0.135000X0.185000X-0.135000X0.185000X-0.135000X-0.185000X0.135000X-0.185000X0*%
%TD*%
%TA.AperFunction,ViaPad*%
%ADD28C,0.600000*%
%TD*%
%TA.AperFunction,ViaPad*%
%ADD29C,0.800000*%
%TD*%
%TA.AperFunction,Conductor*%
%ADD30C,0.200000*%
%TD*%
%TA.AperFunction,Conductor*%
%ADD31C,0.400000*%
%TD*%
%TA.AperFunction,Conductor*%
%ADD32C,0.700000*%
%TD*%
%TA.AperFunction,Conductor*%
%ADD33C,0.500000*%
%TD*%
%TA.AperFunction,Conductor*%
%ADD34C,0.600000*%
%TD*%
%TA.AperFunction,Conductor*%
%ADD35C,2.000000*%
%TD*%
%TA.AperFunction,Conductor*%
%ADD36C,0.800000*%
%TD*%
G04 APERTURE END LIST*
D10*
%TO.P,J8,1,Pin_1*%
%TO.N,/X_Control/OUT14*%
X52000000Y-37000000D03*
%TO.P,J8,2,Pin_2*%
%TO.N,/X_Control/OUT15*%
X52000000Y-39500000D03*
%TD*%
D11*
%TO.P,R24,1*%
%TO.N,GNDS*%
X45000000Y-48510000D03*
%TO.P,R24,2*%
%TO.N,/X_Control/G11A*%
X45000000Y-47490000D03*
%TD*%
D12*
%TO.P,R53,1*%
%TO.N,/Y_Control/G9B*%
X71000000Y-47480000D03*
%TO.P,R53,2*%
%TO.N,GNDS*%
X71000000Y-48500000D03*
%TD*%
D11*
%TO.P,R16,1*%
%TO.N,GNDS*%
X37000000Y-48510000D03*
%TO.P,R16,2*%
%TO.N,/X_Control/G7A*%
X37000000Y-47490000D03*
%TD*%
D13*
%TO.P,Q5,1,G*%
%TO.N,/X_Control/G4A*%
X32950000Y-32362500D03*
%TO.P,Q5,2,S*%
%TO.N,SENSE*%
X32000000Y-32362500D03*
%TO.P,Q5,3,G*%
%TO.N,/X_Control/G4B*%
X31050000Y-32362500D03*
%TO.P,Q5,4,D*%
%TO.N,/X_Control/OUT4*%
X31050000Y-34637500D03*
%TO.P,Q5,5,S*%
X32000000Y-34637500D03*
%TO.P,Q5,6,D*%
%TO.N,VIN*%
X32950000Y-34637500D03*
%TD*%
D14*
%TO.P,C4,1*%
%TO.N,GNDS*%
X72750000Y-26250000D03*
%TO.P,C4,2*%
%TO.N,VCC*%
X73710000Y-26250000D03*
%TD*%
D15*
%TO.P,C8,1*%
%TO.N,GNDS*%
X83250000Y-57250000D03*
%TO.P,C8,2*%
%TO.N,VCC*%
X82290000Y-57250000D03*
%TD*%
D11*
%TO.P,R64,1*%
%TO.N,GNDS*%
X85000000Y-48510000D03*
%TO.P,R64,2*%
%TO.N,/Y_Control/G15A*%
X85000000Y-47490000D03*
%TD*%
D16*
%TO.P,U8,1,A4*%
%TO.N,/Y_Control/G12A*%
X80862500Y-26275000D03*
%TO.P,U8,2,A6*%
%TO.N,/Y_Control/G14A*%
X80862500Y-25625000D03*
%TO.P,U8,3,A*%
%TO.N,Net-(U13-A1)*%
X80862500Y-24975000D03*
%TO.P,U8,4,A7*%
%TO.N,/Y_Control/G14B*%
X80862500Y-24325000D03*
%TO.P,U8,5,A5*%
%TO.N,/Y_Control/G12B*%
X80862500Y-23675000D03*
%TO.P,U8,6,~{E}*%
%TO.N,GNDS*%
X80862500Y-23025000D03*
%TO.P,U8,7,VEE*%
X80862500Y-22375000D03*
%TO.P,U8,8,GND*%
X80862500Y-21725000D03*
%TO.P,U8,9,S2*%
%TO.N,/Y_Control/S2*%
X75137500Y-21725000D03*
%TO.P,U8,10,S1*%
%TO.N,/Y_Control/S1*%
X75137500Y-22375000D03*
%TO.P,U8,11,S0*%
%TO.N,/Y_Control/DIR*%
X75137500Y-23025000D03*
%TO.P,U8,12,A3*%
%TO.N,/Y_Control/G10B*%
X75137500Y-23675000D03*
%TO.P,U8,13,A0*%
%TO.N,/Y_Control/G8A*%
X75137500Y-24325000D03*
%TO.P,U8,14,A1*%
%TO.N,/Y_Control/G8B*%
X75137500Y-24975000D03*
%TO.P,U8,15,A2*%
%TO.N,/Y_Control/G10A*%
X75137500Y-25625000D03*
%TO.P,U8,16,VCC*%
%TO.N,VCC*%
X75137500Y-26275000D03*
%TD*%
%TO.P,U2,1,A4*%
%TO.N,/X_Control/G4A*%
X32862500Y-26275000D03*
%TO.P,U2,2,A6*%
%TO.N,/X_Control/G6A*%
X32862500Y-25625000D03*
%TO.P,U2,3,A*%
%TO.N,Net-(U12-A0)*%
X32862500Y-24975000D03*
%TO.P,U2,4,A7*%
%TO.N,/X_Control/G6B*%
X32862500Y-24325000D03*
%TO.P,U2,5,A5*%
%TO.N,/X_Control/G4B*%
X32862500Y-23675000D03*
%TO.P,U2,6,~{E}*%
%TO.N,GNDS*%
X32862500Y-23025000D03*
%TO.P,U2,7,VEE*%
X32862500Y-22375000D03*
%TO.P,U2,8,GND*%
X32862500Y-21725000D03*
%TO.P,U2,9,S2*%
%TO.N,/X_Control/S2*%
X27137500Y-21725000D03*
%TO.P,U2,10,S1*%
%TO.N,/X_Control/S1*%
X27137500Y-22375000D03*
%TO.P,U2,11,S0*%
%TO.N,/X_Control/DIR*%
X27137500Y-23025000D03*
%TO.P,U2,12,A3*%
%TO.N,/X_Control/G2B*%
X27137500Y-23675000D03*
%TO.P,U2,13,A0*%
%TO.N,/X_Control/G0A*%
X27137500Y-24325000D03*
%TO.P,U2,14,A1*%
%TO.N,/X_Control/G0B*%
X27137500Y-24975000D03*
%TO.P,U2,15,A2*%
%TO.N,/X_Control/G2A*%
X27137500Y-25625000D03*
%TO.P,U2,16,VCC*%
%TO.N,VCC*%
X27137500Y-26275000D03*
%TD*%
D17*
%TO.P,U11,1,QB*%
%TO.N,/Y_Control/S2*%
X59137500Y-57225000D03*
%TO.P,U11,2,QC*%
%TO.N,/Y_Control/S1*%
X59137500Y-57875000D03*
%TO.P,U11,3,QD*%
%TO.N,/Y_Control/S0*%
X59137500Y-58525000D03*
%TO.P,U11,4,QE*%
%TO.N,/Y_Control/DIR*%
X59137500Y-59175000D03*
%TO.P,U11,5,QF*%
%TO.N,unconnected-(U11-QF-Pad5)*%
X59137500Y-59825000D03*
%TO.P,U11,6,QG*%
%TO.N,unconnected-(U11-QG-Pad6)*%
X59137500Y-60475000D03*
%TO.P,U11,7,QH*%
%TO.N,unconnected-(U11-QH-Pad7)*%
X59137500Y-61125000D03*
%TO.P,U11,8,GND*%
%TO.N,GNDS*%
X59137500Y-61775000D03*
%TO.P,U11,9,QH'*%
%TO.N,unconnected-(U11-QH'-Pad9)*%
X64862500Y-61775000D03*
%TO.P,U11,10,~{SRCLR}*%
%TO.N,VCC*%
X64862500Y-61125000D03*
%TO.P,U11,11,SRCLK*%
%TO.N,CLK*%
X64862500Y-60475000D03*
%TO.P,U11,12,RCLK*%
%TO.N,RCLK*%
X64862500Y-59825000D03*
%TO.P,U11,13,~{OE}*%
%TO.N,GNDS*%
X64862500Y-59175000D03*
%TO.P,U11,14,SER*%
%TO.N,SERY*%
X64862500Y-58525000D03*
%TO.P,U11,15,QA*%
%TO.N,/Y_Control/S3*%
X64862500Y-57875000D03*
%TO.P,U11,16,VCC*%
%TO.N,VCC*%
X64862500Y-57225000D03*
%TD*%
D18*
%TO.P,U1,1,REF*%
%TO.N,GNDS*%
X52100000Y-52200000D03*
%TO.P,U1,2,GND*%
X52750000Y-52200000D03*
%TO.P,U1,3,V+*%
%TO.N,VCC*%
X53400000Y-52200000D03*
%TO.P,U1,4,+*%
%TO.N,SENSE*%
X53400000Y-50300000D03*
%TO.P,U1,5,-*%
%TO.N,GND*%
X52750000Y-50300000D03*
%TO.P,U1,6*%
%TO.N,VOUT*%
X52100000Y-50300000D03*
%TD*%
D13*
%TO.P,Q15,1,G*%
%TO.N,/X_Control/G14A*%
X52950000Y-32362500D03*
%TO.P,Q15,2,S*%
%TO.N,SENSE*%
X52000000Y-32362500D03*
%TO.P,Q15,3,G*%
%TO.N,/X_Control/G14B*%
X51050000Y-32362500D03*
%TO.P,Q15,4,D*%
%TO.N,/X_Control/OUT14*%
X51050000Y-34637500D03*
%TO.P,Q15,5,S*%
X52000000Y-34637500D03*
%TO.P,Q15,6,D*%
%TO.N,VIN*%
X52950000Y-34637500D03*
%TD*%
D10*
%TO.P,J15,1,Pin_1*%
%TO.N,/Y_Control/OUT10*%
X76000000Y-37000000D03*
%TO.P,J15,2,Pin_2*%
%TO.N,/Y_Control/OUT11*%
X76000000Y-39500000D03*
%TD*%
D11*
%TO.P,R35,1*%
%TO.N,/Y_Control/G0B*%
X57000000Y-29010000D03*
%TO.P,R35,2*%
%TO.N,GNDS*%
X57000000Y-27990000D03*
%TD*%
%TO.P,R23,1*%
%TO.N,/X_Control/G10B*%
X45000000Y-29010000D03*
%TO.P,R23,2*%
%TO.N,GNDS*%
X45000000Y-27990000D03*
%TD*%
D10*
%TO.P,J13,1,Pin_1*%
%TO.N,/Y_Control/OUT6*%
X68000000Y-37000000D03*
%TO.P,J13,2,Pin_2*%
%TO.N,/Y_Control/OUT7*%
X68000000Y-39500000D03*
%TD*%
%TO.P,J4,1,Pin_1*%
%TO.N,/X_Control/OUT6*%
X36000000Y-37000000D03*
%TO.P,J4,2,Pin_2*%
%TO.N,/X_Control/OUT7*%
X36000000Y-39500000D03*
%TD*%
D13*
%TO.P,Q25,1,G*%
%TO.N,/Y_Control/G8A*%
X72950000Y-32362500D03*
%TO.P,Q25,2,S*%
%TO.N,SENSE*%
X72000000Y-32362500D03*
%TO.P,Q25,3,G*%
%TO.N,/Y_Control/G8B*%
X71050000Y-32362500D03*
%TO.P,Q25,4,D*%
%TO.N,/Y_Control/OUT8*%
X71050000Y-34637500D03*
%TO.P,Q25,5,S*%
X72000000Y-34637500D03*
%TO.P,Q25,6,D*%
%TO.N,VIN*%
X72950000Y-34637500D03*
%TD*%
D12*
%TO.P,R65,1*%
%TO.N,/Y_Control/G15B*%
X83000000Y-47490000D03*
%TO.P,R65,2*%
%TO.N,GNDS*%
X83000000Y-48510000D03*
%TD*%
D13*
%TO.P,Q11,1,G*%
%TO.N,/X_Control/G10A*%
X44950000Y-32362500D03*
%TO.P,Q11,2,S*%
%TO.N,SENSE*%
X44000000Y-32362500D03*
%TO.P,Q11,3,G*%
%TO.N,/X_Control/G10B*%
X43050000Y-32362500D03*
%TO.P,Q11,4,D*%
%TO.N,/X_Control/OUT10*%
X43050000Y-34637500D03*
%TO.P,Q11,5,S*%
X44000000Y-34637500D03*
%TO.P,Q11,6,D*%
%TO.N,VIN*%
X44950000Y-34637500D03*
%TD*%
D11*
%TO.P,R56,1*%
%TO.N,GNDS*%
X77000000Y-48510000D03*
%TO.P,R56,2*%
%TO.N,/Y_Control/G11A*%
X77000000Y-47490000D03*
%TD*%
D13*
%TO.P,Q13,1,G*%
%TO.N,/X_Control/G12A*%
X48950000Y-32362500D03*
%TO.P,Q13,2,S*%
%TO.N,SENSE*%
X48000000Y-32362500D03*
%TO.P,Q13,3,G*%
%TO.N,/X_Control/G12B*%
X47050000Y-32362500D03*
%TO.P,Q13,4,D*%
%TO.N,/X_Control/OUT12*%
X47050000Y-34637500D03*
%TO.P,Q13,5,S*%
X48000000Y-34637500D03*
%TO.P,Q13,6,D*%
%TO.N,VIN*%
X48950000Y-34637500D03*
%TD*%
D19*
%TO.P,D2,1,K*%
%TO.N,Net-(D2-K)*%
X83787500Y-68500000D03*
%TO.P,D2,2,A*%
%TO.N,PWM*%
X82212500Y-68500000D03*
%TD*%
D12*
%TO.P,R21,1*%
%TO.N,/X_Control/G9B*%
X39000000Y-47490000D03*
%TO.P,R21,2*%
%TO.N,GNDS*%
X39000000Y-48510000D03*
%TD*%
D20*
%TO.P,C11,1*%
%TO.N,GNDS*%
X57600000Y-56360000D03*
%TO.P,C11,2*%
%TO.N,VCC*%
X57600000Y-55400000D03*
%TD*%
D21*
%TO.P,Q8,1,G*%
%TO.N,/X_Control/G7A*%
X35050000Y-44137500D03*
%TO.P,Q8,2,S*%
%TO.N,SENSE*%
X36000000Y-44137500D03*
%TO.P,Q8,3,G*%
%TO.N,/X_Control/G7B*%
X36950000Y-44137500D03*
%TO.P,Q8,4,D*%
%TO.N,/X_Control/OUT7*%
X36950000Y-41862500D03*
%TO.P,Q8,5,S*%
X36000000Y-41862500D03*
%TO.P,Q8,6,D*%
%TO.N,VIN*%
X35050000Y-41862500D03*
%TD*%
D11*
%TO.P,R44,1*%
%TO.N,GNDS*%
X65000000Y-48510000D03*
%TO.P,R44,2*%
%TO.N,/Y_Control/G5A*%
X65000000Y-47490000D03*
%TD*%
D14*
%TO.P,C7,1*%
%TO.N,GNDS*%
X72750000Y-54750000D03*
%TO.P,C7,2*%
%TO.N,VCC*%
X73710000Y-54750000D03*
%TD*%
%TO.P,C1,2*%
%TO.N,VCC*%
X25680000Y-26400000D03*
%TO.P,C1,1*%
%TO.N,GNDS*%
X24720000Y-26400000D03*
%TD*%
D13*
%TO.P,Q3,1,G*%
%TO.N,/X_Control/G2A*%
X28950000Y-32362500D03*
%TO.P,Q3,2,S*%
%TO.N,SENSE*%
X28000000Y-32362500D03*
%TO.P,Q3,3,G*%
%TO.N,/X_Control/G2B*%
X27050000Y-32362500D03*
%TO.P,Q3,4,D*%
%TO.N,/X_Control/OUT2*%
X27050000Y-34637500D03*
%TO.P,Q3,5,S*%
X28000000Y-34637500D03*
%TO.P,Q3,6,D*%
%TO.N,VIN*%
X28950000Y-34637500D03*
%TD*%
D11*
%TO.P,R36,1*%
%TO.N,GNDS*%
X57000000Y-48510000D03*
%TO.P,R36,2*%
%TO.N,/Y_Control/G1A*%
X57000000Y-47490000D03*
%TD*%
%TO.P,R8,1*%
%TO.N,GNDS*%
X29000000Y-48510000D03*
%TO.P,R8,2*%
%TO.N,/X_Control/G3A*%
X29000000Y-47490000D03*
%TD*%
D13*
%TO.P,Q21,1,G*%
%TO.N,/Y_Control/G4A*%
X64950000Y-32362500D03*
%TO.P,Q21,2,S*%
%TO.N,SENSE*%
X64000000Y-32362500D03*
%TO.P,Q21,3,G*%
%TO.N,/Y_Control/G4B*%
X63050000Y-32362500D03*
%TO.P,Q21,4,D*%
%TO.N,/Y_Control/OUT4*%
X63050000Y-34637500D03*
%TO.P,Q21,5,S*%
X64000000Y-34637500D03*
%TO.P,Q21,6,D*%
%TO.N,VIN*%
X64950000Y-34637500D03*
%TD*%
D22*
%TO.P,R98,1*%
%TO.N,Net-(D1-K)*%
X84990000Y-65500000D03*
%TO.P,R98,2*%
%TO.N,GNDS*%
X86010000Y-65500000D03*
%TD*%
D11*
%TO.P,R40,1*%
%TO.N,GNDS*%
X61000000Y-48510000D03*
%TO.P,R40,2*%
%TO.N,/Y_Control/G3A*%
X61000000Y-47490000D03*
%TD*%
D13*
%TO.P,Q27,1,G*%
%TO.N,/Y_Control/G10A*%
X76950000Y-32362500D03*
%TO.P,Q27,2,S*%
%TO.N,SENSE*%
X76000000Y-32362500D03*
%TO.P,Q27,3,G*%
%TO.N,/Y_Control/G10B*%
X75050000Y-32362500D03*
%TO.P,Q27,4,D*%
%TO.N,/Y_Control/OUT10*%
X75050000Y-34637500D03*
%TO.P,Q27,5,S*%
X76000000Y-34637500D03*
%TO.P,Q27,6,D*%
%TO.N,VIN*%
X76950000Y-34637500D03*
%TD*%
D11*
%TO.P,R70,1*%
%TO.N,Net-(U12-A3)*%
X41000000Y-57010000D03*
%TO.P,R70,2*%
%TO.N,GNDS*%
X41000000Y-55990000D03*
%TD*%
D21*
%TO.P,Q22,1,G*%
%TO.N,/Y_Control/G5A*%
X63050000Y-44137500D03*
%TO.P,Q22,2,S*%
%TO.N,SENSE*%
X64000000Y-44137500D03*
%TO.P,Q22,3,G*%
%TO.N,/Y_Control/G5B*%
X64950000Y-44137500D03*
%TO.P,Q22,4,D*%
%TO.N,/Y_Control/OUT5*%
X64950000Y-41862500D03*
%TO.P,Q22,5,S*%
X64000000Y-41862500D03*
%TO.P,Q22,6,D*%
%TO.N,VIN*%
X63050000Y-41862500D03*
%TD*%
D10*
%TO.P,J6,1,Pin_1*%
%TO.N,/X_Control/OUT10*%
X44000000Y-37000000D03*
%TO.P,J6,2,Pin_2*%
%TO.N,/X_Control/OUT11*%
X44000000Y-39500000D03*
%TD*%
D22*
%TO.P,R71,1*%
%TO.N,Net-(U13-A0)*%
X82890000Y-59200000D03*
%TO.P,R71,2*%
%TO.N,GNDS*%
X83910000Y-59200000D03*
%TD*%
D10*
%TO.P,J7,1,Pin_1*%
%TO.N,/X_Control/OUT12*%
X48000000Y-37000000D03*
%TO.P,J7,2,Pin_2*%
%TO.N,/X_Control/OUT13*%
X48000000Y-39500000D03*
%TD*%
D12*
%TO.P,R57,1*%
%TO.N,/Y_Control/G11B*%
X75000000Y-47490000D03*
%TO.P,R57,2*%
%TO.N,GNDS*%
X75000000Y-48510000D03*
%TD*%
D15*
%TO.P,C12,1*%
%TO.N,GNDS*%
X35250000Y-57250000D03*
%TO.P,C12,2*%
%TO.N,VCC*%
X34290000Y-57250000D03*
%TD*%
D12*
%TO.P,R62,1*%
%TO.N,GNDS*%
X83000000Y-27990000D03*
%TO.P,R62,2*%
%TO.N,/Y_Control/G14A*%
X83000000Y-29010000D03*
%TD*%
D21*
%TO.P,Q12,1,G*%
%TO.N,/X_Control/G11A*%
X43050000Y-44137500D03*
%TO.P,Q12,2,S*%
%TO.N,SENSE*%
X44000000Y-44137500D03*
%TO.P,Q12,3,G*%
%TO.N,/X_Control/G11B*%
X44950000Y-44137500D03*
%TO.P,Q12,4,D*%
%TO.N,/X_Control/OUT11*%
X44950000Y-41862500D03*
%TO.P,Q12,5,S*%
X44000000Y-41862500D03*
%TO.P,Q12,6,D*%
%TO.N,VIN*%
X43050000Y-41862500D03*
%TD*%
D11*
%TO.P,R20,1*%
%TO.N,GNDS*%
X41000000Y-48510000D03*
%TO.P,R20,2*%
%TO.N,/X_Control/G9A*%
X41000000Y-47490000D03*
%TD*%
%TO.P,R19,1*%
%TO.N,/X_Control/G8B*%
X41000000Y-29010000D03*
%TO.P,R19,2*%
%TO.N,GNDS*%
X41000000Y-27990000D03*
%TD*%
D10*
%TO.P,J3,1,Pin_1*%
%TO.N,/X_Control/OUT4*%
X32000000Y-37000000D03*
%TO.P,J3,2,Pin_2*%
%TO.N,/X_Control/OUT5*%
X32000000Y-39500000D03*
%TD*%
D12*
%TO.P,R38,1*%
%TO.N,GNDS*%
X59000000Y-27990000D03*
%TO.P,R38,2*%
%TO.N,/Y_Control/G2A*%
X59000000Y-29010000D03*
%TD*%
D21*
%TO.P,Q30,1,G*%
%TO.N,/Y_Control/G13A*%
X79050000Y-44137500D03*
%TO.P,Q30,2,S*%
%TO.N,SENSE*%
X80000000Y-44137500D03*
%TO.P,Q30,3,G*%
%TO.N,/Y_Control/G13B*%
X80950000Y-44137500D03*
%TO.P,Q30,4,D*%
%TO.N,/Y_Control/OUT13*%
X80950000Y-41862500D03*
%TO.P,Q30,5,S*%
X80000000Y-41862500D03*
%TO.P,Q30,6,D*%
%TO.N,VIN*%
X79050000Y-41862500D03*
%TD*%
D12*
%TO.P,R45,1*%
%TO.N,/Y_Control/G5B*%
X63000000Y-47480000D03*
%TO.P,R45,2*%
%TO.N,GNDS*%
X63000000Y-48500000D03*
%TD*%
D21*
%TO.P,Q14,1,G*%
%TO.N,/X_Control/G13A*%
X47050000Y-44137500D03*
%TO.P,Q14,2,S*%
%TO.N,SENSE*%
X48000000Y-44137500D03*
%TO.P,Q14,3,G*%
%TO.N,/X_Control/G13B*%
X48950000Y-44137500D03*
%TO.P,Q14,4,D*%
%TO.N,/X_Control/OUT13*%
X48950000Y-41862500D03*
%TO.P,Q14,5,S*%
X48000000Y-41862500D03*
%TO.P,Q14,6,D*%
%TO.N,VIN*%
X47050000Y-41862500D03*
%TD*%
D12*
%TO.P,R6,1*%
%TO.N,GNDS*%
X27000000Y-27990000D03*
%TO.P,R6,2*%
%TO.N,/X_Control/G2A*%
X27000000Y-29010000D03*
%TD*%
%TO.P,R9,1*%
%TO.N,/X_Control/G3B*%
X27000000Y-47490000D03*
%TO.P,R9,2*%
%TO.N,GNDS*%
X27000000Y-48510000D03*
%TD*%
%TO.P,R22,1*%
%TO.N,GNDS*%
X43000000Y-27990000D03*
%TO.P,R22,2*%
%TO.N,/X_Control/G10A*%
X43000000Y-29010000D03*
%TD*%
%TO.P,R25,1*%
%TO.N,/X_Control/G11B*%
X43000000Y-47490000D03*
%TO.P,R25,2*%
%TO.N,GNDS*%
X43000000Y-48510000D03*
%TD*%
%TO.P,R54,1*%
%TO.N,GNDS*%
X75000000Y-27990000D03*
%TO.P,R54,2*%
%TO.N,/Y_Control/G10A*%
X75000000Y-29010000D03*
%TD*%
D22*
%TO.P,R74,1*%
%TO.N,Net-(U10-A)*%
X82890000Y-60900000D03*
%TO.P,R74,2*%
%TO.N,GNDS*%
X83910000Y-60900000D03*
%TD*%
D10*
%TO.P,J2,1,Pin_1*%
%TO.N,/X_Control/OUT2*%
X28000000Y-37000000D03*
%TO.P,J2,2,Pin_2*%
%TO.N,/X_Control/OUT3*%
X28000000Y-39500000D03*
%TD*%
D16*
%TO.P,U10,1,A4*%
%TO.N,/Y_Control/G13A*%
X80862500Y-54775000D03*
%TO.P,U10,2,A6*%
%TO.N,/Y_Control/G15A*%
X80862500Y-54125000D03*
%TO.P,U10,3,A*%
%TO.N,Net-(U10-A)*%
X80862500Y-53475000D03*
%TO.P,U10,4,A7*%
%TO.N,/Y_Control/G15B*%
X80862500Y-52825000D03*
%TO.P,U10,5,A5*%
%TO.N,/Y_Control/G13B*%
X80862500Y-52175000D03*
%TO.P,U10,6,~{E}*%
%TO.N,GNDS*%
X80862500Y-51525000D03*
%TO.P,U10,7,VEE*%
X80862500Y-50875000D03*
%TO.P,U10,8,GND*%
X80862500Y-50225000D03*
%TO.P,U10,9,S2*%
%TO.N,/Y_Control/S2*%
X75137500Y-50225000D03*
%TO.P,U10,10,S1*%
%TO.N,/Y_Control/S1*%
X75137500Y-50875000D03*
%TO.P,U10,11,S0*%
%TO.N,/Y_Control/DIR*%
X75137500Y-51525000D03*
%TO.P,U10,12,A3*%
%TO.N,/Y_Control/G11B*%
X75137500Y-52175000D03*
%TO.P,U10,13,A0*%
%TO.N,/Y_Control/G9A*%
X75137500Y-52825000D03*
%TO.P,U10,14,A1*%
%TO.N,/Y_Control/G9B*%
X75137500Y-53475000D03*
%TO.P,U10,15,A2*%
%TO.N,/Y_Control/G11A*%
X75137500Y-54125000D03*
%TO.P,U10,16,VCC*%
%TO.N,VCC*%
X75137500Y-54775000D03*
%TD*%
D14*
%TO.P,C5,1*%
%TO.N,GNDS*%
X40750000Y-54750000D03*
%TO.P,C5,2*%
%TO.N,VCC*%
X41710000Y-54750000D03*
%TD*%
D12*
%TO.P,R29,1*%
%TO.N,/X_Control/G13B*%
X47000000Y-47490000D03*
%TO.P,R29,2*%
%TO.N,GNDS*%
X47000000Y-48510000D03*
%TD*%
D21*
%TO.P,Q32,1,G*%
%TO.N,/Y_Control/G15A*%
X83050000Y-44137500D03*
%TO.P,Q32,2,S*%
%TO.N,SENSE*%
X84000000Y-44137500D03*
%TO.P,Q32,3,G*%
%TO.N,/Y_Control/G15B*%
X84950000Y-44137500D03*
%TO.P,Q32,4,D*%
%TO.N,/Y_Control/OUT15*%
X84950000Y-41862500D03*
%TO.P,Q32,5,S*%
X84000000Y-41862500D03*
%TO.P,Q32,6,D*%
%TO.N,VIN*%
X83050000Y-41862500D03*
%TD*%
D12*
%TO.P,R50,1*%
%TO.N,GNDS*%
X71000000Y-27990000D03*
%TO.P,R50,2*%
%TO.N,/Y_Control/G8A*%
X71000000Y-29010000D03*
%TD*%
D13*
%TO.P,Q31,1,G*%
%TO.N,/Y_Control/G14A*%
X84950000Y-32362500D03*
%TO.P,Q31,2,S*%
%TO.N,SENSE*%
X84000000Y-32362500D03*
%TO.P,Q31,3,G*%
%TO.N,/Y_Control/G14B*%
X83050000Y-32362500D03*
%TO.P,Q31,4,D*%
%TO.N,/Y_Control/OUT14*%
X83050000Y-34637500D03*
%TO.P,Q31,5,S*%
X84000000Y-34637500D03*
%TO.P,Q31,6,D*%
%TO.N,VIN*%
X84950000Y-34637500D03*
%TD*%
D11*
%TO.P,R55,1*%
%TO.N,/Y_Control/G10B*%
X77000000Y-29010000D03*
%TO.P,R55,2*%
%TO.N,GNDS*%
X77000000Y-27990000D03*
%TD*%
D21*
%TO.P,Q20,1,G*%
%TO.N,/Y_Control/G3A*%
X59050000Y-44137500D03*
%TO.P,Q20,2,S*%
%TO.N,SENSE*%
X60000000Y-44137500D03*
%TO.P,Q20,3,G*%
%TO.N,/Y_Control/G3B*%
X60950000Y-44137500D03*
%TO.P,Q20,4,D*%
%TO.N,/Y_Control/OUT3*%
X60950000Y-41862500D03*
%TO.P,Q20,5,S*%
X60000000Y-41862500D03*
%TO.P,Q20,6,D*%
%TO.N,VIN*%
X59050000Y-41862500D03*
%TD*%
D12*
%TO.P,R17,1*%
%TO.N,/X_Control/G7B*%
X35000000Y-47490000D03*
%TO.P,R17,2*%
%TO.N,GNDS*%
X35000000Y-48510000D03*
%TD*%
%TO.P,R14,1*%
%TO.N,GNDS*%
X35000000Y-27990000D03*
%TO.P,R14,2*%
%TO.N,/X_Control/G6A*%
X35000000Y-29010000D03*
%TD*%
D21*
%TO.P,Q2,1,G*%
%TO.N,/X_Control/G1A*%
X23050000Y-44137500D03*
%TO.P,Q2,2,S*%
%TO.N,SENSE*%
X24000000Y-44137500D03*
%TO.P,Q2,3,G*%
%TO.N,/X_Control/G1B*%
X24950000Y-44137500D03*
%TO.P,Q2,4,D*%
%TO.N,/X_Control/OUT1*%
X24950000Y-41862500D03*
%TO.P,Q2,5,S*%
X24000000Y-41862500D03*
%TO.P,Q2,6,D*%
%TO.N,VIN*%
X23050000Y-41862500D03*
%TD*%
D13*
%TO.P,Q9,1,G*%
%TO.N,/X_Control/G8A*%
X40950000Y-32362500D03*
%TO.P,Q9,2,S*%
%TO.N,SENSE*%
X40000000Y-32362500D03*
%TO.P,Q9,3,G*%
%TO.N,/X_Control/G8B*%
X39050000Y-32362500D03*
%TO.P,Q9,4,D*%
%TO.N,/X_Control/OUT8*%
X39050000Y-34637500D03*
%TO.P,Q9,5,S*%
X40000000Y-34637500D03*
%TO.P,Q9,6,D*%
%TO.N,VIN*%
X40950000Y-34637500D03*
%TD*%
D12*
%TO.P,R42,1*%
%TO.N,GNDS*%
X63000000Y-27990000D03*
%TO.P,R42,2*%
%TO.N,/Y_Control/G4A*%
X63000000Y-29010000D03*
%TD*%
D11*
%TO.P,R43,1*%
%TO.N,/Y_Control/G4B*%
X65000000Y-29010000D03*
%TO.P,R43,2*%
%TO.N,GNDS*%
X65000000Y-27990000D03*
%TD*%
%TO.P,R59,1*%
%TO.N,/Y_Control/G12B*%
X81000000Y-29000000D03*
%TO.P,R59,2*%
%TO.N,GNDS*%
X81000000Y-27980000D03*
%TD*%
D21*
%TO.P,Q4,1,G*%
%TO.N,/X_Control/G3A*%
X27050000Y-44137500D03*
%TO.P,Q4,2,S*%
%TO.N,SENSE*%
X28000000Y-44137500D03*
%TO.P,Q4,3,G*%
%TO.N,/X_Control/G3B*%
X28950000Y-44137500D03*
%TO.P,Q4,4,D*%
%TO.N,/X_Control/OUT3*%
X28950000Y-41862500D03*
%TO.P,Q4,5,S*%
X28000000Y-41862500D03*
%TO.P,Q4,6,D*%
%TO.N,VIN*%
X27050000Y-41862500D03*
%TD*%
D13*
%TO.P,Q7,1,G*%
%TO.N,/X_Control/G6A*%
X36950000Y-32362500D03*
%TO.P,Q7,2,S*%
%TO.N,SENSE*%
X36000000Y-32362500D03*
%TO.P,Q7,3,G*%
%TO.N,/X_Control/G6B*%
X35050000Y-32362500D03*
%TO.P,Q7,4,D*%
%TO.N,/X_Control/OUT6*%
X35050000Y-34637500D03*
%TO.P,Q7,5,S*%
X36000000Y-34637500D03*
%TO.P,Q7,6,D*%
%TO.N,VIN*%
X36950000Y-34637500D03*
%TD*%
%TO.P,Q29,1,G*%
%TO.N,/Y_Control/G12A*%
X80950000Y-32362500D03*
%TO.P,Q29,2,S*%
%TO.N,SENSE*%
X80000000Y-32362500D03*
%TO.P,Q29,3,G*%
%TO.N,/Y_Control/G12B*%
X79050000Y-32362500D03*
%TO.P,Q29,4,D*%
%TO.N,/Y_Control/OUT12*%
X79050000Y-34637500D03*
%TO.P,Q29,5,S*%
X80000000Y-34637500D03*
%TO.P,Q29,6,D*%
%TO.N,VIN*%
X80950000Y-34637500D03*
%TD*%
D12*
%TO.P,R49,1*%
%TO.N,/Y_Control/G7B*%
X67000000Y-47480000D03*
%TO.P,R49,2*%
%TO.N,GNDS*%
X67000000Y-48500000D03*
%TD*%
%TO.P,R2,1*%
%TO.N,GNDS*%
X23000000Y-27990000D03*
%TO.P,R2,2*%
%TO.N,/X_Control/G0A*%
X23000000Y-29010000D03*
%TD*%
D21*
%TO.P,Q16,1,G*%
%TO.N,/X_Control/G15A*%
X51050000Y-44137500D03*
%TO.P,Q16,2,S*%
%TO.N,SENSE*%
X52000000Y-44137500D03*
%TO.P,Q16,3,G*%
%TO.N,/X_Control/G15B*%
X52950000Y-44137500D03*
%TO.P,Q16,4,D*%
%TO.N,/X_Control/OUT15*%
X52950000Y-41862500D03*
%TO.P,Q16,5,S*%
X52000000Y-41862500D03*
%TO.P,Q16,6,D*%
%TO.N,VIN*%
X51050000Y-41862500D03*
%TD*%
D12*
%TO.P,R33,1*%
%TO.N,/X_Control/G15B*%
X51000000Y-47490000D03*
%TO.P,R33,2*%
%TO.N,GNDS*%
X51000000Y-48510000D03*
%TD*%
%TO.P,R26,1*%
%TO.N,GNDS*%
X47000000Y-27990000D03*
%TO.P,R26,2*%
%TO.N,/X_Control/G12A*%
X47000000Y-29010000D03*
%TD*%
D20*
%TO.P,C18,1*%
%TO.N,GND*%
X57300000Y-54280000D03*
%TO.P,C18,2*%
%TO.N,SENSE*%
X57300000Y-53320000D03*
%TD*%
D17*
%TO.P,U13,1,A4*%
%TO.N,unconnected-(U13-A4-Pad1)*%
X75137500Y-57225000D03*
%TO.P,U13,2,A6*%
%TO.N,unconnected-(U13-A6-Pad2)*%
X75137500Y-57875000D03*
%TO.P,U13,3,A*%
%TO.N,PWM*%
X75137500Y-58525000D03*
%TO.P,U13,4,A7*%
%TO.N,unconnected-(U13-A7-Pad4)*%
X75137500Y-59175000D03*
%TO.P,U13,5,A5*%
%TO.N,unconnected-(U13-A5-Pad5)*%
X75137500Y-59825000D03*
%TO.P,U13,6,~{E}*%
%TO.N,GNDS*%
X75137500Y-60475000D03*
%TO.P,U13,7,VEE*%
X75137500Y-61125000D03*
%TO.P,U13,8,GND*%
X75137500Y-61775000D03*
%TO.P,U13,9,S2*%
X80862500Y-61775000D03*
%TO.P,U13,10,S1*%
%TO.N,/Y_Control/S0*%
X80862500Y-61125000D03*
%TO.P,U13,11,S0*%
%TO.N,/Y_Control/S3*%
X80862500Y-60475000D03*
%TO.P,U13,12,A3*%
%TO.N,Net-(U10-A)*%
X80862500Y-59825000D03*
%TO.P,U13,13,A0*%
%TO.N,Net-(U13-A0)*%
X80862500Y-59175000D03*
%TO.P,U13,14,A1*%
%TO.N,Net-(U13-A1)*%
X80862500Y-58525000D03*
%TO.P,U13,15,A2*%
%TO.N,Net-(U13-A2)*%
X80862500Y-57875000D03*
%TO.P,U13,16,VCC*%
%TO.N,VCC*%
X80862500Y-57225000D03*
%TD*%
D12*
%TO.P,R46,1*%
%TO.N,GNDS*%
X67000000Y-27990000D03*
%TO.P,R46,2*%
%TO.N,/Y_Control/G6A*%
X67000000Y-29010000D03*
%TD*%
%TO.P,R10,1*%
%TO.N,GNDS*%
X31000000Y-27990000D03*
%TO.P,R10,2*%
%TO.N,/X_Control/G4A*%
X31000000Y-29010000D03*
%TD*%
D11*
%TO.P,R3,1*%
%TO.N,/X_Control/G0B*%
X25000000Y-29010000D03*
%TO.P,R3,2*%
%TO.N,GNDS*%
X25000000Y-27990000D03*
%TD*%
D21*
%TO.P,Q24,1,G*%
%TO.N,/Y_Control/G7A*%
X67050000Y-44137500D03*
%TO.P,Q24,2,S*%
%TO.N,SENSE*%
X68000000Y-44137500D03*
%TO.P,Q24,3,G*%
%TO.N,/Y_Control/G7B*%
X68950000Y-44137500D03*
%TO.P,Q24,4,D*%
%TO.N,/Y_Control/OUT7*%
X68950000Y-41862500D03*
%TO.P,Q24,5,S*%
X68000000Y-41862500D03*
%TO.P,Q24,6,D*%
%TO.N,VIN*%
X67050000Y-41862500D03*
%TD*%
D23*
%TO.P,R1,1*%
%TO.N,SENSE*%
X55500000Y-50787500D03*
%TO.P,R1,2*%
%TO.N,GND*%
X55500000Y-53712500D03*
%TD*%
D20*
%TO.P,C17,1*%
%TO.N,GNDS*%
X53400000Y-54260000D03*
%TO.P,C17,2*%
%TO.N,VCC*%
X53400000Y-53300000D03*
%TD*%
D12*
%TO.P,R30,1*%
%TO.N,GNDS*%
X51000000Y-27990000D03*
%TO.P,R30,2*%
%TO.N,/X_Control/G14A*%
X51000000Y-29010000D03*
%TD*%
D16*
%TO.P,U9,1,A4*%
%TO.N,/Y_Control/G5A*%
X64862500Y-54775000D03*
%TO.P,U9,2,A6*%
%TO.N,/Y_Control/G7A*%
X64862500Y-54125000D03*
%TO.P,U9,3,A*%
%TO.N,Net-(U13-A2)*%
X64862500Y-53475000D03*
%TO.P,U9,4,A7*%
%TO.N,/Y_Control/G7B*%
X64862500Y-52825000D03*
%TO.P,U9,5,A5*%
%TO.N,/Y_Control/G5B*%
X64862500Y-52175000D03*
%TO.P,U9,6,~{E}*%
%TO.N,GNDS*%
X64862500Y-51525000D03*
%TO.P,U9,7,VEE*%
X64862500Y-50875000D03*
%TO.P,U9,8,GND*%
X64862500Y-50225000D03*
%TO.P,U9,9,S2*%
%TO.N,/Y_Control/S2*%
X59137500Y-50225000D03*
%TO.P,U9,10,S1*%
%TO.N,/Y_Control/S1*%
X59137500Y-50875000D03*
%TO.P,U9,11,S0*%
%TO.N,/Y_Control/DIR*%
X59137500Y-51525000D03*
%TO.P,U9,12,A3*%
%TO.N,/Y_Control/G3B*%
X59137500Y-52175000D03*
%TO.P,U9,13,A0*%
%TO.N,/Y_Control/G1A*%
X59137500Y-52825000D03*
%TO.P,U9,14,A1*%
%TO.N,/Y_Control/G1B*%
X59137500Y-53475000D03*
%TO.P,U9,15,A2*%
%TO.N,/Y_Control/G3A*%
X59137500Y-54125000D03*
%TO.P,U9,16,VCC*%
%TO.N,VCC*%
X59137500Y-54775000D03*
%TD*%
D12*
%TO.P,R73,1*%
%TO.N,Net-(U13-A2)*%
X70000000Y-55990000D03*
%TO.P,R73,2*%
%TO.N,GNDS*%
X70000000Y-57010000D03*
%TD*%
D19*
%TO.P,D1,1,K*%
%TO.N,Net-(D1-K)*%
X83787500Y-65500000D03*
%TO.P,D1,2,A*%
%TO.N,VCC*%
X82212500Y-65500000D03*
%TD*%
D11*
%TO.P,R39,1*%
%TO.N,/Y_Control/G2B*%
X61000000Y-29010000D03*
%TO.P,R39,2*%
%TO.N,GNDS*%
X61000000Y-27990000D03*
%TD*%
D16*
%TO.P,U3,1,A4*%
%TO.N,/X_Control/G12A*%
X48862500Y-26275000D03*
%TO.P,U3,2,A6*%
%TO.N,/X_Control/G14A*%
X48862500Y-25625000D03*
%TO.P,U3,3,A*%
%TO.N,Net-(U12-A1)*%
X48862500Y-24975000D03*
%TO.P,U3,4,A7*%
%TO.N,/X_Control/G14B*%
X48862500Y-24325000D03*
%TO.P,U3,5,A5*%
%TO.N,/X_Control/G12B*%
X48862500Y-23675000D03*
%TO.P,U3,6,~{E}*%
%TO.N,GNDS*%
X48862500Y-23025000D03*
%TO.P,U3,7,VEE*%
X48862500Y-22375000D03*
%TO.P,U3,8,GND*%
X48862500Y-21725000D03*
%TO.P,U3,9,S2*%
%TO.N,/X_Control/S2*%
X43137500Y-21725000D03*
%TO.P,U3,10,S1*%
%TO.N,/X_Control/S1*%
X43137500Y-22375000D03*
%TO.P,U3,11,S0*%
%TO.N,/X_Control/DIR*%
X43137500Y-23025000D03*
%TO.P,U3,12,A3*%
%TO.N,/X_Control/G10B*%
X43137500Y-23675000D03*
%TO.P,U3,13,A0*%
%TO.N,/X_Control/G8A*%
X43137500Y-24325000D03*
%TO.P,U3,14,A1*%
%TO.N,/X_Control/G8B*%
X43137500Y-24975000D03*
%TO.P,U3,15,A2*%
%TO.N,/X_Control/G10A*%
X43137500Y-25625000D03*
%TO.P,U3,16,VCC*%
%TO.N,VCC*%
X43137500Y-26275000D03*
%TD*%
D12*
%TO.P,R37,1*%
%TO.N,/Y_Control/G1B*%
X55000000Y-47490000D03*
%TO.P,R37,2*%
%TO.N,GNDS*%
X55000000Y-48510000D03*
%TD*%
%TO.P,R61,1*%
%TO.N,/Y_Control/G13B*%
X79000000Y-47490000D03*
%TO.P,R61,2*%
%TO.N,GNDS*%
X79000000Y-48510000D03*
%TD*%
%TO.P,R58,1*%
%TO.N,GNDS*%
X79000000Y-27990000D03*
%TO.P,R58,2*%
%TO.N,/Y_Control/G12A*%
X79000000Y-29010000D03*
%TD*%
D13*
%TO.P,Q17,1,G*%
%TO.N,/Y_Control/G0A*%
X56950000Y-32362500D03*
%TO.P,Q17,2,S*%
%TO.N,SENSE*%
X56000000Y-32362500D03*
%TO.P,Q17,3,G*%
%TO.N,/Y_Control/G0B*%
X55050000Y-32362500D03*
%TO.P,Q17,4,D*%
%TO.N,/Y_Control/OUT0*%
X55050000Y-34637500D03*
%TO.P,Q17,5,S*%
X56000000Y-34637500D03*
%TO.P,Q17,6,D*%
%TO.N,VIN*%
X56950000Y-34637500D03*
%TD*%
D22*
%TO.P,R68,1*%
%TO.N,Net-(U12-A1)*%
X37390000Y-59200000D03*
%TO.P,R68,2*%
%TO.N,GNDS*%
X38410000Y-59200000D03*
%TD*%
D11*
%TO.P,R31,1*%
%TO.N,/X_Control/G14B*%
X53000000Y-29010000D03*
%TO.P,R31,2*%
%TO.N,GNDS*%
X53000000Y-27990000D03*
%TD*%
D16*
%TO.P,U5,1,A4*%
%TO.N,/X_Control/G13A*%
X48862500Y-54775000D03*
%TO.P,U5,2,A6*%
%TO.N,/X_Control/G15A*%
X48862500Y-54125000D03*
%TO.P,U5,3,A*%
%TO.N,Net-(U12-A3)*%
X48862500Y-53475000D03*
%TO.P,U5,4,A7*%
%TO.N,/X_Control/G15B*%
X48862500Y-52825000D03*
%TO.P,U5,5,A5*%
%TO.N,/X_Control/G13B*%
X48862500Y-52175000D03*
%TO.P,U5,6,~{E}*%
%TO.N,GNDS*%
X48862500Y-51525000D03*
%TO.P,U5,7,VEE*%
X48862500Y-50875000D03*
%TO.P,U5,8,GND*%
X48862500Y-50225000D03*
%TO.P,U5,9,S2*%
%TO.N,/X_Control/S2*%
X43137500Y-50225000D03*
%TO.P,U5,10,S1*%
%TO.N,/X_Control/S1*%
X43137500Y-50875000D03*
%TO.P,U5,11,S0*%
%TO.N,/X_Control/DIR*%
X43137500Y-51525000D03*
%TO.P,U5,12,A3*%
%TO.N,/X_Control/G11B*%
X43137500Y-52175000D03*
%TO.P,U5,13,A0*%
%TO.N,/X_Control/G9A*%
X43137500Y-52825000D03*
%TO.P,U5,14,A1*%
%TO.N,/X_Control/G9B*%
X43137500Y-53475000D03*
%TO.P,U5,15,A2*%
%TO.N,/X_Control/G11A*%
X43137500Y-54125000D03*
%TO.P,U5,16,VCC*%
%TO.N,VCC*%
X43137500Y-54775000D03*
%TD*%
%TO.P,U7,1,A4*%
%TO.N,/Y_Control/G4A*%
X64862500Y-26275000D03*
%TO.P,U7,2,A6*%
%TO.N,/Y_Control/G6A*%
X64862500Y-25625000D03*
%TO.P,U7,3,A*%
%TO.N,Net-(U13-A0)*%
X64862500Y-24975000D03*
%TO.P,U7,4,A7*%
%TO.N,/Y_Control/G6B*%
X64862500Y-24325000D03*
%TO.P,U7,5,A5*%
%TO.N,/Y_Control/G4B*%
X64862500Y-23675000D03*
%TO.P,U7,6,~{E}*%
%TO.N,GNDS*%
X64862500Y-23025000D03*
%TO.P,U7,7,VEE*%
X64862500Y-22375000D03*
%TO.P,U7,8,GND*%
X64862500Y-21725000D03*
%TO.P,U7,9,S2*%
%TO.N,/Y_Control/S2*%
X59137500Y-21725000D03*
%TO.P,U7,10,S1*%
%TO.N,/Y_Control/S1*%
X59137500Y-22375000D03*
%TO.P,U7,11,S0*%
%TO.N,/Y_Control/DIR*%
X59137500Y-23025000D03*
%TO.P,U7,12,A3*%
%TO.N,/Y_Control/G2B*%
X59137500Y-23675000D03*
%TO.P,U7,13,A0*%
%TO.N,/Y_Control/G0A*%
X59137500Y-24325000D03*
%TO.P,U7,14,A1*%
%TO.N,/Y_Control/G0B*%
X59137500Y-24975000D03*
%TO.P,U7,15,A2*%
%TO.N,/Y_Control/G2A*%
X59137500Y-25625000D03*
%TO.P,U7,16,VCC*%
%TO.N,VCC*%
X59137500Y-26275000D03*
%TD*%
D21*
%TO.P,Q18,1,G*%
%TO.N,/Y_Control/G1A*%
X55050000Y-44137500D03*
%TO.P,Q18,2,S*%
%TO.N,SENSE*%
X56000000Y-44137500D03*
%TO.P,Q18,3,G*%
%TO.N,/Y_Control/G1B*%
X56950000Y-44137500D03*
%TO.P,Q18,4,D*%
%TO.N,/Y_Control/OUT1*%
X56950000Y-41862500D03*
%TO.P,Q18,5,S*%
X56000000Y-41862500D03*
%TO.P,Q18,6,D*%
%TO.N,VIN*%
X55050000Y-41862500D03*
%TD*%
D22*
%TO.P,R67,1*%
%TO.N,Net-(U12-A0)*%
X34290000Y-59200000D03*
%TO.P,R67,2*%
%TO.N,GNDS*%
X35310000Y-59200000D03*
%TD*%
D24*
%TO.P,C19,1*%
%TO.N,VIN*%
X22882323Y-67750000D03*
D10*
%TO.P,C19,2*%
%TO.N,GND*%
X27882323Y-67750000D03*
%TD*%
D11*
%TO.P,R52,1*%
%TO.N,GNDS*%
X73000000Y-48510000D03*
%TO.P,R52,2*%
%TO.N,/Y_Control/G9A*%
X73000000Y-47490000D03*
%TD*%
%TO.P,R7,1*%
%TO.N,/X_Control/G2B*%
X29000000Y-29010000D03*
%TO.P,R7,2*%
%TO.N,GNDS*%
X29000000Y-27990000D03*
%TD*%
D15*
%TO.P,C9,1*%
%TO.N,GNDS*%
X51250000Y-57250000D03*
%TO.P,C9,2*%
%TO.N,VCC*%
X50290000Y-57250000D03*
%TD*%
%TO.P,C10,1*%
%TO.N,GNDS*%
X67250000Y-57250000D03*
%TO.P,C10,2*%
%TO.N,VCC*%
X66290000Y-57250000D03*
%TD*%
D10*
%TO.P,J11,1,Pin_1*%
%TO.N,/Y_Control/OUT2*%
X60000000Y-37000000D03*
%TO.P,J11,2,Pin_2*%
%TO.N,/Y_Control/OUT3*%
X60000000Y-39500000D03*
%TD*%
D11*
%TO.P,R27,1*%
%TO.N,/X_Control/G12B*%
X49000000Y-29010000D03*
%TO.P,R27,2*%
%TO.N,GNDS*%
X49000000Y-27990000D03*
%TD*%
D22*
%TO.P,R99,1*%
%TO.N,Net-(D2-K)*%
X84990000Y-68500000D03*
%TO.P,R99,2*%
%TO.N,GNDS*%
X86010000Y-68500000D03*
%TD*%
D19*
%TO.P,D3,1,K*%
%TO.N,Net-(D3-K)*%
X83787500Y-71500000D03*
%TO.P,D3,2,A*%
%TO.N,CLK*%
X82212500Y-71500000D03*
%TD*%
D13*
%TO.P,Q19,1,G*%
%TO.N,/Y_Control/G2A*%
X60950000Y-32362500D03*
%TO.P,Q19,2,S*%
%TO.N,SENSE*%
X60000000Y-32362500D03*
%TO.P,Q19,3,G*%
%TO.N,/Y_Control/G2B*%
X59050000Y-32362500D03*
%TO.P,Q19,4,D*%
%TO.N,/Y_Control/OUT2*%
X59050000Y-34637500D03*
%TO.P,Q19,5,S*%
X60000000Y-34637500D03*
%TO.P,Q19,6,D*%
%TO.N,VIN*%
X60950000Y-34637500D03*
%TD*%
D10*
%TO.P,J10,1,Pin_1*%
%TO.N,/Y_Control/OUT0*%
X56000000Y-37000000D03*
%TO.P,J10,2,Pin_2*%
%TO.N,/Y_Control/OUT1*%
X56000000Y-39500000D03*
%TD*%
D14*
%TO.P,C6,1*%
%TO.N,GNDS*%
X24750000Y-54750000D03*
%TO.P,C6,2*%
%TO.N,VCC*%
X25710000Y-54750000D03*
%TD*%
D25*
%TO.P,J9,1,Pin_1*%
%TO.N,GND*%
X43840000Y-70475000D03*
D26*
%TO.P,J9,2,Pin_2*%
%TO.N,VIN*%
X46380000Y-70475000D03*
%TO.P,J9,3,Pin_3*%
%TO.N,GNDS*%
X48920000Y-70475000D03*
%TO.P,J9,4,Pin_4*%
%TO.N,VCC*%
X51460000Y-70475000D03*
%TO.P,J9,5,Pin_5*%
%TO.N,SERX*%
X54000000Y-70475000D03*
%TO.P,J9,6,Pin_6*%
%TO.N,SERY*%
X56540000Y-70475000D03*
%TO.P,J9,7,Pin_7*%
%TO.N,CLK*%
X59080000Y-70475000D03*
%TO.P,J9,8,Pin_8*%
%TO.N,RCLK*%
X61620000Y-70475000D03*
%TO.P,J9,9,Pin_9*%
%TO.N,PWM*%
X64160000Y-70475000D03*
%TO.P,J9,10,Pin_10*%
%TO.N,VOUT*%
X66700000Y-70475000D03*
%TD*%
D11*
%TO.P,R47,1*%
%TO.N,/Y_Control/G6B*%
X69000000Y-29010000D03*
%TO.P,R47,2*%
%TO.N,GNDS*%
X69000000Y-27990000D03*
%TD*%
D21*
%TO.P,Q10,1,G*%
%TO.N,/X_Control/G9A*%
X39050000Y-44137500D03*
%TO.P,Q10,2,S*%
%TO.N,SENSE*%
X40000000Y-44137500D03*
%TO.P,Q10,3,G*%
%TO.N,/X_Control/G9B*%
X40950000Y-44137500D03*
%TO.P,Q10,4,D*%
%TO.N,/X_Control/OUT9*%
X40950000Y-41862500D03*
%TO.P,Q10,5,S*%
X40000000Y-41862500D03*
%TO.P,Q10,6,D*%
%TO.N,VIN*%
X39050000Y-41862500D03*
%TD*%
D10*
%TO.P,J16,1,Pin_1*%
%TO.N,/Y_Control/OUT12*%
X80000000Y-37000000D03*
%TO.P,J16,2,Pin_2*%
%TO.N,/Y_Control/OUT13*%
X80000000Y-39500000D03*
%TD*%
D11*
%TO.P,R48,1*%
%TO.N,GNDS*%
X69000000Y-48510000D03*
%TO.P,R48,2*%
%TO.N,/Y_Control/G7A*%
X69000000Y-47490000D03*
%TD*%
D22*
%TO.P,R69,1*%
%TO.N,Net-(U12-A2)*%
X37390000Y-57200000D03*
%TO.P,R69,2*%
%TO.N,GNDS*%
X38410000Y-57200000D03*
%TD*%
D12*
%TO.P,R5,1*%
%TO.N,/X_Control/G1B*%
X23000000Y-47490000D03*
%TO.P,R5,2*%
%TO.N,GNDS*%
X23000000Y-48510000D03*
%TD*%
D10*
%TO.P,J1,1,Pin_1*%
%TO.N,/X_Control/OUT0*%
X24000000Y-37000000D03*
%TO.P,J1,2,Pin_2*%
%TO.N,/X_Control/OUT1*%
X24000000Y-39500000D03*
%TD*%
D11*
%TO.P,R28,1*%
%TO.N,GNDS*%
X49000000Y-48510000D03*
%TO.P,R28,2*%
%TO.N,/X_Control/G13A*%
X49000000Y-47490000D03*
%TD*%
D13*
%TO.P,Q1,1,G*%
%TO.N,/X_Control/G0A*%
X24950000Y-32362500D03*
%TO.P,Q1,2,S*%
%TO.N,SENSE*%
X24000000Y-32362500D03*
%TO.P,Q1,3,G*%
%TO.N,/X_Control/G0B*%
X23050000Y-32362500D03*
%TO.P,Q1,4,D*%
%TO.N,/X_Control/OUT0*%
X23050000Y-34637500D03*
%TO.P,Q1,5,S*%
X24000000Y-34637500D03*
%TO.P,Q1,6,D*%
%TO.N,VIN*%
X24950000Y-34637500D03*
%TD*%
D12*
%TO.P,R18,1*%
%TO.N,GNDS*%
X39000000Y-27990000D03*
%TO.P,R18,2*%
%TO.N,/X_Control/G8A*%
X39000000Y-29010000D03*
%TD*%
D17*
%TO.P,U12,1,A4*%
%TO.N,unconnected-(U12-A4-Pad1)*%
X27137500Y-57225000D03*
%TO.P,U12,2,A6*%
%TO.N,unconnected-(U12-A6-Pad2)*%
X27137500Y-57875000D03*
%TO.P,U12,3,A*%
%TO.N,PWM*%
X27137500Y-58525000D03*
%TO.P,U12,4,A7*%
%TO.N,unconnected-(U12-A7-Pad4)*%
X27137500Y-59175000D03*
%TO.P,U12,5,A5*%
%TO.N,unconnected-(U12-A5-Pad5)*%
X27137500Y-59825000D03*
%TO.P,U12,6,~{E}*%
%TO.N,GNDS*%
X27137500Y-60475000D03*
%TO.P,U12,7,VEE*%
X27137500Y-61125000D03*
%TO.P,U12,8,GND*%
X27137500Y-61775000D03*
%TO.P,U12,9,S2*%
X32862500Y-61775000D03*
%TO.P,U12,10,S1*%
%TO.N,/X_Control/S0*%
X32862500Y-61125000D03*
%TO.P,U12,11,S0*%
%TO.N,/X_Control/S3*%
X32862500Y-60475000D03*
%TO.P,U12,12,A3*%
%TO.N,Net-(U12-A3)*%
X32862500Y-59825000D03*
%TO.P,U12,13,A0*%
%TO.N,Net-(U12-A0)*%
X32862500Y-59175000D03*
%TO.P,U12,14,A1*%
%TO.N,Net-(U12-A1)*%
X32862500Y-58525000D03*
%TO.P,U12,15,A2*%
%TO.N,Net-(U12-A2)*%
X32862500Y-57875000D03*
%TO.P,U12,16,VCC*%
%TO.N,VCC*%
X32862500Y-57225000D03*
%TD*%
D12*
%TO.P,R13,1*%
%TO.N,/X_Control/G5B*%
X31000000Y-47490000D03*
%TO.P,R13,2*%
%TO.N,GNDS*%
X31000000Y-48510000D03*
%TD*%
D11*
%TO.P,R11,1*%
%TO.N,/X_Control/G4B*%
X32970000Y-29010000D03*
%TO.P,R11,2*%
%TO.N,GNDS*%
X32970000Y-27990000D03*
%TD*%
D12*
%TO.P,R34,1*%
%TO.N,GNDS*%
X55000000Y-27990000D03*
%TO.P,R34,2*%
%TO.N,/Y_Control/G0A*%
X55000000Y-29010000D03*
%TD*%
D10*
%TO.P,J12,1,Pin_1*%
%TO.N,/Y_Control/OUT4*%
X64000000Y-37000000D03*
%TO.P,J12,2,Pin_2*%
%TO.N,/Y_Control/OUT5*%
X64000000Y-39500000D03*
%TD*%
D11*
%TO.P,R32,1*%
%TO.N,GNDS*%
X53000000Y-48510000D03*
%TO.P,R32,2*%
%TO.N,/X_Control/G15A*%
X53000000Y-47490000D03*
%TD*%
D27*
%TO.P,R72,1*%
%TO.N,Net-(U13-A1)*%
X85810000Y-53700000D03*
%TO.P,R72,2*%
%TO.N,GNDS*%
X84790000Y-53700000D03*
%TD*%
D10*
%TO.P,J14,1,Pin_1*%
%TO.N,/Y_Control/OUT8*%
X72000000Y-37000000D03*
%TO.P,J14,2,Pin_2*%
%TO.N,/Y_Control/OUT9*%
X72000000Y-39500000D03*
%TD*%
D17*
%TO.P,U6,1,QB*%
%TO.N,/X_Control/S2*%
X43137500Y-57225000D03*
%TO.P,U6,2,QC*%
%TO.N,/X_Control/S1*%
X43137500Y-57875000D03*
%TO.P,U6,3,QD*%
%TO.N,/X_Control/S0*%
X43137500Y-58525000D03*
%TO.P,U6,4,QE*%
%TO.N,/X_Control/DIR*%
X43137500Y-59175000D03*
%TO.P,U6,5,QF*%
%TO.N,unconnected-(U6-QF-Pad5)*%
X43137500Y-59825000D03*
%TO.P,U6,6,QG*%
%TO.N,unconnected-(U6-QG-Pad6)*%
X43137500Y-60475000D03*
%TO.P,U6,7,QH*%
%TO.N,unconnected-(U6-QH-Pad7)*%
X43137500Y-61125000D03*
%TO.P,U6,8,GND*%
%TO.N,GNDS*%
X43137500Y-61775000D03*
%TO.P,U6,9,QH'*%
%TO.N,unconnected-(U6-QH'-Pad9)*%
X48862500Y-61775000D03*
%TO.P,U6,10,~{SRCLR}*%
%TO.N,VCC*%
X48862500Y-61125000D03*
%TO.P,U6,11,SRCLK*%
%TO.N,CLK*%
X48862500Y-60475000D03*
%TO.P,U6,12,RCLK*%
%TO.N,RCLK*%
X48862500Y-59825000D03*
%TO.P,U6,13,~{OE}*%
%TO.N,GNDS*%
X48862500Y-59175000D03*
%TO.P,U6,14,SER*%
%TO.N,SERX*%
X48862500Y-58525000D03*
%TO.P,U6,15,QA*%
%TO.N,/X_Control/S3*%
X48862500Y-57875000D03*
%TO.P,U6,16,VCC*%
%TO.N,VCC*%
X48862500Y-57225000D03*
%TD*%
D11*
%TO.P,R12,1*%
%TO.N,GNDS*%
X32970000Y-48510000D03*
%TO.P,R12,2*%
%TO.N,/X_Control/G5A*%
X32970000Y-47490000D03*
%TD*%
D21*
%TO.P,Q28,1,G*%
%TO.N,/Y_Control/G11A*%
X75050000Y-44137500D03*
%TO.P,Q28,2,S*%
%TO.N,SENSE*%
X76000000Y-44137500D03*
%TO.P,Q28,3,G*%
%TO.N,/Y_Control/G11B*%
X76950000Y-44137500D03*
%TO.P,Q28,4,D*%
%TO.N,/Y_Control/OUT11*%
X76950000Y-41862500D03*
%TO.P,Q28,5,S*%
X76000000Y-41862500D03*
%TO.P,Q28,6,D*%
%TO.N,VIN*%
X75050000Y-41862500D03*
%TD*%
D13*
%TO.P,Q23,1,G*%
%TO.N,/Y_Control/G6A*%
X68950000Y-32362500D03*
%TO.P,Q23,2,S*%
%TO.N,SENSE*%
X68000000Y-32362500D03*
%TO.P,Q23,3,G*%
%TO.N,/Y_Control/G6B*%
X67050000Y-32362500D03*
%TO.P,Q23,4,D*%
%TO.N,/Y_Control/OUT6*%
X67050000Y-34637500D03*
%TO.P,Q23,5,S*%
X68000000Y-34637500D03*
%TO.P,Q23,6,D*%
%TO.N,VIN*%
X68950000Y-34637500D03*
%TD*%
D10*
%TO.P,J5,1,Pin_1*%
%TO.N,/X_Control/OUT8*%
X40000000Y-37000000D03*
%TO.P,J5,2,Pin_2*%
%TO.N,/X_Control/OUT9*%
X40000000Y-39500000D03*
%TD*%
D22*
%TO.P,R100,1*%
%TO.N,Net-(D3-K)*%
X84990000Y-71500000D03*
%TO.P,R100,2*%
%TO.N,GNDS*%
X86010000Y-71500000D03*
%TD*%
D16*
%TO.P,U4,1,A4*%
%TO.N,/X_Control/G5A*%
X32862500Y-54775000D03*
%TO.P,U4,2,A6*%
%TO.N,/X_Control/G7A*%
X32862500Y-54125000D03*
%TO.P,U4,3,A*%
%TO.N,Net-(U12-A2)*%
X32862500Y-53475000D03*
%TO.P,U4,4,A7*%
%TO.N,/X_Control/G7B*%
X32862500Y-52825000D03*
%TO.P,U4,5,A5*%
%TO.N,/X_Control/G5B*%
X32862500Y-52175000D03*
%TO.P,U4,6,~{E}*%
%TO.N,GNDS*%
X32862500Y-51525000D03*
%TO.P,U4,7,VEE*%
X32862500Y-50875000D03*
%TO.P,U4,8,GND*%
X32862500Y-50225000D03*
%TO.P,U4,9,S2*%
%TO.N,/X_Control/S2*%
X27137500Y-50225000D03*
%TO.P,U4,10,S1*%
%TO.N,/X_Control/S1*%
X27137500Y-50875000D03*
%TO.P,U4,11,S0*%
%TO.N,/X_Control/DIR*%
X27137500Y-51525000D03*
%TO.P,U4,12,A3*%
%TO.N,/X_Control/G3B*%
X27137500Y-52175000D03*
%TO.P,U4,13,A0*%
%TO.N,/X_Control/G1A*%
X27137500Y-52825000D03*
%TO.P,U4,14,A1*%
%TO.N,/X_Control/G1B*%
X27137500Y-53475000D03*
%TO.P,U4,15,A2*%
%TO.N,/X_Control/G3A*%
X27137500Y-54125000D03*
%TO.P,U4,16,VCC*%
%TO.N,VCC*%
X27137500Y-54775000D03*
%TD*%
D11*
%TO.P,R63,1*%
%TO.N,/Y_Control/G14B*%
X85000000Y-29010000D03*
%TO.P,R63,2*%
%TO.N,GNDS*%
X85000000Y-27990000D03*
%TD*%
D14*
%TO.P,C3,1*%
%TO.N,GNDS*%
X56750000Y-26250000D03*
%TO.P,C3,2*%
%TO.N,VCC*%
X57710000Y-26250000D03*
%TD*%
D21*
%TO.P,Q26,1,G*%
%TO.N,/Y_Control/G9A*%
X71050000Y-44137500D03*
%TO.P,Q26,2,S*%
%TO.N,SENSE*%
X72000000Y-44137500D03*
%TO.P,Q26,3,G*%
%TO.N,/Y_Control/G9B*%
X72950000Y-44137500D03*
%TO.P,Q26,4,D*%
%TO.N,/Y_Control/OUT9*%
X72950000Y-41862500D03*
%TO.P,Q26,5,S*%
X72000000Y-41862500D03*
%TO.P,Q26,6,D*%
%TO.N,VIN*%
X71050000Y-41862500D03*
%TD*%
D11*
%TO.P,R51,1*%
%TO.N,/Y_Control/G8B*%
X73000000Y-29010000D03*
%TO.P,R51,2*%
%TO.N,GNDS*%
X73000000Y-27990000D03*
%TD*%
D21*
%TO.P,Q6,1,G*%
%TO.N,/X_Control/G5A*%
X31050000Y-44137500D03*
%TO.P,Q6,2,S*%
%TO.N,SENSE*%
X32000000Y-44137500D03*
%TO.P,Q6,3,G*%
%TO.N,/X_Control/G5B*%
X32950000Y-44137500D03*
%TO.P,Q6,4,D*%
%TO.N,/X_Control/OUT5*%
X32950000Y-41862500D03*
%TO.P,Q6,5,S*%
X32000000Y-41862500D03*
%TO.P,Q6,6,D*%
%TO.N,VIN*%
X31050000Y-41862500D03*
%TD*%
D11*
%TO.P,R4,1*%
%TO.N,GNDS*%
X25000000Y-48510000D03*
%TO.P,R4,2*%
%TO.N,/X_Control/G1A*%
X25000000Y-47490000D03*
%TD*%
%TO.P,R60,1*%
%TO.N,GNDS*%
X81000000Y-48510000D03*
%TO.P,R60,2*%
%TO.N,/Y_Control/G13A*%
X81000000Y-47490000D03*
%TD*%
D14*
%TO.P,C2,1*%
%TO.N,GNDS*%
X40750000Y-26250000D03*
%TO.P,C2,2*%
%TO.N,VCC*%
X41710000Y-26250000D03*
%TD*%
D11*
%TO.P,R15,1*%
%TO.N,/X_Control/G6B*%
X37000000Y-29010000D03*
%TO.P,R15,2*%
%TO.N,GNDS*%
X37000000Y-27990000D03*
%TD*%
%TO.P,R66,1*%
%TO.N,PWM*%
X69200000Y-67700000D03*
%TO.P,R66,2*%
%TO.N,GNDS*%
X69200000Y-66680000D03*
%TD*%
D10*
%TO.P,J17,1,Pin_1*%
%TO.N,/Y_Control/OUT14*%
X84000000Y-37000000D03*
%TO.P,J17,2,Pin_2*%
%TO.N,/Y_Control/OUT15*%
X84000000Y-39500000D03*
%TD*%
D12*
%TO.P,R41,1*%
%TO.N,/Y_Control/G3B*%
X59000000Y-47490000D03*
%TO.P,R41,2*%
%TO.N,GNDS*%
X59000000Y-48510000D03*
%TD*%
D28*
%TO.N,GNDS*%
X24219500Y-27200000D03*
D29*
%TO.N,GND*%
X55500000Y-54660500D03*
D28*
%TO.N,VCC*%
X41750000Y-25564500D03*
X57750000Y-25564500D03*
X82250000Y-57925500D03*
X25750000Y-25574500D03*
X38000000Y-26000000D03*
X82250000Y-64500000D03*
X73750000Y-25564500D03*
D29*
%TO.N,SENSE*%
X56000000Y-45250000D03*
X80000000Y-45250000D03*
X28000000Y-31250000D03*
X32000000Y-31250000D03*
X44000000Y-31250000D03*
X24000000Y-31250000D03*
X36000000Y-31250000D03*
X80000000Y-31250000D03*
X76000000Y-45250000D03*
X40000000Y-31250000D03*
X76000000Y-31250000D03*
X24000000Y-45250000D03*
X72000000Y-45250000D03*
X60000000Y-31250000D03*
X36000000Y-45250000D03*
X44000000Y-45250000D03*
X84000000Y-45250000D03*
X64000000Y-31250000D03*
X48000000Y-45250000D03*
X48000000Y-31250000D03*
X68000000Y-31250000D03*
X54000000Y-49250000D03*
X52000000Y-45250000D03*
X68000000Y-45250000D03*
X60000000Y-45250000D03*
X52000000Y-31250000D03*
X40000000Y-45250000D03*
X28000000Y-45250000D03*
X64000000Y-45250000D03*
X72000000Y-31250000D03*
X84000000Y-31250000D03*
X32000000Y-45250000D03*
X56000000Y-31250000D03*
%TO.N,VIN*%
X80999500Y-35700000D03*
X70699750Y-40800250D03*
X52999500Y-35700000D03*
X46699750Y-40800250D03*
X66699750Y-40800250D03*
X68999500Y-35700000D03*
X28999500Y-35700000D03*
X54699750Y-40800250D03*
X42699750Y-40800250D03*
X44999500Y-35700000D03*
X82699750Y-40800250D03*
X40999500Y-35700000D03*
X58699750Y-40800250D03*
X62699750Y-40800250D03*
X30699750Y-40800250D03*
X34699750Y-40800250D03*
X36999500Y-35700000D03*
X78699750Y-40800250D03*
X22699750Y-40800250D03*
X60999500Y-35700000D03*
X84999500Y-35700000D03*
X76999500Y-35700000D03*
X38699750Y-40800250D03*
X56999500Y-35700000D03*
X32999500Y-35700000D03*
X72999500Y-35700000D03*
X50699750Y-40800250D03*
X74699750Y-40800250D03*
X64999500Y-35700000D03*
X48999500Y-35700000D03*
X24999500Y-35700000D03*
X26699750Y-40800250D03*
D28*
%TO.N,SERX*%
X52059500Y-68740000D03*
X50860500Y-68740000D03*
%TO.N,SERY*%
X66000000Y-63274500D03*
X66101089Y-59148911D03*
%TO.N,Net-(U12-A0)*%
X31599500Y-24548911D03*
X25200497Y-23000000D03*
%TO.N,Net-(U12-A1)*%
X47849500Y-24965000D03*
X25250000Y-23975500D03*
%TO.N,/X_Control/G4A*%
X30642452Y-26250000D03*
X31849500Y-26250000D03*
%TO.N,/X_Control/G12A*%
X46642452Y-26250000D03*
X47849500Y-26240000D03*
%TO.N,/Y_Control/G4A*%
X62642452Y-26250000D03*
X63849500Y-26240000D03*
%TO.N,/Y_Control/G12A*%
X79849500Y-26240000D03*
X78642452Y-26250000D03*
%TO.N,/Y_Control/G5B*%
X63849500Y-52102333D03*
X62650500Y-50760000D03*
%TO.N,/Y_Control/G13B*%
X79849500Y-52102333D03*
X78650500Y-50760000D03*
%TO.N,/X_Control/G5B*%
X30650500Y-50750000D03*
X31849500Y-52092333D03*
%TO.N,/X_Control/G13B*%
X47849500Y-52102333D03*
X46650500Y-50760000D03*
%TO.N,VOUT*%
X52250000Y-55959500D03*
X60668589Y-66983589D03*
X52100601Y-54747587D03*
%TO.N,Net-(U12-A2)*%
X31625500Y-54091833D03*
X31750000Y-56600000D03*
%TO.N,/X_Control/DIR*%
X22280581Y-55567788D03*
X44338567Y-51870565D03*
X25900500Y-21775500D03*
X28257900Y-51671407D03*
X44200000Y-59200000D03*
X26000000Y-23000000D03*
%TO.N,Net-(U12-A3)*%
X47500000Y-55959500D03*
X47599500Y-53500000D03*
%TO.N,PWM*%
X73750000Y-63274500D03*
X74000000Y-58500000D03*
X64110000Y-72224500D03*
%TO.N,Net-(U13-A0)*%
X82424254Y-24375746D03*
X63799500Y-24965000D03*
%TO.N,Net-(U13-A1)*%
X83124253Y-25075746D03*
X79800000Y-25000000D03*
%TO.N,/X_Control/S2*%
X21586416Y-55964448D03*
X28750000Y-50250000D03*
X45538067Y-57324500D03*
X44250000Y-50250000D03*
%TO.N,/X_Control/S1*%
X44274160Y-51073663D03*
X44800000Y-57800000D03*
X22177178Y-54775000D03*
X28161737Y-50865532D03*
%TO.N,Net-(U13-A2)*%
X63500000Y-54101833D03*
X63500000Y-55959500D03*
%TO.N,/Y_Control/DIR*%
X60400000Y-59124500D03*
X60349191Y-51900809D03*
X85498224Y-58070884D03*
X76338567Y-51870567D03*
X76173201Y-21176851D03*
X76200000Y-23000000D03*
%TO.N,Net-(U10-A)*%
X79625500Y-54000000D03*
X79625500Y-58474500D03*
%TO.N,/Y_Control/S1*%
X60200000Y-57800000D03*
X60161737Y-50865532D03*
X85571058Y-57274706D03*
X76274160Y-51073663D03*
%TO.N,CLK*%
X49976089Y-60525500D03*
X50099500Y-61724500D03*
X63799500Y-60525500D03*
%TO.N,RCLK*%
X50000500Y-59726370D03*
X65420651Y-63874000D03*
X63599500Y-59751418D03*
%TO.N,/Y_Control/S2*%
X60750000Y-50250000D03*
X86105836Y-58590510D03*
X76250000Y-50250000D03*
X59200000Y-56600000D03*
%TO.N,GNDS*%
X72750000Y-54101833D03*
X83200000Y-56600000D03*
X66000000Y-22400000D03*
X82000000Y-51500000D03*
X23000000Y-27250000D03*
X85000000Y-27250000D03*
X49000000Y-49250000D03*
X49000000Y-27250000D03*
X84600000Y-60900000D03*
X72250000Y-26750000D03*
X34000000Y-51500000D03*
X67000000Y-27250000D03*
X65000000Y-27250000D03*
X37000000Y-49250000D03*
X83000000Y-27250000D03*
X76269772Y-60263528D03*
X86750000Y-68500000D03*
X77000000Y-49250000D03*
X24750000Y-54000000D03*
X58000000Y-61750000D03*
X53000000Y-27250000D03*
X84100000Y-53700000D03*
X50000000Y-50000000D03*
X35000000Y-27250000D03*
X75000000Y-49250000D03*
X47000000Y-49250000D03*
X70000000Y-57600000D03*
X57600000Y-57000000D03*
X35000000Y-49250000D03*
X51000000Y-49250000D03*
X83000000Y-49250000D03*
X79000000Y-49250000D03*
X50000000Y-51500000D03*
X52682759Y-52829110D03*
X84600000Y-59200000D03*
X42000000Y-61750000D03*
X41000000Y-27250000D03*
X50000000Y-50750000D03*
X50000000Y-22400000D03*
X57000000Y-27250000D03*
X23000000Y-49250000D03*
X35200000Y-56600000D03*
X71000000Y-27250000D03*
X63729572Y-58962569D03*
X55000000Y-49250000D03*
X79750000Y-21799500D03*
X50000000Y-21600000D03*
X51200000Y-56600000D03*
X53000000Y-49250000D03*
X77000000Y-27250000D03*
X43000000Y-27250000D03*
X81000000Y-27250000D03*
X63000000Y-49250000D03*
X41000000Y-49250000D03*
X47000000Y-27250000D03*
X79750000Y-22500000D03*
X40250000Y-26750000D03*
X75000000Y-27250000D03*
X82000000Y-50750000D03*
X40300000Y-55959500D03*
X82000000Y-50099500D03*
X73000000Y-27250000D03*
X63000000Y-27250000D03*
X34000000Y-21600000D03*
X34000000Y-22400000D03*
X79000000Y-27250000D03*
X39100000Y-57200000D03*
X76250000Y-61675500D03*
X69200000Y-65940000D03*
X61000000Y-27250000D03*
X66000000Y-50250000D03*
X25000000Y-49250000D03*
X81000000Y-49250000D03*
X25000000Y-27250000D03*
X51900000Y-52900000D03*
X43000000Y-49250000D03*
X31000000Y-27250000D03*
X66000000Y-21600000D03*
X79730228Y-23236472D03*
X67000000Y-49250000D03*
X65000000Y-49250000D03*
X52900000Y-54760500D03*
X27000000Y-49250000D03*
X50000000Y-23200000D03*
X76250000Y-61000000D03*
X40750000Y-54091833D03*
X39000000Y-27250000D03*
X47559500Y-60926993D03*
X66002647Y-51748279D03*
X31000000Y-49250000D03*
X71000000Y-49250000D03*
X34000000Y-23200000D03*
X80750000Y-62500000D03*
X66002647Y-23248279D03*
X61000000Y-49250000D03*
X55000000Y-27250000D03*
X34000000Y-50750000D03*
X69000000Y-49250000D03*
X67200000Y-56600000D03*
X34000000Y-61750000D03*
X27000000Y-27250000D03*
X33000000Y-49250000D03*
X59000000Y-27250000D03*
X34000000Y-50000000D03*
X69000000Y-27250000D03*
X33000000Y-27250000D03*
X86750000Y-65500000D03*
X29000000Y-49250000D03*
X51000000Y-27250000D03*
X26000000Y-62000000D03*
X56250000Y-26750000D03*
X85000000Y-49250000D03*
X39000000Y-49250000D03*
X26000000Y-61000000D03*
X45000000Y-49250000D03*
X66000000Y-51000000D03*
X29000000Y-27250000D03*
X59000000Y-49250000D03*
X26065129Y-60337660D03*
X86750000Y-71500000D03*
X39100000Y-59100000D03*
X37000000Y-27250000D03*
X36000000Y-59225500D03*
X73000000Y-49250000D03*
X57000000Y-49250000D03*
X45000000Y-27250000D03*
%TD*%
D30*
%TO.N,/X_Control/S1*%
X32084314Y-20600000D02*
X40709315Y-20600000D01*
X27137500Y-22375000D02*
X30309314Y-22375000D01*
X30309314Y-22375000D02*
X32084314Y-20600000D01*
X40709315Y-20600000D02*
X42484315Y-22375000D01*
X42484315Y-22375000D02*
X43137500Y-22375000D01*
%TO.N,/X_Control/G0B*%
X23620000Y-28120000D02*
X24510000Y-29010000D01*
X24510000Y-29010000D02*
X25000000Y-29010000D01*
X23620000Y-26680000D02*
X23620000Y-28120000D01*
X23900000Y-26400000D02*
X23620000Y-26680000D01*
X24427746Y-25640000D02*
X24170000Y-25897746D01*
X24760000Y-25640000D02*
X24427746Y-25640000D01*
X24170000Y-25897746D02*
X24170000Y-25989932D01*
X24170000Y-25989932D02*
X23900000Y-26259932D01*
X25425000Y-24975000D02*
X24760000Y-25640000D01*
X23900000Y-26259932D02*
X23900000Y-26400000D01*
X27137500Y-24975000D02*
X25425000Y-24975000D01*
%TO.N,Net-(U12-A0)*%
X30406129Y-59175000D02*
X32862500Y-59175000D01*
X26991129Y-55760000D02*
X30406129Y-59175000D01*
X21550000Y-53300000D02*
X24010000Y-55760000D01*
X21550000Y-26720100D02*
X21550000Y-53300000D01*
X22520688Y-25850000D02*
X22420099Y-25850000D01*
X24010000Y-55760000D02*
X26991129Y-55760000D01*
X25200497Y-23170191D02*
X22520688Y-25850000D01*
X25200497Y-23000000D02*
X25200497Y-23170191D01*
X22420099Y-25850000D02*
X21550000Y-26720100D01*
%TO.N,Net-(U12-A1)*%
X27156815Y-55360000D02*
X30321815Y-58525000D01*
X24360000Y-55360000D02*
X27156815Y-55360000D01*
X21950000Y-26885785D02*
X21950000Y-52950000D01*
X21950000Y-52950000D02*
X24360000Y-55360000D01*
X22918628Y-26250000D02*
X22585785Y-26250000D01*
X23100000Y-26068628D02*
X22918628Y-26250000D01*
X23100000Y-25836374D02*
X23100000Y-26068628D01*
X24960874Y-23975500D02*
X23100000Y-25836374D01*
X30321815Y-58525000D02*
X32862500Y-58525000D01*
X25250000Y-23975500D02*
X24960874Y-23975500D01*
X22585785Y-26250000D02*
X21950000Y-26885785D01*
%TO.N,/X_Control/G0A*%
X26175000Y-24575000D02*
X26425000Y-24325000D01*
X25259314Y-24575000D02*
X26175000Y-24575000D01*
X24594314Y-25240000D02*
X25259314Y-24575000D01*
X24262060Y-25240000D02*
X24594314Y-25240000D01*
X23770000Y-25732060D02*
X24262060Y-25240000D01*
X23500000Y-26234314D02*
X23500000Y-26094246D01*
X23770000Y-25824246D02*
X23770000Y-25732060D01*
X22751471Y-26650000D02*
X23084314Y-26650000D01*
X26425000Y-24325000D02*
X27137500Y-24325000D01*
X22380000Y-27021471D02*
X22751471Y-26650000D01*
X23084314Y-26650000D02*
X23500000Y-26234314D01*
X23500000Y-26094246D02*
X23770000Y-25824246D01*
X22380000Y-28390000D02*
X22380000Y-27021471D01*
X23000000Y-29010000D02*
X22380000Y-28390000D01*
%TO.N,GNDS*%
X24770000Y-26649500D02*
X24219500Y-27200000D01*
X24770000Y-26400000D02*
X24770000Y-26649500D01*
%TO.N,VCC*%
X27137500Y-26275000D02*
X25855000Y-26275000D01*
X25855000Y-26275000D02*
X25730000Y-26400000D01*
X25750000Y-26380000D02*
X25730000Y-26400000D01*
X25750000Y-25574500D02*
X25750000Y-26380000D01*
%TO.N,/X_Control/S2*%
X26588000Y-21175500D02*
X27137500Y-21725000D01*
X25651971Y-21175500D02*
X26588000Y-21175500D01*
X25451971Y-21375500D02*
X25651971Y-21175500D01*
X23800497Y-22873133D02*
X23800497Y-22420099D01*
X23800497Y-22420099D02*
X24845097Y-21375500D01*
X22198797Y-24374246D02*
X22299384Y-24374246D01*
X20350000Y-26223041D02*
X22198797Y-24374246D01*
X20350000Y-54728032D02*
X20350000Y-26223041D01*
X22299384Y-24374246D02*
X23800497Y-22873133D01*
X21586416Y-55964448D02*
X20350000Y-54728032D01*
X24845097Y-21375500D02*
X25451971Y-21375500D01*
%TO.N,/X_Control/DIR*%
X22087793Y-55375000D02*
X22280581Y-55567788D01*
X21928649Y-55375000D02*
X22087793Y-55375000D01*
X22364482Y-24774246D02*
X20750000Y-26388727D01*
X22465070Y-24774246D02*
X22364482Y-24774246D01*
X20750000Y-54196351D02*
X21928649Y-55375000D01*
X24200497Y-23038819D02*
X22465070Y-24774246D01*
X24200497Y-22585785D02*
X24200497Y-23038819D01*
X25010782Y-21775500D02*
X24200497Y-22585785D01*
X25900500Y-21775500D02*
X25010782Y-21775500D01*
X20750000Y-26388727D02*
X20750000Y-54196351D01*
%TO.N,/X_Control/S1*%
X24600497Y-23204505D02*
X24600497Y-22751471D01*
X24976968Y-22375000D02*
X27137500Y-22375000D01*
X22530168Y-25174246D02*
X22630756Y-25174246D01*
X22630756Y-25174246D02*
X24600497Y-23204505D01*
X24600497Y-22751471D02*
X24976968Y-22375000D01*
X21150000Y-26554413D02*
X22530168Y-25174246D01*
X22177178Y-54775000D02*
X21150000Y-53747822D01*
X21150000Y-53747822D02*
X21150000Y-26554413D01*
%TO.N,/Y_Control/S2*%
X75137500Y-21262500D02*
X75137500Y-21725000D01*
X81972055Y-20400000D02*
X76000000Y-20400000D01*
X76000000Y-20400000D02*
X75137500Y-21262500D01*
X83050000Y-21477943D02*
X81972055Y-20400000D01*
X83050000Y-22455907D02*
X83050000Y-21477943D01*
X84924252Y-24330159D02*
X83050000Y-22455907D01*
X85911269Y-25050000D02*
X85312744Y-25050000D01*
X84924252Y-24661508D02*
X84924252Y-24330159D01*
X87649999Y-26788727D02*
X85911269Y-25050000D01*
X87650000Y-34765925D02*
X87649999Y-26788727D01*
X87600000Y-34815926D02*
X87650000Y-34765925D01*
X85312744Y-25050000D02*
X84924252Y-24661508D01*
X87600000Y-57096346D02*
X87600000Y-34815926D01*
X86105836Y-58590510D02*
X87600000Y-57096346D01*
%TO.N,/Y_Control/DIR*%
X76550052Y-20800000D02*
X76173201Y-21176851D01*
X81806370Y-20800000D02*
X76550052Y-20800000D01*
X82650000Y-21643629D02*
X81806370Y-20800000D01*
X82650000Y-23084314D02*
X82650000Y-21643629D01*
X83141432Y-23575746D02*
X82650000Y-23084314D01*
X83604152Y-23575746D02*
X83141432Y-23575746D01*
X84524253Y-24495845D02*
X83604152Y-23575746D01*
X84524253Y-24827195D02*
X84524253Y-24495845D01*
X85147058Y-25450000D02*
X84524253Y-24827195D01*
X87200000Y-34650240D02*
X87250000Y-34600240D01*
X85745584Y-25450000D02*
X85147058Y-25450000D01*
X85679116Y-58070884D02*
X87200000Y-56550000D01*
X85498224Y-58070884D02*
X85679116Y-58070884D01*
X87200000Y-56550000D02*
X87200000Y-34650240D01*
X87250000Y-34600240D02*
X87249999Y-26954413D01*
X87249999Y-26954413D02*
X85745584Y-25450000D01*
%TO.N,/Y_Control/S1*%
X75825000Y-22375000D02*
X75137500Y-22375000D01*
X77000000Y-21200000D02*
X75825000Y-22375000D01*
X81640685Y-21200000D02*
X77000000Y-21200000D01*
X82250000Y-21809315D02*
X81640685Y-21200000D01*
X82250000Y-23250000D02*
X82250000Y-21809315D01*
X82975746Y-23975746D02*
X82250000Y-23250000D01*
X83438467Y-23975746D02*
X82975746Y-23975746D01*
X84124253Y-24661531D02*
X83438467Y-23975746D01*
X84981372Y-25850000D02*
X84124253Y-24992881D01*
X84124253Y-24992881D02*
X84124253Y-24661531D01*
X85579899Y-25850000D02*
X84981372Y-25850000D01*
X86850000Y-27120099D02*
X85579899Y-25850000D01*
X86850000Y-34434555D02*
X86850000Y-27120099D01*
X86800000Y-34484556D02*
X86850000Y-34434555D01*
X86800000Y-56045764D02*
X86800000Y-34484556D01*
X85571058Y-57274706D02*
X86800000Y-56045764D01*
%TO.N,Net-(U13-A0)*%
X83272782Y-24375746D02*
X82424254Y-24375746D01*
X83724253Y-24827217D02*
X83272782Y-24375746D01*
X83724253Y-25158567D02*
X83724253Y-24827217D01*
X84815686Y-26250000D02*
X83724253Y-25158567D01*
X86450000Y-27285785D02*
X85414214Y-26250000D01*
X82822940Y-59175000D02*
X86400000Y-55597939D01*
X80862500Y-59175000D02*
X82822940Y-59175000D01*
X86400000Y-55597939D02*
X86400000Y-34318870D01*
X86400000Y-34318870D02*
X86450000Y-34268870D01*
X86450000Y-34268870D02*
X86450000Y-27285785D01*
X85414214Y-26250000D02*
X84815686Y-26250000D01*
%TO.N,Net-(U13-A1)*%
X84650000Y-26650000D02*
X83124253Y-25124253D01*
X85248529Y-26650000D02*
X84650000Y-26650000D01*
X83124253Y-25124253D02*
X83124253Y-25075746D01*
X86050000Y-34103185D02*
X86050000Y-27451471D01*
X86050000Y-27451471D02*
X85248529Y-26650000D01*
X86000000Y-34153186D02*
X86050000Y-34103185D01*
D31*
%TO.N,GND*%
X55500000Y-53712500D02*
X55500000Y-52900000D01*
X55500000Y-53712500D02*
X56067500Y-54280000D01*
X53162500Y-51437500D02*
X52750000Y-51025000D01*
X56067500Y-54280000D02*
X57300000Y-54280000D01*
X55500000Y-52900000D02*
X54037500Y-51437500D01*
X54037500Y-51437500D02*
X53162500Y-51437500D01*
X55500000Y-53712500D02*
X55500000Y-54660500D01*
X52750000Y-51025000D02*
X52750000Y-50300000D01*
D30*
%TO.N,VCC*%
X64862500Y-57225000D02*
X66265000Y-57225000D01*
X59137500Y-54775000D02*
X59722500Y-55360000D01*
X57750000Y-25564500D02*
X57750000Y-26210000D01*
X48862500Y-57225000D02*
X50265000Y-57225000D01*
X49000000Y-55360000D02*
X54000000Y-55360000D01*
X27137500Y-54775000D02*
X25735000Y-54775000D01*
X48862500Y-55497500D02*
X49000000Y-55360000D01*
X34265000Y-57225000D02*
X34290000Y-57250000D01*
X48209315Y-61125000D02*
X47750000Y-61584315D01*
X63000000Y-60600000D02*
X63525000Y-61125000D01*
X63916971Y-57225000D02*
X62800000Y-56108029D01*
X75137500Y-54785000D02*
X73735000Y-54785000D01*
X50275000Y-61125000D02*
X48862500Y-61125000D01*
X59722500Y-55360000D02*
X62800000Y-55360000D01*
X74552500Y-55360000D02*
X75137500Y-54775000D01*
X63000000Y-58434315D02*
X63000000Y-60600000D01*
X32862500Y-57225000D02*
X33000000Y-57087500D01*
X63525000Y-61125000D02*
X64862500Y-61125000D01*
X41750000Y-26210000D02*
X41710000Y-26250000D01*
X49820000Y-67960000D02*
X51230000Y-67960000D01*
X58552500Y-55360000D02*
X59137500Y-54775000D01*
X80862500Y-57225000D02*
X82265000Y-57225000D01*
X43137500Y-54775000D02*
X43722500Y-55360000D01*
X59137500Y-26265000D02*
X57735000Y-26265000D01*
X27722500Y-55360000D02*
X33000000Y-55360000D01*
X37980000Y-26020000D02*
X37980000Y-55280000D01*
X54010000Y-55350000D02*
X54000000Y-55360000D01*
X66265000Y-57225000D02*
X66290000Y-57250000D01*
X48862500Y-57225000D02*
X49515685Y-57225000D01*
X82265000Y-57225000D02*
X82290000Y-57250000D01*
X73735000Y-26265000D02*
X73710000Y-26240000D01*
X38000000Y-55360000D02*
X42552500Y-55360000D01*
X47750000Y-61584315D02*
X47750000Y-65890000D01*
X33000000Y-55360000D02*
X38000000Y-55360000D01*
X50600000Y-60800000D02*
X50275000Y-61125000D01*
X42552500Y-55360000D02*
X43137500Y-54775000D01*
X50600000Y-58309315D02*
X50600000Y-60800000D01*
X82250000Y-64500000D02*
X82250000Y-65462500D01*
X51230000Y-67960000D02*
X51460000Y-68190000D01*
X53400000Y-52200000D02*
X53400000Y-53300000D01*
X54010000Y-53910000D02*
X54010000Y-55350000D01*
X49515685Y-57225000D02*
X50600000Y-58309315D01*
X54000000Y-55360000D02*
X54750000Y-55360000D01*
X64209315Y-57225000D02*
X63000000Y-58434315D01*
X41735000Y-54785000D02*
X41710000Y-54760000D01*
X51460000Y-68190000D02*
X51460000Y-70475000D01*
X57735000Y-26265000D02*
X57710000Y-26240000D01*
X43137500Y-26265000D02*
X41735000Y-26265000D01*
X82250000Y-57290000D02*
X82290000Y-57250000D01*
X53400000Y-53300000D02*
X54010000Y-53910000D01*
X62800000Y-56108029D02*
X62800000Y-55360000D01*
X73750000Y-25564500D02*
X73750000Y-26210000D01*
X41750000Y-25564500D02*
X41750000Y-26210000D01*
X80862500Y-57225000D02*
X77587500Y-57225000D01*
X82250000Y-57925500D02*
X82250000Y-57290000D01*
X25735000Y-54775000D02*
X25710000Y-54750000D01*
X73750000Y-26210000D02*
X73710000Y-26250000D01*
X73735000Y-54785000D02*
X73710000Y-54760000D01*
X50265000Y-57225000D02*
X50290000Y-57250000D01*
X38000000Y-26000000D02*
X37980000Y-26020000D01*
X77587500Y-57225000D02*
X75137500Y-54775000D01*
X75137500Y-26265000D02*
X73735000Y-26265000D01*
X43137500Y-54785000D02*
X41735000Y-54785000D01*
X64862500Y-57225000D02*
X64209315Y-57225000D01*
X57750000Y-26210000D02*
X57710000Y-26250000D01*
X48862500Y-61125000D02*
X48209315Y-61125000D01*
X54750000Y-55360000D02*
X58552500Y-55360000D01*
X32862500Y-57225000D02*
X34265000Y-57225000D01*
X82250000Y-65462500D02*
X82212500Y-65500000D01*
X37980000Y-55280000D02*
X37950000Y-55310000D01*
X48862500Y-57225000D02*
X48862500Y-55497500D01*
X62800000Y-55360000D02*
X74552500Y-55360000D01*
X43722500Y-55360000D02*
X49000000Y-55360000D01*
X27137500Y-54775000D02*
X27722500Y-55360000D01*
X41735000Y-26265000D02*
X41710000Y-26240000D01*
X37950000Y-55310000D02*
X38000000Y-55360000D01*
X64862500Y-57225000D02*
X63916971Y-57225000D01*
X33000000Y-57087500D02*
X33000000Y-55360000D01*
X47750000Y-65890000D02*
X49820000Y-67960000D01*
D32*
%TO.N,SENSE*%
X28000000Y-32362500D02*
X28000000Y-31250000D01*
X72000000Y-44137500D02*
X72000000Y-45250000D01*
X84000000Y-32362500D02*
X84000000Y-31250000D01*
X36000000Y-32362500D02*
X36000000Y-31250000D01*
X72000000Y-32362500D02*
X72000000Y-31250000D01*
X28000000Y-44137500D02*
X28000000Y-45250000D01*
D33*
X53887500Y-50787500D02*
X53400000Y-50300000D01*
D32*
X52000000Y-32362500D02*
X52000000Y-31250000D01*
D33*
X54000000Y-49250000D02*
X54000000Y-49310661D01*
D32*
X56000000Y-32362500D02*
X56000000Y-31250000D01*
X84000000Y-44137500D02*
X84000000Y-45250000D01*
D33*
X55476839Y-50787500D02*
X55500000Y-50787500D01*
D32*
X24000000Y-44137500D02*
X24000000Y-45250000D01*
X40000000Y-44137500D02*
X40000000Y-45250000D01*
X76000000Y-44137500D02*
X76000000Y-45250000D01*
X60000000Y-44137500D02*
X60000000Y-45250000D01*
X64000000Y-32362500D02*
X64000000Y-31250000D01*
D33*
X55500000Y-50787500D02*
X53887500Y-50787500D01*
D32*
X32000000Y-32362500D02*
X32000000Y-31250000D01*
X32000000Y-44137500D02*
X32000000Y-45250000D01*
X40000000Y-32362500D02*
X40000000Y-31250000D01*
X44000000Y-44137500D02*
X44000000Y-45250000D01*
X52000000Y-44137500D02*
X52000000Y-45250000D01*
X64000000Y-44137500D02*
X64000000Y-45250000D01*
X48000000Y-32362500D02*
X48000000Y-31250000D01*
X80000000Y-32362500D02*
X80000000Y-31250000D01*
X60000000Y-32362500D02*
X60000000Y-31250000D01*
X36000000Y-44137500D02*
X36000000Y-45250000D01*
X76000000Y-32362500D02*
X76000000Y-31250000D01*
X80000000Y-44137500D02*
X80000000Y-45250000D01*
X68000000Y-44137500D02*
X68000000Y-45250000D01*
D33*
X55500000Y-51520000D02*
X57300000Y-53320000D01*
D32*
X24000000Y-32362500D02*
X24000000Y-31250000D01*
X48000000Y-44137500D02*
X48000000Y-45250000D01*
D33*
X54000000Y-49310661D02*
X55476839Y-50787500D01*
X55500000Y-50787500D02*
X55500000Y-51520000D01*
D32*
X68000000Y-32362500D02*
X68000000Y-31250000D01*
X44000000Y-32362500D02*
X44000000Y-31250000D01*
X56000000Y-44137500D02*
X56000000Y-45250000D01*
D34*
%TO.N,VIN*%
X52950000Y-35650500D02*
X52950000Y-34637500D01*
X46699750Y-40800250D02*
X47050000Y-41150500D01*
X50699750Y-40800250D02*
X51050000Y-41150500D01*
X30699750Y-40800250D02*
X31050000Y-41150500D01*
X59050000Y-41150500D02*
X59050000Y-41862500D01*
X55050000Y-41150500D02*
X55050000Y-41862500D01*
X56999500Y-35700000D02*
X56950000Y-35650500D01*
X60950000Y-35650500D02*
X60950000Y-34637500D01*
X24999500Y-35700000D02*
X24950000Y-35650500D01*
X71050000Y-41150500D02*
X71050000Y-41862500D01*
X82699750Y-40800250D02*
X83050000Y-41150500D01*
X28950000Y-35650500D02*
X28950000Y-34637500D01*
X56950000Y-35650500D02*
X56950000Y-34637500D01*
X62699750Y-40800250D02*
X63050000Y-41150500D01*
X83050000Y-41150500D02*
X83050000Y-41862500D01*
X66699750Y-40800250D02*
X67050000Y-41150500D01*
X72999500Y-35700000D02*
X72950000Y-35650500D01*
X84999500Y-35700000D02*
X84950000Y-35650500D01*
X67050000Y-41150500D02*
X67050000Y-41862500D01*
X63050000Y-41150500D02*
X63050000Y-41862500D01*
X76950000Y-35650500D02*
X76950000Y-34637500D01*
X64950000Y-35650500D02*
X64950000Y-34637500D01*
X68999500Y-35700000D02*
X68950000Y-35650500D01*
X74699750Y-40800250D02*
X75050000Y-41150500D01*
X64999500Y-35700000D02*
X64950000Y-35650500D01*
X76999500Y-35700000D02*
X76950000Y-35650500D01*
X32950000Y-35650500D02*
X32950000Y-34637500D01*
X39050000Y-41150500D02*
X39050000Y-41862500D01*
X48950000Y-35650500D02*
X48950000Y-34637500D01*
X36999500Y-35700000D02*
X36950000Y-35650500D01*
X40999500Y-35700000D02*
X40950000Y-35650500D01*
X22699750Y-40800250D02*
X23050000Y-41150500D01*
X36950000Y-35650500D02*
X36950000Y-34637500D01*
D35*
X30318593Y-68425000D02*
X28793593Y-69950000D01*
D34*
X31050000Y-41150500D02*
X31050000Y-41862500D01*
X80999500Y-35700000D02*
X80950000Y-35650500D01*
X43050000Y-41150500D02*
X43050000Y-41862500D01*
D35*
X46380000Y-70475000D02*
X46380000Y-69135862D01*
D34*
X35050000Y-41150500D02*
X35050000Y-41862500D01*
X34699750Y-40800250D02*
X35050000Y-41150500D01*
X40950000Y-35650500D02*
X40950000Y-34637500D01*
X72950000Y-35650500D02*
X72950000Y-34637500D01*
X70699750Y-40800250D02*
X71050000Y-41150500D01*
X44999500Y-35700000D02*
X44950000Y-35650500D01*
X75050000Y-41150500D02*
X75050000Y-41862500D01*
X52999500Y-35700000D02*
X52950000Y-35650500D01*
X68950000Y-35650500D02*
X68950000Y-34637500D01*
D35*
X45669138Y-68425000D02*
X30318593Y-68425000D01*
D34*
X78699750Y-40800250D02*
X79050000Y-41150500D01*
X26699750Y-40800250D02*
X27050000Y-41150500D01*
X24950000Y-35650500D02*
X24950000Y-34637500D01*
D35*
X46380000Y-69135862D02*
X45669138Y-68425000D01*
D34*
X42699750Y-40800250D02*
X43050000Y-41150500D01*
D35*
X25082323Y-69950000D02*
X22882323Y-67750000D01*
D34*
X54699750Y-40800250D02*
X55050000Y-41150500D01*
X84950000Y-35650500D02*
X84950000Y-34637500D01*
X28999500Y-35700000D02*
X28950000Y-35650500D01*
X32999500Y-35700000D02*
X32950000Y-35650500D01*
D35*
X28793593Y-69950000D02*
X25082323Y-69950000D01*
D34*
X27050000Y-41150500D02*
X27050000Y-41862500D01*
X60999500Y-35700000D02*
X60950000Y-35650500D01*
X23050000Y-41150500D02*
X23050000Y-41862500D01*
X58699750Y-40800250D02*
X59050000Y-41150500D01*
X79050000Y-41150500D02*
X79050000Y-41862500D01*
X47050000Y-41150500D02*
X47050000Y-41862500D01*
X80950000Y-35650500D02*
X80950000Y-34637500D01*
X51050000Y-41150500D02*
X51050000Y-41862500D01*
X48999500Y-35700000D02*
X48950000Y-35650500D01*
X38699750Y-40800250D02*
X39050000Y-41150500D01*
X44950000Y-35650500D02*
X44950000Y-34637500D01*
D30*
%TO.N,Net-(D1-K)*%
X83787500Y-65500000D02*
X84990000Y-65500000D01*
%TO.N,Net-(D2-K)*%
X83787500Y-68500000D02*
X84990000Y-68500000D01*
%TO.N,SERX*%
X46959500Y-65947322D02*
X46959500Y-59774815D01*
X46959500Y-59774815D02*
X48209315Y-58525000D01*
X50860500Y-68740000D02*
X49752178Y-68740000D01*
X49752178Y-68740000D02*
X46959500Y-65947322D01*
X48209315Y-58525000D02*
X48862500Y-58525000D01*
X52059500Y-68740000D02*
X52265000Y-68740000D01*
X52265000Y-68740000D02*
X54000000Y-70475000D01*
%TO.N,Net-(D3-K)*%
X83787500Y-71500000D02*
X84990000Y-71500000D01*
%TO.N,SERY*%
X59250000Y-69250000D02*
X57765000Y-69250000D01*
X59250000Y-69250000D02*
X64820651Y-63679349D01*
X65515685Y-58525000D02*
X64862500Y-58525000D01*
X66101089Y-59148911D02*
X66101089Y-59110404D01*
X64820651Y-63679349D02*
X64820651Y-63625471D01*
X64820651Y-63625471D02*
X65171622Y-63274500D01*
X57765000Y-69250000D02*
X56540000Y-70475000D01*
X65171622Y-63274500D02*
X66000000Y-63274500D01*
X66101089Y-59110404D02*
X65515685Y-58525000D01*
D36*
%TO.N,/X_Control/OUT0*%
X24000000Y-34637500D02*
X23050000Y-34637500D01*
X24000000Y-34637500D02*
X24000000Y-37000000D01*
%TO.N,/X_Control/OUT1*%
X24950000Y-41862500D02*
X24000000Y-41862500D01*
X24000000Y-41862500D02*
X24000000Y-39500000D01*
%TO.N,/X_Control/OUT2*%
X28000000Y-34637500D02*
X28000000Y-37000000D01*
X28000000Y-34637500D02*
X27050000Y-34637500D01*
%TO.N,/X_Control/OUT3*%
X28000000Y-41862500D02*
X28000000Y-39500000D01*
X28950000Y-41862500D02*
X28000000Y-41862500D01*
%TO.N,/X_Control/OUT4*%
X32000000Y-34637500D02*
X31050000Y-34637500D01*
X32000000Y-34637500D02*
X32000000Y-37000000D01*
%TO.N,/X_Control/OUT5*%
X32950000Y-41862500D02*
X32000000Y-41862500D01*
X32000000Y-41862500D02*
X32000000Y-39500000D01*
%TO.N,/X_Control/OUT6*%
X36000000Y-34637500D02*
X36000000Y-37000000D01*
X36000000Y-34637500D02*
X35050000Y-34637500D01*
%TO.N,/X_Control/OUT7*%
X36000000Y-41862500D02*
X36000000Y-39500000D01*
X36950000Y-41862500D02*
X36000000Y-41862500D01*
%TO.N,/X_Control/OUT8*%
X40000000Y-34637500D02*
X39050000Y-34637500D01*
X40000000Y-34637500D02*
X40000000Y-37000000D01*
%TO.N,/X_Control/OUT9*%
X40000000Y-41862500D02*
X40000000Y-39500000D01*
X40950000Y-41862500D02*
X40000000Y-41862500D01*
%TO.N,/X_Control/OUT10*%
X44000000Y-34637500D02*
X43050000Y-34637500D01*
X44000000Y-34637500D02*
X44000000Y-37000000D01*
%TO.N,/X_Control/OUT11*%
X44000000Y-41862500D02*
X44000000Y-39500000D01*
X44950000Y-41862500D02*
X44000000Y-41862500D01*
%TO.N,/X_Control/OUT12*%
X48000000Y-34637500D02*
X47050000Y-34637500D01*
X48000000Y-34637500D02*
X48000000Y-37000000D01*
%TO.N,/X_Control/OUT13*%
X48950000Y-41862500D02*
X48000000Y-41862500D01*
X48000000Y-41862500D02*
X48000000Y-39500000D01*
%TO.N,/X_Control/OUT14*%
X52000000Y-34637500D02*
X52000000Y-37000000D01*
X52000000Y-34637500D02*
X51050000Y-34637500D01*
%TO.N,/X_Control/OUT15*%
X52000000Y-41862500D02*
X52000000Y-39500000D01*
X52950000Y-41862500D02*
X52000000Y-41862500D01*
%TO.N,/Y_Control/OUT0*%
X56000000Y-34637500D02*
X56000000Y-37000000D01*
X56000000Y-34637500D02*
X55050000Y-34637500D01*
%TO.N,/Y_Control/OUT1*%
X56000000Y-41862500D02*
X56000000Y-39500000D01*
X56950000Y-41862500D02*
X56000000Y-41862500D01*
%TO.N,/Y_Control/OUT2*%
X60000000Y-34637500D02*
X60000000Y-37000000D01*
X60000000Y-34637500D02*
X59050000Y-34637500D01*
%TO.N,/Y_Control/OUT3*%
X60000000Y-41862500D02*
X60000000Y-39500000D01*
X60950000Y-41862500D02*
X60000000Y-41862500D01*
%TO.N,/Y_Control/OUT4*%
X64000000Y-34637500D02*
X64000000Y-37000000D01*
X64000000Y-34637500D02*
X63050000Y-34637500D01*
%TO.N,/Y_Control/OUT5*%
X64950000Y-41862500D02*
X64000000Y-41862500D01*
X64000000Y-41862500D02*
X64000000Y-39500000D01*
%TO.N,/Y_Control/OUT6*%
X68000000Y-34637500D02*
X67050000Y-34637500D01*
X68000000Y-34637500D02*
X68000000Y-37000000D01*
%TO.N,/Y_Control/OUT7*%
X68000000Y-41862500D02*
X68000000Y-39500000D01*
X68950000Y-41862500D02*
X68000000Y-41862500D01*
%TO.N,/Y_Control/OUT8*%
X72000000Y-34637500D02*
X72000000Y-37000000D01*
X72000000Y-34637500D02*
X71050000Y-34637500D01*
%TO.N,/Y_Control/OUT9*%
X72950000Y-41862500D02*
X72000000Y-41862500D01*
X72000000Y-41862500D02*
X72000000Y-39500000D01*
%TO.N,/Y_Control/OUT10*%
X76000000Y-34637500D02*
X75050000Y-34637500D01*
X76000000Y-34637500D02*
X76000000Y-37000000D01*
%TO.N,/Y_Control/OUT11*%
X76950000Y-41862500D02*
X76000000Y-41862500D01*
X76000000Y-41862500D02*
X76000000Y-39500000D01*
%TO.N,/Y_Control/OUT12*%
X80000000Y-34637500D02*
X79050000Y-34637500D01*
X80000000Y-34637500D02*
X80000000Y-37000000D01*
%TO.N,/Y_Control/OUT13*%
X80950000Y-41862500D02*
X80000000Y-41862500D01*
X80000000Y-41862500D02*
X80000000Y-39500000D01*
%TO.N,/Y_Control/OUT14*%
X84000000Y-34637500D02*
X83050000Y-34637500D01*
X84000000Y-34637500D02*
X84000000Y-37000000D01*
%TO.N,/Y_Control/OUT15*%
X84950000Y-41862500D02*
X84000000Y-41862500D01*
X84000000Y-41862500D02*
X84000000Y-39500000D01*
D30*
%TO.N,/X_Control/S3*%
X48200000Y-57875000D02*
X48862500Y-57875000D01*
X39150000Y-60475000D02*
X41800000Y-57825000D01*
X42275000Y-56725000D02*
X47050000Y-56725000D01*
X47050000Y-56725000D02*
X48200000Y-57875000D01*
X41800000Y-57825000D02*
X41800000Y-57200000D01*
X41800000Y-57200000D02*
X42275000Y-56725000D01*
X32862500Y-60475000D02*
X39150000Y-60475000D01*
%TO.N,Net-(U12-A0)*%
X32025589Y-24975000D02*
X32862500Y-24975000D01*
X32862500Y-59175000D02*
X34215000Y-59175000D01*
X31599500Y-24548911D02*
X32025589Y-24975000D01*
X34215000Y-59175000D02*
X34290000Y-59250000D01*
%TO.N,Net-(U12-A1)*%
X32862500Y-58525000D02*
X32987500Y-58400000D01*
X32987500Y-58400000D02*
X36590000Y-58400000D01*
X47849500Y-24965000D02*
X48852500Y-24965000D01*
X48852500Y-24965000D02*
X48862500Y-24975000D01*
X36590000Y-58400000D02*
X37390000Y-59200000D01*
%TO.N,/X_Control/G0A*%
X24950000Y-31210050D02*
X23000000Y-29260050D01*
X24950000Y-32362500D02*
X24950000Y-31210050D01*
X23000000Y-29260050D02*
X23000000Y-29010000D01*
%TO.N,/X_Control/G1A*%
X26484315Y-52825000D02*
X25700000Y-52040685D01*
X25700000Y-52040685D02*
X25700000Y-48190000D01*
X23050000Y-44137500D02*
X23050000Y-45540000D01*
X23050000Y-45540000D02*
X25000000Y-47490000D01*
X27137500Y-52825000D02*
X26484315Y-52825000D01*
X25700000Y-48190000D02*
X25000000Y-47490000D01*
%TO.N,/X_Control/G2A*%
X27750000Y-28260000D02*
X27000000Y-29010000D01*
X28175000Y-26009315D02*
X28175000Y-26540685D01*
X27790685Y-25625000D02*
X28175000Y-26009315D01*
X28175000Y-26540685D02*
X27750000Y-26965685D01*
X27750000Y-26965685D02*
X27750000Y-28260000D01*
X28950000Y-32362500D02*
X28950000Y-31210050D01*
X27137500Y-25625000D02*
X27790685Y-25625000D01*
X27000000Y-29260050D02*
X27000000Y-29010000D01*
X28950000Y-31210050D02*
X27000000Y-29260050D01*
%TO.N,/X_Control/G3A*%
X27137500Y-54125000D02*
X27790685Y-54125000D01*
X27790685Y-54125000D02*
X28250000Y-53665685D01*
X28334315Y-53665685D02*
X29620000Y-52380000D01*
X28250000Y-53665685D02*
X28334315Y-53665685D01*
X29620000Y-52380000D02*
X29620000Y-48110000D01*
X29620000Y-48110000D02*
X29000000Y-47490000D01*
X27050000Y-45540000D02*
X29000000Y-47490000D01*
X27050000Y-44137500D02*
X27050000Y-45540000D01*
%TO.N,/X_Control/G4A*%
X30642452Y-26250000D02*
X30380000Y-26512452D01*
X30380000Y-28390000D02*
X31000000Y-29010000D01*
X32950000Y-31210050D02*
X31000000Y-29260050D01*
X30380000Y-26512452D02*
X30380000Y-28390000D01*
X31000000Y-29260050D02*
X31000000Y-29010000D01*
X31874500Y-26275000D02*
X31849500Y-26250000D01*
X32862500Y-26275000D02*
X31874500Y-26275000D01*
X32950000Y-32362500D02*
X32950000Y-31210050D01*
%TO.N,/X_Control/G5A*%
X31050000Y-44137500D02*
X31050000Y-45540000D01*
X31050000Y-45540000D02*
X33000000Y-47490000D01*
X31600000Y-49498529D02*
X31600000Y-49001471D01*
X31250500Y-50998529D02*
X31250500Y-50501471D01*
X31250500Y-50501471D02*
X31000000Y-50250971D01*
X31000000Y-54500000D02*
X31000000Y-51249029D01*
X31000000Y-51249029D02*
X31250500Y-50998529D01*
X31529265Y-48930735D02*
X32970000Y-47490000D01*
X31000000Y-50098529D02*
X31600000Y-49498529D01*
X31000000Y-50250971D02*
X31000000Y-50098529D01*
X31275000Y-54775000D02*
X31000000Y-54500000D01*
X31600000Y-49001471D02*
X31529265Y-48930735D01*
X32862500Y-54775000D02*
X31275000Y-54775000D01*
%TO.N,/X_Control/G6A*%
X33515685Y-25625000D02*
X34223529Y-26332844D01*
X32862500Y-25625000D02*
X33515685Y-25625000D01*
X36950000Y-32362500D02*
X36950000Y-31210050D01*
X35000000Y-29260050D02*
X35000000Y-29010000D01*
X34223529Y-28233529D02*
X35000000Y-29010000D01*
X36950000Y-31210050D02*
X35000000Y-29260050D01*
X34223529Y-26332844D02*
X34223529Y-28233529D01*
%TO.N,/X_Control/G7A*%
X36250000Y-48240000D02*
X37000000Y-47490000D01*
X35050000Y-44137500D02*
X35050000Y-45540000D01*
X36250000Y-51390685D02*
X36250000Y-48240000D01*
X35050000Y-45540000D02*
X37000000Y-47490000D01*
X32862500Y-54125000D02*
X33515685Y-54125000D01*
X33515685Y-54125000D02*
X36250000Y-51390685D01*
%TO.N,/X_Control/G8A*%
X40950000Y-31210050D02*
X39000000Y-29260050D01*
X39000000Y-29260050D02*
X39000000Y-29010000D01*
X39000000Y-29010000D02*
X38380000Y-28390000D01*
X38380000Y-27021471D02*
X41076471Y-24325000D01*
X40950000Y-32362500D02*
X40950000Y-31210050D01*
X38380000Y-28390000D02*
X38380000Y-27021471D01*
X41076471Y-24325000D02*
X43137500Y-24325000D01*
%TO.N,/X_Control/G9A*%
X42484315Y-52835000D02*
X41700000Y-52050685D01*
X43137500Y-52835000D02*
X42484315Y-52835000D01*
X39050000Y-45540000D02*
X41000000Y-47490000D01*
X39050000Y-44137500D02*
X39050000Y-45540000D01*
X41700000Y-52050685D02*
X41700000Y-48200000D01*
X41700000Y-48200000D02*
X41000000Y-47500000D01*
%TO.N,/X_Control/G10A*%
X44950000Y-32362500D02*
X44950000Y-31210050D01*
X43750000Y-28250000D02*
X43000000Y-29000000D01*
X43750000Y-26965685D02*
X43750000Y-28250000D01*
X43790685Y-25615000D02*
X44175000Y-25999315D01*
X44175000Y-25999315D02*
X44175000Y-26540685D01*
X43000000Y-29260050D02*
X43000000Y-29010000D01*
X44175000Y-26540685D02*
X43750000Y-26965685D01*
X44950000Y-31210050D02*
X43000000Y-29260050D01*
X43137500Y-25615000D02*
X43790685Y-25615000D01*
%TO.N,/X_Control/G11A*%
X45620000Y-52295685D02*
X45620000Y-48110000D01*
X45620000Y-48110000D02*
X45000000Y-47490000D01*
X43050000Y-45540000D02*
X45000000Y-47490000D01*
X43790685Y-54125000D02*
X45620000Y-52295685D01*
X43050000Y-44137500D02*
X43050000Y-45540000D01*
X43137500Y-54125000D02*
X43790685Y-54125000D01*
%TO.N,/X_Control/G12A*%
X48862500Y-26265000D02*
X47874500Y-26265000D01*
X48950000Y-32362500D02*
X48950000Y-31210050D01*
X46380000Y-28380000D02*
X47000000Y-29000000D01*
X48950000Y-31210050D02*
X47000000Y-29260050D01*
X46642452Y-26250000D02*
X46380000Y-26512452D01*
X46380000Y-26512452D02*
X46380000Y-28380000D01*
X47000000Y-29260050D02*
X47000000Y-29010000D01*
%TO.N,/X_Control/G13A*%
X47825000Y-48665000D02*
X49000000Y-47490000D01*
X47825000Y-50490685D02*
X47825000Y-48665000D01*
X47000000Y-51315685D02*
X47825000Y-50490685D01*
X47050000Y-45540000D02*
X49000000Y-47490000D01*
X47000000Y-54750000D02*
X47000000Y-51315685D01*
X47025000Y-54775000D02*
X47000000Y-54750000D01*
X47050000Y-44137500D02*
X47050000Y-45540000D01*
X48862500Y-54775000D02*
X47025000Y-54775000D01*
%TO.N,/X_Control/G14A*%
X51000000Y-29260050D02*
X51000000Y-29010000D01*
X50223529Y-28223529D02*
X51000000Y-29000000D01*
X49515685Y-25615000D02*
X50223529Y-26322844D01*
X52950000Y-32362500D02*
X52950000Y-31210050D01*
X50223529Y-26322844D02*
X50223529Y-28223529D01*
X52950000Y-31210050D02*
X51000000Y-29260050D01*
X48862500Y-25615000D02*
X49515685Y-25615000D01*
%TO.N,/X_Control/G15A*%
X51000000Y-52116028D02*
X51000000Y-50098529D01*
X51050000Y-44137500D02*
X51050000Y-45540000D01*
X50500000Y-52616029D02*
X51000000Y-52116028D01*
X49515685Y-54135000D02*
X50500000Y-53150685D01*
X51600000Y-49498529D02*
X51600000Y-48900000D01*
X51000000Y-50098529D02*
X51600000Y-49498529D01*
X51600000Y-48900000D02*
X53000000Y-47500000D01*
X48862500Y-54135000D02*
X49515685Y-54135000D01*
X51050000Y-45540000D02*
X53000000Y-47490000D01*
X50500000Y-53150685D02*
X50500000Y-52616029D01*
%TO.N,/Y_Control/G0A*%
X56950000Y-31210050D02*
X55000000Y-29260050D01*
X54380000Y-27021471D02*
X57076471Y-24325000D01*
X57076471Y-24325000D02*
X59137500Y-24325000D01*
X54380000Y-28390000D02*
X54380000Y-27021471D01*
X55000000Y-29010000D02*
X54380000Y-28390000D01*
X55000000Y-29260050D02*
X55000000Y-29010000D01*
X56950000Y-32362500D02*
X56950000Y-31210050D01*
%TO.N,/Y_Control/G1A*%
X58484315Y-52835000D02*
X57700000Y-52050685D01*
X57700000Y-48200000D02*
X57000000Y-47500000D01*
X57700000Y-52050685D02*
X57700000Y-48200000D01*
X55050000Y-45540000D02*
X57000000Y-47490000D01*
X55050000Y-44137500D02*
X55050000Y-45540000D01*
X59137500Y-52835000D02*
X58484315Y-52835000D01*
%TO.N,/Y_Control/G2A*%
X60950000Y-31210050D02*
X59000000Y-29260050D01*
X60175000Y-26575000D02*
X59750000Y-27000000D01*
X59000000Y-29260050D02*
X59000000Y-29010000D01*
X60950000Y-32362500D02*
X60950000Y-31210050D01*
X59750000Y-27000000D02*
X59750000Y-28250000D01*
X60175000Y-25999315D02*
X60175000Y-26575000D01*
X59790685Y-25615000D02*
X60175000Y-25999315D01*
X59137500Y-25615000D02*
X59790685Y-25615000D01*
X59750000Y-28250000D02*
X59000000Y-29000000D01*
%TO.N,/Y_Control/G3A*%
X59790685Y-54125000D02*
X61620000Y-52295685D01*
X59137500Y-54125000D02*
X59790685Y-54125000D01*
X61620000Y-48110000D02*
X61000000Y-47490000D01*
X59050000Y-44137500D02*
X59050000Y-45540000D01*
X61620000Y-52295685D02*
X61620000Y-48110000D01*
X59050000Y-45540000D02*
X61000000Y-47490000D01*
%TO.N,/Y_Control/G4A*%
X64950000Y-31210050D02*
X63000000Y-29260050D01*
X63000000Y-29260050D02*
X63000000Y-29010000D01*
X62380000Y-28380000D02*
X63000000Y-29000000D01*
X64950000Y-32362500D02*
X64950000Y-31210050D01*
X62380000Y-26512452D02*
X62380000Y-28380000D01*
X62642452Y-26250000D02*
X62380000Y-26512452D01*
X64862500Y-26265000D02*
X63874500Y-26265000D01*
%TO.N,/Y_Control/G5A*%
X63050000Y-45540000D02*
X65000000Y-47490000D01*
X63600000Y-48870000D02*
X64970000Y-47500000D01*
X63050000Y-44137500D02*
X63050000Y-45540000D01*
X62750000Y-51509029D02*
X63600000Y-50659029D01*
X64862500Y-54785000D02*
X63035000Y-54785000D01*
X63035000Y-54785000D02*
X62750000Y-54500000D01*
X63600000Y-50659029D02*
X63600000Y-48870000D01*
X62750000Y-54500000D02*
X62750000Y-51509029D01*
%TO.N,/Y_Control/G6A*%
X64862500Y-25615000D02*
X65515685Y-25615000D01*
X67000000Y-29260050D02*
X67000000Y-29010000D01*
X66223529Y-28223529D02*
X67000000Y-29000000D01*
X68950000Y-31210050D02*
X67000000Y-29260050D01*
X66223529Y-26322844D02*
X66223529Y-28223529D01*
X65515685Y-25615000D02*
X66223529Y-26322844D01*
X68950000Y-32362500D02*
X68950000Y-31210050D01*
%TO.N,/Y_Control/G7A*%
X67050000Y-44137500D02*
X67050000Y-45540000D01*
X68250000Y-51400685D02*
X68250000Y-48250000D01*
X65515685Y-54135000D02*
X68250000Y-51400685D01*
X68250000Y-48250000D02*
X69000000Y-47500000D01*
X67050000Y-45540000D02*
X69000000Y-47490000D01*
X64862500Y-54135000D02*
X65515685Y-54135000D01*
%TO.N,/Y_Control/G8A*%
X71000000Y-28925183D02*
X70380000Y-28305183D01*
X71000000Y-29260050D02*
X71000000Y-29010000D01*
X70380000Y-26870000D02*
X72925000Y-24325000D01*
X72950000Y-32362500D02*
X72950000Y-31210050D01*
X72925000Y-24325000D02*
X75137500Y-24325000D01*
X72950000Y-31210050D02*
X71000000Y-29260050D01*
X70380000Y-28305183D02*
X70380000Y-26870000D01*
%TO.N,/Y_Control/G9A*%
X71050000Y-45540000D02*
X73000000Y-47490000D01*
X73700000Y-48200000D02*
X73000000Y-47500000D01*
X75137500Y-52835000D02*
X74484315Y-52835000D01*
X71050000Y-44137500D02*
X71050000Y-45540000D01*
X73700000Y-52050685D02*
X73700000Y-48200000D01*
X74484315Y-52835000D02*
X73700000Y-52050685D01*
%TO.N,/Y_Control/G10A*%
X75750000Y-28250000D02*
X75000000Y-29000000D01*
X76175000Y-26575000D02*
X75750000Y-27000000D01*
X76175000Y-25999315D02*
X76175000Y-26575000D01*
X75790685Y-25615000D02*
X76175000Y-25999315D01*
X75137500Y-25615000D02*
X75790685Y-25615000D01*
X76950000Y-31210050D02*
X75000000Y-29260050D01*
X75000000Y-29260050D02*
X75000000Y-29010000D01*
X76950000Y-32362500D02*
X76950000Y-31210050D01*
X75750000Y-27000000D02*
X75750000Y-28250000D01*
%TO.N,/Y_Control/G11A*%
X75050000Y-45540000D02*
X77000000Y-47490000D01*
X77620000Y-52295685D02*
X77620000Y-48110000D01*
X75790685Y-54125000D02*
X77620000Y-52295685D01*
X75050000Y-44137500D02*
X75050000Y-45540000D01*
X75137500Y-54125000D02*
X75790685Y-54125000D01*
X77620000Y-48110000D02*
X77000000Y-47490000D01*
%TO.N,/Y_Control/G12A*%
X80950000Y-32362500D02*
X80950000Y-31210050D01*
X80862500Y-26265000D02*
X79874500Y-26265000D01*
X79000000Y-29260050D02*
X79000000Y-29010000D01*
X78642452Y-26250000D02*
X78380000Y-26512452D01*
X80950000Y-31210050D02*
X79000000Y-29260050D01*
X78380000Y-26512452D02*
X78380000Y-28380000D01*
X78380000Y-28380000D02*
X79000000Y-29000000D01*
%TO.N,/Y_Control/G13A*%
X79250500Y-51008529D02*
X79250500Y-50511471D01*
X79200000Y-49908529D02*
X79600000Y-49508529D01*
X79050000Y-44137500D02*
X79050000Y-45540000D01*
X79250500Y-50511471D02*
X79200000Y-50460971D01*
X79600000Y-49011471D02*
X79529265Y-48940735D01*
X79529265Y-48940735D02*
X80970000Y-47500000D01*
X80862500Y-54785000D02*
X79385000Y-54785000D01*
X79050000Y-45540000D02*
X81000000Y-47490000D01*
X79385000Y-54785000D02*
X79000000Y-54400000D01*
X79600000Y-49508529D02*
X79600000Y-49011471D01*
X79000000Y-54400000D02*
X79000000Y-51259029D01*
X79200000Y-50460971D02*
X79200000Y-49908529D01*
X79000000Y-51259029D02*
X79250500Y-51008529D01*
%TO.N,/Y_Control/G14A*%
X84950000Y-32362500D02*
X84950000Y-31210050D01*
X80862500Y-25615000D02*
X81515685Y-25615000D01*
X82223529Y-28223529D02*
X83000000Y-29000000D01*
X81515685Y-25615000D02*
X82223529Y-26322844D01*
X82223529Y-26322844D02*
X82223529Y-28223529D01*
X83000000Y-29260050D02*
X83000000Y-29010000D01*
X84950000Y-31210050D02*
X83000000Y-29260050D01*
%TO.N,/Y_Control/G15A*%
X80862500Y-54135000D02*
X82365000Y-54135000D01*
X83050000Y-45540000D02*
X85000000Y-47490000D01*
X84250000Y-48250000D02*
X85000000Y-47500000D01*
X84250000Y-52250000D02*
X84250000Y-48250000D01*
X83050000Y-44137500D02*
X83050000Y-45540000D01*
X82365000Y-54135000D02*
X84250000Y-52250000D01*
%TO.N,/Y_Control/G0B*%
X55050000Y-32711396D02*
X55050000Y-32362500D01*
X59127000Y-24964500D02*
X59137500Y-24975000D01*
X55663604Y-33325000D02*
X55050000Y-32711396D01*
X57000000Y-29010000D02*
X55650000Y-27660000D01*
X55650000Y-26417746D02*
X57103246Y-24964500D01*
X57103246Y-24964500D02*
X59127000Y-24964500D01*
X57000000Y-29010000D02*
X57550000Y-29560000D01*
X57286396Y-33325000D02*
X55663604Y-33325000D01*
X55650000Y-27660000D02*
X55650000Y-26417746D01*
X57550000Y-29560000D02*
X57550000Y-33061396D01*
X57550000Y-33061396D02*
X57286396Y-33325000D01*
%TO.N,/Y_Control/G1B*%
X58484315Y-53485000D02*
X57300000Y-52300685D01*
X54713604Y-43175000D02*
X56675000Y-43175000D01*
X55000000Y-47490000D02*
X54450000Y-46940000D01*
X57300000Y-50398529D02*
X56400000Y-49498529D01*
X54450000Y-46940000D02*
X54450000Y-43438604D01*
X56400000Y-49498529D02*
X56400000Y-48900000D01*
X57300000Y-52300685D02*
X57300000Y-50398529D01*
X59137500Y-53485000D02*
X58484315Y-53485000D01*
X56950000Y-43450000D02*
X56950000Y-44137500D01*
X56400000Y-48900000D02*
X55000000Y-47500000D01*
X56675000Y-43175000D02*
X56950000Y-43450000D01*
X54450000Y-43438604D02*
X54713604Y-43175000D01*
%TO.N,/Y_Control/G2B*%
X61620000Y-25494315D02*
X61620000Y-28380000D01*
X59050000Y-32711396D02*
X59050000Y-32362500D01*
X61000000Y-29010000D02*
X61550000Y-29560000D01*
X59137500Y-23665000D02*
X59790685Y-23665000D01*
X61286396Y-33325000D02*
X59663604Y-33325000D01*
X61620000Y-28380000D02*
X61000000Y-29000000D01*
X59663604Y-33325000D02*
X59050000Y-32711396D01*
X61550000Y-29560000D02*
X61550000Y-33061396D01*
X59790685Y-23665000D02*
X61620000Y-25494315D01*
X61550000Y-33061396D02*
X61286396Y-33325000D01*
%TO.N,/Y_Control/G3B*%
X58450000Y-43438604D02*
X58713604Y-43175000D01*
X58450000Y-46940000D02*
X58450000Y-43438604D01*
X59000000Y-47490000D02*
X58450000Y-46940000D01*
X58100000Y-51800685D02*
X58100000Y-48400000D01*
X59137500Y-52185000D02*
X58484315Y-52185000D01*
X60675000Y-43175000D02*
X60950000Y-43450000D01*
X60950000Y-43450000D02*
X60950000Y-44137500D01*
X58484315Y-52185000D02*
X58100000Y-51800685D01*
X58713604Y-43175000D02*
X60675000Y-43175000D01*
X58100000Y-48400000D02*
X59000000Y-47500000D01*
%TO.N,/Y_Control/G4B*%
X63200000Y-26540981D02*
X63200000Y-26591471D01*
X65550000Y-33061396D02*
X65286396Y-33325000D01*
X63663604Y-33325000D02*
X63050000Y-32711396D01*
X63200000Y-26591471D02*
X63750000Y-27141471D01*
X65550000Y-29560000D02*
X65550000Y-33061396D01*
X63750000Y-27141471D02*
X63750000Y-27780000D01*
X63200000Y-24674315D02*
X63200000Y-25959019D01*
X65286396Y-33325000D02*
X63663604Y-33325000D01*
X63242452Y-26001471D02*
X63242452Y-26498529D01*
X64209315Y-23665000D02*
X63200000Y-24674315D01*
X63750000Y-27780000D02*
X64970000Y-29000000D01*
X64862500Y-23665000D02*
X64209315Y-23665000D01*
X63050000Y-32711396D02*
X63050000Y-32362500D01*
X63242452Y-26498529D02*
X63200000Y-26540981D01*
X65000000Y-29010000D02*
X65550000Y-29560000D01*
X63200000Y-25959019D02*
X63242452Y-26001471D01*
%TO.N,/Y_Control/G5B*%
X62380000Y-48120000D02*
X63000000Y-47500000D01*
X64862500Y-52185000D02*
X63932167Y-52185000D01*
X62713604Y-43175000D02*
X64675000Y-43175000D01*
X62450000Y-46940000D02*
X62450000Y-43438604D01*
X62380000Y-50489500D02*
X62380000Y-48120000D01*
X62650500Y-50760000D02*
X62380000Y-50489500D01*
X63000000Y-47490000D02*
X62450000Y-46940000D01*
X64675000Y-43175000D02*
X64950000Y-43450000D01*
X62450000Y-43438604D02*
X62713604Y-43175000D01*
X64950000Y-43450000D02*
X64950000Y-44137500D01*
%TO.N,/Y_Control/G6B*%
X67050000Y-32711396D02*
X67050000Y-32362500D01*
X69550000Y-33061396D02*
X69286396Y-33325000D01*
X68380000Y-27179315D02*
X68380000Y-28380000D01*
X67663604Y-33325000D02*
X67050000Y-32711396D01*
X69550000Y-29560000D02*
X69550000Y-33061396D01*
X65515685Y-24315000D02*
X68380000Y-27179315D01*
X69286396Y-33325000D02*
X67663604Y-33325000D01*
X69000000Y-29010000D02*
X69550000Y-29560000D01*
X64862500Y-24315000D02*
X65515685Y-24315000D01*
X68380000Y-28380000D02*
X69000000Y-29000000D01*
%TO.N,/Y_Control/G7B*%
X66450000Y-43438604D02*
X66713604Y-43175000D01*
X67000000Y-47490000D02*
X66450000Y-46940000D01*
X66600000Y-49698529D02*
X66380000Y-49478529D01*
X66602647Y-52397353D02*
X66602647Y-50352647D01*
X66165000Y-52835000D02*
X66602647Y-52397353D01*
X66450000Y-46940000D02*
X66450000Y-43438604D01*
X66602647Y-50352647D02*
X66600000Y-50350000D01*
X66380000Y-48120000D02*
X67000000Y-47500000D01*
X68950000Y-43450000D02*
X68950000Y-44137500D01*
X66600000Y-50350000D02*
X66600000Y-49698529D01*
X64862500Y-52835000D02*
X66165000Y-52835000D01*
X66713604Y-43175000D02*
X68675000Y-43175000D01*
X66380000Y-49478529D02*
X66380000Y-48120000D01*
X68675000Y-43175000D02*
X68950000Y-43450000D01*
%TO.N,/Y_Control/G8B*%
X71050000Y-32711396D02*
X71050000Y-32362500D01*
X73000000Y-29010000D02*
X71650000Y-27660000D01*
X73286396Y-33325000D02*
X71663604Y-33325000D01*
X73550000Y-29560000D02*
X73550000Y-33061396D01*
X73000000Y-29010000D02*
X73550000Y-29560000D01*
X73550000Y-33061396D02*
X73286396Y-33325000D01*
X71650000Y-27660000D02*
X71650000Y-26350000D01*
X75127000Y-24964500D02*
X75137500Y-24975000D01*
X71663604Y-33325000D02*
X71050000Y-32711396D01*
X73035500Y-24964500D02*
X75127000Y-24964500D01*
X71650000Y-26350000D02*
X73035500Y-24964500D01*
%TO.N,/Y_Control/G9B*%
X72675000Y-43175000D02*
X72950000Y-43450000D01*
X72950000Y-43450000D02*
X72950000Y-44137500D01*
X75137500Y-53485000D02*
X74484315Y-53485000D01*
X70450000Y-43438604D02*
X70713604Y-43175000D01*
X71000000Y-47490000D02*
X70450000Y-46940000D01*
X74484315Y-53485000D02*
X71620000Y-50620685D01*
X71620000Y-48120000D02*
X71000000Y-47500000D01*
X71620000Y-50620685D02*
X71620000Y-48120000D01*
X70450000Y-46940000D02*
X70450000Y-43438604D01*
X70713604Y-43175000D02*
X72675000Y-43175000D01*
%TO.N,/Y_Control/G10B*%
X75790685Y-23665000D02*
X77620000Y-25494315D01*
X75663604Y-33325000D02*
X75050000Y-32711396D01*
X75137500Y-23665000D02*
X75790685Y-23665000D01*
X77000000Y-29010000D02*
X77550000Y-29560000D01*
X77620000Y-25494315D02*
X77620000Y-28380000D01*
X75050000Y-32711396D02*
X75050000Y-32362500D01*
X77550000Y-33061396D02*
X77286396Y-33325000D01*
X77620000Y-28380000D02*
X77000000Y-29000000D01*
X77286396Y-33325000D02*
X75663604Y-33325000D01*
X77550000Y-29560000D02*
X77550000Y-33061396D01*
%TO.N,/Y_Control/G11B*%
X74100000Y-51800685D02*
X74100000Y-48400000D01*
X74713604Y-43175000D02*
X76675000Y-43175000D01*
X74100000Y-48400000D02*
X75000000Y-47500000D01*
X76675000Y-43175000D02*
X76950000Y-43450000D01*
X74450000Y-46940000D02*
X74450000Y-43438604D01*
X74450000Y-43438604D02*
X74713604Y-43175000D01*
X75137500Y-52185000D02*
X74484315Y-52185000D01*
X76950000Y-43450000D02*
X76950000Y-44137500D01*
X75000000Y-47490000D02*
X74450000Y-46940000D01*
X74484315Y-52185000D02*
X74100000Y-51800685D01*
%TO.N,/Y_Control/G12B*%
X79200000Y-24684315D02*
X79200000Y-25959019D01*
X79242452Y-26001471D02*
X79242452Y-26633923D01*
X80862500Y-23665000D02*
X80219315Y-23665000D01*
X81286396Y-33325000D02*
X79663604Y-33325000D01*
X79050000Y-32711396D02*
X79050000Y-32362500D01*
X80219315Y-23665000D02*
X79200000Y-24684315D01*
X79663604Y-33325000D02*
X79050000Y-32711396D01*
X79750000Y-27141471D02*
X79750000Y-27780000D01*
X81550000Y-33061396D02*
X81286396Y-33325000D01*
X81550000Y-29560000D02*
X81550000Y-33061396D01*
X81000000Y-29010000D02*
X81550000Y-29560000D01*
X79200000Y-25959019D02*
X79242452Y-26001471D01*
X79242452Y-26633923D02*
X79750000Y-27141471D01*
X79750000Y-27780000D02*
X80970000Y-29000000D01*
%TO.N,/Y_Control/G13B*%
X78380000Y-48120000D02*
X79000000Y-47500000D01*
X80675000Y-43175000D02*
X80950000Y-43450000D01*
X80862500Y-52185000D02*
X79932167Y-52185000D01*
X78450000Y-46940000D02*
X78450000Y-43438604D01*
X79000000Y-47490000D02*
X78450000Y-46940000D01*
X78713604Y-43175000D02*
X80675000Y-43175000D01*
X78650500Y-50760000D02*
X78380000Y-50489500D01*
X78450000Y-43438604D02*
X78713604Y-43175000D01*
X80950000Y-43450000D02*
X80950000Y-44137500D01*
X78380000Y-50489500D02*
X78380000Y-48120000D01*
%TO.N,/Y_Control/G14B*%
X85550000Y-29560000D02*
X85550000Y-33061396D01*
X85000000Y-29010000D02*
X85550000Y-29560000D01*
X85550000Y-33061396D02*
X85286396Y-33325000D01*
X80862500Y-24315000D02*
X81515685Y-24315000D01*
X81515685Y-24315000D02*
X84380000Y-27179315D01*
X83050000Y-32711396D02*
X83050000Y-32362500D01*
X84380000Y-27179315D02*
X84380000Y-28380000D01*
X83663604Y-33325000D02*
X83050000Y-32711396D01*
X84380000Y-28380000D02*
X85000000Y-29000000D01*
X85286396Y-33325000D02*
X83663604Y-33325000D01*
%TO.N,/Y_Control/G15B*%
X80862500Y-52835000D02*
X82165000Y-52835000D01*
X82450000Y-43438604D02*
X82713604Y-43175000D01*
X84950000Y-43450000D02*
X84950000Y-44137500D01*
X82600000Y-52400000D02*
X82600000Y-49850971D01*
X83000000Y-47490000D02*
X82450000Y-46940000D01*
X84675000Y-43175000D02*
X84950000Y-43450000D01*
X82600000Y-49850971D02*
X82250000Y-49500971D01*
X82450000Y-46940000D02*
X82450000Y-43438604D01*
X82250000Y-49500971D02*
X82250000Y-48250000D01*
X82713604Y-43175000D02*
X84675000Y-43175000D01*
X82165000Y-52835000D02*
X82600000Y-52400000D01*
X82250000Y-48250000D02*
X83000000Y-47500000D01*
%TO.N,/X_Control/G0B*%
X25550000Y-33061396D02*
X25286396Y-33325000D01*
X25550000Y-29560000D02*
X25550000Y-33061396D01*
X25000000Y-29010000D02*
X25550000Y-29560000D01*
X25286396Y-33325000D02*
X23663604Y-33325000D01*
X23050000Y-32711396D02*
X23050000Y-32362500D01*
X23663604Y-33325000D02*
X23050000Y-32711396D01*
%TO.N,/X_Control/G1B*%
X22713604Y-43175000D02*
X24675000Y-43175000D01*
X27137500Y-53475000D02*
X26484315Y-53475000D01*
X24675000Y-43175000D02*
X24950000Y-43450000D01*
X23620000Y-48110000D02*
X23000000Y-47490000D01*
X22450000Y-46940000D02*
X22450000Y-43438604D01*
X23620000Y-50610685D02*
X23620000Y-48110000D01*
X22450000Y-43438604D02*
X22713604Y-43175000D01*
X26484315Y-53475000D02*
X23620000Y-50610685D01*
X24950000Y-43450000D02*
X24950000Y-44137500D01*
X23000000Y-47490000D02*
X22450000Y-46940000D01*
%TO.N,/X_Control/G2B*%
X29550000Y-29560000D02*
X29550000Y-33061396D01*
X29550000Y-33061396D02*
X29286396Y-33325000D01*
X27790685Y-23675000D02*
X28575000Y-24459315D01*
X27663604Y-33325000D02*
X27050000Y-32711396D01*
X28575000Y-24459315D02*
X28575000Y-26706371D01*
X28575000Y-26706371D02*
X28380000Y-26901371D01*
X29000000Y-29010000D02*
X29550000Y-29560000D01*
X29286396Y-33325000D02*
X27663604Y-33325000D01*
X28380000Y-28390000D02*
X29000000Y-29010000D01*
X28380000Y-26901371D02*
X28380000Y-28390000D01*
X27137500Y-23675000D02*
X27790685Y-23675000D01*
X27050000Y-32711396D02*
X27050000Y-32362500D01*
%TO.N,/X_Control/G3B*%
X27137500Y-52175000D02*
X26484315Y-52175000D01*
X28675000Y-43175000D02*
X28950000Y-43450000D01*
X26484315Y-52175000D02*
X26100000Y-51790685D01*
X26713604Y-43175000D02*
X28675000Y-43175000D01*
X26100000Y-51790685D02*
X26100000Y-48390000D01*
X28950000Y-43450000D02*
X28950000Y-44137500D01*
X26450000Y-46940000D02*
X26450000Y-43438604D01*
X27000000Y-47490000D02*
X26450000Y-46940000D01*
X26450000Y-43438604D02*
X26713604Y-43175000D01*
X26100000Y-48390000D02*
X27000000Y-47490000D01*
%TO.N,/X_Control/G4B*%
X32862500Y-23675000D02*
X31575000Y-23675000D01*
X31000000Y-25759019D02*
X31242452Y-26001471D01*
X31242452Y-26001471D02*
X31242452Y-26498529D01*
X31663604Y-33325000D02*
X31050000Y-32711396D01*
X31000000Y-24250000D02*
X31000000Y-25759019D01*
X31169755Y-26571226D02*
X31750000Y-27151471D01*
X31750000Y-27151471D02*
X31750000Y-27790000D01*
X31050000Y-32711396D02*
X31050000Y-32362500D01*
X31750000Y-27790000D02*
X32970000Y-29010000D01*
X33286396Y-33325000D02*
X31663604Y-33325000D01*
X33550000Y-33061396D02*
X33286396Y-33325000D01*
X33550000Y-29560000D02*
X33550000Y-33061396D01*
X31242452Y-26498529D02*
X31169755Y-26571226D01*
X33000000Y-29010000D02*
X33550000Y-29560000D01*
X31575000Y-23675000D02*
X31000000Y-24250000D01*
%TO.N,/X_Control/G5B*%
X31000000Y-47490000D02*
X30450000Y-46940000D01*
X30380000Y-48110000D02*
X31000000Y-47490000D01*
X30450000Y-46940000D02*
X30450000Y-43438604D01*
X32950000Y-43450000D02*
X32950000Y-44137500D01*
X32862500Y-52175000D02*
X31932167Y-52175000D01*
X30450000Y-43438604D02*
X30713604Y-43175000D01*
X30380000Y-50479500D02*
X30380000Y-48110000D01*
X31932167Y-52175000D02*
X31849500Y-52092333D01*
X30650500Y-50750000D02*
X30380000Y-50479500D01*
X32675000Y-43175000D02*
X32950000Y-43450000D01*
X30713604Y-43175000D02*
X32675000Y-43175000D01*
%TO.N,/X_Control/G6B*%
X32862500Y-24325000D02*
X33515685Y-24325000D01*
X37286396Y-33325000D02*
X35663604Y-33325000D01*
X37550000Y-29560000D02*
X37550000Y-33061396D01*
X37000000Y-29010000D02*
X37550000Y-29560000D01*
X35663604Y-33325000D02*
X35050000Y-32711396D01*
X36380000Y-28390000D02*
X37000000Y-29010000D01*
X37550000Y-33061396D02*
X37286396Y-33325000D01*
X35050000Y-32711396D02*
X35050000Y-32362500D01*
X36380000Y-27189315D02*
X36380000Y-28390000D01*
X33515685Y-24325000D02*
X36380000Y-27189315D01*
%TO.N,/X_Control/G7B*%
X33925000Y-52825000D02*
X34600000Y-52150000D01*
X35000000Y-47490000D02*
X34450000Y-46940000D01*
X34450000Y-43438604D02*
X34713604Y-43175000D01*
X36950000Y-43450000D02*
X36950000Y-44137500D01*
X34713604Y-43175000D02*
X36675000Y-43175000D01*
X34450000Y-46940000D02*
X34450000Y-43438604D01*
X32862500Y-52825000D02*
X33925000Y-52825000D01*
X34600000Y-49698529D02*
X34380000Y-49478529D01*
X34600000Y-52150000D02*
X34600000Y-49698529D01*
X34380000Y-48110000D02*
X35000000Y-47490000D01*
X36675000Y-43175000D02*
X36950000Y-43450000D01*
X34380000Y-49478529D02*
X34380000Y-48110000D01*
%TO.N,/X_Control/G8B*%
X41550000Y-33061396D02*
X41286396Y-33325000D01*
X41000000Y-29010000D02*
X39650000Y-27660000D01*
X41000000Y-29010000D02*
X41550000Y-29560000D01*
X41550000Y-29560000D02*
X41550000Y-33061396D01*
X41103246Y-24964500D02*
X43127000Y-24964500D01*
X39050000Y-32711396D02*
X39050000Y-32362500D01*
X39650000Y-27660000D02*
X39650000Y-26417746D01*
X41286396Y-33325000D02*
X39663604Y-33325000D01*
X39650000Y-26417746D02*
X41103246Y-24964500D01*
X39663604Y-33325000D02*
X39050000Y-32711396D01*
X43127000Y-24964500D02*
X43137500Y-24975000D01*
%TO.N,/X_Control/G9B*%
X38450000Y-43438604D02*
X38713604Y-43175000D01*
X38713604Y-43175000D02*
X40675000Y-43175000D01*
X39620000Y-48120000D02*
X39000000Y-47500000D01*
X40950000Y-43450000D02*
X40950000Y-44137500D01*
X39000000Y-47490000D02*
X38450000Y-46940000D01*
X39620000Y-50620685D02*
X39620000Y-48120000D01*
X40675000Y-43175000D02*
X40950000Y-43450000D01*
X38450000Y-46940000D02*
X38450000Y-43438604D01*
X43137500Y-53485000D02*
X42484315Y-53485000D01*
X42484315Y-53485000D02*
X39620000Y-50620685D01*
%TO.N,/X_Control/G10B*%
X43663604Y-33325000D02*
X43050000Y-32711396D01*
X45620000Y-25494315D02*
X45620000Y-28380000D01*
X45000000Y-29010000D02*
X45550000Y-29560000D01*
X45286396Y-33325000D02*
X43663604Y-33325000D01*
X43137500Y-23665000D02*
X43790685Y-23665000D01*
X43790685Y-23665000D02*
X45620000Y-25494315D01*
X45550000Y-33061396D02*
X45286396Y-33325000D01*
X45620000Y-28380000D02*
X45000000Y-29000000D01*
X45550000Y-29560000D02*
X45550000Y-33061396D01*
X43050000Y-32711396D02*
X43050000Y-32362500D01*
%TO.N,/X_Control/G11B*%
X42713604Y-43175000D02*
X44675000Y-43175000D01*
X42484315Y-52185000D02*
X42100000Y-51800685D01*
X42100000Y-51800685D02*
X42100000Y-48400000D01*
X42450000Y-46940000D02*
X42450000Y-43438604D01*
X44675000Y-43175000D02*
X44950000Y-43450000D01*
X44950000Y-43450000D02*
X44950000Y-44137500D01*
X42450000Y-43438604D02*
X42713604Y-43175000D01*
X42100000Y-48400000D02*
X43000000Y-47500000D01*
X43000000Y-47490000D02*
X42450000Y-46940000D01*
X43137500Y-52185000D02*
X42484315Y-52185000D01*
%TO.N,/X_Control/G12B*%
X49286396Y-33325000D02*
X47663604Y-33325000D01*
X49550000Y-33061396D02*
X49286396Y-33325000D01*
X47663604Y-33325000D02*
X47050000Y-32711396D01*
X47250000Y-24624315D02*
X47250000Y-26641471D01*
X49000000Y-29010000D02*
X49550000Y-29560000D01*
X48209315Y-23665000D02*
X47250000Y-24624315D01*
X48862500Y-23665000D02*
X48209315Y-23665000D01*
X47050000Y-32711396D02*
X47050000Y-32362500D01*
X49550000Y-29560000D02*
X49550000Y-33061396D01*
X47750000Y-27780000D02*
X48970000Y-29000000D01*
X47250000Y-26641471D02*
X47750000Y-27141471D01*
X47750000Y-27141471D02*
X47750000Y-27780000D01*
%TO.N,/X_Control/G13B*%
X46380000Y-48120000D02*
X47000000Y-47500000D01*
X46450000Y-43438604D02*
X46713604Y-43175000D01*
X46713604Y-43175000D02*
X48675000Y-43175000D01*
X48675000Y-43175000D02*
X48950000Y-43450000D01*
X46450000Y-46940000D02*
X46450000Y-43438604D01*
X46380000Y-50489500D02*
X46380000Y-48120000D01*
X48862500Y-52185000D02*
X47932167Y-52185000D01*
X48950000Y-43450000D02*
X48950000Y-44137500D01*
X47000000Y-47490000D02*
X46450000Y-46940000D01*
X46650500Y-50760000D02*
X46380000Y-50489500D01*
%TO.N,/X_Control/G14B*%
X51050000Y-32711396D02*
X51050000Y-32362500D01*
X48862500Y-24315000D02*
X49515685Y-24315000D01*
X53550000Y-33061396D02*
X53286396Y-33325000D01*
X49515685Y-24315000D02*
X52380000Y-27179315D01*
X53550000Y-29560000D02*
X53550000Y-33061396D01*
X52380000Y-27179315D02*
X52380000Y-28380000D01*
X53286396Y-33325000D02*
X51663604Y-33325000D01*
X51663604Y-33325000D02*
X51050000Y-32711396D01*
X53000000Y-29010000D02*
X53550000Y-29560000D01*
X52380000Y-28380000D02*
X53000000Y-29000000D01*
%TO.N,/X_Control/G15B*%
X50713604Y-43175000D02*
X52675000Y-43175000D01*
X50380000Y-49531471D02*
X50380000Y-48120000D01*
X50380000Y-48120000D02*
X51000000Y-47500000D01*
X50600000Y-51950343D02*
X50600000Y-49751471D01*
X50450000Y-43438604D02*
X50713604Y-43175000D01*
X52675000Y-43175000D02*
X52950000Y-43450000D01*
X50450000Y-46940000D02*
X50450000Y-43438604D01*
X48862500Y-52835000D02*
X49715343Y-52835000D01*
X51000000Y-47490000D02*
X50450000Y-46940000D01*
X49715343Y-52835000D02*
X50600000Y-51950343D01*
X52950000Y-43450000D02*
X52950000Y-44137500D01*
X50600000Y-49751471D02*
X50380000Y-49531471D01*
%TO.N,VOUT*%
X51600000Y-52150000D02*
X51300000Y-52450000D01*
X60668589Y-66983589D02*
X60483589Y-66983589D01*
X52250000Y-58750000D02*
X52250000Y-55959500D01*
X51600000Y-50800000D02*
X51600000Y-52150000D01*
X51300000Y-53946986D02*
X52100601Y-54747587D01*
X52100000Y-50300000D02*
X51600000Y-50800000D01*
X60483589Y-66983589D02*
X52250000Y-58750000D01*
X51300000Y-52450000D02*
X51300000Y-53946986D01*
%TO.N,Net-(U12-A2)*%
X31625500Y-54058815D02*
X32209315Y-53475000D01*
X31625500Y-54091833D02*
X31625500Y-54058815D01*
X32209315Y-57875000D02*
X32862500Y-57875000D01*
X31750000Y-57415685D02*
X32209315Y-57875000D01*
X32209315Y-53475000D02*
X32862500Y-53475000D01*
X32862500Y-57875000D02*
X36715000Y-57875000D01*
X36715000Y-57875000D02*
X37390000Y-57200000D01*
X31750000Y-56600000D02*
X31750000Y-57415685D01*
%TO.N,/X_Control/S0*%
X32862500Y-61125000D02*
X39884315Y-61125000D01*
X39884315Y-61125000D02*
X42484315Y-58525000D01*
X42484315Y-58525000D02*
X43137500Y-58525000D01*
%TO.N,/Y_Control/S3*%
X78409315Y-62275000D02*
X70075000Y-62275000D01*
X80209315Y-60475000D02*
X78409315Y-62275000D01*
X80862500Y-60475000D02*
X80209315Y-60475000D01*
X70075000Y-62275000D02*
X65675000Y-57875000D01*
X65675000Y-57875000D02*
X64862500Y-57875000D01*
%TO.N,/X_Control/DIR*%
X30225000Y-23025000D02*
X32250000Y-21000000D01*
X40459315Y-21000000D02*
X42484315Y-23025000D01*
X32250000Y-21000000D02*
X40459315Y-21000000D01*
X26000000Y-23000000D02*
X27112500Y-23000000D01*
X42484315Y-23025000D02*
X43137500Y-23025000D01*
X27112500Y-23000000D02*
X27137500Y-23025000D01*
X44175000Y-59175000D02*
X44200000Y-59200000D01*
X27137500Y-51525000D02*
X28111493Y-51525000D01*
X27137500Y-23025000D02*
X30225000Y-23025000D01*
X43287500Y-51675000D02*
X43137500Y-51525000D01*
X44338567Y-51870565D02*
X44143002Y-51675000D01*
X43137500Y-59175000D02*
X44175000Y-59175000D01*
X44143002Y-51675000D02*
X43287500Y-51675000D01*
X28111493Y-51525000D02*
X28257900Y-51671407D01*
%TO.N,Net-(U12-A3)*%
X42040500Y-55959500D02*
X47500000Y-55959500D01*
X39234315Y-59825000D02*
X41000000Y-58059315D01*
X32862500Y-59825000D02*
X39234315Y-59825000D01*
X48837500Y-53500000D02*
X48862500Y-53475000D01*
X41000000Y-57000000D02*
X42040500Y-55959500D01*
X47599500Y-53500000D02*
X48837500Y-53500000D01*
X41000000Y-58059315D02*
X41000000Y-57000000D01*
%TO.N,PWM*%
X51583154Y-72224500D02*
X50310000Y-70951346D01*
X64160000Y-70475000D02*
X66935000Y-67700000D01*
X74000000Y-58500000D02*
X75112500Y-58500000D01*
X75112500Y-58500000D02*
X75137500Y-58525000D01*
X76987000Y-63274500D02*
X82212500Y-68500000D01*
X32484315Y-62700000D02*
X28309315Y-58525000D01*
X50310000Y-69950000D02*
X43060000Y-62700000D01*
X69264500Y-67760000D02*
X73750000Y-63274500D01*
X73750000Y-63274500D02*
X76987000Y-63274500D01*
X43060000Y-62700000D02*
X32484315Y-62700000D01*
X64110000Y-72224500D02*
X51583154Y-72224500D01*
X50310000Y-70951346D02*
X50310000Y-69950000D01*
X66935000Y-67700000D02*
X69200000Y-67700000D01*
X28309315Y-58525000D02*
X27137500Y-58525000D01*
%TO.N,Net-(U13-A0)*%
X63799500Y-24965000D02*
X64852500Y-24965000D01*
X64852500Y-24965000D02*
X64862500Y-24975000D01*
%TO.N,Net-(U13-A1)*%
X85810000Y-53700000D02*
X86000000Y-53510000D01*
X86000000Y-55432254D02*
X86000000Y-53890000D01*
X82907254Y-58525000D02*
X86000000Y-55432254D01*
X80837500Y-25000000D02*
X80862500Y-24975000D01*
X86000000Y-53890000D02*
X85810000Y-53700000D01*
X80862500Y-58525000D02*
X82907254Y-58525000D01*
X79800000Y-25000000D02*
X80837500Y-25000000D01*
X86000000Y-53510000D02*
X86000000Y-34153185D01*
%TO.N,/X_Control/S2*%
X27137500Y-21725000D02*
X28662500Y-20200000D01*
X41612500Y-20200000D02*
X43137500Y-21725000D01*
X28662500Y-20200000D02*
X41612500Y-20200000D01*
X43162500Y-57200000D02*
X45413567Y-57200000D01*
X45413567Y-57200000D02*
X45538067Y-57324500D01*
X44250000Y-50250000D02*
X43162500Y-50250000D01*
X28725000Y-50225000D02*
X27137500Y-50225000D01*
X28750000Y-50250000D02*
X28725000Y-50225000D01*
X43137500Y-57225000D02*
X43162500Y-57200000D01*
X43162500Y-50250000D02*
X43137500Y-50225000D01*
%TO.N,/X_Control/S1*%
X44725000Y-57875000D02*
X44800000Y-57800000D01*
X44274160Y-51073663D02*
X44075497Y-50875000D01*
X27137500Y-50875000D02*
X28152269Y-50875000D01*
X43137500Y-57875000D02*
X44725000Y-57875000D01*
X28152269Y-50875000D02*
X28161737Y-50865532D01*
X44075497Y-50875000D02*
X43137500Y-50875000D01*
%TO.N,Net-(U13-A2)*%
X77090685Y-57875000D02*
X75175185Y-55959500D01*
X63500000Y-54101833D02*
X64126833Y-53475000D01*
X64126833Y-53475000D02*
X64862500Y-53475000D01*
X75175185Y-55959500D02*
X63500000Y-55959500D01*
X80862500Y-57875000D02*
X77090685Y-57875000D01*
%TO.N,/Y_Control/S0*%
X61000000Y-59215685D02*
X61000000Y-58800000D01*
X80209315Y-61125000D02*
X78659315Y-62675000D01*
X78659315Y-62675000D02*
X64459315Y-62675000D01*
X64459315Y-62675000D02*
X61000000Y-59215685D01*
X60725000Y-58525000D02*
X59137500Y-58525000D01*
X61000000Y-58800000D02*
X60725000Y-58525000D01*
X80862500Y-61125000D02*
X80209315Y-61125000D01*
%TO.N,/Y_Control/DIR*%
X76200000Y-23000000D02*
X76025000Y-23175000D01*
X76222535Y-51870567D02*
X75876968Y-51525000D01*
X73984315Y-23025000D02*
X75137500Y-23025000D01*
X75876968Y-51525000D02*
X75137500Y-51525000D01*
X60349500Y-59175000D02*
X60400000Y-59124500D01*
X59137500Y-51525000D02*
X59973382Y-51525000D01*
X76338567Y-51870567D02*
X76222535Y-51870567D01*
X75287500Y-22875000D02*
X75137500Y-23025000D01*
X64284315Y-21000000D02*
X71959315Y-21000000D01*
X75940685Y-22875000D02*
X75287500Y-22875000D01*
X59137500Y-59175000D02*
X60349500Y-59175000D01*
X76025000Y-22959315D02*
X75940685Y-22875000D01*
X59973382Y-51525000D02*
X60349191Y-51900809D01*
X76025000Y-23175000D02*
X76025000Y-22959315D01*
X71959315Y-21000000D02*
X73984315Y-23025000D01*
X59137500Y-23025000D02*
X62259315Y-23025000D01*
X62259315Y-23025000D02*
X64284315Y-21000000D01*
%TO.N,Net-(U10-A)*%
X79625500Y-54000000D02*
X80150500Y-53475000D01*
X80209315Y-59825000D02*
X79625500Y-59241185D01*
X79625500Y-59241185D02*
X79625500Y-58474500D01*
X80862500Y-59825000D02*
X80209315Y-59825000D01*
X80862500Y-59825000D02*
X81815000Y-59825000D01*
X81815000Y-59825000D02*
X82890000Y-60900000D01*
X80150500Y-53475000D02*
X80862500Y-53475000D01*
%TO.N,/Y_Control/S1*%
X62343629Y-22375000D02*
X64118630Y-20600000D01*
X60125000Y-57875000D02*
X60200000Y-57800000D01*
X72684315Y-20600000D02*
X74459315Y-22375000D01*
X59137500Y-57875000D02*
X60125000Y-57875000D01*
X60152269Y-50875000D02*
X60161737Y-50865532D01*
X59137500Y-22375000D02*
X62343629Y-22375000D01*
X59137500Y-50875000D02*
X60152269Y-50875000D01*
X76274160Y-51073663D02*
X76075497Y-50875000D01*
X74459315Y-22375000D02*
X75137500Y-22375000D01*
X76075497Y-50875000D02*
X75137500Y-50875000D01*
X64118630Y-20600000D02*
X72684315Y-20600000D01*
%TO.N,CLK*%
X59080000Y-70475000D02*
X60230000Y-71625000D01*
X49976089Y-60525500D02*
X48913000Y-60525500D01*
X48913000Y-60525500D02*
X48862500Y-60475000D01*
X64862500Y-60475000D02*
X63850000Y-60475000D01*
X50099500Y-61724500D02*
X55390000Y-67015000D01*
X55390000Y-70960000D02*
X56055000Y-71625000D01*
X60230000Y-71625000D02*
X82087500Y-71625000D01*
X63850000Y-60475000D02*
X63799500Y-60525500D01*
X57930000Y-71625000D02*
X59080000Y-70475000D01*
X55390000Y-67015000D02*
X55390000Y-70960000D01*
X56055000Y-71625000D02*
X57930000Y-71625000D01*
X82087500Y-71625000D02*
X82212500Y-71500000D01*
%TO.N,RCLK*%
X63673082Y-59825000D02*
X63599500Y-59751418D01*
X64862500Y-59825000D02*
X63673082Y-59825000D01*
X65420651Y-66674349D02*
X61620000Y-70475000D01*
X65420651Y-63874000D02*
X65420651Y-66674349D01*
X49901870Y-59825000D02*
X50000500Y-59726370D01*
X48862500Y-59825000D02*
X49901870Y-59825000D01*
%TO.N,/Y_Control/S2*%
X60750000Y-50250000D02*
X60725000Y-50225000D01*
X73612500Y-20200000D02*
X75137500Y-21725000D01*
X59137500Y-57225000D02*
X59137500Y-56662500D01*
X60725000Y-50225000D02*
X59137500Y-50225000D01*
X76250000Y-50250000D02*
X75162500Y-50250000D01*
X60662500Y-20200000D02*
X73612500Y-20200000D01*
X75162500Y-50250000D02*
X75137500Y-50225000D01*
X59137500Y-56662500D02*
X59200000Y-56600000D01*
X59137500Y-21725000D02*
X60662500Y-20200000D01*
%TO.N,GNDS*%
X79000000Y-27990000D02*
X79000000Y-27250000D01*
X48862500Y-50875000D02*
X49875000Y-50875000D01*
X48862500Y-50225000D02*
X49775000Y-50225000D01*
X83000000Y-27990000D02*
X83000000Y-27250000D01*
X37000000Y-48510000D02*
X37000000Y-49250000D01*
X81874500Y-50225000D02*
X80862500Y-50225000D01*
X33975000Y-51525000D02*
X34000000Y-51500000D01*
X43137500Y-61775000D02*
X42025000Y-61775000D01*
X59137500Y-61775000D02*
X58025000Y-61775000D01*
X65875000Y-21725000D02*
X66000000Y-21600000D01*
X49825000Y-23025000D02*
X50000000Y-23200000D01*
X63000000Y-27990000D02*
X63000000Y-27250000D01*
X35000000Y-27990000D02*
X35000000Y-27250000D01*
X33825000Y-23025000D02*
X34000000Y-23200000D01*
X41000000Y-27990000D02*
X41000000Y-27250000D01*
X83000000Y-48510000D02*
X83000000Y-49250000D01*
X76150500Y-61775000D02*
X76250000Y-61675500D01*
X41000000Y-55990000D02*
X40330500Y-55990000D01*
X65875000Y-50875000D02*
X66000000Y-51000000D01*
X52100000Y-52700000D02*
X51900000Y-52900000D01*
X48862500Y-22375000D02*
X49975000Y-22375000D01*
X69000000Y-48510000D02*
X69000000Y-49250000D01*
X76125000Y-61125000D02*
X75137500Y-61125000D01*
X48862500Y-51525000D02*
X49975000Y-51525000D01*
X81000000Y-48510000D02*
X81000000Y-49250000D01*
X64862500Y-23025000D02*
X65779368Y-23025000D01*
X83250000Y-56650000D02*
X83200000Y-56600000D01*
X45000000Y-27990000D02*
X45000000Y-27250000D01*
X47559500Y-59824815D02*
X48209315Y-59175000D01*
X63942003Y-59175000D02*
X63729572Y-58962569D01*
X33975000Y-61775000D02*
X34000000Y-61750000D01*
X65779368Y-51525000D02*
X66002647Y-51748279D01*
X33875000Y-21725000D02*
X32862500Y-21725000D01*
X37000000Y-27990000D02*
X37000000Y-27250000D01*
X85000000Y-48510000D02*
X85000000Y-49250000D01*
X83910000Y-60900000D02*
X84600000Y-60900000D01*
X65975000Y-22375000D02*
X66000000Y-22400000D01*
X80862500Y-62387500D02*
X80750000Y-62500000D01*
X57000000Y-27990000D02*
X57000000Y-27250000D01*
X52100000Y-52200000D02*
X52100000Y-52700000D01*
X51250000Y-57250000D02*
X51250000Y-56650000D01*
X39000000Y-59200000D02*
X39100000Y-59100000D01*
X56750000Y-26250000D02*
X56250000Y-26750000D01*
X29000000Y-27990000D02*
X29000000Y-27250000D01*
X63000000Y-48510000D02*
X63000000Y-49250000D01*
X32862500Y-22375000D02*
X33975000Y-22375000D01*
X71000000Y-27990000D02*
X71000000Y-27250000D01*
X58025000Y-61775000D02*
X58000000Y-61750000D01*
X32862500Y-50225000D02*
X33775000Y-50225000D01*
X71000000Y-48510000D02*
X71000000Y-49250000D01*
X64862500Y-59175000D02*
X63942003Y-59175000D01*
X82000000Y-50750000D02*
X81875000Y-50875000D01*
X55000000Y-48510000D02*
X55000000Y-49250000D01*
X52750000Y-52200000D02*
X52750000Y-52761869D01*
X49875000Y-21725000D02*
X50000000Y-21600000D01*
X73000000Y-48510000D02*
X73000000Y-49250000D01*
X65000000Y-48510000D02*
X65000000Y-49250000D01*
X79824500Y-21725000D02*
X79750000Y-21799500D01*
X79000000Y-48510000D02*
X79000000Y-49250000D01*
X55000000Y-27990000D02*
X55000000Y-27250000D01*
X73000000Y-27990000D02*
X73000000Y-27250000D01*
X86010000Y-65500000D02*
X86750000Y-65500000D01*
X47000000Y-27990000D02*
X47000000Y-27250000D01*
X70000000Y-57010000D02*
X70000000Y-57600000D01*
X33000000Y-48510000D02*
X33000000Y-49250000D01*
X80862500Y-23025000D02*
X79941700Y-23025000D01*
X75000000Y-48510000D02*
X75000000Y-49250000D01*
X76269772Y-60263528D02*
X76058300Y-60475000D01*
X38410000Y-59200000D02*
X39000000Y-59200000D01*
X67000000Y-48510000D02*
X67000000Y-49250000D01*
X53400000Y-54260500D02*
X52900000Y-54760500D01*
X64862500Y-50875000D02*
X65875000Y-50875000D01*
X25000000Y-27990000D02*
X25000000Y-27250000D01*
X40750000Y-26250000D02*
X40250000Y-26750000D01*
X51000000Y-27990000D02*
X51000000Y-27250000D01*
X26065129Y-60337660D02*
X26202469Y-60475000D01*
X69000000Y-27990000D02*
X69000000Y-27250000D01*
X24750000Y-54750000D02*
X24750000Y-54000000D01*
X81000000Y-27990000D02*
X81000000Y-27250000D01*
X59000000Y-48510000D02*
X59000000Y-49250000D01*
X64862500Y-51525000D02*
X65779368Y-51525000D01*
X84790000Y-53700000D02*
X84100000Y-53700000D01*
X51250000Y-56650000D02*
X51200000Y-56600000D01*
X25000000Y-48510000D02*
X25000000Y-49250000D01*
X40750000Y-54750000D02*
X40750000Y-54091833D01*
X64862500Y-22375000D02*
X65975000Y-22375000D01*
X26225000Y-61775000D02*
X26000000Y-62000000D01*
X67250000Y-56650000D02*
X67200000Y-56600000D01*
X81975000Y-51525000D02*
X82000000Y-51500000D01*
X85000000Y-27990000D02*
X85000000Y-27250000D01*
X47000000Y-48510000D02*
X47000000Y-49250000D01*
X34000000Y-21600000D02*
X33875000Y-21725000D01*
X64862500Y-50225000D02*
X65975000Y-50225000D01*
X48862500Y-21725000D02*
X49875000Y-21725000D01*
X32862500Y-51525000D02*
X33975000Y-51525000D01*
X61000000Y-48510000D02*
X61000000Y-49250000D01*
X33875000Y-50875000D02*
X34000000Y-50750000D01*
X79941700Y-23025000D02*
X79730228Y-23236472D01*
X65000000Y-27990000D02*
X65000000Y-27250000D01*
X33775000Y-50225000D02*
X34000000Y-50000000D01*
X29000000Y-48510000D02*
X29000000Y-49250000D01*
X47559500Y-60926993D02*
X47559500Y-59824815D01*
X27000000Y-27990000D02*
X27000000Y-27250000D01*
X80862500Y-22375000D02*
X79875000Y-22375000D01*
X69200000Y-66680000D02*
X69200000Y-65940000D01*
X75000000Y-27990000D02*
X75000000Y-27250000D01*
X49975000Y-22375000D02*
X50000000Y-22400000D01*
X35975500Y-59250000D02*
X36000000Y-59225500D01*
X80862500Y-61775000D02*
X80862500Y-62387500D01*
X32862500Y-61775000D02*
X33975000Y-61775000D01*
X76250000Y-61000000D02*
X76125000Y-61125000D01*
X43000000Y-27990000D02*
X43000000Y-27250000D01*
X77000000Y-48510000D02*
X77000000Y-49250000D01*
X64862500Y-21725000D02*
X65875000Y-21725000D01*
X80862500Y-51525000D02*
X81975000Y-51525000D01*
X72750000Y-26250000D02*
X72250000Y-26750000D01*
X49000000Y-27990000D02*
X49000000Y-27250000D01*
X41000000Y-48510000D02*
X41000000Y-49250000D01*
X65779368Y-23025000D02*
X66002647Y-23248279D01*
X86010000Y-71500000D02*
X86750000Y-71500000D01*
X83910000Y-59200000D02*
X84600000Y-59200000D01*
X23000000Y-48510000D02*
X23000000Y-49250000D01*
X53000000Y-27990000D02*
X53000000Y-27250000D01*
X77000000Y-27990000D02*
X77000000Y-27250000D01*
X53400000Y-54260000D02*
X53400000Y-54260500D01*
X31000000Y-27990000D02*
X31000000Y-27250000D01*
X31000000Y-48510000D02*
X31000000Y-49250000D01*
X67000000Y-27990000D02*
X67000000Y-27250000D01*
X35250000Y-57250000D02*
X35250000Y-56650000D01*
X43000000Y-48510000D02*
X43000000Y-49250000D01*
X79875000Y-22375000D02*
X79750000Y-22500000D01*
X42025000Y-61775000D02*
X42000000Y-61750000D01*
X32862500Y-23025000D02*
X33825000Y-23025000D01*
X81875000Y-50875000D02*
X80862500Y-50875000D01*
X33000000Y-27990000D02*
X33000000Y-27250000D01*
X23000000Y-27990000D02*
X23000000Y-27250000D01*
X65975000Y-50225000D02*
X66000000Y-50250000D01*
X26125000Y-61125000D02*
X26000000Y-61000000D01*
X75137500Y-61775000D02*
X76150500Y-61775000D01*
X27137500Y-61775000D02*
X26225000Y-61775000D01*
X35000000Y-48510000D02*
X35000000Y-49250000D01*
X51000000Y-48510000D02*
X51000000Y-49250000D01*
X49875000Y-50875000D02*
X50000000Y-50750000D01*
X57000000Y-48510000D02*
X57000000Y-49250000D01*
X76058300Y-60475000D02*
X75137500Y-60475000D01*
X83250000Y-57250000D02*
X83250000Y-56650000D01*
X52750000Y-52761869D02*
X52682759Y-52829110D01*
X82000000Y-50099500D02*
X81874500Y-50225000D01*
X38410000Y-57200000D02*
X39100000Y-57200000D01*
X86010000Y-68500000D02*
X86750000Y-68500000D01*
X26202469Y-60475000D02*
X27137500Y-60475000D01*
X40330500Y-55990000D02*
X40300000Y-55959500D01*
X57600000Y-56360000D02*
X57600000Y-57000000D01*
X35310000Y-59250000D02*
X35975500Y-59250000D01*
X48209315Y-59175000D02*
X48862500Y-59175000D01*
X67250000Y-57250000D02*
X67250000Y-56650000D01*
X33975000Y-22375000D02*
X34000000Y-22400000D01*
X32862500Y-50875000D02*
X33875000Y-50875000D01*
X72750000Y-54750000D02*
X72750000Y-54101833D01*
X49000000Y-48510000D02*
X49000000Y-49250000D01*
X49975000Y-51525000D02*
X50000000Y-51500000D01*
X61000000Y-27990000D02*
X61000000Y-27250000D01*
X27000000Y-48510000D02*
X27000000Y-49250000D01*
X53000000Y-48510000D02*
X53000000Y-49250000D01*
X27137500Y-61125000D02*
X26125000Y-61125000D01*
X49775000Y-50225000D02*
X50000000Y-50000000D01*
X35250000Y-56650000D02*
X35200000Y-56600000D01*
X39000000Y-27990000D02*
X39000000Y-27250000D01*
X80862500Y-21725000D02*
X79824500Y-21725000D01*
X59000000Y-27990000D02*
X59000000Y-27250000D01*
X48862500Y-23025000D02*
X49825000Y-23025000D01*
X39000000Y-48510000D02*
X39000000Y-49250000D01*
X45000000Y-48510000D02*
X45000000Y-49250000D01*
%TD*%
M02*
