%TF.GenerationSoftware,KiCad,Pcbnew,7.0.1*%
%TF.CreationDate,2024-10-11T19:23:26-04:00*%
%TF.ProjectId,PEST_Driver,50455354-5f44-4726-9976-65722e6b6963,rev?*%
%TF.SameCoordinates,Original*%
%TF.FileFunction,Paste,Top*%
%TF.FilePolarity,Positive*%
%FSLAX46Y46*%
G04 Gerber Fmt 4.6, Leading zero omitted, Abs format (unit mm)*
G04 Created by KiCad (PCBNEW 7.0.1) date 2024-10-11 19:23:26*
%MOMM*%
%LPD*%
G01*
G04 APERTURE LIST*
G04 Aperture macros list*
%AMRoundRect*
0 Rectangle with rounded corners*
0 $1 Rounding radius*
0 $2 $3 $4 $5 $6 $7 $8 $9 X,Y pos of 4 corners*
0 Add a 4 corners polygon primitive as box body*
4,1,4,$2,$3,$4,$5,$6,$7,$8,$9,$2,$3,0*
0 Add four circle primitives for the rounded corners*
1,1,$1+$1,$2,$3*
1,1,$1+$1,$4,$5*
1,1,$1+$1,$6,$7*
1,1,$1+$1,$8,$9*
0 Add four rect primitives between the rounded corners*
20,1,$1+$1,$2,$3,$4,$5,0*
20,1,$1+$1,$4,$5,$6,$7,0*
20,1,$1+$1,$6,$7,$8,$9,0*
20,1,$1+$1,$8,$9,$2,$3,0*%
G04 Aperture macros list end*
%ADD10RoundRect,0.135000X0.185000X-0.135000X0.185000X0.135000X-0.185000X0.135000X-0.185000X-0.135000X0*%
%ADD11RoundRect,0.135000X-0.185000X0.135000X-0.185000X-0.135000X0.185000X-0.135000X0.185000X0.135000X0*%
%ADD12RoundRect,0.150000X-0.150000X0.512500X-0.150000X-0.512500X0.150000X-0.512500X0.150000X0.512500X0*%
%ADD13RoundRect,0.140000X-0.140000X-0.170000X0.140000X-0.170000X0.140000X0.170000X-0.140000X0.170000X0*%
%ADD14RoundRect,0.140000X0.140000X0.170000X-0.140000X0.170000X-0.140000X-0.170000X0.140000X-0.170000X0*%
%ADD15RoundRect,0.100000X0.637500X0.100000X-0.637500X0.100000X-0.637500X-0.100000X0.637500X-0.100000X0*%
%ADD16RoundRect,0.100000X-0.637500X-0.100000X0.637500X-0.100000X0.637500X0.100000X-0.637500X0.100000X0*%
%ADD17R,0.400000X0.650000*%
%ADD18RoundRect,0.218750X0.218750X0.256250X-0.218750X0.256250X-0.218750X-0.256250X0.218750X-0.256250X0*%
%ADD19RoundRect,0.140000X0.170000X-0.140000X0.170000X0.140000X-0.170000X0.140000X-0.170000X-0.140000X0*%
%ADD20RoundRect,0.150000X0.150000X-0.512500X0.150000X0.512500X-0.150000X0.512500X-0.150000X-0.512500X0*%
%ADD21RoundRect,0.135000X-0.135000X-0.185000X0.135000X-0.185000X0.135000X0.185000X-0.135000X0.185000X0*%
%ADD22RoundRect,0.250000X-0.625000X0.312500X-0.625000X-0.312500X0.625000X-0.312500X0.625000X0.312500X0*%
%ADD23RoundRect,0.135000X0.135000X0.185000X-0.135000X0.185000X-0.135000X-0.185000X0.135000X-0.185000X0*%
G04 APERTURE END LIST*
D10*
%TO.C,R24*%
X45000000Y-48510000D03*
X45000000Y-47490000D03*
%TD*%
D11*
%TO.C,R53*%
X71000000Y-47480000D03*
X71000000Y-48500000D03*
%TD*%
D10*
%TO.C,R16*%
X37000000Y-48510000D03*
X37000000Y-47490000D03*
%TD*%
D12*
%TO.C,Q5*%
X32950000Y-32362500D03*
X32000000Y-32362500D03*
X31050000Y-32362500D03*
X31050000Y-34637500D03*
X32000000Y-34637500D03*
X32950000Y-34637500D03*
%TD*%
D13*
%TO.C,C4*%
X72750000Y-26250000D03*
X73710000Y-26250000D03*
%TD*%
D14*
%TO.C,C8*%
X83250000Y-57250000D03*
X82290000Y-57250000D03*
%TD*%
D10*
%TO.C,R64*%
X85000000Y-48510000D03*
X85000000Y-47490000D03*
%TD*%
D15*
%TO.C,U8*%
X80862500Y-26275000D03*
X80862500Y-25625000D03*
X80862500Y-24975000D03*
X80862500Y-24325000D03*
X80862500Y-23675000D03*
X80862500Y-23025000D03*
X80862500Y-22375000D03*
X80862500Y-21725000D03*
X75137500Y-21725000D03*
X75137500Y-22375000D03*
X75137500Y-23025000D03*
X75137500Y-23675000D03*
X75137500Y-24325000D03*
X75137500Y-24975000D03*
X75137500Y-25625000D03*
X75137500Y-26275000D03*
%TD*%
%TO.C,U2*%
X32862500Y-26275000D03*
X32862500Y-25625000D03*
X32862500Y-24975000D03*
X32862500Y-24325000D03*
X32862500Y-23675000D03*
X32862500Y-23025000D03*
X32862500Y-22375000D03*
X32862500Y-21725000D03*
X27137500Y-21725000D03*
X27137500Y-22375000D03*
X27137500Y-23025000D03*
X27137500Y-23675000D03*
X27137500Y-24325000D03*
X27137500Y-24975000D03*
X27137500Y-25625000D03*
X27137500Y-26275000D03*
%TD*%
D16*
%TO.C,U11*%
X59137500Y-57225000D03*
X59137500Y-57875000D03*
X59137500Y-58525000D03*
X59137500Y-59175000D03*
X59137500Y-59825000D03*
X59137500Y-60475000D03*
X59137500Y-61125000D03*
X59137500Y-61775000D03*
X64862500Y-61775000D03*
X64862500Y-61125000D03*
X64862500Y-60475000D03*
X64862500Y-59825000D03*
X64862500Y-59175000D03*
X64862500Y-58525000D03*
X64862500Y-57875000D03*
X64862500Y-57225000D03*
%TD*%
D17*
%TO.C,U1*%
X52100000Y-52200000D03*
X52750000Y-52200000D03*
X53400000Y-52200000D03*
X53400000Y-50300000D03*
X52750000Y-50300000D03*
X52100000Y-50300000D03*
%TD*%
D12*
%TO.C,Q15*%
X52950000Y-32362500D03*
X52000000Y-32362500D03*
X51050000Y-32362500D03*
X51050000Y-34637500D03*
X52000000Y-34637500D03*
X52950000Y-34637500D03*
%TD*%
D10*
%TO.C,R35*%
X57000000Y-29010000D03*
X57000000Y-27990000D03*
%TD*%
%TO.C,R23*%
X45000000Y-29010000D03*
X45000000Y-27990000D03*
%TD*%
D12*
%TO.C,Q25*%
X72950000Y-32362500D03*
X72000000Y-32362500D03*
X71050000Y-32362500D03*
X71050000Y-34637500D03*
X72000000Y-34637500D03*
X72950000Y-34637500D03*
%TD*%
D11*
%TO.C,R65*%
X83000000Y-47490000D03*
X83000000Y-48510000D03*
%TD*%
D12*
%TO.C,Q11*%
X44950000Y-32362500D03*
X44000000Y-32362500D03*
X43050000Y-32362500D03*
X43050000Y-34637500D03*
X44000000Y-34637500D03*
X44950000Y-34637500D03*
%TD*%
D10*
%TO.C,R56*%
X77000000Y-48510000D03*
X77000000Y-47490000D03*
%TD*%
D12*
%TO.C,Q13*%
X48950000Y-32362500D03*
X48000000Y-32362500D03*
X47050000Y-32362500D03*
X47050000Y-34637500D03*
X48000000Y-34637500D03*
X48950000Y-34637500D03*
%TD*%
D18*
%TO.C,D2*%
X83787500Y-68500000D03*
X82212500Y-68500000D03*
%TD*%
D11*
%TO.C,R21*%
X39000000Y-47490000D03*
X39000000Y-48510000D03*
%TD*%
D19*
%TO.C,C11*%
X57600000Y-56360000D03*
X57600000Y-55400000D03*
%TD*%
D20*
%TO.C,Q8*%
X35050000Y-44137500D03*
X36000000Y-44137500D03*
X36950000Y-44137500D03*
X36950000Y-41862500D03*
X36000000Y-41862500D03*
X35050000Y-41862500D03*
%TD*%
D10*
%TO.C,R44*%
X65000000Y-48510000D03*
X65000000Y-47490000D03*
%TD*%
D13*
%TO.C,C7*%
X72750000Y-54750000D03*
X73710000Y-54750000D03*
%TD*%
%TO.C,C1*%
X25680000Y-26400000D03*
X24720000Y-26400000D03*
%TD*%
D12*
%TO.C,Q3*%
X28950000Y-32362500D03*
X28000000Y-32362500D03*
X27050000Y-32362500D03*
X27050000Y-34637500D03*
X28000000Y-34637500D03*
X28950000Y-34637500D03*
%TD*%
D10*
%TO.C,R36*%
X57000000Y-48510000D03*
X57000000Y-47490000D03*
%TD*%
%TO.C,R8*%
X29000000Y-48510000D03*
X29000000Y-47490000D03*
%TD*%
D12*
%TO.C,Q21*%
X64950000Y-32362500D03*
X64000000Y-32362500D03*
X63050000Y-32362500D03*
X63050000Y-34637500D03*
X64000000Y-34637500D03*
X64950000Y-34637500D03*
%TD*%
D21*
%TO.C,R98*%
X84990000Y-65500000D03*
X86010000Y-65500000D03*
%TD*%
D10*
%TO.C,R40*%
X61000000Y-48510000D03*
X61000000Y-47490000D03*
%TD*%
D12*
%TO.C,Q27*%
X76950000Y-32362500D03*
X76000000Y-32362500D03*
X75050000Y-32362500D03*
X75050000Y-34637500D03*
X76000000Y-34637500D03*
X76950000Y-34637500D03*
%TD*%
D10*
%TO.C,R70*%
X41000000Y-57010000D03*
X41000000Y-55990000D03*
%TD*%
D20*
%TO.C,Q22*%
X63050000Y-44137500D03*
X64000000Y-44137500D03*
X64950000Y-44137500D03*
X64950000Y-41862500D03*
X64000000Y-41862500D03*
X63050000Y-41862500D03*
%TD*%
D21*
%TO.C,R71*%
X82890000Y-59200000D03*
X83910000Y-59200000D03*
%TD*%
D11*
%TO.C,R57*%
X75000000Y-47490000D03*
X75000000Y-48510000D03*
%TD*%
D14*
%TO.C,C12*%
X35250000Y-57250000D03*
X34290000Y-57250000D03*
%TD*%
D11*
%TO.C,R62*%
X83000000Y-27990000D03*
X83000000Y-29010000D03*
%TD*%
D20*
%TO.C,Q12*%
X43050000Y-44137500D03*
X44000000Y-44137500D03*
X44950000Y-44137500D03*
X44950000Y-41862500D03*
X44000000Y-41862500D03*
X43050000Y-41862500D03*
%TD*%
D10*
%TO.C,R20*%
X41000000Y-48510000D03*
X41000000Y-47490000D03*
%TD*%
%TO.C,R19*%
X41000000Y-29010000D03*
X41000000Y-27990000D03*
%TD*%
D11*
%TO.C,R38*%
X59000000Y-27990000D03*
X59000000Y-29010000D03*
%TD*%
D20*
%TO.C,Q30*%
X79050000Y-44137500D03*
X80000000Y-44137500D03*
X80950000Y-44137500D03*
X80950000Y-41862500D03*
X80000000Y-41862500D03*
X79050000Y-41862500D03*
%TD*%
D11*
%TO.C,R45*%
X63000000Y-47480000D03*
X63000000Y-48500000D03*
%TD*%
D20*
%TO.C,Q14*%
X47050000Y-44137500D03*
X48000000Y-44137500D03*
X48950000Y-44137500D03*
X48950000Y-41862500D03*
X48000000Y-41862500D03*
X47050000Y-41862500D03*
%TD*%
D11*
%TO.C,R6*%
X27000000Y-27990000D03*
X27000000Y-29010000D03*
%TD*%
%TO.C,R9*%
X27000000Y-47490000D03*
X27000000Y-48510000D03*
%TD*%
%TO.C,R22*%
X43000000Y-27990000D03*
X43000000Y-29010000D03*
%TD*%
%TO.C,R25*%
X43000000Y-47490000D03*
X43000000Y-48510000D03*
%TD*%
%TO.C,R54*%
X75000000Y-27990000D03*
X75000000Y-29010000D03*
%TD*%
D21*
%TO.C,R74*%
X82890000Y-60900000D03*
X83910000Y-60900000D03*
%TD*%
D15*
%TO.C,U10*%
X80862500Y-54775000D03*
X80862500Y-54125000D03*
X80862500Y-53475000D03*
X80862500Y-52825000D03*
X80862500Y-52175000D03*
X80862500Y-51525000D03*
X80862500Y-50875000D03*
X80862500Y-50225000D03*
X75137500Y-50225000D03*
X75137500Y-50875000D03*
X75137500Y-51525000D03*
X75137500Y-52175000D03*
X75137500Y-52825000D03*
X75137500Y-53475000D03*
X75137500Y-54125000D03*
X75137500Y-54775000D03*
%TD*%
D13*
%TO.C,C5*%
X40750000Y-54750000D03*
X41710000Y-54750000D03*
%TD*%
D11*
%TO.C,R29*%
X47000000Y-47490000D03*
X47000000Y-48510000D03*
%TD*%
D20*
%TO.C,Q32*%
X83050000Y-44137500D03*
X84000000Y-44137500D03*
X84950000Y-44137500D03*
X84950000Y-41862500D03*
X84000000Y-41862500D03*
X83050000Y-41862500D03*
%TD*%
D11*
%TO.C,R50*%
X71000000Y-27990000D03*
X71000000Y-29010000D03*
%TD*%
D12*
%TO.C,Q31*%
X84950000Y-32362500D03*
X84000000Y-32362500D03*
X83050000Y-32362500D03*
X83050000Y-34637500D03*
X84000000Y-34637500D03*
X84950000Y-34637500D03*
%TD*%
D10*
%TO.C,R55*%
X77000000Y-29010000D03*
X77000000Y-27990000D03*
%TD*%
D20*
%TO.C,Q20*%
X59050000Y-44137500D03*
X60000000Y-44137500D03*
X60950000Y-44137500D03*
X60950000Y-41862500D03*
X60000000Y-41862500D03*
X59050000Y-41862500D03*
%TD*%
D11*
%TO.C,R17*%
X35000000Y-47490000D03*
X35000000Y-48510000D03*
%TD*%
%TO.C,R14*%
X35000000Y-27990000D03*
X35000000Y-29010000D03*
%TD*%
D20*
%TO.C,Q2*%
X23050000Y-44137500D03*
X24000000Y-44137500D03*
X24950000Y-44137500D03*
X24950000Y-41862500D03*
X24000000Y-41862500D03*
X23050000Y-41862500D03*
%TD*%
D12*
%TO.C,Q9*%
X40950000Y-32362500D03*
X40000000Y-32362500D03*
X39050000Y-32362500D03*
X39050000Y-34637500D03*
X40000000Y-34637500D03*
X40950000Y-34637500D03*
%TD*%
D11*
%TO.C,R42*%
X63000000Y-27990000D03*
X63000000Y-29010000D03*
%TD*%
D10*
%TO.C,R43*%
X65000000Y-29010000D03*
X65000000Y-27990000D03*
%TD*%
%TO.C,R59*%
X81000000Y-29000000D03*
X81000000Y-27980000D03*
%TD*%
D20*
%TO.C,Q4*%
X27050000Y-44137500D03*
X28000000Y-44137500D03*
X28950000Y-44137500D03*
X28950000Y-41862500D03*
X28000000Y-41862500D03*
X27050000Y-41862500D03*
%TD*%
D12*
%TO.C,Q7*%
X36950000Y-32362500D03*
X36000000Y-32362500D03*
X35050000Y-32362500D03*
X35050000Y-34637500D03*
X36000000Y-34637500D03*
X36950000Y-34637500D03*
%TD*%
%TO.C,Q29*%
X80950000Y-32362500D03*
X80000000Y-32362500D03*
X79050000Y-32362500D03*
X79050000Y-34637500D03*
X80000000Y-34637500D03*
X80950000Y-34637500D03*
%TD*%
D11*
%TO.C,R49*%
X67000000Y-47480000D03*
X67000000Y-48500000D03*
%TD*%
%TO.C,R2*%
X23000000Y-27990000D03*
X23000000Y-29010000D03*
%TD*%
D20*
%TO.C,Q16*%
X51050000Y-44137500D03*
X52000000Y-44137500D03*
X52950000Y-44137500D03*
X52950000Y-41862500D03*
X52000000Y-41862500D03*
X51050000Y-41862500D03*
%TD*%
D11*
%TO.C,R33*%
X51000000Y-47490000D03*
X51000000Y-48510000D03*
%TD*%
%TO.C,R26*%
X47000000Y-27990000D03*
X47000000Y-29010000D03*
%TD*%
D19*
%TO.C,C18*%
X57300000Y-54280000D03*
X57300000Y-53320000D03*
%TD*%
D16*
%TO.C,U13*%
X75137500Y-57225000D03*
X75137500Y-57875000D03*
X75137500Y-58525000D03*
X75137500Y-59175000D03*
X75137500Y-59825000D03*
X75137500Y-60475000D03*
X75137500Y-61125000D03*
X75137500Y-61775000D03*
X80862500Y-61775000D03*
X80862500Y-61125000D03*
X80862500Y-60475000D03*
X80862500Y-59825000D03*
X80862500Y-59175000D03*
X80862500Y-58525000D03*
X80862500Y-57875000D03*
X80862500Y-57225000D03*
%TD*%
D11*
%TO.C,R46*%
X67000000Y-27990000D03*
X67000000Y-29010000D03*
%TD*%
%TO.C,R10*%
X31000000Y-27990000D03*
X31000000Y-29010000D03*
%TD*%
D10*
%TO.C,R3*%
X25000000Y-29010000D03*
X25000000Y-27990000D03*
%TD*%
D20*
%TO.C,Q24*%
X67050000Y-44137500D03*
X68000000Y-44137500D03*
X68950000Y-44137500D03*
X68950000Y-41862500D03*
X68000000Y-41862500D03*
X67050000Y-41862500D03*
%TD*%
D22*
%TO.C,R1*%
X55500000Y-50787500D03*
X55500000Y-53712500D03*
%TD*%
D19*
%TO.C,C17*%
X53400000Y-54260000D03*
X53400000Y-53300000D03*
%TD*%
D11*
%TO.C,R30*%
X51000000Y-27990000D03*
X51000000Y-29010000D03*
%TD*%
D15*
%TO.C,U9*%
X64862500Y-54775000D03*
X64862500Y-54125000D03*
X64862500Y-53475000D03*
X64862500Y-52825000D03*
X64862500Y-52175000D03*
X64862500Y-51525000D03*
X64862500Y-50875000D03*
X64862500Y-50225000D03*
X59137500Y-50225000D03*
X59137500Y-50875000D03*
X59137500Y-51525000D03*
X59137500Y-52175000D03*
X59137500Y-52825000D03*
X59137500Y-53475000D03*
X59137500Y-54125000D03*
X59137500Y-54775000D03*
%TD*%
D11*
%TO.C,R73*%
X70000000Y-55990000D03*
X70000000Y-57010000D03*
%TD*%
D18*
%TO.C,D1*%
X83787500Y-65500000D03*
X82212500Y-65500000D03*
%TD*%
D10*
%TO.C,R39*%
X61000000Y-29010000D03*
X61000000Y-27990000D03*
%TD*%
D15*
%TO.C,U3*%
X48862500Y-26275000D03*
X48862500Y-25625000D03*
X48862500Y-24975000D03*
X48862500Y-24325000D03*
X48862500Y-23675000D03*
X48862500Y-23025000D03*
X48862500Y-22375000D03*
X48862500Y-21725000D03*
X43137500Y-21725000D03*
X43137500Y-22375000D03*
X43137500Y-23025000D03*
X43137500Y-23675000D03*
X43137500Y-24325000D03*
X43137500Y-24975000D03*
X43137500Y-25625000D03*
X43137500Y-26275000D03*
%TD*%
D11*
%TO.C,R37*%
X55000000Y-47490000D03*
X55000000Y-48510000D03*
%TD*%
%TO.C,R61*%
X79000000Y-47490000D03*
X79000000Y-48510000D03*
%TD*%
%TO.C,R58*%
X79000000Y-27990000D03*
X79000000Y-29010000D03*
%TD*%
D12*
%TO.C,Q17*%
X56950000Y-32362500D03*
X56000000Y-32362500D03*
X55050000Y-32362500D03*
X55050000Y-34637500D03*
X56000000Y-34637500D03*
X56950000Y-34637500D03*
%TD*%
D21*
%TO.C,R68*%
X37390000Y-59200000D03*
X38410000Y-59200000D03*
%TD*%
D10*
%TO.C,R31*%
X53000000Y-29010000D03*
X53000000Y-27990000D03*
%TD*%
D15*
%TO.C,U5*%
X48862500Y-54775000D03*
X48862500Y-54125000D03*
X48862500Y-53475000D03*
X48862500Y-52825000D03*
X48862500Y-52175000D03*
X48862500Y-51525000D03*
X48862500Y-50875000D03*
X48862500Y-50225000D03*
X43137500Y-50225000D03*
X43137500Y-50875000D03*
X43137500Y-51525000D03*
X43137500Y-52175000D03*
X43137500Y-52825000D03*
X43137500Y-53475000D03*
X43137500Y-54125000D03*
X43137500Y-54775000D03*
%TD*%
%TO.C,U7*%
X64862500Y-26275000D03*
X64862500Y-25625000D03*
X64862500Y-24975000D03*
X64862500Y-24325000D03*
X64862500Y-23675000D03*
X64862500Y-23025000D03*
X64862500Y-22375000D03*
X64862500Y-21725000D03*
X59137500Y-21725000D03*
X59137500Y-22375000D03*
X59137500Y-23025000D03*
X59137500Y-23675000D03*
X59137500Y-24325000D03*
X59137500Y-24975000D03*
X59137500Y-25625000D03*
X59137500Y-26275000D03*
%TD*%
D20*
%TO.C,Q18*%
X55050000Y-44137500D03*
X56000000Y-44137500D03*
X56950000Y-44137500D03*
X56950000Y-41862500D03*
X56000000Y-41862500D03*
X55050000Y-41862500D03*
%TD*%
D21*
%TO.C,R67*%
X34290000Y-59200000D03*
X35310000Y-59200000D03*
%TD*%
D10*
%TO.C,R52*%
X73000000Y-48510000D03*
X73000000Y-47490000D03*
%TD*%
%TO.C,R7*%
X29000000Y-29010000D03*
X29000000Y-27990000D03*
%TD*%
D14*
%TO.C,C9*%
X51250000Y-57250000D03*
X50290000Y-57250000D03*
%TD*%
%TO.C,C10*%
X67250000Y-57250000D03*
X66290000Y-57250000D03*
%TD*%
D10*
%TO.C,R27*%
X49000000Y-29010000D03*
X49000000Y-27990000D03*
%TD*%
D21*
%TO.C,R99*%
X84990000Y-68500000D03*
X86010000Y-68500000D03*
%TD*%
D18*
%TO.C,D3*%
X83787500Y-71500000D03*
X82212500Y-71500000D03*
%TD*%
D12*
%TO.C,Q19*%
X60950000Y-32362500D03*
X60000000Y-32362500D03*
X59050000Y-32362500D03*
X59050000Y-34637500D03*
X60000000Y-34637500D03*
X60950000Y-34637500D03*
%TD*%
D13*
%TO.C,C6*%
X24750000Y-54750000D03*
X25710000Y-54750000D03*
%TD*%
D10*
%TO.C,R47*%
X69000000Y-29010000D03*
X69000000Y-27990000D03*
%TD*%
D20*
%TO.C,Q10*%
X39050000Y-44137500D03*
X40000000Y-44137500D03*
X40950000Y-44137500D03*
X40950000Y-41862500D03*
X40000000Y-41862500D03*
X39050000Y-41862500D03*
%TD*%
D10*
%TO.C,R48*%
X69000000Y-48510000D03*
X69000000Y-47490000D03*
%TD*%
D21*
%TO.C,R69*%
X37390000Y-57200000D03*
X38410000Y-57200000D03*
%TD*%
D11*
%TO.C,R5*%
X23000000Y-47490000D03*
X23000000Y-48510000D03*
%TD*%
D10*
%TO.C,R28*%
X49000000Y-48510000D03*
X49000000Y-47490000D03*
%TD*%
D12*
%TO.C,Q1*%
X24950000Y-32362500D03*
X24000000Y-32362500D03*
X23050000Y-32362500D03*
X23050000Y-34637500D03*
X24000000Y-34637500D03*
X24950000Y-34637500D03*
%TD*%
D11*
%TO.C,R18*%
X39000000Y-27990000D03*
X39000000Y-29010000D03*
%TD*%
D16*
%TO.C,U12*%
X27137500Y-57225000D03*
X27137500Y-57875000D03*
X27137500Y-58525000D03*
X27137500Y-59175000D03*
X27137500Y-59825000D03*
X27137500Y-60475000D03*
X27137500Y-61125000D03*
X27137500Y-61775000D03*
X32862500Y-61775000D03*
X32862500Y-61125000D03*
X32862500Y-60475000D03*
X32862500Y-59825000D03*
X32862500Y-59175000D03*
X32862500Y-58525000D03*
X32862500Y-57875000D03*
X32862500Y-57225000D03*
%TD*%
D11*
%TO.C,R13*%
X31000000Y-47490000D03*
X31000000Y-48510000D03*
%TD*%
D10*
%TO.C,R11*%
X32970000Y-29010000D03*
X32970000Y-27990000D03*
%TD*%
D11*
%TO.C,R34*%
X55000000Y-27990000D03*
X55000000Y-29010000D03*
%TD*%
D10*
%TO.C,R32*%
X53000000Y-48510000D03*
X53000000Y-47490000D03*
%TD*%
D23*
%TO.C,R72*%
X85810000Y-53700000D03*
X84790000Y-53700000D03*
%TD*%
D16*
%TO.C,U6*%
X43137500Y-57225000D03*
X43137500Y-57875000D03*
X43137500Y-58525000D03*
X43137500Y-59175000D03*
X43137500Y-59825000D03*
X43137500Y-60475000D03*
X43137500Y-61125000D03*
X43137500Y-61775000D03*
X48862500Y-61775000D03*
X48862500Y-61125000D03*
X48862500Y-60475000D03*
X48862500Y-59825000D03*
X48862500Y-59175000D03*
X48862500Y-58525000D03*
X48862500Y-57875000D03*
X48862500Y-57225000D03*
%TD*%
D10*
%TO.C,R12*%
X32970000Y-48510000D03*
X32970000Y-47490000D03*
%TD*%
D20*
%TO.C,Q28*%
X75050000Y-44137500D03*
X76000000Y-44137500D03*
X76950000Y-44137500D03*
X76950000Y-41862500D03*
X76000000Y-41862500D03*
X75050000Y-41862500D03*
%TD*%
D12*
%TO.C,Q23*%
X68950000Y-32362500D03*
X68000000Y-32362500D03*
X67050000Y-32362500D03*
X67050000Y-34637500D03*
X68000000Y-34637500D03*
X68950000Y-34637500D03*
%TD*%
D21*
%TO.C,R100*%
X84990000Y-71500000D03*
X86010000Y-71500000D03*
%TD*%
D15*
%TO.C,U4*%
X32862500Y-54775000D03*
X32862500Y-54125000D03*
X32862500Y-53475000D03*
X32862500Y-52825000D03*
X32862500Y-52175000D03*
X32862500Y-51525000D03*
X32862500Y-50875000D03*
X32862500Y-50225000D03*
X27137500Y-50225000D03*
X27137500Y-50875000D03*
X27137500Y-51525000D03*
X27137500Y-52175000D03*
X27137500Y-52825000D03*
X27137500Y-53475000D03*
X27137500Y-54125000D03*
X27137500Y-54775000D03*
%TD*%
D10*
%TO.C,R63*%
X85000000Y-29010000D03*
X85000000Y-27990000D03*
%TD*%
D13*
%TO.C,C3*%
X56750000Y-26250000D03*
X57710000Y-26250000D03*
%TD*%
D20*
%TO.C,Q26*%
X71050000Y-44137500D03*
X72000000Y-44137500D03*
X72950000Y-44137500D03*
X72950000Y-41862500D03*
X72000000Y-41862500D03*
X71050000Y-41862500D03*
%TD*%
D10*
%TO.C,R51*%
X73000000Y-29010000D03*
X73000000Y-27990000D03*
%TD*%
D20*
%TO.C,Q6*%
X31050000Y-44137500D03*
X32000000Y-44137500D03*
X32950000Y-44137500D03*
X32950000Y-41862500D03*
X32000000Y-41862500D03*
X31050000Y-41862500D03*
%TD*%
D10*
%TO.C,R4*%
X25000000Y-48510000D03*
X25000000Y-47490000D03*
%TD*%
%TO.C,R60*%
X81000000Y-48510000D03*
X81000000Y-47490000D03*
%TD*%
D13*
%TO.C,C2*%
X40750000Y-26250000D03*
X41710000Y-26250000D03*
%TD*%
D10*
%TO.C,R15*%
X37000000Y-29010000D03*
X37000000Y-27990000D03*
%TD*%
%TO.C,R66*%
X69200000Y-67700000D03*
X69200000Y-66680000D03*
%TD*%
D11*
%TO.C,R41*%
X59000000Y-47490000D03*
X59000000Y-48510000D03*
%TD*%
M02*
