M48
; DRILL file {KiCad 7.0.1} date Sat Mar 30 14:25:36 2024
; FORMAT={-:-/ absolute / inch / decimal}
; #@! TF.CreationDate,2024-03-30T14:25:36-04:00
; #@! TF.GenerationSoftware,Kicad,Pcbnew,7.0.1
; #@! TF.FileFunction,Plated,1,2,PTH
FMAT,2
INCH
; #@! TA.AperFunction,Plated,PTH,ViaDrill
T1C0.0118
; #@! TA.AperFunction,Plated,PTH,ViaDrill
T2C0.0157
; #@! TA.AperFunction,Plated,PTH,ComponentDrill
T3C0.0394
%
G90
G05
T1
X0.8499Y-2.2033
X0.8731Y-2.1565
X0.8772Y-2.1877
X0.9055Y-1.0728
X0.9055Y-1.939
X0.9211Y-0.9054
X0.9233Y-0.9922
X0.9456Y-0.97
X0.9543Y-1.0539
X0.9744Y-2.126
X0.9843Y-1.0728
X0.9843Y-1.939
X1.0138Y-1.0069
X1.0236Y-0.9055
X1.0236Y-2.4016
X1.0236Y-2.4409
X1.0262Y-2.3755
X1.063Y-1.0728
X1.063Y-1.939
X1.1087Y-2.0026
X1.1125Y-2.0343
X1.1319Y-1.9783
X1.1417Y-1.0728
X1.1417Y-1.939
X1.2064Y-1.0335
X1.2067Y-1.998
X1.2205Y-1.0728
X1.2205Y-1.939
X1.2441Y-0.9665
X1.2451Y-2.1296
X1.25Y-2.2283
X1.2539Y-1.0335
X1.2539Y-2.0509
X1.2992Y-1.0728
X1.2992Y-1.939
X1.3386Y-0.8504
X1.3386Y-0.8819
X1.3386Y-0.9134
X1.3386Y-1.9685
X1.3386Y-1.998
X1.3386Y-2.0276
X1.3386Y-2.4311
X1.378Y-1.0728
X1.378Y-1.939
X1.3858Y-2.2283
X1.4567Y-1.0728
X1.4567Y-1.939
X1.4961Y-1.0236
X1.5354Y-1.0728
X1.5354Y-1.939
X1.5846Y-1.0531
X1.6043Y-2.1296
X1.6142Y-1.0728
X1.6142Y-1.939
X1.6437Y-1.0065
X1.6535Y-2.4311
X1.6929Y-1.0728
X1.6929Y-1.939
X1.7402Y-2.3307
X1.7421Y-1.9783
X1.7431Y-2.0108
X1.7456Y-2.0421
X1.7638Y-2.2756
X1.7717Y-1.0728
X1.7717Y-1.939
X1.7928Y-2.2569
X1.8327Y-2.7036
X1.8363Y-1.0335
X1.8366Y-1.9984
X1.8504Y-1.0728
X1.8504Y-1.939
X1.8701Y-2.2031
X1.874Y-2.1063
X1.8799Y-2.3327
X1.8838Y-0.9829
X1.8838Y-1.0331
X1.8838Y-2.0513
X1.9291Y-1.0728
X1.9291Y-1.939
X1.9676Y-2.3829
X1.9685Y-0.8504
X1.9685Y-0.8819
X1.9685Y-0.9134
X1.9685Y-1.9685
X1.9685Y-1.998
X1.9685Y-2.0276
X1.9685Y-2.3514
X1.9724Y-2.4301
X2.0079Y-1.0728
X2.0079Y-1.939
X2.0157Y-2.2283
X2.0433Y-2.0827
X2.0512Y-2.1554
X2.0571Y-2.2031
X2.0741Y-2.0799
X2.0827Y-2.1559
X2.0866Y-1.0728
X2.0866Y-1.939
X2.1654Y-1.0728
X2.1654Y-1.939
X2.2146Y-1.0531
X2.2441Y-1.0728
X2.2441Y-1.939
X2.2677Y-2.2441
X2.2736Y-1.0065
X2.2835Y-2.4311
X2.3228Y-1.0728
X2.3228Y-1.939
X2.3307Y-2.2283
X2.3686Y-2.0026
X2.3701Y-2.2756
X2.376Y-2.0433
X2.378Y-2.3277
X2.3885Y-2.6371
X2.3917Y-1.9783
X2.4016Y-1.0728
X2.4016Y-1.939
X2.4662Y-1.0335
X2.4666Y-1.9984
X2.4803Y-1.0728
X2.4803Y-1.939
X2.5Y-2.13
X2.5Y-2.2031
X2.5039Y-2.3524
X2.509Y-2.3214
X2.5118Y-0.9829
X2.5118Y-2.3829
X2.5138Y-1.0331
X2.5138Y-2.0513
X2.5591Y-1.0728
X2.5591Y-1.939
X2.5756Y-2.5147
X2.5984Y-0.8504
X2.5984Y-0.8819
X2.5984Y-1.9783
X2.5984Y-2.0079
X2.5984Y-2.4911
X2.5985Y-0.9153
X2.5985Y-2.0373
X2.6024Y-2.3287
X2.6378Y-1.0728
X2.6378Y-1.939
X2.6457Y-2.2283
X2.7165Y-1.0728
X2.7165Y-1.939
X2.7953Y-1.0728
X2.7953Y-1.939
X2.8445Y-1.0531
X2.8642Y-2.13
X2.874Y-1.0728
X2.874Y-1.939
X2.9035Y-1.0065
X2.9035Y-2.4911
X2.9134Y-2.3031
X2.9528Y-1.0728
X2.9528Y-1.939
X2.9989Y-0.8337
X3.0Y-0.9055
X3.002Y-1.9783
X3.002Y-2.4016
X3.002Y-2.4282
X3.0027Y-2.3726
X3.0029Y-2.0108
X3.0055Y-2.0421
X3.0315Y-1.0728
X3.0315Y-1.939
X3.0962Y-1.0335
X3.0965Y-1.9984
X3.1102Y-1.0728
X3.1102Y-1.939
X3.1349Y-2.126
X3.1349Y-2.3021
X3.139Y-0.9148
X3.1398Y-0.8582
X3.1398Y-0.8858
X3.1417Y-0.9843
X3.1437Y-1.0331
X3.1437Y-2.0513
X3.1791Y-2.4606
X3.189Y-1.0728
X3.189Y-1.939
X3.2283Y-1.9724
X3.2283Y-1.998
X3.2283Y-2.0276
X3.2382Y-2.2805
X3.2382Y-2.3533
X3.245Y-0.9597
X3.2677Y-1.0728
X3.2677Y-1.939
X3.2726Y-0.9872
X3.2756Y-2.2283
X3.3465Y-1.0728
X3.3465Y-1.939
X3.3661Y-2.2863
X3.3689Y-2.2549
X3.39Y-2.3067
X3.4154Y-2.5787
X3.4154Y-2.6969
X3.4154Y-2.815
T2
X0.8937Y-1.6063
X0.9449Y-1.2303
X0.9449Y-1.7815
X0.9842Y-1.4055
X1.0512Y-1.6063
X1.1024Y-1.2303
X1.1024Y-1.7815
X1.1417Y-1.4055
X1.2087Y-1.6063
X1.2598Y-1.2303
X1.2598Y-1.7815
X1.2992Y-1.4055
X1.3661Y-1.6063
X1.4173Y-1.2303
X1.4173Y-1.7815
X1.4567Y-1.4055
X1.5236Y-1.6063
X1.5748Y-1.2303
X1.5748Y-1.7815
X1.6142Y-1.4055
X1.6811Y-1.6063
X1.7323Y-1.2303
X1.7323Y-1.7815
X1.7716Y-1.4055
X1.8386Y-1.6063
X1.8898Y-1.2303
X1.8898Y-1.7815
X1.9291Y-1.4055
X1.9961Y-1.6063
X2.0472Y-1.2303
X2.0472Y-1.7815
X2.0866Y-1.4055
X2.126Y-1.939
X2.1535Y-1.6063
X2.185Y-2.152
X2.2047Y-1.2303
X2.2047Y-1.7815
X2.2441Y-1.4055
X2.311Y-1.6063
X2.3622Y-1.2303
X2.3622Y-1.7815
X2.4016Y-1.4055
X2.4685Y-1.6063
X2.5197Y-1.2303
X2.5197Y-1.7815
X2.559Y-1.4055
X2.626Y-1.6063
X2.6772Y-1.2303
X2.6772Y-1.7815
X2.7165Y-1.4055
X2.7835Y-1.6063
X2.8346Y-1.2303
X2.8346Y-1.7815
X2.874Y-1.4055
X2.9409Y-1.6063
X2.9921Y-1.2303
X2.9921Y-1.7815
X3.0315Y-1.4055
X3.0984Y-1.6063
X3.1496Y-1.2303
X3.1496Y-1.7815
X3.189Y-1.4055
X3.2559Y-1.6063
X3.3071Y-1.2303
X3.3071Y-1.7815
X3.3464Y-1.4055
T3
X0.9009Y-2.6673
X0.9449Y-1.4567
X0.9449Y-1.5551
X1.0977Y-2.6673
X1.1024Y-1.4567
X1.1024Y-1.5551
X1.2598Y-1.4567
X1.2598Y-1.5551
X1.4173Y-1.4567
X1.4173Y-1.5551
X1.5748Y-1.4567
X1.5748Y-1.5551
X1.726Y-2.7746
X1.7323Y-1.4567
X1.7323Y-1.5551
X1.826Y-2.7746
X1.8898Y-1.4567
X1.8898Y-1.5551
X1.926Y-2.7746
X2.026Y-2.7746
X2.0472Y-1.4567
X2.0472Y-1.5551
X2.126Y-2.7746
X2.2047Y-1.4567
X2.2047Y-1.5551
X2.226Y-2.7746
X2.326Y-2.7746
X2.3622Y-1.4567
X2.3622Y-1.5551
X2.426Y-2.7746
X2.5197Y-1.4567
X2.5197Y-1.5551
X2.526Y-2.7746
X2.6772Y-1.4567
X2.6772Y-1.5551
X2.8346Y-1.4567
X2.8346Y-1.5551
X2.9921Y-1.4567
X2.9921Y-1.5551
X3.1496Y-1.4567
X3.1496Y-1.5551
X3.3071Y-1.4567
X3.3071Y-1.5551
T0
M30
