%TF.GenerationSoftware,KiCad,Pcbnew,7.0.1*%
%TF.CreationDate,2024-10-11T19:42:49-04:00*%
%TF.ProjectId,PESTFlex,50455354-466c-4657-982e-6b696361645f,rev?*%
%TF.SameCoordinates,Original*%
%TF.FileFunction,Copper,L2,Bot*%
%TF.FilePolarity,Positive*%
%FSLAX46Y46*%
G04 Gerber Fmt 4.6, Leading zero omitted, Abs format (unit mm)*
G04 Created by KiCad (PCBNEW 7.0.1) date 2024-10-11 19:42:49*
%MOMM*%
%LPD*%
G01*
G04 APERTURE LIST*
G04 Aperture macros list*
%AMRoundRect*
0 Rectangle with rounded corners*
0 $1 Rounding radius*
0 $2 $3 $4 $5 $6 $7 $8 $9 X,Y pos of 4 corners*
0 Add a 4 corners polygon primitive as box body*
4,1,4,$2,$3,$4,$5,$6,$7,$8,$9,$2,$3,0*
0 Add four circle primitives for the rounded corners*
1,1,$1+$1,$2,$3*
1,1,$1+$1,$4,$5*
1,1,$1+$1,$6,$7*
1,1,$1+$1,$8,$9*
0 Add four rect primitives between the rounded corners*
20,1,$1+$1,$2,$3,$4,$5,0*
20,1,$1+$1,$4,$5,$6,$7,0*
20,1,$1+$1,$6,$7,$8,$9,0*
20,1,$1+$1,$8,$9,$2,$3,0*%
G04 Aperture macros list end*
%TA.AperFunction,SMDPad,CuDef*%
%ADD10RoundRect,0.247222X0.642778X0.832778X-0.642778X0.832778X-0.642778X-0.832778X0.642778X-0.832778X0*%
%TD*%
%TA.AperFunction,ViaPad*%
%ADD11C,1.000000*%
%TD*%
%TA.AperFunction,Conductor*%
%ADD12C,0.800000*%
%TD*%
G04 APERTURE END LIST*
D10*
%TO.P,D3,1,K*%
%TO.N,/Y0*%
X37000000Y-29000000D03*
%TO.P,D3,2,A*%
%TO.N,Net-(D3-A)*%
X33000000Y-29000000D03*
%TD*%
%TO.P,D4,1,K*%
%TO.N,/Y0*%
X42000000Y-26000000D03*
%TO.P,D4,2,A*%
%TO.N,Net-(D4-A)*%
X38000000Y-26000000D03*
%TD*%
%TO.P,D6,1,K*%
%TO.N,/X0*%
X37000000Y-35000000D03*
%TO.P,D6,2,A*%
%TO.N,Net-(D6-A)*%
X33000000Y-35000000D03*
%TD*%
%TO.P,D5,1,K*%
%TO.N,/Y0*%
X47000000Y-29000000D03*
%TO.P,D5,2,A*%
%TO.N,Net-(D5-A)*%
X43000000Y-29000000D03*
%TD*%
%TO.P,D7,1,K*%
%TO.N,/X1*%
X42000000Y-32000000D03*
%TO.P,D7,2,A*%
%TO.N,Net-(D7-A)*%
X38000000Y-32000000D03*
%TD*%
%TO.P,D11,1,K*%
%TO.N,/Y1*%
X47000000Y-41000000D03*
%TO.P,D11,2,A*%
%TO.N,Net-(D11-A)*%
X43000000Y-41000000D03*
%TD*%
%TO.P,D8,1,K*%
%TO.N,/X2*%
X47000000Y-35000000D03*
%TO.P,D8,2,A*%
%TO.N,Net-(D8-A)*%
X43000000Y-35000000D03*
%TD*%
%TO.P,D10,1,K*%
%TO.N,/Y1*%
X42000000Y-38000000D03*
%TO.P,D10,2,A*%
%TO.N,Net-(D10-A)*%
X38000000Y-38000000D03*
%TD*%
%TO.P,D1,1,K*%
%TO.N,/X0*%
X37000000Y-23000000D03*
%TO.P,D1,2,A*%
%TO.N,Net-(D1-A)*%
X33000000Y-23000000D03*
%TD*%
%TO.P,D9,1,K*%
%TO.N,/Y1*%
X37000000Y-41000000D03*
%TO.P,D9,2,A*%
%TO.N,Net-(D9-A)*%
X33000000Y-41000000D03*
%TD*%
%TO.P,D2,1,K*%
%TO.N,/X2*%
X47000000Y-23000000D03*
%TO.P,D2,2,A*%
%TO.N,Net-(D2-A)*%
X43000000Y-23000000D03*
%TD*%
D11*
%TO.N,/X0*%
X37101135Y-35446259D03*
X35410000Y-28000000D03*
%TO.N,Net-(D1-A)*%
X33000000Y-23000000D03*
%TO.N,/X2*%
X46797010Y-23142135D03*
X45410000Y-28000000D03*
X47102678Y-35444716D03*
%TO.N,Net-(D2-A)*%
X43000000Y-23000000D03*
%TO.N,/Y0*%
X46797010Y-29142135D03*
X36798456Y-29144200D03*
%TO.N,Net-(D3-A)*%
X33000000Y-29000000D03*
%TO.N,Net-(D4-A)*%
X38000000Y-26000000D03*
%TO.N,Net-(D5-A)*%
X43000000Y-29000000D03*
%TO.N,Net-(D6-A)*%
X33000000Y-35000000D03*
%TO.N,/X1*%
X41797010Y-32142135D03*
%TO.N,Net-(D7-A)*%
X38000000Y-32000000D03*
%TO.N,Net-(D8-A)*%
X43000000Y-35000000D03*
%TO.N,/Y1*%
X36797010Y-41142135D03*
X46797010Y-41142135D03*
%TO.N,Net-(D9-A)*%
X33000000Y-41000000D03*
%TO.N,Net-(D10-A)*%
X38000000Y-38000000D03*
%TO.N,Net-(D11-A)*%
X43000000Y-41000000D03*
%TD*%
D12*
%TO.N,/X0*%
X35410000Y-28000000D02*
X35410000Y-33410000D01*
X35410000Y-24590000D02*
X35410000Y-28000000D01*
X35410000Y-33410000D02*
X37000000Y-35000000D01*
X37000000Y-23000000D02*
X35410000Y-24590000D01*
%TO.N,/X2*%
X45410000Y-33410000D02*
X47000000Y-35000000D01*
X45410000Y-28000000D02*
X45410000Y-33410000D01*
%TO.N,/Y0*%
X44965635Y-26000000D02*
X47000000Y-28034365D01*
X47000000Y-28034365D02*
X47000000Y-29000000D01*
X42000000Y-26000000D02*
X39000000Y-29000000D01*
X42000000Y-26000000D02*
X44965635Y-26000000D01*
X39000000Y-29000000D02*
X37000000Y-29000000D01*
%TO.N,/Y1*%
X42000000Y-38000000D02*
X44000000Y-38000000D01*
X39000000Y-41000000D02*
X37000000Y-41000000D01*
X44000000Y-38000000D02*
X47000000Y-41000000D01*
X42000000Y-38000000D02*
X39000000Y-41000000D01*
%TD*%
M02*
