M48
; DRILL file {KiCad 7.0.1} date Fri Oct 11 19:42:51 2024
; FORMAT={-:-/ absolute / inch / decimal}
; #@! TF.CreationDate,2024-10-11T19:42:51-04:00
; #@! TF.GenerationSoftware,Kicad,Pcbnew,7.0.1
; #@! TF.FileFunction,Plated,1,2,PTH
FMAT,2
INCH
; #@! TA.AperFunction,Plated,PTH,ViaDrill
T1C0.0157
%
G90
G05
T1
X1.2992Y-0.9055
X1.2992Y-1.1417
X1.2992Y-1.378
X1.2992Y-1.6142
X1.3941Y-1.1024
X1.4487Y-1.6198
X1.4488Y-1.1474
X1.4607Y-1.3955
X1.4961Y-1.0236
X1.4961Y-1.2598
X1.4961Y-1.4961
X1.6456Y-1.2654
X1.6929Y-0.9055
X1.6929Y-1.1417
X1.6929Y-1.378
X1.6929Y-1.6142
X1.7878Y-1.1024
X1.8424Y-0.9111
X1.8424Y-1.1473
X1.8424Y-1.6198
X1.8544Y-1.3955
T0
M30
