%TF.GenerationSoftware,KiCad,Pcbnew,7.0.1*%
%TF.CreationDate,2024-10-11T19:42:49-04:00*%
%TF.ProjectId,PESTFlex,50455354-466c-4657-982e-6b696361645f,rev?*%
%TF.SameCoordinates,Original*%
%TF.FileFunction,Legend,Bot*%
%TF.FilePolarity,Positive*%
%FSLAX46Y46*%
G04 Gerber Fmt 4.6, Leading zero omitted, Abs format (unit mm)*
G04 Created by KiCad (PCBNEW 7.0.1) date 2024-10-11 19:42:49*
%MOMM*%
%LPD*%
G01*
G04 APERTURE LIST*
%ADD10C,0.100000*%
%ADD11C,0.120000*%
G04 APERTURE END LIST*
D10*
%TO.C,D3*%
X35738094Y-27162619D02*
X35738094Y-26162619D01*
X35738094Y-26162619D02*
X35499999Y-26162619D01*
X35499999Y-26162619D02*
X35357142Y-26210238D01*
X35357142Y-26210238D02*
X35261904Y-26305476D01*
X35261904Y-26305476D02*
X35214285Y-26400714D01*
X35214285Y-26400714D02*
X35166666Y-26591190D01*
X35166666Y-26591190D02*
X35166666Y-26734047D01*
X35166666Y-26734047D02*
X35214285Y-26924523D01*
X35214285Y-26924523D02*
X35261904Y-27019761D01*
X35261904Y-27019761D02*
X35357142Y-27115000D01*
X35357142Y-27115000D02*
X35499999Y-27162619D01*
X35499999Y-27162619D02*
X35738094Y-27162619D01*
X34833332Y-26162619D02*
X34214285Y-26162619D01*
X34214285Y-26162619D02*
X34547618Y-26543571D01*
X34547618Y-26543571D02*
X34404761Y-26543571D01*
X34404761Y-26543571D02*
X34309523Y-26591190D01*
X34309523Y-26591190D02*
X34261904Y-26638809D01*
X34261904Y-26638809D02*
X34214285Y-26734047D01*
X34214285Y-26734047D02*
X34214285Y-26972142D01*
X34214285Y-26972142D02*
X34261904Y-27067380D01*
X34261904Y-27067380D02*
X34309523Y-27115000D01*
X34309523Y-27115000D02*
X34404761Y-27162619D01*
X34404761Y-27162619D02*
X34690475Y-27162619D01*
X34690475Y-27162619D02*
X34785713Y-27115000D01*
X34785713Y-27115000D02*
X34833332Y-27067380D01*
%TO.C,D4*%
X40738094Y-24162619D02*
X40738094Y-23162619D01*
X40738094Y-23162619D02*
X40499999Y-23162619D01*
X40499999Y-23162619D02*
X40357142Y-23210238D01*
X40357142Y-23210238D02*
X40261904Y-23305476D01*
X40261904Y-23305476D02*
X40214285Y-23400714D01*
X40214285Y-23400714D02*
X40166666Y-23591190D01*
X40166666Y-23591190D02*
X40166666Y-23734047D01*
X40166666Y-23734047D02*
X40214285Y-23924523D01*
X40214285Y-23924523D02*
X40261904Y-24019761D01*
X40261904Y-24019761D02*
X40357142Y-24115000D01*
X40357142Y-24115000D02*
X40499999Y-24162619D01*
X40499999Y-24162619D02*
X40738094Y-24162619D01*
X39309523Y-23495952D02*
X39309523Y-24162619D01*
X39547618Y-23115000D02*
X39785713Y-23829285D01*
X39785713Y-23829285D02*
X39166666Y-23829285D01*
%TO.C,D6*%
X35738094Y-33162619D02*
X35738094Y-32162619D01*
X35738094Y-32162619D02*
X35499999Y-32162619D01*
X35499999Y-32162619D02*
X35357142Y-32210238D01*
X35357142Y-32210238D02*
X35261904Y-32305476D01*
X35261904Y-32305476D02*
X35214285Y-32400714D01*
X35214285Y-32400714D02*
X35166666Y-32591190D01*
X35166666Y-32591190D02*
X35166666Y-32734047D01*
X35166666Y-32734047D02*
X35214285Y-32924523D01*
X35214285Y-32924523D02*
X35261904Y-33019761D01*
X35261904Y-33019761D02*
X35357142Y-33115000D01*
X35357142Y-33115000D02*
X35499999Y-33162619D01*
X35499999Y-33162619D02*
X35738094Y-33162619D01*
X34309523Y-32162619D02*
X34499999Y-32162619D01*
X34499999Y-32162619D02*
X34595237Y-32210238D01*
X34595237Y-32210238D02*
X34642856Y-32257857D01*
X34642856Y-32257857D02*
X34738094Y-32400714D01*
X34738094Y-32400714D02*
X34785713Y-32591190D01*
X34785713Y-32591190D02*
X34785713Y-32972142D01*
X34785713Y-32972142D02*
X34738094Y-33067380D01*
X34738094Y-33067380D02*
X34690475Y-33115000D01*
X34690475Y-33115000D02*
X34595237Y-33162619D01*
X34595237Y-33162619D02*
X34404761Y-33162619D01*
X34404761Y-33162619D02*
X34309523Y-33115000D01*
X34309523Y-33115000D02*
X34261904Y-33067380D01*
X34261904Y-33067380D02*
X34214285Y-32972142D01*
X34214285Y-32972142D02*
X34214285Y-32734047D01*
X34214285Y-32734047D02*
X34261904Y-32638809D01*
X34261904Y-32638809D02*
X34309523Y-32591190D01*
X34309523Y-32591190D02*
X34404761Y-32543571D01*
X34404761Y-32543571D02*
X34595237Y-32543571D01*
X34595237Y-32543571D02*
X34690475Y-32591190D01*
X34690475Y-32591190D02*
X34738094Y-32638809D01*
X34738094Y-32638809D02*
X34785713Y-32734047D01*
%TO.C,D5*%
X45738094Y-27162619D02*
X45738094Y-26162619D01*
X45738094Y-26162619D02*
X45499999Y-26162619D01*
X45499999Y-26162619D02*
X45357142Y-26210238D01*
X45357142Y-26210238D02*
X45261904Y-26305476D01*
X45261904Y-26305476D02*
X45214285Y-26400714D01*
X45214285Y-26400714D02*
X45166666Y-26591190D01*
X45166666Y-26591190D02*
X45166666Y-26734047D01*
X45166666Y-26734047D02*
X45214285Y-26924523D01*
X45214285Y-26924523D02*
X45261904Y-27019761D01*
X45261904Y-27019761D02*
X45357142Y-27115000D01*
X45357142Y-27115000D02*
X45499999Y-27162619D01*
X45499999Y-27162619D02*
X45738094Y-27162619D01*
X44261904Y-26162619D02*
X44738094Y-26162619D01*
X44738094Y-26162619D02*
X44785713Y-26638809D01*
X44785713Y-26638809D02*
X44738094Y-26591190D01*
X44738094Y-26591190D02*
X44642856Y-26543571D01*
X44642856Y-26543571D02*
X44404761Y-26543571D01*
X44404761Y-26543571D02*
X44309523Y-26591190D01*
X44309523Y-26591190D02*
X44261904Y-26638809D01*
X44261904Y-26638809D02*
X44214285Y-26734047D01*
X44214285Y-26734047D02*
X44214285Y-26972142D01*
X44214285Y-26972142D02*
X44261904Y-27067380D01*
X44261904Y-27067380D02*
X44309523Y-27115000D01*
X44309523Y-27115000D02*
X44404761Y-27162619D01*
X44404761Y-27162619D02*
X44642856Y-27162619D01*
X44642856Y-27162619D02*
X44738094Y-27115000D01*
X44738094Y-27115000D02*
X44785713Y-27067380D01*
%TO.C,D7*%
X40738094Y-30162619D02*
X40738094Y-29162619D01*
X40738094Y-29162619D02*
X40499999Y-29162619D01*
X40499999Y-29162619D02*
X40357142Y-29210238D01*
X40357142Y-29210238D02*
X40261904Y-29305476D01*
X40261904Y-29305476D02*
X40214285Y-29400714D01*
X40214285Y-29400714D02*
X40166666Y-29591190D01*
X40166666Y-29591190D02*
X40166666Y-29734047D01*
X40166666Y-29734047D02*
X40214285Y-29924523D01*
X40214285Y-29924523D02*
X40261904Y-30019761D01*
X40261904Y-30019761D02*
X40357142Y-30115000D01*
X40357142Y-30115000D02*
X40499999Y-30162619D01*
X40499999Y-30162619D02*
X40738094Y-30162619D01*
X39833332Y-29162619D02*
X39166666Y-29162619D01*
X39166666Y-29162619D02*
X39595237Y-30162619D01*
%TO.C,D11*%
X46214285Y-39162619D02*
X46214285Y-38162619D01*
X46214285Y-38162619D02*
X45976190Y-38162619D01*
X45976190Y-38162619D02*
X45833333Y-38210238D01*
X45833333Y-38210238D02*
X45738095Y-38305476D01*
X45738095Y-38305476D02*
X45690476Y-38400714D01*
X45690476Y-38400714D02*
X45642857Y-38591190D01*
X45642857Y-38591190D02*
X45642857Y-38734047D01*
X45642857Y-38734047D02*
X45690476Y-38924523D01*
X45690476Y-38924523D02*
X45738095Y-39019761D01*
X45738095Y-39019761D02*
X45833333Y-39115000D01*
X45833333Y-39115000D02*
X45976190Y-39162619D01*
X45976190Y-39162619D02*
X46214285Y-39162619D01*
X44690476Y-39162619D02*
X45261904Y-39162619D01*
X44976190Y-39162619D02*
X44976190Y-38162619D01*
X44976190Y-38162619D02*
X45071428Y-38305476D01*
X45071428Y-38305476D02*
X45166666Y-38400714D01*
X45166666Y-38400714D02*
X45261904Y-38448333D01*
X43738095Y-39162619D02*
X44309523Y-39162619D01*
X44023809Y-39162619D02*
X44023809Y-38162619D01*
X44023809Y-38162619D02*
X44119047Y-38305476D01*
X44119047Y-38305476D02*
X44214285Y-38400714D01*
X44214285Y-38400714D02*
X44309523Y-38448333D01*
%TO.C,D8*%
X45738094Y-33162619D02*
X45738094Y-32162619D01*
X45738094Y-32162619D02*
X45499999Y-32162619D01*
X45499999Y-32162619D02*
X45357142Y-32210238D01*
X45357142Y-32210238D02*
X45261904Y-32305476D01*
X45261904Y-32305476D02*
X45214285Y-32400714D01*
X45214285Y-32400714D02*
X45166666Y-32591190D01*
X45166666Y-32591190D02*
X45166666Y-32734047D01*
X45166666Y-32734047D02*
X45214285Y-32924523D01*
X45214285Y-32924523D02*
X45261904Y-33019761D01*
X45261904Y-33019761D02*
X45357142Y-33115000D01*
X45357142Y-33115000D02*
X45499999Y-33162619D01*
X45499999Y-33162619D02*
X45738094Y-33162619D01*
X44595237Y-32591190D02*
X44690475Y-32543571D01*
X44690475Y-32543571D02*
X44738094Y-32495952D01*
X44738094Y-32495952D02*
X44785713Y-32400714D01*
X44785713Y-32400714D02*
X44785713Y-32353095D01*
X44785713Y-32353095D02*
X44738094Y-32257857D01*
X44738094Y-32257857D02*
X44690475Y-32210238D01*
X44690475Y-32210238D02*
X44595237Y-32162619D01*
X44595237Y-32162619D02*
X44404761Y-32162619D01*
X44404761Y-32162619D02*
X44309523Y-32210238D01*
X44309523Y-32210238D02*
X44261904Y-32257857D01*
X44261904Y-32257857D02*
X44214285Y-32353095D01*
X44214285Y-32353095D02*
X44214285Y-32400714D01*
X44214285Y-32400714D02*
X44261904Y-32495952D01*
X44261904Y-32495952D02*
X44309523Y-32543571D01*
X44309523Y-32543571D02*
X44404761Y-32591190D01*
X44404761Y-32591190D02*
X44595237Y-32591190D01*
X44595237Y-32591190D02*
X44690475Y-32638809D01*
X44690475Y-32638809D02*
X44738094Y-32686428D01*
X44738094Y-32686428D02*
X44785713Y-32781666D01*
X44785713Y-32781666D02*
X44785713Y-32972142D01*
X44785713Y-32972142D02*
X44738094Y-33067380D01*
X44738094Y-33067380D02*
X44690475Y-33115000D01*
X44690475Y-33115000D02*
X44595237Y-33162619D01*
X44595237Y-33162619D02*
X44404761Y-33162619D01*
X44404761Y-33162619D02*
X44309523Y-33115000D01*
X44309523Y-33115000D02*
X44261904Y-33067380D01*
X44261904Y-33067380D02*
X44214285Y-32972142D01*
X44214285Y-32972142D02*
X44214285Y-32781666D01*
X44214285Y-32781666D02*
X44261904Y-32686428D01*
X44261904Y-32686428D02*
X44309523Y-32638809D01*
X44309523Y-32638809D02*
X44404761Y-32591190D01*
%TO.C,D10*%
X41214285Y-36162619D02*
X41214285Y-35162619D01*
X41214285Y-35162619D02*
X40976190Y-35162619D01*
X40976190Y-35162619D02*
X40833333Y-35210238D01*
X40833333Y-35210238D02*
X40738095Y-35305476D01*
X40738095Y-35305476D02*
X40690476Y-35400714D01*
X40690476Y-35400714D02*
X40642857Y-35591190D01*
X40642857Y-35591190D02*
X40642857Y-35734047D01*
X40642857Y-35734047D02*
X40690476Y-35924523D01*
X40690476Y-35924523D02*
X40738095Y-36019761D01*
X40738095Y-36019761D02*
X40833333Y-36115000D01*
X40833333Y-36115000D02*
X40976190Y-36162619D01*
X40976190Y-36162619D02*
X41214285Y-36162619D01*
X39690476Y-36162619D02*
X40261904Y-36162619D01*
X39976190Y-36162619D02*
X39976190Y-35162619D01*
X39976190Y-35162619D02*
X40071428Y-35305476D01*
X40071428Y-35305476D02*
X40166666Y-35400714D01*
X40166666Y-35400714D02*
X40261904Y-35448333D01*
X39071428Y-35162619D02*
X38976190Y-35162619D01*
X38976190Y-35162619D02*
X38880952Y-35210238D01*
X38880952Y-35210238D02*
X38833333Y-35257857D01*
X38833333Y-35257857D02*
X38785714Y-35353095D01*
X38785714Y-35353095D02*
X38738095Y-35543571D01*
X38738095Y-35543571D02*
X38738095Y-35781666D01*
X38738095Y-35781666D02*
X38785714Y-35972142D01*
X38785714Y-35972142D02*
X38833333Y-36067380D01*
X38833333Y-36067380D02*
X38880952Y-36115000D01*
X38880952Y-36115000D02*
X38976190Y-36162619D01*
X38976190Y-36162619D02*
X39071428Y-36162619D01*
X39071428Y-36162619D02*
X39166666Y-36115000D01*
X39166666Y-36115000D02*
X39214285Y-36067380D01*
X39214285Y-36067380D02*
X39261904Y-35972142D01*
X39261904Y-35972142D02*
X39309523Y-35781666D01*
X39309523Y-35781666D02*
X39309523Y-35543571D01*
X39309523Y-35543571D02*
X39261904Y-35353095D01*
X39261904Y-35353095D02*
X39214285Y-35257857D01*
X39214285Y-35257857D02*
X39166666Y-35210238D01*
X39166666Y-35210238D02*
X39071428Y-35162619D01*
%TO.C,D1*%
X35738094Y-21162619D02*
X35738094Y-20162619D01*
X35738094Y-20162619D02*
X35499999Y-20162619D01*
X35499999Y-20162619D02*
X35357142Y-20210238D01*
X35357142Y-20210238D02*
X35261904Y-20305476D01*
X35261904Y-20305476D02*
X35214285Y-20400714D01*
X35214285Y-20400714D02*
X35166666Y-20591190D01*
X35166666Y-20591190D02*
X35166666Y-20734047D01*
X35166666Y-20734047D02*
X35214285Y-20924523D01*
X35214285Y-20924523D02*
X35261904Y-21019761D01*
X35261904Y-21019761D02*
X35357142Y-21115000D01*
X35357142Y-21115000D02*
X35499999Y-21162619D01*
X35499999Y-21162619D02*
X35738094Y-21162619D01*
X34214285Y-21162619D02*
X34785713Y-21162619D01*
X34499999Y-21162619D02*
X34499999Y-20162619D01*
X34499999Y-20162619D02*
X34595237Y-20305476D01*
X34595237Y-20305476D02*
X34690475Y-20400714D01*
X34690475Y-20400714D02*
X34785713Y-20448333D01*
%TO.C,D9*%
X35738094Y-39162619D02*
X35738094Y-38162619D01*
X35738094Y-38162619D02*
X35499999Y-38162619D01*
X35499999Y-38162619D02*
X35357142Y-38210238D01*
X35357142Y-38210238D02*
X35261904Y-38305476D01*
X35261904Y-38305476D02*
X35214285Y-38400714D01*
X35214285Y-38400714D02*
X35166666Y-38591190D01*
X35166666Y-38591190D02*
X35166666Y-38734047D01*
X35166666Y-38734047D02*
X35214285Y-38924523D01*
X35214285Y-38924523D02*
X35261904Y-39019761D01*
X35261904Y-39019761D02*
X35357142Y-39115000D01*
X35357142Y-39115000D02*
X35499999Y-39162619D01*
X35499999Y-39162619D02*
X35738094Y-39162619D01*
X34690475Y-39162619D02*
X34499999Y-39162619D01*
X34499999Y-39162619D02*
X34404761Y-39115000D01*
X34404761Y-39115000D02*
X34357142Y-39067380D01*
X34357142Y-39067380D02*
X34261904Y-38924523D01*
X34261904Y-38924523D02*
X34214285Y-38734047D01*
X34214285Y-38734047D02*
X34214285Y-38353095D01*
X34214285Y-38353095D02*
X34261904Y-38257857D01*
X34261904Y-38257857D02*
X34309523Y-38210238D01*
X34309523Y-38210238D02*
X34404761Y-38162619D01*
X34404761Y-38162619D02*
X34595237Y-38162619D01*
X34595237Y-38162619D02*
X34690475Y-38210238D01*
X34690475Y-38210238D02*
X34738094Y-38257857D01*
X34738094Y-38257857D02*
X34785713Y-38353095D01*
X34785713Y-38353095D02*
X34785713Y-38591190D01*
X34785713Y-38591190D02*
X34738094Y-38686428D01*
X34738094Y-38686428D02*
X34690475Y-38734047D01*
X34690475Y-38734047D02*
X34595237Y-38781666D01*
X34595237Y-38781666D02*
X34404761Y-38781666D01*
X34404761Y-38781666D02*
X34309523Y-38734047D01*
X34309523Y-38734047D02*
X34261904Y-38686428D01*
X34261904Y-38686428D02*
X34214285Y-38591190D01*
%TO.C,D2*%
X45738094Y-21162619D02*
X45738094Y-20162619D01*
X45738094Y-20162619D02*
X45499999Y-20162619D01*
X45499999Y-20162619D02*
X45357142Y-20210238D01*
X45357142Y-20210238D02*
X45261904Y-20305476D01*
X45261904Y-20305476D02*
X45214285Y-20400714D01*
X45214285Y-20400714D02*
X45166666Y-20591190D01*
X45166666Y-20591190D02*
X45166666Y-20734047D01*
X45166666Y-20734047D02*
X45214285Y-20924523D01*
X45214285Y-20924523D02*
X45261904Y-21019761D01*
X45261904Y-21019761D02*
X45357142Y-21115000D01*
X45357142Y-21115000D02*
X45499999Y-21162619D01*
X45499999Y-21162619D02*
X45738094Y-21162619D01*
X44785713Y-20257857D02*
X44738094Y-20210238D01*
X44738094Y-20210238D02*
X44642856Y-20162619D01*
X44642856Y-20162619D02*
X44404761Y-20162619D01*
X44404761Y-20162619D02*
X44309523Y-20210238D01*
X44309523Y-20210238D02*
X44261904Y-20257857D01*
X44261904Y-20257857D02*
X44214285Y-20353095D01*
X44214285Y-20353095D02*
X44214285Y-20448333D01*
X44214285Y-20448333D02*
X44261904Y-20591190D01*
X44261904Y-20591190D02*
X44833332Y-21162619D01*
X44833332Y-21162619D02*
X44214285Y-21162619D01*
D11*
%TO.C,D3*%
X38100000Y-27600000D02*
X38100000Y-30400000D01*
X38100000Y-27600000D02*
X33000000Y-27600000D01*
X38100000Y-30400000D02*
X33000000Y-30400000D01*
%TO.C,D4*%
X43100000Y-24600000D02*
X43100000Y-27400000D01*
X43100000Y-24600000D02*
X38000000Y-24600000D01*
X43100000Y-27400000D02*
X38000000Y-27400000D01*
%TO.C,D6*%
X38100000Y-33600000D02*
X38100000Y-36400000D01*
X38100000Y-33600000D02*
X33000000Y-33600000D01*
X38100000Y-36400000D02*
X33000000Y-36400000D01*
%TO.C,D5*%
X48100000Y-27600000D02*
X48100000Y-30400000D01*
X48100000Y-27600000D02*
X43000000Y-27600000D01*
X48100000Y-30400000D02*
X43000000Y-30400000D01*
%TO.C,D7*%
X43100000Y-30600000D02*
X43100000Y-33400000D01*
X43100000Y-30600000D02*
X38000000Y-30600000D01*
X43100000Y-33400000D02*
X38000000Y-33400000D01*
%TO.C,D11*%
X48100000Y-39600000D02*
X48100000Y-42400000D01*
X48100000Y-39600000D02*
X43000000Y-39600000D01*
X48100000Y-42400000D02*
X43000000Y-42400000D01*
%TO.C,D8*%
X48100000Y-33600000D02*
X48100000Y-36400000D01*
X48100000Y-33600000D02*
X43000000Y-33600000D01*
X48100000Y-36400000D02*
X43000000Y-36400000D01*
%TO.C,D10*%
X43100000Y-36600000D02*
X43100000Y-39400000D01*
X43100000Y-36600000D02*
X38000000Y-36600000D01*
X43100000Y-39400000D02*
X38000000Y-39400000D01*
%TO.C,D1*%
X38100000Y-21600000D02*
X38100000Y-24400000D01*
X38100000Y-21600000D02*
X33000000Y-21600000D01*
X38100000Y-24400000D02*
X33000000Y-24400000D01*
%TO.C,D9*%
X38100000Y-39600000D02*
X38100000Y-42400000D01*
X38100000Y-39600000D02*
X33000000Y-39600000D01*
X38100000Y-42400000D02*
X33000000Y-42400000D01*
%TO.C,D2*%
X48100000Y-21600000D02*
X48100000Y-24400000D01*
X48100000Y-21600000D02*
X43000000Y-21600000D01*
X48100000Y-24400000D02*
X43000000Y-24400000D01*
%TD*%
M02*
