%TF.GenerationSoftware,KiCad,Pcbnew,7.0.1*%
%TF.CreationDate,2025-01-22T18:06:00-05:00*%
%TF.ProjectId,BusChain,42757343-6861-4696-9e2e-6b696361645f,rev?*%
%TF.SameCoordinates,Original*%
%TF.FileFunction,Legend,Bot*%
%TF.FilePolarity,Positive*%
%FSLAX46Y46*%
G04 Gerber Fmt 4.6, Leading zero omitted, Abs format (unit mm)*
G04 Created by KiCad (PCBNEW 7.0.1) date 2025-01-22 18:06:00*
%MOMM*%
%LPD*%
G01*
G04 APERTURE LIST*
%ADD10C,0.150000*%
G04 APERTURE END LIST*
D10*
X42530714Y-20857142D02*
X42602142Y-21071428D01*
X42602142Y-21071428D02*
X42673571Y-21142857D01*
X42673571Y-21142857D02*
X42816428Y-21214285D01*
X42816428Y-21214285D02*
X43030714Y-21214285D01*
X43030714Y-21214285D02*
X43173571Y-21142857D01*
X43173571Y-21142857D02*
X43245000Y-21071428D01*
X43245000Y-21071428D02*
X43316428Y-20928571D01*
X43316428Y-20928571D02*
X43316428Y-20357142D01*
X43316428Y-20357142D02*
X41816428Y-20357142D01*
X41816428Y-20357142D02*
X41816428Y-20857142D01*
X41816428Y-20857142D02*
X41887857Y-21000000D01*
X41887857Y-21000000D02*
X41959285Y-21071428D01*
X41959285Y-21071428D02*
X42102142Y-21142857D01*
X42102142Y-21142857D02*
X42245000Y-21142857D01*
X42245000Y-21142857D02*
X42387857Y-21071428D01*
X42387857Y-21071428D02*
X42459285Y-21000000D01*
X42459285Y-21000000D02*
X42530714Y-20857142D01*
X42530714Y-20857142D02*
X42530714Y-20357142D01*
X42316428Y-22500000D02*
X43316428Y-22500000D01*
X42316428Y-21857142D02*
X43102142Y-21857142D01*
X43102142Y-21857142D02*
X43245000Y-21928571D01*
X43245000Y-21928571D02*
X43316428Y-22071428D01*
X43316428Y-22071428D02*
X43316428Y-22285714D01*
X43316428Y-22285714D02*
X43245000Y-22428571D01*
X43245000Y-22428571D02*
X43173571Y-22500000D01*
X43245000Y-23142857D02*
X43316428Y-23285714D01*
X43316428Y-23285714D02*
X43316428Y-23571428D01*
X43316428Y-23571428D02*
X43245000Y-23714285D01*
X43245000Y-23714285D02*
X43102142Y-23785714D01*
X43102142Y-23785714D02*
X43030714Y-23785714D01*
X43030714Y-23785714D02*
X42887857Y-23714285D01*
X42887857Y-23714285D02*
X42816428Y-23571428D01*
X42816428Y-23571428D02*
X42816428Y-23357143D01*
X42816428Y-23357143D02*
X42745000Y-23214285D01*
X42745000Y-23214285D02*
X42602142Y-23142857D01*
X42602142Y-23142857D02*
X42530714Y-23142857D01*
X42530714Y-23142857D02*
X42387857Y-23214285D01*
X42387857Y-23214285D02*
X42316428Y-23357143D01*
X42316428Y-23357143D02*
X42316428Y-23571428D01*
X42316428Y-23571428D02*
X42387857Y-23714285D01*
X43173571Y-25285714D02*
X43245000Y-25214286D01*
X43245000Y-25214286D02*
X43316428Y-25000000D01*
X43316428Y-25000000D02*
X43316428Y-24857143D01*
X43316428Y-24857143D02*
X43245000Y-24642857D01*
X43245000Y-24642857D02*
X43102142Y-24500000D01*
X43102142Y-24500000D02*
X42959285Y-24428571D01*
X42959285Y-24428571D02*
X42673571Y-24357143D01*
X42673571Y-24357143D02*
X42459285Y-24357143D01*
X42459285Y-24357143D02*
X42173571Y-24428571D01*
X42173571Y-24428571D02*
X42030714Y-24500000D01*
X42030714Y-24500000D02*
X41887857Y-24642857D01*
X41887857Y-24642857D02*
X41816428Y-24857143D01*
X41816428Y-24857143D02*
X41816428Y-25000000D01*
X41816428Y-25000000D02*
X41887857Y-25214286D01*
X41887857Y-25214286D02*
X41959285Y-25285714D01*
X43316428Y-25928571D02*
X41816428Y-25928571D01*
X43316428Y-26571429D02*
X42530714Y-26571429D01*
X42530714Y-26571429D02*
X42387857Y-26500000D01*
X42387857Y-26500000D02*
X42316428Y-26357143D01*
X42316428Y-26357143D02*
X42316428Y-26142857D01*
X42316428Y-26142857D02*
X42387857Y-26000000D01*
X42387857Y-26000000D02*
X42459285Y-25928571D01*
X43316428Y-27928572D02*
X42530714Y-27928572D01*
X42530714Y-27928572D02*
X42387857Y-27857143D01*
X42387857Y-27857143D02*
X42316428Y-27714286D01*
X42316428Y-27714286D02*
X42316428Y-27428572D01*
X42316428Y-27428572D02*
X42387857Y-27285714D01*
X43245000Y-27928572D02*
X43316428Y-27785714D01*
X43316428Y-27785714D02*
X43316428Y-27428572D01*
X43316428Y-27428572D02*
X43245000Y-27285714D01*
X43245000Y-27285714D02*
X43102142Y-27214286D01*
X43102142Y-27214286D02*
X42959285Y-27214286D01*
X42959285Y-27214286D02*
X42816428Y-27285714D01*
X42816428Y-27285714D02*
X42745000Y-27428572D01*
X42745000Y-27428572D02*
X42745000Y-27785714D01*
X42745000Y-27785714D02*
X42673571Y-27928572D01*
X43316428Y-28642857D02*
X42316428Y-28642857D01*
X41816428Y-28642857D02*
X41887857Y-28571429D01*
X41887857Y-28571429D02*
X41959285Y-28642857D01*
X41959285Y-28642857D02*
X41887857Y-28714286D01*
X41887857Y-28714286D02*
X41816428Y-28642857D01*
X41816428Y-28642857D02*
X41959285Y-28642857D01*
X42316428Y-29357143D02*
X43316428Y-29357143D01*
X42459285Y-29357143D02*
X42387857Y-29428572D01*
X42387857Y-29428572D02*
X42316428Y-29571429D01*
X42316428Y-29571429D02*
X42316428Y-29785715D01*
X42316428Y-29785715D02*
X42387857Y-29928572D01*
X42387857Y-29928572D02*
X42530714Y-30000001D01*
X42530714Y-30000001D02*
X43316428Y-30000001D01*
X43316428Y-32642858D02*
X43316428Y-31785715D01*
X43316428Y-32214286D02*
X41816428Y-32214286D01*
X41816428Y-32214286D02*
X42030714Y-32071429D01*
X42030714Y-32071429D02*
X42173571Y-31928572D01*
X42173571Y-31928572D02*
X42245000Y-31785715D01*
X43173571Y-33285714D02*
X43245000Y-33357143D01*
X43245000Y-33357143D02*
X43316428Y-33285714D01*
X43316428Y-33285714D02*
X43245000Y-33214286D01*
X43245000Y-33214286D02*
X43173571Y-33285714D01*
X43173571Y-33285714D02*
X43316428Y-33285714D01*
X43316428Y-34785715D02*
X43316428Y-33928572D01*
X43316428Y-34357143D02*
X41816428Y-34357143D01*
X41816428Y-34357143D02*
X42030714Y-34214286D01*
X42030714Y-34214286D02*
X42173571Y-34071429D01*
X42173571Y-34071429D02*
X42245000Y-33928572D01*
X45073571Y-24771428D02*
X45002142Y-24628571D01*
X45002142Y-24628571D02*
X45002142Y-24342857D01*
X45002142Y-24342857D02*
X45073571Y-24200000D01*
X45073571Y-24200000D02*
X45216428Y-24057142D01*
X45216428Y-24057142D02*
X45359285Y-23985714D01*
X45359285Y-23985714D02*
X45645000Y-23985714D01*
X45645000Y-23985714D02*
X45787857Y-24057142D01*
X45787857Y-24057142D02*
X45930714Y-24200000D01*
X45930714Y-24200000D02*
X46002142Y-24342857D01*
X46002142Y-24342857D02*
X46002142Y-24628571D01*
X46002142Y-24628571D02*
X45930714Y-24771428D01*
X44502142Y-24485714D02*
X44573571Y-24128571D01*
X44573571Y-24128571D02*
X44787857Y-23771428D01*
X44787857Y-23771428D02*
X45145000Y-23557142D01*
X45145000Y-23557142D02*
X45502142Y-23485714D01*
X45502142Y-23485714D02*
X45859285Y-23557142D01*
X45859285Y-23557142D02*
X46216428Y-23771428D01*
X46216428Y-23771428D02*
X46430714Y-24128571D01*
X46430714Y-24128571D02*
X46502142Y-24485714D01*
X46502142Y-24485714D02*
X46430714Y-24842857D01*
X46430714Y-24842857D02*
X46216428Y-25200000D01*
X46216428Y-25200000D02*
X45859285Y-25414285D01*
X45859285Y-25414285D02*
X45502142Y-25485714D01*
X45502142Y-25485714D02*
X45145000Y-25414285D01*
X45145000Y-25414285D02*
X44787857Y-25200000D01*
X44787857Y-25200000D02*
X44573571Y-24842857D01*
X44573571Y-24842857D02*
X44502142Y-24485714D01*
X46073571Y-26985714D02*
X46145000Y-26914286D01*
X46145000Y-26914286D02*
X46216428Y-26700000D01*
X46216428Y-26700000D02*
X46216428Y-26557143D01*
X46216428Y-26557143D02*
X46145000Y-26342857D01*
X46145000Y-26342857D02*
X46002142Y-26200000D01*
X46002142Y-26200000D02*
X45859285Y-26128571D01*
X45859285Y-26128571D02*
X45573571Y-26057143D01*
X45573571Y-26057143D02*
X45359285Y-26057143D01*
X45359285Y-26057143D02*
X45073571Y-26128571D01*
X45073571Y-26128571D02*
X44930714Y-26200000D01*
X44930714Y-26200000D02*
X44787857Y-26342857D01*
X44787857Y-26342857D02*
X44716428Y-26557143D01*
X44716428Y-26557143D02*
X44716428Y-26700000D01*
X44716428Y-26700000D02*
X44787857Y-26914286D01*
X44787857Y-26914286D02*
X44859285Y-26985714D01*
X44787857Y-28414286D02*
X44716428Y-28271429D01*
X44716428Y-28271429D02*
X44716428Y-28057143D01*
X44716428Y-28057143D02*
X44787857Y-27842857D01*
X44787857Y-27842857D02*
X44930714Y-27700000D01*
X44930714Y-27700000D02*
X45073571Y-27628571D01*
X45073571Y-27628571D02*
X45359285Y-27557143D01*
X45359285Y-27557143D02*
X45573571Y-27557143D01*
X45573571Y-27557143D02*
X45859285Y-27628571D01*
X45859285Y-27628571D02*
X46002142Y-27700000D01*
X46002142Y-27700000D02*
X46145000Y-27842857D01*
X46145000Y-27842857D02*
X46216428Y-28057143D01*
X46216428Y-28057143D02*
X46216428Y-28200000D01*
X46216428Y-28200000D02*
X46145000Y-28414286D01*
X46145000Y-28414286D02*
X46073571Y-28485714D01*
X46073571Y-28485714D02*
X45573571Y-28485714D01*
X45573571Y-28485714D02*
X45573571Y-28200000D01*
X46216428Y-29985714D02*
X45502142Y-29485714D01*
X46216428Y-29128571D02*
X44716428Y-29128571D01*
X44716428Y-29128571D02*
X44716428Y-29700000D01*
X44716428Y-29700000D02*
X44787857Y-29842857D01*
X44787857Y-29842857D02*
X44859285Y-29914286D01*
X44859285Y-29914286D02*
X45002142Y-29985714D01*
X45002142Y-29985714D02*
X45216428Y-29985714D01*
X45216428Y-29985714D02*
X45359285Y-29914286D01*
X45359285Y-29914286D02*
X45430714Y-29842857D01*
X45430714Y-29842857D02*
X45502142Y-29700000D01*
X45502142Y-29700000D02*
X45502142Y-29128571D01*
M02*
