%TF.GenerationSoftware,KiCad,Pcbnew,7.0.1*%
%TF.CreationDate,2024-10-11T19:25:02-04:00*%
%TF.ProjectId,BusChain,42757343-6861-4696-9e2e-6b696361645f,rev?*%
%TF.SameCoordinates,Original*%
%TF.FileFunction,Paste,Top*%
%TF.FilePolarity,Positive*%
%FSLAX46Y46*%
G04 Gerber Fmt 4.6, Leading zero omitted, Abs format (unit mm)*
G04 Created by KiCad (PCBNEW 7.0.1) date 2024-10-11 19:25:02*
%MOMM*%
%LPD*%
G01*
G04 APERTURE LIST*
G04 Aperture macros list*
%AMRoundRect*
0 Rectangle with rounded corners*
0 $1 Rounding radius*
0 $2 $3 $4 $5 $6 $7 $8 $9 X,Y pos of 4 corners*
0 Add a 4 corners polygon primitive as box body*
4,1,4,$2,$3,$4,$5,$6,$7,$8,$9,$2,$3,0*
0 Add four circle primitives for the rounded corners*
1,1,$1+$1,$2,$3*
1,1,$1+$1,$4,$5*
1,1,$1+$1,$6,$7*
1,1,$1+$1,$8,$9*
0 Add four rect primitives between the rounded corners*
20,1,$1+$1,$2,$3,$4,$5,0*
20,1,$1+$1,$4,$5,$6,$7,0*
20,1,$1+$1,$6,$7,$8,$9,0*
20,1,$1+$1,$8,$9,$2,$3,0*%
G04 Aperture macros list end*
%ADD10RoundRect,0.135000X0.185000X-0.135000X0.185000X0.135000X-0.185000X0.135000X-0.185000X-0.135000X0*%
%ADD11RoundRect,0.218750X0.218750X0.256250X-0.218750X0.256250X-0.218750X-0.256250X0.218750X-0.256250X0*%
%ADD12RoundRect,0.100000X-0.637500X-0.100000X0.637500X-0.100000X0.637500X0.100000X-0.637500X0.100000X0*%
%ADD13RoundRect,0.135000X-0.135000X-0.185000X0.135000X-0.185000X0.135000X0.185000X-0.135000X0.185000X0*%
%ADD14R,0.650000X0.400000*%
%ADD15RoundRect,0.140000X0.140000X0.170000X-0.140000X0.170000X-0.140000X-0.170000X0.140000X-0.170000X0*%
%ADD16RoundRect,0.140000X-0.170000X0.140000X-0.170000X-0.140000X0.170000X-0.140000X0.170000X0.140000X0*%
%ADD17RoundRect,0.100000X0.637500X0.100000X-0.637500X0.100000X-0.637500X-0.100000X0.637500X-0.100000X0*%
G04 APERTURE END LIST*
D10*
%TO.C,R2*%
X29500000Y-33810000D03*
X29500000Y-32790000D03*
%TD*%
%TO.C,R1*%
X19500000Y-42020000D03*
X19500000Y-41000000D03*
%TD*%
D11*
%TO.C,D3*%
X69750000Y-52680000D03*
X68175000Y-52680000D03*
%TD*%
%TO.C,D1*%
X69750000Y-47500000D03*
X68175000Y-47500000D03*
%TD*%
D12*
%TO.C,U5*%
X31637500Y-33925000D03*
X31637500Y-34575000D03*
X31637500Y-35225000D03*
X31637500Y-35875000D03*
X31637500Y-36525000D03*
X31637500Y-37175000D03*
X31637500Y-37825000D03*
X31637500Y-38475000D03*
X31637500Y-39125000D03*
X31637500Y-39775000D03*
X31637500Y-40425000D03*
X31637500Y-41075000D03*
X37362500Y-41075000D03*
X37362500Y-40425000D03*
X37362500Y-39775000D03*
X37362500Y-39125000D03*
X37362500Y-38475000D03*
X37362500Y-37825000D03*
X37362500Y-37175000D03*
X37362500Y-36525000D03*
X37362500Y-35875000D03*
X37362500Y-35225000D03*
X37362500Y-34575000D03*
X37362500Y-33925000D03*
%TD*%
D13*
%TO.C,R3*%
X71402500Y-47500000D03*
X72422500Y-47500000D03*
%TD*%
D14*
%TO.C,U2*%
X26150000Y-21850000D03*
X26150000Y-22500000D03*
X26150000Y-23150000D03*
X28050000Y-23150000D03*
X28050000Y-21850000D03*
%TD*%
D13*
%TO.C,R5*%
X71402500Y-52700000D03*
X72422500Y-52700000D03*
%TD*%
%TO.C,R4*%
X71402500Y-50100000D03*
X72422500Y-50100000D03*
%TD*%
D15*
%TO.C,C3*%
X61880000Y-35750000D03*
X60920000Y-35750000D03*
%TD*%
%TO.C,C5*%
X45680000Y-42150000D03*
X44720000Y-42150000D03*
%TD*%
D12*
%TO.C,U4*%
X55137500Y-36725000D03*
X55137500Y-37375000D03*
X55137500Y-38025000D03*
X55137500Y-38675000D03*
X55137500Y-39325000D03*
X55137500Y-39975000D03*
X55137500Y-40625000D03*
X55137500Y-41275000D03*
X60862500Y-41275000D03*
X60862500Y-40625000D03*
X60862500Y-39975000D03*
X60862500Y-39325000D03*
X60862500Y-38675000D03*
X60862500Y-38025000D03*
X60862500Y-37375000D03*
X60862500Y-36725000D03*
%TD*%
D11*
%TO.C,D2*%
X69750000Y-50090000D03*
X68175000Y-50090000D03*
%TD*%
D16*
%TO.C,C1*%
X24850000Y-21520000D03*
X24850000Y-22480000D03*
%TD*%
D17*
%TO.C,U6*%
X49862500Y-41075000D03*
X49862500Y-40425000D03*
X49862500Y-39775000D03*
X49862500Y-39125000D03*
X49862500Y-38475000D03*
X49862500Y-37825000D03*
X49862500Y-37175000D03*
X49862500Y-36525000D03*
X49862500Y-35875000D03*
X49862500Y-35225000D03*
X49862500Y-34575000D03*
X49862500Y-33925000D03*
X44137500Y-33925000D03*
X44137500Y-34575000D03*
X44137500Y-35225000D03*
X44137500Y-35875000D03*
X44137500Y-36525000D03*
X44137500Y-37175000D03*
X44137500Y-37825000D03*
X44137500Y-38475000D03*
X44137500Y-39125000D03*
X44137500Y-39775000D03*
X44137500Y-40425000D03*
X44137500Y-41075000D03*
%TD*%
D16*
%TO.C,C2*%
X29350000Y-21520000D03*
X29350000Y-22480000D03*
%TD*%
%TO.C,C4*%
X36600000Y-31870000D03*
X36600000Y-32830000D03*
%TD*%
M02*
