%TF.GenerationSoftware,KiCad,Pcbnew,7.0.1*%
%TF.CreationDate,2025-01-22T18:06:00-05:00*%
%TF.ProjectId,BusChain,42757343-6861-4696-9e2e-6b696361645f,rev?*%
%TF.SameCoordinates,Original*%
%TF.FileFunction,Copper,L1,Top*%
%TF.FilePolarity,Positive*%
%FSLAX46Y46*%
G04 Gerber Fmt 4.6, Leading zero omitted, Abs format (unit mm)*
G04 Created by KiCad (PCBNEW 7.0.1) date 2025-01-22 18:06:00*
%MOMM*%
%LPD*%
G01*
G04 APERTURE LIST*
G04 Aperture macros list*
%AMRoundRect*
0 Rectangle with rounded corners*
0 $1 Rounding radius*
0 $2 $3 $4 $5 $6 $7 $8 $9 X,Y pos of 4 corners*
0 Add a 4 corners polygon primitive as box body*
4,1,4,$2,$3,$4,$5,$6,$7,$8,$9,$2,$3,0*
0 Add four circle primitives for the rounded corners*
1,1,$1+$1,$2,$3*
1,1,$1+$1,$4,$5*
1,1,$1+$1,$6,$7*
1,1,$1+$1,$8,$9*
0 Add four rect primitives between the rounded corners*
20,1,$1+$1,$2,$3,$4,$5,0*
20,1,$1+$1,$4,$5,$6,$7,0*
20,1,$1+$1,$6,$7,$8,$9,0*
20,1,$1+$1,$8,$9,$2,$3,0*%
%AMFreePoly0*
4,1,19,0.500000,-0.750000,0.000000,-0.750000,0.000000,-0.744911,-0.071157,-0.744911,-0.207708,-0.704816,-0.327430,-0.627875,-0.420627,-0.520320,-0.479746,-0.390866,-0.500000,-0.250000,-0.500000,0.250000,-0.479746,0.390866,-0.420627,0.520320,-0.327430,0.627875,-0.207708,0.704816,-0.071157,0.744911,0.000000,0.744911,0.000000,0.750000,0.500000,0.750000,0.500000,-0.750000,0.500000,-0.750000,
$1*%
%AMFreePoly1*
4,1,19,0.000000,0.744911,0.071157,0.744911,0.207708,0.704816,0.327430,0.627875,0.420627,0.520320,0.479746,0.390866,0.500000,0.250000,0.500000,-0.250000,0.479746,-0.390866,0.420627,-0.520320,0.327430,-0.627875,0.207708,-0.704816,0.071157,-0.744911,0.000000,-0.744911,0.000000,-0.750000,-0.500000,-0.750000,-0.500000,0.750000,0.000000,0.750000,0.000000,0.744911,0.000000,0.744911,
$1*%
G04 Aperture macros list end*
%TA.AperFunction,SMDPad,CuDef*%
%ADD10RoundRect,0.100000X-0.637500X-0.100000X0.637500X-0.100000X0.637500X0.100000X-0.637500X0.100000X0*%
%TD*%
%TA.AperFunction,SMDPad,CuDef*%
%ADD11R,0.650000X0.400000*%
%TD*%
%TA.AperFunction,SMDPad,CuDef*%
%ADD12RoundRect,0.135000X-0.185000X0.135000X-0.185000X-0.135000X0.185000X-0.135000X0.185000X0.135000X0*%
%TD*%
%TA.AperFunction,SMDPad,CuDef*%
%ADD13RoundRect,0.135000X-0.135000X-0.185000X0.135000X-0.185000X0.135000X0.185000X-0.135000X0.185000X0*%
%TD*%
%TA.AperFunction,SMDPad,CuDef*%
%ADD14RoundRect,0.135000X0.185000X-0.135000X0.185000X0.135000X-0.185000X0.135000X-0.185000X-0.135000X0*%
%TD*%
%TA.AperFunction,SMDPad,CuDef*%
%ADD15FreePoly0,90.000000*%
%TD*%
%TA.AperFunction,SMDPad,CuDef*%
%ADD16FreePoly1,90.000000*%
%TD*%
%TA.AperFunction,ComponentPad*%
%ADD17R,1.700000X1.700000*%
%TD*%
%TA.AperFunction,ComponentPad*%
%ADD18O,1.700000X1.700000*%
%TD*%
%TA.AperFunction,SMDPad,CuDef*%
%ADD19RoundRect,0.218750X0.218750X0.256250X-0.218750X0.256250X-0.218750X-0.256250X0.218750X-0.256250X0*%
%TD*%
%TA.AperFunction,SMDPad,CuDef*%
%ADD20RoundRect,0.140000X0.140000X0.170000X-0.140000X0.170000X-0.140000X-0.170000X0.140000X-0.170000X0*%
%TD*%
%TA.AperFunction,SMDPad,CuDef*%
%ADD21RoundRect,0.140000X-0.170000X0.140000X-0.170000X-0.140000X0.170000X-0.140000X0.170000X0.140000X0*%
%TD*%
%TA.AperFunction,ViaPad*%
%ADD22C,0.800000*%
%TD*%
%TA.AperFunction,Conductor*%
%ADD23C,0.250000*%
%TD*%
G04 APERTURE END LIST*
D10*
%TO.P,U6,24,VCC*%
%TO.N,/VCC*%
X47012500Y-21925000D03*
%TO.P,U6,23,SDA*%
%TO.N,/SDA*%
X47012500Y-22575000D03*
%TO.P,U6,22,SCL*%
%TO.N,/SCL*%
X47012500Y-23225000D03*
%TO.P,U6,21,A2*%
%TO.N,Net-(JP1-B)*%
X47012500Y-23875000D03*
%TO.P,U6,20,SC7*%
%TO.N,/SC7*%
X47012500Y-24525000D03*
%TO.P,U6,19,SD7*%
%TO.N,/SD7*%
X47012500Y-25175000D03*
%TO.P,U6,18,SC6*%
%TO.N,/SC6*%
X47012500Y-25825000D03*
%TO.P,U6,17,SD6*%
%TO.N,/SD6*%
X47012500Y-26475000D03*
%TO.P,U6,16,SC5*%
%TO.N,/SC5*%
X47012500Y-27125000D03*
%TO.P,U6,15,SD5*%
%TO.N,/SD5*%
X47012500Y-27775000D03*
%TO.P,U6,14,SC4*%
%TO.N,/SC4*%
X47012500Y-28425000D03*
%TO.P,U6,13,SD4*%
%TO.N,/SD4*%
X47012500Y-29075000D03*
%TO.P,U6,12,GND*%
%TO.N,GND*%
X41287500Y-29075000D03*
%TO.P,U6,11,SC3*%
%TO.N,/SC3*%
X41287500Y-28425000D03*
%TO.P,U6,10,SD3*%
%TO.N,/SD3*%
X41287500Y-27775000D03*
%TO.P,U6,9,SC2*%
%TO.N,/SC2*%
X41287500Y-27125000D03*
%TO.P,U6,8,SD2*%
%TO.N,/SD2*%
X41287500Y-26475000D03*
%TO.P,U6,7,SC1*%
%TO.N,/SC1*%
X41287500Y-25825000D03*
%TO.P,U6,6,SD1*%
%TO.N,/SD1*%
X41287500Y-25175000D03*
%TO.P,U6,5,SC0*%
%TO.N,/SC0*%
X41287500Y-24525000D03*
%TO.P,U6,4,SD0*%
%TO.N,/SD0*%
X41287500Y-23875000D03*
%TO.P,U6,3,~{RESET}*%
%TO.N,/VCC*%
X41287500Y-23225000D03*
%TO.P,U6,2,A1*%
%TO.N,Net-(JP2-B)*%
X41287500Y-22575000D03*
%TO.P,U6,1,A0*%
%TO.N,Net-(JP3-B)*%
X41287500Y-21925000D03*
%TD*%
D11*
%TO.P,U2,5,VOUT*%
%TO.N,/VCC*%
X24220000Y-33000000D03*
%TO.P,U2,4,NC*%
%TO.N,unconnected-(U2-NC-Pad4)*%
X24220000Y-34300000D03*
%TO.P,U2,3,EN*%
%TO.N,/V?*%
X22320000Y-34300000D03*
%TO.P,U2,2,GND*%
%TO.N,GND*%
X22320000Y-33650000D03*
%TO.P,U2,1,VIN*%
%TO.N,/V?*%
X22320000Y-33000000D03*
%TD*%
D12*
%TO.P,R7,1*%
%TO.N,GND*%
X41650000Y-30240000D03*
%TO.P,R7,2*%
%TO.N,Net-(JP1-B)*%
X41650000Y-31260000D03*
%TD*%
%TO.P,R6,1*%
%TO.N,GND*%
X44150000Y-30250000D03*
%TO.P,R6,2*%
%TO.N,Net-(JP2-B)*%
X44150000Y-31270000D03*
%TD*%
%TO.P,R5,1*%
%TO.N,GND*%
X46650000Y-30250000D03*
%TO.P,R5,2*%
%TO.N,Net-(JP3-B)*%
X46650000Y-31270000D03*
%TD*%
D13*
%TO.P,R4,2*%
%TO.N,GND*%
X66530000Y-34400000D03*
%TO.P,R4,1*%
%TO.N,Net-(D2-K)*%
X65510000Y-34400000D03*
%TD*%
%TO.P,R3,2*%
%TO.N,GND*%
X66512500Y-32400000D03*
%TO.P,R3,1*%
%TO.N,Net-(D1-K)*%
X65492500Y-32400000D03*
%TD*%
D14*
%TO.P,R2,1*%
%TO.N,/VCC*%
X28020000Y-33670000D03*
%TO.P,R2,2*%
%TO.N,/SDA*%
X28020000Y-32650000D03*
%TD*%
%TO.P,R1,1*%
%TO.N,/VCC*%
X26770000Y-33670000D03*
%TO.P,R1,2*%
%TO.N,/SCL*%
X26770000Y-32650000D03*
%TD*%
D15*
%TO.P,JP3,1,A*%
%TO.N,/VCC*%
X46650000Y-34150000D03*
D16*
%TO.P,JP3,2,B*%
%TO.N,Net-(JP3-B)*%
X46650000Y-32850000D03*
%TD*%
D15*
%TO.P,JP2,1,A*%
%TO.N,/VCC*%
X44150000Y-34150000D03*
D16*
%TO.P,JP2,2,B*%
%TO.N,Net-(JP2-B)*%
X44150000Y-32850000D03*
%TD*%
D15*
%TO.P,JP1,1,A*%
%TO.N,/VCC*%
X41650000Y-34150000D03*
D16*
%TO.P,JP1,2,B*%
%TO.N,Net-(JP1-B)*%
X41650000Y-32850000D03*
%TD*%
D17*
%TO.P,J10,1,Pin_1*%
%TO.N,/VCC*%
X61525000Y-22150000D03*
D18*
%TO.P,J10,2,Pin_2*%
%TO.N,GND*%
X61525000Y-24690000D03*
%TO.P,J10,3,Pin_3*%
%TO.N,/SDA*%
X61525000Y-27230000D03*
%TO.P,J10,4,Pin_4*%
%TO.N,/SCL*%
X61525000Y-29770000D03*
%TD*%
%TO.P,J9,4,Pin_4*%
%TO.N,/SC7*%
X50030000Y-22150000D03*
%TO.P,J9,3,Pin_3*%
%TO.N,/SD7*%
X52570000Y-22150000D03*
%TO.P,J9,2,Pin_2*%
%TO.N,GND*%
X55110000Y-22150000D03*
D17*
%TO.P,J9,1,Pin_1*%
%TO.N,/VCC*%
X57650000Y-22150000D03*
%TD*%
D18*
%TO.P,J8,4,Pin_4*%
%TO.N,/SC6*%
X50030000Y-25900000D03*
%TO.P,J8,3,Pin_3*%
%TO.N,/SD6*%
X52570000Y-25900000D03*
%TO.P,J8,2,Pin_2*%
%TO.N,GND*%
X55110000Y-25900000D03*
D17*
%TO.P,J8,1,Pin_1*%
%TO.N,/VCC*%
X57650000Y-25900000D03*
%TD*%
D18*
%TO.P,J7,4,Pin_4*%
%TO.N,/SC5*%
X50030000Y-29650000D03*
%TO.P,J7,3,Pin_3*%
%TO.N,/SD5*%
X52570000Y-29650000D03*
%TO.P,J7,2,Pin_2*%
%TO.N,GND*%
X55110000Y-29650000D03*
D17*
%TO.P,J7,1,Pin_1*%
%TO.N,/VCC*%
X57650000Y-29650000D03*
%TD*%
D18*
%TO.P,J6,4,Pin_4*%
%TO.N,/SC4*%
X50030000Y-33400000D03*
%TO.P,J6,3,Pin_3*%
%TO.N,/SD4*%
X52570000Y-33400000D03*
%TO.P,J6,2,Pin_2*%
%TO.N,GND*%
X55110000Y-33400000D03*
D17*
%TO.P,J6,1,Pin_1*%
%TO.N,/VCC*%
X57650000Y-33400000D03*
%TD*%
%TO.P,J5,1,Pin_1*%
%TO.N,/VCC*%
X30650000Y-33400000D03*
D18*
%TO.P,J5,2,Pin_2*%
%TO.N,GND*%
X33190000Y-33400000D03*
%TO.P,J5,3,Pin_3*%
%TO.N,/SD3*%
X35730000Y-33400000D03*
%TO.P,J5,4,Pin_4*%
%TO.N,/SC3*%
X38270000Y-33400000D03*
%TD*%
D17*
%TO.P,J4,1,Pin_1*%
%TO.N,/VCC*%
X30650000Y-29650000D03*
D18*
%TO.P,J4,2,Pin_2*%
%TO.N,GND*%
X33190000Y-29650000D03*
%TO.P,J4,3,Pin_3*%
%TO.N,/SD2*%
X35730000Y-29650000D03*
%TO.P,J4,4,Pin_4*%
%TO.N,/SC2*%
X38270000Y-29650000D03*
%TD*%
D17*
%TO.P,J3,1,Pin_1*%
%TO.N,/VCC*%
X30650000Y-25900000D03*
D18*
%TO.P,J3,2,Pin_2*%
%TO.N,GND*%
X33190000Y-25900000D03*
%TO.P,J3,3,Pin_3*%
%TO.N,/SD1*%
X35730000Y-25900000D03*
%TO.P,J3,4,Pin_4*%
%TO.N,/SC1*%
X38270000Y-25900000D03*
%TD*%
%TO.P,J2,4,Pin_4*%
%TO.N,/SC0*%
X38270000Y-22150000D03*
%TO.P,J2,3,Pin_3*%
%TO.N,/SD0*%
X35730000Y-22150000D03*
%TO.P,J2,2,Pin_2*%
%TO.N,GND*%
X33190000Y-22150000D03*
D17*
%TO.P,J2,1,Pin_1*%
%TO.N,/VCC*%
X30650000Y-22150000D03*
%TD*%
%TO.P,J1,1,Pin_1*%
%TO.N,/V?*%
X26900000Y-22150000D03*
D18*
%TO.P,J1,2,Pin_2*%
%TO.N,GND*%
X26900000Y-24690000D03*
%TO.P,J1,3,Pin_3*%
%TO.N,/SDA*%
X26900000Y-27230000D03*
%TO.P,J1,4,Pin_4*%
%TO.N,/SCL*%
X26900000Y-29770000D03*
%TD*%
D19*
%TO.P,D2,2,A*%
%TO.N,/SCL*%
X62482500Y-34400000D03*
%TO.P,D2,1,K*%
%TO.N,Net-(D2-K)*%
X64057500Y-34400000D03*
%TD*%
%TO.P,D1,2,A*%
%TO.N,/VCC*%
X62482500Y-32400000D03*
%TO.P,D1,1,K*%
%TO.N,Net-(D1-K)*%
X64057500Y-32400000D03*
%TD*%
D20*
%TO.P,C5,2*%
%TO.N,/VCC*%
X46040000Y-20650000D03*
%TO.P,C5,1*%
%TO.N,GND*%
X47000000Y-20650000D03*
%TD*%
D21*
%TO.P,C2,2*%
%TO.N,GND*%
X25520000Y-33630000D03*
%TO.P,C2,1*%
%TO.N,/VCC*%
X25520000Y-32670000D03*
%TD*%
%TO.P,C1,2*%
%TO.N,GND*%
X21020000Y-33650000D03*
%TO.P,C1,1*%
%TO.N,/V?*%
X21020000Y-32690000D03*
%TD*%
D22*
%TO.N,GND*%
X45602300Y-29197700D03*
X44977701Y-30622299D03*
X42525500Y-29015497D03*
X40949500Y-30601788D03*
X67250000Y-34500000D03*
X67250000Y-32250000D03*
X47750000Y-20750000D03*
X25500000Y-34500000D03*
X21000000Y-34500000D03*
%TO.N,/SCL*%
X44770783Y-23923815D03*
%TO.N,/SDA*%
X45520000Y-22150000D03*
%TO.N,Net-(JP1-B)*%
X45770000Y-23900000D03*
X42762701Y-30907299D03*
%TD*%
D23*
%TO.N,GND*%
X46650000Y-30245400D02*
X45602300Y-29197700D01*
X46650000Y-30250000D02*
X46650000Y-30245400D01*
X44605402Y-30250000D02*
X44977701Y-30622299D01*
X44150000Y-30250000D02*
X44605402Y-30250000D01*
X42465997Y-29075000D02*
X42525500Y-29015497D01*
X41287500Y-29075000D02*
X42465997Y-29075000D01*
%TO.N,Net-(JP2-B)*%
X41976041Y-22575000D02*
X41287500Y-22575000D01*
X43250000Y-28506396D02*
X42350000Y-27606396D01*
X42350000Y-22948959D02*
X41976041Y-22575000D01*
X43250000Y-30370000D02*
X43250000Y-28506396D01*
X42350000Y-27606396D02*
X42350000Y-22948959D01*
X44150000Y-31270000D02*
X43250000Y-30370000D01*
%TO.N,GND*%
X41311288Y-30240000D02*
X40949500Y-30601788D01*
X41650000Y-30240000D02*
X41311288Y-30240000D01*
X67150000Y-34400000D02*
X67250000Y-34500000D01*
X66530000Y-34400000D02*
X67150000Y-34400000D01*
X67100000Y-32400000D02*
X67250000Y-32250000D01*
X66512500Y-32400000D02*
X67100000Y-32400000D01*
X47650000Y-20650000D02*
X47750000Y-20750000D01*
X47000000Y-20650000D02*
X47650000Y-20650000D01*
X25520000Y-34480000D02*
X25500000Y-34500000D01*
X25520000Y-33630000D02*
X25520000Y-34480000D01*
X21020000Y-34480000D02*
X21000000Y-34500000D01*
X21020000Y-33650000D02*
X21020000Y-34480000D01*
X22320000Y-33650000D02*
X21020000Y-33650000D01*
%TO.N,/SCL*%
X61525000Y-33442500D02*
X62482500Y-34400000D01*
X61525000Y-29770000D02*
X61525000Y-33442500D01*
%TO.N,/VCC*%
X62770000Y-32112500D02*
X62482500Y-32400000D01*
X62770000Y-29353299D02*
X62770000Y-32112500D01*
X62011701Y-28595000D02*
X62770000Y-29353299D01*
X58705000Y-28595000D02*
X62011701Y-28595000D01*
X57650000Y-29650000D02*
X58705000Y-28595000D01*
X46040000Y-20952500D02*
X46040000Y-20650000D01*
X47012500Y-21925000D02*
X46040000Y-20952500D01*
X46512500Y-21425000D02*
X47012500Y-21925000D01*
X44645000Y-20525000D02*
X45545000Y-21425000D01*
X45545000Y-21425000D02*
X46512500Y-21425000D01*
X32275000Y-20525000D02*
X44645000Y-20525000D01*
X30650000Y-22150000D02*
X32275000Y-20525000D01*
X40170000Y-21751903D02*
X38943097Y-20525000D01*
X40170000Y-22800000D02*
X40170000Y-21751903D01*
X40595000Y-23225000D02*
X40170000Y-22800000D01*
X38943097Y-20525000D02*
X32275000Y-20525000D01*
X41287500Y-23225000D02*
X40595000Y-23225000D01*
%TO.N,/SD0*%
X41162500Y-23750000D02*
X41287500Y-23875000D01*
X39720000Y-22850000D02*
X39720000Y-23100000D01*
X38756701Y-20975000D02*
X39445000Y-21663299D01*
X39445000Y-22575000D02*
X39720000Y-22850000D01*
X40370000Y-23750000D02*
X41162500Y-23750000D01*
X39445000Y-21663299D02*
X39445000Y-22575000D01*
X36905000Y-20975000D02*
X38756701Y-20975000D01*
X35730000Y-22150000D02*
X36905000Y-20975000D01*
X39720000Y-23100000D02*
X40370000Y-23750000D01*
%TO.N,Net-(D2-K)*%
X64057500Y-34400000D02*
X65510000Y-34400000D01*
%TO.N,Net-(D1-K)*%
X64057500Y-32400000D02*
X65492500Y-32400000D01*
%TO.N,/VCC*%
X57650000Y-22150000D02*
X61525000Y-22150000D01*
%TO.N,/SCL*%
X45544695Y-23100000D02*
X46887500Y-23100000D01*
X44770783Y-23873912D02*
X45544695Y-23100000D01*
X46887500Y-23100000D02*
X47012500Y-23225000D01*
X44770783Y-23923815D02*
X44770783Y-23873912D01*
%TO.N,/SDA*%
X45945000Y-22575000D02*
X47012500Y-22575000D01*
X45520000Y-22150000D02*
X45945000Y-22575000D01*
%TO.N,Net-(JP1-B)*%
X46987500Y-23900000D02*
X47012500Y-23875000D01*
X42410000Y-31260000D02*
X42762701Y-30907299D01*
X41650000Y-31260000D02*
X42410000Y-31260000D01*
X45770000Y-23900000D02*
X46987500Y-23900000D01*
%TO.N,Net-(JP3-B)*%
X41976041Y-21925000D02*
X41287500Y-21925000D01*
X42800000Y-22748959D02*
X41976041Y-21925000D01*
X42800000Y-27420000D02*
X42800000Y-22748959D01*
X46650000Y-31270000D02*
X42800000Y-27420000D01*
%TO.N,/SDA*%
X28075000Y-28405000D02*
X26900000Y-27230000D01*
X28020000Y-32650000D02*
X28075000Y-32595000D01*
X28075000Y-32595000D02*
X28075000Y-28405000D01*
%TO.N,/SCL*%
X26900000Y-32520000D02*
X26900000Y-29770000D01*
X26770000Y-32650000D02*
X26900000Y-32520000D01*
%TO.N,/VCC*%
X57650000Y-25900000D02*
X57650000Y-22150000D01*
X57650000Y-29650000D02*
X57650000Y-25900000D01*
X57650000Y-33400000D02*
X57650000Y-29650000D01*
X56025000Y-35025000D02*
X57650000Y-33400000D01*
X47525000Y-35025000D02*
X56025000Y-35025000D01*
X46650000Y-34150000D02*
X47525000Y-35025000D01*
X44150000Y-34150000D02*
X46650000Y-34150000D01*
X41650000Y-34150000D02*
X44150000Y-34150000D01*
X31825000Y-34575000D02*
X41225000Y-34575000D01*
X30650000Y-33400000D02*
X31825000Y-34575000D01*
X41225000Y-34575000D02*
X41650000Y-34150000D01*
X30650000Y-25900000D02*
X30650000Y-22150000D01*
X30650000Y-29650000D02*
X30650000Y-25900000D01*
X30650000Y-33400000D02*
X30650000Y-29650000D01*
X28290000Y-33400000D02*
X30650000Y-33400000D01*
X28020000Y-33670000D02*
X28290000Y-33400000D01*
X26770000Y-33670000D02*
X28020000Y-33670000D01*
X25770000Y-32670000D02*
X26770000Y-33670000D01*
X25520000Y-32670000D02*
X25770000Y-32670000D01*
X25190000Y-33000000D02*
X25520000Y-32670000D01*
X24220000Y-33000000D02*
X25190000Y-33000000D01*
%TO.N,/V?*%
X22970000Y-33075000D02*
X22970000Y-34225000D01*
X22970000Y-34225000D02*
X22895000Y-34300000D01*
X22320000Y-33000000D02*
X22895000Y-33000000D01*
X22895000Y-33000000D02*
X22970000Y-33075000D01*
X22895000Y-34300000D02*
X22320000Y-34300000D01*
X22010000Y-32690000D02*
X22320000Y-33000000D01*
X21020000Y-32690000D02*
X22010000Y-32690000D01*
X21020000Y-28030000D02*
X21020000Y-32690000D01*
X26900000Y-22150000D02*
X21020000Y-28030000D01*
%TO.N,Net-(JP3-B)*%
X46650000Y-32850000D02*
X46650000Y-31270000D01*
%TO.N,Net-(JP2-B)*%
X44150000Y-32850000D02*
X44150000Y-31270000D01*
%TO.N,Net-(JP1-B)*%
X41650000Y-32850000D02*
X41650000Y-31260000D01*
%TO.N,/SC7*%
X50030000Y-23352081D02*
X50030000Y-22150000D01*
X48857081Y-24525000D02*
X50030000Y-23352081D01*
X47012500Y-24525000D02*
X48857081Y-24525000D01*
%TO.N,/SD7*%
X52118299Y-22150000D02*
X52570000Y-22150000D01*
X47012500Y-25175000D02*
X49093299Y-25175000D01*
X49093299Y-25175000D02*
X52118299Y-22150000D01*
%TO.N,/SC6*%
X47087500Y-25900000D02*
X50030000Y-25900000D01*
X47012500Y-25825000D02*
X47087500Y-25900000D01*
%TO.N,/SD6*%
X49618299Y-27150000D02*
X51320000Y-27150000D01*
X48943299Y-26475000D02*
X49618299Y-27150000D01*
X47012500Y-26475000D02*
X48943299Y-26475000D01*
X51320000Y-27150000D02*
X52570000Y-25900000D01*
%TO.N,/SC5*%
X50030000Y-28447919D02*
X50030000Y-29650000D01*
X48707081Y-27125000D02*
X50030000Y-28447919D01*
X47012500Y-27125000D02*
X48707081Y-27125000D01*
%TO.N,/SD5*%
X51395000Y-30825000D02*
X52570000Y-29650000D01*
X49543299Y-30825000D02*
X51395000Y-30825000D01*
X48855000Y-28928959D02*
X48855000Y-30136701D01*
X48855000Y-30136701D02*
X49543299Y-30825000D01*
X47012500Y-27775000D02*
X47701041Y-27775000D01*
X47701041Y-27775000D02*
X48855000Y-28928959D01*
%TO.N,/SC4*%
X48020000Y-31390000D02*
X50030000Y-33400000D01*
X48020000Y-29432500D02*
X48020000Y-31390000D01*
X47701041Y-28425000D02*
X48075000Y-28798959D01*
X48075000Y-29377500D02*
X48020000Y-29432500D01*
X47012500Y-28425000D02*
X47701041Y-28425000D01*
X48075000Y-28798959D02*
X48075000Y-29377500D01*
%TO.N,/SD4*%
X51395000Y-34575000D02*
X52570000Y-33400000D01*
X48855000Y-33886701D02*
X49543299Y-34575000D01*
X48855000Y-33485000D02*
X48855000Y-33886701D01*
X49543299Y-34575000D02*
X51395000Y-34575000D01*
X47295000Y-31925000D02*
X48855000Y-33485000D01*
X47295000Y-29357500D02*
X47295000Y-31925000D01*
X47012500Y-29075000D02*
X47295000Y-29357500D01*
%TO.N,/SC0*%
X39270000Y-23900000D02*
X39645000Y-24275000D01*
X39270000Y-23196041D02*
X39270000Y-23900000D01*
X38270000Y-22196041D02*
X39270000Y-23196041D01*
X40335355Y-24275000D02*
X40585355Y-24525000D01*
X38270000Y-22150000D02*
X38270000Y-22196041D01*
X39645000Y-24275000D02*
X40335355Y-24275000D01*
X40585355Y-24525000D02*
X41287500Y-24525000D01*
%TO.N,/SD1*%
X40598959Y-25175000D02*
X41287500Y-25175000D01*
X40148959Y-24725000D02*
X40598959Y-25175000D01*
X36905000Y-24725000D02*
X40148959Y-24725000D01*
X35730000Y-25900000D02*
X36905000Y-24725000D01*
%TO.N,/SC1*%
X41212500Y-25900000D02*
X41287500Y-25825000D01*
X38270000Y-25900000D02*
X41212500Y-25900000D01*
%TO.N,/SD2*%
X39606523Y-26475000D02*
X41287500Y-26475000D01*
X36431523Y-29650000D02*
X39606523Y-26475000D01*
X35730000Y-29650000D02*
X36431523Y-29650000D01*
%TO.N,/SC2*%
X39592919Y-27125000D02*
X41287500Y-27125000D01*
X38270000Y-28447919D02*
X39592919Y-27125000D01*
X38270000Y-29650000D02*
X38270000Y-28447919D01*
%TO.N,/SD3*%
X40598959Y-27775000D02*
X41287500Y-27775000D01*
X39775000Y-28598959D02*
X40598959Y-27775000D01*
X39775000Y-29806701D02*
X39775000Y-28598959D01*
X36181701Y-33400000D02*
X39775000Y-29806701D01*
X35730000Y-33400000D02*
X36181701Y-33400000D01*
%TO.N,/SC3*%
X40598959Y-28425000D02*
X41287500Y-28425000D01*
X40225000Y-28798959D02*
X40598959Y-28425000D01*
X40225000Y-31445000D02*
X40225000Y-28798959D01*
X38270000Y-33400000D02*
X40225000Y-31445000D01*
%TD*%
M02*
