M48
; DRILL file {KiCad 7.0.1} date Sat Oct 26 16:26:54 2024
; FORMAT={-:-/ absolute / inch / decimal}
; #@! TF.CreationDate,2024-10-26T16:26:54-04:00
; #@! TF.GenerationSoftware,Kicad,Pcbnew,7.0.1
; #@! TF.FileFunction,Plated,1,2,PTH
FMAT,2
INCH
; #@! TA.AperFunction,Plated,PTH,ViaDrill
T1C0.0157
; #@! TA.AperFunction,Plated,PTH,ComponentDrill
T2C0.0394
%
G90
G05
T1
X0.9783Y-0.9154
X1.1555Y-0.9154
X1.193Y-1.3305
X1.2891Y-1.3197
X1.2913Y-1.6161
X1.2982Y-1.407
X1.2992Y-1.3612
X1.4094Y-1.2579
X1.517Y-1.4086
X1.6931Y-1.5937
X1.815Y-1.687
X1.9646Y-1.2579
X2.0748Y-1.627
X2.1181Y-1.6358
X2.126Y-1.4469
X2.126Y-1.4961
X2.1752Y-1.3976
X2.3415Y-1.4429
X2.346Y-1.5073
X2.4488Y-1.5217
X2.4646Y-1.4035
X2.4921Y-1.9724
X2.6476Y-2.0768
X2.8839Y-1.8701
X2.8839Y-1.9685
X2.8839Y-2.0768
T2
X0.7677Y-0.8661
X0.7677Y-0.9661
X0.7677Y-1.0661
X0.7677Y-1.1661
X0.7677Y-1.2661
X0.7677Y-1.3661
X0.7677Y-1.4661
X0.8661Y-1.7913
X0.8661Y-1.8913
X0.8661Y-1.9913
X0.8661Y-2.0913
X1.0138Y-1.7913
X1.0138Y-1.8913
X1.0138Y-1.9913
X1.0138Y-2.0913
X1.1614Y-1.7913
X1.1614Y-1.8913
X1.1614Y-1.9913
X1.1614Y-2.0913
X1.3091Y-1.7913
X1.3091Y-1.8913
X1.3091Y-1.9913
X1.3091Y-2.0913
X1.3386Y-0.8661
X1.3386Y-0.9661
X1.3386Y-1.0661
X1.3386Y-1.1661
X1.4567Y-1.7913
X1.4567Y-1.8913
X1.4567Y-1.9913
X1.4567Y-2.0913
X1.4862Y-0.8661
X1.4862Y-0.9661
X1.4862Y-1.0661
X1.4862Y-1.1661
X1.6043Y-1.7913
X1.6043Y-1.8913
X1.6043Y-1.9913
X1.6043Y-2.0913
X1.6339Y-0.8661
X1.6339Y-0.9661
X1.6339Y-1.0661
X1.6339Y-1.1661
X1.752Y-1.7913
X1.752Y-1.8913
X1.752Y-1.9913
X1.752Y-2.0913
X1.7815Y-0.8661
X1.7815Y-0.9661
X1.7815Y-1.0661
X1.7815Y-1.1661
X1.8996Y-1.7913
X1.8996Y-1.8913
X1.8996Y-1.9913
X1.8996Y-2.0913
X1.9291Y-0.8661
X1.9291Y-0.9661
X1.9291Y-1.0661
X1.9291Y-1.1661
X2.0768Y-0.8661
X2.0768Y-0.9661
X2.0768Y-1.0661
X2.0768Y-1.1661
X2.2244Y-0.8661
X2.2244Y-0.9661
X2.2244Y-1.0661
X2.2244Y-1.1661
X2.372Y-0.8661
X2.372Y-0.9661
X2.372Y-1.0661
X2.372Y-1.1661
X2.7756Y-0.8661
X2.7756Y-0.9661
X2.7756Y-1.0661
X2.7756Y-1.1661
X2.7756Y-1.2661
X2.7756Y-1.3661
X2.7756Y-1.4661
T0
M30
