%TF.GenerationSoftware,KiCad,Pcbnew,7.0.1*%
%TF.CreationDate,2024-10-26T16:26:52-04:00*%
%TF.ProjectId,BusChain,42757343-6861-4696-9e2e-6b696361645f,rev?*%
%TF.SameCoordinates,Original*%
%TF.FileFunction,Copper,L2,Bot*%
%TF.FilePolarity,Positive*%
%FSLAX46Y46*%
G04 Gerber Fmt 4.6, Leading zero omitted, Abs format (unit mm)*
G04 Created by KiCad (PCBNEW 7.0.1) date 2024-10-26 16:26:52*
%MOMM*%
%LPD*%
G01*
G04 APERTURE LIST*
%TA.AperFunction,ComponentPad*%
%ADD10R,1.700000X1.700000*%
%TD*%
%TA.AperFunction,ComponentPad*%
%ADD11O,1.700000X1.700000*%
%TD*%
%TA.AperFunction,ViaPad*%
%ADD12C,0.800000*%
%TD*%
%TA.AperFunction,Conductor*%
%ADD13C,0.250000*%
%TD*%
G04 APERTURE END LIST*
D10*
%TO.P,J4,1,Pin_1*%
%TO.N,/VCC*%
X52750000Y-22000000D03*
D11*
%TO.P,J4,2,Pin_2*%
%TO.N,GND*%
X52750000Y-24540000D03*
%TO.P,J4,3,Pin_3*%
%TO.N,/SD2A*%
X52750000Y-27080000D03*
%TO.P,J4,4,Pin_4*%
%TO.N,/SC2A*%
X52750000Y-29620000D03*
%TD*%
D10*
%TO.P,J15,1,Pin_1*%
%TO.N,/VCC*%
X40750000Y-53120000D03*
D11*
%TO.P,J15,2,Pin_2*%
%TO.N,GND*%
X40750000Y-50580000D03*
%TO.P,J15,3,Pin_3*%
%TO.N,/SD5B*%
X40750000Y-48040000D03*
%TO.P,J15,4,Pin_4*%
%TO.N,/SC5B*%
X40750000Y-45500000D03*
%TD*%
D10*
%TO.P,J8,1,Pin_1*%
%TO.N,/VCC*%
X37750000Y-22000000D03*
D11*
%TO.P,J8,2,Pin_2*%
%TO.N,GND*%
X37750000Y-24540000D03*
%TO.P,J8,3,Pin_3*%
%TO.N,/SD6A*%
X37750000Y-27080000D03*
%TO.P,J8,4,Pin_4*%
%TO.N,/SC6A*%
X37750000Y-29620000D03*
%TD*%
D10*
%TO.P,J11,1,Pin_1*%
%TO.N,/VCC*%
X25750000Y-53120000D03*
D11*
%TO.P,J11,2,Pin_2*%
%TO.N,GND*%
X25750000Y-50580000D03*
%TO.P,J11,3,Pin_3*%
%TO.N,/SD1B*%
X25750000Y-48040000D03*
%TO.P,J11,4,Pin_4*%
%TO.N,/SC1B*%
X25750000Y-45500000D03*
%TD*%
D10*
%TO.P,J5,1,Pin_1*%
%TO.N,/VCC*%
X49000000Y-22000000D03*
D11*
%TO.P,J5,2,Pin_2*%
%TO.N,GND*%
X49000000Y-24540000D03*
%TO.P,J5,3,Pin_3*%
%TO.N,/SD3A*%
X49000000Y-27080000D03*
%TO.P,J5,4,Pin_4*%
%TO.N,/SC3A*%
X49000000Y-29620000D03*
%TD*%
D10*
%TO.P,J2,1,Pin_1*%
%TO.N,/VCC*%
X60250000Y-22000000D03*
D11*
%TO.P,J2,2,Pin_2*%
%TO.N,GND*%
X60250000Y-24540000D03*
%TO.P,J2,3,Pin_3*%
%TO.N,/SD0A*%
X60250000Y-27080000D03*
%TO.P,J2,4,Pin_4*%
%TO.N,/SC0A*%
X60250000Y-29620000D03*
%TD*%
D10*
%TO.P,J7,1,Pin_1*%
%TO.N,/VCC*%
X41500000Y-22000000D03*
D11*
%TO.P,J7,2,Pin_2*%
%TO.N,GND*%
X41500000Y-24540000D03*
%TO.P,J7,3,Pin_3*%
%TO.N,/SD5A*%
X41500000Y-27080000D03*
%TO.P,J7,4,Pin_4*%
%TO.N,/SC5A*%
X41500000Y-29620000D03*
%TD*%
D10*
%TO.P,J14,1,Pin_1*%
%TO.N,/VCC*%
X37000000Y-53120000D03*
D11*
%TO.P,J14,2,Pin_2*%
%TO.N,GND*%
X37000000Y-50580000D03*
%TO.P,J14,3,Pin_3*%
%TO.N,/SD4B*%
X37000000Y-48040000D03*
%TO.P,J14,4,Pin_4*%
%TO.N,/SC4B*%
X37000000Y-45500000D03*
%TD*%
D10*
%TO.P,J16,1,Pin_1*%
%TO.N,/VCC*%
X44500000Y-53120000D03*
D11*
%TO.P,J16,2,Pin_2*%
%TO.N,GND*%
X44500000Y-50580000D03*
%TO.P,J16,3,Pin_3*%
%TO.N,/SD6B*%
X44500000Y-48040000D03*
%TO.P,J16,4,Pin_4*%
%TO.N,/SC6B*%
X44500000Y-45500000D03*
%TD*%
D10*
%TO.P,J13,1,Pin_1*%
%TO.N,/VCC*%
X33250000Y-53120000D03*
D11*
%TO.P,J13,2,Pin_2*%
%TO.N,GND*%
X33250000Y-50580000D03*
%TO.P,J13,3,Pin_3*%
%TO.N,/SD3B*%
X33250000Y-48040000D03*
%TO.P,J13,4,Pin_4*%
%TO.N,/SC3B*%
X33250000Y-45500000D03*
%TD*%
D10*
%TO.P,J10,1,Pin_1*%
%TO.N,/VCC*%
X22000000Y-53120000D03*
D11*
%TO.P,J10,2,Pin_2*%
%TO.N,GND*%
X22000000Y-50580000D03*
%TO.P,J10,3,Pin_3*%
%TO.N,/SD0B*%
X22000000Y-48040000D03*
%TO.P,J10,4,Pin_4*%
%TO.N,/SC0B*%
X22000000Y-45500000D03*
%TD*%
D10*
%TO.P,J12,1,Pin_1*%
%TO.N,/VCC*%
X29500000Y-53120000D03*
D11*
%TO.P,J12,2,Pin_2*%
%TO.N,GND*%
X29500000Y-50580000D03*
%TO.P,J12,3,Pin_3*%
%TO.N,/SD2B*%
X29500000Y-48040000D03*
%TO.P,J12,4,Pin_4*%
%TO.N,/SC2B*%
X29500000Y-45500000D03*
%TD*%
D10*
%TO.P,J3,1,Pin_1*%
%TO.N,/VCC*%
X56500000Y-22000000D03*
D11*
%TO.P,J3,2,Pin_2*%
%TO.N,GND*%
X56500000Y-24540000D03*
%TO.P,J3,3,Pin_3*%
%TO.N,/SD1A*%
X56500000Y-27080000D03*
%TO.P,J3,4,Pin_4*%
%TO.N,/SC1A*%
X56500000Y-29620000D03*
%TD*%
D10*
%TO.P,J6,1,Pin_1*%
%TO.N,/VCC*%
X45250000Y-22000000D03*
D11*
%TO.P,J6,2,Pin_2*%
%TO.N,GND*%
X45250000Y-24540000D03*
%TO.P,J6,3,Pin_3*%
%TO.N,/SD4A*%
X45250000Y-27080000D03*
%TO.P,J6,4,Pin_4*%
%TO.N,/SC4A*%
X45250000Y-29620000D03*
%TD*%
D10*
%TO.P,J17,1,Pin_1*%
%TO.N,/VCC*%
X48250000Y-53120000D03*
D11*
%TO.P,J17,2,Pin_2*%
%TO.N,GND*%
X48250000Y-50580000D03*
%TO.P,J17,3,Pin_3*%
%TO.N,/SD7B*%
X48250000Y-48040000D03*
%TO.P,J17,4,Pin_4*%
%TO.N,/SC7B*%
X48250000Y-45500000D03*
%TD*%
D10*
%TO.P,J1,1,Pin_1*%
%TO.N,/V?*%
X19500000Y-22000000D03*
D11*
%TO.P,J1,2,Pin_2*%
%TO.N,GND*%
X19500000Y-24540000D03*
%TO.P,J1,3,Pin_3*%
%TO.N,/CLK*%
X19500000Y-27080000D03*
%TO.P,J1,4,Pin_4*%
%TO.N,/RCLK*%
X19500000Y-29620000D03*
%TO.P,J1,5,Pin_5*%
%TO.N,/SIN*%
X19500000Y-32160000D03*
%TO.P,J1,6,Pin_6*%
%TO.N,/SCL*%
X19500000Y-34700000D03*
%TO.P,J1,7,Pin_7*%
%TO.N,/SDA*%
X19500000Y-37240000D03*
%TD*%
D10*
%TO.P,J18,1,Pin_1*%
%TO.N,/VCC*%
X70500000Y-22000000D03*
D11*
%TO.P,J18,2,Pin_2*%
%TO.N,GND*%
X70500000Y-24540000D03*
%TO.P,J18,3,Pin_3*%
%TO.N,/CLK*%
X70500000Y-27080000D03*
%TO.P,J18,4,Pin_4*%
%TO.N,/RCLK*%
X70500000Y-29620000D03*
%TO.P,J18,5,Pin_5*%
%TO.N,/SOUT*%
X70500000Y-32160000D03*
%TO.P,J18,6,Pin_6*%
%TO.N,/SCL*%
X70500000Y-34700000D03*
%TO.P,J18,7,Pin_7*%
%TO.N,/SDA*%
X70500000Y-37240000D03*
%TD*%
D10*
%TO.P,J9,1,Pin_1*%
%TO.N,/VCC*%
X34000000Y-22000000D03*
D11*
%TO.P,J9,2,Pin_2*%
%TO.N,GND*%
X34000000Y-24540000D03*
%TO.P,J9,3,Pin_3*%
%TO.N,/SD7A*%
X34000000Y-27080000D03*
%TO.P,J9,4,Pin_4*%
%TO.N,/SC7A*%
X34000000Y-29620000D03*
%TD*%
D12*
%TO.N,GND*%
X62200000Y-38650000D03*
X32800000Y-41050000D03*
X24850000Y-23250000D03*
X46100000Y-42850000D03*
X49900000Y-31950000D03*
X62600000Y-35650000D03*
X35800000Y-31950000D03*
X29350000Y-23250000D03*
X73250000Y-50000000D03*
X73250000Y-47500000D03*
X53800000Y-41550000D03*
X73250000Y-52750000D03*
%TO.N,/SIN*%
X59588768Y-38284294D03*
%TO.N,Net-(U4-QB)*%
X33000000Y-34575000D03*
X54000000Y-36750000D03*
%TO.N,/VCC*%
X30301106Y-33795879D03*
%TO.N,/SDA*%
X43005178Y-40480579D03*
%TO.N,/ENA*%
X63300000Y-50100000D03*
X52700000Y-41325500D03*
%TO.N,/ENB*%
X67250000Y-52750000D03*
X32973534Y-35738235D03*
X54000000Y-38000000D03*
%TO.N,Net-(U4-QC)*%
X55250000Y-35500000D03*
X32744147Y-33520445D03*
%TO.N,Net-(U4-QA)*%
X38532977Y-35778030D03*
X59474000Y-36650000D03*
%TD*%
D13*
%TO.N,/SIN*%
X59148062Y-38725000D02*
X59588768Y-38284294D01*
X19500000Y-32160000D02*
X25571701Y-32160000D01*
X25571701Y-32160000D02*
X32136701Y-38725000D01*
X32136701Y-38725000D02*
X59148062Y-38725000D01*
%TO.N,Net-(U4-QB)*%
X35707388Y-36750000D02*
X54000000Y-36750000D01*
X33532388Y-34575000D02*
X35707388Y-36750000D01*
X33000000Y-34575000D02*
X33532388Y-34575000D01*
%TO.N,/VCC*%
X30301106Y-25698894D02*
X30301106Y-33795879D01*
X19198299Y-30800000D02*
X21800000Y-30800000D01*
X18325000Y-49445000D02*
X18325000Y-31673299D01*
X21800000Y-30800000D02*
X28625000Y-23975000D01*
X22000000Y-53120000D02*
X18325000Y-49445000D01*
X34000000Y-22000000D02*
X30301106Y-25698894D01*
X32025000Y-23975000D02*
X34000000Y-22000000D01*
X28625000Y-23975000D02*
X32025000Y-23975000D01*
X18325000Y-31673299D02*
X19198299Y-30800000D01*
%TO.N,/SDA*%
X43005178Y-40480579D02*
X33255884Y-40480579D01*
X30015305Y-37240000D02*
X19500000Y-37240000D01*
X33255884Y-40480579D02*
X30015305Y-37240000D01*
%TO.N,/ENA*%
X52700000Y-41475305D02*
X52700000Y-41325500D01*
X61324695Y-50100000D02*
X52700000Y-41475305D01*
X63300000Y-50100000D02*
X61324695Y-50100000D01*
%TO.N,/ENB*%
X32973534Y-35738235D02*
X33438735Y-35738235D01*
X67250000Y-52750000D02*
X60313768Y-45813768D01*
X33438735Y-35738235D02*
X35700500Y-38000000D01*
X60313768Y-45813768D02*
X60313768Y-37983989D01*
X35700500Y-38000000D02*
X54000000Y-38000000D01*
X59889073Y-37559294D02*
X54440706Y-37559294D01*
X60313768Y-37983989D02*
X59889073Y-37559294D01*
X54440706Y-37559294D02*
X54000000Y-38000000D01*
%TO.N,Net-(U4-QC)*%
X54324500Y-35500000D02*
X52344945Y-33520445D01*
X55250000Y-35500000D02*
X54324500Y-35500000D01*
X52344945Y-33520445D02*
X32744147Y-33520445D01*
%TO.N,Net-(U4-QA)*%
X55674695Y-36950000D02*
X54674695Y-35950000D01*
X54674695Y-35950000D02*
X38704947Y-35950000D01*
X59474000Y-36650000D02*
X59174000Y-36950000D01*
X59174000Y-36950000D02*
X55674695Y-36950000D01*
X38704947Y-35950000D02*
X38532977Y-35778030D01*
%TD*%
%TA.AperFunction,Conductor*%
%TO.N,GND*%
G36*
X74937500Y-20017113D02*
G01*
X74982887Y-20062500D01*
X74999500Y-20124500D01*
X74999500Y-54875500D01*
X74982887Y-54937500D01*
X74937500Y-54982887D01*
X74875500Y-54999500D01*
X15124500Y-54999500D01*
X15062500Y-54982887D01*
X15017113Y-54937500D01*
X15000500Y-54875500D01*
X15000500Y-49429268D01*
X17944633Y-49429268D01*
X17947155Y-49449500D01*
X17948548Y-49460677D01*
X17949500Y-49476014D01*
X17949500Y-49476116D01*
X17952918Y-49496602D01*
X17953657Y-49501670D01*
X17961107Y-49561438D01*
X17961185Y-49561682D01*
X17989827Y-49614608D01*
X17992171Y-49619162D01*
X18018634Y-49673292D01*
X18018777Y-49673482D01*
X18024579Y-49678824D01*
X18024581Y-49678826D01*
X18063108Y-49714293D01*
X18066780Y-49717817D01*
X20863181Y-52514219D01*
X20890061Y-52554447D01*
X20899500Y-52601900D01*
X20899500Y-53994675D01*
X20914033Y-54067738D01*
X20914033Y-54067739D01*
X20914034Y-54067740D01*
X20969399Y-54150601D01*
X21052260Y-54205966D01*
X21088792Y-54213232D01*
X21125325Y-54220500D01*
X21125326Y-54220500D01*
X22874674Y-54220500D01*
X22874675Y-54220500D01*
X22899029Y-54215655D01*
X22947740Y-54205966D01*
X23030601Y-54150601D01*
X23085966Y-54067740D01*
X23100500Y-53994674D01*
X23100500Y-52245326D01*
X23085966Y-52172260D01*
X23030601Y-52089399D01*
X22947740Y-52034034D01*
X22947739Y-52034033D01*
X22947738Y-52034033D01*
X22874675Y-52019500D01*
X22874674Y-52019500D01*
X22666682Y-52019500D01*
X22602817Y-52001789D01*
X22557197Y-51953715D01*
X22542852Y-51889010D01*
X22563881Y-51826160D01*
X22614277Y-51783118D01*
X22677576Y-51753600D01*
X22871081Y-51618106D01*
X23038106Y-51451081D01*
X23173600Y-51257576D01*
X23273430Y-51043492D01*
X23330636Y-50830000D01*
X24419364Y-50830000D01*
X24476569Y-51043492D01*
X24576399Y-51257576D01*
X24711893Y-51451081D01*
X24878918Y-51618106D01*
X25072423Y-51753600D01*
X25135723Y-51783118D01*
X25186119Y-51826160D01*
X25207148Y-51889010D01*
X25192803Y-51953715D01*
X25147183Y-52001789D01*
X25083318Y-52019500D01*
X24875325Y-52019500D01*
X24802261Y-52034033D01*
X24719399Y-52089399D01*
X24664033Y-52172261D01*
X24649500Y-52245325D01*
X24649500Y-53994675D01*
X24664033Y-54067738D01*
X24664033Y-54067739D01*
X24664034Y-54067740D01*
X24719399Y-54150601D01*
X24802260Y-54205966D01*
X24838792Y-54213232D01*
X24875325Y-54220500D01*
X24875326Y-54220500D01*
X26624674Y-54220500D01*
X26624675Y-54220500D01*
X26649029Y-54215655D01*
X26697740Y-54205966D01*
X26780601Y-54150601D01*
X26835966Y-54067740D01*
X26850500Y-53994674D01*
X26850500Y-52245326D01*
X26835966Y-52172260D01*
X26780601Y-52089399D01*
X26697740Y-52034034D01*
X26697739Y-52034033D01*
X26697738Y-52034033D01*
X26624675Y-52019500D01*
X26624674Y-52019500D01*
X26416682Y-52019500D01*
X26352817Y-52001789D01*
X26307197Y-51953715D01*
X26292852Y-51889010D01*
X26313881Y-51826160D01*
X26364277Y-51783118D01*
X26427576Y-51753600D01*
X26621081Y-51618106D01*
X26788106Y-51451081D01*
X26923600Y-51257576D01*
X27023430Y-51043492D01*
X27080636Y-50830000D01*
X28169364Y-50830000D01*
X28226569Y-51043492D01*
X28326399Y-51257576D01*
X28461893Y-51451081D01*
X28628918Y-51618106D01*
X28822423Y-51753600D01*
X28885723Y-51783118D01*
X28936119Y-51826160D01*
X28957148Y-51889010D01*
X28942803Y-51953715D01*
X28897183Y-52001789D01*
X28833318Y-52019500D01*
X28625325Y-52019500D01*
X28552261Y-52034033D01*
X28469399Y-52089399D01*
X28414033Y-52172261D01*
X28399500Y-52245325D01*
X28399500Y-53994675D01*
X28414033Y-54067738D01*
X28414033Y-54067739D01*
X28414034Y-54067740D01*
X28469399Y-54150601D01*
X28552260Y-54205966D01*
X28588792Y-54213232D01*
X28625325Y-54220500D01*
X28625326Y-54220500D01*
X30374674Y-54220500D01*
X30374675Y-54220500D01*
X30399029Y-54215655D01*
X30447740Y-54205966D01*
X30530601Y-54150601D01*
X30585966Y-54067740D01*
X30600500Y-53994674D01*
X30600500Y-52245326D01*
X30585966Y-52172260D01*
X30530601Y-52089399D01*
X30447740Y-52034034D01*
X30447739Y-52034033D01*
X30447738Y-52034033D01*
X30374675Y-52019500D01*
X30374674Y-52019500D01*
X30166682Y-52019500D01*
X30102817Y-52001789D01*
X30057197Y-51953715D01*
X30042852Y-51889010D01*
X30063881Y-51826160D01*
X30114277Y-51783118D01*
X30177576Y-51753600D01*
X30371081Y-51618106D01*
X30538106Y-51451081D01*
X30673600Y-51257576D01*
X30773430Y-51043492D01*
X30830636Y-50830000D01*
X31919364Y-50830000D01*
X31976569Y-51043492D01*
X32076399Y-51257576D01*
X32211893Y-51451081D01*
X32378918Y-51618106D01*
X32572423Y-51753600D01*
X32635723Y-51783118D01*
X32686119Y-51826160D01*
X32707148Y-51889010D01*
X32692803Y-51953715D01*
X32647183Y-52001789D01*
X32583318Y-52019500D01*
X32375325Y-52019500D01*
X32302261Y-52034033D01*
X32219399Y-52089399D01*
X32164033Y-52172261D01*
X32149500Y-52245325D01*
X32149500Y-53994675D01*
X32164033Y-54067738D01*
X32164033Y-54067739D01*
X32164034Y-54067740D01*
X32219399Y-54150601D01*
X32302260Y-54205966D01*
X32338792Y-54213232D01*
X32375325Y-54220500D01*
X32375326Y-54220500D01*
X34124674Y-54220500D01*
X34124675Y-54220500D01*
X34149029Y-54215655D01*
X34197740Y-54205966D01*
X34280601Y-54150601D01*
X34335966Y-54067740D01*
X34350500Y-53994674D01*
X34350500Y-52245326D01*
X34335966Y-52172260D01*
X34280601Y-52089399D01*
X34197740Y-52034034D01*
X34197739Y-52034033D01*
X34197738Y-52034033D01*
X34124675Y-52019500D01*
X34124674Y-52019500D01*
X33916682Y-52019500D01*
X33852817Y-52001789D01*
X33807197Y-51953715D01*
X33792852Y-51889010D01*
X33813881Y-51826160D01*
X33864277Y-51783118D01*
X33927576Y-51753600D01*
X34121081Y-51618106D01*
X34288106Y-51451081D01*
X34423600Y-51257576D01*
X34523430Y-51043492D01*
X34580636Y-50830000D01*
X35669364Y-50830000D01*
X35726569Y-51043492D01*
X35826399Y-51257576D01*
X35961893Y-51451081D01*
X36128918Y-51618106D01*
X36322423Y-51753600D01*
X36385723Y-51783118D01*
X36436119Y-51826160D01*
X36457148Y-51889010D01*
X36442803Y-51953715D01*
X36397183Y-52001789D01*
X36333318Y-52019500D01*
X36125325Y-52019500D01*
X36052261Y-52034033D01*
X35969399Y-52089399D01*
X35914033Y-52172261D01*
X35899500Y-52245325D01*
X35899500Y-53994675D01*
X35914033Y-54067738D01*
X35914033Y-54067739D01*
X35914034Y-54067740D01*
X35969399Y-54150601D01*
X36052260Y-54205966D01*
X36088792Y-54213232D01*
X36125325Y-54220500D01*
X36125326Y-54220500D01*
X37874674Y-54220500D01*
X37874675Y-54220500D01*
X37899029Y-54215655D01*
X37947740Y-54205966D01*
X38030601Y-54150601D01*
X38085966Y-54067740D01*
X38100500Y-53994674D01*
X38100500Y-52245326D01*
X38085966Y-52172260D01*
X38030601Y-52089399D01*
X37947740Y-52034034D01*
X37947739Y-52034033D01*
X37947738Y-52034033D01*
X37874675Y-52019500D01*
X37874674Y-52019500D01*
X37666682Y-52019500D01*
X37602817Y-52001789D01*
X37557197Y-51953715D01*
X37542852Y-51889010D01*
X37563881Y-51826160D01*
X37614277Y-51783118D01*
X37677576Y-51753600D01*
X37871081Y-51618106D01*
X38038106Y-51451081D01*
X38173600Y-51257576D01*
X38273430Y-51043492D01*
X38330636Y-50830000D01*
X39419364Y-50830000D01*
X39476569Y-51043492D01*
X39576399Y-51257576D01*
X39711893Y-51451081D01*
X39878918Y-51618106D01*
X40072423Y-51753600D01*
X40135723Y-51783118D01*
X40186119Y-51826160D01*
X40207148Y-51889010D01*
X40192803Y-51953715D01*
X40147183Y-52001789D01*
X40083318Y-52019500D01*
X39875325Y-52019500D01*
X39802261Y-52034033D01*
X39719399Y-52089399D01*
X39664033Y-52172261D01*
X39649500Y-52245325D01*
X39649500Y-53994675D01*
X39664033Y-54067738D01*
X39664033Y-54067739D01*
X39664034Y-54067740D01*
X39719399Y-54150601D01*
X39802260Y-54205966D01*
X39838792Y-54213232D01*
X39875325Y-54220500D01*
X39875326Y-54220500D01*
X41624674Y-54220500D01*
X41624675Y-54220500D01*
X41649029Y-54215655D01*
X41697740Y-54205966D01*
X41780601Y-54150601D01*
X41835966Y-54067740D01*
X41850500Y-53994674D01*
X41850500Y-52245326D01*
X41835966Y-52172260D01*
X41780601Y-52089399D01*
X41697740Y-52034034D01*
X41697739Y-52034033D01*
X41697738Y-52034033D01*
X41624675Y-52019500D01*
X41624674Y-52019500D01*
X41416682Y-52019500D01*
X41352817Y-52001789D01*
X41307197Y-51953715D01*
X41292852Y-51889010D01*
X41313881Y-51826160D01*
X41364277Y-51783118D01*
X41427576Y-51753600D01*
X41621081Y-51618106D01*
X41788106Y-51451081D01*
X41923600Y-51257576D01*
X42023430Y-51043492D01*
X42080636Y-50830000D01*
X43169364Y-50830000D01*
X43226569Y-51043492D01*
X43326399Y-51257576D01*
X43461893Y-51451081D01*
X43628918Y-51618106D01*
X43822423Y-51753600D01*
X43885723Y-51783118D01*
X43936119Y-51826160D01*
X43957148Y-51889010D01*
X43942803Y-51953715D01*
X43897183Y-52001789D01*
X43833318Y-52019500D01*
X43625325Y-52019500D01*
X43552261Y-52034033D01*
X43469399Y-52089399D01*
X43414033Y-52172261D01*
X43399500Y-52245325D01*
X43399500Y-53994675D01*
X43414033Y-54067738D01*
X43414033Y-54067739D01*
X43414034Y-54067740D01*
X43469399Y-54150601D01*
X43552260Y-54205966D01*
X43588792Y-54213232D01*
X43625325Y-54220500D01*
X43625326Y-54220500D01*
X45374674Y-54220500D01*
X45374675Y-54220500D01*
X45399029Y-54215655D01*
X45447740Y-54205966D01*
X45530601Y-54150601D01*
X45585966Y-54067740D01*
X45600500Y-53994674D01*
X45600500Y-52245326D01*
X45585966Y-52172260D01*
X45530601Y-52089399D01*
X45447740Y-52034034D01*
X45447739Y-52034033D01*
X45447738Y-52034033D01*
X45374675Y-52019500D01*
X45374674Y-52019500D01*
X45166682Y-52019500D01*
X45102817Y-52001789D01*
X45057197Y-51953715D01*
X45042852Y-51889010D01*
X45063881Y-51826160D01*
X45114277Y-51783118D01*
X45177576Y-51753600D01*
X45371081Y-51618106D01*
X45538106Y-51451081D01*
X45673600Y-51257576D01*
X45773430Y-51043492D01*
X45830636Y-50830000D01*
X46919364Y-50830000D01*
X46976569Y-51043492D01*
X47076399Y-51257576D01*
X47211893Y-51451081D01*
X47378918Y-51618106D01*
X47572423Y-51753600D01*
X47635723Y-51783118D01*
X47686119Y-51826160D01*
X47707148Y-51889010D01*
X47692803Y-51953715D01*
X47647183Y-52001789D01*
X47583318Y-52019500D01*
X47375325Y-52019500D01*
X47302261Y-52034033D01*
X47219399Y-52089399D01*
X47164033Y-52172261D01*
X47149500Y-52245325D01*
X47149500Y-53994675D01*
X47164033Y-54067738D01*
X47164033Y-54067739D01*
X47164034Y-54067740D01*
X47219399Y-54150601D01*
X47302260Y-54205966D01*
X47338792Y-54213232D01*
X47375325Y-54220500D01*
X47375326Y-54220500D01*
X49124674Y-54220500D01*
X49124675Y-54220500D01*
X49149029Y-54215655D01*
X49197740Y-54205966D01*
X49280601Y-54150601D01*
X49335966Y-54067740D01*
X49350500Y-53994674D01*
X49350500Y-52245326D01*
X49335966Y-52172260D01*
X49280601Y-52089399D01*
X49197740Y-52034034D01*
X49197739Y-52034033D01*
X49197738Y-52034033D01*
X49124675Y-52019500D01*
X49124674Y-52019500D01*
X48916682Y-52019500D01*
X48852817Y-52001789D01*
X48807197Y-51953715D01*
X48792852Y-51889010D01*
X48813881Y-51826160D01*
X48864277Y-51783118D01*
X48927576Y-51753600D01*
X49121081Y-51618106D01*
X49288106Y-51451081D01*
X49423600Y-51257576D01*
X49523430Y-51043492D01*
X49580636Y-50830000D01*
X46919364Y-50830000D01*
X45830636Y-50830000D01*
X43169364Y-50830000D01*
X42080636Y-50830000D01*
X39419364Y-50830000D01*
X38330636Y-50830000D01*
X35669364Y-50830000D01*
X34580636Y-50830000D01*
X31919364Y-50830000D01*
X30830636Y-50830000D01*
X28169364Y-50830000D01*
X27080636Y-50830000D01*
X24419364Y-50830000D01*
X23330636Y-50830000D01*
X20669364Y-50830000D01*
X20706367Y-50968100D01*
X20706367Y-51032287D01*
X20674273Y-51087874D01*
X20618685Y-51119968D01*
X20554498Y-51119968D01*
X20498911Y-51087874D01*
X20050320Y-50639283D01*
X19741037Y-50330000D01*
X20669364Y-50330000D01*
X23330636Y-50330000D01*
X24419364Y-50330000D01*
X27080636Y-50330000D01*
X28169364Y-50330000D01*
X30830636Y-50330000D01*
X31919364Y-50330000D01*
X34580636Y-50330000D01*
X35669364Y-50330000D01*
X38330636Y-50330000D01*
X39419364Y-50330000D01*
X42080636Y-50330000D01*
X43169364Y-50330000D01*
X45830636Y-50330000D01*
X46919364Y-50330000D01*
X49580636Y-50330000D01*
X49580635Y-50329999D01*
X49523430Y-50116507D01*
X49423599Y-49902421D01*
X49288109Y-49708921D01*
X49121081Y-49541893D01*
X48927576Y-49406399D01*
X48713488Y-49306567D01*
X48674413Y-49296097D01*
X48620736Y-49265873D01*
X48588228Y-49213549D01*
X48584910Y-49152037D01*
X48611601Y-49096519D01*
X48661713Y-49060697D01*
X48742637Y-49029348D01*
X48916041Y-48921981D01*
X49066764Y-48784579D01*
X49189673Y-48621821D01*
X49189673Y-48621819D01*
X49189675Y-48621818D01*
X49235313Y-48530161D01*
X49280582Y-48439250D01*
X49336397Y-48243083D01*
X49355215Y-48040000D01*
X49336397Y-47836917D01*
X49280582Y-47640750D01*
X49280209Y-47640001D01*
X49189675Y-47458181D01*
X49066763Y-47295419D01*
X48916041Y-47158018D01*
X48742638Y-47050652D01*
X48552457Y-46976976D01*
X48485629Y-46964484D01*
X48351976Y-46939500D01*
X48148024Y-46939500D01*
X48047784Y-46958237D01*
X47947542Y-46976976D01*
X47757361Y-47050652D01*
X47583958Y-47158018D01*
X47433236Y-47295419D01*
X47310324Y-47458181D01*
X47219418Y-47640748D01*
X47163602Y-47836916D01*
X47144785Y-48040000D01*
X47163602Y-48243083D01*
X47219418Y-48439251D01*
X47310324Y-48621818D01*
X47433236Y-48784580D01*
X47583958Y-48921981D01*
X47757361Y-49029347D01*
X47757363Y-49029348D01*
X47838286Y-49060697D01*
X47888398Y-49096519D01*
X47915089Y-49152037D01*
X47911771Y-49213548D01*
X47879263Y-49265873D01*
X47825586Y-49296097D01*
X47786511Y-49306567D01*
X47572421Y-49406400D01*
X47378921Y-49541890D01*
X47211890Y-49708921D01*
X47076400Y-49902421D01*
X46976569Y-50116507D01*
X46919364Y-50329999D01*
X46919364Y-50330000D01*
X45830636Y-50330000D01*
X45830635Y-50329999D01*
X45773430Y-50116507D01*
X45673599Y-49902421D01*
X45538109Y-49708921D01*
X45371081Y-49541893D01*
X45177576Y-49406399D01*
X44963488Y-49306567D01*
X44924413Y-49296097D01*
X44870736Y-49265873D01*
X44838228Y-49213549D01*
X44834910Y-49152037D01*
X44861601Y-49096519D01*
X44911713Y-49060697D01*
X44992637Y-49029348D01*
X45166041Y-48921981D01*
X45316764Y-48784579D01*
X45439673Y-48621821D01*
X45439673Y-48621819D01*
X45439675Y-48621818D01*
X45485313Y-48530161D01*
X45530582Y-48439250D01*
X45586397Y-48243083D01*
X45605215Y-48040000D01*
X45586397Y-47836917D01*
X45530582Y-47640750D01*
X45530209Y-47640001D01*
X45439675Y-47458181D01*
X45316763Y-47295419D01*
X45166041Y-47158018D01*
X44992638Y-47050652D01*
X44802457Y-46976976D01*
X44735629Y-46964484D01*
X44601976Y-46939500D01*
X44398024Y-46939500D01*
X44297784Y-46958237D01*
X44197542Y-46976976D01*
X44007361Y-47050652D01*
X43833958Y-47158018D01*
X43683236Y-47295419D01*
X43560324Y-47458181D01*
X43469418Y-47640748D01*
X43413602Y-47836916D01*
X43394785Y-48040000D01*
X43413602Y-48243083D01*
X43469418Y-48439251D01*
X43560324Y-48621818D01*
X43683236Y-48784580D01*
X43833958Y-48921981D01*
X44007361Y-49029347D01*
X44007363Y-49029348D01*
X44088286Y-49060697D01*
X44138398Y-49096519D01*
X44165089Y-49152037D01*
X44161771Y-49213548D01*
X44129263Y-49265873D01*
X44075586Y-49296097D01*
X44036511Y-49306567D01*
X43822421Y-49406400D01*
X43628921Y-49541890D01*
X43461890Y-49708921D01*
X43326400Y-49902421D01*
X43226569Y-50116507D01*
X43169364Y-50329999D01*
X43169364Y-50330000D01*
X42080636Y-50330000D01*
X42080635Y-50329999D01*
X42023430Y-50116507D01*
X41923599Y-49902421D01*
X41788109Y-49708921D01*
X41621081Y-49541893D01*
X41427576Y-49406399D01*
X41213488Y-49306567D01*
X41174413Y-49296097D01*
X41120736Y-49265873D01*
X41088228Y-49213549D01*
X41084910Y-49152037D01*
X41111601Y-49096519D01*
X41161713Y-49060697D01*
X41242637Y-49029348D01*
X41416041Y-48921981D01*
X41566764Y-48784579D01*
X41689673Y-48621821D01*
X41689673Y-48621819D01*
X41689675Y-48621818D01*
X41735313Y-48530161D01*
X41780582Y-48439250D01*
X41836397Y-48243083D01*
X41855215Y-48040000D01*
X41836397Y-47836917D01*
X41780582Y-47640750D01*
X41780209Y-47640001D01*
X41689675Y-47458181D01*
X41566763Y-47295419D01*
X41416041Y-47158018D01*
X41242638Y-47050652D01*
X41052457Y-46976976D01*
X40985629Y-46964484D01*
X40851976Y-46939500D01*
X40648024Y-46939500D01*
X40547784Y-46958237D01*
X40447542Y-46976976D01*
X40257361Y-47050652D01*
X40083958Y-47158018D01*
X39933236Y-47295419D01*
X39810324Y-47458181D01*
X39719418Y-47640748D01*
X39663602Y-47836916D01*
X39644785Y-48040000D01*
X39663602Y-48243083D01*
X39719418Y-48439251D01*
X39810324Y-48621818D01*
X39933236Y-48784580D01*
X40083958Y-48921981D01*
X40257361Y-49029347D01*
X40257363Y-49029348D01*
X40338286Y-49060697D01*
X40388398Y-49096519D01*
X40415089Y-49152037D01*
X40411771Y-49213548D01*
X40379263Y-49265873D01*
X40325586Y-49296097D01*
X40286511Y-49306567D01*
X40072421Y-49406400D01*
X39878921Y-49541890D01*
X39711890Y-49708921D01*
X39576400Y-49902421D01*
X39476569Y-50116507D01*
X39419364Y-50329999D01*
X39419364Y-50330000D01*
X38330636Y-50330000D01*
X38330635Y-50329999D01*
X38273430Y-50116507D01*
X38173599Y-49902421D01*
X38038109Y-49708921D01*
X37871081Y-49541893D01*
X37677576Y-49406399D01*
X37463488Y-49306567D01*
X37424413Y-49296097D01*
X37370736Y-49265873D01*
X37338228Y-49213549D01*
X37334910Y-49152037D01*
X37361601Y-49096519D01*
X37411713Y-49060697D01*
X37492637Y-49029348D01*
X37666041Y-48921981D01*
X37816764Y-48784579D01*
X37939673Y-48621821D01*
X37939673Y-48621819D01*
X37939675Y-48621818D01*
X37985313Y-48530161D01*
X38030582Y-48439250D01*
X38086397Y-48243083D01*
X38105215Y-48040000D01*
X38086397Y-47836917D01*
X38030582Y-47640750D01*
X38030209Y-47640001D01*
X37939675Y-47458181D01*
X37816763Y-47295419D01*
X37666041Y-47158018D01*
X37492638Y-47050652D01*
X37302457Y-46976976D01*
X37235629Y-46964484D01*
X37101976Y-46939500D01*
X36898024Y-46939500D01*
X36797784Y-46958237D01*
X36697542Y-46976976D01*
X36507361Y-47050652D01*
X36333958Y-47158018D01*
X36183236Y-47295419D01*
X36060324Y-47458181D01*
X35969418Y-47640748D01*
X35913602Y-47836916D01*
X35894785Y-48040000D01*
X35913602Y-48243083D01*
X35969418Y-48439251D01*
X36060324Y-48621818D01*
X36183236Y-48784580D01*
X36333958Y-48921981D01*
X36507361Y-49029347D01*
X36507363Y-49029348D01*
X36588286Y-49060697D01*
X36638398Y-49096519D01*
X36665089Y-49152037D01*
X36661771Y-49213548D01*
X36629263Y-49265873D01*
X36575586Y-49296097D01*
X36536511Y-49306567D01*
X36322421Y-49406400D01*
X36128921Y-49541890D01*
X35961890Y-49708921D01*
X35826400Y-49902421D01*
X35726569Y-50116507D01*
X35669364Y-50329999D01*
X35669364Y-50330000D01*
X34580636Y-50330000D01*
X34580635Y-50329999D01*
X34523430Y-50116507D01*
X34423599Y-49902421D01*
X34288109Y-49708921D01*
X34121081Y-49541893D01*
X33927576Y-49406399D01*
X33713488Y-49306567D01*
X33674413Y-49296097D01*
X33620736Y-49265873D01*
X33588228Y-49213549D01*
X33584910Y-49152037D01*
X33611601Y-49096519D01*
X33661713Y-49060697D01*
X33742637Y-49029348D01*
X33916041Y-48921981D01*
X34066764Y-48784579D01*
X34189673Y-48621821D01*
X34189673Y-48621819D01*
X34189675Y-48621818D01*
X34235313Y-48530161D01*
X34280582Y-48439250D01*
X34336397Y-48243083D01*
X34355215Y-48040000D01*
X34336397Y-47836917D01*
X34280582Y-47640750D01*
X34280209Y-47640001D01*
X34189675Y-47458181D01*
X34066763Y-47295419D01*
X33916041Y-47158018D01*
X33742638Y-47050652D01*
X33552457Y-46976976D01*
X33485629Y-46964484D01*
X33351976Y-46939500D01*
X33148024Y-46939500D01*
X33047784Y-46958237D01*
X32947542Y-46976976D01*
X32757361Y-47050652D01*
X32583958Y-47158018D01*
X32433236Y-47295419D01*
X32310324Y-47458181D01*
X32219418Y-47640748D01*
X32163602Y-47836916D01*
X32144785Y-48040000D01*
X32163602Y-48243083D01*
X32219418Y-48439251D01*
X32310324Y-48621818D01*
X32433236Y-48784580D01*
X32583958Y-48921981D01*
X32757361Y-49029347D01*
X32757363Y-49029348D01*
X32838286Y-49060697D01*
X32888398Y-49096519D01*
X32915089Y-49152037D01*
X32911771Y-49213548D01*
X32879263Y-49265873D01*
X32825586Y-49296097D01*
X32786511Y-49306567D01*
X32572421Y-49406400D01*
X32378921Y-49541890D01*
X32211890Y-49708921D01*
X32076400Y-49902421D01*
X31976569Y-50116507D01*
X31919364Y-50329999D01*
X31919364Y-50330000D01*
X30830636Y-50330000D01*
X30830635Y-50329999D01*
X30773430Y-50116507D01*
X30673599Y-49902421D01*
X30538109Y-49708921D01*
X30371081Y-49541893D01*
X30177576Y-49406399D01*
X29963488Y-49306567D01*
X29924413Y-49296097D01*
X29870736Y-49265873D01*
X29838228Y-49213549D01*
X29834910Y-49152037D01*
X29861601Y-49096519D01*
X29911713Y-49060697D01*
X29992637Y-49029348D01*
X30166041Y-48921981D01*
X30316764Y-48784579D01*
X30439673Y-48621821D01*
X30439673Y-48621819D01*
X30439675Y-48621818D01*
X30485313Y-48530161D01*
X30530582Y-48439250D01*
X30586397Y-48243083D01*
X30605215Y-48040000D01*
X30586397Y-47836917D01*
X30530582Y-47640750D01*
X30530209Y-47640001D01*
X30439675Y-47458181D01*
X30316763Y-47295419D01*
X30166041Y-47158018D01*
X29992638Y-47050652D01*
X29802457Y-46976976D01*
X29735629Y-46964484D01*
X29601976Y-46939500D01*
X29398024Y-46939500D01*
X29297784Y-46958237D01*
X29197542Y-46976976D01*
X29007361Y-47050652D01*
X28833958Y-47158018D01*
X28683236Y-47295419D01*
X28560324Y-47458181D01*
X28469418Y-47640748D01*
X28413602Y-47836916D01*
X28394785Y-48040000D01*
X28413602Y-48243083D01*
X28469418Y-48439251D01*
X28560324Y-48621818D01*
X28683236Y-48784580D01*
X28833958Y-48921981D01*
X29007361Y-49029347D01*
X29007363Y-49029348D01*
X29088286Y-49060697D01*
X29138398Y-49096519D01*
X29165089Y-49152037D01*
X29161771Y-49213548D01*
X29129263Y-49265873D01*
X29075586Y-49296097D01*
X29036511Y-49306567D01*
X28822421Y-49406400D01*
X28628921Y-49541890D01*
X28461890Y-49708921D01*
X28326400Y-49902421D01*
X28226569Y-50116507D01*
X28169364Y-50329999D01*
X28169364Y-50330000D01*
X27080636Y-50330000D01*
X27080635Y-50329999D01*
X27023430Y-50116507D01*
X26923599Y-49902421D01*
X26788109Y-49708921D01*
X26621081Y-49541893D01*
X26427576Y-49406399D01*
X26213488Y-49306567D01*
X26174413Y-49296097D01*
X26120736Y-49265873D01*
X26088228Y-49213549D01*
X26084910Y-49152037D01*
X26111601Y-49096519D01*
X26161713Y-49060697D01*
X26242637Y-49029348D01*
X26416041Y-48921981D01*
X26566764Y-48784579D01*
X26689673Y-48621821D01*
X26689673Y-48621819D01*
X26689675Y-48621818D01*
X26735313Y-48530161D01*
X26780582Y-48439250D01*
X26836397Y-48243083D01*
X26855215Y-48040000D01*
X26836397Y-47836917D01*
X26780582Y-47640750D01*
X26780209Y-47640001D01*
X26689675Y-47458181D01*
X26566763Y-47295419D01*
X26416041Y-47158018D01*
X26242638Y-47050652D01*
X26052457Y-46976976D01*
X25985629Y-46964484D01*
X25851976Y-46939500D01*
X25648024Y-46939500D01*
X25547784Y-46958237D01*
X25447542Y-46976976D01*
X25257361Y-47050652D01*
X25083958Y-47158018D01*
X24933236Y-47295419D01*
X24810324Y-47458181D01*
X24719418Y-47640748D01*
X24663602Y-47836916D01*
X24644785Y-48040000D01*
X24663602Y-48243083D01*
X24719418Y-48439251D01*
X24810324Y-48621818D01*
X24933236Y-48784580D01*
X25083958Y-48921981D01*
X25257361Y-49029347D01*
X25257363Y-49029348D01*
X25338286Y-49060697D01*
X25388398Y-49096519D01*
X25415089Y-49152037D01*
X25411771Y-49213548D01*
X25379263Y-49265873D01*
X25325586Y-49296097D01*
X25286511Y-49306567D01*
X25072421Y-49406400D01*
X24878921Y-49541890D01*
X24711890Y-49708921D01*
X24576400Y-49902421D01*
X24476569Y-50116507D01*
X24419364Y-50329999D01*
X24419364Y-50330000D01*
X23330636Y-50330000D01*
X23330635Y-50329999D01*
X23273430Y-50116507D01*
X23173599Y-49902421D01*
X23038109Y-49708921D01*
X22871081Y-49541893D01*
X22677576Y-49406399D01*
X22463488Y-49306567D01*
X22424413Y-49296097D01*
X22370736Y-49265873D01*
X22338228Y-49213549D01*
X22334910Y-49152037D01*
X22361601Y-49096519D01*
X22411713Y-49060697D01*
X22492637Y-49029348D01*
X22666041Y-48921981D01*
X22816764Y-48784579D01*
X22939673Y-48621821D01*
X22939673Y-48621819D01*
X22939675Y-48621818D01*
X22985313Y-48530161D01*
X23030582Y-48439250D01*
X23086397Y-48243083D01*
X23105215Y-48040000D01*
X23086397Y-47836917D01*
X23030582Y-47640750D01*
X23030209Y-47640001D01*
X22939675Y-47458181D01*
X22816763Y-47295419D01*
X22666041Y-47158018D01*
X22492638Y-47050652D01*
X22302457Y-46976976D01*
X22235629Y-46964484D01*
X22101976Y-46939500D01*
X21898024Y-46939500D01*
X21797784Y-46958237D01*
X21697542Y-46976976D01*
X21507361Y-47050652D01*
X21333958Y-47158018D01*
X21183236Y-47295419D01*
X21060324Y-47458181D01*
X20969418Y-47640748D01*
X20913602Y-47836916D01*
X20894785Y-48040000D01*
X20913602Y-48243083D01*
X20969418Y-48439251D01*
X21060324Y-48621818D01*
X21183236Y-48784580D01*
X21333958Y-48921981D01*
X21507361Y-49029347D01*
X21507363Y-49029348D01*
X21588286Y-49060697D01*
X21638398Y-49096519D01*
X21665089Y-49152037D01*
X21661771Y-49213548D01*
X21629263Y-49265873D01*
X21575586Y-49296097D01*
X21536511Y-49306567D01*
X21322421Y-49406400D01*
X21128921Y-49541890D01*
X20961890Y-49708921D01*
X20826400Y-49902421D01*
X20726569Y-50116507D01*
X20669364Y-50329999D01*
X20669364Y-50330000D01*
X19741037Y-50330000D01*
X18736819Y-49325781D01*
X18709939Y-49285553D01*
X18700500Y-49238100D01*
X18700500Y-45500000D01*
X20894785Y-45500000D01*
X20913602Y-45703083D01*
X20969418Y-45899251D01*
X21060324Y-46081818D01*
X21183236Y-46244580D01*
X21333958Y-46381981D01*
X21507361Y-46489347D01*
X21507363Y-46489348D01*
X21697544Y-46563024D01*
X21898024Y-46600500D01*
X22101974Y-46600500D01*
X22101976Y-46600500D01*
X22302456Y-46563024D01*
X22492637Y-46489348D01*
X22666041Y-46381981D01*
X22816764Y-46244579D01*
X22939673Y-46081821D01*
X22939673Y-46081819D01*
X22939675Y-46081818D01*
X22988692Y-45983376D01*
X23030582Y-45899250D01*
X23086397Y-45703083D01*
X23105215Y-45500000D01*
X24644785Y-45500000D01*
X24663602Y-45703083D01*
X24719418Y-45899251D01*
X24810324Y-46081818D01*
X24933236Y-46244580D01*
X25083958Y-46381981D01*
X25257361Y-46489347D01*
X25257363Y-46489348D01*
X25447544Y-46563024D01*
X25648024Y-46600500D01*
X25851974Y-46600500D01*
X25851976Y-46600500D01*
X26052456Y-46563024D01*
X26242637Y-46489348D01*
X26416041Y-46381981D01*
X26566764Y-46244579D01*
X26689673Y-46081821D01*
X26689673Y-46081819D01*
X26689675Y-46081818D01*
X26738692Y-45983376D01*
X26780582Y-45899250D01*
X26836397Y-45703083D01*
X26855215Y-45500000D01*
X28394785Y-45500000D01*
X28413602Y-45703083D01*
X28469418Y-45899251D01*
X28560324Y-46081818D01*
X28683236Y-46244580D01*
X28833958Y-46381981D01*
X29007361Y-46489347D01*
X29007363Y-46489348D01*
X29197544Y-46563024D01*
X29398024Y-46600500D01*
X29601974Y-46600500D01*
X29601976Y-46600500D01*
X29802456Y-46563024D01*
X29992637Y-46489348D01*
X30166041Y-46381981D01*
X30316764Y-46244579D01*
X30439673Y-46081821D01*
X30439673Y-46081819D01*
X30439675Y-46081818D01*
X30488692Y-45983376D01*
X30530582Y-45899250D01*
X30586397Y-45703083D01*
X30605215Y-45500000D01*
X30605215Y-45499999D01*
X32144785Y-45499999D01*
X32163602Y-45703083D01*
X32219418Y-45899251D01*
X32310324Y-46081818D01*
X32433236Y-46244580D01*
X32583958Y-46381981D01*
X32757361Y-46489347D01*
X32757363Y-46489348D01*
X32947544Y-46563024D01*
X33148024Y-46600500D01*
X33351974Y-46600500D01*
X33351976Y-46600500D01*
X33552456Y-46563024D01*
X33742637Y-46489348D01*
X33916041Y-46381981D01*
X34066764Y-46244579D01*
X34189673Y-46081821D01*
X34189673Y-46081819D01*
X34189675Y-46081818D01*
X34238692Y-45983376D01*
X34280582Y-45899250D01*
X34336397Y-45703083D01*
X34355215Y-45500000D01*
X34355215Y-45499999D01*
X35894785Y-45499999D01*
X35913602Y-45703083D01*
X35969418Y-45899251D01*
X36060324Y-46081818D01*
X36183236Y-46244580D01*
X36333958Y-46381981D01*
X36507361Y-46489347D01*
X36507363Y-46489348D01*
X36697544Y-46563024D01*
X36898024Y-46600500D01*
X37101974Y-46600500D01*
X37101976Y-46600500D01*
X37302456Y-46563024D01*
X37492637Y-46489348D01*
X37666041Y-46381981D01*
X37816764Y-46244579D01*
X37939673Y-46081821D01*
X37939673Y-46081819D01*
X37939675Y-46081818D01*
X37988692Y-45983376D01*
X38030582Y-45899250D01*
X38086397Y-45703083D01*
X38105215Y-45500000D01*
X38105215Y-45499999D01*
X39644785Y-45499999D01*
X39663602Y-45703083D01*
X39719418Y-45899251D01*
X39810324Y-46081818D01*
X39933236Y-46244580D01*
X40083958Y-46381981D01*
X40257361Y-46489347D01*
X40257363Y-46489348D01*
X40447544Y-46563024D01*
X40648024Y-46600500D01*
X40851974Y-46600500D01*
X40851976Y-46600500D01*
X41052456Y-46563024D01*
X41242637Y-46489348D01*
X41416041Y-46381981D01*
X41566764Y-46244579D01*
X41689673Y-46081821D01*
X41689673Y-46081819D01*
X41689675Y-46081818D01*
X41738692Y-45983376D01*
X41780582Y-45899250D01*
X41836397Y-45703083D01*
X41855215Y-45500000D01*
X41855215Y-45499999D01*
X43394785Y-45499999D01*
X43413602Y-45703083D01*
X43469418Y-45899251D01*
X43560324Y-46081818D01*
X43683236Y-46244580D01*
X43833958Y-46381981D01*
X44007361Y-46489347D01*
X44007363Y-46489348D01*
X44197544Y-46563024D01*
X44398024Y-46600500D01*
X44601974Y-46600500D01*
X44601976Y-46600500D01*
X44802456Y-46563024D01*
X44992637Y-46489348D01*
X45166041Y-46381981D01*
X45316764Y-46244579D01*
X45439673Y-46081821D01*
X45439673Y-46081819D01*
X45439675Y-46081818D01*
X45488692Y-45983376D01*
X45530582Y-45899250D01*
X45586397Y-45703083D01*
X45605215Y-45500000D01*
X45605215Y-45499999D01*
X47144785Y-45499999D01*
X47163602Y-45703083D01*
X47219418Y-45899251D01*
X47310324Y-46081818D01*
X47433236Y-46244580D01*
X47583958Y-46381981D01*
X47757361Y-46489347D01*
X47757363Y-46489348D01*
X47947544Y-46563024D01*
X48148024Y-46600500D01*
X48351974Y-46600500D01*
X48351976Y-46600500D01*
X48552456Y-46563024D01*
X48742637Y-46489348D01*
X48916041Y-46381981D01*
X49066764Y-46244579D01*
X49189673Y-46081821D01*
X49189673Y-46081819D01*
X49189675Y-46081818D01*
X49238692Y-45983376D01*
X49280582Y-45899250D01*
X49336397Y-45703083D01*
X49355215Y-45500000D01*
X49336397Y-45296917D01*
X49280582Y-45100750D01*
X49280209Y-45100001D01*
X49189675Y-44918181D01*
X49066763Y-44755419D01*
X48916041Y-44618018D01*
X48742638Y-44510652D01*
X48552457Y-44436976D01*
X48485629Y-44424483D01*
X48351976Y-44399500D01*
X48148024Y-44399500D01*
X48047784Y-44418237D01*
X47947542Y-44436976D01*
X47757361Y-44510652D01*
X47583958Y-44618018D01*
X47433236Y-44755419D01*
X47310324Y-44918181D01*
X47219418Y-45100748D01*
X47163602Y-45296916D01*
X47144785Y-45499999D01*
X45605215Y-45499999D01*
X45586397Y-45296917D01*
X45530582Y-45100750D01*
X45530209Y-45100001D01*
X45439675Y-44918181D01*
X45316763Y-44755419D01*
X45166041Y-44618018D01*
X44992638Y-44510652D01*
X44802457Y-44436976D01*
X44735629Y-44424483D01*
X44601976Y-44399500D01*
X44398024Y-44399500D01*
X44297784Y-44418237D01*
X44197542Y-44436976D01*
X44007361Y-44510652D01*
X43833958Y-44618018D01*
X43683236Y-44755419D01*
X43560324Y-44918181D01*
X43469418Y-45100748D01*
X43413602Y-45296916D01*
X43394785Y-45499999D01*
X41855215Y-45499999D01*
X41836397Y-45296917D01*
X41780582Y-45100750D01*
X41780209Y-45100001D01*
X41689675Y-44918181D01*
X41566763Y-44755419D01*
X41416041Y-44618018D01*
X41242638Y-44510652D01*
X41052457Y-44436976D01*
X40985629Y-44424483D01*
X40851976Y-44399500D01*
X40648024Y-44399500D01*
X40547784Y-44418237D01*
X40447542Y-44436976D01*
X40257361Y-44510652D01*
X40083958Y-44618018D01*
X39933236Y-44755419D01*
X39810324Y-44918181D01*
X39719418Y-45100748D01*
X39663602Y-45296916D01*
X39644785Y-45499999D01*
X38105215Y-45499999D01*
X38086397Y-45296917D01*
X38030582Y-45100750D01*
X38030209Y-45100001D01*
X37939675Y-44918181D01*
X37816763Y-44755419D01*
X37666041Y-44618018D01*
X37492638Y-44510652D01*
X37302457Y-44436976D01*
X37235629Y-44424483D01*
X37101976Y-44399500D01*
X36898024Y-44399500D01*
X36797784Y-44418237D01*
X36697542Y-44436976D01*
X36507361Y-44510652D01*
X36333958Y-44618018D01*
X36183236Y-44755419D01*
X36060324Y-44918181D01*
X35969418Y-45100748D01*
X35913602Y-45296916D01*
X35894785Y-45499999D01*
X34355215Y-45499999D01*
X34336397Y-45296917D01*
X34280582Y-45100750D01*
X34280209Y-45100001D01*
X34189675Y-44918181D01*
X34066763Y-44755419D01*
X33916041Y-44618018D01*
X33742638Y-44510652D01*
X33552457Y-44436976D01*
X33485629Y-44424483D01*
X33351976Y-44399500D01*
X33148024Y-44399500D01*
X33047784Y-44418237D01*
X32947542Y-44436976D01*
X32757361Y-44510652D01*
X32583958Y-44618018D01*
X32433236Y-44755419D01*
X32310324Y-44918181D01*
X32219418Y-45100748D01*
X32163602Y-45296916D01*
X32144785Y-45499999D01*
X30605215Y-45499999D01*
X30586397Y-45296917D01*
X30530582Y-45100750D01*
X30530209Y-45100001D01*
X30439675Y-44918181D01*
X30316763Y-44755419D01*
X30166041Y-44618018D01*
X29992638Y-44510652D01*
X29802457Y-44436976D01*
X29735629Y-44424483D01*
X29601976Y-44399500D01*
X29398024Y-44399500D01*
X29297783Y-44418238D01*
X29197542Y-44436976D01*
X29007361Y-44510652D01*
X28833958Y-44618018D01*
X28683236Y-44755419D01*
X28560324Y-44918181D01*
X28469418Y-45100748D01*
X28413602Y-45296916D01*
X28394785Y-45500000D01*
X26855215Y-45500000D01*
X26836397Y-45296917D01*
X26780582Y-45100750D01*
X26780209Y-45100001D01*
X26689675Y-44918181D01*
X26566763Y-44755419D01*
X26416041Y-44618018D01*
X26242638Y-44510652D01*
X26052457Y-44436976D01*
X25985629Y-44424483D01*
X25851976Y-44399500D01*
X25648024Y-44399500D01*
X25547783Y-44418238D01*
X25447542Y-44436976D01*
X25257361Y-44510652D01*
X25083958Y-44618018D01*
X24933236Y-44755419D01*
X24810324Y-44918181D01*
X24719418Y-45100748D01*
X24663602Y-45296916D01*
X24644785Y-45500000D01*
X23105215Y-45500000D01*
X23086397Y-45296917D01*
X23030582Y-45100750D01*
X23030209Y-45100001D01*
X22939675Y-44918181D01*
X22816763Y-44755419D01*
X22666041Y-44618018D01*
X22492638Y-44510652D01*
X22302457Y-44436976D01*
X22235629Y-44424483D01*
X22101976Y-44399500D01*
X21898024Y-44399500D01*
X21797783Y-44418238D01*
X21697542Y-44436976D01*
X21507361Y-44510652D01*
X21333958Y-44618018D01*
X21183236Y-44755419D01*
X21060324Y-44918181D01*
X20969418Y-45100748D01*
X20913602Y-45296916D01*
X20894785Y-45500000D01*
X18700500Y-45500000D01*
X18700500Y-38261969D01*
X18717593Y-38199144D01*
X18764161Y-38153640D01*
X18827364Y-38138002D01*
X18889776Y-38156541D01*
X19007363Y-38229348D01*
X19197544Y-38303024D01*
X19398024Y-38340500D01*
X19601974Y-38340500D01*
X19601976Y-38340500D01*
X19802456Y-38303024D01*
X19992637Y-38229348D01*
X20166041Y-38121981D01*
X20316764Y-37984579D01*
X20439673Y-37821821D01*
X20439673Y-37821819D01*
X20439675Y-37821818D01*
X20508186Y-37684229D01*
X20553908Y-37634073D01*
X20619186Y-37615500D01*
X29808406Y-37615500D01*
X29855859Y-37624939D01*
X29896087Y-37651819D01*
X32953734Y-40709467D01*
X32969860Y-40729323D01*
X32975800Y-40738415D01*
X33000774Y-40757853D01*
X33012291Y-40768024D01*
X33012366Y-40768099D01*
X33022294Y-40775187D01*
X33029283Y-40780177D01*
X33033392Y-40783241D01*
X33080925Y-40820237D01*
X33081116Y-40820336D01*
X33115485Y-40830567D01*
X33138839Y-40837520D01*
X33143676Y-40839069D01*
X33193224Y-40856079D01*
X33200681Y-40858639D01*
X33200914Y-40858672D01*
X33208793Y-40858346D01*
X33208796Y-40858347D01*
X33261077Y-40856184D01*
X33266200Y-40856079D01*
X42408870Y-40856079D01*
X42466497Y-40870283D01*
X42510921Y-40909641D01*
X42514693Y-40915107D01*
X42514694Y-40915108D01*
X42514695Y-40915109D01*
X42632938Y-41019862D01*
X42772813Y-41093275D01*
X42926193Y-41131079D01*
X43084163Y-41131079D01*
X43237543Y-41093275D01*
X43377418Y-41019862D01*
X43495661Y-40915109D01*
X43585398Y-40785102D01*
X43641415Y-40637397D01*
X43660456Y-40480579D01*
X43641415Y-40323761D01*
X43585398Y-40176056D01*
X43511337Y-40068760D01*
X43495662Y-40046050D01*
X43495661Y-40046049D01*
X43377418Y-39941296D01*
X43364172Y-39934343D01*
X43237542Y-39867882D01*
X43084163Y-39830079D01*
X42926193Y-39830079D01*
X42772813Y-39867882D01*
X42632939Y-39941295D01*
X42514693Y-40046050D01*
X42510921Y-40051517D01*
X42466497Y-40090875D01*
X42408870Y-40105079D01*
X33462783Y-40105079D01*
X33415330Y-40095640D01*
X33375102Y-40068760D01*
X32618523Y-39312181D01*
X32588273Y-39262818D01*
X32583731Y-39205102D01*
X32605886Y-39151615D01*
X32649909Y-39114015D01*
X32706204Y-39100500D01*
X59096257Y-39100500D01*
X59121703Y-39103139D01*
X59125502Y-39103935D01*
X59132330Y-39105367D01*
X59162200Y-39101643D01*
X59163739Y-39101452D01*
X59179076Y-39100500D01*
X59179173Y-39100500D01*
X59179176Y-39100500D01*
X59199705Y-39097073D01*
X59204721Y-39096342D01*
X59256688Y-39089866D01*
X59256690Y-39089864D01*
X59264519Y-39088889D01*
X59264728Y-39088822D01*
X59271669Y-39085065D01*
X59271672Y-39085065D01*
X59317728Y-39060140D01*
X59322206Y-39057835D01*
X59369273Y-39034826D01*
X59369274Y-39034824D01*
X59376370Y-39031356D01*
X59376538Y-39031230D01*
X59381886Y-39025419D01*
X59381888Y-39025419D01*
X59417356Y-38986889D01*
X59420836Y-38983261D01*
X59432991Y-38971106D01*
X59473216Y-38944232D01*
X59520666Y-38934794D01*
X59667752Y-38934794D01*
X59667753Y-38934794D01*
X59784593Y-38905995D01*
X59840294Y-38905155D01*
X59890741Y-38928782D01*
X59925755Y-38972110D01*
X59938268Y-39026393D01*
X59938268Y-45761963D01*
X59935629Y-45787409D01*
X59933401Y-45798034D01*
X59937316Y-45829445D01*
X59938268Y-45844782D01*
X59938268Y-45844884D01*
X59941686Y-45865370D01*
X59942425Y-45870438D01*
X59949875Y-45930206D01*
X59949953Y-45930450D01*
X59978595Y-45983376D01*
X59980939Y-45987930D01*
X60007402Y-46042060D01*
X60007545Y-46042250D01*
X60013347Y-46047592D01*
X60013349Y-46047594D01*
X60051876Y-46083061D01*
X60055548Y-46086585D01*
X63223956Y-49254993D01*
X63256210Y-49311184D01*
X63255721Y-49375972D01*
X63222622Y-49431669D01*
X63165950Y-49463071D01*
X63067635Y-49487303D01*
X62927761Y-49560716D01*
X62809515Y-49665471D01*
X62805743Y-49670938D01*
X62761319Y-49710296D01*
X62703692Y-49724500D01*
X61531594Y-49724500D01*
X61484141Y-49715061D01*
X61443913Y-49688181D01*
X53365928Y-41610196D01*
X53339529Y-41571114D01*
X53329634Y-41525001D01*
X53334431Y-41497266D01*
X53334422Y-41497265D01*
X53355278Y-41325500D01*
X53355277Y-41325499D01*
X53336237Y-41168682D01*
X53280220Y-41020977D01*
X53190483Y-40890970D01*
X53072240Y-40786217D01*
X53058994Y-40779264D01*
X52932364Y-40712803D01*
X52778985Y-40675000D01*
X52621015Y-40675000D01*
X52467635Y-40712803D01*
X52327761Y-40786216D01*
X52209515Y-40890971D01*
X52119780Y-41020976D01*
X52063763Y-41168681D01*
X52044721Y-41325500D01*
X52063763Y-41482318D01*
X52119780Y-41630023D01*
X52209515Y-41760028D01*
X52209516Y-41760029D01*
X52209517Y-41760030D01*
X52327760Y-41864783D01*
X52467635Y-41938196D01*
X52621015Y-41976000D01*
X52621016Y-41976000D01*
X52632385Y-41978802D01*
X52665749Y-41985439D01*
X52705977Y-42012319D01*
X61022545Y-50328887D01*
X61038672Y-50348746D01*
X61044610Y-50357836D01*
X61069588Y-50377277D01*
X61081105Y-50387448D01*
X61081176Y-50387519D01*
X61098092Y-50399597D01*
X61102200Y-50402660D01*
X61149736Y-50439659D01*
X61149927Y-50439756D01*
X61157494Y-50442009D01*
X61157496Y-50442010D01*
X61207669Y-50456947D01*
X61212499Y-50458494D01*
X61262035Y-50475500D01*
X61262037Y-50475500D01*
X61269494Y-50478060D01*
X61269728Y-50478094D01*
X61277604Y-50477768D01*
X61277607Y-50477769D01*
X61327922Y-50475687D01*
X61329902Y-50475606D01*
X61335026Y-50475500D01*
X62703692Y-50475500D01*
X62761319Y-50489704D01*
X62805743Y-50529062D01*
X62809515Y-50534528D01*
X62809516Y-50534529D01*
X62809517Y-50534530D01*
X62927760Y-50639283D01*
X63067635Y-50712696D01*
X63221015Y-50750500D01*
X63378985Y-50750500D01*
X63532365Y-50712696D01*
X63672240Y-50639283D01*
X63790483Y-50534530D01*
X63880220Y-50404523D01*
X63936237Y-50256818D01*
X63936890Y-50251438D01*
X63963541Y-50188446D01*
X64019537Y-50149168D01*
X64087839Y-50145554D01*
X64147667Y-50178704D01*
X66565481Y-52596518D01*
X66595017Y-52643749D01*
X66600896Y-52699144D01*
X66594721Y-52749998D01*
X66613763Y-52906818D01*
X66669780Y-53054523D01*
X66759515Y-53184528D01*
X66759516Y-53184529D01*
X66759517Y-53184530D01*
X66877760Y-53289283D01*
X67017635Y-53362696D01*
X67171015Y-53400500D01*
X67328985Y-53400500D01*
X67482365Y-53362696D01*
X67622240Y-53289283D01*
X67740483Y-53184530D01*
X67830220Y-53054523D01*
X67886237Y-52906818D01*
X67905278Y-52750000D01*
X67886237Y-52593182D01*
X67830220Y-52445477D01*
X67740483Y-52315470D01*
X67622240Y-52210717D01*
X67608994Y-52203765D01*
X67482364Y-52137303D01*
X67328985Y-52099500D01*
X67181900Y-52099500D01*
X67134447Y-52090061D01*
X67094219Y-52063181D01*
X60725587Y-45694549D01*
X60698707Y-45654321D01*
X60689268Y-45606868D01*
X60689268Y-38035792D01*
X60691907Y-38010346D01*
X60691945Y-38010163D01*
X60694135Y-37999720D01*
X60690220Y-37968313D01*
X60689268Y-37952976D01*
X60689268Y-37952879D01*
X60689268Y-37952875D01*
X60685838Y-37932325D01*
X60685110Y-37927329D01*
X60678633Y-37875363D01*
X60678632Y-37875362D01*
X60677656Y-37867527D01*
X60677589Y-37867320D01*
X60648928Y-37814357D01*
X60646582Y-37809801D01*
X60620129Y-37755690D01*
X60619993Y-37755508D01*
X60614187Y-37750163D01*
X60575672Y-37714707D01*
X60571999Y-37711182D01*
X60191222Y-37330405D01*
X60175095Y-37310547D01*
X60169156Y-37301456D01*
X60144183Y-37282019D01*
X60132666Y-37271848D01*
X60132592Y-37271774D01*
X60115667Y-37259691D01*
X60111553Y-37256624D01*
X60090195Y-37240000D01*
X69394785Y-37240000D01*
X69413602Y-37443083D01*
X69469418Y-37639251D01*
X69560324Y-37821818D01*
X69683236Y-37984580D01*
X69833958Y-38121981D01*
X70007361Y-38229347D01*
X70007363Y-38229348D01*
X70197544Y-38303024D01*
X70398024Y-38340500D01*
X70601974Y-38340500D01*
X70601976Y-38340500D01*
X70802456Y-38303024D01*
X70992637Y-38229348D01*
X71166041Y-38121981D01*
X71316764Y-37984579D01*
X71439673Y-37821821D01*
X71439673Y-37821819D01*
X71439675Y-37821818D01*
X71524323Y-37651819D01*
X71530582Y-37639250D01*
X71586397Y-37443083D01*
X71605215Y-37240000D01*
X71586397Y-37036917D01*
X71530582Y-36840750D01*
X71513686Y-36806818D01*
X71439675Y-36658181D01*
X71316763Y-36495419D01*
X71166041Y-36358018D01*
X70992638Y-36250652D01*
X70802457Y-36176976D01*
X70735629Y-36164484D01*
X70601976Y-36139500D01*
X70398024Y-36139500D01*
X70297784Y-36158237D01*
X70197542Y-36176976D01*
X70007361Y-36250652D01*
X69833958Y-36358018D01*
X69683236Y-36495419D01*
X69560324Y-36658181D01*
X69469418Y-36840748D01*
X69413602Y-37036916D01*
X69394785Y-37240000D01*
X60090195Y-37240000D01*
X60070262Y-37224485D01*
X60070259Y-37224484D01*
X60064036Y-37219640D01*
X60048036Y-37211404D01*
X60039430Y-37205259D01*
X60039924Y-37204566D01*
X60017683Y-37191680D01*
X59986223Y-37143059D01*
X59980275Y-37085454D01*
X60001132Y-37031433D01*
X60054220Y-36954523D01*
X60110237Y-36806818D01*
X60129278Y-36650000D01*
X60110237Y-36493182D01*
X60054220Y-36345477D01*
X59988767Y-36250651D01*
X59964484Y-36215471D01*
X59924513Y-36180060D01*
X59846240Y-36110717D01*
X59710136Y-36039283D01*
X59706364Y-36037303D01*
X59552985Y-35999500D01*
X59395015Y-35999500D01*
X59241635Y-36037303D01*
X59101761Y-36110716D01*
X58983515Y-36215471D01*
X58893779Y-36345476D01*
X58837274Y-36494471D01*
X58810761Y-36536398D01*
X58769936Y-36564577D01*
X58721332Y-36574500D01*
X55881594Y-36574500D01*
X55834141Y-36565061D01*
X55793913Y-36538181D01*
X55526806Y-36271074D01*
X55496672Y-36222067D01*
X55491899Y-36164736D01*
X55513512Y-36111420D01*
X55556858Y-36073598D01*
X55622240Y-36039283D01*
X55740483Y-35934530D01*
X55830220Y-35804523D01*
X55886237Y-35656818D01*
X55905278Y-35500000D01*
X55886237Y-35343182D01*
X55830220Y-35195477D01*
X55756159Y-35088181D01*
X55740484Y-35065471D01*
X55677339Y-35009530D01*
X55622240Y-34960717D01*
X55608994Y-34953764D01*
X55482364Y-34887303D01*
X55328985Y-34849500D01*
X55171015Y-34849500D01*
X55017635Y-34887303D01*
X54877761Y-34960716D01*
X54759515Y-35065471D01*
X54755743Y-35070938D01*
X54711319Y-35110296D01*
X54653692Y-35124500D01*
X54531399Y-35124500D01*
X54483946Y-35115061D01*
X54443718Y-35088181D01*
X54055537Y-34700000D01*
X69394785Y-34700000D01*
X69413602Y-34903083D01*
X69469418Y-35099251D01*
X69560324Y-35281818D01*
X69683236Y-35444580D01*
X69833958Y-35581981D01*
X70007361Y-35689347D01*
X70007363Y-35689348D01*
X70197544Y-35763024D01*
X70398024Y-35800500D01*
X70601974Y-35800500D01*
X70601976Y-35800500D01*
X70802456Y-35763024D01*
X70992637Y-35689348D01*
X71166041Y-35581981D01*
X71277471Y-35480399D01*
X71316763Y-35444580D01*
X71316764Y-35444579D01*
X71439673Y-35281821D01*
X71439673Y-35281819D01*
X71439675Y-35281818D01*
X71497677Y-35165333D01*
X71530582Y-35099250D01*
X71586397Y-34903083D01*
X71605215Y-34700000D01*
X71586397Y-34496917D01*
X71530582Y-34300750D01*
X71529076Y-34297725D01*
X71439675Y-34118181D01*
X71316763Y-33955419D01*
X71166041Y-33818018D01*
X70992638Y-33710652D01*
X70802457Y-33636976D01*
X70735629Y-33624484D01*
X70601976Y-33599500D01*
X70398024Y-33599500D01*
X70297783Y-33618238D01*
X70197542Y-33636976D01*
X70007361Y-33710652D01*
X69833958Y-33818018D01*
X69683236Y-33955419D01*
X69560324Y-34118181D01*
X69469418Y-34300748D01*
X69413602Y-34496916D01*
X69394785Y-34700000D01*
X54055537Y-34700000D01*
X53555037Y-34199500D01*
X52647094Y-33291556D01*
X52630967Y-33271698D01*
X52625028Y-33262607D01*
X52600055Y-33243170D01*
X52588538Y-33232999D01*
X52588464Y-33232925D01*
X52571539Y-33220842D01*
X52567425Y-33217775D01*
X52526134Y-33185636D01*
X52526131Y-33185635D01*
X52519908Y-33180791D01*
X52519706Y-33180687D01*
X52512145Y-33178435D01*
X52512144Y-33178435D01*
X52461981Y-33163500D01*
X52457119Y-33161942D01*
X52445725Y-33158031D01*
X52400147Y-33142384D01*
X52399914Y-33142351D01*
X52354855Y-33144214D01*
X52339751Y-33144839D01*
X52334629Y-33144945D01*
X33340455Y-33144945D01*
X33282828Y-33130741D01*
X33238404Y-33091383D01*
X33234631Y-33085916D01*
X33185038Y-33041981D01*
X33116387Y-32981162D01*
X33103141Y-32974209D01*
X32976511Y-32907748D01*
X32823132Y-32869945D01*
X32665162Y-32869945D01*
X32511782Y-32907748D01*
X32371908Y-32981161D01*
X32253662Y-33085916D01*
X32163927Y-33215921D01*
X32107910Y-33363626D01*
X32088868Y-33520444D01*
X32107910Y-33677263D01*
X32163927Y-33824968D01*
X32253662Y-33954973D01*
X32253663Y-33954974D01*
X32253664Y-33954975D01*
X32371907Y-34059728D01*
X32389901Y-34069172D01*
X32439660Y-34116967D01*
X32456172Y-34183960D01*
X32434324Y-34249406D01*
X32419779Y-34270477D01*
X32363763Y-34418181D01*
X32344721Y-34574999D01*
X32363763Y-34731818D01*
X32419780Y-34879523D01*
X32509517Y-35009530D01*
X32557545Y-35052078D01*
X32594422Y-35110393D01*
X32594423Y-35179391D01*
X32557546Y-35237708D01*
X32483050Y-35303705D01*
X32393314Y-35433711D01*
X32337297Y-35581416D01*
X32318255Y-35738234D01*
X32337297Y-35895053D01*
X32393314Y-36042758D01*
X32483049Y-36172763D01*
X32483050Y-36172764D01*
X32483051Y-36172765D01*
X32601294Y-36277518D01*
X32741169Y-36350931D01*
X32894549Y-36388735D01*
X33052519Y-36388735D01*
X33205899Y-36350931D01*
X33331358Y-36285084D01*
X33381494Y-36271107D01*
X33432953Y-36278939D01*
X33476663Y-36307200D01*
X35307282Y-38137819D01*
X35337532Y-38187182D01*
X35342074Y-38244898D01*
X35319919Y-38298385D01*
X35275896Y-38335985D01*
X35219601Y-38349500D01*
X32343600Y-38349500D01*
X32296147Y-38340061D01*
X32255919Y-38313181D01*
X29070268Y-35127530D01*
X25873850Y-31931111D01*
X25857723Y-31911253D01*
X25851784Y-31902162D01*
X25826811Y-31882725D01*
X25815294Y-31872554D01*
X25815220Y-31872480D01*
X25798295Y-31860397D01*
X25794181Y-31857330D01*
X25752890Y-31825191D01*
X25752887Y-31825190D01*
X25746664Y-31820346D01*
X25746462Y-31820242D01*
X25738901Y-31817990D01*
X25738900Y-31817990D01*
X25688737Y-31803055D01*
X25683875Y-31801497D01*
X25672481Y-31797586D01*
X25626903Y-31781939D01*
X25626670Y-31781906D01*
X25581611Y-31783769D01*
X25566507Y-31784394D01*
X25561385Y-31784500D01*
X20619186Y-31784500D01*
X20553908Y-31765927D01*
X20508186Y-31715771D01*
X20439675Y-31578181D01*
X20316763Y-31415419D01*
X20290126Y-31391137D01*
X20257230Y-31342150D01*
X20250700Y-31283504D01*
X20272016Y-31228481D01*
X20316351Y-31189540D01*
X20373664Y-31175500D01*
X21748195Y-31175500D01*
X21773641Y-31178139D01*
X21777440Y-31178935D01*
X21784268Y-31180367D01*
X21814138Y-31176643D01*
X21815677Y-31176452D01*
X21831014Y-31175500D01*
X21831111Y-31175500D01*
X21831114Y-31175500D01*
X21851643Y-31172073D01*
X21856659Y-31171342D01*
X21908626Y-31164866D01*
X21908628Y-31164864D01*
X21916457Y-31163889D01*
X21916666Y-31163822D01*
X21923607Y-31160065D01*
X21923610Y-31160065D01*
X21969666Y-31135140D01*
X21974144Y-31132835D01*
X22021211Y-31109826D01*
X22021212Y-31109824D01*
X22028308Y-31106356D01*
X22028476Y-31106230D01*
X22033824Y-31100419D01*
X22033826Y-31100419D01*
X22069294Y-31061889D01*
X22072795Y-31058240D01*
X28744217Y-24386819D01*
X28784446Y-24359939D01*
X28831899Y-24350500D01*
X30819100Y-24350500D01*
X30875395Y-24364015D01*
X30919418Y-24401615D01*
X30941573Y-24455102D01*
X30937031Y-24512818D01*
X30906781Y-24562181D01*
X30072214Y-25396746D01*
X30052360Y-25412870D01*
X30043271Y-25418808D01*
X30023828Y-25443788D01*
X30013669Y-25455292D01*
X30013590Y-25455370D01*
X30013585Y-25455376D01*
X30013586Y-25455376D01*
X30001496Y-25472308D01*
X29998447Y-25476398D01*
X29961460Y-25523918D01*
X29961343Y-25524147D01*
X29944163Y-25581849D01*
X29942601Y-25586725D01*
X29923046Y-25643689D01*
X29923012Y-25643924D01*
X29925500Y-25704086D01*
X29925606Y-25709210D01*
X29925606Y-33203676D01*
X29914681Y-33254567D01*
X29883834Y-33296489D01*
X29848185Y-33328072D01*
X29810621Y-33361350D01*
X29720886Y-33491355D01*
X29664869Y-33639060D01*
X29645827Y-33795879D01*
X29664869Y-33952697D01*
X29720886Y-34100402D01*
X29810621Y-34230407D01*
X29810622Y-34230408D01*
X29810623Y-34230409D01*
X29928866Y-34335162D01*
X30068741Y-34408575D01*
X30222121Y-34446379D01*
X30380091Y-34446379D01*
X30533471Y-34408575D01*
X30673346Y-34335162D01*
X30791589Y-34230409D01*
X30881326Y-34100402D01*
X30937343Y-33952697D01*
X30956384Y-33795879D01*
X30937343Y-33639061D01*
X30881326Y-33491356D01*
X30836457Y-33426352D01*
X30791590Y-33361350D01*
X30791589Y-33361349D01*
X30718377Y-33296489D01*
X30687531Y-33254567D01*
X30676606Y-33203676D01*
X30676606Y-32159999D01*
X69394785Y-32159999D01*
X69413602Y-32363083D01*
X69469418Y-32559251D01*
X69560324Y-32741818D01*
X69683236Y-32904580D01*
X69833958Y-33041981D01*
X70007361Y-33149347D01*
X70007363Y-33149348D01*
X70197544Y-33223024D01*
X70398024Y-33260500D01*
X70601974Y-33260500D01*
X70601976Y-33260500D01*
X70802456Y-33223024D01*
X70992637Y-33149348D01*
X71166041Y-33041981D01*
X71316764Y-32904579D01*
X71439673Y-32741821D01*
X71439673Y-32741819D01*
X71439675Y-32741818D01*
X71524323Y-32571819D01*
X71530582Y-32559250D01*
X71586397Y-32363083D01*
X71605215Y-32160000D01*
X71586397Y-31956917D01*
X71579054Y-31931111D01*
X71548917Y-31825191D01*
X71530582Y-31760750D01*
X71530209Y-31760001D01*
X71439675Y-31578181D01*
X71316763Y-31415419D01*
X71166041Y-31278018D01*
X70992638Y-31170652D01*
X70802457Y-31096976D01*
X70735629Y-31084483D01*
X70601976Y-31059500D01*
X70398024Y-31059500D01*
X70297784Y-31078237D01*
X70197542Y-31096976D01*
X70007361Y-31170652D01*
X69833958Y-31278018D01*
X69683236Y-31415419D01*
X69560324Y-31578181D01*
X69469418Y-31760748D01*
X69413602Y-31956916D01*
X69394785Y-32159999D01*
X30676606Y-32159999D01*
X30676606Y-29619999D01*
X32894785Y-29619999D01*
X32913602Y-29823083D01*
X32969418Y-30019251D01*
X33060324Y-30201818D01*
X33183236Y-30364580D01*
X33333958Y-30501981D01*
X33415062Y-30552198D01*
X33507363Y-30609348D01*
X33697544Y-30683024D01*
X33898024Y-30720500D01*
X34101974Y-30720500D01*
X34101976Y-30720500D01*
X34302456Y-30683024D01*
X34492637Y-30609348D01*
X34666041Y-30501981D01*
X34816764Y-30364579D01*
X34939673Y-30201821D01*
X34939673Y-30201819D01*
X34939675Y-30201818D01*
X34985313Y-30110161D01*
X35030582Y-30019250D01*
X35086397Y-29823083D01*
X35105215Y-29620000D01*
X36644785Y-29620000D01*
X36663602Y-29823083D01*
X36719418Y-30019251D01*
X36810324Y-30201818D01*
X36933236Y-30364580D01*
X37083958Y-30501981D01*
X37165062Y-30552198D01*
X37257363Y-30609348D01*
X37447544Y-30683024D01*
X37648024Y-30720500D01*
X37851974Y-30720500D01*
X37851976Y-30720500D01*
X38052456Y-30683024D01*
X38242637Y-30609348D01*
X38416041Y-30501981D01*
X38566764Y-30364579D01*
X38689673Y-30201821D01*
X38689673Y-30201819D01*
X38689675Y-30201818D01*
X38735313Y-30110161D01*
X38780582Y-30019250D01*
X38836397Y-29823083D01*
X38855215Y-29620000D01*
X40394785Y-29620000D01*
X40413602Y-29823083D01*
X40469418Y-30019251D01*
X40560324Y-30201818D01*
X40683236Y-30364580D01*
X40833958Y-30501981D01*
X40915062Y-30552198D01*
X41007363Y-30609348D01*
X41197544Y-30683024D01*
X41398024Y-30720500D01*
X41601974Y-30720500D01*
X41601976Y-30720500D01*
X41802456Y-30683024D01*
X41992637Y-30609348D01*
X42166041Y-30501981D01*
X42316764Y-30364579D01*
X42439673Y-30201821D01*
X42439673Y-30201819D01*
X42439675Y-30201818D01*
X42485313Y-30110161D01*
X42530582Y-30019250D01*
X42586397Y-29823083D01*
X42605215Y-29620000D01*
X44144785Y-29620000D01*
X44163602Y-29823083D01*
X44219418Y-30019251D01*
X44310324Y-30201818D01*
X44433236Y-30364580D01*
X44583958Y-30501981D01*
X44665062Y-30552198D01*
X44757363Y-30609348D01*
X44947544Y-30683024D01*
X45148024Y-30720500D01*
X45351974Y-30720500D01*
X45351976Y-30720500D01*
X45552456Y-30683024D01*
X45742637Y-30609348D01*
X45916041Y-30501981D01*
X46066764Y-30364579D01*
X46189673Y-30201821D01*
X46189673Y-30201819D01*
X46189675Y-30201818D01*
X46235313Y-30110161D01*
X46280582Y-30019250D01*
X46336397Y-29823083D01*
X46355215Y-29620000D01*
X47894785Y-29620000D01*
X47913602Y-29823083D01*
X47969418Y-30019251D01*
X48060324Y-30201818D01*
X48183236Y-30364580D01*
X48333958Y-30501981D01*
X48415062Y-30552198D01*
X48507363Y-30609348D01*
X48697544Y-30683024D01*
X48898024Y-30720500D01*
X49101974Y-30720500D01*
X49101976Y-30720500D01*
X49302456Y-30683024D01*
X49492637Y-30609348D01*
X49666041Y-30501981D01*
X49816764Y-30364579D01*
X49939673Y-30201821D01*
X49939673Y-30201819D01*
X49939675Y-30201818D01*
X49985313Y-30110161D01*
X50030582Y-30019250D01*
X50086397Y-29823083D01*
X50105215Y-29620000D01*
X51644785Y-29620000D01*
X51663602Y-29823083D01*
X51719418Y-30019251D01*
X51810324Y-30201818D01*
X51933236Y-30364580D01*
X52083958Y-30501981D01*
X52165062Y-30552198D01*
X52257363Y-30609348D01*
X52447544Y-30683024D01*
X52648024Y-30720500D01*
X52851974Y-30720500D01*
X52851976Y-30720500D01*
X53052456Y-30683024D01*
X53242637Y-30609348D01*
X53416041Y-30501981D01*
X53566764Y-30364579D01*
X53689673Y-30201821D01*
X53689673Y-30201819D01*
X53689675Y-30201818D01*
X53735313Y-30110161D01*
X53780582Y-30019250D01*
X53836397Y-29823083D01*
X53855215Y-29620000D01*
X55394785Y-29620000D01*
X55413602Y-29823083D01*
X55469418Y-30019251D01*
X55560324Y-30201818D01*
X55683236Y-30364580D01*
X55833958Y-30501981D01*
X55915062Y-30552198D01*
X56007363Y-30609348D01*
X56197544Y-30683024D01*
X56398024Y-30720500D01*
X56601974Y-30720500D01*
X56601976Y-30720500D01*
X56802456Y-30683024D01*
X56992637Y-30609348D01*
X57166041Y-30501981D01*
X57316764Y-30364579D01*
X57439673Y-30201821D01*
X57439673Y-30201819D01*
X57439675Y-30201818D01*
X57485313Y-30110161D01*
X57530582Y-30019250D01*
X57586397Y-29823083D01*
X57605215Y-29620000D01*
X59144785Y-29620000D01*
X59163602Y-29823083D01*
X59219418Y-30019251D01*
X59310324Y-30201818D01*
X59433236Y-30364580D01*
X59583958Y-30501981D01*
X59665062Y-30552198D01*
X59757363Y-30609348D01*
X59947544Y-30683024D01*
X60148024Y-30720500D01*
X60351974Y-30720500D01*
X60351976Y-30720500D01*
X60552456Y-30683024D01*
X60742637Y-30609348D01*
X60916041Y-30501981D01*
X61066764Y-30364579D01*
X61189673Y-30201821D01*
X61189673Y-30201819D01*
X61189675Y-30201818D01*
X61235313Y-30110161D01*
X61280582Y-30019250D01*
X61336397Y-29823083D01*
X61355215Y-29620000D01*
X69394785Y-29620000D01*
X69413602Y-29823083D01*
X69469418Y-30019251D01*
X69560324Y-30201818D01*
X69683236Y-30364580D01*
X69833958Y-30501981D01*
X69915062Y-30552198D01*
X70007363Y-30609348D01*
X70197544Y-30683024D01*
X70398024Y-30720500D01*
X70601974Y-30720500D01*
X70601976Y-30720500D01*
X70802456Y-30683024D01*
X70992637Y-30609348D01*
X71166041Y-30501981D01*
X71316764Y-30364579D01*
X71439673Y-30201821D01*
X71439673Y-30201819D01*
X71439675Y-30201818D01*
X71485313Y-30110161D01*
X71530582Y-30019250D01*
X71586397Y-29823083D01*
X71605215Y-29620000D01*
X71586397Y-29416917D01*
X71530582Y-29220750D01*
X71530209Y-29220001D01*
X71439675Y-29038181D01*
X71316763Y-28875419D01*
X71166041Y-28738018D01*
X70992638Y-28630652D01*
X70802457Y-28556976D01*
X70735629Y-28544483D01*
X70601976Y-28519500D01*
X70398024Y-28519500D01*
X70297784Y-28538237D01*
X70197542Y-28556976D01*
X70007361Y-28630652D01*
X69833958Y-28738018D01*
X69683236Y-28875419D01*
X69560324Y-29038181D01*
X69469418Y-29220748D01*
X69413602Y-29416916D01*
X69394785Y-29620000D01*
X61355215Y-29620000D01*
X61336397Y-29416917D01*
X61280582Y-29220750D01*
X61280209Y-29220001D01*
X61189675Y-29038181D01*
X61066763Y-28875419D01*
X60916041Y-28738018D01*
X60742638Y-28630652D01*
X60552457Y-28556976D01*
X60485629Y-28544483D01*
X60351976Y-28519500D01*
X60148024Y-28519500D01*
X60047784Y-28538237D01*
X59947542Y-28556976D01*
X59757361Y-28630652D01*
X59583958Y-28738018D01*
X59433236Y-28875419D01*
X59310324Y-29038181D01*
X59219418Y-29220748D01*
X59163602Y-29416916D01*
X59144785Y-29620000D01*
X57605215Y-29620000D01*
X57586397Y-29416917D01*
X57530582Y-29220750D01*
X57530209Y-29220001D01*
X57439675Y-29038181D01*
X57316763Y-28875419D01*
X57166041Y-28738018D01*
X56992638Y-28630652D01*
X56802457Y-28556976D01*
X56735629Y-28544483D01*
X56601976Y-28519500D01*
X56398024Y-28519500D01*
X56297784Y-28538237D01*
X56197542Y-28556976D01*
X56007361Y-28630652D01*
X55833958Y-28738018D01*
X55683236Y-28875419D01*
X55560324Y-29038181D01*
X55469418Y-29220748D01*
X55413602Y-29416916D01*
X55394785Y-29620000D01*
X53855215Y-29620000D01*
X53836397Y-29416917D01*
X53780582Y-29220750D01*
X53780209Y-29220001D01*
X53689675Y-29038181D01*
X53566763Y-28875419D01*
X53416041Y-28738018D01*
X53242638Y-28630652D01*
X53052457Y-28556976D01*
X52985629Y-28544483D01*
X52851976Y-28519500D01*
X52648024Y-28519500D01*
X52547784Y-28538237D01*
X52447542Y-28556976D01*
X52257361Y-28630652D01*
X52083958Y-28738018D01*
X51933236Y-28875419D01*
X51810324Y-29038181D01*
X51719418Y-29220748D01*
X51663602Y-29416916D01*
X51644785Y-29620000D01*
X50105215Y-29620000D01*
X50086397Y-29416917D01*
X50030582Y-29220750D01*
X50030209Y-29220001D01*
X49939675Y-29038181D01*
X49816763Y-28875419D01*
X49666041Y-28738018D01*
X49492638Y-28630652D01*
X49302457Y-28556976D01*
X49235629Y-28544483D01*
X49101976Y-28519500D01*
X48898024Y-28519500D01*
X48797784Y-28538237D01*
X48697542Y-28556976D01*
X48507361Y-28630652D01*
X48333958Y-28738018D01*
X48183236Y-28875419D01*
X48060324Y-29038181D01*
X47969418Y-29220748D01*
X47913602Y-29416916D01*
X47894785Y-29620000D01*
X46355215Y-29620000D01*
X46336397Y-29416917D01*
X46280582Y-29220750D01*
X46280209Y-29220001D01*
X46189675Y-29038181D01*
X46066763Y-28875419D01*
X45916041Y-28738018D01*
X45742638Y-28630652D01*
X45552457Y-28556976D01*
X45485629Y-28544483D01*
X45351976Y-28519500D01*
X45148024Y-28519500D01*
X45047784Y-28538237D01*
X44947542Y-28556976D01*
X44757361Y-28630652D01*
X44583958Y-28738018D01*
X44433236Y-28875419D01*
X44310324Y-29038181D01*
X44219418Y-29220748D01*
X44163602Y-29416916D01*
X44144785Y-29620000D01*
X42605215Y-29620000D01*
X42586397Y-29416917D01*
X42530582Y-29220750D01*
X42530209Y-29220001D01*
X42439675Y-29038181D01*
X42316763Y-28875419D01*
X42166041Y-28738018D01*
X41992638Y-28630652D01*
X41802457Y-28556976D01*
X41735629Y-28544483D01*
X41601976Y-28519500D01*
X41398024Y-28519500D01*
X41297784Y-28538237D01*
X41197542Y-28556976D01*
X41007361Y-28630652D01*
X40833958Y-28738018D01*
X40683236Y-28875419D01*
X40560324Y-29038181D01*
X40469418Y-29220748D01*
X40413602Y-29416916D01*
X40394785Y-29620000D01*
X38855215Y-29620000D01*
X38836397Y-29416917D01*
X38780582Y-29220750D01*
X38780209Y-29220001D01*
X38689675Y-29038181D01*
X38566763Y-28875419D01*
X38416041Y-28738018D01*
X38242638Y-28630652D01*
X38052457Y-28556976D01*
X37985629Y-28544483D01*
X37851976Y-28519500D01*
X37648024Y-28519500D01*
X37547784Y-28538237D01*
X37447542Y-28556976D01*
X37257361Y-28630652D01*
X37083958Y-28738018D01*
X36933236Y-28875419D01*
X36810324Y-29038181D01*
X36719418Y-29220748D01*
X36663602Y-29416916D01*
X36644785Y-29620000D01*
X35105215Y-29620000D01*
X35086397Y-29416917D01*
X35030582Y-29220750D01*
X35030209Y-29220001D01*
X34939675Y-29038181D01*
X34816763Y-28875419D01*
X34666041Y-28738018D01*
X34492638Y-28630652D01*
X34302457Y-28556976D01*
X34235629Y-28544483D01*
X34101976Y-28519500D01*
X33898024Y-28519500D01*
X33797784Y-28538237D01*
X33697542Y-28556976D01*
X33507361Y-28630652D01*
X33333958Y-28738018D01*
X33183236Y-28875419D01*
X33060324Y-29038181D01*
X32969418Y-29220748D01*
X32913602Y-29416916D01*
X32894785Y-29619999D01*
X30676606Y-29619999D01*
X30676606Y-25905793D01*
X30686045Y-25858340D01*
X30712925Y-25818112D01*
X31087249Y-25443788D01*
X31741036Y-24790000D01*
X32669364Y-24790000D01*
X32726569Y-25003492D01*
X32826399Y-25217576D01*
X32961893Y-25411081D01*
X33128918Y-25578106D01*
X33322423Y-25713600D01*
X33536508Y-25813430D01*
X33575584Y-25823901D01*
X33629261Y-25854125D01*
X33661771Y-25906449D01*
X33665090Y-25967961D01*
X33638399Y-26023479D01*
X33588285Y-26059303D01*
X33507360Y-26090653D01*
X33333958Y-26198018D01*
X33183236Y-26335419D01*
X33060324Y-26498181D01*
X32969418Y-26680748D01*
X32913602Y-26876916D01*
X32894785Y-27080000D01*
X32913602Y-27283083D01*
X32969418Y-27479251D01*
X33060324Y-27661818D01*
X33183236Y-27824580D01*
X33333958Y-27961981D01*
X33507361Y-28069347D01*
X33507363Y-28069348D01*
X33697544Y-28143024D01*
X33898024Y-28180500D01*
X34101974Y-28180500D01*
X34101976Y-28180500D01*
X34302456Y-28143024D01*
X34492637Y-28069348D01*
X34666041Y-27961981D01*
X34816764Y-27824579D01*
X34939673Y-27661821D01*
X34939673Y-27661819D01*
X34939675Y-27661818D01*
X34985313Y-27570161D01*
X35030582Y-27479250D01*
X35086397Y-27283083D01*
X35105215Y-27080000D01*
X35086397Y-26876917D01*
X35030582Y-26680750D01*
X35030209Y-26680001D01*
X34939675Y-26498181D01*
X34816763Y-26335419D01*
X34666041Y-26198018D01*
X34492640Y-26090653D01*
X34473382Y-26083192D01*
X34411712Y-26059301D01*
X34361600Y-26023479D01*
X34334909Y-25967961D01*
X34338228Y-25906449D01*
X34370738Y-25854124D01*
X34424416Y-25823901D01*
X34463490Y-25813431D01*
X34677576Y-25713600D01*
X34871081Y-25578106D01*
X35038106Y-25411081D01*
X35173600Y-25217576D01*
X35273430Y-25003492D01*
X35330636Y-24790000D01*
X36419364Y-24790000D01*
X36476569Y-25003492D01*
X36576399Y-25217576D01*
X36711893Y-25411081D01*
X36878918Y-25578106D01*
X37072423Y-25713600D01*
X37286508Y-25813430D01*
X37325584Y-25823901D01*
X37379261Y-25854125D01*
X37411771Y-25906449D01*
X37415090Y-25967961D01*
X37388399Y-26023479D01*
X37338285Y-26059303D01*
X37257360Y-26090653D01*
X37083958Y-26198018D01*
X36933236Y-26335419D01*
X36810324Y-26498181D01*
X36719418Y-26680748D01*
X36663602Y-26876916D01*
X36644785Y-27080000D01*
X36663602Y-27283083D01*
X36719418Y-27479251D01*
X36810324Y-27661818D01*
X36933236Y-27824580D01*
X37083958Y-27961981D01*
X37257361Y-28069347D01*
X37257363Y-28069348D01*
X37447544Y-28143024D01*
X37648024Y-28180500D01*
X37851974Y-28180500D01*
X37851976Y-28180500D01*
X38052456Y-28143024D01*
X38242637Y-28069348D01*
X38416041Y-27961981D01*
X38566764Y-27824579D01*
X38689673Y-27661821D01*
X38689673Y-27661819D01*
X38689675Y-27661818D01*
X38735313Y-27570161D01*
X38780582Y-27479250D01*
X38836397Y-27283083D01*
X38855215Y-27080000D01*
X38836397Y-26876917D01*
X38780582Y-26680750D01*
X38780209Y-26680001D01*
X38689675Y-26498181D01*
X38566763Y-26335419D01*
X38416041Y-26198018D01*
X38242640Y-26090653D01*
X38223382Y-26083192D01*
X38161712Y-26059301D01*
X38111600Y-26023479D01*
X38084909Y-25967961D01*
X38088228Y-25906449D01*
X38120738Y-25854124D01*
X38174416Y-25823901D01*
X38213490Y-25813431D01*
X38427576Y-25713600D01*
X38621081Y-25578106D01*
X38788106Y-25411081D01*
X38923600Y-25217576D01*
X39023430Y-25003492D01*
X39080636Y-24790000D01*
X40169364Y-24790000D01*
X40226569Y-25003492D01*
X40326399Y-25217576D01*
X40461893Y-25411081D01*
X40628918Y-25578106D01*
X40822423Y-25713600D01*
X41036508Y-25813430D01*
X41075584Y-25823901D01*
X41129261Y-25854125D01*
X41161771Y-25906449D01*
X41165090Y-25967961D01*
X41138399Y-26023479D01*
X41088285Y-26059303D01*
X41007360Y-26090653D01*
X40833958Y-26198018D01*
X40683236Y-26335419D01*
X40560324Y-26498181D01*
X40469418Y-26680748D01*
X40413602Y-26876916D01*
X40394785Y-27080000D01*
X40413602Y-27283083D01*
X40469418Y-27479251D01*
X40560324Y-27661818D01*
X40683236Y-27824580D01*
X40833958Y-27961981D01*
X41007361Y-28069347D01*
X41007363Y-28069348D01*
X41197544Y-28143024D01*
X41398024Y-28180500D01*
X41601974Y-28180500D01*
X41601976Y-28180500D01*
X41802456Y-28143024D01*
X41992637Y-28069348D01*
X42166041Y-27961981D01*
X42316764Y-27824579D01*
X42439673Y-27661821D01*
X42439673Y-27661819D01*
X42439675Y-27661818D01*
X42485313Y-27570161D01*
X42530582Y-27479250D01*
X42586397Y-27283083D01*
X42605215Y-27080000D01*
X42586397Y-26876917D01*
X42530582Y-26680750D01*
X42530209Y-26680001D01*
X42439675Y-26498181D01*
X42316763Y-26335419D01*
X42166041Y-26198018D01*
X41992640Y-26090653D01*
X41973382Y-26083192D01*
X41911712Y-26059301D01*
X41861600Y-26023479D01*
X41834909Y-25967961D01*
X41838228Y-25906449D01*
X41870738Y-25854124D01*
X41924416Y-25823901D01*
X41963490Y-25813431D01*
X42177576Y-25713600D01*
X42371081Y-25578106D01*
X42538106Y-25411081D01*
X42673600Y-25217576D01*
X42773430Y-25003492D01*
X42830636Y-24790000D01*
X43919364Y-24790000D01*
X43976569Y-25003492D01*
X44076399Y-25217576D01*
X44211893Y-25411081D01*
X44378918Y-25578106D01*
X44572423Y-25713600D01*
X44786508Y-25813430D01*
X44825584Y-25823901D01*
X44879261Y-25854125D01*
X44911771Y-25906449D01*
X44915090Y-25967961D01*
X44888399Y-26023479D01*
X44838285Y-26059303D01*
X44757360Y-26090653D01*
X44583958Y-26198018D01*
X44433236Y-26335419D01*
X44310324Y-26498181D01*
X44219418Y-26680748D01*
X44163602Y-26876916D01*
X44144785Y-27080000D01*
X44163602Y-27283083D01*
X44219418Y-27479251D01*
X44310324Y-27661818D01*
X44433236Y-27824580D01*
X44583958Y-27961981D01*
X44757361Y-28069347D01*
X44757363Y-28069348D01*
X44947544Y-28143024D01*
X45148024Y-28180500D01*
X45351974Y-28180500D01*
X45351976Y-28180500D01*
X45552456Y-28143024D01*
X45742637Y-28069348D01*
X45916041Y-27961981D01*
X46066764Y-27824579D01*
X46189673Y-27661821D01*
X46189673Y-27661819D01*
X46189675Y-27661818D01*
X46235313Y-27570161D01*
X46280582Y-27479250D01*
X46336397Y-27283083D01*
X46355215Y-27080000D01*
X46336397Y-26876917D01*
X46280582Y-26680750D01*
X46280209Y-26680001D01*
X46189675Y-26498181D01*
X46066763Y-26335419D01*
X45916041Y-26198018D01*
X45742640Y-26090653D01*
X45723382Y-26083192D01*
X45661712Y-26059301D01*
X45611600Y-26023479D01*
X45584909Y-25967961D01*
X45588228Y-25906449D01*
X45620738Y-25854124D01*
X45674416Y-25823901D01*
X45713490Y-25813431D01*
X45927576Y-25713600D01*
X46121081Y-25578106D01*
X46288106Y-25411081D01*
X46423600Y-25217576D01*
X46523430Y-25003492D01*
X46580636Y-24790000D01*
X47669364Y-24790000D01*
X47726569Y-25003492D01*
X47826399Y-25217576D01*
X47961893Y-25411081D01*
X48128918Y-25578106D01*
X48322423Y-25713600D01*
X48536508Y-25813430D01*
X48575584Y-25823901D01*
X48629261Y-25854125D01*
X48661771Y-25906449D01*
X48665090Y-25967961D01*
X48638399Y-26023479D01*
X48588285Y-26059303D01*
X48507360Y-26090653D01*
X48333958Y-26198018D01*
X48183236Y-26335419D01*
X48060324Y-26498181D01*
X47969418Y-26680748D01*
X47913602Y-26876916D01*
X47894785Y-27080000D01*
X47913602Y-27283083D01*
X47969418Y-27479251D01*
X48060324Y-27661818D01*
X48183236Y-27824580D01*
X48333958Y-27961981D01*
X48507361Y-28069347D01*
X48507363Y-28069348D01*
X48697544Y-28143024D01*
X48898024Y-28180500D01*
X49101974Y-28180500D01*
X49101976Y-28180500D01*
X49302456Y-28143024D01*
X49492637Y-28069348D01*
X49666041Y-27961981D01*
X49816764Y-27824579D01*
X49939673Y-27661821D01*
X49939673Y-27661819D01*
X49939675Y-27661818D01*
X49985313Y-27570161D01*
X50030582Y-27479250D01*
X50086397Y-27283083D01*
X50105215Y-27080000D01*
X50086397Y-26876917D01*
X50030582Y-26680750D01*
X50030209Y-26680001D01*
X49939675Y-26498181D01*
X49816763Y-26335419D01*
X49666041Y-26198018D01*
X49492640Y-26090653D01*
X49473382Y-26083192D01*
X49411712Y-26059301D01*
X49361600Y-26023479D01*
X49334909Y-25967961D01*
X49338228Y-25906449D01*
X49370738Y-25854124D01*
X49424416Y-25823901D01*
X49463490Y-25813431D01*
X49677576Y-25713600D01*
X49871081Y-25578106D01*
X50038106Y-25411081D01*
X50173600Y-25217576D01*
X50273430Y-25003492D01*
X50330636Y-24790000D01*
X51419364Y-24790000D01*
X51476569Y-25003492D01*
X51576399Y-25217576D01*
X51711893Y-25411081D01*
X51878918Y-25578106D01*
X52072423Y-25713600D01*
X52286508Y-25813430D01*
X52325584Y-25823901D01*
X52379261Y-25854125D01*
X52411771Y-25906449D01*
X52415090Y-25967961D01*
X52388399Y-26023479D01*
X52338285Y-26059303D01*
X52257360Y-26090653D01*
X52083958Y-26198018D01*
X51933236Y-26335419D01*
X51810324Y-26498181D01*
X51719418Y-26680748D01*
X51663602Y-26876916D01*
X51644785Y-27080000D01*
X51663602Y-27283083D01*
X51719418Y-27479251D01*
X51810324Y-27661818D01*
X51933236Y-27824580D01*
X52083958Y-27961981D01*
X52257361Y-28069347D01*
X52257363Y-28069348D01*
X52447544Y-28143024D01*
X52648024Y-28180500D01*
X52851974Y-28180500D01*
X52851976Y-28180500D01*
X53052456Y-28143024D01*
X53242637Y-28069348D01*
X53416041Y-27961981D01*
X53566764Y-27824579D01*
X53689673Y-27661821D01*
X53689673Y-27661819D01*
X53689675Y-27661818D01*
X53735313Y-27570161D01*
X53780582Y-27479250D01*
X53836397Y-27283083D01*
X53855215Y-27080000D01*
X53836397Y-26876917D01*
X53780582Y-26680750D01*
X53780209Y-26680001D01*
X53689675Y-26498181D01*
X53566763Y-26335419D01*
X53416041Y-26198018D01*
X53242640Y-26090653D01*
X53223382Y-26083192D01*
X53161712Y-26059301D01*
X53111600Y-26023479D01*
X53084909Y-25967961D01*
X53088228Y-25906449D01*
X53120738Y-25854124D01*
X53174416Y-25823901D01*
X53213490Y-25813431D01*
X53427576Y-25713600D01*
X53621081Y-25578106D01*
X53788106Y-25411081D01*
X53923600Y-25217576D01*
X54023430Y-25003492D01*
X54080636Y-24790000D01*
X55169364Y-24790000D01*
X55226569Y-25003492D01*
X55326399Y-25217576D01*
X55461893Y-25411081D01*
X55628918Y-25578106D01*
X55822423Y-25713600D01*
X56036508Y-25813430D01*
X56075584Y-25823901D01*
X56129261Y-25854125D01*
X56161771Y-25906449D01*
X56165090Y-25967961D01*
X56138399Y-26023479D01*
X56088285Y-26059303D01*
X56007360Y-26090653D01*
X55833958Y-26198018D01*
X55683236Y-26335419D01*
X55560324Y-26498181D01*
X55469418Y-26680748D01*
X55413602Y-26876916D01*
X55394785Y-27080000D01*
X55413602Y-27283083D01*
X55469418Y-27479251D01*
X55560324Y-27661818D01*
X55683236Y-27824580D01*
X55833958Y-27961981D01*
X56007361Y-28069347D01*
X56007363Y-28069348D01*
X56197544Y-28143024D01*
X56398024Y-28180500D01*
X56601974Y-28180500D01*
X56601976Y-28180500D01*
X56802456Y-28143024D01*
X56992637Y-28069348D01*
X57166041Y-27961981D01*
X57316764Y-27824579D01*
X57439673Y-27661821D01*
X57439673Y-27661819D01*
X57439675Y-27661818D01*
X57485313Y-27570161D01*
X57530582Y-27479250D01*
X57586397Y-27283083D01*
X57605215Y-27080000D01*
X57586397Y-26876917D01*
X57530582Y-26680750D01*
X57530209Y-26680001D01*
X57439675Y-26498181D01*
X57316763Y-26335419D01*
X57166041Y-26198018D01*
X56992640Y-26090653D01*
X56973382Y-26083192D01*
X56911712Y-26059301D01*
X56861600Y-26023479D01*
X56834909Y-25967961D01*
X56838228Y-25906449D01*
X56870738Y-25854124D01*
X56924416Y-25823901D01*
X56963490Y-25813431D01*
X57177576Y-25713600D01*
X57371081Y-25578106D01*
X57538106Y-25411081D01*
X57673600Y-25217576D01*
X57773430Y-25003492D01*
X57830636Y-24790000D01*
X58919364Y-24790000D01*
X58976569Y-25003492D01*
X59076399Y-25217576D01*
X59211893Y-25411081D01*
X59378918Y-25578106D01*
X59572423Y-25713600D01*
X59786508Y-25813430D01*
X59825584Y-25823901D01*
X59879261Y-25854125D01*
X59911771Y-25906449D01*
X59915090Y-25967961D01*
X59888399Y-26023479D01*
X59838285Y-26059303D01*
X59757360Y-26090653D01*
X59583958Y-26198018D01*
X59433236Y-26335419D01*
X59310324Y-26498181D01*
X59219418Y-26680748D01*
X59163602Y-26876916D01*
X59144785Y-27080000D01*
X59163602Y-27283083D01*
X59219418Y-27479251D01*
X59310324Y-27661818D01*
X59433236Y-27824580D01*
X59583958Y-27961981D01*
X59757361Y-28069347D01*
X59757363Y-28069348D01*
X59947544Y-28143024D01*
X60148024Y-28180500D01*
X60351974Y-28180500D01*
X60351976Y-28180500D01*
X60552456Y-28143024D01*
X60742637Y-28069348D01*
X60916041Y-27961981D01*
X61066764Y-27824579D01*
X61189673Y-27661821D01*
X61189673Y-27661819D01*
X61189675Y-27661818D01*
X61235313Y-27570161D01*
X61280582Y-27479250D01*
X61336397Y-27283083D01*
X61355215Y-27080000D01*
X61336397Y-26876917D01*
X61280582Y-26680750D01*
X61280209Y-26680001D01*
X61189675Y-26498181D01*
X61066763Y-26335419D01*
X60916041Y-26198018D01*
X60742640Y-26090653D01*
X60723382Y-26083192D01*
X60661712Y-26059301D01*
X60611600Y-26023479D01*
X60584909Y-25967961D01*
X60588228Y-25906449D01*
X60620738Y-25854124D01*
X60674416Y-25823901D01*
X60713490Y-25813431D01*
X60927576Y-25713600D01*
X61121081Y-25578106D01*
X61288106Y-25411081D01*
X61423600Y-25217576D01*
X61523430Y-25003492D01*
X61580636Y-24790000D01*
X69169364Y-24790000D01*
X69226569Y-25003492D01*
X69326399Y-25217576D01*
X69461893Y-25411081D01*
X69628918Y-25578106D01*
X69822423Y-25713600D01*
X70036508Y-25813430D01*
X70075584Y-25823901D01*
X70129261Y-25854125D01*
X70161771Y-25906449D01*
X70165090Y-25967961D01*
X70138399Y-26023479D01*
X70088285Y-26059303D01*
X70007360Y-26090653D01*
X69833958Y-26198018D01*
X69683236Y-26335419D01*
X69560324Y-26498181D01*
X69469418Y-26680748D01*
X69413602Y-26876916D01*
X69394785Y-27080000D01*
X69413602Y-27283083D01*
X69469418Y-27479251D01*
X69560324Y-27661818D01*
X69683236Y-27824580D01*
X69833958Y-27961981D01*
X70007361Y-28069347D01*
X70007363Y-28069348D01*
X70197544Y-28143024D01*
X70398024Y-28180500D01*
X70601974Y-28180500D01*
X70601976Y-28180500D01*
X70802456Y-28143024D01*
X70992637Y-28069348D01*
X71166041Y-27961981D01*
X71316764Y-27824579D01*
X71439673Y-27661821D01*
X71439673Y-27661819D01*
X71439675Y-27661818D01*
X71485313Y-27570161D01*
X71530582Y-27479250D01*
X71586397Y-27283083D01*
X71605215Y-27080000D01*
X71586397Y-26876917D01*
X71530582Y-26680750D01*
X71530209Y-26680001D01*
X71439675Y-26498181D01*
X71316763Y-26335419D01*
X71166041Y-26198018D01*
X70992640Y-26090653D01*
X70973382Y-26083192D01*
X70911712Y-26059301D01*
X70861600Y-26023479D01*
X70834909Y-25967961D01*
X70838228Y-25906449D01*
X70870738Y-25854124D01*
X70924416Y-25823901D01*
X70963490Y-25813431D01*
X71177576Y-25713600D01*
X71371081Y-25578106D01*
X71538106Y-25411081D01*
X71673600Y-25217576D01*
X71773430Y-25003492D01*
X71830636Y-24790000D01*
X69169364Y-24790000D01*
X61580636Y-24790000D01*
X58919364Y-24790000D01*
X57830636Y-24790000D01*
X55169364Y-24790000D01*
X54080636Y-24790000D01*
X51419364Y-24790000D01*
X50330636Y-24790000D01*
X47669364Y-24790000D01*
X46580636Y-24790000D01*
X43919364Y-24790000D01*
X42830636Y-24790000D01*
X40169364Y-24790000D01*
X39080636Y-24790000D01*
X36419364Y-24790000D01*
X35330636Y-24790000D01*
X32669364Y-24790000D01*
X31741036Y-24790000D01*
X32239056Y-24291979D01*
X32253483Y-24281223D01*
X32258826Y-24275419D01*
X32294294Y-24236889D01*
X32297795Y-24233240D01*
X32498915Y-24032121D01*
X32554499Y-24000029D01*
X32618686Y-24000029D01*
X32674274Y-24032123D01*
X32706368Y-24087710D01*
X32706368Y-24151897D01*
X32669363Y-24289999D01*
X32669364Y-24290000D01*
X35330636Y-24290000D01*
X36419364Y-24290000D01*
X39080636Y-24290000D01*
X40169364Y-24290000D01*
X42830636Y-24290000D01*
X43919364Y-24290000D01*
X46580636Y-24290000D01*
X47669364Y-24290000D01*
X50330636Y-24290000D01*
X51419364Y-24290000D01*
X54080636Y-24290000D01*
X55169364Y-24290000D01*
X57830636Y-24290000D01*
X58919364Y-24290000D01*
X61580636Y-24290000D01*
X69169364Y-24290000D01*
X71830636Y-24290000D01*
X71830635Y-24289999D01*
X71773430Y-24076507D01*
X71673599Y-23862421D01*
X71538109Y-23668921D01*
X71371081Y-23501893D01*
X71177576Y-23366399D01*
X71114277Y-23336882D01*
X71063881Y-23293840D01*
X71042852Y-23230990D01*
X71057197Y-23166285D01*
X71102817Y-23118211D01*
X71166682Y-23100500D01*
X71374675Y-23100500D01*
X71399029Y-23095655D01*
X71447740Y-23085966D01*
X71530601Y-23030601D01*
X71585966Y-22947740D01*
X71600500Y-22874674D01*
X71600500Y-21125326D01*
X71585966Y-21052260D01*
X71530601Y-20969399D01*
X71447740Y-20914034D01*
X71447739Y-20914033D01*
X71447738Y-20914033D01*
X71374675Y-20899500D01*
X71374674Y-20899500D01*
X69625326Y-20899500D01*
X69625325Y-20899500D01*
X69552261Y-20914033D01*
X69469399Y-20969399D01*
X69414033Y-21052261D01*
X69399500Y-21125325D01*
X69399500Y-22874675D01*
X69414033Y-22947738D01*
X69414033Y-22947739D01*
X69414034Y-22947740D01*
X69469399Y-23030601D01*
X69552260Y-23085966D01*
X69588793Y-23093233D01*
X69625325Y-23100500D01*
X69833318Y-23100500D01*
X69897183Y-23118211D01*
X69942803Y-23166285D01*
X69957148Y-23230989D01*
X69936119Y-23293839D01*
X69885723Y-23336882D01*
X69822421Y-23366400D01*
X69628921Y-23501890D01*
X69461890Y-23668921D01*
X69326400Y-23862421D01*
X69226569Y-24076507D01*
X69169364Y-24289999D01*
X69169364Y-24290000D01*
X61580636Y-24290000D01*
X61580635Y-24289999D01*
X61523430Y-24076507D01*
X61423599Y-23862421D01*
X61288109Y-23668921D01*
X61121081Y-23501893D01*
X60927576Y-23366399D01*
X60864277Y-23336882D01*
X60813881Y-23293840D01*
X60792852Y-23230990D01*
X60807197Y-23166285D01*
X60852817Y-23118211D01*
X60916682Y-23100500D01*
X61124675Y-23100500D01*
X61149029Y-23095655D01*
X61197740Y-23085966D01*
X61280601Y-23030601D01*
X61335966Y-22947740D01*
X61350500Y-22874674D01*
X61350500Y-21125326D01*
X61335966Y-21052260D01*
X61280601Y-20969399D01*
X61197740Y-20914034D01*
X61197739Y-20914033D01*
X61197738Y-20914033D01*
X61124675Y-20899500D01*
X61124674Y-20899500D01*
X59375326Y-20899500D01*
X59375325Y-20899500D01*
X59302261Y-20914033D01*
X59219399Y-20969399D01*
X59164033Y-21052261D01*
X59149500Y-21125325D01*
X59149500Y-22874675D01*
X59164033Y-22947738D01*
X59164033Y-22947739D01*
X59164034Y-22947740D01*
X59219399Y-23030601D01*
X59302260Y-23085966D01*
X59338793Y-23093233D01*
X59375325Y-23100500D01*
X59583318Y-23100500D01*
X59647183Y-23118211D01*
X59692803Y-23166285D01*
X59707148Y-23230989D01*
X59686119Y-23293839D01*
X59635723Y-23336882D01*
X59572421Y-23366400D01*
X59378921Y-23501890D01*
X59211890Y-23668921D01*
X59076400Y-23862421D01*
X58976569Y-24076507D01*
X58919364Y-24289999D01*
X58919364Y-24290000D01*
X57830636Y-24290000D01*
X57830635Y-24289999D01*
X57773430Y-24076507D01*
X57673599Y-23862421D01*
X57538109Y-23668921D01*
X57371081Y-23501893D01*
X57177576Y-23366399D01*
X57114277Y-23336882D01*
X57063881Y-23293840D01*
X57042852Y-23230990D01*
X57057197Y-23166285D01*
X57102817Y-23118211D01*
X57166682Y-23100500D01*
X57374675Y-23100500D01*
X57399029Y-23095655D01*
X57447740Y-23085966D01*
X57530601Y-23030601D01*
X57585966Y-22947740D01*
X57600500Y-22874674D01*
X57600500Y-21125326D01*
X57585966Y-21052260D01*
X57530601Y-20969399D01*
X57447740Y-20914034D01*
X57447739Y-20914033D01*
X57447738Y-20914033D01*
X57374675Y-20899500D01*
X57374674Y-20899500D01*
X55625326Y-20899500D01*
X55625325Y-20899500D01*
X55552261Y-20914033D01*
X55469399Y-20969399D01*
X55414033Y-21052261D01*
X55399500Y-21125325D01*
X55399500Y-22874675D01*
X55414033Y-22947738D01*
X55414033Y-22947739D01*
X55414034Y-22947740D01*
X55469399Y-23030601D01*
X55552260Y-23085966D01*
X55588793Y-23093233D01*
X55625325Y-23100500D01*
X55833318Y-23100500D01*
X55897183Y-23118211D01*
X55942803Y-23166285D01*
X55957148Y-23230989D01*
X55936119Y-23293839D01*
X55885723Y-23336882D01*
X55822421Y-23366400D01*
X55628921Y-23501890D01*
X55461890Y-23668921D01*
X55326400Y-23862421D01*
X55226569Y-24076507D01*
X55169364Y-24289999D01*
X55169364Y-24290000D01*
X54080636Y-24290000D01*
X54080635Y-24289999D01*
X54023430Y-24076507D01*
X53923599Y-23862421D01*
X53788109Y-23668921D01*
X53621081Y-23501893D01*
X53427576Y-23366399D01*
X53364277Y-23336882D01*
X53313881Y-23293840D01*
X53292852Y-23230990D01*
X53307197Y-23166285D01*
X53352817Y-23118211D01*
X53416682Y-23100500D01*
X53624675Y-23100500D01*
X53649029Y-23095655D01*
X53697740Y-23085966D01*
X53780601Y-23030601D01*
X53835966Y-22947740D01*
X53850500Y-22874674D01*
X53850500Y-21125326D01*
X53835966Y-21052260D01*
X53780601Y-20969399D01*
X53697740Y-20914034D01*
X53697739Y-20914033D01*
X53697738Y-20914033D01*
X53624675Y-20899500D01*
X53624674Y-20899500D01*
X51875326Y-20899500D01*
X51875325Y-20899500D01*
X51802261Y-20914033D01*
X51719399Y-20969399D01*
X51664033Y-21052261D01*
X51649500Y-21125325D01*
X51649500Y-22874675D01*
X51664033Y-22947738D01*
X51664033Y-22947739D01*
X51664034Y-22947740D01*
X51719399Y-23030601D01*
X51802260Y-23085966D01*
X51838793Y-23093233D01*
X51875325Y-23100500D01*
X52083318Y-23100500D01*
X52147183Y-23118211D01*
X52192803Y-23166285D01*
X52207148Y-23230989D01*
X52186119Y-23293839D01*
X52135723Y-23336882D01*
X52072421Y-23366400D01*
X51878921Y-23501890D01*
X51711890Y-23668921D01*
X51576400Y-23862421D01*
X51476569Y-24076507D01*
X51419364Y-24289999D01*
X51419364Y-24290000D01*
X50330636Y-24290000D01*
X50330635Y-24289999D01*
X50273430Y-24076507D01*
X50173599Y-23862421D01*
X50038109Y-23668921D01*
X49871081Y-23501893D01*
X49677576Y-23366399D01*
X49614277Y-23336882D01*
X49563881Y-23293840D01*
X49542852Y-23230990D01*
X49557197Y-23166285D01*
X49602817Y-23118211D01*
X49666682Y-23100500D01*
X49874675Y-23100500D01*
X49899029Y-23095655D01*
X49947740Y-23085966D01*
X50030601Y-23030601D01*
X50085966Y-22947740D01*
X50100500Y-22874674D01*
X50100500Y-21125326D01*
X50085966Y-21052260D01*
X50030601Y-20969399D01*
X49947740Y-20914034D01*
X49947739Y-20914033D01*
X49947738Y-20914033D01*
X49874675Y-20899500D01*
X49874674Y-20899500D01*
X48125326Y-20899500D01*
X48125325Y-20899500D01*
X48052261Y-20914033D01*
X47969399Y-20969399D01*
X47914033Y-21052261D01*
X47899500Y-21125325D01*
X47899500Y-22874675D01*
X47914033Y-22947738D01*
X47914033Y-22947739D01*
X47914034Y-22947740D01*
X47969399Y-23030601D01*
X48052260Y-23085966D01*
X48088793Y-23093233D01*
X48125325Y-23100500D01*
X48333318Y-23100500D01*
X48397183Y-23118211D01*
X48442803Y-23166285D01*
X48457148Y-23230989D01*
X48436119Y-23293839D01*
X48385723Y-23336882D01*
X48322421Y-23366400D01*
X48128921Y-23501890D01*
X47961890Y-23668921D01*
X47826400Y-23862421D01*
X47726569Y-24076507D01*
X47669364Y-24289999D01*
X47669364Y-24290000D01*
X46580636Y-24290000D01*
X46580635Y-24289999D01*
X46523430Y-24076507D01*
X46423599Y-23862421D01*
X46288109Y-23668921D01*
X46121081Y-23501893D01*
X45927576Y-23366399D01*
X45864277Y-23336882D01*
X45813881Y-23293840D01*
X45792852Y-23230990D01*
X45807197Y-23166285D01*
X45852817Y-23118211D01*
X45916682Y-23100500D01*
X46124675Y-23100500D01*
X46149029Y-23095655D01*
X46197740Y-23085966D01*
X46280601Y-23030601D01*
X46335966Y-22947740D01*
X46350500Y-22874674D01*
X46350500Y-21125326D01*
X46335966Y-21052260D01*
X46280601Y-20969399D01*
X46197740Y-20914034D01*
X46197739Y-20914033D01*
X46197738Y-20914033D01*
X46124675Y-20899500D01*
X46124674Y-20899500D01*
X44375326Y-20899500D01*
X44375325Y-20899500D01*
X44302261Y-20914033D01*
X44219399Y-20969399D01*
X44164033Y-21052261D01*
X44149500Y-21125325D01*
X44149500Y-22874675D01*
X44164033Y-22947738D01*
X44164033Y-22947739D01*
X44164034Y-22947740D01*
X44219399Y-23030601D01*
X44302260Y-23085966D01*
X44338793Y-23093233D01*
X44375325Y-23100500D01*
X44583318Y-23100500D01*
X44647183Y-23118211D01*
X44692803Y-23166285D01*
X44707148Y-23230989D01*
X44686119Y-23293839D01*
X44635723Y-23336882D01*
X44572421Y-23366400D01*
X44378921Y-23501890D01*
X44211890Y-23668921D01*
X44076400Y-23862421D01*
X43976569Y-24076507D01*
X43919364Y-24289999D01*
X43919364Y-24290000D01*
X42830636Y-24290000D01*
X42830635Y-24289999D01*
X42773430Y-24076507D01*
X42673599Y-23862421D01*
X42538109Y-23668921D01*
X42371081Y-23501893D01*
X42177576Y-23366399D01*
X42114277Y-23336882D01*
X42063881Y-23293840D01*
X42042852Y-23230990D01*
X42057197Y-23166285D01*
X42102817Y-23118211D01*
X42166682Y-23100500D01*
X42374675Y-23100500D01*
X42399029Y-23095655D01*
X42447740Y-23085966D01*
X42530601Y-23030601D01*
X42585966Y-22947740D01*
X42600500Y-22874674D01*
X42600500Y-21125326D01*
X42585966Y-21052260D01*
X42530601Y-20969399D01*
X42447740Y-20914034D01*
X42447739Y-20914033D01*
X42447738Y-20914033D01*
X42374675Y-20899500D01*
X42374674Y-20899500D01*
X40625326Y-20899500D01*
X40625325Y-20899500D01*
X40552261Y-20914033D01*
X40469399Y-20969399D01*
X40414033Y-21052261D01*
X40399500Y-21125325D01*
X40399500Y-22874675D01*
X40414033Y-22947738D01*
X40414033Y-22947739D01*
X40414034Y-22947740D01*
X40469399Y-23030601D01*
X40552260Y-23085966D01*
X40588793Y-23093233D01*
X40625325Y-23100500D01*
X40833318Y-23100500D01*
X40897183Y-23118211D01*
X40942803Y-23166285D01*
X40957148Y-23230989D01*
X40936119Y-23293839D01*
X40885723Y-23336882D01*
X40822421Y-23366400D01*
X40628921Y-23501890D01*
X40461890Y-23668921D01*
X40326400Y-23862421D01*
X40226569Y-24076507D01*
X40169364Y-24289999D01*
X40169364Y-24290000D01*
X39080636Y-24290000D01*
X39080635Y-24289999D01*
X39023430Y-24076507D01*
X38923599Y-23862421D01*
X38788109Y-23668921D01*
X38621081Y-23501893D01*
X38427576Y-23366399D01*
X38364277Y-23336882D01*
X38313881Y-23293840D01*
X38292852Y-23230990D01*
X38307197Y-23166285D01*
X38352817Y-23118211D01*
X38416682Y-23100500D01*
X38624675Y-23100500D01*
X38649029Y-23095655D01*
X38697740Y-23085966D01*
X38780601Y-23030601D01*
X38835966Y-22947740D01*
X38850500Y-22874674D01*
X38850500Y-21125326D01*
X38835966Y-21052260D01*
X38780601Y-20969399D01*
X38697740Y-20914034D01*
X38697739Y-20914033D01*
X38697738Y-20914033D01*
X38624675Y-20899500D01*
X38624674Y-20899500D01*
X36875326Y-20899500D01*
X36875325Y-20899500D01*
X36802261Y-20914033D01*
X36719399Y-20969399D01*
X36664033Y-21052261D01*
X36649500Y-21125325D01*
X36649500Y-22874675D01*
X36664033Y-22947738D01*
X36664033Y-22947739D01*
X36664034Y-22947740D01*
X36719399Y-23030601D01*
X36802260Y-23085966D01*
X36838793Y-23093233D01*
X36875325Y-23100500D01*
X37083318Y-23100500D01*
X37147183Y-23118211D01*
X37192803Y-23166285D01*
X37207148Y-23230989D01*
X37186119Y-23293839D01*
X37135723Y-23336882D01*
X37072421Y-23366400D01*
X36878921Y-23501890D01*
X36711890Y-23668921D01*
X36576400Y-23862421D01*
X36476569Y-24076507D01*
X36419364Y-24289999D01*
X36419364Y-24290000D01*
X35330636Y-24290000D01*
X35330635Y-24289999D01*
X35273430Y-24076507D01*
X35173599Y-23862421D01*
X35038109Y-23668921D01*
X34871081Y-23501893D01*
X34677576Y-23366399D01*
X34614277Y-23336882D01*
X34563881Y-23293840D01*
X34542852Y-23230990D01*
X34557197Y-23166285D01*
X34602817Y-23118211D01*
X34666682Y-23100500D01*
X34874675Y-23100500D01*
X34899029Y-23095655D01*
X34947740Y-23085966D01*
X35030601Y-23030601D01*
X35085966Y-22947740D01*
X35100500Y-22874674D01*
X35100500Y-21125326D01*
X35085966Y-21052260D01*
X35030601Y-20969399D01*
X34947740Y-20914034D01*
X34947739Y-20914033D01*
X34947738Y-20914033D01*
X34874675Y-20899500D01*
X34874674Y-20899500D01*
X33125326Y-20899500D01*
X33125325Y-20899500D01*
X33052261Y-20914033D01*
X32969399Y-20969399D01*
X32914033Y-21052261D01*
X32899500Y-21125325D01*
X32899500Y-22518101D01*
X32890061Y-22565554D01*
X32863181Y-22605782D01*
X32368463Y-23100500D01*
X31905781Y-23563181D01*
X31865553Y-23590061D01*
X31818100Y-23599500D01*
X28676804Y-23599500D01*
X28651358Y-23596861D01*
X28640732Y-23594633D01*
X28609323Y-23598548D01*
X28593986Y-23599500D01*
X28593884Y-23599500D01*
X28573381Y-23602920D01*
X28568320Y-23603657D01*
X28508572Y-23611105D01*
X28508308Y-23611190D01*
X28455365Y-23639840D01*
X28450814Y-23642183D01*
X28396718Y-23668630D01*
X28396505Y-23668788D01*
X28355718Y-23713094D01*
X28352171Y-23716790D01*
X21680781Y-30388181D01*
X21640553Y-30415061D01*
X21593100Y-30424500D01*
X20520539Y-30424500D01*
X20455261Y-30405927D01*
X20409539Y-30355771D01*
X20397068Y-30289058D01*
X20421583Y-30225774D01*
X20439673Y-30201821D01*
X20530582Y-30019250D01*
X20586397Y-29823083D01*
X20605215Y-29620000D01*
X20586397Y-29416917D01*
X20530582Y-29220750D01*
X20530209Y-29220001D01*
X20439675Y-29038181D01*
X20316763Y-28875419D01*
X20166041Y-28738018D01*
X19992638Y-28630652D01*
X19802457Y-28556976D01*
X19735629Y-28544483D01*
X19601976Y-28519500D01*
X19398024Y-28519500D01*
X19297784Y-28538237D01*
X19197542Y-28556976D01*
X19007361Y-28630652D01*
X18833958Y-28738018D01*
X18683236Y-28875419D01*
X18560324Y-29038181D01*
X18469418Y-29220748D01*
X18413602Y-29416916D01*
X18394785Y-29619999D01*
X18413602Y-29823083D01*
X18469418Y-30019251D01*
X18560324Y-30201818D01*
X18683236Y-30364580D01*
X18806683Y-30477116D01*
X18841875Y-30532986D01*
X18843400Y-30598998D01*
X18810826Y-30656434D01*
X18096108Y-31371151D01*
X18076254Y-31387275D01*
X18067165Y-31393213D01*
X18047722Y-31418193D01*
X18037563Y-31429697D01*
X18037484Y-31429775D01*
X18037479Y-31429781D01*
X18037480Y-31429781D01*
X18025390Y-31446713D01*
X18022341Y-31450803D01*
X17985354Y-31498323D01*
X17985237Y-31498552D01*
X17968057Y-31556254D01*
X17966495Y-31561130D01*
X17946940Y-31618094D01*
X17946906Y-31618329D01*
X17949394Y-31678491D01*
X17949500Y-31683615D01*
X17949500Y-49393195D01*
X17946861Y-49418641D01*
X17944633Y-49429268D01*
X15000500Y-49429268D01*
X15000500Y-24790000D01*
X18169364Y-24790000D01*
X18226569Y-25003492D01*
X18326399Y-25217576D01*
X18461893Y-25411081D01*
X18628918Y-25578106D01*
X18822423Y-25713600D01*
X19036508Y-25813430D01*
X19075584Y-25823901D01*
X19129261Y-25854125D01*
X19161771Y-25906449D01*
X19165090Y-25967961D01*
X19138399Y-26023479D01*
X19088285Y-26059303D01*
X19007360Y-26090653D01*
X18833958Y-26198018D01*
X18683236Y-26335419D01*
X18560324Y-26498181D01*
X18469418Y-26680748D01*
X18413602Y-26876916D01*
X18394785Y-27079999D01*
X18413602Y-27283083D01*
X18469418Y-27479251D01*
X18560324Y-27661818D01*
X18683236Y-27824580D01*
X18833958Y-27961981D01*
X19007361Y-28069347D01*
X19007363Y-28069348D01*
X19197544Y-28143024D01*
X19398024Y-28180500D01*
X19601974Y-28180500D01*
X19601976Y-28180500D01*
X19802456Y-28143024D01*
X19992637Y-28069348D01*
X20166041Y-27961981D01*
X20316764Y-27824579D01*
X20439673Y-27661821D01*
X20439673Y-27661819D01*
X20439675Y-27661818D01*
X20485313Y-27570161D01*
X20530582Y-27479250D01*
X20586397Y-27283083D01*
X20605215Y-27080000D01*
X20586397Y-26876917D01*
X20530582Y-26680750D01*
X20530209Y-26680001D01*
X20439675Y-26498181D01*
X20316763Y-26335419D01*
X20166041Y-26198018D01*
X19992640Y-26090653D01*
X19973382Y-26083192D01*
X19911712Y-26059301D01*
X19861600Y-26023479D01*
X19834909Y-25967961D01*
X19838228Y-25906449D01*
X19870738Y-25854124D01*
X19924416Y-25823901D01*
X19963490Y-25813431D01*
X20177576Y-25713600D01*
X20371081Y-25578106D01*
X20538106Y-25411081D01*
X20673600Y-25217576D01*
X20773430Y-25003492D01*
X20830636Y-24790000D01*
X18169364Y-24790000D01*
X15000500Y-24790000D01*
X15000500Y-24290000D01*
X18169364Y-24290000D01*
X20830636Y-24290000D01*
X20830635Y-24289999D01*
X20773430Y-24076507D01*
X20673599Y-23862421D01*
X20538109Y-23668921D01*
X20371081Y-23501893D01*
X20177576Y-23366399D01*
X20114277Y-23336882D01*
X20063881Y-23293840D01*
X20042852Y-23230990D01*
X20057197Y-23166285D01*
X20102817Y-23118211D01*
X20166682Y-23100500D01*
X20374675Y-23100500D01*
X20399029Y-23095655D01*
X20447740Y-23085966D01*
X20530601Y-23030601D01*
X20585966Y-22947740D01*
X20600500Y-22874674D01*
X20600500Y-21125326D01*
X20585966Y-21052260D01*
X20530601Y-20969399D01*
X20447740Y-20914034D01*
X20447739Y-20914033D01*
X20447738Y-20914033D01*
X20374675Y-20899500D01*
X20374674Y-20899500D01*
X18625326Y-20899500D01*
X18625325Y-20899500D01*
X18552261Y-20914033D01*
X18469399Y-20969399D01*
X18414033Y-21052261D01*
X18399500Y-21125325D01*
X18399500Y-22874675D01*
X18414033Y-22947738D01*
X18414033Y-22947739D01*
X18414034Y-22947740D01*
X18469399Y-23030601D01*
X18552260Y-23085966D01*
X18588793Y-23093233D01*
X18625325Y-23100500D01*
X18833318Y-23100500D01*
X18897183Y-23118211D01*
X18942803Y-23166285D01*
X18957148Y-23230989D01*
X18936119Y-23293839D01*
X18885723Y-23336882D01*
X18822421Y-23366400D01*
X18628921Y-23501890D01*
X18461890Y-23668921D01*
X18326400Y-23862421D01*
X18226569Y-24076507D01*
X18169364Y-24289999D01*
X18169364Y-24290000D01*
X15000500Y-24290000D01*
X15000500Y-20124500D01*
X15017113Y-20062500D01*
X15062500Y-20017113D01*
X15124500Y-20000500D01*
X74875500Y-20000500D01*
X74937500Y-20017113D01*
G37*
%TD.AperFunction*%
%TD*%
M02*
