%TF.GenerationSoftware,KiCad,Pcbnew,7.0.1*%
%TF.CreationDate,2024-10-26T16:26:52-04:00*%
%TF.ProjectId,BusChain,42757343-6861-4696-9e2e-6b696361645f,rev?*%
%TF.SameCoordinates,Original*%
%TF.FileFunction,Soldermask,Bot*%
%TF.FilePolarity,Negative*%
%FSLAX46Y46*%
G04 Gerber Fmt 4.6, Leading zero omitted, Abs format (unit mm)*
G04 Created by KiCad (PCBNEW 7.0.1) date 2024-10-26 16:26:52*
%MOMM*%
%LPD*%
G01*
G04 APERTURE LIST*
%ADD10R,1.700000X1.700000*%
%ADD11O,1.700000X1.700000*%
G04 APERTURE END LIST*
D10*
%TO.C,J4*%
X52750000Y-22000000D03*
D11*
X52750000Y-24540000D03*
X52750000Y-27080000D03*
X52750000Y-29620000D03*
%TD*%
D10*
%TO.C,J15*%
X40750000Y-53120000D03*
D11*
X40750000Y-50580000D03*
X40750000Y-48040000D03*
X40750000Y-45500000D03*
%TD*%
D10*
%TO.C,J8*%
X37750000Y-22000000D03*
D11*
X37750000Y-24540000D03*
X37750000Y-27080000D03*
X37750000Y-29620000D03*
%TD*%
D10*
%TO.C,J11*%
X25750000Y-53120000D03*
D11*
X25750000Y-50580000D03*
X25750000Y-48040000D03*
X25750000Y-45500000D03*
%TD*%
D10*
%TO.C,J5*%
X49000000Y-22000000D03*
D11*
X49000000Y-24540000D03*
X49000000Y-27080000D03*
X49000000Y-29620000D03*
%TD*%
D10*
%TO.C,J2*%
X60250000Y-22000000D03*
D11*
X60250000Y-24540000D03*
X60250000Y-27080000D03*
X60250000Y-29620000D03*
%TD*%
D10*
%TO.C,J7*%
X41500000Y-22000000D03*
D11*
X41500000Y-24540000D03*
X41500000Y-27080000D03*
X41500000Y-29620000D03*
%TD*%
D10*
%TO.C,J14*%
X37000000Y-53120000D03*
D11*
X37000000Y-50580000D03*
X37000000Y-48040000D03*
X37000000Y-45500000D03*
%TD*%
D10*
%TO.C,J16*%
X44500000Y-53120000D03*
D11*
X44500000Y-50580000D03*
X44500000Y-48040000D03*
X44500000Y-45500000D03*
%TD*%
D10*
%TO.C,J13*%
X33250000Y-53120000D03*
D11*
X33250000Y-50580000D03*
X33250000Y-48040000D03*
X33250000Y-45500000D03*
%TD*%
D10*
%TO.C,J10*%
X22000000Y-53120000D03*
D11*
X22000000Y-50580000D03*
X22000000Y-48040000D03*
X22000000Y-45500000D03*
%TD*%
D10*
%TO.C,J12*%
X29500000Y-53120000D03*
D11*
X29500000Y-50580000D03*
X29500000Y-48040000D03*
X29500000Y-45500000D03*
%TD*%
D10*
%TO.C,J3*%
X56500000Y-22000000D03*
D11*
X56500000Y-24540000D03*
X56500000Y-27080000D03*
X56500000Y-29620000D03*
%TD*%
D10*
%TO.C,J6*%
X45250000Y-22000000D03*
D11*
X45250000Y-24540000D03*
X45250000Y-27080000D03*
X45250000Y-29620000D03*
%TD*%
D10*
%TO.C,J17*%
X48250000Y-53120000D03*
D11*
X48250000Y-50580000D03*
X48250000Y-48040000D03*
X48250000Y-45500000D03*
%TD*%
D10*
%TO.C,J1*%
X19500000Y-22000000D03*
D11*
X19500000Y-24540000D03*
X19500000Y-27080000D03*
X19500000Y-29620000D03*
X19500000Y-32160000D03*
X19500000Y-34700000D03*
X19500000Y-37240000D03*
%TD*%
D10*
%TO.C,J18*%
X70500000Y-22000000D03*
D11*
X70500000Y-24540000D03*
X70500000Y-27080000D03*
X70500000Y-29620000D03*
X70500000Y-32160000D03*
X70500000Y-34700000D03*
X70500000Y-37240000D03*
%TD*%
D10*
%TO.C,J9*%
X34000000Y-22000000D03*
D11*
X34000000Y-24540000D03*
X34000000Y-27080000D03*
X34000000Y-29620000D03*
%TD*%
M02*
