%TF.GenerationSoftware,KiCad,Pcbnew,7.0.1*%
%TF.CreationDate,2025-01-22T18:06:00-05:00*%
%TF.ProjectId,BusChain,42757343-6861-4696-9e2e-6b696361645f,rev?*%
%TF.SameCoordinates,Original*%
%TF.FileFunction,Copper,L2,Bot*%
%TF.FilePolarity,Positive*%
%FSLAX46Y46*%
G04 Gerber Fmt 4.6, Leading zero omitted, Abs format (unit mm)*
G04 Created by KiCad (PCBNEW 7.0.1) date 2025-01-22 18:06:00*
%MOMM*%
%LPD*%
G01*
G04 APERTURE LIST*
%TA.AperFunction,ComponentPad*%
%ADD10R,1.700000X1.700000*%
%TD*%
%TA.AperFunction,ComponentPad*%
%ADD11O,1.700000X1.700000*%
%TD*%
%TA.AperFunction,ViaPad*%
%ADD12C,0.800000*%
%TD*%
%TA.AperFunction,Conductor*%
%ADD13C,0.250000*%
%TD*%
G04 APERTURE END LIST*
D10*
%TO.P,J10,1,Pin_1*%
%TO.N,/VCC*%
X61525000Y-22150000D03*
D11*
%TO.P,J10,2,Pin_2*%
%TO.N,GND*%
X61525000Y-24690000D03*
%TO.P,J10,3,Pin_3*%
%TO.N,/SDA*%
X61525000Y-27230000D03*
%TO.P,J10,4,Pin_4*%
%TO.N,/SCL*%
X61525000Y-29770000D03*
%TD*%
%TO.P,J9,4,Pin_4*%
%TO.N,/SC7*%
X50030000Y-22150000D03*
%TO.P,J9,3,Pin_3*%
%TO.N,/SD7*%
X52570000Y-22150000D03*
%TO.P,J9,2,Pin_2*%
%TO.N,GND*%
X55110000Y-22150000D03*
D10*
%TO.P,J9,1,Pin_1*%
%TO.N,/VCC*%
X57650000Y-22150000D03*
%TD*%
D11*
%TO.P,J8,4,Pin_4*%
%TO.N,/SC6*%
X50030000Y-25900000D03*
%TO.P,J8,3,Pin_3*%
%TO.N,/SD6*%
X52570000Y-25900000D03*
%TO.P,J8,2,Pin_2*%
%TO.N,GND*%
X55110000Y-25900000D03*
D10*
%TO.P,J8,1,Pin_1*%
%TO.N,/VCC*%
X57650000Y-25900000D03*
%TD*%
D11*
%TO.P,J7,4,Pin_4*%
%TO.N,/SC5*%
X50030000Y-29650000D03*
%TO.P,J7,3,Pin_3*%
%TO.N,/SD5*%
X52570000Y-29650000D03*
%TO.P,J7,2,Pin_2*%
%TO.N,GND*%
X55110000Y-29650000D03*
D10*
%TO.P,J7,1,Pin_1*%
%TO.N,/VCC*%
X57650000Y-29650000D03*
%TD*%
D11*
%TO.P,J6,4,Pin_4*%
%TO.N,/SC4*%
X50030000Y-33400000D03*
%TO.P,J6,3,Pin_3*%
%TO.N,/SD4*%
X52570000Y-33400000D03*
%TO.P,J6,2,Pin_2*%
%TO.N,GND*%
X55110000Y-33400000D03*
D10*
%TO.P,J6,1,Pin_1*%
%TO.N,/VCC*%
X57650000Y-33400000D03*
%TD*%
%TO.P,J5,1,Pin_1*%
%TO.N,/VCC*%
X30650000Y-33400000D03*
D11*
%TO.P,J5,2,Pin_2*%
%TO.N,GND*%
X33190000Y-33400000D03*
%TO.P,J5,3,Pin_3*%
%TO.N,/SD3*%
X35730000Y-33400000D03*
%TO.P,J5,4,Pin_4*%
%TO.N,/SC3*%
X38270000Y-33400000D03*
%TD*%
D10*
%TO.P,J4,1,Pin_1*%
%TO.N,/VCC*%
X30650000Y-29650000D03*
D11*
%TO.P,J4,2,Pin_2*%
%TO.N,GND*%
X33190000Y-29650000D03*
%TO.P,J4,3,Pin_3*%
%TO.N,/SD2*%
X35730000Y-29650000D03*
%TO.P,J4,4,Pin_4*%
%TO.N,/SC2*%
X38270000Y-29650000D03*
%TD*%
D10*
%TO.P,J3,1,Pin_1*%
%TO.N,/VCC*%
X30650000Y-25900000D03*
D11*
%TO.P,J3,2,Pin_2*%
%TO.N,GND*%
X33190000Y-25900000D03*
%TO.P,J3,3,Pin_3*%
%TO.N,/SD1*%
X35730000Y-25900000D03*
%TO.P,J3,4,Pin_4*%
%TO.N,/SC1*%
X38270000Y-25900000D03*
%TD*%
%TO.P,J2,4,Pin_4*%
%TO.N,/SC0*%
X38270000Y-22150000D03*
%TO.P,J2,3,Pin_3*%
%TO.N,/SD0*%
X35730000Y-22150000D03*
%TO.P,J2,2,Pin_2*%
%TO.N,GND*%
X33190000Y-22150000D03*
D10*
%TO.P,J2,1,Pin_1*%
%TO.N,/VCC*%
X30650000Y-22150000D03*
%TD*%
%TO.P,J1,1,Pin_1*%
%TO.N,/V?*%
X26900000Y-22150000D03*
D11*
%TO.P,J1,2,Pin_2*%
%TO.N,GND*%
X26900000Y-24690000D03*
%TO.P,J1,3,Pin_3*%
%TO.N,/SDA*%
X26900000Y-27230000D03*
%TO.P,J1,4,Pin_4*%
%TO.N,/SCL*%
X26900000Y-29770000D03*
%TD*%
D12*
%TO.N,GND*%
X45602300Y-29197700D03*
X44977701Y-30622299D03*
X42525500Y-29015497D03*
X40949500Y-30601788D03*
X67250000Y-34500000D03*
X67250000Y-32250000D03*
X47750000Y-20750000D03*
X25500000Y-34500000D03*
X21000000Y-34500000D03*
%TO.N,/SCL*%
X44770783Y-23923815D03*
%TO.N,/SDA*%
X45520000Y-22150000D03*
%TO.N,Net-(JP1-B)*%
X45770000Y-23900000D03*
X42762701Y-30907299D03*
%TD*%
D13*
%TO.N,/SCL*%
X40894598Y-27800000D02*
X44770783Y-23923815D01*
X28870000Y-27800000D02*
X40894598Y-27800000D01*
X26900000Y-29770000D02*
X28870000Y-27800000D01*
%TO.N,/SDA*%
X30130000Y-24000000D02*
X26900000Y-27230000D01*
X43635000Y-24035000D02*
X43600000Y-24000000D01*
X43600000Y-24000000D02*
X30130000Y-24000000D01*
X45520000Y-22150000D02*
X43635000Y-24035000D01*
X58495000Y-24200000D02*
X61525000Y-27230000D01*
X47550000Y-22150000D02*
X49600000Y-24200000D01*
X45520000Y-22150000D02*
X47550000Y-22150000D01*
X49600000Y-24200000D02*
X58495000Y-24200000D01*
%TO.N,/SCL*%
X48770000Y-24650000D02*
X48770000Y-26301701D01*
X59555000Y-27800000D02*
X61525000Y-29770000D01*
X47270000Y-23150000D02*
X48770000Y-24650000D01*
X44770783Y-23873912D02*
X45494695Y-23150000D01*
X48770000Y-26301701D02*
X50268299Y-27800000D01*
X50268299Y-27800000D02*
X59555000Y-27800000D01*
X44770783Y-23923815D02*
X44770783Y-23873912D01*
X45494695Y-23150000D02*
X47270000Y-23150000D01*
%TO.N,Net-(JP1-B)*%
X45770000Y-27900000D02*
X45770000Y-23900000D01*
X42762701Y-30907299D02*
X45770000Y-27900000D01*
%TD*%
%TA.AperFunction,Conductor*%
%TO.N,GND*%
G36*
X67937500Y-19517113D02*
G01*
X67982887Y-19562500D01*
X67999500Y-19624500D01*
X67999500Y-35375500D01*
X67982887Y-35437500D01*
X67937500Y-35482887D01*
X67875500Y-35499500D01*
X20124500Y-35499500D01*
X20062500Y-35482887D01*
X20017113Y-35437500D01*
X20000500Y-35375500D01*
X20000500Y-34274675D01*
X29549500Y-34274675D01*
X29564033Y-34347738D01*
X29564033Y-34347739D01*
X29564034Y-34347740D01*
X29619399Y-34430601D01*
X29702260Y-34485966D01*
X29738792Y-34493232D01*
X29775325Y-34500500D01*
X29775326Y-34500500D01*
X31524674Y-34500500D01*
X31524675Y-34500500D01*
X31549029Y-34495655D01*
X31597740Y-34485966D01*
X31680601Y-34430601D01*
X31735966Y-34347740D01*
X31750500Y-34274674D01*
X31750500Y-33650000D01*
X32117472Y-33650000D01*
X32159886Y-33799069D01*
X32250751Y-33981553D01*
X32373607Y-34144241D01*
X32524259Y-34281578D01*
X32697588Y-34388899D01*
X32887679Y-34462539D01*
X32940000Y-34472320D01*
X32940000Y-33650000D01*
X33440000Y-33650000D01*
X33440000Y-34472320D01*
X33492320Y-34462539D01*
X33682411Y-34388899D01*
X33855740Y-34281578D01*
X34006392Y-34144241D01*
X34129248Y-33981553D01*
X34220113Y-33799069D01*
X34262528Y-33650000D01*
X33440000Y-33650000D01*
X32940000Y-33650000D01*
X32117472Y-33650000D01*
X31750500Y-33650000D01*
X31750500Y-33400000D01*
X34624785Y-33400000D01*
X34643602Y-33603083D01*
X34699418Y-33799251D01*
X34790324Y-33981818D01*
X34913236Y-34144580D01*
X35063958Y-34281981D01*
X35237361Y-34389347D01*
X35237363Y-34389348D01*
X35427544Y-34463024D01*
X35628024Y-34500500D01*
X35831974Y-34500500D01*
X35831976Y-34500500D01*
X36032456Y-34463024D01*
X36222637Y-34389348D01*
X36396041Y-34281981D01*
X36546764Y-34144579D01*
X36669673Y-33981821D01*
X36669673Y-33981819D01*
X36669675Y-33981818D01*
X36715313Y-33890161D01*
X36760582Y-33799250D01*
X36816397Y-33603083D01*
X36835215Y-33400000D01*
X36835215Y-33399999D01*
X37164785Y-33399999D01*
X37183602Y-33603083D01*
X37239418Y-33799251D01*
X37330324Y-33981818D01*
X37453236Y-34144580D01*
X37603958Y-34281981D01*
X37777361Y-34389347D01*
X37777363Y-34389348D01*
X37967544Y-34463024D01*
X38168024Y-34500500D01*
X38371974Y-34500500D01*
X38371976Y-34500500D01*
X38572456Y-34463024D01*
X38762637Y-34389348D01*
X38936041Y-34281981D01*
X39086764Y-34144579D01*
X39209673Y-33981821D01*
X39209673Y-33981819D01*
X39209675Y-33981818D01*
X39255313Y-33890161D01*
X39300582Y-33799250D01*
X39356397Y-33603083D01*
X39375215Y-33400000D01*
X39375215Y-33399999D01*
X48924785Y-33399999D01*
X48943602Y-33603083D01*
X48999418Y-33799251D01*
X49090324Y-33981818D01*
X49213236Y-34144580D01*
X49363958Y-34281981D01*
X49537361Y-34389347D01*
X49537363Y-34389348D01*
X49727544Y-34463024D01*
X49928024Y-34500500D01*
X50131974Y-34500500D01*
X50131976Y-34500500D01*
X50332456Y-34463024D01*
X50522637Y-34389348D01*
X50696041Y-34281981D01*
X50846764Y-34144579D01*
X50969673Y-33981821D01*
X50969673Y-33981819D01*
X50969675Y-33981818D01*
X51015313Y-33890161D01*
X51060582Y-33799250D01*
X51116397Y-33603083D01*
X51135215Y-33400000D01*
X51135215Y-33399999D01*
X51464785Y-33399999D01*
X51483602Y-33603083D01*
X51539418Y-33799251D01*
X51630324Y-33981818D01*
X51753236Y-34144580D01*
X51903958Y-34281981D01*
X52077361Y-34389347D01*
X52077363Y-34389348D01*
X52267544Y-34463024D01*
X52468024Y-34500500D01*
X52671974Y-34500500D01*
X52671976Y-34500500D01*
X52872456Y-34463024D01*
X53062637Y-34389348D01*
X53236041Y-34281981D01*
X53386764Y-34144579D01*
X53509673Y-33981821D01*
X53509673Y-33981819D01*
X53509675Y-33981818D01*
X53555313Y-33890161D01*
X53600582Y-33799250D01*
X53643048Y-33650000D01*
X54037472Y-33650000D01*
X54079886Y-33799069D01*
X54170751Y-33981553D01*
X54293607Y-34144241D01*
X54444259Y-34281578D01*
X54617588Y-34388899D01*
X54807679Y-34462539D01*
X54860000Y-34472320D01*
X54860000Y-33650000D01*
X55360000Y-33650000D01*
X55360000Y-34472320D01*
X55412320Y-34462539D01*
X55602411Y-34388899D01*
X55775740Y-34281578D01*
X55783312Y-34274675D01*
X56549500Y-34274675D01*
X56564033Y-34347738D01*
X56564033Y-34347739D01*
X56564034Y-34347740D01*
X56619399Y-34430601D01*
X56702260Y-34485966D01*
X56738792Y-34493232D01*
X56775325Y-34500500D01*
X56775326Y-34500500D01*
X58524674Y-34500500D01*
X58524675Y-34500500D01*
X58549029Y-34495655D01*
X58597740Y-34485966D01*
X58680601Y-34430601D01*
X58735966Y-34347740D01*
X58750500Y-34274674D01*
X58750500Y-32525326D01*
X58749126Y-32518421D01*
X58735966Y-32452261D01*
X58735966Y-32452260D01*
X58680601Y-32369399D01*
X58597740Y-32314034D01*
X58597739Y-32314033D01*
X58597738Y-32314033D01*
X58524675Y-32299500D01*
X58524674Y-32299500D01*
X56775326Y-32299500D01*
X56775325Y-32299500D01*
X56702261Y-32314033D01*
X56619399Y-32369399D01*
X56564033Y-32452261D01*
X56549500Y-32525325D01*
X56549500Y-34274675D01*
X55783312Y-34274675D01*
X55926392Y-34144241D01*
X56049248Y-33981553D01*
X56140113Y-33799069D01*
X56182528Y-33650000D01*
X55360000Y-33650000D01*
X54860000Y-33650000D01*
X54037472Y-33650000D01*
X53643048Y-33650000D01*
X53656397Y-33603083D01*
X53675215Y-33400000D01*
X53656397Y-33196917D01*
X53643048Y-33149999D01*
X54037471Y-33149999D01*
X54037472Y-33150000D01*
X54860000Y-33150000D01*
X54860000Y-32327680D01*
X55360000Y-32327680D01*
X55360000Y-33150000D01*
X56182528Y-33150000D01*
X56182528Y-33149999D01*
X56140113Y-33000930D01*
X56049248Y-32818446D01*
X55926392Y-32655758D01*
X55775740Y-32518421D01*
X55602411Y-32411100D01*
X55412320Y-32337460D01*
X55360000Y-32327680D01*
X54860000Y-32327680D01*
X54807679Y-32337460D01*
X54617588Y-32411100D01*
X54444259Y-32518421D01*
X54293607Y-32655758D01*
X54170751Y-32818446D01*
X54079886Y-33000930D01*
X54037471Y-33149999D01*
X53643048Y-33149999D01*
X53600582Y-33000750D01*
X53600209Y-33000001D01*
X53509675Y-32818181D01*
X53386763Y-32655419D01*
X53236041Y-32518018D01*
X53062638Y-32410652D01*
X52872457Y-32336976D01*
X52749726Y-32314034D01*
X52671976Y-32299500D01*
X52468024Y-32299500D01*
X52390279Y-32314033D01*
X52267542Y-32336976D01*
X52077361Y-32410652D01*
X51903958Y-32518018D01*
X51753236Y-32655419D01*
X51630324Y-32818181D01*
X51539418Y-33000748D01*
X51483602Y-33196916D01*
X51464785Y-33399999D01*
X51135215Y-33399999D01*
X51116397Y-33196917D01*
X51060582Y-33000750D01*
X51060209Y-33000001D01*
X50969675Y-32818181D01*
X50846763Y-32655419D01*
X50696041Y-32518018D01*
X50522638Y-32410652D01*
X50332457Y-32336976D01*
X50209726Y-32314034D01*
X50131976Y-32299500D01*
X49928024Y-32299500D01*
X49850279Y-32314033D01*
X49727542Y-32336976D01*
X49537361Y-32410652D01*
X49363958Y-32518018D01*
X49213236Y-32655419D01*
X49090324Y-32818181D01*
X48999418Y-33000748D01*
X48943602Y-33196916D01*
X48924785Y-33399999D01*
X39375215Y-33399999D01*
X39356397Y-33196917D01*
X39300582Y-33000750D01*
X39300209Y-33000001D01*
X39209675Y-32818181D01*
X39086763Y-32655419D01*
X38936041Y-32518018D01*
X38762638Y-32410652D01*
X38572457Y-32336976D01*
X38449726Y-32314034D01*
X38371976Y-32299500D01*
X38168024Y-32299500D01*
X38090279Y-32314033D01*
X37967542Y-32336976D01*
X37777361Y-32410652D01*
X37603958Y-32518018D01*
X37453236Y-32655419D01*
X37330324Y-32818181D01*
X37239418Y-33000748D01*
X37183602Y-33196916D01*
X37164785Y-33399999D01*
X36835215Y-33399999D01*
X36816397Y-33196917D01*
X36760582Y-33000750D01*
X36760209Y-33000001D01*
X36669675Y-32818181D01*
X36546763Y-32655419D01*
X36396041Y-32518018D01*
X36222638Y-32410652D01*
X36032457Y-32336976D01*
X35909726Y-32314034D01*
X35831976Y-32299500D01*
X35628024Y-32299500D01*
X35550279Y-32314033D01*
X35427542Y-32336976D01*
X35237361Y-32410652D01*
X35063958Y-32518018D01*
X34913236Y-32655419D01*
X34790324Y-32818181D01*
X34699418Y-33000748D01*
X34643602Y-33196916D01*
X34624785Y-33400000D01*
X31750500Y-33400000D01*
X31750500Y-33149999D01*
X32117471Y-33149999D01*
X32117472Y-33150000D01*
X32940000Y-33150000D01*
X32940000Y-32327680D01*
X33440000Y-32327680D01*
X33440000Y-33150000D01*
X34262528Y-33150000D01*
X34262528Y-33149999D01*
X34220113Y-33000930D01*
X34129248Y-32818446D01*
X34006392Y-32655758D01*
X33855740Y-32518421D01*
X33682411Y-32411100D01*
X33492320Y-32337460D01*
X33440000Y-32327680D01*
X32940000Y-32327680D01*
X32887679Y-32337460D01*
X32697588Y-32411100D01*
X32524259Y-32518421D01*
X32373607Y-32655758D01*
X32250751Y-32818446D01*
X32159886Y-33000930D01*
X32117471Y-33149999D01*
X31750500Y-33149999D01*
X31750500Y-32525326D01*
X31749126Y-32518421D01*
X31735966Y-32452261D01*
X31735966Y-32452260D01*
X31680601Y-32369399D01*
X31597740Y-32314034D01*
X31597739Y-32314033D01*
X31597738Y-32314033D01*
X31524675Y-32299500D01*
X31524674Y-32299500D01*
X29775326Y-32299500D01*
X29775325Y-32299500D01*
X29702261Y-32314033D01*
X29619399Y-32369399D01*
X29564033Y-32452261D01*
X29549500Y-32525325D01*
X29549500Y-34274675D01*
X20000500Y-34274675D01*
X20000500Y-29769999D01*
X25794785Y-29769999D01*
X25813602Y-29973083D01*
X25869418Y-30169251D01*
X25960324Y-30351818D01*
X26083236Y-30514580D01*
X26233958Y-30651981D01*
X26393042Y-30750481D01*
X26407363Y-30759348D01*
X26597544Y-30833024D01*
X26798024Y-30870500D01*
X27001974Y-30870500D01*
X27001976Y-30870500D01*
X27202456Y-30833024D01*
X27392637Y-30759348D01*
X27566041Y-30651981D01*
X27620016Y-30602776D01*
X27705689Y-30524675D01*
X29549500Y-30524675D01*
X29564033Y-30597738D01*
X29564033Y-30597739D01*
X29564034Y-30597740D01*
X29619399Y-30680601D01*
X29702260Y-30735966D01*
X29738792Y-30743232D01*
X29775325Y-30750500D01*
X29775326Y-30750500D01*
X31524674Y-30750500D01*
X31524675Y-30750500D01*
X31549029Y-30745655D01*
X31597740Y-30735966D01*
X31680601Y-30680601D01*
X31735966Y-30597740D01*
X31750500Y-30524674D01*
X31750500Y-29900000D01*
X32117472Y-29900000D01*
X32159886Y-30049069D01*
X32250751Y-30231553D01*
X32373607Y-30394241D01*
X32524259Y-30531578D01*
X32697588Y-30638899D01*
X32887679Y-30712539D01*
X32940000Y-30722320D01*
X32940000Y-29900000D01*
X33440000Y-29900000D01*
X33440000Y-30722320D01*
X33492320Y-30712539D01*
X33682411Y-30638899D01*
X33855740Y-30531578D01*
X34006392Y-30394241D01*
X34129248Y-30231553D01*
X34220113Y-30049069D01*
X34262528Y-29900000D01*
X33440000Y-29900000D01*
X32940000Y-29900000D01*
X32117472Y-29900000D01*
X31750500Y-29900000D01*
X31750500Y-29649999D01*
X34624785Y-29649999D01*
X34643602Y-29853083D01*
X34699418Y-30049251D01*
X34790324Y-30231818D01*
X34913236Y-30394580D01*
X35063958Y-30531981D01*
X35237361Y-30639347D01*
X35237363Y-30639348D01*
X35427544Y-30713024D01*
X35628024Y-30750500D01*
X35831974Y-30750500D01*
X35831976Y-30750500D01*
X36032456Y-30713024D01*
X36222637Y-30639348D01*
X36396041Y-30531981D01*
X36546764Y-30394579D01*
X36669673Y-30231821D01*
X36669673Y-30231819D01*
X36669675Y-30231818D01*
X36715313Y-30140161D01*
X36760582Y-30049250D01*
X36816397Y-29853083D01*
X36835215Y-29650000D01*
X37164785Y-29650000D01*
X37183602Y-29853083D01*
X37239418Y-30049251D01*
X37330324Y-30231818D01*
X37453236Y-30394580D01*
X37603958Y-30531981D01*
X37777361Y-30639347D01*
X37777363Y-30639348D01*
X37967544Y-30713024D01*
X38168024Y-30750500D01*
X38371974Y-30750500D01*
X38371976Y-30750500D01*
X38572456Y-30713024D01*
X38762637Y-30639348D01*
X38936041Y-30531981D01*
X39086764Y-30394579D01*
X39209673Y-30231821D01*
X39209673Y-30231819D01*
X39209675Y-30231818D01*
X39255313Y-30140161D01*
X39300582Y-30049250D01*
X39356397Y-29853083D01*
X39375215Y-29650000D01*
X39356397Y-29446917D01*
X39300582Y-29250750D01*
X39269426Y-29188179D01*
X39209675Y-29068181D01*
X39086763Y-28905419D01*
X38936041Y-28768018D01*
X38762638Y-28660652D01*
X38572457Y-28586976D01*
X38449726Y-28564034D01*
X38371976Y-28549500D01*
X38168024Y-28549500D01*
X38090279Y-28564033D01*
X37967542Y-28586976D01*
X37777361Y-28660652D01*
X37603958Y-28768018D01*
X37453236Y-28905419D01*
X37330324Y-29068181D01*
X37239418Y-29250748D01*
X37183602Y-29446916D01*
X37164785Y-29650000D01*
X36835215Y-29650000D01*
X36816397Y-29446917D01*
X36760582Y-29250750D01*
X36729426Y-29188179D01*
X36669675Y-29068181D01*
X36546763Y-28905419D01*
X36396041Y-28768018D01*
X36222638Y-28660652D01*
X36032457Y-28586976D01*
X35909726Y-28564034D01*
X35831976Y-28549500D01*
X35628024Y-28549500D01*
X35550279Y-28564033D01*
X35427542Y-28586976D01*
X35237361Y-28660652D01*
X35063958Y-28768018D01*
X34913236Y-28905419D01*
X34790324Y-29068181D01*
X34699418Y-29250748D01*
X34643602Y-29446916D01*
X34624785Y-29649999D01*
X31750500Y-29649999D01*
X31750500Y-29399999D01*
X32117471Y-29399999D01*
X32117472Y-29400000D01*
X32940000Y-29400000D01*
X32940000Y-28577680D01*
X33440000Y-28577680D01*
X33440000Y-29400000D01*
X34262528Y-29400000D01*
X34262528Y-29399999D01*
X34220113Y-29250930D01*
X34129248Y-29068446D01*
X34006392Y-28905758D01*
X33855740Y-28768421D01*
X33682411Y-28661100D01*
X33492320Y-28587460D01*
X33440000Y-28577680D01*
X32940000Y-28577680D01*
X32887679Y-28587460D01*
X32697588Y-28661100D01*
X32524259Y-28768421D01*
X32373607Y-28905758D01*
X32250751Y-29068446D01*
X32159886Y-29250930D01*
X32117471Y-29399999D01*
X31750500Y-29399999D01*
X31750500Y-28775326D01*
X31749126Y-28768421D01*
X31735966Y-28702261D01*
X31735966Y-28702260D01*
X31680601Y-28619399D01*
X31597740Y-28564034D01*
X31597739Y-28564033D01*
X31597738Y-28564033D01*
X31524675Y-28549500D01*
X31524674Y-28549500D01*
X29775326Y-28549500D01*
X29775325Y-28549500D01*
X29702261Y-28564033D01*
X29619399Y-28619399D01*
X29564033Y-28702261D01*
X29549500Y-28775325D01*
X29549500Y-30524675D01*
X27705689Y-30524675D01*
X27716763Y-30514580D01*
X27716764Y-30514579D01*
X27839673Y-30351821D01*
X27839673Y-30351819D01*
X27839675Y-30351818D01*
X27891688Y-30247360D01*
X27930582Y-30169250D01*
X27986397Y-29973083D01*
X28005215Y-29770000D01*
X27986397Y-29566917D01*
X27930582Y-29370750D01*
X27930581Y-29370748D01*
X27928308Y-29362758D01*
X27927556Y-29297653D01*
X27959891Y-29241144D01*
X28989217Y-28211819D01*
X29029446Y-28184939D01*
X29076899Y-28175500D01*
X40842793Y-28175500D01*
X40868239Y-28178139D01*
X40872038Y-28178935D01*
X40878866Y-28180367D01*
X40908736Y-28176643D01*
X40910275Y-28176452D01*
X40925612Y-28175500D01*
X40925709Y-28175500D01*
X40925712Y-28175500D01*
X40946241Y-28172073D01*
X40951257Y-28171342D01*
X41003224Y-28164866D01*
X41003226Y-28164864D01*
X41011055Y-28163889D01*
X41011264Y-28163822D01*
X41018205Y-28160065D01*
X41018208Y-28160065D01*
X41064264Y-28135140D01*
X41068742Y-28132835D01*
X41115809Y-28109826D01*
X41115810Y-28109824D01*
X41122906Y-28106356D01*
X41123074Y-28106230D01*
X41128422Y-28100419D01*
X41128424Y-28100419D01*
X41163892Y-28061889D01*
X41167393Y-28058240D01*
X44615000Y-24610633D01*
X44655228Y-24583754D01*
X44702681Y-24574315D01*
X44849768Y-24574315D01*
X45003148Y-24536511D01*
X45143023Y-24463098D01*
X45188277Y-24423006D01*
X45237925Y-24396180D01*
X45294324Y-24394135D01*
X45345788Y-24417297D01*
X45381657Y-24460869D01*
X45394500Y-24515825D01*
X45394500Y-27693101D01*
X45385061Y-27740554D01*
X45358181Y-27780782D01*
X42918481Y-30220480D01*
X42878253Y-30247360D01*
X42830800Y-30256799D01*
X42683716Y-30256799D01*
X42530336Y-30294602D01*
X42390462Y-30368015D01*
X42272216Y-30472770D01*
X42182481Y-30602775D01*
X42126464Y-30750480D01*
X42107422Y-30907299D01*
X42126464Y-31064117D01*
X42182481Y-31211822D01*
X42272216Y-31341827D01*
X42272217Y-31341828D01*
X42272218Y-31341829D01*
X42390461Y-31446582D01*
X42530336Y-31519995D01*
X42683716Y-31557799D01*
X42841686Y-31557799D01*
X42995066Y-31519995D01*
X43134941Y-31446582D01*
X43253184Y-31341829D01*
X43342921Y-31211822D01*
X43398938Y-31064117D01*
X43417979Y-30907299D01*
X43411803Y-30856442D01*
X43417681Y-30801050D01*
X43447216Y-30753819D01*
X44551035Y-29650000D01*
X48924785Y-29650000D01*
X48943602Y-29853083D01*
X48999418Y-30049251D01*
X49090324Y-30231818D01*
X49213236Y-30394580D01*
X49363958Y-30531981D01*
X49537361Y-30639347D01*
X49537363Y-30639348D01*
X49727544Y-30713024D01*
X49928024Y-30750500D01*
X50131974Y-30750500D01*
X50131976Y-30750500D01*
X50332456Y-30713024D01*
X50522637Y-30639348D01*
X50696041Y-30531981D01*
X50846764Y-30394579D01*
X50969673Y-30231821D01*
X50969673Y-30231819D01*
X50969675Y-30231818D01*
X51015313Y-30140161D01*
X51060582Y-30049250D01*
X51116397Y-29853083D01*
X51135215Y-29650000D01*
X51464785Y-29650000D01*
X51483602Y-29853083D01*
X51539418Y-30049251D01*
X51630324Y-30231818D01*
X51753236Y-30394580D01*
X51903958Y-30531981D01*
X52077361Y-30639347D01*
X52077363Y-30639348D01*
X52267544Y-30713024D01*
X52468024Y-30750500D01*
X52671974Y-30750500D01*
X52671976Y-30750500D01*
X52872456Y-30713024D01*
X53062637Y-30639348D01*
X53236041Y-30531981D01*
X53386764Y-30394579D01*
X53509673Y-30231821D01*
X53509673Y-30231819D01*
X53509675Y-30231818D01*
X53555313Y-30140161D01*
X53600582Y-30049250D01*
X53643048Y-29900000D01*
X54037472Y-29900000D01*
X54079886Y-30049069D01*
X54170751Y-30231553D01*
X54293607Y-30394241D01*
X54444259Y-30531578D01*
X54617588Y-30638899D01*
X54807679Y-30712539D01*
X54860000Y-30722320D01*
X54860000Y-29900000D01*
X55360000Y-29900000D01*
X55360000Y-30722320D01*
X55412320Y-30712539D01*
X55602411Y-30638899D01*
X55775740Y-30531578D01*
X55783312Y-30524675D01*
X56549500Y-30524675D01*
X56564033Y-30597738D01*
X56564033Y-30597739D01*
X56564034Y-30597740D01*
X56619399Y-30680601D01*
X56702260Y-30735966D01*
X56738792Y-30743232D01*
X56775325Y-30750500D01*
X56775326Y-30750500D01*
X58524674Y-30750500D01*
X58524675Y-30750500D01*
X58549029Y-30745655D01*
X58597740Y-30735966D01*
X58680601Y-30680601D01*
X58735966Y-30597740D01*
X58750500Y-30524674D01*
X58750500Y-28775326D01*
X58749126Y-28768421D01*
X58735966Y-28702261D01*
X58735966Y-28702260D01*
X58680601Y-28619399D01*
X58597740Y-28564034D01*
X58597739Y-28564033D01*
X58597738Y-28564033D01*
X58524675Y-28549500D01*
X58524674Y-28549500D01*
X56775326Y-28549500D01*
X56775325Y-28549500D01*
X56702261Y-28564033D01*
X56619399Y-28619399D01*
X56564033Y-28702261D01*
X56549500Y-28775325D01*
X56549500Y-30524675D01*
X55783312Y-30524675D01*
X55926392Y-30394241D01*
X56049248Y-30231553D01*
X56140113Y-30049069D01*
X56182528Y-29900000D01*
X55360000Y-29900000D01*
X54860000Y-29900000D01*
X54037472Y-29900000D01*
X53643048Y-29900000D01*
X53656397Y-29853083D01*
X53675215Y-29650000D01*
X53656397Y-29446917D01*
X53643048Y-29399999D01*
X54037471Y-29399999D01*
X54037472Y-29400000D01*
X54860000Y-29400000D01*
X54860000Y-28577680D01*
X55360000Y-28577680D01*
X55360000Y-29400000D01*
X56182528Y-29400000D01*
X56182528Y-29399999D01*
X56140113Y-29250930D01*
X56049248Y-29068446D01*
X55926392Y-28905758D01*
X55775740Y-28768421D01*
X55602411Y-28661100D01*
X55412320Y-28587460D01*
X55360000Y-28577680D01*
X54860000Y-28577680D01*
X54807679Y-28587460D01*
X54617588Y-28661100D01*
X54444259Y-28768421D01*
X54293607Y-28905758D01*
X54170751Y-29068446D01*
X54079886Y-29250930D01*
X54037471Y-29399999D01*
X53643048Y-29399999D01*
X53600582Y-29250750D01*
X53569426Y-29188179D01*
X53509675Y-29068181D01*
X53386763Y-28905419D01*
X53236041Y-28768018D01*
X53062638Y-28660652D01*
X52872457Y-28586976D01*
X52749726Y-28564034D01*
X52671976Y-28549500D01*
X52468024Y-28549500D01*
X52390279Y-28564033D01*
X52267542Y-28586976D01*
X52077361Y-28660652D01*
X51903958Y-28768018D01*
X51753236Y-28905419D01*
X51630324Y-29068181D01*
X51539418Y-29250748D01*
X51483602Y-29446916D01*
X51464785Y-29650000D01*
X51135215Y-29650000D01*
X51116397Y-29446917D01*
X51060582Y-29250750D01*
X51029426Y-29188179D01*
X50969675Y-29068181D01*
X50846763Y-28905419D01*
X50696041Y-28768018D01*
X50522638Y-28660652D01*
X50332457Y-28586976D01*
X50209726Y-28564034D01*
X50131976Y-28549500D01*
X49928024Y-28549500D01*
X49850279Y-28564033D01*
X49727542Y-28586976D01*
X49537361Y-28660652D01*
X49363958Y-28768018D01*
X49213236Y-28905419D01*
X49090324Y-29068181D01*
X48999418Y-29250748D01*
X48943602Y-29446916D01*
X48924785Y-29650000D01*
X44551035Y-29650000D01*
X45998889Y-28202146D01*
X46018741Y-28186025D01*
X46027836Y-28180084D01*
X46047273Y-28155110D01*
X46057453Y-28143583D01*
X46057519Y-28143518D01*
X46069624Y-28126561D01*
X46072627Y-28122534D01*
X46104809Y-28081189D01*
X46104810Y-28081185D01*
X46109666Y-28074947D01*
X46109753Y-28074778D01*
X46112008Y-28067200D01*
X46112010Y-28067199D01*
X46126951Y-28017009D01*
X46128479Y-28012238D01*
X46145500Y-27962660D01*
X46145500Y-27962656D01*
X46148060Y-27955199D01*
X46148093Y-27954969D01*
X46147767Y-27947090D01*
X46147768Y-27947088D01*
X46145605Y-27894806D01*
X46145500Y-27889684D01*
X46145500Y-24492203D01*
X46156425Y-24441312D01*
X46187271Y-24399389D01*
X46260483Y-24334530D01*
X46350220Y-24204523D01*
X46406237Y-24056818D01*
X46425278Y-23900000D01*
X46406237Y-23743182D01*
X46387383Y-23693470D01*
X46380230Y-23634553D01*
X46401276Y-23579060D01*
X46445700Y-23539703D01*
X46503326Y-23525500D01*
X47063101Y-23525500D01*
X47110554Y-23534939D01*
X47150782Y-23561819D01*
X48358181Y-24769218D01*
X48385061Y-24809446D01*
X48394500Y-24856899D01*
X48394500Y-26249896D01*
X48391861Y-26275342D01*
X48389633Y-26285969D01*
X48391289Y-26299251D01*
X48393548Y-26317378D01*
X48394500Y-26332715D01*
X48394500Y-26332817D01*
X48397918Y-26353303D01*
X48398657Y-26358371D01*
X48406107Y-26418139D01*
X48406185Y-26418383D01*
X48434827Y-26471309D01*
X48437171Y-26475863D01*
X48463634Y-26529993D01*
X48463779Y-26530186D01*
X48508080Y-26570968D01*
X48511779Y-26574517D01*
X49966149Y-28028888D01*
X49982275Y-28048744D01*
X49988215Y-28057836D01*
X50013189Y-28077274D01*
X50024706Y-28087445D01*
X50024781Y-28087520D01*
X50034709Y-28094608D01*
X50041698Y-28099598D01*
X50045807Y-28102662D01*
X50093340Y-28139658D01*
X50093531Y-28139757D01*
X50124690Y-28149033D01*
X50151254Y-28156941D01*
X50156091Y-28158490D01*
X50205639Y-28175500D01*
X50213096Y-28178060D01*
X50213329Y-28178093D01*
X50221208Y-28177767D01*
X50221211Y-28177768D01*
X50273492Y-28175605D01*
X50278615Y-28175500D01*
X59348101Y-28175500D01*
X59395554Y-28184939D01*
X59435782Y-28211819D01*
X60465106Y-29241143D01*
X60497443Y-29297654D01*
X60496691Y-29362758D01*
X60438603Y-29566914D01*
X60419785Y-29770000D01*
X60438602Y-29973083D01*
X60494418Y-30169251D01*
X60585324Y-30351818D01*
X60708236Y-30514580D01*
X60858958Y-30651981D01*
X61018042Y-30750481D01*
X61032363Y-30759348D01*
X61222544Y-30833024D01*
X61423024Y-30870500D01*
X61626974Y-30870500D01*
X61626976Y-30870500D01*
X61827456Y-30833024D01*
X62017637Y-30759348D01*
X62191041Y-30651981D01*
X62245016Y-30602776D01*
X62341763Y-30514580D01*
X62341764Y-30514579D01*
X62464673Y-30351821D01*
X62464673Y-30351819D01*
X62464675Y-30351818D01*
X62516688Y-30247360D01*
X62555582Y-30169250D01*
X62611397Y-29973083D01*
X62630215Y-29770000D01*
X62611397Y-29566917D01*
X62555582Y-29370750D01*
X62555209Y-29370001D01*
X62464675Y-29188181D01*
X62341763Y-29025419D01*
X62191041Y-28888018D01*
X62017638Y-28780652D01*
X61827457Y-28706976D01*
X61760629Y-28694483D01*
X61626976Y-28669500D01*
X61423024Y-28669500D01*
X61222544Y-28706976D01*
X61160956Y-28730834D01*
X61132445Y-28741880D01*
X61085742Y-28750238D01*
X61039318Y-28740445D01*
X60999971Y-28713934D01*
X60450903Y-28164866D01*
X59857149Y-27571111D01*
X59841022Y-27551253D01*
X59835083Y-27542162D01*
X59810110Y-27522725D01*
X59798593Y-27512554D01*
X59798519Y-27512480D01*
X59781594Y-27500397D01*
X59777480Y-27497330D01*
X59736189Y-27465191D01*
X59736186Y-27465190D01*
X59729963Y-27460346D01*
X59729761Y-27460242D01*
X59722200Y-27457990D01*
X59722199Y-27457990D01*
X59672036Y-27443055D01*
X59667174Y-27441497D01*
X59648637Y-27435134D01*
X59610202Y-27421939D01*
X59609969Y-27421906D01*
X59570265Y-27423548D01*
X59549806Y-27424394D01*
X59544684Y-27424500D01*
X50475198Y-27424500D01*
X50427745Y-27415061D01*
X50387517Y-27388181D01*
X50186990Y-27187654D01*
X50154301Y-27129755D01*
X50156220Y-27063293D01*
X50192197Y-27007377D01*
X50251884Y-26978085D01*
X50332456Y-26963024D01*
X50522637Y-26889348D01*
X50696041Y-26781981D01*
X50846764Y-26644579D01*
X50969673Y-26481821D01*
X50969673Y-26481819D01*
X50969675Y-26481818D01*
X51036298Y-26348019D01*
X51060582Y-26299250D01*
X51116397Y-26103083D01*
X51135215Y-25900000D01*
X51116397Y-25696917D01*
X51111270Y-25678899D01*
X51094200Y-25618904D01*
X51060582Y-25500750D01*
X51027465Y-25434241D01*
X50969675Y-25318181D01*
X50846763Y-25155419D01*
X50696041Y-25018018D01*
X50522638Y-24910652D01*
X50332457Y-24836976D01*
X50313736Y-24833476D01*
X50249066Y-24821387D01*
X50194115Y-24796106D01*
X50157662Y-24747833D01*
X50148383Y-24688059D01*
X50168487Y-24631007D01*
X50213190Y-24590254D01*
X50271854Y-24575500D01*
X52328146Y-24575500D01*
X52386810Y-24590254D01*
X52431513Y-24631007D01*
X52451617Y-24688059D01*
X52442338Y-24747833D01*
X52405885Y-24796106D01*
X52350933Y-24821387D01*
X52298119Y-24831260D01*
X52267542Y-24836976D01*
X52077361Y-24910652D01*
X51903958Y-25018018D01*
X51753236Y-25155419D01*
X51630324Y-25318181D01*
X51539418Y-25500748D01*
X51483602Y-25696916D01*
X51464785Y-25900000D01*
X51483602Y-26103083D01*
X51539418Y-26299251D01*
X51630324Y-26481818D01*
X51753236Y-26644580D01*
X51903958Y-26781981D01*
X52077361Y-26889347D01*
X52077363Y-26889348D01*
X52267544Y-26963024D01*
X52468024Y-27000500D01*
X52671974Y-27000500D01*
X52671976Y-27000500D01*
X52872456Y-26963024D01*
X53062637Y-26889348D01*
X53236041Y-26781981D01*
X53386764Y-26644579D01*
X53509673Y-26481821D01*
X53509673Y-26481819D01*
X53509675Y-26481818D01*
X53576298Y-26348019D01*
X53600582Y-26299250D01*
X53643048Y-26150000D01*
X54037472Y-26150000D01*
X54079886Y-26299069D01*
X54170751Y-26481553D01*
X54293607Y-26644241D01*
X54444259Y-26781578D01*
X54617588Y-26888899D01*
X54807679Y-26962539D01*
X54860000Y-26972320D01*
X54860000Y-26150000D01*
X55360000Y-26150000D01*
X55360000Y-26972320D01*
X55412320Y-26962539D01*
X55602411Y-26888899D01*
X55775740Y-26781578D01*
X55926392Y-26644241D01*
X56049248Y-26481553D01*
X56140113Y-26299069D01*
X56182528Y-26150000D01*
X55360000Y-26150000D01*
X54860000Y-26150000D01*
X54037472Y-26150000D01*
X53643048Y-26150000D01*
X53656397Y-26103083D01*
X53675215Y-25900000D01*
X53656397Y-25696917D01*
X53651270Y-25678899D01*
X53634200Y-25618904D01*
X53600582Y-25500750D01*
X53567465Y-25434241D01*
X53509675Y-25318181D01*
X53386763Y-25155419D01*
X53236041Y-25018018D01*
X53062638Y-24910652D01*
X52872457Y-24836976D01*
X52853736Y-24833476D01*
X52789066Y-24821387D01*
X52734115Y-24796106D01*
X52697662Y-24747833D01*
X52688383Y-24688059D01*
X52708487Y-24631007D01*
X52753190Y-24590254D01*
X52811854Y-24575500D01*
X54870867Y-24575500D01*
X54929531Y-24590254D01*
X54974234Y-24631007D01*
X54994338Y-24688059D01*
X54985059Y-24747833D01*
X54948606Y-24796106D01*
X54893652Y-24821389D01*
X54807679Y-24837459D01*
X54617588Y-24911100D01*
X54444259Y-25018421D01*
X54293607Y-25155758D01*
X54170751Y-25318446D01*
X54079886Y-25500930D01*
X54037471Y-25649999D01*
X54037472Y-25650000D01*
X56182528Y-25650000D01*
X56182528Y-25649999D01*
X56140113Y-25500930D01*
X56049248Y-25318446D01*
X55926392Y-25155758D01*
X55775740Y-25018421D01*
X55602411Y-24911100D01*
X55412320Y-24837459D01*
X55326348Y-24821389D01*
X55271394Y-24796106D01*
X55234941Y-24747833D01*
X55225662Y-24688059D01*
X55245766Y-24631007D01*
X55290469Y-24590254D01*
X55349133Y-24575500D01*
X56650479Y-24575500D01*
X56711068Y-24591311D01*
X56756207Y-24634711D01*
X56774383Y-24694632D01*
X56760963Y-24755796D01*
X56719369Y-24802603D01*
X56702261Y-24814033D01*
X56702260Y-24814034D01*
X56667200Y-24837460D01*
X56619399Y-24869399D01*
X56564033Y-24952261D01*
X56549500Y-25025325D01*
X56549500Y-26774675D01*
X56564033Y-26847738D01*
X56564033Y-26847739D01*
X56564034Y-26847740D01*
X56619399Y-26930601D01*
X56702260Y-26985966D01*
X56738792Y-26993232D01*
X56775325Y-27000500D01*
X56775326Y-27000500D01*
X58524674Y-27000500D01*
X58524675Y-27000500D01*
X58549029Y-26995655D01*
X58597740Y-26985966D01*
X58680601Y-26930601D01*
X58735966Y-26847740D01*
X58750500Y-26774674D01*
X58750500Y-25285899D01*
X58764015Y-25229604D01*
X58801615Y-25185581D01*
X58855102Y-25163426D01*
X58912818Y-25167968D01*
X58962181Y-25198218D01*
X60465106Y-26701143D01*
X60497443Y-26757654D01*
X60496691Y-26822758D01*
X60438603Y-27026914D01*
X60419785Y-27230000D01*
X60438602Y-27433083D01*
X60494418Y-27629251D01*
X60585324Y-27811818D01*
X60708236Y-27974580D01*
X60858958Y-28111981D01*
X61020203Y-28211819D01*
X61032363Y-28219348D01*
X61222544Y-28293024D01*
X61423024Y-28330500D01*
X61626974Y-28330500D01*
X61626976Y-28330500D01*
X61827456Y-28293024D01*
X62017637Y-28219348D01*
X62191041Y-28111981D01*
X62248031Y-28060028D01*
X62341763Y-27974580D01*
X62403940Y-27892244D01*
X62464673Y-27811821D01*
X62464673Y-27811819D01*
X62464675Y-27811818D01*
X62523788Y-27693101D01*
X62555582Y-27629250D01*
X62611397Y-27433083D01*
X62630215Y-27230000D01*
X62611397Y-27026917D01*
X62605837Y-27007377D01*
X62560416Y-26847740D01*
X62555582Y-26830750D01*
X62555209Y-26830001D01*
X62464675Y-26648181D01*
X62341763Y-26485419D01*
X62191041Y-26348018D01*
X62017638Y-26240652D01*
X61827457Y-26166976D01*
X61736642Y-26150000D01*
X61626976Y-26129500D01*
X61423024Y-26129500D01*
X61222544Y-26166976D01*
X61160956Y-26190834D01*
X61132445Y-26201880D01*
X61085742Y-26210238D01*
X61039318Y-26200445D01*
X60999971Y-26173934D01*
X59915106Y-25089069D01*
X59766037Y-24940000D01*
X60452472Y-24940000D01*
X60494886Y-25089069D01*
X60585751Y-25271553D01*
X60708607Y-25434241D01*
X60859259Y-25571578D01*
X61032588Y-25678899D01*
X61222679Y-25752539D01*
X61275000Y-25762320D01*
X61275000Y-24940000D01*
X61775000Y-24940000D01*
X61775000Y-25762320D01*
X61827320Y-25752539D01*
X62017411Y-25678899D01*
X62190740Y-25571578D01*
X62341392Y-25434241D01*
X62464248Y-25271553D01*
X62555113Y-25089069D01*
X62597528Y-24940000D01*
X61775000Y-24940000D01*
X61275000Y-24940000D01*
X60452472Y-24940000D01*
X59766037Y-24940000D01*
X59266037Y-24439999D01*
X60452471Y-24439999D01*
X60452472Y-24440000D01*
X61275000Y-24440000D01*
X61275000Y-23617680D01*
X61775000Y-23617680D01*
X61775000Y-24440000D01*
X62597528Y-24440000D01*
X62597528Y-24439999D01*
X62555113Y-24290930D01*
X62464248Y-24108446D01*
X62341392Y-23945758D01*
X62190740Y-23808421D01*
X62017411Y-23701100D01*
X61827320Y-23627460D01*
X61775000Y-23617680D01*
X61275000Y-23617680D01*
X61222679Y-23627460D01*
X61032588Y-23701100D01*
X60859259Y-23808421D01*
X60708607Y-23945758D01*
X60585751Y-24108446D01*
X60494886Y-24290930D01*
X60452471Y-24439999D01*
X59266037Y-24439999D01*
X58797149Y-23971111D01*
X58781022Y-23951253D01*
X58775083Y-23942162D01*
X58750110Y-23922725D01*
X58738593Y-23912554D01*
X58738519Y-23912480D01*
X58721594Y-23900397D01*
X58717480Y-23897330D01*
X58676189Y-23865191D01*
X58676186Y-23865190D01*
X58669963Y-23860346D01*
X58669761Y-23860242D01*
X58662200Y-23857990D01*
X58662199Y-23857990D01*
X58612036Y-23843055D01*
X58607174Y-23841497D01*
X58595780Y-23837586D01*
X58550202Y-23821939D01*
X58549969Y-23821906D01*
X58504910Y-23823769D01*
X58489806Y-23824394D01*
X58484684Y-23824500D01*
X49806899Y-23824500D01*
X49759446Y-23815061D01*
X49719218Y-23788181D01*
X48799036Y-22867999D01*
X48081038Y-22150000D01*
X48924785Y-22150000D01*
X48943602Y-22353083D01*
X48999418Y-22549251D01*
X49090324Y-22731818D01*
X49213236Y-22894580D01*
X49363958Y-23031981D01*
X49537361Y-23139347D01*
X49537363Y-23139348D01*
X49727544Y-23213024D01*
X49928024Y-23250500D01*
X50131974Y-23250500D01*
X50131976Y-23250500D01*
X50332456Y-23213024D01*
X50522637Y-23139348D01*
X50696041Y-23031981D01*
X50704056Y-23024674D01*
X50846763Y-22894580D01*
X50847019Y-22894241D01*
X50969673Y-22731821D01*
X50969673Y-22731819D01*
X50969675Y-22731818D01*
X51042270Y-22586026D01*
X51060582Y-22549250D01*
X51116397Y-22353083D01*
X51135215Y-22150000D01*
X51464785Y-22150000D01*
X51483602Y-22353083D01*
X51539418Y-22549251D01*
X51630324Y-22731818D01*
X51753236Y-22894580D01*
X51903958Y-23031981D01*
X52077361Y-23139347D01*
X52077363Y-23139348D01*
X52267544Y-23213024D01*
X52468024Y-23250500D01*
X52671974Y-23250500D01*
X52671976Y-23250500D01*
X52872456Y-23213024D01*
X53062637Y-23139348D01*
X53236041Y-23031981D01*
X53244056Y-23024674D01*
X53386763Y-22894580D01*
X53387019Y-22894241D01*
X53509673Y-22731821D01*
X53509673Y-22731819D01*
X53509675Y-22731818D01*
X53582270Y-22586026D01*
X53600582Y-22549250D01*
X53643048Y-22400000D01*
X54037472Y-22400000D01*
X54079886Y-22549069D01*
X54170751Y-22731553D01*
X54293607Y-22894241D01*
X54444259Y-23031578D01*
X54617588Y-23138899D01*
X54807679Y-23212539D01*
X54860000Y-23222320D01*
X54860000Y-22400000D01*
X55360000Y-22400000D01*
X55360000Y-23222320D01*
X55412320Y-23212539D01*
X55602411Y-23138899D01*
X55775740Y-23031578D01*
X55783312Y-23024675D01*
X56549500Y-23024675D01*
X56564033Y-23097738D01*
X56564033Y-23097739D01*
X56564034Y-23097740D01*
X56619399Y-23180601D01*
X56702260Y-23235966D01*
X56738792Y-23243232D01*
X56775325Y-23250500D01*
X56775326Y-23250500D01*
X58524674Y-23250500D01*
X58524675Y-23250500D01*
X58549029Y-23245655D01*
X58597740Y-23235966D01*
X58680601Y-23180601D01*
X58735966Y-23097740D01*
X58750500Y-23024675D01*
X60424500Y-23024675D01*
X60439033Y-23097738D01*
X60439033Y-23097739D01*
X60439034Y-23097740D01*
X60494399Y-23180601D01*
X60577260Y-23235966D01*
X60613792Y-23243232D01*
X60650325Y-23250500D01*
X60650326Y-23250500D01*
X62399674Y-23250500D01*
X62399675Y-23250500D01*
X62424029Y-23245655D01*
X62472740Y-23235966D01*
X62555601Y-23180601D01*
X62610966Y-23097740D01*
X62625500Y-23024674D01*
X62625500Y-21275326D01*
X62624126Y-21268421D01*
X62610966Y-21202261D01*
X62610966Y-21202260D01*
X62555601Y-21119399D01*
X62472740Y-21064034D01*
X62472739Y-21064033D01*
X62472738Y-21064033D01*
X62399675Y-21049500D01*
X62399674Y-21049500D01*
X60650326Y-21049500D01*
X60650325Y-21049500D01*
X60577261Y-21064033D01*
X60494399Y-21119399D01*
X60439033Y-21202261D01*
X60424500Y-21275325D01*
X60424500Y-23024675D01*
X58750500Y-23024675D01*
X58750500Y-23024674D01*
X58750500Y-21275326D01*
X58749126Y-21268421D01*
X58735966Y-21202261D01*
X58735966Y-21202260D01*
X58680601Y-21119399D01*
X58597740Y-21064034D01*
X58597739Y-21064033D01*
X58597738Y-21064033D01*
X58524675Y-21049500D01*
X58524674Y-21049500D01*
X56775326Y-21049500D01*
X56775325Y-21049500D01*
X56702261Y-21064033D01*
X56619399Y-21119399D01*
X56564033Y-21202261D01*
X56549500Y-21275325D01*
X56549500Y-23024675D01*
X55783312Y-23024675D01*
X55926392Y-22894241D01*
X56049248Y-22731553D01*
X56140113Y-22549069D01*
X56182528Y-22400000D01*
X55360000Y-22400000D01*
X54860000Y-22400000D01*
X54037472Y-22400000D01*
X53643048Y-22400000D01*
X53656397Y-22353083D01*
X53675215Y-22150000D01*
X53656397Y-21946917D01*
X53649054Y-21921111D01*
X53643047Y-21899999D01*
X54037471Y-21899999D01*
X54037472Y-21900000D01*
X54860000Y-21900000D01*
X54860000Y-21077680D01*
X55360000Y-21077680D01*
X55360000Y-21900000D01*
X56182528Y-21900000D01*
X56182528Y-21899999D01*
X56140113Y-21750930D01*
X56049248Y-21568446D01*
X55926392Y-21405758D01*
X55775740Y-21268421D01*
X55602411Y-21161100D01*
X55412320Y-21087460D01*
X55360000Y-21077680D01*
X54860000Y-21077680D01*
X54807679Y-21087460D01*
X54617588Y-21161100D01*
X54444259Y-21268421D01*
X54293607Y-21405758D01*
X54170751Y-21568446D01*
X54079886Y-21750930D01*
X54037471Y-21899999D01*
X53643047Y-21899999D01*
X53618917Y-21815191D01*
X53600582Y-21750750D01*
X53600209Y-21750001D01*
X53509675Y-21568181D01*
X53386763Y-21405419D01*
X53236041Y-21268018D01*
X53062638Y-21160652D01*
X52872457Y-21086976D01*
X52749726Y-21064034D01*
X52671976Y-21049500D01*
X52468024Y-21049500D01*
X52390279Y-21064033D01*
X52267542Y-21086976D01*
X52077361Y-21160652D01*
X51903958Y-21268018D01*
X51753236Y-21405419D01*
X51630324Y-21568181D01*
X51539418Y-21750748D01*
X51483602Y-21946916D01*
X51464785Y-22150000D01*
X51135215Y-22150000D01*
X51116397Y-21946917D01*
X51109054Y-21921111D01*
X51078917Y-21815191D01*
X51060582Y-21750750D01*
X51060209Y-21750001D01*
X50969675Y-21568181D01*
X50846763Y-21405419D01*
X50696041Y-21268018D01*
X50522638Y-21160652D01*
X50332457Y-21086976D01*
X50209726Y-21064034D01*
X50131976Y-21049500D01*
X49928024Y-21049500D01*
X49850279Y-21064033D01*
X49727542Y-21086976D01*
X49537361Y-21160652D01*
X49363958Y-21268018D01*
X49213236Y-21405419D01*
X49090324Y-21568181D01*
X48999418Y-21750748D01*
X48943602Y-21946916D01*
X48924785Y-22150000D01*
X48081038Y-22150000D01*
X47852149Y-21921111D01*
X47836022Y-21901253D01*
X47835203Y-21900000D01*
X47830084Y-21892164D01*
X47830083Y-21892162D01*
X47805110Y-21872725D01*
X47793593Y-21862554D01*
X47793519Y-21862480D01*
X47776594Y-21850397D01*
X47772480Y-21847330D01*
X47731189Y-21815191D01*
X47731186Y-21815190D01*
X47724963Y-21810346D01*
X47724761Y-21810242D01*
X47717200Y-21807990D01*
X47717199Y-21807990D01*
X47667036Y-21793055D01*
X47662174Y-21791497D01*
X47650780Y-21787586D01*
X47605202Y-21771939D01*
X47604969Y-21771906D01*
X47559910Y-21773769D01*
X47544806Y-21774394D01*
X47539684Y-21774500D01*
X46116308Y-21774500D01*
X46058681Y-21760296D01*
X46014257Y-21720938D01*
X46010484Y-21715471D01*
X46010483Y-21715470D01*
X45892240Y-21610717D01*
X45878994Y-21603764D01*
X45752364Y-21537303D01*
X45598985Y-21499500D01*
X45441015Y-21499500D01*
X45287635Y-21537303D01*
X45147761Y-21610716D01*
X45029515Y-21715471D01*
X44939780Y-21845476D01*
X44883763Y-21993181D01*
X44864721Y-22150000D01*
X44870896Y-22200853D01*
X44865017Y-22256249D01*
X44835481Y-22303480D01*
X43550781Y-23588181D01*
X43510553Y-23615061D01*
X43463100Y-23624500D01*
X30181804Y-23624500D01*
X30156358Y-23621861D01*
X30145732Y-23619633D01*
X30114323Y-23623548D01*
X30098986Y-23624500D01*
X30098884Y-23624500D01*
X30078399Y-23627918D01*
X30073332Y-23628657D01*
X30013567Y-23636107D01*
X30013312Y-23636189D01*
X29960370Y-23664838D01*
X29955820Y-23667180D01*
X29901715Y-23693632D01*
X29901505Y-23693788D01*
X29860718Y-23738094D01*
X29857171Y-23741790D01*
X27425028Y-26173933D01*
X27385681Y-26200444D01*
X27339258Y-26210237D01*
X27292555Y-26201879D01*
X27202459Y-26166977D01*
X27202458Y-26166976D01*
X27202456Y-26166976D01*
X27001976Y-26129500D01*
X26798024Y-26129500D01*
X26697783Y-26148238D01*
X26597542Y-26166976D01*
X26407361Y-26240652D01*
X26233958Y-26348018D01*
X26083236Y-26485419D01*
X25960324Y-26648181D01*
X25869418Y-26830748D01*
X25813602Y-27026916D01*
X25794785Y-27229999D01*
X25813602Y-27433083D01*
X25869418Y-27629251D01*
X25960324Y-27811818D01*
X26083236Y-27974580D01*
X26233958Y-28111981D01*
X26395203Y-28211819D01*
X26407363Y-28219348D01*
X26597544Y-28293024D01*
X26798024Y-28330500D01*
X27001974Y-28330500D01*
X27001976Y-28330500D01*
X27202456Y-28293024D01*
X27392637Y-28219348D01*
X27566041Y-28111981D01*
X27623031Y-28060028D01*
X27716763Y-27974580D01*
X27778940Y-27892244D01*
X27839673Y-27811821D01*
X27839673Y-27811819D01*
X27839675Y-27811818D01*
X27898788Y-27693101D01*
X27930582Y-27629250D01*
X27986397Y-27433083D01*
X28005215Y-27230000D01*
X27986397Y-27026917D01*
X27980837Y-27007377D01*
X27928308Y-26822758D01*
X27927556Y-26757653D01*
X27959891Y-26701144D01*
X29337818Y-25323219D01*
X29387182Y-25292969D01*
X29444898Y-25288427D01*
X29498385Y-25310582D01*
X29535985Y-25354605D01*
X29549500Y-25410900D01*
X29549500Y-26774675D01*
X29564033Y-26847738D01*
X29564033Y-26847739D01*
X29564034Y-26847740D01*
X29619399Y-26930601D01*
X29702260Y-26985966D01*
X29738792Y-26993232D01*
X29775325Y-27000500D01*
X29775326Y-27000500D01*
X31524674Y-27000500D01*
X31524675Y-27000500D01*
X31549029Y-26995655D01*
X31597740Y-26985966D01*
X31680601Y-26930601D01*
X31735966Y-26847740D01*
X31750500Y-26774674D01*
X31750500Y-26150000D01*
X32117472Y-26150000D01*
X32159886Y-26299069D01*
X32250751Y-26481553D01*
X32373607Y-26644241D01*
X32524259Y-26781578D01*
X32697588Y-26888899D01*
X32887679Y-26962539D01*
X32940000Y-26972320D01*
X32940000Y-26150000D01*
X33440000Y-26150000D01*
X33440000Y-26972320D01*
X33492320Y-26962539D01*
X33682411Y-26888899D01*
X33855740Y-26781578D01*
X34006392Y-26644241D01*
X34129248Y-26481553D01*
X34220113Y-26299069D01*
X34262528Y-26150000D01*
X33440000Y-26150000D01*
X32940000Y-26150000D01*
X32117472Y-26150000D01*
X31750500Y-26150000D01*
X31750500Y-25899999D01*
X34624785Y-25899999D01*
X34643602Y-26103083D01*
X34699418Y-26299251D01*
X34790324Y-26481818D01*
X34913236Y-26644580D01*
X35063958Y-26781981D01*
X35237361Y-26889347D01*
X35237363Y-26889348D01*
X35427544Y-26963024D01*
X35628024Y-27000500D01*
X35831974Y-27000500D01*
X35831976Y-27000500D01*
X36032456Y-26963024D01*
X36222637Y-26889348D01*
X36396041Y-26781981D01*
X36546764Y-26644579D01*
X36669673Y-26481821D01*
X36669673Y-26481819D01*
X36669675Y-26481818D01*
X36736298Y-26348019D01*
X36760582Y-26299250D01*
X36816397Y-26103083D01*
X36835215Y-25900000D01*
X37164785Y-25900000D01*
X37183602Y-26103083D01*
X37239418Y-26299251D01*
X37330324Y-26481818D01*
X37453236Y-26644580D01*
X37603958Y-26781981D01*
X37777361Y-26889347D01*
X37777363Y-26889348D01*
X37967544Y-26963024D01*
X38168024Y-27000500D01*
X38371974Y-27000500D01*
X38371976Y-27000500D01*
X38572456Y-26963024D01*
X38762637Y-26889348D01*
X38936041Y-26781981D01*
X39086764Y-26644579D01*
X39209673Y-26481821D01*
X39209673Y-26481819D01*
X39209675Y-26481818D01*
X39276298Y-26348019D01*
X39300582Y-26299250D01*
X39356397Y-26103083D01*
X39375215Y-25900000D01*
X39356397Y-25696917D01*
X39351270Y-25678899D01*
X39334200Y-25618904D01*
X39300582Y-25500750D01*
X39267465Y-25434241D01*
X39209675Y-25318181D01*
X39086763Y-25155419D01*
X38936041Y-25018018D01*
X38762638Y-24910652D01*
X38572457Y-24836976D01*
X38449726Y-24814034D01*
X38371976Y-24799500D01*
X38168024Y-24799500D01*
X38090279Y-24814033D01*
X37967542Y-24836976D01*
X37777361Y-24910652D01*
X37603958Y-25018018D01*
X37453236Y-25155419D01*
X37330324Y-25318181D01*
X37239418Y-25500748D01*
X37183602Y-25696916D01*
X37164785Y-25900000D01*
X36835215Y-25900000D01*
X36816397Y-25696917D01*
X36811270Y-25678899D01*
X36794200Y-25618904D01*
X36760582Y-25500750D01*
X36727465Y-25434241D01*
X36669675Y-25318181D01*
X36546763Y-25155419D01*
X36396041Y-25018018D01*
X36222638Y-24910652D01*
X36032457Y-24836976D01*
X35909726Y-24814034D01*
X35831976Y-24799500D01*
X35628024Y-24799500D01*
X35550279Y-24814033D01*
X35427542Y-24836976D01*
X35237361Y-24910652D01*
X35063958Y-25018018D01*
X34913236Y-25155419D01*
X34790324Y-25318181D01*
X34699418Y-25500748D01*
X34643602Y-25696916D01*
X34624785Y-25899999D01*
X31750500Y-25899999D01*
X31750500Y-25649999D01*
X32117471Y-25649999D01*
X32117472Y-25650000D01*
X32940000Y-25650000D01*
X32940000Y-24827680D01*
X33440000Y-24827680D01*
X33440000Y-25650000D01*
X34262528Y-25650000D01*
X34262528Y-25649999D01*
X34220113Y-25500930D01*
X34129248Y-25318446D01*
X34006392Y-25155758D01*
X33855740Y-25018421D01*
X33682411Y-24911100D01*
X33492320Y-24837460D01*
X33440000Y-24827680D01*
X32940000Y-24827680D01*
X32887679Y-24837460D01*
X32697588Y-24911100D01*
X32524259Y-25018421D01*
X32373607Y-25155758D01*
X32250751Y-25318446D01*
X32159886Y-25500930D01*
X32117471Y-25649999D01*
X31750500Y-25649999D01*
X31750500Y-25025326D01*
X31749126Y-25018421D01*
X31735966Y-24952261D01*
X31735966Y-24952260D01*
X31680601Y-24869399D01*
X31597740Y-24814034D01*
X31597739Y-24814033D01*
X31597738Y-24814033D01*
X31524675Y-24799500D01*
X31524674Y-24799500D01*
X30160900Y-24799500D01*
X30104605Y-24785985D01*
X30060582Y-24748385D01*
X30038427Y-24694898D01*
X30042969Y-24637182D01*
X30073219Y-24587819D01*
X30249219Y-24411819D01*
X30289447Y-24384939D01*
X30336900Y-24375500D01*
X43438726Y-24375500D01*
X43476268Y-24385837D01*
X43476360Y-24385403D01*
X43501587Y-24390692D01*
X43560124Y-24420822D01*
X43594988Y-24476670D01*
X43596349Y-24542493D01*
X43563824Y-24599734D01*
X40775379Y-27388181D01*
X40735151Y-27415061D01*
X40687698Y-27424500D01*
X28921804Y-27424500D01*
X28896358Y-27421861D01*
X28885732Y-27419633D01*
X28854323Y-27423548D01*
X28838986Y-27424500D01*
X28838884Y-27424500D01*
X28818399Y-27427918D01*
X28813332Y-27428657D01*
X28753567Y-27436107D01*
X28753312Y-27436189D01*
X28700370Y-27464838D01*
X28695820Y-27467180D01*
X28641715Y-27493632D01*
X28641505Y-27493788D01*
X28600719Y-27538093D01*
X28597172Y-27541789D01*
X27425028Y-28713933D01*
X27385681Y-28740444D01*
X27339258Y-28750237D01*
X27292555Y-28741879D01*
X27202459Y-28706977D01*
X27202458Y-28706976D01*
X27202456Y-28706976D01*
X27001976Y-28669500D01*
X26798024Y-28669500D01*
X26697784Y-28688237D01*
X26597542Y-28706976D01*
X26407361Y-28780652D01*
X26233958Y-28888018D01*
X26083236Y-29025419D01*
X25960324Y-29188181D01*
X25869418Y-29370748D01*
X25813602Y-29566916D01*
X25794785Y-29769999D01*
X20000500Y-29769999D01*
X20000500Y-24940000D01*
X25827472Y-24940000D01*
X25869886Y-25089069D01*
X25960751Y-25271553D01*
X26083607Y-25434241D01*
X26234259Y-25571578D01*
X26407588Y-25678899D01*
X26597679Y-25752539D01*
X26650000Y-25762320D01*
X26650000Y-24940000D01*
X27150000Y-24940000D01*
X27150000Y-25762320D01*
X27202320Y-25752539D01*
X27392411Y-25678899D01*
X27565740Y-25571578D01*
X27716392Y-25434241D01*
X27839248Y-25271553D01*
X27930113Y-25089069D01*
X27972528Y-24940000D01*
X27150000Y-24940000D01*
X26650000Y-24940000D01*
X25827472Y-24940000D01*
X20000500Y-24940000D01*
X20000500Y-24439999D01*
X25827471Y-24439999D01*
X25827472Y-24440000D01*
X26650000Y-24440000D01*
X26650000Y-23617680D01*
X27150000Y-23617680D01*
X27150000Y-24440000D01*
X27972528Y-24440000D01*
X27972528Y-24439999D01*
X27930113Y-24290930D01*
X27839248Y-24108446D01*
X27716392Y-23945758D01*
X27565740Y-23808421D01*
X27392411Y-23701100D01*
X27202320Y-23627460D01*
X27150000Y-23617680D01*
X26650000Y-23617680D01*
X26597679Y-23627460D01*
X26407588Y-23701100D01*
X26234259Y-23808421D01*
X26083607Y-23945758D01*
X25960751Y-24108446D01*
X25869886Y-24290930D01*
X25827471Y-24439999D01*
X20000500Y-24439999D01*
X20000500Y-23024675D01*
X25799500Y-23024675D01*
X25814033Y-23097738D01*
X25814033Y-23097739D01*
X25814034Y-23097740D01*
X25869399Y-23180601D01*
X25952260Y-23235966D01*
X25988792Y-23243232D01*
X26025325Y-23250500D01*
X26025326Y-23250500D01*
X27774674Y-23250500D01*
X27774675Y-23250500D01*
X27799029Y-23245655D01*
X27847740Y-23235966D01*
X27930601Y-23180601D01*
X27985966Y-23097740D01*
X28000500Y-23024675D01*
X29549500Y-23024675D01*
X29564033Y-23097738D01*
X29564033Y-23097739D01*
X29564034Y-23097740D01*
X29619399Y-23180601D01*
X29702260Y-23235966D01*
X29738792Y-23243232D01*
X29775325Y-23250500D01*
X29775326Y-23250500D01*
X31524674Y-23250500D01*
X31524675Y-23250500D01*
X31549029Y-23245655D01*
X31597740Y-23235966D01*
X31680601Y-23180601D01*
X31735966Y-23097740D01*
X31750500Y-23024674D01*
X31750500Y-22400000D01*
X32117472Y-22400000D01*
X32159886Y-22549069D01*
X32250751Y-22731553D01*
X32373607Y-22894241D01*
X32524259Y-23031578D01*
X32697588Y-23138899D01*
X32887679Y-23212539D01*
X32940000Y-23222320D01*
X32940000Y-22400000D01*
X33440000Y-22400000D01*
X33440000Y-23222320D01*
X33492320Y-23212539D01*
X33682411Y-23138899D01*
X33855740Y-23031578D01*
X34006392Y-22894241D01*
X34129248Y-22731553D01*
X34220113Y-22549069D01*
X34262528Y-22400000D01*
X33440000Y-22400000D01*
X32940000Y-22400000D01*
X32117472Y-22400000D01*
X31750500Y-22400000D01*
X31750500Y-22149999D01*
X34624785Y-22149999D01*
X34643602Y-22353083D01*
X34699418Y-22549251D01*
X34790324Y-22731818D01*
X34913236Y-22894580D01*
X35063958Y-23031981D01*
X35237361Y-23139347D01*
X35237363Y-23139348D01*
X35427544Y-23213024D01*
X35628024Y-23250500D01*
X35831974Y-23250500D01*
X35831976Y-23250500D01*
X36032456Y-23213024D01*
X36222637Y-23139348D01*
X36396041Y-23031981D01*
X36404056Y-23024674D01*
X36546763Y-22894580D01*
X36547019Y-22894241D01*
X36669673Y-22731821D01*
X36669673Y-22731819D01*
X36669675Y-22731818D01*
X36742270Y-22586026D01*
X36760582Y-22549250D01*
X36816397Y-22353083D01*
X36835215Y-22150000D01*
X37164785Y-22150000D01*
X37183602Y-22353083D01*
X37239418Y-22549251D01*
X37330324Y-22731818D01*
X37453236Y-22894580D01*
X37603958Y-23031981D01*
X37777361Y-23139347D01*
X37777363Y-23139348D01*
X37967544Y-23213024D01*
X38168024Y-23250500D01*
X38371974Y-23250500D01*
X38371976Y-23250500D01*
X38572456Y-23213024D01*
X38762637Y-23139348D01*
X38936041Y-23031981D01*
X38944056Y-23024674D01*
X39086763Y-22894580D01*
X39087019Y-22894241D01*
X39209673Y-22731821D01*
X39209673Y-22731819D01*
X39209675Y-22731818D01*
X39282270Y-22586026D01*
X39300582Y-22549250D01*
X39356397Y-22353083D01*
X39375215Y-22150000D01*
X39356397Y-21946917D01*
X39349054Y-21921111D01*
X39318917Y-21815191D01*
X39300582Y-21750750D01*
X39300209Y-21750001D01*
X39209675Y-21568181D01*
X39086763Y-21405419D01*
X38936041Y-21268018D01*
X38762638Y-21160652D01*
X38572457Y-21086976D01*
X38449726Y-21064034D01*
X38371976Y-21049500D01*
X38168024Y-21049500D01*
X38090279Y-21064033D01*
X37967542Y-21086976D01*
X37777361Y-21160652D01*
X37603958Y-21268018D01*
X37453236Y-21405419D01*
X37330324Y-21568181D01*
X37239418Y-21750748D01*
X37183602Y-21946916D01*
X37164785Y-22150000D01*
X36835215Y-22150000D01*
X36816397Y-21946917D01*
X36809054Y-21921111D01*
X36778917Y-21815191D01*
X36760582Y-21750750D01*
X36760209Y-21750001D01*
X36669675Y-21568181D01*
X36546763Y-21405419D01*
X36396041Y-21268018D01*
X36222638Y-21160652D01*
X36032457Y-21086976D01*
X35909726Y-21064034D01*
X35831976Y-21049500D01*
X35628024Y-21049500D01*
X35550279Y-21064033D01*
X35427542Y-21086976D01*
X35237361Y-21160652D01*
X35063958Y-21268018D01*
X34913236Y-21405419D01*
X34790324Y-21568181D01*
X34699418Y-21750748D01*
X34643602Y-21946916D01*
X34624785Y-22149999D01*
X31750500Y-22149999D01*
X31750500Y-21899999D01*
X32117471Y-21899999D01*
X32117472Y-21900000D01*
X32940000Y-21900000D01*
X32940000Y-21077680D01*
X33440000Y-21077680D01*
X33440000Y-21900000D01*
X34262528Y-21900000D01*
X34262528Y-21899999D01*
X34220113Y-21750930D01*
X34129248Y-21568446D01*
X34006392Y-21405758D01*
X33855740Y-21268421D01*
X33682411Y-21161100D01*
X33492320Y-21087460D01*
X33440000Y-21077680D01*
X32940000Y-21077680D01*
X32887679Y-21087460D01*
X32697588Y-21161100D01*
X32524259Y-21268421D01*
X32373607Y-21405758D01*
X32250751Y-21568446D01*
X32159886Y-21750930D01*
X32117471Y-21899999D01*
X31750500Y-21899999D01*
X31750500Y-21275326D01*
X31749126Y-21268421D01*
X31735966Y-21202261D01*
X31735966Y-21202260D01*
X31680601Y-21119399D01*
X31597740Y-21064034D01*
X31597739Y-21064033D01*
X31597738Y-21064033D01*
X31524675Y-21049500D01*
X31524674Y-21049500D01*
X29775326Y-21049500D01*
X29775325Y-21049500D01*
X29702261Y-21064033D01*
X29619399Y-21119399D01*
X29564033Y-21202261D01*
X29549500Y-21275325D01*
X29549500Y-23024675D01*
X28000500Y-23024675D01*
X28000500Y-23024674D01*
X28000500Y-21275326D01*
X27999126Y-21268421D01*
X27985966Y-21202261D01*
X27985966Y-21202260D01*
X27930601Y-21119399D01*
X27847740Y-21064034D01*
X27847739Y-21064033D01*
X27847738Y-21064033D01*
X27774675Y-21049500D01*
X27774674Y-21049500D01*
X26025326Y-21049500D01*
X26025325Y-21049500D01*
X25952261Y-21064033D01*
X25869399Y-21119399D01*
X25814033Y-21202261D01*
X25799500Y-21275325D01*
X25799500Y-23024675D01*
X20000500Y-23024675D01*
X20000500Y-19624500D01*
X20017113Y-19562500D01*
X20062500Y-19517113D01*
X20124500Y-19500500D01*
X67875500Y-19500500D01*
X67937500Y-19517113D01*
G37*
%TD.AperFunction*%
%TD*%
M02*
