%TF.GenerationSoftware,KiCad,Pcbnew,7.0.1*%
%TF.CreationDate,2025-01-23T23:10:33-05:00*%
%TF.ProjectId,BusChain,42757343-6861-4696-9e2e-6b696361645f,rev?*%
%TF.SameCoordinates,Original*%
%TF.FileFunction,Soldermask,Top*%
%TF.FilePolarity,Negative*%
%FSLAX46Y46*%
G04 Gerber Fmt 4.6, Leading zero omitted, Abs format (unit mm)*
G04 Created by KiCad (PCBNEW 7.0.1) date 2025-01-23 23:10:33*
%MOMM*%
%LPD*%
G01*
G04 APERTURE LIST*
G04 Aperture macros list*
%AMRoundRect*
0 Rectangle with rounded corners*
0 $1 Rounding radius*
0 $2 $3 $4 $5 $6 $7 $8 $9 X,Y pos of 4 corners*
0 Add a 4 corners polygon primitive as box body*
4,1,4,$2,$3,$4,$5,$6,$7,$8,$9,$2,$3,0*
0 Add four circle primitives for the rounded corners*
1,1,$1+$1,$2,$3*
1,1,$1+$1,$4,$5*
1,1,$1+$1,$6,$7*
1,1,$1+$1,$8,$9*
0 Add four rect primitives between the rounded corners*
20,1,$1+$1,$2,$3,$4,$5,0*
20,1,$1+$1,$4,$5,$6,$7,0*
20,1,$1+$1,$6,$7,$8,$9,0*
20,1,$1+$1,$8,$9,$2,$3,0*%
%AMFreePoly0*
4,1,19,0.500000,-0.750000,0.000000,-0.750000,0.000000,-0.744911,-0.071157,-0.744911,-0.207708,-0.704816,-0.327430,-0.627875,-0.420627,-0.520320,-0.479746,-0.390866,-0.500000,-0.250000,-0.500000,0.250000,-0.479746,0.390866,-0.420627,0.520320,-0.327430,0.627875,-0.207708,0.704816,-0.071157,0.744911,0.000000,0.744911,0.000000,0.750000,0.500000,0.750000,0.500000,-0.750000,0.500000,-0.750000,
$1*%
%AMFreePoly1*
4,1,19,0.000000,0.744911,0.071157,0.744911,0.207708,0.704816,0.327430,0.627875,0.420627,0.520320,0.479746,0.390866,0.500000,0.250000,0.500000,-0.250000,0.479746,-0.390866,0.420627,-0.520320,0.327430,-0.627875,0.207708,-0.704816,0.071157,-0.744911,0.000000,-0.744911,0.000000,-0.750000,-0.500000,-0.750000,-0.500000,0.750000,0.000000,0.750000,0.000000,0.744911,0.000000,0.744911,
$1*%
G04 Aperture macros list end*
%ADD10R,1.700000X1.700000*%
%ADD11O,1.700000X1.700000*%
%ADD12FreePoly0,90.000000*%
%ADD13FreePoly1,90.000000*%
%ADD14RoundRect,0.135000X0.185000X-0.135000X0.185000X0.135000X-0.185000X0.135000X-0.185000X-0.135000X0*%
%ADD15RoundRect,0.135000X-0.135000X-0.185000X0.135000X-0.185000X0.135000X0.185000X-0.135000X0.185000X0*%
%ADD16R,0.650000X0.400000*%
%ADD17RoundRect,0.140000X0.140000X0.170000X-0.140000X0.170000X-0.140000X-0.170000X0.140000X-0.170000X0*%
%ADD18RoundRect,0.135000X-0.185000X0.135000X-0.185000X-0.135000X0.185000X-0.135000X0.185000X0.135000X0*%
%ADD19RoundRect,0.140000X-0.170000X0.140000X-0.170000X-0.140000X0.170000X-0.140000X0.170000X0.140000X0*%
%ADD20RoundRect,0.218750X0.218750X0.256250X-0.218750X0.256250X-0.218750X-0.256250X0.218750X-0.256250X0*%
%ADD21RoundRect,0.100000X-0.637500X-0.100000X0.637500X-0.100000X0.637500X0.100000X-0.637500X0.100000X0*%
G04 APERTURE END LIST*
D10*
%TO.C,J7*%
X57650000Y-29650000D03*
D11*
X55110000Y-29650000D03*
X52570000Y-29650000D03*
X50030000Y-29650000D03*
%TD*%
D12*
%TO.C,JP1*%
X41650000Y-34150000D03*
D13*
X41650000Y-32850000D03*
%TD*%
D10*
%TO.C,J4*%
X30650000Y-29650000D03*
D11*
X33190000Y-29650000D03*
X35730000Y-29650000D03*
X38270000Y-29650000D03*
%TD*%
D10*
%TO.C,J5*%
X30650000Y-33400000D03*
D11*
X33190000Y-33400000D03*
X35730000Y-33400000D03*
X38270000Y-33400000D03*
%TD*%
D14*
%TO.C,R2*%
X28020000Y-33670000D03*
X28020000Y-32650000D03*
%TD*%
D15*
%TO.C,R3*%
X65490000Y-33250000D03*
X66510000Y-33250000D03*
%TD*%
D10*
%TO.C,J8*%
X57650000Y-25900000D03*
D11*
X55110000Y-25900000D03*
X52570000Y-25900000D03*
X50030000Y-25900000D03*
%TD*%
D16*
%TO.C,U2*%
X22320000Y-33000000D03*
X22320000Y-33650000D03*
X22320000Y-34300000D03*
X24220000Y-34300000D03*
X24220000Y-33000000D03*
%TD*%
D17*
%TO.C,C5*%
X47000000Y-20650000D03*
X46040000Y-20650000D03*
%TD*%
D18*
%TO.C,R5*%
X46650000Y-30250000D03*
X46650000Y-31270000D03*
%TD*%
D10*
%TO.C,J2*%
X30650000Y-22150000D03*
D11*
X33190000Y-22150000D03*
X35730000Y-22150000D03*
X38270000Y-22150000D03*
%TD*%
D19*
%TO.C,C1*%
X21020000Y-32690000D03*
X21020000Y-33650000D03*
%TD*%
D12*
%TO.C,JP3*%
X46650000Y-34150000D03*
D13*
X46650000Y-32850000D03*
%TD*%
D18*
%TO.C,R6*%
X44150000Y-30250000D03*
X44150000Y-31270000D03*
%TD*%
D10*
%TO.C,J1*%
X26900000Y-22150000D03*
D11*
X26900000Y-24690000D03*
X26900000Y-27230000D03*
X26900000Y-29770000D03*
%TD*%
D19*
%TO.C,C2*%
X25520000Y-32670000D03*
X25520000Y-33630000D03*
%TD*%
D10*
%TO.C,J9*%
X57650000Y-22150000D03*
D11*
X55110000Y-22150000D03*
X52570000Y-22150000D03*
X50030000Y-22150000D03*
%TD*%
D14*
%TO.C,R1*%
X26770000Y-33670000D03*
X26770000Y-32650000D03*
%TD*%
D10*
%TO.C,J6*%
X57650000Y-33400000D03*
D11*
X55110000Y-33400000D03*
X52570000Y-33400000D03*
X50030000Y-33400000D03*
%TD*%
D18*
%TO.C,R7*%
X41650000Y-30240000D03*
X41650000Y-31260000D03*
%TD*%
D10*
%TO.C,J10*%
X61525000Y-22150000D03*
D11*
X61525000Y-24690000D03*
X61525000Y-27230000D03*
X61525000Y-29770000D03*
%TD*%
D20*
%TO.C,D1*%
X64057500Y-33250000D03*
X62482500Y-33250000D03*
%TD*%
D12*
%TO.C,JP2*%
X44150000Y-34150000D03*
D13*
X44150000Y-32850000D03*
%TD*%
D21*
%TO.C,U6*%
X41287500Y-21925000D03*
X41287500Y-22575000D03*
X41287500Y-23225000D03*
X41287500Y-23875000D03*
X41287500Y-24525000D03*
X41287500Y-25175000D03*
X41287500Y-25825000D03*
X41287500Y-26475000D03*
X41287500Y-27125000D03*
X41287500Y-27775000D03*
X41287500Y-28425000D03*
X41287500Y-29075000D03*
X47012500Y-29075000D03*
X47012500Y-28425000D03*
X47012500Y-27775000D03*
X47012500Y-27125000D03*
X47012500Y-26475000D03*
X47012500Y-25825000D03*
X47012500Y-25175000D03*
X47012500Y-24525000D03*
X47012500Y-23875000D03*
X47012500Y-23225000D03*
X47012500Y-22575000D03*
X47012500Y-21925000D03*
%TD*%
D10*
%TO.C,J3*%
X30650000Y-25900000D03*
D11*
X33190000Y-25900000D03*
X35730000Y-25900000D03*
X38270000Y-25900000D03*
%TD*%
M02*
