M48
; DRILL file {KiCad 7.0.1} date Wed Jan 22 18:06:02 2025
; FORMAT={-:-/ absolute / inch / decimal}
; #@! TF.CreationDate,2025-01-22T18:06:02-05:00
; #@! TF.GenerationSoftware,Kicad,Pcbnew,7.0.1
; #@! TF.FileFunction,Plated,1,2,PTH
FMAT,2
INCH
; #@! TA.AperFunction,Plated,PTH,ViaDrill
T1C0.0157
; #@! TA.AperFunction,Plated,PTH,ComponentDrill
T2C0.0394
%
G90
G05
T1
X0.8268Y-1.3583
X1.0039Y-1.3583
X1.6122Y-1.2048
X1.6742Y-1.1423
X1.6836Y-1.2168
X1.7626Y-0.9419
X1.7708Y-1.2056
X1.7921Y-0.872
X1.7954Y-1.1495
X1.802Y-0.9409
X1.8799Y-0.8169
X2.6476Y-1.2697
X2.6476Y-1.3583
T2
X1.0591Y-0.872
X1.0591Y-0.972
X1.0591Y-1.072
X1.0591Y-1.172
X1.2067Y-0.872
X1.2067Y-1.0197
X1.2067Y-1.1673
X1.2067Y-1.315
X1.3067Y-0.872
X1.3067Y-1.0197
X1.3067Y-1.1673
X1.3067Y-1.315
X1.4067Y-0.872
X1.4067Y-1.0197
X1.4067Y-1.1673
X1.4067Y-1.315
X1.5067Y-0.872
X1.5067Y-1.0197
X1.5067Y-1.1673
X1.5067Y-1.315
X1.9697Y-0.872
X1.9697Y-1.0197
X1.9697Y-1.1673
X1.9697Y-1.315
X2.0697Y-0.872
X2.0697Y-1.0197
X2.0697Y-1.1673
X2.0697Y-1.315
X2.1697Y-0.872
X2.1697Y-1.0197
X2.1697Y-1.1673
X2.1697Y-1.315
X2.2697Y-0.872
X2.2697Y-1.0197
X2.2697Y-1.1673
X2.2697Y-1.315
X2.4222Y-0.872
X2.4222Y-0.972
X2.4222Y-1.072
X2.4222Y-1.172
T0
M30
