%TF.GenerationSoftware,KiCad,Pcbnew,7.0.1*%
%TF.CreationDate,2025-01-23T23:10:33-05:00*%
%TF.ProjectId,BusChain,42757343-6861-4696-9e2e-6b696361645f,rev?*%
%TF.SameCoordinates,Original*%
%TF.FileFunction,Legend,Top*%
%TF.FilePolarity,Positive*%
%FSLAX46Y46*%
G04 Gerber Fmt 4.6, Leading zero omitted, Abs format (unit mm)*
G04 Created by KiCad (PCBNEW 7.0.1) date 2025-01-23 23:10:33*
%MOMM*%
%LPD*%
G01*
G04 APERTURE LIST*
%ADD10C,0.150000*%
%ADD11C,0.120000*%
G04 APERTURE END LIST*
D10*
X39771428Y-29246285D02*
X39809524Y-29208190D01*
X39809524Y-29208190D02*
X39885714Y-29170095D01*
X39885714Y-29170095D02*
X40076190Y-29170095D01*
X40076190Y-29170095D02*
X40152381Y-29208190D01*
X40152381Y-29208190D02*
X40190476Y-29246285D01*
X40190476Y-29246285D02*
X40228571Y-29322476D01*
X40228571Y-29322476D02*
X40228571Y-29398666D01*
X40228571Y-29398666D02*
X40190476Y-29512952D01*
X40190476Y-29512952D02*
X39733333Y-29970095D01*
X39733333Y-29970095D02*
X40228571Y-29970095D01*
X32895238Y-20165333D02*
X33504762Y-20165333D01*
X49147618Y-20532000D02*
X49261904Y-20570095D01*
X49261904Y-20570095D02*
X49452380Y-20570095D01*
X49452380Y-20570095D02*
X49528571Y-20532000D01*
X49528571Y-20532000D02*
X49566666Y-20493904D01*
X49566666Y-20493904D02*
X49604761Y-20417714D01*
X49604761Y-20417714D02*
X49604761Y-20341523D01*
X49604761Y-20341523D02*
X49566666Y-20265333D01*
X49566666Y-20265333D02*
X49528571Y-20227238D01*
X49528571Y-20227238D02*
X49452380Y-20189142D01*
X49452380Y-20189142D02*
X49299999Y-20151047D01*
X49299999Y-20151047D02*
X49223809Y-20112952D01*
X49223809Y-20112952D02*
X49185714Y-20074857D01*
X49185714Y-20074857D02*
X49147618Y-19998666D01*
X49147618Y-19998666D02*
X49147618Y-19922476D01*
X49147618Y-19922476D02*
X49185714Y-19846285D01*
X49185714Y-19846285D02*
X49223809Y-19808190D01*
X49223809Y-19808190D02*
X49299999Y-19770095D01*
X49299999Y-19770095D02*
X49490476Y-19770095D01*
X49490476Y-19770095D02*
X49604761Y-19808190D01*
X50404762Y-20493904D02*
X50366666Y-20532000D01*
X50366666Y-20532000D02*
X50252381Y-20570095D01*
X50252381Y-20570095D02*
X50176190Y-20570095D01*
X50176190Y-20570095D02*
X50061904Y-20532000D01*
X50061904Y-20532000D02*
X49985714Y-20455809D01*
X49985714Y-20455809D02*
X49947619Y-20379619D01*
X49947619Y-20379619D02*
X49909523Y-20227238D01*
X49909523Y-20227238D02*
X49909523Y-20112952D01*
X49909523Y-20112952D02*
X49947619Y-19960571D01*
X49947619Y-19960571D02*
X49985714Y-19884380D01*
X49985714Y-19884380D02*
X50061904Y-19808190D01*
X50061904Y-19808190D02*
X50176190Y-19770095D01*
X50176190Y-19770095D02*
X50252381Y-19770095D01*
X50252381Y-19770095D02*
X50366666Y-19808190D01*
X50366666Y-19808190D02*
X50404762Y-19846285D01*
X51128571Y-20570095D02*
X50747619Y-20570095D01*
X50747619Y-20570095D02*
X50747619Y-19770095D01*
X27247618Y-31632000D02*
X27361904Y-31670095D01*
X27361904Y-31670095D02*
X27552380Y-31670095D01*
X27552380Y-31670095D02*
X27628571Y-31632000D01*
X27628571Y-31632000D02*
X27666666Y-31593904D01*
X27666666Y-31593904D02*
X27704761Y-31517714D01*
X27704761Y-31517714D02*
X27704761Y-31441523D01*
X27704761Y-31441523D02*
X27666666Y-31365333D01*
X27666666Y-31365333D02*
X27628571Y-31327238D01*
X27628571Y-31327238D02*
X27552380Y-31289142D01*
X27552380Y-31289142D02*
X27399999Y-31251047D01*
X27399999Y-31251047D02*
X27323809Y-31212952D01*
X27323809Y-31212952D02*
X27285714Y-31174857D01*
X27285714Y-31174857D02*
X27247618Y-31098666D01*
X27247618Y-31098666D02*
X27247618Y-31022476D01*
X27247618Y-31022476D02*
X27285714Y-30946285D01*
X27285714Y-30946285D02*
X27323809Y-30908190D01*
X27323809Y-30908190D02*
X27399999Y-30870095D01*
X27399999Y-30870095D02*
X27590476Y-30870095D01*
X27590476Y-30870095D02*
X27704761Y-30908190D01*
X28504762Y-31593904D02*
X28466666Y-31632000D01*
X28466666Y-31632000D02*
X28352381Y-31670095D01*
X28352381Y-31670095D02*
X28276190Y-31670095D01*
X28276190Y-31670095D02*
X28161904Y-31632000D01*
X28161904Y-31632000D02*
X28085714Y-31555809D01*
X28085714Y-31555809D02*
X28047619Y-31479619D01*
X28047619Y-31479619D02*
X28009523Y-31327238D01*
X28009523Y-31327238D02*
X28009523Y-31212952D01*
X28009523Y-31212952D02*
X28047619Y-31060571D01*
X28047619Y-31060571D02*
X28085714Y-30984380D01*
X28085714Y-30984380D02*
X28161904Y-30908190D01*
X28161904Y-30908190D02*
X28276190Y-30870095D01*
X28276190Y-30870095D02*
X28352381Y-30870095D01*
X28352381Y-30870095D02*
X28466666Y-30908190D01*
X28466666Y-30908190D02*
X28504762Y-30946285D01*
X29228571Y-31670095D02*
X28847619Y-31670095D01*
X28847619Y-31670095D02*
X28847619Y-30870095D01*
X39733333Y-33070095D02*
X40228571Y-33070095D01*
X40228571Y-33070095D02*
X39961905Y-33374857D01*
X39961905Y-33374857D02*
X40076190Y-33374857D01*
X40076190Y-33374857D02*
X40152381Y-33412952D01*
X40152381Y-33412952D02*
X40190476Y-33451047D01*
X40190476Y-33451047D02*
X40228571Y-33527238D01*
X40228571Y-33527238D02*
X40228571Y-33717714D01*
X40228571Y-33717714D02*
X40190476Y-33793904D01*
X40190476Y-33793904D02*
X40152381Y-33832000D01*
X40152381Y-33832000D02*
X40076190Y-33870095D01*
X40076190Y-33870095D02*
X39847619Y-33870095D01*
X39847619Y-33870095D02*
X39771428Y-33832000D01*
X39771428Y-33832000D02*
X39733333Y-33793904D01*
X48352381Y-33236761D02*
X48352381Y-33770095D01*
X48161905Y-32932000D02*
X47971428Y-33503428D01*
X47971428Y-33503428D02*
X48466667Y-33503428D01*
X28390476Y-23708190D02*
X28314286Y-23670095D01*
X28314286Y-23670095D02*
X28200000Y-23670095D01*
X28200000Y-23670095D02*
X28085714Y-23708190D01*
X28085714Y-23708190D02*
X28009524Y-23784380D01*
X28009524Y-23784380D02*
X27971429Y-23860571D01*
X27971429Y-23860571D02*
X27933333Y-24012952D01*
X27933333Y-24012952D02*
X27933333Y-24127238D01*
X27933333Y-24127238D02*
X27971429Y-24279619D01*
X27971429Y-24279619D02*
X28009524Y-24355809D01*
X28009524Y-24355809D02*
X28085714Y-24432000D01*
X28085714Y-24432000D02*
X28200000Y-24470095D01*
X28200000Y-24470095D02*
X28276191Y-24470095D01*
X28276191Y-24470095D02*
X28390476Y-24432000D01*
X28390476Y-24432000D02*
X28428572Y-24393904D01*
X28428572Y-24393904D02*
X28428572Y-24127238D01*
X28428572Y-24127238D02*
X28276191Y-24127238D01*
X28771429Y-24470095D02*
X28771429Y-23670095D01*
X28771429Y-23670095D02*
X29228572Y-24470095D01*
X29228572Y-24470095D02*
X29228572Y-23670095D01*
X29609524Y-24470095D02*
X29609524Y-23670095D01*
X29609524Y-23670095D02*
X29800000Y-23670095D01*
X29800000Y-23670095D02*
X29914286Y-23708190D01*
X29914286Y-23708190D02*
X29990476Y-23784380D01*
X29990476Y-23784380D02*
X30028571Y-23860571D01*
X30028571Y-23860571D02*
X30066667Y-24012952D01*
X30066667Y-24012952D02*
X30066667Y-24127238D01*
X30066667Y-24127238D02*
X30028571Y-24279619D01*
X30028571Y-24279619D02*
X29990476Y-24355809D01*
X29990476Y-24355809D02*
X29914286Y-24432000D01*
X29914286Y-24432000D02*
X29800000Y-24470095D01*
X29800000Y-24470095D02*
X29609524Y-24470095D01*
X48390476Y-29170095D02*
X48009524Y-29170095D01*
X48009524Y-29170095D02*
X47971428Y-29551047D01*
X47971428Y-29551047D02*
X48009524Y-29512952D01*
X48009524Y-29512952D02*
X48085714Y-29474857D01*
X48085714Y-29474857D02*
X48276190Y-29474857D01*
X48276190Y-29474857D02*
X48352381Y-29512952D01*
X48352381Y-29512952D02*
X48390476Y-29551047D01*
X48390476Y-29551047D02*
X48428571Y-29627238D01*
X48428571Y-29627238D02*
X48428571Y-29817714D01*
X48428571Y-29817714D02*
X48390476Y-29893904D01*
X48390476Y-29893904D02*
X48352381Y-29932000D01*
X48352381Y-29932000D02*
X48276190Y-29970095D01*
X48276190Y-29970095D02*
X48085714Y-29970095D01*
X48085714Y-29970095D02*
X48009524Y-29932000D01*
X48009524Y-29932000D02*
X47971428Y-29893904D01*
X28090476Y-20270095D02*
X28357143Y-21070095D01*
X28357143Y-21070095D02*
X28623809Y-20270095D01*
X29004761Y-20993904D02*
X29042857Y-21032000D01*
X29042857Y-21032000D02*
X29004761Y-21070095D01*
X29004761Y-21070095D02*
X28966666Y-21032000D01*
X28966666Y-21032000D02*
X29004761Y-20993904D01*
X29004761Y-20993904D02*
X29004761Y-21070095D01*
X28852380Y-20308190D02*
X28928571Y-20270095D01*
X28928571Y-20270095D02*
X29119047Y-20270095D01*
X29119047Y-20270095D02*
X29195238Y-20308190D01*
X29195238Y-20308190D02*
X29233333Y-20384380D01*
X29233333Y-20384380D02*
X29233333Y-20460571D01*
X29233333Y-20460571D02*
X29195238Y-20536761D01*
X29195238Y-20536761D02*
X29157142Y-20574857D01*
X29157142Y-20574857D02*
X29080952Y-20612952D01*
X29080952Y-20612952D02*
X29042857Y-20651047D01*
X29042857Y-20651047D02*
X29004761Y-20727238D01*
X29004761Y-20727238D02*
X29004761Y-20765333D01*
X58633333Y-20170095D02*
X58900000Y-20970095D01*
X58900000Y-20970095D02*
X59166666Y-20170095D01*
X59890476Y-20893904D02*
X59852380Y-20932000D01*
X59852380Y-20932000D02*
X59738095Y-20970095D01*
X59738095Y-20970095D02*
X59661904Y-20970095D01*
X59661904Y-20970095D02*
X59547618Y-20932000D01*
X59547618Y-20932000D02*
X59471428Y-20855809D01*
X59471428Y-20855809D02*
X59433333Y-20779619D01*
X59433333Y-20779619D02*
X59395237Y-20627238D01*
X59395237Y-20627238D02*
X59395237Y-20512952D01*
X59395237Y-20512952D02*
X59433333Y-20360571D01*
X59433333Y-20360571D02*
X59471428Y-20284380D01*
X59471428Y-20284380D02*
X59547618Y-20208190D01*
X59547618Y-20208190D02*
X59661904Y-20170095D01*
X59661904Y-20170095D02*
X59738095Y-20170095D01*
X59738095Y-20170095D02*
X59852380Y-20208190D01*
X59852380Y-20208190D02*
X59890476Y-20246285D01*
X60690476Y-20893904D02*
X60652380Y-20932000D01*
X60652380Y-20932000D02*
X60538095Y-20970095D01*
X60538095Y-20970095D02*
X60461904Y-20970095D01*
X60461904Y-20970095D02*
X60347618Y-20932000D01*
X60347618Y-20932000D02*
X60271428Y-20855809D01*
X60271428Y-20855809D02*
X60233333Y-20779619D01*
X60233333Y-20779619D02*
X60195237Y-20627238D01*
X60195237Y-20627238D02*
X60195237Y-20512952D01*
X60195237Y-20512952D02*
X60233333Y-20360571D01*
X60233333Y-20360571D02*
X60271428Y-20284380D01*
X60271428Y-20284380D02*
X60347618Y-20208190D01*
X60347618Y-20208190D02*
X60461904Y-20170095D01*
X60461904Y-20170095D02*
X60538095Y-20170095D01*
X60538095Y-20170095D02*
X60652380Y-20208190D01*
X60652380Y-20208190D02*
X60690476Y-20246285D01*
X58790476Y-23608190D02*
X58714286Y-23570095D01*
X58714286Y-23570095D02*
X58600000Y-23570095D01*
X58600000Y-23570095D02*
X58485714Y-23608190D01*
X58485714Y-23608190D02*
X58409524Y-23684380D01*
X58409524Y-23684380D02*
X58371429Y-23760571D01*
X58371429Y-23760571D02*
X58333333Y-23912952D01*
X58333333Y-23912952D02*
X58333333Y-24027238D01*
X58333333Y-24027238D02*
X58371429Y-24179619D01*
X58371429Y-24179619D02*
X58409524Y-24255809D01*
X58409524Y-24255809D02*
X58485714Y-24332000D01*
X58485714Y-24332000D02*
X58600000Y-24370095D01*
X58600000Y-24370095D02*
X58676191Y-24370095D01*
X58676191Y-24370095D02*
X58790476Y-24332000D01*
X58790476Y-24332000D02*
X58828572Y-24293904D01*
X58828572Y-24293904D02*
X58828572Y-24027238D01*
X58828572Y-24027238D02*
X58676191Y-24027238D01*
X59171429Y-24370095D02*
X59171429Y-23570095D01*
X59171429Y-23570095D02*
X59628572Y-24370095D01*
X59628572Y-24370095D02*
X59628572Y-23570095D01*
X60009524Y-24370095D02*
X60009524Y-23570095D01*
X60009524Y-23570095D02*
X60200000Y-23570095D01*
X60200000Y-23570095D02*
X60314286Y-23608190D01*
X60314286Y-23608190D02*
X60390476Y-23684380D01*
X60390476Y-23684380D02*
X60428571Y-23760571D01*
X60428571Y-23760571D02*
X60466667Y-23912952D01*
X60466667Y-23912952D02*
X60466667Y-24027238D01*
X60466667Y-24027238D02*
X60428571Y-24179619D01*
X60428571Y-24179619D02*
X60390476Y-24255809D01*
X60390476Y-24255809D02*
X60314286Y-24332000D01*
X60314286Y-24332000D02*
X60200000Y-24370095D01*
X60200000Y-24370095D02*
X60009524Y-24370095D01*
X37347618Y-20532000D02*
X37461904Y-20570095D01*
X37461904Y-20570095D02*
X37652380Y-20570095D01*
X37652380Y-20570095D02*
X37728571Y-20532000D01*
X37728571Y-20532000D02*
X37766666Y-20493904D01*
X37766666Y-20493904D02*
X37804761Y-20417714D01*
X37804761Y-20417714D02*
X37804761Y-20341523D01*
X37804761Y-20341523D02*
X37766666Y-20265333D01*
X37766666Y-20265333D02*
X37728571Y-20227238D01*
X37728571Y-20227238D02*
X37652380Y-20189142D01*
X37652380Y-20189142D02*
X37499999Y-20151047D01*
X37499999Y-20151047D02*
X37423809Y-20112952D01*
X37423809Y-20112952D02*
X37385714Y-20074857D01*
X37385714Y-20074857D02*
X37347618Y-19998666D01*
X37347618Y-19998666D02*
X37347618Y-19922476D01*
X37347618Y-19922476D02*
X37385714Y-19846285D01*
X37385714Y-19846285D02*
X37423809Y-19808190D01*
X37423809Y-19808190D02*
X37499999Y-19770095D01*
X37499999Y-19770095D02*
X37690476Y-19770095D01*
X37690476Y-19770095D02*
X37804761Y-19808190D01*
X38604762Y-20493904D02*
X38566666Y-20532000D01*
X38566666Y-20532000D02*
X38452381Y-20570095D01*
X38452381Y-20570095D02*
X38376190Y-20570095D01*
X38376190Y-20570095D02*
X38261904Y-20532000D01*
X38261904Y-20532000D02*
X38185714Y-20455809D01*
X38185714Y-20455809D02*
X38147619Y-20379619D01*
X38147619Y-20379619D02*
X38109523Y-20227238D01*
X38109523Y-20227238D02*
X38109523Y-20112952D01*
X38109523Y-20112952D02*
X38147619Y-19960571D01*
X38147619Y-19960571D02*
X38185714Y-19884380D01*
X38185714Y-19884380D02*
X38261904Y-19808190D01*
X38261904Y-19808190D02*
X38376190Y-19770095D01*
X38376190Y-19770095D02*
X38452381Y-19770095D01*
X38452381Y-19770095D02*
X38566666Y-19808190D01*
X38566666Y-19808190D02*
X38604762Y-19846285D01*
X39328571Y-20570095D02*
X38947619Y-20570095D01*
X38947619Y-20570095D02*
X38947619Y-19770095D01*
X51628571Y-20532000D02*
X51742857Y-20570095D01*
X51742857Y-20570095D02*
X51933333Y-20570095D01*
X51933333Y-20570095D02*
X52009524Y-20532000D01*
X52009524Y-20532000D02*
X52047619Y-20493904D01*
X52047619Y-20493904D02*
X52085714Y-20417714D01*
X52085714Y-20417714D02*
X52085714Y-20341523D01*
X52085714Y-20341523D02*
X52047619Y-20265333D01*
X52047619Y-20265333D02*
X52009524Y-20227238D01*
X52009524Y-20227238D02*
X51933333Y-20189142D01*
X51933333Y-20189142D02*
X51780952Y-20151047D01*
X51780952Y-20151047D02*
X51704762Y-20112952D01*
X51704762Y-20112952D02*
X51666667Y-20074857D01*
X51666667Y-20074857D02*
X51628571Y-19998666D01*
X51628571Y-19998666D02*
X51628571Y-19922476D01*
X51628571Y-19922476D02*
X51666667Y-19846285D01*
X51666667Y-19846285D02*
X51704762Y-19808190D01*
X51704762Y-19808190D02*
X51780952Y-19770095D01*
X51780952Y-19770095D02*
X51971429Y-19770095D01*
X51971429Y-19770095D02*
X52085714Y-19808190D01*
X52428572Y-20570095D02*
X52428572Y-19770095D01*
X52428572Y-19770095D02*
X52619048Y-19770095D01*
X52619048Y-19770095D02*
X52733334Y-19808190D01*
X52733334Y-19808190D02*
X52809524Y-19884380D01*
X52809524Y-19884380D02*
X52847619Y-19960571D01*
X52847619Y-19960571D02*
X52885715Y-20112952D01*
X52885715Y-20112952D02*
X52885715Y-20227238D01*
X52885715Y-20227238D02*
X52847619Y-20379619D01*
X52847619Y-20379619D02*
X52809524Y-20455809D01*
X52809524Y-20455809D02*
X52733334Y-20532000D01*
X52733334Y-20532000D02*
X52619048Y-20570095D01*
X52619048Y-20570095D02*
X52428572Y-20570095D01*
X53190476Y-20341523D02*
X53571429Y-20341523D01*
X53114286Y-20570095D02*
X53380953Y-19770095D01*
X53380953Y-19770095D02*
X53647619Y-20570095D01*
X40228571Y-26370095D02*
X39771428Y-26370095D01*
X40000000Y-26370095D02*
X40000000Y-25570095D01*
X40000000Y-25570095D02*
X39923809Y-25684380D01*
X39923809Y-25684380D02*
X39847619Y-25760571D01*
X39847619Y-25760571D02*
X39771428Y-25798666D01*
X39961905Y-21870095D02*
X40038095Y-21870095D01*
X40038095Y-21870095D02*
X40114286Y-21908190D01*
X40114286Y-21908190D02*
X40152381Y-21946285D01*
X40152381Y-21946285D02*
X40190476Y-22022476D01*
X40190476Y-22022476D02*
X40228571Y-22174857D01*
X40228571Y-22174857D02*
X40228571Y-22365333D01*
X40228571Y-22365333D02*
X40190476Y-22517714D01*
X40190476Y-22517714D02*
X40152381Y-22593904D01*
X40152381Y-22593904D02*
X40114286Y-22632000D01*
X40114286Y-22632000D02*
X40038095Y-22670095D01*
X40038095Y-22670095D02*
X39961905Y-22670095D01*
X39961905Y-22670095D02*
X39885714Y-22632000D01*
X39885714Y-22632000D02*
X39847619Y-22593904D01*
X39847619Y-22593904D02*
X39809524Y-22517714D01*
X39809524Y-22517714D02*
X39771428Y-22365333D01*
X39771428Y-22365333D02*
X39771428Y-22174857D01*
X39771428Y-22174857D02*
X39809524Y-22022476D01*
X39809524Y-22022476D02*
X39847619Y-21946285D01*
X39847619Y-21946285D02*
X39885714Y-21908190D01*
X39885714Y-21908190D02*
X39961905Y-21870095D01*
X28028571Y-28132000D02*
X28142857Y-28170095D01*
X28142857Y-28170095D02*
X28333333Y-28170095D01*
X28333333Y-28170095D02*
X28409524Y-28132000D01*
X28409524Y-28132000D02*
X28447619Y-28093904D01*
X28447619Y-28093904D02*
X28485714Y-28017714D01*
X28485714Y-28017714D02*
X28485714Y-27941523D01*
X28485714Y-27941523D02*
X28447619Y-27865333D01*
X28447619Y-27865333D02*
X28409524Y-27827238D01*
X28409524Y-27827238D02*
X28333333Y-27789142D01*
X28333333Y-27789142D02*
X28180952Y-27751047D01*
X28180952Y-27751047D02*
X28104762Y-27712952D01*
X28104762Y-27712952D02*
X28066667Y-27674857D01*
X28066667Y-27674857D02*
X28028571Y-27598666D01*
X28028571Y-27598666D02*
X28028571Y-27522476D01*
X28028571Y-27522476D02*
X28066667Y-27446285D01*
X28066667Y-27446285D02*
X28104762Y-27408190D01*
X28104762Y-27408190D02*
X28180952Y-27370095D01*
X28180952Y-27370095D02*
X28371429Y-27370095D01*
X28371429Y-27370095D02*
X28485714Y-27408190D01*
X28828572Y-28170095D02*
X28828572Y-27370095D01*
X28828572Y-27370095D02*
X29019048Y-27370095D01*
X29019048Y-27370095D02*
X29133334Y-27408190D01*
X29133334Y-27408190D02*
X29209524Y-27484380D01*
X29209524Y-27484380D02*
X29247619Y-27560571D01*
X29247619Y-27560571D02*
X29285715Y-27712952D01*
X29285715Y-27712952D02*
X29285715Y-27827238D01*
X29285715Y-27827238D02*
X29247619Y-27979619D01*
X29247619Y-27979619D02*
X29209524Y-28055809D01*
X29209524Y-28055809D02*
X29133334Y-28132000D01*
X29133334Y-28132000D02*
X29019048Y-28170095D01*
X29019048Y-28170095D02*
X28828572Y-28170095D01*
X29590476Y-27941523D02*
X29971429Y-27941523D01*
X29514286Y-28170095D02*
X29780953Y-27370095D01*
X29780953Y-27370095D02*
X30047619Y-28170095D01*
X40071428Y-34546285D02*
X40109524Y-34508190D01*
X40109524Y-34508190D02*
X40185714Y-34470095D01*
X40185714Y-34470095D02*
X40376190Y-34470095D01*
X40376190Y-34470095D02*
X40452381Y-34508190D01*
X40452381Y-34508190D02*
X40490476Y-34546285D01*
X40490476Y-34546285D02*
X40528571Y-34622476D01*
X40528571Y-34622476D02*
X40528571Y-34698666D01*
X40528571Y-34698666D02*
X40490476Y-34812952D01*
X40490476Y-34812952D02*
X40033333Y-35270095D01*
X40033333Y-35270095D02*
X40528571Y-35270095D01*
X43128571Y-35270095D02*
X42671428Y-35270095D01*
X42900000Y-35270095D02*
X42900000Y-34470095D01*
X42900000Y-34470095D02*
X42823809Y-34584380D01*
X42823809Y-34584380D02*
X42747619Y-34660571D01*
X42747619Y-34660571D02*
X42671428Y-34698666D01*
X59247618Y-31532000D02*
X59361904Y-31570095D01*
X59361904Y-31570095D02*
X59552380Y-31570095D01*
X59552380Y-31570095D02*
X59628571Y-31532000D01*
X59628571Y-31532000D02*
X59666666Y-31493904D01*
X59666666Y-31493904D02*
X59704761Y-31417714D01*
X59704761Y-31417714D02*
X59704761Y-31341523D01*
X59704761Y-31341523D02*
X59666666Y-31265333D01*
X59666666Y-31265333D02*
X59628571Y-31227238D01*
X59628571Y-31227238D02*
X59552380Y-31189142D01*
X59552380Y-31189142D02*
X59399999Y-31151047D01*
X59399999Y-31151047D02*
X59323809Y-31112952D01*
X59323809Y-31112952D02*
X59285714Y-31074857D01*
X59285714Y-31074857D02*
X59247618Y-30998666D01*
X59247618Y-30998666D02*
X59247618Y-30922476D01*
X59247618Y-30922476D02*
X59285714Y-30846285D01*
X59285714Y-30846285D02*
X59323809Y-30808190D01*
X59323809Y-30808190D02*
X59399999Y-30770095D01*
X59399999Y-30770095D02*
X59590476Y-30770095D01*
X59590476Y-30770095D02*
X59704761Y-30808190D01*
X60504762Y-31493904D02*
X60466666Y-31532000D01*
X60466666Y-31532000D02*
X60352381Y-31570095D01*
X60352381Y-31570095D02*
X60276190Y-31570095D01*
X60276190Y-31570095D02*
X60161904Y-31532000D01*
X60161904Y-31532000D02*
X60085714Y-31455809D01*
X60085714Y-31455809D02*
X60047619Y-31379619D01*
X60047619Y-31379619D02*
X60009523Y-31227238D01*
X60009523Y-31227238D02*
X60009523Y-31112952D01*
X60009523Y-31112952D02*
X60047619Y-30960571D01*
X60047619Y-30960571D02*
X60085714Y-30884380D01*
X60085714Y-30884380D02*
X60161904Y-30808190D01*
X60161904Y-30808190D02*
X60276190Y-30770095D01*
X60276190Y-30770095D02*
X60352381Y-30770095D01*
X60352381Y-30770095D02*
X60466666Y-30808190D01*
X60466666Y-30808190D02*
X60504762Y-30846285D01*
X61228571Y-31570095D02*
X60847619Y-31570095D01*
X60847619Y-31570095D02*
X60847619Y-30770095D01*
X58428571Y-28032000D02*
X58542857Y-28070095D01*
X58542857Y-28070095D02*
X58733333Y-28070095D01*
X58733333Y-28070095D02*
X58809524Y-28032000D01*
X58809524Y-28032000D02*
X58847619Y-27993904D01*
X58847619Y-27993904D02*
X58885714Y-27917714D01*
X58885714Y-27917714D02*
X58885714Y-27841523D01*
X58885714Y-27841523D02*
X58847619Y-27765333D01*
X58847619Y-27765333D02*
X58809524Y-27727238D01*
X58809524Y-27727238D02*
X58733333Y-27689142D01*
X58733333Y-27689142D02*
X58580952Y-27651047D01*
X58580952Y-27651047D02*
X58504762Y-27612952D01*
X58504762Y-27612952D02*
X58466667Y-27574857D01*
X58466667Y-27574857D02*
X58428571Y-27498666D01*
X58428571Y-27498666D02*
X58428571Y-27422476D01*
X58428571Y-27422476D02*
X58466667Y-27346285D01*
X58466667Y-27346285D02*
X58504762Y-27308190D01*
X58504762Y-27308190D02*
X58580952Y-27270095D01*
X58580952Y-27270095D02*
X58771429Y-27270095D01*
X58771429Y-27270095D02*
X58885714Y-27308190D01*
X59228572Y-28070095D02*
X59228572Y-27270095D01*
X59228572Y-27270095D02*
X59419048Y-27270095D01*
X59419048Y-27270095D02*
X59533334Y-27308190D01*
X59533334Y-27308190D02*
X59609524Y-27384380D01*
X59609524Y-27384380D02*
X59647619Y-27460571D01*
X59647619Y-27460571D02*
X59685715Y-27612952D01*
X59685715Y-27612952D02*
X59685715Y-27727238D01*
X59685715Y-27727238D02*
X59647619Y-27879619D01*
X59647619Y-27879619D02*
X59609524Y-27955809D01*
X59609524Y-27955809D02*
X59533334Y-28032000D01*
X59533334Y-28032000D02*
X59419048Y-28070095D01*
X59419048Y-28070095D02*
X59228572Y-28070095D01*
X59990476Y-27841523D02*
X60371429Y-27841523D01*
X59914286Y-28070095D02*
X60180953Y-27270095D01*
X60180953Y-27270095D02*
X60447619Y-28070095D01*
X48452381Y-25570095D02*
X48300000Y-25570095D01*
X48300000Y-25570095D02*
X48223809Y-25608190D01*
X48223809Y-25608190D02*
X48185714Y-25646285D01*
X48185714Y-25646285D02*
X48109524Y-25760571D01*
X48109524Y-25760571D02*
X48071428Y-25912952D01*
X48071428Y-25912952D02*
X48071428Y-26217714D01*
X48071428Y-26217714D02*
X48109524Y-26293904D01*
X48109524Y-26293904D02*
X48147619Y-26332000D01*
X48147619Y-26332000D02*
X48223809Y-26370095D01*
X48223809Y-26370095D02*
X48376190Y-26370095D01*
X48376190Y-26370095D02*
X48452381Y-26332000D01*
X48452381Y-26332000D02*
X48490476Y-26293904D01*
X48490476Y-26293904D02*
X48528571Y-26217714D01*
X48528571Y-26217714D02*
X48528571Y-26027238D01*
X48528571Y-26027238D02*
X48490476Y-25951047D01*
X48490476Y-25951047D02*
X48452381Y-25912952D01*
X48452381Y-25912952D02*
X48376190Y-25874857D01*
X48376190Y-25874857D02*
X48223809Y-25874857D01*
X48223809Y-25874857D02*
X48147619Y-25912952D01*
X48147619Y-25912952D02*
X48109524Y-25951047D01*
X48109524Y-25951047D02*
X48071428Y-26027238D01*
X34728571Y-20532000D02*
X34842857Y-20570095D01*
X34842857Y-20570095D02*
X35033333Y-20570095D01*
X35033333Y-20570095D02*
X35109524Y-20532000D01*
X35109524Y-20532000D02*
X35147619Y-20493904D01*
X35147619Y-20493904D02*
X35185714Y-20417714D01*
X35185714Y-20417714D02*
X35185714Y-20341523D01*
X35185714Y-20341523D02*
X35147619Y-20265333D01*
X35147619Y-20265333D02*
X35109524Y-20227238D01*
X35109524Y-20227238D02*
X35033333Y-20189142D01*
X35033333Y-20189142D02*
X34880952Y-20151047D01*
X34880952Y-20151047D02*
X34804762Y-20112952D01*
X34804762Y-20112952D02*
X34766667Y-20074857D01*
X34766667Y-20074857D02*
X34728571Y-19998666D01*
X34728571Y-19998666D02*
X34728571Y-19922476D01*
X34728571Y-19922476D02*
X34766667Y-19846285D01*
X34766667Y-19846285D02*
X34804762Y-19808190D01*
X34804762Y-19808190D02*
X34880952Y-19770095D01*
X34880952Y-19770095D02*
X35071429Y-19770095D01*
X35071429Y-19770095D02*
X35185714Y-19808190D01*
X35528572Y-20570095D02*
X35528572Y-19770095D01*
X35528572Y-19770095D02*
X35719048Y-19770095D01*
X35719048Y-19770095D02*
X35833334Y-19808190D01*
X35833334Y-19808190D02*
X35909524Y-19884380D01*
X35909524Y-19884380D02*
X35947619Y-19960571D01*
X35947619Y-19960571D02*
X35985715Y-20112952D01*
X35985715Y-20112952D02*
X35985715Y-20227238D01*
X35985715Y-20227238D02*
X35947619Y-20379619D01*
X35947619Y-20379619D02*
X35909524Y-20455809D01*
X35909524Y-20455809D02*
X35833334Y-20532000D01*
X35833334Y-20532000D02*
X35719048Y-20570095D01*
X35719048Y-20570095D02*
X35528572Y-20570095D01*
X36290476Y-20341523D02*
X36671429Y-20341523D01*
X36214286Y-20570095D02*
X36480953Y-19770095D01*
X36480953Y-19770095D02*
X36747619Y-20570095D01*
X45361905Y-34470095D02*
X45438095Y-34470095D01*
X45438095Y-34470095D02*
X45514286Y-34508190D01*
X45514286Y-34508190D02*
X45552381Y-34546285D01*
X45552381Y-34546285D02*
X45590476Y-34622476D01*
X45590476Y-34622476D02*
X45628571Y-34774857D01*
X45628571Y-34774857D02*
X45628571Y-34965333D01*
X45628571Y-34965333D02*
X45590476Y-35117714D01*
X45590476Y-35117714D02*
X45552381Y-35193904D01*
X45552381Y-35193904D02*
X45514286Y-35232000D01*
X45514286Y-35232000D02*
X45438095Y-35270095D01*
X45438095Y-35270095D02*
X45361905Y-35270095D01*
X45361905Y-35270095D02*
X45285714Y-35232000D01*
X45285714Y-35232000D02*
X45247619Y-35193904D01*
X45247619Y-35193904D02*
X45209524Y-35117714D01*
X45209524Y-35117714D02*
X45171428Y-34965333D01*
X45171428Y-34965333D02*
X45171428Y-34774857D01*
X45171428Y-34774857D02*
X45209524Y-34622476D01*
X45209524Y-34622476D02*
X45247619Y-34546285D01*
X45247619Y-34546285D02*
X45285714Y-34508190D01*
X45285714Y-34508190D02*
X45361905Y-34470095D01*
X57295238Y-20165333D02*
X57904762Y-20165333D01*
X57600000Y-20470095D02*
X57600000Y-19860571D01*
X30295238Y-20165333D02*
X30904762Y-20165333D01*
X30600000Y-20470095D02*
X30600000Y-19860571D01*
X54795238Y-20165333D02*
X55404762Y-20165333D01*
X47933333Y-21770095D02*
X48466667Y-21770095D01*
X48466667Y-21770095D02*
X48123809Y-22570095D01*
%TO.C,R2*%
X28233333Y-35262619D02*
X27900000Y-34786428D01*
X27661905Y-35262619D02*
X27661905Y-34262619D01*
X27661905Y-34262619D02*
X28042857Y-34262619D01*
X28042857Y-34262619D02*
X28138095Y-34310238D01*
X28138095Y-34310238D02*
X28185714Y-34357857D01*
X28185714Y-34357857D02*
X28233333Y-34453095D01*
X28233333Y-34453095D02*
X28233333Y-34595952D01*
X28233333Y-34595952D02*
X28185714Y-34691190D01*
X28185714Y-34691190D02*
X28138095Y-34738809D01*
X28138095Y-34738809D02*
X28042857Y-34786428D01*
X28042857Y-34786428D02*
X27661905Y-34786428D01*
X28614286Y-34357857D02*
X28661905Y-34310238D01*
X28661905Y-34310238D02*
X28757143Y-34262619D01*
X28757143Y-34262619D02*
X28995238Y-34262619D01*
X28995238Y-34262619D02*
X29090476Y-34310238D01*
X29090476Y-34310238D02*
X29138095Y-34357857D01*
X29138095Y-34357857D02*
X29185714Y-34453095D01*
X29185714Y-34453095D02*
X29185714Y-34548333D01*
X29185714Y-34548333D02*
X29138095Y-34691190D01*
X29138095Y-34691190D02*
X28566667Y-35262619D01*
X28566667Y-35262619D02*
X29185714Y-35262619D01*
%TO.C,R3*%
X65833333Y-32542619D02*
X65500000Y-32066428D01*
X65261905Y-32542619D02*
X65261905Y-31542619D01*
X65261905Y-31542619D02*
X65642857Y-31542619D01*
X65642857Y-31542619D02*
X65738095Y-31590238D01*
X65738095Y-31590238D02*
X65785714Y-31637857D01*
X65785714Y-31637857D02*
X65833333Y-31733095D01*
X65833333Y-31733095D02*
X65833333Y-31875952D01*
X65833333Y-31875952D02*
X65785714Y-31971190D01*
X65785714Y-31971190D02*
X65738095Y-32018809D01*
X65738095Y-32018809D02*
X65642857Y-32066428D01*
X65642857Y-32066428D02*
X65261905Y-32066428D01*
X66166667Y-31542619D02*
X66785714Y-31542619D01*
X66785714Y-31542619D02*
X66452381Y-31923571D01*
X66452381Y-31923571D02*
X66595238Y-31923571D01*
X66595238Y-31923571D02*
X66690476Y-31971190D01*
X66690476Y-31971190D02*
X66738095Y-32018809D01*
X66738095Y-32018809D02*
X66785714Y-32114047D01*
X66785714Y-32114047D02*
X66785714Y-32352142D01*
X66785714Y-32352142D02*
X66738095Y-32447380D01*
X66738095Y-32447380D02*
X66690476Y-32495000D01*
X66690476Y-32495000D02*
X66595238Y-32542619D01*
X66595238Y-32542619D02*
X66309524Y-32542619D01*
X66309524Y-32542619D02*
X66214286Y-32495000D01*
X66214286Y-32495000D02*
X66166667Y-32447380D01*
%TO.C,U2*%
X22508095Y-31112619D02*
X22508095Y-31922142D01*
X22508095Y-31922142D02*
X22555714Y-32017380D01*
X22555714Y-32017380D02*
X22603333Y-32065000D01*
X22603333Y-32065000D02*
X22698571Y-32112619D01*
X22698571Y-32112619D02*
X22889047Y-32112619D01*
X22889047Y-32112619D02*
X22984285Y-32065000D01*
X22984285Y-32065000D02*
X23031904Y-32017380D01*
X23031904Y-32017380D02*
X23079523Y-31922142D01*
X23079523Y-31922142D02*
X23079523Y-31112619D01*
X23508095Y-31207857D02*
X23555714Y-31160238D01*
X23555714Y-31160238D02*
X23650952Y-31112619D01*
X23650952Y-31112619D02*
X23889047Y-31112619D01*
X23889047Y-31112619D02*
X23984285Y-31160238D01*
X23984285Y-31160238D02*
X24031904Y-31207857D01*
X24031904Y-31207857D02*
X24079523Y-31303095D01*
X24079523Y-31303095D02*
X24079523Y-31398333D01*
X24079523Y-31398333D02*
X24031904Y-31541190D01*
X24031904Y-31541190D02*
X23460476Y-32112619D01*
X23460476Y-32112619D02*
X24079523Y-32112619D01*
%TO.C,C5*%
X44433333Y-20967380D02*
X44385714Y-21015000D01*
X44385714Y-21015000D02*
X44242857Y-21062619D01*
X44242857Y-21062619D02*
X44147619Y-21062619D01*
X44147619Y-21062619D02*
X44004762Y-21015000D01*
X44004762Y-21015000D02*
X43909524Y-20919761D01*
X43909524Y-20919761D02*
X43861905Y-20824523D01*
X43861905Y-20824523D02*
X43814286Y-20634047D01*
X43814286Y-20634047D02*
X43814286Y-20491190D01*
X43814286Y-20491190D02*
X43861905Y-20300714D01*
X43861905Y-20300714D02*
X43909524Y-20205476D01*
X43909524Y-20205476D02*
X44004762Y-20110238D01*
X44004762Y-20110238D02*
X44147619Y-20062619D01*
X44147619Y-20062619D02*
X44242857Y-20062619D01*
X44242857Y-20062619D02*
X44385714Y-20110238D01*
X44385714Y-20110238D02*
X44433333Y-20157857D01*
X45338095Y-20062619D02*
X44861905Y-20062619D01*
X44861905Y-20062619D02*
X44814286Y-20538809D01*
X44814286Y-20538809D02*
X44861905Y-20491190D01*
X44861905Y-20491190D02*
X44957143Y-20443571D01*
X44957143Y-20443571D02*
X45195238Y-20443571D01*
X45195238Y-20443571D02*
X45290476Y-20491190D01*
X45290476Y-20491190D02*
X45338095Y-20538809D01*
X45338095Y-20538809D02*
X45385714Y-20634047D01*
X45385714Y-20634047D02*
X45385714Y-20872142D01*
X45385714Y-20872142D02*
X45338095Y-20967380D01*
X45338095Y-20967380D02*
X45290476Y-21015000D01*
X45290476Y-21015000D02*
X45195238Y-21062619D01*
X45195238Y-21062619D02*
X44957143Y-21062619D01*
X44957143Y-21062619D02*
X44861905Y-21015000D01*
X44861905Y-21015000D02*
X44814286Y-20967380D01*
%TO.C,R5*%
X48262619Y-31266666D02*
X47786428Y-31599999D01*
X48262619Y-31838094D02*
X47262619Y-31838094D01*
X47262619Y-31838094D02*
X47262619Y-31457142D01*
X47262619Y-31457142D02*
X47310238Y-31361904D01*
X47310238Y-31361904D02*
X47357857Y-31314285D01*
X47357857Y-31314285D02*
X47453095Y-31266666D01*
X47453095Y-31266666D02*
X47595952Y-31266666D01*
X47595952Y-31266666D02*
X47691190Y-31314285D01*
X47691190Y-31314285D02*
X47738809Y-31361904D01*
X47738809Y-31361904D02*
X47786428Y-31457142D01*
X47786428Y-31457142D02*
X47786428Y-31838094D01*
X47262619Y-30361904D02*
X47262619Y-30838094D01*
X47262619Y-30838094D02*
X47738809Y-30885713D01*
X47738809Y-30885713D02*
X47691190Y-30838094D01*
X47691190Y-30838094D02*
X47643571Y-30742856D01*
X47643571Y-30742856D02*
X47643571Y-30504761D01*
X47643571Y-30504761D02*
X47691190Y-30409523D01*
X47691190Y-30409523D02*
X47738809Y-30361904D01*
X47738809Y-30361904D02*
X47834047Y-30314285D01*
X47834047Y-30314285D02*
X48072142Y-30314285D01*
X48072142Y-30314285D02*
X48167380Y-30361904D01*
X48167380Y-30361904D02*
X48215000Y-30409523D01*
X48215000Y-30409523D02*
X48262619Y-30504761D01*
X48262619Y-30504761D02*
X48262619Y-30742856D01*
X48262619Y-30742856D02*
X48215000Y-30838094D01*
X48215000Y-30838094D02*
X48167380Y-30885713D01*
%TO.C,C1*%
X20833333Y-35167380D02*
X20785714Y-35215000D01*
X20785714Y-35215000D02*
X20642857Y-35262619D01*
X20642857Y-35262619D02*
X20547619Y-35262619D01*
X20547619Y-35262619D02*
X20404762Y-35215000D01*
X20404762Y-35215000D02*
X20309524Y-35119761D01*
X20309524Y-35119761D02*
X20261905Y-35024523D01*
X20261905Y-35024523D02*
X20214286Y-34834047D01*
X20214286Y-34834047D02*
X20214286Y-34691190D01*
X20214286Y-34691190D02*
X20261905Y-34500714D01*
X20261905Y-34500714D02*
X20309524Y-34405476D01*
X20309524Y-34405476D02*
X20404762Y-34310238D01*
X20404762Y-34310238D02*
X20547619Y-34262619D01*
X20547619Y-34262619D02*
X20642857Y-34262619D01*
X20642857Y-34262619D02*
X20785714Y-34310238D01*
X20785714Y-34310238D02*
X20833333Y-34357857D01*
X21785714Y-35262619D02*
X21214286Y-35262619D01*
X21500000Y-35262619D02*
X21500000Y-34262619D01*
X21500000Y-34262619D02*
X21404762Y-34405476D01*
X21404762Y-34405476D02*
X21309524Y-34500714D01*
X21309524Y-34500714D02*
X21214286Y-34548333D01*
%TO.C,R6*%
X45782619Y-31266666D02*
X45306428Y-31599999D01*
X45782619Y-31838094D02*
X44782619Y-31838094D01*
X44782619Y-31838094D02*
X44782619Y-31457142D01*
X44782619Y-31457142D02*
X44830238Y-31361904D01*
X44830238Y-31361904D02*
X44877857Y-31314285D01*
X44877857Y-31314285D02*
X44973095Y-31266666D01*
X44973095Y-31266666D02*
X45115952Y-31266666D01*
X45115952Y-31266666D02*
X45211190Y-31314285D01*
X45211190Y-31314285D02*
X45258809Y-31361904D01*
X45258809Y-31361904D02*
X45306428Y-31457142D01*
X45306428Y-31457142D02*
X45306428Y-31838094D01*
X44782619Y-30409523D02*
X44782619Y-30599999D01*
X44782619Y-30599999D02*
X44830238Y-30695237D01*
X44830238Y-30695237D02*
X44877857Y-30742856D01*
X44877857Y-30742856D02*
X45020714Y-30838094D01*
X45020714Y-30838094D02*
X45211190Y-30885713D01*
X45211190Y-30885713D02*
X45592142Y-30885713D01*
X45592142Y-30885713D02*
X45687380Y-30838094D01*
X45687380Y-30838094D02*
X45735000Y-30790475D01*
X45735000Y-30790475D02*
X45782619Y-30695237D01*
X45782619Y-30695237D02*
X45782619Y-30504761D01*
X45782619Y-30504761D02*
X45735000Y-30409523D01*
X45735000Y-30409523D02*
X45687380Y-30361904D01*
X45687380Y-30361904D02*
X45592142Y-30314285D01*
X45592142Y-30314285D02*
X45354047Y-30314285D01*
X45354047Y-30314285D02*
X45258809Y-30361904D01*
X45258809Y-30361904D02*
X45211190Y-30409523D01*
X45211190Y-30409523D02*
X45163571Y-30504761D01*
X45163571Y-30504761D02*
X45163571Y-30695237D01*
X45163571Y-30695237D02*
X45211190Y-30790475D01*
X45211190Y-30790475D02*
X45258809Y-30838094D01*
X45258809Y-30838094D02*
X45354047Y-30885713D01*
%TO.C,C2*%
X25233333Y-31967380D02*
X25185714Y-32015000D01*
X25185714Y-32015000D02*
X25042857Y-32062619D01*
X25042857Y-32062619D02*
X24947619Y-32062619D01*
X24947619Y-32062619D02*
X24804762Y-32015000D01*
X24804762Y-32015000D02*
X24709524Y-31919761D01*
X24709524Y-31919761D02*
X24661905Y-31824523D01*
X24661905Y-31824523D02*
X24614286Y-31634047D01*
X24614286Y-31634047D02*
X24614286Y-31491190D01*
X24614286Y-31491190D02*
X24661905Y-31300714D01*
X24661905Y-31300714D02*
X24709524Y-31205476D01*
X24709524Y-31205476D02*
X24804762Y-31110238D01*
X24804762Y-31110238D02*
X24947619Y-31062619D01*
X24947619Y-31062619D02*
X25042857Y-31062619D01*
X25042857Y-31062619D02*
X25185714Y-31110238D01*
X25185714Y-31110238D02*
X25233333Y-31157857D01*
X25614286Y-31157857D02*
X25661905Y-31110238D01*
X25661905Y-31110238D02*
X25757143Y-31062619D01*
X25757143Y-31062619D02*
X25995238Y-31062619D01*
X25995238Y-31062619D02*
X26090476Y-31110238D01*
X26090476Y-31110238D02*
X26138095Y-31157857D01*
X26138095Y-31157857D02*
X26185714Y-31253095D01*
X26185714Y-31253095D02*
X26185714Y-31348333D01*
X26185714Y-31348333D02*
X26138095Y-31491190D01*
X26138095Y-31491190D02*
X25566667Y-32062619D01*
X25566667Y-32062619D02*
X26185714Y-32062619D01*
%TO.C,R1*%
X26433333Y-35262619D02*
X26100000Y-34786428D01*
X25861905Y-35262619D02*
X25861905Y-34262619D01*
X25861905Y-34262619D02*
X26242857Y-34262619D01*
X26242857Y-34262619D02*
X26338095Y-34310238D01*
X26338095Y-34310238D02*
X26385714Y-34357857D01*
X26385714Y-34357857D02*
X26433333Y-34453095D01*
X26433333Y-34453095D02*
X26433333Y-34595952D01*
X26433333Y-34595952D02*
X26385714Y-34691190D01*
X26385714Y-34691190D02*
X26338095Y-34738809D01*
X26338095Y-34738809D02*
X26242857Y-34786428D01*
X26242857Y-34786428D02*
X25861905Y-34786428D01*
X27385714Y-35262619D02*
X26814286Y-35262619D01*
X27100000Y-35262619D02*
X27100000Y-34262619D01*
X27100000Y-34262619D02*
X27004762Y-34405476D01*
X27004762Y-34405476D02*
X26909524Y-34500714D01*
X26909524Y-34500714D02*
X26814286Y-34548333D01*
%TO.C,R7*%
X43282619Y-31266666D02*
X42806428Y-31599999D01*
X43282619Y-31838094D02*
X42282619Y-31838094D01*
X42282619Y-31838094D02*
X42282619Y-31457142D01*
X42282619Y-31457142D02*
X42330238Y-31361904D01*
X42330238Y-31361904D02*
X42377857Y-31314285D01*
X42377857Y-31314285D02*
X42473095Y-31266666D01*
X42473095Y-31266666D02*
X42615952Y-31266666D01*
X42615952Y-31266666D02*
X42711190Y-31314285D01*
X42711190Y-31314285D02*
X42758809Y-31361904D01*
X42758809Y-31361904D02*
X42806428Y-31457142D01*
X42806428Y-31457142D02*
X42806428Y-31838094D01*
X42282619Y-30933332D02*
X42282619Y-30266666D01*
X42282619Y-30266666D02*
X43282619Y-30695237D01*
%TO.C,D1*%
X60161905Y-33912619D02*
X60161905Y-32912619D01*
X60161905Y-32912619D02*
X60400000Y-32912619D01*
X60400000Y-32912619D02*
X60542857Y-32960238D01*
X60542857Y-32960238D02*
X60638095Y-33055476D01*
X60638095Y-33055476D02*
X60685714Y-33150714D01*
X60685714Y-33150714D02*
X60733333Y-33341190D01*
X60733333Y-33341190D02*
X60733333Y-33484047D01*
X60733333Y-33484047D02*
X60685714Y-33674523D01*
X60685714Y-33674523D02*
X60638095Y-33769761D01*
X60638095Y-33769761D02*
X60542857Y-33865000D01*
X60542857Y-33865000D02*
X60400000Y-33912619D01*
X60400000Y-33912619D02*
X60161905Y-33912619D01*
X61685714Y-33912619D02*
X61114286Y-33912619D01*
X61400000Y-33912619D02*
X61400000Y-32912619D01*
X61400000Y-32912619D02*
X61304762Y-33055476D01*
X61304762Y-33055476D02*
X61209524Y-33150714D01*
X61209524Y-33150714D02*
X61114286Y-33198333D01*
%TO.C,U6*%
X40638095Y-20112619D02*
X40638095Y-20922142D01*
X40638095Y-20922142D02*
X40685714Y-21017380D01*
X40685714Y-21017380D02*
X40733333Y-21065000D01*
X40733333Y-21065000D02*
X40828571Y-21112619D01*
X40828571Y-21112619D02*
X41019047Y-21112619D01*
X41019047Y-21112619D02*
X41114285Y-21065000D01*
X41114285Y-21065000D02*
X41161904Y-21017380D01*
X41161904Y-21017380D02*
X41209523Y-20922142D01*
X41209523Y-20922142D02*
X41209523Y-20112619D01*
X42114285Y-20112619D02*
X41923809Y-20112619D01*
X41923809Y-20112619D02*
X41828571Y-20160238D01*
X41828571Y-20160238D02*
X41780952Y-20207857D01*
X41780952Y-20207857D02*
X41685714Y-20350714D01*
X41685714Y-20350714D02*
X41638095Y-20541190D01*
X41638095Y-20541190D02*
X41638095Y-20922142D01*
X41638095Y-20922142D02*
X41685714Y-21017380D01*
X41685714Y-21017380D02*
X41733333Y-21065000D01*
X41733333Y-21065000D02*
X41828571Y-21112619D01*
X41828571Y-21112619D02*
X42019047Y-21112619D01*
X42019047Y-21112619D02*
X42114285Y-21065000D01*
X42114285Y-21065000D02*
X42161904Y-21017380D01*
X42161904Y-21017380D02*
X42209523Y-20922142D01*
X42209523Y-20922142D02*
X42209523Y-20684047D01*
X42209523Y-20684047D02*
X42161904Y-20588809D01*
X42161904Y-20588809D02*
X42114285Y-20541190D01*
X42114285Y-20541190D02*
X42019047Y-20493571D01*
X42019047Y-20493571D02*
X41828571Y-20493571D01*
X41828571Y-20493571D02*
X41733333Y-20541190D01*
X41733333Y-20541190D02*
X41685714Y-20588809D01*
X41685714Y-20588809D02*
X41638095Y-20684047D01*
D11*
%TO.C,J7*%
X58980000Y-28320000D02*
X58980000Y-29650000D01*
X57650000Y-28320000D02*
X58980000Y-28320000D01*
X56380000Y-28320000D02*
X48700000Y-28320000D01*
X56380000Y-28320000D02*
X56380000Y-30980000D01*
X48700000Y-28320000D02*
X48700000Y-30980000D01*
X56380000Y-30980000D02*
X48700000Y-30980000D01*
%TO.C,JP1*%
X41950000Y-34900000D02*
X41350000Y-34900000D01*
X40650000Y-34200000D02*
X40650000Y-32800000D01*
X42650000Y-32800000D02*
X42650000Y-34200000D01*
X41350000Y-32100000D02*
X41950000Y-32100000D01*
X40650000Y-34200000D02*
G75*
G03*
X41350000Y-34900000I699999J-1D01*
G01*
X41950000Y-34900000D02*
G75*
G03*
X42650000Y-34200000I1J699999D01*
G01*
X41350000Y-32100000D02*
G75*
G03*
X40650000Y-32800000I0J-700000D01*
G01*
X42650000Y-32800000D02*
G75*
G03*
X41950000Y-32100000I-700000J0D01*
G01*
%TO.C,J4*%
X29320000Y-30980000D02*
X29320000Y-29650000D01*
X30650000Y-30980000D02*
X29320000Y-30980000D01*
X31920000Y-30980000D02*
X39600000Y-30980000D01*
X31920000Y-30980000D02*
X31920000Y-28320000D01*
X39600000Y-30980000D02*
X39600000Y-28320000D01*
X31920000Y-28320000D02*
X39600000Y-28320000D01*
%TO.C,J5*%
X29320000Y-34730000D02*
X29320000Y-33400000D01*
X30650000Y-34730000D02*
X29320000Y-34730000D01*
X31920000Y-34730000D02*
X39600000Y-34730000D01*
X31920000Y-34730000D02*
X31920000Y-32070000D01*
X39600000Y-34730000D02*
X39600000Y-32070000D01*
X31920000Y-32070000D02*
X39600000Y-32070000D01*
%TO.C,R2*%
X27640000Y-33313641D02*
X27640000Y-33006359D01*
X28400000Y-33313641D02*
X28400000Y-33006359D01*
%TO.C,R3*%
X65846359Y-32870000D02*
X66153641Y-32870000D01*
X65846359Y-33630000D02*
X66153641Y-33630000D01*
%TO.C,J8*%
X58980000Y-24570000D02*
X58980000Y-25900000D01*
X57650000Y-24570000D02*
X58980000Y-24570000D01*
X56380000Y-24570000D02*
X48700000Y-24570000D01*
X56380000Y-24570000D02*
X56380000Y-27230000D01*
X48700000Y-24570000D02*
X48700000Y-27230000D01*
X56380000Y-27230000D02*
X48700000Y-27230000D01*
%TO.C,U2*%
X22570000Y-34810000D02*
X23970000Y-34810000D01*
X23970000Y-32490000D02*
X22070000Y-32490000D01*
%TO.C,C5*%
X46627836Y-21010000D02*
X46412164Y-21010000D01*
X46627836Y-20290000D02*
X46412164Y-20290000D01*
%TO.C,R5*%
X47030000Y-30606359D02*
X47030000Y-30913641D01*
X46270000Y-30606359D02*
X46270000Y-30913641D01*
%TO.C,J2*%
X29320000Y-23480000D02*
X29320000Y-22150000D01*
X30650000Y-23480000D02*
X29320000Y-23480000D01*
X31920000Y-23480000D02*
X39600000Y-23480000D01*
X31920000Y-23480000D02*
X31920000Y-20820000D01*
X39600000Y-23480000D02*
X39600000Y-20820000D01*
X31920000Y-20820000D02*
X39600000Y-20820000D01*
%TO.C,C1*%
X21380000Y-33062164D02*
X21380000Y-33277836D01*
X20660000Y-33062164D02*
X20660000Y-33277836D01*
%TO.C,JP3*%
X46950000Y-34900000D02*
X46350000Y-34900000D01*
X45650000Y-34200000D02*
X45650000Y-32800000D01*
X47650000Y-32800000D02*
X47650000Y-34200000D01*
X46350000Y-32100000D02*
X46950000Y-32100000D01*
X45650000Y-34200000D02*
G75*
G03*
X46350000Y-34900000I699999J-1D01*
G01*
X46950000Y-34900000D02*
G75*
G03*
X47650000Y-34200000I1J699999D01*
G01*
X46350000Y-32100000D02*
G75*
G03*
X45650000Y-32800000I0J-700000D01*
G01*
X47650000Y-32800000D02*
G75*
G03*
X46950000Y-32100000I-700000J0D01*
G01*
%TO.C,R6*%
X44530000Y-30606359D02*
X44530000Y-30913641D01*
X43770000Y-30606359D02*
X43770000Y-30913641D01*
%TO.C,J1*%
X16810000Y-20820000D02*
X16810000Y-31100000D01*
X16810000Y-20820000D02*
X25440000Y-20820000D01*
X16810000Y-20940000D02*
X25440000Y-20940000D01*
X16810000Y-21058095D02*
X25440000Y-21058095D01*
X16810000Y-21176190D02*
X25440000Y-21176190D01*
X16810000Y-21294285D02*
X25440000Y-21294285D01*
X16810000Y-21412380D02*
X25440000Y-21412380D01*
X16810000Y-21530475D02*
X25440000Y-21530475D01*
X16810000Y-21648570D02*
X25440000Y-21648570D01*
X16810000Y-21766665D02*
X25440000Y-21766665D01*
X16810000Y-21884760D02*
X25440000Y-21884760D01*
X16810000Y-22002855D02*
X25440000Y-22002855D01*
X16810000Y-22120950D02*
X25440000Y-22120950D01*
X16810000Y-22239045D02*
X25440000Y-22239045D01*
X16810000Y-22357140D02*
X25440000Y-22357140D01*
X16810000Y-22475235D02*
X25440000Y-22475235D01*
X16810000Y-22593330D02*
X25440000Y-22593330D01*
X16810000Y-22711425D02*
X25440000Y-22711425D01*
X16810000Y-22829520D02*
X25440000Y-22829520D01*
X16810000Y-22947615D02*
X25440000Y-22947615D01*
X16810000Y-23065710D02*
X25440000Y-23065710D01*
X16810000Y-23183805D02*
X25440000Y-23183805D01*
X16810000Y-23301900D02*
X25440000Y-23301900D01*
X16810000Y-23420000D02*
X25440000Y-23420000D01*
X16810000Y-25960000D02*
X25440000Y-25960000D01*
X16810000Y-28500000D02*
X25440000Y-28500000D01*
X16810000Y-31100000D02*
X25440000Y-31100000D01*
X25440000Y-20820000D02*
X25440000Y-31100000D01*
X25440000Y-21790000D02*
X25790000Y-21790000D01*
X25440000Y-22510000D02*
X25790000Y-22510000D01*
X25440000Y-24330000D02*
X25850000Y-24330000D01*
X25440000Y-25050000D02*
X25850000Y-25050000D01*
X25440000Y-26870000D02*
X25850000Y-26870000D01*
X25440000Y-27590000D02*
X25850000Y-27590000D01*
X25440000Y-29410000D02*
X25850000Y-29410000D01*
X25440000Y-30130000D02*
X25850000Y-30130000D01*
X26900000Y-20820000D02*
X28010000Y-20820000D01*
X28010000Y-20820000D02*
X28010000Y-22150000D01*
%TO.C,C2*%
X25880000Y-33042164D02*
X25880000Y-33257836D01*
X25160000Y-33042164D02*
X25160000Y-33257836D01*
%TO.C,J9*%
X58980000Y-20820000D02*
X58980000Y-22150000D01*
X57650000Y-20820000D02*
X58980000Y-20820000D01*
X56380000Y-20820000D02*
X48700000Y-20820000D01*
X56380000Y-20820000D02*
X56380000Y-23480000D01*
X48700000Y-20820000D02*
X48700000Y-23480000D01*
X56380000Y-23480000D02*
X48700000Y-23480000D01*
%TO.C,R1*%
X26390000Y-33313641D02*
X26390000Y-33006359D01*
X27150000Y-33313641D02*
X27150000Y-33006359D01*
%TO.C,J6*%
X58980000Y-32070000D02*
X58980000Y-33400000D01*
X57650000Y-32070000D02*
X58980000Y-32070000D01*
X56380000Y-32070000D02*
X48700000Y-32070000D01*
X56380000Y-32070000D02*
X56380000Y-34730000D01*
X48700000Y-32070000D02*
X48700000Y-34730000D01*
X56380000Y-34730000D02*
X48700000Y-34730000D01*
%TO.C,R7*%
X42030000Y-30596359D02*
X42030000Y-30903641D01*
X41270000Y-30596359D02*
X41270000Y-30903641D01*
%TO.C,J10*%
X60255000Y-20880000D02*
X61525000Y-20880000D01*
X60255000Y-22150000D02*
X60255000Y-20880000D01*
X62567929Y-24310000D02*
X62965000Y-24310000D01*
X62567929Y-25070000D02*
X62965000Y-25070000D01*
X62567929Y-26850000D02*
X62965000Y-26850000D01*
X62567929Y-27610000D02*
X62965000Y-27610000D01*
X62567929Y-29390000D02*
X62965000Y-29390000D01*
X62567929Y-30150000D02*
X62965000Y-30150000D01*
X62635000Y-21770000D02*
X62965000Y-21770000D01*
X62635000Y-22530000D02*
X62965000Y-22530000D01*
X62965000Y-20820000D02*
X62965000Y-31100000D01*
X62965000Y-23420000D02*
X65625000Y-23420000D01*
X62965000Y-25960000D02*
X65625000Y-25960000D01*
X62965000Y-28500000D02*
X65625000Y-28500000D01*
X62965000Y-31100000D02*
X65625000Y-31100000D01*
X65625000Y-20820000D02*
X62965000Y-20820000D01*
X65625000Y-21770000D02*
X71625000Y-21770000D01*
X65625000Y-21830000D02*
X71625000Y-21830000D01*
X65625000Y-21950000D02*
X71625000Y-21950000D01*
X65625000Y-22070000D02*
X71625000Y-22070000D01*
X65625000Y-22190000D02*
X71625000Y-22190000D01*
X65625000Y-22310000D02*
X71625000Y-22310000D01*
X65625000Y-22430000D02*
X71625000Y-22430000D01*
X65625000Y-24310000D02*
X71625000Y-24310000D01*
X65625000Y-26850000D02*
X71625000Y-26850000D01*
X65625000Y-29390000D02*
X71625000Y-29390000D01*
X65625000Y-31100000D02*
X65625000Y-20820000D01*
X71625000Y-21770000D02*
X71625000Y-22530000D01*
X71625000Y-22530000D02*
X65625000Y-22530000D01*
X71625000Y-24310000D02*
X71625000Y-25070000D01*
X71625000Y-25070000D02*
X65625000Y-25070000D01*
X71625000Y-26850000D02*
X71625000Y-27610000D01*
X71625000Y-27610000D02*
X65625000Y-27610000D01*
X71625000Y-29390000D02*
X71625000Y-30150000D01*
X71625000Y-30150000D02*
X65625000Y-30150000D01*
%TO.C,D1*%
X64755000Y-33985000D02*
X64755000Y-32515000D01*
X64755000Y-32515000D02*
X62470000Y-32515000D01*
X62470000Y-33985000D02*
X64755000Y-33985000D01*
%TO.C,JP2*%
X44450000Y-34900000D02*
X43850000Y-34900000D01*
X43150000Y-34200000D02*
X43150000Y-32800000D01*
X45150000Y-32800000D02*
X45150000Y-34200000D01*
X43850000Y-32100000D02*
X44450000Y-32100000D01*
X43150000Y-34200000D02*
G75*
G03*
X43850000Y-34900000I699999J-1D01*
G01*
X44450000Y-34900000D02*
G75*
G03*
X45150000Y-34200000I1J699999D01*
G01*
X43850000Y-32100000D02*
G75*
G03*
X43150000Y-32800000I0J-700000D01*
G01*
X45150000Y-32800000D02*
G75*
G03*
X44450000Y-32100000I-700000J0D01*
G01*
%TO.C,U6*%
X44150000Y-21465000D02*
X40550000Y-21465000D01*
X44150000Y-21465000D02*
X46350000Y-21465000D01*
X44150000Y-29535000D02*
X41950000Y-29535000D01*
X44150000Y-29535000D02*
X46350000Y-29535000D01*
%TO.C,J3*%
X29320000Y-27230000D02*
X29320000Y-25900000D01*
X30650000Y-27230000D02*
X29320000Y-27230000D01*
X31920000Y-27230000D02*
X39600000Y-27230000D01*
X31920000Y-27230000D02*
X31920000Y-24570000D01*
X39600000Y-27230000D02*
X39600000Y-24570000D01*
X31920000Y-24570000D02*
X39600000Y-24570000D01*
%TD*%
M02*
