%TF.GenerationSoftware,KiCad,Pcbnew,7.0.1*%
%TF.CreationDate,2025-01-23T23:10:33-05:00*%
%TF.ProjectId,BusChain,42757343-6861-4696-9e2e-6b696361645f,rev?*%
%TF.SameCoordinates,Original*%
%TF.FileFunction,Soldermask,Bot*%
%TF.FilePolarity,Negative*%
%FSLAX46Y46*%
G04 Gerber Fmt 4.6, Leading zero omitted, Abs format (unit mm)*
G04 Created by KiCad (PCBNEW 7.0.1) date 2025-01-23 23:10:33*
%MOMM*%
%LPD*%
G01*
G04 APERTURE LIST*
%ADD10R,1.700000X1.700000*%
%ADD11O,1.700000X1.700000*%
G04 APERTURE END LIST*
D10*
%TO.C,J7*%
X57650000Y-29650000D03*
D11*
X55110000Y-29650000D03*
X52570000Y-29650000D03*
X50030000Y-29650000D03*
%TD*%
D10*
%TO.C,J4*%
X30650000Y-29650000D03*
D11*
X33190000Y-29650000D03*
X35730000Y-29650000D03*
X38270000Y-29650000D03*
%TD*%
D10*
%TO.C,J5*%
X30650000Y-33400000D03*
D11*
X33190000Y-33400000D03*
X35730000Y-33400000D03*
X38270000Y-33400000D03*
%TD*%
D10*
%TO.C,J8*%
X57650000Y-25900000D03*
D11*
X55110000Y-25900000D03*
X52570000Y-25900000D03*
X50030000Y-25900000D03*
%TD*%
D10*
%TO.C,J2*%
X30650000Y-22150000D03*
D11*
X33190000Y-22150000D03*
X35730000Y-22150000D03*
X38270000Y-22150000D03*
%TD*%
D10*
%TO.C,J1*%
X26900000Y-22150000D03*
D11*
X26900000Y-24690000D03*
X26900000Y-27230000D03*
X26900000Y-29770000D03*
%TD*%
D10*
%TO.C,J9*%
X57650000Y-22150000D03*
D11*
X55110000Y-22150000D03*
X52570000Y-22150000D03*
X50030000Y-22150000D03*
%TD*%
D10*
%TO.C,J6*%
X57650000Y-33400000D03*
D11*
X55110000Y-33400000D03*
X52570000Y-33400000D03*
X50030000Y-33400000D03*
%TD*%
D10*
%TO.C,J10*%
X61525000Y-22150000D03*
D11*
X61525000Y-24690000D03*
X61525000Y-27230000D03*
X61525000Y-29770000D03*
%TD*%
D10*
%TO.C,J3*%
X30650000Y-25900000D03*
D11*
X33190000Y-25900000D03*
X35730000Y-25900000D03*
X38270000Y-25900000D03*
%TD*%
M02*
