%TF.GenerationSoftware,KiCad,Pcbnew,7.0.1*%
%TF.CreationDate,2024-10-26T16:26:52-04:00*%
%TF.ProjectId,BusChain,42757343-6861-4696-9e2e-6b696361645f,rev?*%
%TF.SameCoordinates,Original*%
%TF.FileFunction,Legend,Top*%
%TF.FilePolarity,Positive*%
%FSLAX46Y46*%
G04 Gerber Fmt 4.6, Leading zero omitted, Abs format (unit mm)*
G04 Created by KiCad (PCBNEW 7.0.1) date 2024-10-26 16:26:52*
%MOMM*%
%LPD*%
G01*
G04 APERTURE LIST*
%ADD10C,0.150000*%
%ADD11C,0.120000*%
G04 APERTURE END LIST*
D10*
X62190476Y-27730000D02*
X62333333Y-27777619D01*
X62333333Y-27777619D02*
X62571428Y-27777619D01*
X62571428Y-27777619D02*
X62666666Y-27730000D01*
X62666666Y-27730000D02*
X62714285Y-27682380D01*
X62714285Y-27682380D02*
X62761904Y-27587142D01*
X62761904Y-27587142D02*
X62761904Y-27491904D01*
X62761904Y-27491904D02*
X62714285Y-27396666D01*
X62714285Y-27396666D02*
X62666666Y-27349047D01*
X62666666Y-27349047D02*
X62571428Y-27301428D01*
X62571428Y-27301428D02*
X62380952Y-27253809D01*
X62380952Y-27253809D02*
X62285714Y-27206190D01*
X62285714Y-27206190D02*
X62238095Y-27158571D01*
X62238095Y-27158571D02*
X62190476Y-27063333D01*
X62190476Y-27063333D02*
X62190476Y-26968095D01*
X62190476Y-26968095D02*
X62238095Y-26872857D01*
X62238095Y-26872857D02*
X62285714Y-26825238D01*
X62285714Y-26825238D02*
X62380952Y-26777619D01*
X62380952Y-26777619D02*
X62619047Y-26777619D01*
X62619047Y-26777619D02*
X62761904Y-26825238D01*
X63190476Y-27777619D02*
X63190476Y-26777619D01*
X63190476Y-26777619D02*
X63428571Y-26777619D01*
X63428571Y-26777619D02*
X63571428Y-26825238D01*
X63571428Y-26825238D02*
X63666666Y-26920476D01*
X63666666Y-26920476D02*
X63714285Y-27015714D01*
X63714285Y-27015714D02*
X63761904Y-27206190D01*
X63761904Y-27206190D02*
X63761904Y-27349047D01*
X63761904Y-27349047D02*
X63714285Y-27539523D01*
X63714285Y-27539523D02*
X63666666Y-27634761D01*
X63666666Y-27634761D02*
X63571428Y-27730000D01*
X63571428Y-27730000D02*
X63428571Y-27777619D01*
X63428571Y-27777619D02*
X63190476Y-27777619D01*
X64142857Y-27491904D02*
X64619047Y-27491904D01*
X64047619Y-27777619D02*
X64380952Y-26777619D01*
X64380952Y-26777619D02*
X64714285Y-27777619D01*
X66142857Y-21627619D02*
X66761904Y-21627619D01*
X66761904Y-21627619D02*
X66428571Y-22008571D01*
X66428571Y-22008571D02*
X66571428Y-22008571D01*
X66571428Y-22008571D02*
X66666666Y-22056190D01*
X66666666Y-22056190D02*
X66714285Y-22103809D01*
X66714285Y-22103809D02*
X66761904Y-22199047D01*
X66761904Y-22199047D02*
X66761904Y-22437142D01*
X66761904Y-22437142D02*
X66714285Y-22532380D01*
X66714285Y-22532380D02*
X66666666Y-22580000D01*
X66666666Y-22580000D02*
X66571428Y-22627619D01*
X66571428Y-22627619D02*
X66285714Y-22627619D01*
X66285714Y-22627619D02*
X66190476Y-22580000D01*
X66190476Y-22580000D02*
X66142857Y-22532380D01*
X67190476Y-22532380D02*
X67238095Y-22580000D01*
X67238095Y-22580000D02*
X67190476Y-22627619D01*
X67190476Y-22627619D02*
X67142857Y-22580000D01*
X67142857Y-22580000D02*
X67190476Y-22532380D01*
X67190476Y-22532380D02*
X67190476Y-22627619D01*
X67571428Y-21627619D02*
X68190475Y-21627619D01*
X68190475Y-21627619D02*
X67857142Y-22008571D01*
X67857142Y-22008571D02*
X67999999Y-22008571D01*
X67999999Y-22008571D02*
X68095237Y-22056190D01*
X68095237Y-22056190D02*
X68142856Y-22103809D01*
X68142856Y-22103809D02*
X68190475Y-22199047D01*
X68190475Y-22199047D02*
X68190475Y-22437142D01*
X68190475Y-22437142D02*
X68142856Y-22532380D01*
X68142856Y-22532380D02*
X68095237Y-22580000D01*
X68095237Y-22580000D02*
X67999999Y-22627619D01*
X67999999Y-22627619D02*
X67714285Y-22627619D01*
X67714285Y-22627619D02*
X67619047Y-22580000D01*
X67619047Y-22580000D02*
X67571428Y-22532380D01*
X68476190Y-21627619D02*
X68809523Y-22627619D01*
X68809523Y-22627619D02*
X69142856Y-21627619D01*
X44071428Y-43403809D02*
X44214285Y-43451428D01*
X44214285Y-43451428D02*
X44261904Y-43499047D01*
X44261904Y-43499047D02*
X44309523Y-43594285D01*
X44309523Y-43594285D02*
X44309523Y-43737142D01*
X44309523Y-43737142D02*
X44261904Y-43832380D01*
X44261904Y-43832380D02*
X44214285Y-43880000D01*
X44214285Y-43880000D02*
X44119047Y-43927619D01*
X44119047Y-43927619D02*
X43738095Y-43927619D01*
X43738095Y-43927619D02*
X43738095Y-42927619D01*
X43738095Y-42927619D02*
X44071428Y-42927619D01*
X44071428Y-42927619D02*
X44166666Y-42975238D01*
X44166666Y-42975238D02*
X44214285Y-43022857D01*
X44214285Y-43022857D02*
X44261904Y-43118095D01*
X44261904Y-43118095D02*
X44261904Y-43213333D01*
X44261904Y-43213333D02*
X44214285Y-43308571D01*
X44214285Y-43308571D02*
X44166666Y-43356190D01*
X44166666Y-43356190D02*
X44071428Y-43403809D01*
X44071428Y-43403809D02*
X43738095Y-43403809D01*
X45166666Y-42927619D02*
X44976190Y-42927619D01*
X44976190Y-42927619D02*
X44880952Y-42975238D01*
X44880952Y-42975238D02*
X44833333Y-43022857D01*
X44833333Y-43022857D02*
X44738095Y-43165714D01*
X44738095Y-43165714D02*
X44690476Y-43356190D01*
X44690476Y-43356190D02*
X44690476Y-43737142D01*
X44690476Y-43737142D02*
X44738095Y-43832380D01*
X44738095Y-43832380D02*
X44785714Y-43880000D01*
X44785714Y-43880000D02*
X44880952Y-43927619D01*
X44880952Y-43927619D02*
X45071428Y-43927619D01*
X45071428Y-43927619D02*
X45166666Y-43880000D01*
X45166666Y-43880000D02*
X45214285Y-43832380D01*
X45214285Y-43832380D02*
X45261904Y-43737142D01*
X45261904Y-43737142D02*
X45261904Y-43499047D01*
X45261904Y-43499047D02*
X45214285Y-43403809D01*
X45214285Y-43403809D02*
X45166666Y-43356190D01*
X45166666Y-43356190D02*
X45071428Y-43308571D01*
X45071428Y-43308571D02*
X44880952Y-43308571D01*
X44880952Y-43308571D02*
X44785714Y-43356190D01*
X44785714Y-43356190D02*
X44738095Y-43403809D01*
X44738095Y-43403809D02*
X44690476Y-43499047D01*
X62661904Y-24225238D02*
X62566666Y-24177619D01*
X62566666Y-24177619D02*
X62423809Y-24177619D01*
X62423809Y-24177619D02*
X62280952Y-24225238D01*
X62280952Y-24225238D02*
X62185714Y-24320476D01*
X62185714Y-24320476D02*
X62138095Y-24415714D01*
X62138095Y-24415714D02*
X62090476Y-24606190D01*
X62090476Y-24606190D02*
X62090476Y-24749047D01*
X62090476Y-24749047D02*
X62138095Y-24939523D01*
X62138095Y-24939523D02*
X62185714Y-25034761D01*
X62185714Y-25034761D02*
X62280952Y-25130000D01*
X62280952Y-25130000D02*
X62423809Y-25177619D01*
X62423809Y-25177619D02*
X62519047Y-25177619D01*
X62519047Y-25177619D02*
X62661904Y-25130000D01*
X62661904Y-25130000D02*
X62709523Y-25082380D01*
X62709523Y-25082380D02*
X62709523Y-24749047D01*
X62709523Y-24749047D02*
X62519047Y-24749047D01*
X63138095Y-25177619D02*
X63138095Y-24177619D01*
X63138095Y-24177619D02*
X63709523Y-25177619D01*
X63709523Y-25177619D02*
X63709523Y-24177619D01*
X64185714Y-25177619D02*
X64185714Y-24177619D01*
X64185714Y-24177619D02*
X64423809Y-24177619D01*
X64423809Y-24177619D02*
X64566666Y-24225238D01*
X64566666Y-24225238D02*
X64661904Y-24320476D01*
X64661904Y-24320476D02*
X64709523Y-24415714D01*
X64709523Y-24415714D02*
X64757142Y-24606190D01*
X64757142Y-24606190D02*
X64757142Y-24749047D01*
X64757142Y-24749047D02*
X64709523Y-24939523D01*
X64709523Y-24939523D02*
X64661904Y-25034761D01*
X64661904Y-25034761D02*
X64566666Y-25130000D01*
X64566666Y-25130000D02*
X64423809Y-25177619D01*
X64423809Y-25177619D02*
X64185714Y-25177619D01*
X50761904Y-50075238D02*
X50666666Y-50027619D01*
X50666666Y-50027619D02*
X50523809Y-50027619D01*
X50523809Y-50027619D02*
X50380952Y-50075238D01*
X50380952Y-50075238D02*
X50285714Y-50170476D01*
X50285714Y-50170476D02*
X50238095Y-50265714D01*
X50238095Y-50265714D02*
X50190476Y-50456190D01*
X50190476Y-50456190D02*
X50190476Y-50599047D01*
X50190476Y-50599047D02*
X50238095Y-50789523D01*
X50238095Y-50789523D02*
X50285714Y-50884761D01*
X50285714Y-50884761D02*
X50380952Y-50980000D01*
X50380952Y-50980000D02*
X50523809Y-51027619D01*
X50523809Y-51027619D02*
X50619047Y-51027619D01*
X50619047Y-51027619D02*
X50761904Y-50980000D01*
X50761904Y-50980000D02*
X50809523Y-50932380D01*
X50809523Y-50932380D02*
X50809523Y-50599047D01*
X50809523Y-50599047D02*
X50619047Y-50599047D01*
X51238095Y-51027619D02*
X51238095Y-50027619D01*
X51238095Y-50027619D02*
X51809523Y-51027619D01*
X51809523Y-51027619D02*
X51809523Y-50027619D01*
X52285714Y-51027619D02*
X52285714Y-50027619D01*
X52285714Y-50027619D02*
X52523809Y-50027619D01*
X52523809Y-50027619D02*
X52666666Y-50075238D01*
X52666666Y-50075238D02*
X52761904Y-50170476D01*
X52761904Y-50170476D02*
X52809523Y-50265714D01*
X52809523Y-50265714D02*
X52857142Y-50456190D01*
X52857142Y-50456190D02*
X52857142Y-50599047D01*
X52857142Y-50599047D02*
X52809523Y-50789523D01*
X52809523Y-50789523D02*
X52761904Y-50884761D01*
X52761904Y-50884761D02*
X52666666Y-50980000D01*
X52666666Y-50980000D02*
X52523809Y-51027619D01*
X52523809Y-51027619D02*
X52285714Y-51027619D01*
X50290476Y-48580000D02*
X50433333Y-48627619D01*
X50433333Y-48627619D02*
X50671428Y-48627619D01*
X50671428Y-48627619D02*
X50766666Y-48580000D01*
X50766666Y-48580000D02*
X50814285Y-48532380D01*
X50814285Y-48532380D02*
X50861904Y-48437142D01*
X50861904Y-48437142D02*
X50861904Y-48341904D01*
X50861904Y-48341904D02*
X50814285Y-48246666D01*
X50814285Y-48246666D02*
X50766666Y-48199047D01*
X50766666Y-48199047D02*
X50671428Y-48151428D01*
X50671428Y-48151428D02*
X50480952Y-48103809D01*
X50480952Y-48103809D02*
X50385714Y-48056190D01*
X50385714Y-48056190D02*
X50338095Y-48008571D01*
X50338095Y-48008571D02*
X50290476Y-47913333D01*
X50290476Y-47913333D02*
X50290476Y-47818095D01*
X50290476Y-47818095D02*
X50338095Y-47722857D01*
X50338095Y-47722857D02*
X50385714Y-47675238D01*
X50385714Y-47675238D02*
X50480952Y-47627619D01*
X50480952Y-47627619D02*
X50719047Y-47627619D01*
X50719047Y-47627619D02*
X50861904Y-47675238D01*
X51290476Y-48627619D02*
X51290476Y-47627619D01*
X51290476Y-47627619D02*
X51528571Y-47627619D01*
X51528571Y-47627619D02*
X51671428Y-47675238D01*
X51671428Y-47675238D02*
X51766666Y-47770476D01*
X51766666Y-47770476D02*
X51814285Y-47865714D01*
X51814285Y-47865714D02*
X51861904Y-48056190D01*
X51861904Y-48056190D02*
X51861904Y-48199047D01*
X51861904Y-48199047D02*
X51814285Y-48389523D01*
X51814285Y-48389523D02*
X51766666Y-48484761D01*
X51766666Y-48484761D02*
X51671428Y-48580000D01*
X51671428Y-48580000D02*
X51528571Y-48627619D01*
X51528571Y-48627619D02*
X51290476Y-48627619D01*
X52242857Y-48341904D02*
X52719047Y-48341904D01*
X52147619Y-48627619D02*
X52480952Y-47627619D01*
X52480952Y-47627619D02*
X52814285Y-48627619D01*
X21409523Y-30177619D02*
X21076190Y-29701428D01*
X20838095Y-30177619D02*
X20838095Y-29177619D01*
X20838095Y-29177619D02*
X21219047Y-29177619D01*
X21219047Y-29177619D02*
X21314285Y-29225238D01*
X21314285Y-29225238D02*
X21361904Y-29272857D01*
X21361904Y-29272857D02*
X21409523Y-29368095D01*
X21409523Y-29368095D02*
X21409523Y-29510952D01*
X21409523Y-29510952D02*
X21361904Y-29606190D01*
X21361904Y-29606190D02*
X21314285Y-29653809D01*
X21314285Y-29653809D02*
X21219047Y-29701428D01*
X21219047Y-29701428D02*
X20838095Y-29701428D01*
X22409523Y-30082380D02*
X22361904Y-30130000D01*
X22361904Y-30130000D02*
X22219047Y-30177619D01*
X22219047Y-30177619D02*
X22123809Y-30177619D01*
X22123809Y-30177619D02*
X21980952Y-30130000D01*
X21980952Y-30130000D02*
X21885714Y-30034761D01*
X21885714Y-30034761D02*
X21838095Y-29939523D01*
X21838095Y-29939523D02*
X21790476Y-29749047D01*
X21790476Y-29749047D02*
X21790476Y-29606190D01*
X21790476Y-29606190D02*
X21838095Y-29415714D01*
X21838095Y-29415714D02*
X21885714Y-29320476D01*
X21885714Y-29320476D02*
X21980952Y-29225238D01*
X21980952Y-29225238D02*
X22123809Y-29177619D01*
X22123809Y-29177619D02*
X22219047Y-29177619D01*
X22219047Y-29177619D02*
X22361904Y-29225238D01*
X22361904Y-29225238D02*
X22409523Y-29272857D01*
X23314285Y-30177619D02*
X22838095Y-30177619D01*
X22838095Y-30177619D02*
X22838095Y-29177619D01*
X23647619Y-30177619D02*
X23647619Y-29177619D01*
X24219047Y-30177619D02*
X23790476Y-29606190D01*
X24219047Y-29177619D02*
X23647619Y-29749047D01*
X32871428Y-43303809D02*
X33014285Y-43351428D01*
X33014285Y-43351428D02*
X33061904Y-43399047D01*
X33061904Y-43399047D02*
X33109523Y-43494285D01*
X33109523Y-43494285D02*
X33109523Y-43637142D01*
X33109523Y-43637142D02*
X33061904Y-43732380D01*
X33061904Y-43732380D02*
X33014285Y-43780000D01*
X33014285Y-43780000D02*
X32919047Y-43827619D01*
X32919047Y-43827619D02*
X32538095Y-43827619D01*
X32538095Y-43827619D02*
X32538095Y-42827619D01*
X32538095Y-42827619D02*
X32871428Y-42827619D01*
X32871428Y-42827619D02*
X32966666Y-42875238D01*
X32966666Y-42875238D02*
X33014285Y-42922857D01*
X33014285Y-42922857D02*
X33061904Y-43018095D01*
X33061904Y-43018095D02*
X33061904Y-43113333D01*
X33061904Y-43113333D02*
X33014285Y-43208571D01*
X33014285Y-43208571D02*
X32966666Y-43256190D01*
X32966666Y-43256190D02*
X32871428Y-43303809D01*
X32871428Y-43303809D02*
X32538095Y-43303809D01*
X33442857Y-42827619D02*
X34061904Y-42827619D01*
X34061904Y-42827619D02*
X33728571Y-43208571D01*
X33728571Y-43208571D02*
X33871428Y-43208571D01*
X33871428Y-43208571D02*
X33966666Y-43256190D01*
X33966666Y-43256190D02*
X34014285Y-43303809D01*
X34014285Y-43303809D02*
X34061904Y-43399047D01*
X34061904Y-43399047D02*
X34061904Y-43637142D01*
X34061904Y-43637142D02*
X34014285Y-43732380D01*
X34014285Y-43732380D02*
X33966666Y-43780000D01*
X33966666Y-43780000D02*
X33871428Y-43827619D01*
X33871428Y-43827619D02*
X33585714Y-43827619D01*
X33585714Y-43827619D02*
X33490476Y-43780000D01*
X33490476Y-43780000D02*
X33442857Y-43732380D01*
X40790476Y-31941904D02*
X41266666Y-31941904D01*
X40695238Y-32227619D02*
X41028571Y-31227619D01*
X41028571Y-31227619D02*
X41361904Y-32227619D01*
X42171428Y-31227619D02*
X41695238Y-31227619D01*
X41695238Y-31227619D02*
X41647619Y-31703809D01*
X41647619Y-31703809D02*
X41695238Y-31656190D01*
X41695238Y-31656190D02*
X41790476Y-31608571D01*
X41790476Y-31608571D02*
X42028571Y-31608571D01*
X42028571Y-31608571D02*
X42123809Y-31656190D01*
X42123809Y-31656190D02*
X42171428Y-31703809D01*
X42171428Y-31703809D02*
X42219047Y-31799047D01*
X42219047Y-31799047D02*
X42219047Y-32037142D01*
X42219047Y-32037142D02*
X42171428Y-32132380D01*
X42171428Y-32132380D02*
X42123809Y-32180000D01*
X42123809Y-32180000D02*
X42028571Y-32227619D01*
X42028571Y-32227619D02*
X41790476Y-32227619D01*
X41790476Y-32227619D02*
X41695238Y-32180000D01*
X41695238Y-32180000D02*
X41647619Y-32132380D01*
X66609523Y-30227619D02*
X66276190Y-29751428D01*
X66038095Y-30227619D02*
X66038095Y-29227619D01*
X66038095Y-29227619D02*
X66419047Y-29227619D01*
X66419047Y-29227619D02*
X66514285Y-29275238D01*
X66514285Y-29275238D02*
X66561904Y-29322857D01*
X66561904Y-29322857D02*
X66609523Y-29418095D01*
X66609523Y-29418095D02*
X66609523Y-29560952D01*
X66609523Y-29560952D02*
X66561904Y-29656190D01*
X66561904Y-29656190D02*
X66514285Y-29703809D01*
X66514285Y-29703809D02*
X66419047Y-29751428D01*
X66419047Y-29751428D02*
X66038095Y-29751428D01*
X67609523Y-30132380D02*
X67561904Y-30180000D01*
X67561904Y-30180000D02*
X67419047Y-30227619D01*
X67419047Y-30227619D02*
X67323809Y-30227619D01*
X67323809Y-30227619D02*
X67180952Y-30180000D01*
X67180952Y-30180000D02*
X67085714Y-30084761D01*
X67085714Y-30084761D02*
X67038095Y-29989523D01*
X67038095Y-29989523D02*
X66990476Y-29799047D01*
X66990476Y-29799047D02*
X66990476Y-29656190D01*
X66990476Y-29656190D02*
X67038095Y-29465714D01*
X67038095Y-29465714D02*
X67085714Y-29370476D01*
X67085714Y-29370476D02*
X67180952Y-29275238D01*
X67180952Y-29275238D02*
X67323809Y-29227619D01*
X67323809Y-29227619D02*
X67419047Y-29227619D01*
X67419047Y-29227619D02*
X67561904Y-29275238D01*
X67561904Y-29275238D02*
X67609523Y-29322857D01*
X68514285Y-30227619D02*
X68038095Y-30227619D01*
X68038095Y-30227619D02*
X68038095Y-29227619D01*
X68847619Y-30227619D02*
X68847619Y-29227619D01*
X69419047Y-30227619D02*
X68990476Y-29656190D01*
X69419047Y-29227619D02*
X68847619Y-29799047D01*
X20795238Y-21477619D02*
X21128571Y-22477619D01*
X21128571Y-22477619D02*
X21461904Y-21477619D01*
X21938095Y-22382380D02*
X21985714Y-22430000D01*
X21985714Y-22430000D02*
X21938095Y-22477619D01*
X21938095Y-22477619D02*
X21890476Y-22430000D01*
X21890476Y-22430000D02*
X21938095Y-22382380D01*
X21938095Y-22382380D02*
X21938095Y-22477619D01*
X21747619Y-21525238D02*
X21842857Y-21477619D01*
X21842857Y-21477619D02*
X22080952Y-21477619D01*
X22080952Y-21477619D02*
X22176190Y-21525238D01*
X22176190Y-21525238D02*
X22223809Y-21620476D01*
X22223809Y-21620476D02*
X22223809Y-21715714D01*
X22223809Y-21715714D02*
X22176190Y-21810952D01*
X22176190Y-21810952D02*
X22128571Y-21858571D01*
X22128571Y-21858571D02*
X22033333Y-21906190D01*
X22033333Y-21906190D02*
X21985714Y-21953809D01*
X21985714Y-21953809D02*
X21938095Y-22049047D01*
X21938095Y-22049047D02*
X21938095Y-22096666D01*
X66790476Y-34880000D02*
X66933333Y-34927619D01*
X66933333Y-34927619D02*
X67171428Y-34927619D01*
X67171428Y-34927619D02*
X67266666Y-34880000D01*
X67266666Y-34880000D02*
X67314285Y-34832380D01*
X67314285Y-34832380D02*
X67361904Y-34737142D01*
X67361904Y-34737142D02*
X67361904Y-34641904D01*
X67361904Y-34641904D02*
X67314285Y-34546666D01*
X67314285Y-34546666D02*
X67266666Y-34499047D01*
X67266666Y-34499047D02*
X67171428Y-34451428D01*
X67171428Y-34451428D02*
X66980952Y-34403809D01*
X66980952Y-34403809D02*
X66885714Y-34356190D01*
X66885714Y-34356190D02*
X66838095Y-34308571D01*
X66838095Y-34308571D02*
X66790476Y-34213333D01*
X66790476Y-34213333D02*
X66790476Y-34118095D01*
X66790476Y-34118095D02*
X66838095Y-34022857D01*
X66838095Y-34022857D02*
X66885714Y-33975238D01*
X66885714Y-33975238D02*
X66980952Y-33927619D01*
X66980952Y-33927619D02*
X67219047Y-33927619D01*
X67219047Y-33927619D02*
X67361904Y-33975238D01*
X68361904Y-34832380D02*
X68314285Y-34880000D01*
X68314285Y-34880000D02*
X68171428Y-34927619D01*
X68171428Y-34927619D02*
X68076190Y-34927619D01*
X68076190Y-34927619D02*
X67933333Y-34880000D01*
X67933333Y-34880000D02*
X67838095Y-34784761D01*
X67838095Y-34784761D02*
X67790476Y-34689523D01*
X67790476Y-34689523D02*
X67742857Y-34499047D01*
X67742857Y-34499047D02*
X67742857Y-34356190D01*
X67742857Y-34356190D02*
X67790476Y-34165714D01*
X67790476Y-34165714D02*
X67838095Y-34070476D01*
X67838095Y-34070476D02*
X67933333Y-33975238D01*
X67933333Y-33975238D02*
X68076190Y-33927619D01*
X68076190Y-33927619D02*
X68171428Y-33927619D01*
X68171428Y-33927619D02*
X68314285Y-33975238D01*
X68314285Y-33975238D02*
X68361904Y-34022857D01*
X69266666Y-34927619D02*
X68790476Y-34927619D01*
X68790476Y-34927619D02*
X68790476Y-33927619D01*
X59490476Y-31941904D02*
X59966666Y-31941904D01*
X59395238Y-32227619D02*
X59728571Y-31227619D01*
X59728571Y-31227619D02*
X60061904Y-32227619D01*
X60585714Y-31227619D02*
X60680952Y-31227619D01*
X60680952Y-31227619D02*
X60776190Y-31275238D01*
X60776190Y-31275238D02*
X60823809Y-31322857D01*
X60823809Y-31322857D02*
X60871428Y-31418095D01*
X60871428Y-31418095D02*
X60919047Y-31608571D01*
X60919047Y-31608571D02*
X60919047Y-31846666D01*
X60919047Y-31846666D02*
X60871428Y-32037142D01*
X60871428Y-32037142D02*
X60823809Y-32132380D01*
X60823809Y-32132380D02*
X60776190Y-32180000D01*
X60776190Y-32180000D02*
X60680952Y-32227619D01*
X60680952Y-32227619D02*
X60585714Y-32227619D01*
X60585714Y-32227619D02*
X60490476Y-32180000D01*
X60490476Y-32180000D02*
X60442857Y-32132380D01*
X60442857Y-32132380D02*
X60395238Y-32037142D01*
X60395238Y-32037142D02*
X60347619Y-31846666D01*
X60347619Y-31846666D02*
X60347619Y-31608571D01*
X60347619Y-31608571D02*
X60395238Y-31418095D01*
X60395238Y-31418095D02*
X60442857Y-31322857D01*
X60442857Y-31322857D02*
X60490476Y-31275238D01*
X60490476Y-31275238D02*
X60585714Y-31227619D01*
X63950595Y-48127619D02*
X63950595Y-47127619D01*
X63950595Y-47127619D02*
X64331547Y-47127619D01*
X64331547Y-47127619D02*
X64426785Y-47175238D01*
X64426785Y-47175238D02*
X64474404Y-47222857D01*
X64474404Y-47222857D02*
X64522023Y-47318095D01*
X64522023Y-47318095D02*
X64522023Y-47460952D01*
X64522023Y-47460952D02*
X64474404Y-47556190D01*
X64474404Y-47556190D02*
X64426785Y-47603809D01*
X64426785Y-47603809D02*
X64331547Y-47651428D01*
X64331547Y-47651428D02*
X63950595Y-47651428D01*
X64855357Y-47127619D02*
X65093452Y-48127619D01*
X65093452Y-48127619D02*
X65283928Y-47413333D01*
X65283928Y-47413333D02*
X65474404Y-48127619D01*
X65474404Y-48127619D02*
X65712500Y-47127619D01*
X66664880Y-48127619D02*
X66331547Y-47651428D01*
X66093452Y-48127619D02*
X66093452Y-47127619D01*
X66093452Y-47127619D02*
X66474404Y-47127619D01*
X66474404Y-47127619D02*
X66569642Y-47175238D01*
X66569642Y-47175238D02*
X66617261Y-47222857D01*
X66617261Y-47222857D02*
X66664880Y-47318095D01*
X66664880Y-47318095D02*
X66664880Y-47460952D01*
X66664880Y-47460952D02*
X66617261Y-47556190D01*
X66617261Y-47556190D02*
X66569642Y-47603809D01*
X66569642Y-47603809D02*
X66474404Y-47651428D01*
X66474404Y-47651428D02*
X66093452Y-47651428D01*
X29071428Y-43303809D02*
X29214285Y-43351428D01*
X29214285Y-43351428D02*
X29261904Y-43399047D01*
X29261904Y-43399047D02*
X29309523Y-43494285D01*
X29309523Y-43494285D02*
X29309523Y-43637142D01*
X29309523Y-43637142D02*
X29261904Y-43732380D01*
X29261904Y-43732380D02*
X29214285Y-43780000D01*
X29214285Y-43780000D02*
X29119047Y-43827619D01*
X29119047Y-43827619D02*
X28738095Y-43827619D01*
X28738095Y-43827619D02*
X28738095Y-42827619D01*
X28738095Y-42827619D02*
X29071428Y-42827619D01*
X29071428Y-42827619D02*
X29166666Y-42875238D01*
X29166666Y-42875238D02*
X29214285Y-42922857D01*
X29214285Y-42922857D02*
X29261904Y-43018095D01*
X29261904Y-43018095D02*
X29261904Y-43113333D01*
X29261904Y-43113333D02*
X29214285Y-43208571D01*
X29214285Y-43208571D02*
X29166666Y-43256190D01*
X29166666Y-43256190D02*
X29071428Y-43303809D01*
X29071428Y-43303809D02*
X28738095Y-43303809D01*
X29690476Y-42922857D02*
X29738095Y-42875238D01*
X29738095Y-42875238D02*
X29833333Y-42827619D01*
X29833333Y-42827619D02*
X30071428Y-42827619D01*
X30071428Y-42827619D02*
X30166666Y-42875238D01*
X30166666Y-42875238D02*
X30214285Y-42922857D01*
X30214285Y-42922857D02*
X30261904Y-43018095D01*
X30261904Y-43018095D02*
X30261904Y-43113333D01*
X30261904Y-43113333D02*
X30214285Y-43256190D01*
X30214285Y-43256190D02*
X29642857Y-43827619D01*
X29642857Y-43827619D02*
X30261904Y-43827619D01*
X50290476Y-46380000D02*
X50433333Y-46427619D01*
X50433333Y-46427619D02*
X50671428Y-46427619D01*
X50671428Y-46427619D02*
X50766666Y-46380000D01*
X50766666Y-46380000D02*
X50814285Y-46332380D01*
X50814285Y-46332380D02*
X50861904Y-46237142D01*
X50861904Y-46237142D02*
X50861904Y-46141904D01*
X50861904Y-46141904D02*
X50814285Y-46046666D01*
X50814285Y-46046666D02*
X50766666Y-45999047D01*
X50766666Y-45999047D02*
X50671428Y-45951428D01*
X50671428Y-45951428D02*
X50480952Y-45903809D01*
X50480952Y-45903809D02*
X50385714Y-45856190D01*
X50385714Y-45856190D02*
X50338095Y-45808571D01*
X50338095Y-45808571D02*
X50290476Y-45713333D01*
X50290476Y-45713333D02*
X50290476Y-45618095D01*
X50290476Y-45618095D02*
X50338095Y-45522857D01*
X50338095Y-45522857D02*
X50385714Y-45475238D01*
X50385714Y-45475238D02*
X50480952Y-45427619D01*
X50480952Y-45427619D02*
X50719047Y-45427619D01*
X50719047Y-45427619D02*
X50861904Y-45475238D01*
X51861904Y-46332380D02*
X51814285Y-46380000D01*
X51814285Y-46380000D02*
X51671428Y-46427619D01*
X51671428Y-46427619D02*
X51576190Y-46427619D01*
X51576190Y-46427619D02*
X51433333Y-46380000D01*
X51433333Y-46380000D02*
X51338095Y-46284761D01*
X51338095Y-46284761D02*
X51290476Y-46189523D01*
X51290476Y-46189523D02*
X51242857Y-45999047D01*
X51242857Y-45999047D02*
X51242857Y-45856190D01*
X51242857Y-45856190D02*
X51290476Y-45665714D01*
X51290476Y-45665714D02*
X51338095Y-45570476D01*
X51338095Y-45570476D02*
X51433333Y-45475238D01*
X51433333Y-45475238D02*
X51576190Y-45427619D01*
X51576190Y-45427619D02*
X51671428Y-45427619D01*
X51671428Y-45427619D02*
X51814285Y-45475238D01*
X51814285Y-45475238D02*
X51861904Y-45522857D01*
X52766666Y-46427619D02*
X52290476Y-46427619D01*
X52290476Y-46427619D02*
X52290476Y-45427619D01*
X66961904Y-24175238D02*
X66866666Y-24127619D01*
X66866666Y-24127619D02*
X66723809Y-24127619D01*
X66723809Y-24127619D02*
X66580952Y-24175238D01*
X66580952Y-24175238D02*
X66485714Y-24270476D01*
X66485714Y-24270476D02*
X66438095Y-24365714D01*
X66438095Y-24365714D02*
X66390476Y-24556190D01*
X66390476Y-24556190D02*
X66390476Y-24699047D01*
X66390476Y-24699047D02*
X66438095Y-24889523D01*
X66438095Y-24889523D02*
X66485714Y-24984761D01*
X66485714Y-24984761D02*
X66580952Y-25080000D01*
X66580952Y-25080000D02*
X66723809Y-25127619D01*
X66723809Y-25127619D02*
X66819047Y-25127619D01*
X66819047Y-25127619D02*
X66961904Y-25080000D01*
X66961904Y-25080000D02*
X67009523Y-25032380D01*
X67009523Y-25032380D02*
X67009523Y-24699047D01*
X67009523Y-24699047D02*
X66819047Y-24699047D01*
X67438095Y-25127619D02*
X67438095Y-24127619D01*
X67438095Y-24127619D02*
X68009523Y-25127619D01*
X68009523Y-25127619D02*
X68009523Y-24127619D01*
X68485714Y-25127619D02*
X68485714Y-24127619D01*
X68485714Y-24127619D02*
X68723809Y-24127619D01*
X68723809Y-24127619D02*
X68866666Y-24175238D01*
X68866666Y-24175238D02*
X68961904Y-24270476D01*
X68961904Y-24270476D02*
X69009523Y-24365714D01*
X69009523Y-24365714D02*
X69057142Y-24556190D01*
X69057142Y-24556190D02*
X69057142Y-24699047D01*
X69057142Y-24699047D02*
X69009523Y-24889523D01*
X69009523Y-24889523D02*
X68961904Y-24984761D01*
X68961904Y-24984761D02*
X68866666Y-25080000D01*
X68866666Y-25080000D02*
X68723809Y-25127619D01*
X68723809Y-25127619D02*
X68485714Y-25127619D01*
X61995238Y-21677619D02*
X62328571Y-22677619D01*
X62328571Y-22677619D02*
X62661904Y-21677619D01*
X63566666Y-22582380D02*
X63519047Y-22630000D01*
X63519047Y-22630000D02*
X63376190Y-22677619D01*
X63376190Y-22677619D02*
X63280952Y-22677619D01*
X63280952Y-22677619D02*
X63138095Y-22630000D01*
X63138095Y-22630000D02*
X63042857Y-22534761D01*
X63042857Y-22534761D02*
X62995238Y-22439523D01*
X62995238Y-22439523D02*
X62947619Y-22249047D01*
X62947619Y-22249047D02*
X62947619Y-22106190D01*
X62947619Y-22106190D02*
X62995238Y-21915714D01*
X62995238Y-21915714D02*
X63042857Y-21820476D01*
X63042857Y-21820476D02*
X63138095Y-21725238D01*
X63138095Y-21725238D02*
X63280952Y-21677619D01*
X63280952Y-21677619D02*
X63376190Y-21677619D01*
X63376190Y-21677619D02*
X63519047Y-21725238D01*
X63519047Y-21725238D02*
X63566666Y-21772857D01*
X64566666Y-22582380D02*
X64519047Y-22630000D01*
X64519047Y-22630000D02*
X64376190Y-22677619D01*
X64376190Y-22677619D02*
X64280952Y-22677619D01*
X64280952Y-22677619D02*
X64138095Y-22630000D01*
X64138095Y-22630000D02*
X64042857Y-22534761D01*
X64042857Y-22534761D02*
X63995238Y-22439523D01*
X63995238Y-22439523D02*
X63947619Y-22249047D01*
X63947619Y-22249047D02*
X63947619Y-22106190D01*
X63947619Y-22106190D02*
X63995238Y-21915714D01*
X63995238Y-21915714D02*
X64042857Y-21820476D01*
X64042857Y-21820476D02*
X64138095Y-21725238D01*
X64138095Y-21725238D02*
X64280952Y-21677619D01*
X64280952Y-21677619D02*
X64376190Y-21677619D01*
X64376190Y-21677619D02*
X64519047Y-21725238D01*
X64519047Y-21725238D02*
X64566666Y-21772857D01*
X25371428Y-43303809D02*
X25514285Y-43351428D01*
X25514285Y-43351428D02*
X25561904Y-43399047D01*
X25561904Y-43399047D02*
X25609523Y-43494285D01*
X25609523Y-43494285D02*
X25609523Y-43637142D01*
X25609523Y-43637142D02*
X25561904Y-43732380D01*
X25561904Y-43732380D02*
X25514285Y-43780000D01*
X25514285Y-43780000D02*
X25419047Y-43827619D01*
X25419047Y-43827619D02*
X25038095Y-43827619D01*
X25038095Y-43827619D02*
X25038095Y-42827619D01*
X25038095Y-42827619D02*
X25371428Y-42827619D01*
X25371428Y-42827619D02*
X25466666Y-42875238D01*
X25466666Y-42875238D02*
X25514285Y-42922857D01*
X25514285Y-42922857D02*
X25561904Y-43018095D01*
X25561904Y-43018095D02*
X25561904Y-43113333D01*
X25561904Y-43113333D02*
X25514285Y-43208571D01*
X25514285Y-43208571D02*
X25466666Y-43256190D01*
X25466666Y-43256190D02*
X25371428Y-43303809D01*
X25371428Y-43303809D02*
X25038095Y-43303809D01*
X26561904Y-43827619D02*
X25990476Y-43827619D01*
X26276190Y-43827619D02*
X26276190Y-42827619D01*
X26276190Y-42827619D02*
X26180952Y-42970476D01*
X26180952Y-42970476D02*
X26085714Y-43065714D01*
X26085714Y-43065714D02*
X25990476Y-43113333D01*
X62290476Y-30230000D02*
X62433333Y-30277619D01*
X62433333Y-30277619D02*
X62671428Y-30277619D01*
X62671428Y-30277619D02*
X62766666Y-30230000D01*
X62766666Y-30230000D02*
X62814285Y-30182380D01*
X62814285Y-30182380D02*
X62861904Y-30087142D01*
X62861904Y-30087142D02*
X62861904Y-29991904D01*
X62861904Y-29991904D02*
X62814285Y-29896666D01*
X62814285Y-29896666D02*
X62766666Y-29849047D01*
X62766666Y-29849047D02*
X62671428Y-29801428D01*
X62671428Y-29801428D02*
X62480952Y-29753809D01*
X62480952Y-29753809D02*
X62385714Y-29706190D01*
X62385714Y-29706190D02*
X62338095Y-29658571D01*
X62338095Y-29658571D02*
X62290476Y-29563333D01*
X62290476Y-29563333D02*
X62290476Y-29468095D01*
X62290476Y-29468095D02*
X62338095Y-29372857D01*
X62338095Y-29372857D02*
X62385714Y-29325238D01*
X62385714Y-29325238D02*
X62480952Y-29277619D01*
X62480952Y-29277619D02*
X62719047Y-29277619D01*
X62719047Y-29277619D02*
X62861904Y-29325238D01*
X63861904Y-30182380D02*
X63814285Y-30230000D01*
X63814285Y-30230000D02*
X63671428Y-30277619D01*
X63671428Y-30277619D02*
X63576190Y-30277619D01*
X63576190Y-30277619D02*
X63433333Y-30230000D01*
X63433333Y-30230000D02*
X63338095Y-30134761D01*
X63338095Y-30134761D02*
X63290476Y-30039523D01*
X63290476Y-30039523D02*
X63242857Y-29849047D01*
X63242857Y-29849047D02*
X63242857Y-29706190D01*
X63242857Y-29706190D02*
X63290476Y-29515714D01*
X63290476Y-29515714D02*
X63338095Y-29420476D01*
X63338095Y-29420476D02*
X63433333Y-29325238D01*
X63433333Y-29325238D02*
X63576190Y-29277619D01*
X63576190Y-29277619D02*
X63671428Y-29277619D01*
X63671428Y-29277619D02*
X63814285Y-29325238D01*
X63814285Y-29325238D02*
X63861904Y-29372857D01*
X64766666Y-30277619D02*
X64290476Y-30277619D01*
X64290476Y-30277619D02*
X64290476Y-29277619D01*
X21571428Y-43303809D02*
X21714285Y-43351428D01*
X21714285Y-43351428D02*
X21761904Y-43399047D01*
X21761904Y-43399047D02*
X21809523Y-43494285D01*
X21809523Y-43494285D02*
X21809523Y-43637142D01*
X21809523Y-43637142D02*
X21761904Y-43732380D01*
X21761904Y-43732380D02*
X21714285Y-43780000D01*
X21714285Y-43780000D02*
X21619047Y-43827619D01*
X21619047Y-43827619D02*
X21238095Y-43827619D01*
X21238095Y-43827619D02*
X21238095Y-42827619D01*
X21238095Y-42827619D02*
X21571428Y-42827619D01*
X21571428Y-42827619D02*
X21666666Y-42875238D01*
X21666666Y-42875238D02*
X21714285Y-42922857D01*
X21714285Y-42922857D02*
X21761904Y-43018095D01*
X21761904Y-43018095D02*
X21761904Y-43113333D01*
X21761904Y-43113333D02*
X21714285Y-43208571D01*
X21714285Y-43208571D02*
X21666666Y-43256190D01*
X21666666Y-43256190D02*
X21571428Y-43303809D01*
X21571428Y-43303809D02*
X21238095Y-43303809D01*
X22428571Y-42827619D02*
X22523809Y-42827619D01*
X22523809Y-42827619D02*
X22619047Y-42875238D01*
X22619047Y-42875238D02*
X22666666Y-42922857D01*
X22666666Y-42922857D02*
X22714285Y-43018095D01*
X22714285Y-43018095D02*
X22761904Y-43208571D01*
X22761904Y-43208571D02*
X22761904Y-43446666D01*
X22761904Y-43446666D02*
X22714285Y-43637142D01*
X22714285Y-43637142D02*
X22666666Y-43732380D01*
X22666666Y-43732380D02*
X22619047Y-43780000D01*
X22619047Y-43780000D02*
X22523809Y-43827619D01*
X22523809Y-43827619D02*
X22428571Y-43827619D01*
X22428571Y-43827619D02*
X22333333Y-43780000D01*
X22333333Y-43780000D02*
X22285714Y-43732380D01*
X22285714Y-43732380D02*
X22238095Y-43637142D01*
X22238095Y-43637142D02*
X22190476Y-43446666D01*
X22190476Y-43446666D02*
X22190476Y-43208571D01*
X22190476Y-43208571D02*
X22238095Y-43018095D01*
X22238095Y-43018095D02*
X22285714Y-42922857D01*
X22285714Y-42922857D02*
X22333333Y-42875238D01*
X22333333Y-42875238D02*
X22428571Y-42827619D01*
X36571428Y-43303809D02*
X36714285Y-43351428D01*
X36714285Y-43351428D02*
X36761904Y-43399047D01*
X36761904Y-43399047D02*
X36809523Y-43494285D01*
X36809523Y-43494285D02*
X36809523Y-43637142D01*
X36809523Y-43637142D02*
X36761904Y-43732380D01*
X36761904Y-43732380D02*
X36714285Y-43780000D01*
X36714285Y-43780000D02*
X36619047Y-43827619D01*
X36619047Y-43827619D02*
X36238095Y-43827619D01*
X36238095Y-43827619D02*
X36238095Y-42827619D01*
X36238095Y-42827619D02*
X36571428Y-42827619D01*
X36571428Y-42827619D02*
X36666666Y-42875238D01*
X36666666Y-42875238D02*
X36714285Y-42922857D01*
X36714285Y-42922857D02*
X36761904Y-43018095D01*
X36761904Y-43018095D02*
X36761904Y-43113333D01*
X36761904Y-43113333D02*
X36714285Y-43208571D01*
X36714285Y-43208571D02*
X36666666Y-43256190D01*
X36666666Y-43256190D02*
X36571428Y-43303809D01*
X36571428Y-43303809D02*
X36238095Y-43303809D01*
X37666666Y-43160952D02*
X37666666Y-43827619D01*
X37428571Y-42780000D02*
X37190476Y-43494285D01*
X37190476Y-43494285D02*
X37809523Y-43494285D01*
X21361904Y-24175238D02*
X21266666Y-24127619D01*
X21266666Y-24127619D02*
X21123809Y-24127619D01*
X21123809Y-24127619D02*
X20980952Y-24175238D01*
X20980952Y-24175238D02*
X20885714Y-24270476D01*
X20885714Y-24270476D02*
X20838095Y-24365714D01*
X20838095Y-24365714D02*
X20790476Y-24556190D01*
X20790476Y-24556190D02*
X20790476Y-24699047D01*
X20790476Y-24699047D02*
X20838095Y-24889523D01*
X20838095Y-24889523D02*
X20885714Y-24984761D01*
X20885714Y-24984761D02*
X20980952Y-25080000D01*
X20980952Y-25080000D02*
X21123809Y-25127619D01*
X21123809Y-25127619D02*
X21219047Y-25127619D01*
X21219047Y-25127619D02*
X21361904Y-25080000D01*
X21361904Y-25080000D02*
X21409523Y-25032380D01*
X21409523Y-25032380D02*
X21409523Y-24699047D01*
X21409523Y-24699047D02*
X21219047Y-24699047D01*
X21838095Y-25127619D02*
X21838095Y-24127619D01*
X21838095Y-24127619D02*
X22409523Y-25127619D01*
X22409523Y-25127619D02*
X22409523Y-24127619D01*
X22885714Y-25127619D02*
X22885714Y-24127619D01*
X22885714Y-24127619D02*
X23123809Y-24127619D01*
X23123809Y-24127619D02*
X23266666Y-24175238D01*
X23266666Y-24175238D02*
X23361904Y-24270476D01*
X23361904Y-24270476D02*
X23409523Y-24365714D01*
X23409523Y-24365714D02*
X23457142Y-24556190D01*
X23457142Y-24556190D02*
X23457142Y-24699047D01*
X23457142Y-24699047D02*
X23409523Y-24889523D01*
X23409523Y-24889523D02*
X23361904Y-24984761D01*
X23361904Y-24984761D02*
X23266666Y-25080000D01*
X23266666Y-25080000D02*
X23123809Y-25127619D01*
X23123809Y-25127619D02*
X22885714Y-25127619D01*
G36*
X55131787Y-42253073D02*
G01*
X55163037Y-42253440D01*
X55193260Y-42254050D01*
X55222457Y-42254905D01*
X55250627Y-42256004D01*
X55277770Y-42257348D01*
X55303887Y-42258935D01*
X55328977Y-42260767D01*
X55353041Y-42262843D01*
X55376078Y-42265163D01*
X55398088Y-42267728D01*
X55419072Y-42270537D01*
X55439030Y-42273590D01*
X55467041Y-42278627D01*
X55492742Y-42284214D01*
X55517105Y-42290922D01*
X55540919Y-42299321D01*
X55564183Y-42309412D01*
X55586898Y-42321194D01*
X55609063Y-42334668D01*
X55630678Y-42349834D01*
X55651744Y-42366691D01*
X55672260Y-42385239D01*
X55692227Y-42405480D01*
X55711645Y-42427411D01*
X55724284Y-42442972D01*
X55736470Y-42459022D01*
X55747869Y-42475418D01*
X55758482Y-42492162D01*
X55768309Y-42509254D01*
X55777350Y-42526692D01*
X55785604Y-42544478D01*
X55793073Y-42562611D01*
X55799755Y-42581092D01*
X55805651Y-42599919D01*
X55810761Y-42619094D01*
X55815085Y-42638617D01*
X55818623Y-42658486D01*
X55821375Y-42678703D01*
X55823340Y-42699267D01*
X55824519Y-42720178D01*
X55824912Y-42741437D01*
X55824384Y-42766031D01*
X55822800Y-42790169D01*
X55820160Y-42813853D01*
X55816463Y-42837081D01*
X55811710Y-42859854D01*
X55805901Y-42882172D01*
X55799036Y-42904036D01*
X55791115Y-42925443D01*
X55782138Y-42946396D01*
X55772104Y-42966894D01*
X55764829Y-42980307D01*
X55753165Y-42999727D01*
X55740523Y-43018237D01*
X55726901Y-43035836D01*
X55712301Y-43052526D01*
X55696722Y-43068306D01*
X55680164Y-43083175D01*
X55662627Y-43097134D01*
X55644112Y-43110183D01*
X55624617Y-43122321D01*
X55604143Y-43133550D01*
X55589951Y-43140530D01*
X55609568Y-43147712D01*
X55628610Y-43155459D01*
X55647075Y-43163771D01*
X55664964Y-43172648D01*
X55682276Y-43182089D01*
X55707165Y-43197311D01*
X55730757Y-43213803D01*
X55753052Y-43231566D01*
X55774051Y-43250599D01*
X55793753Y-43270904D01*
X55812158Y-43292479D01*
X55829267Y-43315326D01*
X55834682Y-43323224D01*
X55850046Y-43347451D01*
X55863900Y-43372322D01*
X55876241Y-43397837D01*
X55887072Y-43423997D01*
X55896391Y-43450800D01*
X55904200Y-43478247D01*
X55910496Y-43506338D01*
X55915282Y-43535074D01*
X55917633Y-43554588D01*
X55919312Y-43574389D01*
X55920320Y-43594476D01*
X55920655Y-43614849D01*
X55920093Y-43641275D01*
X55918406Y-43667245D01*
X55915594Y-43692761D01*
X55911657Y-43717821D01*
X55906595Y-43742426D01*
X55900408Y-43766576D01*
X55893097Y-43790271D01*
X55884660Y-43813510D01*
X55875099Y-43836295D01*
X55864413Y-43858625D01*
X55856664Y-43873258D01*
X55844296Y-43894506D01*
X55831190Y-43914835D01*
X55817346Y-43934245D01*
X55802762Y-43952737D01*
X55787441Y-43970309D01*
X55771381Y-43986963D01*
X55754583Y-44002698D01*
X55737046Y-44017514D01*
X55718771Y-44031412D01*
X55699757Y-44044391D01*
X55686671Y-44052533D01*
X55666711Y-44064075D01*
X55646399Y-44074887D01*
X55625736Y-44084969D01*
X55604720Y-44094321D01*
X55583352Y-44102944D01*
X55561632Y-44110836D01*
X55539560Y-44117999D01*
X55517136Y-44124432D01*
X55494360Y-44130135D01*
X55471231Y-44135108D01*
X55455617Y-44138018D01*
X55431271Y-44141946D01*
X55405311Y-44145488D01*
X55377736Y-44148644D01*
X55348547Y-44151413D01*
X55328191Y-44153044D01*
X55307117Y-44154504D01*
X55285326Y-44155792D01*
X55262818Y-44156908D01*
X55239592Y-44157853D01*
X55215648Y-44158626D01*
X55190988Y-44159227D01*
X55165609Y-44159656D01*
X55139513Y-44159914D01*
X55112700Y-44160000D01*
X54463014Y-44160000D01*
X54463014Y-43909895D01*
X54697976Y-43909895D01*
X54697976Y-43284633D01*
X54986671Y-43284633D01*
X54986671Y-43909895D01*
X55095115Y-43909895D01*
X55121291Y-43909815D01*
X55146574Y-43909574D01*
X55170963Y-43909174D01*
X55194460Y-43908613D01*
X55217064Y-43907891D01*
X55238775Y-43907010D01*
X55259593Y-43905968D01*
X55279518Y-43904766D01*
X55307731Y-43902662D01*
X55333935Y-43900198D01*
X55358129Y-43897373D01*
X55380314Y-43894187D01*
X55400490Y-43890641D01*
X55406769Y-43889378D01*
X55430987Y-43883249D01*
X55454060Y-43875365D01*
X55475988Y-43865725D01*
X55496772Y-43854330D01*
X55516411Y-43841179D01*
X55534904Y-43826272D01*
X55552253Y-43809610D01*
X55568457Y-43791193D01*
X55583112Y-43771218D01*
X55595812Y-43749885D01*
X55606559Y-43727194D01*
X55615352Y-43703143D01*
X55620664Y-43684214D01*
X55624877Y-43664520D01*
X55627991Y-43644063D01*
X55630006Y-43622841D01*
X55630922Y-43600855D01*
X55630983Y-43593356D01*
X55630455Y-43573062D01*
X55628871Y-43553394D01*
X55625116Y-43528145D01*
X55619483Y-43504011D01*
X55611973Y-43480991D01*
X55602584Y-43459085D01*
X55591319Y-43438294D01*
X55578175Y-43418618D01*
X55570900Y-43409197D01*
X55555459Y-43391291D01*
X55538934Y-43374942D01*
X55521326Y-43360150D01*
X55502634Y-43346915D01*
X55482858Y-43335237D01*
X55461998Y-43325116D01*
X55440054Y-43316553D01*
X55417027Y-43309546D01*
X55392358Y-43303707D01*
X55372254Y-43299839D01*
X55350776Y-43296408D01*
X55327924Y-43293416D01*
X55303698Y-43290861D01*
X55278098Y-43288745D01*
X55251125Y-43287066D01*
X55222777Y-43285825D01*
X55203116Y-43285241D01*
X55182844Y-43284852D01*
X55161961Y-43284657D01*
X55151290Y-43284633D01*
X54986671Y-43284633D01*
X54697976Y-43284633D01*
X54697976Y-42503056D01*
X54986671Y-42503056D01*
X54986671Y-43034528D01*
X55166434Y-43034528D01*
X55191715Y-43034259D01*
X55216022Y-43033452D01*
X55239357Y-43032107D01*
X55261719Y-43030224D01*
X55283107Y-43027802D01*
X55303522Y-43024843D01*
X55322965Y-43021345D01*
X55350303Y-43015090D01*
X55375452Y-43007624D01*
X55398411Y-42998947D01*
X55419181Y-42989059D01*
X55437761Y-42977961D01*
X55454152Y-42965652D01*
X55468818Y-42952167D01*
X55482041Y-42937539D01*
X55493822Y-42921770D01*
X55504160Y-42904858D01*
X55513056Y-42886805D01*
X55520509Y-42867609D01*
X55526520Y-42847272D01*
X55531088Y-42825792D01*
X55534214Y-42803171D01*
X55535897Y-42779407D01*
X55536217Y-42762930D01*
X55534773Y-42731461D01*
X55530439Y-42702022D01*
X55523217Y-42674614D01*
X55513106Y-42649235D01*
X55500106Y-42625887D01*
X55484216Y-42604569D01*
X55465438Y-42585282D01*
X55443771Y-42568025D01*
X55419215Y-42552798D01*
X55391770Y-42539601D01*
X55361437Y-42528434D01*
X55328214Y-42519298D01*
X55292102Y-42512192D01*
X55253102Y-42507117D01*
X55232518Y-42505340D01*
X55211212Y-42504071D01*
X55189184Y-42503310D01*
X55166434Y-42503056D01*
X54986671Y-42503056D01*
X54697976Y-42503056D01*
X54463014Y-42503056D01*
X54463014Y-42252951D01*
X55099511Y-42252951D01*
X55131787Y-42253073D01*
G37*
G36*
X57588346Y-43909895D02*
G01*
X57588346Y-44160000D01*
X57097906Y-44160000D01*
X57097906Y-44007592D01*
X57069284Y-44029833D01*
X57040814Y-44050640D01*
X57012497Y-44070011D01*
X56984333Y-44087948D01*
X56956321Y-44104450D01*
X56928463Y-44119516D01*
X56900756Y-44133148D01*
X56873203Y-44145345D01*
X56845802Y-44156107D01*
X56818553Y-44165434D01*
X56791458Y-44173326D01*
X56764515Y-44179783D01*
X56737724Y-44184805D01*
X56711086Y-44188393D01*
X56684601Y-44190545D01*
X56658269Y-44191263D01*
X56633668Y-44190747D01*
X56609874Y-44189202D01*
X56586888Y-44186626D01*
X56564709Y-44183019D01*
X56543336Y-44178383D01*
X56522771Y-44172715D01*
X56503013Y-44166018D01*
X56484063Y-44158290D01*
X56465919Y-44149531D01*
X56448583Y-44139743D01*
X56437473Y-44132644D01*
X56416530Y-44117448D01*
X56397418Y-44101168D01*
X56380137Y-44083803D01*
X56364689Y-44065355D01*
X56351072Y-44045824D01*
X56339288Y-44025208D01*
X56329335Y-44003509D01*
X56321214Y-43980725D01*
X56314459Y-43955622D01*
X56309984Y-43934460D01*
X56306015Y-43911297D01*
X56302553Y-43886134D01*
X56299598Y-43858970D01*
X56297150Y-43829806D01*
X56295799Y-43809251D01*
X56294673Y-43787807D01*
X56293772Y-43765474D01*
X56293097Y-43742252D01*
X56292646Y-43718141D01*
X56292421Y-43693140D01*
X56292393Y-43680307D01*
X56292393Y-43065792D01*
X56104326Y-43065792D01*
X56104326Y-42815687D01*
X56553733Y-42815687D01*
X56553733Y-43626573D01*
X56553806Y-43653296D01*
X56554025Y-43678328D01*
X56554390Y-43701668D01*
X56554901Y-43723316D01*
X56555558Y-43743273D01*
X56556661Y-43767251D01*
X56558023Y-43788221D01*
X56560091Y-43810206D01*
X56562037Y-43824410D01*
X56567166Y-43845794D01*
X56575287Y-43865496D01*
X56586400Y-43883515D01*
X56600505Y-43899850D01*
X56609909Y-43908429D01*
X56628415Y-43921182D01*
X56648885Y-43930802D01*
X56667993Y-43936555D01*
X56688544Y-43940007D01*
X56710537Y-43941158D01*
X56733288Y-43940496D01*
X56756233Y-43938509D01*
X56779373Y-43935199D01*
X56802708Y-43930564D01*
X56826237Y-43924605D01*
X56849961Y-43917321D01*
X56873880Y-43908714D01*
X56897993Y-43898782D01*
X56922301Y-43887526D01*
X56946804Y-43874945D01*
X56971501Y-43861041D01*
X56996393Y-43845812D01*
X57021479Y-43829258D01*
X57046760Y-43811381D01*
X57072236Y-43792179D01*
X57097906Y-43771653D01*
X57097906Y-43065792D01*
X56862944Y-43065792D01*
X56862944Y-42815687D01*
X57358757Y-42815687D01*
X57358757Y-43909895D01*
X57588346Y-43909895D01*
G37*
G36*
X57721702Y-44160000D02*
G01*
X57721702Y-43691053D01*
X57955198Y-43691053D01*
X57955198Y-43738925D01*
X57959442Y-43763769D01*
X57966067Y-43787499D01*
X57975074Y-43810114D01*
X57986461Y-43831615D01*
X58000231Y-43852002D01*
X58016381Y-43871274D01*
X58034913Y-43889432D01*
X58050375Y-43902319D01*
X58055826Y-43906475D01*
X58072779Y-43918261D01*
X58090299Y-43928887D01*
X58108385Y-43938353D01*
X58127038Y-43946661D01*
X58146258Y-43953809D01*
X58166045Y-43959799D01*
X58186398Y-43964629D01*
X58207318Y-43968299D01*
X58228805Y-43970811D01*
X58250858Y-43972163D01*
X58265875Y-43972421D01*
X58289147Y-43972005D01*
X58311516Y-43970755D01*
X58332984Y-43968673D01*
X58353551Y-43965758D01*
X58373216Y-43962010D01*
X58398033Y-43955717D01*
X58421248Y-43947943D01*
X58442859Y-43938688D01*
X58462868Y-43927953D01*
X58467620Y-43925038D01*
X58485366Y-43912620D01*
X58500745Y-43899057D01*
X58513759Y-43884349D01*
X58526699Y-43864354D01*
X58535941Y-43842570D01*
X58541487Y-43818997D01*
X58543261Y-43798851D01*
X58543335Y-43793635D01*
X58542358Y-43773920D01*
X58538389Y-43751187D01*
X58531367Y-43730577D01*
X58521292Y-43712089D01*
X58508164Y-43695724D01*
X58491983Y-43681482D01*
X58480809Y-43673956D01*
X58463254Y-43664415D01*
X58441852Y-43655088D01*
X58423276Y-43648233D01*
X58402537Y-43641499D01*
X58379633Y-43634884D01*
X58354566Y-43628390D01*
X58327335Y-43622016D01*
X58307979Y-43617833D01*
X58287661Y-43613704D01*
X58266381Y-43609628D01*
X58244140Y-43605605D01*
X58232658Y-43603614D01*
X58198955Y-43597291D01*
X58166476Y-43590532D01*
X58135223Y-43583338D01*
X58105194Y-43575710D01*
X58076391Y-43567646D01*
X58048812Y-43559147D01*
X58022459Y-43550213D01*
X57997330Y-43540844D01*
X57973427Y-43531040D01*
X57950749Y-43520801D01*
X57929295Y-43510127D01*
X57909067Y-43499017D01*
X57890064Y-43487473D01*
X57872286Y-43475494D01*
X57855732Y-43463079D01*
X57840404Y-43450230D01*
X57819453Y-43429997D01*
X57800562Y-43408682D01*
X57783732Y-43386285D01*
X57768963Y-43362806D01*
X57756255Y-43338245D01*
X57745607Y-43312603D01*
X57737021Y-43285878D01*
X57730495Y-43258072D01*
X57726030Y-43229183D01*
X57724198Y-43209323D01*
X57723282Y-43188982D01*
X57723168Y-43178632D01*
X57723666Y-43157842D01*
X57725160Y-43137484D01*
X57727650Y-43117558D01*
X57731136Y-43098062D01*
X57735618Y-43078998D01*
X57744209Y-43051210D01*
X57755041Y-43024392D01*
X57768115Y-42998545D01*
X57783429Y-42973668D01*
X57794883Y-42957622D01*
X57807334Y-42942008D01*
X57820781Y-42926825D01*
X57835224Y-42912073D01*
X57850662Y-42897752D01*
X57866975Y-42884029D01*
X57883918Y-42871191D01*
X57901490Y-42859238D01*
X57919692Y-42848171D01*
X57938523Y-42837989D01*
X57957984Y-42828693D01*
X57978075Y-42820282D01*
X57998796Y-42812756D01*
X58020146Y-42806116D01*
X58042126Y-42800361D01*
X58064736Y-42795491D01*
X58087975Y-42791507D01*
X58111844Y-42788408D01*
X58136343Y-42786195D01*
X58161471Y-42784866D01*
X58187229Y-42784424D01*
X58210592Y-42784767D01*
X58233544Y-42785798D01*
X58256083Y-42787515D01*
X58278210Y-42789919D01*
X58299924Y-42793010D01*
X58321227Y-42796789D01*
X58342117Y-42801254D01*
X58362595Y-42806406D01*
X58382662Y-42812245D01*
X58402315Y-42818770D01*
X58421557Y-42825983D01*
X58440387Y-42833883D01*
X58458804Y-42842470D01*
X58476810Y-42851743D01*
X58494403Y-42861704D01*
X58511584Y-42872351D01*
X58511584Y-42815687D01*
X58744103Y-42815687D01*
X58744103Y-43253370D01*
X58511584Y-43253370D01*
X58511584Y-43170327D01*
X58498017Y-43150097D01*
X58483694Y-43131172D01*
X58468616Y-43113552D01*
X58452782Y-43097238D01*
X58436193Y-43082228D01*
X58418848Y-43068524D01*
X58400747Y-43056125D01*
X58381891Y-43045031D01*
X58362279Y-43035242D01*
X58341911Y-43026758D01*
X58320788Y-43019580D01*
X58298909Y-43013707D01*
X58276275Y-43009139D01*
X58252885Y-43005876D01*
X58228739Y-43003918D01*
X58203838Y-43003265D01*
X58178749Y-43003983D01*
X58154775Y-43006135D01*
X58131916Y-43009723D01*
X58110170Y-43014745D01*
X58089540Y-43021202D01*
X58070023Y-43029094D01*
X58051621Y-43038421D01*
X58034333Y-43049183D01*
X58018763Y-43061014D01*
X58002219Y-43077133D01*
X57988919Y-43094731D01*
X57978863Y-43113807D01*
X57972051Y-43134363D01*
X57968483Y-43156397D01*
X57967899Y-43170327D01*
X57969390Y-43193125D01*
X57973862Y-43213585D01*
X57981316Y-43231708D01*
X57994196Y-43250369D01*
X58011369Y-43265665D01*
X58028960Y-43275840D01*
X58051476Y-43285014D01*
X58074435Y-43292593D01*
X58094539Y-43298418D01*
X58117116Y-43304362D01*
X58142166Y-43310427D01*
X58169689Y-43316613D01*
X58189412Y-43320803D01*
X58210234Y-43325047D01*
X58232155Y-43329344D01*
X58255174Y-43333694D01*
X58279293Y-43338098D01*
X58291765Y-43340321D01*
X58315634Y-43344564D01*
X58338759Y-43348869D01*
X58361140Y-43353235D01*
X58382776Y-43357662D01*
X58403668Y-43362150D01*
X58423816Y-43366699D01*
X58443220Y-43371309D01*
X58470931Y-43378338D01*
X58496967Y-43385505D01*
X58521329Y-43392810D01*
X58544016Y-43400252D01*
X58565029Y-43407831D01*
X58584368Y-43415547D01*
X58602660Y-43423813D01*
X58620352Y-43433041D01*
X58637442Y-43443231D01*
X58653931Y-43454382D01*
X58669820Y-43466495D01*
X58685107Y-43479569D01*
X58699793Y-43493606D01*
X58713878Y-43508604D01*
X58727362Y-43524564D01*
X58740245Y-43541485D01*
X58748499Y-43553300D01*
X58760197Y-43571623D01*
X58770744Y-43590503D01*
X58780141Y-43609942D01*
X58788387Y-43629939D01*
X58795483Y-43650494D01*
X58801427Y-43671607D01*
X58806222Y-43693279D01*
X58809865Y-43715508D01*
X58812358Y-43738296D01*
X58813701Y-43761641D01*
X58813956Y-43777515D01*
X58813401Y-43800963D01*
X58811735Y-43823799D01*
X58808959Y-43846025D01*
X58805072Y-43867641D01*
X58800074Y-43888646D01*
X58793966Y-43909040D01*
X58786748Y-43928824D01*
X58778419Y-43947997D01*
X58768979Y-43966559D01*
X58758429Y-43984511D01*
X58746768Y-44001852D01*
X58733997Y-44018583D01*
X58720115Y-44034703D01*
X58705123Y-44050212D01*
X58689020Y-44065111D01*
X58671807Y-44079399D01*
X58653708Y-44092945D01*
X58634949Y-44105617D01*
X58615530Y-44117415D01*
X58595450Y-44128340D01*
X58574711Y-44138390D01*
X58553311Y-44147566D01*
X58531251Y-44155868D01*
X58508531Y-44163297D01*
X58485150Y-44169851D01*
X58461109Y-44175532D01*
X58436408Y-44180338D01*
X58411047Y-44184271D01*
X58385026Y-44187330D01*
X58358344Y-44189515D01*
X58331002Y-44190826D01*
X58303000Y-44191263D01*
X58276683Y-44190850D01*
X58250976Y-44189614D01*
X58225881Y-44187553D01*
X58201395Y-44184668D01*
X58177520Y-44180959D01*
X58154256Y-44176425D01*
X58131603Y-44171067D01*
X58109560Y-44164884D01*
X58088128Y-44157878D01*
X58067306Y-44150047D01*
X58047095Y-44141391D01*
X58027494Y-44131912D01*
X58008504Y-44121608D01*
X57990125Y-44110479D01*
X57972356Y-44098527D01*
X57955198Y-44085750D01*
X57955198Y-44160000D01*
X57721702Y-44160000D01*
G37*
G36*
X60642847Y-43378422D02*
G01*
X60891486Y-43517152D01*
X60886068Y-43537070D01*
X60880316Y-43556706D01*
X60874230Y-43576061D01*
X60867810Y-43595134D01*
X60861056Y-43613926D01*
X60853968Y-43632437D01*
X60846546Y-43650666D01*
X60838790Y-43668613D01*
X60822277Y-43703664D01*
X60804429Y-43737589D01*
X60785244Y-43770388D01*
X60764724Y-43802062D01*
X60742868Y-43832609D01*
X60719676Y-43862031D01*
X60695149Y-43890327D01*
X60669286Y-43917497D01*
X60642087Y-43943541D01*
X60613553Y-43968460D01*
X60583683Y-43992252D01*
X60552477Y-44014919D01*
X60520365Y-44036273D01*
X60487653Y-44056250D01*
X60454343Y-44074848D01*
X60420433Y-44092069D01*
X60385924Y-44107913D01*
X60350816Y-44122378D01*
X60315109Y-44135466D01*
X60278803Y-44147177D01*
X60241897Y-44157509D01*
X60204393Y-44166464D01*
X60166289Y-44174042D01*
X60147012Y-44177314D01*
X60127586Y-44180241D01*
X60108010Y-44182824D01*
X60088284Y-44185063D01*
X60068408Y-44186957D01*
X60048382Y-44188507D01*
X60028207Y-44189713D01*
X60007882Y-44190574D01*
X59987407Y-44191090D01*
X59966782Y-44191263D01*
X59939809Y-44190988D01*
X59913171Y-44190163D01*
X59886869Y-44188790D01*
X59860903Y-44186866D01*
X59835273Y-44184393D01*
X59809979Y-44181371D01*
X59785020Y-44177799D01*
X59760397Y-44173677D01*
X59736110Y-44169006D01*
X59712159Y-44163785D01*
X59688544Y-44158015D01*
X59665265Y-44151695D01*
X59642321Y-44144826D01*
X59619713Y-44137407D01*
X59597441Y-44129439D01*
X59575505Y-44120921D01*
X59553905Y-44111853D01*
X59532641Y-44102236D01*
X59511712Y-44092069D01*
X59491120Y-44081353D01*
X59470863Y-44070088D01*
X59450942Y-44058272D01*
X59431356Y-44045908D01*
X59412107Y-44032993D01*
X59393193Y-44019529D01*
X59374616Y-44005516D01*
X59356374Y-43990953D01*
X59338468Y-43975840D01*
X59320898Y-43960178D01*
X59303663Y-43943967D01*
X59286765Y-43927206D01*
X59270202Y-43909895D01*
X59254063Y-43892179D01*
X59238437Y-43874203D01*
X59223323Y-43855966D01*
X59208721Y-43837469D01*
X59194632Y-43818712D01*
X59181055Y-43799694D01*
X59167991Y-43780415D01*
X59155438Y-43760876D01*
X59143398Y-43741077D01*
X59131871Y-43721017D01*
X59120855Y-43700697D01*
X59110353Y-43680116D01*
X59100362Y-43659274D01*
X59090884Y-43638173D01*
X59081918Y-43616811D01*
X59073464Y-43595188D01*
X59065523Y-43573305D01*
X59058094Y-43551161D01*
X59051178Y-43528757D01*
X59044773Y-43506093D01*
X59038881Y-43483168D01*
X59033502Y-43459982D01*
X59028635Y-43436536D01*
X59024280Y-43412830D01*
X59020437Y-43388863D01*
X59017107Y-43364636D01*
X59014289Y-43340148D01*
X59011984Y-43315400D01*
X59010191Y-43290391D01*
X59008910Y-43265122D01*
X59008141Y-43239593D01*
X59007885Y-43213803D01*
X59008143Y-43185591D01*
X59008915Y-43157741D01*
X59010203Y-43130254D01*
X59012007Y-43103130D01*
X59014325Y-43076368D01*
X59017159Y-43049969D01*
X59020507Y-43023933D01*
X59024371Y-42998258D01*
X59028751Y-42972947D01*
X59033645Y-42947998D01*
X59039055Y-42923411D01*
X59044979Y-42899187D01*
X59051419Y-42875326D01*
X59058375Y-42851827D01*
X59065845Y-42828691D01*
X59073831Y-42805917D01*
X59082331Y-42783506D01*
X59091347Y-42761457D01*
X59100879Y-42739771D01*
X59110925Y-42718448D01*
X59121487Y-42697487D01*
X59132563Y-42676888D01*
X59144155Y-42656652D01*
X59156263Y-42636779D01*
X59168885Y-42617268D01*
X59182023Y-42598120D01*
X59195675Y-42579334D01*
X59209843Y-42560911D01*
X59224527Y-42542850D01*
X59239725Y-42525152D01*
X59255439Y-42507817D01*
X59271667Y-42490844D01*
X59288311Y-42474285D01*
X59305268Y-42458251D01*
X59322539Y-42442743D01*
X59340124Y-42427761D01*
X59358023Y-42413304D01*
X59376236Y-42399373D01*
X59394762Y-42385968D01*
X59413603Y-42373088D01*
X59432757Y-42360734D01*
X59452226Y-42348906D01*
X59472008Y-42337604D01*
X59492104Y-42326827D01*
X59512514Y-42316576D01*
X59533238Y-42306851D01*
X59554276Y-42297651D01*
X59575628Y-42288977D01*
X59597293Y-42280829D01*
X59619273Y-42273206D01*
X59641566Y-42266109D01*
X59664173Y-42259538D01*
X59687094Y-42253493D01*
X59710329Y-42247973D01*
X59733878Y-42242979D01*
X59757741Y-42238510D01*
X59781918Y-42234568D01*
X59806408Y-42231151D01*
X59831213Y-42228259D01*
X59856331Y-42225894D01*
X59881764Y-42224054D01*
X59907510Y-42222740D01*
X59933570Y-42221951D01*
X59959944Y-42221688D01*
X59983274Y-42221888D01*
X60006371Y-42222488D01*
X60029234Y-42223487D01*
X60051863Y-42224886D01*
X60074258Y-42226685D01*
X60096420Y-42228884D01*
X60118348Y-42231482D01*
X60140042Y-42234480D01*
X60161503Y-42237878D01*
X60182729Y-42241676D01*
X60203722Y-42245874D01*
X60224482Y-42250471D01*
X60245007Y-42255468D01*
X60265299Y-42260864D01*
X60285357Y-42266661D01*
X60305181Y-42272857D01*
X60324771Y-42279453D01*
X60344128Y-42286449D01*
X60363251Y-42293844D01*
X60382140Y-42301640D01*
X60400796Y-42309835D01*
X60419218Y-42318429D01*
X60437406Y-42327424D01*
X60455360Y-42336818D01*
X60473080Y-42346612D01*
X60490567Y-42356806D01*
X60507820Y-42367400D01*
X60524839Y-42378393D01*
X60541625Y-42389786D01*
X60558176Y-42401579D01*
X60574494Y-42413771D01*
X60590579Y-42426364D01*
X60590579Y-42252951D01*
X60837752Y-42252951D01*
X60837752Y-42878213D01*
X60590579Y-42878213D01*
X60579910Y-42854315D01*
X60568543Y-42831105D01*
X60556478Y-42808581D01*
X60543715Y-42786744D01*
X60530253Y-42765594D01*
X60516092Y-42745131D01*
X60501234Y-42725355D01*
X60485676Y-42706266D01*
X60469421Y-42687864D01*
X60452467Y-42670149D01*
X60434815Y-42653120D01*
X60416464Y-42636779D01*
X60397415Y-42621125D01*
X60377668Y-42606157D01*
X60357222Y-42591876D01*
X60336078Y-42578283D01*
X60314575Y-42565388D01*
X60292931Y-42553324D01*
X60271145Y-42542093D01*
X60249219Y-42531693D01*
X60227151Y-42522126D01*
X60204942Y-42513391D01*
X60182592Y-42505487D01*
X60160101Y-42498415D01*
X60137468Y-42492176D01*
X60114694Y-42486768D01*
X60091779Y-42482192D01*
X60068723Y-42478449D01*
X60045526Y-42475537D01*
X60022187Y-42473457D01*
X59998708Y-42472209D01*
X59975087Y-42471793D01*
X59939765Y-42472604D01*
X59905241Y-42475037D01*
X59871514Y-42479092D01*
X59838586Y-42484768D01*
X59806454Y-42492067D01*
X59775121Y-42500988D01*
X59744584Y-42511530D01*
X59714846Y-42523695D01*
X59685905Y-42537481D01*
X59657762Y-42552889D01*
X59630416Y-42569919D01*
X59603868Y-42588572D01*
X59578118Y-42608846D01*
X59553165Y-42630742D01*
X59529010Y-42654260D01*
X59505652Y-42679399D01*
X59483470Y-42705776D01*
X59462719Y-42733003D01*
X59443399Y-42761081D01*
X59425510Y-42790011D01*
X59409052Y-42819791D01*
X59394025Y-42850423D01*
X59380430Y-42881905D01*
X59368265Y-42914239D01*
X59357532Y-42947423D01*
X59348230Y-42981459D01*
X59340359Y-43016346D01*
X59333919Y-43052083D01*
X59328910Y-43088672D01*
X59325332Y-43126112D01*
X59323185Y-43164403D01*
X59322470Y-43203545D01*
X59322662Y-43223761D01*
X59323237Y-43243745D01*
X59324196Y-43263497D01*
X59325538Y-43283015D01*
X59329374Y-43321354D01*
X59334743Y-43358761D01*
X59341647Y-43395237D01*
X59350085Y-43430782D01*
X59360057Y-43465396D01*
X59371563Y-43499078D01*
X59384603Y-43531830D01*
X59399177Y-43563650D01*
X59415286Y-43594539D01*
X59432929Y-43624497D01*
X59452106Y-43653524D01*
X59472817Y-43681619D01*
X59495062Y-43708784D01*
X59518841Y-43735017D01*
X59543674Y-43759979D01*
X59569079Y-43783331D01*
X59595056Y-43805073D01*
X59621606Y-43825204D01*
X59648729Y-43843724D01*
X59676424Y-43860634D01*
X59704691Y-43875934D01*
X59733531Y-43889623D01*
X59762943Y-43901701D01*
X59792927Y-43912169D01*
X59823484Y-43921027D01*
X59854614Y-43928274D01*
X59886316Y-43933911D01*
X59918590Y-43937937D01*
X59951437Y-43940353D01*
X59984856Y-43941158D01*
X60012360Y-43940587D01*
X60039552Y-43938876D01*
X60066430Y-43936023D01*
X60092995Y-43932029D01*
X60119247Y-43926895D01*
X60145187Y-43920619D01*
X60170813Y-43913202D01*
X60196127Y-43904644D01*
X60221127Y-43894944D01*
X60245815Y-43884104D01*
X60270189Y-43872123D01*
X60294251Y-43859001D01*
X60318000Y-43844737D01*
X60341436Y-43829333D01*
X60364559Y-43812787D01*
X60387369Y-43795101D01*
X60409604Y-43776357D01*
X60431004Y-43756640D01*
X60451568Y-43735950D01*
X60471297Y-43714287D01*
X60490189Y-43691650D01*
X60508246Y-43668041D01*
X60525467Y-43643458D01*
X60541852Y-43617903D01*
X60557402Y-43591374D01*
X60572115Y-43563871D01*
X60585993Y-43535396D01*
X60599036Y-43505948D01*
X60611242Y-43475526D01*
X60622613Y-43444131D01*
X60633148Y-43411763D01*
X60642847Y-43378422D01*
G37*
G36*
X61312072Y-43909895D02*
G01*
X61312072Y-42503056D01*
X61071737Y-42503056D01*
X61071737Y-42252951D01*
X61573412Y-42252951D01*
X61573412Y-42973956D01*
X61602691Y-42951005D01*
X61631786Y-42929535D01*
X61660698Y-42909545D01*
X61689427Y-42891036D01*
X61717973Y-42874007D01*
X61746336Y-42858460D01*
X61774515Y-42844393D01*
X61802512Y-42831807D01*
X61830325Y-42820701D01*
X61857955Y-42811077D01*
X61885402Y-42802933D01*
X61912665Y-42796270D01*
X61939746Y-42791087D01*
X61966643Y-42787385D01*
X61993357Y-42785164D01*
X62019888Y-42784424D01*
X62044205Y-42784905D01*
X62067698Y-42786347D01*
X62090367Y-42788751D01*
X62112212Y-42792117D01*
X62133232Y-42796445D01*
X62153428Y-42801734D01*
X62172799Y-42807986D01*
X62191346Y-42815198D01*
X62214794Y-42826311D01*
X62236775Y-42839134D01*
X62257177Y-42853239D01*
X62275885Y-42868443D01*
X62292898Y-42884747D01*
X62308217Y-42902149D01*
X62321841Y-42920650D01*
X62333770Y-42940251D01*
X62344006Y-42960950D01*
X62352547Y-42982749D01*
X62359874Y-43006379D01*
X62364728Y-43025785D01*
X62369033Y-43046634D01*
X62372788Y-43068925D01*
X62375994Y-43092658D01*
X62378650Y-43117834D01*
X62380757Y-43144453D01*
X62382314Y-43172514D01*
X62383321Y-43202018D01*
X62383688Y-43222489D01*
X62383810Y-43243600D01*
X62383810Y-43909895D01*
X62610467Y-43909895D01*
X62610467Y-44160000D01*
X62122958Y-44160000D01*
X62122958Y-43351556D01*
X62122872Y-43324226D01*
X62122615Y-43298656D01*
X62122186Y-43274847D01*
X62121584Y-43252798D01*
X62120812Y-43232509D01*
X62119514Y-43208195D01*
X62117911Y-43187011D01*
X62115478Y-43164931D01*
X62113189Y-43150788D01*
X62107492Y-43129427D01*
X62098523Y-43109795D01*
X62086281Y-43091894D01*
X62070767Y-43075722D01*
X62060432Y-43067257D01*
X62043597Y-43056134D01*
X62025696Y-43047313D01*
X62006731Y-43040793D01*
X61986701Y-43036574D01*
X61965607Y-43034656D01*
X61958339Y-43034528D01*
X61929224Y-43035997D01*
X61909013Y-43038607D01*
X61888161Y-43042523D01*
X61866667Y-43047743D01*
X61844533Y-43054269D01*
X61821757Y-43062100D01*
X61798341Y-43071236D01*
X61774283Y-43081678D01*
X61749584Y-43093424D01*
X61724243Y-43106476D01*
X61698262Y-43120833D01*
X61671640Y-43136495D01*
X61644376Y-43153462D01*
X61616471Y-43171735D01*
X61587925Y-43191312D01*
X61573412Y-43201591D01*
X61573412Y-43909895D01*
X61803977Y-43909895D01*
X61803977Y-44160000D01*
X61071737Y-44160000D01*
X61071737Y-43909895D01*
X61312072Y-43909895D01*
G37*
G36*
X63367451Y-42784780D02*
G01*
X63394422Y-42785849D01*
X63420688Y-42787631D01*
X63446251Y-42790125D01*
X63471109Y-42793332D01*
X63495263Y-42797252D01*
X63518714Y-42801885D01*
X63541460Y-42807230D01*
X63563502Y-42813288D01*
X63584840Y-42820058D01*
X63598674Y-42824968D01*
X63618696Y-42832685D01*
X63637731Y-42840813D01*
X63655779Y-42849354D01*
X63678307Y-42861383D01*
X63699079Y-42874145D01*
X63718095Y-42887639D01*
X63735357Y-42901866D01*
X63750862Y-42916826D01*
X63761339Y-42928527D01*
X63774223Y-42944449D01*
X63786008Y-42960706D01*
X63796693Y-42977299D01*
X63808505Y-42998513D01*
X63818599Y-43020252D01*
X63826976Y-43042515D01*
X63833635Y-43065303D01*
X63837986Y-43084988D01*
X63841756Y-43107404D01*
X63844947Y-43132554D01*
X63846959Y-43153209D01*
X63848645Y-43175401D01*
X63850004Y-43199130D01*
X63851038Y-43224397D01*
X63851745Y-43251200D01*
X63852125Y-43279540D01*
X63852198Y-43299288D01*
X63852198Y-43909895D01*
X64075924Y-43909895D01*
X64075924Y-44160000D01*
X63619678Y-44160000D01*
X63619678Y-43997822D01*
X63595815Y-44021247D01*
X63571608Y-44043160D01*
X63547058Y-44063562D01*
X63522165Y-44082452D01*
X63496927Y-44099832D01*
X63471347Y-44115700D01*
X63445423Y-44130057D01*
X63419155Y-44142903D01*
X63392544Y-44154237D01*
X63365590Y-44164060D01*
X63338292Y-44172372D01*
X63310650Y-44179173D01*
X63282665Y-44184462D01*
X63254337Y-44188240D01*
X63225665Y-44190507D01*
X63196650Y-44191263D01*
X63174122Y-44190787D01*
X63151969Y-44189362D01*
X63130189Y-44186986D01*
X63108784Y-44183661D01*
X63087752Y-44179384D01*
X63067094Y-44174158D01*
X63046811Y-44167981D01*
X63026901Y-44160854D01*
X63007365Y-44152777D01*
X62988204Y-44143750D01*
X62969416Y-44133772D01*
X62951003Y-44122844D01*
X62932963Y-44110966D01*
X62915297Y-44098137D01*
X62898006Y-44084359D01*
X62881088Y-44069630D01*
X62864880Y-44054160D01*
X62849718Y-44038160D01*
X62835602Y-44021630D01*
X62822531Y-44004569D01*
X62810506Y-43986978D01*
X62799526Y-43968857D01*
X62789592Y-43950204D01*
X62780704Y-43931022D01*
X62772862Y-43911309D01*
X62766065Y-43891065D01*
X62760314Y-43870291D01*
X62755608Y-43848987D01*
X62751949Y-43827152D01*
X62749334Y-43804786D01*
X62747766Y-43781891D01*
X62747243Y-43758464D01*
X62747277Y-43756999D01*
X62997348Y-43756999D01*
X62998348Y-43779378D01*
X63001347Y-43800840D01*
X63006347Y-43821387D01*
X63013346Y-43841018D01*
X63022344Y-43859733D01*
X63033343Y-43877533D01*
X63046341Y-43894416D01*
X63061339Y-43910383D01*
X63078055Y-43924923D01*
X63096205Y-43937525D01*
X63115790Y-43948188D01*
X63136810Y-43956912D01*
X63159265Y-43963697D01*
X63183155Y-43968544D01*
X63208480Y-43971452D01*
X63228416Y-43972360D01*
X63235240Y-43972421D01*
X63258852Y-43971816D01*
X63282303Y-43970001D01*
X63305594Y-43966977D01*
X63328724Y-43962743D01*
X63351694Y-43957299D01*
X63374504Y-43950645D01*
X63397154Y-43942782D01*
X63419644Y-43933709D01*
X63441973Y-43923425D01*
X63464142Y-43911933D01*
X63486150Y-43899230D01*
X63507998Y-43885318D01*
X63529686Y-43870196D01*
X63551214Y-43853864D01*
X63572582Y-43836322D01*
X63593789Y-43817571D01*
X63593789Y-43666629D01*
X63572645Y-43650658D01*
X63551466Y-43635717D01*
X63530253Y-43621807D01*
X63509006Y-43608927D01*
X63487724Y-43597077D01*
X63466408Y-43586258D01*
X63445058Y-43576469D01*
X63423674Y-43567711D01*
X63402255Y-43559983D01*
X63380801Y-43553285D01*
X63359314Y-43547618D01*
X63337792Y-43542981D01*
X63316235Y-43539375D01*
X63294645Y-43536799D01*
X63273020Y-43535253D01*
X63251360Y-43534738D01*
X63231340Y-43535283D01*
X63205622Y-43537706D01*
X63181019Y-43542068D01*
X63157530Y-43548369D01*
X63135155Y-43556609D01*
X63113894Y-43566787D01*
X63093748Y-43578903D01*
X63074716Y-43592959D01*
X63070132Y-43596775D01*
X63053073Y-43612850D01*
X63038289Y-43630054D01*
X63025779Y-43648387D01*
X63015544Y-43667850D01*
X63007583Y-43688443D01*
X63001897Y-43710165D01*
X62998485Y-43733017D01*
X62997348Y-43756999D01*
X62747277Y-43756999D01*
X62747798Y-43734845D01*
X62749464Y-43711738D01*
X62752240Y-43689141D01*
X62756127Y-43667056D01*
X62761125Y-43645483D01*
X62767233Y-43624421D01*
X62774451Y-43603870D01*
X62782780Y-43583831D01*
X62792220Y-43564303D01*
X62802770Y-43545286D01*
X62814431Y-43526781D01*
X62827202Y-43508787D01*
X62841084Y-43491305D01*
X62856076Y-43474334D01*
X62872179Y-43457874D01*
X62889392Y-43441926D01*
X62907390Y-43426664D01*
X62925846Y-43412387D01*
X62944759Y-43399095D01*
X62964131Y-43386788D01*
X62983960Y-43375465D01*
X63004248Y-43365126D01*
X63024993Y-43355773D01*
X63046196Y-43347404D01*
X63067858Y-43340019D01*
X63089977Y-43333619D01*
X63112554Y-43328204D01*
X63135589Y-43323773D01*
X63159082Y-43320327D01*
X63183033Y-43317865D01*
X63207442Y-43316389D01*
X63232309Y-43315896D01*
X63255646Y-43316337D01*
X63278883Y-43317659D01*
X63302022Y-43319863D01*
X63325061Y-43322949D01*
X63348000Y-43326916D01*
X63370841Y-43331764D01*
X63393582Y-43337495D01*
X63416224Y-43344106D01*
X63438767Y-43351600D01*
X63461211Y-43359974D01*
X63483555Y-43369231D01*
X63505800Y-43379369D01*
X63527946Y-43390388D01*
X63549993Y-43402289D01*
X63571940Y-43415072D01*
X63593789Y-43428736D01*
X63593789Y-43298799D01*
X63593483Y-43274375D01*
X63592568Y-43251416D01*
X63591041Y-43229923D01*
X63588904Y-43209895D01*
X63585374Y-43186921D01*
X63580890Y-43166236D01*
X63574249Y-43144438D01*
X63565285Y-43124482D01*
X63552680Y-43105283D01*
X63539394Y-43089860D01*
X63523580Y-43074962D01*
X63505238Y-43060589D01*
X63488744Y-43049468D01*
X63484368Y-43046741D01*
X63466096Y-43036551D01*
X63446449Y-43027720D01*
X63425429Y-43020248D01*
X63403035Y-43014134D01*
X63379267Y-43009379D01*
X63354125Y-43005983D01*
X63334368Y-43004327D01*
X63313837Y-43003435D01*
X63299720Y-43003265D01*
X63275598Y-43003876D01*
X63252322Y-43005708D01*
X63229894Y-43008761D01*
X63208312Y-43013035D01*
X63187579Y-43018531D01*
X63167692Y-43025247D01*
X63148652Y-43033185D01*
X63130460Y-43042344D01*
X63113115Y-43052725D01*
X63096617Y-43064326D01*
X63080967Y-43077149D01*
X63066163Y-43091193D01*
X63052207Y-43106458D01*
X63039098Y-43122944D01*
X63026836Y-43140652D01*
X63015422Y-43159581D01*
X62765317Y-43093635D01*
X62775934Y-43074611D01*
X62787024Y-43056192D01*
X62798587Y-43038376D01*
X62810624Y-43021164D01*
X62823134Y-43004556D01*
X62836117Y-42988552D01*
X62849573Y-42973151D01*
X62863503Y-42958355D01*
X62877905Y-42944163D01*
X62892781Y-42930575D01*
X62908130Y-42917590D01*
X62923953Y-42905210D01*
X62940248Y-42893433D01*
X62957017Y-42882260D01*
X62974259Y-42871691D01*
X62991974Y-42861727D01*
X63010163Y-42852366D01*
X63028825Y-42843609D01*
X63047959Y-42835456D01*
X63067568Y-42827907D01*
X63087649Y-42820961D01*
X63108203Y-42814620D01*
X63129231Y-42808883D01*
X63150732Y-42803750D01*
X63172706Y-42799220D01*
X63195154Y-42795294D01*
X63218075Y-42791973D01*
X63241468Y-42789255D01*
X63265336Y-42787141D01*
X63289676Y-42785632D01*
X63314489Y-42784726D01*
X63339776Y-42784424D01*
X63367451Y-42784780D01*
G37*
G36*
X64364131Y-42377515D02*
G01*
X64365693Y-42354469D01*
X64370382Y-42332590D01*
X64378196Y-42311879D01*
X64389135Y-42292336D01*
X64403200Y-42273960D01*
X64408583Y-42268094D01*
X64423211Y-42254725D01*
X64442308Y-42241674D01*
X64463088Y-42231885D01*
X64485550Y-42225359D01*
X64505555Y-42222413D01*
X64522400Y-42221688D01*
X64542109Y-42222785D01*
X64564594Y-42226999D01*
X64585809Y-42234372D01*
X64605753Y-42244905D01*
X64624426Y-42258598D01*
X64633286Y-42266629D01*
X64646796Y-42281186D01*
X64659985Y-42300008D01*
X64669877Y-42320307D01*
X64676471Y-42342082D01*
X64679769Y-42365335D01*
X64680181Y-42377515D01*
X64679036Y-42397494D01*
X64674640Y-42420208D01*
X64666946Y-42441549D01*
X64655955Y-42461516D01*
X64641667Y-42480109D01*
X64633286Y-42488890D01*
X64618343Y-42501977D01*
X64599246Y-42514754D01*
X64578879Y-42524337D01*
X64557240Y-42530726D01*
X64534331Y-42533920D01*
X64522400Y-42534319D01*
X64502140Y-42533186D01*
X64482882Y-42529787D01*
X64461095Y-42522718D01*
X64440750Y-42512385D01*
X64421848Y-42498789D01*
X64410048Y-42487913D01*
X64396820Y-42472982D01*
X64383906Y-42453931D01*
X64374220Y-42433643D01*
X64367763Y-42412119D01*
X64364534Y-42389359D01*
X64364131Y-42377515D01*
G37*
G36*
X64401256Y-43909895D02*
G01*
X64401256Y-43065792D01*
X64194138Y-43065792D01*
X64194138Y-42815687D01*
X64662595Y-42815687D01*
X64662595Y-43909895D01*
X64867271Y-43909895D01*
X64867271Y-44160000D01*
X64194138Y-44160000D01*
X64194138Y-43909895D01*
X64401256Y-43909895D01*
G37*
G36*
X65490090Y-42815687D02*
G01*
X65490090Y-42966140D01*
X65521365Y-42944136D01*
X65552296Y-42923551D01*
X65582883Y-42904385D01*
X65613128Y-42886639D01*
X65643028Y-42870313D01*
X65672585Y-42855407D01*
X65701799Y-42841920D01*
X65730669Y-42829853D01*
X65759196Y-42819205D01*
X65787380Y-42809978D01*
X65815219Y-42802170D01*
X65842716Y-42795781D01*
X65869869Y-42790812D01*
X65896678Y-42787263D01*
X65923144Y-42785134D01*
X65949267Y-42784424D01*
X65973056Y-42784965D01*
X65996064Y-42786588D01*
X66018291Y-42789292D01*
X66039736Y-42793079D01*
X66060400Y-42797948D01*
X66080282Y-42803898D01*
X66099383Y-42810931D01*
X66117703Y-42819045D01*
X66135241Y-42828242D01*
X66151998Y-42838520D01*
X66162735Y-42845973D01*
X66182946Y-42861795D01*
X66201325Y-42878488D01*
X66217873Y-42896050D01*
X66232588Y-42914483D01*
X66245472Y-42933786D01*
X66256524Y-42953959D01*
X66265744Y-42975002D01*
X66273133Y-42996915D01*
X66279315Y-43020431D01*
X66283411Y-43039761D01*
X66287043Y-43060542D01*
X66290212Y-43082775D01*
X66292916Y-43106458D01*
X66295158Y-43131593D01*
X66296935Y-43158178D01*
X66298249Y-43186215D01*
X66299099Y-43215703D01*
X66299408Y-43236168D01*
X66299511Y-43257278D01*
X66299511Y-43909895D01*
X66523237Y-43909895D01*
X66523237Y-44160000D01*
X66038171Y-44160000D01*
X66038171Y-43280237D01*
X66037772Y-43252592D01*
X66036574Y-43226811D01*
X66034578Y-43202892D01*
X66031783Y-43180838D01*
X66028189Y-43160646D01*
X66022156Y-43136622D01*
X66014702Y-43115911D01*
X66003389Y-43094681D01*
X65992742Y-43081423D01*
X65978044Y-43067913D01*
X65959085Y-43054724D01*
X65938683Y-43044832D01*
X65916839Y-43038238D01*
X65893552Y-43034941D01*
X65881367Y-43034528D01*
X65859574Y-43035189D01*
X65837426Y-43037169D01*
X65814924Y-43040470D01*
X65792066Y-43045092D01*
X65768853Y-43051034D01*
X65745286Y-43058296D01*
X65721363Y-43066879D01*
X65697086Y-43076782D01*
X65672454Y-43088006D01*
X65647467Y-43100550D01*
X65622124Y-43114415D01*
X65596427Y-43129600D01*
X65570376Y-43146105D01*
X65543969Y-43163931D01*
X65517207Y-43183078D01*
X65490090Y-43203545D01*
X65490090Y-43909895D01*
X65719678Y-43909895D01*
X65719678Y-44160000D01*
X64995743Y-44160000D01*
X64995743Y-43909895D01*
X65229239Y-43909895D01*
X65229239Y-43065792D01*
X64995743Y-43065792D01*
X64995743Y-42815687D01*
X65490090Y-42815687D01*
G37*
G36*
X67890020Y-43909895D02*
G01*
X67890020Y-42503056D01*
X67629169Y-42503056D01*
X67629169Y-42252951D01*
X68150872Y-42252951D01*
X68150872Y-43909895D01*
X68400000Y-43909895D01*
X68400000Y-44160000D01*
X67629169Y-44160000D01*
X67629169Y-43909895D01*
X67890020Y-43909895D01*
G37*
G36*
X68981786Y-44160000D02*
G01*
X68981786Y-43816106D01*
X69319818Y-43816106D01*
X69319818Y-44160000D01*
X68981786Y-44160000D01*
G37*
G36*
X70339052Y-42221948D02*
G01*
X70377772Y-42224028D01*
X70415340Y-42228188D01*
X70451755Y-42234428D01*
X70487017Y-42242747D01*
X70521127Y-42253146D01*
X70554085Y-42265626D01*
X70585890Y-42280185D01*
X70616542Y-42296824D01*
X70646042Y-42315543D01*
X70674390Y-42336342D01*
X70701585Y-42359220D01*
X70727627Y-42384179D01*
X70752517Y-42411217D01*
X70776254Y-42440336D01*
X70798839Y-42471534D01*
X70809699Y-42487913D01*
X70820278Y-42504734D01*
X70830521Y-42521920D01*
X70840428Y-42539470D01*
X70850000Y-42557385D01*
X70859235Y-42575664D01*
X70868135Y-42594307D01*
X70876698Y-42613315D01*
X70884926Y-42632688D01*
X70892818Y-42652425D01*
X70900375Y-42672526D01*
X70907595Y-42692992D01*
X70914480Y-42713822D01*
X70921028Y-42735017D01*
X70927241Y-42756576D01*
X70933118Y-42778500D01*
X70938660Y-42800788D01*
X70943865Y-42823441D01*
X70948735Y-42846458D01*
X70953268Y-42869839D01*
X70957466Y-42893585D01*
X70961328Y-42917695D01*
X70964855Y-42942170D01*
X70968045Y-42967010D01*
X70970900Y-42992213D01*
X70973418Y-43017782D01*
X70975601Y-43043714D01*
X70977448Y-43070011D01*
X70978960Y-43096673D01*
X70980135Y-43123699D01*
X70980975Y-43151090D01*
X70981478Y-43178844D01*
X70981646Y-43206964D01*
X70981473Y-43236097D01*
X70980954Y-43264815D01*
X70980088Y-43293120D01*
X70978876Y-43321010D01*
X70977317Y-43348486D01*
X70975412Y-43375549D01*
X70973161Y-43402197D01*
X70970564Y-43428431D01*
X70967620Y-43454251D01*
X70964330Y-43479657D01*
X70960694Y-43504649D01*
X70956711Y-43529227D01*
X70952382Y-43553391D01*
X70947706Y-43577141D01*
X70942684Y-43600476D01*
X70937316Y-43623398D01*
X70931602Y-43645906D01*
X70925541Y-43667999D01*
X70919134Y-43689678D01*
X70912381Y-43710944D01*
X70905281Y-43731795D01*
X70897835Y-43752232D01*
X70890042Y-43772255D01*
X70881904Y-43791864D01*
X70873419Y-43811059D01*
X70864587Y-43829840D01*
X70855410Y-43848207D01*
X70845886Y-43866160D01*
X70836015Y-43883699D01*
X70825798Y-43900823D01*
X70815235Y-43917534D01*
X70804326Y-43933831D01*
X70781652Y-43965004D01*
X70757958Y-43994166D01*
X70733246Y-44021317D01*
X70707514Y-44046457D01*
X70680764Y-44069586D01*
X70652995Y-44090703D01*
X70624207Y-44109810D01*
X70594399Y-44126905D01*
X70563573Y-44141988D01*
X70531728Y-44155061D01*
X70498864Y-44166123D01*
X70464981Y-44175173D01*
X70430079Y-44182212D01*
X70394158Y-44187240D01*
X70357219Y-44190257D01*
X70319260Y-44191263D01*
X70299318Y-44191001D01*
X70279670Y-44190217D01*
X70241255Y-44187080D01*
X70204015Y-44181852D01*
X70167951Y-44174532D01*
X70133063Y-44165121D01*
X70099350Y-44153619D01*
X70066812Y-44140025D01*
X70035450Y-44124340D01*
X70005263Y-44106564D01*
X69976251Y-44086696D01*
X69948415Y-44064737D01*
X69921755Y-44040687D01*
X69896269Y-44014545D01*
X69871960Y-43986312D01*
X69848825Y-43955988D01*
X69826866Y-43923572D01*
X69816348Y-43906665D01*
X69806163Y-43889403D01*
X69796312Y-43871788D01*
X69786795Y-43853818D01*
X69777612Y-43835495D01*
X69768763Y-43816817D01*
X69760248Y-43797786D01*
X69752067Y-43778401D01*
X69744220Y-43758661D01*
X69736706Y-43738568D01*
X69729527Y-43718121D01*
X69722681Y-43697320D01*
X69716170Y-43676164D01*
X69709992Y-43654655D01*
X69704148Y-43632792D01*
X69698639Y-43610575D01*
X69693463Y-43588004D01*
X69688621Y-43565079D01*
X69684113Y-43541800D01*
X69679939Y-43518167D01*
X69676099Y-43494181D01*
X69672593Y-43469840D01*
X69669420Y-43445145D01*
X69666582Y-43420096D01*
X69664077Y-43394694D01*
X69661907Y-43368937D01*
X69660070Y-43342826D01*
X69658568Y-43316362D01*
X69657399Y-43289543D01*
X69656564Y-43262371D01*
X69656063Y-43234844D01*
X69655896Y-43206964D01*
X69935799Y-43206964D01*
X69935895Y-43232442D01*
X69936184Y-43257463D01*
X69936666Y-43282027D01*
X69937340Y-43306134D01*
X69938208Y-43329784D01*
X69939268Y-43352977D01*
X69940520Y-43375713D01*
X69941966Y-43397992D01*
X69943604Y-43419814D01*
X69945435Y-43441179D01*
X69947458Y-43462087D01*
X69949675Y-43482539D01*
X69952084Y-43502533D01*
X69954685Y-43522070D01*
X69960467Y-43559773D01*
X69967020Y-43595648D01*
X69974343Y-43629695D01*
X69982437Y-43661914D01*
X69991303Y-43692305D01*
X70000939Y-43720868D01*
X70011346Y-43747603D01*
X70022524Y-43772510D01*
X70034473Y-43795589D01*
X70047206Y-43817002D01*
X70060614Y-43837034D01*
X70074698Y-43855684D01*
X70089458Y-43872953D01*
X70104893Y-43888840D01*
X70121003Y-43903346D01*
X70137789Y-43916470D01*
X70155251Y-43928213D01*
X70173388Y-43938574D01*
X70192200Y-43947554D01*
X70211688Y-43955152D01*
X70231851Y-43961369D01*
X70252690Y-43966204D01*
X70274205Y-43969658D01*
X70296394Y-43971730D01*
X70319260Y-43972421D01*
X70342123Y-43971726D01*
X70364307Y-43969643D01*
X70385812Y-43966170D01*
X70406638Y-43961308D01*
X70426784Y-43955057D01*
X70446251Y-43947417D01*
X70465038Y-43938387D01*
X70483147Y-43927969D01*
X70500576Y-43916161D01*
X70517325Y-43902964D01*
X70533396Y-43888379D01*
X70548787Y-43872404D01*
X70563499Y-43855039D01*
X70577531Y-43836286D01*
X70590885Y-43816144D01*
X70603558Y-43794612D01*
X70615566Y-43771480D01*
X70626800Y-43746535D01*
X70637258Y-43719777D01*
X70646942Y-43691206D01*
X70655851Y-43660822D01*
X70663986Y-43628626D01*
X70671345Y-43594617D01*
X70677930Y-43558796D01*
X70683741Y-43521161D01*
X70686355Y-43501664D01*
X70688776Y-43481714D01*
X70691004Y-43461311D01*
X70693037Y-43440454D01*
X70694877Y-43419145D01*
X70696523Y-43397382D01*
X70697976Y-43375166D01*
X70699235Y-43352496D01*
X70700300Y-43329374D01*
X70701172Y-43305798D01*
X70701850Y-43281769D01*
X70702334Y-43257287D01*
X70702624Y-43232352D01*
X70702721Y-43206964D01*
X70702623Y-43181188D01*
X70702328Y-43155883D01*
X70701837Y-43131049D01*
X70701149Y-43106687D01*
X70700264Y-43082796D01*
X70699183Y-43059376D01*
X70697906Y-43036428D01*
X70696432Y-43013951D01*
X70694761Y-42991945D01*
X70692894Y-42970411D01*
X70690830Y-42949348D01*
X70688570Y-42928756D01*
X70686114Y-42908636D01*
X70683460Y-42888986D01*
X70677564Y-42851102D01*
X70670882Y-42815103D01*
X70663413Y-42780989D01*
X70655159Y-42748761D01*
X70646118Y-42718417D01*
X70636291Y-42689959D01*
X70625678Y-42663386D01*
X70614278Y-42638699D01*
X70602093Y-42615896D01*
X70589253Y-42594660D01*
X70575768Y-42574795D01*
X70561638Y-42556299D01*
X70546864Y-42539173D01*
X70531444Y-42523418D01*
X70515379Y-42509032D01*
X70498670Y-42496017D01*
X70481315Y-42484371D01*
X70463315Y-42474096D01*
X70444671Y-42465191D01*
X70425381Y-42457655D01*
X70405447Y-42451490D01*
X70384868Y-42446695D01*
X70363643Y-42443270D01*
X70341774Y-42441215D01*
X70319260Y-42440530D01*
X70293950Y-42441308D01*
X70269556Y-42443644D01*
X70246079Y-42447537D01*
X70223517Y-42452986D01*
X70201871Y-42459993D01*
X70181140Y-42468557D01*
X70161326Y-42478678D01*
X70142428Y-42490355D01*
X70124446Y-42503590D01*
X70107379Y-42518382D01*
X70091229Y-42534731D01*
X70075994Y-42552637D01*
X70061675Y-42572100D01*
X70048272Y-42593121D01*
X70035785Y-42615698D01*
X70024214Y-42639832D01*
X70013508Y-42665403D01*
X70003492Y-42692291D01*
X69994167Y-42720495D01*
X69985532Y-42750016D01*
X69977589Y-42780854D01*
X69970336Y-42813008D01*
X69963774Y-42846479D01*
X69957903Y-42881266D01*
X69952722Y-42917370D01*
X69948232Y-42954791D01*
X69944433Y-42993528D01*
X69942792Y-43013390D01*
X69941325Y-43033582D01*
X69940029Y-43054103D01*
X69938907Y-43074953D01*
X69937957Y-43096132D01*
X69937180Y-43117640D01*
X69936576Y-43139477D01*
X69936144Y-43161644D01*
X69935885Y-43184139D01*
X69935799Y-43206964D01*
X69655896Y-43206964D01*
X69656070Y-43177682D01*
X69656591Y-43148821D01*
X69657459Y-43120380D01*
X69658674Y-43092361D01*
X69660237Y-43064762D01*
X69662147Y-43037583D01*
X69664405Y-43010826D01*
X69667009Y-42984489D01*
X69669961Y-42958573D01*
X69673260Y-42933078D01*
X69676907Y-42908004D01*
X69680901Y-42883350D01*
X69685242Y-42859117D01*
X69689930Y-42835305D01*
X69694966Y-42811913D01*
X69700348Y-42788942D01*
X69706079Y-42766392D01*
X69712156Y-42744263D01*
X69718581Y-42722554D01*
X69725353Y-42701267D01*
X69732472Y-42680400D01*
X69739939Y-42659953D01*
X69747753Y-42639928D01*
X69755914Y-42620323D01*
X69764422Y-42601139D01*
X69773278Y-42582376D01*
X69782481Y-42564033D01*
X69792031Y-42546111D01*
X69801929Y-42528610D01*
X69812173Y-42511530D01*
X69822766Y-42494871D01*
X69833705Y-42478632D01*
X69856439Y-42447517D01*
X69880187Y-42418411D01*
X69904951Y-42391311D01*
X69930730Y-42366219D01*
X69957525Y-42343134D01*
X69985334Y-42322057D01*
X70014158Y-42302987D01*
X70043998Y-42285924D01*
X70074853Y-42270869D01*
X70106723Y-42257821D01*
X70139608Y-42246780D01*
X70173508Y-42237747D01*
X70208423Y-42230721D01*
X70244354Y-42225703D01*
X70281299Y-42222692D01*
X70319260Y-42221688D01*
X70339052Y-42221948D01*
G37*
X40371428Y-43303809D02*
X40514285Y-43351428D01*
X40514285Y-43351428D02*
X40561904Y-43399047D01*
X40561904Y-43399047D02*
X40609523Y-43494285D01*
X40609523Y-43494285D02*
X40609523Y-43637142D01*
X40609523Y-43637142D02*
X40561904Y-43732380D01*
X40561904Y-43732380D02*
X40514285Y-43780000D01*
X40514285Y-43780000D02*
X40419047Y-43827619D01*
X40419047Y-43827619D02*
X40038095Y-43827619D01*
X40038095Y-43827619D02*
X40038095Y-42827619D01*
X40038095Y-42827619D02*
X40371428Y-42827619D01*
X40371428Y-42827619D02*
X40466666Y-42875238D01*
X40466666Y-42875238D02*
X40514285Y-42922857D01*
X40514285Y-42922857D02*
X40561904Y-43018095D01*
X40561904Y-43018095D02*
X40561904Y-43113333D01*
X40561904Y-43113333D02*
X40514285Y-43208571D01*
X40514285Y-43208571D02*
X40466666Y-43256190D01*
X40466666Y-43256190D02*
X40371428Y-43303809D01*
X40371428Y-43303809D02*
X40038095Y-43303809D01*
X41514285Y-42827619D02*
X41038095Y-42827619D01*
X41038095Y-42827619D02*
X40990476Y-43303809D01*
X40990476Y-43303809D02*
X41038095Y-43256190D01*
X41038095Y-43256190D02*
X41133333Y-43208571D01*
X41133333Y-43208571D02*
X41371428Y-43208571D01*
X41371428Y-43208571D02*
X41466666Y-43256190D01*
X41466666Y-43256190D02*
X41514285Y-43303809D01*
X41514285Y-43303809D02*
X41561904Y-43399047D01*
X41561904Y-43399047D02*
X41561904Y-43637142D01*
X41561904Y-43637142D02*
X41514285Y-43732380D01*
X41514285Y-43732380D02*
X41466666Y-43780000D01*
X41466666Y-43780000D02*
X41371428Y-43827619D01*
X41371428Y-43827619D02*
X41133333Y-43827619D01*
X41133333Y-43827619D02*
X41038095Y-43780000D01*
X41038095Y-43780000D02*
X40990476Y-43732380D01*
X44490476Y-31941904D02*
X44966666Y-31941904D01*
X44395238Y-32227619D02*
X44728571Y-31227619D01*
X44728571Y-31227619D02*
X45061904Y-32227619D01*
X45823809Y-31560952D02*
X45823809Y-32227619D01*
X45585714Y-31180000D02*
X45347619Y-31894285D01*
X45347619Y-31894285D02*
X45966666Y-31894285D01*
X47871428Y-43403809D02*
X48014285Y-43451428D01*
X48014285Y-43451428D02*
X48061904Y-43499047D01*
X48061904Y-43499047D02*
X48109523Y-43594285D01*
X48109523Y-43594285D02*
X48109523Y-43737142D01*
X48109523Y-43737142D02*
X48061904Y-43832380D01*
X48061904Y-43832380D02*
X48014285Y-43880000D01*
X48014285Y-43880000D02*
X47919047Y-43927619D01*
X47919047Y-43927619D02*
X47538095Y-43927619D01*
X47538095Y-43927619D02*
X47538095Y-42927619D01*
X47538095Y-42927619D02*
X47871428Y-42927619D01*
X47871428Y-42927619D02*
X47966666Y-42975238D01*
X47966666Y-42975238D02*
X48014285Y-43022857D01*
X48014285Y-43022857D02*
X48061904Y-43118095D01*
X48061904Y-43118095D02*
X48061904Y-43213333D01*
X48061904Y-43213333D02*
X48014285Y-43308571D01*
X48014285Y-43308571D02*
X47966666Y-43356190D01*
X47966666Y-43356190D02*
X47871428Y-43403809D01*
X47871428Y-43403809D02*
X47538095Y-43403809D01*
X48442857Y-42927619D02*
X49109523Y-42927619D01*
X49109523Y-42927619D02*
X48680952Y-43927619D01*
X20790476Y-37830000D02*
X20933333Y-37877619D01*
X20933333Y-37877619D02*
X21171428Y-37877619D01*
X21171428Y-37877619D02*
X21266666Y-37830000D01*
X21266666Y-37830000D02*
X21314285Y-37782380D01*
X21314285Y-37782380D02*
X21361904Y-37687142D01*
X21361904Y-37687142D02*
X21361904Y-37591904D01*
X21361904Y-37591904D02*
X21314285Y-37496666D01*
X21314285Y-37496666D02*
X21266666Y-37449047D01*
X21266666Y-37449047D02*
X21171428Y-37401428D01*
X21171428Y-37401428D02*
X20980952Y-37353809D01*
X20980952Y-37353809D02*
X20885714Y-37306190D01*
X20885714Y-37306190D02*
X20838095Y-37258571D01*
X20838095Y-37258571D02*
X20790476Y-37163333D01*
X20790476Y-37163333D02*
X20790476Y-37068095D01*
X20790476Y-37068095D02*
X20838095Y-36972857D01*
X20838095Y-36972857D02*
X20885714Y-36925238D01*
X20885714Y-36925238D02*
X20980952Y-36877619D01*
X20980952Y-36877619D02*
X21219047Y-36877619D01*
X21219047Y-36877619D02*
X21361904Y-36925238D01*
X21790476Y-37877619D02*
X21790476Y-36877619D01*
X21790476Y-36877619D02*
X22028571Y-36877619D01*
X22028571Y-36877619D02*
X22171428Y-36925238D01*
X22171428Y-36925238D02*
X22266666Y-37020476D01*
X22266666Y-37020476D02*
X22314285Y-37115714D01*
X22314285Y-37115714D02*
X22361904Y-37306190D01*
X22361904Y-37306190D02*
X22361904Y-37449047D01*
X22361904Y-37449047D02*
X22314285Y-37639523D01*
X22314285Y-37639523D02*
X22266666Y-37734761D01*
X22266666Y-37734761D02*
X22171428Y-37830000D01*
X22171428Y-37830000D02*
X22028571Y-37877619D01*
X22028571Y-37877619D02*
X21790476Y-37877619D01*
X22742857Y-37591904D02*
X23219047Y-37591904D01*
X22647619Y-37877619D02*
X22980952Y-36877619D01*
X22980952Y-36877619D02*
X23314285Y-37877619D01*
X64138095Y-50053809D02*
X64471428Y-50053809D01*
X64614285Y-50577619D02*
X64138095Y-50577619D01*
X64138095Y-50577619D02*
X64138095Y-49577619D01*
X64138095Y-49577619D02*
X64614285Y-49577619D01*
X65042857Y-50577619D02*
X65042857Y-49577619D01*
X65042857Y-49577619D02*
X65614285Y-50577619D01*
X65614285Y-50577619D02*
X65614285Y-49577619D01*
X66042857Y-50291904D02*
X66519047Y-50291904D01*
X65947619Y-50577619D02*
X66280952Y-49577619D01*
X66280952Y-49577619D02*
X66614285Y-50577619D01*
X21509523Y-27532380D02*
X21461904Y-27580000D01*
X21461904Y-27580000D02*
X21319047Y-27627619D01*
X21319047Y-27627619D02*
X21223809Y-27627619D01*
X21223809Y-27627619D02*
X21080952Y-27580000D01*
X21080952Y-27580000D02*
X20985714Y-27484761D01*
X20985714Y-27484761D02*
X20938095Y-27389523D01*
X20938095Y-27389523D02*
X20890476Y-27199047D01*
X20890476Y-27199047D02*
X20890476Y-27056190D01*
X20890476Y-27056190D02*
X20938095Y-26865714D01*
X20938095Y-26865714D02*
X20985714Y-26770476D01*
X20985714Y-26770476D02*
X21080952Y-26675238D01*
X21080952Y-26675238D02*
X21223809Y-26627619D01*
X21223809Y-26627619D02*
X21319047Y-26627619D01*
X21319047Y-26627619D02*
X21461904Y-26675238D01*
X21461904Y-26675238D02*
X21509523Y-26722857D01*
X22414285Y-27627619D02*
X21938095Y-27627619D01*
X21938095Y-27627619D02*
X21938095Y-26627619D01*
X22747619Y-27627619D02*
X22747619Y-26627619D01*
X23319047Y-27627619D02*
X22890476Y-27056190D01*
X23319047Y-26627619D02*
X22747619Y-27199047D01*
X33290476Y-31941904D02*
X33766666Y-31941904D01*
X33195238Y-32227619D02*
X33528571Y-31227619D01*
X33528571Y-31227619D02*
X33861904Y-32227619D01*
X34100000Y-31227619D02*
X34766666Y-31227619D01*
X34766666Y-31227619D02*
X34338095Y-32227619D01*
X55690476Y-31941904D02*
X56166666Y-31941904D01*
X55595238Y-32227619D02*
X55928571Y-31227619D01*
X55928571Y-31227619D02*
X56261904Y-32227619D01*
X57119047Y-32227619D02*
X56547619Y-32227619D01*
X56833333Y-32227619D02*
X56833333Y-31227619D01*
X56833333Y-31227619D02*
X56738095Y-31370476D01*
X56738095Y-31370476D02*
X56642857Y-31465714D01*
X56642857Y-31465714D02*
X56547619Y-31513333D01*
X64038095Y-52603809D02*
X64371428Y-52603809D01*
X64514285Y-53127619D02*
X64038095Y-53127619D01*
X64038095Y-53127619D02*
X64038095Y-52127619D01*
X64038095Y-52127619D02*
X64514285Y-52127619D01*
X64942857Y-53127619D02*
X64942857Y-52127619D01*
X64942857Y-52127619D02*
X65514285Y-53127619D01*
X65514285Y-53127619D02*
X65514285Y-52127619D01*
X66323809Y-52603809D02*
X66466666Y-52651428D01*
X66466666Y-52651428D02*
X66514285Y-52699047D01*
X66514285Y-52699047D02*
X66561904Y-52794285D01*
X66561904Y-52794285D02*
X66561904Y-52937142D01*
X66561904Y-52937142D02*
X66514285Y-53032380D01*
X66514285Y-53032380D02*
X66466666Y-53080000D01*
X66466666Y-53080000D02*
X66371428Y-53127619D01*
X66371428Y-53127619D02*
X65990476Y-53127619D01*
X65990476Y-53127619D02*
X65990476Y-52127619D01*
X65990476Y-52127619D02*
X66323809Y-52127619D01*
X66323809Y-52127619D02*
X66419047Y-52175238D01*
X66419047Y-52175238D02*
X66466666Y-52222857D01*
X66466666Y-52222857D02*
X66514285Y-52318095D01*
X66514285Y-52318095D02*
X66514285Y-52413333D01*
X66514285Y-52413333D02*
X66466666Y-52508571D01*
X66466666Y-52508571D02*
X66419047Y-52556190D01*
X66419047Y-52556190D02*
X66323809Y-52603809D01*
X66323809Y-52603809D02*
X65990476Y-52603809D01*
X65690476Y-32680000D02*
X65833333Y-32727619D01*
X65833333Y-32727619D02*
X66071428Y-32727619D01*
X66071428Y-32727619D02*
X66166666Y-32680000D01*
X66166666Y-32680000D02*
X66214285Y-32632380D01*
X66214285Y-32632380D02*
X66261904Y-32537142D01*
X66261904Y-32537142D02*
X66261904Y-32441904D01*
X66261904Y-32441904D02*
X66214285Y-32346666D01*
X66214285Y-32346666D02*
X66166666Y-32299047D01*
X66166666Y-32299047D02*
X66071428Y-32251428D01*
X66071428Y-32251428D02*
X65880952Y-32203809D01*
X65880952Y-32203809D02*
X65785714Y-32156190D01*
X65785714Y-32156190D02*
X65738095Y-32108571D01*
X65738095Y-32108571D02*
X65690476Y-32013333D01*
X65690476Y-32013333D02*
X65690476Y-31918095D01*
X65690476Y-31918095D02*
X65738095Y-31822857D01*
X65738095Y-31822857D02*
X65785714Y-31775238D01*
X65785714Y-31775238D02*
X65880952Y-31727619D01*
X65880952Y-31727619D02*
X66119047Y-31727619D01*
X66119047Y-31727619D02*
X66261904Y-31775238D01*
X66880952Y-31727619D02*
X67071428Y-31727619D01*
X67071428Y-31727619D02*
X67166666Y-31775238D01*
X67166666Y-31775238D02*
X67261904Y-31870476D01*
X67261904Y-31870476D02*
X67309523Y-32060952D01*
X67309523Y-32060952D02*
X67309523Y-32394285D01*
X67309523Y-32394285D02*
X67261904Y-32584761D01*
X67261904Y-32584761D02*
X67166666Y-32680000D01*
X67166666Y-32680000D02*
X67071428Y-32727619D01*
X67071428Y-32727619D02*
X66880952Y-32727619D01*
X66880952Y-32727619D02*
X66785714Y-32680000D01*
X66785714Y-32680000D02*
X66690476Y-32584761D01*
X66690476Y-32584761D02*
X66642857Y-32394285D01*
X66642857Y-32394285D02*
X66642857Y-32060952D01*
X66642857Y-32060952D02*
X66690476Y-31870476D01*
X66690476Y-31870476D02*
X66785714Y-31775238D01*
X66785714Y-31775238D02*
X66880952Y-31727619D01*
X67738095Y-31727619D02*
X67738095Y-32537142D01*
X67738095Y-32537142D02*
X67785714Y-32632380D01*
X67785714Y-32632380D02*
X67833333Y-32680000D01*
X67833333Y-32680000D02*
X67928571Y-32727619D01*
X67928571Y-32727619D02*
X68119047Y-32727619D01*
X68119047Y-32727619D02*
X68214285Y-32680000D01*
X68214285Y-32680000D02*
X68261904Y-32632380D01*
X68261904Y-32632380D02*
X68309523Y-32537142D01*
X68309523Y-32537142D02*
X68309523Y-31727619D01*
X68642857Y-31727619D02*
X69214285Y-31727619D01*
X68928571Y-32727619D02*
X68928571Y-31727619D01*
G36*
X55476265Y-45190993D02*
G01*
X55498398Y-45192069D01*
X55520061Y-45193863D01*
X55541255Y-45196374D01*
X55561979Y-45199603D01*
X55582234Y-45203549D01*
X55602020Y-45208212D01*
X55621336Y-45213593D01*
X55640183Y-45219692D01*
X55658560Y-45226508D01*
X55685246Y-45238077D01*
X55710876Y-45251260D01*
X55735449Y-45266058D01*
X55758967Y-45282470D01*
X55781318Y-45300130D01*
X55802209Y-45318854D01*
X55821641Y-45338644D01*
X55839613Y-45359498D01*
X55856125Y-45381417D01*
X55871177Y-45404400D01*
X55884770Y-45428449D01*
X55896903Y-45453562D01*
X55907576Y-45479740D01*
X55916790Y-45506982D01*
X55922121Y-45525736D01*
X55758967Y-45565792D01*
X55747907Y-45539291D01*
X55735733Y-45514501D01*
X55722445Y-45491420D01*
X55708042Y-45470048D01*
X55692525Y-45450387D01*
X55675894Y-45432435D01*
X55658148Y-45416193D01*
X55639288Y-45401660D01*
X55619313Y-45388838D01*
X55598224Y-45377725D01*
X55576021Y-45368321D01*
X55552704Y-45360628D01*
X55528272Y-45354644D01*
X55502725Y-45350369D01*
X55476065Y-45347805D01*
X55448290Y-45346950D01*
X55426804Y-45347423D01*
X55405944Y-45348843D01*
X55385710Y-45351209D01*
X55366102Y-45354521D01*
X55337863Y-45361265D01*
X55311033Y-45370138D01*
X55285611Y-45381140D01*
X55261597Y-45394272D01*
X55238991Y-45409533D01*
X55217793Y-45426924D01*
X55198004Y-45446445D01*
X55179623Y-45468094D01*
X55162774Y-45491367D01*
X55147583Y-45515756D01*
X55134049Y-45541261D01*
X55122172Y-45567883D01*
X55115175Y-45586251D01*
X55108914Y-45605115D01*
X55103390Y-45624475D01*
X55098603Y-45644331D01*
X55094552Y-45664683D01*
X55091237Y-45685532D01*
X55088659Y-45706876D01*
X55086818Y-45728717D01*
X55085713Y-45751054D01*
X55085345Y-45773886D01*
X55085715Y-45798273D01*
X55086826Y-45821972D01*
X55088677Y-45844984D01*
X55091268Y-45867309D01*
X55094599Y-45888948D01*
X55098671Y-45909899D01*
X55103484Y-45930164D01*
X55109036Y-45949741D01*
X55115330Y-45968632D01*
X55126157Y-45995680D01*
X55138651Y-46021182D01*
X55152810Y-46045139D01*
X55168636Y-46067550D01*
X55180111Y-46081632D01*
X55198438Y-46101187D01*
X55217881Y-46118818D01*
X55238440Y-46134526D01*
X55260116Y-46148311D01*
X55282908Y-46160172D01*
X55306816Y-46170109D01*
X55331840Y-46178124D01*
X55357981Y-46184214D01*
X55385238Y-46188382D01*
X55413611Y-46190626D01*
X55433147Y-46191053D01*
X55454870Y-46190478D01*
X55476258Y-46188752D01*
X55497311Y-46185875D01*
X55518029Y-46181848D01*
X55538412Y-46176671D01*
X55558460Y-46170342D01*
X55578174Y-46162863D01*
X55597553Y-46154234D01*
X55616596Y-46144453D01*
X55635305Y-46133523D01*
X55647592Y-46125596D01*
X55665305Y-46112768D01*
X55681807Y-46099012D01*
X55697098Y-46084329D01*
X55711179Y-46068718D01*
X55724049Y-46052180D01*
X55735708Y-46034715D01*
X55746157Y-46016322D01*
X55755395Y-45997002D01*
X55763422Y-45976755D01*
X55770238Y-45955580D01*
X55774110Y-45940949D01*
X55942637Y-45990774D01*
X55937430Y-46010792D01*
X55931456Y-46030303D01*
X55924714Y-46049307D01*
X55917206Y-46067802D01*
X55908930Y-46085790D01*
X55899887Y-46103271D01*
X55890077Y-46120244D01*
X55879501Y-46136709D01*
X55868157Y-46152667D01*
X55856046Y-46168117D01*
X55843168Y-46183060D01*
X55829522Y-46197495D01*
X55815110Y-46211423D01*
X55799931Y-46224843D01*
X55783984Y-46237755D01*
X55767271Y-46250160D01*
X55750042Y-46261931D01*
X55732428Y-46272943D01*
X55714429Y-46283196D01*
X55696044Y-46292689D01*
X55677273Y-46301422D01*
X55658117Y-46309397D01*
X55638576Y-46316611D01*
X55618649Y-46323066D01*
X55598337Y-46328762D01*
X55577639Y-46333699D01*
X55556556Y-46337876D01*
X55535088Y-46341293D01*
X55513234Y-46343951D01*
X55490994Y-46345850D01*
X55468369Y-46346989D01*
X55445359Y-46347369D01*
X55423927Y-46347067D01*
X55402861Y-46346163D01*
X55382161Y-46344655D01*
X55361828Y-46342545D01*
X55341861Y-46339831D01*
X55322260Y-46336515D01*
X55303026Y-46332596D01*
X55274862Y-46325586D01*
X55247522Y-46317220D01*
X55221007Y-46307497D01*
X55195315Y-46296417D01*
X55170448Y-46283981D01*
X55146406Y-46270188D01*
X55123433Y-46255244D01*
X55101595Y-46239356D01*
X55080889Y-46222523D01*
X55061318Y-46204746D01*
X55042879Y-46186024D01*
X55025574Y-46166358D01*
X55009403Y-46145747D01*
X54994364Y-46124192D01*
X54980460Y-46101692D01*
X54967689Y-46078247D01*
X54959804Y-46062093D01*
X54948892Y-46037159D01*
X54939053Y-46011632D01*
X54930287Y-45985513D01*
X54922595Y-45958801D01*
X54915976Y-45931497D01*
X54910431Y-45903600D01*
X54905959Y-45875111D01*
X54902560Y-45846030D01*
X54900890Y-45826313D01*
X54899697Y-45806333D01*
X54898982Y-45786089D01*
X54898743Y-45765582D01*
X54899320Y-45732857D01*
X54901048Y-45700995D01*
X54903930Y-45669995D01*
X54907964Y-45639858D01*
X54913150Y-45610583D01*
X54919489Y-45582171D01*
X54926980Y-45554621D01*
X54935624Y-45527934D01*
X54945420Y-45502109D01*
X54956369Y-45477147D01*
X54968471Y-45453047D01*
X54981725Y-45429809D01*
X54996131Y-45407434D01*
X55011690Y-45385922D01*
X55028402Y-45365272D01*
X55046266Y-45345484D01*
X55065203Y-45326733D01*
X55085009Y-45309192D01*
X55105686Y-45292860D01*
X55127233Y-45277738D01*
X55149649Y-45263825D01*
X55172937Y-45251123D01*
X55197094Y-45239630D01*
X55222121Y-45229347D01*
X55248018Y-45220274D01*
X55274786Y-45212410D01*
X55302423Y-45205757D01*
X55330931Y-45200313D01*
X55360309Y-45196078D01*
X55390557Y-45193054D01*
X55421675Y-45191239D01*
X55453663Y-45190635D01*
X55476265Y-45190993D01*
G37*
G36*
X55473996Y-44722203D02*
G01*
X55506420Y-44723749D01*
X55538721Y-44726325D01*
X55570900Y-44729931D01*
X55602957Y-44734568D01*
X55634891Y-44740235D01*
X55666704Y-44746933D01*
X55698394Y-44754661D01*
X55729963Y-44763419D01*
X55761409Y-44773208D01*
X55792733Y-44784027D01*
X55823935Y-44795877D01*
X55855015Y-44808757D01*
X55885973Y-44822667D01*
X55916809Y-44837608D01*
X55947522Y-44853579D01*
X55977831Y-44870514D01*
X56007331Y-44888346D01*
X56036022Y-44907074D01*
X56063904Y-44926700D01*
X56090977Y-44947222D01*
X56117240Y-44968641D01*
X56142695Y-44990956D01*
X56167341Y-45014169D01*
X56191177Y-45038279D01*
X56214205Y-45063285D01*
X56236423Y-45089188D01*
X56257833Y-45115988D01*
X56278433Y-45143685D01*
X56298224Y-45172278D01*
X56317207Y-45201769D01*
X56335380Y-45232156D01*
X56352593Y-45263100D01*
X56368696Y-45294262D01*
X56383688Y-45325642D01*
X56397570Y-45357239D01*
X56410341Y-45389053D01*
X56422002Y-45421085D01*
X56432552Y-45453335D01*
X56441992Y-45485802D01*
X56450321Y-45518487D01*
X56457539Y-45551389D01*
X56463647Y-45584509D01*
X56468645Y-45617846D01*
X56472532Y-45651401D01*
X56475308Y-45685173D01*
X56476974Y-45719163D01*
X56477529Y-45753370D01*
X56477233Y-45779902D01*
X56476344Y-45806193D01*
X56474863Y-45832243D01*
X56472789Y-45858051D01*
X56470123Y-45883618D01*
X56466865Y-45908943D01*
X56463013Y-45934027D01*
X56458570Y-45958870D01*
X56453534Y-45983471D01*
X56447905Y-46007831D01*
X56441684Y-46031950D01*
X56434871Y-46055827D01*
X56427465Y-46079462D01*
X56419466Y-46102857D01*
X56410875Y-46126010D01*
X56401692Y-46148921D01*
X56391916Y-46171592D01*
X56381547Y-46194020D01*
X56370587Y-46216208D01*
X56359033Y-46238154D01*
X56346887Y-46259859D01*
X56334149Y-46281322D01*
X56320818Y-46302544D01*
X56306895Y-46323524D01*
X56292379Y-46344264D01*
X56277271Y-46364761D01*
X56261570Y-46385018D01*
X56245277Y-46405033D01*
X56228391Y-46424807D01*
X56210913Y-46444339D01*
X56192843Y-46463630D01*
X56174180Y-46482679D01*
X56155127Y-46501282D01*
X56135826Y-46519295D01*
X56116277Y-46536716D01*
X56096480Y-46553548D01*
X56076435Y-46569788D01*
X56056142Y-46585439D01*
X56035600Y-46600498D01*
X56014811Y-46614967D01*
X55993774Y-46628846D01*
X55972488Y-46642134D01*
X55950955Y-46654831D01*
X55929173Y-46666938D01*
X55907144Y-46678454D01*
X55884866Y-46689379D01*
X55862341Y-46699714D01*
X55839567Y-46709459D01*
X55816545Y-46718613D01*
X55793275Y-46727176D01*
X55769757Y-46735149D01*
X55745991Y-46742531D01*
X55721977Y-46749322D01*
X55697715Y-46755523D01*
X55673205Y-46761134D01*
X55648447Y-46766154D01*
X55623441Y-46770583D01*
X55598186Y-46774422D01*
X55572684Y-46777670D01*
X55546933Y-46780327D01*
X55520935Y-46782394D01*
X55494688Y-46783871D01*
X55468194Y-46784757D01*
X55441451Y-46785052D01*
X55414677Y-46784757D01*
X55388151Y-46783871D01*
X55361871Y-46782394D01*
X55335839Y-46780327D01*
X55310054Y-46777670D01*
X55284515Y-46774422D01*
X55259224Y-46770583D01*
X55234180Y-46766154D01*
X55209384Y-46761134D01*
X55184834Y-46755523D01*
X55160531Y-46749322D01*
X55136476Y-46742531D01*
X55112667Y-46735149D01*
X55089106Y-46727176D01*
X55065792Y-46718613D01*
X55042725Y-46709459D01*
X55019905Y-46699714D01*
X54997332Y-46689379D01*
X54975006Y-46678454D01*
X54952927Y-46666938D01*
X54931096Y-46654831D01*
X54909511Y-46642134D01*
X54888174Y-46628846D01*
X54867083Y-46614967D01*
X54846240Y-46600498D01*
X54825644Y-46585439D01*
X54805295Y-46569788D01*
X54785193Y-46553548D01*
X54765339Y-46536716D01*
X54745731Y-46519295D01*
X54726370Y-46501282D01*
X54707257Y-46482679D01*
X54688594Y-46463630D01*
X54670523Y-46444339D01*
X54653045Y-46424807D01*
X54636159Y-46405033D01*
X54619866Y-46385018D01*
X54604166Y-46364761D01*
X54589057Y-46344264D01*
X54574542Y-46323524D01*
X54560618Y-46302544D01*
X54547287Y-46281322D01*
X54534549Y-46259859D01*
X54522403Y-46238154D01*
X54510850Y-46216208D01*
X54499889Y-46194020D01*
X54489521Y-46171592D01*
X54479745Y-46148921D01*
X54470561Y-46126010D01*
X54461970Y-46102857D01*
X54453972Y-46079462D01*
X54446566Y-46055827D01*
X54439752Y-46031950D01*
X54433531Y-46007831D01*
X54427903Y-45983471D01*
X54422867Y-45958870D01*
X54418423Y-45934027D01*
X54414572Y-45908943D01*
X54411313Y-45883618D01*
X54408647Y-45858051D01*
X54406574Y-45832243D01*
X54405092Y-45806193D01*
X54404204Y-45779902D01*
X54403907Y-45753370D01*
X54575854Y-45753370D01*
X54576102Y-45775070D01*
X54576845Y-45796572D01*
X54578083Y-45817877D01*
X54579816Y-45838985D01*
X54582044Y-45859895D01*
X54584767Y-45880607D01*
X54587986Y-45901122D01*
X54591700Y-45921440D01*
X54595909Y-45941560D01*
X54600613Y-45961482D01*
X54605812Y-45981207D01*
X54611506Y-46000735D01*
X54617696Y-46020065D01*
X54624380Y-46039197D01*
X54631560Y-46058132D01*
X54639235Y-46076870D01*
X54647406Y-46095410D01*
X54656071Y-46113752D01*
X54665231Y-46131897D01*
X54674887Y-46149845D01*
X54685038Y-46167595D01*
X54695684Y-46185148D01*
X54706825Y-46202503D01*
X54718462Y-46219660D01*
X54730593Y-46236620D01*
X54743220Y-46253383D01*
X54756342Y-46269948D01*
X54769959Y-46286316D01*
X54784071Y-46302486D01*
X54798678Y-46318458D01*
X54813781Y-46334233D01*
X54829378Y-46349811D01*
X54845326Y-46365048D01*
X54861479Y-46379801D01*
X54877837Y-46394071D01*
X54894400Y-46407857D01*
X54911169Y-46421159D01*
X54928142Y-46433978D01*
X54945321Y-46446312D01*
X54962704Y-46458163D01*
X54980293Y-46469531D01*
X54998087Y-46480414D01*
X55016086Y-46490814D01*
X55034291Y-46500730D01*
X55052700Y-46510163D01*
X55071314Y-46519111D01*
X55090134Y-46527576D01*
X55109159Y-46535558D01*
X55128388Y-46543055D01*
X55147823Y-46550069D01*
X55167463Y-46556599D01*
X55187309Y-46562646D01*
X55207359Y-46568209D01*
X55227614Y-46573288D01*
X55248075Y-46577883D01*
X55268741Y-46581994D01*
X55289612Y-46585622D01*
X55310688Y-46588766D01*
X55331969Y-46591427D01*
X55353455Y-46593604D01*
X55375146Y-46595297D01*
X55397043Y-46596506D01*
X55419144Y-46597231D01*
X55441451Y-46597473D01*
X55463757Y-46597231D01*
X55485855Y-46596506D01*
X55507747Y-46595297D01*
X55529432Y-46593604D01*
X55550909Y-46591427D01*
X55572180Y-46588766D01*
X55593244Y-46585622D01*
X55614100Y-46581994D01*
X55634750Y-46577883D01*
X55655192Y-46573288D01*
X55675428Y-46568209D01*
X55695456Y-46562646D01*
X55715277Y-46556599D01*
X55734892Y-46550069D01*
X55754299Y-46543055D01*
X55773499Y-46535558D01*
X55792492Y-46527576D01*
X55811279Y-46519111D01*
X55829858Y-46510163D01*
X55848230Y-46500730D01*
X55866395Y-46490814D01*
X55884353Y-46480414D01*
X55902104Y-46469531D01*
X55919648Y-46458163D01*
X55936985Y-46446312D01*
X55954115Y-46433978D01*
X55971038Y-46421159D01*
X55987754Y-46407857D01*
X56004262Y-46394071D01*
X56020564Y-46379801D01*
X56036659Y-46365048D01*
X56052547Y-46349811D01*
X56068114Y-46334233D01*
X56083188Y-46318458D01*
X56097767Y-46302486D01*
X56111852Y-46286316D01*
X56125443Y-46269948D01*
X56138539Y-46253383D01*
X56151142Y-46236620D01*
X56163250Y-46219660D01*
X56174864Y-46202503D01*
X56185983Y-46185148D01*
X56196609Y-46167595D01*
X56206740Y-46149845D01*
X56216377Y-46131897D01*
X56225520Y-46113752D01*
X56234169Y-46095410D01*
X56242323Y-46076870D01*
X56249984Y-46058132D01*
X56257150Y-46039197D01*
X56263821Y-46020065D01*
X56269999Y-46000735D01*
X56275682Y-45981207D01*
X56280872Y-45961482D01*
X56285567Y-45941560D01*
X56289767Y-45921440D01*
X56293474Y-45901122D01*
X56296686Y-45880607D01*
X56299405Y-45859895D01*
X56301629Y-45838985D01*
X56303358Y-45817877D01*
X56304594Y-45796572D01*
X56305335Y-45775070D01*
X56305582Y-45753370D01*
X56305334Y-45731581D01*
X56304588Y-45709994D01*
X56303345Y-45688609D01*
X56301606Y-45667427D01*
X56299369Y-45646447D01*
X56296635Y-45625669D01*
X56293404Y-45605094D01*
X56289676Y-45584720D01*
X56285451Y-45564549D01*
X56280729Y-45544581D01*
X56275509Y-45524814D01*
X56269793Y-45505250D01*
X56263580Y-45485888D01*
X56256869Y-45466728D01*
X56249662Y-45447771D01*
X56241957Y-45429016D01*
X56233755Y-45410463D01*
X56225056Y-45392112D01*
X56215861Y-45373964D01*
X56206168Y-45356017D01*
X56195978Y-45338274D01*
X56185291Y-45320732D01*
X56174107Y-45303393D01*
X56162425Y-45286256D01*
X56150247Y-45269321D01*
X56137572Y-45252588D01*
X56124399Y-45236058D01*
X56110730Y-45219730D01*
X56096563Y-45203604D01*
X56081900Y-45187681D01*
X56066739Y-45171959D01*
X56051081Y-45156441D01*
X56035106Y-45141234D01*
X56018933Y-45126509D01*
X56002561Y-45112268D01*
X55985990Y-45098509D01*
X55969222Y-45085233D01*
X55952254Y-45072440D01*
X55935089Y-45060130D01*
X55917725Y-45048302D01*
X55900162Y-45036957D01*
X55882401Y-45026095D01*
X55864441Y-45015716D01*
X55846284Y-45005819D01*
X55827927Y-44996405D01*
X55809372Y-44987474D01*
X55790619Y-44979026D01*
X55771667Y-44971060D01*
X55752517Y-44963577D01*
X55733169Y-44956577D01*
X55713621Y-44950060D01*
X55693876Y-44944026D01*
X55673932Y-44938474D01*
X55653790Y-44933405D01*
X55633449Y-44928819D01*
X55612909Y-44924715D01*
X55592172Y-44921094D01*
X55571236Y-44917956D01*
X55550101Y-44915301D01*
X55528768Y-44913129D01*
X55507236Y-44911439D01*
X55485506Y-44910232D01*
X55463578Y-44909508D01*
X55441451Y-44909267D01*
X55414386Y-44909688D01*
X55387412Y-44910954D01*
X55360530Y-44913062D01*
X55333740Y-44916014D01*
X55307041Y-44919809D01*
X55280434Y-44924448D01*
X55253918Y-44929930D01*
X55227494Y-44936256D01*
X55201162Y-44943425D01*
X55174921Y-44951437D01*
X55148772Y-44960293D01*
X55122714Y-44969992D01*
X55096748Y-44980534D01*
X55070874Y-44991920D01*
X55045091Y-45004149D01*
X55019399Y-45017222D01*
X54994147Y-45031081D01*
X54969559Y-45045669D01*
X54945634Y-45060985D01*
X54922374Y-45077031D01*
X54899778Y-45093806D01*
X54877845Y-45111309D01*
X54856577Y-45129541D01*
X54835973Y-45148503D01*
X54816033Y-45168193D01*
X54796757Y-45188612D01*
X54778145Y-45209760D01*
X54760197Y-45231637D01*
X54742913Y-45254243D01*
X54726293Y-45277577D01*
X54710337Y-45301641D01*
X54695045Y-45326434D01*
X54680612Y-45351686D01*
X54667110Y-45377129D01*
X54654539Y-45402763D01*
X54642899Y-45428588D01*
X54632190Y-45454604D01*
X54622413Y-45480810D01*
X54613567Y-45507208D01*
X54605652Y-45533796D01*
X54598668Y-45560575D01*
X54592616Y-45587544D01*
X54587494Y-45614705D01*
X54583304Y-45642056D01*
X54580045Y-45669599D01*
X54577717Y-45697332D01*
X54576320Y-45725255D01*
X54575854Y-45753370D01*
X54403907Y-45753370D01*
X54404461Y-45718821D01*
X54406121Y-45684539D01*
X54408888Y-45650525D01*
X54412761Y-45616777D01*
X54417741Y-45583297D01*
X54423828Y-45550084D01*
X54431022Y-45517138D01*
X54439323Y-45484459D01*
X54448730Y-45452047D01*
X54459244Y-45419902D01*
X54470864Y-45388025D01*
X54483592Y-45356414D01*
X54497426Y-45325071D01*
X54512366Y-45293995D01*
X54528414Y-45263186D01*
X54545568Y-45232644D01*
X54563671Y-45202663D01*
X54582563Y-45173538D01*
X54602246Y-45145266D01*
X54622718Y-45117850D01*
X54643981Y-45091289D01*
X54666033Y-45065582D01*
X54688876Y-45040730D01*
X54712508Y-45016734D01*
X54736931Y-44993592D01*
X54762143Y-44971304D01*
X54788145Y-44949872D01*
X54814938Y-44929295D01*
X54842520Y-44909572D01*
X54870892Y-44890704D01*
X54900054Y-44872691D01*
X54930006Y-44855533D01*
X54960512Y-44839326D01*
X54991212Y-44824163D01*
X55022107Y-44810047D01*
X55053196Y-44796976D01*
X55084481Y-44784951D01*
X55115959Y-44773971D01*
X55147633Y-44764038D01*
X55179501Y-44755150D01*
X55211563Y-44747307D01*
X55243820Y-44740510D01*
X55276272Y-44734759D01*
X55308919Y-44730054D01*
X55341760Y-44726394D01*
X55374796Y-44723780D01*
X55408026Y-44722211D01*
X55441451Y-44721688D01*
X55473996Y-44722203D01*
G37*
G36*
X58225819Y-45878422D02*
G01*
X58474459Y-46017152D01*
X58469040Y-46037070D01*
X58463288Y-46056706D01*
X58457202Y-46076061D01*
X58450782Y-46095134D01*
X58444028Y-46113926D01*
X58436941Y-46132437D01*
X58429519Y-46150666D01*
X58421763Y-46168613D01*
X58405250Y-46203664D01*
X58387401Y-46237589D01*
X58368217Y-46270388D01*
X58347697Y-46302062D01*
X58325841Y-46332609D01*
X58302649Y-46362031D01*
X58278122Y-46390327D01*
X58252259Y-46417497D01*
X58225060Y-46443541D01*
X58196526Y-46468460D01*
X58166655Y-46492252D01*
X58135450Y-46514919D01*
X58103337Y-46536273D01*
X58070626Y-46556250D01*
X58037316Y-46574848D01*
X58003406Y-46592069D01*
X57968897Y-46607913D01*
X57933789Y-46622378D01*
X57898082Y-46635466D01*
X57861775Y-46647177D01*
X57824870Y-46657509D01*
X57787365Y-46666464D01*
X57749262Y-46674042D01*
X57729985Y-46677314D01*
X57710559Y-46680241D01*
X57690982Y-46682824D01*
X57671257Y-46685063D01*
X57651381Y-46686957D01*
X57631355Y-46688507D01*
X57611180Y-46689713D01*
X57590855Y-46690574D01*
X57570380Y-46691090D01*
X57549755Y-46691263D01*
X57522782Y-46690988D01*
X57496144Y-46690163D01*
X57469842Y-46688790D01*
X57443876Y-46686866D01*
X57418246Y-46684393D01*
X57392951Y-46681371D01*
X57367993Y-46677799D01*
X57343370Y-46673677D01*
X57319083Y-46669006D01*
X57295132Y-46663785D01*
X57271517Y-46658015D01*
X57248237Y-46651695D01*
X57225294Y-46644826D01*
X57202686Y-46637407D01*
X57180414Y-46629439D01*
X57158478Y-46620921D01*
X57136878Y-46611853D01*
X57115614Y-46602236D01*
X57094685Y-46592069D01*
X57074092Y-46581353D01*
X57053835Y-46570088D01*
X57033914Y-46558272D01*
X57014329Y-46545908D01*
X56995080Y-46532993D01*
X56976166Y-46519529D01*
X56957588Y-46505516D01*
X56939347Y-46490953D01*
X56921441Y-46475840D01*
X56903870Y-46460178D01*
X56886636Y-46443967D01*
X56869737Y-46427206D01*
X56853175Y-46409895D01*
X56837036Y-46392179D01*
X56821410Y-46374203D01*
X56806296Y-46355966D01*
X56791694Y-46337469D01*
X56777605Y-46318712D01*
X56764028Y-46299694D01*
X56750963Y-46280415D01*
X56738411Y-46260876D01*
X56726371Y-46241077D01*
X56714844Y-46221017D01*
X56703828Y-46200697D01*
X56693325Y-46180116D01*
X56683335Y-46159274D01*
X56673857Y-46138173D01*
X56664891Y-46116811D01*
X56656437Y-46095188D01*
X56648496Y-46073305D01*
X56641067Y-46051161D01*
X56634150Y-46028757D01*
X56627746Y-46006093D01*
X56621854Y-45983168D01*
X56616475Y-45959982D01*
X56611608Y-45936536D01*
X56607253Y-45912830D01*
X56603410Y-45888863D01*
X56600080Y-45864636D01*
X56597262Y-45840148D01*
X56594957Y-45815400D01*
X56593163Y-45790391D01*
X56591883Y-45765122D01*
X56591114Y-45739593D01*
X56590858Y-45713803D01*
X56591115Y-45685591D01*
X56591888Y-45657741D01*
X56593176Y-45630254D01*
X56594979Y-45603130D01*
X56597298Y-45576368D01*
X56600131Y-45549969D01*
X56603480Y-45523933D01*
X56607344Y-45498258D01*
X56611723Y-45472947D01*
X56616618Y-45447998D01*
X56622027Y-45423411D01*
X56627952Y-45399187D01*
X56634392Y-45375326D01*
X56641347Y-45351827D01*
X56648818Y-45328691D01*
X56656803Y-45305917D01*
X56665304Y-45283506D01*
X56674320Y-45261457D01*
X56683851Y-45239771D01*
X56693898Y-45218448D01*
X56704459Y-45197487D01*
X56715536Y-45176888D01*
X56727128Y-45156652D01*
X56739235Y-45136779D01*
X56751858Y-45117268D01*
X56764995Y-45098120D01*
X56778648Y-45079334D01*
X56792816Y-45060911D01*
X56807499Y-45042850D01*
X56822698Y-45025152D01*
X56838411Y-45007817D01*
X56854640Y-44990844D01*
X56871283Y-44974285D01*
X56888241Y-44958251D01*
X56905512Y-44942743D01*
X56923097Y-44927761D01*
X56940996Y-44913304D01*
X56959208Y-44899373D01*
X56977735Y-44885968D01*
X56996576Y-44873088D01*
X57015730Y-44860734D01*
X57035199Y-44848906D01*
X57054981Y-44837604D01*
X57075077Y-44826827D01*
X57095487Y-44816576D01*
X57116211Y-44806851D01*
X57137249Y-44797651D01*
X57158600Y-44788977D01*
X57180266Y-44780829D01*
X57202245Y-44773206D01*
X57224539Y-44766109D01*
X57247146Y-44759538D01*
X57270067Y-44753493D01*
X57293302Y-44747973D01*
X57316851Y-44742979D01*
X57340714Y-44738510D01*
X57364891Y-44734568D01*
X57389381Y-44731151D01*
X57414186Y-44728259D01*
X57439304Y-44725894D01*
X57464736Y-44724054D01*
X57490482Y-44722740D01*
X57516543Y-44721951D01*
X57542916Y-44721688D01*
X57566247Y-44721888D01*
X57589344Y-44722488D01*
X57612207Y-44723487D01*
X57634836Y-44724886D01*
X57657231Y-44726685D01*
X57679393Y-44728884D01*
X57701321Y-44731482D01*
X57723015Y-44734480D01*
X57744475Y-44737878D01*
X57765702Y-44741676D01*
X57786695Y-44745874D01*
X57807454Y-44750471D01*
X57827980Y-44755468D01*
X57848272Y-44760864D01*
X57868330Y-44766661D01*
X57888154Y-44772857D01*
X57907744Y-44779453D01*
X57927101Y-44786449D01*
X57946224Y-44793844D01*
X57965113Y-44801640D01*
X57983769Y-44809835D01*
X58002190Y-44818429D01*
X58020378Y-44827424D01*
X58038333Y-44836818D01*
X58056053Y-44846612D01*
X58073540Y-44856806D01*
X58090793Y-44867400D01*
X58107812Y-44878393D01*
X58124597Y-44889786D01*
X58141149Y-44901579D01*
X58157467Y-44913771D01*
X58173551Y-44926364D01*
X58173551Y-44752951D01*
X58420725Y-44752951D01*
X58420725Y-45378213D01*
X58173551Y-45378213D01*
X58162883Y-45354315D01*
X58151516Y-45331105D01*
X58139451Y-45308581D01*
X58126687Y-45286744D01*
X58113225Y-45265594D01*
X58099065Y-45245131D01*
X58084206Y-45225355D01*
X58068649Y-45206266D01*
X58052394Y-45187864D01*
X58035440Y-45170149D01*
X58017788Y-45153120D01*
X57999437Y-45136779D01*
X57980388Y-45121125D01*
X57960640Y-45106157D01*
X57940195Y-45091876D01*
X57919050Y-45078283D01*
X57897548Y-45065388D01*
X57875903Y-45053324D01*
X57854118Y-45042093D01*
X57832192Y-45031693D01*
X57810124Y-45022126D01*
X57787915Y-45013391D01*
X57765565Y-45005487D01*
X57743073Y-44998415D01*
X57720441Y-44992176D01*
X57697667Y-44986768D01*
X57674752Y-44982192D01*
X57651696Y-44978449D01*
X57628499Y-44975537D01*
X57605160Y-44973457D01*
X57581680Y-44972209D01*
X57558060Y-44971793D01*
X57522738Y-44972604D01*
X57488214Y-44975037D01*
X57454487Y-44979092D01*
X57421558Y-44984768D01*
X57389427Y-44992067D01*
X57358093Y-45000988D01*
X57327557Y-45011530D01*
X57297819Y-45023695D01*
X57268878Y-45037481D01*
X57240735Y-45052889D01*
X57213389Y-45069919D01*
X57186841Y-45088572D01*
X57161090Y-45108846D01*
X57136138Y-45130742D01*
X57111982Y-45154260D01*
X57088625Y-45179399D01*
X57066443Y-45205776D01*
X57045691Y-45233003D01*
X57026371Y-45261081D01*
X57008483Y-45290011D01*
X56992025Y-45319791D01*
X56976998Y-45350423D01*
X56963403Y-45381905D01*
X56951238Y-45414239D01*
X56940505Y-45447423D01*
X56931203Y-45481459D01*
X56923332Y-45516346D01*
X56916892Y-45552083D01*
X56911883Y-45588672D01*
X56908305Y-45626112D01*
X56906158Y-45664403D01*
X56905443Y-45703545D01*
X56905634Y-45723761D01*
X56906210Y-45743745D01*
X56907169Y-45763497D01*
X56908511Y-45783015D01*
X56912346Y-45821354D01*
X56917716Y-45858761D01*
X56924620Y-45895237D01*
X56933057Y-45930782D01*
X56943029Y-45965396D01*
X56954535Y-45999078D01*
X56967576Y-46031830D01*
X56982150Y-46063650D01*
X56998259Y-46094539D01*
X57015901Y-46124497D01*
X57035078Y-46153524D01*
X57055789Y-46181619D01*
X57078035Y-46208784D01*
X57101814Y-46235017D01*
X57126647Y-46259979D01*
X57152052Y-46283331D01*
X57178029Y-46305073D01*
X57204579Y-46325204D01*
X57231701Y-46343724D01*
X57259396Y-46360634D01*
X57287664Y-46375934D01*
X57316503Y-46389623D01*
X57345916Y-46401701D01*
X57375900Y-46412169D01*
X57406457Y-46421027D01*
X57437587Y-46428274D01*
X57469289Y-46433911D01*
X57501563Y-46437937D01*
X57534410Y-46440353D01*
X57567829Y-46441158D01*
X57595333Y-46440587D01*
X57622524Y-46438876D01*
X57649403Y-46436023D01*
X57675968Y-46432029D01*
X57702220Y-46426895D01*
X57728159Y-46420619D01*
X57753786Y-46413202D01*
X57779099Y-46404644D01*
X57804100Y-46394944D01*
X57828787Y-46384104D01*
X57853162Y-46372123D01*
X57877224Y-46359001D01*
X57900973Y-46344737D01*
X57924409Y-46329333D01*
X57947531Y-46312787D01*
X57970341Y-46295101D01*
X57992577Y-46276357D01*
X58013977Y-46256640D01*
X58034541Y-46235950D01*
X58054269Y-46214287D01*
X58073162Y-46191650D01*
X58091219Y-46168041D01*
X58108440Y-46143458D01*
X58124825Y-46117903D01*
X58140375Y-46091374D01*
X58155088Y-46063871D01*
X58168966Y-46035396D01*
X58182008Y-46005948D01*
X58194215Y-45975526D01*
X58205585Y-45944131D01*
X58216120Y-45911763D01*
X58225819Y-45878422D01*
G37*
G36*
X60022958Y-45753370D02*
G01*
X60718562Y-45753370D01*
X60719034Y-45773321D01*
X60719378Y-45793948D01*
X60719535Y-45814765D01*
X60719539Y-45818339D01*
X60719281Y-45842975D01*
X60718509Y-45867302D01*
X60717221Y-45891320D01*
X60715417Y-45915028D01*
X60713099Y-45938428D01*
X60710265Y-45961518D01*
X60706917Y-45984300D01*
X60703053Y-46006772D01*
X60698673Y-46028935D01*
X60693779Y-46050789D01*
X60688369Y-46072334D01*
X60682445Y-46093570D01*
X60676005Y-46114496D01*
X60669049Y-46135114D01*
X60661579Y-46155422D01*
X60653593Y-46175422D01*
X60645093Y-46195112D01*
X60636077Y-46214493D01*
X60626545Y-46233565D01*
X60616499Y-46252328D01*
X60605937Y-46270781D01*
X60594861Y-46288926D01*
X60583269Y-46306761D01*
X60571161Y-46324288D01*
X60558539Y-46341505D01*
X60545401Y-46358413D01*
X60531749Y-46375012D01*
X60517581Y-46391302D01*
X60502897Y-46407283D01*
X60487699Y-46422954D01*
X60471985Y-46438317D01*
X60455757Y-46453370D01*
X60439135Y-46468006D01*
X60422181Y-46482177D01*
X60404895Y-46495884D01*
X60387277Y-46509126D01*
X60369327Y-46521904D01*
X60351045Y-46534216D01*
X60332431Y-46546065D01*
X60313485Y-46557448D01*
X60294207Y-46568367D01*
X60274597Y-46578821D01*
X60254655Y-46588811D01*
X60234381Y-46598336D01*
X60213775Y-46607396D01*
X60192837Y-46615992D01*
X60171567Y-46624123D01*
X60149965Y-46631789D01*
X60128030Y-46638991D01*
X60105764Y-46645728D01*
X60083166Y-46652001D01*
X60060236Y-46657809D01*
X60036974Y-46663152D01*
X60013379Y-46668031D01*
X59989453Y-46672445D01*
X59965195Y-46676394D01*
X59940605Y-46679879D01*
X59915682Y-46682899D01*
X59890428Y-46685455D01*
X59864842Y-46687546D01*
X59838923Y-46689172D01*
X59812673Y-46690333D01*
X59786090Y-46691030D01*
X59759176Y-46691263D01*
X59727071Y-46690975D01*
X59695480Y-46690114D01*
X59664404Y-46688678D01*
X59633841Y-46686668D01*
X59603793Y-46684083D01*
X59574259Y-46680924D01*
X59545240Y-46677191D01*
X59516734Y-46672883D01*
X59488743Y-46668001D01*
X59461267Y-46662545D01*
X59434304Y-46656514D01*
X59407856Y-46649909D01*
X59381922Y-46642730D01*
X59356502Y-46634976D01*
X59331596Y-46626648D01*
X59307205Y-46617745D01*
X59283328Y-46608269D01*
X59259965Y-46598218D01*
X59237116Y-46587592D01*
X59214782Y-46576392D01*
X59192962Y-46564618D01*
X59171656Y-46552269D01*
X59150864Y-46539346D01*
X59130587Y-46525849D01*
X59110823Y-46511777D01*
X59091574Y-46497132D01*
X59072840Y-46481911D01*
X59054619Y-46466116D01*
X59036913Y-46449747D01*
X59019721Y-46432804D01*
X59003044Y-46415286D01*
X58986880Y-46397194D01*
X58971252Y-46378679D01*
X58956121Y-46359953D01*
X58941485Y-46341016D01*
X58927346Y-46321868D01*
X58913703Y-46302510D01*
X58900556Y-46282940D01*
X58887905Y-46263160D01*
X58875750Y-46243169D01*
X58864091Y-46222967D01*
X58852928Y-46202554D01*
X58842262Y-46181930D01*
X58832091Y-46161095D01*
X58822417Y-46140050D01*
X58813239Y-46118794D01*
X58804557Y-46097326D01*
X58796371Y-46075648D01*
X58788681Y-46053760D01*
X58781487Y-46031660D01*
X58774790Y-46009349D01*
X58768588Y-45986828D01*
X58762883Y-45964096D01*
X58757674Y-45941153D01*
X58752960Y-45917999D01*
X58748743Y-45894634D01*
X58745023Y-45871058D01*
X58741798Y-45847272D01*
X58739069Y-45823275D01*
X58736837Y-45799066D01*
X58735100Y-45774647D01*
X58733860Y-45750017D01*
X58733116Y-45725177D01*
X58732868Y-45700125D01*
X58733121Y-45673947D01*
X58733881Y-45648048D01*
X58735147Y-45622427D01*
X58736921Y-45597085D01*
X58739200Y-45572022D01*
X58741987Y-45547237D01*
X58745280Y-45522730D01*
X58749079Y-45498503D01*
X58753385Y-45474553D01*
X58758198Y-45450883D01*
X58763518Y-45427491D01*
X58769344Y-45404378D01*
X58775676Y-45381543D01*
X58782516Y-45358987D01*
X58789862Y-45336709D01*
X58797714Y-45314710D01*
X58806073Y-45292989D01*
X58814939Y-45271548D01*
X58824311Y-45250384D01*
X58834190Y-45229500D01*
X58844576Y-45208894D01*
X58855468Y-45188566D01*
X58866867Y-45168517D01*
X58878772Y-45148747D01*
X58891184Y-45129255D01*
X58904103Y-45110042D01*
X58917528Y-45091107D01*
X58931460Y-45072452D01*
X58945898Y-45054074D01*
X58960844Y-45035975D01*
X58976295Y-45018155D01*
X58992254Y-45000614D01*
X59008676Y-44983453D01*
X59025461Y-44966837D01*
X59042607Y-44950767D01*
X59060115Y-44935240D01*
X59077984Y-44920259D01*
X59096215Y-44905823D01*
X59114808Y-44891931D01*
X59133762Y-44878584D01*
X59153077Y-44865782D01*
X59172755Y-44853524D01*
X59192794Y-44841811D01*
X59213194Y-44830643D01*
X59233956Y-44820020D01*
X59255080Y-44809942D01*
X59276565Y-44800408D01*
X59298412Y-44791420D01*
X59320620Y-44782976D01*
X59343190Y-44775076D01*
X59366122Y-44767722D01*
X59389415Y-44760912D01*
X59413070Y-44754647D01*
X59437087Y-44748927D01*
X59461465Y-44743752D01*
X59486204Y-44739121D01*
X59511305Y-44735035D01*
X59536768Y-44731494D01*
X59562593Y-44728498D01*
X59588779Y-44726046D01*
X59615326Y-44724140D01*
X59642235Y-44722778D01*
X59669506Y-44721961D01*
X59697138Y-44721688D01*
X59722016Y-44721926D01*
X59746641Y-44722639D01*
X59771014Y-44723826D01*
X59795133Y-44725489D01*
X59819000Y-44727627D01*
X59842614Y-44730241D01*
X59865975Y-44733329D01*
X59889083Y-44736892D01*
X59911938Y-44740931D01*
X59934541Y-44745445D01*
X59956890Y-44750434D01*
X59978987Y-44755898D01*
X60000831Y-44761837D01*
X60022422Y-44768251D01*
X60043760Y-44775140D01*
X60064846Y-44782505D01*
X60085679Y-44790344D01*
X60106258Y-44798659D01*
X60126586Y-44807449D01*
X60146660Y-44816714D01*
X60166481Y-44826454D01*
X60186050Y-44836669D01*
X60205365Y-44847360D01*
X60224428Y-44858525D01*
X60243238Y-44870166D01*
X60261795Y-44882282D01*
X60280100Y-44894873D01*
X60298151Y-44907939D01*
X60315950Y-44921480D01*
X60333496Y-44935496D01*
X60350789Y-44949988D01*
X60367829Y-44964954D01*
X60367829Y-44752951D01*
X60611095Y-44752951D01*
X60611095Y-45378213D01*
X60367829Y-45378213D01*
X60358804Y-45358506D01*
X60348946Y-45339073D01*
X60338257Y-45319915D01*
X60326735Y-45301032D01*
X60314382Y-45282424D01*
X60301197Y-45264091D01*
X60287179Y-45246032D01*
X60272330Y-45228248D01*
X60256649Y-45210739D01*
X60240136Y-45193504D01*
X60222791Y-45176545D01*
X60204614Y-45159860D01*
X60185605Y-45143450D01*
X60165764Y-45127315D01*
X60145091Y-45111454D01*
X60123586Y-45095868D01*
X60101530Y-45080844D01*
X60079081Y-45066788D01*
X60056238Y-45053702D01*
X60033003Y-45041585D01*
X60009374Y-45030438D01*
X59985353Y-45020260D01*
X59960938Y-45011051D01*
X59936130Y-45002812D01*
X59910929Y-44995542D01*
X59885335Y-44989241D01*
X59859348Y-44983910D01*
X59832968Y-44979548D01*
X59806195Y-44976155D01*
X59779028Y-44973732D01*
X59751469Y-44972278D01*
X59723517Y-44971793D01*
X59684892Y-44972623D01*
X59647298Y-44975113D01*
X59610734Y-44979263D01*
X59575200Y-44985074D01*
X59540697Y-44992544D01*
X59507224Y-45001675D01*
X59474782Y-45012465D01*
X59443370Y-45024916D01*
X59412989Y-45039027D01*
X59383637Y-45054797D01*
X59355317Y-45072228D01*
X59328026Y-45091319D01*
X59301766Y-45112070D01*
X59276537Y-45134482D01*
X59252338Y-45158553D01*
X59229169Y-45184284D01*
X59207223Y-45211124D01*
X59186694Y-45238644D01*
X59167580Y-45266842D01*
X59149882Y-45295720D01*
X59133600Y-45325277D01*
X59118733Y-45355514D01*
X59105283Y-45386430D01*
X59093248Y-45418025D01*
X59082629Y-45450299D01*
X59073426Y-45483253D01*
X59065639Y-45516886D01*
X59059268Y-45551198D01*
X59054312Y-45586190D01*
X59050773Y-45621861D01*
X59048649Y-45658211D01*
X59047941Y-45695240D01*
X59048143Y-45716564D01*
X59048748Y-45737611D01*
X59049757Y-45758379D01*
X59051169Y-45778871D01*
X59052986Y-45799084D01*
X59055205Y-45819020D01*
X59057828Y-45838678D01*
X59060855Y-45858059D01*
X59068120Y-45895987D01*
X59076998Y-45932805D01*
X59087491Y-45968512D01*
X59099598Y-46003108D01*
X59113320Y-46036594D01*
X59128656Y-46068970D01*
X59145606Y-46100235D01*
X59164170Y-46130389D01*
X59184349Y-46159433D01*
X59206142Y-46187367D01*
X59229549Y-46214190D01*
X59254570Y-46239902D01*
X59280729Y-46264273D01*
X59307548Y-46287071D01*
X59335027Y-46308297D01*
X59363167Y-46327951D01*
X59391966Y-46346033D01*
X59421426Y-46362542D01*
X59451546Y-46377479D01*
X59482327Y-46390844D01*
X59513767Y-46402636D01*
X59545868Y-46412856D01*
X59578629Y-46421504D01*
X59612050Y-46428579D01*
X59646132Y-46434082D01*
X59680873Y-46438013D01*
X59716275Y-46440372D01*
X59752337Y-46441158D01*
X59780658Y-46440687D01*
X59808589Y-46439273D01*
X59836132Y-46436916D01*
X59863285Y-46433617D01*
X59890048Y-46429375D01*
X59916423Y-46424191D01*
X59942408Y-46418064D01*
X59968004Y-46410994D01*
X59993210Y-46402982D01*
X60018028Y-46394027D01*
X60042456Y-46384129D01*
X60066495Y-46373289D01*
X60090144Y-46361506D01*
X60113405Y-46348781D01*
X60136276Y-46335113D01*
X60158757Y-46320502D01*
X60180525Y-46305067D01*
X60201133Y-46289048D01*
X60220581Y-46272445D01*
X60238869Y-46255259D01*
X60255997Y-46237488D01*
X60271964Y-46219134D01*
X60286771Y-46200195D01*
X60300418Y-46180673D01*
X60312905Y-46160567D01*
X60324232Y-46139877D01*
X60334398Y-46118603D01*
X60343405Y-46096745D01*
X60351251Y-46074303D01*
X60357937Y-46051278D01*
X60363463Y-46027668D01*
X60367829Y-46003475D01*
X60022958Y-46003475D01*
X60022958Y-45753370D01*
G37*
G36*
X61684027Y-44753096D02*
G01*
X61713256Y-44753531D01*
X61741699Y-44754257D01*
X61769356Y-44755272D01*
X61796226Y-44756577D01*
X61822311Y-44758172D01*
X61847609Y-44760057D01*
X61872121Y-44762233D01*
X61895847Y-44764698D01*
X61918787Y-44767453D01*
X61940940Y-44770499D01*
X61962308Y-44773834D01*
X61982889Y-44777460D01*
X62002684Y-44781375D01*
X62030903Y-44787792D01*
X62039916Y-44790076D01*
X62066314Y-44797763D01*
X62091836Y-44806900D01*
X62116483Y-44817489D01*
X62140254Y-44829529D01*
X62163149Y-44843020D01*
X62185168Y-44857962D01*
X62206311Y-44874356D01*
X62226578Y-44892200D01*
X62245970Y-44911496D01*
X62264486Y-44932243D01*
X62276343Y-44946880D01*
X62293104Y-44969744D01*
X62308217Y-44993637D01*
X62321680Y-45018562D01*
X62333496Y-45044516D01*
X62343662Y-45071501D01*
X62352180Y-45099517D01*
X62356943Y-45118766D01*
X62360973Y-45138473D01*
X62364270Y-45158639D01*
X62366835Y-45179262D01*
X62368667Y-45200343D01*
X62369766Y-45221882D01*
X62370132Y-45243879D01*
X62369747Y-45266874D01*
X62368590Y-45289328D01*
X62366663Y-45311242D01*
X62363965Y-45332616D01*
X62360496Y-45353450D01*
X62356256Y-45373744D01*
X62351245Y-45393498D01*
X62345464Y-45412712D01*
X62338911Y-45431386D01*
X62331588Y-45449521D01*
X62314628Y-45484169D01*
X62294585Y-45516657D01*
X62271458Y-45546985D01*
X62245248Y-45575153D01*
X62215954Y-45601161D01*
X62200151Y-45613355D01*
X62183576Y-45625009D01*
X62166231Y-45636123D01*
X62148115Y-45646697D01*
X62129228Y-45656731D01*
X62109571Y-45666225D01*
X62089142Y-45675179D01*
X62067943Y-45683593D01*
X62045972Y-45691467D01*
X62023231Y-45698801D01*
X61999719Y-45705595D01*
X61975436Y-45711849D01*
X62313468Y-46409895D01*
X62546964Y-46409895D01*
X62546964Y-46660000D01*
X62133705Y-46660000D01*
X61697976Y-45753370D01*
X61428820Y-45753370D01*
X61428820Y-46409895D01*
X61673551Y-46409895D01*
X61673551Y-46660000D01*
X60877808Y-46660000D01*
X60877808Y-46409895D01*
X61140125Y-46409895D01*
X61140125Y-45003056D01*
X61428820Y-45003056D01*
X61428820Y-45503265D01*
X61654012Y-45503265D01*
X61674132Y-45503189D01*
X61703051Y-45502788D01*
X61730460Y-45502044D01*
X61756357Y-45500957D01*
X61780744Y-45499525D01*
X61803618Y-45497751D01*
X61824982Y-45495633D01*
X61844834Y-45493171D01*
X61868953Y-45489355D01*
X61890386Y-45484928D01*
X61895324Y-45483726D01*
X61914299Y-45478093D01*
X61936772Y-45469292D01*
X61957862Y-45458535D01*
X61977568Y-45445822D01*
X61995891Y-45431153D01*
X62012831Y-45414528D01*
X62022330Y-45403614D01*
X62033894Y-45387822D01*
X62043915Y-45370733D01*
X62052395Y-45352346D01*
X62059333Y-45332662D01*
X62064729Y-45311680D01*
X62068584Y-45289400D01*
X62070896Y-45265823D01*
X62071667Y-45240949D01*
X62070881Y-45219753D01*
X62068523Y-45199397D01*
X62064592Y-45179880D01*
X62057467Y-45156665D01*
X62047886Y-45134762D01*
X62035848Y-45114171D01*
X62021353Y-45094891D01*
X62005198Y-45077200D01*
X61987875Y-45061680D01*
X61969383Y-45048330D01*
X61949721Y-45037151D01*
X61928892Y-45028142D01*
X61906893Y-45021304D01*
X61897766Y-45019176D01*
X61878235Y-45015398D01*
X61856276Y-45012124D01*
X61831890Y-45009353D01*
X61812007Y-45007606D01*
X61790759Y-45006141D01*
X61768146Y-45004961D01*
X61744168Y-45004064D01*
X61718825Y-45003450D01*
X61692116Y-45003119D01*
X61673551Y-45003056D01*
X61428820Y-45003056D01*
X61140125Y-45003056D01*
X60877808Y-45003056D01*
X60877808Y-44752951D01*
X61654012Y-44752951D01*
X61684027Y-44753096D01*
G37*
X20790476Y-32630000D02*
X20933333Y-32677619D01*
X20933333Y-32677619D02*
X21171428Y-32677619D01*
X21171428Y-32677619D02*
X21266666Y-32630000D01*
X21266666Y-32630000D02*
X21314285Y-32582380D01*
X21314285Y-32582380D02*
X21361904Y-32487142D01*
X21361904Y-32487142D02*
X21361904Y-32391904D01*
X21361904Y-32391904D02*
X21314285Y-32296666D01*
X21314285Y-32296666D02*
X21266666Y-32249047D01*
X21266666Y-32249047D02*
X21171428Y-32201428D01*
X21171428Y-32201428D02*
X20980952Y-32153809D01*
X20980952Y-32153809D02*
X20885714Y-32106190D01*
X20885714Y-32106190D02*
X20838095Y-32058571D01*
X20838095Y-32058571D02*
X20790476Y-31963333D01*
X20790476Y-31963333D02*
X20790476Y-31868095D01*
X20790476Y-31868095D02*
X20838095Y-31772857D01*
X20838095Y-31772857D02*
X20885714Y-31725238D01*
X20885714Y-31725238D02*
X20980952Y-31677619D01*
X20980952Y-31677619D02*
X21219047Y-31677619D01*
X21219047Y-31677619D02*
X21361904Y-31725238D01*
X21790476Y-32677619D02*
X21790476Y-31677619D01*
X22266666Y-32677619D02*
X22266666Y-31677619D01*
X22266666Y-31677619D02*
X22838094Y-32677619D01*
X22838094Y-32677619D02*
X22838094Y-31677619D01*
X48290476Y-31991904D02*
X48766666Y-31991904D01*
X48195238Y-32277619D02*
X48528571Y-31277619D01*
X48528571Y-31277619D02*
X48861904Y-32277619D01*
X49100000Y-31277619D02*
X49719047Y-31277619D01*
X49719047Y-31277619D02*
X49385714Y-31658571D01*
X49385714Y-31658571D02*
X49528571Y-31658571D01*
X49528571Y-31658571D02*
X49623809Y-31706190D01*
X49623809Y-31706190D02*
X49671428Y-31753809D01*
X49671428Y-31753809D02*
X49719047Y-31849047D01*
X49719047Y-31849047D02*
X49719047Y-32087142D01*
X49719047Y-32087142D02*
X49671428Y-32182380D01*
X49671428Y-32182380D02*
X49623809Y-32230000D01*
X49623809Y-32230000D02*
X49528571Y-32277619D01*
X49528571Y-32277619D02*
X49242857Y-32277619D01*
X49242857Y-32277619D02*
X49147619Y-32230000D01*
X49147619Y-32230000D02*
X49100000Y-32182380D01*
X20790476Y-35180000D02*
X20933333Y-35227619D01*
X20933333Y-35227619D02*
X21171428Y-35227619D01*
X21171428Y-35227619D02*
X21266666Y-35180000D01*
X21266666Y-35180000D02*
X21314285Y-35132380D01*
X21314285Y-35132380D02*
X21361904Y-35037142D01*
X21361904Y-35037142D02*
X21361904Y-34941904D01*
X21361904Y-34941904D02*
X21314285Y-34846666D01*
X21314285Y-34846666D02*
X21266666Y-34799047D01*
X21266666Y-34799047D02*
X21171428Y-34751428D01*
X21171428Y-34751428D02*
X20980952Y-34703809D01*
X20980952Y-34703809D02*
X20885714Y-34656190D01*
X20885714Y-34656190D02*
X20838095Y-34608571D01*
X20838095Y-34608571D02*
X20790476Y-34513333D01*
X20790476Y-34513333D02*
X20790476Y-34418095D01*
X20790476Y-34418095D02*
X20838095Y-34322857D01*
X20838095Y-34322857D02*
X20885714Y-34275238D01*
X20885714Y-34275238D02*
X20980952Y-34227619D01*
X20980952Y-34227619D02*
X21219047Y-34227619D01*
X21219047Y-34227619D02*
X21361904Y-34275238D01*
X22361904Y-35132380D02*
X22314285Y-35180000D01*
X22314285Y-35180000D02*
X22171428Y-35227619D01*
X22171428Y-35227619D02*
X22076190Y-35227619D01*
X22076190Y-35227619D02*
X21933333Y-35180000D01*
X21933333Y-35180000D02*
X21838095Y-35084761D01*
X21838095Y-35084761D02*
X21790476Y-34989523D01*
X21790476Y-34989523D02*
X21742857Y-34799047D01*
X21742857Y-34799047D02*
X21742857Y-34656190D01*
X21742857Y-34656190D02*
X21790476Y-34465714D01*
X21790476Y-34465714D02*
X21838095Y-34370476D01*
X21838095Y-34370476D02*
X21933333Y-34275238D01*
X21933333Y-34275238D02*
X22076190Y-34227619D01*
X22076190Y-34227619D02*
X22171428Y-34227619D01*
X22171428Y-34227619D02*
X22314285Y-34275238D01*
X22314285Y-34275238D02*
X22361904Y-34322857D01*
X23266666Y-35227619D02*
X22790476Y-35227619D01*
X22790476Y-35227619D02*
X22790476Y-34227619D01*
X51990476Y-31941904D02*
X52466666Y-31941904D01*
X51895238Y-32227619D02*
X52228571Y-31227619D01*
X52228571Y-31227619D02*
X52561904Y-32227619D01*
X52847619Y-31322857D02*
X52895238Y-31275238D01*
X52895238Y-31275238D02*
X52990476Y-31227619D01*
X52990476Y-31227619D02*
X53228571Y-31227619D01*
X53228571Y-31227619D02*
X53323809Y-31275238D01*
X53323809Y-31275238D02*
X53371428Y-31322857D01*
X53371428Y-31322857D02*
X53419047Y-31418095D01*
X53419047Y-31418095D02*
X53419047Y-31513333D01*
X53419047Y-31513333D02*
X53371428Y-31656190D01*
X53371428Y-31656190D02*
X52800000Y-32227619D01*
X52800000Y-32227619D02*
X53419047Y-32227619D01*
X37150476Y-31941904D02*
X37626666Y-31941904D01*
X37055238Y-32227619D02*
X37388571Y-31227619D01*
X37388571Y-31227619D02*
X37721904Y-32227619D01*
X38483809Y-31227619D02*
X38293333Y-31227619D01*
X38293333Y-31227619D02*
X38198095Y-31275238D01*
X38198095Y-31275238D02*
X38150476Y-31322857D01*
X38150476Y-31322857D02*
X38055238Y-31465714D01*
X38055238Y-31465714D02*
X38007619Y-31656190D01*
X38007619Y-31656190D02*
X38007619Y-32037142D01*
X38007619Y-32037142D02*
X38055238Y-32132380D01*
X38055238Y-32132380D02*
X38102857Y-32180000D01*
X38102857Y-32180000D02*
X38198095Y-32227619D01*
X38198095Y-32227619D02*
X38388571Y-32227619D01*
X38388571Y-32227619D02*
X38483809Y-32180000D01*
X38483809Y-32180000D02*
X38531428Y-32132380D01*
X38531428Y-32132380D02*
X38579047Y-32037142D01*
X38579047Y-32037142D02*
X38579047Y-31799047D01*
X38579047Y-31799047D02*
X38531428Y-31703809D01*
X38531428Y-31703809D02*
X38483809Y-31656190D01*
X38483809Y-31656190D02*
X38388571Y-31608571D01*
X38388571Y-31608571D02*
X38198095Y-31608571D01*
X38198095Y-31608571D02*
X38102857Y-31656190D01*
X38102857Y-31656190D02*
X38055238Y-31703809D01*
X38055238Y-31703809D02*
X38007619Y-31799047D01*
X67309523Y-27532380D02*
X67261904Y-27580000D01*
X67261904Y-27580000D02*
X67119047Y-27627619D01*
X67119047Y-27627619D02*
X67023809Y-27627619D01*
X67023809Y-27627619D02*
X66880952Y-27580000D01*
X66880952Y-27580000D02*
X66785714Y-27484761D01*
X66785714Y-27484761D02*
X66738095Y-27389523D01*
X66738095Y-27389523D02*
X66690476Y-27199047D01*
X66690476Y-27199047D02*
X66690476Y-27056190D01*
X66690476Y-27056190D02*
X66738095Y-26865714D01*
X66738095Y-26865714D02*
X66785714Y-26770476D01*
X66785714Y-26770476D02*
X66880952Y-26675238D01*
X66880952Y-26675238D02*
X67023809Y-26627619D01*
X67023809Y-26627619D02*
X67119047Y-26627619D01*
X67119047Y-26627619D02*
X67261904Y-26675238D01*
X67261904Y-26675238D02*
X67309523Y-26722857D01*
X68214285Y-27627619D02*
X67738095Y-27627619D01*
X67738095Y-27627619D02*
X67738095Y-26627619D01*
X68547619Y-27627619D02*
X68547619Y-26627619D01*
X69119047Y-27627619D02*
X68690476Y-27056190D01*
X69119047Y-26627619D02*
X68547619Y-27199047D01*
X66690476Y-37680000D02*
X66833333Y-37727619D01*
X66833333Y-37727619D02*
X67071428Y-37727619D01*
X67071428Y-37727619D02*
X67166666Y-37680000D01*
X67166666Y-37680000D02*
X67214285Y-37632380D01*
X67214285Y-37632380D02*
X67261904Y-37537142D01*
X67261904Y-37537142D02*
X67261904Y-37441904D01*
X67261904Y-37441904D02*
X67214285Y-37346666D01*
X67214285Y-37346666D02*
X67166666Y-37299047D01*
X67166666Y-37299047D02*
X67071428Y-37251428D01*
X67071428Y-37251428D02*
X66880952Y-37203809D01*
X66880952Y-37203809D02*
X66785714Y-37156190D01*
X66785714Y-37156190D02*
X66738095Y-37108571D01*
X66738095Y-37108571D02*
X66690476Y-37013333D01*
X66690476Y-37013333D02*
X66690476Y-36918095D01*
X66690476Y-36918095D02*
X66738095Y-36822857D01*
X66738095Y-36822857D02*
X66785714Y-36775238D01*
X66785714Y-36775238D02*
X66880952Y-36727619D01*
X66880952Y-36727619D02*
X67119047Y-36727619D01*
X67119047Y-36727619D02*
X67261904Y-36775238D01*
X67690476Y-37727619D02*
X67690476Y-36727619D01*
X67690476Y-36727619D02*
X67928571Y-36727619D01*
X67928571Y-36727619D02*
X68071428Y-36775238D01*
X68071428Y-36775238D02*
X68166666Y-36870476D01*
X68166666Y-36870476D02*
X68214285Y-36965714D01*
X68214285Y-36965714D02*
X68261904Y-37156190D01*
X68261904Y-37156190D02*
X68261904Y-37299047D01*
X68261904Y-37299047D02*
X68214285Y-37489523D01*
X68214285Y-37489523D02*
X68166666Y-37584761D01*
X68166666Y-37584761D02*
X68071428Y-37680000D01*
X68071428Y-37680000D02*
X67928571Y-37727619D01*
X67928571Y-37727619D02*
X67690476Y-37727619D01*
X68642857Y-37441904D02*
X69119047Y-37441904D01*
X68547619Y-37727619D02*
X68880952Y-36727619D01*
X68880952Y-36727619D02*
X69214285Y-37727619D01*
X50195238Y-52827619D02*
X50528571Y-53827619D01*
X50528571Y-53827619D02*
X50861904Y-52827619D01*
X51766666Y-53732380D02*
X51719047Y-53780000D01*
X51719047Y-53780000D02*
X51576190Y-53827619D01*
X51576190Y-53827619D02*
X51480952Y-53827619D01*
X51480952Y-53827619D02*
X51338095Y-53780000D01*
X51338095Y-53780000D02*
X51242857Y-53684761D01*
X51242857Y-53684761D02*
X51195238Y-53589523D01*
X51195238Y-53589523D02*
X51147619Y-53399047D01*
X51147619Y-53399047D02*
X51147619Y-53256190D01*
X51147619Y-53256190D02*
X51195238Y-53065714D01*
X51195238Y-53065714D02*
X51242857Y-52970476D01*
X51242857Y-52970476D02*
X51338095Y-52875238D01*
X51338095Y-52875238D02*
X51480952Y-52827619D01*
X51480952Y-52827619D02*
X51576190Y-52827619D01*
X51576190Y-52827619D02*
X51719047Y-52875238D01*
X51719047Y-52875238D02*
X51766666Y-52922857D01*
X52766666Y-53732380D02*
X52719047Y-53780000D01*
X52719047Y-53780000D02*
X52576190Y-53827619D01*
X52576190Y-53827619D02*
X52480952Y-53827619D01*
X52480952Y-53827619D02*
X52338095Y-53780000D01*
X52338095Y-53780000D02*
X52242857Y-53684761D01*
X52242857Y-53684761D02*
X52195238Y-53589523D01*
X52195238Y-53589523D02*
X52147619Y-53399047D01*
X52147619Y-53399047D02*
X52147619Y-53256190D01*
X52147619Y-53256190D02*
X52195238Y-53065714D01*
X52195238Y-53065714D02*
X52242857Y-52970476D01*
X52242857Y-52970476D02*
X52338095Y-52875238D01*
X52338095Y-52875238D02*
X52480952Y-52827619D01*
X52480952Y-52827619D02*
X52576190Y-52827619D01*
X52576190Y-52827619D02*
X52719047Y-52875238D01*
X52719047Y-52875238D02*
X52766666Y-52922857D01*
%TO.C,D3*%
X68224405Y-54572619D02*
X68224405Y-53572619D01*
X68224405Y-53572619D02*
X68462500Y-53572619D01*
X68462500Y-53572619D02*
X68605357Y-53620238D01*
X68605357Y-53620238D02*
X68700595Y-53715476D01*
X68700595Y-53715476D02*
X68748214Y-53810714D01*
X68748214Y-53810714D02*
X68795833Y-54001190D01*
X68795833Y-54001190D02*
X68795833Y-54144047D01*
X68795833Y-54144047D02*
X68748214Y-54334523D01*
X68748214Y-54334523D02*
X68700595Y-54429761D01*
X68700595Y-54429761D02*
X68605357Y-54525000D01*
X68605357Y-54525000D02*
X68462500Y-54572619D01*
X68462500Y-54572619D02*
X68224405Y-54572619D01*
X69129167Y-53572619D02*
X69748214Y-53572619D01*
X69748214Y-53572619D02*
X69414881Y-53953571D01*
X69414881Y-53953571D02*
X69557738Y-53953571D01*
X69557738Y-53953571D02*
X69652976Y-54001190D01*
X69652976Y-54001190D02*
X69700595Y-54048809D01*
X69700595Y-54048809D02*
X69748214Y-54144047D01*
X69748214Y-54144047D02*
X69748214Y-54382142D01*
X69748214Y-54382142D02*
X69700595Y-54477380D01*
X69700595Y-54477380D02*
X69652976Y-54525000D01*
X69652976Y-54525000D02*
X69557738Y-54572619D01*
X69557738Y-54572619D02*
X69272024Y-54572619D01*
X69272024Y-54572619D02*
X69176786Y-54525000D01*
X69176786Y-54525000D02*
X69129167Y-54477380D01*
%TO.C,D1*%
X68224405Y-49392619D02*
X68224405Y-48392619D01*
X68224405Y-48392619D02*
X68462500Y-48392619D01*
X68462500Y-48392619D02*
X68605357Y-48440238D01*
X68605357Y-48440238D02*
X68700595Y-48535476D01*
X68700595Y-48535476D02*
X68748214Y-48630714D01*
X68748214Y-48630714D02*
X68795833Y-48821190D01*
X68795833Y-48821190D02*
X68795833Y-48964047D01*
X68795833Y-48964047D02*
X68748214Y-49154523D01*
X68748214Y-49154523D02*
X68700595Y-49249761D01*
X68700595Y-49249761D02*
X68605357Y-49345000D01*
X68605357Y-49345000D02*
X68462500Y-49392619D01*
X68462500Y-49392619D02*
X68224405Y-49392619D01*
X69748214Y-49392619D02*
X69176786Y-49392619D01*
X69462500Y-49392619D02*
X69462500Y-48392619D01*
X69462500Y-48392619D02*
X69367262Y-48535476D01*
X69367262Y-48535476D02*
X69272024Y-48630714D01*
X69272024Y-48630714D02*
X69176786Y-48678333D01*
%TO.C,J4*%
X52416666Y-19132619D02*
X52416666Y-19846904D01*
X52416666Y-19846904D02*
X52369047Y-19989761D01*
X52369047Y-19989761D02*
X52273809Y-20085000D01*
X52273809Y-20085000D02*
X52130952Y-20132619D01*
X52130952Y-20132619D02*
X52035714Y-20132619D01*
X53321428Y-19465952D02*
X53321428Y-20132619D01*
X53083333Y-19085000D02*
X52845238Y-19799285D01*
X52845238Y-19799285D02*
X53464285Y-19799285D01*
%TO.C,U5*%
X33738095Y-32362619D02*
X33738095Y-33172142D01*
X33738095Y-33172142D02*
X33785714Y-33267380D01*
X33785714Y-33267380D02*
X33833333Y-33315000D01*
X33833333Y-33315000D02*
X33928571Y-33362619D01*
X33928571Y-33362619D02*
X34119047Y-33362619D01*
X34119047Y-33362619D02*
X34214285Y-33315000D01*
X34214285Y-33315000D02*
X34261904Y-33267380D01*
X34261904Y-33267380D02*
X34309523Y-33172142D01*
X34309523Y-33172142D02*
X34309523Y-32362619D01*
X35261904Y-32362619D02*
X34785714Y-32362619D01*
X34785714Y-32362619D02*
X34738095Y-32838809D01*
X34738095Y-32838809D02*
X34785714Y-32791190D01*
X34785714Y-32791190D02*
X34880952Y-32743571D01*
X34880952Y-32743571D02*
X35119047Y-32743571D01*
X35119047Y-32743571D02*
X35214285Y-32791190D01*
X35214285Y-32791190D02*
X35261904Y-32838809D01*
X35261904Y-32838809D02*
X35309523Y-32934047D01*
X35309523Y-32934047D02*
X35309523Y-33172142D01*
X35309523Y-33172142D02*
X35261904Y-33267380D01*
X35261904Y-33267380D02*
X35214285Y-33315000D01*
X35214285Y-33315000D02*
X35119047Y-33362619D01*
X35119047Y-33362619D02*
X34880952Y-33362619D01*
X34880952Y-33362619D02*
X34785714Y-33315000D01*
X34785714Y-33315000D02*
X34738095Y-33267380D01*
%TO.C,J15*%
X39940476Y-54912619D02*
X39940476Y-55626904D01*
X39940476Y-55626904D02*
X39892857Y-55769761D01*
X39892857Y-55769761D02*
X39797619Y-55865000D01*
X39797619Y-55865000D02*
X39654762Y-55912619D01*
X39654762Y-55912619D02*
X39559524Y-55912619D01*
X40940476Y-55912619D02*
X40369048Y-55912619D01*
X40654762Y-55912619D02*
X40654762Y-54912619D01*
X40654762Y-54912619D02*
X40559524Y-55055476D01*
X40559524Y-55055476D02*
X40464286Y-55150714D01*
X40464286Y-55150714D02*
X40369048Y-55198333D01*
X41845238Y-54912619D02*
X41369048Y-54912619D01*
X41369048Y-54912619D02*
X41321429Y-55388809D01*
X41321429Y-55388809D02*
X41369048Y-55341190D01*
X41369048Y-55341190D02*
X41464286Y-55293571D01*
X41464286Y-55293571D02*
X41702381Y-55293571D01*
X41702381Y-55293571D02*
X41797619Y-55341190D01*
X41797619Y-55341190D02*
X41845238Y-55388809D01*
X41845238Y-55388809D02*
X41892857Y-55484047D01*
X41892857Y-55484047D02*
X41892857Y-55722142D01*
X41892857Y-55722142D02*
X41845238Y-55817380D01*
X41845238Y-55817380D02*
X41797619Y-55865000D01*
X41797619Y-55865000D02*
X41702381Y-55912619D01*
X41702381Y-55912619D02*
X41464286Y-55912619D01*
X41464286Y-55912619D02*
X41369048Y-55865000D01*
X41369048Y-55865000D02*
X41321429Y-55817380D01*
%TO.C,R3*%
X71745833Y-46792619D02*
X71412500Y-46316428D01*
X71174405Y-46792619D02*
X71174405Y-45792619D01*
X71174405Y-45792619D02*
X71555357Y-45792619D01*
X71555357Y-45792619D02*
X71650595Y-45840238D01*
X71650595Y-45840238D02*
X71698214Y-45887857D01*
X71698214Y-45887857D02*
X71745833Y-45983095D01*
X71745833Y-45983095D02*
X71745833Y-46125952D01*
X71745833Y-46125952D02*
X71698214Y-46221190D01*
X71698214Y-46221190D02*
X71650595Y-46268809D01*
X71650595Y-46268809D02*
X71555357Y-46316428D01*
X71555357Y-46316428D02*
X71174405Y-46316428D01*
X72079167Y-45792619D02*
X72698214Y-45792619D01*
X72698214Y-45792619D02*
X72364881Y-46173571D01*
X72364881Y-46173571D02*
X72507738Y-46173571D01*
X72507738Y-46173571D02*
X72602976Y-46221190D01*
X72602976Y-46221190D02*
X72650595Y-46268809D01*
X72650595Y-46268809D02*
X72698214Y-46364047D01*
X72698214Y-46364047D02*
X72698214Y-46602142D01*
X72698214Y-46602142D02*
X72650595Y-46697380D01*
X72650595Y-46697380D02*
X72602976Y-46745000D01*
X72602976Y-46745000D02*
X72507738Y-46792619D01*
X72507738Y-46792619D02*
X72222024Y-46792619D01*
X72222024Y-46792619D02*
X72126786Y-46745000D01*
X72126786Y-46745000D02*
X72079167Y-46697380D01*
%TO.C,U2*%
X26238095Y-23962619D02*
X26238095Y-24772142D01*
X26238095Y-24772142D02*
X26285714Y-24867380D01*
X26285714Y-24867380D02*
X26333333Y-24915000D01*
X26333333Y-24915000D02*
X26428571Y-24962619D01*
X26428571Y-24962619D02*
X26619047Y-24962619D01*
X26619047Y-24962619D02*
X26714285Y-24915000D01*
X26714285Y-24915000D02*
X26761904Y-24867380D01*
X26761904Y-24867380D02*
X26809523Y-24772142D01*
X26809523Y-24772142D02*
X26809523Y-23962619D01*
X27238095Y-24057857D02*
X27285714Y-24010238D01*
X27285714Y-24010238D02*
X27380952Y-23962619D01*
X27380952Y-23962619D02*
X27619047Y-23962619D01*
X27619047Y-23962619D02*
X27714285Y-24010238D01*
X27714285Y-24010238D02*
X27761904Y-24057857D01*
X27761904Y-24057857D02*
X27809523Y-24153095D01*
X27809523Y-24153095D02*
X27809523Y-24248333D01*
X27809523Y-24248333D02*
X27761904Y-24391190D01*
X27761904Y-24391190D02*
X27190476Y-24962619D01*
X27190476Y-24962619D02*
X27809523Y-24962619D01*
%TO.C,J8*%
X37416666Y-19132619D02*
X37416666Y-19846904D01*
X37416666Y-19846904D02*
X37369047Y-19989761D01*
X37369047Y-19989761D02*
X37273809Y-20085000D01*
X37273809Y-20085000D02*
X37130952Y-20132619D01*
X37130952Y-20132619D02*
X37035714Y-20132619D01*
X38035714Y-19561190D02*
X37940476Y-19513571D01*
X37940476Y-19513571D02*
X37892857Y-19465952D01*
X37892857Y-19465952D02*
X37845238Y-19370714D01*
X37845238Y-19370714D02*
X37845238Y-19323095D01*
X37845238Y-19323095D02*
X37892857Y-19227857D01*
X37892857Y-19227857D02*
X37940476Y-19180238D01*
X37940476Y-19180238D02*
X38035714Y-19132619D01*
X38035714Y-19132619D02*
X38226190Y-19132619D01*
X38226190Y-19132619D02*
X38321428Y-19180238D01*
X38321428Y-19180238D02*
X38369047Y-19227857D01*
X38369047Y-19227857D02*
X38416666Y-19323095D01*
X38416666Y-19323095D02*
X38416666Y-19370714D01*
X38416666Y-19370714D02*
X38369047Y-19465952D01*
X38369047Y-19465952D02*
X38321428Y-19513571D01*
X38321428Y-19513571D02*
X38226190Y-19561190D01*
X38226190Y-19561190D02*
X38035714Y-19561190D01*
X38035714Y-19561190D02*
X37940476Y-19608809D01*
X37940476Y-19608809D02*
X37892857Y-19656428D01*
X37892857Y-19656428D02*
X37845238Y-19751666D01*
X37845238Y-19751666D02*
X37845238Y-19942142D01*
X37845238Y-19942142D02*
X37892857Y-20037380D01*
X37892857Y-20037380D02*
X37940476Y-20085000D01*
X37940476Y-20085000D02*
X38035714Y-20132619D01*
X38035714Y-20132619D02*
X38226190Y-20132619D01*
X38226190Y-20132619D02*
X38321428Y-20085000D01*
X38321428Y-20085000D02*
X38369047Y-20037380D01*
X38369047Y-20037380D02*
X38416666Y-19942142D01*
X38416666Y-19942142D02*
X38416666Y-19751666D01*
X38416666Y-19751666D02*
X38369047Y-19656428D01*
X38369047Y-19656428D02*
X38321428Y-19608809D01*
X38321428Y-19608809D02*
X38226190Y-19561190D01*
%TO.C,R5*%
X71745833Y-51992619D02*
X71412500Y-51516428D01*
X71174405Y-51992619D02*
X71174405Y-50992619D01*
X71174405Y-50992619D02*
X71555357Y-50992619D01*
X71555357Y-50992619D02*
X71650595Y-51040238D01*
X71650595Y-51040238D02*
X71698214Y-51087857D01*
X71698214Y-51087857D02*
X71745833Y-51183095D01*
X71745833Y-51183095D02*
X71745833Y-51325952D01*
X71745833Y-51325952D02*
X71698214Y-51421190D01*
X71698214Y-51421190D02*
X71650595Y-51468809D01*
X71650595Y-51468809D02*
X71555357Y-51516428D01*
X71555357Y-51516428D02*
X71174405Y-51516428D01*
X72650595Y-50992619D02*
X72174405Y-50992619D01*
X72174405Y-50992619D02*
X72126786Y-51468809D01*
X72126786Y-51468809D02*
X72174405Y-51421190D01*
X72174405Y-51421190D02*
X72269643Y-51373571D01*
X72269643Y-51373571D02*
X72507738Y-51373571D01*
X72507738Y-51373571D02*
X72602976Y-51421190D01*
X72602976Y-51421190D02*
X72650595Y-51468809D01*
X72650595Y-51468809D02*
X72698214Y-51564047D01*
X72698214Y-51564047D02*
X72698214Y-51802142D01*
X72698214Y-51802142D02*
X72650595Y-51897380D01*
X72650595Y-51897380D02*
X72602976Y-51945000D01*
X72602976Y-51945000D02*
X72507738Y-51992619D01*
X72507738Y-51992619D02*
X72269643Y-51992619D01*
X72269643Y-51992619D02*
X72174405Y-51945000D01*
X72174405Y-51945000D02*
X72126786Y-51897380D01*
%TO.C,J11*%
X24940476Y-54912619D02*
X24940476Y-55626904D01*
X24940476Y-55626904D02*
X24892857Y-55769761D01*
X24892857Y-55769761D02*
X24797619Y-55865000D01*
X24797619Y-55865000D02*
X24654762Y-55912619D01*
X24654762Y-55912619D02*
X24559524Y-55912619D01*
X25940476Y-55912619D02*
X25369048Y-55912619D01*
X25654762Y-55912619D02*
X25654762Y-54912619D01*
X25654762Y-54912619D02*
X25559524Y-55055476D01*
X25559524Y-55055476D02*
X25464286Y-55150714D01*
X25464286Y-55150714D02*
X25369048Y-55198333D01*
X26892857Y-55912619D02*
X26321429Y-55912619D01*
X26607143Y-55912619D02*
X26607143Y-54912619D01*
X26607143Y-54912619D02*
X26511905Y-55055476D01*
X26511905Y-55055476D02*
X26416667Y-55150714D01*
X26416667Y-55150714D02*
X26321429Y-55198333D01*
%TO.C,J5*%
X48666666Y-19132619D02*
X48666666Y-19846904D01*
X48666666Y-19846904D02*
X48619047Y-19989761D01*
X48619047Y-19989761D02*
X48523809Y-20085000D01*
X48523809Y-20085000D02*
X48380952Y-20132619D01*
X48380952Y-20132619D02*
X48285714Y-20132619D01*
X49619047Y-19132619D02*
X49142857Y-19132619D01*
X49142857Y-19132619D02*
X49095238Y-19608809D01*
X49095238Y-19608809D02*
X49142857Y-19561190D01*
X49142857Y-19561190D02*
X49238095Y-19513571D01*
X49238095Y-19513571D02*
X49476190Y-19513571D01*
X49476190Y-19513571D02*
X49571428Y-19561190D01*
X49571428Y-19561190D02*
X49619047Y-19608809D01*
X49619047Y-19608809D02*
X49666666Y-19704047D01*
X49666666Y-19704047D02*
X49666666Y-19942142D01*
X49666666Y-19942142D02*
X49619047Y-20037380D01*
X49619047Y-20037380D02*
X49571428Y-20085000D01*
X49571428Y-20085000D02*
X49476190Y-20132619D01*
X49476190Y-20132619D02*
X49238095Y-20132619D01*
X49238095Y-20132619D02*
X49142857Y-20085000D01*
X49142857Y-20085000D02*
X49095238Y-20037380D01*
%TO.C,J2*%
X59916666Y-19132619D02*
X59916666Y-19846904D01*
X59916666Y-19846904D02*
X59869047Y-19989761D01*
X59869047Y-19989761D02*
X59773809Y-20085000D01*
X59773809Y-20085000D02*
X59630952Y-20132619D01*
X59630952Y-20132619D02*
X59535714Y-20132619D01*
X60345238Y-19227857D02*
X60392857Y-19180238D01*
X60392857Y-19180238D02*
X60488095Y-19132619D01*
X60488095Y-19132619D02*
X60726190Y-19132619D01*
X60726190Y-19132619D02*
X60821428Y-19180238D01*
X60821428Y-19180238D02*
X60869047Y-19227857D01*
X60869047Y-19227857D02*
X60916666Y-19323095D01*
X60916666Y-19323095D02*
X60916666Y-19418333D01*
X60916666Y-19418333D02*
X60869047Y-19561190D01*
X60869047Y-19561190D02*
X60297619Y-20132619D01*
X60297619Y-20132619D02*
X60916666Y-20132619D01*
%TO.C,J7*%
X41166666Y-19132619D02*
X41166666Y-19846904D01*
X41166666Y-19846904D02*
X41119047Y-19989761D01*
X41119047Y-19989761D02*
X41023809Y-20085000D01*
X41023809Y-20085000D02*
X40880952Y-20132619D01*
X40880952Y-20132619D02*
X40785714Y-20132619D01*
X41547619Y-19132619D02*
X42214285Y-19132619D01*
X42214285Y-19132619D02*
X41785714Y-20132619D01*
%TO.C,J14*%
X36190476Y-54912619D02*
X36190476Y-55626904D01*
X36190476Y-55626904D02*
X36142857Y-55769761D01*
X36142857Y-55769761D02*
X36047619Y-55865000D01*
X36047619Y-55865000D02*
X35904762Y-55912619D01*
X35904762Y-55912619D02*
X35809524Y-55912619D01*
X37190476Y-55912619D02*
X36619048Y-55912619D01*
X36904762Y-55912619D02*
X36904762Y-54912619D01*
X36904762Y-54912619D02*
X36809524Y-55055476D01*
X36809524Y-55055476D02*
X36714286Y-55150714D01*
X36714286Y-55150714D02*
X36619048Y-55198333D01*
X38047619Y-55245952D02*
X38047619Y-55912619D01*
X37809524Y-54865000D02*
X37571429Y-55579285D01*
X37571429Y-55579285D02*
X38190476Y-55579285D01*
%TO.C,J16*%
X43690476Y-54912619D02*
X43690476Y-55626904D01*
X43690476Y-55626904D02*
X43642857Y-55769761D01*
X43642857Y-55769761D02*
X43547619Y-55865000D01*
X43547619Y-55865000D02*
X43404762Y-55912619D01*
X43404762Y-55912619D02*
X43309524Y-55912619D01*
X44690476Y-55912619D02*
X44119048Y-55912619D01*
X44404762Y-55912619D02*
X44404762Y-54912619D01*
X44404762Y-54912619D02*
X44309524Y-55055476D01*
X44309524Y-55055476D02*
X44214286Y-55150714D01*
X44214286Y-55150714D02*
X44119048Y-55198333D01*
X45547619Y-54912619D02*
X45357143Y-54912619D01*
X45357143Y-54912619D02*
X45261905Y-54960238D01*
X45261905Y-54960238D02*
X45214286Y-55007857D01*
X45214286Y-55007857D02*
X45119048Y-55150714D01*
X45119048Y-55150714D02*
X45071429Y-55341190D01*
X45071429Y-55341190D02*
X45071429Y-55722142D01*
X45071429Y-55722142D02*
X45119048Y-55817380D01*
X45119048Y-55817380D02*
X45166667Y-55865000D01*
X45166667Y-55865000D02*
X45261905Y-55912619D01*
X45261905Y-55912619D02*
X45452381Y-55912619D01*
X45452381Y-55912619D02*
X45547619Y-55865000D01*
X45547619Y-55865000D02*
X45595238Y-55817380D01*
X45595238Y-55817380D02*
X45642857Y-55722142D01*
X45642857Y-55722142D02*
X45642857Y-55484047D01*
X45642857Y-55484047D02*
X45595238Y-55388809D01*
X45595238Y-55388809D02*
X45547619Y-55341190D01*
X45547619Y-55341190D02*
X45452381Y-55293571D01*
X45452381Y-55293571D02*
X45261905Y-55293571D01*
X45261905Y-55293571D02*
X45166667Y-55341190D01*
X45166667Y-55341190D02*
X45119048Y-55388809D01*
X45119048Y-55388809D02*
X45071429Y-55484047D01*
%TO.C,R4*%
X71745833Y-49392619D02*
X71412500Y-48916428D01*
X71174405Y-49392619D02*
X71174405Y-48392619D01*
X71174405Y-48392619D02*
X71555357Y-48392619D01*
X71555357Y-48392619D02*
X71650595Y-48440238D01*
X71650595Y-48440238D02*
X71698214Y-48487857D01*
X71698214Y-48487857D02*
X71745833Y-48583095D01*
X71745833Y-48583095D02*
X71745833Y-48725952D01*
X71745833Y-48725952D02*
X71698214Y-48821190D01*
X71698214Y-48821190D02*
X71650595Y-48868809D01*
X71650595Y-48868809D02*
X71555357Y-48916428D01*
X71555357Y-48916428D02*
X71174405Y-48916428D01*
X72602976Y-48725952D02*
X72602976Y-49392619D01*
X72364881Y-48345000D02*
X72126786Y-49059285D01*
X72126786Y-49059285D02*
X72745833Y-49059285D01*
%TO.C,C3*%
X61233333Y-37277380D02*
X61185714Y-37325000D01*
X61185714Y-37325000D02*
X61042857Y-37372619D01*
X61042857Y-37372619D02*
X60947619Y-37372619D01*
X60947619Y-37372619D02*
X60804762Y-37325000D01*
X60804762Y-37325000D02*
X60709524Y-37229761D01*
X60709524Y-37229761D02*
X60661905Y-37134523D01*
X60661905Y-37134523D02*
X60614286Y-36944047D01*
X60614286Y-36944047D02*
X60614286Y-36801190D01*
X60614286Y-36801190D02*
X60661905Y-36610714D01*
X60661905Y-36610714D02*
X60709524Y-36515476D01*
X60709524Y-36515476D02*
X60804762Y-36420238D01*
X60804762Y-36420238D02*
X60947619Y-36372619D01*
X60947619Y-36372619D02*
X61042857Y-36372619D01*
X61042857Y-36372619D02*
X61185714Y-36420238D01*
X61185714Y-36420238D02*
X61233333Y-36467857D01*
X61566667Y-36372619D02*
X62185714Y-36372619D01*
X62185714Y-36372619D02*
X61852381Y-36753571D01*
X61852381Y-36753571D02*
X61995238Y-36753571D01*
X61995238Y-36753571D02*
X62090476Y-36801190D01*
X62090476Y-36801190D02*
X62138095Y-36848809D01*
X62138095Y-36848809D02*
X62185714Y-36944047D01*
X62185714Y-36944047D02*
X62185714Y-37182142D01*
X62185714Y-37182142D02*
X62138095Y-37277380D01*
X62138095Y-37277380D02*
X62090476Y-37325000D01*
X62090476Y-37325000D02*
X61995238Y-37372619D01*
X61995238Y-37372619D02*
X61709524Y-37372619D01*
X61709524Y-37372619D02*
X61614286Y-37325000D01*
X61614286Y-37325000D02*
X61566667Y-37277380D01*
%TO.C,C5*%
X43033333Y-42667380D02*
X42985714Y-42715000D01*
X42985714Y-42715000D02*
X42842857Y-42762619D01*
X42842857Y-42762619D02*
X42747619Y-42762619D01*
X42747619Y-42762619D02*
X42604762Y-42715000D01*
X42604762Y-42715000D02*
X42509524Y-42619761D01*
X42509524Y-42619761D02*
X42461905Y-42524523D01*
X42461905Y-42524523D02*
X42414286Y-42334047D01*
X42414286Y-42334047D02*
X42414286Y-42191190D01*
X42414286Y-42191190D02*
X42461905Y-42000714D01*
X42461905Y-42000714D02*
X42509524Y-41905476D01*
X42509524Y-41905476D02*
X42604762Y-41810238D01*
X42604762Y-41810238D02*
X42747619Y-41762619D01*
X42747619Y-41762619D02*
X42842857Y-41762619D01*
X42842857Y-41762619D02*
X42985714Y-41810238D01*
X42985714Y-41810238D02*
X43033333Y-41857857D01*
X43938095Y-41762619D02*
X43461905Y-41762619D01*
X43461905Y-41762619D02*
X43414286Y-42238809D01*
X43414286Y-42238809D02*
X43461905Y-42191190D01*
X43461905Y-42191190D02*
X43557143Y-42143571D01*
X43557143Y-42143571D02*
X43795238Y-42143571D01*
X43795238Y-42143571D02*
X43890476Y-42191190D01*
X43890476Y-42191190D02*
X43938095Y-42238809D01*
X43938095Y-42238809D02*
X43985714Y-42334047D01*
X43985714Y-42334047D02*
X43985714Y-42572142D01*
X43985714Y-42572142D02*
X43938095Y-42667380D01*
X43938095Y-42667380D02*
X43890476Y-42715000D01*
X43890476Y-42715000D02*
X43795238Y-42762619D01*
X43795238Y-42762619D02*
X43557143Y-42762619D01*
X43557143Y-42762619D02*
X43461905Y-42715000D01*
X43461905Y-42715000D02*
X43414286Y-42667380D01*
%TO.C,U4*%
X57238095Y-35012619D02*
X57238095Y-35822142D01*
X57238095Y-35822142D02*
X57285714Y-35917380D01*
X57285714Y-35917380D02*
X57333333Y-35965000D01*
X57333333Y-35965000D02*
X57428571Y-36012619D01*
X57428571Y-36012619D02*
X57619047Y-36012619D01*
X57619047Y-36012619D02*
X57714285Y-35965000D01*
X57714285Y-35965000D02*
X57761904Y-35917380D01*
X57761904Y-35917380D02*
X57809523Y-35822142D01*
X57809523Y-35822142D02*
X57809523Y-35012619D01*
X58714285Y-35345952D02*
X58714285Y-36012619D01*
X58476190Y-34965000D02*
X58238095Y-35679285D01*
X58238095Y-35679285D02*
X58857142Y-35679285D01*
%TO.C,J13*%
X32440476Y-54912619D02*
X32440476Y-55626904D01*
X32440476Y-55626904D02*
X32392857Y-55769761D01*
X32392857Y-55769761D02*
X32297619Y-55865000D01*
X32297619Y-55865000D02*
X32154762Y-55912619D01*
X32154762Y-55912619D02*
X32059524Y-55912619D01*
X33440476Y-55912619D02*
X32869048Y-55912619D01*
X33154762Y-55912619D02*
X33154762Y-54912619D01*
X33154762Y-54912619D02*
X33059524Y-55055476D01*
X33059524Y-55055476D02*
X32964286Y-55150714D01*
X32964286Y-55150714D02*
X32869048Y-55198333D01*
X33773810Y-54912619D02*
X34392857Y-54912619D01*
X34392857Y-54912619D02*
X34059524Y-55293571D01*
X34059524Y-55293571D02*
X34202381Y-55293571D01*
X34202381Y-55293571D02*
X34297619Y-55341190D01*
X34297619Y-55341190D02*
X34345238Y-55388809D01*
X34345238Y-55388809D02*
X34392857Y-55484047D01*
X34392857Y-55484047D02*
X34392857Y-55722142D01*
X34392857Y-55722142D02*
X34345238Y-55817380D01*
X34345238Y-55817380D02*
X34297619Y-55865000D01*
X34297619Y-55865000D02*
X34202381Y-55912619D01*
X34202381Y-55912619D02*
X33916667Y-55912619D01*
X33916667Y-55912619D02*
X33821429Y-55865000D01*
X33821429Y-55865000D02*
X33773810Y-55817380D01*
%TO.C,J10*%
X21190476Y-54912619D02*
X21190476Y-55626904D01*
X21190476Y-55626904D02*
X21142857Y-55769761D01*
X21142857Y-55769761D02*
X21047619Y-55865000D01*
X21047619Y-55865000D02*
X20904762Y-55912619D01*
X20904762Y-55912619D02*
X20809524Y-55912619D01*
X22190476Y-55912619D02*
X21619048Y-55912619D01*
X21904762Y-55912619D02*
X21904762Y-54912619D01*
X21904762Y-54912619D02*
X21809524Y-55055476D01*
X21809524Y-55055476D02*
X21714286Y-55150714D01*
X21714286Y-55150714D02*
X21619048Y-55198333D01*
X22809524Y-54912619D02*
X22904762Y-54912619D01*
X22904762Y-54912619D02*
X23000000Y-54960238D01*
X23000000Y-54960238D02*
X23047619Y-55007857D01*
X23047619Y-55007857D02*
X23095238Y-55103095D01*
X23095238Y-55103095D02*
X23142857Y-55293571D01*
X23142857Y-55293571D02*
X23142857Y-55531666D01*
X23142857Y-55531666D02*
X23095238Y-55722142D01*
X23095238Y-55722142D02*
X23047619Y-55817380D01*
X23047619Y-55817380D02*
X23000000Y-55865000D01*
X23000000Y-55865000D02*
X22904762Y-55912619D01*
X22904762Y-55912619D02*
X22809524Y-55912619D01*
X22809524Y-55912619D02*
X22714286Y-55865000D01*
X22714286Y-55865000D02*
X22666667Y-55817380D01*
X22666667Y-55817380D02*
X22619048Y-55722142D01*
X22619048Y-55722142D02*
X22571429Y-55531666D01*
X22571429Y-55531666D02*
X22571429Y-55293571D01*
X22571429Y-55293571D02*
X22619048Y-55103095D01*
X22619048Y-55103095D02*
X22666667Y-55007857D01*
X22666667Y-55007857D02*
X22714286Y-54960238D01*
X22714286Y-54960238D02*
X22809524Y-54912619D01*
%TO.C,J12*%
X28690476Y-54912619D02*
X28690476Y-55626904D01*
X28690476Y-55626904D02*
X28642857Y-55769761D01*
X28642857Y-55769761D02*
X28547619Y-55865000D01*
X28547619Y-55865000D02*
X28404762Y-55912619D01*
X28404762Y-55912619D02*
X28309524Y-55912619D01*
X29690476Y-55912619D02*
X29119048Y-55912619D01*
X29404762Y-55912619D02*
X29404762Y-54912619D01*
X29404762Y-54912619D02*
X29309524Y-55055476D01*
X29309524Y-55055476D02*
X29214286Y-55150714D01*
X29214286Y-55150714D02*
X29119048Y-55198333D01*
X30071429Y-55007857D02*
X30119048Y-54960238D01*
X30119048Y-54960238D02*
X30214286Y-54912619D01*
X30214286Y-54912619D02*
X30452381Y-54912619D01*
X30452381Y-54912619D02*
X30547619Y-54960238D01*
X30547619Y-54960238D02*
X30595238Y-55007857D01*
X30595238Y-55007857D02*
X30642857Y-55103095D01*
X30642857Y-55103095D02*
X30642857Y-55198333D01*
X30642857Y-55198333D02*
X30595238Y-55341190D01*
X30595238Y-55341190D02*
X30023810Y-55912619D01*
X30023810Y-55912619D02*
X30642857Y-55912619D01*
%TO.C,R2*%
X28792619Y-33466666D02*
X28316428Y-33799999D01*
X28792619Y-34038094D02*
X27792619Y-34038094D01*
X27792619Y-34038094D02*
X27792619Y-33657142D01*
X27792619Y-33657142D02*
X27840238Y-33561904D01*
X27840238Y-33561904D02*
X27887857Y-33514285D01*
X27887857Y-33514285D02*
X27983095Y-33466666D01*
X27983095Y-33466666D02*
X28125952Y-33466666D01*
X28125952Y-33466666D02*
X28221190Y-33514285D01*
X28221190Y-33514285D02*
X28268809Y-33561904D01*
X28268809Y-33561904D02*
X28316428Y-33657142D01*
X28316428Y-33657142D02*
X28316428Y-34038094D01*
X27887857Y-33085713D02*
X27840238Y-33038094D01*
X27840238Y-33038094D02*
X27792619Y-32942856D01*
X27792619Y-32942856D02*
X27792619Y-32704761D01*
X27792619Y-32704761D02*
X27840238Y-32609523D01*
X27840238Y-32609523D02*
X27887857Y-32561904D01*
X27887857Y-32561904D02*
X27983095Y-32514285D01*
X27983095Y-32514285D02*
X28078333Y-32514285D01*
X28078333Y-32514285D02*
X28221190Y-32561904D01*
X28221190Y-32561904D02*
X28792619Y-33133332D01*
X28792619Y-33133332D02*
X28792619Y-32514285D01*
%TO.C,D2*%
X68224405Y-51982619D02*
X68224405Y-50982619D01*
X68224405Y-50982619D02*
X68462500Y-50982619D01*
X68462500Y-50982619D02*
X68605357Y-51030238D01*
X68605357Y-51030238D02*
X68700595Y-51125476D01*
X68700595Y-51125476D02*
X68748214Y-51220714D01*
X68748214Y-51220714D02*
X68795833Y-51411190D01*
X68795833Y-51411190D02*
X68795833Y-51554047D01*
X68795833Y-51554047D02*
X68748214Y-51744523D01*
X68748214Y-51744523D02*
X68700595Y-51839761D01*
X68700595Y-51839761D02*
X68605357Y-51935000D01*
X68605357Y-51935000D02*
X68462500Y-51982619D01*
X68462500Y-51982619D02*
X68224405Y-51982619D01*
X69176786Y-51077857D02*
X69224405Y-51030238D01*
X69224405Y-51030238D02*
X69319643Y-50982619D01*
X69319643Y-50982619D02*
X69557738Y-50982619D01*
X69557738Y-50982619D02*
X69652976Y-51030238D01*
X69652976Y-51030238D02*
X69700595Y-51077857D01*
X69700595Y-51077857D02*
X69748214Y-51173095D01*
X69748214Y-51173095D02*
X69748214Y-51268333D01*
X69748214Y-51268333D02*
X69700595Y-51411190D01*
X69700595Y-51411190D02*
X69129167Y-51982619D01*
X69129167Y-51982619D02*
X69748214Y-51982619D01*
%TO.C,J3*%
X56166666Y-19132619D02*
X56166666Y-19846904D01*
X56166666Y-19846904D02*
X56119047Y-19989761D01*
X56119047Y-19989761D02*
X56023809Y-20085000D01*
X56023809Y-20085000D02*
X55880952Y-20132619D01*
X55880952Y-20132619D02*
X55785714Y-20132619D01*
X56547619Y-19132619D02*
X57166666Y-19132619D01*
X57166666Y-19132619D02*
X56833333Y-19513571D01*
X56833333Y-19513571D02*
X56976190Y-19513571D01*
X56976190Y-19513571D02*
X57071428Y-19561190D01*
X57071428Y-19561190D02*
X57119047Y-19608809D01*
X57119047Y-19608809D02*
X57166666Y-19704047D01*
X57166666Y-19704047D02*
X57166666Y-19942142D01*
X57166666Y-19942142D02*
X57119047Y-20037380D01*
X57119047Y-20037380D02*
X57071428Y-20085000D01*
X57071428Y-20085000D02*
X56976190Y-20132619D01*
X56976190Y-20132619D02*
X56690476Y-20132619D01*
X56690476Y-20132619D02*
X56595238Y-20085000D01*
X56595238Y-20085000D02*
X56547619Y-20037380D01*
%TO.C,C1*%
X24067380Y-22166666D02*
X24115000Y-22214285D01*
X24115000Y-22214285D02*
X24162619Y-22357142D01*
X24162619Y-22357142D02*
X24162619Y-22452380D01*
X24162619Y-22452380D02*
X24115000Y-22595237D01*
X24115000Y-22595237D02*
X24019761Y-22690475D01*
X24019761Y-22690475D02*
X23924523Y-22738094D01*
X23924523Y-22738094D02*
X23734047Y-22785713D01*
X23734047Y-22785713D02*
X23591190Y-22785713D01*
X23591190Y-22785713D02*
X23400714Y-22738094D01*
X23400714Y-22738094D02*
X23305476Y-22690475D01*
X23305476Y-22690475D02*
X23210238Y-22595237D01*
X23210238Y-22595237D02*
X23162619Y-22452380D01*
X23162619Y-22452380D02*
X23162619Y-22357142D01*
X23162619Y-22357142D02*
X23210238Y-22214285D01*
X23210238Y-22214285D02*
X23257857Y-22166666D01*
X24162619Y-21214285D02*
X24162619Y-21785713D01*
X24162619Y-21499999D02*
X23162619Y-21499999D01*
X23162619Y-21499999D02*
X23305476Y-21595237D01*
X23305476Y-21595237D02*
X23400714Y-21690475D01*
X23400714Y-21690475D02*
X23448333Y-21785713D01*
%TO.C,R1*%
X18792619Y-41676666D02*
X18316428Y-42009999D01*
X18792619Y-42248094D02*
X17792619Y-42248094D01*
X17792619Y-42248094D02*
X17792619Y-41867142D01*
X17792619Y-41867142D02*
X17840238Y-41771904D01*
X17840238Y-41771904D02*
X17887857Y-41724285D01*
X17887857Y-41724285D02*
X17983095Y-41676666D01*
X17983095Y-41676666D02*
X18125952Y-41676666D01*
X18125952Y-41676666D02*
X18221190Y-41724285D01*
X18221190Y-41724285D02*
X18268809Y-41771904D01*
X18268809Y-41771904D02*
X18316428Y-41867142D01*
X18316428Y-41867142D02*
X18316428Y-42248094D01*
X18792619Y-40724285D02*
X18792619Y-41295713D01*
X18792619Y-41009999D02*
X17792619Y-41009999D01*
X17792619Y-41009999D02*
X17935476Y-41105237D01*
X17935476Y-41105237D02*
X18030714Y-41200475D01*
X18030714Y-41200475D02*
X18078333Y-41295713D01*
%TO.C,J6*%
X44916666Y-19132619D02*
X44916666Y-19846904D01*
X44916666Y-19846904D02*
X44869047Y-19989761D01*
X44869047Y-19989761D02*
X44773809Y-20085000D01*
X44773809Y-20085000D02*
X44630952Y-20132619D01*
X44630952Y-20132619D02*
X44535714Y-20132619D01*
X45821428Y-19132619D02*
X45630952Y-19132619D01*
X45630952Y-19132619D02*
X45535714Y-19180238D01*
X45535714Y-19180238D02*
X45488095Y-19227857D01*
X45488095Y-19227857D02*
X45392857Y-19370714D01*
X45392857Y-19370714D02*
X45345238Y-19561190D01*
X45345238Y-19561190D02*
X45345238Y-19942142D01*
X45345238Y-19942142D02*
X45392857Y-20037380D01*
X45392857Y-20037380D02*
X45440476Y-20085000D01*
X45440476Y-20085000D02*
X45535714Y-20132619D01*
X45535714Y-20132619D02*
X45726190Y-20132619D01*
X45726190Y-20132619D02*
X45821428Y-20085000D01*
X45821428Y-20085000D02*
X45869047Y-20037380D01*
X45869047Y-20037380D02*
X45916666Y-19942142D01*
X45916666Y-19942142D02*
X45916666Y-19704047D01*
X45916666Y-19704047D02*
X45869047Y-19608809D01*
X45869047Y-19608809D02*
X45821428Y-19561190D01*
X45821428Y-19561190D02*
X45726190Y-19513571D01*
X45726190Y-19513571D02*
X45535714Y-19513571D01*
X45535714Y-19513571D02*
X45440476Y-19561190D01*
X45440476Y-19561190D02*
X45392857Y-19608809D01*
X45392857Y-19608809D02*
X45345238Y-19704047D01*
%TO.C,J17*%
X47440476Y-54912619D02*
X47440476Y-55626904D01*
X47440476Y-55626904D02*
X47392857Y-55769761D01*
X47392857Y-55769761D02*
X47297619Y-55865000D01*
X47297619Y-55865000D02*
X47154762Y-55912619D01*
X47154762Y-55912619D02*
X47059524Y-55912619D01*
X48440476Y-55912619D02*
X47869048Y-55912619D01*
X48154762Y-55912619D02*
X48154762Y-54912619D01*
X48154762Y-54912619D02*
X48059524Y-55055476D01*
X48059524Y-55055476D02*
X47964286Y-55150714D01*
X47964286Y-55150714D02*
X47869048Y-55198333D01*
X48773810Y-54912619D02*
X49440476Y-54912619D01*
X49440476Y-54912619D02*
X49011905Y-55912619D01*
%TO.C,J1*%
X14786666Y-18692619D02*
X14786666Y-19406904D01*
X14786666Y-19406904D02*
X14739047Y-19549761D01*
X14739047Y-19549761D02*
X14643809Y-19645000D01*
X14643809Y-19645000D02*
X14500952Y-19692619D01*
X14500952Y-19692619D02*
X14405714Y-19692619D01*
X15786666Y-19692619D02*
X15215238Y-19692619D01*
X15500952Y-19692619D02*
X15500952Y-18692619D01*
X15500952Y-18692619D02*
X15405714Y-18835476D01*
X15405714Y-18835476D02*
X15310476Y-18930714D01*
X15310476Y-18930714D02*
X15215238Y-18978333D01*
%TO.C,U6*%
X46238095Y-41812619D02*
X46238095Y-42622142D01*
X46238095Y-42622142D02*
X46285714Y-42717380D01*
X46285714Y-42717380D02*
X46333333Y-42765000D01*
X46333333Y-42765000D02*
X46428571Y-42812619D01*
X46428571Y-42812619D02*
X46619047Y-42812619D01*
X46619047Y-42812619D02*
X46714285Y-42765000D01*
X46714285Y-42765000D02*
X46761904Y-42717380D01*
X46761904Y-42717380D02*
X46809523Y-42622142D01*
X46809523Y-42622142D02*
X46809523Y-41812619D01*
X47714285Y-41812619D02*
X47523809Y-41812619D01*
X47523809Y-41812619D02*
X47428571Y-41860238D01*
X47428571Y-41860238D02*
X47380952Y-41907857D01*
X47380952Y-41907857D02*
X47285714Y-42050714D01*
X47285714Y-42050714D02*
X47238095Y-42241190D01*
X47238095Y-42241190D02*
X47238095Y-42622142D01*
X47238095Y-42622142D02*
X47285714Y-42717380D01*
X47285714Y-42717380D02*
X47333333Y-42765000D01*
X47333333Y-42765000D02*
X47428571Y-42812619D01*
X47428571Y-42812619D02*
X47619047Y-42812619D01*
X47619047Y-42812619D02*
X47714285Y-42765000D01*
X47714285Y-42765000D02*
X47761904Y-42717380D01*
X47761904Y-42717380D02*
X47809523Y-42622142D01*
X47809523Y-42622142D02*
X47809523Y-42384047D01*
X47809523Y-42384047D02*
X47761904Y-42288809D01*
X47761904Y-42288809D02*
X47714285Y-42241190D01*
X47714285Y-42241190D02*
X47619047Y-42193571D01*
X47619047Y-42193571D02*
X47428571Y-42193571D01*
X47428571Y-42193571D02*
X47333333Y-42241190D01*
X47333333Y-42241190D02*
X47285714Y-42288809D01*
X47285714Y-42288809D02*
X47238095Y-42384047D01*
%TO.C,J18*%
X74075476Y-19192619D02*
X74075476Y-19906904D01*
X74075476Y-19906904D02*
X74027857Y-20049761D01*
X74027857Y-20049761D02*
X73932619Y-20145000D01*
X73932619Y-20145000D02*
X73789762Y-20192619D01*
X73789762Y-20192619D02*
X73694524Y-20192619D01*
X75075476Y-20192619D02*
X74504048Y-20192619D01*
X74789762Y-20192619D02*
X74789762Y-19192619D01*
X74789762Y-19192619D02*
X74694524Y-19335476D01*
X74694524Y-19335476D02*
X74599286Y-19430714D01*
X74599286Y-19430714D02*
X74504048Y-19478333D01*
X75646905Y-19621190D02*
X75551667Y-19573571D01*
X75551667Y-19573571D02*
X75504048Y-19525952D01*
X75504048Y-19525952D02*
X75456429Y-19430714D01*
X75456429Y-19430714D02*
X75456429Y-19383095D01*
X75456429Y-19383095D02*
X75504048Y-19287857D01*
X75504048Y-19287857D02*
X75551667Y-19240238D01*
X75551667Y-19240238D02*
X75646905Y-19192619D01*
X75646905Y-19192619D02*
X75837381Y-19192619D01*
X75837381Y-19192619D02*
X75932619Y-19240238D01*
X75932619Y-19240238D02*
X75980238Y-19287857D01*
X75980238Y-19287857D02*
X76027857Y-19383095D01*
X76027857Y-19383095D02*
X76027857Y-19430714D01*
X76027857Y-19430714D02*
X75980238Y-19525952D01*
X75980238Y-19525952D02*
X75932619Y-19573571D01*
X75932619Y-19573571D02*
X75837381Y-19621190D01*
X75837381Y-19621190D02*
X75646905Y-19621190D01*
X75646905Y-19621190D02*
X75551667Y-19668809D01*
X75551667Y-19668809D02*
X75504048Y-19716428D01*
X75504048Y-19716428D02*
X75456429Y-19811666D01*
X75456429Y-19811666D02*
X75456429Y-20002142D01*
X75456429Y-20002142D02*
X75504048Y-20097380D01*
X75504048Y-20097380D02*
X75551667Y-20145000D01*
X75551667Y-20145000D02*
X75646905Y-20192619D01*
X75646905Y-20192619D02*
X75837381Y-20192619D01*
X75837381Y-20192619D02*
X75932619Y-20145000D01*
X75932619Y-20145000D02*
X75980238Y-20097380D01*
X75980238Y-20097380D02*
X76027857Y-20002142D01*
X76027857Y-20002142D02*
X76027857Y-19811666D01*
X76027857Y-19811666D02*
X75980238Y-19716428D01*
X75980238Y-19716428D02*
X75932619Y-19668809D01*
X75932619Y-19668809D02*
X75837381Y-19621190D01*
%TO.C,C2*%
X30877380Y-22166666D02*
X30925000Y-22214285D01*
X30925000Y-22214285D02*
X30972619Y-22357142D01*
X30972619Y-22357142D02*
X30972619Y-22452380D01*
X30972619Y-22452380D02*
X30925000Y-22595237D01*
X30925000Y-22595237D02*
X30829761Y-22690475D01*
X30829761Y-22690475D02*
X30734523Y-22738094D01*
X30734523Y-22738094D02*
X30544047Y-22785713D01*
X30544047Y-22785713D02*
X30401190Y-22785713D01*
X30401190Y-22785713D02*
X30210714Y-22738094D01*
X30210714Y-22738094D02*
X30115476Y-22690475D01*
X30115476Y-22690475D02*
X30020238Y-22595237D01*
X30020238Y-22595237D02*
X29972619Y-22452380D01*
X29972619Y-22452380D02*
X29972619Y-22357142D01*
X29972619Y-22357142D02*
X30020238Y-22214285D01*
X30020238Y-22214285D02*
X30067857Y-22166666D01*
X30067857Y-21785713D02*
X30020238Y-21738094D01*
X30020238Y-21738094D02*
X29972619Y-21642856D01*
X29972619Y-21642856D02*
X29972619Y-21404761D01*
X29972619Y-21404761D02*
X30020238Y-21309523D01*
X30020238Y-21309523D02*
X30067857Y-21261904D01*
X30067857Y-21261904D02*
X30163095Y-21214285D01*
X30163095Y-21214285D02*
X30258333Y-21214285D01*
X30258333Y-21214285D02*
X30401190Y-21261904D01*
X30401190Y-21261904D02*
X30972619Y-21833332D01*
X30972619Y-21833332D02*
X30972619Y-21214285D01*
%TO.C,J9*%
X33666666Y-19132619D02*
X33666666Y-19846904D01*
X33666666Y-19846904D02*
X33619047Y-19989761D01*
X33619047Y-19989761D02*
X33523809Y-20085000D01*
X33523809Y-20085000D02*
X33380952Y-20132619D01*
X33380952Y-20132619D02*
X33285714Y-20132619D01*
X34190476Y-20132619D02*
X34380952Y-20132619D01*
X34380952Y-20132619D02*
X34476190Y-20085000D01*
X34476190Y-20085000D02*
X34523809Y-20037380D01*
X34523809Y-20037380D02*
X34619047Y-19894523D01*
X34619047Y-19894523D02*
X34666666Y-19704047D01*
X34666666Y-19704047D02*
X34666666Y-19323095D01*
X34666666Y-19323095D02*
X34619047Y-19227857D01*
X34619047Y-19227857D02*
X34571428Y-19180238D01*
X34571428Y-19180238D02*
X34476190Y-19132619D01*
X34476190Y-19132619D02*
X34285714Y-19132619D01*
X34285714Y-19132619D02*
X34190476Y-19180238D01*
X34190476Y-19180238D02*
X34142857Y-19227857D01*
X34142857Y-19227857D02*
X34095238Y-19323095D01*
X34095238Y-19323095D02*
X34095238Y-19561190D01*
X34095238Y-19561190D02*
X34142857Y-19656428D01*
X34142857Y-19656428D02*
X34190476Y-19704047D01*
X34190476Y-19704047D02*
X34285714Y-19751666D01*
X34285714Y-19751666D02*
X34476190Y-19751666D01*
X34476190Y-19751666D02*
X34571428Y-19704047D01*
X34571428Y-19704047D02*
X34619047Y-19656428D01*
X34619047Y-19656428D02*
X34666666Y-19561190D01*
%TO.C,C4*%
X37833333Y-33367380D02*
X37785714Y-33415000D01*
X37785714Y-33415000D02*
X37642857Y-33462619D01*
X37642857Y-33462619D02*
X37547619Y-33462619D01*
X37547619Y-33462619D02*
X37404762Y-33415000D01*
X37404762Y-33415000D02*
X37309524Y-33319761D01*
X37309524Y-33319761D02*
X37261905Y-33224523D01*
X37261905Y-33224523D02*
X37214286Y-33034047D01*
X37214286Y-33034047D02*
X37214286Y-32891190D01*
X37214286Y-32891190D02*
X37261905Y-32700714D01*
X37261905Y-32700714D02*
X37309524Y-32605476D01*
X37309524Y-32605476D02*
X37404762Y-32510238D01*
X37404762Y-32510238D02*
X37547619Y-32462619D01*
X37547619Y-32462619D02*
X37642857Y-32462619D01*
X37642857Y-32462619D02*
X37785714Y-32510238D01*
X37785714Y-32510238D02*
X37833333Y-32557857D01*
X38690476Y-32795952D02*
X38690476Y-33462619D01*
X38452381Y-32415000D02*
X38214286Y-33129285D01*
X38214286Y-33129285D02*
X38833333Y-33129285D01*
D11*
%TO.C,D3*%
X70447500Y-53415000D02*
X70447500Y-51945000D01*
X70447500Y-51945000D02*
X68162500Y-51945000D01*
X68162500Y-53415000D02*
X70447500Y-53415000D01*
%TO.C,D1*%
X70447500Y-48235000D02*
X70447500Y-46765000D01*
X70447500Y-46765000D02*
X68162500Y-46765000D01*
X68162500Y-48235000D02*
X70447500Y-48235000D01*
%TO.C,J4*%
X51420000Y-20670000D02*
X52750000Y-20670000D01*
X51420000Y-22000000D02*
X51420000Y-20670000D01*
X51420000Y-23270000D02*
X51420000Y-30950000D01*
X51420000Y-23270000D02*
X54080000Y-23270000D01*
X51420000Y-30950000D02*
X54080000Y-30950000D01*
X54080000Y-23270000D02*
X54080000Y-30950000D01*
%TO.C,U5*%
X34500000Y-33465000D02*
X30900000Y-33465000D01*
X34500000Y-33465000D02*
X36700000Y-33465000D01*
X34500000Y-41535000D02*
X32300000Y-41535000D01*
X34500000Y-41535000D02*
X36700000Y-41535000D01*
%TO.C,J15*%
X42080000Y-54450000D02*
X40750000Y-54450000D01*
X42080000Y-53120000D02*
X42080000Y-54450000D01*
X42080000Y-51850000D02*
X42080000Y-44170000D01*
X42080000Y-51850000D02*
X39420000Y-51850000D01*
X42080000Y-44170000D02*
X39420000Y-44170000D01*
X39420000Y-51850000D02*
X39420000Y-44170000D01*
%TO.C,R3*%
X71758859Y-47120000D02*
X72066141Y-47120000D01*
X71758859Y-47880000D02*
X72066141Y-47880000D01*
%TO.C,U2*%
X26400000Y-23660000D02*
X27800000Y-23660000D01*
X27800000Y-21340000D02*
X25900000Y-21340000D01*
%TO.C,J8*%
X36420000Y-20670000D02*
X37750000Y-20670000D01*
X36420000Y-22000000D02*
X36420000Y-20670000D01*
X36420000Y-23270000D02*
X36420000Y-30950000D01*
X36420000Y-23270000D02*
X39080000Y-23270000D01*
X36420000Y-30950000D02*
X39080000Y-30950000D01*
X39080000Y-23270000D02*
X39080000Y-30950000D01*
%TO.C,R5*%
X71758859Y-52320000D02*
X72066141Y-52320000D01*
X71758859Y-53080000D02*
X72066141Y-53080000D01*
%TO.C,J11*%
X27080000Y-54450000D02*
X25750000Y-54450000D01*
X27080000Y-53120000D02*
X27080000Y-54450000D01*
X27080000Y-51850000D02*
X27080000Y-44170000D01*
X27080000Y-51850000D02*
X24420000Y-51850000D01*
X27080000Y-44170000D02*
X24420000Y-44170000D01*
X24420000Y-51850000D02*
X24420000Y-44170000D01*
%TO.C,J5*%
X47670000Y-20670000D02*
X49000000Y-20670000D01*
X47670000Y-22000000D02*
X47670000Y-20670000D01*
X47670000Y-23270000D02*
X47670000Y-30950000D01*
X47670000Y-23270000D02*
X50330000Y-23270000D01*
X47670000Y-30950000D02*
X50330000Y-30950000D01*
X50330000Y-23270000D02*
X50330000Y-30950000D01*
%TO.C,J2*%
X58920000Y-20670000D02*
X60250000Y-20670000D01*
X58920000Y-22000000D02*
X58920000Y-20670000D01*
X58920000Y-23270000D02*
X58920000Y-30950000D01*
X58920000Y-23270000D02*
X61580000Y-23270000D01*
X58920000Y-30950000D02*
X61580000Y-30950000D01*
X61580000Y-23270000D02*
X61580000Y-30950000D01*
%TO.C,J7*%
X40170000Y-20670000D02*
X41500000Y-20670000D01*
X40170000Y-22000000D02*
X40170000Y-20670000D01*
X40170000Y-23270000D02*
X40170000Y-30950000D01*
X40170000Y-23270000D02*
X42830000Y-23270000D01*
X40170000Y-30950000D02*
X42830000Y-30950000D01*
X42830000Y-23270000D02*
X42830000Y-30950000D01*
%TO.C,J14*%
X38330000Y-54450000D02*
X37000000Y-54450000D01*
X38330000Y-53120000D02*
X38330000Y-54450000D01*
X38330000Y-51850000D02*
X38330000Y-44170000D01*
X38330000Y-51850000D02*
X35670000Y-51850000D01*
X38330000Y-44170000D02*
X35670000Y-44170000D01*
X35670000Y-51850000D02*
X35670000Y-44170000D01*
%TO.C,J16*%
X45830000Y-54450000D02*
X44500000Y-54450000D01*
X45830000Y-53120000D02*
X45830000Y-54450000D01*
X45830000Y-51850000D02*
X45830000Y-44170000D01*
X45830000Y-51850000D02*
X43170000Y-51850000D01*
X45830000Y-44170000D02*
X43170000Y-44170000D01*
X43170000Y-51850000D02*
X43170000Y-44170000D01*
%TO.C,R4*%
X71758859Y-49720000D02*
X72066141Y-49720000D01*
X71758859Y-50480000D02*
X72066141Y-50480000D01*
%TO.C,C3*%
X61507836Y-36110000D02*
X61292164Y-36110000D01*
X61507836Y-35390000D02*
X61292164Y-35390000D01*
%TO.C,C5*%
X45307836Y-42510000D02*
X45092164Y-42510000D01*
X45307836Y-41790000D02*
X45092164Y-41790000D01*
%TO.C,U4*%
X58000000Y-36265000D02*
X54400000Y-36265000D01*
X58000000Y-36265000D02*
X60200000Y-36265000D01*
X58000000Y-41735000D02*
X55800000Y-41735000D01*
X58000000Y-41735000D02*
X60200000Y-41735000D01*
%TO.C,J13*%
X34580000Y-54450000D02*
X33250000Y-54450000D01*
X34580000Y-53120000D02*
X34580000Y-54450000D01*
X34580000Y-51850000D02*
X34580000Y-44170000D01*
X34580000Y-51850000D02*
X31920000Y-51850000D01*
X34580000Y-44170000D02*
X31920000Y-44170000D01*
X31920000Y-51850000D02*
X31920000Y-44170000D01*
%TO.C,J10*%
X23330000Y-54450000D02*
X22000000Y-54450000D01*
X23330000Y-53120000D02*
X23330000Y-54450000D01*
X23330000Y-51850000D02*
X23330000Y-44170000D01*
X23330000Y-51850000D02*
X20670000Y-51850000D01*
X23330000Y-44170000D02*
X20670000Y-44170000D01*
X20670000Y-51850000D02*
X20670000Y-44170000D01*
%TO.C,J12*%
X30830000Y-54450000D02*
X29500000Y-54450000D01*
X30830000Y-53120000D02*
X30830000Y-54450000D01*
X30830000Y-51850000D02*
X30830000Y-44170000D01*
X30830000Y-51850000D02*
X28170000Y-51850000D01*
X30830000Y-44170000D02*
X28170000Y-44170000D01*
X28170000Y-51850000D02*
X28170000Y-44170000D01*
%TO.C,R2*%
X29120000Y-33453641D02*
X29120000Y-33146359D01*
X29880000Y-33453641D02*
X29880000Y-33146359D01*
%TO.C,D2*%
X70447500Y-50825000D02*
X70447500Y-49355000D01*
X70447500Y-49355000D02*
X68162500Y-49355000D01*
X68162500Y-50825000D02*
X70447500Y-50825000D01*
%TO.C,J3*%
X55170000Y-20670000D02*
X56500000Y-20670000D01*
X55170000Y-22000000D02*
X55170000Y-20670000D01*
X55170000Y-23270000D02*
X55170000Y-30950000D01*
X55170000Y-23270000D02*
X57830000Y-23270000D01*
X55170000Y-30950000D02*
X57830000Y-30950000D01*
X57830000Y-23270000D02*
X57830000Y-30950000D01*
%TO.C,C1*%
X25210000Y-21892164D02*
X25210000Y-22107836D01*
X24490000Y-21892164D02*
X24490000Y-22107836D01*
%TO.C,R1*%
X19120000Y-41663641D02*
X19120000Y-41356359D01*
X19880000Y-41663641D02*
X19880000Y-41356359D01*
%TO.C,J6*%
X43920000Y-20670000D02*
X45250000Y-20670000D01*
X43920000Y-22000000D02*
X43920000Y-20670000D01*
X43920000Y-23270000D02*
X43920000Y-30950000D01*
X43920000Y-23270000D02*
X46580000Y-23270000D01*
X43920000Y-30950000D02*
X46580000Y-30950000D01*
X46580000Y-23270000D02*
X46580000Y-30950000D01*
%TO.C,J17*%
X49580000Y-54450000D02*
X48250000Y-54450000D01*
X49580000Y-53120000D02*
X49580000Y-54450000D01*
X49580000Y-51850000D02*
X49580000Y-44170000D01*
X49580000Y-51850000D02*
X46920000Y-51850000D01*
X49580000Y-44170000D02*
X46920000Y-44170000D01*
X46920000Y-51850000D02*
X46920000Y-44170000D01*
%TO.C,J1*%
X9410000Y-20670000D02*
X9410000Y-38570000D01*
X9410000Y-20670000D02*
X18040000Y-20670000D01*
X9410000Y-20790000D02*
X18040000Y-20790000D01*
X9410000Y-20908095D02*
X18040000Y-20908095D01*
X9410000Y-21026190D02*
X18040000Y-21026190D01*
X9410000Y-21144285D02*
X18040000Y-21144285D01*
X9410000Y-21262380D02*
X18040000Y-21262380D01*
X9410000Y-21380475D02*
X18040000Y-21380475D01*
X9410000Y-21498570D02*
X18040000Y-21498570D01*
X9410000Y-21616665D02*
X18040000Y-21616665D01*
X9410000Y-21734760D02*
X18040000Y-21734760D01*
X9410000Y-21852855D02*
X18040000Y-21852855D01*
X9410000Y-21970950D02*
X18040000Y-21970950D01*
X9410000Y-22089045D02*
X18040000Y-22089045D01*
X9410000Y-22207140D02*
X18040000Y-22207140D01*
X9410000Y-22325235D02*
X18040000Y-22325235D01*
X9410000Y-22443330D02*
X18040000Y-22443330D01*
X9410000Y-22561425D02*
X18040000Y-22561425D01*
X9410000Y-22679520D02*
X18040000Y-22679520D01*
X9410000Y-22797615D02*
X18040000Y-22797615D01*
X9410000Y-22915710D02*
X18040000Y-22915710D01*
X9410000Y-23033805D02*
X18040000Y-23033805D01*
X9410000Y-23151900D02*
X18040000Y-23151900D01*
X9410000Y-23270000D02*
X18040000Y-23270000D01*
X9410000Y-25810000D02*
X18040000Y-25810000D01*
X9410000Y-28350000D02*
X18040000Y-28350000D01*
X9410000Y-30890000D02*
X18040000Y-30890000D01*
X9410000Y-33430000D02*
X18040000Y-33430000D01*
X9410000Y-35970000D02*
X18040000Y-35970000D01*
X9410000Y-38570000D02*
X18040000Y-38570000D01*
X18040000Y-20670000D02*
X18040000Y-38570000D01*
X18040000Y-21640000D02*
X18390000Y-21640000D01*
X18040000Y-22360000D02*
X18390000Y-22360000D01*
X18040000Y-24180000D02*
X18450000Y-24180000D01*
X18040000Y-24900000D02*
X18450000Y-24900000D01*
X18040000Y-26720000D02*
X18450000Y-26720000D01*
X18040000Y-27440000D02*
X18450000Y-27440000D01*
X18040000Y-29260000D02*
X18450000Y-29260000D01*
X18040000Y-29980000D02*
X18450000Y-29980000D01*
X18040000Y-31800000D02*
X18450000Y-31800000D01*
X18040000Y-32520000D02*
X18450000Y-32520000D01*
X18040000Y-34340000D02*
X18450000Y-34340000D01*
X18040000Y-35060000D02*
X18450000Y-35060000D01*
X18040000Y-36880000D02*
X18450000Y-36880000D01*
X18040000Y-37600000D02*
X18450000Y-37600000D01*
X19500000Y-20670000D02*
X20610000Y-20670000D01*
X20610000Y-20670000D02*
X20610000Y-22000000D01*
%TO.C,U6*%
X47000000Y-41535000D02*
X50600000Y-41535000D01*
X47000000Y-41535000D02*
X44800000Y-41535000D01*
X47000000Y-33465000D02*
X49200000Y-33465000D01*
X47000000Y-33465000D02*
X44800000Y-33465000D01*
%TO.C,J18*%
X69230000Y-20730000D02*
X70500000Y-20730000D01*
X69230000Y-22000000D02*
X69230000Y-20730000D01*
X71542929Y-24160000D02*
X71940000Y-24160000D01*
X71542929Y-24920000D02*
X71940000Y-24920000D01*
X71542929Y-26700000D02*
X71940000Y-26700000D01*
X71542929Y-27460000D02*
X71940000Y-27460000D01*
X71542929Y-29240000D02*
X71940000Y-29240000D01*
X71542929Y-30000000D02*
X71940000Y-30000000D01*
X71542929Y-31780000D02*
X71940000Y-31780000D01*
X71542929Y-32540000D02*
X71940000Y-32540000D01*
X71542929Y-34320000D02*
X71940000Y-34320000D01*
X71542929Y-35080000D02*
X71940000Y-35080000D01*
X71542929Y-36860000D02*
X71940000Y-36860000D01*
X71542929Y-37620000D02*
X71940000Y-37620000D01*
X71610000Y-21620000D02*
X71940000Y-21620000D01*
X71610000Y-22380000D02*
X71940000Y-22380000D01*
X71940000Y-20670000D02*
X71940000Y-38570000D01*
X71940000Y-23270000D02*
X74600000Y-23270000D01*
X71940000Y-25810000D02*
X74600000Y-25810000D01*
X71940000Y-28350000D02*
X74600000Y-28350000D01*
X71940000Y-30890000D02*
X74600000Y-30890000D01*
X71940000Y-33430000D02*
X74600000Y-33430000D01*
X71940000Y-35970000D02*
X74600000Y-35970000D01*
X71940000Y-38570000D02*
X74600000Y-38570000D01*
X74600000Y-20670000D02*
X71940000Y-20670000D01*
X74600000Y-21620000D02*
X80600000Y-21620000D01*
X74600000Y-21680000D02*
X80600000Y-21680000D01*
X74600000Y-21800000D02*
X80600000Y-21800000D01*
X74600000Y-21920000D02*
X80600000Y-21920000D01*
X74600000Y-22040000D02*
X80600000Y-22040000D01*
X74600000Y-22160000D02*
X80600000Y-22160000D01*
X74600000Y-22280000D02*
X80600000Y-22280000D01*
X74600000Y-24160000D02*
X80600000Y-24160000D01*
X74600000Y-26700000D02*
X80600000Y-26700000D01*
X74600000Y-29240000D02*
X80600000Y-29240000D01*
X74600000Y-31780000D02*
X80600000Y-31780000D01*
X74600000Y-34320000D02*
X80600000Y-34320000D01*
X74600000Y-36860000D02*
X80600000Y-36860000D01*
X74600000Y-38570000D02*
X74600000Y-20670000D01*
X80600000Y-21620000D02*
X80600000Y-22380000D01*
X80600000Y-22380000D02*
X74600000Y-22380000D01*
X80600000Y-24160000D02*
X80600000Y-24920000D01*
X80600000Y-24920000D02*
X74600000Y-24920000D01*
X80600000Y-26700000D02*
X80600000Y-27460000D01*
X80600000Y-27460000D02*
X74600000Y-27460000D01*
X80600000Y-29240000D02*
X80600000Y-30000000D01*
X80600000Y-30000000D02*
X74600000Y-30000000D01*
X80600000Y-31780000D02*
X80600000Y-32540000D01*
X80600000Y-32540000D02*
X74600000Y-32540000D01*
X80600000Y-34320000D02*
X80600000Y-35080000D01*
X80600000Y-35080000D02*
X74600000Y-35080000D01*
X80600000Y-36860000D02*
X80600000Y-37620000D01*
X80600000Y-37620000D02*
X74600000Y-37620000D01*
%TO.C,C2*%
X29710000Y-21892164D02*
X29710000Y-22107836D01*
X28990000Y-21892164D02*
X28990000Y-22107836D01*
%TO.C,J9*%
X32670000Y-20670000D02*
X34000000Y-20670000D01*
X32670000Y-22000000D02*
X32670000Y-20670000D01*
X32670000Y-23270000D02*
X32670000Y-30950000D01*
X32670000Y-23270000D02*
X35330000Y-23270000D01*
X32670000Y-30950000D02*
X35330000Y-30950000D01*
X35330000Y-23270000D02*
X35330000Y-30950000D01*
%TO.C,C4*%
X36960000Y-32242164D02*
X36960000Y-32457836D01*
X36240000Y-32242164D02*
X36240000Y-32457836D01*
%TD*%
M02*
