%TF.GenerationSoftware,KiCad,Pcbnew,7.0.1*%
%TF.CreationDate,2025-01-23T23:10:33-05:00*%
%TF.ProjectId,BusChain,42757343-6861-4696-9e2e-6b696361645f,rev?*%
%TF.SameCoordinates,Original*%
%TF.FileFunction,Legend,Bot*%
%TF.FilePolarity,Positive*%
%FSLAX46Y46*%
G04 Gerber Fmt 4.6, Leading zero omitted, Abs format (unit mm)*
G04 Created by KiCad (PCBNEW 7.0.1) date 2025-01-23 23:10:33*
%MOMM*%
%LPD*%
G01*
G04 APERTURE LIST*
%ADD10C,0.150000*%
G04 APERTURE END LIST*
D10*
X42926428Y-30428571D02*
X42997857Y-30571428D01*
X42997857Y-30571428D02*
X42997857Y-30857142D01*
X42997857Y-30857142D02*
X42926428Y-31000000D01*
X42926428Y-31000000D02*
X42783571Y-31142857D01*
X42783571Y-31142857D02*
X42640714Y-31214285D01*
X42640714Y-31214285D02*
X42355000Y-31214285D01*
X42355000Y-31214285D02*
X42212142Y-31142857D01*
X42212142Y-31142857D02*
X42069285Y-31000000D01*
X42069285Y-31000000D02*
X41997857Y-30857142D01*
X41997857Y-30857142D02*
X41997857Y-30571428D01*
X41997857Y-30571428D02*
X42069285Y-30428571D01*
X43497857Y-30714285D02*
X43426428Y-31071428D01*
X43426428Y-31071428D02*
X43212142Y-31428571D01*
X43212142Y-31428571D02*
X42855000Y-31642857D01*
X42855000Y-31642857D02*
X42497857Y-31714285D01*
X42497857Y-31714285D02*
X42140714Y-31642857D01*
X42140714Y-31642857D02*
X41783571Y-31428571D01*
X41783571Y-31428571D02*
X41569285Y-31071428D01*
X41569285Y-31071428D02*
X41497857Y-30714285D01*
X41497857Y-30714285D02*
X41569285Y-30357142D01*
X41569285Y-30357142D02*
X41783571Y-30000000D01*
X41783571Y-30000000D02*
X42140714Y-29785714D01*
X42140714Y-29785714D02*
X42497857Y-29714285D01*
X42497857Y-29714285D02*
X42855000Y-29785714D01*
X42855000Y-29785714D02*
X43212142Y-30000000D01*
X43212142Y-30000000D02*
X43426428Y-30357142D01*
X43426428Y-30357142D02*
X43497857Y-30714285D01*
X41926428Y-28214285D02*
X41855000Y-28285713D01*
X41855000Y-28285713D02*
X41783571Y-28499999D01*
X41783571Y-28499999D02*
X41783571Y-28642856D01*
X41783571Y-28642856D02*
X41855000Y-28857142D01*
X41855000Y-28857142D02*
X41997857Y-28999999D01*
X41997857Y-28999999D02*
X42140714Y-29071428D01*
X42140714Y-29071428D02*
X42426428Y-29142856D01*
X42426428Y-29142856D02*
X42640714Y-29142856D01*
X42640714Y-29142856D02*
X42926428Y-29071428D01*
X42926428Y-29071428D02*
X43069285Y-28999999D01*
X43069285Y-28999999D02*
X43212142Y-28857142D01*
X43212142Y-28857142D02*
X43283571Y-28642856D01*
X43283571Y-28642856D02*
X43283571Y-28499999D01*
X43283571Y-28499999D02*
X43212142Y-28285713D01*
X43212142Y-28285713D02*
X43140714Y-28214285D01*
X43212142Y-26785713D02*
X43283571Y-26928571D01*
X43283571Y-26928571D02*
X43283571Y-27142856D01*
X43283571Y-27142856D02*
X43212142Y-27357142D01*
X43212142Y-27357142D02*
X43069285Y-27499999D01*
X43069285Y-27499999D02*
X42926428Y-27571428D01*
X42926428Y-27571428D02*
X42640714Y-27642856D01*
X42640714Y-27642856D02*
X42426428Y-27642856D01*
X42426428Y-27642856D02*
X42140714Y-27571428D01*
X42140714Y-27571428D02*
X41997857Y-27499999D01*
X41997857Y-27499999D02*
X41855000Y-27357142D01*
X41855000Y-27357142D02*
X41783571Y-27142856D01*
X41783571Y-27142856D02*
X41783571Y-26999999D01*
X41783571Y-26999999D02*
X41855000Y-26785713D01*
X41855000Y-26785713D02*
X41926428Y-26714285D01*
X41926428Y-26714285D02*
X42426428Y-26714285D01*
X42426428Y-26714285D02*
X42426428Y-26999999D01*
X41783571Y-25214285D02*
X42497857Y-25714285D01*
X41783571Y-26071428D02*
X43283571Y-26071428D01*
X43283571Y-26071428D02*
X43283571Y-25499999D01*
X43283571Y-25499999D02*
X43212142Y-25357142D01*
X43212142Y-25357142D02*
X43140714Y-25285713D01*
X43140714Y-25285713D02*
X42997857Y-25214285D01*
X42997857Y-25214285D02*
X42783571Y-25214285D01*
X42783571Y-25214285D02*
X42640714Y-25285713D01*
X42640714Y-25285713D02*
X42569285Y-25357142D01*
X42569285Y-25357142D02*
X42497857Y-25499999D01*
X42497857Y-25499999D02*
X42497857Y-26071428D01*
X45469285Y-34342857D02*
X45397857Y-34128571D01*
X45397857Y-34128571D02*
X45326428Y-34057142D01*
X45326428Y-34057142D02*
X45183571Y-33985714D01*
X45183571Y-33985714D02*
X44969285Y-33985714D01*
X44969285Y-33985714D02*
X44826428Y-34057142D01*
X44826428Y-34057142D02*
X44755000Y-34128571D01*
X44755000Y-34128571D02*
X44683571Y-34271428D01*
X44683571Y-34271428D02*
X44683571Y-34842857D01*
X44683571Y-34842857D02*
X46183571Y-34842857D01*
X46183571Y-34842857D02*
X46183571Y-34342857D01*
X46183571Y-34342857D02*
X46112142Y-34200000D01*
X46112142Y-34200000D02*
X46040714Y-34128571D01*
X46040714Y-34128571D02*
X45897857Y-34057142D01*
X45897857Y-34057142D02*
X45755000Y-34057142D01*
X45755000Y-34057142D02*
X45612142Y-34128571D01*
X45612142Y-34128571D02*
X45540714Y-34200000D01*
X45540714Y-34200000D02*
X45469285Y-34342857D01*
X45469285Y-34342857D02*
X45469285Y-34842857D01*
X45683571Y-32700000D02*
X44683571Y-32700000D01*
X45683571Y-33342857D02*
X44897857Y-33342857D01*
X44897857Y-33342857D02*
X44755000Y-33271428D01*
X44755000Y-33271428D02*
X44683571Y-33128571D01*
X44683571Y-33128571D02*
X44683571Y-32914285D01*
X44683571Y-32914285D02*
X44755000Y-32771428D01*
X44755000Y-32771428D02*
X44826428Y-32700000D01*
X44755000Y-32057142D02*
X44683571Y-31914285D01*
X44683571Y-31914285D02*
X44683571Y-31628571D01*
X44683571Y-31628571D02*
X44755000Y-31485714D01*
X44755000Y-31485714D02*
X44897857Y-31414285D01*
X44897857Y-31414285D02*
X44969285Y-31414285D01*
X44969285Y-31414285D02*
X45112142Y-31485714D01*
X45112142Y-31485714D02*
X45183571Y-31628571D01*
X45183571Y-31628571D02*
X45183571Y-31842857D01*
X45183571Y-31842857D02*
X45255000Y-31985714D01*
X45255000Y-31985714D02*
X45397857Y-32057142D01*
X45397857Y-32057142D02*
X45469285Y-32057142D01*
X45469285Y-32057142D02*
X45612142Y-31985714D01*
X45612142Y-31985714D02*
X45683571Y-31842857D01*
X45683571Y-31842857D02*
X45683571Y-31628571D01*
X45683571Y-31628571D02*
X45612142Y-31485714D01*
X44826428Y-29914285D02*
X44755000Y-29985713D01*
X44755000Y-29985713D02*
X44683571Y-30199999D01*
X44683571Y-30199999D02*
X44683571Y-30342856D01*
X44683571Y-30342856D02*
X44755000Y-30557142D01*
X44755000Y-30557142D02*
X44897857Y-30699999D01*
X44897857Y-30699999D02*
X45040714Y-30771428D01*
X45040714Y-30771428D02*
X45326428Y-30842856D01*
X45326428Y-30842856D02*
X45540714Y-30842856D01*
X45540714Y-30842856D02*
X45826428Y-30771428D01*
X45826428Y-30771428D02*
X45969285Y-30699999D01*
X45969285Y-30699999D02*
X46112142Y-30557142D01*
X46112142Y-30557142D02*
X46183571Y-30342856D01*
X46183571Y-30342856D02*
X46183571Y-30199999D01*
X46183571Y-30199999D02*
X46112142Y-29985713D01*
X46112142Y-29985713D02*
X46040714Y-29914285D01*
X44683571Y-29271428D02*
X46183571Y-29271428D01*
X44683571Y-28628571D02*
X45469285Y-28628571D01*
X45469285Y-28628571D02*
X45612142Y-28699999D01*
X45612142Y-28699999D02*
X45683571Y-28842856D01*
X45683571Y-28842856D02*
X45683571Y-29057142D01*
X45683571Y-29057142D02*
X45612142Y-29199999D01*
X45612142Y-29199999D02*
X45540714Y-29271428D01*
X44683571Y-27271428D02*
X45469285Y-27271428D01*
X45469285Y-27271428D02*
X45612142Y-27342856D01*
X45612142Y-27342856D02*
X45683571Y-27485713D01*
X45683571Y-27485713D02*
X45683571Y-27771428D01*
X45683571Y-27771428D02*
X45612142Y-27914285D01*
X44755000Y-27271428D02*
X44683571Y-27414285D01*
X44683571Y-27414285D02*
X44683571Y-27771428D01*
X44683571Y-27771428D02*
X44755000Y-27914285D01*
X44755000Y-27914285D02*
X44897857Y-27985713D01*
X44897857Y-27985713D02*
X45040714Y-27985713D01*
X45040714Y-27985713D02*
X45183571Y-27914285D01*
X45183571Y-27914285D02*
X45255000Y-27771428D01*
X45255000Y-27771428D02*
X45255000Y-27414285D01*
X45255000Y-27414285D02*
X45326428Y-27271428D01*
X44683571Y-26557142D02*
X45683571Y-26557142D01*
X46183571Y-26557142D02*
X46112142Y-26628570D01*
X46112142Y-26628570D02*
X46040714Y-26557142D01*
X46040714Y-26557142D02*
X46112142Y-26485713D01*
X46112142Y-26485713D02*
X46183571Y-26557142D01*
X46183571Y-26557142D02*
X46040714Y-26557142D01*
X45683571Y-25842856D02*
X44683571Y-25842856D01*
X45540714Y-25842856D02*
X45612142Y-25771427D01*
X45612142Y-25771427D02*
X45683571Y-25628570D01*
X45683571Y-25628570D02*
X45683571Y-25414284D01*
X45683571Y-25414284D02*
X45612142Y-25271427D01*
X45612142Y-25271427D02*
X45469285Y-25199999D01*
X45469285Y-25199999D02*
X44683571Y-25199999D01*
X44683571Y-22557141D02*
X44683571Y-23414284D01*
X44683571Y-22985713D02*
X46183571Y-22985713D01*
X46183571Y-22985713D02*
X45969285Y-23128570D01*
X45969285Y-23128570D02*
X45826428Y-23271427D01*
X45826428Y-23271427D02*
X45755000Y-23414284D01*
X44826428Y-21914285D02*
X44755000Y-21842856D01*
X44755000Y-21842856D02*
X44683571Y-21914285D01*
X44683571Y-21914285D02*
X44755000Y-21985713D01*
X44755000Y-21985713D02*
X44826428Y-21914285D01*
X44826428Y-21914285D02*
X44683571Y-21914285D01*
X44683571Y-20414284D02*
X44683571Y-21271427D01*
X44683571Y-20842856D02*
X46183571Y-20842856D01*
X46183571Y-20842856D02*
X45969285Y-20985713D01*
X45969285Y-20985713D02*
X45826428Y-21128570D01*
X45826428Y-21128570D02*
X45755000Y-21271427D01*
M02*
